<?xml version="1.0" standalone="no"?>
 <!DOCTYPE svg PUBLIC "-//W3C//DTD SVG 1.1//EN" 
 "http://www.w3.org/Graphics/SVG/1.1/DTD/svg11.dtd"> 
<svg xmlns="http://www.w3.org/2000/svg" version="1.1" 
    width="41.9989cm" height="29.7002cm" viewBox="0 0 165350 116930 ">
<title>SVG Picture created as ctrl_board-F_SilkS.svg date 2014/09/30 14:55:56 </title>
  <desc>Picture generated by PCBNEW </desc>
<g style="fill:#000000; fill-opacity:1;stroke:#000000; stroke-opacity:1;
stroke-linecap:round; stroke-linejoin:round; "
 transform="translate(0 0) scale(1 1)">
</g>
<g style="fill:#000000; fill-opacity:0.0; 
stroke:#000000; stroke-width:39.3701; stroke-opacity:1; 
stroke-linecap:round; stroke-linejoin:round;">
<circle cx="82000" cy="54750" r="500" /> 
<circle cx="86250" cy="34750" r="500" /> 
<circle cx="76000" cy="31000" r="500" /> 
</g>
<g style="fill:#000000; fill-opacity:0.0; 
stroke:#000000; stroke-width:120; stroke-opacity:1; 
stroke-linecap:round; stroke-linejoin:round;">
<path d="M79250 34250
L79250 33850
" />
<path d="M79250 33850
L78850 33850
" />
<path d="M78850 33850
L78850 30650
" />
<path d="M78850 30650
L79650 30650
" />
<path d="M79650 30650
L79650 33850
" />
<path d="M79650 33850
L79250 33850
" />
<path d="M79050 33850
L78850 33650
" />
<path d="M79250 30250
L79250 30650
" />
</g>
<g style="fill:#000000; fill-opacity:0.0; 
stroke:#000000; stroke-width:150; stroke-opacity:1; 
stroke-linecap:round; stroke-linejoin:round;">
<path d="M83000 37000
L83000 52000
" />
<path d="M83000 52000
L81000 52000
" />
<path d="M81000 52000
L81000 37000
" />
<path d="M81000 37000
L83000 37000
" />
<path d="M82500 37000
L82500 37500
" />
<path d="M82500 37500
L81500 37500
" />
<path d="M81500 37500
L81500 37000
" />
</g>
<g style="fill:#000000; fill-opacity:0.0; 
stroke:#000000; stroke-width:120; stroke-opacity:1; 
stroke-linecap:round; stroke-linejoin:round;">
<path d="M77100 44650
L77100 41850
" />
<path d="M77100 41850
L77900 41850
" />
<path d="M77900 41850
L77900 44650
" />
<path d="M77900 44650
L77100 44650
" />
<path d="M77300 44650
L77100 44450
" />
<path d="M84850 45900
L84850 43100
" />
<path d="M84850 43100
L85650 43100
" />
<path d="M85650 43100
L85650 45900
" />
<path d="M85650 45900
L84850 45900
" />
<path d="M85050 45900
L84850 45700
" />
<circle cx="82250" cy="31250" r="1750" /> 
</g>
<g style="fill:#000000; fill-opacity:0.0; 
stroke:#000000; stroke-width:60; stroke-opacity:1; 
stroke-linecap:round; stroke-linejoin:round;">
<path d="M85250 46500
L86250 46500
" />
<path d="M86250 46500
L86250 49500
" />
<path d="M86250 49500
L85250 49500
" />
<path d="M85250 49500
L85250 46500
" />
<path d="M86250 47500
L85250 47500
" />
<path d="M85250 49500
L86250 49500
" />
<path d="M86250 49500
L86250 51500
" />
<path d="M86250 51500
L85250 51500
" />
<path d="M85250 51500
L85250 49500
" />
</g>
<g style="fill:#000000; fill-opacity:0.0; 
stroke:#000000; stroke-width:120; stroke-opacity:1; 
stroke-linecap:round; stroke-linejoin:round;">
<path d="M84500 55000
L84500 54600
" />
<path d="M84500 54600
L84100 54600
" />
<path d="M84100 54600
L84100 51400
" />
<path d="M84100 51400
L84900 51400
" />
<path d="M84900 51400
L84900 54600
" />
<path d="M84900 54600
L84500 54600
" />
<path d="M84300 54600
L84100 54400
" />
<path d="M84500 51000
L84500 51400
" />
</g>
<g style="fill:#000000; fill-opacity:0.0; 
stroke:#000000; stroke-width:60; stroke-opacity:1; 
stroke-linecap:round; stroke-linejoin:round;">
<path d="M77250 32750
L78250 32750
" />
<path d="M78250 32750
L78250 34750
" />
<path d="M78250 34750
L77250 34750
" />
<path d="M77250 34750
L77250 32750
" />
</g>
<g style="fill:#000000; fill-opacity:0.0; 
stroke:#000000; stroke-width:100; stroke-opacity:1; 
stroke-linecap:round; stroke-linejoin:round;">
<path d="M86970 55500
L86970 54500
" />
</g>
<g style="fill:#000000; fill-opacity:0.0; 
stroke:#000000; stroke-width:60; stroke-opacity:1; 
stroke-linecap:round; stroke-linejoin:round;">
<path d="M85889 54615.9 A600 600 0.0 0 0 85750 55000 " />
<path d="M85750.7 55000 A599.256 599.256 0.0 0 0 85901.9 55397.9 " />
<path d="M86949.3 55000 A599.27 599.27 0.0 0 0 86805 54610 " />
<path d="M86811 55384.1 A600 600 0.0 0 0 86950 55000 " />
<path d="M86837.9 54650.7 A600 600 0.0 0 0 86350 54400 " />
<path d="M86350 54400 A600 600 0.0 0 0 85870.2 54639.7 " />
<path d="M86350 55599.3 A599.294 599.294 0.0 0 0 86822.9 55368.1 " />
<path d="M85876.5 55368.6 A600 600 0.0 0 0 86350 55600 " />
<path d="M86350 54750 A250 250 0.0 0 0 86100 55000 " />
<path d="M86350 54600 A400 400 0.0 0 0 85950 55000 " />
<path d="M86350 55250 A250 250 0.0 0 0 86600 55000 " />
<path d="M86350 55400 A400 400 0.0 0 0 86750 55000 " />
</g>
<g style="fill:#000000; fill-opacity:0.0; 
stroke:#000000; stroke-width:100; stroke-opacity:1; 
stroke-linecap:round; stroke-linejoin:round;">
<path d="M86963.7 54486.8 A800 800 0.0 0 0 86350 54200 " />
<path d="M86350 54201 A799 799 0.0 0 0 85645.2 54623.7 " />
<path d="M86351.4 55799 A798.972 798.972 0.0 0 0 86960.3 55515.7 " />
<path d="M85655.8 55397.6 A800 800 0.0 0 0 86350 55800 " />
<path d="M85645.6 54620.7 A800 800 0.0 0 0 85550 55000 " />
<path d="M85550.4 55000 A799.576 799.576 0.0 0 0 85669 55419 " />
</g>
<g style="fill:#000000; fill-opacity:0.0; 
stroke:#000000; stroke-width:120; stroke-opacity:1; 
stroke-linecap:round; stroke-linejoin:round;">
<path d="M85250 33250
L85250 29250
" />
<path d="M84750 33250
L87750 33250
" />
<path d="M87750 33250
L87750 29250
" />
<path d="M87750 29250
L84750 29250
" />
<path d="M84750 29250
L84750 33250
" />
</g>
<g style="fill:#000000; fill-opacity:0.0; 
stroke:#000000; stroke-width:60; stroke-opacity:1; 
stroke-linecap:round; stroke-linejoin:round;">
<path d="M82000 35750
L82000 34750
" />
<path d="M82000 34750
L84000 34750
" />
<path d="M84000 34750
L84000 35750
" />
<path d="M84000 35750
L82000 35750
" />
</g>
<g style="fill:#000000; fill-opacity:0.0; 
stroke:#000000; stroke-width:120; stroke-opacity:1; 
stroke-linecap:round; stroke-linejoin:round;">
<path d="M78500 37250
L78500 41250
" />
<path d="M79000 37250
L76000 37250
" />
<path d="M76000 37250
L76000 41250
" />
<path d="M76000 41250
L79000 41250
" />
<path d="M79000 41250
L79000 37250
" />
</g>
<g style="fill:#000000; fill-opacity:0.0; 
stroke:#000000; stroke-width:60; stroke-opacity:1; 
stroke-linecap:round; stroke-linejoin:round;">
<path d="M78250 36750
L77250 36750
" />
<path d="M77250 36750
L77250 34750
" />
<path d="M77250 34750
L78250 34750
" />
<path d="M78250 34750
L78250 36750
" />
</g>
<g style="fill:#000000; fill-opacity:0.0; 
stroke:#000000; stroke-width:120; stroke-opacity:1; 
stroke-linecap:round; stroke-linejoin:round;">
<path d="M84750 36250
L87750 36250
" />
<path d="M84750 42250
L87750 42250
" />
<path d="M85250 36250
L85250 42250
" />
<path d="M87750 36250
L87750 42250
" />
<path d="M84750 36250
L84750 42250
" />
</g>
<g style="fill:#000000; fill-opacity:0.0; 
stroke:#000000; stroke-width:60; stroke-opacity:1; 
stroke-linecap:round; stroke-linejoin:round;">
<path d="M81000 35750
L80000 35750
" />
<path d="M80000 34750
L81000 34750
" />
<path d="M80000 35750
L80000 34750
" />
<path d="M81000 34750
L81000 35750
" />
</g>
<g style="fill:#000000; fill-opacity:0.0; 
stroke:#000000; stroke-width:120; stroke-opacity:1; 
stroke-linecap:round; stroke-linejoin:round;">
<path d="M79000 49750
L79000 53750
" />
<path d="M79500 49750
L76500 49750
" />
<path d="M76500 49750
L76500 53750
" />
<path d="M76500 53750
L79500 53750
" />
<path d="M79500 53750
L79500 49750
" />
<path d="M79000 45750
L79000 49750
" />
<path d="M79500 45750
L76500 45750
" />
<path d="M76500 45750
L76500 49750
" />
<path d="M76500 49750
L79500 49750
" />
<path d="M79500 49750
L79500 45750
" />
</g>
<g style="fill:#000000; fill-opacity:0.0; 
stroke:#000000; stroke-width:80; stroke-opacity:1; 
stroke-linecap:round; stroke-linejoin:round;">
<path d="M79472 32583
L79210 32750
" />
<path d="M79472 32869
L78922 32869
L78922 32678
L78948 32630
L78975 32607
L79027 32583
L79105 32583
L79158 32607
L79184 32630
L79210 32678
L79210 32869
" />
<path d="M78975 32392
L78948 32369
L78922 32321
L78922 32202
L78948 32154
L78975 32130
L79027 32107
L79079 32107
L79158 32130
L79472 32416
L79472 32107
" />
</g>
<g style="fill:#000000; fill-opacity:0.0; 
stroke:#000000; stroke-width:120; stroke-opacity:1; 
stroke-linecap:round; stroke-linejoin:round;">
</g>
<g style="fill:#000000; fill-opacity:0.0; 
stroke:#000000; stroke-width:112.5; stroke-opacity:1; 
stroke-linecap:round; stroke-linejoin:round;">
<path d="M81642 40150
L82071 40150
L82157 40171
L82214 40214
L82242 40278
L82242 40321
" />
<path d="M82242 39700
L82242 39957
" />
<path d="M82242 39828
L81642 39828
L81728 39871
L81785 39914
L81814 39957
" />
</g>
<g style="fill:#000000; fill-opacity:0.0; 
stroke:#000000; stroke-width:120; stroke-opacity:1; 
stroke-linecap:round; stroke-linejoin:round;">
</g>
<g style="fill:#000000; fill-opacity:0.0; 
stroke:#000000; stroke-width:112.5; stroke-opacity:1; 
stroke-linecap:round; stroke-linejoin:round;">
<path d="M82071 50278
L82071 50064
" />
<path d="M82242 50321
L81642 50171
L82242 50021
" />
<path d="M81842 49935
L81842 49764
" />
<path d="M81642 49871
L82157 49871
L82214 49850
L82242 49807
L82242 49764
" />
<path d="M82242 49614
L81842 49614
" />
<path d="M81900 49614
L81871 49592
L81842 49549
L81842 49485
L81871 49442
L81928 49421
L82242 49421
" />
<path d="M81928 49421
L81871 49399
L81842 49357
L81842 49292
L81871 49249
L81928 49228
L82242 49228
" />
<path d="M82214 48842
L82242 48885
L82242 48971
L82214 49014
L82157 49035
L81928 49035
L81871 49014
L81842 48971
L81842 48885
L81871 48842
L81928 48821
L81985 48821
L82042 49035
" />
<path d="M81842 48435
L82328 48435
L82385 48457
L82414 48478
L82442 48521
L82442 48585
L82414 48628
" />
<path d="M82214 48435
L82242 48478
L82242 48564
L82214 48607
L82185 48628
L82128 48650
L81957 48650
L81900 48628
L81871 48607
L81842 48564
L81842 48478
L81871 48435
" />
<path d="M82242 48028
L81928 48028
L81871 48050
L81842 48092
L81842 48178
L81871 48221
" />
<path d="M82214 48028
L82242 48071
L82242 48178
L82214 48221
L82157 48242
L82100 48242
L82042 48221
L82014 48178
L82014 48071
L81985 48028
" />
<path d="M81642 47857
L81642 47578
L81871 47728
L81871 47664
L81900 47621
L81928 47599
L81985 47578
L82128 47578
L82185 47599
L82214 47621
L82242 47664
L82242 47792
L82214 47835
L82185 47857
" />
<path d="M81700 47407
L81671 47385
L81642 47342
L81642 47235
L81671 47192
L81700 47171
L81757 47150
L81814 47150
L81900 47171
L82242 47428
L82242 47150
" />
<path d="M81900 46892
L81871 46935
L81842 46957
L81785 46978
L81757 46978
L81700 46957
L81671 46935
L81642 46892
L81642 46807
L81671 46764
L81700 46742
L81757 46721
L81785 46721
L81842 46742
L81871 46764
L81900 46807
L81900 46892
L81928 46935
L81957 46957
L82014 46978
L82128 46978
L82185 46957
L82214 46935
L82242 46892
L82242 46807
L82214 46764
L82185 46742
L82128 46721
L82014 46721
L81957 46742
L81928 46764
L81900 46807
" />
</g>
<g style="fill:#000000; fill-opacity:0.0; 
stroke:#000000; stroke-width:120; stroke-opacity:1; 
stroke-linecap:round; stroke-linejoin:round;">
</g>
<g style="fill:#000000; fill-opacity:0.0; 
stroke:#000000; stroke-width:80; stroke-opacity:1; 
stroke-linecap:round; stroke-linejoin:round;">
<path d="M77623 43316
L77642 43335
L77661 43392
L77661 43430
L77642 43488
L77604 43526
L77566 43545
L77490 43564
L77433 43564
L77357 43545
L77319 43526
L77280 43488
L77261 43430
L77261 43392
L77280 43335
L77300 43316
" />
<path d="M77261 42954
L77261 43145
L77452 43164
L77433 43145
L77414 43107
L77414 43011
L77433 42973
L77452 42954
L77490 42935
L77585 42935
L77623 42954
L77642 42973
L77661 43011
L77661 43107
L77642 43145
L77623 43164
" />
<path d="M86623 44316
L86642 44335
L86661 44392
L86661 44430
L86642 44488
L86604 44526
L86566 44545
L86490 44564
L86433 44564
L86357 44545
L86319 44526
L86280 44488
L86261 44430
L86261 44392
L86280 44335
L86300 44316
" />
<path d="M86661 43935
L86661 44164
" />
<path d="M86661 44049
L86261 44049
L86319 44088
L86357 44126
L86376 44164
" />
<path d="M81373 31316
L81392 31335
L81411 31392
L81411 31430
L81392 31488
L81354 31526
L81316 31545
L81240 31564
L81183 31564
L81107 31545
L81069 31526
L81030 31488
L81011 31430
L81011 31392
L81030 31335
L81050 31316
" />
<path d="M81011 30973
L81011 31049
L81030 31088
L81050 31107
L81107 31145
L81183 31164
L81335 31164
L81373 31145
L81392 31126
L81411 31088
L81411 31011
L81392 30973
L81373 30954
L81335 30935
L81240 30935
L81202 30954
L81183 30973
L81164 31011
L81164 31088
L81183 31126
L81202 31145
L81240 31164
" />
<path d="M83645 31907
L83911 31907
" />
<path d="M83492 32002
L83778 32097
L83778 31850
" />
<path d="M83511 31735
L83511 31469
L83911 31640
" />
<path d="M83511 31240
L83511 31202
L83530 31164
L83550 31145
L83588 31126
L83664 31107
L83759 31107
L83835 31126
L83873 31145
L83892 31164
L83911 31202
L83911 31240
L83892 31278
L83873 31297
L83835 31316
L83759 31335
L83664 31335
L83588 31316
L83550 31297
L83530 31278
L83511 31240
" />
<path d="M83645 30764
L83911 30764
" />
<path d="M83645 30935
L83854 30935
L83892 30916
L83911 30878
L83911 30821
L83892 30783
L83873 30764
" />
<path d="M83702 30440
L83702 30573
" />
<path d="M83911 30573
L83511 30573
L83511 30383
" />
</g>
<g style="fill:#000000; fill-opacity:0.0; 
stroke:#000000; stroke-width:60; stroke-opacity:1; 
stroke-linecap:round; stroke-linejoin:round;">
<path d="M86761 48395
L86361 48395
" />
<path d="M86761 48166
L86533 48338
" />
<path d="M86361 48166
L86590 48395
" />
<path d="M86761 47785
L86761 48014
" />
<path d="M86761 47899
L86361 47899
L86419 47938
L86457 47976
L86476 48014
" />
<path d="M86621 50721
L86321 50721
L86321 50607
L86335 50578
L86350 50564
L86378 50550
L86421 50550
L86450 50564
L86464 50578
L86478 50607
L86478 50721
" />
<path d="M86621 50264
L86621 50435
" />
<path d="M86621 50350
L86321 50350
L86364 50378
L86392 50407
L86407 50435
" />
</g>
<g style="fill:#000000; fill-opacity:0.0; 
stroke:#000000; stroke-width:80; stroke-opacity:1; 
stroke-linecap:round; stroke-linejoin:round;">
<path d="M84722 53083
L84460 53250
" />
<path d="M84722 53369
L84172 53369
L84172 53178
L84198 53130
L84225 53107
L84277 53083
L84355 53083
L84408 53107
L84434 53130
L84460 53178
L84460 53369
" />
<path d="M84722 52607
L84722 52892
" />
<path d="M84722 52750
L84172 52750
L84251 52797
L84303 52845
L84329 52892
" />
</g>
<g style="fill:#000000; fill-opacity:0.0; 
stroke:#000000; stroke-width:60; stroke-opacity:1; 
stroke-linecap:round; stroke-linejoin:round;">
<path d="M78621 34600
L78321 34600
L78321 34485
L78335 34457
L78350 34442
L78378 34428
L78421 34428
L78450 34442
L78464 34457
L78478 34485
L78478 34600
" />
<path d="M78421 34328
L78621 34271
L78478 34214
L78621 34157
L78421 34100
" />
<path d="M78621 33985
L78421 33985
" />
<path d="M78478 33985
L78450 33971
L78435 33957
L78421 33928
L78421 33900
" />
<path d="M78321 33742
L78321 33685
L78335 33657
L78364 33628
L78421 33614
L78521 33614
L78578 33628
L78607 33657
L78621 33685
L78621 33742
L78607 33771
L78578 33800
L78521 33814
L78421 33814
L78364 33800
L78335 33771
L78321 33742
" />
<path d="M78421 33357
L78621 33357
" />
<path d="M78421 33485
L78578 33485
L78607 33471
L78621 33442
L78621 33400
L78607 33371
L78592 33357
" />
<path d="M78421 33257
L78421 33142
" />
<path d="M78321 33214
L78578 33214
L78607 33200
L78621 33171
L78621 33142
" />
<path d="M78621 32885
L78621 33057
" />
<path d="M78621 32971
L78321 32971
L78364 32999
L78392 33028
L78407 33057
" />
</g>
<g style="fill:#000000; fill-opacity:0.0; 
stroke:#000000; stroke-width:35; stroke-opacity:1; 
stroke-linecap:round; stroke-linejoin:round;">
<path d="M86728 54021
L86728 53721
L86800 53721
L86842 53735
L86871 53764
L86885 53792
L86900 53850
L86900 53892
L86885 53950
L86871 53978
L86842 54007
L86800 54021
L86728 54021
" />
<path d="M87185 54021
L87014 54021
" />
<path d="M87100 54021
L87100 53721
L87071 53764
L87042 53792
L87014 53807
" />
<path d="M86057 56121
L85914 56121
L85914 55821
" />
<path d="M86157 55964
L86257 55964
" />
<path d="M86300 56121
L86157 56121
L86157 55821
L86300 55821
" />
<path d="M86428 56121
L86428 55821
L86500 55821
L86542 55835
L86571 55864
L86585 55892
L86600 55950
L86600 55992
L86585 56050
L86571 56078
L86542 56107
L86500 56121
L86428 56121
" />
</g>
<g style="fill:#000000; fill-opacity:0.0; 
stroke:#000000; stroke-width:120; stroke-opacity:1; 
stroke-linecap:round; stroke-linejoin:round;">
<path d="M88492 32607
L87892 32607
L87892 32378
L87921 32321
L87950 32292
L88007 32264
L88092 32264
L88150 32292
L88178 32321
L88207 32378
L88207 32607
" />
<path d="M88092 32064
L88492 31950
L88207 31835
L88492 31721
L88092 31607
" />
<path d="M88492 31378
L88092 31378
" />
<path d="M88207 31378
L88150 31350
L88121 31321
L88092 31264
L88092 31207
" />
<path d="M88492 31007
L87892 31007
" />
<path d="M88092 30721
L88492 30721
" />
<path d="M88150 30721
L88121 30692
L88092 30635
L88092 30550
L88121 30492
L88178 30464
L88492 30464
" />
<path d="M88492 29864
L88492 30207
" />
<path d="M88492 30035
L87892 30035
L87978 30092
L88035 30150
L88064 30207
" />
<path d="M84435 32521
L84464 32549
L84492 32635
L84492 32692
L84464 32778
L84407 32835
L84350 32864
L84235 32892
L84150 32892
L84035 32864
L83978 32835
L83921 32778
L83892 32692
L83892 32635
L83921 32549
L83950 32521
" />
<path d="M83892 32149
L83892 32035
L83921 31978
L83978 31921
L84092 31892
L84292 31892
L84407 31921
L84464 31978
L84492 32035
L84492 32149
L84464 32207
L84407 32264
L84292 32292
L84092 32292
L83978 32264
L83921 32207
L83892 32149
" />
<path d="M84492 31635
L83892 31635
L84492 31292
L83892 31292
" />
<path d="M84492 31007
L83892 31007
L84492 30664
L83892 30664
" />
<path d="M84550 30521
L84550 30064
" />
<path d="M83950 29950
L83921 29921
L83892 29864
L83892 29721
L83921 29664
L83950 29635
L84007 29607
L84064 29607
L84150 29635
L84492 29978
L84492 29607
" />
</g>
<g style="fill:#000000; fill-opacity:0.0; 
stroke:#000000; stroke-width:60; stroke-opacity:1; 
stroke-linecap:round; stroke-linejoin:round;">
<path d="M82564 34621
L82564 34321
" />
<path d="M82692 34350
L82707 34335
L82735 34321
L82807 34321
L82835 34335
L82850 34350
L82864 34378
L82864 34407
L82850 34450
L82678 34621
L82864 34621
" />
<path d="M83164 34592
L83150 34607
L83107 34621
L83078 34621
L83035 34607
L83007 34578
L82992 34550
L82978 34492
L82978 34450
L82992 34392
L83007 34364
L83035 34335
L83078 34321
L83107 34321
L83150 34335
L83164 34350
" />
<path d="M83450 34621
L83278 34621
" />
<path d="M83364 34621
L83364 34321
L83335 34364
L83307 34392
L83278 34407
" />
</g>
<g style="fill:#000000; fill-opacity:0.0; 
stroke:#000000; stroke-width:120; stroke-opacity:1; 
stroke-linecap:round; stroke-linejoin:round;">
<path d="M75742 39850
L75142 39850
" />
<path d="M75142 39450
L75142 39335
L75171 39278
L75228 39221
L75342 39192
L75542 39192
L75657 39221
L75714 39278
L75742 39335
L75742 39450
L75714 39507
L75657 39564
L75542 39592
L75342 39592
L75228 39564
L75171 39507
L75142 39450
" />
<path d="M75742 38621
L75742 38964
" />
<path d="M75742 38792
L75142 38792
L75228 38850
L75285 38907
L75314 38964
" />
<path d="M79685 40521
L79714 40549
L79742 40635
L79742 40692
L79714 40778
L79657 40835
L79600 40864
L79485 40892
L79400 40892
L79285 40864
L79228 40835
L79171 40778
L79142 40692
L79142 40635
L79171 40549
L79200 40521
" />
<path d="M79142 40149
L79142 40035
L79171 39978
L79228 39921
L79342 39892
L79542 39892
L79657 39921
L79714 39978
L79742 40035
L79742 40149
L79714 40207
L79657 40264
L79542 40292
L79342 40292
L79228 40264
L79171 40207
L79142 40149
" />
<path d="M79742 39635
L79142 39635
L79742 39292
L79142 39292
" />
<path d="M79742 39007
L79142 39007
L79742 38664
L79142 38664
" />
<path d="M79800 38521
L79800 38064
" />
<path d="M79200 37950
L79171 37921
L79142 37864
L79142 37721
L79171 37664
L79200 37635
L79257 37607
L79314 37607
L79400 37635
L79742 37978
L79742 37607
" />
</g>
<g style="fill:#000000; fill-opacity:0.0; 
stroke:#000000; stroke-width:60; stroke-opacity:1; 
stroke-linecap:round; stroke-linejoin:round;">
<path d="M77121 36228
L76978 36328
" />
<path d="M77121 36399
L76821 36399
L76821 36285
L76835 36257
L76850 36242
L76878 36228
L76921 36228
L76950 36242
L76964 36257
L76978 36285
L76978 36399
" />
<path d="M77107 36114
L77121 36071
L77121 35999
L77107 35971
L77092 35957
L77064 35942
L77035 35942
L77007 35957
L76992 35971
L76978 35999
L76964 36057
L76950 36085
L76935 36099
L76907 36114
L76878 36114
L76850 36099
L76835 36085
L76821 36057
L76821 35985
L76835 35942
" />
<path d="M76850 35828
L76835 35814
L76821 35785
L76821 35714
L76835 35685
L76850 35671
L76878 35657
L76907 35657
L76950 35671
L77121 35842
L77121 35657
" />
<path d="M76821 35557
L76821 35371
L76935 35471
L76935 35428
L76950 35400
L76964 35385
L76992 35371
L77064 35371
L77092 35385
L77107 35400
L77121 35428
L77121 35514
L77107 35542
L77092 35557
" />
<path d="M76850 35257
L76835 35242
L76821 35214
L76821 35142
L76835 35114
L76850 35100
L76878 35085
L76907 35085
L76950 35100
L77121 35271
L77121 35085
" />
</g>
<g style="fill:#000000; fill-opacity:0.0; 
stroke:#000000; stroke-width:120; stroke-opacity:1; 
stroke-linecap:round; stroke-linejoin:round;">
<path d="M88321 40135
L88321 39850
" />
<path d="M88492 40192
L87892 39992
L88492 39792
" />
<path d="M88492 39592
L87892 39592
" />
<path d="M87892 39192
L87892 39078
L87921 39021
L87978 38964
L88092 38935
L88292 38935
L88407 38964
L88464 39021
L88492 39078
L88492 39192
L88464 39250
L88407 39307
L88292 39335
L88092 39335
L87978 39307
L87921 39250
L87892 39192
" />
<path d="M88492 38364
L88492 38707
" />
<path d="M88492 38535
L87892 38535
L87978 38592
L88035 38650
L88064 38707
" />
<path d="M84435 40521
L84464 40549
L84492 40635
L84492 40692
L84464 40778
L84407 40835
L84350 40864
L84235 40892
L84150 40892
L84035 40864
L83978 40835
L83921 40778
L83892 40692
L83892 40635
L83921 40549
L83950 40521
" />
<path d="M83892 40149
L83892 40035
L83921 39978
L83978 39921
L84092 39892
L84292 39892
L84407 39921
L84464 39978
L84492 40035
L84492 40149
L84464 40207
L84407 40264
L84292 40292
L84092 40292
L83978 40264
L83921 40207
L83892 40149
" />
<path d="M84492 39635
L83892 39635
L84492 39292
L83892 39292
" />
<path d="M84492 39007
L83892 39007
L84492 38664
L83892 38664
" />
<path d="M84550 38521
L84550 38064
" />
<path d="M83892 37978
L83892 37607
L84121 37807
L84121 37721
L84150 37664
L84178 37635
L84235 37607
L84378 37607
L84435 37635
L84464 37664
L84492 37721
L84492 37892
L84464 37950
L84435 37978
" />
</g>
<g style="fill:#000000; fill-opacity:0.0; 
stroke:#000000; stroke-width:60; stroke-opacity:1; 
stroke-linecap:round; stroke-linejoin:round;">
<path d="M80278 34621
L80278 34321
L80392 34321
L80421 34335
L80435 34350
L80450 34378
L80450 34421
L80435 34450
L80421 34464
L80392 34478
L80278 34478
" />
<path d="M80564 34350
L80578 34335
L80607 34321
L80678 34321
L80707 34335
L80721 34350
L80735 34378
L80735 34407
L80721 34450
L80550 34621
L80735 34621
" />
</g>
<g style="fill:#000000; fill-opacity:0.0; 
stroke:#000000; stroke-width:120; stroke-opacity:1; 
stroke-linecap:round; stroke-linejoin:round;">
<path d="M76242 52350
L75642 52350
" />
<path d="M75642 51950
L75642 51835
L75671 51778
L75728 51721
L75842 51692
L76042 51692
L76157 51721
L76214 51778
L76242 51835
L76242 51950
L76214 52007
L76157 52064
L76042 52092
L75842 52092
L75728 52064
L75671 52007
L75642 51950
" />
<path d="M75642 51492
L75642 51121
L75871 51321
L75871 51235
L75900 51178
L75928 51150
L75985 51121
L76128 51121
L76185 51150
L76214 51178
L76242 51235
L76242 51407
L76214 51464
L76185 51492
" />
<path d="M80185 53021
L80214 53049
L80242 53135
L80242 53192
L80214 53278
L80157 53335
L80100 53364
L79985 53392
L79900 53392
L79785 53364
L79728 53335
L79671 53278
L79642 53192
L79642 53135
L79671 53049
L79700 53021
" />
<path d="M79642 52649
L79642 52535
L79671 52478
L79728 52421
L79842 52392
L80042 52392
L80157 52421
L80214 52478
L80242 52535
L80242 52649
L80214 52707
L80157 52764
L80042 52792
L79842 52792
L79728 52764
L79671 52707
L79642 52649
" />
<path d="M80242 52135
L79642 52135
L80242 51792
L79642 51792
" />
<path d="M80242 51507
L79642 51507
L80242 51164
L79642 51164
" />
<path d="M80300 51021
L80300 50564
" />
<path d="M79700 50450
L79671 50421
L79642 50364
L79642 50221
L79671 50164
L79700 50135
L79757 50107
L79814 50107
L79900 50135
L80242 50478
L80242 50107
" />
<path d="M76242 48350
L75642 48350
" />
<path d="M75642 47950
L75642 47835
L75671 47778
L75728 47721
L75842 47692
L76042 47692
L76157 47721
L76214 47778
L76242 47835
L76242 47950
L76214 48007
L76157 48064
L76042 48092
L75842 48092
L75728 48064
L75671 48007
L75642 47950
" />
<path d="M75700 47464
L75671 47435
L75642 47378
L75642 47235
L75671 47178
L75700 47150
L75757 47121
L75814 47121
L75900 47150
L76242 47492
L76242 47121
" />
<path d="M80185 49021
L80214 49049
L80242 49135
L80242 49192
L80214 49278
L80157 49335
L80100 49364
L79985 49392
L79900 49392
L79785 49364
L79728 49335
L79671 49278
L79642 49192
L79642 49135
L79671 49049
L79700 49021
" />
<path d="M79642 48649
L79642 48535
L79671 48478
L79728 48421
L79842 48392
L80042 48392
L80157 48421
L80214 48478
L80242 48535
L80242 48649
L80214 48707
L80157 48764
L80042 48792
L79842 48792
L79728 48764
L79671 48707
L79642 48649
" />
<path d="M80242 48135
L79642 48135
L80242 47792
L79642 47792
" />
<path d="M80242 47507
L79642 47507
L80242 47164
L79642 47164
" />
<path d="M80300 47021
L80300 46564
" />
<path d="M79700 46450
L79671 46421
L79642 46364
L79642 46221
L79671 46164
L79700 46135
L79757 46107
L79814 46107
L79900 46135
L80242 46478
L80242 46107
" />
</g> 
</svg>
