<?xml version="1.0" standalone="no"?>
 <!DOCTYPE svg PUBLIC "-//W3C//DTD SVG 1.1//EN" 
 "http://www.w3.org/Graphics/SVG/1.1/DTD/svg11.dtd"> 
<svg xmlns="http://www.w3.org/2000/svg" version="1.1" 
    width="41.9989cm" height="29.7002cm" viewBox="0 0 165350 116930 ">
<title>SVG Picture created as ctrl_board-F_Mask.svg date 2014/09/30 14:55:56 </title>
  <desc>Picture generated by PCBNEW </desc>
<g style="fill:#000000; fill-opacity:1;stroke:#000000; stroke-opacity:1;
stroke-linecap:round; stroke-linejoin:round; "
 transform="translate(0 0) scale(1 1)">
</g>
<g style="fill:#000000; fill-opacity:0.0; 
stroke:#000000; stroke-width:39.3701; stroke-opacity:1; 
stroke-linecap:round; stroke-linejoin:round;">
<circle cx="82000" cy="54750" r="500" /> 
<circle cx="86250" cy="34750" r="500" /> 
<circle cx="76000" cy="31000" r="500" /> 
</g>
<g style="fill:#000000; fill-opacity:1.0; 
stroke:#000000; stroke-width:59.0551; stroke-opacity:1; 
stroke-linecap:round; stroke-linejoin:round;">
<polyline style="fill-rule:evenodd;"
points="77854,42219
77853,42290
77836,42366
77811,42422
77766,42485
77722,42527
77656,42569
77600,42591
77522,42605
77462,42603
77385,42587
77330,42562
77265,42517
77224,42474
77181,42408
77159,42352
77144,42274
77145,42215
77162,42137
77185,42082
77230,42017
77272,41975
77339,41932
77394,41910
77473,41894
77531,41895
77610,41911
77664,41934
77731,41979
77772,42020
77817,42087
77839,42141
77854,42219
" /> 
<polyline style="fill-rule:evenodd;"
points="77854,44219
77853,44290
77836,44366
77811,44422
77766,44485
77722,44527
77656,44569
77600,44591
77522,44605
77462,44603
77385,44587
77330,44562
77265,44517
77224,44474
77181,44408
77159,44352
77144,44274
77145,44215
77162,44137
77185,44082
77230,44017
77272,43975
77339,43932
77394,43910
77473,43894
77531,43895
77610,43911
77664,43934
77731,43979
77772,44020
77817,44087
77839,44141
77854,44219
" /> 
<polyline style="fill-rule:evenodd;"
points="78079,38197
78077,38318
78050,38437
78008,38533
77937,38633
77861,38705
77758,38771
77660,38809
77540,38830
77435,38828
77315,38802
77220,38760
77119,38690
77046,38615
76980,38511
76941,38415
76919,38293
76921,38190
76946,38069
76987,37974
77057,37871
77131,37799
77235,37731
77330,37693
77452,37669
77555,37670
77677,37695
77772,37735
77875,37805
77947,37877
78016,37981
78055,38076
78079,38197
" /> 
<polyline style="fill-rule:evenodd;"
points="78079,40829
76920,40829
76920,39670
78079,39670
78079,40829
" /> 
<polyline style="fill-rule:evenodd;"
points="78129,34217
78128,34293
78110,34374
78083,34434
78035,34502
77988,34547
77917,34592
77856,34615
77774,34630
77709,34628
77627,34610
77568,34584
77499,34537
77454,34490
77408,34419
77385,34359
77369,34276
77370,34212
77388,34129
77413,34070
77461,34001
77507,33956
77578,33909
77637,33885
77720,33869
77784,33870
77867,33887
77926,33912
77997,33959
78041,34004
78089,34076
78113,34134
78129,34217
" /> 
<polyline style="fill-rule:evenodd;"
points="78129,35217
78128,35293
78110,35374
78083,35434
78035,35502
77988,35547
77917,35592
77856,35615
77774,35630
77709,35628
77627,35610
77568,35584
77499,35537
77454,35490
77408,35419
77385,35359
77369,35276
77370,35212
77388,35129
77413,35070
77461,35001
77507,34956
77578,34909
77637,34885
77720,34869
77784,34870
77867,34887
77926,34912
77997,34959
78041,35004
78089,35076
78113,35134
78129,35217
" /> 
<polyline style="fill-rule:evenodd;"
points="78129,33629
77370,33629
77370,32870
78129,32870
78129,33629
" /> 
<polyline style="fill-rule:evenodd;"
points="78129,36629
77370,36629
77370,35870
78129,35870
78129,36629
" /> 
<polyline style="fill-rule:evenodd;"
points="78579,46697
78577,46818
78550,46937
78508,47033
78437,47133
78361,47205
78258,47271
78160,47309
78040,47330
77935,47328
77815,47302
77720,47260
77619,47190
77546,47115
77480,47011
77441,46915
77419,46793
77421,46690
77446,46569
77487,46474
77557,46371
77631,46299
77735,46231
77830,46193
77952,46169
78055,46170
78177,46195
78272,46235
78375,46305
78447,46377
78516,46481
78555,46576
78579,46697
" /> 
<polyline style="fill-rule:evenodd;"
points="78579,50697
78577,50818
78550,50937
78508,51033
78437,51133
78361,51205
78258,51271
78160,51309
78040,51330
77935,51328
77815,51302
77720,51260
77619,51190
77546,51115
77480,51011
77441,50915
77419,50793
77421,50690
77446,50569
77487,50474
77557,50371
77631,50299
77735,50231
77830,50193
77952,50169
78055,50170
78177,50195
78272,50235
78375,50305
78447,50377
78516,50481
78555,50576
78579,50697
" /> 
<polyline style="fill-rule:evenodd;"
points="78579,49329
77420,49329
77420,48170
78579,48170
78579,49329
" /> 
<polyline style="fill-rule:evenodd;"
points="78579,53329
77420,53329
77420,52170
78579,52170
78579,53329
" /> 
<polyline style="fill-rule:evenodd;"
points="79629,30217
79628,30293
79610,30374
79583,30434
79535,30502
79488,30547
79417,30592
79356,30615
79274,30630
79209,30628
79127,30610
79068,30584
78999,30537
78954,30490
78908,30419
78885,30359
78869,30276
78870,30212
78888,30129
78913,30070
78961,30001
79007,29956
79078,29909
79137,29885
79220,29869
79284,29870
79367,29887
79426,29912
79497,29959
79541,30004
79589,30076
79613,30134
79629,30217
" /> 
<polyline style="fill-rule:evenodd;"
points="79629,34217
79628,34293
79610,34374
79583,34434
79535,34502
79488,34547
79417,34592
79356,34615
79274,34630
79209,34628
79127,34610
79068,34584
78999,34537
78954,34490
78908,34419
78885,34359
78869,34276
78870,34212
78888,34129
78913,34070
78961,34001
79007,33956
79078,33909
79137,33885
79220,33869
79284,33870
79367,33887
79426,33912
79497,33959
79541,34004
79589,34076
79613,34134
79629,34217
" /> 
<polyline style="fill-rule:evenodd;"
points="80854,38969
80853,39040
80836,39116
80811,39172
80766,39235
80722,39277
80656,39319
80600,39341
80522,39355
80462,39353
80385,39337
80330,39312
80265,39267
80224,39224
80181,39158
80159,39102
80144,39024
80145,38965
80162,38887
80185,38832
80230,38767
80272,38725
80339,38682
80394,38660
80473,38644
80531,38645
80610,38661
80664,38684
80731,38729
80772,38770
80817,38837
80839,38891
80854,38969
" /> 
<polyline style="fill-rule:evenodd;"
points="80854,39969
80853,40040
80836,40116
80811,40172
80766,40235
80722,40277
80656,40319
80600,40341
80522,40355
80462,40353
80385,40337
80330,40312
80265,40267
80224,40224
80181,40158
80159,40102
80144,40024
80145,39965
80162,39887
80185,39832
80230,39767
80272,39725
80339,39682
80394,39660
80473,39644
80531,39645
80610,39661
80664,39684
80731,39729
80772,39770
80817,39837
80839,39891
80854,39969
" /> 
<polyline style="fill-rule:evenodd;"
points="80854,40969
80853,41040
80836,41116
80811,41172
80766,41235
80722,41277
80656,41319
80600,41341
80522,41355
80462,41353
80385,41337
80330,41312
80265,41267
80224,41224
80181,41158
80159,41102
80144,41024
80145,40965
80162,40887
80185,40832
80230,40767
80272,40725
80339,40682
80394,40660
80473,40644
80531,40645
80610,40661
80664,40684
80731,40729
80772,40770
80817,40837
80839,40891
80854,40969
" /> 
<polyline style="fill-rule:evenodd;"
points="80854,41969
80853,42040
80836,42116
80811,42172
80766,42235
80722,42277
80656,42319
80600,42341
80522,42355
80462,42353
80385,42337
80330,42312
80265,42267
80224,42224
80181,42158
80159,42102
80144,42024
80145,41965
80162,41887
80185,41832
80230,41767
80272,41725
80339,41682
80394,41660
80473,41644
80531,41645
80610,41661
80664,41684
80731,41729
80772,41770
80817,41837
80839,41891
80854,41969
" /> 
<polyline style="fill-rule:evenodd;"
points="80854,42969
80853,43040
80836,43116
80811,43172
80766,43235
80722,43277
80656,43319
80600,43341
80522,43355
80462,43353
80385,43337
80330,43312
80265,43267
80224,43224
80181,43158
80159,43102
80144,43024
80145,42965
80162,42887
80185,42832
80230,42767
80272,42725
80339,42682
80394,42660
80473,42644
80531,42645
80610,42661
80664,42684
80731,42729
80772,42770
80817,42837
80839,42891
80854,42969
" /> 
<polyline style="fill-rule:evenodd;"
points="80854,43969
80853,44040
80836,44116
80811,44172
80766,44235
80722,44277
80656,44319
80600,44341
80522,44355
80462,44353
80385,44337
80330,44312
80265,44267
80224,44224
80181,44158
80159,44102
80144,44024
80145,43965
80162,43887
80185,43832
80230,43767
80272,43725
80339,43682
80394,43660
80473,43644
80531,43645
80610,43661
80664,43684
80731,43729
80772,43770
80817,43837
80839,43891
80854,43969
" /> 
<polyline style="fill-rule:evenodd;"
points="80854,44969
80853,45040
80836,45116
80811,45172
80766,45235
80722,45277
80656,45319
80600,45341
80522,45355
80462,45353
80385,45337
80330,45312
80265,45267
80224,45224
80181,45158
80159,45102
80144,45024
80145,44965
80162,44887
80185,44832
80230,44767
80272,44725
80339,44682
80394,44660
80473,44644
80531,44645
80610,44661
80664,44684
80731,44729
80772,44770
80817,44837
80839,44891
80854,44969
" /> 
<polyline style="fill-rule:evenodd;"
points="80854,45969
80853,46040
80836,46116
80811,46172
80766,46235
80722,46277
80656,46319
80600,46341
80522,46355
80462,46353
80385,46337
80330,46312
80265,46267
80224,46224
80181,46158
80159,46102
80144,46024
80145,45965
80162,45887
80185,45832
80230,45767
80272,45725
80339,45682
80394,45660
80473,45644
80531,45645
80610,45661
80664,45684
80731,45729
80772,45770
80817,45837
80839,45891
80854,45969
" /> 
<polyline style="fill-rule:evenodd;"
points="80854,46969
80853,47040
80836,47116
80811,47172
80766,47235
80722,47277
80656,47319
80600,47341
80522,47355
80462,47353
80385,47337
80330,47312
80265,47267
80224,47224
80181,47158
80159,47102
80144,47024
80145,46965
80162,46887
80185,46832
80230,46767
80272,46725
80339,46682
80394,46660
80473,46644
80531,46645
80610,46661
80664,46684
80731,46729
80772,46770
80817,46837
80839,46891
80854,46969
" /> 
<polyline style="fill-rule:evenodd;"
points="80854,47969
80853,48040
80836,48116
80811,48172
80766,48235
80722,48277
80656,48319
80600,48341
80522,48355
80462,48353
80385,48337
80330,48312
80265,48267
80224,48224
80181,48158
80159,48102
80144,48024
80145,47965
80162,47887
80185,47832
80230,47767
80272,47725
80339,47682
80394,47660
80473,47644
80531,47645
80610,47661
80664,47684
80731,47729
80772,47770
80817,47837
80839,47891
80854,47969
" /> 
<polyline style="fill-rule:evenodd;"
points="80854,48969
80853,49040
80836,49116
80811,49172
80766,49235
80722,49277
80656,49319
80600,49341
80522,49355
80462,49353
80385,49337
80330,49312
80265,49267
80224,49224
80181,49158
80159,49102
80144,49024
80145,48965
80162,48887
80185,48832
80230,48767
80272,48725
80339,48682
80394,48660
80473,48644
80531,48645
80610,48661
80664,48684
80731,48729
80772,48770
80817,48837
80839,48891
80854,48969
" /> 
<polyline style="fill-rule:evenodd;"
points="80854,49969
80853,50040
80836,50116
80811,50172
80766,50235
80722,50277
80656,50319
80600,50341
80522,50355
80462,50353
80385,50337
80330,50312
80265,50267
80224,50224
80181,50158
80159,50102
80144,50024
80145,49965
80162,49887
80185,49832
80230,49767
80272,49725
80339,49682
80394,49660
80473,49644
80531,49645
80610,49661
80664,49684
80731,49729
80772,49770
80817,49837
80839,49891
80854,49969
" /> 
<polyline style="fill-rule:evenodd;"
points="80854,50969
80853,51040
80836,51116
80811,51172
80766,51235
80722,51277
80656,51319
80600,51341
80522,51355
80462,51353
80385,51337
80330,51312
80265,51267
80224,51224
80181,51158
80159,51102
80144,51024
80145,50965
80162,50887
80185,50832
80230,50767
80272,50725
80339,50682
80394,50660
80473,50644
80531,50645
80610,50661
80664,50684
80731,50729
80772,50770
80817,50837
80839,50891
80854,50969
" /> 
<polyline style="fill-rule:evenodd;"
points="80854,38354
80145,38354
80145,37645
80854,37645
80854,38354
" /> 
<polyline style="fill-rule:evenodd;"
points="80879,35629
80120,35629
80120,34870
80879,34870
80879,35629
" /> 
<polyline style="fill-rule:evenodd;"
points="82679,32212
82678,32299
82657,32390
82627,32459
82573,32535
82518,32587
82440,32636
82370,32664
82278,32680
82203,32678
82112,32658
82043,32628
81966,32575
81914,32521
81864,32442
81836,32373
81819,32281
81820,32206
81840,32114
81869,32046
81922,31968
81975,31917
82054,31865
82123,31837
82216,31819
82289,31820
82382,31839
82450,31867
82529,31921
82580,31973
82633,32052
82661,32119
82679,32212
" /> 
<polyline style="fill-rule:evenodd;"
points="82679,30679
81820,30679
81820,29820
82679,29820
82679,30679
" /> 
<polyline style="fill-rule:evenodd;"
points="82879,35629
82120,35629
82120,34870
82879,34870
82879,35629
" /> 
<polyline style="fill-rule:evenodd;"
points="83854,37969
83853,38040
83836,38116
83811,38172
83766,38235
83722,38277
83656,38319
83600,38341
83522,38355
83462,38353
83385,38337
83330,38312
83265,38267
83224,38224
83181,38158
83159,38102
83144,38024
83145,37965
83162,37887
83185,37832
83230,37767
83272,37725
83339,37682
83394,37660
83473,37644
83531,37645
83610,37661
83664,37684
83731,37729
83772,37770
83817,37837
83839,37891
83854,37969
" /> 
<polyline style="fill-rule:evenodd;"
points="83854,38969
83853,39040
83836,39116
83811,39172
83766,39235
83722,39277
83656,39319
83600,39341
83522,39355
83462,39353
83385,39337
83330,39312
83265,39267
83224,39224
83181,39158
83159,39102
83144,39024
83145,38965
83162,38887
83185,38832
83230,38767
83272,38725
83339,38682
83394,38660
83473,38644
83531,38645
83610,38661
83664,38684
83731,38729
83772,38770
83817,38837
83839,38891
83854,38969
" /> 
<polyline style="fill-rule:evenodd;"
points="83854,39969
83853,40040
83836,40116
83811,40172
83766,40235
83722,40277
83656,40319
83600,40341
83522,40355
83462,40353
83385,40337
83330,40312
83265,40267
83224,40224
83181,40158
83159,40102
83144,40024
83145,39965
83162,39887
83185,39832
83230,39767
83272,39725
83339,39682
83394,39660
83473,39644
83531,39645
83610,39661
83664,39684
83731,39729
83772,39770
83817,39837
83839,39891
83854,39969
" /> 
<polyline style="fill-rule:evenodd;"
points="83854,40969
83853,41040
83836,41116
83811,41172
83766,41235
83722,41277
83656,41319
83600,41341
83522,41355
83462,41353
83385,41337
83330,41312
83265,41267
83224,41224
83181,41158
83159,41102
83144,41024
83145,40965
83162,40887
83185,40832
83230,40767
83272,40725
83339,40682
83394,40660
83473,40644
83531,40645
83610,40661
83664,40684
83731,40729
83772,40770
83817,40837
83839,40891
83854,40969
" /> 
<polyline style="fill-rule:evenodd;"
points="83854,41969
83853,42040
83836,42116
83811,42172
83766,42235
83722,42277
83656,42319
83600,42341
83522,42355
83462,42353
83385,42337
83330,42312
83265,42267
83224,42224
83181,42158
83159,42102
83144,42024
83145,41965
83162,41887
83185,41832
83230,41767
83272,41725
83339,41682
83394,41660
83473,41644
83531,41645
83610,41661
83664,41684
83731,41729
83772,41770
83817,41837
83839,41891
83854,41969
" /> 
<polyline style="fill-rule:evenodd;"
points="83854,42969
83853,43040
83836,43116
83811,43172
83766,43235
83722,43277
83656,43319
83600,43341
83522,43355
83462,43353
83385,43337
83330,43312
83265,43267
83224,43224
83181,43158
83159,43102
83144,43024
83145,42965
83162,42887
83185,42832
83230,42767
83272,42725
83339,42682
83394,42660
83473,42644
83531,42645
83610,42661
83664,42684
83731,42729
83772,42770
83817,42837
83839,42891
83854,42969
" /> 
<polyline style="fill-rule:evenodd;"
points="83854,43969
83853,44040
83836,44116
83811,44172
83766,44235
83722,44277
83656,44319
83600,44341
83522,44355
83462,44353
83385,44337
83330,44312
83265,44267
83224,44224
83181,44158
83159,44102
83144,44024
83145,43965
83162,43887
83185,43832
83230,43767
83272,43725
83339,43682
83394,43660
83473,43644
83531,43645
83610,43661
83664,43684
83731,43729
83772,43770
83817,43837
83839,43891
83854,43969
" /> 
<polyline style="fill-rule:evenodd;"
points="83854,44969
83853,45040
83836,45116
83811,45172
83766,45235
83722,45277
83656,45319
83600,45341
83522,45355
83462,45353
83385,45337
83330,45312
83265,45267
83224,45224
83181,45158
83159,45102
83144,45024
83145,44965
83162,44887
83185,44832
83230,44767
83272,44725
83339,44682
83394,44660
83473,44644
83531,44645
83610,44661
83664,44684
83731,44729
83772,44770
83817,44837
83839,44891
83854,44969
" /> 
<polyline style="fill-rule:evenodd;"
points="83854,45969
83853,46040
83836,46116
83811,46172
83766,46235
83722,46277
83656,46319
83600,46341
83522,46355
83462,46353
83385,46337
83330,46312
83265,46267
83224,46224
83181,46158
83159,46102
83144,46024
83145,45965
83162,45887
83185,45832
83230,45767
83272,45725
83339,45682
83394,45660
83473,45644
83531,45645
83610,45661
83664,45684
83731,45729
83772,45770
83817,45837
83839,45891
83854,45969
" /> 
<polyline style="fill-rule:evenodd;"
points="83854,46969
83853,47040
83836,47116
83811,47172
83766,47235
83722,47277
83656,47319
83600,47341
83522,47355
83462,47353
83385,47337
83330,47312
83265,47267
83224,47224
83181,47158
83159,47102
83144,47024
83145,46965
83162,46887
83185,46832
83230,46767
83272,46725
83339,46682
83394,46660
83473,46644
83531,46645
83610,46661
83664,46684
83731,46729
83772,46770
83817,46837
83839,46891
83854,46969
" /> 
<polyline style="fill-rule:evenodd;"
points="83854,47969
83853,48040
83836,48116
83811,48172
83766,48235
83722,48277
83656,48319
83600,48341
83522,48355
83462,48353
83385,48337
83330,48312
83265,48267
83224,48224
83181,48158
83159,48102
83144,48024
83145,47965
83162,47887
83185,47832
83230,47767
83272,47725
83339,47682
83394,47660
83473,47644
83531,47645
83610,47661
83664,47684
83731,47729
83772,47770
83817,47837
83839,47891
83854,47969
" /> 
<polyline style="fill-rule:evenodd;"
points="83854,48969
83853,49040
83836,49116
83811,49172
83766,49235
83722,49277
83656,49319
83600,49341
83522,49355
83462,49353
83385,49337
83330,49312
83265,49267
83224,49224
83181,49158
83159,49102
83144,49024
83145,48965
83162,48887
83185,48832
83230,48767
83272,48725
83339,48682
83394,48660
83473,48644
83531,48645
83610,48661
83664,48684
83731,48729
83772,48770
83817,48837
83839,48891
83854,48969
" /> 
<polyline style="fill-rule:evenodd;"
points="83854,49969
83853,50040
83836,50116
83811,50172
83766,50235
83722,50277
83656,50319
83600,50341
83522,50355
83462,50353
83385,50337
83330,50312
83265,50267
83224,50224
83181,50158
83159,50102
83144,50024
83145,49965
83162,49887
83185,49832
83230,49767
83272,49725
83339,49682
83394,49660
83473,49644
83531,49645
83610,49661
83664,49684
83731,49729
83772,49770
83817,49837
83839,49891
83854,49969
" /> 
<polyline style="fill-rule:evenodd;"
points="83854,50969
83853,51040
83836,51116
83811,51172
83766,51235
83722,51277
83656,51319
83600,51341
83522,51355
83462,51353
83385,51337
83330,51312
83265,51267
83224,51224
83181,51158
83159,51102
83144,51024
83145,50965
83162,50887
83185,50832
83230,50767
83272,50725
83339,50682
83394,50660
83473,50644
83531,50645
83610,50661
83664,50684
83731,50729
83772,50770
83817,50837
83839,50891
83854,50969
" /> 
<polyline style="fill-rule:evenodd;"
points="83879,35217
83878,35293
83860,35374
83833,35434
83785,35502
83738,35547
83667,35592
83606,35615
83524,35630
83459,35628
83377,35610
83318,35584
83249,35537
83204,35490
83158,35419
83135,35359
83119,35276
83120,35212
83138,35129
83163,35070
83211,35001
83257,34956
83328,34909
83387,34885
83470,34869
83534,34870
83617,34887
83676,34912
83747,34959
83791,35004
83839,35076
83863,35134
83879,35217
" /> 
<polyline style="fill-rule:evenodd;"
points="84879,50967
84878,51043
84860,51124
84833,51184
84785,51252
84738,51297
84667,51342
84606,51365
84524,51380
84459,51378
84377,51360
84318,51334
84249,51287
84204,51240
84158,51169
84135,51109
84119,51026
84120,50962
84138,50879
84163,50820
84211,50751
84257,50706
84328,50659
84387,50635
84470,50619
84534,50620
84617,50637
84676,50662
84747,50709
84791,50754
84839,50826
84863,50884
84879,50967
" /> 
<polyline style="fill-rule:evenodd;"
points="84879,54967
84878,55043
84860,55124
84833,55184
84785,55252
84738,55297
84667,55342
84606,55365
84524,55380
84459,55378
84377,55360
84318,55334
84249,55287
84204,55240
84158,55169
84135,55109
84119,55026
84120,54962
84138,54879
84163,54820
84211,54751
84257,54706
84328,54659
84387,54635
84470,54619
84534,54620
84617,54637
84676,54662
84747,54709
84791,54754
84839,54826
84863,54884
84879,54967
" /> 
<polyline style="fill-rule:evenodd;"
points="85604,43469
85603,43540
85586,43616
85561,43672
85516,43735
85472,43777
85406,43819
85350,43841
85272,43855
85212,43853
85135,43837
85080,43812
85015,43767
84974,43724
84931,43658
84909,43602
84894,43524
84895,43465
84912,43387
84935,43332
84980,43267
85022,43225
85089,43182
85144,43160
85223,43144
85281,43145
85360,43161
85414,43184
85481,43229
85522,43270
85567,43337
85589,43391
85604,43469
" /> 
<polyline style="fill-rule:evenodd;"
points="85604,45469
85603,45540
85586,45616
85561,45672
85516,45735
85472,45777
85406,45819
85350,45841
85272,45855
85212,45853
85135,45837
85080,45812
85015,45767
84974,45724
84931,45658
84909,45602
84894,45524
84895,45465
84912,45387
84935,45332
84980,45267
85022,45225
85089,45182
85144,45160
85223,45144
85281,45145
85360,45161
85414,45184
85481,45229
85522,45270
85567,45337
85589,45391
85604,45469
" /> 
<polyline style="fill-rule:evenodd;"
points="86129,47967
86128,48043
86110,48124
86083,48184
86035,48252
85988,48297
85917,48342
85856,48365
85774,48380
85709,48378
85627,48360
85568,48334
85499,48287
85454,48240
85408,48169
85385,48109
85369,48026
85370,47962
85388,47879
85413,47820
85461,47751
85507,47706
85578,47659
85637,47635
85720,47619
85784,47620
85867,47637
85926,47662
85997,47709
86041,47754
86089,47826
86113,47884
86129,47967
" /> 
<polyline style="fill-rule:evenodd;"
points="86129,48967
86128,49043
86110,49124
86083,49184
86035,49252
85988,49297
85917,49342
85856,49365
85774,49380
85709,49378
85627,49360
85568,49334
85499,49287
85454,49240
85408,49169
85385,49109
85369,49026
85370,48962
85388,48879
85413,48820
85461,48751
85507,48706
85578,48659
85637,48635
85720,48619
85784,48620
85867,48637
85926,48662
85997,48709
86041,48754
86089,48826
86113,48884
86129,48967
" /> 
<polyline style="fill-rule:evenodd;"
points="86129,50967
86128,51043
86110,51124
86083,51184
86035,51252
85988,51297
85917,51342
85856,51365
85774,51380
85709,51378
85627,51360
85568,51334
85499,51287
85454,51240
85408,51169
85385,51109
85369,51026
85370,50962
85388,50879
85413,50820
85461,50751
85507,50706
85578,50659
85637,50635
85720,50619
85784,50620
85867,50637
85926,50662
85997,50709
86041,50754
86089,50826
86113,50884
86129,50967
" /> 
<polyline style="fill-rule:evenodd;"
points="86129,47379
85370,47379
85370,46620
86129,46620
86129,47379
" /> 
<polyline style="fill-rule:evenodd;"
points="86129,50379
85370,50379
85370,49620
86129,49620
86129,50379
" /> 
<polyline style="fill-rule:evenodd;"
points="86159,54964
86158,55047
86138,55133
86109,55199
86058,55271
86006,55321
85931,55369
85864,55394
85776,55410
85705,55408
85618,55389
85553,55361
85479,55310
85430,55259
85382,55183
85356,55118
85339,55029
85340,54959
85359,54870
85387,54806
85438,54731
85488,54682
85564,54633
85628,54606
85718,54589
85787,54590
85876,54608
85940,54635
86016,54686
86065,54735
86115,54811
86142,54875
86159,54964
" /> 
<polyline style="fill-rule:evenodd;"
points="86829,32197
86827,32318
86800,32437
86758,32533
86687,32633
86611,32705
86508,32771
86410,32809
86290,32830
86185,32828
86065,32802
85970,32760
85869,32690
85796,32615
85730,32511
85691,32415
85669,32293
85671,32190
85696,32069
85737,31974
85807,31871
85881,31799
85985,31731
86080,31693
86202,31669
86305,31670
86427,31695
86522,31735
86625,31805
86697,31877
86766,31981
86805,32076
86829,32197
" /> 
<polyline style="fill-rule:evenodd;"
points="86829,39197
86827,39318
86800,39437
86758,39533
86687,39633
86611,39705
86508,39771
86410,39809
86290,39830
86185,39828
86065,39802
85970,39760
85869,39690
85796,39615
85730,39511
85691,39415
85669,39293
85671,39190
85696,39069
85737,38974
85807,38871
85881,38799
85985,38731
86080,38693
86202,38669
86305,38670
86427,38695
86522,38735
86625,38805
86697,38877
86766,38981
86805,39076
86829,39197
" /> 
<polyline style="fill-rule:evenodd;"
points="86829,41197
86827,41318
86800,41437
86758,41533
86687,41633
86611,41705
86508,41771
86410,41809
86290,41830
86185,41828
86065,41802
85970,41760
85869,41690
85796,41615
85730,41511
85691,41415
85669,41293
85671,41190
85696,41069
85737,40974
85807,40871
85881,40799
85985,40731
86080,40693
86202,40669
86305,40670
86427,40695
86522,40735
86625,40805
86697,40877
86766,40981
86805,41076
86829,41197
" /> 
<polyline style="fill-rule:evenodd;"
points="86829,30829
85670,30829
85670,29670
86829,29670
86829,30829
" /> 
<polyline style="fill-rule:evenodd;"
points="86829,37829
85670,37829
85670,36670
86829,36670
86829,37829
" /> 
<polyline style="fill-rule:evenodd;"
points="87159,54964
87158,55047
87138,55133
87109,55199
87058,55271
87006,55321
86931,55369
86864,55394
86776,55410
86705,55408
86618,55389
86553,55361
86479,55310
86430,55259
86382,55183
86356,55118
86339,55029
86340,54959
86359,54870
86387,54806
86438,54731
86488,54682
86564,54633
86628,54606
86718,54589
86787,54590
86876,54608
86940,54635
87016,54686
87065,54735
87115,54811
87142,54875
87159,54964
" /> 
</g> 
</svg>
