<?xml version="1.0" encoding="UTF-8" standalone="no"?>
<svg
   xmlns:dc="http://purl.org/dc/elements/1.1/"
   xmlns:cc="http://creativecommons.org/ns#"
   xmlns:rdf="http://www.w3.org/1999/02/22-rdf-syntax-ns#"
   xmlns:svg="http://www.w3.org/2000/svg"
   xmlns="http://www.w3.org/2000/svg"
   xmlns:sodipodi="http://sodipodi.sourceforge.net/DTD/sodipodi-0.dtd"
   xmlns:inkscape="http://www.inkscape.org/namespaces/inkscape"
   version="1.1"
   width="744.09448"
   height="1052.3622"
   viewBox="0 0 82677.164 116929.21"
   id="svg2"
   inkscape:version="0.48.4 r9939"
   sodipodi:docname="selector_rid_ground-B_Cu.svg">
  <metadata
     id="metadata1244">
    <rdf:RDF>
      <cc:Work
         rdf:about="">
        <dc:format>image/svg+xml</dc:format>
        <dc:type
           rdf:resource="http://purl.org/dc/dcmitype/StillImage" />
      </cc:Work>
    </rdf:RDF>
  </metadata>
  <defs
     id="defs1242" />
  <sodipodi:namedview
     pagecolor="#ffffff"
     bordercolor="#666666"
     borderopacity="1"
     objecttolerance="10"
     gridtolerance="10"
     guidetolerance="10"
     inkscape:pageopacity="0"
     inkscape:pageshadow="2"
     inkscape:window-width="1920"
     inkscape:window-height="997"
     id="namedview1240"
     showgrid="false"
     inkscape:zoom="0.63429143"
     inkscape:cx="1015.1759"
     inkscape:cy="524.50105"
     inkscape:window-x="1276"
     inkscape:window-y="-3"
     inkscape:window-maximized="1"
     inkscape:current-layer="svg2" />
  <title
     id="title4">SVG Picture created as selector_rid_ground-B_Cu.svg date 2015/06/17 18:06:59 </title>
  <desc
     id="desc6">Picture generated by PCBNEW </desc>
  <g
     style="fill:#000000;fill-opacity:1;stroke:#000000;stroke-linecap:round;stroke-linejoin:round;stroke-opacity:1"
     id="g8"
     transform="translate(0,-0.78370803)" />
  <circle
     style="fill:#000000;fill-opacity:0;stroke:#000000;stroke-width:39.37009811;stroke-linecap:round;stroke-linejoin:round;stroke-opacity:1"
     sodipodi:ry="500"
     sodipodi:rx="500"
     sodipodi:cy="37500"
     sodipodi:cx="20000"
     id="circle12"
     r="500"
     cy="37500"
     cx="20000"
     transform="translate(12962.855,2626.822)" />
  <circle
     style="fill:#000000;fill-opacity:0;stroke:#000000;stroke-width:39.37009811;stroke-linecap:round;stroke-linejoin:round;stroke-opacity:1"
     sodipodi:ry="500"
     sodipodi:rx="500"
     sodipodi:cy="35750"
     sodipodi:cx="35000"
     id="circle14"
     r="500"
     cy="35750"
     cx="35000"
     transform="translate(12962.855,2626.822)" />
  <circle
     style="fill:#000000;fill-opacity:0;stroke:#000000;stroke-width:39.37009811;stroke-linecap:round;stroke-linejoin:round;stroke-opacity:1"
     sodipodi:ry="500"
     sodipodi:rx="500"
     sodipodi:cy="48750"
     sodipodi:cx="35000"
     id="circle16"
     r="500"
     cy="48750"
     cx="35000"
     transform="translate(12962.855,2626.822)" />
  <circle
     style="fill:#000000;fill-opacity:0;stroke:#000000;stroke-width:39.37009811;stroke-linecap:round;stroke-linejoin:round;stroke-opacity:1"
     sodipodi:ry="500"
     sodipodi:rx="500"
     sodipodi:cy="48750"
     sodipodi:cx="20000"
     id="circle18"
     r="500"
     cy="48750"
     cx="20000"
     transform="translate(12962.855,2626.822)" />
  <g
     style="fill:#000000;fill-opacity:0;stroke:#000000;stroke-width:59.05509949;stroke-linecap:round;stroke-linejoin:round;stroke-opacity:1"
     id="g40"
     transform="translate(0,-0.78370803)" />
  <circle
     style="fill:#000000;fill-opacity:1;stroke:#000000;stroke-width:59.05509949;stroke-linecap:round;stroke-linejoin:round;stroke-opacity:1"
     sodipodi:ry="270.47198"
     sodipodi:rx="270.47198"
     sodipodi:cy="35750"
     sodipodi:cx="20750"
     id="circle320"
     r="270.47198"
     cy="35750"
     cx="20750"
     transform="translate(12962.855,2626.822)" />
  <circle
     style="fill:#000000;fill-opacity:1;stroke:#000000;stroke-width:59.05509949;stroke-linecap:round;stroke-linejoin:round;stroke-opacity:1"
     sodipodi:ry="270.47198"
     sodipodi:rx="270.47198"
     sodipodi:cy="35750"
     sodipodi:cx="24750"
     id="circle322"
     r="270.47198"
     cy="35750"
     cx="24750"
     transform="translate(12962.855,2626.822)" />
  <circle
     style="fill:#000000;fill-opacity:1;stroke:#000000;stroke-width:59.05509949;stroke-linecap:round;stroke-linejoin:round;stroke-opacity:1"
     sodipodi:ry="270.47198"
     sodipodi:rx="270.47198"
     sodipodi:cy="44500"
     sodipodi:cx="29250"
     id="circle324"
     r="270.47198"
     cy="44500"
     cx="29250"
     transform="translate(12962.855,2626.822)" />
  <circle
     style="fill:#000000;fill-opacity:1;stroke:#000000;stroke-width:59.05509949;stroke-linecap:round;stroke-linejoin:round;stroke-opacity:1"
     sodipodi:ry="270.47198"
     sodipodi:rx="270.47198"
     sodipodi:cy="44500"
     sodipodi:cx="33250"
     id="circle326"
     r="270.47198"
     cy="44500"
     cx="33250"
     transform="translate(12962.855,2626.822)" />
  <circle
     style="fill:#000000;fill-opacity:1;stroke:#000000;stroke-width:59.05509949;stroke-linecap:round;stroke-linejoin:round;stroke-opacity:1"
     sodipodi:ry="270.47198"
     sodipodi:rx="270.47198"
     sodipodi:cy="42500"
     sodipodi:cx="31500"
     id="circle328"
     r="270.47198"
     cy="42500"
     cx="31500"
     transform="translate(12962.855,2626.822)" />
  <circle
     style="fill:#000000;fill-opacity:1;stroke:#000000;stroke-width:59.05509949;stroke-linecap:round;stroke-linejoin:round;stroke-opacity:1"
     sodipodi:ry="270.47198"
     sodipodi:rx="270.47198"
     sodipodi:cy="38500"
     sodipodi:cx="31500"
     id="circle330"
     r="270.47198"
     cy="38500"
     cx="31500"
     transform="translate(12962.855,2626.822)" />
  <path
     style="fill:#000000;fill-opacity:1;stroke:#000000;stroke-width:629.92102051;stroke-linecap:round;stroke-linejoin:round;stroke-opacity:1"
     inkscape:connector-curvature="0"
     id="path334"
     d="m 39408.855,38376.823 -393,0" />
  <path
     style="fill:#000000;fill-opacity:1;stroke:#000000;stroke-width:629.92102051;stroke-linecap:round;stroke-linejoin:round;stroke-opacity:1"
     inkscape:connector-curvature="0"
     id="path336"
     d="m 39408.855,39376.823 -393,0" />
  <path
     style="fill:#000000;fill-opacity:1;stroke:#000000;stroke-width:629.92102051;stroke-linecap:round;stroke-linejoin:round;stroke-opacity:1"
     inkscape:connector-curvature="0"
     id="path338"
     d="m 39408.855,40376.823 -393,0" />
  <path
     style="fill:#000000;fill-opacity:1;stroke:#000000;stroke-width:472.44100952;stroke-linecap:round;stroke-linejoin:round;stroke-opacity:1"
     inkscape:connector-curvature="0"
     id="path342"
     d="m 41212.855,43151.823 0,-551" />
  <path
     style="fill:#000000;fill-opacity:1;stroke:#000000;stroke-width:472.44100952;stroke-linecap:round;stroke-linejoin:round;stroke-opacity:1"
     inkscape:connector-curvature="0"
     id="path344"
     d="m 40212.855,43151.823 0,-551" />
  <path
     style="fill:#000000;fill-opacity:1;stroke:#000000;stroke-width:472.44100952;stroke-linecap:round;stroke-linejoin:round;stroke-opacity:1"
     inkscape:connector-curvature="0"
     id="path346"
     d="m 36212.855,43151.823 0,-551" />
  <path
     style="fill:#000000;fill-opacity:1;stroke:#000000;stroke-width:472.44100952;stroke-linecap:round;stroke-linejoin:round;stroke-opacity:1"
     inkscape:connector-curvature="0"
     id="path348"
     d="m 35212.855,43151.823 0,-551" />
  <path
     style="fill:#000000;fill-opacity:1;stroke:#000000;stroke-width:472.44100952;stroke-linecap:round;stroke-linejoin:round;stroke-opacity:1"
     inkscape:connector-curvature="0"
     id="path350"
     d="m 35212.855,46151.823 0,-551" />
  <path
     style="fill:#000000;fill-opacity:1;stroke:#000000;stroke-width:472.44100952;stroke-linecap:round;stroke-linejoin:round;stroke-opacity:1"
     inkscape:connector-curvature="0"
     id="path352"
     d="m 41212.855,46151.823 0,-551" />
  <polyline
     id="polyline356"
     points="27004,39245 27004,38754 27495,38754 27495,39245 27004,39245 "
     style="fill:#000000;fill-opacity:1;fill-rule:evenodd;stroke:#000000;stroke-width:59.05509949;stroke-linecap:round;stroke-linejoin:round;stroke-opacity:1"
     transform="translate(12962.855,2626.822)" />
  <circle
     style="fill:#000000;fill-opacity:1;stroke:#000000;stroke-width:59.05509949;stroke-linecap:round;stroke-linejoin:round;stroke-opacity:1"
     sodipodi:ry="245.472"
     sodipodi:rx="245.472"
     sodipodi:cy="39000"
     sodipodi:cx="24250"
     id="circle358"
     r="245.472"
     cy="39000"
     cx="24250"
     transform="translate(12962.855,2626.822)" />
  <circle
     style="fill:#000000;fill-opacity:1;stroke:#000000;stroke-width:59.05509949;stroke-linecap:round;stroke-linejoin:round;stroke-opacity:1"
     sodipodi:ry="470.47198"
     sodipodi:rx="470.47198"
     sodipodi:cy="45750"
     sodipodi:cx="26250"
     id="circle360"
     r="470.47198"
     cy="45750"
     cx="26250"
     transform="translate(12962.855,2626.822)" />
  <circle
     style="fill:#000000;fill-opacity:1;stroke:#000000;stroke-width:59.05509949;stroke-linecap:round;stroke-linejoin:round;stroke-opacity:1"
     sodipodi:ry="470.47198"
     sodipodi:rx="470.47198"
     sodipodi:cy="45750"
     sodipodi:cx="24250"
     id="circle362"
     r="470.47198"
     cy="45750"
     cx="24250"
     transform="translate(12962.855,2626.822)" />
  <circle
     style="fill:#000000;fill-opacity:1;stroke:#000000;stroke-width:59.05509949;stroke-linecap:round;stroke-linejoin:round;stroke-opacity:1"
     sodipodi:ry="470.47198"
     sodipodi:rx="470.47198"
     sodipodi:cy="45750"
     sodipodi:cx="22250"
     id="circle364"
     r="470.47198"
     cy="45750"
     cx="22250"
     transform="translate(12962.855,2626.822)" />
  <circle
     style="fill:#000000;fill-opacity:1;stroke:#000000;stroke-width:59.05509949;stroke-linecap:round;stroke-linejoin:round;stroke-opacity:1"
     sodipodi:ry="470.47198"
     sodipodi:rx="470.47198"
     sodipodi:cy="38500"
     sodipodi:cx="34250"
     id="circle366"
     r="470.47198"
     cy="38500"
     cx="34250"
     transform="translate(12962.855,2626.822)" />
  <circle
     style="fill:#000000;fill-opacity:1;stroke:#000000;stroke-width:59.05509949;stroke-linecap:round;stroke-linejoin:round;stroke-opacity:1"
     sodipodi:ry="470.47198"
     sodipodi:rx="470.47198"
     sodipodi:cy="40500"
     sodipodi:cx="34250"
     id="circle368"
     r="470.47198"
     cy="40500"
     cx="34250"
     transform="translate(12962.855,2626.822)" />
  <circle
     style="fill:#000000;fill-opacity:1;stroke:#000000;stroke-width:59.05509949;stroke-linecap:round;stroke-linejoin:round;stroke-opacity:1"
     sodipodi:ry="470.47198"
     sodipodi:rx="470.47198"
     sodipodi:cy="42500"
     sodipodi:cx="34250"
     id="circle370"
     r="470.47198"
     cy="42500"
     cx="34250"
     transform="translate(12962.855,2626.822)" />
  <circle
     style="fill:#000000;fill-opacity:1;stroke:#000000;stroke-width:59.05509949;stroke-linecap:round;stroke-linejoin:round;stroke-opacity:1"
     sodipodi:ry="245.472"
     sodipodi:rx="245.472"
     sodipodi:cy="37353.602"
     sodipodi:cx="22189.301"
     id="circle372"
     r="245.472"
     cy="37353.602"
     cx="22189.301"
     transform="translate(12962.855,2626.822)" />
  <circle
     style="fill:#000000;fill-opacity:1;stroke:#000000;stroke-width:59.05509949;stroke-linecap:round;stroke-linejoin:round;stroke-opacity:1"
     sodipodi:ry="245.472"
     sodipodi:rx="245.472"
     sodipodi:cy="37353.602"
     sodipodi:cx="23250"
     id="circle374"
     r="245.472"
     cy="37353.602"
     cx="23250"
     transform="translate(12962.855,2626.822)" />
  <circle
     style="fill:#000000;fill-opacity:1;stroke:#000000;stroke-width:59.05509949;stroke-linecap:round;stroke-linejoin:round;stroke-opacity:1"
     sodipodi:ry="245.472"
     sodipodi:rx="245.472"
     sodipodi:cy="37353.602"
     sodipodi:cx="24310.699"
     id="circle376"
     r="245.472"
     cy="37353.602"
     cx="24310.699"
     transform="translate(12962.855,2626.822)" />
  <polyline
     id="polyline378"
     points="28495,37495 28004,37495 28004,37004 28495,37004 28495,37495 "
     style="fill:#000000;fill-opacity:1;fill-rule:evenodd;stroke:#000000;stroke-width:59.05509949;stroke-linecap:round;stroke-linejoin:round;stroke-opacity:1"
     transform="translate(12962.855,2626.822)" />
  <circle
     style="fill:#000000;fill-opacity:1;stroke:#000000;stroke-width:59.05509949;stroke-linecap:round;stroke-linejoin:round;stroke-opacity:1"
     sodipodi:ry="245.472"
     sodipodi:rx="245.472"
     sodipodi:cy="36250"
     sodipodi:cx="28250"
     id="circle380"
     r="245.472"
     cy="36250"
     cx="28250"
     transform="translate(12962.855,2626.822)" />
  <circle
     style="fill:#000000;fill-opacity:1;stroke:#000000;stroke-width:59.05509949;stroke-linecap:round;stroke-linejoin:round;stroke-opacity:1"
     sodipodi:ry="470.47198"
     sodipodi:rx="470.47198"
     sodipodi:cy="47000"
     sodipodi:cx="28750"
     id="circle382"
     r="470.47198"
     cy="47000"
     cx="28750"
     transform="translate(12962.855,2626.822)" />
  <circle
     style="fill:#000000;fill-opacity:1;stroke:#000000;stroke-width:59.05509949;stroke-linecap:round;stroke-linejoin:round;stroke-opacity:1"
     sodipodi:ry="470.47198"
     sodipodi:rx="470.47198"
     sodipodi:cy="47000"
     sodipodi:cx="30750"
     id="circle384"
     r="470.47198"
     cy="47000"
     cx="30750"
     transform="translate(12962.855,2626.822)" />
  <circle
     style="fill:#000000;fill-opacity:1;stroke:#000000;stroke-width:59.05509949;stroke-linecap:round;stroke-linejoin:round;stroke-opacity:1"
     sodipodi:ry="470.47198"
     sodipodi:rx="470.47198"
     sodipodi:cy="47000"
     sodipodi:cx="32750"
     id="circle386"
     r="470.47198"
     cy="47000"
     cx="32750"
     transform="translate(12962.855,2626.822)" />
  <path
     style="fill:#000000;fill-opacity:1;stroke:#000000;stroke-width:118.11000061;stroke-linecap:round;stroke-linejoin:round;stroke-opacity:1"
     inkscape:connector-curvature="0"
     id="path408"
     d="m 39212.855,38376.823 -1500,0" />
  <path
     style="fill:#000000;fill-opacity:1;stroke:#000000;stroke-width:118.11000061;stroke-linecap:round;stroke-linejoin:round;stroke-opacity:1"
     inkscape:connector-curvature="0"
     id="path434"
     d="m 43712.855,49626.822 0,-2999.999" />
  <path
     style="fill:#000000;fill-opacity:1;stroke:#000000;stroke-width:118.11000061;stroke-linecap:round;stroke-linejoin:round;stroke-opacity:1"
     inkscape:connector-curvature="0"
     id="path436"
     d="m 42962.855,45876.823 0,-1750" />
  <path
     style="fill:#000000;fill-opacity:1;stroke:#000000;stroke-width:118.11000061;stroke-linecap:round;stroke-linejoin:round;stroke-opacity:1"
     inkscape:connector-curvature="0"
     id="path438"
     d="m 43712.855,46626.823 -750,-750" />
  <path
     style="fill:#000000;fill-opacity:1;stroke:#000000;stroke-width:118.11000061;stroke-linecap:round;stroke-linejoin:round;stroke-opacity:1"
     inkscape:connector-curvature="0"
     id="path440"
     d="m 42462.855,44626.823 500,-500" />
  <path
     style="fill:#000000;fill-opacity:1;stroke:#000000;stroke-width:118.11000061;stroke-linecap:round;stroke-linejoin:round;stroke-opacity:1"
     inkscape:connector-curvature="0"
     id="path442"
     d="m 42462.855,44626.823 -1250,1250" />
  <path
     style="fill:#000000;fill-opacity:1;stroke:#000000;stroke-width:118.11000061;stroke-linecap:round;stroke-linejoin:round;stroke-opacity:1"
     inkscape:connector-curvature="0"
     id="path444"
     d="m 42962.855,44126.823 1250,-1250" />
  <path
     style="fill:#000000;fill-opacity:1;stroke:#000000;stroke-width:118.11000061;stroke-linecap:round;stroke-linejoin:round;stroke-opacity:1"
     inkscape:connector-curvature="0"
     id="path446"
     d="m 46962.855,42876.823 250,250" />
  <path
     style="fill:#000000;fill-opacity:1;stroke:#000000;stroke-width:118.11000061;stroke-linecap:round;stroke-linejoin:round;stroke-opacity:1"
     inkscape:connector-curvature="0"
     id="path448"
     d="m 44712.855,42876.823 2250,0" />
  <path
     style="fill:#000000;fill-opacity:1;stroke:#000000;stroke-width:118.11000061;stroke-linecap:round;stroke-linejoin:round;stroke-opacity:1"
     inkscape:connector-curvature="0"
     id="path450"
     d="m 44212.855,42876.823 500,0" />
  <path
     style="fill:#000000;fill-opacity:1;stroke:#000000;stroke-width:118.11000061;stroke-linecap:round;stroke-linejoin:round;stroke-opacity:1"
     inkscape:connector-curvature="0"
     id="path452"
     d="m 41212.855,45876.823 0,-3000" />
  <path
     style="fill:#000000;fill-opacity:1;stroke:#000000;stroke-width:118.11000061;stroke-linecap:round;stroke-linejoin:round;stroke-opacity:1"
     inkscape:connector-curvature="0"
     id="path510"
     d="m 42462.855,50876.822 1250,-1250" />
  <path
     style="fill:#000000;fill-opacity:1;stroke:#000000;stroke-width:118.11000061;stroke-linecap:round;stroke-linejoin:round;stroke-opacity:1"
     inkscape:connector-curvature="0"
     id="path512"
     d="m 39712.855,50876.822 2750,0" />
  <path
     style="fill:#000000;fill-opacity:1;stroke:#000000;stroke-width:118.11000061;stroke-linecap:round;stroke-linejoin:round;stroke-opacity:1"
     inkscape:connector-curvature="0"
     id="path514"
     d="m 37212.855,48376.822 2500,2500" />
  <path
     style="fill:#000000;fill-opacity:1;stroke:#000000;stroke-width:118.11000061;stroke-linecap:round;stroke-linejoin:round;stroke-opacity:1"
     inkscape:connector-curvature="0"
     id="path524"
     d="m 44462.855,45126.823 500,500" />
  <path
     style="fill:#000000;fill-opacity:1;stroke:#000000;stroke-width:118.11000061;stroke-linecap:round;stroke-linejoin:round;stroke-opacity:1"
     inkscape:connector-curvature="0"
     id="path526"
     d="m 45712.855,48626.822 -750,-750" />
  <path
     style="fill:#000000;fill-opacity:1;stroke:#000000;stroke-width:118.11000061;stroke-linecap:round;stroke-linejoin:round;stroke-opacity:1"
     inkscape:connector-curvature="0"
     id="path528"
     d="m 44962.855,47876.822 0,-1749.999" />
  <path
     style="fill:#000000;fill-opacity:1;stroke:#000000;stroke-width:118.11000061;stroke-linecap:round;stroke-linejoin:round;stroke-opacity:1"
     inkscape:connector-curvature="0"
     id="path530"
     d="m 45712.855,48626.822 0,1000" />
  <path
     style="fill:#000000;fill-opacity:1;stroke:#000000;stroke-width:118.11000061;stroke-linecap:round;stroke-linejoin:round;stroke-opacity:1"
     inkscape:connector-curvature="0"
     id="path532"
     d="m 44962.855,45626.823 0,500" />
  <path
     style="fill:#000000;fill-opacity:1;stroke:#000000;stroke-width:118.11000061;stroke-linecap:round;stroke-linejoin:round;stroke-opacity:1"
     inkscape:connector-curvature="0"
     id="path534"
     d="m 35212.855,48376.822 3250,3250" />
  <path
     style="fill:#000000;fill-opacity:1;stroke:#000000;stroke-width:118.11000061;stroke-linecap:round;stroke-linejoin:round;stroke-opacity:1"
     inkscape:connector-curvature="0"
     id="path536"
     d="m 43712.855,51626.822 2000,-2000" />
  <path
     style="fill:#000000;fill-opacity:1;stroke:#000000;stroke-width:118.11000061;stroke-linecap:round;stroke-linejoin:round;stroke-opacity:1"
     inkscape:connector-curvature="0"
     id="path538"
     d="m 38462.855,51626.822 5250,0" />
  <path
     style="fill:#000000;fill-opacity:1;stroke:#000000;stroke-width:118.11000061;stroke-linecap:round;stroke-linejoin:round;stroke-opacity:1"
     inkscape:connector-curvature="0"
     id="path540"
     d="m 35212.855,48376.822 -1500,-1499.999" />
  <path
     style="fill:#000000;fill-opacity:1;stroke:#000000;stroke-width:118.11000061;stroke-linecap:round;stroke-linejoin:round;stroke-opacity:1"
     inkscape:connector-curvature="0"
     id="path542"
     d="m 35212.855,42876.823 -1500,1500" />
  <path
     style="fill:#000000;fill-opacity:1;stroke:#000000;stroke-width:118.11000061;stroke-linecap:round;stroke-linejoin:round;stroke-opacity:1"
     inkscape:connector-curvature="0"
     id="path544"
     d="m 33712.855,44376.823 0,2500" />
  <path
     style="fill:#000000;fill-opacity:1;stroke:#000000;stroke-width:118.11000061;stroke-linecap:round;stroke-linejoin:round;stroke-opacity:1"
     inkscape:connector-curvature="0"
     id="path624"
     d="m 41712.855,49626.822 750,-750" />
  <path
     style="fill:#000000;fill-opacity:1;stroke:#000000;stroke-width:118.11000061;stroke-linecap:round;stroke-linejoin:round;stroke-opacity:1"
     inkscape:connector-curvature="0"
     id="path626"
     d="m 42462.855,47376.822 -250,-250" />
  <path
     style="fill:#000000;fill-opacity:1;stroke:#000000;stroke-width:118.11000061;stroke-linecap:round;stroke-linejoin:round;stroke-opacity:1"
     inkscape:connector-curvature="0"
     id="path628"
     d="m 42462.855,48876.822 0,-1500" />
  <path
     style="fill:#000000;fill-opacity:1;stroke:#000000;stroke-width:118.11000061;stroke-linecap:round;stroke-linejoin:round;stroke-opacity:1"
     inkscape:connector-curvature="0"
     id="path630"
     d="m 39212.855,48376.822 1250,1250" />
  <path
     style="fill:#000000;fill-opacity:1;stroke:#000000;stroke-width:118.11000061;stroke-linecap:round;stroke-linejoin:round;stroke-opacity:1"
     inkscape:connector-curvature="0"
     id="path632"
     d="m 40462.855,49626.822 1250,0" />
  <path
     style="fill:#000000;fill-opacity:1;stroke:#000000;stroke-width:118.11000061;stroke-linecap:round;stroke-linejoin:round;stroke-opacity:1"
     inkscape:connector-curvature="0"
     id="path634"
     d="m 39212.855,48376.822 -2500,-2499.999" />
  <path
     style="fill:#000000;fill-opacity:1;stroke:#000000;stroke-width:118.11000061;stroke-linecap:round;stroke-linejoin:round;stroke-opacity:1"
     inkscape:connector-curvature="0"
     id="path636"
     d="m 36712.855,45876.823 -1500,0" />
  <path
     style="fill:#000000;fill-opacity:1;stroke:#000000;stroke-width:196.8500061;stroke-linecap:round;stroke-linejoin:round;stroke-opacity:1"
     inkscape:connector-curvature="0"
     id="path674"
     d="m 39212.855,40376.823 1500,0" />
  <path
     style="fill:#000000;fill-opacity:1;stroke:#000000;stroke-width:196.8500061;stroke-linecap:round;stroke-linejoin:round;stroke-opacity:1"
     inkscape:connector-curvature="0"
     id="path676"
     d="m 40712.855,40376.823 500,-500" />
  <path
     style="fill:#000000;fill-opacity:1;stroke:#000000;stroke-width:196.8500061;stroke-linecap:round;stroke-linejoin:round;stroke-opacity:1"
     inkscape:connector-curvature="0"
     id="path678"
     d="m 40212.855,41626.823 1000,-1000" />
  <path
     style="fill:#000000;fill-opacity:1;stroke:#000000;stroke-width:196.8500061;stroke-linecap:round;stroke-linejoin:round;stroke-opacity:1"
     inkscape:connector-curvature="0"
     id="path680"
     d="m 41212.855,40626.823 0,-750" />
  <path
     style="fill:#000000;fill-opacity:1;stroke:#000000;stroke-width:196.8500061;stroke-linecap:round;stroke-linejoin:round;stroke-opacity:1"
     inkscape:connector-curvature="0"
     id="path682"
     d="m 40212.855,41626.823 0,1250" />
  <path
     style="fill:#000000;fill-opacity:1;stroke:#000000;stroke-width:118.11000061;stroke-linecap:round;stroke-linejoin:round;stroke-opacity:1"
     inkscape:connector-curvature="0"
     id="path856"
     d="m 36212.855,39979.823 0,-1103" />
  <path
     style="fill:#000000;fill-opacity:1;stroke:#000000;stroke-width:118.11000061;stroke-linecap:round;stroke-linejoin:round;stroke-opacity:1"
     inkscape:connector-curvature="0"
     id="path858"
     d="m 35712.855,38376.823 -2000,0" />
  <path
     style="fill:#000000;fill-opacity:1;stroke:#000000;stroke-width:118.11000061;stroke-linecap:round;stroke-linejoin:round;stroke-opacity:1"
     inkscape:connector-curvature="0"
     id="path860"
     d="m 36212.855,38876.823 -500,-500" />
  <path
     style="fill:#000000;fill-opacity:1;stroke:#000000;stroke-width:118.11000061;stroke-linecap:round;stroke-linejoin:round;stroke-opacity:1"
     inkscape:connector-curvature="0"
     id="path862"
     d="m 46212.855,47126.822 0,-999.999" />
  <path
     style="fill:#000000;fill-opacity:1;stroke:#000000;stroke-width:118.11000061;stroke-linecap:round;stroke-linejoin:round;stroke-opacity:1"
     inkscape:connector-curvature="0"
     id="path864"
     d="m 46212.855,46126.823 1000,-1000" />
  <path
     style="fill:#000000;fill-opacity:1;stroke:#000000;stroke-width:118.11000061;stroke-linecap:round;stroke-linejoin:round;stroke-opacity:1"
     inkscape:connector-curvature="0"
     id="path866"
     d="m 47212.855,41126.823 -2750,0" />
  <path
     style="fill:#000000;fill-opacity:1;stroke:#000000;stroke-width:118.11000061;stroke-linecap:round;stroke-linejoin:round;stroke-opacity:1"
     inkscape:connector-curvature="0"
     id="path872"
     d="m 37212.855,41626.823 -1250,0" />
  <path
     style="fill:#000000;fill-opacity:1;stroke:#000000;stroke-width:118.11000061;stroke-linecap:round;stroke-linejoin:round;stroke-opacity:1"
     inkscape:connector-curvature="0"
     id="path874"
     d="m 35151.855,40815.823 0,-836" />
  <path
     style="fill:#000000;fill-opacity:1;stroke:#000000;stroke-width:118.11000061;stroke-linecap:round;stroke-linejoin:round;stroke-opacity:1"
     inkscape:connector-curvature="0"
     id="path876"
     d="m 35962.855,41626.823 -811,-811" />
  <path
     style="fill:#000000;fill-opacity:1;stroke:#000000;stroke-width:118.11000061;stroke-linecap:round;stroke-linejoin:round;stroke-opacity:1"
     inkscape:connector-curvature="0"
     id="path878"
     d="m 36212.855,42876.823 0,-250" />
  <path
     style="fill:#000000;fill-opacity:1;stroke:#000000;stroke-width:118.11000061;stroke-linecap:round;stroke-linejoin:round;stroke-opacity:1"
     inkscape:connector-curvature="0"
     id="path880"
     d="m 36212.855,42626.823 1000,-1000" />
  <polyline
     id="polyline930"
     points="36200,49950 35764,49950 35764,48802 35764,48750 35764,48697 35764,35802 35764,35750 35764,35697 35764,35697 35764,35697 35764,35697 35726,35506 35686,35409 35685,35408 35578,35247 35577,35246 35503,35171 35341,35064 35341,35063 35243,35023 35052,34985 34947,34985 34946,34985 34756,35023 34659,35063 34658,35064 34497,35171 34496,35172 34421,35246 34314,35408 34313,35408 34273,35506 34235,35697 34235,35750 34235,35802 34273,35993 34313,36091 34314,36091 34421,36253 34496,36327 34497,36328 34658,36435 34659,36436 34756,36476 34946,36514 34947,36514 35052,36514 35243,36476 35341,36436 35341,36435 35503,36328 35577,36253 35578,36252 35685,36091 35686,36090 35726,35993 35764,35802 35764,35802 35764,35802 35764,35802 35764,48697 35764,48697 35764,48697 35764,48697 35726,48506 35686,48409 35685,48408 35578,48247 35577,48246 35503,48171 35341,48064 35341,48063 35243,48023 35052,47985 35000,47985 35000,42351 35000,40351 35000,38351 34886,38075 34675,37864 34399,37750 34101,37749 33825,37863 33614,38074 33566,38190 31967,38190 31966,38188 31811,38034 31609,37950 31391,37949 31188,38033 31034,38188 30950,38390 30949,38608 31033,38811 31188,38965 31390,39049 31608,39050 31811,38966 31965,38811 31967,38809 33566,38809 33613,38924 33824,39135 34100,39249 34398,39250 34674,39136 34885,38925 34999,38649 35000,38351 35000,40351 34886,40075 34675,39864 34399,39750 34101,39749 33825,39863 33748,39940 31750,39940 31250,39940 31131,39964 31031,40031 29781,41281 29281,41781 28775,42287 28775,37475 28775,36925 28737,36833 28666,36763 28574,36725 28475,36724 27925,36724 27833,36762 27763,36833 27725,36925 27724,37024 27724,37282 27605,37401 27026,37401 27026,35750 26983,35533 26861,35350 26677,35228 26461,35185 26038,35185 25822,35228 25638,35350 25578,35440 25217,35440 25216,35438 25061,35284 24859,35200 24641,35199 24438,35283 24284,35438 24200,35640 24199,35858 24283,36061 24438,36215 24640,36299 24858,36300 25061,36216 25215,36061 25217,36059 25578,36059 25638,36149 25822,36271 26038,36314 26461,36314 26677,36271 26861,36149 26983,35966 27026,35750 27026,37401 26895,37401 26861,37350 26677,37228 26461,37185 26038,37185 25822,37228 25638,37350 25516,37533 25473,37750 25516,37966 25638,38149 25822,38271 26038,38314 26461,38314 26677,38271 26861,38149 26895,38098 27658,38098 27282,38474 26925,38474 26833,38512 26763,38583 26725,38675 26724,38774 26724,39324 26762,39416 26833,39486 26901,39515 26901,39622 26800,39773 26763,39959 26763,40540 26800,40726 26906,40884 27063,40989 27250,41026 27436,40989 27593,40884 27699,40726 27736,40540 27736,39959 27699,39773 27598,39622 27598,39515 27666,39487 27736,39416 27774,39324 27775,39225 27775,38967 28496,38246 28496,38246 28496,38246 28571,38133 28598,38000 28598,37765 28666,37737 28736,37666 28774,37574 28775,37475 28775,42287 28559,42503 28559,40907 28593,40884 28699,40726 28736,40540 28736,39959 28699,39773 28593,39615 28436,39510 28250,39473 28063,39510 27906,39615 27800,39773 27763,39959 27763,40540 27800,40726 27906,40884 27940,40907 27940,42592 27906,42615 27800,42773 27763,42959 27763,43540 27800,43726 27906,43884 28063,43989 28250,44026 28436,43989 28593,43884 28699,43726 28736,43540 28736,43200 29690,42246 29690,43250 29714,43368 29781,43468 30440,44128 30440,46316 30325,46363 30114,46574 30000,46850 29999,47148 30047,47264 29809,47503 29809,46250 29809,46250 29809,46250 29809,44750 29787,44640 29787,44640 29799,44609 29800,44391 29716,44188 29561,44034 29359,43950 29141,43949 28938,44033 28784,44188 28700,44390 28699,44608 28783,44811 28938,44965 29140,45049 29190,45049 29190,46121 29014,46297 28899,46250 28601,46249 28325,46363 28114,46574 28066,46690 27628,46690 26952,46014 26999,45899 27000,45601 26886,45325 26675,45114 26399,45000 26101,44999 25985,45047 24775,43838 24775,38896 24695,38703 24547,38555 24354,38475 24146,38474 23953,38554 23816,38690 23775,38690 23775,37249 23695,37056 23559,36920 23559,36250 23535,36131 23535,36131 23468,36031 22968,35531 22868,35464 22750,35440 21217,35440 21216,35438 21061,35284 20859,35200 20641,35199 20438,35283 20284,35438 20200,35640 20199,35858 20283,36061 20438,36215 20640,36299 20858,36300 21061,36216 21215,36061 21217,36059 22621,36059 22940,36378 22940,36920 22805,37055 22725,37248 22724,37457 22804,37650 22952,37798 23145,37878 23353,37878 23547,37798 23694,37651 23774,37458 23775,37249 23775,38690 23128,38690 22498,38061 22498,37786 22634,37651 22714,37458 22714,37249 22634,37056 22487,36908 22294,36828 22085,36828 21892,36908 21744,37055 21664,37248 21664,37457 21744,37650 21880,37787 21880,38189 21903,38307 21970,38407 22781,39218 22781,39218 22881,39285 22881,39285 23000,39309 23503,39309 23324,39488 23250,39473 23063,39510 22906,39615 22800,39773 22763,39959 22763,40540 22800,40726 22906,40884 23063,40989 23250,41026 23436,40989 23593,40884 23699,40726 23736,40540 23736,39959 23734,39952 24162,39524 24353,39525 24547,39445 24694,39297 24774,39104 24775,38896 24775,43838 23968,43031 23868,42964 23750,42940 22732,42940 22699,42773 22593,42615 22436,42510 22250,42473 22063,42510 21906,42615 21800,42773 21763,42959 21763,43540 21800,43726 21906,43884 22063,43989 22250,44026 22436,43989 22593,43884 22699,43726 22732,43559 23621,43559 25547,45485 25500,45600 25499,45898 25613,46174 25824,46385 26100,46499 26398,46500 26514,46452 27281,47218 27381,47285 27381,47285 27500,47309 28066,47309 28113,47424 28324,47635 28600,47749 28898,47750 29174,47636 29385,47425 29499,47149 29500,46851 29452,46735 29718,46468 29718,46468 29718,46468 29785,46368 29785,46368 29804,46273 29809,46250 29809,47503 29371,47940 26878,47940 24952,46014 24999,45899 25000,45601 24886,45325 24675,45114 24399,45000 24101,44999 23825,45113 23614,45324 23500,45600 23499,45898 23613,46174 23824,46385 24100,46499 24398,46500 24514,46452 26531,48468 26631,48535 26631,48535 26750,48559 29500,48559 29618,48535 29618,48535 29718,48468 30485,47702 30600,47749 30898,47750 31174,47636 31385,47425 31499,47149 31500,46851 31386,46575 31175,46364 31059,46316 31059,44000 31059,43999 31059,43999 31054,43976 31035,43881 31035,43881 30968,43781 30968,43781 30309,43121 30309,41628 31378,40559 31750,40559 33499,40559 33499,40648 33613,40924 33824,41135 34100,41249 34398,41250 34674,41136 34885,40925 34999,40649 35000,40351 35000,42351 34886,42075 34675,41864 34399,41750 34101,41749 33825,41863 33614,42074 33500,42350 33499,42648 33547,42764 33031,43281 32964,43381 32940,43500 32940,44032 32938,44033 32784,44188 32700,44390 32699,44608 32783,44811 32938,44965 33140,45049 33358,45050 33561,44966 33715,44811 33799,44609 33800,44391 33716,44188 33561,44034 33559,44032 33559,43628 33985,43202 34100,43249 34398,43250 34674,43136 34885,42925 34999,42649 35000,42351 35000,47985 34947,47985 34946,47985 34756,48023 34659,48063 34658,48064 34497,48171 34496,48172 34421,48246 34314,48408 34313,48408 34273,48506 34235,48697 34235,48750 34235,48802 34273,48993 34313,49091 34314,49091 34421,49253 34496,49327 34497,49328 34658,49435 34659,49436 34756,49476 34946,49514 34947,49514 35052,49514 35243,49476 35341,49436 35341,49435 35503,49328 35577,49253 35578,49252 35685,49091 35686,49090 35726,48993 35764,48802 35764,48802 35764,48802 35764,48802 35764,49950 33500,49950 33500,46851 33386,46575 33175,46364 33059,46316 33059,46000 33059,45999 33059,45999 33054,45976 33035,45881 33035,45881 32968,45781 32968,45781 32309,45121 32309,43500 32309,43000 32285,42881 32285,42881 32218,42781 32049,42611 32049,42609 32050,42391 31966,42188 31811,42034 31609,41950 31391,41949 31188,42033 31034,42188 30950,42390 30949,42608 31033,42811 31188,42965 31390,43049 31608,43050 31611,43048 31690,43128 31690,43500 31690,45250 31714,45368 31781,45468 32440,46128 32440,46316 32325,46363 32114,46574 32000,46850 31999,47148 32047,47264 30621,48690 25628,48690 22952,46014 22999,45899 23000,45601 22886,45325 22675,45114 22399,45000 22101,44999 21985,45047 21059,44121 21059,41878 21994,40943 22063,40989 22250,41026 22436,40989 22593,40884 22699,40726 22736,40540 22736,39959 22699,39773 22593,39615 22436,39510 22250,39473 22063,39510 21906,39615 21800,39773 21763,39959 21763,40299 20764,41298 20764,37552 20764,37500 20764,37447 20764,37447 20764,37447 20764,37447 20726,37256 20686,37159 20685,37158 20578,36997 20577,36996 20503,36921 20341,36814 20341,36813 20243,36773 20052,36735 19947,36735 19946,36735 19756,36773 19659,36813 19658,36814 19497,36921 19496,36922 19421,36996 19314,37158 19313,37158 19273,37256 19235,37447 19235,37500 19235,37552 19273,37743 19313,37841 19314,37841 19421,38003 19496,38077 19497,38078 19658,38185 19659,38186 19756,38226 19946,38264 19947,38264 20052,38264 20243,38226 20341,38186 20341,38185 20503,38078 20577,38003 20578,38002 20685,37841 20686,37840 20726,37743 20764,37552 20764,37552 20764,37552 20764,37552 20764,41298 20531,41531 20464,41631 20440,41750 20440,44250 20464,44368 20531,44468 21547,45485 21500,45600 21499,45898 21613,46174 21824,46385 22100,46499 22398,46500 22514,46452 25281,49218 25281,49218 25381,49285 25381,49285 25476,49304 25499,49309 25499,49309 25500,49309 30750,49309 30868,49285 30868,49285 30968,49218 32485,47702 32600,47749 32898,47750 33174,47636 33385,47425 33499,47149 33500,46851 33500,49950 20764,49950 20764,48802 20764,48750 20764,48697 20764,48697 20764,48697 20764,48697 20726,48506 20686,48409 20685,48408 20578,48247 20577,48246 20503,48171 20341,48064 20341,48063 20243,48023 20052,47985 19947,47985 19946,47985 19756,48023 19659,48063 19658,48064 19497,48171 19496,48172 19421,48246 19314,48408 19313,48408 19273,48506 19235,48697 19235,48750 19235,48802 19273,48993 19313,49091 19314,49091 19421,49253 19496,49327 19497,49328 19658,49435 19659,49436 19756,49476 19946,49514 19947,49514 20052,49514 20243,49476 20341,49436 20341,49435 20503,49328 20577,49253 20578,49252 20685,49091 20686,49090 20726,48993 20764,48802 20764,48802 20764,48802 20764,48802 20764,49950 18800,49950 18800,34550 36200,34550 36200,49950 "
     style="fill:#000000;fill-opacity:1;fill-rule:evenodd;stroke:#000000;stroke-width:59.05509949;stroke-linecap:round;stroke-linejoin:round;stroke-opacity:1"
     transform="translate(12962.855,2626.822)" />
  <polyline
     style="fill:#000000;fill-opacity:0;stroke:#000000;stroke-width:100;stroke-linecap:round;stroke-linejoin:round;stroke-opacity:1"
     id="polyline934"
     points="36200,49950 35764,49950 35764,48802 35764,48750 35764,48697 35764,35802 35764,35750 35764,35697 35764,35697 35764,35697 35764,35697 35726,35506 35686,35409 35685,35408 35578,35247 35577,35246 35503,35171 35341,35064 35341,35063 35243,35023 35052,34985 34947,34985 34946,34985 34756,35023 34659,35063 34658,35064 34497,35171 34496,35172 34421,35246 34314,35408 34313,35408 34273,35506 34235,35697 34235,35750 34235,35802 34273,35993 34313,36091 34314,36091 34421,36253 34496,36327 34497,36328 34658,36435 34659,36436 34756,36476 34946,36514 34947,36514 35052,36514 35243,36476 35341,36436 35341,36435 35503,36328 35577,36253 35578,36252 35685,36091 35686,36090 35726,35993 35764,35802 35764,35802 35764,35802 35764,35802 35764,48697 35764,48697 35764,48697 35764,48697 35726,48506 35686,48409 35685,48408 35578,48247 35577,48246 35503,48171 35341,48064 35341,48063 35243,48023 35052,47985 35000,47985 35000,42351 35000,40351 35000,38351 34886,38075 34675,37864 34399,37750 34101,37749 33825,37863 33614,38074 33566,38190 31967,38190 31966,38188 31811,38034 31609,37950 31391,37949 31188,38033 31034,38188 30950,38390 30949,38608 31033,38811 31188,38965 31390,39049 31608,39050 31811,38966 31965,38811 31967,38809 33566,38809 33613,38924 33824,39135 34100,39249 34398,39250 34674,39136 34885,38925 34999,38649 35000,38351 35000,40351 34886,40075 34675,39864 34399,39750 34101,39749 33825,39863 33748,39940 31750,39940 31250,39940 31131,39964 31031,40031 29781,41281 29281,41781 28775,42287 28775,37475 28775,36925 28737,36833 28666,36763 28574,36725 28475,36724 27925,36724 27833,36762 27763,36833 27725,36925 27724,37024 27724,37282 27605,37401 27026,37401 27026,35750 26983,35533 26861,35350 26677,35228 26461,35185 26038,35185 25822,35228 25638,35350 25578,35440 25217,35440 25216,35438 25061,35284 24859,35200 24641,35199 24438,35283 24284,35438 24200,35640 24199,35858 24283,36061 24438,36215 24640,36299 24858,36300 25061,36216 25215,36061 25217,36059 25578,36059 25638,36149 25822,36271 26038,36314 26461,36314 26677,36271 26861,36149 26983,35966 27026,35750 27026,37401 26895,37401 26861,37350 26677,37228 26461,37185 26038,37185 25822,37228 25638,37350 25516,37533 25473,37750 25516,37966 25638,38149 25822,38271 26038,38314 26461,38314 26677,38271 26861,38149 26895,38098 27658,38098 27282,38474 26925,38474 26833,38512 26763,38583 26725,38675 26724,38774 26724,39324 26762,39416 26833,39486 26901,39515 26901,39622 26800,39773 26763,39959 26763,40540 26800,40726 26906,40884 27063,40989 27250,41026 27436,40989 27593,40884 27699,40726 27736,40540 27736,39959 27699,39773 27598,39622 27598,39515 27666,39487 27736,39416 27774,39324 27775,39225 27775,38967 28496,38246 28496,38246 28496,38246 28571,38133 28598,38000 28598,37765 28666,37737 28736,37666 28774,37574 28775,37475 28775,42287 28559,42503 28559,40907 28593,40884 28699,40726 28736,40540 28736,39959 28699,39773 28593,39615 28436,39510 28250,39473 28063,39510 27906,39615 27800,39773 27763,39959 27763,40540 27800,40726 27906,40884 27940,40907 27940,42592 27906,42615 27800,42773 27763,42959 27763,43540 27800,43726 27906,43884 28063,43989 28250,44026 28436,43989 28593,43884 28699,43726 28736,43540 28736,43200 29690,42246 29690,43250 29714,43368 29781,43468 30440,44128 30440,46316 30325,46363 30114,46574 30000,46850 29999,47148 30047,47264 29809,47503 29809,46250 29809,46250 29809,46250 29809,44750 29787,44640 29787,44640 29799,44609 29800,44391 29716,44188 29561,44034 29359,43950 29141,43949 28938,44033 28784,44188 28700,44390 28699,44608 28783,44811 28938,44965 29140,45049 29190,45049 29190,46121 29014,46297 28899,46250 28601,46249 28325,46363 28114,46574 28066,46690 27628,46690 26952,46014 26999,45899 27000,45601 26886,45325 26675,45114 26399,45000 26101,44999 25985,45047 24775,43838 24775,38896 24695,38703 24547,38555 24354,38475 24146,38474 23953,38554 23816,38690 23775,38690 23775,37249 23695,37056 23559,36920 23559,36250 23535,36131 23535,36131 23468,36031 22968,35531 22868,35464 22750,35440 21217,35440 21216,35438 21061,35284 20859,35200 20641,35199 20438,35283 20284,35438 20200,35640 20199,35858 20283,36061 20438,36215 20640,36299 20858,36300 21061,36216 21215,36061 21217,36059 22621,36059 22940,36378 22940,36920 22805,37055 22725,37248 22724,37457 22804,37650 22952,37798 23145,37878 23353,37878 23547,37798 23694,37651 23774,37458 23775,37249 23775,38690 23128,38690 22498,38061 22498,37786 22634,37651 22714,37458 22714,37249 22634,37056 22487,36908 22294,36828 22085,36828 21892,36908 21744,37055 21664,37248 21664,37457 21744,37650 21880,37787 21880,38189 21903,38307 21970,38407 22781,39218 22781,39218 22881,39285 22881,39285 23000,39309 23503,39309 23324,39488 23250,39473 23063,39510 22906,39615 22800,39773 22763,39959 22763,40540 22800,40726 22906,40884 23063,40989 23250,41026 23436,40989 23593,40884 23699,40726 23736,40540 23736,39959 23734,39952 24162,39524 24353,39525 24547,39445 24694,39297 24774,39104 24775,38896 24775,43838 23968,43031 23868,42964 23750,42940 22732,42940 22699,42773 22593,42615 22436,42510 22250,42473 22063,42510 21906,42615 21800,42773 21763,42959 21763,43540 21800,43726 21906,43884 22063,43989 22250,44026 22436,43989 22593,43884 22699,43726 22732,43559 23621,43559 25547,45485 25500,45600 25499,45898 25613,46174 25824,46385 26100,46499 26398,46500 26514,46452 27281,47218 27381,47285 27381,47285 27500,47309 28066,47309 28113,47424 28324,47635 28600,47749 28898,47750 29174,47636 29385,47425 29499,47149 29500,46851 29452,46735 29718,46468 29718,46468 29718,46468 29785,46368 29785,46368 29804,46273 29809,46250 29809,47503 29371,47940 26878,47940 24952,46014 24999,45899 25000,45601 24886,45325 24675,45114 24399,45000 24101,44999 23825,45113 23614,45324 23500,45600 23499,45898 23613,46174 23824,46385 24100,46499 24398,46500 24514,46452 26531,48468 26631,48535 26631,48535 26750,48559 29500,48559 29618,48535 29618,48535 29718,48468 30485,47702 30600,47749 30898,47750 31174,47636 31385,47425 31499,47149 31500,46851 31386,46575 31175,46364 31059,46316 31059,44000 31059,43999 31059,43999 31054,43976 31035,43881 31035,43881 30968,43781 30968,43781 30309,43121 30309,41628 31378,40559 31750,40559 33499,40559 33499,40648 33613,40924 33824,41135 34100,41249 34398,41250 34674,41136 34885,40925 34999,40649 35000,40351 35000,42351 34886,42075 34675,41864 34399,41750 34101,41749 33825,41863 33614,42074 33500,42350 33499,42648 33547,42764 33031,43281 32964,43381 32940,43500 32940,44032 32938,44033 32784,44188 32700,44390 32699,44608 32783,44811 32938,44965 33140,45049 33358,45050 33561,44966 33715,44811 33799,44609 33800,44391 33716,44188 33561,44034 33559,44032 33559,43628 33985,43202 34100,43249 34398,43250 34674,43136 34885,42925 34999,42649 35000,42351 35000,47985 34947,47985 34946,47985 34756,48023 34659,48063 34658,48064 34497,48171 34496,48172 34421,48246 34314,48408 34313,48408 34273,48506 34235,48697 34235,48750 34235,48802 34273,48993 34313,49091 34314,49091 34421,49253 34496,49327 34497,49328 34658,49435 34659,49436 34756,49476 34946,49514 34947,49514 35052,49514 35243,49476 35341,49436 35341,49435 35503,49328 35577,49253 35578,49252 35685,49091 35686,49090 35726,48993 35764,48802 35764,48802 35764,48802 35764,48802 35764,49950 33500,49950 33500,46851 33386,46575 33175,46364 33059,46316 33059,46000 33059,45999 33059,45999 33054,45976 33035,45881 33035,45881 32968,45781 32968,45781 32309,45121 32309,43500 32309,43000 32285,42881 32285,42881 32218,42781 32049,42611 32049,42609 32050,42391 31966,42188 31811,42034 31609,41950 31391,41949 31188,42033 31034,42188 30950,42390 30949,42608 31033,42811 31188,42965 31390,43049 31608,43050 31611,43048 31690,43128 31690,43500 31690,45250 31714,45368 31781,45468 32440,46128 32440,46316 32325,46363 32114,46574 32000,46850 31999,47148 32047,47264 30621,48690 25628,48690 22952,46014 22999,45899 23000,45601 22886,45325 22675,45114 22399,45000 22101,44999 21985,45047 21059,44121 21059,41878 21994,40943 22063,40989 22250,41026 22436,40989 22593,40884 22699,40726 22736,40540 22736,39959 22699,39773 22593,39615 22436,39510 22250,39473 22063,39510 21906,39615 21800,39773 21763,39959 21763,40299 20764,41298 20764,37552 20764,37500 20764,37447 20764,37447 20764,37447 20764,37447 20726,37256 20686,37159 20685,37158 20578,36997 20577,36996 20503,36921 20341,36814 20341,36813 20243,36773 20052,36735 19947,36735 19946,36735 19756,36773 19659,36813 19658,36814 19497,36921 19496,36922 19421,36996 19314,37158 19313,37158 19273,37256 19235,37447 19235,37500 19235,37552 19273,37743 19313,37841 19314,37841 19421,38003 19496,38077 19497,38078 19658,38185 19659,38186 19756,38226 19946,38264 19947,38264 20052,38264 20243,38226 20341,38186 20341,38185 20503,38078 20577,38003 20578,38002 20685,37841 20686,37840 20726,37743 20764,37552 20764,37552 20764,37552 20764,37552 20764,41298 20531,41531 20464,41631 20440,41750 20440,44250 20464,44368 20531,44468 21547,45485 21500,45600 21499,45898 21613,46174 21824,46385 22100,46499 22398,46500 22514,46452 25281,49218 25281,49218 25381,49285 25381,49285 25476,49304 25499,49309 25499,49309 25500,49309 30750,49309 30868,49285 30868,49285 30968,49218 32485,47702 32600,47749 32898,47750 33174,47636 33385,47425 33499,47149 33500,46851 33500,49950 20764,49950 20764,48802 20764,48750 20764,48697 20764,48697 20764,48697 20764,48697 20726,48506 20686,48409 20685,48408 20578,48247 20577,48246 20503,48171 20341,48064 20341,48063 20243,48023 20052,47985 19947,47985 19946,47985 19756,48023 19659,48063 19658,48064 19497,48171 19496,48172 19421,48246 19314,48408 19313,48408 19273,48506 19235,48697 19235,48750 19235,48802 19273,48993 19313,49091 19314,49091 19421,49253 19496,49327 19497,49328 19658,49435 19659,49436 19756,49476 19946,49514 19947,49514 20052,49514 20243,49476 20341,49436 20341,49435 20503,49328 20577,49253 20578,49252 20685,49091 20686,49090 20726,48993 20764,48802 20764,48802 20764,48802 20764,48802 20764,49950 18800,49950 18800,34550 36200,34550 36200,49950 "
     transform="translate(12962.855,2626.822)" />
  <g
     style="fill:#ffffff;fill-opacity:0;stroke:#ffffff;stroke-width:59.05509949;stroke-linecap:round;stroke-linejoin:round;stroke-opacity:1"
     id="g936"
     transform="translate(0,-0.78370803)" />
  <circle
     style="fill:#ffffff;fill-opacity:1;stroke:#ffffff;stroke-width:59.05509949;stroke-linecap:round;stroke-linejoin:round;stroke-opacity:1"
     sodipodi:ry="39.370098"
     sodipodi:rx="39.370098"
     sodipodi:cy="35750"
     sodipodi:cx="20750"
     id="circle1178"
     r="39.370098"
     cy="35750"
     cx="20750"
     transform="translate(12962.855,2626.822)" />
  <circle
     style="fill:#ffffff;fill-opacity:1;stroke:#ffffff;stroke-width:59.05509949;stroke-linecap:round;stroke-linejoin:round;stroke-opacity:1"
     sodipodi:ry="39.370098"
     sodipodi:rx="39.370098"
     sodipodi:cy="35750"
     sodipodi:cx="24750"
     id="circle1180"
     r="39.370098"
     cy="35750"
     cx="24750"
     transform="translate(12962.855,2626.822)" />
  <circle
     style="fill:#ffffff;fill-opacity:1;stroke:#ffffff;stroke-width:59.05509949;stroke-linecap:round;stroke-linejoin:round;stroke-opacity:1"
     sodipodi:ry="39.370098"
     sodipodi:rx="39.370098"
     sodipodi:cy="44500"
     sodipodi:cx="29250"
     id="circle1182"
     r="39.370098"
     cy="44500"
     cx="29250"
     transform="translate(12962.855,2626.822)" />
  <circle
     style="fill:#ffffff;fill-opacity:1;stroke:#ffffff;stroke-width:59.05509949;stroke-linecap:round;stroke-linejoin:round;stroke-opacity:1"
     sodipodi:ry="39.370098"
     sodipodi:rx="39.370098"
     sodipodi:cy="44500"
     sodipodi:cx="33250"
     id="circle1184"
     r="39.370098"
     cy="44500"
     cx="33250"
     transform="translate(12962.855,2626.822)" />
  <circle
     style="fill:#ffffff;fill-opacity:1;stroke:#ffffff;stroke-width:59.05509949;stroke-linecap:round;stroke-linejoin:round;stroke-opacity:1"
     sodipodi:ry="39.370098"
     sodipodi:rx="39.370098"
     sodipodi:cy="42500"
     sodipodi:cx="31500"
     id="circle1186"
     r="39.370098"
     cy="42500"
     cx="31500"
     transform="translate(12962.855,2626.822)" />
  <circle
     style="fill:#ffffff;fill-opacity:1;stroke:#ffffff;stroke-width:59.05509949;stroke-linecap:round;stroke-linejoin:round;stroke-opacity:1"
     sodipodi:ry="39.370098"
     sodipodi:rx="39.370098"
     sodipodi:cy="38500"
     sodipodi:cx="31500"
     id="circle1188"
     r="39.370098"
     cy="38500"
     cx="31500"
     transform="translate(12962.855,2626.822)" />
  <circle
     style="fill:#ffffff;fill-opacity:1;stroke:#ffffff;stroke-width:59.05509949;stroke-linecap:round;stroke-linejoin:round;stroke-opacity:1"
     sodipodi:ry="39.370098"
     sodipodi:rx="39.370098"
     sodipodi:cy="35750"
     sodipodi:cx="26250"
     id="circle1190"
     r="39.370098"
     cy="35750"
     cx="26250"
     transform="translate(12962.855,2626.822)" />
  <circle
     style="fill:#ffffff;fill-opacity:1;stroke:#ffffff;stroke-width:59.05509949;stroke-linecap:round;stroke-linejoin:round;stroke-opacity:1"
     sodipodi:ry="39.370098"
     sodipodi:rx="39.370098"
     sodipodi:cy="36750"
     sodipodi:cx="26250"
     id="circle1192"
     r="39.370098"
     cy="36750"
     cx="26250"
     transform="translate(12962.855,2626.822)" />
  <circle
     style="fill:#ffffff;fill-opacity:1;stroke:#ffffff;stroke-width:59.05509949;stroke-linecap:round;stroke-linejoin:round;stroke-opacity:1"
     sodipodi:ry="39.370098"
     sodipodi:rx="39.370098"
     sodipodi:cy="37750"
     sodipodi:cx="26250"
     id="circle1194"
     r="39.370098"
     cy="37750"
     cx="26250"
     transform="translate(12962.855,2626.822)" />
  <circle
     style="fill:#ffffff;fill-opacity:1;stroke:#ffffff;stroke-width:59.05509949;stroke-linecap:round;stroke-linejoin:round;stroke-opacity:1"
     sodipodi:ry="39.370098"
     sodipodi:rx="39.370098"
     sodipodi:cy="40250"
     sodipodi:cx="28250"
     id="circle1196"
     r="39.370098"
     cy="40250"
     cx="28250"
     transform="translate(12962.855,2626.822)" />
  <circle
     style="fill:#ffffff;fill-opacity:1;stroke:#ffffff;stroke-width:59.05509949;stroke-linecap:round;stroke-linejoin:round;stroke-opacity:1"
     sodipodi:ry="39.370098"
     sodipodi:rx="39.370098"
     sodipodi:cy="40250"
     sodipodi:cx="27250"
     id="circle1198"
     r="39.370098"
     cy="40250"
     cx="27250"
     transform="translate(12962.855,2626.822)" />
  <circle
     style="fill:#ffffff;fill-opacity:1;stroke:#ffffff;stroke-width:59.05509949;stroke-linecap:round;stroke-linejoin:round;stroke-opacity:1"
     sodipodi:ry="39.370098"
     sodipodi:rx="39.370098"
     sodipodi:cy="40250"
     sodipodi:cx="23250"
     id="circle1200"
     r="39.370098"
     cy="40250"
     cx="23250"
     transform="translate(12962.855,2626.822)" />
  <circle
     style="fill:#ffffff;fill-opacity:1;stroke:#ffffff;stroke-width:59.05509949;stroke-linecap:round;stroke-linejoin:round;stroke-opacity:1"
     sodipodi:ry="39.370098"
     sodipodi:rx="39.370098"
     sodipodi:cy="40250"
     sodipodi:cx="22250"
     id="circle1202"
     r="39.370098"
     cy="40250"
     cx="22250"
     transform="translate(12962.855,2626.822)" />
  <circle
     style="fill:#ffffff;fill-opacity:1;stroke:#ffffff;stroke-width:59.05509949;stroke-linecap:round;stroke-linejoin:round;stroke-opacity:1"
     sodipodi:ry="39.370098"
     sodipodi:rx="39.370098"
     sodipodi:cy="43250"
     sodipodi:cx="22250"
     id="circle1204"
     r="39.370098"
     cy="43250"
     cx="22250"
     transform="translate(12962.855,2626.822)" />
  <circle
     style="fill:#ffffff;fill-opacity:1;stroke:#ffffff;stroke-width:59.05509949;stroke-linecap:round;stroke-linejoin:round;stroke-opacity:1"
     sodipodi:ry="39.370098"
     sodipodi:rx="39.370098"
     sodipodi:cy="43250"
     sodipodi:cx="28250"
     id="circle1206"
     r="39.370098"
     cy="43250"
     cx="28250"
     transform="translate(12962.855,2626.822)" />
  <circle
     style="fill:#ffffff;fill-opacity:1;stroke:#ffffff;stroke-width:59.05509949;stroke-linecap:round;stroke-linejoin:round;stroke-opacity:1"
     sodipodi:ry="39.370098"
     sodipodi:rx="39.370098"
     sodipodi:cy="39000"
     sodipodi:cx="27250"
     id="circle1208"
     r="39.370098"
     cy="39000"
     cx="27250"
     transform="translate(12962.855,2626.822)" />
  <circle
     style="fill:#ffffff;fill-opacity:1;stroke:#ffffff;stroke-width:59.05509949;stroke-linecap:round;stroke-linejoin:round;stroke-opacity:1"
     sodipodi:ry="39.370098"
     sodipodi:rx="39.370098"
     sodipodi:cy="39000"
     sodipodi:cx="24250"
     id="circle1210"
     r="39.370098"
     cy="39000"
     cx="24250"
     transform="translate(12962.855,2626.822)" />
  <circle
     style="fill:#ffffff;fill-opacity:1;stroke:#ffffff;stroke-width:59.05509949;stroke-linecap:round;stroke-linejoin:round;stroke-opacity:1"
     sodipodi:ry="39.370098"
     sodipodi:rx="39.370098"
     sodipodi:cy="45750"
     sodipodi:cx="26250"
     id="circle1212"
     r="39.370098"
     cy="45750"
     cx="26250"
     transform="translate(12962.855,2626.822)" />
  <circle
     style="fill:#ffffff;fill-opacity:1;stroke:#ffffff;stroke-width:59.05509949;stroke-linecap:round;stroke-linejoin:round;stroke-opacity:1"
     sodipodi:ry="39.370098"
     sodipodi:rx="39.370098"
     sodipodi:cy="45750"
     sodipodi:cx="24250"
     id="circle1214"
     r="39.370098"
     cy="45750"
     cx="24250"
     transform="translate(12962.855,2626.822)" />
  <circle
     style="fill:#ffffff;fill-opacity:1;stroke:#ffffff;stroke-width:59.05509949;stroke-linecap:round;stroke-linejoin:round;stroke-opacity:1"
     sodipodi:ry="39.370098"
     sodipodi:rx="39.370098"
     sodipodi:cy="45750"
     sodipodi:cx="22250"
     id="circle1216"
     r="39.370098"
     cy="45750"
     cx="22250"
     transform="translate(12962.855,2626.822)" />
  <circle
     style="fill:#ffffff;fill-opacity:1;stroke:#ffffff;stroke-width:59.05509949;stroke-linecap:round;stroke-linejoin:round;stroke-opacity:1"
     sodipodi:ry="39.370098"
     sodipodi:rx="39.370098"
     sodipodi:cy="38500"
     sodipodi:cx="34250"
     id="circle1218"
     r="39.370098"
     cy="38500"
     cx="34250"
     transform="translate(12962.855,2626.822)" />
  <circle
     style="fill:#ffffff;fill-opacity:1;stroke:#ffffff;stroke-width:59.05509949;stroke-linecap:round;stroke-linejoin:round;stroke-opacity:1"
     sodipodi:ry="39.370098"
     sodipodi:rx="39.370098"
     sodipodi:cy="40500"
     sodipodi:cx="34250"
     id="circle1220"
     r="39.370098"
     cy="40500"
     cx="34250"
     transform="translate(12962.855,2626.822)" />
  <circle
     style="fill:#ffffff;fill-opacity:1;stroke:#ffffff;stroke-width:59.05509949;stroke-linecap:round;stroke-linejoin:round;stroke-opacity:1"
     sodipodi:ry="39.370098"
     sodipodi:rx="39.370098"
     sodipodi:cy="42500"
     sodipodi:cx="34250"
     id="circle1222"
     r="39.370098"
     cy="42500"
     cx="34250"
     transform="translate(12962.855,2626.822)" />
  <circle
     style="fill:#ffffff;fill-opacity:1;stroke:#ffffff;stroke-width:59.05509949;stroke-linecap:round;stroke-linejoin:round;stroke-opacity:1"
     sodipodi:ry="39.370098"
     sodipodi:rx="39.370098"
     sodipodi:cy="37353.602"
     sodipodi:cx="22189.301"
     id="circle1224"
     r="39.370098"
     cy="37353.602"
     cx="22189.301"
     transform="translate(12962.855,2626.822)" />
  <circle
     style="fill:#ffffff;fill-opacity:1;stroke:#ffffff;stroke-width:59.05509949;stroke-linecap:round;stroke-linejoin:round;stroke-opacity:1"
     sodipodi:ry="39.370098"
     sodipodi:rx="39.370098"
     sodipodi:cy="37353.602"
     sodipodi:cx="23250"
     id="circle1226"
     r="39.370098"
     cy="37353.602"
     cx="23250"
     transform="translate(12962.855,2626.822)" />
  <circle
     style="fill:#ffffff;fill-opacity:1;stroke:#ffffff;stroke-width:59.05509949;stroke-linecap:round;stroke-linejoin:round;stroke-opacity:1"
     sodipodi:ry="39.370098"
     sodipodi:rx="39.370098"
     sodipodi:cy="37353.602"
     sodipodi:cx="24310.699"
     id="circle1228"
     r="39.370098"
     cy="37353.602"
     cx="24310.699"
     transform="translate(12962.855,2626.822)" />
  <circle
     style="fill:#ffffff;fill-opacity:1;stroke:#ffffff;stroke-width:59.05509949;stroke-linecap:round;stroke-linejoin:round;stroke-opacity:1"
     sodipodi:ry="39.370098"
     sodipodi:rx="39.370098"
     sodipodi:cy="37250"
     sodipodi:cx="28250"
     id="circle1230"
     r="39.370098"
     cy="37250"
     cx="28250"
     transform="translate(12962.855,2626.822)" />
  <circle
     style="fill:#ffffff;fill-opacity:1;stroke:#ffffff;stroke-width:59.05509949;stroke-linecap:round;stroke-linejoin:round;stroke-opacity:1"
     sodipodi:ry="39.370098"
     sodipodi:rx="39.370098"
     sodipodi:cy="36250"
     sodipodi:cx="28250"
     id="circle1232"
     r="39.370098"
     cy="36250"
     cx="28250"
     transform="translate(12962.855,2626.822)" />
  <circle
     style="fill:#ffffff;fill-opacity:1;stroke:#ffffff;stroke-width:59.05509949;stroke-linecap:round;stroke-linejoin:round;stroke-opacity:1"
     sodipodi:ry="39.370098"
     sodipodi:rx="39.370098"
     sodipodi:cy="47000"
     sodipodi:cx="28750"
     id="circle1234"
     r="39.370098"
     cy="47000"
     cx="28750"
     transform="translate(12962.855,2626.822)" />
  <circle
     style="fill:#ffffff;fill-opacity:1;stroke:#ffffff;stroke-width:59.05509949;stroke-linecap:round;stroke-linejoin:round;stroke-opacity:1"
     sodipodi:ry="39.370098"
     sodipodi:rx="39.370098"
     sodipodi:cy="47000"
     sodipodi:cx="30750"
     id="circle1236"
     r="39.370098"
     cy="47000"
     cx="30750"
     transform="translate(12962.855,2626.822)" />
  <circle
     style="fill:#ffffff;fill-opacity:1;stroke:#ffffff;stroke-width:59.05509949;stroke-linecap:round;stroke-linejoin:round;stroke-opacity:1"
     sodipodi:ry="39.370098"
     sodipodi:rx="39.370098"
     sodipodi:cy="47000"
     sodipodi:cx="32750"
     id="circle1238"
     r="39.370098"
     cy="47000"
     cx="32750"
     transform="translate(12962.855,2626.822)" />
</svg>
