<?xml version="1.0" standalone="no"?>
 <!DOCTYPE svg PUBLIC "-//W3C//DTD SVG 1.1//EN" 
 "http://www.w3.org/Graphics/SVG/1.1/DTD/svg11.dtd"> 
<svg xmlns="http://www.w3.org/2000/svg" version="1.1" 
    width="21.0007cm" height="29.7002cm" viewBox="0 0 82680 116930 ">
<title>SVG Picture created as soft_start-F_SilkS.svg date 2014/08/26 17:46:30 </title>
  <desc>Picture generated by PCBNEW </desc>
<g style="fill:#000000; fill-opacity:1;stroke:#000000; stroke-opacity:1;
stroke-linecap:round; stroke-linejoin:round; "
 transform="translate(0 0) scale(1 1)">
</g>
<g style="fill:#000000; fill-opacity:0.0; 
stroke:#000000; stroke-width:39.3701; stroke-opacity:1; 
stroke-linecap:round; stroke-linejoin:round;">
<circle cx="16500" cy="42500" r="500" /> 
<circle cx="16500" cy="32000" r="500" /> 
<circle cx="35000" cy="42500" r="500" /> 
<circle cx="35000" cy="32000" r="500" /> 
<path d="M15250 30750
L15250 43750
" />
<path d="M36250 43750
L36250 30750
" />
<path d="M15250 43750
L36250 43750
" />
<path d="M15250 30750
L36250 30750
" />
<circle cx="63750" cy="54750" r="500" /> 
<circle cx="63750" cy="38750" r="500" /> 
<path d="M42250 35250
L55250 35250
" />
<path d="M42250 22500
L42250 35250
" />
<path d="M55250 22500
L42250 22500
" />
<path d="M40250 56000
L53750 56000
" />
<path d="M40250 37500
L40250 56000
" />
<path d="M53750 37500
L40250 37500
" />
<circle cx="54000" cy="34000" r="500" /> 
<circle cx="61000" cy="23750" r="500" /> 
<circle cx="43750" cy="34000" r="500" /> 
<circle cx="43750" cy="23750" r="500" /> 
<circle cx="41500" cy="38750" r="500" /> 
<circle cx="41500" cy="54750" r="500" /> 
</g>
<g style="fill:#000000; fill-opacity:0.0; 
stroke:#000000; stroke-width:59.0551; stroke-opacity:1; 
stroke-linecap:round; stroke-linejoin:round;">
<path d="M46187 26620
L46187 32683
" />
<path d="M46187 32683
L53746 32683
" />
<path d="M46187 26620
L53746 26620
" />
<path d="M53746 26620
L53746 32683
" />
</g>
<g style="fill:#000000; fill-opacity:0.0; 
stroke:#000000; stroke-width:120; stroke-opacity:1; 
stroke-linecap:round; stroke-linejoin:round;">
<path d="M61250 26750
L61250 27150
" />
<path d="M61250 27150
L61650 27150
" />
<path d="M61650 27150
L61650 30350
" />
<path d="M61650 30350
L60850 30350
" />
<path d="M60850 30350
L60850 27150
" />
<path d="M60850 27150
L61250 27150
" />
<path d="M61450 27150
L61650 27350
" />
<path d="M61250 30750
L61250 30350
" />
<path d="M59000 47250
L59000 46850
" />
<path d="M59000 46850
L58600 46850
" />
<path d="M58600 46850
L58600 43650
" />
<path d="M58600 43650
L59400 43650
" />
<path d="M59400 43650
L59400 46850
" />
<path d="M59400 46850
L59000 46850
" />
<path d="M58800 46850
L58600 46650
" />
<path d="M59000 43250
L59000 43650
" />
<path d="M56750 30250
L56750 29950
" />
<path d="M56750 29950
L57150 29950
" />
<path d="M57150 29950
L57150 27550
" />
<path d="M57150 27550
L56750 27550
" />
<path d="M56750 27550
L56750 27250
" />
<path d="M56750 27550
L56350 27550
" />
<path d="M56350 27550
L56350 29950
" />
<path d="M56350 29950
L56750 29950
" />
<path d="M57150 29750
L56350 29750
" />
<path d="M56350 29650
L57150 29650
" />
<path d="M54750 47000
L54750 46700
" />
<path d="M54750 46700
L55150 46700
" />
<path d="M55150 46700
L55150 44300
" />
<path d="M55150 44300
L54750 44300
" />
<path d="M54750 44300
L54750 44000
" />
<path d="M54750 44300
L54350 44300
" />
<path d="M54350 44300
L54350 46700
" />
<path d="M54350 46700
L54750 46700
" />
<path d="M55150 46500
L54350 46500
" />
<path d="M54350 46400
L55150 46400
" />
<path d="M52250 25000
L48250 25000
" />
<path d="M52250 25500
L52250 22500
" />
<path d="M52250 22500
L48250 22500
" />
<path d="M48250 22500
L48250 25500
" />
<path d="M48250 25500
L52250 25500
" />
<path d="M40750 53500
L40750 49500
" />
<path d="M40250 53500
L43250 53500
" />
<path d="M43250 53500
L43250 49500
" />
<path d="M43250 49500
L40250 49500
" />
<path d="M40250 49500
L40250 53500
" />
<path d="M42750 43000
L42750 47000
" />
<path d="M43250 43000
L40250 43000
" />
<path d="M40250 43000
L40250 47000
" />
<path d="M40250 47000
L43250 47000
" />
<path d="M43250 47000
L43250 43000
" />
<path d="M57103 46560
L57103 44439
" />
<path d="M57103 44439
L56750 44085
" />
<path d="M56750 44085
L56042 44085
" />
<path d="M56042 44085
L55335 44792
" />
<path d="M55335 44792
L55335 46207
" />
<path d="M55335 46207
L56042 46914
" />
<path d="M56042 46914
L56750 46914
" />
<path d="M56750 46914
L57103 46560
" />
<path d="M58146 27689
L58146 29810
" />
<path d="M58146 29810
L58500 30164
" />
<path d="M58500 30164
L59207 30164
" />
<path d="M59207 30164
L59914 29457
" />
<path d="M59914 29457
L59914 28042
" />
<path d="M59914 28042
L59207 27335
" />
<path d="M59207 27335
L58500 27335
" />
<path d="M58500 27335
L58146 27689
" />
</g>
<g style="fill:#000000; fill-opacity:0.0; 
stroke:#000000; stroke-width:59.0551; stroke-opacity:1; 
stroke-linecap:round; stroke-linejoin:round;">
<path d="M44187 41620
L44187 47683
" />
<path d="M44187 47683
L51746 47683
" />
<path d="M44187 41620
L51746 41620
" />
<path d="M51746 41620
L51746 47683
" />
</g>
<g style="fill:#000000; fill-opacity:0.0; 
stroke:#000000; stroke-width:120; stroke-opacity:1; 
stroke-linecap:round; stroke-linejoin:round;">
<path d="M55896 50939
L55896 53060
" />
<path d="M55896 53060
L56250 53414
" />
<path d="M56250 53414
L56957 53414
" />
<path d="M56957 53414
L57664 52707
" />
<path d="M57664 52707
L57664 51292
" />
<path d="M57664 51292
L56957 50585
" />
<path d="M56957 50585
L56250 50585
" />
<path d="M56250 50585
L55896 50939
" />
</g>
<g style="fill:#000000; fill-opacity:0.0; 
stroke:#000000; stroke-width:59.0551; stroke-opacity:1; 
stroke-linecap:round; stroke-linejoin:round;">
<path d="M44187 49870
L44187 55933
" />
<path d="M44187 55933
L51746 55933
" />
<path d="M44187 49870
L51746 49870
" />
<path d="M51746 49870
L51746 55933
" />
</g>
<g style="fill:#000000; fill-opacity:0.0; 
stroke:#000000; stroke-width:120; stroke-opacity:1; 
stroke-linecap:round; stroke-linejoin:round;">
<path d="M59000 50250
L59000 50650
" />
<path d="M59000 50650
L59400 50650
" />
<path d="M59400 50650
L59400 53850
" />
<path d="M59400 53850
L58600 53850
" />
<path d="M58600 53850
L58600 50650
" />
<path d="M58600 50650
L59000 50650
" />
<path d="M59200 50650
L59400 50850
" />
<path d="M59000 54250
L59000 53850
" />
<path d="M54750 50500
L54750 50800
" />
<path d="M54750 50800
L54350 50800
" />
<path d="M54350 50800
L54350 53200
" />
<path d="M54350 53200
L54750 53200
" />
<path d="M54750 53200
L54750 53500
" />
<path d="M54750 53200
L55150 53200
" />
<path d="M55150 53200
L55150 50800
" />
<path d="M55150 50800
L54750 50800
" />
<path d="M54350 51000
L55150 51000
" />
<path d="M55150 51100
L54350 51100
" />
<path d="M44750 26250
L44750 30250
" />
<path d="M45250 26250
L42250 26250
" />
<path d="M42250 26250
L42250 30250
" />
<path d="M42250 30250
L45250 30250
" />
<path d="M45250 30250
L45250 26250
" />
<path d="M50250 40000
L46250 40000
" />
<path d="M50250 40500
L50250 37500
" />
<path d="M50250 37500
L46250 37500
" />
<path d="M46250 37500
L46250 40500
" />
<path d="M46250 40500
L50250 40500
" />
<path d="M60000 40000
L56000 40000
" />
<path d="M60000 40500
L60000 37500
" />
<path d="M60000 37500
L56000 37500
" />
<path d="M56000 37500
L56000 40500
" />
<path d="M56000 40500
L60000 40500
" />
<path d="M61500 48500
L61500 44500
" />
<path d="M61000 48500
L64000 48500
" />
<path d="M64000 48500
L64000 44500
" />
<path d="M64000 44500
L61000 44500
" />
<path d="M61000 44500
L61000 48500
" />
<path d="M61500 53000
L61500 49000
" />
<path d="M61000 53000
L64000 53000
" />
<path d="M64000 53000
L64000 49000
" />
<path d="M64000 49000
L61000 49000
" />
<path d="M61000 49000
L61000 53000
" />
<path d="M56000 35000
L56000 32000
" />
<path d="M62000 35000
L62000 32000
" />
<path d="M56000 34500
L62000 34500
" />
<path d="M56000 32000
L62000 32000
" />
<path d="M56000 35000
L62000 35000
" />
<path d="M20750 41750
L20750 41750
" />
<path d="M20750 41750
L20750 41750
" />
<path d="M27000 41750
L27750 41750
" />
<path d="M27750 41750
L27750 41750
" />
<path d="M27000 42750
L21500 42750
" />
<path d="M21500 40750
L27000 40750
" />
<path d="M21500 41250
L22000 40750
" />
<path d="M27000 40750
L27000 42750
" />
<path d="M21500 40750
L21500 42750
" />
<path d="M20750 41750
L21500 41750
" />
<path d="M20750 37250
L20750 37250
" />
<path d="M20750 37250
L20750 37250
" />
<path d="M27000 37250
L27750 37250
" />
<path d="M27750 37250
L27750 37250
" />
<path d="M27000 38250
L21500 38250
" />
<path d="M21500 36250
L27000 36250
" />
<path d="M21500 36750
L22000 36250
" />
<path d="M27000 36250
L27000 38250
" />
<path d="M21500 36250
L21500 38250
" />
<path d="M20750 37250
L21500 37250
" />
<path d="M20750 32750
L20750 32750
" />
<path d="M20750 32750
L20750 32750
" />
<path d="M27000 32750
L27750 32750
" />
<path d="M27750 32750
L27750 32750
" />
<path d="M27000 33750
L21500 33750
" />
<path d="M21500 31750
L27000 31750
" />
<path d="M21500 32250
L22000 31750
" />
<path d="M27000 31750
L27000 33750
" />
<path d="M21500 31750
L21500 33750
" />
<path d="M20750 32750
L21500 32750
" />
<path d="M15750 39250
L15750 35250
" />
<path d="M15250 39250
L18250 39250
" />
<path d="M18250 39250
L18250 35250
" />
<path d="M18250 35250
L15250 35250
" />
<path d="M15250 35250
L15250 39250
" />
<path d="M35750 35250
L35750 39250
" />
<path d="M36250 35250
L33250 35250
" />
<path d="M33250 35250
L33250 39250
" />
<path d="M33250 39250
L36250 39250
" />
<path d="M36250 39250
L36250 35250
" />
</g>
<g style="fill:#000000; fill-opacity:0.0; 
stroke:#000000; stroke-width:59.0551; stroke-opacity:1; 
stroke-linecap:round; stroke-linejoin:round;">
<path d="M49606 27409
L49475 27221
" />
<path d="M49381 27409
L49381 27015
L49531 27015
L49568 27034
L49587 27053
L49606 27090
L49606 27146
L49587 27184
L49568 27203
L49531 27221
L49381 27221
" />
<path d="M49962 27409
L49775 27409
L49775 27015
" />
<path d="M50168 27221
L50168 27409
" />
<path d="M50037 27015
L50168 27221
L50299 27015
" />
<path d="M50637 27409
L50412 27409
" />
<path d="M50524 27409
L50524 27015
L50487 27071
L50449 27109
L50412 27128
" />
<path d="M48772 25909
L48640 25721
" />
<path d="M48547 25909
L48547 25515
L48697 25515
L48734 25534
L48753 25553
L48772 25590
L48772 25646
L48753 25684
L48734 25703
L48697 25721
L48547 25721
" />
<path d="M48922 25796
L49109 25796
" />
<path d="M48884 25909
L49015 25515
L49146 25909
" />
<path d="M49259 25890
L49315 25909
L49409 25909
L49446 25890
L49465 25871
L49484 25834
L49484 25796
L49465 25759
L49446 25740
L49409 25721
L49334 25703
L49296 25684
L49278 25665
L49259 25628
L49259 25590
L49278 25553
L49296 25534
L49334 25515
L49428 25515
L49484 25534
" />
<path d="M49653 25759
L49953 25759
" />
<path d="M50215 25515
L50253 25515
L50290 25534
L50309 25553
L50328 25590
L50346 25665
L50346 25759
L50328 25834
L50309 25871
L50290 25890
L50253 25909
L50215 25909
L50178 25890
L50159 25871
L50140 25834
L50121 25759
L50121 25665
L50140 25590
L50159 25553
L50178 25534
L50215 25515
" />
<path d="M50703 25515
L50515 25515
L50496 25703
L50515 25684
L50553 25665
L50646 25665
L50684 25684
L50703 25703
L50721 25740
L50721 25834
L50703 25871
L50684 25890
L50646 25909
L50553 25909
L50515 25890
L50496 25871
" />
<path d="M51096 25909
L50871 25909
" />
<path d="M50984 25909
L50984 25515
L50946 25571
L50909 25609
L50871 25628
" />
<path d="M51452 25515
L51265 25515
L51246 25703
L51265 25684
L51302 25665
L51396 25665
L51434 25684
L51452 25703
L51471 25740
L51471 25834
L51452 25871
L51434 25890
L51396 25909
L51302 25909
L51265 25890
L51246 25871
" />
</g>
<g style="fill:#000000; fill-opacity:0.0; 
stroke:#000000; stroke-width:80; stroke-opacity:1; 
stroke-linecap:round; stroke-linejoin:round;">
<path d="M61166 28972
L61000 28710
" />
<path d="M60880 28972
L60880 28422
L61071 28422
L61119 28448
L61142 28475
L61166 28527
L61166 28605
L61142 28658
L61119 28684
L61071 28710
L60880 28710
" />
<path d="M61642 28972
L61357 28972
" />
<path d="M61500 28972
L61500 28422
L61452 28501
L61404 28553
L61357 28579
" />
<path d="M59222 45333
L58960 45500
" />
<path d="M59222 45619
L58672 45619
L58672 45428
L58698 45380
L58725 45357
L58777 45333
L58855 45333
L58908 45357
L58934 45380
L58960 45428
L58960 45619
" />
<path d="M58725 45142
L58698 45119
L58672 45071
L58672 44952
L58698 44904
L58725 44880
L58777 44857
L58829 44857
L58908 44880
L59222 45166
L59222 44857
" />
<path d="M56704 28911
L56704 28511
L56800 28511
L56857 28530
L56895 28569
L56914 28607
L56933 28683
L56933 28740
L56914 28816
L56895 28854
L56857 28892
L56800 28911
L56704 28911
" />
<path d="M57085 28550
L57104 28530
L57142 28511
L57238 28511
L57276 28530
L57295 28550
L57314 28588
L57314 28626
L57295 28683
L57066 28911
L57314 28911
" />
<path d="M55661 45795
L55261 45795
L55261 45699
L55280 45642
L55319 45604
L55357 45585
L55433 45566
L55490 45566
L55566 45585
L55604 45604
L55642 45642
L55661 45699
L55661 45795
" />
<path d="M55661 45185
L55661 45414
" />
<path d="M55661 45299
L55261 45299
L55319 45338
L55357 45376
L55376 45414
" />
</g>
<g style="fill:#000000; fill-opacity:0.0; 
stroke:#000000; stroke-width:120; stroke-opacity:1; 
stroke-linecap:round; stroke-linejoin:round;">
<path d="M49557 26492
L49557 25892
L49785 25892
L49842 25921
L49871 25950
L49900 26007
L49900 26092
L49871 26150
L49842 26178
L49785 26207
L49557 26207
" />
<path d="M50471 26492
L50128 26492
" />
<path d="M50300 26492
L50300 25892
L50242 25978
L50185 26035
L50128 26064
" />
<path d="M48978 22185
L48950 22214
L48864 22242
L48807 22242
L48721 22214
L48664 22157
L48635 22100
L48607 21985
L48607 21900
L48635 21785
L48664 21728
L48721 21671
L48807 21642
L48864 21642
L48950 21671
L48978 21700
" />
<path d="M49350 21642
L49464 21642
L49521 21671
L49578 21728
L49607 21842
L49607 22042
L49578 22157
L49521 22214
L49464 22242
L49350 22242
L49292 22214
L49235 22157
L49207 22042
L49207 21842
L49235 21728
L49292 21671
L49350 21642
" />
<path d="M49864 22242
L49864 21642
L50207 22242
L50207 21642
" />
<path d="M50492 22242
L50492 21642
L50835 22242
L50835 21642
" />
<path d="M50978 22300
L51435 22300
" />
<path d="M51550 21700
L51578 21671
L51635 21642
L51778 21642
L51835 21671
L51864 21700
L51892 21757
L51892 21814
L51864 21900
L51521 22242
L51892 22242
" />
<path d="M39742 51942
L39142 51942
L39142 51714
L39171 51657
L39200 51628
L39257 51600
L39342 51600
L39400 51628
L39428 51657
L39457 51714
L39457 51942
" />
<path d="M39200 51371
L39171 51342
L39142 51285
L39142 51142
L39171 51085
L39200 51057
L39257 51028
L39314 51028
L39400 51057
L39742 51400
L39742 51028
" />
<path d="M38685 53021
L38714 53049
L38742 53135
L38742 53192
L38714 53278
L38657 53335
L38600 53364
L38485 53392
L38400 53392
L38285 53364
L38228 53335
L38171 53278
L38142 53192
L38142 53135
L38171 53049
L38200 53021
" />
<path d="M38142 52649
L38142 52535
L38171 52478
L38228 52421
L38342 52392
L38542 52392
L38657 52421
L38714 52478
L38742 52535
L38742 52649
L38714 52707
L38657 52764
L38542 52792
L38342 52792
L38228 52764
L38171 52707
L38142 52649
" />
<path d="M38742 52135
L38142 52135
L38742 51792
L38142 51792
" />
<path d="M38742 51507
L38142 51507
L38742 51164
L38142 51164
" />
<path d="M38800 51021
L38800 50564
" />
<path d="M38200 50450
L38171 50421
L38142 50364
L38142 50221
L38171 50164
L38200 50135
L38257 50107
L38314 50107
L38400 50135
L38742 50478
L38742 50107
" />
<path d="M39992 45442
L39392 45442
L39392 45214
L39421 45157
L39450 45128
L39507 45100
L39592 45100
L39650 45128
L39678 45157
L39707 45214
L39707 45442
" />
<path d="M39392 44900
L39392 44528
L39621 44728
L39621 44642
L39650 44585
L39678 44557
L39735 44528
L39878 44528
L39935 44557
L39964 44585
L39992 44642
L39992 44814
L39964 44871
L39935 44900
" />
<path d="M38935 46521
L38964 46549
L38992 46635
L38992 46692
L38964 46778
L38907 46835
L38850 46864
L38735 46892
L38650 46892
L38535 46864
L38478 46835
L38421 46778
L38392 46692
L38392 46635
L38421 46549
L38450 46521
" />
<path d="M38392 46149
L38392 46035
L38421 45978
L38478 45921
L38592 45892
L38792 45892
L38907 45921
L38964 45978
L38992 46035
L38992 46149
L38964 46207
L38907 46264
L38792 46292
L38592 46292
L38478 46264
L38421 46207
L38392 46149
" />
<path d="M38992 45635
L38392 45635
L38992 45292
L38392 45292
" />
<path d="M38992 45007
L38392 45007
L38992 44664
L38392 44664
" />
<path d="M39050 44521
L39050 44064
" />
<path d="M38450 43950
L38421 43921
L38392 43864
L38392 43721
L38421 43664
L38450 43635
L38507 43607
L38564 43607
L38650 43635
L38992 43978
L38992 43607
" />
</g>
<g style="fill:#000000; fill-opacity:0.0; 
stroke:#000000; stroke-width:80; stroke-opacity:1; 
stroke-linecap:round; stroke-linejoin:round;">
<path d="M57571 47082
L57531 47096
L57477 47096
L57396 47096
L57356 47109
L57329 47136
" />
<path d="M57409 47190
L57369 47203
L57315 47203
L57248 47163
L57154 47069
L57113 47001
L57113 46947
L57127 46907
L57180 46853
L57221 46840
L57275 46840
L57342 46880
L57436 46974
L57477 47042
L57477 47096
L57463 47136
L57409 47190
" />
<path d="M57800 46799
L57638 46961
" />
<path d="M57719 46880
L57436 46597
L57450 46665
L57450 46718
L57436 46759
" />
<path d="M55941 43491
L55994 43464
L56021 43464
L56062 43478
L56102 43518
L56116 43558
L56116 43585
L56102 43626
L55994 43734
L55712 43451
L55806 43356
L55846 43343
L55873 43343
L55914 43356
L55941 43383
L55954 43424
L55954 43451
L55941 43491
L55846 43585
" />
<path d="M56412 43262
L56412 43289
L56385 43343
L56358 43370
L56304 43397
L56250 43397
L56210 43383
L56143 43343
L56102 43303
L56062 43235
L56048 43195
L56048 43141
L56075 43087
L56102 43060
L56156 43033
L56183 43033
" />
<path d="M56412 42750
L56277 42885
L56398 43033
L56398 43006
L56412 42966
L56479 42898
L56520 42885
L56547 42885
L56587 42898
L56654 42966
L56668 43006
L56668 43033
L56654 43074
L56587 43141
L56547 43154
L56520 43154
" />
<path d="M56762 42589
L56951 42777
" />
<path d="M56587 42548
L56722 42818
L56897 42643
" />
<path d="M56789 42373
L56978 42185
L57139 42589
" />
<path d="M57907 27504
L57866 27517
L57813 27517
L57732 27517
L57691 27531
L57664 27558
" />
<path d="M57745 27611
L57705 27625
L57651 27625
L57584 27584
L57489 27490
L57449 27423
L57449 27369
L57462 27329
L57516 27275
L57557 27261
L57611 27261
L57678 27302
L57772 27396
L57813 27463
L57813 27517
L57799 27558
L57745 27611
" />
<path d="M57718 27127
L57718 27100
L57732 27059
L57799 26992
L57840 26978
L57866 26978
L57907 26992
L57934 27019
L57961 27073
L57961 27396
L58136 27221
" />
<path d="M59708 30302
L59762 30275
L59789 30275
L59830 30288
L59870 30329
L59883 30369
L59883 30396
L59870 30436
L59762 30544
L59479 30261
L59574 30167
L59614 30154
L59641 30154
L59681 30167
L59708 30194
L59722 30234
L59722 30261
L59708 30302
L59614 30396
" />
<path d="M60180 30073
L60180 30100
L60153 30154
L60126 30181
L60072 30207
L60018 30207
L59978 30194
L59910 30154
L59870 30113
L59830 30046
L59816 30005
L59816 29952
L59843 29898
L59870 29871
L59924 29844
L59951 29844
" />
<path d="M60180 29561
L60045 29696
L60166 29844
L60166 29817
L60180 29776
L60247 29709
L60287 29696
L60314 29696
L60355 29709
L60422 29776
L60436 29817
L60436 29844
L60422 29884
L60355 29952
L60314 29965
L60287 29965
" />
<path d="M60530 29399
L60718 29588
" />
<path d="M60355 29359
L60490 29628
L60665 29453
" />
<path d="M60557 29184
L60745 28995
L60907 29399
" />
</g>
<g style="fill:#000000; fill-opacity:0.0; 
stroke:#000000; stroke-width:59.0551; stroke-opacity:1; 
stroke-linecap:round; stroke-linejoin:round;">
<path d="M47159 46893
L46971 47024
" />
<path d="M47159 47118
L46765 47118
L46765 46968
L46784 46931
L46803 46912
L46840 46893
L46896 46893
L46934 46912
L46953 46931
L46971 46968
L46971 47118
" />
<path d="M47159 46537
L47159 46724
L46765 46724
" />
<path d="M46971 46331
L47159 46331
" />
<path d="M46765 46462
L46971 46331
L46765 46200
" />
<path d="M46803 46087
L46784 46068
L46765 46031
L46765 45937
L46784 45900
L46803 45881
L46840 45862
L46878 45862
L46934 45881
L47159 46106
L47159 45862
" />
<path d="M49159 47227
L48971 47359
" />
<path d="M49159 47452
L48765 47452
L48765 47302
L48784 47265
L48803 47246
L48840 47227
L48896 47227
L48934 47246
L48953 47265
L48971 47302
L48971 47452
" />
<path d="M49046 47077
L49046 46890
" />
<path d="M49159 47115
L48765 46984
L49159 46853
" />
<path d="M49140 46740
L49159 46684
L49159 46590
L49140 46553
L49121 46534
L49084 46515
L49046 46515
L49009 46534
L48990 46553
L48971 46590
L48953 46665
L48934 46703
L48915 46721
L48878 46740
L48840 46740
L48803 46721
L48784 46703
L48765 46665
L48765 46571
L48784 46515
" />
<path d="M49009 46346
L49009 46046
" />
<path d="M48765 45784
L48765 45746
L48784 45709
L48803 45690
L48840 45671
L48915 45653
L49009 45653
L49084 45671
L49121 45690
L49140 45709
L49159 45746
L49159 45784
L49140 45821
L49121 45840
L49084 45859
L49009 45878
L48915 45878
L48840 45859
L48803 45840
L48784 45821
L48765 45784
" />
<path d="M48765 45296
L48765 45484
L48953 45503
L48934 45484
L48915 45446
L48915 45353
L48934 45315
L48953 45296
L48990 45278
L49084 45278
L49121 45296
L49140 45315
L49159 45353
L49159 45446
L49140 45484
L49121 45503
" />
<path d="M49159 44903
L49159 45128
" />
<path d="M49159 45015
L48765 45015
L48821 45053
L48859 45090
L48878 45128
" />
<path d="M48765 44547
L48765 44734
L48953 44753
L48934 44734
L48915 44697
L48915 44603
L48934 44565
L48953 44547
L48990 44528
L49084 44528
L49121 44547
L49140 44565
L49159 44603
L49159 44697
L49140 44734
L49121 44753
" />
</g>
<g style="fill:#000000; fill-opacity:0.0; 
stroke:#000000; stroke-width:80; stroke-opacity:1; 
stroke-linecap:round; stroke-linejoin:round;">
<path d="M57364 50168
L57324 50181
L57270 50181
L57189 50181
L57148 50195
L57122 50222
" />
<path d="M57202 50276
L57162 50289
L57108 50289
L57041 50249
L56946 50154
L56906 50087
L56906 50033
L56920 49993
L56973 49939
L57014 49925
L57068 49925
L57135 49966
L57229 50060
L57270 50127
L57270 50181
L57256 50222
L57202 50276
" />
<path d="M57135 49777
L57310 49602
L57324 49804
L57364 49764
L57404 49750
L57431 49750
L57472 49764
L57539 49831
L57553 49872
L57553 49898
L57539 49939
L57458 50020
L57418 50033
L57391 50033
" />
<path d="M56691 54491
L56744 54464
L56771 54464
L56812 54478
L56852 54518
L56866 54558
L56866 54585
L56852 54626
L56744 54734
L56462 54451
L56556 54356
L56596 54343
L56623 54343
L56664 54356
L56691 54383
L56704 54424
L56704 54451
L56691 54491
L56596 54585
" />
<path d="M57162 54262
L57162 54289
L57135 54343
L57108 54370
L57054 54397
L57000 54397
L56960 54383
L56893 54343
L56852 54303
L56812 54235
L56798 54195
L56798 54141
L56825 54087
L56852 54060
L56906 54033
L56933 54033
" />
<path d="M57162 53750
L57027 53885
L57148 54033
L57148 54006
L57162 53966
L57229 53898
L57270 53885
L57297 53885
L57337 53898
L57404 53966
L57418 54006
L57418 54033
L57404 54074
L57337 54141
L57297 54154
L57270 54154
" />
<path d="M57512 53589
L57701 53777
" />
<path d="M57337 53548
L57472 53818
L57647 53643
" />
<path d="M57539 53373
L57728 53185
L57889 53589
" />
</g>
<g style="fill:#000000; fill-opacity:0.0; 
stroke:#000000; stroke-width:59.0551; stroke-opacity:1; 
stroke-linecap:round; stroke-linejoin:round;">
<path d="M46659 53393
L46471 53524
" />
<path d="M46659 53618
L46265 53618
L46265 53468
L46284 53431
L46303 53412
L46340 53393
L46396 53393
L46434 53412
L46453 53431
L46471 53468
L46471 53618
" />
<path d="M46659 53037
L46659 53224
L46265 53224
" />
<path d="M46471 52831
L46659 52831
" />
<path d="M46265 52962
L46471 52831
L46265 52700
" />
<path d="M46265 52606
L46265 52362
L46415 52493
L46415 52437
L46434 52400
L46453 52381
L46490 52362
L46584 52362
L46621 52381
L46640 52400
L46659 52437
L46659 52550
L46640 52587
L46621 52606
" />
<path d="M47409 54477
L47221 54609
" />
<path d="M47409 54702
L47015 54702
L47015 54552
L47034 54515
L47053 54496
L47090 54477
L47146 54477
L47184 54496
L47203 54515
L47221 54552
L47221 54702
" />
<path d="M47296 54327
L47296 54140
" />
<path d="M47409 54365
L47015 54234
L47409 54103
" />
<path d="M47390 53990
L47409 53934
L47409 53840
L47390 53803
L47371 53784
L47334 53765
L47296 53765
L47259 53784
L47240 53803
L47221 53840
L47203 53915
L47184 53953
L47165 53971
L47128 53990
L47090 53990
L47053 53971
L47034 53953
L47015 53915
L47015 53821
L47034 53765
" />
<path d="M47259 53596
L47259 53296
" />
<path d="M47015 53034
L47015 52996
L47034 52959
L47053 52940
L47090 52921
L47165 52903
L47259 52903
L47334 52921
L47371 52940
L47390 52959
L47409 52996
L47409 53034
L47390 53071
L47371 53090
L47334 53109
L47259 53128
L47165 53128
L47090 53109
L47053 53090
L47034 53071
L47015 53034
" />
<path d="M47015 52546
L47015 52734
L47203 52753
L47184 52734
L47165 52696
L47165 52603
L47184 52565
L47203 52546
L47240 52528
L47334 52528
L47371 52546
L47390 52565
L47409 52603
L47409 52696
L47390 52734
L47371 52753
" />
<path d="M47409 52153
L47409 52378
" />
<path d="M47409 52265
L47015 52265
L47071 52303
L47109 52340
L47128 52378
" />
<path d="M47015 51797
L47015 51984
L47203 52003
L47184 51984
L47165 51947
L47165 51853
L47184 51815
L47203 51797
L47240 51778
L47334 51778
L47371 51797
L47390 51815
L47409 51853
L47409 51947
L47390 51984
L47371 52003
" />
</g>
<g style="fill:#000000; fill-opacity:0.0; 
stroke:#000000; stroke-width:80; stroke-opacity:1; 
stroke-linecap:round; stroke-linejoin:round;">
<path d="M59222 52333
L58960 52500
" />
<path d="M59222 52619
L58672 52619
L58672 52428
L58698 52380
L58725 52357
L58777 52333
L58855 52333
L58908 52357
L58934 52380
L58960 52428
L58960 52619
" />
<path d="M58672 52166
L58672 51857
L58882 52023
L58882 51952
L58908 51904
L58934 51880
L58986 51857
L59117 51857
L59170 51880
L59196 51904
L59222 51952
L59222 52095
L59196 52142
L59170 52166
" />
<path d="M54890 52314
L54490 52314
L54490 52219
L54509 52162
L54547 52124
L54585 52105
L54661 52086
L54718 52086
L54795 52105
L54833 52124
L54871 52162
L54890 52219
L54890 52314
" />
<path d="M54490 51953
L54490 51705
L54642 51838
L54642 51781
L54661 51743
L54680 51724
L54718 51705
L54814 51705
L54852 51724
L54871 51743
L54890 51781
L54890 51895
L54871 51933
L54852 51953
" />
</g>
<g style="fill:#000000; fill-opacity:0.0; 
stroke:#000000; stroke-width:120; stroke-opacity:1; 
stroke-linecap:round; stroke-linejoin:round;">
<path d="M41992 28692
L41392 28692
L41392 28464
L41421 28407
L41450 28378
L41507 28350
L41592 28350
L41650 28378
L41678 28407
L41707 28464
L41707 28692
" />
<path d="M41392 27807
L41392 28092
L41678 28121
L41650 28092
L41621 28035
L41621 27892
L41650 27835
L41678 27807
L41735 27778
L41878 27778
L41935 27807
L41964 27835
L41992 27892
L41992 28035
L41964 28092
L41935 28121
" />
<path d="M45935 29521
L45964 29549
L45992 29635
L45992 29692
L45964 29778
L45907 29835
L45850 29864
L45735 29892
L45650 29892
L45535 29864
L45478 29835
L45421 29778
L45392 29692
L45392 29635
L45421 29549
L45450 29521
" />
<path d="M45392 29149
L45392 29035
L45421 28978
L45478 28921
L45592 28892
L45792 28892
L45907 28921
L45964 28978
L45992 29035
L45992 29149
L45964 29207
L45907 29264
L45792 29292
L45592 29292
L45478 29264
L45421 29207
L45392 29149
" />
<path d="M45992 28635
L45392 28635
L45992 28292
L45392 28292
" />
<path d="M45992 28007
L45392 28007
L45992 27664
L45392 27664
" />
<path d="M46050 27521
L46050 27064
" />
<path d="M45450 26950
L45421 26921
L45392 26864
L45392 26721
L45421 26664
L45450 26635
L45507 26607
L45564 26607
L45650 26635
L45992 26978
L45992 26607
" />
<path d="M47807 37242
L47807 36642
L48035 36642
L48092 36671
L48121 36700
L48150 36757
L48150 36842
L48121 36900
L48092 36928
L48035 36957
L47807 36957
" />
<path d="M48664 36642
L48550 36642
L48492 36671
L48464 36700
L48407 36785
L48378 36900
L48378 37128
L48407 37185
L48435 37214
L48492 37242
L48607 37242
L48664 37214
L48692 37185
L48721 37128
L48721 36985
L48692 36928
L48664 36900
L48607 36871
L48492 36871
L48435 36900
L48407 36928
L48378 36985
" />
<path d="M46978 41185
L46950 41214
L46864 41242
L46807 41242
L46721 41214
L46664 41157
L46635 41100
L46607 40985
L46607 40900
L46635 40785
L46664 40728
L46721 40671
L46807 40642
L46864 40642
L46950 40671
L46978 40700
" />
<path d="M47350 40642
L47464 40642
L47521 40671
L47578 40728
L47607 40842
L47607 41042
L47578 41157
L47521 41214
L47464 41242
L47350 41242
L47292 41214
L47235 41157
L47207 41042
L47207 40842
L47235 40728
L47292 40671
L47350 40642
" />
<path d="M47864 41242
L47864 40642
L48207 41242
L48207 40642
" />
<path d="M48492 41242
L48492 40642
L48835 41242
L48835 40642
" />
<path d="M48978 41300
L49435 41300
" />
<path d="M49550 40700
L49578 40671
L49635 40642
L49778 40642
L49835 40671
L49864 40700
L49892 40757
L49892 40814
L49864 40900
L49521 41242
L49892 41242
" />
<path d="M57557 37242
L57557 36642
L57785 36642
L57842 36671
L57871 36700
L57900 36757
L57900 36842
L57871 36900
L57842 36928
L57785 36957
L57557 36957
" />
<path d="M58242 36900
L58185 36871
L58157 36842
L58128 36785
L58128 36757
L58157 36700
L58185 36671
L58242 36642
L58357 36642
L58414 36671
L58442 36700
L58471 36757
L58471 36785
L58442 36842
L58414 36871
L58357 36900
L58242 36900
L58185 36928
L58157 36957
L58128 37014
L58128 37128
L58157 37185
L58185 37214
L58242 37242
L58357 37242
L58414 37214
L58442 37185
L58471 37128
L58471 37014
L58442 36957
L58414 36928
L58357 36900
" />
<path d="M56728 41185
L56700 41214
L56614 41242
L56557 41242
L56471 41214
L56414 41157
L56385 41100
L56357 40985
L56357 40900
L56385 40785
L56414 40728
L56471 40671
L56557 40642
L56614 40642
L56700 40671
L56728 40700
" />
<path d="M57100 40642
L57214 40642
L57271 40671
L57328 40728
L57357 40842
L57357 41042
L57328 41157
L57271 41214
L57214 41242
L57100 41242
L57042 41214
L56985 41157
L56957 41042
L56957 40842
L56985 40728
L57042 40671
L57100 40642
" />
<path d="M57614 41242
L57614 40642
L57957 41242
L57957 40642
" />
<path d="M58242 41242
L58242 40642
L58585 41242
L58585 40642
" />
<path d="M58728 41300
L59185 41300
" />
<path d="M59300 40700
L59328 40671
L59385 40642
L59528 40642
L59585 40671
L59614 40700
L59642 40757
L59642 40814
L59614 40900
L59271 41242
L59642 41242
" />
<path d="M64742 46942
L64142 46942
L64142 46714
L64171 46657
L64200 46628
L64257 46600
L64342 46600
L64400 46628
L64428 46657
L64457 46714
L64457 46942
" />
<path d="M64142 46400
L64142 46000
L64742 46257
" />
<path d="M60685 47771
L60714 47799
L60742 47885
L60742 47942
L60714 48028
L60657 48085
L60600 48114
L60485 48142
L60400 48142
L60285 48114
L60228 48085
L60171 48028
L60142 47942
L60142 47885
L60171 47799
L60200 47771
" />
<path d="M60142 47399
L60142 47285
L60171 47228
L60228 47171
L60342 47142
L60542 47142
L60657 47171
L60714 47228
L60742 47285
L60742 47399
L60714 47457
L60657 47514
L60542 47542
L60342 47542
L60228 47514
L60171 47457
L60142 47399
" />
<path d="M60742 46885
L60142 46885
L60742 46542
L60142 46542
" />
<path d="M60742 46257
L60142 46257
L60742 45914
L60142 45914
" />
<path d="M60800 45771
L60800 45314
" />
<path d="M60200 45200
L60171 45171
L60142 45114
L60142 44971
L60171 44914
L60200 44885
L60257 44857
L60314 44857
L60400 44885
L60742 45228
L60742 44857
" />
<path d="M64742 51442
L64142 51442
L64142 51214
L64171 51157
L64200 51128
L64257 51100
L64342 51100
L64400 51128
L64428 51157
L64457 51214
L64457 51442
" />
<path d="M64342 50585
L64742 50585
" />
<path d="M64114 50728
L64542 50871
L64542 50500
" />
<path d="M60685 52271
L60714 52299
L60742 52385
L60742 52442
L60714 52528
L60657 52585
L60600 52614
L60485 52642
L60400 52642
L60285 52614
L60228 52585
L60171 52528
L60142 52442
L60142 52385
L60171 52299
L60200 52271
" />
<path d="M60142 51899
L60142 51785
L60171 51728
L60228 51671
L60342 51642
L60542 51642
L60657 51671
L60714 51728
L60742 51785
L60742 51899
L60714 51957
L60657 52014
L60542 52042
L60342 52042
L60228 52014
L60171 51957
L60142 51899
" />
<path d="M60742 51385
L60142 51385
L60742 51042
L60142 51042
" />
<path d="M60742 50757
L60142 50757
L60742 50414
L60142 50414
" />
<path d="M60800 50271
L60800 49814
" />
<path d="M60200 49700
L60171 49671
L60142 49614
L60142 49471
L60171 49414
L60200 49385
L60257 49357
L60314 49357
L60400 49385
L60742 49728
L60742 49357
" />
<path d="M58557 31742
L58557 31142
" />
<path d="M58900 31742
L58642 31400
" />
<path d="M58900 31142
L58557 31485
" />
<path d="M59471 31742
L59128 31742
" />
<path d="M59300 31742
L59300 31142
L59242 31228
L59185 31285
L59128 31314
" />
<path d="M57728 35685
L57700 35714
L57614 35742
L57557 35742
L57471 35714
L57414 35657
L57385 35600
L57357 35485
L57357 35400
L57385 35285
L57414 35228
L57471 35171
L57557 35142
L57614 35142
L57700 35171
L57728 35200
" />
<path d="M58100 35142
L58214 35142
L58271 35171
L58328 35228
L58357 35342
L58357 35542
L58328 35657
L58271 35714
L58214 35742
L58100 35742
L58042 35714
L57985 35657
L57957 35542
L57957 35342
L57985 35228
L58042 35171
L58100 35142
" />
<path d="M58614 35742
L58614 35142
L58957 35742
L58957 35142
" />
<path d="M59242 35742
L59242 35142
L59585 35742
L59585 35142
" />
<path d="M59728 35800
L60185 35800
" />
<path d="M60271 35142
L60642 35142
L60442 35371
L60528 35371
L60585 35400
L60614 35428
L60642 35485
L60642 35628
L60614 35685
L60585 35714
L60528 35742
L60357 35742
L60300 35714
L60271 35685
" />
</g>
<g style="fill:#000000; fill-opacity:0.0; 
stroke:#000000; stroke-width:80; stroke-opacity:1; 
stroke-linecap:round; stroke-linejoin:round;">
<path d="M25066 42372
L24900 42110
" />
<path d="M24780 42372
L24780 41822
L24971 41822
L25019 41848
L25042 41875
L25066 41927
L25066 42005
L25042 42058
L25019 42084
L24971 42110
L24780 42110
" />
<path d="M25495 42005
L25495 42372
" />
<path d="M25376 41796
L25257 42189
L25566 42189
" />
<path d="M22766 41472
L22480 41472
" />
<path d="M22623 41472
L22623 40922
L22576 41001
L22528 41053
L22480 41079
" />
<path d="M23219 40922
L22980 40922
L22957 41184
L22980 41158
L23028 41132
L23147 41132
L23195 41158
L23219 41184
L23242 41236
L23242 41367
L23219 41420
L23195 41446
L23147 41472
L23028 41472
L22980 41446
L22957 41420
" />
<path d="M23552 40922
L23600 40922
L23647 40948
L23671 40975
L23695 41027
L23719 41132
L23719 41263
L23695 41367
L23671 41420
L23647 41446
L23600 41472
L23552 41472
L23504 41446
L23480 41420
L23457 41367
L23433 41263
L23433 41132
L23457 41027
L23480 40975
L23504 40948
L23552 40922
" />
<path d="M24219 41472
L24052 41210
" />
<path d="M23933 41472
L23933 40922
L24123 40922
L24171 40948
L24195 40975
L24219 41027
L24219 41105
L24195 41158
L24171 41184
L24123 41210
L23933 41210
" />
<path d="M25066 37872
L24900 37610
" />
<path d="M24780 37872
L24780 37322
L24971 37322
L25019 37348
L25042 37375
L25066 37427
L25066 37505
L25042 37558
L25019 37584
L24971 37610
L24780 37610
" />
<path d="M25519 37322
L25280 37322
L25257 37584
L25280 37558
L25328 37532
L25447 37532
L25495 37558
L25519 37584
L25542 37636
L25542 37767
L25519 37820
L25495 37846
L25447 37872
L25328 37872
L25280 37846
L25257 37820
" />
<path d="M22416 36972
L22130 36972
" />
<path d="M22273 36972
L22273 36422
L22226 36501
L22178 36553
L22130 36579
" />
<path d="M22869 36422
L22630 36422
L22607 36684
L22630 36658
L22678 36632
L22797 36632
L22845 36658
L22869 36684
L22892 36736
L22892 36867
L22869 36920
L22845 36946
L22797 36972
L22678 36972
L22630 36946
L22607 36920
" />
<path d="M23202 36422
L23250 36422
L23297 36448
L23321 36475
L23345 36527
L23369 36632
L23369 36763
L23345 36867
L23321 36920
L23297 36946
L23250 36972
L23202 36972
L23154 36946
L23130 36920
L23107 36867
L23083 36763
L23083 36632
L23107 36527
L23130 36475
L23154 36448
L23202 36422
" />
<path d="M23869 36972
L23702 36710
" />
<path d="M23583 36972
L23583 36422
L23773 36422
L23821 36448
L23845 36475
L23869 36527
L23869 36605
L23845 36658
L23821 36684
L23773 36710
L23583 36710
" />
<path d="M25066 33372
L24900 33110
" />
<path d="M24780 33372
L24780 32822
L24971 32822
L25019 32848
L25042 32875
L25066 32927
L25066 33005
L25042 33058
L25019 33084
L24971 33110
L24780 33110
" />
<path d="M25495 32822
L25400 32822
L25352 32848
L25328 32875
L25280 32953
L25257 33058
L25257 33267
L25280 33320
L25304 33346
L25352 33372
L25447 33372
L25495 33346
L25519 33320
L25542 33267
L25542 33136
L25519 33084
L25495 33058
L25447 33032
L25352 33032
L25304 33058
L25280 33084
L25257 33136
" />
<path d="M22766 32472
L22480 32472
" />
<path d="M22623 32472
L22623 31922
L22576 32001
L22528 32053
L22480 32079
" />
<path d="M23219 31922
L22980 31922
L22957 32184
L22980 32158
L23028 32132
L23147 32132
L23195 32158
L23219 32184
L23242 32236
L23242 32367
L23219 32420
L23195 32446
L23147 32472
L23028 32472
L22980 32446
L22957 32420
" />
<path d="M23552 31922
L23600 31922
L23647 31948
L23671 31975
L23695 32027
L23719 32132
L23719 32263
L23695 32367
L23671 32420
L23647 32446
L23600 32472
L23552 32472
L23504 32446
L23480 32420
L23457 32367
L23433 32263
L23433 32132
L23457 32027
L23480 31975
L23504 31948
L23552 31922
" />
<path d="M24219 32472
L24052 32210
" />
<path d="M23933 32472
L23933 31922
L24123 31922
L24171 31948
L24195 31975
L24219 32027
L24219 32105
L24195 32158
L24171 32184
L24123 32210
L23933 32210
" />
</g>
<g style="fill:#000000; fill-opacity:0.0; 
stroke:#000000; stroke-width:120; stroke-opacity:1; 
stroke-linecap:round; stroke-linejoin:round;">
<path d="M18992 37835
L18707 38035
" />
<path d="M18992 38178
L18392 38178
L18392 37950
L18421 37892
L18450 37864
L18507 37835
L18592 37835
L18650 37864
L18678 37892
L18707 37950
L18707 38178
" />
<path d="M19050 37721
L19050 37264
" />
<path d="M18821 37150
L18821 36864
" />
<path d="M18992 37207
L18392 37007
L18992 36807
" />
<path d="M18992 36292
L18992 36635
" />
<path d="M18992 36464
L18392 36464
L18478 36521
L18535 36578
L18564 36635
" />
<path d="M14935 38521
L14964 38549
L14992 38635
L14992 38692
L14964 38778
L14907 38835
L14850 38864
L14735 38892
L14650 38892
L14535 38864
L14478 38835
L14421 38778
L14392 38692
L14392 38635
L14421 38549
L14450 38521
" />
<path d="M14392 38149
L14392 38035
L14421 37978
L14478 37921
L14592 37892
L14792 37892
L14907 37921
L14964 37978
L14992 38035
L14992 38149
L14964 38207
L14907 38264
L14792 38292
L14592 38292
L14478 38264
L14421 38207
L14392 38149
" />
<path d="M14992 37635
L14392 37635
L14992 37292
L14392 37292
" />
<path d="M14992 37007
L14392 37007
L14992 36664
L14392 36664
" />
<path d="M15050 36521
L15050 36064
" />
<path d="M14450 35950
L14421 35921
L14392 35864
L14392 35721
L14421 35664
L14450 35635
L14507 35607
L14564 35607
L14650 35635
L14992 35978
L14992 35607
" />
<path d="M32992 37878
L32707 38078
" />
<path d="M32992 38221
L32392 38221
L32392 37992
L32421 37935
L32450 37907
L32507 37878
L32592 37878
L32650 37907
L32678 37935
L32707 37992
L32707 38221
" />
<path d="M33050 37764
L33050 37307
" />
<path d="M32678 36964
L32707 36878
L32735 36850
L32792 36821
L32878 36821
L32935 36850
L32964 36878
L32992 36935
L32992 37164
L32392 37164
L32392 36964
L32421 36907
L32450 36878
L32507 36850
L32564 36850
L32621 36878
L32650 36907
L32678 36964
L32678 37164
" />
<path d="M32992 36250
L32992 36592
" />
<path d="M32992 36421
L32392 36421
L32478 36478
L32535 36535
L32564 36592
" />
<path d="M36935 38521
L36964 38549
L36992 38635
L36992 38692
L36964 38778
L36907 38835
L36850 38864
L36735 38892
L36650 38892
L36535 38864
L36478 38835
L36421 38778
L36392 38692
L36392 38635
L36421 38549
L36450 38521
" />
<path d="M36392 38149
L36392 38035
L36421 37978
L36478 37921
L36592 37892
L36792 37892
L36907 37921
L36964 37978
L36992 38035
L36992 38149
L36964 38207
L36907 38264
L36792 38292
L36592 38292
L36478 38264
L36421 38207
L36392 38149
" />
<path d="M36992 37635
L36392 37635
L36992 37292
L36392 37292
" />
<path d="M36992 37007
L36392 37007
L36992 36664
L36392 36664
" />
<path d="M37050 36521
L37050 36064
" />
<path d="M36450 35950
L36421 35921
L36392 35864
L36392 35721
L36421 35664
L36450 35635
L36507 35607
L36564 35607
L36650 35635
L36992 35978
L36992 35607
" />
</g> 
</svg>
