<?xml version="1.0" standalone="no"?>
 <!DOCTYPE svg PUBLIC "-//W3C//DTD SVG 1.1//EN" 
 "http://www.w3.org/Graphics/SVG/1.1/DTD/svg11.dtd"> 
<svg xmlns="http://www.w3.org/2000/svg" version="1.1" 
    width="29.7002cm" height="21.0007cm" viewBox="0 0 116930 82680 ">
<title>SVG Picture created as panel_buttons_bt-F_Mask.svg date 2015/01/07 20:20:22 </title>
  <desc>Picture generated by PCBNEW </desc>
<g style="fill:#000000; fill-opacity:1;stroke:#000000; stroke-opacity:1;
stroke-linecap:round; stroke-linejoin:round; "
 transform="translate(0 0) scale(1 1)">
</g>
<g style="fill:#000000; fill-opacity:0.0; 
stroke:#000000; stroke-width:39.3701; stroke-opacity:1; 
stroke-linecap:round; stroke-linejoin:round;">
<circle cx="61500" cy="46680" r="500" /> 
<circle cx="35750" cy="43680" r="500" /> 
<circle cx="81750" cy="36180" r="500" /> 
<circle cx="81750" cy="48930" r="500" /> 
</g>
<g style="fill:#000000; fill-opacity:1.0; 
stroke:#000000; stroke-width:59.0551; stroke-opacity:1; 
stroke-linecap:round; stroke-linejoin:round;">
<polyline style="fill-rule:evenodd;"
points="35918,40466
35917,40381
35897,40293
35867,40225
35815,40151
35762,40101
35685,40052
35617,40026
35527,40010
35454,40011
35365,40031
35298,40060
35223,40112
35173,40164
35123,40242
35097,40309
35080,40399
35081,40471
35100,40562
35128,40628
35181,40704
35232,40754
35309,40805
35376,40832
35467,40849
35538,40848
35629,40830
35695,40802
35772,40750
35822,40700
35874,40622
35901,40557
35918,40466
" /> 
<polyline style="fill-rule:evenodd;"
points="35918,36466
35917,36381
35897,36293
35867,36225
35815,36151
35762,36101
35685,36052
35617,36026
35527,36010
35454,36011
35365,36031
35298,36060
35223,36112
35173,36164
35123,36242
35097,36309
35080,36399
35081,36471
35100,36562
35128,36628
35181,36704
35232,36754
35309,36805
35376,36832
35467,36849
35538,36848
35629,36830
35695,36802
35772,36750
35822,36700
35874,36622
35901,36557
35918,36466
" /> 
<polyline style="fill-rule:evenodd;"
points="37394,36035
36605,36035
36605,36824
37394,36824
37394,36035
" /> 
<polyline style="fill-rule:evenodd;"
points="37618,41177
37609,41095
37585,41018
37546,40945
37494,40883
37431,40831
37359,40793
37281,40769
37188,40760
36811,40760
36804,40760
36794,40761
36794,40761
36713,40771
36713,40771
36712,40771
36635,40795
36563,40835
36501,40887
36449,40951
36412,41022
36389,41102
36381,41182
36390,41264
36414,41341
36453,41414
36505,41476
36568,41528
36640,41566
36718,41590
36811,41599
37188,41599
37195,41599
37205,41598
37205,41598
37286,41588
37286,41588
37287,41588
37364,41564
37436,41524
37498,41472
37550,41408
37587,41337
37610,41257
37618,41177
" /> 
<polyline style="fill-rule:evenodd;"
points="37618,40177
37609,40095
37585,40018
37546,39945
37494,39883
37431,39831
37359,39793
37281,39769
37188,39760
36811,39760
36804,39760
36794,39761
36794,39761
36713,39771
36713,39771
36712,39771
36635,39795
36563,39835
36501,39887
36449,39951
36412,40022
36389,40102
36381,40182
36390,40264
36414,40341
36453,40414
36505,40476
36568,40528
36640,40566
36718,40590
36811,40599
37188,40599
37195,40599
37205,40598
37205,40598
37286,40588
37286,40588
37287,40588
37364,40564
37436,40524
37498,40472
37550,40408
37587,40337
37610,40257
37618,40177
" /> 
<polyline style="fill-rule:evenodd;"
points="37618,39177
37609,39095
37585,39018
37546,38945
37494,38883
37431,38831
37359,38793
37281,38769
37188,38760
36811,38760
36804,38760
36794,38761
36794,38761
36713,38771
36713,38771
36712,38771
36635,38795
36563,38835
36501,38887
36449,38951
36412,39022
36389,39102
36381,39182
36390,39264
36414,39341
36453,39414
36505,39476
36568,39528
36640,39566
36718,39590
36811,39599
37188,39599
37195,39599
37205,39598
37205,39598
37286,39588
37286,39588
37287,39588
37364,39564
37436,39524
37498,39472
37550,39408
37587,39337
37610,39257
37618,39177
" /> 
<polyline style="fill-rule:evenodd;"
points="37618,38177
37609,38095
37585,38018
37546,37945
37494,37883
37431,37831
37359,37793
37281,37769
37188,37760
36811,37760
36804,37760
36794,37761
36794,37761
36713,37771
36713,37771
36712,37771
36635,37795
36563,37835
36501,37887
36449,37951
36412,38022
36389,38102
36381,38182
36390,38264
36414,38341
36453,38414
36505,38476
36568,38528
36640,38566
36718,38590
36811,38599
37188,38599
37195,38599
37205,38598
37205,38598
37286,38588
37286,38588
37287,38588
37364,38564
37436,38524
37498,38472
37550,38408
37587,38337
37610,38257
37618,38177
" /> 
<polyline style="fill-rule:evenodd;"
points="38393,36464
38392,36384
38373,36301
38345,36238
38296,36168
38246,36121
38174,36074
38110,36050
38025,36035
37957,36036
37873,36055
37811,36082
37740,36131
37693,36180
37646,36253
37621,36316
37605,36401
37606,36469
37624,36554
37650,36616
37700,36688
37748,36734
37821,36782
37883,36807
37969,36824
38035,36823
38122,36806
38183,36780
38256,36731
38302,36684
38351,36610
38377,36549
38393,36464
" /> 
<polyline style="fill-rule:evenodd;"
points="38855,41031
38855,41025
38854,41015
38854,41015
38846,40946
38846,40946
38846,40945
38825,40880
38791,40819
38748,40767
38693,40722
38633,40691
38565,40671
38497,40665
38428,40672
38362,40692
38301,40726
38248,40769
38204,40823
38172,40884
38152,40950
38144,41031
38144,41328
38144,41334
38145,41344
38145,41344
38153,41413
38153,41413
38153,41414
38174,41479
38208,41540
38251,41592
38306,41637
38366,41668
38434,41688
38502,41694
38571,41687
38637,41667
38698,41633
38751,41590
38795,41536
38827,41475
38847,41409
38855,41328
38855,41031
" /> 
<polyline style="fill-rule:evenodd;"
points="38855,38031
38855,38025
38854,38015
38854,38015
38846,37946
38846,37946
38846,37945
38825,37880
38791,37819
38748,37767
38693,37722
38633,37691
38565,37671
38497,37665
38428,37672
38362,37692
38301,37726
38248,37769
38204,37823
38172,37884
38152,37950
38144,38031
38144,38328
38144,38334
38145,38344
38145,38344
38153,38413
38153,38413
38153,38414
38174,38479
38208,38540
38251,38592
38306,38637
38366,38668
38434,38688
38502,38694
38571,38687
38637,38667
38698,38633
38751,38590
38795,38536
38827,38475
38847,38409
38855,38328
38855,38031
" /> 
<polyline style="fill-rule:evenodd;"
points="39855,41031
39855,41025
39854,41015
39854,41015
39846,40946
39846,40946
39846,40945
39825,40880
39791,40819
39748,40767
39693,40722
39633,40691
39565,40671
39497,40665
39428,40672
39362,40692
39301,40726
39248,40769
39204,40823
39172,40884
39152,40950
39144,41031
39144,41328
39144,41334
39145,41344
39145,41344
39153,41413
39153,41413
39153,41414
39174,41479
39208,41540
39251,41592
39306,41637
39366,41668
39434,41688
39502,41694
39571,41687
39637,41667
39698,41633
39751,41590
39795,41536
39827,41475
39847,41409
39855,41328
39855,41031
" /> 
<polyline style="fill-rule:evenodd;"
points="39855,38031
39855,38025
39854,38015
39854,38015
39846,37946
39846,37946
39846,37945
39825,37880
39791,37819
39748,37767
39693,37722
39633,37691
39565,37671
39497,37665
39428,37672
39362,37692
39301,37726
39248,37769
39204,37823
39172,37884
39152,37950
39144,38031
39144,38328
39144,38334
39145,38344
39145,38344
39153,38413
39153,38413
39153,38414
39174,38479
39208,38540
39251,38592
39306,38637
39366,38668
39434,38688
39502,38694
39571,38687
39637,38667
39698,38633
39751,38590
39795,38536
39827,38475
39847,38409
39855,38328
39855,38031
" /> 
<polyline style="fill-rule:evenodd;"
points="40855,41031
40855,41025
40854,41015
40854,41015
40846,40946
40846,40946
40846,40945
40825,40880
40791,40819
40748,40767
40693,40722
40633,40691
40565,40671
40497,40665
40428,40672
40362,40692
40301,40726
40248,40769
40204,40823
40172,40884
40152,40950
40144,41031
40144,41328
40144,41334
40145,41344
40145,41344
40153,41413
40153,41413
40153,41414
40174,41479
40208,41540
40251,41592
40306,41637
40366,41668
40434,41688
40502,41694
40571,41687
40637,41667
40698,41633
40751,41590
40795,41536
40827,41475
40847,41409
40855,41328
40855,41031
" /> 
<polyline style="fill-rule:evenodd;"
points="40855,38031
40855,38025
40854,38015
40854,38015
40846,37946
40846,37946
40846,37945
40825,37880
40791,37819
40748,37767
40693,37722
40633,37691
40565,37671
40497,37665
40428,37672
40362,37692
40301,37726
40248,37769
40204,37823
40172,37884
40152,37950
40144,38031
40144,38328
40144,38334
40145,38344
40145,38344
40153,38413
40153,38413
40153,38414
40174,38479
40208,38540
40251,38592
40306,38637
40366,38668
40434,38688
40502,38694
40571,38687
40637,38667
40698,38633
40751,38590
40795,38536
40827,38475
40847,38409
40855,38328
40855,38031
" /> 
<polyline style="fill-rule:evenodd;"
points="41393,36714
41392,36634
41373,36551
41345,36488
41296,36418
41246,36371
41174,36324
41110,36300
41025,36285
40957,36286
40873,36305
40811,36332
40740,36381
40693,36430
40646,36503
40621,36566
40605,36651
40606,36719
40624,36804
40650,36866
40700,36938
40748,36984
40821,37032
40883,37057
40969,37074
41035,37073
41122,37056
41183,37030
41256,36981
41302,36934
41351,36860
41377,36799
41393,36714
" /> 
<polyline style="fill-rule:evenodd;"
points="41855,41031
41855,41025
41854,41015
41854,41015
41846,40946
41846,40946
41846,40945
41825,40880
41791,40819
41748,40767
41693,40722
41633,40691
41565,40671
41497,40665
41428,40672
41362,40692
41301,40726
41248,40769
41204,40823
41172,40884
41152,40950
41144,41031
41144,41328
41144,41334
41145,41344
41145,41344
41153,41413
41153,41413
41153,41414
41174,41479
41208,41540
41251,41592
41306,41637
41366,41668
41434,41688
41502,41694
41571,41687
41637,41667
41698,41633
41751,41590
41795,41536
41827,41475
41847,41409
41855,41328
41855,41031
" /> 
<polyline style="fill-rule:evenodd;"
points="41855,38031
41855,38025
41854,38015
41854,38015
41846,37946
41846,37946
41846,37945
41825,37880
41791,37819
41748,37767
41693,37722
41633,37691
41565,37671
41497,37665
41428,37672
41362,37692
41301,37726
41248,37769
41204,37823
41172,37884
41152,37950
41144,38031
41144,38328
41144,38334
41145,38344
41145,38344
41153,38413
41153,38413
41153,38414
41174,38479
41208,38540
41251,38592
41306,38637
41366,38668
41434,38688
41502,38694
41571,38687
41637,38667
41698,38633
41751,38590
41795,38536
41827,38475
41847,38409
41855,38328
41855,38031
" /> 
<polyline style="fill-rule:evenodd;"
points="42855,41031
42855,41025
42854,41015
42854,41015
42846,40946
42846,40946
42846,40945
42825,40880
42791,40819
42748,40767
42693,40722
42633,40691
42565,40671
42497,40665
42428,40672
42362,40692
42301,40726
42248,40769
42204,40823
42172,40884
42152,40950
42144,41031
42144,41328
42144,41334
42145,41344
42145,41344
42153,41413
42153,41413
42153,41414
42174,41479
42208,41540
42251,41592
42306,41637
42366,41668
42434,41688
42502,41694
42571,41687
42637,41667
42698,41633
42751,41590
42795,41536
42827,41475
42847,41409
42855,41328
42855,41031
" /> 
<polyline style="fill-rule:evenodd;"
points="42855,38031
42855,38025
42854,38015
42854,38015
42846,37946
42846,37946
42846,37945
42825,37880
42791,37819
42748,37767
42693,37722
42633,37691
42565,37671
42497,37665
42428,37672
42362,37692
42301,37726
42248,37769
42204,37823
42172,37884
42152,37950
42144,38031
42144,38328
42144,38334
42145,38344
42145,38344
42153,38413
42153,38413
42153,38414
42174,38479
42208,38540
42251,38592
42306,38637
42366,38668
42434,38688
42502,38694
42571,38687
42637,38667
42698,38633
42751,38590
42795,38536
42827,38475
42847,38409
42855,38328
42855,38031
" /> 
<polyline style="fill-rule:evenodd;"
points="42919,42491
42919,42484
42918,42474
42918,42474
42908,42393
42908,42393
42908,42392
42884,42315
42844,42243
42792,42181
42728,42129
42657,42092
42577,42069
42497,42061
42415,42070
42338,42094
42265,42133
42203,42185
42151,42248
42113,42320
42089,42398
42080,42491
42080,42868
42080,42875
42081,42885
42081,42885
42091,42966
42091,42966
42091,42967
42115,43044
42155,43116
42207,43178
42271,43230
42342,43267
42422,43290
42502,43298
42584,43289
42661,43265
42734,43226
42796,43174
42848,43111
42886,43039
42910,42961
42919,42868
42919,42491
" /> 
<polyline style="fill-rule:evenodd;"
points="43393,36714
43392,36634
43373,36551
43345,36488
43296,36418
43246,36371
43174,36324
43110,36300
43025,36285
42957,36286
42873,36305
42811,36332
42740,36381
42693,36430
42646,36503
42621,36566
42605,36651
42606,36719
42624,36804
42650,36866
42700,36938
42748,36984
42821,37032
42883,37057
42969,37074
43035,37073
43122,37056
43183,37030
43256,36981
43302,36934
43351,36860
43377,36799
43393,36714
" /> 
<polyline style="fill-rule:evenodd;"
points="43855,41031
43855,41025
43854,41015
43854,41015
43846,40946
43846,40946
43846,40945
43825,40880
43791,40819
43748,40767
43693,40722
43633,40691
43565,40671
43497,40665
43428,40672
43362,40692
43301,40726
43248,40769
43204,40823
43172,40884
43152,40950
43144,41031
43144,41328
43144,41334
43145,41344
43145,41344
43153,41413
43153,41413
43153,41414
43174,41479
43208,41540
43251,41592
43306,41637
43366,41668
43434,41688
43502,41694
43571,41687
43637,41667
43698,41633
43751,41590
43795,41536
43827,41475
43847,41409
43855,41328
43855,41031
" /> 
<polyline style="fill-rule:evenodd;"
points="43855,38031
43855,38025
43854,38015
43854,38015
43846,37946
43846,37946
43846,37945
43825,37880
43791,37819
43748,37767
43693,37722
43633,37691
43565,37671
43497,37665
43428,37672
43362,37692
43301,37726
43248,37769
43204,37823
43172,37884
43152,37950
43144,38031
43144,38328
43144,38334
43145,38344
43145,38344
43153,38413
43153,38413
43153,38414
43174,38479
43208,38540
43251,38592
43306,38637
43366,38668
43434,38688
43502,38694
43571,38687
43637,38667
43698,38633
43751,38590
43795,38536
43827,38475
43847,38409
43855,38328
43855,38031
" /> 
<polyline style="fill-rule:evenodd;"
points="43919,42491
43919,42484
43918,42474
43918,42474
43908,42393
43908,42393
43908,42392
43884,42315
43844,42243
43792,42181
43728,42129
43657,42092
43577,42069
43497,42061
43415,42070
43338,42094
43265,42133
43203,42185
43151,42248
43113,42320
43089,42398
43080,42491
43080,42868
43080,42875
43081,42885
43081,42885
43091,42966
43091,42966
43091,42967
43115,43044
43155,43116
43207,43178
43271,43230
43342,43267
43422,43290
43502,43298
43584,43289
43661,43265
43734,43226
43796,43174
43848,43111
43886,43039
43910,42961
43919,42868
43919,42491
" /> 
<polyline style="fill-rule:evenodd;"
points="44855,41031
44855,41025
44854,41015
44854,41015
44846,40946
44846,40946
44846,40945
44825,40880
44791,40819
44748,40767
44693,40722
44633,40691
44565,40671
44497,40665
44428,40672
44362,40692
44301,40726
44248,40769
44204,40823
44172,40884
44152,40950
44144,41031
44144,41328
44144,41334
44145,41344
44145,41344
44153,41413
44153,41413
44153,41414
44174,41479
44208,41540
44251,41592
44306,41637
44366,41668
44434,41688
44502,41694
44571,41687
44637,41667
44698,41633
44751,41590
44795,41536
44827,41475
44847,41409
44855,41328
44855,41031
" /> 
<polyline style="fill-rule:evenodd;"
points="44855,38031
44855,38025
44854,38015
44854,38015
44846,37946
44846,37946
44846,37945
44825,37880
44791,37819
44748,37767
44693,37722
44633,37691
44565,37671
44497,37665
44428,37672
44362,37692
44301,37726
44248,37769
44204,37823
44172,37884
44152,37950
44144,38031
44144,38328
44144,38334
44145,38344
44145,38344
44153,38413
44153,38413
44153,38414
44174,38479
44208,38540
44251,38592
44306,38637
44366,38668
44434,38688
44502,38694
44571,38687
44637,38667
44698,38633
44751,38590
44795,38536
44827,38475
44847,38409
44855,38328
44855,38031
" /> 
<polyline style="fill-rule:evenodd;"
points="44919,42491
44919,42484
44918,42474
44918,42474
44908,42393
44908,42393
44908,42392
44884,42315
44844,42243
44792,42181
44728,42129
44657,42092
44577,42069
44497,42061
44415,42070
44338,42094
44265,42133
44203,42185
44151,42248
44113,42320
44089,42398
44080,42491
44080,42868
44080,42875
44081,42885
44081,42885
44091,42966
44091,42966
44091,42967
44115,43044
44155,43116
44207,43178
44271,43230
44342,43267
44422,43290
44502,43298
44584,43289
44661,43265
44734,43226
44796,43174
44848,43111
44886,43039
44910,42961
44919,42868
44919,42491
" /> 
<polyline style="fill-rule:evenodd;"
points="44919,36491
44919,36484
44918,36474
44918,36474
44908,36393
44908,36393
44908,36392
44884,36315
44844,36243
44792,36181
44728,36129
44657,36092
44577,36069
44497,36061
44415,36070
44338,36094
44265,36133
44203,36185
44151,36248
44113,36320
44089,36398
44080,36491
44080,36868
44080,36875
44081,36885
44081,36885
44091,36966
44091,36966
44091,36967
44115,37044
44155,37116
44207,37178
44271,37230
44342,37267
44422,37290
44502,37298
44584,37289
44661,37265
44734,37226
44796,37174
44848,37111
44886,37039
44910,36961
44919,36868
44919,36491
" /> 
<polyline style="fill-rule:evenodd;"
points="45855,41031
45855,41025
45854,41015
45854,41015
45846,40946
45846,40946
45846,40945
45825,40880
45791,40819
45748,40767
45693,40722
45633,40691
45565,40671
45497,40665
45428,40672
45362,40692
45301,40726
45248,40769
45204,40823
45172,40884
45152,40950
45144,41031
45144,41328
45144,41334
45145,41344
45145,41344
45153,41413
45153,41413
45153,41414
45174,41479
45208,41540
45251,41592
45306,41637
45366,41668
45434,41688
45502,41694
45571,41687
45637,41667
45698,41633
45751,41590
45795,41536
45827,41475
45847,41409
45855,41328
45855,41031
" /> 
<polyline style="fill-rule:evenodd;"
points="45855,38031
45855,38025
45854,38015
45854,38015
45846,37946
45846,37946
45846,37945
45825,37880
45791,37819
45748,37767
45693,37722
45633,37691
45565,37671
45497,37665
45428,37672
45362,37692
45301,37726
45248,37769
45204,37823
45172,37884
45152,37950
45144,38031
45144,38328
45144,38334
45145,38344
45145,38344
45153,38413
45153,38413
45153,38414
45174,38479
45208,38540
45251,38592
45306,38637
45366,38668
45434,38688
45502,38694
45571,38687
45637,38667
45698,38633
45751,38590
45795,38536
45827,38475
45847,38409
45855,38328
45855,38031
" /> 
<polyline style="fill-rule:evenodd;"
points="45919,42491
45919,42484
45918,42474
45918,42474
45908,42393
45908,42393
45908,42392
45884,42315
45844,42243
45792,42181
45728,42129
45657,42092
45577,42069
45497,42061
45415,42070
45338,42094
45265,42133
45203,42185
45151,42248
45113,42320
45089,42398
45080,42491
45080,42868
45080,42875
45081,42885
45081,42885
45091,42966
45091,42966
45091,42967
45115,43044
45155,43116
45207,43178
45271,43230
45342,43267
45422,43290
45502,43298
45584,43289
45661,43265
45734,43226
45796,43174
45848,43111
45886,43039
45910,42961
45919,42868
45919,42491
" /> 
<polyline style="fill-rule:evenodd;"
points="45919,36491
45919,36484
45918,36474
45918,36474
45908,36393
45908,36393
45908,36392
45884,36315
45844,36243
45792,36181
45728,36129
45657,36092
45577,36069
45497,36061
45415,36070
45338,36094
45265,36133
45203,36185
45151,36248
45113,36320
45089,36398
45080,36491
45080,36868
45080,36875
45081,36885
45081,36885
45091,36966
45091,36966
45091,36967
45115,37044
45155,37116
45207,37178
45271,37230
45342,37267
45422,37290
45502,37298
45584,37289
45661,37265
45734,37226
45796,37174
45848,37111
45886,37039
45910,36961
45919,36868
45919,36491
" /> 
<polyline style="fill-rule:evenodd;"
points="46221,47677
46212,47587
46186,47502
46143,47423
46086,47355
46017,47298
45938,47256
45852,47230
45752,47220
45247,47220
45240,47220
45230,47221
45230,47221
45141,47231
45141,47231
45140,47232
45056,47258
44976,47302
44909,47359
44852,47429
44811,47507
44786,47594
44778,47682
44787,47772
44813,47857
44856,47936
44913,48004
44982,48061
45061,48103
45147,48129
45247,48139
45752,48139
45759,48139
45769,48138
45769,48138
45858,48128
45858,48128
45859,48127
45943,48101
46023,48057
46090,48000
46147,47930
46188,47852
46213,47765
46221,47677
" /> 
<polyline style="fill-rule:evenodd;"
points="46221,45677
46212,45587
46186,45502
46143,45423
46086,45355
46017,45298
45938,45256
45852,45230
45752,45220
45247,45220
45240,45220
45230,45221
45230,45221
45141,45231
45141,45231
45140,45232
45056,45258
44976,45302
44909,45359
44852,45429
44811,45507
44786,45594
44778,45682
44787,45772
44813,45857
44856,45936
44913,46004
44982,46061
45061,46103
45147,46129
45247,46139
45752,46139
45759,46139
45769,46138
45769,46138
45858,46128
45858,46128
45859,46127
45943,46101
46023,46057
46090,46000
46147,45930
46188,45852
46213,45765
46221,45677
" /> 
<polyline style="fill-rule:evenodd;"
points="46855,41031
46855,41025
46854,41015
46854,41015
46846,40946
46846,40946
46846,40945
46825,40880
46791,40819
46748,40767
46693,40722
46633,40691
46565,40671
46497,40665
46428,40672
46362,40692
46301,40726
46248,40769
46204,40823
46172,40884
46152,40950
46144,41031
46144,41328
46144,41334
46145,41344
46145,41344
46153,41413
46153,41413
46153,41414
46174,41479
46208,41540
46251,41592
46306,41637
46366,41668
46434,41688
46502,41694
46571,41687
46637,41667
46698,41633
46751,41590
46795,41536
46827,41475
46847,41409
46855,41328
46855,41031
" /> 
<polyline style="fill-rule:evenodd;"
points="46855,38031
46855,38025
46854,38015
46854,38015
46846,37946
46846,37946
46846,37945
46825,37880
46791,37819
46748,37767
46693,37722
46633,37691
46565,37671
46497,37665
46428,37672
46362,37692
46301,37726
46248,37769
46204,37823
46172,37884
46152,37950
46144,38031
46144,38328
46144,38334
46145,38344
46145,38344
46153,38413
46153,38413
46153,38414
46174,38479
46208,38540
46251,38592
46306,38637
46366,38668
46434,38688
46502,38694
46571,38687
46637,38667
46698,38633
46751,38590
46795,38536
46827,38475
46847,38409
46855,38328
46855,38031
" /> 
<polyline style="fill-rule:evenodd;"
points="46919,42491
46919,42484
46918,42474
46918,42474
46908,42393
46908,42393
46908,42392
46884,42315
46844,42243
46792,42181
46728,42129
46657,42092
46577,42069
46497,42061
46415,42070
46338,42094
46265,42133
46203,42185
46151,42248
46113,42320
46089,42398
46080,42491
46080,42868
46080,42875
46081,42885
46081,42885
46091,42966
46091,42966
46091,42967
46115,43044
46155,43116
46207,43178
46271,43230
46342,43267
46422,43290
46502,43298
46584,43289
46661,43265
46734,43226
46796,43174
46848,43111
46886,43039
46910,42961
46919,42868
46919,42491
" /> 
<polyline style="fill-rule:evenodd;"
points="47668,36716
47667,36631
47647,36543
47617,36475
47565,36401
47512,36351
47435,36302
47367,36276
47277,36260
47204,36261
47115,36281
47048,36310
46973,36362
46923,36414
46873,36492
46847,36559
46830,36649
46831,36721
46850,36812
46878,36878
46931,36954
46982,37004
47059,37055
47126,37082
47217,37099
47288,37098
47379,37080
47445,37052
47522,37000
47572,36950
47624,36872
47651,36807
47668,36716
" /> 
<polyline style="fill-rule:evenodd;"
points="47855,41031
47855,41025
47854,41015
47854,41015
47846,40946
47846,40946
47846,40945
47825,40880
47791,40819
47748,40767
47693,40722
47633,40691
47565,40671
47497,40665
47428,40672
47362,40692
47301,40726
47248,40769
47204,40823
47172,40884
47152,40950
47144,41031
47144,41328
47144,41334
47145,41344
47145,41344
47153,41413
47153,41413
47153,41414
47174,41479
47208,41540
47251,41592
47306,41637
47366,41668
47434,41688
47502,41694
47571,41687
47637,41667
47698,41633
47751,41590
47795,41536
47827,41475
47847,41409
47855,41328
47855,41031
" /> 
<polyline style="fill-rule:evenodd;"
points="47855,38031
47855,38025
47854,38015
47854,38015
47846,37946
47846,37946
47846,37945
47825,37880
47791,37819
47748,37767
47693,37722
47633,37691
47565,37671
47497,37665
47428,37672
47362,37692
47301,37726
47248,37769
47204,37823
47172,37884
47152,37950
47144,38031
47144,38328
47144,38334
47145,38344
47145,38344
47153,38413
47153,38413
47153,38414
47174,38479
47208,38540
47251,38592
47306,38637
47366,38668
47434,38688
47502,38694
47571,38687
47637,38667
47698,38633
47751,38590
47795,38536
47827,38475
47847,38409
47855,38328
47855,38031
" /> 
<polyline style="fill-rule:evenodd;"
points="47919,42491
47919,42484
47918,42474
47918,42474
47908,42393
47908,42393
47908,42392
47884,42315
47844,42243
47792,42181
47728,42129
47657,42092
47577,42069
47497,42061
47415,42070
47338,42094
47265,42133
47203,42185
47151,42248
47113,42320
47089,42398
47080,42491
47080,42868
47080,42875
47081,42885
47081,42885
47091,42966
47091,42966
47091,42967
47115,43044
47155,43116
47207,43178
47271,43230
47342,43267
47422,43290
47502,43298
47584,43289
47661,43265
47734,43226
47796,43174
47848,43111
47886,43039
47910,42961
47919,42868
47919,42491
" /> 
<polyline style="fill-rule:evenodd;"
points="48855,41031
48855,41025
48854,41015
48854,41015
48846,40946
48846,40946
48846,40945
48825,40880
48791,40819
48748,40767
48693,40722
48633,40691
48565,40671
48497,40665
48428,40672
48362,40692
48301,40726
48248,40769
48204,40823
48172,40884
48152,40950
48144,41031
48144,41328
48144,41334
48145,41344
48145,41344
48153,41413
48153,41413
48153,41414
48174,41479
48208,41540
48251,41592
48306,41637
48366,41668
48434,41688
48502,41694
48571,41687
48637,41667
48698,41633
48751,41590
48795,41536
48827,41475
48847,41409
48855,41328
48855,41031
" /> 
<polyline style="fill-rule:evenodd;"
points="48855,38031
48855,38025
48854,38015
48854,38015
48846,37946
48846,37946
48846,37945
48825,37880
48791,37819
48748,37767
48693,37722
48633,37691
48565,37671
48497,37665
48428,37672
48362,37692
48301,37726
48248,37769
48204,37823
48172,37884
48152,37950
48144,38031
48144,38328
48144,38334
48145,38344
48145,38344
48153,38413
48153,38413
48153,38414
48174,38479
48208,38540
48251,38592
48306,38637
48366,38668
48434,38688
48502,38694
48571,38687
48637,38667
48698,38633
48751,38590
48795,38536
48827,38475
48847,38409
48855,38328
48855,38031
" /> 
<polyline style="fill-rule:evenodd;"
points="49855,41031
49855,41025
49854,41015
49854,41015
49846,40946
49846,40946
49846,40945
49825,40880
49791,40819
49748,40767
49693,40722
49633,40691
49565,40671
49497,40665
49428,40672
49362,40692
49301,40726
49248,40769
49204,40823
49172,40884
49152,40950
49144,41031
49144,41328
49144,41334
49145,41344
49145,41344
49153,41413
49153,41413
49153,41414
49174,41479
49208,41540
49251,41592
49306,41637
49366,41668
49434,41688
49502,41694
49571,41687
49637,41667
49698,41633
49751,41590
49795,41536
49827,41475
49847,41409
49855,41328
49855,41031
" /> 
<polyline style="fill-rule:evenodd;"
points="49855,38031
49855,38025
49854,38015
49854,38015
49846,37946
49846,37946
49846,37945
49825,37880
49791,37819
49748,37767
49693,37722
49633,37691
49565,37671
49497,37665
49428,37672
49362,37692
49301,37726
49248,37769
49204,37823
49172,37884
49152,37950
49144,38031
49144,38328
49144,38334
49145,38344
49145,38344
49153,38413
49153,38413
49153,38414
49174,38479
49208,38540
49251,38592
49306,38637
49366,38668
49434,38688
49502,38694
49571,38687
49637,38667
49698,38633
49751,38590
49795,38536
49827,38475
49847,38409
49855,38328
49855,38031
" /> 
<polyline style="fill-rule:evenodd;"
points="50855,41031
50855,41025
50854,41015
50854,41015
50846,40946
50846,40946
50846,40945
50825,40880
50791,40819
50748,40767
50693,40722
50633,40691
50565,40671
50497,40665
50428,40672
50362,40692
50301,40726
50248,40769
50204,40823
50172,40884
50152,40950
50144,41031
50144,41328
50144,41334
50145,41344
50145,41344
50153,41413
50153,41413
50153,41414
50174,41479
50208,41540
50251,41592
50306,41637
50366,41668
50434,41688
50502,41694
50571,41687
50637,41667
50698,41633
50751,41590
50795,41536
50827,41475
50847,41409
50855,41328
50855,41031
" /> 
<polyline style="fill-rule:evenodd;"
points="50855,38031
50855,38025
50854,38015
50854,38015
50846,37946
50846,37946
50846,37945
50825,37880
50791,37819
50748,37767
50693,37722
50633,37691
50565,37671
50497,37665
50428,37672
50362,37692
50301,37726
50248,37769
50204,37823
50172,37884
50152,37950
50144,38031
50144,38328
50144,38334
50145,38344
50145,38344
50153,38413
50153,38413
50153,38414
50174,38479
50208,38540
50251,38592
50306,38637
50366,38668
50434,38688
50502,38694
50571,38687
50637,38667
50698,38633
50751,38590
50795,38536
50827,38475
50847,38409
50855,38328
50855,38031
" /> 
<polyline style="fill-rule:evenodd;"
points="51221,47677
51212,47587
51186,47502
51143,47423
51086,47355
51017,47298
50938,47256
50852,47230
50752,47220
50247,47220
50240,47220
50230,47221
50230,47221
50141,47231
50141,47231
50140,47232
50056,47258
49976,47302
49909,47359
49852,47429
49811,47507
49786,47594
49778,47682
49787,47772
49813,47857
49856,47936
49913,48004
49982,48061
50061,48103
50147,48129
50247,48139
50752,48139
50759,48139
50769,48138
50769,48138
50858,48128
50858,48128
50859,48127
50943,48101
51023,48057
51090,48000
51147,47930
51188,47852
51213,47765
51221,47677
" /> 
<polyline style="fill-rule:evenodd;"
points="51221,45677
51212,45587
51186,45502
51143,45423
51086,45355
51017,45298
50938,45256
50852,45230
50752,45220
50247,45220
50240,45220
50230,45221
50230,45221
50141,45231
50141,45231
50140,45232
50056,45258
49976,45302
49909,45359
49852,45429
49811,45507
49786,45594
49778,45682
49787,45772
49813,45857
49856,45936
49913,46004
49982,46061
50061,46103
50147,46129
50247,46139
50752,46139
50759,46139
50769,46138
50769,46138
50858,46128
50858,46128
50859,46127
50943,46101
51023,46057
51090,46000
51147,45930
51188,45852
51213,45765
51221,45677
" /> 
<polyline style="fill-rule:evenodd;"
points="51668,36716
51667,36631
51647,36543
51617,36475
51565,36401
51512,36351
51435,36302
51367,36276
51277,36260
51204,36261
51115,36281
51048,36310
50973,36362
50923,36414
50873,36492
50847,36559
50830,36649
50831,36721
50850,36812
50878,36878
50931,36954
50982,37004
51059,37055
51126,37082
51217,37099
51288,37098
51379,37080
51445,37052
51522,37000
51572,36950
51624,36872
51651,36807
51668,36716
" /> 
<polyline style="fill-rule:evenodd;"
points="51855,41031
51855,41025
51854,41015
51854,41015
51846,40946
51846,40946
51846,40945
51825,40880
51791,40819
51748,40767
51693,40722
51633,40691
51565,40671
51497,40665
51428,40672
51362,40692
51301,40726
51248,40769
51204,40823
51172,40884
51152,40950
51144,41031
51144,41328
51144,41334
51145,41344
51145,41344
51153,41413
51153,41413
51153,41414
51174,41479
51208,41540
51251,41592
51306,41637
51366,41668
51434,41688
51502,41694
51571,41687
51637,41667
51698,41633
51751,41590
51795,41536
51827,41475
51847,41409
51855,41328
51855,41031
" /> 
<polyline style="fill-rule:evenodd;"
points="51855,38031
51855,38025
51854,38015
51854,38015
51846,37946
51846,37946
51846,37945
51825,37880
51791,37819
51748,37767
51693,37722
51633,37691
51565,37671
51497,37665
51428,37672
51362,37692
51301,37726
51248,37769
51204,37823
51172,37884
51152,37950
51144,38031
51144,38328
51144,38334
51145,38344
51145,38344
51153,38413
51153,38413
51153,38414
51174,38479
51208,38540
51251,38592
51306,38637
51366,38668
51434,38688
51502,38694
51571,38687
51637,38667
51698,38633
51751,38590
51795,38536
51827,38475
51847,38409
51855,38328
51855,38031
" /> 
<polyline style="fill-rule:evenodd;"
points="53893,36714
53892,36634
53873,36551
53845,36488
53796,36418
53746,36371
53674,36324
53610,36300
53525,36285
53457,36286
53373,36305
53311,36332
53240,36381
53193,36430
53146,36503
53121,36566
53105,36651
53106,36719
53124,36804
53150,36866
53200,36938
53248,36984
53321,37032
53383,37057
53469,37074
53535,37073
53622,37056
53683,37030
53756,36981
53802,36934
53851,36860
53877,36799
53893,36714
" /> 
<polyline style="fill-rule:evenodd;"
points="53894,35285
53105,35285
53105,36074
53894,36074
53894,35285
" /> 
<polyline style="fill-rule:evenodd;"
points="54668,37966
54667,37881
54647,37793
54617,37725
54565,37651
54512,37601
54435,37552
54367,37526
54277,37510
54204,37511
54115,37531
54048,37560
53973,37612
53923,37664
53873,37742
53847,37809
53830,37899
53831,37971
53850,38062
53878,38128
53931,38204
53982,38254
54059,38305
54126,38332
54217,38349
54288,38348
54379,38330
54445,38302
54522,38250
54572,38200
54624,38122
54651,38057
54668,37966
" /> 
<polyline style="fill-rule:evenodd;"
points="54893,36714
54892,36634
54873,36551
54845,36488
54796,36418
54746,36371
54674,36324
54610,36300
54525,36285
54457,36286
54373,36305
54311,36332
54240,36381
54193,36430
54146,36503
54121,36566
54105,36651
54106,36719
54124,36804
54150,36866
54200,36938
54248,36984
54321,37032
54383,37057
54469,37074
54535,37073
54622,37056
54683,37030
54756,36981
54802,36934
54851,36860
54877,36799
54893,36714
" /> 
<polyline style="fill-rule:evenodd;"
points="55221,47677
55212,47587
55186,47502
55143,47423
55086,47355
55017,47298
54938,47256
54852,47230
54752,47220
54247,47220
54240,47220
54230,47221
54230,47221
54141,47231
54141,47231
54140,47232
54056,47258
53976,47302
53909,47359
53852,47429
53811,47507
53786,47594
53778,47682
53787,47772
53813,47857
53856,47936
53913,48004
53982,48061
54061,48103
54147,48129
54247,48139
54752,48139
54759,48139
54769,48138
54769,48138
54858,48128
54858,48128
54859,48127
54943,48101
55023,48057
55090,48000
55147,47930
55188,47852
55213,47765
55221,47677
" /> 
<polyline style="fill-rule:evenodd;"
points="55221,45677
55212,45587
55186,45502
55143,45423
55086,45355
55017,45298
54938,45256
54852,45230
54752,45220
54247,45220
54240,45220
54230,45221
54230,45221
54141,45231
54141,45231
54140,45232
54056,45258
53976,45302
53909,45359
53852,45429
53811,45507
53786,45594
53778,45682
53787,45772
53813,45857
53856,45936
53913,46004
53982,46061
54061,46103
54147,46129
54247,46139
54752,46139
54759,46139
54769,46138
54769,46138
54858,46128
54858,46128
54859,46127
54943,46101
55023,46057
55090,46000
55147,45930
55188,45852
55213,45765
55221,45677
" /> 
<polyline style="fill-rule:evenodd;"
points="57169,35991
57169,35984
57168,35974
57168,35974
57158,35893
57158,35893
57158,35892
57134,35815
57094,35743
57042,35681
56978,35629
56907,35592
56827,35569
56747,35561
56665,35570
56588,35594
56515,35633
56453,35685
56401,35748
56363,35820
56339,35898
56330,35991
56330,36368
56330,36375
56331,36385
56331,36385
56341,36466
56341,36466
56341,36467
56365,36544
56405,36616
56457,36678
56521,36730
56592,36767
56672,36790
56752,36798
56834,36789
56911,36765
56984,36726
57046,36674
57098,36611
57136,36539
57160,36461
57169,36368
57169,35991
" /> 
<polyline style="fill-rule:evenodd;"
points="58668,37966
58667,37881
58647,37793
58617,37725
58565,37651
58512,37601
58435,37552
58367,37526
58277,37510
58204,37511
58115,37531
58048,37560
57973,37612
57923,37664
57873,37742
57847,37809
57830,37899
57831,37971
57850,38062
57878,38128
57931,38204
57982,38254
58059,38305
58126,38332
58217,38349
58288,38348
58379,38330
58445,38302
58522,38250
58572,38200
58624,38122
58651,38057
58668,37966
" /> 
<polyline style="fill-rule:evenodd;"
points="59169,35991
59169,35984
59168,35974
59168,35974
59158,35893
59158,35893
59158,35892
59134,35815
59094,35743
59042,35681
58978,35629
58907,35592
58827,35569
58747,35561
58665,35570
58588,35594
58515,35633
58453,35685
58401,35748
58363,35820
58339,35898
58330,35991
58330,36368
58330,36375
58331,36385
58331,36385
58341,36466
58341,36466
58341,36467
58365,36544
58405,36616
58457,36678
58521,36730
58592,36767
58672,36790
58752,36798
58834,36789
58911,36765
58984,36726
59046,36674
59098,36611
59136,36539
59160,36461
59169,36368
59169,35991
" /> 
<polyline style="fill-rule:evenodd;"
points="60143,37714
60142,37634
60123,37551
60095,37488
60046,37418
59996,37371
59924,37324
59860,37300
59775,37285
59707,37286
59623,37305
59561,37332
59490,37381
59443,37430
59396,37503
59371,37566
59355,37651
59356,37719
59374,37804
59400,37866
59450,37938
59498,37984
59571,38032
59633,38057
59719,38074
59785,38073
59872,38056
59933,38030
60006,37981
60052,37934
60101,37860
60127,37799
60143,37714
" /> 
<polyline style="fill-rule:evenodd;"
points="60169,35991
60169,35984
60168,35974
60168,35974
60158,35893
60158,35893
60158,35892
60134,35815
60094,35743
60042,35681
59978,35629
59907,35592
59827,35569
59747,35561
59665,35570
59588,35594
59515,35633
59453,35685
59401,35748
59363,35820
59339,35898
59330,35991
59330,36368
59330,36375
59331,36385
59331,36385
59341,36466
59341,36466
59341,36467
59365,36544
59405,36616
59457,36678
59521,36730
59592,36767
59672,36790
59752,36798
59834,36789
59911,36765
59984,36726
60046,36674
60098,36611
60136,36539
60160,36461
60169,36368
60169,35991
" /> 
<polyline style="fill-rule:evenodd;"
points="60221,47677
60212,47587
60186,47502
60143,47423
60086,47355
60017,47298
59938,47256
59852,47230
59752,47220
59247,47220
59240,47220
59230,47221
59230,47221
59141,47231
59141,47231
59140,47232
59056,47258
58976,47302
58909,47359
58852,47429
58811,47507
58786,47594
58778,47682
58787,47772
58813,47857
58856,47936
58913,48004
58982,48061
59061,48103
59147,48129
59247,48139
59752,48139
59759,48139
59769,48138
59769,48138
59858,48128
59858,48128
59859,48127
59943,48101
60023,48057
60090,48000
60147,47930
60188,47852
60213,47765
60221,47677
" /> 
<polyline style="fill-rule:evenodd;"
points="60221,45677
60212,45587
60186,45502
60143,45423
60086,45355
60017,45298
59938,45256
59852,45230
59752,45220
59247,45220
59240,45220
59230,45221
59230,45221
59141,45231
59141,45231
59140,45232
59056,45258
58976,45302
58909,45359
58852,45429
58811,45507
58786,45594
58778,45682
58787,45772
58813,45857
58856,45936
58913,46004
58982,46061
59061,46103
59147,46129
59247,46139
59752,46139
59759,46139
59769,46138
59769,46138
59858,46128
59858,46128
59859,46127
59943,46101
60023,46057
60090,46000
60147,45930
60188,45852
60213,45765
60221,45677
" /> 
<polyline style="fill-rule:evenodd;"
points="60668,39466
60667,39381
60647,39293
60617,39225
60565,39151
60512,39101
60435,39052
60367,39026
60277,39010
60204,39011
60115,39031
60048,39060
59973,39112
59923,39164
59873,39242
59847,39309
59830,39399
59831,39471
59850,39562
59878,39628
59931,39704
59982,39754
60059,39805
60126,39832
60217,39849
60288,39848
60379,39830
60445,39802
60522,39750
60572,39700
60624,39622
60651,39557
60668,39466
" /> 
<polyline style="fill-rule:evenodd;"
points="61143,37714
61142,37634
61123,37551
61095,37488
61046,37418
60996,37371
60924,37324
60860,37300
60775,37285
60707,37286
60623,37305
60561,37332
60490,37381
60443,37430
60396,37503
60371,37566
60355,37651
60356,37719
60374,37804
60400,37866
60450,37938
60498,37984
60571,38032
60633,38057
60719,38074
60785,38073
60872,38056
60933,38030
61006,37981
61052,37934
61101,37860
61127,37799
61143,37714
" /> 
<polyline style="fill-rule:evenodd;"
points="62144,37285
61355,37285
61355,38074
62144,38074
62144,37285
" /> 
<polyline style="fill-rule:evenodd;"
points="62169,35991
62169,35984
62168,35974
62168,35974
62158,35893
62158,35893
62158,35892
62134,35815
62094,35743
62042,35681
61978,35629
61907,35592
61827,35569
61747,35561
61665,35570
61588,35594
61515,35633
61453,35685
61401,35748
61363,35820
61339,35898
61330,35991
61330,36368
61330,36375
61331,36385
61331,36385
61341,36466
61341,36466
61341,36467
61365,36544
61405,36616
61457,36678
61521,36730
61592,36767
61672,36790
61752,36798
61834,36789
61911,36765
61984,36726
62046,36674
62098,36611
62136,36539
62160,36461
62169,36368
62169,35991
" /> 
<polyline style="fill-rule:evenodd;"
points="63643,37714
63642,37634
63623,37551
63595,37488
63546,37418
63496,37371
63424,37324
63360,37300
63275,37285
63207,37286
63123,37305
63061,37332
62990,37381
62943,37430
62896,37503
62871,37566
62855,37651
62856,37719
62874,37804
62900,37866
62950,37938
62998,37984
63071,38032
63133,38057
63219,38074
63285,38073
63372,38056
63433,38030
63506,37981
63552,37934
63601,37860
63627,37799
63643,37714
" /> 
<polyline style="fill-rule:evenodd;"
points="63668,40716
63667,40631
63647,40543
63617,40475
63565,40401
63512,40351
63435,40302
63367,40276
63277,40260
63204,40261
63115,40281
63048,40310
62973,40362
62923,40414
62873,40492
62847,40559
62830,40649
62831,40721
62850,40812
62878,40878
62931,40954
62982,41004
63059,41055
63126,41082
63217,41099
63288,41098
63379,41080
63445,41052
63522,41000
63572,40950
63624,40872
63651,40807
63668,40716
" /> 
<polyline style="fill-rule:evenodd;"
points="63669,35991
63669,35984
63668,35974
63668,35974
63658,35893
63658,35893
63658,35892
63634,35815
63594,35743
63542,35681
63478,35629
63407,35592
63327,35569
63247,35561
63165,35570
63088,35594
63015,35633
62953,35685
62901,35748
62863,35820
62839,35898
62830,35991
62830,36368
62830,36375
62831,36385
62831,36385
62841,36466
62841,36466
62841,36467
62865,36544
62905,36616
62957,36678
63021,36730
63092,36767
63172,36790
63252,36798
63334,36789
63411,36765
63484,36726
63546,36674
63598,36611
63636,36539
63660,36461
63669,36368
63669,35991
" /> 
<polyline style="fill-rule:evenodd;"
points="64221,47677
64212,47587
64186,47502
64143,47423
64086,47355
64017,47298
63938,47256
63852,47230
63752,47220
63247,47220
63240,47220
63230,47221
63230,47221
63141,47231
63141,47231
63140,47232
63056,47258
62976,47302
62909,47359
62852,47429
62811,47507
62786,47594
62778,47682
62787,47772
62813,47857
62856,47936
62913,48004
62982,48061
63061,48103
63147,48129
63247,48139
63752,48139
63759,48139
63769,48138
63769,48138
63858,48128
63858,48128
63859,48127
63943,48101
64023,48057
64090,48000
64147,47930
64188,47852
64213,47765
64221,47677
" /> 
<polyline style="fill-rule:evenodd;"
points="64221,45677
64212,45587
64186,45502
64143,45423
64086,45355
64017,45298
63938,45256
63852,45230
63752,45220
63247,45220
63240,45220
63230,45221
63230,45221
63141,45231
63141,45231
63140,45232
63056,45258
62976,45302
62909,45359
62852,45429
62811,45507
62786,45594
62778,45682
62787,45772
62813,45857
62856,45936
62913,46004
62982,46061
63061,46103
63147,46129
63247,46139
63752,46139
63759,46139
63769,46138
63769,46138
63858,46128
63858,46128
63859,46127
63943,46101
64023,46057
64090,46000
64147,45930
64188,45852
64213,45765
64221,45677
" /> 
<polyline style="fill-rule:evenodd;"
points="64643,37714
64642,37634
64623,37551
64595,37488
64546,37418
64496,37371
64424,37324
64360,37300
64275,37285
64207,37286
64123,37305
64061,37332
63990,37381
63943,37430
63896,37503
63871,37566
63855,37651
63856,37719
63874,37804
63900,37866
63950,37938
63998,37984
64071,38032
64133,38057
64219,38074
64285,38073
64372,38056
64433,38030
64506,37981
64552,37934
64601,37860
64627,37799
64643,37714
" /> 
<polyline style="fill-rule:evenodd;"
points="64668,39466
64667,39381
64647,39293
64617,39225
64565,39151
64512,39101
64435,39052
64367,39026
64277,39010
64204,39011
64115,39031
64048,39060
63973,39112
63923,39164
63873,39242
63847,39309
63830,39399
63831,39471
63850,39562
63878,39628
63931,39704
63982,39754
64059,39805
64126,39832
64217,39849
64288,39848
64379,39830
64445,39802
64522,39750
64572,39700
64624,39622
64651,39557
64668,39466
" /> 
<polyline style="fill-rule:evenodd;"
points="65644,37285
64855,37285
64855,38074
65644,38074
65644,37285
" /> 
<polyline style="fill-rule:evenodd;"
points="65669,35991
65669,35984
65668,35974
65668,35974
65658,35893
65658,35893
65658,35892
65634,35815
65594,35743
65542,35681
65478,35629
65407,35592
65327,35569
65247,35561
65165,35570
65088,35594
65015,35633
64953,35685
64901,35748
64863,35820
64839,35898
64830,35991
64830,36368
64830,36375
64831,36385
64831,36385
64841,36466
64841,36466
64841,36467
64865,36544
64905,36616
64957,36678
65021,36730
65092,36767
65172,36790
65252,36798
65334,36789
65411,36765
65484,36726
65546,36674
65598,36611
65636,36539
65660,36461
65669,36368
65669,35991
" /> 
<polyline style="fill-rule:evenodd;"
points="66643,37714
66642,37634
66623,37551
66595,37488
66546,37418
66496,37371
66424,37324
66360,37300
66275,37285
66207,37286
66123,37305
66061,37332
65990,37381
65943,37430
65896,37503
65871,37566
65855,37651
65856,37719
65874,37804
65900,37866
65950,37938
65998,37984
66071,38032
66133,38057
66219,38074
66285,38073
66372,38056
66433,38030
66506,37981
66552,37934
66601,37860
66627,37799
66643,37714
" /> 
<polyline style="fill-rule:evenodd;"
points="66668,41716
66667,41631
66647,41543
66617,41475
66565,41401
66512,41351
66435,41302
66367,41276
66277,41260
66204,41261
66115,41281
66048,41310
65973,41362
65923,41414
65873,41492
65847,41559
65830,41649
65831,41721
65850,41812
65878,41878
65931,41954
65982,42004
66059,42055
66126,42082
66217,42099
66288,42098
66379,42080
66445,42052
66522,42000
66572,41950
66624,41872
66651,41807
66668,41716
" /> 
<polyline style="fill-rule:evenodd;"
points="66669,35991
66669,35984
66668,35974
66668,35974
66658,35893
66658,35893
66658,35892
66634,35815
66594,35743
66542,35681
66478,35629
66407,35592
66327,35569
66247,35561
66165,35570
66088,35594
66015,35633
65953,35685
65901,35748
65863,35820
65839,35898
65830,35991
65830,36368
65830,36375
65831,36385
65831,36385
65841,36466
65841,36466
65841,36467
65865,36544
65905,36616
65957,36678
66021,36730
66092,36767
66172,36790
66252,36798
66334,36789
66411,36765
66484,36726
66546,36674
66598,36611
66636,36539
66660,36461
66669,36368
66669,35991
" /> 
<polyline style="fill-rule:evenodd;"
points="67643,37714
67642,37634
67623,37551
67595,37488
67546,37418
67496,37371
67424,37324
67360,37300
67275,37285
67207,37286
67123,37305
67061,37332
66990,37381
66943,37430
66896,37503
66871,37566
66855,37651
66856,37719
66874,37804
66900,37866
66950,37938
66998,37984
67071,38032
67133,38057
67219,38074
67285,38073
67372,38056
67433,38030
67506,37981
67552,37934
67601,37860
67627,37799
67643,37714
" /> 
<polyline style="fill-rule:evenodd;"
points="67668,40716
67667,40631
67647,40543
67617,40475
67565,40401
67512,40351
67435,40302
67367,40276
67277,40260
67204,40261
67115,40281
67048,40310
66973,40362
66923,40414
66873,40492
66847,40559
66830,40649
66831,40721
66850,40812
66878,40878
66931,40954
66982,41004
67059,41055
67126,41082
67217,41099
67288,41098
67379,41080
67445,41052
67522,41000
67572,40950
67624,40872
67651,40807
67668,40716
" /> 
<polyline style="fill-rule:evenodd;"
points="68644,37285
67855,37285
67855,38074
68644,38074
68644,37285
" /> 
<polyline style="fill-rule:evenodd;"
points="68669,35991
68669,35984
68668,35974
68668,35974
68658,35893
68658,35893
68658,35892
68634,35815
68594,35743
68542,35681
68478,35629
68407,35592
68327,35569
68247,35561
68165,35570
68088,35594
68015,35633
67953,35685
67901,35748
67863,35820
67839,35898
67830,35991
67830,36368
67830,36375
67831,36385
67831,36385
67841,36466
67841,36466
67841,36467
67865,36544
67905,36616
67957,36678
68021,36730
68092,36767
68172,36790
68252,36798
68334,36789
68411,36765
68484,36726
68546,36674
68598,36611
68636,36539
68660,36461
68669,36368
68669,35991
" /> 
<polyline style="fill-rule:evenodd;"
points="69221,47677
69212,47587
69186,47502
69143,47423
69086,47355
69017,47298
68938,47256
68852,47230
68752,47220
68247,47220
68240,47220
68230,47221
68230,47221
68141,47231
68141,47231
68140,47232
68056,47258
67976,47302
67909,47359
67852,47429
67811,47507
67786,47594
67778,47682
67787,47772
67813,47857
67856,47936
67913,48004
67982,48061
68061,48103
68147,48129
68247,48139
68752,48139
68759,48139
68769,48138
68769,48138
68858,48128
68858,48128
68859,48127
68943,48101
69023,48057
69090,48000
69147,47930
69188,47852
69213,47765
69221,47677
" /> 
<polyline style="fill-rule:evenodd;"
points="69221,45677
69212,45587
69186,45502
69143,45423
69086,45355
69017,45298
68938,45256
68852,45230
68752,45220
68247,45220
68240,45220
68230,45221
68230,45221
68141,45231
68141,45231
68140,45232
68056,45258
67976,45302
67909,45359
67852,45429
67811,45507
67786,45594
67778,45682
67787,45772
67813,45857
67856,45936
67913,46004
67982,46061
68061,46103
68147,46129
68247,46139
68752,46139
68759,46139
68769,46138
68769,46138
68858,46128
68858,46128
68859,46127
68943,46101
69023,46057
69090,46000
69147,45930
69188,45852
69213,45765
69221,45677
" /> 
<polyline style="fill-rule:evenodd;"
points="69643,37714
69642,37634
69623,37551
69595,37488
69546,37418
69496,37371
69424,37324
69360,37300
69275,37285
69207,37286
69123,37305
69061,37332
68990,37381
68943,37430
68896,37503
68871,37566
68855,37651
68856,37719
68874,37804
68900,37866
68950,37938
68998,37984
69071,38032
69133,38057
69219,38074
69285,38073
69372,38056
69433,38030
69506,37981
69552,37934
69601,37860
69627,37799
69643,37714
" /> 
<polyline style="fill-rule:evenodd;"
points="69669,35991
69669,35984
69668,35974
69668,35974
69658,35893
69658,35893
69658,35892
69634,35815
69594,35743
69542,35681
69478,35629
69407,35592
69327,35569
69247,35561
69165,35570
69088,35594
69015,35633
68953,35685
68901,35748
68863,35820
68839,35898
68830,35991
68830,36368
68830,36375
68831,36385
68831,36385
68841,36466
68841,36466
68841,36467
68865,36544
68905,36616
68957,36678
69021,36730
69092,36767
69172,36790
69252,36798
69334,36789
69411,36765
69484,36726
69546,36674
69598,36611
69636,36539
69660,36461
69669,36368
69669,35991
" /> 
<polyline style="fill-rule:evenodd;"
points="70643,37714
70642,37634
70623,37551
70595,37488
70546,37418
70496,37371
70424,37324
70360,37300
70275,37285
70207,37286
70123,37305
70061,37332
69990,37381
69943,37430
69896,37503
69871,37566
69855,37651
69856,37719
69874,37804
69900,37866
69950,37938
69998,37984
70071,38032
70133,38057
70219,38074
70285,38073
70372,38056
70433,38030
70506,37981
70552,37934
70601,37860
70627,37799
70643,37714
" /> 
<polyline style="fill-rule:evenodd;"
points="70668,41716
70667,41631
70647,41543
70617,41475
70565,41401
70512,41351
70435,41302
70367,41276
70277,41260
70204,41261
70115,41281
70048,41310
69973,41362
69923,41414
69873,41492
69847,41559
69830,41649
69831,41721
69850,41812
69878,41878
69931,41954
69982,42004
70059,42055
70126,42082
70217,42099
70288,42098
70379,42080
70445,42052
70522,42000
70572,41950
70624,41872
70651,41807
70668,41716
" /> 
<polyline style="fill-rule:evenodd;"
points="71644,37285
70855,37285
70855,38074
71644,38074
71644,37285
" /> 
<polyline style="fill-rule:evenodd;"
points="71669,35991
71669,35984
71668,35974
71668,35974
71658,35893
71658,35893
71658,35892
71634,35815
71594,35743
71542,35681
71478,35629
71407,35592
71327,35569
71247,35561
71165,35570
71088,35594
71015,35633
70953,35685
70901,35748
70863,35820
70839,35898
70830,35991
70830,36368
70830,36375
70831,36385
70831,36385
70841,36466
70841,36466
70841,36467
70865,36544
70905,36616
70957,36678
71021,36730
71092,36767
71172,36790
71252,36798
71334,36789
71411,36765
71484,36726
71546,36674
71598,36611
71636,36539
71660,36461
71669,36368
71669,35991
" /> 
<polyline style="fill-rule:evenodd;"
points="72643,37714
72642,37634
72623,37551
72595,37488
72546,37418
72496,37371
72424,37324
72360,37300
72275,37285
72207,37286
72123,37305
72061,37332
71990,37381
71943,37430
71896,37503
71871,37566
71855,37651
71856,37719
71874,37804
71900,37866
71950,37938
71998,37984
72071,38032
72133,38057
72219,38074
72285,38073
72372,38056
72433,38030
72506,37981
72552,37934
72601,37860
72627,37799
72643,37714
" /> 
<polyline style="fill-rule:evenodd;"
points="72669,35991
72669,35984
72668,35974
72668,35974
72658,35893
72658,35893
72658,35892
72634,35815
72594,35743
72542,35681
72478,35629
72407,35592
72327,35569
72247,35561
72165,35570
72088,35594
72015,35633
71953,35685
71901,35748
71863,35820
71839,35898
71830,35991
71830,36368
71830,36375
71831,36385
71831,36385
71841,36466
71841,36466
71841,36467
71865,36544
71905,36616
71957,36678
72021,36730
72092,36767
72172,36790
72252,36798
72334,36789
72411,36765
72484,36726
72546,36674
72598,36611
72636,36539
72660,36461
72669,36368
72669,35991
" /> 
<polyline style="fill-rule:evenodd;"
points="73221,47677
73212,47587
73186,47502
73143,47423
73086,47355
73017,47298
72938,47256
72852,47230
72752,47220
72247,47220
72240,47220
72230,47221
72230,47221
72141,47231
72141,47231
72140,47232
72056,47258
71976,47302
71909,47359
71852,47429
71811,47507
71786,47594
71778,47682
71787,47772
71813,47857
71856,47936
71913,48004
71982,48061
72061,48103
72147,48129
72247,48139
72752,48139
72759,48139
72769,48138
72769,48138
72858,48128
72858,48128
72859,48127
72943,48101
73023,48057
73090,48000
73147,47930
73188,47852
73213,47765
73221,47677
" /> 
<polyline style="fill-rule:evenodd;"
points="73221,45677
73212,45587
73186,45502
73143,45423
73086,45355
73017,45298
72938,45256
72852,45230
72752,45220
72247,45220
72240,45220
72230,45221
72230,45221
72141,45231
72141,45231
72140,45232
72056,45258
71976,45302
71909,45359
71852,45429
71811,45507
71786,45594
71778,45682
71787,45772
71813,45857
71856,45936
71913,46004
71982,46061
72061,46103
72147,46129
72247,46139
72752,46139
72759,46139
72769,46138
72769,46138
72858,46128
72858,46128
72859,46127
72943,46101
73023,46057
73090,46000
73147,45930
73188,45852
73213,45765
73221,45677
" /> 
<polyline style="fill-rule:evenodd;"
points="73643,37714
73642,37634
73623,37551
73595,37488
73546,37418
73496,37371
73424,37324
73360,37300
73275,37285
73207,37286
73123,37305
73061,37332
72990,37381
72943,37430
72896,37503
72871,37566
72855,37651
72856,37719
72874,37804
72900,37866
72950,37938
72998,37984
73071,38032
73133,38057
73219,38074
73285,38073
73372,38056
73433,38030
73506,37981
73552,37934
73601,37860
73627,37799
73643,37714
" /> 
<polyline style="fill-rule:evenodd;"
points="73668,42716
73667,42631
73647,42543
73617,42475
73565,42401
73512,42351
73435,42302
73367,42276
73277,42260
73204,42261
73115,42281
73048,42310
72973,42362
72923,42414
72873,42492
72847,42559
72830,42649
72831,42721
72850,42812
72878,42878
72931,42954
72982,43004
73059,43055
73126,43082
73217,43099
73288,43098
73379,43080
73445,43052
73522,43000
73572,42950
73624,42872
73651,42807
73668,42716
" /> 
<polyline style="fill-rule:evenodd;"
points="73668,38716
73667,38631
73647,38543
73617,38475
73565,38401
73512,38351
73435,38302
73367,38276
73277,38260
73204,38261
73115,38281
73048,38310
72973,38362
72923,38414
72873,38492
72847,38559
72830,38649
72831,38721
72850,38812
72878,38878
72931,38954
72982,39004
73059,39055
73126,39082
73217,39099
73288,39098
73379,39080
73445,39052
73522,39000
73572,38950
73624,38872
73651,38807
73668,38716
" /> 
<polyline style="fill-rule:evenodd;"
points="74644,37285
73855,37285
73855,38074
74644,38074
74644,37285
" /> 
<polyline style="fill-rule:evenodd;"
points="78221,47677
78212,47587
78186,47502
78143,47423
78086,47355
78017,47298
77938,47256
77852,47230
77752,47220
77247,47220
77240,47220
77230,47221
77230,47221
77141,47231
77141,47231
77140,47232
77056,47258
76976,47302
76909,47359
76852,47429
76811,47507
76786,47594
76778,47682
76787,47772
76813,47857
76856,47936
76913,48004
76982,48061
77061,48103
77147,48129
77247,48139
77752,48139
77759,48139
77769,48138
77769,48138
77858,48128
77858,48128
77859,48127
77943,48101
78023,48057
78090,48000
78147,47930
78188,47852
78213,47765
78221,47677
" /> 
<polyline style="fill-rule:evenodd;"
points="78221,45677
78212,45587
78186,45502
78143,45423
78086,45355
78017,45298
77938,45256
77852,45230
77752,45220
77247,45220
77240,45220
77230,45221
77230,45221
77141,45231
77141,45231
77140,45232
77056,45258
76976,45302
76909,45359
76852,45429
76811,45507
76786,45594
76778,45682
76787,45772
76813,45857
76856,45936
76913,46004
76982,46061
77061,46103
77147,46129
77247,46139
77752,46139
77759,46139
77769,46138
77769,46138
77858,46128
77858,46128
77859,46127
77943,46101
78023,46057
78090,46000
78147,45930
78188,45852
78213,45765
78221,45677
" /> 
</g> 
</svg>
