<?xml version="1.0" standalone="no"?>
 <!DOCTYPE svg PUBLIC "-//W3C//DTD SVG 1.1//EN" 
 "http://www.w3.org/Graphics/SVG/1.1/DTD/svg11.dtd"> 
<svg xmlns="http://www.w3.org/2000/svg" version="1.1" 
    width="41.9989cm" height="29.7002cm" viewBox="0 0 165350 116930 ">
<title>SVG Picture created as soft_start-F_SilkS.svg date 2014/06/08 17:23:22 </title>
  <desc>Picture generated by PCBNEW </desc>
<g style="fill:#000000; fill-opacity:1;stroke:#000000; stroke-opacity:1;
stroke-linecap:round; stroke-linejoin:round; "
 transform="translate(0 0) scale(1 1)">
</g>
<g style="fill:#000000; fill-opacity:0.0; 
stroke:#000000; stroke-width:39.3701; stroke-opacity:1; 
stroke-linecap:round; stroke-linejoin:round;">
<circle cx="46000" cy="25500" r="500" /> 
<circle cx="46000" cy="7250" r="500" /> 
<path d="M47750 27250
L47750 26750
" />
<path d="M23750 27250
L23750 26750
" />
<circle cx="25500" cy="25500" r="500" /> 
<circle cx="25500" cy="7250" r="500" /> 
<path d="M23750 5500
L23750 26750
" />
<path d="M47750 5500
L23750 5500
" />
<path d="M47750 26750
L47750 5500
" />
<path d="M23750 27250
L47750 27250
" />
</g>
<g style="fill:#000000; fill-opacity:0.0; 
stroke:#000000; stroke-width:59.0551; stroke-opacity:1; 
stroke-linecap:round; stroke-linejoin:round;">
<path d="M28687 9870
L28687 15933
" />
<path d="M28687 15933
L36246 15933
" />
<path d="M28687 9870
L36246 9870
" />
<path d="M36246 9870
L36246 15933
" />
</g>
<g style="fill:#000000; fill-opacity:0.0; 
stroke:#000000; stroke-width:120; stroke-opacity:1; 
stroke-linecap:round; stroke-linejoin:round;">
<path d="M40750 14250
L41150 14250
" />
<path d="M41150 14250
L41150 13850
" />
<path d="M41150 13850
L44350 13850
" />
<path d="M44350 13850
L44350 14650
" />
<path d="M44350 14650
L41150 14650
" />
<path d="M41150 14650
L41150 14250
" />
<path d="M41150 14050
L41350 13850
" />
<path d="M44750 14250
L44350 14250
" />
<path d="M40750 17250
L41150 17250
" />
<path d="M41150 17250
L41150 16850
" />
<path d="M41150 16850
L44350 16850
" />
<path d="M44350 16850
L44350 17650
" />
<path d="M44350 17650
L41150 17650
" />
<path d="M41150 17650
L41150 17250
" />
<path d="M41150 17050
L41350 16850
" />
<path d="M44750 17250
L44350 17250
" />
</g>
<g style="fill:#000000; fill-opacity:0.0; 
stroke:#000000; stroke-width:100; stroke-opacity:1; 
stroke-linecap:round; stroke-linejoin:round;">
<path d="M46000 17750
L46000 13750
" />
<path d="M47000 17750
L47000 13750
" />
<path d="M47000 13750
L46000 13750
" />
<path d="M46000 17750
L47000 17750
" />
</g>
<g style="fill:#000000; fill-opacity:0.0; 
stroke:#000000; stroke-width:120; stroke-opacity:1; 
stroke-linecap:round; stroke-linejoin:round;">
<path d="M39250 15250
L39250 14950
" />
<path d="M39250 14950
L39650 14950
" />
<path d="M39650 14950
L39650 12550
" />
<path d="M39650 12550
L39250 12550
" />
<path d="M39250 12550
L39250 12250
" />
<path d="M39250 12550
L38850 12550
" />
<path d="M38850 12550
L38850 14950
" />
<path d="M38850 14950
L39250 14950
" />
<path d="M39650 14750
L38850 14750
" />
<path d="M38850 14650
L39650 14650
" />
<path d="M39250 17500
L39250 17800
" />
<path d="M39250 17800
L38850 17800
" />
<path d="M38850 17800
L38850 20200
" />
<path d="M38850 20200
L39250 20200
" />
<path d="M39250 20200
L39250 20500
" />
<path d="M39250 20200
L39650 20200
" />
<path d="M39650 20200
L39650 17800
" />
<path d="M39650 17800
L39250 17800
" />
<path d="M38850 18000
L39650 18000
" />
<path d="M39650 18100
L38850 18100
" />
<path d="M24250 13000
L24250 9000
" />
<path d="M23750 13000
L26750 13000
" />
<path d="M26750 13000
L26750 9000
" />
<path d="M26750 9000
L23750 9000
" />
<path d="M23750 9000
L23750 13000
" />
<path d="M24250 18250
L24250 14250
" />
<path d="M23750 18250
L26750 18250
" />
<path d="M26750 18250
L26750 14250
" />
<path d="M26750 14250
L23750 14250
" />
<path d="M23750 14250
L23750 18250
" />
<path d="M26250 19750
L26250 23750
" />
<path d="M26750 19750
L23750 19750
" />
<path d="M23750 19750
L23750 23750
" />
<path d="M23750 23750
L26750 23750
" />
<path d="M26750 23750
L26750 19750
" />
<path d="M41250 19500
L42750 21000
" />
<path d="M42750 21000
L43250 21000
" />
<path d="M43250 21000
L43750 20500
" />
<path d="M43750 20500
L43750 19500
" />
<path d="M43750 19500
L42750 18500
" />
<path d="M42750 18500
L41750 18500
" />
<path d="M41750 18500
L41250 19000
" />
<path d="M41250 19000
L41250 19500
" />
<path d="M41250 11750
L42750 13250
" />
<path d="M42750 13250
L43250 13250
" />
<path d="M43250 13250
L43750 12750
" />
<path d="M43750 12750
L43750 11750
" />
<path d="M43750 11750
L42750 10750
" />
<path d="M42750 10750
L41750 10750
" />
<path d="M41750 10750
L41250 11250
" />
<path d="M41250 11250
L41250 11750
" />
</g>
<g style="fill:#000000; fill-opacity:0.0; 
stroke:#000000; stroke-width:59.0551; stroke-opacity:1; 
stroke-linecap:round; stroke-linejoin:round;">
<path d="M28687 17370
L28687 23433
" />
<path d="M28687 23433
L36246 23433
" />
<path d="M28687 17370
L36246 17370
" />
<path d="M36246 17370
L36246 23433
" />
<path d="M32106 10659
L31975 10471
" />
<path d="M31881 10659
L31881 10265
L32031 10265
L32068 10284
L32087 10303
L32106 10340
L32106 10396
L32087 10434
L32068 10453
L32031 10471
L31881 10471
" />
<path d="M32462 10659
L32275 10659
L32275 10265
" />
<path d="M32668 10471
L32668 10659
" />
<path d="M32537 10265
L32668 10471
L32799 10265
" />
<path d="M33137 10659
L32912 10659
" />
<path d="M33024 10659
L33024 10265
L32987 10321
L32949 10359
L32912 10378
" />
<path d="M31272 9159
L31140 8971
" />
<path d="M31047 9159
L31047 8765
L31197 8765
L31234 8784
L31253 8803
L31272 8840
L31272 8896
L31253 8934
L31234 8953
L31197 8971
L31047 8971
" />
<path d="M31422 9046
L31609 9046
" />
<path d="M31384 9159
L31515 8765
L31646 9159
" />
<path d="M31759 9140
L31815 9159
L31909 9159
L31946 9140
L31965 9121
L31984 9084
L31984 9046
L31965 9009
L31946 8990
L31909 8971
L31834 8953
L31796 8934
L31778 8915
L31759 8878
L31759 8840
L31778 8803
L31796 8784
L31834 8765
L31928 8765
L31984 8784
" />
<path d="M32153 9009
L32453 9009
" />
<path d="M32715 8765
L32753 8765
L32790 8784
L32809 8803
L32828 8840
L32846 8915
L32846 9009
L32828 9084
L32809 9121
L32790 9140
L32753 9159
L32715 9159
L32678 9140
L32659 9121
L32640 9084
L32621 9009
L32621 8915
L32640 8840
L32659 8803
L32678 8784
L32715 8765
" />
<path d="M33203 8765
L33015 8765
L32996 8953
L33015 8934
L33053 8915
L33146 8915
L33184 8934
L33203 8953
L33221 8990
L33221 9084
L33203 9121
L33184 9140
L33146 9159
L33053 9159
L33015 9140
L32996 9121
" />
<path d="M33596 9159
L33371 9159
" />
<path d="M33484 9159
L33484 8765
L33446 8821
L33409 8859
L33371 8878
" />
<path d="M33952 8765
L33765 8765
L33746 8953
L33765 8934
L33802 8915
L33896 8915
L33934 8934
L33952 8953
L33971 8990
L33971 9084
L33952 9121
L33934 9140
L33896 9159
L33802 9159
L33765 9140
L33746 9121
" />
</g>
<g style="fill:#000000; fill-opacity:0.0; 
stroke:#000000; stroke-width:80; stroke-opacity:1; 
stroke-linecap:round; stroke-linejoin:round;">
<path d="M42666 14472
L42500 14210
" />
<path d="M42380 14472
L42380 13922
L42571 13922
L42619 13948
L42642 13975
L42666 14027
L42666 14105
L42642 14158
L42619 14184
L42571 14210
L42380 14210
" />
<path d="M43142 14472
L42857 14472
" />
<path d="M43000 14472
L43000 13922
L42952 14001
L42904 14053
L42857 14079
" />
<path d="M42666 17722
L42500 17460
" />
<path d="M42380 17722
L42380 17172
L42571 17172
L42619 17198
L42642 17225
L42666 17277
L42666 17355
L42642 17408
L42619 17434
L42571 17460
L42380 17460
" />
<path d="M42857 17225
L42880 17198
L42928 17172
L43047 17172
L43095 17198
L43119 17225
L43142 17277
L43142 17329
L43119 17408
L42833 17722
L43142 17722
" />
<path d="M47661 16045
L47261 16045
L47261 15892
L47280 15854
L47300 15835
L47338 15816
L47395 15816
L47433 15835
L47452 15854
L47471 15892
L47471 16045
" />
<path d="M47395 15473
L47661 15473
" />
<path d="M47242 15569
L47528 15664
L47528 15416
" />
<path d="M39661 14045
L39261 14045
L39261 13949
L39280 13892
L39319 13854
L39357 13835
L39433 13816
L39490 13816
L39566 13835
L39604 13854
L39642 13892
L39661 13949
L39661 14045
" />
<path d="M39300 13664
L39280 13645
L39261 13607
L39261 13511
L39280 13473
L39300 13454
L39338 13435
L39376 13435
L39433 13454
L39661 13683
L39661 13435
" />
<path d="M38661 19295
L38261 19295
L38261 19199
L38280 19142
L38319 19104
L38357 19085
L38433 19066
L38490 19066
L38566 19085
L38604 19104
L38642 19142
L38661 19199
L38661 19295
" />
<path d="M38661 18685
L38661 18914
" />
<path d="M38661 18799
L38261 18799
L38319 18838
L38357 18876
L38376 18914
" />
</g>
<g style="fill:#000000; fill-opacity:0.0; 
stroke:#000000; stroke-width:120; stroke-opacity:1; 
stroke-linecap:round; stroke-linejoin:round;">
<path d="M23242 11192
L22642 11192
L22642 10964
L22671 10907
L22700 10878
L22757 10850
L22842 10850
L22900 10878
L22928 10907
L22957 10964
L22957 11192
" />
<path d="M23242 10278
L23242 10621
" />
<path d="M23242 10450
L22642 10450
L22728 10507
L22785 10564
L22814 10621
" />
<path d="M27435 12271
L27464 12299
L27492 12385
L27492 12442
L27464 12528
L27407 12585
L27350 12614
L27235 12642
L27150 12642
L27035 12614
L26978 12585
L26921 12528
L26892 12442
L26892 12385
L26921 12299
L26950 12271
" />
<path d="M26892 11899
L26892 11785
L26921 11728
L26978 11671
L27092 11642
L27292 11642
L27407 11671
L27464 11728
L27492 11785
L27492 11899
L27464 11957
L27407 12014
L27292 12042
L27092 12042
L26978 12014
L26921 11957
L26892 11899
" />
<path d="M27492 11385
L26892 11385
L27492 11042
L26892 11042
" />
<path d="M27492 10757
L26892 10757
L27492 10414
L26892 10414
" />
<path d="M27550 10271
L27550 9814
" />
<path d="M26950 9700
L26921 9671
L26892 9614
L26892 9471
L26921 9414
L26950 9385
L27007 9357
L27064 9357
L27150 9385
L27492 9728
L27492 9357
" />
<path d="M23242 16692
L22642 16692
L22642 16464
L22671 16407
L22700 16378
L22757 16350
L22842 16350
L22900 16378
L22928 16407
L22957 16464
L22957 16692
" />
<path d="M22700 16121
L22671 16092
L22642 16035
L22642 15892
L22671 15835
L22700 15807
L22757 15778
L22814 15778
L22900 15807
L23242 16150
L23242 15778
" />
<path d="M27435 17521
L27464 17549
L27492 17635
L27492 17692
L27464 17778
L27407 17835
L27350 17864
L27235 17892
L27150 17892
L27035 17864
L26978 17835
L26921 17778
L26892 17692
L26892 17635
L26921 17549
L26950 17521
" />
<path d="M26892 17149
L26892 17035
L26921 16978
L26978 16921
L27092 16892
L27292 16892
L27407 16921
L27464 16978
L27492 17035
L27492 17149
L27464 17207
L27407 17264
L27292 17292
L27092 17292
L26978 17264
L26921 17207
L26892 17149
" />
<path d="M27492 16635
L26892 16635
L27492 16292
L26892 16292
" />
<path d="M27492 16007
L26892 16007
L27492 15664
L26892 15664
" />
<path d="M27550 15521
L27550 15064
" />
<path d="M26950 14950
L26921 14921
L26892 14864
L26892 14721
L26921 14664
L26950 14635
L27007 14607
L27064 14607
L27150 14635
L27492 14978
L27492 14607
" />
<path d="M23492 22192
L22892 22192
L22892 21964
L22921 21907
L22950 21878
L23007 21850
L23092 21850
L23150 21878
L23178 21907
L23207 21964
L23207 22192
" />
<path d="M22892 21650
L22892 21278
L23121 21478
L23121 21392
L23150 21335
L23178 21307
L23235 21278
L23378 21278
L23435 21307
L23464 21335
L23492 21392
L23492 21564
L23464 21621
L23435 21650
" />
<path d="M27435 23021
L27464 23049
L27492 23135
L27492 23192
L27464 23278
L27407 23335
L27350 23364
L27235 23392
L27150 23392
L27035 23364
L26978 23335
L26921 23278
L26892 23192
L26892 23135
L26921 23049
L26950 23021
" />
<path d="M26892 22649
L26892 22535
L26921 22478
L26978 22421
L27092 22392
L27292 22392
L27407 22421
L27464 22478
L27492 22535
L27492 22649
L27464 22707
L27407 22764
L27292 22792
L27092 22792
L26978 22764
L26921 22707
L26892 22649
" />
<path d="M27492 22135
L26892 22135
L27492 21792
L26892 21792
" />
<path d="M27492 21507
L26892 21507
L27492 21164
L26892 21164
" />
<path d="M27550 21021
L27550 20564
" />
<path d="M26950 20450
L26921 20421
L26892 20364
L26892 20221
L26921 20164
L26950 20135
L27007 20107
L27064 20107
L27150 20135
L27492 20478
L27492 20107
" />
</g>
<g style="fill:#000000; fill-opacity:0.0; 
stroke:#000000; stroke-width:80; stroke-opacity:1; 
stroke-linecap:round; stroke-linejoin:round;">
<path d="M40950 19538
L40930 19576
L40892 19614
L40835 19671
L40816 19709
L40816 19747
" />
<path d="M40911 19728
L40892 19766
L40854 19804
L40778 19823
L40645 19823
L40569 19804
L40530 19766
L40511 19728
L40511 19652
L40530 19614
L40569 19576
L40645 19557
L40778 19557
L40854 19576
L40892 19614
L40911 19652
L40911 19728
" />
<path d="M40911 19176
L40911 19404
" />
<path d="M40911 19290
L40511 19290
L40569 19328
L40607 19366
L40626 19404
" />
<path d="M44202 20242
L44221 20185
L44240 20166
L44278 20147
L44335 20147
L44373 20166
L44392 20185
L44411 20223
L44411 20376
L44011 20376
L44011 20242
L44030 20204
L44050 20185
L44088 20166
L44126 20166
L44164 20185
L44183 20204
L44202 20242
L44202 20376
" />
<path d="M44373 19747
L44392 19766
L44411 19823
L44411 19861
L44392 19919
L44354 19957
L44316 19976
L44240 19995
L44183 19995
L44107 19976
L44069 19957
L44030 19919
L44011 19861
L44011 19823
L44030 19766
L44050 19747
" />
<path d="M44011 19385
L44011 19576
L44202 19595
L44183 19576
L44164 19538
L44164 19442
L44183 19404
L44202 19385
L44240 19366
L44335 19366
L44373 19385
L44392 19404
L44411 19442
L44411 19538
L44392 19576
L44373 19595
" />
<path d="M44145 19023
L44411 19023
" />
<path d="M43992 19119
L44278 19214
L44278 18966
" />
<path d="M44011 18852
L44011 18585
L44411 18757
" />
<path d="M40950 11788
L40930 11826
L40892 11864
L40835 11921
L40816 11959
L40816 11997
" />
<path d="M40911 11978
L40892 12016
L40854 12054
L40778 12073
L40645 12073
L40569 12054
L40530 12016
L40511 11978
L40511 11902
L40530 11864
L40569 11826
L40645 11807
L40778 11807
L40854 11826
L40892 11864
L40911 11902
L40911 11978
" />
<path d="M40550 11654
L40530 11635
L40511 11597
L40511 11502
L40530 11464
L40550 11445
L40588 11426
L40626 11426
L40683 11445
L40911 11673
L40911 11426
" />
<path d="M44202 12492
L44221 12435
L44240 12416
L44278 12397
L44335 12397
L44373 12416
L44392 12435
L44411 12473
L44411 12626
L44011 12626
L44011 12492
L44030 12454
L44050 12435
L44088 12416
L44126 12416
L44164 12435
L44183 12454
L44202 12492
L44202 12626
" />
<path d="M44373 11997
L44392 12016
L44411 12073
L44411 12111
L44392 12169
L44354 12207
L44316 12226
L44240 12245
L44183 12245
L44107 12226
L44069 12207
L44030 12169
L44011 12111
L44011 12073
L44030 12016
L44050 11997
" />
<path d="M44011 11635
L44011 11826
L44202 11845
L44183 11826
L44164 11788
L44164 11692
L44183 11654
L44202 11635
L44240 11616
L44335 11616
L44373 11635
L44392 11654
L44411 11692
L44411 11788
L44392 11826
L44373 11845
" />
<path d="M44145 11273
L44411 11273
" />
<path d="M43992 11369
L44278 11464
L44278 11216
" />
<path d="M44011 11102
L44011 10835
L44411 11007
" />
</g>
<g style="fill:#000000; fill-opacity:0.0; 
stroke:#000000; stroke-width:59.0551; stroke-opacity:1; 
stroke-linecap:round; stroke-linejoin:round;">
<path d="M31856 22909
L31725 22721
" />
<path d="M31631 22909
L31631 22515
L31781 22515
L31818 22534
L31837 22553
L31856 22590
L31856 22646
L31837 22684
L31818 22703
L31781 22721
L31631 22721
" />
<path d="M32212 22909
L32025 22909
L32025 22515
" />
<path d="M32418 22721
L32418 22909
" />
<path d="M32287 22515
L32418 22721
L32549 22515
" />
<path d="M32662 22553
L32681 22534
L32718 22515
L32812 22515
L32849 22534
L32868 22553
L32887 22590
L32887 22628
L32868 22684
L32643 22909
L32887 22909
" />
<path d="M30772 24409
L30640 24221
" />
<path d="M30547 24409
L30547 24015
L30697 24015
L30734 24034
L30753 24053
L30772 24090
L30772 24146
L30753 24184
L30734 24203
L30697 24221
L30547 24221
" />
<path d="M30922 24296
L31109 24296
" />
<path d="M30884 24409
L31015 24015
L31146 24409
" />
<path d="M31259 24390
L31315 24409
L31409 24409
L31446 24390
L31465 24371
L31484 24334
L31484 24296
L31465 24259
L31446 24240
L31409 24221
L31334 24203
L31296 24184
L31278 24165
L31259 24128
L31259 24090
L31278 24053
L31296 24034
L31334 24015
L31428 24015
L31484 24034
" />
<path d="M31653 24259
L31953 24259
" />
<path d="M32215 24015
L32253 24015
L32290 24034
L32309 24053
L32328 24090
L32346 24165
L32346 24259
L32328 24334
L32309 24371
L32290 24390
L32253 24409
L32215 24409
L32178 24390
L32159 24371
L32140 24334
L32121 24259
L32121 24165
L32140 24090
L32159 24053
L32178 24034
L32215 24015
" />
<path d="M32703 24015
L32515 24015
L32496 24203
L32515 24184
L32553 24165
L32646 24165
L32684 24184
L32703 24203
L32721 24240
L32721 24334
L32703 24371
L32684 24390
L32646 24409
L32553 24409
L32515 24390
L32496 24371
" />
<path d="M33096 24409
L32871 24409
" />
<path d="M32984 24409
L32984 24015
L32946 24071
L32909 24109
L32871 24128
" />
<path d="M33452 24015
L33265 24015
L33246 24203
L33265 24184
L33302 24165
L33396 24165
L33434 24184
L33452 24203
L33471 24240
L33471 24334
L33452 24371
L33434 24390
L33396 24409
L33302 24409
L33265 24390
L33246 24371
" />
</g> 
</svg>
