<?xml version="1.0" standalone="no"?>
 <!DOCTYPE svg PUBLIC "-//W3C//DTD SVG 1.1//EN" 
 "http://www.w3.org/Graphics/SVG/1.1/DTD/svg11.dtd"> 
<svg xmlns="http://www.w3.org/2000/svg" version="1.1" 
    width="41.9989cm" height="29.7002cm" viewBox="0 0 165350 116930 ">
<title>SVG Picture created as soft_start-F_Mask.svg date 2014/06/08 17:23:22 </title>
  <desc>Picture generated by PCBNEW </desc>
<g style="fill:#000000; fill-opacity:1;stroke:#000000; stroke-opacity:1;
stroke-linecap:round; stroke-linejoin:round; "
 transform="translate(0 0) scale(1 1)">
</g>
<g style="fill:#000000; fill-opacity:0.0; 
stroke:#000000; stroke-width:39.3701; stroke-opacity:1; 
stroke-linecap:round; stroke-linejoin:round;">
<circle cx="46000" cy="25500" r="500" /> 
<circle cx="46000" cy="7250" r="500" /> 
<path d="M47750 27250
L47750 26750
" />
<path d="M23750 27250
L23750 26750
" />
<circle cx="25500" cy="25500" r="500" /> 
<circle cx="25500" cy="7250" r="500" /> 
<path d="M23750 5500
L23750 26750
" />
<path d="M47750 5500
L23750 5500
" />
<path d="M47750 26750
L47750 5500
" />
<path d="M23750 27250
L47750 27250
" />
</g>
<g style="fill:#000000; fill-opacity:1.0; 
stroke:#000000; stroke-width:59.0551; stroke-opacity:1; 
stroke-linecap:round; stroke-linejoin:round;">
<polyline style="fill-rule:evenodd;"
points="25829,11947
25827,12068
25800,12187
25758,12283
25687,12383
25611,12455
25508,12521
25410,12559
25290,12580
25185,12578
25065,12552
24970,12510
24869,12440
24796,12365
24730,12261
24691,12165
24669,12043
24671,11940
24696,11819
24737,11724
24807,11621
24881,11549
24985,11481
25080,11443
25202,11419
25305,11420
25427,11445
25522,11485
25625,11555
25697,11627
25766,11731
25805,11826
25829,11947
" /> 
<polyline style="fill-rule:evenodd;"
points="25829,17197
25827,17318
25800,17437
25758,17533
25687,17633
25611,17705
25508,17771
25410,17809
25290,17830
25185,17828
25065,17802
24970,17760
24869,17690
24796,17615
24730,17511
24691,17415
24669,17293
24671,17190
24696,17069
24737,16974
24807,16871
24881,16799
24985,16731
25080,16693
25202,16669
25305,16670
25427,16695
25522,16735
25625,16805
25697,16877
25766,16981
25805,17076
25829,17197
" /> 
<polyline style="fill-rule:evenodd;"
points="25829,20697
25827,20818
25800,20937
25758,21033
25687,21133
25611,21205
25508,21271
25410,21309
25290,21330
25185,21328
25065,21302
24970,21260
24869,21190
24796,21115
24730,21011
24691,20915
24669,20793
24671,20690
24696,20569
24737,20474
24807,20371
24881,20299
24985,20231
25080,20193
25202,20169
25305,20170
25427,20195
25522,20235
25625,20305
25697,20377
25766,20481
25805,20576
25829,20697
" /> 
<polyline style="fill-rule:evenodd;"
points="25829,10579
24670,10579
24670,9420
25829,9420
25829,10579
" /> 
<polyline style="fill-rule:evenodd;"
points="25829,15829
24670,15829
24670,14670
25829,14670
25829,15829
" /> 
<polyline style="fill-rule:evenodd;"
points="25829,23329
24670,23329
24670,22170
25829,22170
25829,23329
" /> 
<polyline style="fill-rule:evenodd;"
points="30223,10457
30221,10555
30199,10654
30165,10730
30106,10813
30045,10871
29960,10926
29882,10956
29781,10974
29698,10972
29598,10950
29522,10917
29438,10858
29380,10798
29325,10712
29294,10635
29276,10534
29277,10451
29298,10351
29331,10275
29389,10190
29448,10132
29534,10076
29610,10045
29712,10026
29794,10026
29895,10047
29971,10079
30057,10137
30114,10195
30172,10281
30203,10357
30223,10457
" /> 
<polyline style="fill-rule:evenodd;"
points="30223,15182
30221,15279
30199,15378
30165,15455
30106,15538
30045,15596
29960,15650
29882,15680
29781,15698
29698,15696
29598,15674
29522,15641
29438,15583
29380,15523
29325,15437
29294,15360
29276,15259
29277,15176
29298,15075
29331,14999
29389,14914
29448,14857
29534,14800
29610,14769
29712,14750
29794,14751
29895,14772
29971,14803
30057,14861
30114,14919
30172,15006
30203,15081
30223,15182
" /> 
<polyline style="fill-rule:evenodd;"
points="30223,17957
30221,18055
30199,18154
30165,18230
30106,18313
30045,18371
29960,18426
29882,18456
29781,18474
29698,18472
29598,18450
29522,18417
29438,18358
29380,18298
29325,18212
29294,18135
29276,18034
29277,17951
29298,17851
29331,17775
29389,17690
29448,17632
29534,17576
29610,17545
29712,17526
29794,17526
29895,17547
29971,17579
30057,17637
30114,17695
30172,17781
30203,17857
30223,17957
" /> 
<polyline style="fill-rule:evenodd;"
points="30223,22682
30221,22779
30199,22878
30165,22955
30106,23038
30045,23096
29960,23150
29882,23180
29781,23198
29698,23196
29598,23174
29522,23141
29438,23083
29380,23023
29325,22937
29294,22860
29276,22759
29277,22676
29298,22575
29331,22499
29389,22414
29448,22357
29534,22300
29610,22269
29712,22250
29794,22251
29895,22272
29971,22303
30057,22361
30114,22419
30172,22506
30203,22581
30223,22682
" /> 
<polyline style="fill-rule:evenodd;"
points="35065,10457
35064,10555
35042,10654
35007,10730
34949,10813
34888,10871
34802,10926
34724,10956
34624,10974
34540,10972
34441,10950
34364,10917
34280,10858
34223,10798
34167,10712
34137,10635
34118,10534
34119,10451
34141,10351
34173,10275
34231,10190
34290,10132
34377,10076
34453,10045
34554,10026
34636,10026
34738,10047
34813,10079
34899,10137
34957,10195
35014,10281
35045,10357
35065,10457
" /> 
<polyline style="fill-rule:evenodd;"
points="35065,15182
35064,15279
35042,15378
35007,15455
34949,15538
34888,15596
34802,15650
34724,15680
34624,15698
34540,15696
34441,15674
34364,15641
34280,15583
34223,15523
34167,15437
34137,15360
34118,15259
34119,15176
34141,15075
34173,14999
34231,14914
34290,14857
34377,14800
34453,14769
34554,14750
34636,14751
34738,14772
34813,14803
34899,14861
34957,14919
35014,15006
35045,15081
35065,15182
" /> 
<polyline style="fill-rule:evenodd;"
points="35065,17957
35064,18055
35042,18154
35007,18230
34949,18313
34888,18371
34802,18426
34724,18456
34624,18474
34540,18472
34441,18450
34364,18417
34280,18358
34223,18298
34167,18212
34137,18135
34118,18034
34119,17951
34141,17851
34173,17775
34231,17690
34290,17632
34377,17576
34453,17545
34554,17526
34636,17526
34738,17547
34813,17579
34899,17637
34957,17695
35014,17781
35045,17857
35065,17957
" /> 
<polyline style="fill-rule:evenodd;"
points="35065,22682
35064,22779
35042,22878
35007,22955
34949,23038
34888,23096
34802,23150
34724,23180
34624,23198
34540,23196
34441,23174
34364,23141
34280,23083
34223,23023
34167,22937
34137,22860
34118,22759
34119,22676
34141,22575
34173,22499
34231,22414
34290,22357
34377,22300
34453,22269
34554,22250
34636,22251
34738,22272
34813,22303
34899,22361
34957,22419
35014,22506
35045,22581
35065,22682
" /> 
<polyline style="fill-rule:evenodd;"
points="35853,12820
35851,12917
35829,13016
35795,13093
35736,13175
35675,13233
35590,13288
35512,13318
35411,13336
35328,13334
35228,13312
35152,13279
35068,13220
35010,13161
34955,13075
34924,12997
34905,12897
34907,12814
34928,12713
34961,12637
35019,12552
35078,12495
35164,12438
35240,12407
35342,12388
35424,12388
35525,12409
35601,12441
35687,12499
35744,12557
35802,12644
35833,12719
35853,12820
" /> 
<polyline style="fill-rule:evenodd;"
points="35853,20320
35851,20417
35829,20516
35795,20593
35736,20675
35675,20733
35590,20788
35512,20818
35411,20836
35328,20834
35228,20812
35152,20779
35068,20720
35010,20661
34955,20575
34924,20497
34905,20397
34907,20314
34928,20213
34961,20137
35019,20052
35078,19995
35164,19938
35240,19907
35342,19888
35424,19888
35525,19909
35601,19941
35687,19999
35744,20057
35802,20144
35833,20219
35853,20320
" /> 
<polyline style="fill-rule:evenodd;"
points="39604,12219
39603,12290
39586,12366
39561,12422
39516,12485
39472,12527
39406,12569
39350,12591
39272,12605
39212,12603
39135,12587
39080,12562
39015,12517
38974,12474
38931,12408
38909,12352
38894,12274
38895,12215
38912,12137
38935,12082
38980,12017
39022,11975
39089,11932
39144,11910
39223,11894
39281,11895
39360,11911
39414,11934
39481,11979
39522,12020
39567,12087
39589,12141
39604,12219
" /> 
<polyline style="fill-rule:evenodd;"
points="39604,20469
39603,20540
39586,20616
39561,20672
39516,20735
39472,20777
39406,20819
39350,20841
39272,20855
39212,20853
39135,20837
39080,20812
39015,20767
38974,20724
38931,20658
38909,20602
38894,20524
38895,20465
38912,20387
38935,20332
38980,20267
39022,20225
39089,20182
39144,20160
39223,20144
39281,20145
39360,20161
39414,20184
39481,20229
39522,20270
39567,20337
39589,20391
39604,20469
" /> 
<polyline style="fill-rule:evenodd;"
points="39604,15604
38895,15604
38895,14895
39604,14895
39604,15604
" /> 
<polyline style="fill-rule:evenodd;"
points="39604,17854
38895,17854
38895,17145
39604,17145
39604,17854
" /> 
<polyline style="fill-rule:evenodd;"
points="41129,14217
41128,14293
41110,14374
41083,14434
41035,14502
40988,14547
40917,14592
40856,14615
40774,14630
40709,14628
40627,14610
40568,14584
40499,14537
40454,14490
40408,14419
40385,14359
40369,14276
40370,14212
40388,14129
40413,14070
40461,14001
40507,13956
40578,13909
40637,13885
40720,13869
40784,13870
40867,13887
40926,13912
40997,13959
41041,14004
41089,14076
41113,14134
41129,14217
" /> 
<polyline style="fill-rule:evenodd;"
points="41129,17217
41128,17293
41110,17374
41083,17434
41035,17502
40988,17547
40917,17592
40856,17615
40774,17630
40709,17628
40627,17610
40568,17584
40499,17537
40454,17490
40408,17419
40385,17359
40369,17276
40370,17212
40388,17129
40413,17070
40461,17001
40507,16956
40578,16909
40637,16885
40720,16869
40784,16870
40867,16887
40926,16912
40997,16959
41041,17004
41089,17076
41113,17134
41129,17217
" /> 
<polyline style="fill-rule:evenodd;"
points="42104,11719
42103,11790
42086,11866
42061,11922
42016,11985
41972,12027
41906,12069
41850,12091
41772,12105
41712,12103
41635,12087
41580,12062
41515,12017
41474,11974
41431,11908
41409,11852
41394,11774
41395,11715
41412,11637
41435,11582
41480,11517
41522,11475
41589,11432
41644,11410
41723,11394
41781,11395
41860,11411
41914,11434
41981,11479
42022,11520
42067,11587
42089,11641
42104,11719
" /> 
<polyline style="fill-rule:evenodd;"
points="42104,19469
42103,19540
42086,19616
42061,19672
42016,19735
41972,19777
41906,19819
41850,19841
41772,19855
41712,19853
41635,19837
41580,19812
41515,19767
41474,19724
41431,19658
41409,19602
41394,19524
41395,19465
41412,19387
41435,19332
41480,19267
41522,19225
41589,19182
41644,19160
41723,19144
41781,19145
41860,19161
41914,19184
41981,19229
42022,19270
42067,19337
42089,19391
42104,19469
" /> 
<polyline style="fill-rule:evenodd;"
points="43104,11719
43103,11790
43086,11866
43061,11922
43016,11985
42972,12027
42906,12069
42850,12091
42772,12105
42712,12103
42635,12087
42580,12062
42515,12017
42474,11974
42431,11908
42409,11852
42394,11774
42395,11715
42412,11637
42435,11582
42480,11517
42522,11475
42589,11432
42644,11410
42723,11394
42781,11395
42860,11411
42914,11434
42981,11479
43022,11520
43067,11587
43089,11641
43104,11719
" /> 
<polyline style="fill-rule:evenodd;"
points="43104,19469
43103,19540
43086,19616
43061,19672
43016,19735
42972,19777
42906,19819
42850,19841
42772,19855
42712,19853
42635,19837
42580,19812
42515,19767
42474,19724
42431,19658
42409,19602
42394,19524
42395,19465
42412,19387
42435,19332
42480,19267
42522,19225
42589,19182
42644,19160
42723,19144
42781,19145
42860,19161
42914,19184
42981,19229
43022,19270
43067,19337
43089,19391
43104,19469
" /> 
<polyline style="fill-rule:evenodd;"
points="44104,12104
43395,12104
43395,11395
44104,11395
44104,12104
" /> 
<polyline style="fill-rule:evenodd;"
points="44104,19854
43395,19854
43395,19145
44104,19145
44104,19854
" /> 
<polyline style="fill-rule:evenodd;"
points="45129,14217
45128,14293
45110,14374
45083,14434
45035,14502
44988,14547
44917,14592
44856,14615
44774,14630
44709,14628
44627,14610
44568,14584
44499,14537
44454,14490
44408,14419
44385,14359
44369,14276
44370,14212
44388,14129
44413,14070
44461,14001
44507,13956
44578,13909
44637,13885
44720,13869
44784,13870
44867,13887
44926,13912
44997,13959
45041,14004
45089,14076
45113,14134
45129,14217
" /> 
<polyline style="fill-rule:evenodd;"
points="45129,17217
45128,17293
45110,17374
45083,17434
45035,17502
44988,17547
44917,17592
44856,17615
44774,17630
44709,17628
44627,17610
44568,17584
44499,17537
44454,17490
44408,17419
44385,17359
44369,17276
44370,17212
44388,17129
44413,17070
44461,17001
44507,16956
44578,16909
44637,16885
44720,16869
44784,16870
44867,16887
44926,16912
44997,16959
45041,17004
45089,17076
45113,17134
45129,17217
" /> 
<polyline style="fill-rule:evenodd;"
points="46879,15217
46878,15293
46860,15374
46833,15434
46785,15502
46738,15547
46667,15592
46606,15615
46524,15630
46459,15628
46377,15610
46318,15584
46249,15537
46204,15490
46158,15419
46135,15359
46119,15276
46120,15212
46138,15129
46163,15070
46211,15001
46257,14956
46328,14909
46387,14885
46470,14869
46534,14870
46617,14887
46676,14912
46747,14959
46791,15004
46839,15076
46863,15134
46879,15217
" /> 
<polyline style="fill-rule:evenodd;"
points="46879,16217
46878,16293
46860,16374
46833,16434
46785,16502
46738,16547
46667,16592
46606,16615
46524,16630
46459,16628
46377,16610
46318,16584
46249,16537
46204,16490
46158,16419
46135,16359
46119,16276
46120,16212
46138,16129
46163,16070
46211,16001
46257,15956
46328,15909
46387,15885
46470,15869
46534,15870
46617,15887
46676,15912
46747,15959
46791,16004
46839,16076
46863,16134
46879,16217
" /> 
<polyline style="fill-rule:evenodd;"
points="46879,17217
46878,17293
46860,17374
46833,17434
46785,17502
46738,17547
46667,17592
46606,17615
46524,17630
46459,17628
46377,17610
46318,17584
46249,17537
46204,17490
46158,17419
46135,17359
46119,17276
46120,17212
46138,17129
46163,17070
46211,17001
46257,16956
46328,16909
46387,16885
46470,16869
46534,16870
46617,16887
46676,16912
46747,16959
46791,17004
46839,17076
46863,17134
46879,17217
" /> 
<polyline style="fill-rule:evenodd;"
points="46879,14629
46120,14629
46120,13870
46879,13870
46879,14629
" /> 
</g> 
</svg>
