<?xml version="1.0" standalone="no"?>
 <!DOCTYPE svg PUBLIC "-//W3C//DTD SVG 1.1//EN" 
 "http://www.w3.org/Graphics/SVG/1.1/DTD/svg11.dtd"> 
<svg xmlns="http://www.w3.org/2000/svg" version="1.1" 
    width="21.0007cm" height="29.7002cm" viewBox="0 0 82680 116930 ">
<title>SVG Picture created as soft_start-F_Mask.svg date 2014/08/26 17:46:30 </title>
  <desc>Picture generated by PCBNEW </desc>
<g style="fill:#000000; fill-opacity:1;stroke:#000000; stroke-opacity:1;
stroke-linecap:round; stroke-linejoin:round; "
 transform="translate(0 0) scale(1 1)">
</g>
<g style="fill:#000000; fill-opacity:0.0; 
stroke:#000000; stroke-width:39.3701; stroke-opacity:1; 
stroke-linecap:round; stroke-linejoin:round;">
<circle cx="16500" cy="42500" r="500" /> 
<circle cx="16500" cy="32000" r="500" /> 
<circle cx="35000" cy="42500" r="500" /> 
<circle cx="35000" cy="32000" r="500" /> 
<path d="M15250 30750
L15250 43750
" />
<path d="M36250 43750
L36250 30750
" />
<path d="M15250 43750
L36250 43750
" />
<path d="M15250 30750
L36250 30750
" />
<circle cx="63750" cy="54750" r="500" /> 
<circle cx="63750" cy="38750" r="500" /> 
<path d="M42250 35250
L55250 35250
" />
<path d="M42250 22500
L42250 35250
" />
<path d="M55250 22500
L42250 22500
" />
<path d="M40250 56000
L53750 56000
" />
<path d="M40250 37500
L40250 56000
" />
<path d="M53750 37500
L40250 37500
" />
<circle cx="54000" cy="34000" r="500" /> 
<circle cx="61000" cy="23750" r="500" /> 
<circle cx="43750" cy="34000" r="500" /> 
<circle cx="43750" cy="23750" r="500" /> 
<circle cx="41500" cy="38750" r="500" /> 
<circle cx="41500" cy="54750" r="500" /> 
</g>
<g style="fill:#000000; fill-opacity:1.0; 
stroke:#000000; stroke-width:59.0551; stroke-opacity:1; 
stroke-linecap:round; stroke-linejoin:round;">
<polyline style="fill-rule:evenodd;"
points="17329,38197
17327,38318
17300,38437
17258,38533
17187,38633
17111,38705
17008,38771
16910,38809
16790,38830
16685,38828
16565,38802
16470,38760
16369,38690
16296,38615
16230,38511
16191,38415
16169,38293
16171,38190
16196,38069
16237,37974
16307,37871
16381,37799
16485,37731
16580,37693
16702,37669
16805,37670
16927,37695
17022,37735
17125,37805
17197,37877
17266,37981
17305,38076
17329,38197
" /> 
<polyline style="fill-rule:evenodd;"
points="17329,36829
16170,36829
16170,35670
17329,35670
17329,36829
" /> 
<polyline style="fill-rule:evenodd;"
points="21179,32712
21178,32799
21157,32890
21127,32959
21073,33035
21018,33087
20940,33136
20870,33164
20778,33180
20703,33178
20612,33158
20543,33128
20466,33075
20414,33021
20364,32942
20336,32873
20319,32781
20320,32706
20340,32614
20369,32546
20422,32468
20475,32417
20554,32365
20623,32337
20716,32319
20789,32320
20882,32339
20950,32367
21029,32421
21080,32473
21133,32552
21161,32619
21179,32712
" /> 
<polyline style="fill-rule:evenodd;"
points="21179,37212
21178,37299
21157,37390
21127,37459
21073,37535
21018,37587
20940,37636
20870,37664
20778,37680
20703,37678
20612,37658
20543,37628
20466,37575
20414,37521
20364,37442
20336,37373
20319,37281
20320,37206
20340,37114
20369,37046
20422,36968
20475,36917
20554,36865
20623,36837
20716,36819
20789,36820
20882,36839
20950,36867
21029,36921
21080,36973
21133,37052
21161,37119
21179,37212
" /> 
<polyline style="fill-rule:evenodd;"
points="21179,41712
21178,41799
21157,41890
21127,41959
21073,42035
21018,42087
20940,42136
20870,42164
20778,42180
20703,42178
20612,42158
20543,42128
20466,42075
20414,42021
20364,41942
20336,41873
20319,41781
20320,41706
20340,41614
20369,41546
20422,41468
20475,41417
20554,41365
20623,41337
20716,41319
20789,41320
20882,41339
20950,41367
21029,41421
21080,41473
21133,41552
21161,41619
21179,41712
" /> 
<polyline style="fill-rule:evenodd;"
points="31179,32712
31178,32799
31157,32890
31127,32959
31073,33035
31018,33087
30940,33136
30870,33164
30778,33180
30703,33178
30612,33158
30543,33128
30466,33075
30414,33021
30364,32942
30336,32873
30319,32781
30320,32706
30340,32614
30369,32546
30422,32468
30475,32417
30554,32365
30623,32337
30716,32319
30789,32320
30882,32339
30950,32367
31029,32421
31080,32473
31133,32552
31161,32619
31179,32712
" /> 
<polyline style="fill-rule:evenodd;"
points="31179,37212
31178,37299
31157,37390
31127,37459
31073,37535
31018,37587
30940,37636
30870,37664
30778,37680
30703,37678
30612,37658
30543,37628
30466,37575
30414,37521
30364,37442
30336,37373
30319,37281
30320,37206
30340,37114
30369,37046
30422,36968
30475,36917
30554,36865
30623,36837
30716,36819
30789,36820
30882,36839
30950,36867
31029,36921
31080,36973
31133,37052
31161,37119
31179,37212
" /> 
<polyline style="fill-rule:evenodd;"
points="31179,41712
31178,41799
31157,41890
31127,41959
31073,42035
31018,42087
30940,42136
30870,42164
30778,42180
30703,42178
30612,42158
30543,42128
30466,42075
30414,42021
30364,41942
30336,41873
30319,41781
30320,41706
30340,41614
30369,41546
30422,41468
30475,41417
30554,41365
30623,41337
30716,41319
30789,41320
30882,41339
30950,41367
31029,41421
31080,41473
31133,41552
31161,41619
31179,41712
" /> 
<polyline style="fill-rule:evenodd;"
points="35329,36197
35327,36318
35300,36437
35258,36533
35187,36633
35111,36705
35008,36771
34910,36809
34790,36830
34685,36828
34565,36802
34470,36760
34369,36690
34296,36615
34230,36511
34191,36415
34169,36293
34171,36190
34196,36069
34237,35974
34307,35871
34381,35799
34485,35731
34580,35693
34702,35669
34805,35670
34927,35695
35022,35735
35125,35805
35197,35877
35266,35981
35305,36076
35329,36197
" /> 
<polyline style="fill-rule:evenodd;"
points="35329,38829
34170,38829
34170,37670
35329,37670
35329,38829
" /> 
<polyline style="fill-rule:evenodd;"
points="42329,43947
42327,44068
42300,44187
42258,44283
42187,44383
42111,44455
42008,44521
41910,44559
41790,44580
41685,44578
41565,44552
41470,44510
41369,44440
41296,44365
41230,44261
41191,44165
41169,44043
41171,43940
41196,43819
41237,43724
41307,43621
41381,43549
41485,43481
41580,43443
41702,43419
41805,43420
41927,43445
42022,43485
42125,43555
42197,43627
42266,43731
42305,43826
42329,43947
" /> 
<polyline style="fill-rule:evenodd;"
points="42329,52447
42327,52568
42300,52687
42258,52783
42187,52883
42111,52955
42008,53021
41910,53059
41790,53080
41685,53078
41565,53052
41470,53010
41369,52940
41296,52865
41230,52761
41191,52665
41169,52543
41171,52440
41196,52319
41237,52224
41307,52121
41381,52049
41485,51981
41580,51943
41702,51919
41805,51920
41927,51945
42022,51985
42125,52055
42197,52127
42266,52231
42305,52326
42329,52447
" /> 
<polyline style="fill-rule:evenodd;"
points="42329,46579
41170,46579
41170,45420
42329,45420
42329,46579
" /> 
<polyline style="fill-rule:evenodd;"
points="42329,51079
41170,51079
41170,49920
42329,49920
42329,51079
" /> 
<polyline style="fill-rule:evenodd;"
points="44329,27197
44327,27318
44300,27437
44258,27533
44187,27633
44111,27705
44008,27771
43910,27809
43790,27830
43685,27828
43565,27802
43470,27760
43369,27690
43296,27615
43230,27511
43191,27415
43169,27293
43171,27190
43196,27069
43237,26974
43307,26871
43381,26799
43485,26731
43580,26693
43702,26669
43805,26670
43927,26695
44022,26735
44125,26805
44197,26877
44266,26981
44305,27076
44329,27197
" /> 
<polyline style="fill-rule:evenodd;"
points="44329,29829
43170,29829
43170,28670
44329,28670
44329,29829
" /> 
<polyline style="fill-rule:evenodd;"
points="45723,42207
45721,42305
45699,42404
45665,42480
45606,42563
45545,42621
45460,42676
45382,42706
45281,42724
45198,42722
45098,42700
45022,42667
44938,42608
44880,42548
44825,42462
44794,42385
44776,42284
44777,42201
44798,42101
44831,42025
44889,41940
44948,41882
45034,41826
45110,41795
45212,41776
45294,41776
45395,41797
45471,41829
45557,41887
45614,41945
45672,42031
45703,42107
45723,42207
" /> 
<polyline style="fill-rule:evenodd;"
points="45723,46932
45721,47029
45699,47128
45665,47205
45606,47288
45545,47346
45460,47400
45382,47430
45281,47448
45198,47446
45098,47424
45022,47391
44938,47333
44880,47273
44825,47187
44794,47110
44776,47009
44777,46926
44798,46825
44831,46749
44889,46664
44948,46607
45034,46550
45110,46519
45212,46500
45294,46501
45395,46522
45471,46553
45557,46611
45614,46669
45672,46756
45703,46831
45723,46932
" /> 
<polyline style="fill-rule:evenodd;"
points="45723,50457
45721,50555
45699,50654
45665,50730
45606,50813
45545,50871
45460,50926
45382,50956
45281,50974
45198,50972
45098,50950
45022,50917
44938,50858
44880,50798
44825,50712
44794,50635
44776,50534
44777,50451
44798,50351
44831,50275
44889,50190
44948,50132
45034,50076
45110,50045
45212,50026
45294,50026
45395,50047
45471,50079
45557,50137
45614,50195
45672,50281
45703,50357
45723,50457
" /> 
<polyline style="fill-rule:evenodd;"
points="45723,55182
45721,55279
45699,55378
45665,55455
45606,55538
45545,55596
45460,55650
45382,55680
45281,55698
45198,55696
45098,55674
45022,55641
44938,55583
44880,55523
44825,55437
44794,55360
44776,55259
44777,55176
44798,55075
44831,54999
44889,54914
44948,54857
45034,54800
45110,54769
45212,54750
45294,54751
45395,54772
45471,54803
45557,54861
45614,54919
45672,55006
45703,55081
45723,55182
" /> 
<polyline style="fill-rule:evenodd;"
points="47723,27207
47721,27305
47699,27404
47665,27480
47606,27563
47545,27621
47460,27676
47382,27706
47281,27724
47198,27722
47098,27700
47022,27667
46938,27608
46880,27548
46825,27462
46794,27385
46776,27284
46777,27201
46798,27101
46831,27025
46889,26940
46948,26882
47034,26826
47110,26795
47212,26776
47294,26776
47395,26797
47471,26829
47557,26887
47614,26945
47672,27031
47703,27107
47723,27207
" /> 
<polyline style="fill-rule:evenodd;"
points="47723,31932
47721,32029
47699,32128
47665,32205
47606,32288
47545,32346
47460,32400
47382,32430
47281,32448
47198,32446
47098,32424
47022,32391
46938,32333
46880,32273
46825,32187
46794,32110
46776,32009
46777,31926
46798,31825
46831,31749
46889,31664
46948,31607
47034,31550
47110,31519
47212,31500
47294,31501
47395,31522
47471,31553
47557,31611
47614,31669
47672,31756
47703,31831
47723,31932
" /> 
<polyline style="fill-rule:evenodd;"
points="47829,39579
46670,39579
46670,38420
47829,38420
47829,39579
" /> 
<polyline style="fill-rule:evenodd;"
points="49829,38947
49827,39068
49800,39187
49758,39283
49687,39383
49611,39455
49508,39521
49410,39559
49290,39580
49185,39578
49065,39552
48970,39510
48869,39440
48796,39365
48730,39261
48691,39165
48669,39043
48671,38940
48696,38819
48737,38724
48807,38621
48881,38549
48985,38481
49080,38443
49202,38419
49305,38420
49427,38445
49522,38485
49625,38555
49697,38627
49766,38731
49805,38826
49829,38947
" /> 
<polyline style="fill-rule:evenodd;"
points="49829,24579
48670,24579
48670,23420
49829,23420
49829,24579
" /> 
<polyline style="fill-rule:evenodd;"
points="50565,42207
50564,42305
50542,42404
50507,42480
50449,42563
50388,42621
50302,42676
50224,42706
50124,42724
50040,42722
49941,42700
49864,42667
49780,42608
49723,42548
49667,42462
49637,42385
49618,42284
49619,42201
49641,42101
49673,42025
49731,41940
49790,41882
49877,41826
49953,41795
50054,41776
50136,41776
50238,41797
50313,41829
50399,41887
50457,41945
50514,42031
50545,42107
50565,42207
" /> 
<polyline style="fill-rule:evenodd;"
points="50565,46932
50564,47029
50542,47128
50507,47205
50449,47288
50388,47346
50302,47400
50224,47430
50124,47448
50040,47446
49941,47424
49864,47391
49780,47333
49723,47273
49667,47187
49637,47110
49618,47009
49619,46926
49641,46825
49673,46749
49731,46664
49790,46607
49877,46550
49953,46519
50054,46500
50136,46501
50238,46522
50313,46553
50399,46611
50457,46669
50514,46756
50545,46831
50565,46932
" /> 
<polyline style="fill-rule:evenodd;"
points="50565,50457
50564,50555
50542,50654
50507,50730
50449,50813
50388,50871
50302,50926
50224,50956
50124,50974
50040,50972
49941,50950
49864,50917
49780,50858
49723,50798
49667,50712
49637,50635
49618,50534
49619,50451
49641,50351
49673,50275
49731,50190
49790,50132
49877,50076
49953,50045
50054,50026
50136,50026
50238,50047
50313,50079
50399,50137
50457,50195
50514,50281
50545,50357
50565,50457
" /> 
<polyline style="fill-rule:evenodd;"
points="50565,55182
50564,55279
50542,55378
50507,55455
50449,55538
50388,55596
50302,55650
50224,55680
50124,55698
50040,55696
49941,55674
49864,55641
49780,55583
49723,55523
49667,55437
49637,55360
49618,55259
49619,55176
49641,55075
49673,54999
49731,54914
49790,54857
49877,54800
49953,54769
50054,54750
50136,54751
50238,54772
50313,54803
50399,54861
50457,54919
50514,55006
50545,55081
50565,55182
" /> 
<polyline style="fill-rule:evenodd;"
points="51353,44570
51351,44667
51329,44766
51295,44843
51236,44925
51175,44983
51090,45038
51012,45068
50911,45086
50828,45084
50728,45062
50652,45029
50568,44970
50510,44911
50455,44825
50424,44747
50405,44647
50407,44564
50428,44463
50461,44387
50519,44302
50578,44245
50664,44188
50740,44157
50842,44138
50924,44138
51025,44159
51101,44191
51187,44249
51244,44307
51302,44394
51333,44469
51353,44570
" /> 
<polyline style="fill-rule:evenodd;"
points="51353,52820
51351,52917
51329,53016
51295,53093
51236,53175
51175,53233
51090,53288
51012,53318
50911,53336
50828,53334
50728,53312
50652,53279
50568,53220
50510,53161
50455,53075
50424,52997
50405,52897
50407,52814
50428,52713
50461,52637
50519,52552
50578,52495
50664,52438
50740,52407
50842,52388
50924,52388
51025,52409
51101,52441
51187,52499
51244,52557
51302,52644
51333,52719
51353,52820
" /> 
<polyline style="fill-rule:evenodd;"
points="51829,23947
51827,24068
51800,24187
51758,24283
51687,24383
51611,24455
51508,24521
51410,24559
51290,24580
51185,24578
51065,24552
50970,24510
50869,24440
50796,24365
50730,24261
50691,24165
50669,24043
50671,23940
50696,23819
50737,23724
50807,23621
50881,23549
50985,23481
51080,23443
51202,23419
51305,23420
51427,23445
51522,23485
51625,23555
51697,23627
51766,23731
51805,23826
51829,23947
" /> 
<polyline style="fill-rule:evenodd;"
points="52565,27207
52564,27305
52542,27404
52507,27480
52449,27563
52388,27621
52302,27676
52224,27706
52124,27724
52040,27722
51941,27700
51864,27667
51780,27608
51723,27548
51667,27462
51637,27385
51618,27284
51619,27201
51641,27101
51673,27025
51731,26940
51790,26882
51877,26826
51953,26795
52054,26776
52136,26776
52238,26797
52313,26829
52399,26887
52457,26945
52514,27031
52545,27107
52565,27207
" /> 
<polyline style="fill-rule:evenodd;"
points="52565,31932
52564,32029
52542,32128
52507,32205
52449,32288
52388,32346
52302,32400
52224,32430
52124,32448
52040,32446
51941,32424
51864,32391
51780,32333
51723,32273
51667,32187
51637,32110
51618,32009
51619,31926
51641,31825
51673,31749
51731,31664
51790,31607
51877,31550
51953,31519
52054,31500
52136,31501
52238,31522
52313,31553
52399,31611
52457,31669
52514,31756
52545,31831
52565,31932
" /> 
<polyline style="fill-rule:evenodd;"
points="53353,29570
53351,29667
53329,29766
53295,29843
53236,29925
53175,29983
53090,30038
53012,30068
52911,30086
52828,30084
52728,30062
52652,30029
52568,29970
52510,29911
52455,29825
52424,29747
52405,29647
52407,29564
52428,29463
52461,29387
52519,29302
52578,29245
52664,29188
52740,29157
52842,29138
52924,29138
53025,29159
53101,29191
53187,29249
53244,29307
53302,29394
53333,29469
53353,29570
" /> 
<polyline style="fill-rule:evenodd;"
points="55104,43969
55103,44040
55086,44116
55061,44172
55016,44235
54972,44277
54906,44319
54850,44341
54772,44355
54712,44353
54635,44337
54580,44312
54515,44267
54474,44224
54431,44158
54409,44102
54394,44024
54395,43965
54412,43887
54435,43832
54480,43767
54522,43725
54589,43682
54644,43660
54723,43644
54781,43645
54860,43661
54914,43684
54981,43729
55022,43770
55067,43837
55089,43891
55104,43969
" /> 
<polyline style="fill-rule:evenodd;"
points="55104,53469
55103,53540
55086,53616
55061,53672
55016,53735
54972,53777
54906,53819
54850,53841
54772,53855
54712,53853
54635,53837
54580,53812
54515,53767
54474,53724
54431,53658
54409,53602
54394,53524
54395,53465
54412,53387
54435,53332
54480,53267
54522,53225
54589,53182
54644,53160
54723,53144
54781,53145
54860,53161
54914,53184
54981,53229
55022,53270
55067,53337
55089,53391
55104,53469
" /> 
<polyline style="fill-rule:evenodd;"
points="55104,47354
54395,47354
54395,46645
55104,46645
55104,47354
" /> 
<polyline style="fill-rule:evenodd;"
points="55104,50854
54395,50854
54395,50145
55104,50145
55104,50854
" /> 
<polyline style="fill-rule:evenodd;"
points="56854,44469
56853,44540
56836,44616
56811,44672
56766,44735
56722,44777
56656,44819
56600,44841
56522,44855
56462,44853
56385,44837
56330,44812
56265,44767
56224,44724
56181,44658
56159,44602
56144,44524
56145,44465
56162,44387
56185,44332
56230,44267
56272,44225
56339,44182
56394,44160
56473,44144
56531,44145
56610,44161
56664,44184
56731,44229
56772,44270
56817,44337
56839,44391
56854,44469
" /> 
<polyline style="fill-rule:evenodd;"
points="56854,45469
56853,45540
56836,45616
56811,45672
56766,45735
56722,45777
56656,45819
56600,45841
56522,45855
56462,45853
56385,45837
56330,45812
56265,45767
56224,45724
56181,45658
56159,45602
56144,45524
56145,45465
56162,45387
56185,45332
56230,45267
56272,45225
56339,45182
56394,45160
56473,45144
56531,45145
56610,45161
56664,45184
56731,45229
56772,45270
56817,45337
56839,45391
56854,45469
" /> 
<polyline style="fill-rule:evenodd;"
points="56854,46469
56853,46540
56836,46616
56811,46672
56766,46735
56722,46777
56656,46819
56600,46841
56522,46855
56462,46853
56385,46837
56330,46812
56265,46767
56224,46724
56181,46658
56159,46602
56144,46524
56145,46465
56162,46387
56185,46332
56230,46267
56272,46225
56339,46182
56394,46160
56473,46144
56531,46145
56610,46161
56664,46184
56731,46229
56772,46270
56817,46337
56839,46391
56854,46469
" /> 
<polyline style="fill-rule:evenodd;"
points="56854,50969
56853,51040
56836,51116
56811,51172
56766,51235
56722,51277
56656,51319
56600,51341
56522,51355
56462,51353
56385,51337
56330,51312
56265,51267
56224,51224
56181,51158
56159,51102
56144,51024
56145,50965
56162,50887
56185,50832
56230,50767
56272,50725
56339,50682
56394,50660
56473,50644
56531,50645
56610,50661
56664,50684
56731,50729
56772,50770
56817,50837
56839,50891
56854,50969
" /> 
<polyline style="fill-rule:evenodd;"
points="56854,51969
56853,52040
56836,52116
56811,52172
56766,52235
56722,52277
56656,52319
56600,52341
56522,52355
56462,52353
56385,52337
56330,52312
56265,52267
56224,52224
56181,52158
56159,52102
56144,52024
56145,51965
56162,51887
56185,51832
56230,51767
56272,51725
56339,51682
56394,51660
56473,51644
56531,51645
56610,51661
56664,51684
56731,51729
56772,51770
56817,51837
56839,51891
56854,51969
" /> 
<polyline style="fill-rule:evenodd;"
points="56854,52969
56853,53040
56836,53116
56811,53172
56766,53235
56722,53277
56656,53319
56600,53341
56522,53355
56462,53353
56385,53337
56330,53312
56265,53267
56224,53224
56181,53158
56159,53102
56144,53024
56145,52965
56162,52887
56185,52832
56230,52767
56272,52725
56339,52682
56394,52660
56473,52644
56531,52645
56610,52661
56664,52684
56731,52729
56772,52770
56817,52837
56839,52891
56854,52969
" /> 
<polyline style="fill-rule:evenodd;"
points="57104,27219
57103,27290
57086,27366
57061,27422
57016,27485
56972,27527
56906,27569
56850,27591
56772,27605
56712,27603
56635,27587
56580,27562
56515,27517
56474,27474
56431,27408
56409,27352
56394,27274
56395,27215
56412,27137
56435,27082
56480,27017
56522,26975
56589,26932
56644,26910
56723,26894
56781,26895
56860,26911
56914,26934
56981,26979
57022,27020
57067,27087
57089,27141
57104,27219
" /> 
<polyline style="fill-rule:evenodd;"
points="57104,30604
56395,30604
56395,29895
57104,29895
57104,30604
" /> 
<polyline style="fill-rule:evenodd;"
points="57579,34079
56420,34079
56420,32920
57579,32920
57579,34079
" /> 
<polyline style="fill-rule:evenodd;"
points="57579,39579
56420,39579
56420,38420
57579,38420
57579,39579
" /> 
<polyline style="fill-rule:evenodd;"
points="59354,27719
59353,27790
59336,27866
59311,27922
59266,27985
59222,28027
59156,28069
59100,28091
59022,28105
58962,28103
58885,28087
58830,28062
58765,28017
58724,27974
58681,27908
58659,27852
58644,27774
58645,27715
58662,27637
58685,27582
58730,27517
58772,27475
58839,27432
58894,27410
58973,27394
59031,27395
59110,27411
59164,27434
59231,27479
59272,27520
59317,27587
59339,27641
59354,27719
" /> 
<polyline style="fill-rule:evenodd;"
points="59354,28719
59353,28790
59336,28866
59311,28922
59266,28985
59222,29027
59156,29069
59100,29091
59022,29105
58962,29103
58885,29087
58830,29062
58765,29017
58724,28974
58681,28908
58659,28852
58644,28774
58645,28715
58662,28637
58685,28582
58730,28517
58772,28475
58839,28432
58894,28410
58973,28394
59031,28395
59110,28411
59164,28434
59231,28479
59272,28520
59317,28587
59339,28641
59354,28719
" /> 
<polyline style="fill-rule:evenodd;"
points="59354,29719
59353,29790
59336,29866
59311,29922
59266,29985
59222,30027
59156,30069
59100,30091
59022,30105
58962,30103
58885,30087
58830,30062
58765,30017
58724,29974
58681,29908
58659,29852
58644,29774
58645,29715
58662,29637
58685,29582
58730,29517
58772,29475
58839,29432
58894,29410
58973,29394
59031,29395
59110,29411
59164,29434
59231,29479
59272,29520
59317,29587
59339,29641
59354,29719
" /> 
<polyline style="fill-rule:evenodd;"
points="59379,43217
59378,43293
59360,43374
59333,43434
59285,43502
59238,43547
59167,43592
59106,43615
59024,43630
58959,43628
58877,43610
58818,43584
58749,43537
58704,43490
58658,43419
58635,43359
58619,43276
58620,43212
58638,43129
58663,43070
58711,43001
58757,42956
58828,42909
58887,42885
58970,42869
59034,42870
59117,42887
59176,42912
59247,42959
59291,43004
59339,43076
59363,43134
59379,43217
" /> 
<polyline style="fill-rule:evenodd;"
points="59379,47217
59378,47293
59360,47374
59333,47434
59285,47502
59238,47547
59167,47592
59106,47615
59024,47630
58959,47628
58877,47610
58818,47584
58749,47537
58704,47490
58658,47419
58635,47359
58619,47276
58620,47212
58638,47129
58663,47070
58711,47001
58757,46956
58828,46909
58887,46885
58970,46869
59034,46870
59117,46887
59176,46912
59247,46959
59291,47004
59339,47076
59363,47134
59379,47217
" /> 
<polyline style="fill-rule:evenodd;"
points="59379,50217
59378,50293
59360,50374
59333,50434
59285,50502
59238,50547
59167,50592
59106,50615
59024,50630
58959,50628
58877,50610
58818,50584
58749,50537
58704,50490
58658,50419
58635,50359
58619,50276
58620,50212
58638,50129
58663,50070
58711,50001
58757,49956
58828,49909
58887,49885
58970,49869
59034,49870
59117,49887
59176,49912
59247,49959
59291,50004
59339,50076
59363,50134
59379,50217
" /> 
<polyline style="fill-rule:evenodd;"
points="59379,54217
59378,54293
59360,54374
59333,54434
59285,54502
59238,54547
59167,54592
59106,54615
59024,54630
58959,54628
58877,54610
58818,54584
58749,54537
58704,54490
58658,54419
58635,54359
58619,54276
58620,54212
58638,54129
58663,54070
58711,54001
58757,53956
58828,53909
58887,53885
58970,53869
59034,53870
59117,53887
59176,53912
59247,53959
59291,54004
59339,54076
59363,54134
59379,54217
" /> 
<polyline style="fill-rule:evenodd;"
points="59579,33447
59577,33568
59550,33687
59508,33783
59437,33883
59361,33955
59258,34021
59160,34059
59040,34080
58935,34078
58815,34052
58720,34010
58619,33940
58546,33865
58480,33761
58441,33665
58419,33543
58421,33440
58446,33319
58487,33224
58557,33121
58631,33049
58735,32981
58830,32943
58952,32919
59055,32920
59177,32945
59272,32985
59375,33055
59447,33127
59516,33231
59555,33326
59579,33447
" /> 
<polyline style="fill-rule:evenodd;"
points="59579,38947
59577,39068
59550,39187
59508,39283
59437,39383
59361,39455
59258,39521
59160,39559
59040,39580
58935,39578
58815,39552
58720,39510
58619,39440
58546,39365
58480,39261
58441,39165
58419,39043
58421,38940
58446,38819
58487,38724
58557,38621
58631,38549
58735,38481
58830,38443
58952,38419
59055,38420
59177,38445
59272,38485
59375,38555
59447,38627
59516,38731
59555,38826
59579,38947
" /> 
<polyline style="fill-rule:evenodd;"
points="61579,33447
61577,33568
61550,33687
61508,33783
61437,33883
61361,33955
61258,34021
61160,34059
61040,34080
60935,34078
60815,34052
60720,34010
60619,33940
60546,33865
60480,33761
60441,33665
60419,33543
60421,33440
60446,33319
60487,33224
60557,33121
60631,33049
60735,32981
60830,32943
60952,32919
61055,32920
61177,32945
61272,32985
61375,33055
61447,33127
61516,33231
61555,33326
61579,33447
" /> 
<polyline style="fill-rule:evenodd;"
points="61629,26717
61628,26793
61610,26874
61583,26934
61535,27002
61488,27047
61417,27092
61356,27115
61274,27130
61209,27128
61127,27110
61068,27084
60999,27037
60954,26990
60908,26919
60885,26859
60869,26776
60870,26712
60888,26629
60913,26570
60961,26501
61007,26456
61078,26409
61137,26385
61220,26369
61284,26370
61367,26387
61426,26412
61497,26459
61541,26504
61589,26576
61613,26634
61629,26717
" /> 
<polyline style="fill-rule:evenodd;"
points="61629,30717
61628,30793
61610,30874
61583,30934
61535,31002
61488,31047
61417,31092
61356,31115
61274,31130
61209,31128
61127,31110
61068,31084
60999,31037
60954,30990
60908,30919
60885,30859
60869,30776
60870,30712
60888,30629
60913,30570
60961,30501
61007,30456
61078,30409
61137,30385
61220,30369
61284,30370
61367,30387
61426,30412
61497,30459
61541,30504
61589,30576
61613,30634
61629,30717
" /> 
<polyline style="fill-rule:evenodd;"
points="63079,47447
63077,47568
63050,47687
63008,47783
62937,47883
62861,47955
62758,48021
62660,48059
62540,48080
62435,48078
62315,48052
62220,48010
62119,47940
62046,47865
61980,47761
61941,47665
61919,47543
61921,47440
61946,47319
61987,47224
62057,47121
62131,47049
62235,46981
62330,46943
62452,46919
62555,46920
62677,46945
62772,46985
62875,47055
62947,47127
63016,47231
63055,47326
63079,47447
" /> 
<polyline style="fill-rule:evenodd;"
points="63079,51947
63077,52068
63050,52187
63008,52283
62937,52383
62861,52455
62758,52521
62660,52559
62540,52580
62435,52578
62315,52552
62220,52510
62119,52440
62046,52365
61980,52261
61941,52165
61919,52043
61921,51940
61946,51819
61987,51724
62057,51621
62131,51549
62235,51481
62330,51443
62452,51419
62555,51420
62677,51445
62772,51485
62875,51555
62947,51627
63016,51731
63055,51826
63079,51947
" /> 
<polyline style="fill-rule:evenodd;"
points="63079,46079
61920,46079
61920,44920
63079,44920
63079,46079
" /> 
<polyline style="fill-rule:evenodd;"
points="63079,50579
61920,50579
61920,49420
63079,49420
63079,50579
" /> 
</g> 
</svg>
