<?xml version="1.0" standalone="no"?>
 <!DOCTYPE svg PUBLIC "-//W3C//DTD SVG 1.1//EN" 
 "http://www.w3.org/Graphics/SVG/1.1/DTD/svg11.dtd"> 
<svg xmlns="http://www.w3.org/2000/svg" version="1.1" 
    width="29.7002cm" height="41.9989cm" viewBox="0 0 116930 165350 ">
<title>SVG Picture created as selector-F_Mask.svg date 2014/09/13 13:22:37 </title>
  <desc>Picture generated by PCBNEW </desc>
<g style="fill:#000000; fill-opacity:1;stroke:#000000; stroke-opacity:1;
stroke-linecap:round; stroke-linejoin:round; "
 transform="translate(0 0) scale(1 1)">
</g>
<g style="fill:#000000; fill-opacity:0.0; 
stroke:#000000; stroke-width:393.701; stroke-opacity:1; 
stroke-linecap:round; stroke-linejoin:round;">
<circle cx="89250" cy="33000" r="500" /> 
<circle cx="97500" cy="50250" r="500" /> 
<circle cx="59250" cy="56750" r="500" /> 
<circle cx="53000" cy="33000" r="559.017" /> 
</g>
<g style="fill:#000000; fill-opacity:1.0; 
stroke:#000000; stroke-width:59.0551; stroke-opacity:1; 
stroke-linecap:round; stroke-linejoin:round;">
<polyline style="fill-rule:evenodd;"
points="52854,51469
52853,51540
52836,51616
52811,51672
52766,51735
52722,51777
52656,51819
52600,51841
52522,51855
52462,51853
52385,51837
52330,51812
52265,51767
52224,51724
52181,51658
52159,51602
52144,51524
52145,51465
52162,51387
52185,51332
52230,51267
52272,51225
52339,51182
52394,51160
52473,51144
52531,51145
52610,51161
52664,51184
52731,51229
52772,51270
52817,51337
52839,51391
52854,51469
" /> 
<polyline style="fill-rule:evenodd;"
points="53829,55697
53827,55818
53800,55937
53758,56033
53687,56133
53611,56205
53508,56271
53410,56309
53290,56330
53185,56328
53065,56302
52970,56260
52869,56190
52796,56115
52730,56011
52691,55915
52669,55793
52671,55690
52696,55569
52737,55474
52807,55371
52881,55299
52985,55231
53080,55193
53202,55169
53305,55170
53427,55195
53522,55235
53625,55305
53697,55377
53766,55481
53805,55576
53829,55697
" /> 
<polyline style="fill-rule:evenodd;"
points="53829,54329
52670,54329
52670,53170
53829,53170
53829,54329
" /> 
<polyline style="fill-rule:evenodd;"
points="53854,41719
53853,41790
53836,41866
53811,41922
53766,41985
53722,42027
53656,42069
53600,42091
53522,42105
53462,42103
53385,42087
53330,42062
53265,42017
53224,41974
53181,41908
53159,41852
53144,41774
53145,41715
53162,41637
53185,41582
53230,41517
53272,41475
53339,41432
53394,41410
53473,41394
53531,41395
53610,41411
53664,41434
53731,41479
53772,41520
53817,41587
53839,41641
53854,41719
" /> 
<polyline style="fill-rule:evenodd;"
points="53854,47104
53145,47104
53145,46395
53854,46395
53854,47104
" /> 
<polyline style="fill-rule:evenodd;"
points="53879,48467
53878,48543
53860,48624
53833,48684
53785,48752
53738,48797
53667,48842
53606,48865
53524,48880
53459,48878
53377,48860
53318,48834
53249,48787
53204,48740
53158,48669
53135,48609
53119,48526
53120,48462
53138,48379
53163,48320
53211,48251
53257,48206
53328,48159
53387,48135
53470,48119
53534,48120
53617,48137
53676,48162
53747,48209
53791,48254
53839,48326
53863,48384
53879,48467
" /> 
<polyline style="fill-rule:evenodd;"
points="53879,49967
53878,50043
53860,50124
53833,50184
53785,50252
53738,50297
53667,50342
53606,50365
53524,50380
53459,50378
53377,50360
53318,50334
53249,50287
53204,50240
53158,50169
53135,50109
53119,50026
53120,49962
53138,49879
53163,49820
53211,49751
53257,49706
53328,49659
53387,49635
53470,49619
53534,49620
53617,49637
53676,49662
53747,49709
53791,49754
53839,49826
53863,49884
53879,49967
" /> 
<polyline style="fill-rule:evenodd;"
points="56129,38217
56128,38293
56110,38374
56083,38434
56035,38502
55988,38547
55917,38592
55856,38615
55774,38630
55709,38628
55627,38610
55568,38584
55499,38537
55454,38490
55408,38419
55385,38359
55369,38276
55370,38212
55388,38129
55413,38070
55461,38001
55507,37956
55578,37909
55637,37885
55720,37869
55784,37870
55867,37887
55926,37912
55997,37959
56041,38004
56089,38076
56113,38134
56129,38217
" /> 
<polyline style="fill-rule:evenodd;"
points="56129,42217
56128,42293
56110,42374
56083,42434
56035,42502
55988,42547
55917,42592
55856,42615
55774,42630
55709,42628
55627,42610
55568,42584
55499,42537
55454,42490
55408,42419
55385,42359
55369,42276
55370,42212
55388,42129
55413,42070
55461,42001
55507,41956
55578,41909
55637,41885
55720,41869
55784,41870
55867,41887
55926,41912
55997,41959
56041,42004
56089,42076
56113,42134
56129,42217
" /> 
<polyline style="fill-rule:evenodd;"
points="56354,53719
56353,53790
56336,53866
56311,53922
56266,53985
56222,54027
56156,54069
56100,54091
56022,54105
55962,54103
55885,54087
55830,54062
55765,54017
55724,53974
55681,53908
55659,53852
55644,53774
55645,53715
55662,53637
55685,53582
55730,53517
55772,53475
55839,53432
55894,53410
55973,53394
56031,53395
56110,53411
56164,53434
56231,53479
56272,53520
56317,53587
56339,53641
56354,53719
" /> 
<polyline style="fill-rule:evenodd;"
points="56354,55719
56353,55790
56336,55866
56311,55922
56266,55985
56222,56027
56156,56069
56100,56091
56022,56105
55962,56103
55885,56087
55830,56062
55765,56017
55724,55974
55681,55908
55659,55852
55644,55774
55645,55715
55662,55637
55685,55582
55730,55517
55772,55475
55839,55432
55894,55410
55973,55394
56031,55395
56110,55411
56164,55434
56231,55479
56272,55520
56317,55587
56339,55641
56354,55719
" /> 
<polyline style="fill-rule:evenodd;"
points="57604,36219
57603,36290
57586,36366
57561,36422
57516,36485
57472,36527
57406,36569
57350,36591
57272,36605
57212,36603
57135,36587
57080,36562
57015,36517
56974,36474
56931,36408
56909,36352
56894,36274
56895,36215
56912,36137
56935,36082
56980,36017
57022,35975
57089,35932
57144,35910
57223,35894
57281,35895
57360,35911
57414,35934
57481,35979
57522,36020
57567,36087
57589,36141
57604,36219
" /> 
<polyline style="fill-rule:evenodd;"
points="57604,40219
57603,40290
57586,40366
57561,40422
57516,40485
57472,40527
57406,40569
57350,40591
57272,40605
57212,40603
57135,40587
57080,40562
57015,40517
56974,40474
56931,40408
56909,40352
56894,40274
56895,40215
56912,40137
56935,40082
56980,40017
57022,39975
57089,39932
57144,39910
57223,39894
57281,39895
57360,39911
57414,39934
57481,39979
57522,40020
57567,40087
57589,40141
57604,40219
" /> 
<polyline style="fill-rule:evenodd;"
points="57854,51854
57145,51854
57145,51145
57854,51145
57854,51854
" /> 
<polyline style="fill-rule:evenodd;"
points="57879,48467
57878,48543
57860,48624
57833,48684
57785,48752
57738,48797
57667,48842
57606,48865
57524,48880
57459,48878
57377,48860
57318,48834
57249,48787
57204,48740
57158,48669
57135,48609
57119,48526
57120,48462
57138,48379
57163,48320
57211,48251
57257,48206
57328,48159
57387,48135
57470,48119
57534,48120
57617,48137
57676,48162
57747,48209
57791,48254
57839,48326
57863,48384
57879,48467
" /> 
<polyline style="fill-rule:evenodd;"
points="57879,49967
57878,50043
57860,50124
57833,50184
57785,50252
57738,50297
57667,50342
57606,50365
57524,50380
57459,50378
57377,50360
57318,50334
57249,50287
57204,50240
57158,50169
57135,50109
57119,50026
57120,49962
57138,49879
57163,49820
57211,49751
57257,49706
57328,49659
57387,49635
57470,49619
57534,49620
57617,49637
57676,49662
57747,49709
57791,49754
57839,49826
57863,49884
57879,49967
" /> 
<polyline style="fill-rule:evenodd;"
points="59129,35717
59128,35793
59110,35874
59083,35934
59035,36002
58988,36047
58917,36092
58856,36115
58774,36130
58709,36128
58627,36110
58568,36084
58499,36037
58454,35990
58408,35919
58385,35859
58369,35776
58370,35712
58388,35629
58413,35570
58461,35501
58507,35456
58578,35409
58637,35385
58720,35369
58784,35370
58867,35387
58926,35412
58997,35459
59041,35504
59089,35576
59113,35634
59129,35717
" /> 
<polyline style="fill-rule:evenodd;"
points="59129,39717
59128,39793
59110,39874
59083,39934
59035,40002
58988,40047
58917,40092
58856,40115
58774,40130
58709,40128
58627,40110
58568,40084
58499,40037
58454,39990
58408,39919
58385,39859
58369,39776
58370,39712
58388,39629
58413,39570
58461,39501
58507,39456
58578,39409
58637,39385
58720,39369
58784,39370
58867,39387
58926,39412
58997,39459
59041,39504
59089,39576
59113,39634
59129,39717
" /> 
<polyline style="fill-rule:evenodd;"
points="60079,32947
60077,33068
60050,33187
60008,33283
59937,33383
59861,33455
59758,33521
59660,33559
59540,33580
59435,33578
59315,33552
59220,33510
59119,33440
59046,33365
58980,33261
58941,33165
58919,33043
58921,32940
58946,32819
58987,32724
59057,32621
59131,32549
59235,32481
59330,32443
59452,32419
59555,32420
59677,32445
59772,32485
59875,32555
59947,32627
60016,32731
60055,32826
60079,32947
" /> 
<polyline style="fill-rule:evenodd;"
points="61129,38217
61128,38293
61110,38374
61083,38434
61035,38502
60988,38547
60917,38592
60856,38615
60774,38630
60709,38628
60627,38610
60568,38584
60499,38537
60454,38490
60408,38419
60385,38359
60369,38276
60370,38212
60388,38129
60413,38070
60461,38001
60507,37956
60578,37909
60637,37885
60720,37869
60784,37870
60867,37887
60926,37912
60997,37959
61041,38004
61089,38076
61113,38134
61129,38217
" /> 
<polyline style="fill-rule:evenodd;"
points="61129,42217
61128,42293
61110,42374
61083,42434
61035,42502
60988,42547
60917,42592
60856,42615
60774,42630
60709,42628
60627,42610
60568,42584
60499,42537
60454,42490
60408,42419
60385,42359
60369,42276
60370,42212
60388,42129
60413,42070
60461,42001
60507,41956
60578,41909
60637,41885
60720,41869
60784,41870
60867,41887
60926,41912
60997,41959
61041,42004
61089,42076
61113,42134
61129,42217
" /> 
<polyline style="fill-rule:evenodd;"
points="62079,32947
62077,33068
62050,33187
62008,33283
61937,33383
61861,33455
61758,33521
61660,33559
61540,33580
61435,33578
61315,33552
61220,33510
61119,33440
61046,33365
60980,33261
60941,33165
60919,33043
60921,32940
60946,32819
60987,32724
61057,32621
61131,32549
61235,32481
61330,32443
61452,32419
61555,32420
61677,32445
61772,32485
61875,32555
61947,32627
62016,32731
62055,32826
62079,32947
" /> 
<polyline style="fill-rule:evenodd;"
points="62354,36769
62353,36840
62336,36916
62311,36972
62266,37035
62222,37077
62156,37119
62100,37141
62022,37155
61962,37153
61885,37137
61830,37112
61765,37067
61724,37024
61681,36958
61659,36902
61644,36824
61645,36765
61662,36687
61685,36632
61730,36567
61772,36525
61839,36482
61894,36460
61973,36444
62031,36445
62110,36461
62164,36484
62231,36529
62272,36570
62317,36637
62339,36691
62354,36769
" /> 
<polyline style="fill-rule:evenodd;"
points="62354,41269
62353,41340
62336,41416
62311,41472
62266,41535
62222,41577
62156,41619
62100,41641
62022,41655
61962,41653
61885,41637
61830,41612
61765,41567
61724,41524
61681,41458
61659,41402
61644,41324
61645,41265
61662,41187
61685,41132
61730,41067
61772,41025
61839,40982
61894,40960
61973,40944
62031,40945
62110,40961
62164,40984
62231,41029
62272,41070
62317,41137
62339,41191
62354,41269
" /> 
<polyline style="fill-rule:evenodd;"
points="62604,48969
62603,49040
62586,49116
62561,49172
62516,49235
62472,49277
62406,49319
62350,49341
62272,49355
62212,49353
62135,49337
62080,49312
62015,49267
61974,49224
61931,49158
61909,49102
61894,49024
61895,48965
61912,48887
61935,48832
61980,48767
62022,48725
62089,48682
62144,48660
62223,48644
62281,48645
62360,48661
62414,48684
62481,48729
62522,48770
62567,48837
62589,48891
62604,48969
" /> 
<polyline style="fill-rule:evenodd;"
points="64079,32947
64077,33068
64050,33187
64008,33283
63937,33383
63861,33455
63758,33521
63660,33559
63540,33580
63435,33578
63315,33552
63220,33510
63119,33440
63046,33365
62980,33261
62941,33165
62919,33043
62921,32940
62946,32819
62987,32724
63057,32621
63131,32549
63235,32481
63330,32443
63452,32419
63555,32420
63677,32445
63772,32485
63875,32555
63947,32627
64016,32731
64055,32826
64079,32947
" /> 
<polyline style="fill-rule:evenodd;"
points="64604,48969
64603,49040
64586,49116
64561,49172
64516,49235
64472,49277
64406,49319
64350,49341
64272,49355
64212,49353
64135,49337
64080,49312
64015,49267
63974,49224
63931,49158
63909,49102
63894,49024
63895,48965
63912,48887
63935,48832
63980,48767
64022,48725
64089,48682
64144,48660
64223,48644
64281,48645
64360,48661
64414,48684
64481,48729
64522,48770
64567,48837
64589,48891
64604,48969
" /> 
<polyline style="fill-rule:evenodd;"
points="64629,35717
64628,35793
64610,35874
64583,35934
64535,36002
64488,36047
64417,36092
64356,36115
64274,36130
64209,36128
64127,36110
64068,36084
63999,36037
63954,35990
63908,35919
63885,35859
63869,35776
63870,35712
63888,35629
63913,35570
63961,35501
64007,35456
64078,35409
64137,35385
64220,35369
64284,35370
64367,35387
64426,35412
64497,35459
64541,35504
64589,35576
64613,35634
64629,35717
" /> 
<polyline style="fill-rule:evenodd;"
points="64629,39717
64628,39793
64610,39874
64583,39934
64535,40002
64488,40047
64417,40092
64356,40115
64274,40130
64209,40128
64127,40110
64068,40084
63999,40037
63954,39990
63908,39919
63885,39859
63869,39776
63870,39712
63888,39629
63913,39570
63961,39501
64007,39456
64078,39409
64137,39385
64220,39369
64284,39370
64367,39387
64426,39412
64497,39459
64541,39504
64589,39576
64613,39634
64629,39717
" /> 
<polyline style="fill-rule:evenodd;"
points="65104,53719
65103,53790
65086,53866
65061,53922
65016,53985
64972,54027
64906,54069
64850,54091
64772,54105
64712,54103
64635,54087
64580,54062
64515,54017
64474,53974
64431,53908
64409,53852
64394,53774
64395,53715
64412,53637
64435,53582
64480,53517
64522,53475
64589,53432
64644,53410
64723,53394
64781,53395
64860,53411
64914,53434
64981,53479
65022,53520
65067,53587
65089,53641
65104,53719
" /> 
<polyline style="fill-rule:evenodd;"
points="65104,57219
65103,57290
65086,57366
65061,57422
65016,57485
64972,57527
64906,57569
64850,57591
64772,57605
64712,57603
64635,57587
64580,57562
64515,57517
64474,57474
64431,57408
64409,57352
64394,57274
64395,57215
64412,57137
64435,57082
64480,57017
64522,56975
64589,56932
64644,56910
64723,56894
64781,56895
64860,56911
64914,56934
64981,56979
65022,57020
65067,57087
65089,57141
65104,57219
" /> 
<polyline style="fill-rule:evenodd;"
points="66854,48969
66853,49040
66836,49116
66811,49172
66766,49235
66722,49277
66656,49319
66600,49341
66522,49355
66462,49353
66385,49337
66330,49312
66265,49267
66224,49224
66181,49158
66159,49102
66144,49024
66145,48965
66162,48887
66185,48832
66230,48767
66272,48725
66339,48682
66394,48660
66473,48644
66531,48645
66610,48661
66664,48684
66731,48729
66772,48770
66817,48837
66839,48891
66854,48969
" /> 
<polyline style="fill-rule:evenodd;"
points="66854,53719
66853,53790
66836,53866
66811,53922
66766,53985
66722,54027
66656,54069
66600,54091
66522,54105
66462,54103
66385,54087
66330,54062
66265,54017
66224,53974
66181,53908
66159,53852
66144,53774
66145,53715
66162,53637
66185,53582
66230,53517
66272,53475
66339,53432
66394,53410
66473,53394
66531,53395
66610,53411
66664,53434
66731,53479
66772,53520
66817,53587
66839,53641
66854,53719
" /> 
<polyline style="fill-rule:evenodd;"
points="66854,52354
66145,52354
66145,51645
66854,51645
66854,52354
" /> 
<polyline style="fill-rule:evenodd;"
points="66879,38217
66878,38293
66860,38374
66833,38434
66785,38502
66738,38547
66667,38592
66606,38615
66524,38630
66459,38628
66377,38610
66318,38584
66249,38537
66204,38490
66158,38419
66135,38359
66119,38276
66120,38212
66138,38129
66163,38070
66211,38001
66257,37956
66328,37909
66387,37885
66470,37869
66534,37870
66617,37887
66676,37912
66747,37959
66791,38004
66839,38076
66863,38134
66879,38217
" /> 
<polyline style="fill-rule:evenodd;"
points="66879,42217
66878,42293
66860,42374
66833,42434
66785,42502
66738,42547
66667,42592
66606,42615
66524,42630
66459,42628
66377,42610
66318,42584
66249,42537
66204,42490
66158,42419
66135,42359
66119,42276
66120,42212
66138,42129
66163,42070
66211,42001
66257,41956
66328,41909
66387,41885
66470,41869
66534,41870
66617,41887
66676,41912
66747,41959
66791,42004
66839,42076
66863,42134
66879,42217
" /> 
<polyline style="fill-rule:evenodd;"
points="67854,48969
67853,49040
67836,49116
67811,49172
67766,49235
67722,49277
67656,49319
67600,49341
67522,49355
67462,49353
67385,49337
67330,49312
67265,49267
67224,49224
67181,49158
67159,49102
67144,49024
67145,48965
67162,48887
67185,48832
67230,48767
67272,48725
67339,48682
67394,48660
67473,48644
67531,48645
67610,48661
67664,48684
67731,48729
67772,48770
67817,48837
67839,48891
67854,48969
" /> 
<polyline style="fill-rule:evenodd;"
points="67854,51969
67853,52040
67836,52116
67811,52172
67766,52235
67722,52277
67656,52319
67600,52341
67522,52355
67462,52353
67385,52337
67330,52312
67265,52267
67224,52224
67181,52158
67159,52102
67144,52024
67145,51965
67162,51887
67185,51832
67230,51767
67272,51725
67339,51682
67394,51660
67473,51644
67531,51645
67610,51661
67664,51684
67731,51729
67772,51770
67817,51837
67839,51891
67854,51969
" /> 
<polyline style="fill-rule:evenodd;"
points="67879,47717
67878,47793
67860,47874
67833,47934
67785,48002
67738,48047
67667,48092
67606,48115
67524,48130
67459,48128
67377,48110
67318,48084
67249,48037
67204,47990
67158,47919
67135,47859
67119,47776
67120,47712
67138,47629
67163,47570
67211,47501
67257,47456
67328,47409
67387,47385
67470,47369
67534,47370
67617,47387
67676,47412
67747,47459
67791,47504
67839,47576
67863,47634
67879,47717
" /> 
<polyline style="fill-rule:evenodd;"
points="68054,36269
68053,36340
68036,36416
68011,36472
67966,36535
67922,36577
67856,36619
67800,36641
67722,36655
67662,36653
67585,36637
67530,36612
67465,36567
67424,36524
67381,36458
67359,36402
67344,36324
67345,36265
67362,36187
67385,36132
67430,36067
67472,36025
67539,35982
67594,35960
67673,35944
67731,35945
67810,35961
67864,35984
67931,36029
67972,36070
68017,36137
68039,36191
68054,36269
" /> 
<polyline style="fill-rule:evenodd;"
points="68054,40269
68053,40340
68036,40416
68011,40472
67966,40535
67922,40577
67856,40619
67800,40641
67722,40655
67662,40653
67585,40637
67530,40612
67465,40567
67424,40524
67381,40458
67359,40402
67344,40324
67345,40265
67362,40187
67385,40132
67430,40067
67472,40025
67539,39982
67594,39960
67673,39944
67731,39945
67810,39961
67864,39984
67931,40029
67972,40070
68017,40137
68039,40191
68054,40269
" /> 
<polyline style="fill-rule:evenodd;"
points="68604,53969
68603,54040
68586,54116
68561,54172
68516,54235
68472,54277
68406,54319
68350,54341
68272,54355
68212,54353
68135,54337
68080,54312
68015,54267
67974,54224
67931,54158
67909,54102
67894,54024
67895,53965
67912,53887
67935,53832
67980,53767
68022,53725
68089,53682
68144,53660
68223,53644
68281,53645
68360,53661
68414,53684
68481,53729
68522,53770
68567,53837
68589,53891
68604,53969
" /> 
<polyline style="fill-rule:evenodd;"
points="68854,48969
68853,49040
68836,49116
68811,49172
68766,49235
68722,49277
68656,49319
68600,49341
68522,49355
68462,49353
68385,49337
68330,49312
68265,49267
68224,49224
68181,49158
68159,49102
68144,49024
68145,48965
68162,48887
68185,48832
68230,48767
68272,48725
68339,48682
68394,48660
68473,48644
68531,48645
68610,48661
68664,48684
68731,48729
68772,48770
68817,48837
68839,48891
68854,48969
" /> 
<polyline style="fill-rule:evenodd;"
points="68854,51969
68853,52040
68836,52116
68811,52172
68766,52235
68722,52277
68656,52319
68600,52341
68522,52355
68462,52353
68385,52337
68330,52312
68265,52267
68224,52224
68181,52158
68159,52102
68144,52024
68145,51965
68162,51887
68185,51832
68230,51767
68272,51725
68339,51682
68394,51660
68473,51644
68531,51645
68610,51661
68664,51684
68731,51729
68772,51770
68817,51837
68839,51891
68854,51969
" /> 
<polyline style="fill-rule:evenodd;"
points="68854,55719
68853,55790
68836,55866
68811,55922
68766,55985
68722,56027
68656,56069
68600,56091
68522,56105
68462,56103
68385,56087
68330,56062
68265,56017
68224,55974
68181,55908
68159,55852
68144,55774
68145,55715
68162,55637
68185,55582
68230,55517
68272,55475
68339,55432
68394,55410
68473,55394
68531,55395
68610,55411
68664,55434
68731,55479
68772,55520
68817,55587
68839,55641
68854,55719
" /> 
<polyline style="fill-rule:evenodd;"
points="68879,48129
68120,48129
68120,47370
68879,47370
68879,48129
" /> 
<polyline style="fill-rule:evenodd;"
points="69854,48969
69853,49040
69836,49116
69811,49172
69766,49235
69722,49277
69656,49319
69600,49341
69522,49355
69462,49353
69385,49337
69330,49312
69265,49267
69224,49224
69181,49158
69159,49102
69144,49024
69145,48965
69162,48887
69185,48832
69230,48767
69272,48725
69339,48682
69394,48660
69473,48644
69531,48645
69610,48661
69664,48684
69731,48729
69772,48770
69817,48837
69839,48891
69854,48969
" /> 
<polyline style="fill-rule:evenodd;"
points="69854,51969
69853,52040
69836,52116
69811,52172
69766,52235
69722,52277
69656,52319
69600,52341
69522,52355
69462,52353
69385,52337
69330,52312
69265,52267
69224,52224
69181,52158
69159,52102
69144,52024
69145,51965
69162,51887
69185,51832
69230,51767
69272,51725
69339,51682
69394,51660
69473,51644
69531,51645
69610,51661
69664,51684
69731,51729
69772,51770
69817,51837
69839,51891
69854,51969
" /> 
<polyline style="fill-rule:evenodd;"
points="70379,35717
70378,35793
70360,35874
70333,35934
70285,36002
70238,36047
70167,36092
70106,36115
70024,36130
69959,36128
69877,36110
69818,36084
69749,36037
69704,35990
69658,35919
69635,35859
69619,35776
69620,35712
69638,35629
69663,35570
69711,35501
69757,35456
69828,35409
69887,35385
69970,35369
70034,35370
70117,35387
70176,35412
70247,35459
70291,35504
70339,35576
70363,35634
70379,35717
" /> 
<polyline style="fill-rule:evenodd;"
points="70379,39717
70378,39793
70360,39874
70333,39934
70285,40002
70238,40047
70167,40092
70106,40115
70024,40130
69959,40128
69877,40110
69818,40084
69749,40037
69704,39990
69658,39919
69635,39859
69619,39776
69620,39712
69638,39629
69663,39570
69711,39501
69757,39456
69828,39409
69887,39385
69970,39369
70034,39370
70117,39387
70176,39412
70247,39459
70291,39504
70339,39576
70363,39634
70379,39717
" /> 
<polyline style="fill-rule:evenodd;"
points="70854,48969
70853,49040
70836,49116
70811,49172
70766,49235
70722,49277
70656,49319
70600,49341
70522,49355
70462,49353
70385,49337
70330,49312
70265,49267
70224,49224
70181,49158
70159,49102
70144,49024
70145,48965
70162,48887
70185,48832
70230,48767
70272,48725
70339,48682
70394,48660
70473,48644
70531,48645
70610,48661
70664,48684
70731,48729
70772,48770
70817,48837
70839,48891
70854,48969
" /> 
<polyline style="fill-rule:evenodd;"
points="70854,51969
70853,52040
70836,52116
70811,52172
70766,52235
70722,52277
70656,52319
70600,52341
70522,52355
70462,52353
70385,52337
70330,52312
70265,52267
70224,52224
70181,52158
70159,52102
70144,52024
70145,51965
70162,51887
70185,51832
70230,51767
70272,51725
70339,51682
70394,51660
70473,51644
70531,51645
70610,51661
70664,51684
70731,51729
70772,51770
70817,51837
70839,51891
70854,51969
" /> 
<polyline style="fill-rule:evenodd;"
points="70879,53217
70878,53293
70860,53374
70833,53434
70785,53502
70738,53547
70667,53592
70606,53615
70524,53630
70459,53628
70377,53610
70318,53584
70249,53537
70204,53490
70158,53419
70135,53359
70119,53276
70120,53212
70138,53129
70163,53070
70211,53001
70257,52956
70328,52909
70387,52885
70470,52869
70534,52870
70617,52887
70676,52912
70747,52959
70791,53004
70839,53076
70863,53134
70879,53217
" /> 
<polyline style="fill-rule:evenodd;"
points="71329,32947
71327,33068
71300,33187
71258,33283
71187,33383
71111,33455
71008,33521
70910,33559
70790,33580
70685,33578
70565,33552
70470,33510
70369,33440
70296,33365
70230,33261
70191,33165
70169,33043
70171,32940
70196,32819
70237,32724
70307,32621
70381,32549
70485,32481
70580,32443
70702,32419
70805,32420
70927,32445
71022,32485
71125,32555
71197,32627
71266,32731
71305,32826
71329,32947
" /> 
<polyline style="fill-rule:evenodd;"
points="71854,48969
71853,49040
71836,49116
71811,49172
71766,49235
71722,49277
71656,49319
71600,49341
71522,49355
71462,49353
71385,49337
71330,49312
71265,49267
71224,49224
71181,49158
71159,49102
71144,49024
71145,48965
71162,48887
71185,48832
71230,48767
71272,48725
71339,48682
71394,48660
71473,48644
71531,48645
71610,48661
71664,48684
71731,48729
71772,48770
71817,48837
71839,48891
71854,48969
" /> 
<polyline style="fill-rule:evenodd;"
points="71854,51969
71853,52040
71836,52116
71811,52172
71766,52235
71722,52277
71656,52319
71600,52341
71522,52355
71462,52353
71385,52337
71330,52312
71265,52267
71224,52224
71181,52158
71159,52102
71144,52024
71145,51965
71162,51887
71185,51832
71230,51767
71272,51725
71339,51682
71394,51660
71473,51644
71531,51645
71610,51661
71664,51684
71731,51729
71772,51770
71817,51837
71839,51891
71854,51969
" /> 
<polyline style="fill-rule:evenodd;"
points="71879,53629
71120,53629
71120,52870
71879,52870
71879,53629
" /> 
<polyline style="fill-rule:evenodd;"
points="72379,38217
72378,38293
72360,38374
72333,38434
72285,38502
72238,38547
72167,38592
72106,38615
72024,38630
71959,38628
71877,38610
71818,38584
71749,38537
71704,38490
71658,38419
71635,38359
71619,38276
71620,38212
71638,38129
71663,38070
71711,38001
71757,37956
71828,37909
71887,37885
71970,37869
72034,37870
72117,37887
72176,37912
72247,37959
72291,38004
72339,38076
72363,38134
72379,38217
" /> 
<polyline style="fill-rule:evenodd;"
points="72379,42217
72378,42293
72360,42374
72333,42434
72285,42502
72238,42547
72167,42592
72106,42615
72024,42630
71959,42628
71877,42610
71818,42584
71749,42537
71704,42490
71658,42419
71635,42359
71619,42276
71620,42212
71638,42129
71663,42070
71711,42001
71757,41956
71828,41909
71887,41885
71970,41869
72034,41870
72117,41887
72176,41912
72247,41959
72291,42004
72339,42076
72363,42134
72379,42217
" /> 
<polyline style="fill-rule:evenodd;"
points="72854,48969
72853,49040
72836,49116
72811,49172
72766,49235
72722,49277
72656,49319
72600,49341
72522,49355
72462,49353
72385,49337
72330,49312
72265,49267
72224,49224
72181,49158
72159,49102
72144,49024
72145,48965
72162,48887
72185,48832
72230,48767
72272,48725
72339,48682
72394,48660
72473,48644
72531,48645
72610,48661
72664,48684
72731,48729
72772,48770
72817,48837
72839,48891
72854,48969
" /> 
<polyline style="fill-rule:evenodd;"
points="72854,51969
72853,52040
72836,52116
72811,52172
72766,52235
72722,52277
72656,52319
72600,52341
72522,52355
72462,52353
72385,52337
72330,52312
72265,52267
72224,52224
72181,52158
72159,52102
72144,52024
72145,51965
72162,51887
72185,51832
72230,51767
72272,51725
72339,51682
72394,51660
72473,51644
72531,51645
72610,51661
72664,51684
72731,51729
72772,51770
72817,51837
72839,51891
72854,51969
" /> 
<polyline style="fill-rule:evenodd;"
points="73329,32947
73327,33068
73300,33187
73258,33283
73187,33383
73111,33455
73008,33521
72910,33559
72790,33580
72685,33578
72565,33552
72470,33510
72369,33440
72296,33365
72230,33261
72191,33165
72169,33043
72171,32940
72196,32819
72237,32724
72307,32621
72381,32549
72485,32481
72580,32443
72702,32419
72805,32420
72927,32445
73022,32485
73125,32555
73197,32627
73266,32731
73305,32826
73329,32947
" /> 
<polyline style="fill-rule:evenodd;"
points="73554,36269
73553,36340
73536,36416
73511,36472
73466,36535
73422,36577
73356,36619
73300,36641
73222,36655
73162,36653
73085,36637
73030,36612
72965,36567
72924,36524
72881,36458
72859,36402
72844,36324
72845,36265
72862,36187
72885,36132
72930,36067
72972,36025
73039,35982
73094,35960
73173,35944
73231,35945
73310,35961
73364,35984
73431,36029
73472,36070
73517,36137
73539,36191
73554,36269
" /> 
<polyline style="fill-rule:evenodd;"
points="73554,40269
73553,40340
73536,40416
73511,40472
73466,40535
73422,40577
73356,40619
73300,40641
73222,40655
73162,40653
73085,40637
73030,40612
72965,40567
72924,40524
72881,40458
72859,40402
72844,40324
72845,40265
72862,40187
72885,40132
72930,40067
72972,40025
73039,39982
73094,39960
73173,39944
73231,39945
73310,39961
73364,39984
73431,40029
73472,40070
73517,40137
73539,40191
73554,40269
" /> 
<polyline style="fill-rule:evenodd;"
points="75329,32947
75327,33068
75300,33187
75258,33283
75187,33383
75111,33455
75008,33521
74910,33559
74790,33580
74685,33578
74565,33552
74470,33510
74369,33440
74296,33365
74230,33261
74191,33165
74169,33043
74171,32940
74196,32819
74237,32724
74307,32621
74381,32549
74485,32481
74580,32443
74702,32419
74805,32420
74927,32445
75022,32485
75125,32555
75197,32627
75266,32731
75305,32826
75329,32947
" /> 
<polyline style="fill-rule:evenodd;"
points="75879,35717
75878,35793
75860,35874
75833,35934
75785,36002
75738,36047
75667,36092
75606,36115
75524,36130
75459,36128
75377,36110
75318,36084
75249,36037
75204,35990
75158,35919
75135,35859
75119,35776
75120,35712
75138,35629
75163,35570
75211,35501
75257,35456
75328,35409
75387,35385
75470,35369
75534,35370
75617,35387
75676,35412
75747,35459
75791,35504
75839,35576
75863,35634
75879,35717
" /> 
<polyline style="fill-rule:evenodd;"
points="75879,39717
75878,39793
75860,39874
75833,39934
75785,40002
75738,40047
75667,40092
75606,40115
75524,40130
75459,40128
75377,40110
75318,40084
75249,40037
75204,39990
75158,39919
75135,39859
75119,39776
75120,39712
75138,39629
75163,39570
75211,39501
75257,39456
75328,39409
75387,39385
75470,39369
75534,39370
75617,39387
75676,39412
75747,39459
75791,39504
75839,39576
75863,39634
75879,39717
" /> 
<polyline style="fill-rule:evenodd;"
points="76854,53469
76853,53540
76836,53616
76811,53672
76766,53735
76722,53777
76656,53819
76600,53841
76522,53855
76462,53853
76385,53837
76330,53812
76265,53767
76224,53724
76181,53658
76159,53602
76144,53524
76145,53465
76162,53387
76185,53332
76230,53267
76272,53225
76339,53182
76394,53160
76473,53144
76531,53145
76610,53161
76664,53184
76731,53229
76772,53270
76817,53337
76839,53391
76854,53469
" /> 
<polyline style="fill-rule:evenodd;"
points="76854,56719
76853,56790
76836,56866
76811,56922
76766,56985
76722,57027
76656,57069
76600,57091
76522,57105
76462,57103
76385,57087
76330,57062
76265,57017
76224,56974
76181,56908
76159,56852
76144,56774
76145,56715
76162,56637
76185,56582
76230,56517
76272,56475
76339,56432
76394,56410
76473,56394
76531,56395
76610,56411
76664,56434
76731,56479
76772,56520
76817,56587
76839,56641
76854,56719
" /> 
<polyline style="fill-rule:evenodd;"
points="77879,38217
77878,38293
77860,38374
77833,38434
77785,38502
77738,38547
77667,38592
77606,38615
77524,38630
77459,38628
77377,38610
77318,38584
77249,38537
77204,38490
77158,38419
77135,38359
77119,38276
77120,38212
77138,38129
77163,38070
77211,38001
77257,37956
77328,37909
77387,37885
77470,37869
77534,37870
77617,37887
77676,37912
77747,37959
77791,38004
77839,38076
77863,38134
77879,38217
" /> 
<polyline style="fill-rule:evenodd;"
points="77879,42217
77878,42293
77860,42374
77833,42434
77785,42502
77738,42547
77667,42592
77606,42615
77524,42630
77459,42628
77377,42610
77318,42584
77249,42537
77204,42490
77158,42419
77135,42359
77119,42276
77120,42212
77138,42129
77163,42070
77211,42001
77257,41956
77328,41909
77387,41885
77470,41869
77534,41870
77617,41887
77676,41912
77747,41959
77791,42004
77839,42076
77863,42134
77879,42217
" /> 
<polyline style="fill-rule:evenodd;"
points="78129,53467
78128,53543
78110,53624
78083,53684
78035,53752
77988,53797
77917,53842
77856,53865
77774,53880
77709,53878
77627,53860
77568,53834
77499,53787
77454,53740
77408,53669
77385,53609
77369,53526
77370,53462
77388,53379
77413,53320
77461,53251
77507,53206
77578,53159
77637,53135
77720,53119
77784,53120
77867,53137
77926,53162
77997,53209
78041,53254
78089,53326
78113,53384
78129,53467
" /> 
<polyline style="fill-rule:evenodd;"
points="78854,48969
78853,49040
78836,49116
78811,49172
78766,49235
78722,49277
78656,49319
78600,49341
78522,49355
78462,49353
78385,49337
78330,49312
78265,49267
78224,49224
78181,49158
78159,49102
78144,49024
78145,48965
78162,48887
78185,48832
78230,48767
78272,48725
78339,48682
78394,48660
78473,48644
78531,48645
78610,48661
78664,48684
78731,48729
78772,48770
78817,48837
78839,48891
78854,48969
" /> 
<polyline style="fill-rule:evenodd;"
points="78854,51969
78853,52040
78836,52116
78811,52172
78766,52235
78722,52277
78656,52319
78600,52341
78522,52355
78462,52353
78385,52337
78330,52312
78265,52267
78224,52224
78181,52158
78159,52102
78144,52024
78145,51965
78162,51887
78185,51832
78230,51767
78272,51725
78339,51682
78394,51660
78473,51644
78531,51645
78610,51661
78664,51684
78731,51729
78772,51770
78817,51837
78839,51891
78854,51969
" /> 
<polyline style="fill-rule:evenodd;"
points="79154,36269
79153,36340
79136,36416
79111,36472
79066,36535
79022,36577
78956,36619
78900,36641
78822,36655
78762,36653
78685,36637
78630,36612
78565,36567
78524,36524
78481,36458
78459,36402
78444,36324
78445,36265
78462,36187
78485,36132
78530,36067
78572,36025
78639,35982
78694,35960
78773,35944
78831,35945
78910,35961
78964,35984
79031,36029
79072,36070
79117,36137
79139,36191
79154,36269
" /> 
<polyline style="fill-rule:evenodd;"
points="79154,40269
79153,40340
79136,40416
79111,40472
79066,40535
79022,40577
78956,40619
78900,40641
78822,40655
78762,40653
78685,40637
78630,40612
78565,40567
78524,40524
78481,40458
78459,40402
78444,40324
78445,40265
78462,40187
78485,40132
78530,40067
78572,40025
78639,39982
78694,39960
78773,39944
78831,39945
78910,39961
78964,39984
79031,40029
79072,40070
79117,40137
79139,40191
79154,40269
" /> 
<polyline style="fill-rule:evenodd;"
points="79329,57329
78170,57329
78170,56170
79329,56170
79329,57329
" /> 
<polyline style="fill-rule:evenodd;"
points="81104,48969
81103,49040
81086,49116
81061,49172
81016,49235
80972,49277
80906,49319
80850,49341
80772,49355
80712,49353
80635,49337
80580,49312
80515,49267
80474,49224
80431,49158
80409,49102
80394,49024
80395,48965
80412,48887
80435,48832
80480,48767
80522,48725
80589,48682
80644,48660
80723,48644
80781,48645
80860,48661
80914,48684
80981,48729
81022,48770
81067,48837
81089,48891
81104,48969
" /> 
<polyline style="fill-rule:evenodd;"
points="81104,52354
80395,52354
80395,51645
81104,51645
81104,52354
" /> 
<polyline style="fill-rule:evenodd;"
points="81329,56697
81327,56818
81300,56937
81258,57033
81187,57133
81111,57205
81008,57271
80910,57309
80790,57330
80685,57328
80565,57302
80470,57260
80369,57190
80296,57115
80230,57011
80191,56915
80169,56793
80171,56690
80196,56569
80237,56474
80307,56371
80381,56299
80485,56231
80580,56193
80702,56169
80805,56170
80927,56195
81022,56235
81125,56305
81197,56377
81266,56481
81305,56576
81329,56697
" /> 
<polyline style="fill-rule:evenodd;"
points="81379,35717
81378,35793
81360,35874
81333,35934
81285,36002
81238,36047
81167,36092
81106,36115
81024,36130
80959,36128
80877,36110
80818,36084
80749,36037
80704,35990
80658,35919
80635,35859
80619,35776
80620,35712
80638,35629
80663,35570
80711,35501
80757,35456
80828,35409
80887,35385
80970,35369
81034,35370
81117,35387
81176,35412
81247,35459
81291,35504
81339,35576
81363,35634
81379,35717
" /> 
<polyline style="fill-rule:evenodd;"
points="81379,39717
81378,39793
81360,39874
81333,39934
81285,40002
81238,40047
81167,40092
81106,40115
81024,40130
80959,40128
80877,40110
80818,40084
80749,40037
80704,39990
80658,39919
80635,39859
80619,39776
80620,39712
80638,39629
80663,39570
80711,39501
80757,39456
80828,39409
80887,39385
80970,39369
81034,39370
81117,39387
81176,39412
81247,39459
81291,39504
81339,39576
81363,39634
81379,39717
" /> 
<polyline style="fill-rule:evenodd;"
points="82104,48969
82103,49040
82086,49116
82061,49172
82016,49235
81972,49277
81906,49319
81850,49341
81772,49355
81712,49353
81635,49337
81580,49312
81515,49267
81474,49224
81431,49158
81409,49102
81394,49024
81395,48965
81412,48887
81435,48832
81480,48767
81522,48725
81589,48682
81644,48660
81723,48644
81781,48645
81860,48661
81914,48684
81981,48729
82022,48770
82067,48837
82089,48891
82104,48969
" /> 
<polyline style="fill-rule:evenodd;"
points="82104,51969
82103,52040
82086,52116
82061,52172
82016,52235
81972,52277
81906,52319
81850,52341
81772,52355
81712,52353
81635,52337
81580,52312
81515,52267
81474,52224
81431,52158
81409,52102
81394,52024
81395,51965
81412,51887
81435,51832
81480,51767
81522,51725
81589,51682
81644,51660
81723,51644
81781,51645
81860,51661
81914,51684
81981,51729
82022,51770
82067,51837
82089,51891
82104,51969
" /> 
<polyline style="fill-rule:evenodd;"
points="82129,47467
82128,47543
82110,47624
82083,47684
82035,47752
81988,47797
81917,47842
81856,47865
81774,47880
81709,47878
81627,47860
81568,47834
81499,47787
81454,47740
81408,47669
81385,47609
81369,47526
81370,47462
81388,47379
81413,47320
81461,47251
81507,47206
81578,47159
81637,47135
81720,47119
81784,47120
81867,47137
81926,47162
81997,47209
82041,47254
82089,47326
82113,47384
82129,47467
" /> 
<polyline style="fill-rule:evenodd;"
points="82329,32947
82327,33068
82300,33187
82258,33283
82187,33383
82111,33455
82008,33521
81910,33559
81790,33580
81685,33578
81565,33552
81470,33510
81369,33440
81296,33365
81230,33261
81191,33165
81169,33043
81171,32940
81196,32819
81237,32724
81307,32621
81381,32549
81485,32481
81580,32443
81702,32419
81805,32420
81927,32445
82022,32485
82125,32555
82197,32627
82266,32731
82305,32826
82329,32947
" /> 
<polyline style="fill-rule:evenodd;"
points="82379,53467
82378,53543
82360,53624
82333,53684
82285,53752
82238,53797
82167,53842
82106,53865
82024,53880
81959,53878
81877,53860
81818,53834
81749,53787
81704,53740
81658,53669
81635,53609
81619,53526
81620,53462
81638,53379
81663,53320
81711,53251
81757,53206
81828,53159
81887,53135
81970,53119
82034,53120
82117,53137
82176,53162
82247,53209
82291,53254
82339,53326
82363,53384
82379,53467
" /> 
<polyline style="fill-rule:evenodd;"
points="83104,48969
83103,49040
83086,49116
83061,49172
83016,49235
82972,49277
82906,49319
82850,49341
82772,49355
82712,49353
82635,49337
82580,49312
82515,49267
82474,49224
82431,49158
82409,49102
82394,49024
82395,48965
82412,48887
82435,48832
82480,48767
82522,48725
82589,48682
82644,48660
82723,48644
82781,48645
82860,48661
82914,48684
82981,48729
83022,48770
83067,48837
83089,48891
83104,48969
" /> 
<polyline style="fill-rule:evenodd;"
points="83104,51969
83103,52040
83086,52116
83061,52172
83016,52235
82972,52277
82906,52319
82850,52341
82772,52355
82712,52353
82635,52337
82580,52312
82515,52267
82474,52224
82431,52158
82409,52102
82394,52024
82395,51965
82412,51887
82435,51832
82480,51767
82522,51725
82589,51682
82644,51660
82723,51644
82781,51645
82860,51661
82914,51684
82981,51729
83022,51770
83067,51837
83089,51891
83104,51969
" /> 
<polyline style="fill-rule:evenodd;"
points="83104,54969
83103,55040
83086,55116
83061,55172
83016,55235
82972,55277
82906,55319
82850,55341
82772,55355
82712,55353
82635,55337
82580,55312
82515,55267
82474,55224
82431,55158
82409,55102
82394,55024
82395,54965
82412,54887
82435,54832
82480,54767
82522,54725
82589,54682
82644,54660
82723,54644
82781,54645
82860,54661
82914,54684
82981,54729
83022,54770
83067,54837
83089,54891
83104,54969
" /> 
<polyline style="fill-rule:evenodd;"
points="83104,56969
83103,57040
83086,57116
83061,57172
83016,57235
82972,57277
82906,57319
82850,57341
82772,57355
82712,57353
82635,57337
82580,57312
82515,57267
82474,57224
82431,57158
82409,57102
82394,57024
82395,56965
82412,56887
82435,56832
82480,56767
82522,56725
82589,56682
82644,56660
82723,56644
82781,56645
82860,56661
82914,56684
82981,56729
83022,56770
83067,56837
83089,56891
83104,56969
" /> 
<polyline style="fill-rule:evenodd;"
points="83129,47879
82370,47879
82370,47120
83129,47120
83129,47879
" /> 
<polyline style="fill-rule:evenodd;"
points="83379,38217
83378,38293
83360,38374
83333,38434
83285,38502
83238,38547
83167,38592
83106,38615
83024,38630
82959,38628
82877,38610
82818,38584
82749,38537
82704,38490
82658,38419
82635,38359
82619,38276
82620,38212
82638,38129
82663,38070
82711,38001
82757,37956
82828,37909
82887,37885
82970,37869
83034,37870
83117,37887
83176,37912
83247,37959
83291,38004
83339,38076
83363,38134
83379,38217
" /> 
<polyline style="fill-rule:evenodd;"
points="83379,42217
83378,42293
83360,42374
83333,42434
83285,42502
83238,42547
83167,42592
83106,42615
83024,42630
82959,42628
82877,42610
82818,42584
82749,42537
82704,42490
82658,42419
82635,42359
82619,42276
82620,42212
82638,42129
82663,42070
82711,42001
82757,41956
82828,41909
82887,41885
82970,41869
83034,41870
83117,41887
83176,41912
83247,41959
83291,42004
83339,42076
83363,42134
83379,42217
" /> 
<polyline style="fill-rule:evenodd;"
points="84104,48969
84103,49040
84086,49116
84061,49172
84016,49235
83972,49277
83906,49319
83850,49341
83772,49355
83712,49353
83635,49337
83580,49312
83515,49267
83474,49224
83431,49158
83409,49102
83394,49024
83395,48965
83412,48887
83435,48832
83480,48767
83522,48725
83589,48682
83644,48660
83723,48644
83781,48645
83860,48661
83914,48684
83981,48729
84022,48770
84067,48837
84089,48891
84104,48969
" /> 
<polyline style="fill-rule:evenodd;"
points="84104,51969
84103,52040
84086,52116
84061,52172
84016,52235
83972,52277
83906,52319
83850,52341
83772,52355
83712,52353
83635,52337
83580,52312
83515,52267
83474,52224
83431,52158
83409,52102
83394,52024
83395,51965
83412,51887
83435,51832
83480,51767
83522,51725
83589,51682
83644,51660
83723,51644
83781,51645
83860,51661
83914,51684
83981,51729
84022,51770
84067,51837
84089,51891
84104,51969
" /> 
<polyline style="fill-rule:evenodd;"
points="84329,32947
84327,33068
84300,33187
84258,33283
84187,33383
84111,33455
84008,33521
83910,33559
83790,33580
83685,33578
83565,33552
83470,33510
83369,33440
83296,33365
83230,33261
83191,33165
83169,33043
83171,32940
83196,32819
83237,32724
83307,32621
83381,32549
83485,32481
83580,32443
83702,32419
83805,32420
83927,32445
84022,32485
84125,32555
84197,32627
84266,32731
84305,32826
84329,32947
" /> 
<polyline style="fill-rule:evenodd;"
points="84354,55469
84353,55540
84336,55616
84311,55672
84266,55735
84222,55777
84156,55819
84100,55841
84022,55855
83962,55853
83885,55837
83830,55812
83765,55767
83724,55724
83681,55658
83659,55602
83644,55524
83645,55465
83662,55387
83685,55332
83730,55267
83772,55225
83839,55182
83894,55160
83973,55144
84031,55145
84110,55161
84164,55184
84231,55229
84272,55270
84317,55337
84339,55391
84354,55469
" /> 
<polyline style="fill-rule:evenodd;"
points="84654,36269
84653,36340
84636,36416
84611,36472
84566,36535
84522,36577
84456,36619
84400,36641
84322,36655
84262,36653
84185,36637
84130,36612
84065,36567
84024,36524
83981,36458
83959,36402
83944,36324
83945,36265
83962,36187
83985,36132
84030,36067
84072,36025
84139,35982
84194,35960
84273,35944
84331,35945
84410,35961
84464,35984
84531,36029
84572,36070
84617,36137
84639,36191
84654,36269
" /> 
<polyline style="fill-rule:evenodd;"
points="84654,40269
84653,40340
84636,40416
84611,40472
84566,40535
84522,40577
84456,40619
84400,40641
84322,40655
84262,40653
84185,40637
84130,40612
84065,40567
84024,40524
83981,40458
83959,40402
83944,40324
83945,40265
83962,40187
83985,40132
84030,40067
84072,40025
84139,39982
84194,39960
84273,39944
84331,39945
84410,39961
84464,39984
84531,40029
84572,40070
84617,40137
84639,40191
84654,40269
" /> 
<polyline style="fill-rule:evenodd;"
points="85104,48969
85103,49040
85086,49116
85061,49172
85016,49235
84972,49277
84906,49319
84850,49341
84772,49355
84712,49353
84635,49337
84580,49312
84515,49267
84474,49224
84431,49158
84409,49102
84394,49024
84395,48965
84412,48887
84435,48832
84480,48767
84522,48725
84589,48682
84644,48660
84723,48644
84781,48645
84860,48661
84914,48684
84981,48729
85022,48770
85067,48837
85089,48891
85104,48969
" /> 
<polyline style="fill-rule:evenodd;"
points="85104,51969
85103,52040
85086,52116
85061,52172
85016,52235
84972,52277
84906,52319
84850,52341
84772,52355
84712,52353
84635,52337
84580,52312
84515,52267
84474,52224
84431,52158
84409,52102
84394,52024
84395,51965
84412,51887
84435,51832
84480,51767
84522,51725
84589,51682
84644,51660
84723,51644
84781,51645
84860,51661
84914,51684
84981,51729
85022,51770
85067,51837
85089,51891
85104,51969
" /> 
<polyline style="fill-rule:evenodd;"
points="85854,56969
85853,57040
85836,57116
85811,57172
85766,57235
85722,57277
85656,57319
85600,57341
85522,57355
85462,57353
85385,57337
85330,57312
85265,57267
85224,57224
85181,57158
85159,57102
85144,57024
85145,56965
85162,56887
85185,56832
85230,56767
85272,56725
85339,56682
85394,56660
85473,56644
85531,56645
85610,56661
85664,56684
85731,56729
85772,56770
85817,56837
85839,56891
85854,56969
" /> 
<polyline style="fill-rule:evenodd;"
points="86104,48969
86103,49040
86086,49116
86061,49172
86016,49235
85972,49277
85906,49319
85850,49341
85772,49355
85712,49353
85635,49337
85580,49312
85515,49267
85474,49224
85431,49158
85409,49102
85394,49024
85395,48965
85412,48887
85435,48832
85480,48767
85522,48725
85589,48682
85644,48660
85723,48644
85781,48645
85860,48661
85914,48684
85981,48729
86022,48770
86067,48837
86089,48891
86104,48969
" /> 
<polyline style="fill-rule:evenodd;"
points="86104,51969
86103,52040
86086,52116
86061,52172
86016,52235
85972,52277
85906,52319
85850,52341
85772,52355
85712,52353
85635,52337
85580,52312
85515,52267
85474,52224
85431,52158
85409,52102
85394,52024
85395,51965
85412,51887
85435,51832
85480,51767
85522,51725
85589,51682
85644,51660
85723,51644
85781,51645
85860,51661
85914,51684
85981,51729
86022,51770
86067,51837
86089,51891
86104,51969
" /> 
<polyline style="fill-rule:evenodd;"
points="86329,32947
86327,33068
86300,33187
86258,33283
86187,33383
86111,33455
86008,33521
85910,33559
85790,33580
85685,33578
85565,33552
85470,33510
85369,33440
85296,33365
85230,33261
85191,33165
85169,33043
85171,32940
85196,32819
85237,32724
85307,32621
85381,32549
85485,32481
85580,32443
85702,32419
85805,32420
85927,32445
86022,32485
86125,32555
86197,32627
86266,32731
86305,32826
86329,32947
" /> 
<polyline style="fill-rule:evenodd;"
points="86354,54969
86353,55040
86336,55116
86311,55172
86266,55235
86222,55277
86156,55319
86100,55341
86022,55355
85962,55353
85885,55337
85830,55312
85765,55267
85724,55224
85681,55158
85659,55102
85644,55024
85645,54965
85662,54887
85685,54832
85730,54767
85772,54725
85839,54682
85894,54660
85973,54644
86031,54645
86110,54661
86164,54684
86231,54729
86272,54770
86317,54837
86339,54891
86354,54969
" /> 
<polyline style="fill-rule:evenodd;"
points="86879,35717
86878,35793
86860,35874
86833,35934
86785,36002
86738,36047
86667,36092
86606,36115
86524,36130
86459,36128
86377,36110
86318,36084
86249,36037
86204,35990
86158,35919
86135,35859
86119,35776
86120,35712
86138,35629
86163,35570
86211,35501
86257,35456
86328,35409
86387,35385
86470,35369
86534,35370
86617,35387
86676,35412
86747,35459
86791,35504
86839,35576
86863,35634
86879,35717
" /> 
<polyline style="fill-rule:evenodd;"
points="86879,39717
86878,39793
86860,39874
86833,39934
86785,40002
86738,40047
86667,40092
86606,40115
86524,40130
86459,40128
86377,40110
86318,40084
86249,40037
86204,39990
86158,39919
86135,39859
86119,39776
86120,39712
86138,39629
86163,39570
86211,39501
86257,39456
86328,39409
86387,39385
86470,39369
86534,39370
86617,39387
86676,39412
86747,39459
86791,39504
86839,39576
86863,39634
86879,39717
" /> 
<polyline style="fill-rule:evenodd;"
points="87104,48969
87103,49040
87086,49116
87061,49172
87016,49235
86972,49277
86906,49319
86850,49341
86772,49355
86712,49353
86635,49337
86580,49312
86515,49267
86474,49224
86431,49158
86409,49102
86394,49024
86395,48965
86412,48887
86435,48832
86480,48767
86522,48725
86589,48682
86644,48660
86723,48644
86781,48645
86860,48661
86914,48684
86981,48729
87022,48770
87067,48837
87089,48891
87104,48969
" /> 
<polyline style="fill-rule:evenodd;"
points="87104,51969
87103,52040
87086,52116
87061,52172
87016,52235
86972,52277
86906,52319
86850,52341
86772,52355
86712,52353
86635,52337
86580,52312
86515,52267
86474,52224
86431,52158
86409,52102
86394,52024
86395,51965
86412,51887
86435,51832
86480,51767
86522,51725
86589,51682
86644,51660
86723,51644
86781,51645
86860,51661
86914,51684
86981,51729
87022,51770
87067,51837
87089,51891
87104,51969
" /> 
<polyline style="fill-rule:evenodd;"
points="89129,38217
89128,38293
89110,38374
89083,38434
89035,38502
88988,38547
88917,38592
88856,38615
88774,38630
88709,38628
88627,38610
88568,38584
88499,38537
88454,38490
88408,38419
88385,38359
88369,38276
88370,38212
88388,38129
88413,38070
88461,38001
88507,37956
88578,37909
88637,37885
88720,37869
88784,37870
88867,37887
88926,37912
88997,37959
89041,38004
89089,38076
89113,38134
89129,38217
" /> 
<polyline style="fill-rule:evenodd;"
points="89129,42217
89128,42293
89110,42374
89083,42434
89035,42502
88988,42547
88917,42592
88856,42615
88774,42630
88709,42628
88627,42610
88568,42584
88499,42537
88454,42490
88408,42419
88385,42359
88369,42276
88370,42212
88388,42129
88413,42070
88461,42001
88507,41956
88578,41909
88637,41885
88720,41869
88784,41870
88867,41887
88926,41912
88997,41959
89041,42004
89089,42076
89113,42134
89129,42217
" /> 
<polyline style="fill-rule:evenodd;"
points="89879,53967
89878,54043
89860,54124
89833,54184
89785,54252
89738,54297
89667,54342
89606,54365
89524,54380
89459,54378
89377,54360
89318,54334
89249,54287
89204,54240
89158,54169
89135,54109
89119,54026
89120,53962
89138,53879
89163,53820
89211,53751
89257,53706
89328,53659
89387,53635
89470,53619
89534,53620
89617,53637
89676,53662
89747,53709
89791,53754
89839,53826
89863,53884
89879,53967
" /> 
<polyline style="fill-rule:evenodd;"
points="89879,53379
89120,53379
89120,52620
89879,52620
89879,53379
" /> 
<polyline style="fill-rule:evenodd;"
points="90354,36969
90353,37040
90336,37116
90311,37172
90266,37235
90222,37277
90156,37319
90100,37341
90022,37355
89962,37353
89885,37337
89830,37312
89765,37267
89724,37224
89681,37158
89659,37102
89644,37024
89645,36965
89662,36887
89685,36832
89730,36767
89772,36725
89839,36682
89894,36660
89973,36644
90031,36645
90110,36661
90164,36684
90231,36729
90272,36770
90317,36837
90339,36891
90354,36969
" /> 
<polyline style="fill-rule:evenodd;"
points="90354,41269
90353,41340
90336,41416
90311,41472
90266,41535
90222,41577
90156,41619
90100,41641
90022,41655
89962,41653
89885,41637
89830,41612
89765,41567
89724,41524
89681,41458
89659,41402
89644,41324
89645,41265
89662,41187
89685,41132
89730,41067
89772,41025
89839,40982
89894,40960
89973,40944
90031,40945
90110,40961
90164,40984
90231,41029
90272,41070
90317,41137
90339,41191
90354,41269
" /> 
<polyline style="fill-rule:evenodd;"
points="91604,54719
91603,54790
91586,54866
91561,54922
91516,54985
91472,55027
91406,55069
91350,55091
91272,55105
91212,55103
91135,55087
91080,55062
91015,55017
90974,54974
90931,54908
90909,54852
90894,54774
90895,54715
90912,54637
90935,54582
90980,54517
91022,54475
91089,54432
91144,54410
91223,54394
91281,54395
91360,54411
91414,54434
91481,54479
91522,54520
91567,54587
91589,54641
91604,54719
" /> 
<polyline style="fill-rule:evenodd;"
points="91604,56719
91603,56790
91586,56866
91561,56922
91516,56985
91472,57027
91406,57069
91350,57091
91272,57105
91212,57103
91135,57087
91080,57062
91015,57017
90974,56974
90931,56908
90909,56852
90894,56774
90895,56715
90912,56637
90935,56582
90980,56517
91022,56475
91089,56432
91144,56410
91223,56394
91281,56395
91360,56411
91414,56434
91481,56479
91522,56520
91567,56587
91589,56641
91604,56719
" /> 
<polyline style="fill-rule:evenodd;"
points="92629,35717
92628,35793
92610,35874
92583,35934
92535,36002
92488,36047
92417,36092
92356,36115
92274,36130
92209,36128
92127,36110
92068,36084
91999,36037
91954,35990
91908,35919
91885,35859
91869,35776
91870,35712
91888,35629
91913,35570
91961,35501
92007,35456
92078,35409
92137,35385
92220,35369
92284,35370
92367,35387
92426,35412
92497,35459
92541,35504
92589,35576
92613,35634
92629,35717
" /> 
<polyline style="fill-rule:evenodd;"
points="92629,39717
92628,39793
92610,39874
92583,39934
92535,40002
92488,40047
92417,40092
92356,40115
92274,40130
92209,40128
92127,40110
92068,40084
91999,40037
91954,39990
91908,39919
91885,39859
91869,39776
91870,39712
91888,39629
91913,39570
91961,39501
92007,39456
92078,39409
92137,39385
92220,39369
92284,39370
92367,39387
92426,39412
92497,39459
92541,39504
92589,39576
92613,39634
92629,39717
" /> 
<polyline style="fill-rule:evenodd;"
points="92879,53467
92878,53543
92860,53624
92833,53684
92785,53752
92738,53797
92667,53842
92606,53865
92524,53880
92459,53878
92377,53860
92318,53834
92249,53787
92204,53740
92158,53669
92135,53609
92119,53526
92120,53462
92138,53379
92163,53320
92211,53251
92257,53206
92328,53159
92387,53135
92470,53119
92534,53120
92617,53137
92676,53162
92747,53209
92791,53254
92839,53326
92863,53384
92879,53467
" /> 
<polyline style="fill-rule:evenodd;"
points="93579,32947
93577,33068
93550,33187
93508,33283
93437,33383
93361,33455
93258,33521
93160,33559
93040,33580
92935,33578
92815,33552
92720,33510
92619,33440
92546,33365
92480,33261
92441,33165
92419,33043
92421,32940
92446,32819
92487,32724
92557,32621
92631,32549
92735,32481
92830,32443
92952,32419
93055,32420
93177,32445
93272,32485
93375,32555
93447,32627
93516,32731
93555,32826
93579,32947
" /> 
<polyline style="fill-rule:evenodd;"
points="94329,57329
93170,57329
93170,56170
94329,56170
94329,57329
" /> 
<polyline style="fill-rule:evenodd;"
points="94629,38217
94628,38293
94610,38374
94583,38434
94535,38502
94488,38547
94417,38592
94356,38615
94274,38630
94209,38628
94127,38610
94068,38584
93999,38537
93954,38490
93908,38419
93885,38359
93869,38276
93870,38212
93888,38129
93913,38070
93961,38001
94007,37956
94078,37909
94137,37885
94220,37869
94284,37870
94367,37887
94426,37912
94497,37959
94541,38004
94589,38076
94613,38134
94629,38217
" /> 
<polyline style="fill-rule:evenodd;"
points="94629,42217
94628,42293
94610,42374
94583,42434
94535,42502
94488,42547
94417,42592
94356,42615
94274,42630
94209,42628
94127,42610
94068,42584
93999,42537
93954,42490
93908,42419
93885,42359
93869,42276
93870,42212
93888,42129
93913,42070
93961,42001
94007,41956
94078,41909
94137,41885
94220,41869
94284,41870
94367,41887
94426,41912
94497,41959
94541,42004
94589,42076
94613,42134
94629,42217
" /> 
<polyline style="fill-rule:evenodd;"
points="95579,32947
95577,33068
95550,33187
95508,33283
95437,33383
95361,33455
95258,33521
95160,33559
95040,33580
94935,33578
94815,33552
94720,33510
94619,33440
94546,33365
94480,33261
94441,33165
94419,33043
94421,32940
94446,32819
94487,32724
94557,32621
94631,32549
94735,32481
94830,32443
94952,32419
95055,32420
95177,32445
95272,32485
95375,32555
95447,32627
95516,32731
95555,32826
95579,32947
" /> 
<polyline style="fill-rule:evenodd;"
points="95854,36969
95853,37040
95836,37116
95811,37172
95766,37235
95722,37277
95656,37319
95600,37341
95522,37355
95462,37353
95385,37337
95330,37312
95265,37267
95224,37224
95181,37158
95159,37102
95144,37024
95145,36965
95162,36887
95185,36832
95230,36767
95272,36725
95339,36682
95394,36660
95473,36644
95531,36645
95610,36661
95664,36684
95731,36729
95772,36770
95817,36837
95839,36891
95854,36969
" /> 
<polyline style="fill-rule:evenodd;"
points="95854,40969
95853,41040
95836,41116
95811,41172
95766,41235
95722,41277
95656,41319
95600,41341
95522,41355
95462,41353
95385,41337
95330,41312
95265,41267
95224,41224
95181,41158
95159,41102
95144,41024
95145,40965
95162,40887
95185,40832
95230,40767
95272,40725
95339,40682
95394,40660
95473,40644
95531,40645
95610,40661
95664,40684
95731,40729
95772,40770
95817,40837
95839,40891
95854,40969
" /> 
<polyline style="fill-rule:evenodd;"
points="96329,56697
96327,56818
96300,56937
96258,57033
96187,57133
96111,57205
96008,57271
95910,57309
95790,57330
95685,57328
95565,57302
95470,57260
95369,57190
95296,57115
95230,57011
95191,56915
95169,56793
95171,56690
95196,56569
95237,56474
95307,56371
95381,56299
95485,56231
95580,56193
95702,56169
95805,56170
95927,56195
96022,56235
96125,56305
96197,56377
96266,56481
96305,56576
96329,56697
" /> 
<polyline style="fill-rule:evenodd;"
points="96879,53467
96878,53543
96860,53624
96833,53684
96785,53752
96738,53797
96667,53842
96606,53865
96524,53880
96459,53878
96377,53860
96318,53834
96249,53787
96204,53740
96158,53669
96135,53609
96119,53526
96120,53462
96138,53379
96163,53320
96211,53251
96257,53206
96328,53159
96387,53135
96470,53119
96534,53120
96617,53137
96676,53162
96747,53209
96791,53254
96839,53326
96863,53384
96879,53467
" /> 
<polyline style="fill-rule:evenodd;"
points="97579,32947
97577,33068
97550,33187
97508,33283
97437,33383
97361,33455
97258,33521
97160,33559
97040,33580
96935,33578
96815,33552
96720,33510
96619,33440
96546,33365
96480,33261
96441,33165
96419,33043
96421,32940
96446,32819
96487,32724
96557,32621
96631,32549
96735,32481
96830,32443
96952,32419
97055,32420
97177,32445
97272,32485
97375,32555
97447,32627
97516,32731
97555,32826
97579,32947
" /> 
<polyline style="fill-rule:evenodd;"
points="98129,35717
98128,35793
98110,35874
98083,35934
98035,36002
97988,36047
97917,36092
97856,36115
97774,36130
97709,36128
97627,36110
97568,36084
97499,36037
97454,35990
97408,35919
97385,35859
97369,35776
97370,35712
97388,35629
97413,35570
97461,35501
97507,35456
97578,35409
97637,35385
97720,35369
97784,35370
97867,35387
97926,35412
97997,35459
98041,35504
98089,35576
98113,35634
98129,35717
" /> 
<polyline style="fill-rule:evenodd;"
points="98129,39717
98128,39793
98110,39874
98083,39934
98035,40002
97988,40047
97917,40092
97856,40115
97774,40130
97709,40128
97627,40110
97568,40084
97499,40037
97454,39990
97408,39919
97385,39859
97369,39776
97370,39712
97388,39629
97413,39570
97461,39501
97507,39456
97578,39409
97637,39385
97720,39369
97784,39370
97867,39387
97926,39412
97997,39459
98041,39504
98089,39576
98113,39634
98129,39717
" /> 
</g> 
</svg>
