%TF.GenerationSoftware,KiCad,Pcbnew,10.0.3*%
%TF.CreationDate,2026-06-26T13:55:03+03:00*%
%TF.ProjectId,ground_loop_breaker,67726f75-6e64-45f6-9c6f-6f705f627265,rev?*%
%TF.SameCoordinates,Original*%
%TF.FileFunction,Copper,L2,Bot*%
%TF.FilePolarity,Positive*%
%FSLAX46Y46*%
G04 Gerber Fmt 4.6, Leading zero omitted, Abs format (unit mm)*
G04 Created by KiCad (PCBNEW 10.0.3) date 2026-06-26 13:55:03*
%MOMM*%
%LPD*%
G01*
G04 APERTURE LIST*
G04 Aperture macros list*
%AMRoundRect*
0 Rectangle with rounded corners*
0 $1 Rounding radius*
0 $2 $3 $4 $5 $6 $7 $8 $9 X,Y pos of 4 corners*
0 Add a 4 corners polygon primitive as box body*
4,1,4,$2,$3,$4,$5,$6,$7,$8,$9,$2,$3,0*
0 Add four circle primitives for the rounded corners*
1,1,$1+$1,$2,$3*
1,1,$1+$1,$4,$5*
1,1,$1+$1,$6,$7*
1,1,$1+$1,$8,$9*
0 Add four rect primitives between the rounded corners*
20,1,$1+$1,$2,$3,$4,$5,0*
20,1,$1+$1,$4,$5,$6,$7,0*
20,1,$1+$1,$6,$7,$8,$9,0*
20,1,$1+$1,$8,$9,$2,$3,0*%
G04 Aperture macros list end*
%TA.AperFunction,ComponentPad*%
%ADD10RoundRect,0.600000X-0.900000X-0.900000X0.900000X-0.900000X0.900000X0.900000X-0.900000X0.900000X0*%
%TD*%
%TA.AperFunction,ComponentPad*%
%ADD11C,3.000000*%
%TD*%
%TA.AperFunction,ComponentPad*%
%ADD12C,2.400000*%
%TD*%
%TA.AperFunction,ComponentPad*%
%ADD13RoundRect,0.600000X0.900000X0.900000X-0.900000X0.900000X-0.900000X-0.900000X0.900000X-0.900000X0*%
%TD*%
%TA.AperFunction,Conductor*%
%ADD14C,3.000000*%
%TD*%
%TA.AperFunction,Conductor*%
%ADD15C,0.200000*%
%TD*%
%TA.AperFunction,Profile*%
%ADD16C,0.200000*%
%TD*%
G04 APERTURE END LIST*
D10*
%TO.P,J1,2,Pin_2_2*%
%TO.N,Net-(D1-A)*%
X93940000Y-52070000D03*
%TO.P,J1,1,Pin_1_1*%
X88940000Y-52070000D03*
%TD*%
D11*
%TO.P,D1,1,K_1*%
%TO.N,Net-(D1-K)*%
X96139000Y-66802000D03*
%TO.P,D1,2,A_2*%
%TO.N,Net-(D1-A)*%
X96139000Y-71882000D03*
%TD*%
D12*
%TO.P,R1,1*%
%TO.N,Net-(D1-A)*%
X88900000Y-60706000D03*
%TO.P,R1,2*%
%TO.N,Net-(D1-K)*%
X116840000Y-60706000D03*
%TD*%
D13*
%TO.P,J2,1,Pin_1_1*%
%TO.N,Net-(D1-K)*%
X116990000Y-52705000D03*
%TO.P,J2,2,Pin_2_2*%
X113030000Y-52705000D03*
%TO.P,J2,3,Pin_3_3*%
X109070000Y-52705000D03*
%TD*%
D11*
%TO.P,C1,1*%
%TO.N,Net-(D1-A)*%
X101473000Y-69596000D03*
%TO.P,C1,2*%
%TO.N,Net-(D1-K)*%
X116473000Y-69596000D03*
%TD*%
%TO.P,D2,1,K_1*%
%TO.N,Net-(D1-A)*%
X89662000Y-67810000D03*
%TO.P,D2,2,A_2*%
%TO.N,Net-(D1-K)*%
X89662000Y-72890000D03*
%TD*%
%TO.N,Net-(D1-K)*%
D14*
X89662000Y-72890000D02*
X92654000Y-75882000D01*
X92654000Y-75882000D02*
X103754146Y-75882000D01*
X103754146Y-75882000D02*
X108585000Y-71051146D01*
X96139000Y-66802000D02*
X97639000Y-65302000D01*
X97639000Y-65302000D02*
X102835854Y-65302000D01*
X102835854Y-65302000D02*
X108585000Y-71051146D01*
X108585000Y-71051146D02*
X108585000Y-71120000D01*
%TO.N,Net-(D1-A)*%
X96139000Y-71882000D02*
X99187000Y-71882000D01*
X99187000Y-71882000D02*
X101473000Y-69596000D01*
X89662000Y-67810000D02*
X90289000Y-67810000D01*
X94361000Y-71882000D02*
X96139000Y-71882000D01*
X90289000Y-67810000D02*
X94361000Y-71882000D01*
X88900000Y-60706000D02*
X88900000Y-67048000D01*
X88900000Y-67048000D02*
X89662000Y-67810000D01*
X88940000Y-52070000D02*
X88940000Y-60666000D01*
X88940000Y-60666000D02*
X88900000Y-60706000D01*
%TO.N,Net-(D1-K)*%
X116990000Y-53340000D02*
X116990000Y-61445000D01*
X116990000Y-61445000D02*
X116840000Y-61595000D01*
X108585000Y-71120000D02*
X116600000Y-71120000D01*
X116840000Y-61595000D02*
X116840000Y-70880000D01*
X116840000Y-70880000D02*
X116600000Y-71120000D01*
D15*
X116840000Y-60960000D02*
X116355000Y-60475000D01*
%TD*%
%TA.AperFunction,Conductor*%
%TO.N,Net-(D1-K)*%
G36*
X117814393Y-49415713D02*
G01*
X117943588Y-49474714D01*
X118026654Y-49541654D01*
X118733346Y-50248346D01*
X118818462Y-50362047D01*
X118868096Y-50495122D01*
X118879500Y-50601192D01*
X118879500Y-75423401D01*
X118859287Y-75563986D01*
X118800286Y-75693181D01*
X118707276Y-75800520D01*
X118587792Y-75877307D01*
X118451515Y-75917322D01*
X118309485Y-75917322D01*
X118173208Y-75877307D01*
X118053724Y-75800520D01*
X117960714Y-75693181D01*
X117901713Y-75563986D01*
X117898503Y-75552553D01*
X117885137Y-75502670D01*
X117796320Y-75288248D01*
X117680276Y-75087252D01*
X117538989Y-74903123D01*
X117374877Y-74739011D01*
X117190748Y-74597724D01*
X116989752Y-74481680D01*
X116926952Y-74455667D01*
X116775331Y-74392863D01*
X116551146Y-74332793D01*
X116362165Y-74307913D01*
X116321045Y-74302500D01*
X116088955Y-74302500D01*
X116054069Y-74307092D01*
X115858853Y-74332793D01*
X115634668Y-74392863D01*
X115420245Y-74481681D01*
X115219256Y-74597721D01*
X115035124Y-74739010D01*
X115035118Y-74739015D01*
X114871015Y-74903118D01*
X114871010Y-74903124D01*
X114729721Y-75087256D01*
X114613681Y-75288245D01*
X114524863Y-75502668D01*
X114464793Y-75726853D01*
X114434500Y-75956955D01*
X114434500Y-76189044D01*
X114464793Y-76419146D01*
X114524862Y-76643329D01*
X114524863Y-76643330D01*
X114613680Y-76857752D01*
X114729724Y-77058748D01*
X114871011Y-77242877D01*
X115035123Y-77406989D01*
X115219252Y-77548276D01*
X115219256Y-77548278D01*
X115219257Y-77548279D01*
X115219259Y-77548281D01*
X115243633Y-77562353D01*
X115355276Y-77650150D01*
X115437662Y-77765844D01*
X115484116Y-77900062D01*
X115490875Y-78041932D01*
X115457390Y-78179958D01*
X115386375Y-78302960D01*
X115283584Y-78400973D01*
X115157342Y-78466055D01*
X115017879Y-78492935D01*
X114994134Y-78493500D01*
X87558192Y-78493500D01*
X87417607Y-78473287D01*
X87288412Y-78414286D01*
X87205346Y-78347346D01*
X86371654Y-77513654D01*
X86286538Y-77399953D01*
X86236904Y-77266878D01*
X86225500Y-77160808D01*
X86225500Y-69114433D01*
X86245713Y-68973848D01*
X86304714Y-68844653D01*
X86397724Y-68737314D01*
X86517208Y-68660527D01*
X86653485Y-68620512D01*
X86795515Y-68620512D01*
X86931792Y-68660527D01*
X87051276Y-68737314D01*
X87077346Y-68761587D01*
X87993173Y-69677414D01*
X87993185Y-69677425D01*
X88212744Y-69852517D01*
X88212752Y-69852523D01*
X88450555Y-70001945D01*
X88703592Y-70123801D01*
X88959008Y-70213175D01*
X88968682Y-70216560D01*
X89081486Y-70242306D01*
X89087373Y-70243802D01*
X89147429Y-70268599D01*
X89208104Y-70291938D01*
X89213094Y-70295713D01*
X89218653Y-70298009D01*
X89258920Y-70330384D01*
X89317352Y-70374593D01*
X92692173Y-73749414D01*
X92692185Y-73749425D01*
X92911744Y-73924517D01*
X92911752Y-73924523D01*
X93149555Y-74073945D01*
X93402592Y-74195801D01*
X93667682Y-74288560D01*
X93667691Y-74288562D01*
X93941486Y-74351054D01*
X93941496Y-74351056D01*
X94169147Y-74376705D01*
X94220575Y-74382500D01*
X94220576Y-74382500D01*
X99327424Y-74382500D01*
X99327425Y-74382500D01*
X99437595Y-74370086D01*
X99606503Y-74351056D01*
X99606506Y-74351055D01*
X99606509Y-74351055D01*
X99880318Y-74288560D01*
X100145408Y-74195801D01*
X100398445Y-74073945D01*
X100636248Y-73924523D01*
X100855825Y-73749416D01*
X103340416Y-71264825D01*
X103515523Y-71045248D01*
X103664945Y-70807445D01*
X103786801Y-70554408D01*
X103879560Y-70289318D01*
X103942055Y-70015509D01*
X103943584Y-70001945D01*
X103973499Y-69736432D01*
X103973500Y-69736424D01*
X103973500Y-69455575D01*
X103973499Y-69455567D01*
X103942056Y-69176496D01*
X103942054Y-69176485D01*
X103879562Y-68902690D01*
X103879560Y-68902684D01*
X103879560Y-68902682D01*
X103786801Y-68637593D01*
X103719215Y-68497248D01*
X103664947Y-68384558D01*
X103649159Y-68359433D01*
X103515523Y-68146752D01*
X103515517Y-68146744D01*
X103340425Y-67927185D01*
X103340414Y-67927173D01*
X103141826Y-67728585D01*
X103141814Y-67728574D01*
X102922255Y-67553482D01*
X102922251Y-67553479D01*
X102922248Y-67553477D01*
X102684445Y-67404055D01*
X102684442Y-67404053D01*
X102656280Y-67390491D01*
X102431408Y-67282199D01*
X102431405Y-67282197D01*
X102229954Y-67211707D01*
X102166318Y-67189440D01*
X102166314Y-67189439D01*
X102166308Y-67189437D01*
X101892513Y-67126945D01*
X101892503Y-67126943D01*
X101613432Y-67095500D01*
X101613425Y-67095500D01*
X101332575Y-67095500D01*
X101332567Y-67095500D01*
X101053496Y-67126943D01*
X101053486Y-67126945D01*
X100779691Y-67189437D01*
X100779679Y-67189441D01*
X100514597Y-67282197D01*
X100514595Y-67282197D01*
X100514592Y-67282199D01*
X100393543Y-67340492D01*
X100261552Y-67404056D01*
X100023744Y-67553482D01*
X99804185Y-67728574D01*
X99804173Y-67728585D01*
X98297413Y-69235346D01*
X98183712Y-69320462D01*
X98050637Y-69370096D01*
X97944567Y-69381500D01*
X95603433Y-69381500D01*
X95462848Y-69361287D01*
X95333653Y-69302286D01*
X95250587Y-69235346D01*
X91957826Y-65942585D01*
X91957814Y-65942574D01*
X91738252Y-65767480D01*
X91738253Y-65767480D01*
X91634014Y-65701982D01*
X91525732Y-65610071D01*
X91447731Y-65491377D01*
X91406329Y-65355515D01*
X91400500Y-65279468D01*
X91400500Y-61177949D01*
X91407552Y-61094355D01*
X91409056Y-61085501D01*
X91440499Y-60806432D01*
X91440500Y-60806424D01*
X91440500Y-54757964D01*
X91460713Y-54617379D01*
X91519714Y-54488184D01*
X91612724Y-54380845D01*
X91732208Y-54304058D01*
X91868485Y-54264043D01*
X92010515Y-54264043D01*
X92146792Y-54304058D01*
X92200212Y-54332488D01*
X92311141Y-54400466D01*
X92543889Y-54496873D01*
X92788852Y-54555683D01*
X92977118Y-54570500D01*
X92977120Y-54570500D01*
X94902880Y-54570500D01*
X94902882Y-54570500D01*
X95091148Y-54555683D01*
X95336111Y-54496873D01*
X95568859Y-54400466D01*
X95783659Y-54268836D01*
X95887347Y-54180278D01*
X95975222Y-54105226D01*
X95975226Y-54105222D01*
X96138830Y-53913666D01*
X96138829Y-53913666D01*
X96138836Y-53913659D01*
X96270466Y-53698859D01*
X96366873Y-53466111D01*
X96425683Y-53221148D01*
X96440500Y-53032882D01*
X96440500Y-52588955D01*
X100464500Y-52588955D01*
X100464500Y-52821044D01*
X100494793Y-53051146D01*
X100499239Y-53067740D01*
X100554863Y-53275330D01*
X100643680Y-53489752D01*
X100759724Y-53690748D01*
X100901011Y-53874877D01*
X101065123Y-54038989D01*
X101249252Y-54180276D01*
X101450248Y-54296320D01*
X101664670Y-54385137D01*
X101888851Y-54445206D01*
X102118955Y-54475500D01*
X102118956Y-54475500D01*
X102351044Y-54475500D01*
X102351045Y-54475500D01*
X102581149Y-54445206D01*
X102805330Y-54385137D01*
X103019752Y-54296320D01*
X103220748Y-54180276D01*
X103404877Y-54038989D01*
X103568989Y-53874877D01*
X103710276Y-53690748D01*
X103826320Y-53489752D01*
X103915137Y-53275330D01*
X103975206Y-53051149D01*
X104005500Y-52821045D01*
X104005500Y-52588955D01*
X103975206Y-52358851D01*
X103915137Y-52134670D01*
X103826320Y-51920248D01*
X103710276Y-51719252D01*
X103568989Y-51535123D01*
X103404877Y-51371011D01*
X103220748Y-51229724D01*
X103019752Y-51113680D01*
X102956952Y-51087667D01*
X102805331Y-51024863D01*
X102581146Y-50964793D01*
X102392165Y-50939913D01*
X102351045Y-50934500D01*
X102118955Y-50934500D01*
X102084069Y-50939092D01*
X101888853Y-50964793D01*
X101664668Y-51024863D01*
X101450245Y-51113681D01*
X101249256Y-51229721D01*
X101065124Y-51371010D01*
X101065118Y-51371015D01*
X100901015Y-51535118D01*
X100901010Y-51535124D01*
X100759721Y-51719256D01*
X100643681Y-51920245D01*
X100554863Y-52134668D01*
X100494793Y-52358853D01*
X100464500Y-52588955D01*
X96440500Y-52588955D01*
X96440500Y-51107118D01*
X96425683Y-50918852D01*
X96366873Y-50673889D01*
X96270466Y-50441141D01*
X96138836Y-50226341D01*
X96132198Y-50218569D01*
X96056269Y-50098543D01*
X96017229Y-49961983D01*
X96018244Y-49819957D01*
X96059232Y-49683969D01*
X96136871Y-49565038D01*
X96244872Y-49472797D01*
X96374486Y-49414720D01*
X96511645Y-49395500D01*
X117673808Y-49395500D01*
X117814393Y-49415713D01*
G37*
%TD.AperFunction*%
%TD*%
D16*
X117475000Y-76073000D02*
G75*
G02*
X114935000Y-76073000I-1270000J0D01*
G01*
X114935000Y-76073000D02*
G75*
G02*
X117475000Y-76073000I1270000J0D01*
G01*
X103505000Y-52705000D02*
G75*
G02*
X100965000Y-52705000I-1270000J0D01*
G01*
X100965000Y-52705000D02*
G75*
G02*
X103505000Y-52705000I1270000J0D01*
G01*
X85725000Y-48895000D02*
X119380000Y-48895000D01*
X119380000Y-78994000D01*
X85725000Y-78994000D01*
X85725000Y-48895000D01*
M02*
