<?xml version="1.0" standalone="no"?>
 <!DOCTYPE svg PUBLIC "-//W3C//DTD SVG 1.1//EN" 
 "http://www.w3.org/Graphics/SVG/1.1/DTD/svg11.dtd"> 
<svg xmlns="http://www.w3.org/2000/svg" version="1.1" 
    width="41.9989cm" height="29.7002cm" viewBox="0 0 165350 116930 ">
<title>SVG Picture created as power_split-F_SilkS.svg date 2014/06/06 18:32:11 </title>
  <desc>Picture generated by PCBNEW </desc>
<g style="fill:#000000; fill-opacity:1;stroke:#000000; stroke-opacity:1;
stroke-linecap:round; stroke-linejoin:round; "
 transform="translate(0 0) scale(1 1)">
</g>
<g style="fill:#000000; fill-opacity:0.0; 
stroke:#000000; stroke-width:39.3701; stroke-opacity:1; 
stroke-linecap:round; stroke-linejoin:round;">
<circle cx="22500" cy="7750" r="559.017" /> 
<circle cx="33000" cy="7750" r="500" /> 
<circle cx="22500" cy="36000" r="500" /> 
<circle cx="33000" cy="36000" r="500" /> 
</g>
<g style="fill:#000000; fill-opacity:0.0; 
stroke:#000000; stroke-width:50; stroke-opacity:1; 
stroke-linecap:round; stroke-linejoin:round;">
<circle cx="30000" cy="32500" r="1001.25" /> 
<circle cx="30000" cy="27500" r="1001.25" /> 
</g>
<g style="fill:#000000; fill-opacity:0.0; 
stroke:#000000; stroke-width:120; stroke-opacity:1; 
stroke-linecap:round; stroke-linejoin:round;">
<path d="M29750 8750
L25750 8750
" />
<path d="M29750 9250
L29750 6250
" />
<path d="M29750 6250
L25750 6250
" />
<path d="M25750 6250
L25750 9250
" />
<path d="M25750 9250
L29750 9250
" />
<path d="M34000 25500
L34000 29500
" />
<path d="M34500 25500
L31500 25500
" />
<path d="M31500 25500
L31500 29500
" />
<path d="M31500 29500
L34500 29500
" />
<path d="M34500 29500
L34500 25500
" />
<path d="M34000 30500
L34000 34500
" />
<path d="M34500 30500
L31500 30500
" />
<path d="M31500 30500
L31500 34500
" />
<path d="M31500 34500
L34500 34500
" />
<path d="M34500 34500
L34500 30500
" />
<path d="M34000 10500
L34000 14500
" />
<path d="M34500 10500
L31500 10500
" />
<path d="M31500 10500
L31500 14500
" />
<path d="M31500 14500
L34500 14500
" />
<path d="M34500 14500
L34500 10500
" />
<path d="M30000 37000
L26000 37000
" />
<path d="M30000 37500
L30000 34500
" />
<path d="M30000 34500
L26000 34500
" />
<path d="M26000 34500
L26000 37500
" />
<path d="M26000 37500
L30000 37500
" />
<circle cx="28250" cy="12250" r="2195.45" /> 
<path d="M26250 20000
L24750 18500
" />
<path d="M24750 18500
L24250 18500
" />
<path d="M24250 18500
L23750 19000
" />
<path d="M23750 19000
L23750 20000
" />
<path d="M23750 20000
L24750 21000
" />
<path d="M24750 21000
L25750 21000
" />
<path d="M25750 21000
L26250 20500
" />
<path d="M26250 20500
L26250 20000
" />
<path d="M24750 16750
L22750 16750
" />
<path d="M24750 15750
L22750 15750
" />
<path d="M24750 14750
L22750 14750
" />
<path d="M22750 17750
L16750 17750
" />
<path d="M16750 17750
L16750 13750
" />
<path d="M16750 13750
L22750 13750
" />
<path d="M22750 13750
L22750 17750
" />
<path d="M19750 13750
L19750 17750
" />
<path d="M30000 16000
L30000 16400
" />
<path d="M30000 16400
L30400 16400
" />
<path d="M30400 16400
L30400 19600
" />
<path d="M30400 19600
L29600 19600
" />
<path d="M29600 19600
L29600 16400
" />
<path d="M29600 16400
L30000 16400
" />
<path d="M30200 16400
L30400 16600
" />
<path d="M30000 20000
L30000 19600
" />
<path d="M26750 14750
L26750 15150
" />
<path d="M26750 15150
L27150 15150
" />
<path d="M27150 15150
L27150 18350
" />
<path d="M27150 18350
L26350 18350
" />
<path d="M26350 18350
L26350 15150
" />
<path d="M26350 15150
L26750 15150
" />
<path d="M26950 15150
L27150 15350
" />
<path d="M26750 18750
L26750 18350
" />
<path d="M30000 22000
L29600 22000
" />
<path d="M29600 22000
L29600 22400
" />
<path d="M29600 22400
L26400 22400
" />
<path d="M26400 22400
L26400 21600
" />
<path d="M26400 21600
L29600 21600
" />
<path d="M29600 21600
L29600 22000
" />
<path d="M29600 22200
L29400 22400
" />
<path d="M26000 22000
L26400 22000
" />
</g>
<g style="fill:#000000; fill-opacity:0.0; 
stroke:#000000; stroke-width:80; stroke-opacity:1; 
stroke-linecap:round; stroke-linejoin:round;">
<path d="M33750 15880
L32250 15880
" />
</g>
<g style="fill:#000000; fill-opacity:0.0; 
stroke:#000000; stroke-width:30; stroke-opacity:1; 
stroke-linecap:round; stroke-linejoin:round;">
<circle cx="33000" cy="16900" r="707.107" /> 
</g>
<g style="fill:#000000; fill-opacity:0.0; 
stroke:#000000; stroke-width:100; stroke-opacity:1; 
stroke-linecap:round; stroke-linejoin:round;">
<path d="M32249.5 15900.4 A1250 1250 0.0 1 0 33750.5 15900.4 " />
</g>
<g style="fill:#000000; fill-opacity:0.0; 
stroke:#000000; stroke-width:60; stroke-opacity:1; 
stroke-linecap:round; stroke-linejoin:round;">
<path d="M32550 16900 A450 450 0.0 0 0 33000 17350 " />
<path d="M33450 16900 A450 450 0.0 0 0 33000 16450 " />
<path d="M32350 16900 A650 650 0.0 0 0 33000 17550 " />
<path d="M33650 16900 A650 650 0.0 0 0 33000 16250 " />
<path d="M32150 16900 A850 850 0.0 0 0 33000 17750 " />
<path d="M33850 16900 A850 850 0.0 0 0 33000 16050 " />
</g>
<g style="fill:#000000; fill-opacity:0.0; 
stroke:#000000; stroke-width:50; stroke-opacity:1; 
stroke-linecap:round; stroke-linejoin:round;">
<circle cx="25500" cy="27500" r="1001.25" /> 
<circle cx="25500" cy="32500" r="1001.25" /> 
</g>
<g style="fill:#000000; fill-opacity:0.0; 
stroke:#000000; stroke-width:120; stroke-opacity:1; 
stroke-linecap:round; stroke-linejoin:round;">
<path d="M21500 34500
L21500 30500
" />
<path d="M21000 34500
L24000 34500
" />
<path d="M24000 34500
L24000 30500
" />
<path d="M24000 30500
L21000 30500
" />
<path d="M21000 30500
L21000 34500
" />
<path d="M21500 29500
L21500 25500
" />
<path d="M21000 29500
L24000 29500
" />
<path d="M24000 29500
L24000 25500
" />
<path d="M24000 25500
L21000 25500
" />
<path d="M21000 25500
L21000 29500
" />
<path d="M34000 20000
L34000 24000
" />
<path d="M34500 20000
L31500 20000
" />
<path d="M31500 20000
L31500 24000
" />
<path d="M31500 24000
L34500 24000
" />
<path d="M34500 24000
L34500 20000
" />
</g>
<g style="fill:#000000; fill-opacity:0.0; 
stroke:#000000; stroke-width:50; stroke-opacity:1; 
stroke-linecap:round; stroke-linejoin:round;">
<path d="M29593 32550
L29608 32564
L29622 32607
L29622 32635
L29608 32678
L29579 32707
L29551 32721
L29493 32735
L29451 32735
L29393 32721
L29365 32707
L29336 32678
L29322 32635
L29322 32607
L29336 32564
L29351 32550
" />
<path d="M29322 32450
L29322 32264
L29436 32364
L29436 32321
L29451 32292
L29465 32278
L29493 32264
L29565 32264
L29593 32278
L29608 32292
L29622 32321
L29622 32407
L29608 32435
L29593 32450
" />
<path d="M30333 32592
L30321 32607
L30285 32621
L30261 32621
L30226 32607
L30202 32578
L30190 32550
L30178 32492
L30178 32450
L30190 32392
L30202 32364
L30226 32335
L30261 32321
L30285 32321
L30321 32335
L30333 32350
" />
<path d="M30440 32621
L30440 32321
L30535 32321
L30559 32335
L30571 32350
L30583 32378
L30583 32421
L30571 32450
L30559 32464
L30535 32478
L30440 32478
" />
<path d="M30821 32621
L30678 32621
" />
<path d="M30750 32621
L30750 32321
L30726 32364
L30702 32392
L30678 32407
" />
</g>
<g style="fill:#000000; fill-opacity:0.0; 
stroke:#000000; stroke-width:80; stroke-opacity:1; 
stroke-linecap:round; stroke-linejoin:round;">
</g>
<g style="fill:#000000; fill-opacity:0.0; 
stroke:#000000; stroke-width:75; stroke-opacity:1; 
stroke-linecap:round; stroke-linejoin:round;">
<path d="M30007 33514
L30007 33285
" />
<path d="M30121 33400
L29892 33400
" />
</g>
<g style="fill:#000000; fill-opacity:0.0; 
stroke:#000000; stroke-width:80; stroke-opacity:1; 
stroke-linecap:round; stroke-linejoin:round;">
</g>
<g style="fill:#000000; fill-opacity:0.0; 
stroke:#000000; stroke-width:50; stroke-opacity:1; 
stroke-linecap:round; stroke-linejoin:round;">
<path d="M29342 27300
L29357 27314
L29371 27357
L29371 27385
L29357 27428
L29328 27457
L29300 27471
L29242 27485
L29200 27485
L29142 27471
L29114 27457
L29085 27428
L29071 27385
L29071 27357
L29085 27314
L29100 27300
" />
<path d="M29171 27042
L29371 27042
" />
<path d="M29057 27114
L29271 27185
L29271 27000
" />
<path d="M30592 27666
L30607 27678
L30621 27714
L30621 27738
L30607 27773
L30578 27797
L30550 27809
L30492 27821
L30450 27821
L30392 27809
L30364 27797
L30335 27773
L30321 27738
L30321 27714
L30335 27678
L30350 27666
" />
<path d="M30621 27559
L30321 27559
L30321 27464
L30335 27440
L30350 27428
L30378 27416
L30421 27416
L30450 27428
L30464 27440
L30478 27464
L30478 27559
" />
<path d="M30621 27178
L30621 27321
" />
<path d="M30621 27250
L30321 27250
L30364 27273
L30392 27297
L30407 27321
" />
</g>
<g style="fill:#000000; fill-opacity:0.0; 
stroke:#000000; stroke-width:80; stroke-opacity:1; 
stroke-linecap:round; stroke-linejoin:round;">
</g>
<g style="fill:#000000; fill-opacity:0.0; 
stroke:#000000; stroke-width:75; stroke-opacity:1; 
stroke-linecap:round; stroke-linejoin:round;">
<path d="M30007 28514
L30007 28285
" />
<path d="M30121 28400
L29892 28400
" />
</g>
<g style="fill:#000000; fill-opacity:0.0; 
stroke:#000000; stroke-width:80; stroke-opacity:1; 
stroke-linecap:round; stroke-linejoin:round;">
</g>
<g style="fill:#000000; fill-opacity:0.0; 
stroke:#000000; stroke-width:120; stroke-opacity:1; 
stroke-linecap:round; stroke-linejoin:round;">
<path d="M27307 5992
L27307 5392
L27535 5392
L27592 5421
L27621 5450
L27650 5507
L27650 5592
L27621 5650
L27592 5678
L27535 5707
L27307 5707
" />
<path d="M28221 5992
L27878 5992
" />
<path d="M28050 5992
L28050 5392
L27992 5478
L27935 5535
L27878 5564
" />
<path d="M26478 9935
L26450 9964
L26364 9992
L26307 9992
L26221 9964
L26164 9907
L26135 9850
L26107 9735
L26107 9650
L26135 9535
L26164 9478
L26221 9421
L26307 9392
L26364 9392
L26450 9421
L26478 9450
" />
<path d="M26850 9392
L26964 9392
L27021 9421
L27078 9478
L27107 9592
L27107 9792
L27078 9907
L27021 9964
L26964 9992
L26850 9992
L26792 9964
L26735 9907
L26707 9792
L26707 9592
L26735 9478
L26792 9421
L26850 9392
" />
<path d="M27364 9992
L27364 9392
L27707 9992
L27707 9392
" />
<path d="M27992 9992
L27992 9392
L28335 9992
L28335 9392
" />
<path d="M28478 10050
L28935 10050
" />
<path d="M29050 9450
L29078 9421
L29135 9392
L29278 9392
L29335 9421
L29364 9450
L29392 9507
L29392 9564
L29364 9650
L29021 9992
L29392 9992
" />
<path d="M31242 27942
L30642 27942
L30642 27714
L30671 27657
L30700 27628
L30757 27600
L30842 27600
L30900 27628
L30928 27657
L30957 27714
L30957 27942
" />
<path d="M30642 27400
L30642 27028
L30871 27228
L30871 27142
L30900 27085
L30928 27057
L30985 27028
L31128 27028
L31185 27057
L31214 27085
L31242 27142
L31242 27314
L31214 27371
L31185 27400
" />
<path d="M35185 28771
L35214 28799
L35242 28885
L35242 28942
L35214 29028
L35157 29085
L35100 29114
L34985 29142
L34900 29142
L34785 29114
L34728 29085
L34671 29028
L34642 28942
L34642 28885
L34671 28799
L34700 28771
" />
<path d="M34642 28399
L34642 28285
L34671 28228
L34728 28171
L34842 28142
L35042 28142
L35157 28171
L35214 28228
L35242 28285
L35242 28399
L35214 28457
L35157 28514
L35042 28542
L34842 28542
L34728 28514
L34671 28457
L34642 28399
" />
<path d="M35242 27885
L34642 27885
L35242 27542
L34642 27542
" />
<path d="M35242 27257
L34642 27257
L35242 26914
L34642 26914
" />
<path d="M35300 26771
L35300 26314
" />
<path d="M34700 26200
L34671 26171
L34642 26114
L34642 25971
L34671 25914
L34700 25885
L34757 25857
L34814 25857
L34900 25885
L35242 26228
L35242 25857
" />
<path d="M31242 32942
L30642 32942
L30642 32714
L30671 32657
L30700 32628
L30757 32600
L30842 32600
L30900 32628
L30928 32657
L30957 32714
L30957 32942
" />
<path d="M30842 32085
L31242 32085
" />
<path d="M30614 32228
L31042 32371
L31042 32000
" />
<path d="M35185 33771
L35214 33799
L35242 33885
L35242 33942
L35214 34028
L35157 34085
L35100 34114
L34985 34142
L34900 34142
L34785 34114
L34728 34085
L34671 34028
L34642 33942
L34642 33885
L34671 33799
L34700 33771
" />
<path d="M34642 33399
L34642 33285
L34671 33228
L34728 33171
L34842 33142
L35042 33142
L35157 33171
L35214 33228
L35242 33285
L35242 33399
L35214 33457
L35157 33514
L35042 33542
L34842 33542
L34728 33514
L34671 33457
L34642 33399
" />
<path d="M35242 32885
L34642 32885
L35242 32542
L34642 32542
" />
<path d="M35242 32257
L34642 32257
L35242 31914
L34642 31914
" />
<path d="M35300 31771
L35300 31314
" />
<path d="M34700 31200
L34671 31171
L34642 31114
L34642 30971
L34671 30914
L34700 30885
L34757 30857
L34814 30857
L34900 30885
L35242 31228
L35242 30857
" />
<path d="M31242 12942
L30642 12942
L30642 12714
L30671 12657
L30700 12628
L30757 12600
L30842 12600
L30900 12628
L30928 12657
L30957 12714
L30957 12942
" />
<path d="M30642 12085
L30642 12200
L30671 12257
L30700 12285
L30785 12342
L30900 12371
L31128 12371
L31185 12342
L31214 12314
L31242 12257
L31242 12142
L31214 12085
L31185 12057
L31128 12028
L30985 12028
L30928 12057
L30900 12085
L30871 12142
L30871 12257
L30900 12314
L30928 12342
L30985 12371
" />
<path d="M35185 13771
L35214 13799
L35242 13885
L35242 13942
L35214 14028
L35157 14085
L35100 14114
L34985 14142
L34900 14142
L34785 14114
L34728 14085
L34671 14028
L34642 13942
L34642 13885
L34671 13799
L34700 13771
" />
<path d="M34642 13399
L34642 13285
L34671 13228
L34728 13171
L34842 13142
L35042 13142
L35157 13171
L35214 13228
L35242 13285
L35242 13399
L35214 13457
L35157 13514
L35042 13542
L34842 13542
L34728 13514
L34671 13457
L34642 13399
" />
<path d="M35242 12885
L34642 12885
L35242 12542
L34642 12542
" />
<path d="M35242 12257
L34642 12257
L35242 11914
L34642 11914
" />
<path d="M35300 11771
L35300 11314
" />
<path d="M34700 11200
L34671 11171
L34642 11114
L34642 10971
L34671 10914
L34700 10885
L34757 10857
L34814 10857
L34900 10885
L35242 11228
L35242 10857
" />
<path d="M27557 34242
L27557 33642
L27785 33642
L27842 33671
L27871 33700
L27900 33757
L27900 33842
L27871 33900
L27842 33928
L27785 33957
L27557 33957
" />
<path d="M28442 33642
L28157 33642
L28128 33928
L28157 33900
L28214 33871
L28357 33871
L28414 33900
L28442 33928
L28471 33985
L28471 34128
L28442 34185
L28414 34214
L28357 34242
L28214 34242
L28157 34214
L28128 34185
" />
<path d="M26728 38185
L26700 38214
L26614 38242
L26557 38242
L26471 38214
L26414 38157
L26385 38100
L26357 37985
L26357 37900
L26385 37785
L26414 37728
L26471 37671
L26557 37642
L26614 37642
L26700 37671
L26728 37700
" />
<path d="M27100 37642
L27214 37642
L27271 37671
L27328 37728
L27357 37842
L27357 38042
L27328 38157
L27271 38214
L27214 38242
L27100 38242
L27042 38214
L26985 38157
L26957 38042
L26957 37842
L26985 37728
L27042 37671
L27100 37642
" />
<path d="M27614 38242
L27614 37642
L27957 38242
L27957 37642
" />
<path d="M28242 38242
L28242 37642
L28585 38242
L28585 37642
" />
<path d="M28728 38300
L29185 38300
" />
<path d="M29300 37700
L29328 37671
L29385 37642
L29528 37642
L29585 37671
L29614 37700
L29642 37757
L29642 37814
L29614 37900
L29271 38242
L29642 38242
" />
</g>
<g style="fill:#000000; fill-opacity:0.0; 
stroke:#000000; stroke-width:100; stroke-opacity:1; 
stroke-linecap:round; stroke-linejoin:round;">
<path d="M28166 13404
L28142 13428
L28071 13452
L28023 13452
L27952 13428
L27904 13380
L27880 13333
L27857 13238
L27857 13166
L27880 13071
L27904 13023
L27952 12976
L28023 12952
L28071 12952
L28142 12976
L28166 13000
" />
<path d="M28642 13452
L28357 13452
" />
<path d="M28500 13452
L28500 12952
L28452 13023
L28404 13071
L28357 13095
" />
<path d="M27869 11821
L28202 11821
" />
<path d="M27678 11940
L28035 12059
L28035 11750
" />
<path d="M27702 11607
L27702 11273
L28202 11488
" />
<path d="M27702 10988
L27702 10940
L27726 10892
L27750 10869
L27797 10845
L27892 10821
L28011 10821
L28107 10845
L28154 10869
L28178 10892
L28202 10940
L28202 10988
L28178 11035
L28154 11059
L28107 11083
L28011 11107
L27892 11107
L27797 11083
L27750 11059
L27726 11035
L27702 10988
" />
<path d="M27869 10392
L28202 10392
" />
<path d="M27869 10607
L28130 10607
L28178 10583
L28202 10535
L28202 10464
L28178 10416
L28154 10392
" />
<path d="M27940 9988
L27940 10154
" />
<path d="M28202 10154
L27702 10154
L27702 9916
" />
</g>
<g style="fill:#000000; fill-opacity:0.0; 
stroke:#000000; stroke-width:80; stroke-opacity:1; 
stroke-linecap:round; stroke-linejoin:round;">
<path d="M26950 20038
L26930 20076
L26892 20114
L26835 20171
L26816 20209
L26816 20247
" />
<path d="M26911 20228
L26892 20266
L26854 20304
L26778 20323
L26645 20323
L26569 20304
L26530 20266
L26511 20228
L26511 20152
L26530 20114
L26569 20076
L26645 20057
L26778 20057
L26854 20076
L26892 20114
L26911 20152
L26911 20228
" />
<path d="M26911 19676
L26911 19904
" />
<path d="M26911 19790
L26511 19790
L26569 19828
L26607 19866
L26626 19904
" />
<path d="M23202 20742
L23221 20685
L23240 20666
L23278 20647
L23335 20647
L23373 20666
L23392 20685
L23411 20723
L23411 20876
L23011 20876
L23011 20742
L23030 20704
L23050 20685
L23088 20666
L23126 20666
L23164 20685
L23183 20704
L23202 20742
L23202 20876
" />
<path d="M23373 20247
L23392 20266
L23411 20323
L23411 20361
L23392 20419
L23354 20457
L23316 20476
L23240 20495
L23183 20495
L23107 20476
L23069 20457
L23030 20419
L23011 20361
L23011 20323
L23030 20266
L23050 20247
" />
<path d="M23011 19885
L23011 20076
L23202 20095
L23183 20076
L23164 20038
L23164 19942
L23183 19904
L23202 19885
L23240 19866
L23335 19866
L23373 19885
L23392 19904
L23411 19942
L23411 20038
L23392 20076
L23373 20095
" />
<path d="M23145 19523
L23411 19523
" />
<path d="M22992 19619
L23278 19714
L23278 19466
" />
<path d="M23011 19352
L23011 19085
L23411 19257
" />
<path d="M22300 15788
L22271 15826
L22214 15864
L22128 15921
L22100 15959
L22100 15997
" />
<path d="M22242 15978
L22214 16016
L22157 16054
L22042 16073
L21842 16073
L21728 16054
L21671 16016
L21642 15978
L21642 15902
L21671 15864
L21728 15826
L21842 15807
L22042 15807
L22157 15826
L22214 15864
L22242 15902
L22242 15978
" />
<path d="M21700 15654
L21671 15635
L21642 15597
L21642 15502
L21671 15464
L21700 15445
L21757 15426
L21814 15426
L21900 15445
L22242 15673
L22242 15426
" />
<path d="M20742 16883
L20142 16883
" />
<path d="M20742 16464
L20457 16597
" />
<path d="M20742 16692
L20142 16692
L20142 16540
L20171 16502
L20200 16483
L20257 16464
L20342 16464
L20400 16483
L20428 16502
L20457 16540
L20457 16692
" />
<path d="M20428 16159
L20428 16292
" />
<path d="M20742 16292
L20142 16292
L20142 16102
" />
<path d="M20342 15778
L20742 15778
" />
<path d="M20114 15873
L20542 15969
L20542 15721
" />
<path d="M20742 15549
L20742 15473
L20714 15435
L20685 15416
L20600 15378
L20485 15359
L20257 15359
L20200 15378
L20171 15397
L20142 15435
L20142 15511
L20171 15549
L20200 15569
L20257 15588
L20400 15588
L20457 15569
L20485 15549
L20514 15511
L20514 15435
L20485 15397
L20457 15378
L20400 15359
" />
<path d="M20142 15111
L20142 15073
L20171 15035
L20200 15016
L20257 14997
L20371 14978
L20514 14978
L20628 14997
L20685 15016
L20714 15035
L20742 15073
L20742 15111
L20714 15149
L20685 15169
L20628 15188
L20514 15207
L20371 15207
L20257 15188
L20200 15169
L20171 15149
L20142 15111
" />
<path d="M20142 14616
L20142 14807
L20428 14826
L20400 14807
L20371 14769
L20371 14673
L20400 14635
L20428 14616
L20485 14597
L20628 14597
L20685 14616
L20714 14635
L20742 14673
L20742 14769
L20714 14807
L20685 14826
" />
<path d="M29972 18833
L29710 19000
" />
<path d="M29972 19119
L29422 19119
L29422 18928
L29448 18880
L29475 18857
L29527 18833
L29605 18833
L29658 18857
L29684 18880
L29710 18928
L29710 19119
" />
<path d="M29972 18357
L29972 18642
" />
<path d="M29972 18500
L29422 18500
L29501 18547
L29553 18595
L29579 18642
" />
<path d="M26972 15833
L26710 16000
" />
<path d="M26972 16119
L26422 16119
L26422 15928
L26448 15880
L26475 15857
L26527 15833
L26605 15833
L26658 15857
L26684 15880
L26710 15928
L26710 16119
" />
<path d="M26422 15666
L26422 15357
L26632 15523
L26632 15452
L26658 15404
L26684 15380
L26736 15357
L26867 15357
L26920 15380
L26946 15404
L26972 15452
L26972 15595
L26946 15642
L26920 15666
" />
<path d="M27916 22222
L27750 21960
" />
<path d="M27630 22222
L27630 21672
L27821 21672
L27869 21698
L27892 21725
L27916 21777
L27916 21855
L27892 21908
L27869 21934
L27821 21960
L27630 21960
" />
<path d="M28107 21725
L28130 21698
L28178 21672
L28297 21672
L28345 21698
L28369 21725
L28392 21777
L28392 21829
L28369 21908
L28083 22222
L28392 22222
" />
</g>
<g style="fill:#000000; fill-opacity:0.0; 
stroke:#000000; stroke-width:35; stroke-opacity:1; 
stroke-linecap:round; stroke-linejoin:round;">
<path d="M31621 17221
L31321 17221
L31321 17150
L31335 17107
L31364 17078
L31392 17064
L31450 17050
L31492 17050
L31550 17064
L31578 17078
L31607 17107
L31621 17150
L31621 17221
" />
<path d="M31621 16764
L31621 16935
" />
<path d="M31621 16850
L31321 16850
L31364 16878
L31392 16907
L31407 16935
" />
<path d="M34621 17192
L34621 17335
L34321 17335
" />
<path d="M34464 17092
L34464 16992
" />
<path d="M34621 16950
L34621 17092
L34321 17092
L34321 16950
" />
<path d="M34621 16821
L34321 16821
L34321 16750
L34335 16707
L34364 16678
L34392 16664
L34450 16650
L34492 16650
L34550 16664
L34578 16678
L34607 16707
L34621 16750
L34621 16821
" />
</g>
<g style="fill:#000000; fill-opacity:0.0; 
stroke:#000000; stroke-width:50; stroke-opacity:1; 
stroke-linecap:round; stroke-linejoin:round;">
<path d="M26091 27550
L26106 27564
L26120 27607
L26120 27635
L26106 27678
L26077 27707
L26049 27721
L25991 27735
L25949 27735
L25891 27721
L25863 27707
L25834 27678
L25820 27635
L25820 27607
L25834 27564
L25849 27550
" />
<path d="M25820 27278
L25820 27421
L25963 27435
L25949 27421
L25934 27392
L25934 27321
L25949 27292
L25963 27278
L25991 27264
L26063 27264
L26091 27278
L26106 27292
L26120 27321
L26120 27392
L26106 27421
L26091 27435
" />
<path d="M24842 26166
L24857 26178
L24871 26214
L24871 26238
L24857 26273
L24828 26297
L24800 26309
L24742 26321
L24700 26321
L24642 26309
L24614 26297
L24585 26273
L24571 26238
L24571 26214
L24585 26178
L24600 26166
" />
<path d="M24871 26059
L24571 26059
L24571 25964
L24585 25940
L24600 25928
L24628 25916
L24671 25916
L24700 25928
L24714 25940
L24728 25964
L24728 26059
" />
<path d="M24871 25678
L24871 25821
" />
<path d="M24871 25750
L24571 25750
L24614 25773
L24642 25797
L24657 25821
" />
</g>
<g style="fill:#000000; fill-opacity:0.0; 
stroke:#000000; stroke-width:80; stroke-opacity:1; 
stroke-linecap:round; stroke-linejoin:round;">
</g>
<g style="fill:#000000; fill-opacity:0.0; 
stroke:#000000; stroke-width:75; stroke-opacity:1; 
stroke-linecap:round; stroke-linejoin:round;">
<path d="M25507 26714
L25507 26485
" />
<path d="M25621 26600
L25392 26600
" />
</g>
<g style="fill:#000000; fill-opacity:0.0; 
stroke:#000000; stroke-width:80; stroke-opacity:1; 
stroke-linecap:round; stroke-linejoin:round;">
</g>
<g style="fill:#000000; fill-opacity:0.0; 
stroke:#000000; stroke-width:50; stroke-opacity:1; 
stroke-linecap:round; stroke-linejoin:round;">
<path d="M25949 32592
L25934 32607
L25891 32621
L25863 32621
L25820 32607
L25791 32578
L25777 32550
L25763 32492
L25763 32450
L25777 32392
L25791 32364
L25820 32335
L25863 32321
L25891 32321
L25934 32335
L25949 32350
" />
<path d="M26206 32321
L26149 32321
L26120 32335
L26106 32350
L26077 32392
L26063 32450
L26063 32564
L26077 32592
L26091 32607
L26120 32621
L26177 32621
L26206 32607
L26220 32592
L26234 32564
L26234 32492
L26220 32464
L26206 32450
L26177 32435
L26120 32435
L26091 32450
L26077 32464
L26063 32492
" />
<path d="M25092 32666
L25107 32678
L25121 32714
L25121 32738
L25107 32773
L25078 32797
L25050 32809
L24992 32821
L24950 32821
L24892 32809
L24864 32797
L24835 32773
L24821 32738
L24821 32714
L24835 32678
L24850 32666
" />
<path d="M25121 32559
L24821 32559
L24821 32464
L24835 32440
L24850 32428
L24878 32416
L24921 32416
L24950 32428
L24964 32440
L24978 32464
L24978 32559
" />
<path d="M25121 32178
L25121 32321
" />
<path d="M25121 32250
L24821 32250
L24864 32273
L24892 32297
L24907 32321
" />
</g>
<g style="fill:#000000; fill-opacity:0.0; 
stroke:#000000; stroke-width:80; stroke-opacity:1; 
stroke-linecap:round; stroke-linejoin:round;">
</g>
<g style="fill:#000000; fill-opacity:0.0; 
stroke:#000000; stroke-width:75; stroke-opacity:1; 
stroke-linecap:round; stroke-linejoin:round;">
<path d="M25507 31714
L25507 31485
" />
<path d="M25621 31600
L25392 31600
" />
</g>
<g style="fill:#000000; fill-opacity:0.0; 
stroke:#000000; stroke-width:80; stroke-opacity:1; 
stroke-linecap:round; stroke-linejoin:round;">
</g>
<g style="fill:#000000; fill-opacity:0.0; 
stroke:#000000; stroke-width:120; stroke-opacity:1; 
stroke-linecap:round; stroke-linejoin:round;">
<path d="M24742 32942
L24142 32942
L24142 32714
L24171 32657
L24200 32628
L24257 32600
L24342 32600
L24400 32628
L24428 32657
L24457 32714
L24457 32942
" />
<path d="M24142 32400
L24142 32000
L24742 32257
" />
<path d="M20685 33771
L20714 33799
L20742 33885
L20742 33942
L20714 34028
L20657 34085
L20600 34114
L20485 34142
L20400 34142
L20285 34114
L20228 34085
L20171 34028
L20142 33942
L20142 33885
L20171 33799
L20200 33771
" />
<path d="M20142 33399
L20142 33285
L20171 33228
L20228 33171
L20342 33142
L20542 33142
L20657 33171
L20714 33228
L20742 33285
L20742 33399
L20714 33457
L20657 33514
L20542 33542
L20342 33542
L20228 33514
L20171 33457
L20142 33399
" />
<path d="M20742 32885
L20142 32885
L20742 32542
L20142 32542
" />
<path d="M20742 32257
L20142 32257
L20742 31914
L20142 31914
" />
<path d="M20800 31771
L20800 31314
" />
<path d="M20200 31200
L20171 31171
L20142 31114
L20142 30971
L20171 30914
L20200 30885
L20257 30857
L20314 30857
L20400 30885
L20742 31228
L20742 30857
" />
<path d="M24742 27942
L24142 27942
L24142 27714
L24171 27657
L24200 27628
L24257 27600
L24342 27600
L24400 27628
L24428 27657
L24457 27714
L24457 27942
" />
<path d="M24400 27257
L24371 27314
L24342 27342
L24285 27371
L24257 27371
L24200 27342
L24171 27314
L24142 27257
L24142 27142
L24171 27085
L24200 27057
L24257 27028
L24285 27028
L24342 27057
L24371 27085
L24400 27142
L24400 27257
L24428 27314
L24457 27342
L24514 27371
L24628 27371
L24685 27342
L24714 27314
L24742 27257
L24742 27142
L24714 27085
L24685 27057
L24628 27028
L24514 27028
L24457 27057
L24428 27085
L24400 27142
" />
<path d="M20685 28771
L20714 28799
L20742 28885
L20742 28942
L20714 29028
L20657 29085
L20600 29114
L20485 29142
L20400 29142
L20285 29114
L20228 29085
L20171 29028
L20142 28942
L20142 28885
L20171 28799
L20200 28771
" />
<path d="M20142 28399
L20142 28285
L20171 28228
L20228 28171
L20342 28142
L20542 28142
L20657 28171
L20714 28228
L20742 28285
L20742 28399
L20714 28457
L20657 28514
L20542 28542
L20342 28542
L20228 28514
L20171 28457
L20142 28399
" />
<path d="M20742 27885
L20142 27885
L20742 27542
L20142 27542
" />
<path d="M20742 27257
L20142 27257
L20742 26914
L20142 26914
" />
<path d="M20800 26771
L20800 26314
" />
<path d="M20200 26200
L20171 26171
L20142 26114
L20142 25971
L20171 25914
L20200 25885
L20257 25857
L20314 25857
L20400 25885
L20742 26228
L20742 25857
" />
<path d="M31242 22442
L30642 22442
L30642 22214
L30671 22157
L30700 22128
L30757 22100
L30842 22100
L30900 22128
L30928 22157
L30957 22214
L30957 22442
" />
<path d="M30700 21871
L30671 21842
L30642 21785
L30642 21642
L30671 21585
L30700 21557
L30757 21528
L30814 21528
L30900 21557
L31242 21900
L31242 21528
" />
<path d="M35185 23271
L35214 23299
L35242 23385
L35242 23442
L35214 23528
L35157 23585
L35100 23614
L34985 23642
L34900 23642
L34785 23614
L34728 23585
L34671 23528
L34642 23442
L34642 23385
L34671 23299
L34700 23271
" />
<path d="M34642 22899
L34642 22785
L34671 22728
L34728 22671
L34842 22642
L35042 22642
L35157 22671
L35214 22728
L35242 22785
L35242 22899
L35214 22957
L35157 23014
L35042 23042
L34842 23042
L34728 23014
L34671 22957
L34642 22899
" />
<path d="M35242 22385
L34642 22385
L35242 22042
L34642 22042
" />
<path d="M35242 21757
L34642 21757
L35242 21414
L34642 21414
" />
<path d="M35300 21271
L35300 20814
" />
<path d="M34700 20700
L34671 20671
L34642 20614
L34642 20471
L34671 20414
L34700 20385
L34757 20357
L34814 20357
L34900 20385
L35242 20728
L35242 20357
" />
</g> 
</svg>
