<?xml version="1.0" standalone="no"?>
 <!DOCTYPE svg PUBLIC "-//W3C//DTD SVG 1.1//EN" 
 "http://www.w3.org/Graphics/SVG/1.1/DTD/svg11.dtd"> 
<svg xmlns="http://www.w3.org/2000/svg" version="1.1" 
    width="29.7002cm" height="21.0007cm" viewBox="0 0 116930 82680 ">
<title>SVG Picture created as rc_car-F.SilkS.svg date 2017/06/30 15:17:47 </title>
  <desc>Picture generated by PCBNEW </desc>
<g style="fill:#000000; fill-opacity:1;stroke:#000000; stroke-opacity:1;
stroke-linecap:round; stroke-linejoin:round; "
 transform="translate(0 0) scale(1 1)">
</g>
<g style="fill:#000000; fill-opacity:0.0; 
stroke:#000000; stroke-width:-0.000393701; stroke-opacity:1; 
stroke-linecap:round; stroke-linejoin:round;">
</g>
<g style="fill:#000000; fill-opacity:0.0; 
stroke:#000000; stroke-width:59.0551; stroke-opacity:1; 
stroke-linecap:round; stroke-linejoin:round;">
<path d="M39850 24150
L40350 24150
" />
<path d="M36850 24150
L36350 24150
" />
<path d="M36850 24150
L37150 24150
" />
<path d="M37150 24150
L37150 24550
" />
<path d="M37150 24550
L39550 24550
" />
<path d="M39550 24550
L39550 24150
" />
<path d="M39550 24150
L39850 24150
" />
<path d="M39550 24150
L39550 23750
" />
<path d="M39550 23750
L37150 23750
" />
<path d="M37150 23750
L37150 24150
" />
<path d="M37350 24550
L37350 23750
" />
<path d="M37450 23750
L37450 24550
" />
<path d="M32850 25300
L33350 25300
" />
<path d="M29850 25300
L29350 25300
" />
<path d="M29850 25300
L30150 25300
" />
<path d="M30150 25300
L30150 25700
" />
<path d="M30150 25700
L32550 25700
" />
<path d="M32550 25700
L32550 25300
" />
<path d="M32550 25300
L32850 25300
" />
<path d="M32550 25300
L32550 24900
" />
<path d="M32550 24900
L30150 24900
" />
<path d="M30150 24900
L30150 25300
" />
<path d="M30350 25700
L30350 24900
" />
<path d="M30450 24900
L30450 25700
" />
<path d="M33850 24150
L33350 24150
" />
<path d="M36850 24150
L37350 24150
" />
<path d="M36850 24150
L36550 24150
" />
<path d="M36550 24150
L36550 23750
" />
<path d="M36550 23750
L34150 23750
" />
<path d="M34150 23750
L34150 24150
" />
<path d="M34150 24150
L33850 24150
" />
<path d="M34150 24150
L34150 24550
" />
<path d="M34150 24550
L36550 24550
" />
<path d="M36550 24550
L36550 24150
" />
<path d="M36350 23750
L36350 24550
" />
<path d="M36250 24550
L36250 23750
" />
<path d="M39800 25300
L39300 25300
" />
<path d="M42800 25300
L43300 25300
" />
<path d="M42800 25300
L42500 25300
" />
<path d="M42500 25300
L42500 24900
" />
<path d="M42500 24900
L40100 24900
" />
<path d="M40100 24900
L40100 25300
" />
<path d="M40100 25300
L39800 25300
" />
<path d="M40100 25300
L40100 25700
" />
<path d="M40100 25700
L42500 25700
" />
<path d="M42500 25700
L42500 25300
" />
<path d="M42300 24900
L42300 25700
" />
<path d="M42200 25700
L42200 24900
" />
<path d="M34350 17750
L34350 20350
" />
<path d="M34750 17750
L34200 17750
" />
<path d="M34200 17750
L34200 20350
" />
<path d="M34200 20350
L35200 20350
" />
<path d="M35200 20350
L35200 17750
" />
<path d="M35200 17750
L34750 17750
" />
<path d="M35150 23350
L35150 20750
" />
<path d="M34750 23350
L35300 23350
" />
<path d="M35300 23350
L35300 20750
" />
<path d="M35300 20750
L34300 20750
" />
<path d="M34300 20750
L34300 23350
" />
<path d="M34300 23350
L34750 23350
" />
<path d="M38500 17750
L38500 20350
" />
<path d="M38900 17750
L38350 17750
" />
<path d="M38350 17750
L38350 20350
" />
<path d="M38350 20350
L39350 20350
" />
<path d="M39350 20350
L39350 17750
" />
<path d="M39350 17750
L38900 17750
" />
<path d="M39300 23350
L39300 20750
" />
<path d="M38900 23350
L39450 23350
" />
<path d="M39450 23350
L39450 20750
" />
<path d="M39450 20750
L38450 20750
" />
<path d="M38450 20750
L38450 23350
" />
<path d="M38450 23350
L38900 23350
" />
<path d="M33350 18100
L33350 18500
" />
<path d="M33350 18500
L33750 18500
" />
<path d="M33750 18500
L33750 21700
" />
<path d="M33750 21700
L32950 21700
" />
<path d="M32950 21700
L32950 18500
" />
<path d="M32950 18500
L33350 18500
" />
<path d="M33550 18500
L33750 18700
" />
<path d="M33350 22100
L33350 21700
" />
<path d="M36800 18200
L36800 18600
" />
<path d="M36800 18600
L37200 18600
" />
<path d="M37200 18600
L37200 21800
" />
<path d="M37200 21800
L36400 21800
" />
<path d="M36400 21800
L36400 18600
" />
<path d="M36400 18600
L36800 18600
" />
<path d="M37000 18600
L37200 18800
" />
<path d="M36800 22200
L36800 21800
" />
<path d="M40350 18100
L40350 18500
" />
<path d="M40350 18500
L40750 18500
" />
<path d="M40750 18500
L40750 21700
" />
<path d="M40750 21700
L39950 21700
" />
<path d="M39950 21700
L39950 18500
" />
<path d="M39950 18500
L40350 18500
" />
<path d="M40550 18500
L40750 18700
" />
<path d="M40350 22100
L40350 21700
" />
<path d="M32300 18100
L32300 18500
" />
<path d="M32300 18500
L32700 18500
" />
<path d="M32700 18500
L32700 21700
" />
<path d="M32700 21700
L31900 21700
" />
<path d="M31900 21700
L31900 18500
" />
<path d="M31900 18500
L32300 18500
" />
<path d="M32500 18500
L32700 18700
" />
<path d="M32300 22100
L32300 21700
" />
<path d="M36400 28400
L35400 28400
" />
<circle cx="36400" cy="28400" r="559.017" /> 
<path d="M39603 29203
L38896 28496
" />
<circle cx="39603.6" cy="29203.6" r="559.017" /> 
<path d="M32900 28450
L33900 28450
" />
<circle cx="32900" cy="28450" r="559.017" /> 
<path d="M33400 29250
L38400 29250
" />
<path d="M38400 29250
L38400 30250
" />
<path d="M38400 30250
L33400 30250
" />
<path d="M32289 29139
L32900 29139
" />
<path d="M33400 29250
L33400 30250
" />
<path d="M32900 30360
L32289 30360
" />
<path d="M32289 30360
L32289 29139
" />
<path d="M34161.3 26357.5 A946.521 946.521 0.0 0 0 33969.3 26080.7 " />
<path d="M32630.7 26080.7 A946.521 946.521 0.0 0 0 32438.7 26357.5 " />
<path d="M33969 26080
L32630 26080
" />
<path d="M33300 27694.9 A944.882 944.882 0.0 0 0 34160.2 27141 " />
<path d="M32439.8 27141 A944.882 944.882 0.0 0 0 33300 27694.9 " />
<path d="M35538.7 27142.5 A946.521 946.521 0.0 0 0 35730.7 27419.3 " />
<path d="M37069.3 27419.3 A946.521 946.521 0.0 0 0 37261.3 27142.5 " />
<path d="M35730 27419
L37069 27419
" />
<path d="M36400 25805.1 A944.882 944.882 0.0 0 0 35539.8 26359 " />
<path d="M37260.2 26359 A944.882 944.882 0.0 0 0 36400 25805.1 " />
<path d="M39538.7 27142.5 A946.521 946.521 0.0 0 0 39730.7 27419.3 " />
<path d="M41069.3 27419.3 A946.521 946.521 0.0 0 0 41261.3 27142.5 " />
<path d="M39730 27419
L41069 27419
" />
<path d="M40400 25805.1 A944.882 944.882 0.0 0 0 39539.8 26359 " />
<path d="M41260.2 26359 A944.882 944.882 0.0 0 0 40400 25805.1 " />
<path d="M41400 18100
L41400 18500
" />
<path d="M41400 18500
L41800 18500
" />
<path d="M41800 18500
L41800 21700
" />
<path d="M41800 21700
L41000 21700
" />
<path d="M41000 21700
L41000 18500
" />
<path d="M41000 18500
L41400 18500
" />
<path d="M41600 18500
L41800 18700
" />
<path d="M41400 22100
L41400 21700
" />
<path d="M38059 24328
L38059 23934
L38153 23934
L38209 23953
L38246 23990
L38265 24028
L38284 24103
L38284 24159
L38265 24234
L38246 24271
L38209 24309
L38153 24328
L38059 24328
" />
<path d="M38621 24065
L38621 24328
" />
<path d="M38528 23915
L38434 24196
L38678 24196
" />
<path d="M31059 25478
L31059 25084
L31153 25084
L31209 25103
L31246 25140
L31265 25178
L31284 25253
L31284 25309
L31265 25384
L31246 25421
L31209 25459
L31153 25478
L31059 25478
" />
<path d="M31659 25478
L31434 25478
" />
<path d="M31546 25478
L31546 25084
L31509 25140
L31471 25178
L31434 25196
" />
<path d="M35059 24328
L35059 23934
L35153 23934
L35209 23953
L35246 23990
L35265 24028
L35284 24103
L35284 24159
L35265 24234
L35246 24271
L35209 24309
L35153 24328
L35059 24328
" />
<path d="M35434 23971
L35453 23953
L35490 23934
L35584 23934
L35621 23953
L35640 23971
L35659 24009
L35659 24046
L35640 24103
L35415 24328
L35659 24328
" />
<path d="M41009 25478
L41009 25084
L41103 25084
L41159 25103
L41196 25140
L41215 25178
L41234 25253
L41234 25309
L41215 25384
L41196 25421
L41159 25459
L41103 25478
L41009 25478
" />
<path d="M41365 25084
L41609 25084
L41478 25234
L41534 25234
L41571 25253
L41590 25271
L41609 25309
L41609 25403
L41590 25440
L41571 25459
L41534 25478
L41421 25478
L41384 25459
L41365 25440
" />
<path d="M35841 18914
L35822 18952
L35785 18989
L35729 19045
L35710 19083
L35710 19120
" />
<path d="M35804 19102
L35785 19139
L35747 19177
L35672 19195
L35541 19195
L35466 19177
L35429 19139
L35410 19102
L35410 19027
L35429 18989
L35466 18952
L35541 18933
L35672 18933
L35747 18952
L35785 18989
L35804 19027
L35804 19102
" />
<path d="M35579 18708
L35560 18745
L35541 18764
L35504 18783
L35485 18783
L35447 18764
L35429 18745
L35410 18708
L35410 18633
L35429 18595
L35447 18577
L35485 18558
L35504 18558
L35541 18577
L35560 18595
L35579 18633
L35579 18708
L35597 18745
L35616 18764
L35654 18783
L35729 18783
L35766 18764
L35785 18745
L35804 18708
L35804 18633
L35785 18595
L35766 18577
L35729 18558
L35654 18558
L35616 18577
L35597 18595
L35579 18633
" />
<path d="M34089 22447
L34070 22485
L34033 22522
L33977 22579
L33958 22616
L33958 22654
" />
<path d="M34052 22635
L34033 22672
L33995 22710
L33920 22729
L33789 22729
L33714 22710
L33677 22672
L33658 22635
L33658 22560
L33677 22522
L33714 22485
L33789 22466
L33920 22466
L33995 22485
L34033 22522
L34052 22560
L34052 22635
" />
<path d="M34052 22091
L34052 22316
" />
<path d="M34052 22204
L33658 22204
L33714 22241
L33752 22279
L33770 22316
" />
<path d="M33658 21847
L33658 21810
L33677 21772
L33695 21754
L33733 21735
L33808 21716
L33902 21716
L33977 21735
L34014 21754
L34033 21772
L34052 21810
L34052 21847
L34033 21885
L34014 21904
L33977 21922
L33902 21941
L33808 21941
L33733 21922
L33695 21904
L33677 21885
L33658 21847
" />
<path d="M39991 19102
L39972 19139
L39935 19177
L39879 19233
L39860 19270
L39860 19308
" />
<path d="M39954 19289
L39935 19327
L39897 19364
L39822 19383
L39691 19383
L39616 19364
L39579 19327
L39560 19289
L39560 19214
L39579 19177
L39616 19139
L39691 19120
L39822 19120
L39897 19139
L39935 19177
L39954 19214
L39954 19289
" />
<path d="M39954 18745
L39954 18970
" />
<path d="M39954 18858
L39560 18858
L39616 18895
L39654 18933
L39672 18970
" />
<path d="M39597 18595
L39579 18577
L39560 18539
L39560 18445
L39579 18408
L39597 18389
L39635 18370
L39672 18370
L39729 18389
L39954 18614
L39954 18370
" />
<path d="M38239 22447
L38220 22485
L38183 22522
L38127 22579
L38108 22616
L38108 22654
" />
<path d="M38202 22635
L38183 22672
L38145 22710
L38070 22729
L37939 22729
L37864 22710
L37827 22672
L37808 22635
L37808 22560
L37827 22522
L37864 22485
L37939 22466
L38070 22466
L38145 22485
L38183 22522
L38202 22560
L38202 22635
" />
<path d="M38202 22091
L38202 22316
" />
<path d="M38202 22204
L37808 22204
L37864 22241
L37902 22279
L37920 22316
" />
<path d="M37808 21960
L37808 21716
L37958 21847
L37958 21791
L37977 21754
L37995 21735
L38033 21716
L38127 21716
L38164 21735
L38183 21754
L38202 21791
L38202 21904
L38183 21941
L38164 21960
" />
<path d="M33528 20165
L33340 20296
" />
<path d="M33528 20390
L33134 20390
L33134 20240
L33153 20203
L33171 20184
L33209 20165
L33265 20165
L33303 20184
L33321 20203
L33340 20240
L33340 20390
" />
<path d="M33134 20034
L33134 19771
L33528 19940
" />
<path d="M36978 20453
L36790 20584
" />
<path d="M36978 20678
L36584 20678
L36584 20528
L36603 20490
L36621 20471
L36659 20453
L36715 20453
L36753 20471
L36771 20490
L36790 20528
L36790 20678
" />
<path d="M36978 20078
L36978 20303
" />
<path d="M36978 20190
L36584 20190
L36640 20228
L36678 20265
L36696 20303
" />
<path d="M36978 19703
L36978 19928
" />
<path d="M36978 19815
L36584 19815
L36640 19853
L36678 19890
L36696 19928
" />
<path d="M40528 20353
L40340 20484
" />
<path d="M40528 20578
L40134 20578
L40134 20428
L40153 20390
L40171 20371
L40209 20353
L40265 20353
L40303 20371
L40321 20390
L40340 20428
L40340 20578
" />
<path d="M40528 19978
L40528 20203
" />
<path d="M40528 20090
L40134 20090
L40190 20128
L40228 20165
L40246 20203
" />
<path d="M40171 19828
L40153 19809
L40134 19771
L40134 19678
L40153 19640
L40171 19621
L40209 19603
L40246 19603
L40303 19621
L40528 19846
L40528 19603
" />
<path d="M32478 20353
L32290 20484
" />
<path d="M32478 20578
L32084 20578
L32084 20428
L32103 20390
L32121 20371
L32159 20353
L32215 20353
L32253 20371
L32271 20390
L32290 20428
L32290 20578
" />
<path d="M32478 19978
L32478 20203
" />
<path d="M32478 20090
L32084 20090
L32140 20128
L32178 20165
L32196 20203
" />
<path d="M32084 19846
L32084 19603
L32234 19734
L32234 19678
L32253 19640
L32271 19621
L32309 19603
L32403 19603
L32440 19621
L32459 19640
L32478 19678
L32478 19790
L32459 19828
L32440 19846
" />
<path d="M36234 27578
L36103 27390
" />
<path d="M36009 27578
L36009 27184
L36159 27184
L36196 27203
L36215 27221
L36234 27259
L36234 27315
L36215 27353
L36196 27371
L36159 27390
L36009 27390
" />
<path d="M36459 27353
L36421 27334
L36403 27315
L36384 27278
L36384 27259
L36403 27221
L36421 27203
L36459 27184
L36534 27184
L36571 27203
L36590 27221
L36609 27259
L36609 27278
L36590 27315
L36571 27334
L36534 27353
L36459 27353
L36421 27371
L36403 27390
L36384 27428
L36384 27503
L36403 27540
L36421 27559
L36459 27578
L36534 27578
L36571 27559
L36590 27540
L36609 27503
L36609 27428
L36590 27390
L36571 27371
L36534 27353
" />
<path d="M39935 28372
L39974 28147
" />
<path d="M39775 28213
L40054 27935
L40160 28041
L40173 28081
L40173 28107
L40160 28147
L40120 28187
L40080 28200
L40054 28200
L40014 28187
L39908 28081
" />
<path d="M40200 28637
L40041 28478
" />
<path d="M40120 28558
L40399 28279
L40332 28293
L40279 28293
L40239 28279
" />
<path d="M40571 28452
L40756 28637
L40359 28796
" />
<path d="M32934 29628
L32803 29440
" />
<path d="M32709 29628
L32709 29234
L32859 29234
L32896 29253
L32915 29271
L32934 29309
L32934 29365
L32915 29403
L32896 29421
L32859 29440
L32709 29440
" />
<path d="M33271 29234
L33196 29234
L33159 29253
L33140 29271
L33103 29328
L33084 29403
L33084 29553
L33103 29590
L33121 29609
L33159 29628
L33234 29628
L33271 29609
L33290 29590
L33309 29553
L33309 29459
L33290 29421
L33271 29403
L33234 29384
L33159 29384
L33121 29403
L33103 29421
L33084 29459
" />
<path d="M30676 29881
L30957 29881
L31013 29899
L31051 29937
L31070 29993
L31070 30031
" />
<path d="M31070 29487
L31070 29712
" />
<path d="M31070 29600
L30676 29600
L30732 29637
L30770 29675
L30789 29712
" />
<path d="M34262 28540
L34225 28521
L34187 28484
L34131 28427
L34093 28409
L34056 28409
" />
<path d="M34075 28502
L34037 28484
L34000 28446
L33981 28371
L33981 28240
L34000 28165
L34037 28127
L34075 28109
L34150 28109
L34187 28127
L34225 28165
L34243 28240
L34243 28371
L34225 28446
L34187 28484
L34150 28502
L34075 28502
" />
<path d="M34374 28109
L34637 28109
L34468 28502
" />
<path d="M35175 25390
L35137 25372
L35100 25334
L35043 25278
L35006 25259
L34968 25259
" />
<path d="M34987 25353
L34950 25334
L34912 25297
L34893 25222
L34893 25090
L34912 25015
L34950 24978
L34987 24959
L35062 24959
L35100 24978
L35137 25015
L35156 25090
L35156 25222
L35137 25297
L35100 25334
L35062 25353
L34987 25353
" />
<path d="M35531 25353
L35306 25353
" />
<path d="M35418 25353
L35418 24959
L35381 25015
L35343 25053
L35306 25072
" />
<path d="M35906 25353
L35681 25353
" />
<path d="M35793 25353
L35793 24959
L35756 25015
L35718 25053
L35681 25072
" />
<path d="M39175 25390
L39137 25372
L39100 25334
L39043 25278
L39006 25259
L38968 25259
" />
<path d="M38987 25353
L38950 25334
L38912 25297
L38893 25222
L38893 25090
L38912 25015
L38950 24978
L38987 24959
L39062 24959
L39100 24978
L39137 25015
L39156 25090
L39156 25222
L39137 25297
L39100 25334
L39062 25353
L38987 25353
" />
<path d="M39531 25353
L39306 25353
" />
<path d="M39418 25353
L39418 24959
L39381 25015
L39343 25053
L39306 25072
" />
<path d="M39868 25090
L39868 25353
" />
<path d="M39774 24940
L39681 25222
L39924 25222
" />
<path d="M41578 20353
L41390 20484
" />
<path d="M41578 20578
L41184 20578
L41184 20428
L41203 20390
L41221 20371
L41259 20353
L41315 20353
L41353 20371
L41371 20390
L41390 20428
L41390 20578
" />
<path d="M41578 19978
L41578 20203
" />
<path d="M41578 20090
L41184 20090
L41240 20128
L41278 20165
L41296 20203
" />
<path d="M41184 19640
L41184 19715
L41203 19753
L41221 19771
L41278 19809
L41353 19828
L41503 19828
L41540 19809
L41559 19790
L41578 19753
L41578 19678
L41559 19640
L41540 19621
L41503 19603
L41409 19603
L41371 19621
L41353 19640
L41334 19678
L41334 19753
L41353 19790
L41371 19809
L41409 19828
" />
</g> 
</svg>
