<?xml version="1.0" standalone="no"?>
 <!DOCTYPE svg PUBLIC "-//W3C//DTD SVG 1.1//EN" 
 "http://www.w3.org/Graphics/SVG/1.1/DTD/svg11.dtd"> 
<svg xmlns="http://www.w3.org/2000/svg" version="1.1" 
    width="21.0007cm" height="29.7002cm" viewBox="0 0 82680 116930 ">
<title>SVG Picture created as ponyser1-F_SilkS.svg date 2014/06/30 14:00:25 </title>
  <desc>Picture generated by PCBNEW </desc>
<g style="fill:#000000; fill-opacity:1;stroke:#000000; stroke-opacity:1;
stroke-linecap:round; stroke-linejoin:round; "
 transform="translate(0 0) scale(1 1)">
</g>
<g style="fill:#000000; fill-opacity:0.0; 
stroke:#000000; stroke-width:120; stroke-opacity:1; 
stroke-linecap:round; stroke-linejoin:round;">
<path d="M21500 12000
L21500 12400
" />
<path d="M21500 12400
L21900 12400
" />
<path d="M21900 12400
L21900 15600
" />
<path d="M21900 15600
L21100 15600
" />
<path d="M21100 15600
L21100 12400
" />
<path d="M21100 12400
L21500 12400
" />
<path d="M21700 12400
L21900 12600
" />
<path d="M21500 16000
L21500 15600
" />
<path d="M24500 11500
L24900 11500
" />
<path d="M24900 11500
L24900 11100
" />
<path d="M24900 11100
L28100 11100
" />
<path d="M28100 11100
L28100 11900
" />
<path d="M28100 11900
L24900 11900
" />
<path d="M24900 11900
L24900 11500
" />
<path d="M24900 11300
L25100 11100
" />
<path d="M28500 11500
L28100 11500
" />
<path d="M29000 19750
L29000 19350
" />
<path d="M29000 19350
L28600 19350
" />
<path d="M28600 19350
L28600 16150
" />
<path d="M28600 16150
L29400 16150
" />
<path d="M29400 16150
L29400 19350
" />
<path d="M29400 19350
L29000 19350
" />
<path d="M28800 19350
L28600 19150
" />
<path d="M29000 15750
L29000 16150
" />
<path d="M30500 15750
L30500 16150
" />
<path d="M30500 16150
L30900 16150
" />
<path d="M30900 16150
L30900 19350
" />
<path d="M30900 19350
L30100 19350
" />
<path d="M30100 19350
L30100 16150
" />
<path d="M30100 16150
L30500 16150
" />
<path d="M30700 16150
L30900 16350
" />
<path d="M30500 19750
L30500 19350
" />
<path d="M16000 13000
L16000 13400
" />
<path d="M16000 13400
L16400 13400
" />
<path d="M16400 13400
L16400 16600
" />
<path d="M16400 16600
L15600 16600
" />
<path d="M15600 16600
L15600 13400
" />
<path d="M15600 13400
L16000 13400
" />
<path d="M16200 13400
L16400 13600
" />
<path d="M16000 17000
L16000 16600
" />
<path d="M20000 16000
L20000 15700
" />
<path d="M20000 15700
L20400 15700
" />
<path d="M20400 15700
L20400 13300
" />
<path d="M20400 13300
L20000 13300
" />
<path d="M20000 13300
L20000 13000
" />
<path d="M20000 13300
L19600 13300
" />
<path d="M19600 13300
L19600 15700
" />
<path d="M19600 15700
L20000 15700
" />
<path d="M20400 15500
L19600 15500
" />
<path d="M19600 15400
L20400 15400
" />
<path d="M23000 14500
L23000 14200
" />
<path d="M23000 14200
L23400 14200
" />
<path d="M23400 14200
L23400 11800
" />
<path d="M23400 11800
L23000 11800
" />
<path d="M23000 11800
L23000 11500
" />
<path d="M23000 11800
L22600 11800
" />
<path d="M22600 11800
L22600 14200
" />
<path d="M22600 14200
L23000 14200
" />
<path d="M23400 14000
L22600 14000
" />
<path d="M22600 13900
L23400 13900
" />
<path d="M18500 16000
L18500 15700
" />
<path d="M18500 15700
L18900 15700
" />
<path d="M18900 15700
L18900 13300
" />
<path d="M18900 13300
L18500 13300
" />
<path d="M18500 13300
L18500 13000
" />
<path d="M18500 13300
L18100 13300
" />
<path d="M18100 13300
L18100 15700
" />
<path d="M18100 15700
L18500 15700
" />
<path d="M18900 15500
L18100 15500
" />
<path d="M18100 15400
L18900 15400
" />
<path d="M18500 19000
L18800 19000
" />
<path d="M18800 19000
L18800 19400
" />
<path d="M18800 19400
L21200 19400
" />
<path d="M21200 19400
L21200 19000
" />
<path d="M21200 19000
L21500 19000
" />
<path d="M21200 19000
L21200 18600
" />
<path d="M21200 18600
L18800 18600
" />
<path d="M18800 18600
L18800 19000
" />
<path d="M19000 19400
L19000 18600
" />
<path d="M19100 18600
L19100 19400
" />
<path d="M23000 16000
L23000 16300
" />
<path d="M23000 16300
L22600 16300
" />
<path d="M22600 16300
L22600 18700
" />
<path d="M22600 18700
L23000 18700
" />
<path d="M23000 18700
L23000 19000
" />
<path d="M23000 18700
L23400 18700
" />
<path d="M23400 18700
L23400 16300
" />
<path d="M23400 16300
L23000 16300
" />
<path d="M22600 16500
L23400 16500
" />
<path d="M23400 16600
L22600 16600
" />
<path d="M30000 11500
L30000 11200
" />
<path d="M30000 11200
L30400 11200
" />
<path d="M30400 11200
L30400 8800
" />
<path d="M30400 8800
L30000 8800
" />
<path d="M30000 8800
L30000 8500
" />
<path d="M30000 8800
L29600 8800
" />
<path d="M29600 8800
L29600 11200
" />
<path d="M29600 11200
L30000 11200
" />
<path d="M30400 11000
L29600 11000
" />
<path d="M29600 10900
L30400 10900
" />
<path d="M34650 16600
L34650 19400
" />
<path d="M34650 19400
L33850 19400
" />
<path d="M33850 19400
L33850 16600
" />
<path d="M33850 16600
L34650 16600
" />
<path d="M34450 16600
L34650 16800
" />
<path d="M27000 13750
L25500 15250
" />
<path d="M25500 15250
L25500 15750
" />
<path d="M25500 15750
L26000 16250
" />
<path d="M26000 16250
L27000 16250
" />
<path d="M27000 16250
L28000 15250
" />
<path d="M28000 15250
L28000 14250
" />
<path d="M28000 14250
L27500 13750
" />
<path d="M27500 13750
L27000 13750
" />
<path d="M35000 13000
L33500 14500
" />
<path d="M33500 14500
L33500 15000
" />
<path d="M33500 15000
L34000 15500
" />
<path d="M34000 15500
L35000 15500
" />
<path d="M35000 15500
L36000 14500
" />
<path d="M36000 14500
L36000 13500
" />
<path d="M36000 13500
L35500 13000
" />
<path d="M35500 13000
L35000 13000
" />
</g>
<g style="fill:#000000; fill-opacity:0.0; 
stroke:#000000; stroke-width:50; stroke-opacity:1; 
stroke-linecap:round; stroke-linejoin:round;">
<path d="M13650 31250
L13650 37250
" />
<path d="M13650 37250
L20750 37250
" />
<path d="M20750 37250
L20750 31250
" />
<path d="M20750 31250
L13650 31250
" />
</g>
<g style="fill:#000000; fill-opacity:0.0; 
stroke:#000000; stroke-width:100; stroke-opacity:1; 
stroke-linecap:round; stroke-linejoin:round;">
<path d="M32250 10250
L32250 14250
" />
<path d="M31250 10250
L31250 14250
" />
<path d="M31250 14250
L32250 14250
" />
<path d="M32250 10250
L31250 10250
" />
</g>
<g style="fill:#000000; fill-opacity:0.0; 
stroke:#000000; stroke-width:60; stroke-opacity:1; 
stroke-linecap:round; stroke-linejoin:round;">
<path d="M23000 9250
L23000 10250
" />
<path d="M23000 10250
L20000 10250
" />
<path d="M20000 10250
L20000 9250
" />
<path d="M20000 9250
L23000 9250
" />
<path d="M22000 10250
L22000 9250
" />
<path d="M22000 50750
L23000 50750
" />
<path d="M23000 50750
L23000 53750
" />
<path d="M23000 53750
L22000 53750
" />
<path d="M22000 53750
L22000 50750
" />
<path d="M23000 51750
L22000 51750
" />
<path d="M22500 33500
L23500 33500
" />
<path d="M23500 33500
L23500 36500
" />
<path d="M23500 36500
L22500 36500
" />
<path d="M22500 36500
L22500 33500
" />
<path d="M23500 34500
L22500 34500
" />
<path d="M32250 10250
L31250 10250
" />
<path d="M31250 10250
L31250 8250
" />
<path d="M31250 8250
L32250 8250
" />
<path d="M32250 8250
L32250 10250
" />
<path d="M23000 50000
L22000 50000
" />
<path d="M22000 50000
L22000 48000
" />
<path d="M22000 48000
L23000 48000
" />
<path d="M23000 48000
L23000 50000
" />
<path d="M22500 31500
L23500 31500
" />
<path d="M23500 31500
L23500 33500
" />
<path d="M23500 33500
L22500 33500
" />
<path d="M22500 33500
L22500 31500
" />
<path d="M23000 10250
L23000 9250
" />
<path d="M23000 9250
L25000 9250
" />
<path d="M25000 9250
L25000 10250
" />
<path d="M25000 10250
L23000 10250
" />
</g>
<g style="fill:#000000; fill-opacity:0.0; 
stroke:#000000; stroke-width:50; stroke-opacity:1; 
stroke-linecap:round; stroke-linejoin:round;">
<circle cx="32250" cy="17500" r="1001.25" /> 
<circle cx="34000" cy="11000" r="1001.25" /> 
</g>
<g style="fill:#000000; fill-opacity:0.0; 
stroke:#000000; stroke-width:120; stroke-opacity:1; 
stroke-linecap:round; stroke-linejoin:round;">
<path d="M19900 57350
L19900 44550
" />
<path d="M19900 44550
L12900 44550
" />
<path d="M12900 44550
L12900 57350
" />
<path d="M12900 57350
L19900 57350
" />
<path d="M12900 54550
L15900 54550
" />
<path d="M15900 54550
L15900 47350
" />
<path d="M15900 47350
L12900 47350
" />
<path d="M12900 53950
L9500 53950
" />
<path d="M9500 53950
L9500 47950
" />
<path d="M9500 47950
L12900 47950
" />
</g>
<g style="fill:#000000; fill-opacity:0.0; 
stroke:#000000; stroke-width:59.0551; stroke-opacity:1; 
stroke-linecap:round; stroke-linejoin:round;">
<circle cx="21500" cy="12000" r="270.472" /> 
<circle cx="21500" cy="16000" r="270.472" /> 
<circle cx="24500" cy="11500" r="270.472" /> 
<circle cx="28500" cy="11500" r="270.472" /> 
<circle cx="29000" cy="19750" r="270.472" /> 
<circle cx="29000" cy="15750" r="270.472" /> 
<circle cx="30500" cy="15750" r="270.472" /> 
<circle cx="30500" cy="19750" r="270.472" /> 
<circle cx="16000" cy="13000" r="270.472" /> 
<circle cx="16000" cy="17000" r="270.472" /> 
<polyline fill="none;"
points="19754,15754
20245,15754
20245,16245
19754,16245
19754,15754
" /> 
<circle cx="20000" cy="13000" r="245.472" /> 
<polyline fill="none;"
points="22754,14254
23245,14254
23245,14745
22754,14745
22754,14254
" /> 
<circle cx="23000" cy="11500" r="245.472" /> 
<polyline fill="none;"
points="18254,15754
18745,15754
18745,16245
18254,16245
18254,15754
" /> 
<circle cx="18500" cy="13000" r="245.472" /> 
<polyline fill="none;"
points="18745,18754
18745,19245
18254,19245
18254,18754
18745,18754
" /> 
<circle cx="21500" cy="19000" r="245.472" /> 
<polyline fill="none;"
points="23245,16245
22754,16245
22754,15754
23245,15754
23245,16245
" /> 
<circle cx="23000" cy="19000" r="245.472" /> 
<polyline fill="none;"
points="29754,11254
30245,11254
30245,11745
29754,11745
29754,11254
" /> 
<circle cx="30000" cy="8500" r="245.472" /> 
<circle cx="34250" cy="17000" r="245.472" /> 
<circle cx="34250" cy="19000" r="245.472" /> 
<polyline fill="none;"
points="25995,15504
25995,15995
25504,15995
25504,15504
25995,15504
" /> 
<circle cx="27500" cy="15750" r="245.472" /> 
<circle cx="27500" cy="14000" r="245.472" /> 
<polyline fill="none;"
points="33995,14754
33995,15245
33504,15245
33504,14754
33995,14754
" /> 
<circle cx="35500" cy="15000" r="245.472" /> 
<circle cx="35500" cy="13250" r="245.472" /> 
<circle cx="16750" cy="36588" r="688.972" /> 
<circle cx="16750" cy="31915" r="688.972" /> 
<polyline fill="none;"
points="18984,32234
19515,32234
19515,32765
18984,32765
18984,32234
" /> 
<circle cx="20250" cy="33000" r="265.972" /> 
<circle cx="19250" cy="33500" r="265.972" /> 
<circle cx="20250" cy="34000" r="265.972" /> 
<circle cx="19250" cy="34500" r="265.972" /> 
<circle cx="20250" cy="35000" r="265.972" /> 
<circle cx="19250" cy="35500" r="265.972" /> 
<circle cx="20250" cy="36000" r="265.972" /> 
<polyline fill="none;"
points="32020,14020
31479,14020
31479,13479
32020,13479
32020,14020
" /> 
<circle cx="31750" cy="12750" r="270.472" /> 
<circle cx="31750" cy="11750" r="270.472" /> 
<circle cx="31750" cy="10750" r="270.472" /> 
<polyline fill="none;"
points="22770,9479
22770,10020
22229,10020
22229,9479
22770,9479
" /> 
<circle cx="21500" cy="9750" r="270.472" /> 
<circle cx="20500" cy="9750" r="270.472" /> 
<polyline fill="none;"
points="22229,50979
22770,50979
22770,51520
22229,51520
22229,50979
" /> 
<circle cx="22500" cy="52250" r="270.472" /> 
<circle cx="22500" cy="53250" r="270.472" /> 
<polyline fill="none;"
points="22729,33729
23270,33729
23270,34270
22729,34270
22729,33729
" /> 
<circle cx="23000" cy="35000" r="270.472" /> 
<circle cx="23000" cy="36000" r="270.472" /> 
<polyline fill="none;"
points="32020,10020
31479,10020
31479,9479
32020,9479
32020,10020
" /> 
<circle cx="31750" cy="8750" r="270.472" /> 
<polyline fill="none;"
points="22770,49770
22229,49770
22229,49229
22770,49229
22770,49770
" /> 
<circle cx="22500" cy="48500" r="270.472" /> 
<polyline fill="none;"
points="22729,31729
23270,31729
23270,32270
22729,32270
22729,31729
" /> 
<circle cx="23000" cy="33000" r="270.472" /> 
<polyline fill="none;"
points="23229,10020
23229,9479
23770,9479
23770,10020
23229,10020
" /> 
<circle cx="24500" cy="9750" r="270.472" /> 
<polyline fill="none;"
points="32004,16754
32495,16754
32495,17245
32004,17245
32004,16754
" /> 
<circle cx="32250" cy="18000" r="245.472" /> 
<polyline fill="none;"
points="34245,11745
33754,11745
33754,11254
34245,11254
34245,11745
" /> 
<circle cx="34000" cy="10500" r="245.472" /> 
<circle cx="18500" cy="45950" r="720.472" /> 
<circle cx="18500" cy="55950" r="720.472" /> 
<polyline fill="none;"
points="19770,53420
19229,53420
19229,52879
19770,52879
19770,53420
" /> 
<circle cx="19500" cy="52050" r="270.472" /> 
<circle cx="19500" cy="51000" r="270.472" /> 
<circle cx="19500" cy="49900" r="270.472" /> 
<circle cx="19500" cy="48800" r="270.472" /> 
<circle cx="18500" cy="52600" r="270.472" /> 
<circle cx="18500" cy="51500" r="270.472" /> 
<circle cx="18500" cy="50450" r="270.472" /> 
<circle cx="18500" cy="49350" r="270.472" /> 
</g>
<g style="fill:#000000; fill-opacity:0.0; 
stroke:#000000; stroke-width:80; stroke-opacity:1; 
stroke-linecap:round; stroke-linejoin:round;">
<path d="M21722 14083
L21460 14250
" />
<path d="M21722 14369
L21172 14369
L21172 14178
L21198 14130
L21225 14107
L21277 14083
L21355 14083
L21408 14107
L21434 14130
L21460 14178
L21460 14369
" />
<path d="M21172 13630
L21172 13869
L21434 13892
L21408 13869
L21382 13821
L21382 13702
L21408 13654
L21434 13630
L21486 13607
L21617 13607
L21670 13630
L21696 13654
L21722 13702
L21722 13821
L21696 13869
L21670 13892
" />
<path d="M26166 11722
L26000 11460
" />
<path d="M25880 11722
L25880 11172
L26071 11172
L26119 11198
L26142 11225
L26166 11277
L26166 11355
L26142 11408
L26119 11434
L26071 11460
L25880 11460
" />
<path d="M26595 11172
L26500 11172
L26452 11198
L26428 11225
L26380 11303
L26357 11408
L26357 11617
L26380 11670
L26404 11696
L26452 11722
L26547 11722
L26595 11696
L26619 11670
L26642 11617
L26642 11486
L26619 11434
L26595 11408
L26547 11382
L26452 11382
L26404 11408
L26380 11434
L26357 11486
" />
<path d="M28916 18222
L28750 17960
" />
<path d="M28630 18222
L28630 17672
L28821 17672
L28869 17698
L28892 17725
L28916 17777
L28916 17855
L28892 17908
L28869 17934
L28821 17960
L28630 17960
" />
<path d="M29083 17672
L29392 17672
L29226 17882
L29297 17882
L29345 17908
L29369 17934
L29392 17986
L29392 18117
L29369 18170
L29345 18196
L29297 18222
L29154 18222
L29107 18196
L29083 18170
" />
<path d="M30416 18222
L30250 17960
" />
<path d="M30130 18222
L30130 17672
L30321 17672
L30369 17698
L30392 17725
L30416 17777
L30416 17855
L30392 17908
L30369 17934
L30321 17960
L30130 17960
" />
<path d="M30892 18222
L30607 18222
" />
<path d="M30750 18222
L30750 17672
L30702 17751
L30654 17803
L30607 17829
" />
<path d="M16222 15083
L15960 15250
" />
<path d="M16222 15369
L15672 15369
L15672 15178
L15698 15130
L15725 15107
L15777 15083
L15855 15083
L15908 15107
L15934 15130
L15960 15178
L15960 15369
" />
<path d="M15855 14654
L16222 14654
" />
<path d="M15646 14773
L16039 14892
L16039 14583
" />
<path d="M19704 14661
L19704 14261
L19800 14261
L19857 14280
L19895 14319
L19914 14357
L19933 14433
L19933 14490
L19914 14566
L19895 14604
L19857 14642
L19800 14661
L19704 14661
" />
<path d="M20085 14300
L20104 14280
L20142 14261
L20238 14261
L20276 14280
L20295 14300
L20314 14338
L20314 14376
L20295 14433
L20066 14661
L20314 14661
" />
<path d="M23161 13295
L22761 13295
L22761 13199
L22780 13142
L22819 13104
L22857 13085
L22933 13066
L22990 13066
L23066 13085
L23104 13104
L23142 13142
L23161 13199
L23161 13295
" />
<path d="M22761 12933
L22761 12685
L22914 12819
L22914 12761
L22933 12723
L22952 12704
L22990 12685
L23085 12685
L23123 12704
L23142 12723
L23161 12761
L23161 12876
L23142 12914
L23123 12933
" />
<path d="M18661 14795
L18261 14795
L18261 14699
L18280 14642
L18319 14604
L18357 14585
L18433 14566
L18490 14566
L18566 14585
L18604 14604
L18642 14642
L18661 14699
L18661 14795
" />
<path d="M18661 14185
L18661 14414
" />
<path d="M18661 14299
L18261 14299
L18319 14338
L18357 14376
L18376 14414
" />
<path d="M19676 18761
L19942 18761
L19676 19161
L19942 19161
" />
<path d="M20057 18761
L20304 18761
L20171 18914
L20228 18914
L20266 18933
L20285 18952
L20304 18990
L20304 19085
L20285 19123
L20266 19142
L20228 19161
L20114 19161
L20076 19142
L20057 19123
" />
<path d="M22761 17823
L22761 17557
L23161 17823
L23161 17557
" />
<path d="M22800 17423
L22780 17404
L22761 17366
L22761 17271
L22780 17233
L22800 17214
L22838 17195
L22876 17195
L22933 17214
L23161 17442
L23161 17195
" />
<path d="M29561 9723
L29561 9457
L29961 9723
L29961 9457
" />
<path d="M29961 9095
L29961 9323
" />
<path d="M29961 9209
L29561 9209
L29619 9247
L29657 9285
L29676 9323
" />
<path d="M34373 18257
L34392 18276
L34411 18333
L34411 18371
L34392 18428
L34354 18466
L34316 18485
L34240 18504
L34183 18504
L34107 18485
L34069 18466
L34030 18428
L34011 18371
L34011 18333
L34030 18276
L34050 18257
" />
<path d="M34411 17876
L34411 18104
" />
<path d="M34411 17990
L34011 17990
L34069 18028
L34107 18066
L34126 18104
" />
<path d="M34050 17723
L34030 17704
L34011 17666
L34011 17571
L34030 17533
L34050 17514
L34088 17495
L34126 17495
L34183 17514
L34411 17742
L34411 17495
" />
<path d="M26961 13450
L26923 13430
L26885 13392
L26828 13335
L26790 13316
L26752 13316
" />
<path d="M26771 13411
L26733 13392
L26695 13354
L26676 13278
L26676 13145
L26695 13069
L26733 13030
L26771 13011
L26847 13011
L26885 13030
L26923 13069
L26942 13145
L26942 13278
L26923 13354
L26885 13392
L26847 13411
L26771 13411
" />
<path d="M27323 13411
L27095 13411
" />
<path d="M27209 13411
L27209 13011
L27171 13069
L27133 13107
L27095 13126
" />
<path d="M25757 14952
L25814 14971
L25833 14990
L25852 15028
L25852 15085
L25833 15123
L25814 15142
L25776 15161
L25623 15161
L25623 14761
L25757 14761
L25795 14780
L25814 14800
L25833 14838
L25833 14876
L25814 14914
L25795 14933
L25757 14952
L25623 14952
" />
<path d="M26252 15123
L26233 15142
L26176 15161
L26138 15161
L26080 15142
L26042 15104
L26023 15066
L26004 14990
L26004 14933
L26023 14857
L26042 14819
L26080 14780
L26138 14761
L26176 14761
L26233 14780
L26252 14800
" />
<path d="M26614 14761
L26423 14761
L26404 14952
L26423 14933
L26461 14914
L26557 14914
L26595 14933
L26614 14952
L26633 14990
L26633 15085
L26614 15123
L26595 15142
L26557 15161
L26461 15161
L26423 15142
L26404 15123
" />
<path d="M26976 14895
L26976 15161
" />
<path d="M26880 14742
L26785 15028
L27033 15028
" />
<path d="M27147 14761
L27414 14761
L27242 15161
" />
<path d="M34695 12261
L34695 12585
L34714 12623
L34733 12642
L34771 12661
L34847 12661
L34885 12642
L34904 12623
L34923 12585
L34923 12261
" />
<path d="M35076 12261
L35323 12261
L35190 12414
L35247 12414
L35285 12433
L35304 12452
L35323 12490
L35323 12585
L35304 12623
L35285 12642
L35247 12661
L35133 12661
L35095 12642
L35076 12623
" />
<path d="M33254 14161
L33064 14161
L33064 13761
" />
<path d="M33388 14161
L33388 13761
L33521 14047
L33654 13761
L33654 14161
" />
<path d="M33826 13800
L33845 13780
L33883 13761
L33978 13761
L34016 13780
L34035 13800
L34054 13838
L34054 13876
L34035 13933
L33807 14161
L34054 14161
" />
<path d="M34245 14161
L34321 14161
L34359 14142
L34378 14123
L34416 14066
L34435 13990
L34435 13838
L34416 13800
L34397 13780
L34359 13761
L34283 13761
L34245 13780
L34226 13800
L34207 13838
L34207 13933
L34226 13971
L34245 13990
L34283 14009
L34359 14009
L34397 13990
L34416 13971
L34435 13933
" />
<path d="M34569 13761
L34816 13761
L34683 13914
L34740 13914
L34778 13933
L34797 13952
L34816 13990
L34816 14085
L34797 14123
L34778 14142
L34740 14161
L34626 14161
L34588 14142
L34569 14123
" />
<path d="M35159 13761
L35083 13761
L35045 13780
L35026 13800
L34988 13857
L34969 13933
L34969 14085
L34988 14123
L35007 14142
L35045 14161
L35121 14161
L35159 14142
L35178 14123
L35197 14085
L35197 13990
L35178 13952
L35159 13933
L35121 13914
L35045 13914
L35007 13933
L34988 13952
L34969 13990
" />
<path d="M35330 13761
L35597 13761
L35330 14161
L35597 14161
" />
<path d="M35750 14009
L36054 14009
" />
<path d="M36435 13761
L36245 13761
L36226 13952
L36245 13933
L36283 13914
L36378 13914
L36416 13933
L36435 13952
L36454 13990
L36454 14085
L36435 14123
L36416 14142
L36378 14161
L36283 14161
L36245 14142
L36226 14123
" />
</g>
<g style="fill:#000000; fill-opacity:0.0; 
stroke:#000000; stroke-width:120; stroke-opacity:1; 
stroke-linecap:round; stroke-linejoin:round;">
<path d="M14492 34550
L14921 34550
L15007 34578
L15064 34635
L15092 34721
L15092 34778
" />
<path d="M14550 34292
L14521 34264
L14492 34207
L14492 34064
L14521 34007
L14550 33978
L14607 33950
L14664 33950
L14750 33978
L15092 34321
L15092 33950
" />
</g>
<g style="fill:#000000; fill-opacity:0.0; 
stroke:#000000; stroke-width:80; stroke-opacity:1; 
stroke-linecap:round; stroke-linejoin:round;">
<path d="M16949 34709
L16761 34840
" />
<path d="M16949 34934
L16555 34934
L16555 34784
L16574 34746
L16593 34728
L16630 34709
L16686 34709
L16724 34728
L16743 34746
L16761 34784
L16761 34934
" />
<path d="M16555 34427
L16836 34427
L16893 34446
L16930 34484
L16949 34540
L16949 34578
" />
<path d="M16686 34071
L16949 34071
" />
<path d="M16536 34165
L16818 34259
L16818 34015
" />
<path d="M16555 33677
L16555 33865
L16743 33883
L16724 33865
L16705 33827
L16705 33733
L16724 33696
L16743 33677
L16780 33658
L16874 33658
L16911 33677
L16930 33696
L16949 33733
L16949 33827
L16930 33865
L16911 33883
" />
<path d="M30911 12545
L30511 12545
L30511 12392
L30530 12354
L30550 12335
L30588 12316
L30645 12316
L30683 12335
L30702 12354
L30721 12392
L30721 12545
" />
<path d="M30511 12183
L30511 11935
L30664 12069
L30664 12011
L30683 11973
L30702 11954
L30740 11935
L30835 11935
L30873 11954
L30892 11973
L30911 12011
L30911 12126
L30892 12164
L30873 12183
" />
</g>
<g style="fill:#000000; fill-opacity:0.0; 
stroke:#000000; stroke-width:60; stroke-opacity:1; 
stroke-linecap:round; stroke-linejoin:round;">
<path d="M21104 10761
L21104 10361
" />
<path d="M21333 10761
L21161 10533
" />
<path d="M21333 10361
L21104 10590
" />
<path d="M21714 10761
L21485 10761
" />
<path d="M21600 10761
L21600 10361
L21561 10419
L21523 10457
L21485 10476
" />
<path d="M23511 52645
L23111 52645
" />
<path d="M23511 52416
L23283 52588
" />
<path d="M23111 52416
L23340 52645
" />
<path d="M23150 52264
L23130 52245
L23111 52207
L23111 52111
L23130 52073
L23150 52054
L23188 52035
L23226 52035
L23283 52054
L23511 52283
L23511 52035
" />
<path d="M23911 35545
L23511 35545
" />
<path d="M23911 35316
L23683 35488
" />
<path d="M23511 35316
L23740 35545
" />
<path d="M23511 35183
L23511 34935
L23664 35069
L23664 35011
L23683 34973
L23702 34954
L23740 34935
L23835 34935
L23873 34954
L23892 34973
L23911 35011
L23911 35126
L23892 35164
L23873 35183
" />
<path d="M31121 9471
L30821 9471
L30821 9357
L30835 9328
L30850 9314
L30878 9300
L30921 9300
L30950 9314
L30964 9328
L30978 9357
L30978 9471
" />
<path d="M30921 9042
L31121 9042
" />
<path d="M30807 9114
L31021 9185
L31021 9000
" />
<path d="M21871 49221
L21571 49221
L21571 49107
L21585 49078
L21600 49064
L21628 49050
L21671 49050
L21700 49064
L21714 49078
L21728 49107
L21728 49221
" />
<path d="M21600 48935
L21585 48921
L21571 48892
L21571 48821
L21585 48792
L21600 48778
L21628 48764
L21657 48764
L21700 48778
L21871 48950
L21871 48764
" />
<path d="M23871 32721
L23571 32721
L23571 32607
L23585 32578
L23600 32564
L23628 32550
L23671 32550
L23700 32564
L23714 32578
L23728 32607
L23728 32721
" />
<path d="M23571 32278
L23571 32421
L23714 32435
L23700 32421
L23685 32392
L23685 32321
L23700 32292
L23714 32278
L23742 32264
L23814 32264
L23842 32278
L23857 32292
L23871 32321
L23871 32392
L23857 32421
L23842 32435
" />
<path d="M23778 9121
L23778 8821
L23892 8821
L23921 8835
L23935 8850
L23950 8878
L23950 8921
L23935 8950
L23921 8964
L23892 8978
L23778 8978
" />
<path d="M24235 9121
L24064 9121
" />
<path d="M24150 9121
L24150 8821
L24121 8864
L24092 8892
L24064 8907
" />
</g>
<g style="fill:#000000; fill-opacity:0.0; 
stroke:#000000; stroke-width:50; stroke-opacity:1; 
stroke-linecap:round; stroke-linejoin:round;">
<path d="M32841 17550
L32856 17564
L32870 17607
L32870 17635
L32856 17678
L32827 17707
L32799 17721
L32741 17735
L32699 17735
L32641 17721
L32613 17707
L32584 17678
L32570 17635
L32570 17607
L32584 17564
L32599 17550
" />
<path d="M32570 17450
L32570 17264
L32684 17364
L32684 17321
L32699 17292
L32713 17278
L32741 17264
L32813 17264
L32841 17278
L32856 17292
L32870 17321
L32870 17407
L32856 17435
L32841 17450
" />
<path d="M31671 17791
L31871 17791
" />
<path d="M31557 17851
L31771 17910
L31771 17755
" />
<path d="M31571 17684
L31571 17517
L31871 17625
" />
<path d="M31671 17315
L31871 17315
" />
<path d="M31671 17422
L31828 17422
L31857 17410
L31871 17386
L31871 17351
L31857 17327
L31842 17315
" />
<path d="M31714 17113
L31714 17196
" />
<path d="M31871 17196
L31571 17196
L31571 17077
" />
</g>
<g style="fill:#000000; fill-opacity:0.0; 
stroke:#000000; stroke-width:80; stroke-opacity:1; 
stroke-linecap:round; stroke-linejoin:round;">
</g>
<g style="fill:#000000; fill-opacity:0.0; 
stroke:#000000; stroke-width:75; stroke-opacity:1; 
stroke-linecap:round; stroke-linejoin:round;">
<path d="M32257 16714
L32257 16485
" />
<path d="M32371 16600
L32142 16600
" />
</g>
<g style="fill:#000000; fill-opacity:0.0; 
stroke:#000000; stroke-width:80; stroke-opacity:1; 
stroke-linecap:round; stroke-linejoin:round;">
</g>
<g style="fill:#000000; fill-opacity:0.0; 
stroke:#000000; stroke-width:50; stroke-opacity:1; 
stroke-linecap:round; stroke-linejoin:round;">
<path d="M33593 11050
L33608 11064
L33622 11107
L33622 11135
L33608 11178
L33579 11207
L33551 11221
L33493 11235
L33451 11235
L33393 11221
L33365 11207
L33336 11178
L33322 11135
L33322 11107
L33336 11064
L33351 11050
" />
<path d="M33422 10792
L33622 10792
" />
<path d="M33308 10864
L33522 10935
L33522 10750
" />
<path d="M34421 10791
L34621 10791
" />
<path d="M34307 10851
L34521 10910
L34521 10755
" />
<path d="M34321 10684
L34321 10517
L34621 10625
" />
<path d="M34421 10315
L34621 10315
" />
<path d="M34421 10422
L34578 10422
L34607 10410
L34621 10386
L34621 10351
L34607 10327
L34592 10315
" />
<path d="M34464 10113
L34464 10196
" />
<path d="M34621 10196
L34321 10196
L34321 10077
" />
</g>
<g style="fill:#000000; fill-opacity:0.0; 
stroke:#000000; stroke-width:80; stroke-opacity:1; 
stroke-linecap:round; stroke-linejoin:round;">
</g>
<g style="fill:#000000; fill-opacity:0.0; 
stroke:#000000; stroke-width:75; stroke-opacity:1; 
stroke-linecap:round; stroke-linejoin:round;">
<path d="M34007 12014
L34007 11785
" />
<path d="M34121 11900
L33892 11900
" />
</g>
<g style="fill:#000000; fill-opacity:0.0; 
stroke:#000000; stroke-width:80; stroke-opacity:1; 
stroke-linecap:round; stroke-linejoin:round;">
</g>
<g style="fill:#000000; fill-opacity:0.0; 
stroke:#000000; stroke-width:120; stroke-opacity:1; 
stroke-linecap:round; stroke-linejoin:round;">
<path d="M14642 50700
L15071 50700
L15157 50728
L15214 50785
L15242 50871
L15242 50928
" />
<path d="M15242 50100
L15242 50442
" />
<path d="M15242 50271
L14642 50271
L14728 50328
L14785 50385
L14814 50442
" />
<path d="M17792 53464
L17192 53464
L17192 53321
L17221 53235
L17278 53178
L17335 53150
L17450 53121
L17535 53121
L17650 53150
L17707 53178
L17764 53235
L17792 53321
L17792 53464
" />
<path d="M17478 52664
L17507 52578
L17535 52550
L17592 52521
L17678 52521
L17735 52550
L17764 52578
L17792 52635
L17792 52864
L17192 52864
L17192 52664
L17221 52607
L17250 52578
L17307 52550
L17364 52550
L17421 52578
L17450 52607
L17478 52664
L17478 52864
" />
<path d="M17792 52235
L17792 52121
L17764 52064
L17735 52035
L17650 51978
L17535 51950
L17307 51950
L17250 51978
L17221 52007
L17192 52064
L17192 52178
L17221 52235
L17250 52264
L17307 52292
L17450 52292
L17507 52264
L17535 52235
L17564 52178
L17564 52064
L17535 52007
L17507 51978
L17450 51950
" />
<path d="M17478 51035
L17478 51235
" />
<path d="M17792 51235
L17192 51235
L17192 50950
" />
<path d="M17478 50721
L17478 50521
" />
<path d="M17792 50435
L17792 50721
L17192 50721
L17192 50435
" />
<path d="M17792 50178
L17192 50178
L17621 49978
L17192 49778
L17792 49778
" />
<path d="M17621 49521
L17621 49235
" />
<path d="M17792 49578
L17192 49378
L17792 49178
" />
<path d="M17792 48692
L17792 48978
L17192 48978
" />
<path d="M17478 48492
L17478 48292
" />
<path d="M17792 48207
L17792 48492
L17192 48492
L17192 48207
" />
</g> 
</svg>
