G04 (created by PCBNEW (2013-may-18)-stable) date Mon 16 Nov 2015 09:23:58 AM EET*
%MOIN*%
G04 Gerber Fmt 3.4, Leading zero omitted, Abs format*
%FSLAX34Y34*%
G01*
G70*
G90*
G04 APERTURE LIST*
%ADD10C,0.00590551*%
%ADD11C,0.00393701*%
%ADD12O,0.0590551X0.106299*%
%ADD13C,0.06*%
%ADD14O,0.0551181X0.0944882*%
%ADD15C,0.055*%
%ADD16O,0.0708661X0.0393701*%
%ADD17C,0.066*%
%ADD18R,0.055X0.055*%
%ADD19O,0.0944882X0.0551181*%
%ADD20C,0.1*%
%ADD21R,0.1X0.1*%
%ADD22C,0.019685*%
%ADD23C,0.011811*%
%ADD24C,0.0314961*%
G04 APERTURE END LIST*
G54D10*
G54D11*
X26250Y-8250D02*
G75*
G03X26250Y-8250I-500J0D01*
G74*
G01*
X9500Y-34750D02*
G75*
G03X9500Y-34750I-500J0D01*
G74*
G01*
X9500Y-8200D02*
G75*
G03X9500Y-8200I-500J0D01*
G74*
G01*
X26250Y-34750D02*
G75*
G03X26250Y-34750I-500J0D01*
G74*
G01*
G54D12*
X18200Y-8400D03*
X17200Y-8400D03*
X16200Y-8400D03*
G54D13*
X24750Y-20500D03*
X24750Y-24500D03*
X25000Y-18500D03*
X21000Y-18500D03*
X15500Y-19500D03*
X15500Y-23500D03*
X23250Y-24500D03*
X23250Y-20500D03*
X21000Y-17500D03*
X25000Y-17500D03*
G54D14*
X21750Y-30500D03*
X23750Y-30500D03*
X24750Y-30500D03*
X11500Y-17750D03*
X12500Y-17750D03*
X13500Y-17750D03*
X10500Y-21000D03*
X11500Y-21000D03*
X12500Y-21000D03*
G54D15*
X15500Y-26500D03*
X15500Y-24500D03*
X20200Y-32900D03*
X18200Y-32900D03*
X13900Y-34800D03*
X11900Y-34800D03*
G54D16*
X10500Y-24500D03*
X10500Y-25500D03*
X10500Y-26500D03*
X10500Y-27500D03*
X10500Y-28500D03*
X10500Y-29500D03*
X10500Y-30500D03*
X10500Y-31500D03*
X13500Y-31500D03*
X13500Y-30500D03*
X13500Y-29500D03*
X13500Y-28500D03*
X13500Y-27500D03*
X13500Y-26500D03*
X13500Y-25500D03*
X13500Y-24500D03*
X17000Y-18500D03*
X17000Y-19500D03*
X17000Y-20500D03*
X17000Y-21500D03*
X17000Y-22500D03*
X17000Y-23500D03*
X17000Y-24500D03*
X17000Y-25500D03*
X17000Y-26500D03*
X17000Y-27500D03*
X17000Y-28500D03*
X17000Y-29500D03*
X17000Y-30500D03*
X17000Y-17500D03*
X20000Y-30500D03*
X20000Y-29500D03*
X20000Y-28500D03*
X20000Y-27500D03*
X20000Y-26500D03*
X20000Y-25500D03*
X20000Y-24500D03*
X20000Y-23500D03*
X20000Y-22500D03*
X20000Y-21500D03*
X20000Y-20500D03*
X20000Y-19500D03*
X20000Y-18500D03*
X20000Y-17500D03*
G54D13*
X23000Y-8000D03*
X23000Y-12000D03*
X21750Y-8000D03*
X21750Y-12000D03*
G54D17*
X24500Y-10500D03*
X24500Y-12000D03*
G54D18*
X11300Y-8400D03*
G54D15*
X11300Y-11400D03*
G54D18*
X14750Y-8000D03*
G54D15*
X19750Y-8000D03*
X23750Y-13250D03*
X21750Y-13250D03*
X17000Y-10250D03*
X15000Y-10250D03*
X15750Y-11500D03*
X17750Y-11500D03*
G54D18*
X19750Y-11000D03*
G54D15*
X19750Y-12000D03*
G54D18*
X16500Y-14000D03*
G54D15*
X16500Y-13000D03*
G54D18*
X13250Y-10250D03*
G54D15*
X13250Y-11250D03*
G54D18*
X8750Y-30750D03*
G54D15*
X8750Y-31750D03*
G54D18*
X23750Y-28500D03*
G54D15*
X24750Y-28500D03*
X12500Y-22500D03*
X10500Y-22500D03*
X21750Y-24500D03*
X21750Y-22500D03*
G54D14*
X10500Y-19500D03*
X11500Y-19500D03*
X12500Y-19500D03*
X26000Y-15500D03*
X25000Y-15500D03*
X24000Y-15500D03*
X23000Y-15500D03*
X18000Y-15200D03*
X19000Y-15200D03*
X20000Y-15200D03*
G54D19*
X11900Y-14000D03*
X11900Y-15000D03*
G54D20*
X9000Y-13000D03*
G54D21*
X9000Y-11000D03*
G54D14*
X16500Y-34800D03*
X17500Y-34800D03*
X18500Y-34800D03*
X19500Y-34800D03*
G54D20*
X9000Y-15250D03*
G54D21*
X9000Y-17250D03*
G54D19*
X13500Y-14000D03*
X13500Y-15000D03*
G54D22*
X11900Y-14000D02*
X13500Y-14000D01*
X16500Y-14000D02*
X17600Y-14000D01*
X16500Y-14000D02*
X14000Y-16500D01*
X16500Y-14000D02*
X16900Y-14000D01*
X16900Y-14000D02*
X16500Y-14000D01*
X16500Y-14000D02*
X14000Y-14000D01*
X14000Y-14000D02*
X11900Y-14000D01*
X10500Y-19500D02*
X10500Y-21000D01*
X11500Y-17750D02*
X10500Y-18750D01*
X10500Y-18750D02*
X10500Y-19500D01*
X11500Y-17750D02*
X11500Y-17500D01*
X12500Y-16500D02*
X13000Y-16500D01*
X11500Y-17500D02*
X12500Y-16500D01*
X15500Y-19500D02*
X15500Y-17000D01*
X10500Y-22500D02*
X12500Y-24500D01*
X12500Y-24500D02*
X13500Y-24500D01*
X10500Y-21000D02*
X10500Y-22500D01*
X23250Y-20500D02*
X23000Y-20500D01*
X21750Y-16500D02*
X21750Y-13250D01*
X22250Y-17000D02*
X21750Y-16500D01*
X22250Y-19750D02*
X22250Y-17000D01*
X23000Y-20500D02*
X22250Y-19750D01*
X17000Y-17500D02*
X16000Y-17500D01*
X21750Y-12000D02*
X21750Y-10750D01*
X23000Y-9500D02*
X23000Y-8000D01*
X21750Y-10750D02*
X23000Y-9500D01*
X21750Y-13250D02*
X21000Y-14000D01*
X21000Y-14000D02*
X19750Y-14000D01*
X19500Y-14000D02*
X19750Y-14000D01*
X21750Y-12000D02*
X21750Y-13250D01*
X19500Y-14000D02*
X17600Y-14000D01*
X17600Y-14000D02*
X17500Y-14000D01*
X18750Y-14000D02*
X19500Y-14000D01*
X17500Y-14000D02*
X18750Y-14000D01*
X23250Y-20500D02*
X24750Y-20500D01*
X13000Y-16500D02*
X14250Y-16500D01*
X14000Y-16500D02*
X14250Y-16500D01*
X14000Y-16500D02*
X15000Y-16500D01*
X15500Y-17000D02*
X15000Y-16500D01*
X16000Y-17500D02*
X15500Y-17000D01*
G54D23*
X13500Y-26500D02*
X12300Y-26500D01*
X13900Y-34800D02*
X14700Y-34800D01*
X11600Y-32500D02*
X13900Y-34800D01*
X11600Y-27200D02*
X11600Y-32500D01*
X12300Y-26500D02*
X11600Y-27200D01*
X16500Y-34800D02*
X14700Y-34800D01*
X12400Y-32100D02*
X12400Y-30000D01*
X12900Y-29500D02*
X13500Y-29500D01*
X12400Y-30000D02*
X12900Y-29500D01*
X18200Y-32900D02*
X13200Y-32900D01*
X13200Y-32900D02*
X12400Y-32100D01*
X19500Y-34800D02*
X19500Y-34200D01*
X19500Y-34200D02*
X18200Y-32900D01*
X17000Y-30500D02*
X16500Y-30500D01*
X15500Y-31500D02*
X13500Y-31500D01*
X16500Y-30500D02*
X15500Y-31500D01*
X13500Y-25500D02*
X14070Y-25500D01*
X15870Y-28500D02*
X17000Y-28500D01*
X14550Y-27180D02*
X15870Y-28500D01*
X14550Y-25980D02*
X14550Y-27180D01*
X14070Y-25500D02*
X14550Y-25980D01*
X17000Y-29500D02*
X16250Y-29500D01*
X15250Y-30500D02*
X13500Y-30500D01*
X16250Y-29500D02*
X15250Y-30500D01*
X13500Y-17750D02*
X13500Y-19000D01*
X13500Y-19000D02*
X14250Y-19750D01*
X17000Y-20500D02*
X15000Y-20500D01*
X15000Y-20500D02*
X14250Y-19750D01*
X17000Y-19500D02*
X17750Y-19500D01*
X18950Y-18300D02*
X18950Y-15250D01*
X17750Y-19500D02*
X18950Y-18300D01*
X25000Y-15500D02*
X25000Y-17500D01*
X24000Y-15500D02*
X24000Y-18000D01*
X24500Y-18500D02*
X25000Y-18500D01*
X24000Y-18000D02*
X24500Y-18500D01*
X17000Y-21500D02*
X14500Y-21500D01*
X14500Y-21500D02*
X12500Y-19500D01*
X17000Y-22500D02*
X14000Y-22500D01*
X14000Y-22500D02*
X12500Y-21000D01*
X17000Y-18500D02*
X17700Y-18500D01*
X18000Y-15700D02*
X18000Y-15200D01*
X18200Y-15900D02*
X18000Y-15700D01*
X18200Y-18000D02*
X18200Y-15900D01*
X17700Y-18500D02*
X18200Y-18000D01*
X17250Y-18500D02*
X17000Y-18500D01*
X17250Y-18500D02*
X17000Y-18500D01*
G54D22*
X9000Y-11000D02*
X10900Y-11000D01*
X10900Y-11000D02*
X11300Y-11400D01*
X11900Y-15000D02*
X11250Y-15000D01*
X11250Y-15000D02*
X9000Y-17250D01*
X8750Y-30750D02*
X8750Y-17500D01*
X8750Y-17500D02*
X9000Y-17250D01*
X10500Y-31500D02*
X9500Y-31500D01*
X9500Y-31500D02*
X8750Y-30750D01*
G54D24*
X20000Y-23500D02*
X20750Y-23500D01*
X20750Y-23500D02*
X21750Y-22500D01*
G54D23*
X20000Y-30500D02*
X21750Y-30500D01*
G54D22*
X23000Y-12000D02*
X23000Y-11500D01*
X24000Y-10500D02*
X24500Y-10500D01*
X23000Y-11500D02*
X24000Y-10500D01*
X15500Y-23500D02*
X15600Y-23500D01*
X15600Y-23500D02*
X15850Y-23750D01*
X15750Y-23850D02*
X15950Y-23850D01*
X15950Y-24050D02*
X15950Y-23850D01*
X15950Y-23850D02*
X15850Y-23750D01*
X15850Y-23750D02*
X15750Y-23850D01*
X15500Y-23500D02*
X15500Y-23600D01*
X15500Y-23600D02*
X15750Y-23850D01*
X15700Y-24100D02*
X15700Y-24000D01*
X15700Y-24000D02*
X15600Y-23900D01*
X16100Y-23700D02*
X16100Y-23900D01*
X16100Y-23900D02*
X15950Y-24050D01*
X15950Y-24050D02*
X15500Y-24500D01*
X15700Y-24100D02*
X15800Y-24100D01*
X15500Y-24300D02*
X15700Y-24100D01*
X15500Y-24500D02*
X15500Y-24300D01*
X16000Y-23900D02*
X16000Y-24000D01*
X15800Y-24100D02*
X16000Y-23900D01*
X17000Y-23500D02*
X16500Y-23500D01*
X16500Y-23500D02*
X16000Y-24000D01*
X15750Y-23850D02*
X15750Y-23950D01*
X15750Y-23950D02*
X15700Y-24000D01*
X15500Y-23600D02*
X15750Y-23850D01*
X15850Y-23750D02*
X15900Y-23700D01*
X15900Y-23700D02*
X16000Y-23700D01*
X16000Y-23700D02*
X15800Y-23500D01*
X15800Y-23500D02*
X15800Y-23700D01*
X15800Y-23700D02*
X15900Y-23700D01*
X15900Y-23700D02*
X16000Y-23600D01*
X16100Y-23700D02*
X16200Y-23600D01*
X16000Y-23800D02*
X16100Y-23700D01*
X16000Y-23600D02*
X16000Y-23800D01*
X17000Y-23500D02*
X15500Y-23500D01*
X15500Y-24500D02*
X15500Y-23500D01*
X21750Y-24500D02*
X23250Y-24500D01*
X20000Y-24500D02*
X21750Y-24500D01*
X20000Y-25500D02*
X20750Y-25500D01*
X20750Y-25500D02*
X21750Y-24500D01*
X23750Y-28500D02*
X23750Y-30500D01*
X24750Y-24500D02*
X24750Y-26500D01*
X23750Y-27500D02*
X23750Y-28500D01*
X24750Y-26500D02*
X23750Y-27500D01*
X17750Y-11500D02*
X19250Y-11500D01*
X19250Y-11500D02*
X19750Y-11000D01*
X18200Y-8400D02*
X18200Y-11050D01*
X18200Y-11050D02*
X17750Y-11500D01*
G54D23*
X19250Y-11500D02*
X19750Y-11000D01*
G54D22*
X19750Y-8000D02*
X19750Y-11000D01*
X19750Y-11000D02*
X21750Y-9000D01*
X21750Y-9000D02*
X21750Y-8000D01*
X19250Y-11500D02*
X19750Y-11000D01*
X13250Y-10250D02*
X12650Y-10250D01*
X11300Y-8900D02*
X11300Y-8400D01*
X12650Y-10250D02*
X11300Y-8900D01*
X16200Y-8400D02*
X16200Y-9300D01*
X16200Y-9300D02*
X15250Y-10250D01*
X13250Y-10250D02*
X15250Y-10250D01*
X14750Y-8000D02*
X14750Y-8750D01*
X14750Y-8750D02*
X13250Y-10250D01*
G54D23*
X20000Y-17500D02*
X21000Y-17500D01*
X20000Y-18500D02*
X21000Y-18500D01*
G54D10*
G36*
X26901Y-35901D02*
X26574Y-35901D01*
X26574Y-15698D01*
X26574Y-15501D01*
X26574Y-15498D01*
X26574Y-15301D01*
X26561Y-15241D01*
X26561Y-8311D01*
X26561Y-8250D01*
X26561Y-8188D01*
X26561Y-8187D01*
X26561Y-8187D01*
X26561Y-8187D01*
X26523Y-7996D01*
X26476Y-7882D01*
X26475Y-7881D01*
X26368Y-7720D01*
X26367Y-7719D01*
X26280Y-7631D01*
X26118Y-7523D01*
X26117Y-7523D01*
X26003Y-7475D01*
X25811Y-7437D01*
X25687Y-7438D01*
X25686Y-7438D01*
X25496Y-7476D01*
X25382Y-7523D01*
X25381Y-7524D01*
X25220Y-7631D01*
X25219Y-7632D01*
X25131Y-7719D01*
X25023Y-7881D01*
X25023Y-7882D01*
X24975Y-7996D01*
X24937Y-8188D01*
X24938Y-8250D01*
X24937Y-8311D01*
X24975Y-8503D01*
X25023Y-8617D01*
X25023Y-8618D01*
X25131Y-8780D01*
X25219Y-8867D01*
X25220Y-8868D01*
X25381Y-8975D01*
X25382Y-8976D01*
X25496Y-9023D01*
X25686Y-9061D01*
X25687Y-9061D01*
X25811Y-9062D01*
X26003Y-9024D01*
X26117Y-8976D01*
X26118Y-8976D01*
X26280Y-8868D01*
X26367Y-8780D01*
X26368Y-8779D01*
X26475Y-8618D01*
X26476Y-8617D01*
X26523Y-8503D01*
X26561Y-8312D01*
X26561Y-8312D01*
X26561Y-8312D01*
X26561Y-8311D01*
X26561Y-15241D01*
X26529Y-15082D01*
X26404Y-14896D01*
X26218Y-14772D01*
X26091Y-14736D01*
X26001Y-14803D01*
X26001Y-15498D01*
X26574Y-15498D01*
X26574Y-15501D01*
X26001Y-15501D01*
X26001Y-16196D01*
X26091Y-16263D01*
X26218Y-16227D01*
X26404Y-16103D01*
X26529Y-15917D01*
X26574Y-15698D01*
X26574Y-35901D01*
X26561Y-35901D01*
X26561Y-34811D01*
X26561Y-34750D01*
X26561Y-34688D01*
X26561Y-34687D01*
X26561Y-34687D01*
X26561Y-34687D01*
X26523Y-34496D01*
X26476Y-34382D01*
X26475Y-34381D01*
X26368Y-34220D01*
X26367Y-34219D01*
X26280Y-34131D01*
X26118Y-34023D01*
X26117Y-34023D01*
X26003Y-33975D01*
X25998Y-33974D01*
X25998Y-16196D01*
X25998Y-15501D01*
X25990Y-15501D01*
X25990Y-15498D01*
X25998Y-15498D01*
X25998Y-14803D01*
X25908Y-14736D01*
X25781Y-14772D01*
X25595Y-14896D01*
X25504Y-15030D01*
X25405Y-14882D01*
X25219Y-14757D01*
X25132Y-14740D01*
X25132Y-11898D01*
X25128Y-11887D01*
X25128Y-10375D01*
X25033Y-10144D01*
X24856Y-9967D01*
X24625Y-9871D01*
X24375Y-9871D01*
X24144Y-9966D01*
X24008Y-10103D01*
X24000Y-10103D01*
X23848Y-10133D01*
X23719Y-10219D01*
X23719Y-10219D01*
X22719Y-11219D01*
X22633Y-11348D01*
X22603Y-11500D01*
X22603Y-11500D01*
X22603Y-11550D01*
X22492Y-11660D01*
X22401Y-11880D01*
X22401Y-12118D01*
X22492Y-12338D01*
X22660Y-12507D01*
X22880Y-12598D01*
X23118Y-12598D01*
X23338Y-12507D01*
X23507Y-12339D01*
X23598Y-12119D01*
X23598Y-11881D01*
X23507Y-11661D01*
X23453Y-11607D01*
X24086Y-10975D01*
X24143Y-11032D01*
X24374Y-11128D01*
X24624Y-11128D01*
X24855Y-11033D01*
X25032Y-10856D01*
X25128Y-10625D01*
X25128Y-10375D01*
X25128Y-11887D01*
X25045Y-11663D01*
X25019Y-11624D01*
X24901Y-11600D01*
X24899Y-11603D01*
X24899Y-11598D01*
X24875Y-11480D01*
X24648Y-11376D01*
X24398Y-11367D01*
X24163Y-11454D01*
X24124Y-11480D01*
X24100Y-11598D01*
X24500Y-11997D01*
X24899Y-11598D01*
X24899Y-11603D01*
X24502Y-12000D01*
X24901Y-12399D01*
X25019Y-12375D01*
X25123Y-12148D01*
X25132Y-11898D01*
X25132Y-14740D01*
X25000Y-14714D01*
X24899Y-14734D01*
X24899Y-12401D01*
X24500Y-12002D01*
X24497Y-12004D01*
X24497Y-12000D01*
X24098Y-11600D01*
X23980Y-11624D01*
X23876Y-11851D01*
X23867Y-12101D01*
X23954Y-12336D01*
X23980Y-12375D01*
X24098Y-12399D01*
X24497Y-12000D01*
X24497Y-12004D01*
X24100Y-12401D01*
X24124Y-12519D01*
X24351Y-12623D01*
X24601Y-12632D01*
X24836Y-12545D01*
X24875Y-12519D01*
X24899Y-12401D01*
X24899Y-14734D01*
X24780Y-14757D01*
X24594Y-14882D01*
X24500Y-15023D01*
X24405Y-14882D01*
X24327Y-14829D01*
X24327Y-13156D01*
X24247Y-12943D01*
X24223Y-12907D01*
X24111Y-12890D01*
X24109Y-12892D01*
X24109Y-12888D01*
X24092Y-12776D01*
X23884Y-12681D01*
X23656Y-12672D01*
X23443Y-12752D01*
X23407Y-12776D01*
X23390Y-12888D01*
X23750Y-13247D01*
X24109Y-12888D01*
X24109Y-12892D01*
X23752Y-13250D01*
X24111Y-13609D01*
X24223Y-13592D01*
X24318Y-13384D01*
X24327Y-13156D01*
X24327Y-14829D01*
X24219Y-14757D01*
X24109Y-14735D01*
X24109Y-13611D01*
X23750Y-13252D01*
X23747Y-13254D01*
X23747Y-13250D01*
X23388Y-12890D01*
X23276Y-12907D01*
X23181Y-13115D01*
X23172Y-13343D01*
X23252Y-13556D01*
X23276Y-13592D01*
X23388Y-13609D01*
X23747Y-13250D01*
X23747Y-13254D01*
X23390Y-13611D01*
X23407Y-13723D01*
X23615Y-13818D01*
X23843Y-13827D01*
X24056Y-13747D01*
X24092Y-13723D01*
X24109Y-13611D01*
X24109Y-14735D01*
X24000Y-14714D01*
X23780Y-14757D01*
X23594Y-14882D01*
X23495Y-15030D01*
X23404Y-14896D01*
X23218Y-14772D01*
X23091Y-14736D01*
X23001Y-14803D01*
X23001Y-15498D01*
X23009Y-15498D01*
X23009Y-15501D01*
X23001Y-15501D01*
X23001Y-16196D01*
X23091Y-16263D01*
X23218Y-16227D01*
X23404Y-16103D01*
X23495Y-15969D01*
X23594Y-16117D01*
X23642Y-16150D01*
X23642Y-18000D01*
X23669Y-18136D01*
X23747Y-18252D01*
X24247Y-18752D01*
X24363Y-18830D01*
X24500Y-18857D01*
X24511Y-18857D01*
X24660Y-19007D01*
X24880Y-19098D01*
X25118Y-19098D01*
X25338Y-19007D01*
X25507Y-18839D01*
X25598Y-18619D01*
X25598Y-18381D01*
X25507Y-18161D01*
X25346Y-17999D01*
X25507Y-17839D01*
X25598Y-17619D01*
X25598Y-17381D01*
X25507Y-17161D01*
X25357Y-17011D01*
X25357Y-16150D01*
X25405Y-16117D01*
X25504Y-15969D01*
X25595Y-16103D01*
X25781Y-16227D01*
X25908Y-16263D01*
X25998Y-16196D01*
X25998Y-33974D01*
X25811Y-33937D01*
X25687Y-33938D01*
X25686Y-33938D01*
X25496Y-33976D01*
X25382Y-34023D01*
X25381Y-34024D01*
X25348Y-34046D01*
X25348Y-24381D01*
X25348Y-20381D01*
X25257Y-20161D01*
X25089Y-19992D01*
X24869Y-19901D01*
X24631Y-19901D01*
X24411Y-19992D01*
X24300Y-20103D01*
X23699Y-20103D01*
X23589Y-19992D01*
X23369Y-19901D01*
X23131Y-19901D01*
X23012Y-19950D01*
X22998Y-19937D01*
X22998Y-16196D01*
X22998Y-15501D01*
X22998Y-15498D01*
X22998Y-14803D01*
X22908Y-14736D01*
X22781Y-14772D01*
X22595Y-14896D01*
X22470Y-15082D01*
X22425Y-15301D01*
X22425Y-15498D01*
X22998Y-15498D01*
X22998Y-15501D01*
X22425Y-15501D01*
X22425Y-15698D01*
X22470Y-15917D01*
X22595Y-16103D01*
X22781Y-16227D01*
X22908Y-16263D01*
X22998Y-16196D01*
X22998Y-19937D01*
X22646Y-19585D01*
X22646Y-17000D01*
X22616Y-16848D01*
X22530Y-16719D01*
X22530Y-16719D01*
X22146Y-16335D01*
X22146Y-13664D01*
X22235Y-13575D01*
X22323Y-13364D01*
X22323Y-13136D01*
X22236Y-12925D01*
X22146Y-12835D01*
X22146Y-12449D01*
X22257Y-12339D01*
X22348Y-12119D01*
X22348Y-11881D01*
X22257Y-11661D01*
X22146Y-11550D01*
X22146Y-10914D01*
X23280Y-9780D01*
X23366Y-9651D01*
X23396Y-9500D01*
X23396Y-8449D01*
X23507Y-8339D01*
X23598Y-8119D01*
X23598Y-7881D01*
X23507Y-7661D01*
X23339Y-7492D01*
X23119Y-7401D01*
X22881Y-7401D01*
X22661Y-7492D01*
X22492Y-7660D01*
X22401Y-7880D01*
X22401Y-8118D01*
X22492Y-8338D01*
X22603Y-8449D01*
X22603Y-9335D01*
X22348Y-9590D01*
X22348Y-7881D01*
X22257Y-7661D01*
X22089Y-7492D01*
X21869Y-7401D01*
X21631Y-7401D01*
X21411Y-7492D01*
X21242Y-7660D01*
X21151Y-7880D01*
X21151Y-8118D01*
X21242Y-8338D01*
X21353Y-8449D01*
X21353Y-8835D01*
X20146Y-10041D01*
X20146Y-8414D01*
X20235Y-8325D01*
X20323Y-8114D01*
X20323Y-7886D01*
X20236Y-7675D01*
X20075Y-7514D01*
X19864Y-7426D01*
X19636Y-7426D01*
X19425Y-7513D01*
X19264Y-7674D01*
X19176Y-7885D01*
X19176Y-8113D01*
X19263Y-8324D01*
X19353Y-8414D01*
X19353Y-10452D01*
X19306Y-10471D01*
X19222Y-10555D01*
X19176Y-10665D01*
X19176Y-10784D01*
X19176Y-11012D01*
X19085Y-11103D01*
X18586Y-11103D01*
X18596Y-11050D01*
X18596Y-9087D01*
X18619Y-9072D01*
X18748Y-8879D01*
X18793Y-8652D01*
X18793Y-8147D01*
X18748Y-7920D01*
X18619Y-7727D01*
X18427Y-7599D01*
X18200Y-7553D01*
X17972Y-7599D01*
X17780Y-7727D01*
X17694Y-7855D01*
X17618Y-7742D01*
X17425Y-7614D01*
X17294Y-7577D01*
X17201Y-7644D01*
X17201Y-8398D01*
X17209Y-8398D01*
X17209Y-8401D01*
X17201Y-8401D01*
X17201Y-9155D01*
X17294Y-9222D01*
X17425Y-9185D01*
X17618Y-9057D01*
X17694Y-8944D01*
X17780Y-9072D01*
X17803Y-9087D01*
X17803Y-10885D01*
X17762Y-10926D01*
X17636Y-10926D01*
X17577Y-10950D01*
X17577Y-10156D01*
X17497Y-9943D01*
X17473Y-9907D01*
X17361Y-9890D01*
X17359Y-9892D01*
X17359Y-9888D01*
X17342Y-9776D01*
X17198Y-9710D01*
X17198Y-9155D01*
X17198Y-8401D01*
X17190Y-8401D01*
X17190Y-8398D01*
X17198Y-8398D01*
X17198Y-7644D01*
X17105Y-7577D01*
X16974Y-7614D01*
X16781Y-7742D01*
X16705Y-7855D01*
X16619Y-7727D01*
X16427Y-7599D01*
X16200Y-7553D01*
X15972Y-7599D01*
X15780Y-7727D01*
X15651Y-7920D01*
X15606Y-8147D01*
X15606Y-8652D01*
X15651Y-8879D01*
X15780Y-9072D01*
X15803Y-9087D01*
X15803Y-9135D01*
X15218Y-9719D01*
X15114Y-9676D01*
X14886Y-9676D01*
X14675Y-9763D01*
X14585Y-9853D01*
X14208Y-9853D01*
X15030Y-9030D01*
X15030Y-9030D01*
X15030Y-9030D01*
X15116Y-8901D01*
X15116Y-8901D01*
X15146Y-8750D01*
X15146Y-8547D01*
X15193Y-8528D01*
X15277Y-8444D01*
X15323Y-8334D01*
X15323Y-8215D01*
X15323Y-7665D01*
X15278Y-7556D01*
X15194Y-7472D01*
X15084Y-7426D01*
X14965Y-7426D01*
X14415Y-7426D01*
X14306Y-7471D01*
X14222Y-7555D01*
X14176Y-7665D01*
X14176Y-7784D01*
X14176Y-8334D01*
X14221Y-8443D01*
X14305Y-8527D01*
X14353Y-8547D01*
X14353Y-8585D01*
X13262Y-9676D01*
X12915Y-9676D01*
X12806Y-9721D01*
X12744Y-9783D01*
X11816Y-8855D01*
X11827Y-8844D01*
X11873Y-8734D01*
X11873Y-8615D01*
X11873Y-8065D01*
X11828Y-7956D01*
X11744Y-7872D01*
X11634Y-7826D01*
X11515Y-7826D01*
X10965Y-7826D01*
X10856Y-7871D01*
X10772Y-7955D01*
X10726Y-8065D01*
X10726Y-8184D01*
X10726Y-8734D01*
X10771Y-8843D01*
X10855Y-8927D01*
X10913Y-8951D01*
X10913Y-8951D01*
X10933Y-9051D01*
X11019Y-9180D01*
X12369Y-10530D01*
X12369Y-10530D01*
X12498Y-10616D01*
X12650Y-10646D01*
X12702Y-10646D01*
X12721Y-10693D01*
X12805Y-10777D01*
X12901Y-10817D01*
X12890Y-10888D01*
X13250Y-11247D01*
X13609Y-10888D01*
X13598Y-10817D01*
X13693Y-10778D01*
X13777Y-10694D01*
X13797Y-10646D01*
X14585Y-10646D01*
X14674Y-10735D01*
X14885Y-10823D01*
X15113Y-10823D01*
X15324Y-10736D01*
X15485Y-10575D01*
X15494Y-10554D01*
X15530Y-10530D01*
X16480Y-9580D01*
X16480Y-9580D01*
X16480Y-9580D01*
X16566Y-9451D01*
X16596Y-9300D01*
X16596Y-9087D01*
X16619Y-9072D01*
X16705Y-8944D01*
X16781Y-9057D01*
X16974Y-9185D01*
X17105Y-9222D01*
X17198Y-9155D01*
X17198Y-9710D01*
X17134Y-9681D01*
X16906Y-9672D01*
X16693Y-9752D01*
X16657Y-9776D01*
X16640Y-9888D01*
X17000Y-10247D01*
X17359Y-9888D01*
X17359Y-9892D01*
X17002Y-10250D01*
X17361Y-10609D01*
X17473Y-10592D01*
X17568Y-10384D01*
X17577Y-10156D01*
X17577Y-10950D01*
X17425Y-11013D01*
X17359Y-11079D01*
X17359Y-10611D01*
X17000Y-10252D01*
X16997Y-10254D01*
X16997Y-10250D01*
X16638Y-9890D01*
X16526Y-9907D01*
X16431Y-10115D01*
X16422Y-10343D01*
X16502Y-10556D01*
X16526Y-10592D01*
X16638Y-10609D01*
X16997Y-10250D01*
X16997Y-10254D01*
X16640Y-10611D01*
X16657Y-10723D01*
X16865Y-10818D01*
X17093Y-10827D01*
X17306Y-10747D01*
X17342Y-10723D01*
X17359Y-10611D01*
X17359Y-11079D01*
X17264Y-11174D01*
X17176Y-11385D01*
X17176Y-11613D01*
X17263Y-11824D01*
X17424Y-11985D01*
X17635Y-12073D01*
X17863Y-12073D01*
X18074Y-11986D01*
X18164Y-11896D01*
X19179Y-11896D01*
X19172Y-12093D01*
X19252Y-12306D01*
X19276Y-12342D01*
X19388Y-12359D01*
X19747Y-12000D01*
X19742Y-11994D01*
X19744Y-11992D01*
X19750Y-11997D01*
X20109Y-11638D01*
X20098Y-11567D01*
X20193Y-11528D01*
X20277Y-11444D01*
X20323Y-11334D01*
X20323Y-11215D01*
X20323Y-10987D01*
X22030Y-9280D01*
X22030Y-9280D01*
X22030Y-9280D01*
X22116Y-9151D01*
X22116Y-9151D01*
X22140Y-9030D01*
X22146Y-9000D01*
X22146Y-9000D01*
X22146Y-9000D01*
X22146Y-8449D01*
X22257Y-8339D01*
X22348Y-8119D01*
X22348Y-7881D01*
X22348Y-9590D01*
X21469Y-10469D01*
X21383Y-10598D01*
X21353Y-10750D01*
X21353Y-10750D01*
X21353Y-11550D01*
X21242Y-11660D01*
X21151Y-11880D01*
X21151Y-12118D01*
X21242Y-12338D01*
X21353Y-12449D01*
X21353Y-12835D01*
X21264Y-12924D01*
X21176Y-13135D01*
X21176Y-13262D01*
X20835Y-13603D01*
X20327Y-13603D01*
X20327Y-11906D01*
X20247Y-11693D01*
X20223Y-11657D01*
X20111Y-11640D01*
X19752Y-12000D01*
X20111Y-12359D01*
X20223Y-12342D01*
X20318Y-12134D01*
X20327Y-11906D01*
X20327Y-13603D01*
X20109Y-13603D01*
X20109Y-12361D01*
X19750Y-12002D01*
X19390Y-12361D01*
X19407Y-12473D01*
X19615Y-12568D01*
X19843Y-12577D01*
X20056Y-12497D01*
X20092Y-12473D01*
X20109Y-12361D01*
X20109Y-13603D01*
X19750Y-13603D01*
X19500Y-13603D01*
X18750Y-13603D01*
X17600Y-13603D01*
X17500Y-13603D01*
X17077Y-13603D01*
X17077Y-12906D01*
X16997Y-12693D01*
X16973Y-12657D01*
X16861Y-12640D01*
X16859Y-12642D01*
X16859Y-12638D01*
X16842Y-12526D01*
X16634Y-12431D01*
X16406Y-12422D01*
X16327Y-12452D01*
X16327Y-11406D01*
X16247Y-11193D01*
X16223Y-11157D01*
X16111Y-11140D01*
X16109Y-11142D01*
X16109Y-11138D01*
X16092Y-11026D01*
X15884Y-10931D01*
X15656Y-10922D01*
X15443Y-11002D01*
X15407Y-11026D01*
X15390Y-11138D01*
X15750Y-11497D01*
X16109Y-11138D01*
X16109Y-11142D01*
X15752Y-11500D01*
X16111Y-11859D01*
X16223Y-11842D01*
X16318Y-11634D01*
X16327Y-11406D01*
X16327Y-12452D01*
X16193Y-12502D01*
X16157Y-12526D01*
X16140Y-12638D01*
X16500Y-12997D01*
X16859Y-12638D01*
X16859Y-12642D01*
X16502Y-13000D01*
X16861Y-13359D01*
X16973Y-13342D01*
X17068Y-13134D01*
X17077Y-12906D01*
X17077Y-13603D01*
X17047Y-13603D01*
X17028Y-13556D01*
X16944Y-13472D01*
X16848Y-13432D01*
X16859Y-13361D01*
X16500Y-13002D01*
X16497Y-13004D01*
X16497Y-13000D01*
X16138Y-12640D01*
X16109Y-12644D01*
X16109Y-11861D01*
X15750Y-11502D01*
X15747Y-11504D01*
X15747Y-11500D01*
X15388Y-11140D01*
X15276Y-11157D01*
X15181Y-11365D01*
X15172Y-11593D01*
X15252Y-11806D01*
X15276Y-11842D01*
X15388Y-11859D01*
X15747Y-11500D01*
X15747Y-11504D01*
X15390Y-11861D01*
X15407Y-11973D01*
X15615Y-12068D01*
X15843Y-12077D01*
X16056Y-11997D01*
X16092Y-11973D01*
X16109Y-11861D01*
X16109Y-12644D01*
X16026Y-12657D01*
X15931Y-12865D01*
X15922Y-13093D01*
X16002Y-13306D01*
X16026Y-13342D01*
X16138Y-13359D01*
X16497Y-13000D01*
X16497Y-13004D01*
X16140Y-13361D01*
X16151Y-13432D01*
X16056Y-13471D01*
X15972Y-13555D01*
X15952Y-13603D01*
X14123Y-13603D01*
X14117Y-13594D01*
X13931Y-13469D01*
X13827Y-13448D01*
X13827Y-11156D01*
X13747Y-10943D01*
X13723Y-10907D01*
X13611Y-10890D01*
X13252Y-11250D01*
X13611Y-11609D01*
X13723Y-11592D01*
X13818Y-11384D01*
X13827Y-11156D01*
X13827Y-13448D01*
X13711Y-13425D01*
X13609Y-13425D01*
X13609Y-11611D01*
X13250Y-11252D01*
X13247Y-11254D01*
X13247Y-11250D01*
X12888Y-10890D01*
X12776Y-10907D01*
X12681Y-11115D01*
X12672Y-11343D01*
X12752Y-11556D01*
X12776Y-11592D01*
X12888Y-11609D01*
X13247Y-11250D01*
X13247Y-11254D01*
X12890Y-11611D01*
X12907Y-11723D01*
X13115Y-11818D01*
X13343Y-11827D01*
X13556Y-11747D01*
X13592Y-11723D01*
X13609Y-11611D01*
X13609Y-13425D01*
X13288Y-13425D01*
X13068Y-13469D01*
X12882Y-13594D01*
X12876Y-13603D01*
X12523Y-13603D01*
X12517Y-13594D01*
X12331Y-13469D01*
X12111Y-13425D01*
X11873Y-13425D01*
X11873Y-11286D01*
X11786Y-11075D01*
X11625Y-10914D01*
X11414Y-10826D01*
X11287Y-10826D01*
X11180Y-10719D01*
X11051Y-10633D01*
X10900Y-10603D01*
X10899Y-10603D01*
X9811Y-10603D01*
X9811Y-8261D01*
X9811Y-8200D01*
X9811Y-8138D01*
X9811Y-8137D01*
X9811Y-8137D01*
X9811Y-8137D01*
X9773Y-7946D01*
X9726Y-7832D01*
X9725Y-7831D01*
X9618Y-7670D01*
X9617Y-7669D01*
X9530Y-7581D01*
X9368Y-7473D01*
X9367Y-7473D01*
X9253Y-7425D01*
X9061Y-7387D01*
X8937Y-7388D01*
X8936Y-7388D01*
X8746Y-7426D01*
X8632Y-7473D01*
X8631Y-7474D01*
X8470Y-7581D01*
X8469Y-7582D01*
X8381Y-7669D01*
X8273Y-7831D01*
X8273Y-7832D01*
X8225Y-7946D01*
X8187Y-8138D01*
X8188Y-8200D01*
X8187Y-8261D01*
X8225Y-8453D01*
X8273Y-8567D01*
X8273Y-8568D01*
X8381Y-8730D01*
X8469Y-8817D01*
X8470Y-8818D01*
X8631Y-8925D01*
X8632Y-8926D01*
X8746Y-8973D01*
X8936Y-9011D01*
X8937Y-9011D01*
X9061Y-9012D01*
X9253Y-8974D01*
X9367Y-8926D01*
X9368Y-8926D01*
X9530Y-8818D01*
X9617Y-8730D01*
X9618Y-8729D01*
X9725Y-8568D01*
X9726Y-8567D01*
X9773Y-8453D01*
X9811Y-8262D01*
X9811Y-8262D01*
X9811Y-8262D01*
X9811Y-8261D01*
X9811Y-10603D01*
X9798Y-10603D01*
X9798Y-10440D01*
X9753Y-10331D01*
X9669Y-10247D01*
X9559Y-10201D01*
X9440Y-10201D01*
X8440Y-10201D01*
X8331Y-10246D01*
X8247Y-10330D01*
X8201Y-10440D01*
X8201Y-10559D01*
X8201Y-11559D01*
X8246Y-11668D01*
X8330Y-11752D01*
X8440Y-11798D01*
X8559Y-11798D01*
X9559Y-11798D01*
X9668Y-11753D01*
X9752Y-11669D01*
X9798Y-11559D01*
X9798Y-11440D01*
X9798Y-11396D01*
X10726Y-11396D01*
X10726Y-11513D01*
X10813Y-11724D01*
X10974Y-11885D01*
X11185Y-11973D01*
X11413Y-11973D01*
X11624Y-11886D01*
X11785Y-11725D01*
X11873Y-11514D01*
X11873Y-11286D01*
X11873Y-13425D01*
X11688Y-13425D01*
X11468Y-13469D01*
X11282Y-13594D01*
X11157Y-13780D01*
X11114Y-14000D01*
X11157Y-14219D01*
X11282Y-14405D01*
X11423Y-14500D01*
X11282Y-14594D01*
X11276Y-14603D01*
X11250Y-14603D01*
X11098Y-14633D01*
X10969Y-14719D01*
X10969Y-14719D01*
X9803Y-15884D01*
X9803Y-15121D01*
X9803Y-12871D01*
X9693Y-12573D01*
X9659Y-12522D01*
X9523Y-12478D01*
X9521Y-12480D01*
X9521Y-12476D01*
X9477Y-12340D01*
X9188Y-12208D01*
X8871Y-12196D01*
X8573Y-12306D01*
X8522Y-12340D01*
X8478Y-12476D01*
X9000Y-12997D01*
X9521Y-12476D01*
X9521Y-12480D01*
X9002Y-13000D01*
X9523Y-13521D01*
X9659Y-13477D01*
X9791Y-13188D01*
X9803Y-12871D01*
X9803Y-15121D01*
X9693Y-14823D01*
X9659Y-14772D01*
X9523Y-14728D01*
X9521Y-14730D01*
X9521Y-14726D01*
X9521Y-13523D01*
X9000Y-13002D01*
X8997Y-13004D01*
X8997Y-13000D01*
X8476Y-12478D01*
X8340Y-12522D01*
X8208Y-12811D01*
X8196Y-13128D01*
X8306Y-13426D01*
X8340Y-13477D01*
X8476Y-13521D01*
X8997Y-13000D01*
X8997Y-13004D01*
X8478Y-13523D01*
X8522Y-13659D01*
X8811Y-13791D01*
X9128Y-13803D01*
X9426Y-13693D01*
X9477Y-13659D01*
X9521Y-13523D01*
X9521Y-14726D01*
X9477Y-14590D01*
X9188Y-14458D01*
X8871Y-14446D01*
X8573Y-14556D01*
X8522Y-14590D01*
X8478Y-14726D01*
X9000Y-15247D01*
X9521Y-14726D01*
X9521Y-14730D01*
X9002Y-15250D01*
X9523Y-15771D01*
X9659Y-15727D01*
X9791Y-15438D01*
X9803Y-15121D01*
X9803Y-15884D01*
X9521Y-16167D01*
X9521Y-15773D01*
X9000Y-15252D01*
X8997Y-15254D01*
X8997Y-15250D01*
X8476Y-14728D01*
X8340Y-14772D01*
X8208Y-15061D01*
X8196Y-15378D01*
X8306Y-15676D01*
X8340Y-15727D01*
X8476Y-15771D01*
X8997Y-15250D01*
X8997Y-15254D01*
X8478Y-15773D01*
X8522Y-15909D01*
X8811Y-16041D01*
X9128Y-16053D01*
X9426Y-15943D01*
X9477Y-15909D01*
X9521Y-15773D01*
X9521Y-16167D01*
X9237Y-16451D01*
X8440Y-16451D01*
X8331Y-16496D01*
X8247Y-16580D01*
X8201Y-16690D01*
X8201Y-16809D01*
X8201Y-17809D01*
X8246Y-17918D01*
X8330Y-18002D01*
X8353Y-18012D01*
X8353Y-30202D01*
X8306Y-30221D01*
X8222Y-30305D01*
X8176Y-30415D01*
X8176Y-30534D01*
X8176Y-31084D01*
X8221Y-31193D01*
X8305Y-31277D01*
X8401Y-31317D01*
X8390Y-31388D01*
X8750Y-31747D01*
X8755Y-31742D01*
X8757Y-31744D01*
X8752Y-31750D01*
X9111Y-32109D01*
X9223Y-32092D01*
X9318Y-31884D01*
X9320Y-31847D01*
X9348Y-31866D01*
X9348Y-31866D01*
X9469Y-31890D01*
X9499Y-31896D01*
X9499Y-31896D01*
X9500Y-31896D01*
X10049Y-31896D01*
X10140Y-31957D01*
X10329Y-31995D01*
X10670Y-31995D01*
X10859Y-31957D01*
X11020Y-31850D01*
X11127Y-31689D01*
X11165Y-31500D01*
X11165Y-29500D01*
X11165Y-26500D01*
X11146Y-26403D01*
X11146Y-25579D01*
X11146Y-25420D01*
X11146Y-24579D01*
X11146Y-24420D01*
X11115Y-24311D01*
X11008Y-24150D01*
X10848Y-24043D01*
X10659Y-24004D01*
X10501Y-24004D01*
X10501Y-24498D01*
X11078Y-24498D01*
X11146Y-24420D01*
X11146Y-24579D01*
X11078Y-24501D01*
X10501Y-24501D01*
X10501Y-24995D01*
X10659Y-24995D01*
X10848Y-24956D01*
X11008Y-24849D01*
X11115Y-24688D01*
X11146Y-24579D01*
X11146Y-25420D01*
X11115Y-25311D01*
X11008Y-25150D01*
X10848Y-25043D01*
X10659Y-25004D01*
X10501Y-25004D01*
X10501Y-25498D01*
X11078Y-25498D01*
X11146Y-25420D01*
X11146Y-25579D01*
X11078Y-25501D01*
X10501Y-25501D01*
X10501Y-25995D01*
X10659Y-25995D01*
X10848Y-25956D01*
X11008Y-25849D01*
X11115Y-25688D01*
X11146Y-25579D01*
X11146Y-26403D01*
X11127Y-26310D01*
X11020Y-26149D01*
X10859Y-26042D01*
X10670Y-26004D01*
X10498Y-26004D01*
X10498Y-25995D01*
X10498Y-25501D01*
X10498Y-25498D01*
X10498Y-25004D01*
X10498Y-24995D01*
X10498Y-24501D01*
X10498Y-24498D01*
X10498Y-24004D01*
X10340Y-24004D01*
X10151Y-24043D01*
X9991Y-24150D01*
X9884Y-24311D01*
X9853Y-24420D01*
X9921Y-24498D01*
X10498Y-24498D01*
X10498Y-24501D01*
X9921Y-24501D01*
X9853Y-24579D01*
X9884Y-24688D01*
X9991Y-24849D01*
X10151Y-24956D01*
X10340Y-24995D01*
X10498Y-24995D01*
X10498Y-25004D01*
X10340Y-25004D01*
X10151Y-25043D01*
X9991Y-25150D01*
X9884Y-25311D01*
X9853Y-25420D01*
X9921Y-25498D01*
X10498Y-25498D01*
X10498Y-25501D01*
X9921Y-25501D01*
X9853Y-25579D01*
X9884Y-25688D01*
X9991Y-25849D01*
X10151Y-25956D01*
X10340Y-25995D01*
X10498Y-25995D01*
X10498Y-26004D01*
X10329Y-26004D01*
X10140Y-26042D01*
X9979Y-26149D01*
X9872Y-26310D01*
X9834Y-26500D01*
X9872Y-26689D01*
X9979Y-26850D01*
X10140Y-26957D01*
X10329Y-26995D01*
X10670Y-26995D01*
X10859Y-26957D01*
X11020Y-26850D01*
X11127Y-26689D01*
X11165Y-26500D01*
X11165Y-29500D01*
X11146Y-29403D01*
X11146Y-28579D01*
X11146Y-28420D01*
X11146Y-27579D01*
X11146Y-27420D01*
X11115Y-27311D01*
X11008Y-27150D01*
X10848Y-27043D01*
X10659Y-27004D01*
X10501Y-27004D01*
X10501Y-27498D01*
X11078Y-27498D01*
X11146Y-27420D01*
X11146Y-27579D01*
X11078Y-27501D01*
X10501Y-27501D01*
X10501Y-27995D01*
X10659Y-27995D01*
X10848Y-27956D01*
X11008Y-27849D01*
X11115Y-27688D01*
X11146Y-27579D01*
X11146Y-28420D01*
X11115Y-28311D01*
X11008Y-28150D01*
X10848Y-28043D01*
X10659Y-28004D01*
X10501Y-28004D01*
X10501Y-28498D01*
X11078Y-28498D01*
X11146Y-28420D01*
X11146Y-28579D01*
X11078Y-28501D01*
X10501Y-28501D01*
X10501Y-28995D01*
X10659Y-28995D01*
X10848Y-28956D01*
X11008Y-28849D01*
X11115Y-28688D01*
X11146Y-28579D01*
X11146Y-29403D01*
X11127Y-29310D01*
X11020Y-29149D01*
X10859Y-29042D01*
X10670Y-29004D01*
X10498Y-29004D01*
X10498Y-28995D01*
X10498Y-28501D01*
X10498Y-28498D01*
X10498Y-28004D01*
X10498Y-27995D01*
X10498Y-27501D01*
X10498Y-27498D01*
X10498Y-27004D01*
X10340Y-27004D01*
X10151Y-27043D01*
X9991Y-27150D01*
X9884Y-27311D01*
X9853Y-27420D01*
X9921Y-27498D01*
X10498Y-27498D01*
X10498Y-27501D01*
X9921Y-27501D01*
X9853Y-27579D01*
X9884Y-27688D01*
X9991Y-27849D01*
X10151Y-27956D01*
X10340Y-27995D01*
X10498Y-27995D01*
X10498Y-28004D01*
X10340Y-28004D01*
X10151Y-28043D01*
X9991Y-28150D01*
X9884Y-28311D01*
X9853Y-28420D01*
X9921Y-28498D01*
X10498Y-28498D01*
X10498Y-28501D01*
X9921Y-28501D01*
X9853Y-28579D01*
X9884Y-28688D01*
X9991Y-28849D01*
X10151Y-28956D01*
X10340Y-28995D01*
X10498Y-28995D01*
X10498Y-29004D01*
X10329Y-29004D01*
X10140Y-29042D01*
X9979Y-29149D01*
X9872Y-29310D01*
X9834Y-29500D01*
X9872Y-29689D01*
X9979Y-29850D01*
X10140Y-29957D01*
X10329Y-29995D01*
X10670Y-29995D01*
X10859Y-29957D01*
X11020Y-29850D01*
X11127Y-29689D01*
X11165Y-29500D01*
X11165Y-31500D01*
X11146Y-31403D01*
X11146Y-30579D01*
X11146Y-30420D01*
X11115Y-30311D01*
X11008Y-30150D01*
X10848Y-30043D01*
X10659Y-30004D01*
X10501Y-30004D01*
X10501Y-30498D01*
X11078Y-30498D01*
X11146Y-30420D01*
X11146Y-30579D01*
X11078Y-30501D01*
X10501Y-30501D01*
X10501Y-30995D01*
X10659Y-30995D01*
X10848Y-30956D01*
X11008Y-30849D01*
X11115Y-30688D01*
X11146Y-30579D01*
X11146Y-31403D01*
X11127Y-31310D01*
X11020Y-31149D01*
X10859Y-31042D01*
X10670Y-31004D01*
X10498Y-31004D01*
X10498Y-30995D01*
X10498Y-30501D01*
X10498Y-30498D01*
X10498Y-30004D01*
X10340Y-30004D01*
X10151Y-30043D01*
X9991Y-30150D01*
X9884Y-30311D01*
X9853Y-30420D01*
X9921Y-30498D01*
X10498Y-30498D01*
X10498Y-30501D01*
X9921Y-30501D01*
X9853Y-30579D01*
X9884Y-30688D01*
X9991Y-30849D01*
X10151Y-30956D01*
X10340Y-30995D01*
X10498Y-30995D01*
X10498Y-31004D01*
X10329Y-31004D01*
X10140Y-31042D01*
X10049Y-31103D01*
X9664Y-31103D01*
X9323Y-30762D01*
X9323Y-30415D01*
X9278Y-30306D01*
X9194Y-30222D01*
X9146Y-30202D01*
X9146Y-18048D01*
X9559Y-18048D01*
X9668Y-18003D01*
X9752Y-17919D01*
X9798Y-17809D01*
X9798Y-17690D01*
X9798Y-17012D01*
X11356Y-15455D01*
X11468Y-15530D01*
X11688Y-15574D01*
X12111Y-15574D01*
X12331Y-15530D01*
X12517Y-15405D01*
X12642Y-15219D01*
X12685Y-15000D01*
X12642Y-14780D01*
X12517Y-14594D01*
X12376Y-14500D01*
X12517Y-14405D01*
X12523Y-14396D01*
X12876Y-14396D01*
X12882Y-14405D01*
X13030Y-14504D01*
X12896Y-14595D01*
X12772Y-14781D01*
X12736Y-14908D01*
X12803Y-14998D01*
X13498Y-14998D01*
X13498Y-14990D01*
X13501Y-14990D01*
X13501Y-14998D01*
X14196Y-14998D01*
X14263Y-14908D01*
X14227Y-14781D01*
X14103Y-14595D01*
X13969Y-14504D01*
X14117Y-14405D01*
X14123Y-14396D01*
X15541Y-14396D01*
X14263Y-15675D01*
X14263Y-15091D01*
X14196Y-15001D01*
X13501Y-15001D01*
X13501Y-15574D01*
X13698Y-15574D01*
X13917Y-15529D01*
X14103Y-15404D01*
X14227Y-15218D01*
X14263Y-15091D01*
X14263Y-15675D01*
X13835Y-16103D01*
X13498Y-16103D01*
X13498Y-15574D01*
X13498Y-15001D01*
X12803Y-15001D01*
X12736Y-15091D01*
X12772Y-15218D01*
X12896Y-15404D01*
X13082Y-15529D01*
X13301Y-15574D01*
X13498Y-15574D01*
X13498Y-16103D01*
X13000Y-16103D01*
X12500Y-16103D01*
X12348Y-16133D01*
X12219Y-16219D01*
X12219Y-16219D01*
X11468Y-16970D01*
X11280Y-17007D01*
X11094Y-17132D01*
X10969Y-17318D01*
X10925Y-17538D01*
X10925Y-17762D01*
X10219Y-18469D01*
X10133Y-18598D01*
X10103Y-18750D01*
X10103Y-18750D01*
X10103Y-18876D01*
X10094Y-18882D01*
X9969Y-19068D01*
X9925Y-19288D01*
X9925Y-19711D01*
X9969Y-19931D01*
X10094Y-20117D01*
X10103Y-20123D01*
X10103Y-20376D01*
X10094Y-20382D01*
X9969Y-20568D01*
X9925Y-20788D01*
X9925Y-21211D01*
X9969Y-21431D01*
X10094Y-21617D01*
X10103Y-21623D01*
X10103Y-22085D01*
X10014Y-22174D01*
X9926Y-22385D01*
X9926Y-22613D01*
X10013Y-22824D01*
X10174Y-22985D01*
X10385Y-23073D01*
X10512Y-23073D01*
X12219Y-24780D01*
X12219Y-24780D01*
X12348Y-24866D01*
X12348Y-24866D01*
X12469Y-24890D01*
X12499Y-24896D01*
X12499Y-24896D01*
X12500Y-24896D01*
X13049Y-24896D01*
X13140Y-24957D01*
X13329Y-24995D01*
X13670Y-24995D01*
X13859Y-24957D01*
X14020Y-24850D01*
X14127Y-24689D01*
X14165Y-24500D01*
X14127Y-24310D01*
X14020Y-24149D01*
X13859Y-24042D01*
X13670Y-24004D01*
X13329Y-24004D01*
X13140Y-24042D01*
X13077Y-24084D01*
X13077Y-22406D01*
X12997Y-22193D01*
X12973Y-22157D01*
X12861Y-22140D01*
X12859Y-22142D01*
X12859Y-22138D01*
X12842Y-22026D01*
X12634Y-21931D01*
X12406Y-21922D01*
X12193Y-22002D01*
X12157Y-22026D01*
X12140Y-22138D01*
X12500Y-22497D01*
X12859Y-22138D01*
X12859Y-22142D01*
X12502Y-22500D01*
X12861Y-22859D01*
X12973Y-22842D01*
X13068Y-22634D01*
X13077Y-22406D01*
X13077Y-24084D01*
X13049Y-24103D01*
X12859Y-24103D01*
X12859Y-22861D01*
X12500Y-22502D01*
X12497Y-22504D01*
X12497Y-22500D01*
X12138Y-22140D01*
X12026Y-22157D01*
X11931Y-22365D01*
X11922Y-22593D01*
X12002Y-22806D01*
X12026Y-22842D01*
X12138Y-22859D01*
X12497Y-22500D01*
X12497Y-22504D01*
X12140Y-22861D01*
X12157Y-22973D01*
X12365Y-23068D01*
X12593Y-23077D01*
X12806Y-22997D01*
X12842Y-22973D01*
X12859Y-22861D01*
X12859Y-24103D01*
X12664Y-24103D01*
X11073Y-22512D01*
X11073Y-22386D01*
X10986Y-22175D01*
X10896Y-22085D01*
X10896Y-21623D01*
X10905Y-21617D01*
X11004Y-21469D01*
X11095Y-21603D01*
X11281Y-21727D01*
X11408Y-21763D01*
X11498Y-21696D01*
X11498Y-21001D01*
X11490Y-21001D01*
X11490Y-20998D01*
X11498Y-20998D01*
X11498Y-20303D01*
X11426Y-20250D01*
X11498Y-20196D01*
X11498Y-19501D01*
X11490Y-19501D01*
X11490Y-19498D01*
X11498Y-19498D01*
X11498Y-18803D01*
X11408Y-18736D01*
X11281Y-18772D01*
X11095Y-18896D01*
X11004Y-19030D01*
X10915Y-18896D01*
X11312Y-18498D01*
X11500Y-18535D01*
X11719Y-18492D01*
X11905Y-18367D01*
X12004Y-18219D01*
X12095Y-18353D01*
X12281Y-18477D01*
X12408Y-18513D01*
X12498Y-18446D01*
X12498Y-17751D01*
X12490Y-17751D01*
X12490Y-17748D01*
X12498Y-17748D01*
X12498Y-17740D01*
X12501Y-17740D01*
X12501Y-17748D01*
X12509Y-17748D01*
X12509Y-17751D01*
X12501Y-17751D01*
X12501Y-18446D01*
X12591Y-18513D01*
X12718Y-18477D01*
X12904Y-18353D01*
X12995Y-18219D01*
X13094Y-18367D01*
X13142Y-18400D01*
X13142Y-19000D01*
X13169Y-19136D01*
X13247Y-19252D01*
X13997Y-20002D01*
X13997Y-20002D01*
X14747Y-20752D01*
X14747Y-20752D01*
X14863Y-20830D01*
X14999Y-20857D01*
X15000Y-20857D01*
X16490Y-20857D01*
X16640Y-20957D01*
X16829Y-20995D01*
X17170Y-20995D01*
X17359Y-20957D01*
X17520Y-20850D01*
X17627Y-20689D01*
X17665Y-20500D01*
X17627Y-20310D01*
X17520Y-20149D01*
X17359Y-20042D01*
X17170Y-20004D01*
X16829Y-20004D01*
X16640Y-20042D01*
X16490Y-20142D01*
X15148Y-20142D01*
X14502Y-19497D01*
X14502Y-19497D01*
X13857Y-18851D01*
X13857Y-18400D01*
X13905Y-18367D01*
X14030Y-18181D01*
X14074Y-17961D01*
X14074Y-17538D01*
X14030Y-17318D01*
X13905Y-17132D01*
X13719Y-17007D01*
X13500Y-16964D01*
X13280Y-17007D01*
X13094Y-17132D01*
X12995Y-17280D01*
X12904Y-17146D01*
X12718Y-17022D01*
X12591Y-16986D01*
X12525Y-17036D01*
X12664Y-16896D01*
X13000Y-16896D01*
X13999Y-16896D01*
X14000Y-16896D01*
X14000Y-16896D01*
X14000Y-16896D01*
X14250Y-16896D01*
X14835Y-16896D01*
X15103Y-17164D01*
X15103Y-19050D01*
X14992Y-19160D01*
X14901Y-19380D01*
X14901Y-19618D01*
X14992Y-19838D01*
X15160Y-20007D01*
X15380Y-20098D01*
X15618Y-20098D01*
X15838Y-20007D01*
X16007Y-19839D01*
X16098Y-19619D01*
X16098Y-19381D01*
X16007Y-19161D01*
X15896Y-19050D01*
X15896Y-17876D01*
X16000Y-17896D01*
X16549Y-17896D01*
X16640Y-17957D01*
X16829Y-17995D01*
X17170Y-17995D01*
X17359Y-17957D01*
X17520Y-17850D01*
X17627Y-17689D01*
X17665Y-17500D01*
X17627Y-17310D01*
X17520Y-17149D01*
X17359Y-17042D01*
X17170Y-17004D01*
X16829Y-17004D01*
X16640Y-17042D01*
X16549Y-17103D01*
X16164Y-17103D01*
X15780Y-16719D01*
X15780Y-16719D01*
X15280Y-16219D01*
X15151Y-16133D01*
X15000Y-16103D01*
X14999Y-16103D01*
X14958Y-16103D01*
X16487Y-14573D01*
X16834Y-14573D01*
X16943Y-14528D01*
X17027Y-14444D01*
X17047Y-14396D01*
X17500Y-14396D01*
X17600Y-14396D01*
X18750Y-14396D01*
X19500Y-14396D01*
X19750Y-14396D01*
X20999Y-14396D01*
X21000Y-14396D01*
X21000Y-14396D01*
X21151Y-14366D01*
X21280Y-14280D01*
X21353Y-14208D01*
X21353Y-16499D01*
X21353Y-16500D01*
X21383Y-16651D01*
X21469Y-16780D01*
X21853Y-17164D01*
X21853Y-19749D01*
X21853Y-19750D01*
X21883Y-19901D01*
X21969Y-20030D01*
X22717Y-20779D01*
X22742Y-20838D01*
X22910Y-21007D01*
X23130Y-21098D01*
X23368Y-21098D01*
X23588Y-21007D01*
X23699Y-20896D01*
X24300Y-20896D01*
X24410Y-21007D01*
X24630Y-21098D01*
X24868Y-21098D01*
X25088Y-21007D01*
X25257Y-20839D01*
X25348Y-20619D01*
X25348Y-20381D01*
X25348Y-24381D01*
X25257Y-24161D01*
X25089Y-23992D01*
X24869Y-23901D01*
X24631Y-23901D01*
X24411Y-23992D01*
X24242Y-24160D01*
X24151Y-24380D01*
X24151Y-24618D01*
X24242Y-24838D01*
X24353Y-24949D01*
X24353Y-26335D01*
X23848Y-26840D01*
X23848Y-24381D01*
X23757Y-24161D01*
X23589Y-23992D01*
X23369Y-23901D01*
X23131Y-23901D01*
X22911Y-23992D01*
X22800Y-24103D01*
X22327Y-24103D01*
X22327Y-22406D01*
X22247Y-22193D01*
X22223Y-22157D01*
X22111Y-22140D01*
X22109Y-22142D01*
X22109Y-22138D01*
X22092Y-22026D01*
X21884Y-21931D01*
X21656Y-21922D01*
X21598Y-21944D01*
X21598Y-18381D01*
X21507Y-18161D01*
X21346Y-17999D01*
X21507Y-17839D01*
X21598Y-17619D01*
X21598Y-17381D01*
X21507Y-17161D01*
X21339Y-16992D01*
X21119Y-16901D01*
X20881Y-16901D01*
X20661Y-16992D01*
X20574Y-17079D01*
X20574Y-15398D01*
X20574Y-15201D01*
X20574Y-15198D01*
X20574Y-15001D01*
X20529Y-14782D01*
X20404Y-14596D01*
X20218Y-14472D01*
X20091Y-14436D01*
X20001Y-14503D01*
X20001Y-15198D01*
X20574Y-15198D01*
X20574Y-15201D01*
X20001Y-15201D01*
X20001Y-15896D01*
X20091Y-15963D01*
X20218Y-15927D01*
X20404Y-15803D01*
X20529Y-15617D01*
X20574Y-15398D01*
X20574Y-17079D01*
X20511Y-17142D01*
X20509Y-17142D01*
X20359Y-17042D01*
X20170Y-17004D01*
X19998Y-17004D01*
X19998Y-15896D01*
X19998Y-15201D01*
X19990Y-15201D01*
X19990Y-15198D01*
X19998Y-15198D01*
X19998Y-14503D01*
X19908Y-14436D01*
X19781Y-14472D01*
X19595Y-14596D01*
X19504Y-14730D01*
X19405Y-14582D01*
X19219Y-14457D01*
X19000Y-14414D01*
X18780Y-14457D01*
X18594Y-14582D01*
X18500Y-14723D01*
X18405Y-14582D01*
X18219Y-14457D01*
X18000Y-14414D01*
X17780Y-14457D01*
X17594Y-14582D01*
X17469Y-14768D01*
X17425Y-14988D01*
X17425Y-15411D01*
X17469Y-15631D01*
X17594Y-15817D01*
X17707Y-15893D01*
X17747Y-15952D01*
X17842Y-16048D01*
X17842Y-17851D01*
X17551Y-18142D01*
X17509Y-18142D01*
X17359Y-18042D01*
X17170Y-18004D01*
X16829Y-18004D01*
X16640Y-18042D01*
X16479Y-18149D01*
X16372Y-18310D01*
X16334Y-18500D01*
X16372Y-18689D01*
X16479Y-18850D01*
X16640Y-18957D01*
X16829Y-18995D01*
X17170Y-18995D01*
X17359Y-18957D01*
X17509Y-18857D01*
X17700Y-18857D01*
X17836Y-18830D01*
X17952Y-18752D01*
X18452Y-18252D01*
X18530Y-18136D01*
X18557Y-18000D01*
X18557Y-15900D01*
X18530Y-15763D01*
X18486Y-15697D01*
X18500Y-15676D01*
X18592Y-15815D01*
X18592Y-18151D01*
X17601Y-19142D01*
X17509Y-19142D01*
X17359Y-19042D01*
X17170Y-19004D01*
X16829Y-19004D01*
X16640Y-19042D01*
X16479Y-19149D01*
X16372Y-19310D01*
X16334Y-19500D01*
X16372Y-19689D01*
X16479Y-19850D01*
X16640Y-19957D01*
X16829Y-19995D01*
X17170Y-19995D01*
X17359Y-19957D01*
X17509Y-19857D01*
X17750Y-19857D01*
X17886Y-19830D01*
X18002Y-19752D01*
X19202Y-18552D01*
X19202Y-18552D01*
X19202Y-18552D01*
X19280Y-18436D01*
X19307Y-18300D01*
X19307Y-18300D01*
X19307Y-15883D01*
X19405Y-15817D01*
X19504Y-15669D01*
X19595Y-15803D01*
X19781Y-15927D01*
X19908Y-15963D01*
X19998Y-15896D01*
X19998Y-17004D01*
X19829Y-17004D01*
X19640Y-17042D01*
X19479Y-17149D01*
X19372Y-17310D01*
X19334Y-17500D01*
X19372Y-17689D01*
X19479Y-17850D01*
X19640Y-17957D01*
X19829Y-17995D01*
X20170Y-17995D01*
X20359Y-17957D01*
X20509Y-17857D01*
X20511Y-17857D01*
X20653Y-18000D01*
X20511Y-18142D01*
X20509Y-18142D01*
X20359Y-18042D01*
X20170Y-18004D01*
X19829Y-18004D01*
X19640Y-18042D01*
X19479Y-18149D01*
X19372Y-18310D01*
X19334Y-18500D01*
X19372Y-18689D01*
X19479Y-18850D01*
X19640Y-18957D01*
X19829Y-18995D01*
X20170Y-18995D01*
X20359Y-18957D01*
X20509Y-18857D01*
X20511Y-18857D01*
X20660Y-19007D01*
X20880Y-19098D01*
X21118Y-19098D01*
X21338Y-19007D01*
X21507Y-18839D01*
X21598Y-18619D01*
X21598Y-18381D01*
X21598Y-21944D01*
X21443Y-22002D01*
X21407Y-22026D01*
X21390Y-22138D01*
X21750Y-22497D01*
X22109Y-22138D01*
X22109Y-22142D01*
X21752Y-22500D01*
X22111Y-22859D01*
X22223Y-22842D01*
X22318Y-22634D01*
X22327Y-22406D01*
X22327Y-24103D01*
X22164Y-24103D01*
X22109Y-24048D01*
X22109Y-22861D01*
X21750Y-22502D01*
X21747Y-22504D01*
X21747Y-22500D01*
X21388Y-22140D01*
X21276Y-22157D01*
X21181Y-22365D01*
X21172Y-22593D01*
X21252Y-22806D01*
X21276Y-22842D01*
X21388Y-22859D01*
X21747Y-22500D01*
X21747Y-22504D01*
X21390Y-22861D01*
X21407Y-22973D01*
X21615Y-23068D01*
X21843Y-23077D01*
X22056Y-22997D01*
X22092Y-22973D01*
X22109Y-22861D01*
X22109Y-24048D01*
X22075Y-24014D01*
X21864Y-23926D01*
X21636Y-23926D01*
X21425Y-24013D01*
X21335Y-24103D01*
X20665Y-24103D01*
X20665Y-22500D01*
X20665Y-21500D01*
X20665Y-20500D01*
X20665Y-19500D01*
X20627Y-19310D01*
X20520Y-19149D01*
X20359Y-19042D01*
X20170Y-19004D01*
X19829Y-19004D01*
X19640Y-19042D01*
X19479Y-19149D01*
X19372Y-19310D01*
X19334Y-19500D01*
X19372Y-19689D01*
X19479Y-19850D01*
X19640Y-19957D01*
X19829Y-19995D01*
X20170Y-19995D01*
X20359Y-19957D01*
X20520Y-19850D01*
X20627Y-19689D01*
X20665Y-19500D01*
X20665Y-20500D01*
X20627Y-20310D01*
X20520Y-20149D01*
X20359Y-20042D01*
X20170Y-20004D01*
X19829Y-20004D01*
X19640Y-20042D01*
X19479Y-20149D01*
X19372Y-20310D01*
X19334Y-20500D01*
X19372Y-20689D01*
X19479Y-20850D01*
X19640Y-20957D01*
X19829Y-20995D01*
X20170Y-20995D01*
X20359Y-20957D01*
X20520Y-20850D01*
X20627Y-20689D01*
X20665Y-20500D01*
X20665Y-21500D01*
X20627Y-21310D01*
X20520Y-21149D01*
X20359Y-21042D01*
X20170Y-21004D01*
X19829Y-21004D01*
X19640Y-21042D01*
X19479Y-21149D01*
X19372Y-21310D01*
X19334Y-21500D01*
X19372Y-21689D01*
X19479Y-21850D01*
X19640Y-21957D01*
X19829Y-21995D01*
X20170Y-21995D01*
X20359Y-21957D01*
X20520Y-21850D01*
X20627Y-21689D01*
X20665Y-21500D01*
X20665Y-22500D01*
X20627Y-22310D01*
X20520Y-22149D01*
X20359Y-22042D01*
X20170Y-22004D01*
X19829Y-22004D01*
X19640Y-22042D01*
X19479Y-22149D01*
X19372Y-22310D01*
X19334Y-22500D01*
X19372Y-22689D01*
X19479Y-22850D01*
X19640Y-22957D01*
X19829Y-22995D01*
X20170Y-22995D01*
X20359Y-22957D01*
X20520Y-22850D01*
X20627Y-22689D01*
X20665Y-22500D01*
X20665Y-24103D01*
X20646Y-24103D01*
X20646Y-23579D01*
X20646Y-23420D01*
X20615Y-23311D01*
X20508Y-23150D01*
X20348Y-23043D01*
X20159Y-23004D01*
X20001Y-23004D01*
X20001Y-23498D01*
X20578Y-23498D01*
X20646Y-23420D01*
X20646Y-23579D01*
X20578Y-23501D01*
X20001Y-23501D01*
X20001Y-23995D01*
X20159Y-23995D01*
X20348Y-23956D01*
X20508Y-23849D01*
X20615Y-23688D01*
X20646Y-23579D01*
X20646Y-24103D01*
X20450Y-24103D01*
X20359Y-24042D01*
X20170Y-24004D01*
X19998Y-24004D01*
X19998Y-23995D01*
X19998Y-23501D01*
X19998Y-23498D01*
X19998Y-23004D01*
X19840Y-23004D01*
X19651Y-23043D01*
X19491Y-23150D01*
X19384Y-23311D01*
X19353Y-23420D01*
X19421Y-23498D01*
X19998Y-23498D01*
X19998Y-23501D01*
X19421Y-23501D01*
X19353Y-23579D01*
X19384Y-23688D01*
X19491Y-23849D01*
X19651Y-23956D01*
X19840Y-23995D01*
X19998Y-23995D01*
X19998Y-24004D01*
X19829Y-24004D01*
X19640Y-24042D01*
X19479Y-24149D01*
X19372Y-24310D01*
X19334Y-24500D01*
X19372Y-24689D01*
X19479Y-24850D01*
X19640Y-24957D01*
X19829Y-24995D01*
X20170Y-24995D01*
X20359Y-24957D01*
X20450Y-24896D01*
X20791Y-24896D01*
X20585Y-25103D01*
X20450Y-25103D01*
X20359Y-25042D01*
X20170Y-25004D01*
X19829Y-25004D01*
X19640Y-25042D01*
X19479Y-25149D01*
X19372Y-25310D01*
X19334Y-25500D01*
X19372Y-25689D01*
X19479Y-25850D01*
X19640Y-25957D01*
X19829Y-25995D01*
X20170Y-25995D01*
X20359Y-25957D01*
X20450Y-25896D01*
X20749Y-25896D01*
X20750Y-25896D01*
X20750Y-25896D01*
X20901Y-25866D01*
X21030Y-25780D01*
X21737Y-25073D01*
X21863Y-25073D01*
X22074Y-24986D01*
X22164Y-24896D01*
X22800Y-24896D01*
X22910Y-25007D01*
X23130Y-25098D01*
X23368Y-25098D01*
X23588Y-25007D01*
X23757Y-24839D01*
X23848Y-24619D01*
X23848Y-24381D01*
X23848Y-26840D01*
X23469Y-27219D01*
X23383Y-27348D01*
X23353Y-27500D01*
X23353Y-27500D01*
X23353Y-27952D01*
X23306Y-27971D01*
X23222Y-28055D01*
X23176Y-28165D01*
X23176Y-28284D01*
X23176Y-28834D01*
X23221Y-28943D01*
X23305Y-29027D01*
X23353Y-29047D01*
X23353Y-29876D01*
X23344Y-29882D01*
X23219Y-30068D01*
X23175Y-30288D01*
X23175Y-30711D01*
X23219Y-30931D01*
X23344Y-31117D01*
X23530Y-31242D01*
X23750Y-31285D01*
X23969Y-31242D01*
X24155Y-31117D01*
X24254Y-30969D01*
X24345Y-31103D01*
X24531Y-31227D01*
X24658Y-31263D01*
X24748Y-31196D01*
X24748Y-30501D01*
X24740Y-30501D01*
X24740Y-30498D01*
X24748Y-30498D01*
X24748Y-29803D01*
X24658Y-29736D01*
X24531Y-29772D01*
X24345Y-29896D01*
X24254Y-30030D01*
X24155Y-29882D01*
X24146Y-29876D01*
X24146Y-29047D01*
X24193Y-29028D01*
X24277Y-28944D01*
X24317Y-28848D01*
X24388Y-28859D01*
X24747Y-28500D01*
X24388Y-28140D01*
X24317Y-28151D01*
X24278Y-28056D01*
X24194Y-27972D01*
X24146Y-27952D01*
X24146Y-27664D01*
X25030Y-26780D01*
X25030Y-26780D01*
X25030Y-26780D01*
X25116Y-26651D01*
X25146Y-26500D01*
X25146Y-24949D01*
X25257Y-24839D01*
X25348Y-24619D01*
X25348Y-24381D01*
X25348Y-34046D01*
X25327Y-34060D01*
X25327Y-28406D01*
X25247Y-28193D01*
X25223Y-28157D01*
X25111Y-28140D01*
X25109Y-28142D01*
X25109Y-28138D01*
X25092Y-28026D01*
X24884Y-27931D01*
X24656Y-27922D01*
X24443Y-28002D01*
X24407Y-28026D01*
X24390Y-28138D01*
X24750Y-28497D01*
X25109Y-28138D01*
X25109Y-28142D01*
X24752Y-28500D01*
X25111Y-28859D01*
X25223Y-28842D01*
X25318Y-28634D01*
X25327Y-28406D01*
X25327Y-34060D01*
X25324Y-34062D01*
X25324Y-30698D01*
X25324Y-30501D01*
X25324Y-30498D01*
X25324Y-30301D01*
X25279Y-30082D01*
X25154Y-29896D01*
X25109Y-29866D01*
X25109Y-28861D01*
X24750Y-28502D01*
X24390Y-28861D01*
X24407Y-28973D01*
X24615Y-29068D01*
X24843Y-29077D01*
X25056Y-28997D01*
X25092Y-28973D01*
X25109Y-28861D01*
X25109Y-29866D01*
X24968Y-29772D01*
X24841Y-29736D01*
X24751Y-29803D01*
X24751Y-30498D01*
X25324Y-30498D01*
X25324Y-30501D01*
X24751Y-30501D01*
X24751Y-31196D01*
X24841Y-31263D01*
X24968Y-31227D01*
X25154Y-31103D01*
X25279Y-30917D01*
X25324Y-30698D01*
X25324Y-34062D01*
X25220Y-34131D01*
X25219Y-34132D01*
X25131Y-34219D01*
X25023Y-34381D01*
X25023Y-34382D01*
X24975Y-34496D01*
X24937Y-34688D01*
X24938Y-34750D01*
X24937Y-34811D01*
X24975Y-35003D01*
X25023Y-35117D01*
X25023Y-35118D01*
X25131Y-35280D01*
X25219Y-35367D01*
X25220Y-35368D01*
X25381Y-35475D01*
X25382Y-35476D01*
X25496Y-35523D01*
X25686Y-35561D01*
X25687Y-35561D01*
X25811Y-35562D01*
X26003Y-35524D01*
X26117Y-35476D01*
X26118Y-35476D01*
X26280Y-35368D01*
X26367Y-35280D01*
X26368Y-35279D01*
X26475Y-35118D01*
X26476Y-35117D01*
X26523Y-35003D01*
X26561Y-34812D01*
X26561Y-34812D01*
X26561Y-34812D01*
X26561Y-34811D01*
X26561Y-35901D01*
X22324Y-35901D01*
X22324Y-30711D01*
X22324Y-30288D01*
X22280Y-30068D01*
X22155Y-29882D01*
X21969Y-29757D01*
X21750Y-29714D01*
X21530Y-29757D01*
X21344Y-29882D01*
X21219Y-30068D01*
X21204Y-30142D01*
X20665Y-30142D01*
X20665Y-29500D01*
X20665Y-28500D01*
X20665Y-27500D01*
X20665Y-26500D01*
X20627Y-26310D01*
X20520Y-26149D01*
X20359Y-26042D01*
X20170Y-26004D01*
X19829Y-26004D01*
X19640Y-26042D01*
X19479Y-26149D01*
X19372Y-26310D01*
X19334Y-26500D01*
X19372Y-26689D01*
X19479Y-26850D01*
X19640Y-26957D01*
X19829Y-26995D01*
X20170Y-26995D01*
X20359Y-26957D01*
X20520Y-26850D01*
X20627Y-26689D01*
X20665Y-26500D01*
X20665Y-27500D01*
X20627Y-27310D01*
X20520Y-27149D01*
X20359Y-27042D01*
X20170Y-27004D01*
X19829Y-27004D01*
X19640Y-27042D01*
X19479Y-27149D01*
X19372Y-27310D01*
X19334Y-27500D01*
X19372Y-27689D01*
X19479Y-27850D01*
X19640Y-27957D01*
X19829Y-27995D01*
X20170Y-27995D01*
X20359Y-27957D01*
X20520Y-27850D01*
X20627Y-27689D01*
X20665Y-27500D01*
X20665Y-28500D01*
X20627Y-28310D01*
X20520Y-28149D01*
X20359Y-28042D01*
X20170Y-28004D01*
X19829Y-28004D01*
X19640Y-28042D01*
X19479Y-28149D01*
X19372Y-28310D01*
X19334Y-28500D01*
X19372Y-28689D01*
X19479Y-28850D01*
X19640Y-28957D01*
X19829Y-28995D01*
X20170Y-28995D01*
X20359Y-28957D01*
X20520Y-28850D01*
X20627Y-28689D01*
X20665Y-28500D01*
X20665Y-29500D01*
X20627Y-29310D01*
X20520Y-29149D01*
X20359Y-29042D01*
X20170Y-29004D01*
X19829Y-29004D01*
X19640Y-29042D01*
X19479Y-29149D01*
X19372Y-29310D01*
X19334Y-29500D01*
X19372Y-29689D01*
X19479Y-29850D01*
X19640Y-29957D01*
X19829Y-29995D01*
X20170Y-29995D01*
X20359Y-29957D01*
X20520Y-29850D01*
X20627Y-29689D01*
X20665Y-29500D01*
X20665Y-30142D01*
X20509Y-30142D01*
X20359Y-30042D01*
X20170Y-30004D01*
X19829Y-30004D01*
X19640Y-30042D01*
X19479Y-30149D01*
X19372Y-30310D01*
X19334Y-30500D01*
X19372Y-30689D01*
X19479Y-30850D01*
X19640Y-30957D01*
X19829Y-30995D01*
X20170Y-30995D01*
X20359Y-30957D01*
X20509Y-30857D01*
X21204Y-30857D01*
X21219Y-30931D01*
X21344Y-31117D01*
X21530Y-31242D01*
X21750Y-31285D01*
X21969Y-31242D01*
X22155Y-31117D01*
X22280Y-30931D01*
X22324Y-30711D01*
X22324Y-35901D01*
X20777Y-35901D01*
X20777Y-32806D01*
X20697Y-32593D01*
X20673Y-32557D01*
X20561Y-32540D01*
X20559Y-32542D01*
X20559Y-32538D01*
X20542Y-32426D01*
X20334Y-32331D01*
X20106Y-32322D01*
X19893Y-32402D01*
X19857Y-32426D01*
X19840Y-32538D01*
X20200Y-32897D01*
X20559Y-32538D01*
X20559Y-32542D01*
X20202Y-32900D01*
X20561Y-33259D01*
X20673Y-33242D01*
X20768Y-33034D01*
X20777Y-32806D01*
X20777Y-35901D01*
X20559Y-35901D01*
X20559Y-33261D01*
X20200Y-32902D01*
X20197Y-32904D01*
X20197Y-32900D01*
X19838Y-32540D01*
X19726Y-32557D01*
X19631Y-32765D01*
X19622Y-32993D01*
X19702Y-33206D01*
X19726Y-33242D01*
X19838Y-33259D01*
X20197Y-32900D01*
X20197Y-32904D01*
X19840Y-33261D01*
X19857Y-33373D01*
X20065Y-33468D01*
X20293Y-33477D01*
X20506Y-33397D01*
X20542Y-33373D01*
X20559Y-33261D01*
X20559Y-35901D01*
X20074Y-35901D01*
X20074Y-35011D01*
X20074Y-34588D01*
X20030Y-34368D01*
X19905Y-34182D01*
X19845Y-34142D01*
X19830Y-34063D01*
X19752Y-33947D01*
X18773Y-32967D01*
X18773Y-32786D01*
X18686Y-32575D01*
X18525Y-32414D01*
X18314Y-32326D01*
X18086Y-32326D01*
X17875Y-32413D01*
X17746Y-32542D01*
X17665Y-32542D01*
X17665Y-30500D01*
X17665Y-29500D01*
X17665Y-28500D01*
X17665Y-27500D01*
X17665Y-26500D01*
X17665Y-25500D01*
X17665Y-23500D01*
X17665Y-22500D01*
X17627Y-22310D01*
X17520Y-22149D01*
X17359Y-22042D01*
X17170Y-22004D01*
X16829Y-22004D01*
X16640Y-22042D01*
X16490Y-22142D01*
X14148Y-22142D01*
X13074Y-21068D01*
X13074Y-20788D01*
X13030Y-20568D01*
X12964Y-20470D01*
X14247Y-21752D01*
X14247Y-21752D01*
X14363Y-21830D01*
X14499Y-21857D01*
X14500Y-21857D01*
X16490Y-21857D01*
X16640Y-21957D01*
X16829Y-21995D01*
X17170Y-21995D01*
X17359Y-21957D01*
X17520Y-21850D01*
X17627Y-21689D01*
X17665Y-21500D01*
X17627Y-21310D01*
X17520Y-21149D01*
X17359Y-21042D01*
X17170Y-21004D01*
X16829Y-21004D01*
X16640Y-21042D01*
X16490Y-21142D01*
X14648Y-21142D01*
X13074Y-19568D01*
X13074Y-19288D01*
X13030Y-19068D01*
X12905Y-18882D01*
X12719Y-18757D01*
X12500Y-18714D01*
X12280Y-18757D01*
X12094Y-18882D01*
X11995Y-19030D01*
X11904Y-18896D01*
X11718Y-18772D01*
X11591Y-18736D01*
X11501Y-18803D01*
X11501Y-19498D01*
X11509Y-19498D01*
X11509Y-19501D01*
X11501Y-19501D01*
X11501Y-20196D01*
X11573Y-20250D01*
X11501Y-20303D01*
X11501Y-20998D01*
X11509Y-20998D01*
X11509Y-21001D01*
X11501Y-21001D01*
X11501Y-21696D01*
X11591Y-21763D01*
X11718Y-21727D01*
X11904Y-21603D01*
X11995Y-21469D01*
X12094Y-21617D01*
X12280Y-21742D01*
X12500Y-21785D01*
X12719Y-21742D01*
X12729Y-21735D01*
X13747Y-22752D01*
X13747Y-22752D01*
X13863Y-22830D01*
X14000Y-22857D01*
X16490Y-22857D01*
X16640Y-22957D01*
X16829Y-22995D01*
X17170Y-22995D01*
X17359Y-22957D01*
X17520Y-22850D01*
X17627Y-22689D01*
X17665Y-22500D01*
X17665Y-23500D01*
X17627Y-23310D01*
X17520Y-23149D01*
X17359Y-23042D01*
X17170Y-23004D01*
X16829Y-23004D01*
X16640Y-23042D01*
X16549Y-23103D01*
X16500Y-23103D01*
X15949Y-23103D01*
X15839Y-22992D01*
X15619Y-22901D01*
X15381Y-22901D01*
X15161Y-22992D01*
X14992Y-23160D01*
X14901Y-23380D01*
X14901Y-23618D01*
X14992Y-23838D01*
X15103Y-23949D01*
X15103Y-24085D01*
X15014Y-24174D01*
X14926Y-24385D01*
X14926Y-24613D01*
X15013Y-24824D01*
X15174Y-24985D01*
X15385Y-25073D01*
X15613Y-25073D01*
X15824Y-24986D01*
X15985Y-24825D01*
X16073Y-24614D01*
X16073Y-24487D01*
X16230Y-24330D01*
X16280Y-24280D01*
X16280Y-24280D01*
X16280Y-24280D01*
X16380Y-24180D01*
X16380Y-24180D01*
X16380Y-24180D01*
X16380Y-24180D01*
X16618Y-23942D01*
X16640Y-23957D01*
X16829Y-23995D01*
X17170Y-23995D01*
X17359Y-23957D01*
X17520Y-23850D01*
X17627Y-23689D01*
X17665Y-23500D01*
X17665Y-25500D01*
X17646Y-25403D01*
X17646Y-24579D01*
X17646Y-24420D01*
X17615Y-24311D01*
X17508Y-24150D01*
X17348Y-24043D01*
X17159Y-24004D01*
X17001Y-24004D01*
X17001Y-24498D01*
X17578Y-24498D01*
X17646Y-24420D01*
X17646Y-24579D01*
X17578Y-24501D01*
X17001Y-24501D01*
X17001Y-24995D01*
X17159Y-24995D01*
X17348Y-24956D01*
X17508Y-24849D01*
X17615Y-24688D01*
X17646Y-24579D01*
X17646Y-25403D01*
X17627Y-25310D01*
X17520Y-25149D01*
X17359Y-25042D01*
X17170Y-25004D01*
X16998Y-25004D01*
X16998Y-24995D01*
X16998Y-24501D01*
X16998Y-24498D01*
X16998Y-24004D01*
X16840Y-24004D01*
X16651Y-24043D01*
X16491Y-24150D01*
X16384Y-24311D01*
X16353Y-24420D01*
X16421Y-24498D01*
X16998Y-24498D01*
X16998Y-24501D01*
X16421Y-24501D01*
X16353Y-24579D01*
X16384Y-24688D01*
X16491Y-24849D01*
X16651Y-24956D01*
X16840Y-24995D01*
X16998Y-24995D01*
X16998Y-25004D01*
X16829Y-25004D01*
X16640Y-25042D01*
X16479Y-25149D01*
X16372Y-25310D01*
X16334Y-25500D01*
X16372Y-25689D01*
X16479Y-25850D01*
X16640Y-25957D01*
X16829Y-25995D01*
X17170Y-25995D01*
X17359Y-25957D01*
X17520Y-25850D01*
X17627Y-25689D01*
X17665Y-25500D01*
X17665Y-26500D01*
X17627Y-26310D01*
X17520Y-26149D01*
X17359Y-26042D01*
X17170Y-26004D01*
X16829Y-26004D01*
X16640Y-26042D01*
X16479Y-26149D01*
X16372Y-26310D01*
X16334Y-26500D01*
X16372Y-26689D01*
X16479Y-26850D01*
X16640Y-26957D01*
X16829Y-26995D01*
X17170Y-26995D01*
X17359Y-26957D01*
X17520Y-26850D01*
X17627Y-26689D01*
X17665Y-26500D01*
X17665Y-27500D01*
X17627Y-27310D01*
X17520Y-27149D01*
X17359Y-27042D01*
X17170Y-27004D01*
X16829Y-27004D01*
X16640Y-27042D01*
X16479Y-27149D01*
X16372Y-27310D01*
X16334Y-27500D01*
X16372Y-27689D01*
X16479Y-27850D01*
X16640Y-27957D01*
X16829Y-27995D01*
X17170Y-27995D01*
X17359Y-27957D01*
X17520Y-27850D01*
X17627Y-27689D01*
X17665Y-27500D01*
X17665Y-28500D01*
X17627Y-28310D01*
X17520Y-28149D01*
X17359Y-28042D01*
X17170Y-28004D01*
X16829Y-28004D01*
X16640Y-28042D01*
X16490Y-28142D01*
X16077Y-28142D01*
X16077Y-26406D01*
X15997Y-26193D01*
X15973Y-26157D01*
X15861Y-26140D01*
X15859Y-26142D01*
X15859Y-26138D01*
X15842Y-26026D01*
X15634Y-25931D01*
X15406Y-25922D01*
X15193Y-26002D01*
X15157Y-26026D01*
X15140Y-26138D01*
X15500Y-26497D01*
X15859Y-26138D01*
X15859Y-26142D01*
X15502Y-26500D01*
X15861Y-26859D01*
X15973Y-26842D01*
X16068Y-26634D01*
X16077Y-26406D01*
X16077Y-28142D01*
X16018Y-28142D01*
X15859Y-27983D01*
X15859Y-26861D01*
X15500Y-26502D01*
X15497Y-26504D01*
X15497Y-26500D01*
X15138Y-26140D01*
X15026Y-26157D01*
X14931Y-26365D01*
X14922Y-26593D01*
X15002Y-26806D01*
X15026Y-26842D01*
X15138Y-26859D01*
X15497Y-26500D01*
X15497Y-26504D01*
X15140Y-26861D01*
X15157Y-26973D01*
X15365Y-27068D01*
X15593Y-27077D01*
X15806Y-26997D01*
X15842Y-26973D01*
X15859Y-26861D01*
X15859Y-27983D01*
X14907Y-27031D01*
X14907Y-25980D01*
X14880Y-25843D01*
X14802Y-25727D01*
X14322Y-25247D01*
X14206Y-25169D01*
X14070Y-25142D01*
X14009Y-25142D01*
X13859Y-25042D01*
X13670Y-25004D01*
X13329Y-25004D01*
X13140Y-25042D01*
X12979Y-25149D01*
X12872Y-25310D01*
X12834Y-25500D01*
X12872Y-25689D01*
X12979Y-25850D01*
X13140Y-25957D01*
X13329Y-25995D01*
X13670Y-25995D01*
X13859Y-25957D01*
X13957Y-25892D01*
X14192Y-26128D01*
X14192Y-27180D01*
X14219Y-27316D01*
X14297Y-27432D01*
X15617Y-28752D01*
X15733Y-28830D01*
X15870Y-28857D01*
X16490Y-28857D01*
X16640Y-28957D01*
X16829Y-28995D01*
X17170Y-28995D01*
X17359Y-28957D01*
X17520Y-28850D01*
X17627Y-28689D01*
X17665Y-28500D01*
X17665Y-29500D01*
X17627Y-29310D01*
X17520Y-29149D01*
X17359Y-29042D01*
X17170Y-29004D01*
X16829Y-29004D01*
X16640Y-29042D01*
X16490Y-29142D01*
X16250Y-29142D01*
X16113Y-29169D01*
X15997Y-29247D01*
X15101Y-30142D01*
X14009Y-30142D01*
X13859Y-30042D01*
X13670Y-30004D01*
X13329Y-30004D01*
X13140Y-30042D01*
X12979Y-30149D01*
X12872Y-30310D01*
X12834Y-30500D01*
X12872Y-30689D01*
X12979Y-30850D01*
X13140Y-30957D01*
X13329Y-30995D01*
X13670Y-30995D01*
X13859Y-30957D01*
X14009Y-30857D01*
X15250Y-30857D01*
X15386Y-30830D01*
X15502Y-30752D01*
X16398Y-29857D01*
X16490Y-29857D01*
X16640Y-29957D01*
X16829Y-29995D01*
X17170Y-29995D01*
X17359Y-29957D01*
X17520Y-29850D01*
X17627Y-29689D01*
X17665Y-29500D01*
X17665Y-30500D01*
X17627Y-30310D01*
X17520Y-30149D01*
X17359Y-30042D01*
X17170Y-30004D01*
X16829Y-30004D01*
X16640Y-30042D01*
X16486Y-30145D01*
X16363Y-30169D01*
X16247Y-30247D01*
X15351Y-31142D01*
X14009Y-31142D01*
X13859Y-31042D01*
X13670Y-31004D01*
X13329Y-31004D01*
X13140Y-31042D01*
X12979Y-31149D01*
X12872Y-31310D01*
X12834Y-31500D01*
X12872Y-31689D01*
X12979Y-31850D01*
X13140Y-31957D01*
X13329Y-31995D01*
X13670Y-31995D01*
X13859Y-31957D01*
X14009Y-31857D01*
X15500Y-31857D01*
X15636Y-31830D01*
X15752Y-31752D01*
X16584Y-30920D01*
X16640Y-30957D01*
X16829Y-30995D01*
X17170Y-30995D01*
X17359Y-30957D01*
X17520Y-30850D01*
X17627Y-30689D01*
X17665Y-30500D01*
X17665Y-32542D01*
X13348Y-32542D01*
X12757Y-31951D01*
X12757Y-30148D01*
X13024Y-29880D01*
X13140Y-29957D01*
X13329Y-29995D01*
X13670Y-29995D01*
X13859Y-29957D01*
X14020Y-29850D01*
X14127Y-29689D01*
X14165Y-29500D01*
X14146Y-29403D01*
X14146Y-28579D01*
X14146Y-28420D01*
X14146Y-27579D01*
X14146Y-27420D01*
X14115Y-27311D01*
X14008Y-27150D01*
X13848Y-27043D01*
X13659Y-27004D01*
X13501Y-27004D01*
X13501Y-27498D01*
X14078Y-27498D01*
X14146Y-27420D01*
X14146Y-27579D01*
X14078Y-27501D01*
X13501Y-27501D01*
X13501Y-27995D01*
X13659Y-27995D01*
X13848Y-27956D01*
X14008Y-27849D01*
X14115Y-27688D01*
X14146Y-27579D01*
X14146Y-28420D01*
X14115Y-28311D01*
X14008Y-28150D01*
X13848Y-28043D01*
X13659Y-28004D01*
X13501Y-28004D01*
X13501Y-28498D01*
X14078Y-28498D01*
X14146Y-28420D01*
X14146Y-28579D01*
X14078Y-28501D01*
X13501Y-28501D01*
X13501Y-28995D01*
X13659Y-28995D01*
X13848Y-28956D01*
X14008Y-28849D01*
X14115Y-28688D01*
X14146Y-28579D01*
X14146Y-29403D01*
X14127Y-29310D01*
X14020Y-29149D01*
X13859Y-29042D01*
X13670Y-29004D01*
X13498Y-29004D01*
X13498Y-28995D01*
X13498Y-28501D01*
X13498Y-28498D01*
X13498Y-28004D01*
X13498Y-27995D01*
X13498Y-27501D01*
X13498Y-27498D01*
X13498Y-27004D01*
X13340Y-27004D01*
X13151Y-27043D01*
X12991Y-27150D01*
X12884Y-27311D01*
X12853Y-27420D01*
X12921Y-27498D01*
X13498Y-27498D01*
X13498Y-27501D01*
X12921Y-27501D01*
X12853Y-27579D01*
X12884Y-27688D01*
X12991Y-27849D01*
X13151Y-27956D01*
X13340Y-27995D01*
X13498Y-27995D01*
X13498Y-28004D01*
X13340Y-28004D01*
X13151Y-28043D01*
X12991Y-28150D01*
X12884Y-28311D01*
X12853Y-28420D01*
X12921Y-28498D01*
X13498Y-28498D01*
X13498Y-28501D01*
X12921Y-28501D01*
X12853Y-28579D01*
X12884Y-28688D01*
X12991Y-28849D01*
X13151Y-28956D01*
X13340Y-28995D01*
X13498Y-28995D01*
X13498Y-29004D01*
X13329Y-29004D01*
X13140Y-29042D01*
X12990Y-29142D01*
X12900Y-29142D01*
X12763Y-29169D01*
X12647Y-29247D01*
X12147Y-29747D01*
X12069Y-29863D01*
X12042Y-30000D01*
X12042Y-32100D01*
X12069Y-32236D01*
X12147Y-32352D01*
X12947Y-33152D01*
X12947Y-33152D01*
X13063Y-33230D01*
X13199Y-33257D01*
X13200Y-33257D01*
X17746Y-33257D01*
X17874Y-33385D01*
X18085Y-33473D01*
X18267Y-33473D01*
X19047Y-34252D01*
X18995Y-34330D01*
X18904Y-34196D01*
X18718Y-34072D01*
X18591Y-34036D01*
X18501Y-34103D01*
X18501Y-34798D01*
X18509Y-34798D01*
X18509Y-34801D01*
X18501Y-34801D01*
X18501Y-35496D01*
X18591Y-35563D01*
X18718Y-35527D01*
X18904Y-35403D01*
X18995Y-35269D01*
X19094Y-35417D01*
X19280Y-35542D01*
X19500Y-35585D01*
X19719Y-35542D01*
X19905Y-35417D01*
X20030Y-35231D01*
X20074Y-35011D01*
X20074Y-35901D01*
X18498Y-35901D01*
X18498Y-35496D01*
X18498Y-34801D01*
X18498Y-34798D01*
X18498Y-34103D01*
X18408Y-34036D01*
X18281Y-34072D01*
X18095Y-34196D01*
X18000Y-34337D01*
X17904Y-34196D01*
X17718Y-34072D01*
X17591Y-34036D01*
X17501Y-34103D01*
X17501Y-34798D01*
X17925Y-34798D01*
X18074Y-34798D01*
X18498Y-34798D01*
X18498Y-34801D01*
X18074Y-34801D01*
X17925Y-34801D01*
X17501Y-34801D01*
X17501Y-35496D01*
X17591Y-35563D01*
X17718Y-35527D01*
X17904Y-35403D01*
X18000Y-35262D01*
X18095Y-35403D01*
X18281Y-35527D01*
X18408Y-35563D01*
X18498Y-35496D01*
X18498Y-35901D01*
X17498Y-35901D01*
X17498Y-35496D01*
X17498Y-34801D01*
X17490Y-34801D01*
X17490Y-34798D01*
X17498Y-34798D01*
X17498Y-34103D01*
X17408Y-34036D01*
X17281Y-34072D01*
X17095Y-34196D01*
X17004Y-34330D01*
X16905Y-34182D01*
X16719Y-34057D01*
X16500Y-34014D01*
X16280Y-34057D01*
X16094Y-34182D01*
X15969Y-34368D01*
X15954Y-34442D01*
X14700Y-34442D01*
X14353Y-34442D01*
X14225Y-34314D01*
X14014Y-34226D01*
X13832Y-34226D01*
X11957Y-32351D01*
X11957Y-27348D01*
X12448Y-26857D01*
X12990Y-26857D01*
X13140Y-26957D01*
X13329Y-26995D01*
X13670Y-26995D01*
X13859Y-26957D01*
X14020Y-26850D01*
X14127Y-26689D01*
X14165Y-26500D01*
X14127Y-26310D01*
X14020Y-26149D01*
X13859Y-26042D01*
X13670Y-26004D01*
X13329Y-26004D01*
X13140Y-26042D01*
X12990Y-26142D01*
X12300Y-26142D01*
X12299Y-26142D01*
X12163Y-26169D01*
X12047Y-26247D01*
X12047Y-26247D01*
X11347Y-26947D01*
X11269Y-27063D01*
X11242Y-27200D01*
X11242Y-32500D01*
X11269Y-32636D01*
X11347Y-32752D01*
X13326Y-34732D01*
X13326Y-34913D01*
X13413Y-35124D01*
X13574Y-35285D01*
X13785Y-35373D01*
X14013Y-35373D01*
X14224Y-35286D01*
X14353Y-35157D01*
X14700Y-35157D01*
X15954Y-35157D01*
X15969Y-35231D01*
X16094Y-35417D01*
X16280Y-35542D01*
X16500Y-35585D01*
X16719Y-35542D01*
X16905Y-35417D01*
X17004Y-35269D01*
X17095Y-35403D01*
X17281Y-35527D01*
X17408Y-35563D01*
X17498Y-35496D01*
X17498Y-35901D01*
X12477Y-35901D01*
X12477Y-34706D01*
X12397Y-34493D01*
X12373Y-34457D01*
X12261Y-34440D01*
X12259Y-34442D01*
X12259Y-34438D01*
X12242Y-34326D01*
X12034Y-34231D01*
X11806Y-34222D01*
X11593Y-34302D01*
X11557Y-34326D01*
X11540Y-34438D01*
X11900Y-34797D01*
X12259Y-34438D01*
X12259Y-34442D01*
X11902Y-34800D01*
X12261Y-35159D01*
X12373Y-35142D01*
X12468Y-34934D01*
X12477Y-34706D01*
X12477Y-35901D01*
X12259Y-35901D01*
X12259Y-35161D01*
X11900Y-34802D01*
X11897Y-34804D01*
X11897Y-34800D01*
X11538Y-34440D01*
X11426Y-34457D01*
X11331Y-34665D01*
X11322Y-34893D01*
X11402Y-35106D01*
X11426Y-35142D01*
X11538Y-35159D01*
X11897Y-34800D01*
X11897Y-34804D01*
X11540Y-35161D01*
X11557Y-35273D01*
X11765Y-35368D01*
X11993Y-35377D01*
X12206Y-35297D01*
X12242Y-35273D01*
X12259Y-35161D01*
X12259Y-35901D01*
X9811Y-35901D01*
X9811Y-34811D01*
X9811Y-34750D01*
X9811Y-34688D01*
X9811Y-34687D01*
X9811Y-34687D01*
X9811Y-34687D01*
X9773Y-34496D01*
X9726Y-34382D01*
X9725Y-34381D01*
X9618Y-34220D01*
X9617Y-34219D01*
X9530Y-34131D01*
X9368Y-34023D01*
X9367Y-34023D01*
X9253Y-33975D01*
X9109Y-33947D01*
X9109Y-32111D01*
X8750Y-31752D01*
X8747Y-31754D01*
X8747Y-31750D01*
X8388Y-31390D01*
X8276Y-31407D01*
X8181Y-31615D01*
X8172Y-31843D01*
X8252Y-32056D01*
X8276Y-32092D01*
X8388Y-32109D01*
X8747Y-31750D01*
X8747Y-31754D01*
X8390Y-32111D01*
X8407Y-32223D01*
X8615Y-32318D01*
X8843Y-32327D01*
X9056Y-32247D01*
X9092Y-32223D01*
X9109Y-32111D01*
X9109Y-33947D01*
X9061Y-33937D01*
X8937Y-33938D01*
X8936Y-33938D01*
X8746Y-33976D01*
X8632Y-34023D01*
X8631Y-34024D01*
X8470Y-34131D01*
X8469Y-34132D01*
X8381Y-34219D01*
X8273Y-34381D01*
X8273Y-34382D01*
X8225Y-34496D01*
X8187Y-34688D01*
X8188Y-34750D01*
X8187Y-34811D01*
X8225Y-35003D01*
X8273Y-35117D01*
X8273Y-35118D01*
X8381Y-35280D01*
X8469Y-35367D01*
X8470Y-35368D01*
X8631Y-35475D01*
X8632Y-35476D01*
X8746Y-35523D01*
X8936Y-35561D01*
X8937Y-35561D01*
X9061Y-35562D01*
X9253Y-35524D01*
X9367Y-35476D01*
X9368Y-35476D01*
X9530Y-35368D01*
X9617Y-35280D01*
X9618Y-35279D01*
X9725Y-35118D01*
X9726Y-35117D01*
X9773Y-35003D01*
X9811Y-34812D01*
X9811Y-34812D01*
X9811Y-34812D01*
X9811Y-34811D01*
X9811Y-35901D01*
X7848Y-35901D01*
X7848Y-7098D01*
X26901Y-7098D01*
X26901Y-35901D01*
X26901Y-35901D01*
G37*
G54D22*
X26901Y-35901D02*
X26574Y-35901D01*
X26574Y-15698D01*
X26574Y-15501D01*
X26574Y-15498D01*
X26574Y-15301D01*
X26561Y-15241D01*
X26561Y-8311D01*
X26561Y-8250D01*
X26561Y-8188D01*
X26561Y-8187D01*
X26561Y-8187D01*
X26561Y-8187D01*
X26523Y-7996D01*
X26476Y-7882D01*
X26475Y-7881D01*
X26368Y-7720D01*
X26367Y-7719D01*
X26280Y-7631D01*
X26118Y-7523D01*
X26117Y-7523D01*
X26003Y-7475D01*
X25811Y-7437D01*
X25687Y-7438D01*
X25686Y-7438D01*
X25496Y-7476D01*
X25382Y-7523D01*
X25381Y-7524D01*
X25220Y-7631D01*
X25219Y-7632D01*
X25131Y-7719D01*
X25023Y-7881D01*
X25023Y-7882D01*
X24975Y-7996D01*
X24937Y-8188D01*
X24938Y-8250D01*
X24937Y-8311D01*
X24975Y-8503D01*
X25023Y-8617D01*
X25023Y-8618D01*
X25131Y-8780D01*
X25219Y-8867D01*
X25220Y-8868D01*
X25381Y-8975D01*
X25382Y-8976D01*
X25496Y-9023D01*
X25686Y-9061D01*
X25687Y-9061D01*
X25811Y-9062D01*
X26003Y-9024D01*
X26117Y-8976D01*
X26118Y-8976D01*
X26280Y-8868D01*
X26367Y-8780D01*
X26368Y-8779D01*
X26475Y-8618D01*
X26476Y-8617D01*
X26523Y-8503D01*
X26561Y-8312D01*
X26561Y-8312D01*
X26561Y-8312D01*
X26561Y-8311D01*
X26561Y-15241D01*
X26529Y-15082D01*
X26404Y-14896D01*
X26218Y-14772D01*
X26091Y-14736D01*
X26001Y-14803D01*
X26001Y-15498D01*
X26574Y-15498D01*
X26574Y-15501D01*
X26001Y-15501D01*
X26001Y-16196D01*
X26091Y-16263D01*
X26218Y-16227D01*
X26404Y-16103D01*
X26529Y-15917D01*
X26574Y-15698D01*
X26574Y-35901D01*
X26561Y-35901D01*
X26561Y-34811D01*
X26561Y-34750D01*
X26561Y-34688D01*
X26561Y-34687D01*
X26561Y-34687D01*
X26561Y-34687D01*
X26523Y-34496D01*
X26476Y-34382D01*
X26475Y-34381D01*
X26368Y-34220D01*
X26367Y-34219D01*
X26280Y-34131D01*
X26118Y-34023D01*
X26117Y-34023D01*
X26003Y-33975D01*
X25998Y-33974D01*
X25998Y-16196D01*
X25998Y-15501D01*
X25990Y-15501D01*
X25990Y-15498D01*
X25998Y-15498D01*
X25998Y-14803D01*
X25908Y-14736D01*
X25781Y-14772D01*
X25595Y-14896D01*
X25504Y-15030D01*
X25405Y-14882D01*
X25219Y-14757D01*
X25132Y-14740D01*
X25132Y-11898D01*
X25128Y-11887D01*
X25128Y-10375D01*
X25033Y-10144D01*
X24856Y-9967D01*
X24625Y-9871D01*
X24375Y-9871D01*
X24144Y-9966D01*
X24008Y-10103D01*
X24000Y-10103D01*
X23848Y-10133D01*
X23719Y-10219D01*
X23719Y-10219D01*
X22719Y-11219D01*
X22633Y-11348D01*
X22603Y-11500D01*
X22603Y-11500D01*
X22603Y-11550D01*
X22492Y-11660D01*
X22401Y-11880D01*
X22401Y-12118D01*
X22492Y-12338D01*
X22660Y-12507D01*
X22880Y-12598D01*
X23118Y-12598D01*
X23338Y-12507D01*
X23507Y-12339D01*
X23598Y-12119D01*
X23598Y-11881D01*
X23507Y-11661D01*
X23453Y-11607D01*
X24086Y-10975D01*
X24143Y-11032D01*
X24374Y-11128D01*
X24624Y-11128D01*
X24855Y-11033D01*
X25032Y-10856D01*
X25128Y-10625D01*
X25128Y-10375D01*
X25128Y-11887D01*
X25045Y-11663D01*
X25019Y-11624D01*
X24901Y-11600D01*
X24899Y-11603D01*
X24899Y-11598D01*
X24875Y-11480D01*
X24648Y-11376D01*
X24398Y-11367D01*
X24163Y-11454D01*
X24124Y-11480D01*
X24100Y-11598D01*
X24500Y-11997D01*
X24899Y-11598D01*
X24899Y-11603D01*
X24502Y-12000D01*
X24901Y-12399D01*
X25019Y-12375D01*
X25123Y-12148D01*
X25132Y-11898D01*
X25132Y-14740D01*
X25000Y-14714D01*
X24899Y-14734D01*
X24899Y-12401D01*
X24500Y-12002D01*
X24497Y-12004D01*
X24497Y-12000D01*
X24098Y-11600D01*
X23980Y-11624D01*
X23876Y-11851D01*
X23867Y-12101D01*
X23954Y-12336D01*
X23980Y-12375D01*
X24098Y-12399D01*
X24497Y-12000D01*
X24497Y-12004D01*
X24100Y-12401D01*
X24124Y-12519D01*
X24351Y-12623D01*
X24601Y-12632D01*
X24836Y-12545D01*
X24875Y-12519D01*
X24899Y-12401D01*
X24899Y-14734D01*
X24780Y-14757D01*
X24594Y-14882D01*
X24500Y-15023D01*
X24405Y-14882D01*
X24327Y-14829D01*
X24327Y-13156D01*
X24247Y-12943D01*
X24223Y-12907D01*
X24111Y-12890D01*
X24109Y-12892D01*
X24109Y-12888D01*
X24092Y-12776D01*
X23884Y-12681D01*
X23656Y-12672D01*
X23443Y-12752D01*
X23407Y-12776D01*
X23390Y-12888D01*
X23750Y-13247D01*
X24109Y-12888D01*
X24109Y-12892D01*
X23752Y-13250D01*
X24111Y-13609D01*
X24223Y-13592D01*
X24318Y-13384D01*
X24327Y-13156D01*
X24327Y-14829D01*
X24219Y-14757D01*
X24109Y-14735D01*
X24109Y-13611D01*
X23750Y-13252D01*
X23747Y-13254D01*
X23747Y-13250D01*
X23388Y-12890D01*
X23276Y-12907D01*
X23181Y-13115D01*
X23172Y-13343D01*
X23252Y-13556D01*
X23276Y-13592D01*
X23388Y-13609D01*
X23747Y-13250D01*
X23747Y-13254D01*
X23390Y-13611D01*
X23407Y-13723D01*
X23615Y-13818D01*
X23843Y-13827D01*
X24056Y-13747D01*
X24092Y-13723D01*
X24109Y-13611D01*
X24109Y-14735D01*
X24000Y-14714D01*
X23780Y-14757D01*
X23594Y-14882D01*
X23495Y-15030D01*
X23404Y-14896D01*
X23218Y-14772D01*
X23091Y-14736D01*
X23001Y-14803D01*
X23001Y-15498D01*
X23009Y-15498D01*
X23009Y-15501D01*
X23001Y-15501D01*
X23001Y-16196D01*
X23091Y-16263D01*
X23218Y-16227D01*
X23404Y-16103D01*
X23495Y-15969D01*
X23594Y-16117D01*
X23642Y-16150D01*
X23642Y-18000D01*
X23669Y-18136D01*
X23747Y-18252D01*
X24247Y-18752D01*
X24363Y-18830D01*
X24500Y-18857D01*
X24511Y-18857D01*
X24660Y-19007D01*
X24880Y-19098D01*
X25118Y-19098D01*
X25338Y-19007D01*
X25507Y-18839D01*
X25598Y-18619D01*
X25598Y-18381D01*
X25507Y-18161D01*
X25346Y-17999D01*
X25507Y-17839D01*
X25598Y-17619D01*
X25598Y-17381D01*
X25507Y-17161D01*
X25357Y-17011D01*
X25357Y-16150D01*
X25405Y-16117D01*
X25504Y-15969D01*
X25595Y-16103D01*
X25781Y-16227D01*
X25908Y-16263D01*
X25998Y-16196D01*
X25998Y-33974D01*
X25811Y-33937D01*
X25687Y-33938D01*
X25686Y-33938D01*
X25496Y-33976D01*
X25382Y-34023D01*
X25381Y-34024D01*
X25348Y-34046D01*
X25348Y-24381D01*
X25348Y-20381D01*
X25257Y-20161D01*
X25089Y-19992D01*
X24869Y-19901D01*
X24631Y-19901D01*
X24411Y-19992D01*
X24300Y-20103D01*
X23699Y-20103D01*
X23589Y-19992D01*
X23369Y-19901D01*
X23131Y-19901D01*
X23012Y-19950D01*
X22998Y-19937D01*
X22998Y-16196D01*
X22998Y-15501D01*
X22998Y-15498D01*
X22998Y-14803D01*
X22908Y-14736D01*
X22781Y-14772D01*
X22595Y-14896D01*
X22470Y-15082D01*
X22425Y-15301D01*
X22425Y-15498D01*
X22998Y-15498D01*
X22998Y-15501D01*
X22425Y-15501D01*
X22425Y-15698D01*
X22470Y-15917D01*
X22595Y-16103D01*
X22781Y-16227D01*
X22908Y-16263D01*
X22998Y-16196D01*
X22998Y-19937D01*
X22646Y-19585D01*
X22646Y-17000D01*
X22616Y-16848D01*
X22530Y-16719D01*
X22530Y-16719D01*
X22146Y-16335D01*
X22146Y-13664D01*
X22235Y-13575D01*
X22323Y-13364D01*
X22323Y-13136D01*
X22236Y-12925D01*
X22146Y-12835D01*
X22146Y-12449D01*
X22257Y-12339D01*
X22348Y-12119D01*
X22348Y-11881D01*
X22257Y-11661D01*
X22146Y-11550D01*
X22146Y-10914D01*
X23280Y-9780D01*
X23366Y-9651D01*
X23396Y-9500D01*
X23396Y-8449D01*
X23507Y-8339D01*
X23598Y-8119D01*
X23598Y-7881D01*
X23507Y-7661D01*
X23339Y-7492D01*
X23119Y-7401D01*
X22881Y-7401D01*
X22661Y-7492D01*
X22492Y-7660D01*
X22401Y-7880D01*
X22401Y-8118D01*
X22492Y-8338D01*
X22603Y-8449D01*
X22603Y-9335D01*
X22348Y-9590D01*
X22348Y-7881D01*
X22257Y-7661D01*
X22089Y-7492D01*
X21869Y-7401D01*
X21631Y-7401D01*
X21411Y-7492D01*
X21242Y-7660D01*
X21151Y-7880D01*
X21151Y-8118D01*
X21242Y-8338D01*
X21353Y-8449D01*
X21353Y-8835D01*
X20146Y-10041D01*
X20146Y-8414D01*
X20235Y-8325D01*
X20323Y-8114D01*
X20323Y-7886D01*
X20236Y-7675D01*
X20075Y-7514D01*
X19864Y-7426D01*
X19636Y-7426D01*
X19425Y-7513D01*
X19264Y-7674D01*
X19176Y-7885D01*
X19176Y-8113D01*
X19263Y-8324D01*
X19353Y-8414D01*
X19353Y-10452D01*
X19306Y-10471D01*
X19222Y-10555D01*
X19176Y-10665D01*
X19176Y-10784D01*
X19176Y-11012D01*
X19085Y-11103D01*
X18586Y-11103D01*
X18596Y-11050D01*
X18596Y-9087D01*
X18619Y-9072D01*
X18748Y-8879D01*
X18793Y-8652D01*
X18793Y-8147D01*
X18748Y-7920D01*
X18619Y-7727D01*
X18427Y-7599D01*
X18200Y-7553D01*
X17972Y-7599D01*
X17780Y-7727D01*
X17694Y-7855D01*
X17618Y-7742D01*
X17425Y-7614D01*
X17294Y-7577D01*
X17201Y-7644D01*
X17201Y-8398D01*
X17209Y-8398D01*
X17209Y-8401D01*
X17201Y-8401D01*
X17201Y-9155D01*
X17294Y-9222D01*
X17425Y-9185D01*
X17618Y-9057D01*
X17694Y-8944D01*
X17780Y-9072D01*
X17803Y-9087D01*
X17803Y-10885D01*
X17762Y-10926D01*
X17636Y-10926D01*
X17577Y-10950D01*
X17577Y-10156D01*
X17497Y-9943D01*
X17473Y-9907D01*
X17361Y-9890D01*
X17359Y-9892D01*
X17359Y-9888D01*
X17342Y-9776D01*
X17198Y-9710D01*
X17198Y-9155D01*
X17198Y-8401D01*
X17190Y-8401D01*
X17190Y-8398D01*
X17198Y-8398D01*
X17198Y-7644D01*
X17105Y-7577D01*
X16974Y-7614D01*
X16781Y-7742D01*
X16705Y-7855D01*
X16619Y-7727D01*
X16427Y-7599D01*
X16200Y-7553D01*
X15972Y-7599D01*
X15780Y-7727D01*
X15651Y-7920D01*
X15606Y-8147D01*
X15606Y-8652D01*
X15651Y-8879D01*
X15780Y-9072D01*
X15803Y-9087D01*
X15803Y-9135D01*
X15218Y-9719D01*
X15114Y-9676D01*
X14886Y-9676D01*
X14675Y-9763D01*
X14585Y-9853D01*
X14208Y-9853D01*
X15030Y-9030D01*
X15030Y-9030D01*
X15030Y-9030D01*
X15116Y-8901D01*
X15116Y-8901D01*
X15146Y-8750D01*
X15146Y-8547D01*
X15193Y-8528D01*
X15277Y-8444D01*
X15323Y-8334D01*
X15323Y-8215D01*
X15323Y-7665D01*
X15278Y-7556D01*
X15194Y-7472D01*
X15084Y-7426D01*
X14965Y-7426D01*
X14415Y-7426D01*
X14306Y-7471D01*
X14222Y-7555D01*
X14176Y-7665D01*
X14176Y-7784D01*
X14176Y-8334D01*
X14221Y-8443D01*
X14305Y-8527D01*
X14353Y-8547D01*
X14353Y-8585D01*
X13262Y-9676D01*
X12915Y-9676D01*
X12806Y-9721D01*
X12744Y-9783D01*
X11816Y-8855D01*
X11827Y-8844D01*
X11873Y-8734D01*
X11873Y-8615D01*
X11873Y-8065D01*
X11828Y-7956D01*
X11744Y-7872D01*
X11634Y-7826D01*
X11515Y-7826D01*
X10965Y-7826D01*
X10856Y-7871D01*
X10772Y-7955D01*
X10726Y-8065D01*
X10726Y-8184D01*
X10726Y-8734D01*
X10771Y-8843D01*
X10855Y-8927D01*
X10913Y-8951D01*
X10913Y-8951D01*
X10933Y-9051D01*
X11019Y-9180D01*
X12369Y-10530D01*
X12369Y-10530D01*
X12498Y-10616D01*
X12650Y-10646D01*
X12702Y-10646D01*
X12721Y-10693D01*
X12805Y-10777D01*
X12901Y-10817D01*
X12890Y-10888D01*
X13250Y-11247D01*
X13609Y-10888D01*
X13598Y-10817D01*
X13693Y-10778D01*
X13777Y-10694D01*
X13797Y-10646D01*
X14585Y-10646D01*
X14674Y-10735D01*
X14885Y-10823D01*
X15113Y-10823D01*
X15324Y-10736D01*
X15485Y-10575D01*
X15494Y-10554D01*
X15530Y-10530D01*
X16480Y-9580D01*
X16480Y-9580D01*
X16480Y-9580D01*
X16566Y-9451D01*
X16596Y-9300D01*
X16596Y-9087D01*
X16619Y-9072D01*
X16705Y-8944D01*
X16781Y-9057D01*
X16974Y-9185D01*
X17105Y-9222D01*
X17198Y-9155D01*
X17198Y-9710D01*
X17134Y-9681D01*
X16906Y-9672D01*
X16693Y-9752D01*
X16657Y-9776D01*
X16640Y-9888D01*
X17000Y-10247D01*
X17359Y-9888D01*
X17359Y-9892D01*
X17002Y-10250D01*
X17361Y-10609D01*
X17473Y-10592D01*
X17568Y-10384D01*
X17577Y-10156D01*
X17577Y-10950D01*
X17425Y-11013D01*
X17359Y-11079D01*
X17359Y-10611D01*
X17000Y-10252D01*
X16997Y-10254D01*
X16997Y-10250D01*
X16638Y-9890D01*
X16526Y-9907D01*
X16431Y-10115D01*
X16422Y-10343D01*
X16502Y-10556D01*
X16526Y-10592D01*
X16638Y-10609D01*
X16997Y-10250D01*
X16997Y-10254D01*
X16640Y-10611D01*
X16657Y-10723D01*
X16865Y-10818D01*
X17093Y-10827D01*
X17306Y-10747D01*
X17342Y-10723D01*
X17359Y-10611D01*
X17359Y-11079D01*
X17264Y-11174D01*
X17176Y-11385D01*
X17176Y-11613D01*
X17263Y-11824D01*
X17424Y-11985D01*
X17635Y-12073D01*
X17863Y-12073D01*
X18074Y-11986D01*
X18164Y-11896D01*
X19179Y-11896D01*
X19172Y-12093D01*
X19252Y-12306D01*
X19276Y-12342D01*
X19388Y-12359D01*
X19747Y-12000D01*
X19742Y-11994D01*
X19744Y-11992D01*
X19750Y-11997D01*
X20109Y-11638D01*
X20098Y-11567D01*
X20193Y-11528D01*
X20277Y-11444D01*
X20323Y-11334D01*
X20323Y-11215D01*
X20323Y-10987D01*
X22030Y-9280D01*
X22030Y-9280D01*
X22030Y-9280D01*
X22116Y-9151D01*
X22116Y-9151D01*
X22140Y-9030D01*
X22146Y-9000D01*
X22146Y-9000D01*
X22146Y-9000D01*
X22146Y-8449D01*
X22257Y-8339D01*
X22348Y-8119D01*
X22348Y-7881D01*
X22348Y-9590D01*
X21469Y-10469D01*
X21383Y-10598D01*
X21353Y-10750D01*
X21353Y-10750D01*
X21353Y-11550D01*
X21242Y-11660D01*
X21151Y-11880D01*
X21151Y-12118D01*
X21242Y-12338D01*
X21353Y-12449D01*
X21353Y-12835D01*
X21264Y-12924D01*
X21176Y-13135D01*
X21176Y-13262D01*
X20835Y-13603D01*
X20327Y-13603D01*
X20327Y-11906D01*
X20247Y-11693D01*
X20223Y-11657D01*
X20111Y-11640D01*
X19752Y-12000D01*
X20111Y-12359D01*
X20223Y-12342D01*
X20318Y-12134D01*
X20327Y-11906D01*
X20327Y-13603D01*
X20109Y-13603D01*
X20109Y-12361D01*
X19750Y-12002D01*
X19390Y-12361D01*
X19407Y-12473D01*
X19615Y-12568D01*
X19843Y-12577D01*
X20056Y-12497D01*
X20092Y-12473D01*
X20109Y-12361D01*
X20109Y-13603D01*
X19750Y-13603D01*
X19500Y-13603D01*
X18750Y-13603D01*
X17600Y-13603D01*
X17500Y-13603D01*
X17077Y-13603D01*
X17077Y-12906D01*
X16997Y-12693D01*
X16973Y-12657D01*
X16861Y-12640D01*
X16859Y-12642D01*
X16859Y-12638D01*
X16842Y-12526D01*
X16634Y-12431D01*
X16406Y-12422D01*
X16327Y-12452D01*
X16327Y-11406D01*
X16247Y-11193D01*
X16223Y-11157D01*
X16111Y-11140D01*
X16109Y-11142D01*
X16109Y-11138D01*
X16092Y-11026D01*
X15884Y-10931D01*
X15656Y-10922D01*
X15443Y-11002D01*
X15407Y-11026D01*
X15390Y-11138D01*
X15750Y-11497D01*
X16109Y-11138D01*
X16109Y-11142D01*
X15752Y-11500D01*
X16111Y-11859D01*
X16223Y-11842D01*
X16318Y-11634D01*
X16327Y-11406D01*
X16327Y-12452D01*
X16193Y-12502D01*
X16157Y-12526D01*
X16140Y-12638D01*
X16500Y-12997D01*
X16859Y-12638D01*
X16859Y-12642D01*
X16502Y-13000D01*
X16861Y-13359D01*
X16973Y-13342D01*
X17068Y-13134D01*
X17077Y-12906D01*
X17077Y-13603D01*
X17047Y-13603D01*
X17028Y-13556D01*
X16944Y-13472D01*
X16848Y-13432D01*
X16859Y-13361D01*
X16500Y-13002D01*
X16497Y-13004D01*
X16497Y-13000D01*
X16138Y-12640D01*
X16109Y-12644D01*
X16109Y-11861D01*
X15750Y-11502D01*
X15747Y-11504D01*
X15747Y-11500D01*
X15388Y-11140D01*
X15276Y-11157D01*
X15181Y-11365D01*
X15172Y-11593D01*
X15252Y-11806D01*
X15276Y-11842D01*
X15388Y-11859D01*
X15747Y-11500D01*
X15747Y-11504D01*
X15390Y-11861D01*
X15407Y-11973D01*
X15615Y-12068D01*
X15843Y-12077D01*
X16056Y-11997D01*
X16092Y-11973D01*
X16109Y-11861D01*
X16109Y-12644D01*
X16026Y-12657D01*
X15931Y-12865D01*
X15922Y-13093D01*
X16002Y-13306D01*
X16026Y-13342D01*
X16138Y-13359D01*
X16497Y-13000D01*
X16497Y-13004D01*
X16140Y-13361D01*
X16151Y-13432D01*
X16056Y-13471D01*
X15972Y-13555D01*
X15952Y-13603D01*
X14123Y-13603D01*
X14117Y-13594D01*
X13931Y-13469D01*
X13827Y-13448D01*
X13827Y-11156D01*
X13747Y-10943D01*
X13723Y-10907D01*
X13611Y-10890D01*
X13252Y-11250D01*
X13611Y-11609D01*
X13723Y-11592D01*
X13818Y-11384D01*
X13827Y-11156D01*
X13827Y-13448D01*
X13711Y-13425D01*
X13609Y-13425D01*
X13609Y-11611D01*
X13250Y-11252D01*
X13247Y-11254D01*
X13247Y-11250D01*
X12888Y-10890D01*
X12776Y-10907D01*
X12681Y-11115D01*
X12672Y-11343D01*
X12752Y-11556D01*
X12776Y-11592D01*
X12888Y-11609D01*
X13247Y-11250D01*
X13247Y-11254D01*
X12890Y-11611D01*
X12907Y-11723D01*
X13115Y-11818D01*
X13343Y-11827D01*
X13556Y-11747D01*
X13592Y-11723D01*
X13609Y-11611D01*
X13609Y-13425D01*
X13288Y-13425D01*
X13068Y-13469D01*
X12882Y-13594D01*
X12876Y-13603D01*
X12523Y-13603D01*
X12517Y-13594D01*
X12331Y-13469D01*
X12111Y-13425D01*
X11873Y-13425D01*
X11873Y-11286D01*
X11786Y-11075D01*
X11625Y-10914D01*
X11414Y-10826D01*
X11287Y-10826D01*
X11180Y-10719D01*
X11051Y-10633D01*
X10900Y-10603D01*
X10899Y-10603D01*
X9811Y-10603D01*
X9811Y-8261D01*
X9811Y-8200D01*
X9811Y-8138D01*
X9811Y-8137D01*
X9811Y-8137D01*
X9811Y-8137D01*
X9773Y-7946D01*
X9726Y-7832D01*
X9725Y-7831D01*
X9618Y-7670D01*
X9617Y-7669D01*
X9530Y-7581D01*
X9368Y-7473D01*
X9367Y-7473D01*
X9253Y-7425D01*
X9061Y-7387D01*
X8937Y-7388D01*
X8936Y-7388D01*
X8746Y-7426D01*
X8632Y-7473D01*
X8631Y-7474D01*
X8470Y-7581D01*
X8469Y-7582D01*
X8381Y-7669D01*
X8273Y-7831D01*
X8273Y-7832D01*
X8225Y-7946D01*
X8187Y-8138D01*
X8188Y-8200D01*
X8187Y-8261D01*
X8225Y-8453D01*
X8273Y-8567D01*
X8273Y-8568D01*
X8381Y-8730D01*
X8469Y-8817D01*
X8470Y-8818D01*
X8631Y-8925D01*
X8632Y-8926D01*
X8746Y-8973D01*
X8936Y-9011D01*
X8937Y-9011D01*
X9061Y-9012D01*
X9253Y-8974D01*
X9367Y-8926D01*
X9368Y-8926D01*
X9530Y-8818D01*
X9617Y-8730D01*
X9618Y-8729D01*
X9725Y-8568D01*
X9726Y-8567D01*
X9773Y-8453D01*
X9811Y-8262D01*
X9811Y-8262D01*
X9811Y-8262D01*
X9811Y-8261D01*
X9811Y-10603D01*
X9798Y-10603D01*
X9798Y-10440D01*
X9753Y-10331D01*
X9669Y-10247D01*
X9559Y-10201D01*
X9440Y-10201D01*
X8440Y-10201D01*
X8331Y-10246D01*
X8247Y-10330D01*
X8201Y-10440D01*
X8201Y-10559D01*
X8201Y-11559D01*
X8246Y-11668D01*
X8330Y-11752D01*
X8440Y-11798D01*
X8559Y-11798D01*
X9559Y-11798D01*
X9668Y-11753D01*
X9752Y-11669D01*
X9798Y-11559D01*
X9798Y-11440D01*
X9798Y-11396D01*
X10726Y-11396D01*
X10726Y-11513D01*
X10813Y-11724D01*
X10974Y-11885D01*
X11185Y-11973D01*
X11413Y-11973D01*
X11624Y-11886D01*
X11785Y-11725D01*
X11873Y-11514D01*
X11873Y-11286D01*
X11873Y-13425D01*
X11688Y-13425D01*
X11468Y-13469D01*
X11282Y-13594D01*
X11157Y-13780D01*
X11114Y-14000D01*
X11157Y-14219D01*
X11282Y-14405D01*
X11423Y-14500D01*
X11282Y-14594D01*
X11276Y-14603D01*
X11250Y-14603D01*
X11098Y-14633D01*
X10969Y-14719D01*
X10969Y-14719D01*
X9803Y-15884D01*
X9803Y-15121D01*
X9803Y-12871D01*
X9693Y-12573D01*
X9659Y-12522D01*
X9523Y-12478D01*
X9521Y-12480D01*
X9521Y-12476D01*
X9477Y-12340D01*
X9188Y-12208D01*
X8871Y-12196D01*
X8573Y-12306D01*
X8522Y-12340D01*
X8478Y-12476D01*
X9000Y-12997D01*
X9521Y-12476D01*
X9521Y-12480D01*
X9002Y-13000D01*
X9523Y-13521D01*
X9659Y-13477D01*
X9791Y-13188D01*
X9803Y-12871D01*
X9803Y-15121D01*
X9693Y-14823D01*
X9659Y-14772D01*
X9523Y-14728D01*
X9521Y-14730D01*
X9521Y-14726D01*
X9521Y-13523D01*
X9000Y-13002D01*
X8997Y-13004D01*
X8997Y-13000D01*
X8476Y-12478D01*
X8340Y-12522D01*
X8208Y-12811D01*
X8196Y-13128D01*
X8306Y-13426D01*
X8340Y-13477D01*
X8476Y-13521D01*
X8997Y-13000D01*
X8997Y-13004D01*
X8478Y-13523D01*
X8522Y-13659D01*
X8811Y-13791D01*
X9128Y-13803D01*
X9426Y-13693D01*
X9477Y-13659D01*
X9521Y-13523D01*
X9521Y-14726D01*
X9477Y-14590D01*
X9188Y-14458D01*
X8871Y-14446D01*
X8573Y-14556D01*
X8522Y-14590D01*
X8478Y-14726D01*
X9000Y-15247D01*
X9521Y-14726D01*
X9521Y-14730D01*
X9002Y-15250D01*
X9523Y-15771D01*
X9659Y-15727D01*
X9791Y-15438D01*
X9803Y-15121D01*
X9803Y-15884D01*
X9521Y-16167D01*
X9521Y-15773D01*
X9000Y-15252D01*
X8997Y-15254D01*
X8997Y-15250D01*
X8476Y-14728D01*
X8340Y-14772D01*
X8208Y-15061D01*
X8196Y-15378D01*
X8306Y-15676D01*
X8340Y-15727D01*
X8476Y-15771D01*
X8997Y-15250D01*
X8997Y-15254D01*
X8478Y-15773D01*
X8522Y-15909D01*
X8811Y-16041D01*
X9128Y-16053D01*
X9426Y-15943D01*
X9477Y-15909D01*
X9521Y-15773D01*
X9521Y-16167D01*
X9237Y-16451D01*
X8440Y-16451D01*
X8331Y-16496D01*
X8247Y-16580D01*
X8201Y-16690D01*
X8201Y-16809D01*
X8201Y-17809D01*
X8246Y-17918D01*
X8330Y-18002D01*
X8353Y-18012D01*
X8353Y-30202D01*
X8306Y-30221D01*
X8222Y-30305D01*
X8176Y-30415D01*
X8176Y-30534D01*
X8176Y-31084D01*
X8221Y-31193D01*
X8305Y-31277D01*
X8401Y-31317D01*
X8390Y-31388D01*
X8750Y-31747D01*
X8755Y-31742D01*
X8757Y-31744D01*
X8752Y-31750D01*
X9111Y-32109D01*
X9223Y-32092D01*
X9318Y-31884D01*
X9320Y-31847D01*
X9348Y-31866D01*
X9348Y-31866D01*
X9469Y-31890D01*
X9499Y-31896D01*
X9499Y-31896D01*
X9500Y-31896D01*
X10049Y-31896D01*
X10140Y-31957D01*
X10329Y-31995D01*
X10670Y-31995D01*
X10859Y-31957D01*
X11020Y-31850D01*
X11127Y-31689D01*
X11165Y-31500D01*
X11165Y-29500D01*
X11165Y-26500D01*
X11146Y-26403D01*
X11146Y-25579D01*
X11146Y-25420D01*
X11146Y-24579D01*
X11146Y-24420D01*
X11115Y-24311D01*
X11008Y-24150D01*
X10848Y-24043D01*
X10659Y-24004D01*
X10501Y-24004D01*
X10501Y-24498D01*
X11078Y-24498D01*
X11146Y-24420D01*
X11146Y-24579D01*
X11078Y-24501D01*
X10501Y-24501D01*
X10501Y-24995D01*
X10659Y-24995D01*
X10848Y-24956D01*
X11008Y-24849D01*
X11115Y-24688D01*
X11146Y-24579D01*
X11146Y-25420D01*
X11115Y-25311D01*
X11008Y-25150D01*
X10848Y-25043D01*
X10659Y-25004D01*
X10501Y-25004D01*
X10501Y-25498D01*
X11078Y-25498D01*
X11146Y-25420D01*
X11146Y-25579D01*
X11078Y-25501D01*
X10501Y-25501D01*
X10501Y-25995D01*
X10659Y-25995D01*
X10848Y-25956D01*
X11008Y-25849D01*
X11115Y-25688D01*
X11146Y-25579D01*
X11146Y-26403D01*
X11127Y-26310D01*
X11020Y-26149D01*
X10859Y-26042D01*
X10670Y-26004D01*
X10498Y-26004D01*
X10498Y-25995D01*
X10498Y-25501D01*
X10498Y-25498D01*
X10498Y-25004D01*
X10498Y-24995D01*
X10498Y-24501D01*
X10498Y-24498D01*
X10498Y-24004D01*
X10340Y-24004D01*
X10151Y-24043D01*
X9991Y-24150D01*
X9884Y-24311D01*
X9853Y-24420D01*
X9921Y-24498D01*
X10498Y-24498D01*
X10498Y-24501D01*
X9921Y-24501D01*
X9853Y-24579D01*
X9884Y-24688D01*
X9991Y-24849D01*
X10151Y-24956D01*
X10340Y-24995D01*
X10498Y-24995D01*
X10498Y-25004D01*
X10340Y-25004D01*
X10151Y-25043D01*
X9991Y-25150D01*
X9884Y-25311D01*
X9853Y-25420D01*
X9921Y-25498D01*
X10498Y-25498D01*
X10498Y-25501D01*
X9921Y-25501D01*
X9853Y-25579D01*
X9884Y-25688D01*
X9991Y-25849D01*
X10151Y-25956D01*
X10340Y-25995D01*
X10498Y-25995D01*
X10498Y-26004D01*
X10329Y-26004D01*
X10140Y-26042D01*
X9979Y-26149D01*
X9872Y-26310D01*
X9834Y-26500D01*
X9872Y-26689D01*
X9979Y-26850D01*
X10140Y-26957D01*
X10329Y-26995D01*
X10670Y-26995D01*
X10859Y-26957D01*
X11020Y-26850D01*
X11127Y-26689D01*
X11165Y-26500D01*
X11165Y-29500D01*
X11146Y-29403D01*
X11146Y-28579D01*
X11146Y-28420D01*
X11146Y-27579D01*
X11146Y-27420D01*
X11115Y-27311D01*
X11008Y-27150D01*
X10848Y-27043D01*
X10659Y-27004D01*
X10501Y-27004D01*
X10501Y-27498D01*
X11078Y-27498D01*
X11146Y-27420D01*
X11146Y-27579D01*
X11078Y-27501D01*
X10501Y-27501D01*
X10501Y-27995D01*
X10659Y-27995D01*
X10848Y-27956D01*
X11008Y-27849D01*
X11115Y-27688D01*
X11146Y-27579D01*
X11146Y-28420D01*
X11115Y-28311D01*
X11008Y-28150D01*
X10848Y-28043D01*
X10659Y-28004D01*
X10501Y-28004D01*
X10501Y-28498D01*
X11078Y-28498D01*
X11146Y-28420D01*
X11146Y-28579D01*
X11078Y-28501D01*
X10501Y-28501D01*
X10501Y-28995D01*
X10659Y-28995D01*
X10848Y-28956D01*
X11008Y-28849D01*
X11115Y-28688D01*
X11146Y-28579D01*
X11146Y-29403D01*
X11127Y-29310D01*
X11020Y-29149D01*
X10859Y-29042D01*
X10670Y-29004D01*
X10498Y-29004D01*
X10498Y-28995D01*
X10498Y-28501D01*
X10498Y-28498D01*
X10498Y-28004D01*
X10498Y-27995D01*
X10498Y-27501D01*
X10498Y-27498D01*
X10498Y-27004D01*
X10340Y-27004D01*
X10151Y-27043D01*
X9991Y-27150D01*
X9884Y-27311D01*
X9853Y-27420D01*
X9921Y-27498D01*
X10498Y-27498D01*
X10498Y-27501D01*
X9921Y-27501D01*
X9853Y-27579D01*
X9884Y-27688D01*
X9991Y-27849D01*
X10151Y-27956D01*
X10340Y-27995D01*
X10498Y-27995D01*
X10498Y-28004D01*
X10340Y-28004D01*
X10151Y-28043D01*
X9991Y-28150D01*
X9884Y-28311D01*
X9853Y-28420D01*
X9921Y-28498D01*
X10498Y-28498D01*
X10498Y-28501D01*
X9921Y-28501D01*
X9853Y-28579D01*
X9884Y-28688D01*
X9991Y-28849D01*
X10151Y-28956D01*
X10340Y-28995D01*
X10498Y-28995D01*
X10498Y-29004D01*
X10329Y-29004D01*
X10140Y-29042D01*
X9979Y-29149D01*
X9872Y-29310D01*
X9834Y-29500D01*
X9872Y-29689D01*
X9979Y-29850D01*
X10140Y-29957D01*
X10329Y-29995D01*
X10670Y-29995D01*
X10859Y-29957D01*
X11020Y-29850D01*
X11127Y-29689D01*
X11165Y-29500D01*
X11165Y-31500D01*
X11146Y-31403D01*
X11146Y-30579D01*
X11146Y-30420D01*
X11115Y-30311D01*
X11008Y-30150D01*
X10848Y-30043D01*
X10659Y-30004D01*
X10501Y-30004D01*
X10501Y-30498D01*
X11078Y-30498D01*
X11146Y-30420D01*
X11146Y-30579D01*
X11078Y-30501D01*
X10501Y-30501D01*
X10501Y-30995D01*
X10659Y-30995D01*
X10848Y-30956D01*
X11008Y-30849D01*
X11115Y-30688D01*
X11146Y-30579D01*
X11146Y-31403D01*
X11127Y-31310D01*
X11020Y-31149D01*
X10859Y-31042D01*
X10670Y-31004D01*
X10498Y-31004D01*
X10498Y-30995D01*
X10498Y-30501D01*
X10498Y-30498D01*
X10498Y-30004D01*
X10340Y-30004D01*
X10151Y-30043D01*
X9991Y-30150D01*
X9884Y-30311D01*
X9853Y-30420D01*
X9921Y-30498D01*
X10498Y-30498D01*
X10498Y-30501D01*
X9921Y-30501D01*
X9853Y-30579D01*
X9884Y-30688D01*
X9991Y-30849D01*
X10151Y-30956D01*
X10340Y-30995D01*
X10498Y-30995D01*
X10498Y-31004D01*
X10329Y-31004D01*
X10140Y-31042D01*
X10049Y-31103D01*
X9664Y-31103D01*
X9323Y-30762D01*
X9323Y-30415D01*
X9278Y-30306D01*
X9194Y-30222D01*
X9146Y-30202D01*
X9146Y-18048D01*
X9559Y-18048D01*
X9668Y-18003D01*
X9752Y-17919D01*
X9798Y-17809D01*
X9798Y-17690D01*
X9798Y-17012D01*
X11356Y-15455D01*
X11468Y-15530D01*
X11688Y-15574D01*
X12111Y-15574D01*
X12331Y-15530D01*
X12517Y-15405D01*
X12642Y-15219D01*
X12685Y-15000D01*
X12642Y-14780D01*
X12517Y-14594D01*
X12376Y-14500D01*
X12517Y-14405D01*
X12523Y-14396D01*
X12876Y-14396D01*
X12882Y-14405D01*
X13030Y-14504D01*
X12896Y-14595D01*
X12772Y-14781D01*
X12736Y-14908D01*
X12803Y-14998D01*
X13498Y-14998D01*
X13498Y-14990D01*
X13501Y-14990D01*
X13501Y-14998D01*
X14196Y-14998D01*
X14263Y-14908D01*
X14227Y-14781D01*
X14103Y-14595D01*
X13969Y-14504D01*
X14117Y-14405D01*
X14123Y-14396D01*
X15541Y-14396D01*
X14263Y-15675D01*
X14263Y-15091D01*
X14196Y-15001D01*
X13501Y-15001D01*
X13501Y-15574D01*
X13698Y-15574D01*
X13917Y-15529D01*
X14103Y-15404D01*
X14227Y-15218D01*
X14263Y-15091D01*
X14263Y-15675D01*
X13835Y-16103D01*
X13498Y-16103D01*
X13498Y-15574D01*
X13498Y-15001D01*
X12803Y-15001D01*
X12736Y-15091D01*
X12772Y-15218D01*
X12896Y-15404D01*
X13082Y-15529D01*
X13301Y-15574D01*
X13498Y-15574D01*
X13498Y-16103D01*
X13000Y-16103D01*
X12500Y-16103D01*
X12348Y-16133D01*
X12219Y-16219D01*
X12219Y-16219D01*
X11468Y-16970D01*
X11280Y-17007D01*
X11094Y-17132D01*
X10969Y-17318D01*
X10925Y-17538D01*
X10925Y-17762D01*
X10219Y-18469D01*
X10133Y-18598D01*
X10103Y-18750D01*
X10103Y-18750D01*
X10103Y-18876D01*
X10094Y-18882D01*
X9969Y-19068D01*
X9925Y-19288D01*
X9925Y-19711D01*
X9969Y-19931D01*
X10094Y-20117D01*
X10103Y-20123D01*
X10103Y-20376D01*
X10094Y-20382D01*
X9969Y-20568D01*
X9925Y-20788D01*
X9925Y-21211D01*
X9969Y-21431D01*
X10094Y-21617D01*
X10103Y-21623D01*
X10103Y-22085D01*
X10014Y-22174D01*
X9926Y-22385D01*
X9926Y-22613D01*
X10013Y-22824D01*
X10174Y-22985D01*
X10385Y-23073D01*
X10512Y-23073D01*
X12219Y-24780D01*
X12219Y-24780D01*
X12348Y-24866D01*
X12348Y-24866D01*
X12469Y-24890D01*
X12499Y-24896D01*
X12499Y-24896D01*
X12500Y-24896D01*
X13049Y-24896D01*
X13140Y-24957D01*
X13329Y-24995D01*
X13670Y-24995D01*
X13859Y-24957D01*
X14020Y-24850D01*
X14127Y-24689D01*
X14165Y-24500D01*
X14127Y-24310D01*
X14020Y-24149D01*
X13859Y-24042D01*
X13670Y-24004D01*
X13329Y-24004D01*
X13140Y-24042D01*
X13077Y-24084D01*
X13077Y-22406D01*
X12997Y-22193D01*
X12973Y-22157D01*
X12861Y-22140D01*
X12859Y-22142D01*
X12859Y-22138D01*
X12842Y-22026D01*
X12634Y-21931D01*
X12406Y-21922D01*
X12193Y-22002D01*
X12157Y-22026D01*
X12140Y-22138D01*
X12500Y-22497D01*
X12859Y-22138D01*
X12859Y-22142D01*
X12502Y-22500D01*
X12861Y-22859D01*
X12973Y-22842D01*
X13068Y-22634D01*
X13077Y-22406D01*
X13077Y-24084D01*
X13049Y-24103D01*
X12859Y-24103D01*
X12859Y-22861D01*
X12500Y-22502D01*
X12497Y-22504D01*
X12497Y-22500D01*
X12138Y-22140D01*
X12026Y-22157D01*
X11931Y-22365D01*
X11922Y-22593D01*
X12002Y-22806D01*
X12026Y-22842D01*
X12138Y-22859D01*
X12497Y-22500D01*
X12497Y-22504D01*
X12140Y-22861D01*
X12157Y-22973D01*
X12365Y-23068D01*
X12593Y-23077D01*
X12806Y-22997D01*
X12842Y-22973D01*
X12859Y-22861D01*
X12859Y-24103D01*
X12664Y-24103D01*
X11073Y-22512D01*
X11073Y-22386D01*
X10986Y-22175D01*
X10896Y-22085D01*
X10896Y-21623D01*
X10905Y-21617D01*
X11004Y-21469D01*
X11095Y-21603D01*
X11281Y-21727D01*
X11408Y-21763D01*
X11498Y-21696D01*
X11498Y-21001D01*
X11490Y-21001D01*
X11490Y-20998D01*
X11498Y-20998D01*
X11498Y-20303D01*
X11426Y-20250D01*
X11498Y-20196D01*
X11498Y-19501D01*
X11490Y-19501D01*
X11490Y-19498D01*
X11498Y-19498D01*
X11498Y-18803D01*
X11408Y-18736D01*
X11281Y-18772D01*
X11095Y-18896D01*
X11004Y-19030D01*
X10915Y-18896D01*
X11312Y-18498D01*
X11500Y-18535D01*
X11719Y-18492D01*
X11905Y-18367D01*
X12004Y-18219D01*
X12095Y-18353D01*
X12281Y-18477D01*
X12408Y-18513D01*
X12498Y-18446D01*
X12498Y-17751D01*
X12490Y-17751D01*
X12490Y-17748D01*
X12498Y-17748D01*
X12498Y-17740D01*
X12501Y-17740D01*
X12501Y-17748D01*
X12509Y-17748D01*
X12509Y-17751D01*
X12501Y-17751D01*
X12501Y-18446D01*
X12591Y-18513D01*
X12718Y-18477D01*
X12904Y-18353D01*
X12995Y-18219D01*
X13094Y-18367D01*
X13142Y-18400D01*
X13142Y-19000D01*
X13169Y-19136D01*
X13247Y-19252D01*
X13997Y-20002D01*
X13997Y-20002D01*
X14747Y-20752D01*
X14747Y-20752D01*
X14863Y-20830D01*
X14999Y-20857D01*
X15000Y-20857D01*
X16490Y-20857D01*
X16640Y-20957D01*
X16829Y-20995D01*
X17170Y-20995D01*
X17359Y-20957D01*
X17520Y-20850D01*
X17627Y-20689D01*
X17665Y-20500D01*
X17627Y-20310D01*
X17520Y-20149D01*
X17359Y-20042D01*
X17170Y-20004D01*
X16829Y-20004D01*
X16640Y-20042D01*
X16490Y-20142D01*
X15148Y-20142D01*
X14502Y-19497D01*
X14502Y-19497D01*
X13857Y-18851D01*
X13857Y-18400D01*
X13905Y-18367D01*
X14030Y-18181D01*
X14074Y-17961D01*
X14074Y-17538D01*
X14030Y-17318D01*
X13905Y-17132D01*
X13719Y-17007D01*
X13500Y-16964D01*
X13280Y-17007D01*
X13094Y-17132D01*
X12995Y-17280D01*
X12904Y-17146D01*
X12718Y-17022D01*
X12591Y-16986D01*
X12525Y-17036D01*
X12664Y-16896D01*
X13000Y-16896D01*
X13999Y-16896D01*
X14000Y-16896D01*
X14000Y-16896D01*
X14000Y-16896D01*
X14250Y-16896D01*
X14835Y-16896D01*
X15103Y-17164D01*
X15103Y-19050D01*
X14992Y-19160D01*
X14901Y-19380D01*
X14901Y-19618D01*
X14992Y-19838D01*
X15160Y-20007D01*
X15380Y-20098D01*
X15618Y-20098D01*
X15838Y-20007D01*
X16007Y-19839D01*
X16098Y-19619D01*
X16098Y-19381D01*
X16007Y-19161D01*
X15896Y-19050D01*
X15896Y-17876D01*
X16000Y-17896D01*
X16549Y-17896D01*
X16640Y-17957D01*
X16829Y-17995D01*
X17170Y-17995D01*
X17359Y-17957D01*
X17520Y-17850D01*
X17627Y-17689D01*
X17665Y-17500D01*
X17627Y-17310D01*
X17520Y-17149D01*
X17359Y-17042D01*
X17170Y-17004D01*
X16829Y-17004D01*
X16640Y-17042D01*
X16549Y-17103D01*
X16164Y-17103D01*
X15780Y-16719D01*
X15780Y-16719D01*
X15280Y-16219D01*
X15151Y-16133D01*
X15000Y-16103D01*
X14999Y-16103D01*
X14958Y-16103D01*
X16487Y-14573D01*
X16834Y-14573D01*
X16943Y-14528D01*
X17027Y-14444D01*
X17047Y-14396D01*
X17500Y-14396D01*
X17600Y-14396D01*
X18750Y-14396D01*
X19500Y-14396D01*
X19750Y-14396D01*
X20999Y-14396D01*
X21000Y-14396D01*
X21000Y-14396D01*
X21151Y-14366D01*
X21280Y-14280D01*
X21353Y-14208D01*
X21353Y-16499D01*
X21353Y-16500D01*
X21383Y-16651D01*
X21469Y-16780D01*
X21853Y-17164D01*
X21853Y-19749D01*
X21853Y-19750D01*
X21883Y-19901D01*
X21969Y-20030D01*
X22717Y-20779D01*
X22742Y-20838D01*
X22910Y-21007D01*
X23130Y-21098D01*
X23368Y-21098D01*
X23588Y-21007D01*
X23699Y-20896D01*
X24300Y-20896D01*
X24410Y-21007D01*
X24630Y-21098D01*
X24868Y-21098D01*
X25088Y-21007D01*
X25257Y-20839D01*
X25348Y-20619D01*
X25348Y-20381D01*
X25348Y-24381D01*
X25257Y-24161D01*
X25089Y-23992D01*
X24869Y-23901D01*
X24631Y-23901D01*
X24411Y-23992D01*
X24242Y-24160D01*
X24151Y-24380D01*
X24151Y-24618D01*
X24242Y-24838D01*
X24353Y-24949D01*
X24353Y-26335D01*
X23848Y-26840D01*
X23848Y-24381D01*
X23757Y-24161D01*
X23589Y-23992D01*
X23369Y-23901D01*
X23131Y-23901D01*
X22911Y-23992D01*
X22800Y-24103D01*
X22327Y-24103D01*
X22327Y-22406D01*
X22247Y-22193D01*
X22223Y-22157D01*
X22111Y-22140D01*
X22109Y-22142D01*
X22109Y-22138D01*
X22092Y-22026D01*
X21884Y-21931D01*
X21656Y-21922D01*
X21598Y-21944D01*
X21598Y-18381D01*
X21507Y-18161D01*
X21346Y-17999D01*
X21507Y-17839D01*
X21598Y-17619D01*
X21598Y-17381D01*
X21507Y-17161D01*
X21339Y-16992D01*
X21119Y-16901D01*
X20881Y-16901D01*
X20661Y-16992D01*
X20574Y-17079D01*
X20574Y-15398D01*
X20574Y-15201D01*
X20574Y-15198D01*
X20574Y-15001D01*
X20529Y-14782D01*
X20404Y-14596D01*
X20218Y-14472D01*
X20091Y-14436D01*
X20001Y-14503D01*
X20001Y-15198D01*
X20574Y-15198D01*
X20574Y-15201D01*
X20001Y-15201D01*
X20001Y-15896D01*
X20091Y-15963D01*
X20218Y-15927D01*
X20404Y-15803D01*
X20529Y-15617D01*
X20574Y-15398D01*
X20574Y-17079D01*
X20511Y-17142D01*
X20509Y-17142D01*
X20359Y-17042D01*
X20170Y-17004D01*
X19998Y-17004D01*
X19998Y-15896D01*
X19998Y-15201D01*
X19990Y-15201D01*
X19990Y-15198D01*
X19998Y-15198D01*
X19998Y-14503D01*
X19908Y-14436D01*
X19781Y-14472D01*
X19595Y-14596D01*
X19504Y-14730D01*
X19405Y-14582D01*
X19219Y-14457D01*
X19000Y-14414D01*
X18780Y-14457D01*
X18594Y-14582D01*
X18500Y-14723D01*
X18405Y-14582D01*
X18219Y-14457D01*
X18000Y-14414D01*
X17780Y-14457D01*
X17594Y-14582D01*
X17469Y-14768D01*
X17425Y-14988D01*
X17425Y-15411D01*
X17469Y-15631D01*
X17594Y-15817D01*
X17707Y-15893D01*
X17747Y-15952D01*
X17842Y-16048D01*
X17842Y-17851D01*
X17551Y-18142D01*
X17509Y-18142D01*
X17359Y-18042D01*
X17170Y-18004D01*
X16829Y-18004D01*
X16640Y-18042D01*
X16479Y-18149D01*
X16372Y-18310D01*
X16334Y-18500D01*
X16372Y-18689D01*
X16479Y-18850D01*
X16640Y-18957D01*
X16829Y-18995D01*
X17170Y-18995D01*
X17359Y-18957D01*
X17509Y-18857D01*
X17700Y-18857D01*
X17836Y-18830D01*
X17952Y-18752D01*
X18452Y-18252D01*
X18530Y-18136D01*
X18557Y-18000D01*
X18557Y-15900D01*
X18530Y-15763D01*
X18486Y-15697D01*
X18500Y-15676D01*
X18592Y-15815D01*
X18592Y-18151D01*
X17601Y-19142D01*
X17509Y-19142D01*
X17359Y-19042D01*
X17170Y-19004D01*
X16829Y-19004D01*
X16640Y-19042D01*
X16479Y-19149D01*
X16372Y-19310D01*
X16334Y-19500D01*
X16372Y-19689D01*
X16479Y-19850D01*
X16640Y-19957D01*
X16829Y-19995D01*
X17170Y-19995D01*
X17359Y-19957D01*
X17509Y-19857D01*
X17750Y-19857D01*
X17886Y-19830D01*
X18002Y-19752D01*
X19202Y-18552D01*
X19202Y-18552D01*
X19202Y-18552D01*
X19280Y-18436D01*
X19307Y-18300D01*
X19307Y-18300D01*
X19307Y-15883D01*
X19405Y-15817D01*
X19504Y-15669D01*
X19595Y-15803D01*
X19781Y-15927D01*
X19908Y-15963D01*
X19998Y-15896D01*
X19998Y-17004D01*
X19829Y-17004D01*
X19640Y-17042D01*
X19479Y-17149D01*
X19372Y-17310D01*
X19334Y-17500D01*
X19372Y-17689D01*
X19479Y-17850D01*
X19640Y-17957D01*
X19829Y-17995D01*
X20170Y-17995D01*
X20359Y-17957D01*
X20509Y-17857D01*
X20511Y-17857D01*
X20653Y-18000D01*
X20511Y-18142D01*
X20509Y-18142D01*
X20359Y-18042D01*
X20170Y-18004D01*
X19829Y-18004D01*
X19640Y-18042D01*
X19479Y-18149D01*
X19372Y-18310D01*
X19334Y-18500D01*
X19372Y-18689D01*
X19479Y-18850D01*
X19640Y-18957D01*
X19829Y-18995D01*
X20170Y-18995D01*
X20359Y-18957D01*
X20509Y-18857D01*
X20511Y-18857D01*
X20660Y-19007D01*
X20880Y-19098D01*
X21118Y-19098D01*
X21338Y-19007D01*
X21507Y-18839D01*
X21598Y-18619D01*
X21598Y-18381D01*
X21598Y-21944D01*
X21443Y-22002D01*
X21407Y-22026D01*
X21390Y-22138D01*
X21750Y-22497D01*
X22109Y-22138D01*
X22109Y-22142D01*
X21752Y-22500D01*
X22111Y-22859D01*
X22223Y-22842D01*
X22318Y-22634D01*
X22327Y-22406D01*
X22327Y-24103D01*
X22164Y-24103D01*
X22109Y-24048D01*
X22109Y-22861D01*
X21750Y-22502D01*
X21747Y-22504D01*
X21747Y-22500D01*
X21388Y-22140D01*
X21276Y-22157D01*
X21181Y-22365D01*
X21172Y-22593D01*
X21252Y-22806D01*
X21276Y-22842D01*
X21388Y-22859D01*
X21747Y-22500D01*
X21747Y-22504D01*
X21390Y-22861D01*
X21407Y-22973D01*
X21615Y-23068D01*
X21843Y-23077D01*
X22056Y-22997D01*
X22092Y-22973D01*
X22109Y-22861D01*
X22109Y-24048D01*
X22075Y-24014D01*
X21864Y-23926D01*
X21636Y-23926D01*
X21425Y-24013D01*
X21335Y-24103D01*
X20665Y-24103D01*
X20665Y-22500D01*
X20665Y-21500D01*
X20665Y-20500D01*
X20665Y-19500D01*
X20627Y-19310D01*
X20520Y-19149D01*
X20359Y-19042D01*
X20170Y-19004D01*
X19829Y-19004D01*
X19640Y-19042D01*
X19479Y-19149D01*
X19372Y-19310D01*
X19334Y-19500D01*
X19372Y-19689D01*
X19479Y-19850D01*
X19640Y-19957D01*
X19829Y-19995D01*
X20170Y-19995D01*
X20359Y-19957D01*
X20520Y-19850D01*
X20627Y-19689D01*
X20665Y-19500D01*
X20665Y-20500D01*
X20627Y-20310D01*
X20520Y-20149D01*
X20359Y-20042D01*
X20170Y-20004D01*
X19829Y-20004D01*
X19640Y-20042D01*
X19479Y-20149D01*
X19372Y-20310D01*
X19334Y-20500D01*
X19372Y-20689D01*
X19479Y-20850D01*
X19640Y-20957D01*
X19829Y-20995D01*
X20170Y-20995D01*
X20359Y-20957D01*
X20520Y-20850D01*
X20627Y-20689D01*
X20665Y-20500D01*
X20665Y-21500D01*
X20627Y-21310D01*
X20520Y-21149D01*
X20359Y-21042D01*
X20170Y-21004D01*
X19829Y-21004D01*
X19640Y-21042D01*
X19479Y-21149D01*
X19372Y-21310D01*
X19334Y-21500D01*
X19372Y-21689D01*
X19479Y-21850D01*
X19640Y-21957D01*
X19829Y-21995D01*
X20170Y-21995D01*
X20359Y-21957D01*
X20520Y-21850D01*
X20627Y-21689D01*
X20665Y-21500D01*
X20665Y-22500D01*
X20627Y-22310D01*
X20520Y-22149D01*
X20359Y-22042D01*
X20170Y-22004D01*
X19829Y-22004D01*
X19640Y-22042D01*
X19479Y-22149D01*
X19372Y-22310D01*
X19334Y-22500D01*
X19372Y-22689D01*
X19479Y-22850D01*
X19640Y-22957D01*
X19829Y-22995D01*
X20170Y-22995D01*
X20359Y-22957D01*
X20520Y-22850D01*
X20627Y-22689D01*
X20665Y-22500D01*
X20665Y-24103D01*
X20646Y-24103D01*
X20646Y-23579D01*
X20646Y-23420D01*
X20615Y-23311D01*
X20508Y-23150D01*
X20348Y-23043D01*
X20159Y-23004D01*
X20001Y-23004D01*
X20001Y-23498D01*
X20578Y-23498D01*
X20646Y-23420D01*
X20646Y-23579D01*
X20578Y-23501D01*
X20001Y-23501D01*
X20001Y-23995D01*
X20159Y-23995D01*
X20348Y-23956D01*
X20508Y-23849D01*
X20615Y-23688D01*
X20646Y-23579D01*
X20646Y-24103D01*
X20450Y-24103D01*
X20359Y-24042D01*
X20170Y-24004D01*
X19998Y-24004D01*
X19998Y-23995D01*
X19998Y-23501D01*
X19998Y-23498D01*
X19998Y-23004D01*
X19840Y-23004D01*
X19651Y-23043D01*
X19491Y-23150D01*
X19384Y-23311D01*
X19353Y-23420D01*
X19421Y-23498D01*
X19998Y-23498D01*
X19998Y-23501D01*
X19421Y-23501D01*
X19353Y-23579D01*
X19384Y-23688D01*
X19491Y-23849D01*
X19651Y-23956D01*
X19840Y-23995D01*
X19998Y-23995D01*
X19998Y-24004D01*
X19829Y-24004D01*
X19640Y-24042D01*
X19479Y-24149D01*
X19372Y-24310D01*
X19334Y-24500D01*
X19372Y-24689D01*
X19479Y-24850D01*
X19640Y-24957D01*
X19829Y-24995D01*
X20170Y-24995D01*
X20359Y-24957D01*
X20450Y-24896D01*
X20791Y-24896D01*
X20585Y-25103D01*
X20450Y-25103D01*
X20359Y-25042D01*
X20170Y-25004D01*
X19829Y-25004D01*
X19640Y-25042D01*
X19479Y-25149D01*
X19372Y-25310D01*
X19334Y-25500D01*
X19372Y-25689D01*
X19479Y-25850D01*
X19640Y-25957D01*
X19829Y-25995D01*
X20170Y-25995D01*
X20359Y-25957D01*
X20450Y-25896D01*
X20749Y-25896D01*
X20750Y-25896D01*
X20750Y-25896D01*
X20901Y-25866D01*
X21030Y-25780D01*
X21737Y-25073D01*
X21863Y-25073D01*
X22074Y-24986D01*
X22164Y-24896D01*
X22800Y-24896D01*
X22910Y-25007D01*
X23130Y-25098D01*
X23368Y-25098D01*
X23588Y-25007D01*
X23757Y-24839D01*
X23848Y-24619D01*
X23848Y-24381D01*
X23848Y-26840D01*
X23469Y-27219D01*
X23383Y-27348D01*
X23353Y-27500D01*
X23353Y-27500D01*
X23353Y-27952D01*
X23306Y-27971D01*
X23222Y-28055D01*
X23176Y-28165D01*
X23176Y-28284D01*
X23176Y-28834D01*
X23221Y-28943D01*
X23305Y-29027D01*
X23353Y-29047D01*
X23353Y-29876D01*
X23344Y-29882D01*
X23219Y-30068D01*
X23175Y-30288D01*
X23175Y-30711D01*
X23219Y-30931D01*
X23344Y-31117D01*
X23530Y-31242D01*
X23750Y-31285D01*
X23969Y-31242D01*
X24155Y-31117D01*
X24254Y-30969D01*
X24345Y-31103D01*
X24531Y-31227D01*
X24658Y-31263D01*
X24748Y-31196D01*
X24748Y-30501D01*
X24740Y-30501D01*
X24740Y-30498D01*
X24748Y-30498D01*
X24748Y-29803D01*
X24658Y-29736D01*
X24531Y-29772D01*
X24345Y-29896D01*
X24254Y-30030D01*
X24155Y-29882D01*
X24146Y-29876D01*
X24146Y-29047D01*
X24193Y-29028D01*
X24277Y-28944D01*
X24317Y-28848D01*
X24388Y-28859D01*
X24747Y-28500D01*
X24388Y-28140D01*
X24317Y-28151D01*
X24278Y-28056D01*
X24194Y-27972D01*
X24146Y-27952D01*
X24146Y-27664D01*
X25030Y-26780D01*
X25030Y-26780D01*
X25030Y-26780D01*
X25116Y-26651D01*
X25146Y-26500D01*
X25146Y-24949D01*
X25257Y-24839D01*
X25348Y-24619D01*
X25348Y-24381D01*
X25348Y-34046D01*
X25327Y-34060D01*
X25327Y-28406D01*
X25247Y-28193D01*
X25223Y-28157D01*
X25111Y-28140D01*
X25109Y-28142D01*
X25109Y-28138D01*
X25092Y-28026D01*
X24884Y-27931D01*
X24656Y-27922D01*
X24443Y-28002D01*
X24407Y-28026D01*
X24390Y-28138D01*
X24750Y-28497D01*
X25109Y-28138D01*
X25109Y-28142D01*
X24752Y-28500D01*
X25111Y-28859D01*
X25223Y-28842D01*
X25318Y-28634D01*
X25327Y-28406D01*
X25327Y-34060D01*
X25324Y-34062D01*
X25324Y-30698D01*
X25324Y-30501D01*
X25324Y-30498D01*
X25324Y-30301D01*
X25279Y-30082D01*
X25154Y-29896D01*
X25109Y-29866D01*
X25109Y-28861D01*
X24750Y-28502D01*
X24390Y-28861D01*
X24407Y-28973D01*
X24615Y-29068D01*
X24843Y-29077D01*
X25056Y-28997D01*
X25092Y-28973D01*
X25109Y-28861D01*
X25109Y-29866D01*
X24968Y-29772D01*
X24841Y-29736D01*
X24751Y-29803D01*
X24751Y-30498D01*
X25324Y-30498D01*
X25324Y-30501D01*
X24751Y-30501D01*
X24751Y-31196D01*
X24841Y-31263D01*
X24968Y-31227D01*
X25154Y-31103D01*
X25279Y-30917D01*
X25324Y-30698D01*
X25324Y-34062D01*
X25220Y-34131D01*
X25219Y-34132D01*
X25131Y-34219D01*
X25023Y-34381D01*
X25023Y-34382D01*
X24975Y-34496D01*
X24937Y-34688D01*
X24938Y-34750D01*
X24937Y-34811D01*
X24975Y-35003D01*
X25023Y-35117D01*
X25023Y-35118D01*
X25131Y-35280D01*
X25219Y-35367D01*
X25220Y-35368D01*
X25381Y-35475D01*
X25382Y-35476D01*
X25496Y-35523D01*
X25686Y-35561D01*
X25687Y-35561D01*
X25811Y-35562D01*
X26003Y-35524D01*
X26117Y-35476D01*
X26118Y-35476D01*
X26280Y-35368D01*
X26367Y-35280D01*
X26368Y-35279D01*
X26475Y-35118D01*
X26476Y-35117D01*
X26523Y-35003D01*
X26561Y-34812D01*
X26561Y-34812D01*
X26561Y-34812D01*
X26561Y-34811D01*
X26561Y-35901D01*
X22324Y-35901D01*
X22324Y-30711D01*
X22324Y-30288D01*
X22280Y-30068D01*
X22155Y-29882D01*
X21969Y-29757D01*
X21750Y-29714D01*
X21530Y-29757D01*
X21344Y-29882D01*
X21219Y-30068D01*
X21204Y-30142D01*
X20665Y-30142D01*
X20665Y-29500D01*
X20665Y-28500D01*
X20665Y-27500D01*
X20665Y-26500D01*
X20627Y-26310D01*
X20520Y-26149D01*
X20359Y-26042D01*
X20170Y-26004D01*
X19829Y-26004D01*
X19640Y-26042D01*
X19479Y-26149D01*
X19372Y-26310D01*
X19334Y-26500D01*
X19372Y-26689D01*
X19479Y-26850D01*
X19640Y-26957D01*
X19829Y-26995D01*
X20170Y-26995D01*
X20359Y-26957D01*
X20520Y-26850D01*
X20627Y-26689D01*
X20665Y-26500D01*
X20665Y-27500D01*
X20627Y-27310D01*
X20520Y-27149D01*
X20359Y-27042D01*
X20170Y-27004D01*
X19829Y-27004D01*
X19640Y-27042D01*
X19479Y-27149D01*
X19372Y-27310D01*
X19334Y-27500D01*
X19372Y-27689D01*
X19479Y-27850D01*
X19640Y-27957D01*
X19829Y-27995D01*
X20170Y-27995D01*
X20359Y-27957D01*
X20520Y-27850D01*
X20627Y-27689D01*
X20665Y-27500D01*
X20665Y-28500D01*
X20627Y-28310D01*
X20520Y-28149D01*
X20359Y-28042D01*
X20170Y-28004D01*
X19829Y-28004D01*
X19640Y-28042D01*
X19479Y-28149D01*
X19372Y-28310D01*
X19334Y-28500D01*
X19372Y-28689D01*
X19479Y-28850D01*
X19640Y-28957D01*
X19829Y-28995D01*
X20170Y-28995D01*
X20359Y-28957D01*
X20520Y-28850D01*
X20627Y-28689D01*
X20665Y-28500D01*
X20665Y-29500D01*
X20627Y-29310D01*
X20520Y-29149D01*
X20359Y-29042D01*
X20170Y-29004D01*
X19829Y-29004D01*
X19640Y-29042D01*
X19479Y-29149D01*
X19372Y-29310D01*
X19334Y-29500D01*
X19372Y-29689D01*
X19479Y-29850D01*
X19640Y-29957D01*
X19829Y-29995D01*
X20170Y-29995D01*
X20359Y-29957D01*
X20520Y-29850D01*
X20627Y-29689D01*
X20665Y-29500D01*
X20665Y-30142D01*
X20509Y-30142D01*
X20359Y-30042D01*
X20170Y-30004D01*
X19829Y-30004D01*
X19640Y-30042D01*
X19479Y-30149D01*
X19372Y-30310D01*
X19334Y-30500D01*
X19372Y-30689D01*
X19479Y-30850D01*
X19640Y-30957D01*
X19829Y-30995D01*
X20170Y-30995D01*
X20359Y-30957D01*
X20509Y-30857D01*
X21204Y-30857D01*
X21219Y-30931D01*
X21344Y-31117D01*
X21530Y-31242D01*
X21750Y-31285D01*
X21969Y-31242D01*
X22155Y-31117D01*
X22280Y-30931D01*
X22324Y-30711D01*
X22324Y-35901D01*
X20777Y-35901D01*
X20777Y-32806D01*
X20697Y-32593D01*
X20673Y-32557D01*
X20561Y-32540D01*
X20559Y-32542D01*
X20559Y-32538D01*
X20542Y-32426D01*
X20334Y-32331D01*
X20106Y-32322D01*
X19893Y-32402D01*
X19857Y-32426D01*
X19840Y-32538D01*
X20200Y-32897D01*
X20559Y-32538D01*
X20559Y-32542D01*
X20202Y-32900D01*
X20561Y-33259D01*
X20673Y-33242D01*
X20768Y-33034D01*
X20777Y-32806D01*
X20777Y-35901D01*
X20559Y-35901D01*
X20559Y-33261D01*
X20200Y-32902D01*
X20197Y-32904D01*
X20197Y-32900D01*
X19838Y-32540D01*
X19726Y-32557D01*
X19631Y-32765D01*
X19622Y-32993D01*
X19702Y-33206D01*
X19726Y-33242D01*
X19838Y-33259D01*
X20197Y-32900D01*
X20197Y-32904D01*
X19840Y-33261D01*
X19857Y-33373D01*
X20065Y-33468D01*
X20293Y-33477D01*
X20506Y-33397D01*
X20542Y-33373D01*
X20559Y-33261D01*
X20559Y-35901D01*
X20074Y-35901D01*
X20074Y-35011D01*
X20074Y-34588D01*
X20030Y-34368D01*
X19905Y-34182D01*
X19845Y-34142D01*
X19830Y-34063D01*
X19752Y-33947D01*
X18773Y-32967D01*
X18773Y-32786D01*
X18686Y-32575D01*
X18525Y-32414D01*
X18314Y-32326D01*
X18086Y-32326D01*
X17875Y-32413D01*
X17746Y-32542D01*
X17665Y-32542D01*
X17665Y-30500D01*
X17665Y-29500D01*
X17665Y-28500D01*
X17665Y-27500D01*
X17665Y-26500D01*
X17665Y-25500D01*
X17665Y-23500D01*
X17665Y-22500D01*
X17627Y-22310D01*
X17520Y-22149D01*
X17359Y-22042D01*
X17170Y-22004D01*
X16829Y-22004D01*
X16640Y-22042D01*
X16490Y-22142D01*
X14148Y-22142D01*
X13074Y-21068D01*
X13074Y-20788D01*
X13030Y-20568D01*
X12964Y-20470D01*
X14247Y-21752D01*
X14247Y-21752D01*
X14363Y-21830D01*
X14499Y-21857D01*
X14500Y-21857D01*
X16490Y-21857D01*
X16640Y-21957D01*
X16829Y-21995D01*
X17170Y-21995D01*
X17359Y-21957D01*
X17520Y-21850D01*
X17627Y-21689D01*
X17665Y-21500D01*
X17627Y-21310D01*
X17520Y-21149D01*
X17359Y-21042D01*
X17170Y-21004D01*
X16829Y-21004D01*
X16640Y-21042D01*
X16490Y-21142D01*
X14648Y-21142D01*
X13074Y-19568D01*
X13074Y-19288D01*
X13030Y-19068D01*
X12905Y-18882D01*
X12719Y-18757D01*
X12500Y-18714D01*
X12280Y-18757D01*
X12094Y-18882D01*
X11995Y-19030D01*
X11904Y-18896D01*
X11718Y-18772D01*
X11591Y-18736D01*
X11501Y-18803D01*
X11501Y-19498D01*
X11509Y-19498D01*
X11509Y-19501D01*
X11501Y-19501D01*
X11501Y-20196D01*
X11573Y-20250D01*
X11501Y-20303D01*
X11501Y-20998D01*
X11509Y-20998D01*
X11509Y-21001D01*
X11501Y-21001D01*
X11501Y-21696D01*
X11591Y-21763D01*
X11718Y-21727D01*
X11904Y-21603D01*
X11995Y-21469D01*
X12094Y-21617D01*
X12280Y-21742D01*
X12500Y-21785D01*
X12719Y-21742D01*
X12729Y-21735D01*
X13747Y-22752D01*
X13747Y-22752D01*
X13863Y-22830D01*
X14000Y-22857D01*
X16490Y-22857D01*
X16640Y-22957D01*
X16829Y-22995D01*
X17170Y-22995D01*
X17359Y-22957D01*
X17520Y-22850D01*
X17627Y-22689D01*
X17665Y-22500D01*
X17665Y-23500D01*
X17627Y-23310D01*
X17520Y-23149D01*
X17359Y-23042D01*
X17170Y-23004D01*
X16829Y-23004D01*
X16640Y-23042D01*
X16549Y-23103D01*
X16500Y-23103D01*
X15949Y-23103D01*
X15839Y-22992D01*
X15619Y-22901D01*
X15381Y-22901D01*
X15161Y-22992D01*
X14992Y-23160D01*
X14901Y-23380D01*
X14901Y-23618D01*
X14992Y-23838D01*
X15103Y-23949D01*
X15103Y-24085D01*
X15014Y-24174D01*
X14926Y-24385D01*
X14926Y-24613D01*
X15013Y-24824D01*
X15174Y-24985D01*
X15385Y-25073D01*
X15613Y-25073D01*
X15824Y-24986D01*
X15985Y-24825D01*
X16073Y-24614D01*
X16073Y-24487D01*
X16230Y-24330D01*
X16280Y-24280D01*
X16280Y-24280D01*
X16280Y-24280D01*
X16380Y-24180D01*
X16380Y-24180D01*
X16380Y-24180D01*
X16380Y-24180D01*
X16618Y-23942D01*
X16640Y-23957D01*
X16829Y-23995D01*
X17170Y-23995D01*
X17359Y-23957D01*
X17520Y-23850D01*
X17627Y-23689D01*
X17665Y-23500D01*
X17665Y-25500D01*
X17646Y-25403D01*
X17646Y-24579D01*
X17646Y-24420D01*
X17615Y-24311D01*
X17508Y-24150D01*
X17348Y-24043D01*
X17159Y-24004D01*
X17001Y-24004D01*
X17001Y-24498D01*
X17578Y-24498D01*
X17646Y-24420D01*
X17646Y-24579D01*
X17578Y-24501D01*
X17001Y-24501D01*
X17001Y-24995D01*
X17159Y-24995D01*
X17348Y-24956D01*
X17508Y-24849D01*
X17615Y-24688D01*
X17646Y-24579D01*
X17646Y-25403D01*
X17627Y-25310D01*
X17520Y-25149D01*
X17359Y-25042D01*
X17170Y-25004D01*
X16998Y-25004D01*
X16998Y-24995D01*
X16998Y-24501D01*
X16998Y-24498D01*
X16998Y-24004D01*
X16840Y-24004D01*
X16651Y-24043D01*
X16491Y-24150D01*
X16384Y-24311D01*
X16353Y-24420D01*
X16421Y-24498D01*
X16998Y-24498D01*
X16998Y-24501D01*
X16421Y-24501D01*
X16353Y-24579D01*
X16384Y-24688D01*
X16491Y-24849D01*
X16651Y-24956D01*
X16840Y-24995D01*
X16998Y-24995D01*
X16998Y-25004D01*
X16829Y-25004D01*
X16640Y-25042D01*
X16479Y-25149D01*
X16372Y-25310D01*
X16334Y-25500D01*
X16372Y-25689D01*
X16479Y-25850D01*
X16640Y-25957D01*
X16829Y-25995D01*
X17170Y-25995D01*
X17359Y-25957D01*
X17520Y-25850D01*
X17627Y-25689D01*
X17665Y-25500D01*
X17665Y-26500D01*
X17627Y-26310D01*
X17520Y-26149D01*
X17359Y-26042D01*
X17170Y-26004D01*
X16829Y-26004D01*
X16640Y-26042D01*
X16479Y-26149D01*
X16372Y-26310D01*
X16334Y-26500D01*
X16372Y-26689D01*
X16479Y-26850D01*
X16640Y-26957D01*
X16829Y-26995D01*
X17170Y-26995D01*
X17359Y-26957D01*
X17520Y-26850D01*
X17627Y-26689D01*
X17665Y-26500D01*
X17665Y-27500D01*
X17627Y-27310D01*
X17520Y-27149D01*
X17359Y-27042D01*
X17170Y-27004D01*
X16829Y-27004D01*
X16640Y-27042D01*
X16479Y-27149D01*
X16372Y-27310D01*
X16334Y-27500D01*
X16372Y-27689D01*
X16479Y-27850D01*
X16640Y-27957D01*
X16829Y-27995D01*
X17170Y-27995D01*
X17359Y-27957D01*
X17520Y-27850D01*
X17627Y-27689D01*
X17665Y-27500D01*
X17665Y-28500D01*
X17627Y-28310D01*
X17520Y-28149D01*
X17359Y-28042D01*
X17170Y-28004D01*
X16829Y-28004D01*
X16640Y-28042D01*
X16490Y-28142D01*
X16077Y-28142D01*
X16077Y-26406D01*
X15997Y-26193D01*
X15973Y-26157D01*
X15861Y-26140D01*
X15859Y-26142D01*
X15859Y-26138D01*
X15842Y-26026D01*
X15634Y-25931D01*
X15406Y-25922D01*
X15193Y-26002D01*
X15157Y-26026D01*
X15140Y-26138D01*
X15500Y-26497D01*
X15859Y-26138D01*
X15859Y-26142D01*
X15502Y-26500D01*
X15861Y-26859D01*
X15973Y-26842D01*
X16068Y-26634D01*
X16077Y-26406D01*
X16077Y-28142D01*
X16018Y-28142D01*
X15859Y-27983D01*
X15859Y-26861D01*
X15500Y-26502D01*
X15497Y-26504D01*
X15497Y-26500D01*
X15138Y-26140D01*
X15026Y-26157D01*
X14931Y-26365D01*
X14922Y-26593D01*
X15002Y-26806D01*
X15026Y-26842D01*
X15138Y-26859D01*
X15497Y-26500D01*
X15497Y-26504D01*
X15140Y-26861D01*
X15157Y-26973D01*
X15365Y-27068D01*
X15593Y-27077D01*
X15806Y-26997D01*
X15842Y-26973D01*
X15859Y-26861D01*
X15859Y-27983D01*
X14907Y-27031D01*
X14907Y-25980D01*
X14880Y-25843D01*
X14802Y-25727D01*
X14322Y-25247D01*
X14206Y-25169D01*
X14070Y-25142D01*
X14009Y-25142D01*
X13859Y-25042D01*
X13670Y-25004D01*
X13329Y-25004D01*
X13140Y-25042D01*
X12979Y-25149D01*
X12872Y-25310D01*
X12834Y-25500D01*
X12872Y-25689D01*
X12979Y-25850D01*
X13140Y-25957D01*
X13329Y-25995D01*
X13670Y-25995D01*
X13859Y-25957D01*
X13957Y-25892D01*
X14192Y-26128D01*
X14192Y-27180D01*
X14219Y-27316D01*
X14297Y-27432D01*
X15617Y-28752D01*
X15733Y-28830D01*
X15870Y-28857D01*
X16490Y-28857D01*
X16640Y-28957D01*
X16829Y-28995D01*
X17170Y-28995D01*
X17359Y-28957D01*
X17520Y-28850D01*
X17627Y-28689D01*
X17665Y-28500D01*
X17665Y-29500D01*
X17627Y-29310D01*
X17520Y-29149D01*
X17359Y-29042D01*
X17170Y-29004D01*
X16829Y-29004D01*
X16640Y-29042D01*
X16490Y-29142D01*
X16250Y-29142D01*
X16113Y-29169D01*
X15997Y-29247D01*
X15101Y-30142D01*
X14009Y-30142D01*
X13859Y-30042D01*
X13670Y-30004D01*
X13329Y-30004D01*
X13140Y-30042D01*
X12979Y-30149D01*
X12872Y-30310D01*
X12834Y-30500D01*
X12872Y-30689D01*
X12979Y-30850D01*
X13140Y-30957D01*
X13329Y-30995D01*
X13670Y-30995D01*
X13859Y-30957D01*
X14009Y-30857D01*
X15250Y-30857D01*
X15386Y-30830D01*
X15502Y-30752D01*
X16398Y-29857D01*
X16490Y-29857D01*
X16640Y-29957D01*
X16829Y-29995D01*
X17170Y-29995D01*
X17359Y-29957D01*
X17520Y-29850D01*
X17627Y-29689D01*
X17665Y-29500D01*
X17665Y-30500D01*
X17627Y-30310D01*
X17520Y-30149D01*
X17359Y-30042D01*
X17170Y-30004D01*
X16829Y-30004D01*
X16640Y-30042D01*
X16486Y-30145D01*
X16363Y-30169D01*
X16247Y-30247D01*
X15351Y-31142D01*
X14009Y-31142D01*
X13859Y-31042D01*
X13670Y-31004D01*
X13329Y-31004D01*
X13140Y-31042D01*
X12979Y-31149D01*
X12872Y-31310D01*
X12834Y-31500D01*
X12872Y-31689D01*
X12979Y-31850D01*
X13140Y-31957D01*
X13329Y-31995D01*
X13670Y-31995D01*
X13859Y-31957D01*
X14009Y-31857D01*
X15500Y-31857D01*
X15636Y-31830D01*
X15752Y-31752D01*
X16584Y-30920D01*
X16640Y-30957D01*
X16829Y-30995D01*
X17170Y-30995D01*
X17359Y-30957D01*
X17520Y-30850D01*
X17627Y-30689D01*
X17665Y-30500D01*
X17665Y-32542D01*
X13348Y-32542D01*
X12757Y-31951D01*
X12757Y-30148D01*
X13024Y-29880D01*
X13140Y-29957D01*
X13329Y-29995D01*
X13670Y-29995D01*
X13859Y-29957D01*
X14020Y-29850D01*
X14127Y-29689D01*
X14165Y-29500D01*
X14146Y-29403D01*
X14146Y-28579D01*
X14146Y-28420D01*
X14146Y-27579D01*
X14146Y-27420D01*
X14115Y-27311D01*
X14008Y-27150D01*
X13848Y-27043D01*
X13659Y-27004D01*
X13501Y-27004D01*
X13501Y-27498D01*
X14078Y-27498D01*
X14146Y-27420D01*
X14146Y-27579D01*
X14078Y-27501D01*
X13501Y-27501D01*
X13501Y-27995D01*
X13659Y-27995D01*
X13848Y-27956D01*
X14008Y-27849D01*
X14115Y-27688D01*
X14146Y-27579D01*
X14146Y-28420D01*
X14115Y-28311D01*
X14008Y-28150D01*
X13848Y-28043D01*
X13659Y-28004D01*
X13501Y-28004D01*
X13501Y-28498D01*
X14078Y-28498D01*
X14146Y-28420D01*
X14146Y-28579D01*
X14078Y-28501D01*
X13501Y-28501D01*
X13501Y-28995D01*
X13659Y-28995D01*
X13848Y-28956D01*
X14008Y-28849D01*
X14115Y-28688D01*
X14146Y-28579D01*
X14146Y-29403D01*
X14127Y-29310D01*
X14020Y-29149D01*
X13859Y-29042D01*
X13670Y-29004D01*
X13498Y-29004D01*
X13498Y-28995D01*
X13498Y-28501D01*
X13498Y-28498D01*
X13498Y-28004D01*
X13498Y-27995D01*
X13498Y-27501D01*
X13498Y-27498D01*
X13498Y-27004D01*
X13340Y-27004D01*
X13151Y-27043D01*
X12991Y-27150D01*
X12884Y-27311D01*
X12853Y-27420D01*
X12921Y-27498D01*
X13498Y-27498D01*
X13498Y-27501D01*
X12921Y-27501D01*
X12853Y-27579D01*
X12884Y-27688D01*
X12991Y-27849D01*
X13151Y-27956D01*
X13340Y-27995D01*
X13498Y-27995D01*
X13498Y-28004D01*
X13340Y-28004D01*
X13151Y-28043D01*
X12991Y-28150D01*
X12884Y-28311D01*
X12853Y-28420D01*
X12921Y-28498D01*
X13498Y-28498D01*
X13498Y-28501D01*
X12921Y-28501D01*
X12853Y-28579D01*
X12884Y-28688D01*
X12991Y-28849D01*
X13151Y-28956D01*
X13340Y-28995D01*
X13498Y-28995D01*
X13498Y-29004D01*
X13329Y-29004D01*
X13140Y-29042D01*
X12990Y-29142D01*
X12900Y-29142D01*
X12763Y-29169D01*
X12647Y-29247D01*
X12147Y-29747D01*
X12069Y-29863D01*
X12042Y-30000D01*
X12042Y-32100D01*
X12069Y-32236D01*
X12147Y-32352D01*
X12947Y-33152D01*
X12947Y-33152D01*
X13063Y-33230D01*
X13199Y-33257D01*
X13200Y-33257D01*
X17746Y-33257D01*
X17874Y-33385D01*
X18085Y-33473D01*
X18267Y-33473D01*
X19047Y-34252D01*
X18995Y-34330D01*
X18904Y-34196D01*
X18718Y-34072D01*
X18591Y-34036D01*
X18501Y-34103D01*
X18501Y-34798D01*
X18509Y-34798D01*
X18509Y-34801D01*
X18501Y-34801D01*
X18501Y-35496D01*
X18591Y-35563D01*
X18718Y-35527D01*
X18904Y-35403D01*
X18995Y-35269D01*
X19094Y-35417D01*
X19280Y-35542D01*
X19500Y-35585D01*
X19719Y-35542D01*
X19905Y-35417D01*
X20030Y-35231D01*
X20074Y-35011D01*
X20074Y-35901D01*
X18498Y-35901D01*
X18498Y-35496D01*
X18498Y-34801D01*
X18498Y-34798D01*
X18498Y-34103D01*
X18408Y-34036D01*
X18281Y-34072D01*
X18095Y-34196D01*
X18000Y-34337D01*
X17904Y-34196D01*
X17718Y-34072D01*
X17591Y-34036D01*
X17501Y-34103D01*
X17501Y-34798D01*
X17925Y-34798D01*
X18074Y-34798D01*
X18498Y-34798D01*
X18498Y-34801D01*
X18074Y-34801D01*
X17925Y-34801D01*
X17501Y-34801D01*
X17501Y-35496D01*
X17591Y-35563D01*
X17718Y-35527D01*
X17904Y-35403D01*
X18000Y-35262D01*
X18095Y-35403D01*
X18281Y-35527D01*
X18408Y-35563D01*
X18498Y-35496D01*
X18498Y-35901D01*
X17498Y-35901D01*
X17498Y-35496D01*
X17498Y-34801D01*
X17490Y-34801D01*
X17490Y-34798D01*
X17498Y-34798D01*
X17498Y-34103D01*
X17408Y-34036D01*
X17281Y-34072D01*
X17095Y-34196D01*
X17004Y-34330D01*
X16905Y-34182D01*
X16719Y-34057D01*
X16500Y-34014D01*
X16280Y-34057D01*
X16094Y-34182D01*
X15969Y-34368D01*
X15954Y-34442D01*
X14700Y-34442D01*
X14353Y-34442D01*
X14225Y-34314D01*
X14014Y-34226D01*
X13832Y-34226D01*
X11957Y-32351D01*
X11957Y-27348D01*
X12448Y-26857D01*
X12990Y-26857D01*
X13140Y-26957D01*
X13329Y-26995D01*
X13670Y-26995D01*
X13859Y-26957D01*
X14020Y-26850D01*
X14127Y-26689D01*
X14165Y-26500D01*
X14127Y-26310D01*
X14020Y-26149D01*
X13859Y-26042D01*
X13670Y-26004D01*
X13329Y-26004D01*
X13140Y-26042D01*
X12990Y-26142D01*
X12300Y-26142D01*
X12299Y-26142D01*
X12163Y-26169D01*
X12047Y-26247D01*
X12047Y-26247D01*
X11347Y-26947D01*
X11269Y-27063D01*
X11242Y-27200D01*
X11242Y-32500D01*
X11269Y-32636D01*
X11347Y-32752D01*
X13326Y-34732D01*
X13326Y-34913D01*
X13413Y-35124D01*
X13574Y-35285D01*
X13785Y-35373D01*
X14013Y-35373D01*
X14224Y-35286D01*
X14353Y-35157D01*
X14700Y-35157D01*
X15954Y-35157D01*
X15969Y-35231D01*
X16094Y-35417D01*
X16280Y-35542D01*
X16500Y-35585D01*
X16719Y-35542D01*
X16905Y-35417D01*
X17004Y-35269D01*
X17095Y-35403D01*
X17281Y-35527D01*
X17408Y-35563D01*
X17498Y-35496D01*
X17498Y-35901D01*
X12477Y-35901D01*
X12477Y-34706D01*
X12397Y-34493D01*
X12373Y-34457D01*
X12261Y-34440D01*
X12259Y-34442D01*
X12259Y-34438D01*
X12242Y-34326D01*
X12034Y-34231D01*
X11806Y-34222D01*
X11593Y-34302D01*
X11557Y-34326D01*
X11540Y-34438D01*
X11900Y-34797D01*
X12259Y-34438D01*
X12259Y-34442D01*
X11902Y-34800D01*
X12261Y-35159D01*
X12373Y-35142D01*
X12468Y-34934D01*
X12477Y-34706D01*
X12477Y-35901D01*
X12259Y-35901D01*
X12259Y-35161D01*
X11900Y-34802D01*
X11897Y-34804D01*
X11897Y-34800D01*
X11538Y-34440D01*
X11426Y-34457D01*
X11331Y-34665D01*
X11322Y-34893D01*
X11402Y-35106D01*
X11426Y-35142D01*
X11538Y-35159D01*
X11897Y-34800D01*
X11897Y-34804D01*
X11540Y-35161D01*
X11557Y-35273D01*
X11765Y-35368D01*
X11993Y-35377D01*
X12206Y-35297D01*
X12242Y-35273D01*
X12259Y-35161D01*
X12259Y-35901D01*
X9811Y-35901D01*
X9811Y-34811D01*
X9811Y-34750D01*
X9811Y-34688D01*
X9811Y-34687D01*
X9811Y-34687D01*
X9811Y-34687D01*
X9773Y-34496D01*
X9726Y-34382D01*
X9725Y-34381D01*
X9618Y-34220D01*
X9617Y-34219D01*
X9530Y-34131D01*
X9368Y-34023D01*
X9367Y-34023D01*
X9253Y-33975D01*
X9109Y-33947D01*
X9109Y-32111D01*
X8750Y-31752D01*
X8747Y-31754D01*
X8747Y-31750D01*
X8388Y-31390D01*
X8276Y-31407D01*
X8181Y-31615D01*
X8172Y-31843D01*
X8252Y-32056D01*
X8276Y-32092D01*
X8388Y-32109D01*
X8747Y-31750D01*
X8747Y-31754D01*
X8390Y-32111D01*
X8407Y-32223D01*
X8615Y-32318D01*
X8843Y-32327D01*
X9056Y-32247D01*
X9092Y-32223D01*
X9109Y-32111D01*
X9109Y-33947D01*
X9061Y-33937D01*
X8937Y-33938D01*
X8936Y-33938D01*
X8746Y-33976D01*
X8632Y-34023D01*
X8631Y-34024D01*
X8470Y-34131D01*
X8469Y-34132D01*
X8381Y-34219D01*
X8273Y-34381D01*
X8273Y-34382D01*
X8225Y-34496D01*
X8187Y-34688D01*
X8188Y-34750D01*
X8187Y-34811D01*
X8225Y-35003D01*
X8273Y-35117D01*
X8273Y-35118D01*
X8381Y-35280D01*
X8469Y-35367D01*
X8470Y-35368D01*
X8631Y-35475D01*
X8632Y-35476D01*
X8746Y-35523D01*
X8936Y-35561D01*
X8937Y-35561D01*
X9061Y-35562D01*
X9253Y-35524D01*
X9367Y-35476D01*
X9368Y-35476D01*
X9530Y-35368D01*
X9617Y-35280D01*
X9618Y-35279D01*
X9725Y-35118D01*
X9726Y-35117D01*
X9773Y-35003D01*
X9811Y-34812D01*
X9811Y-34812D01*
X9811Y-34812D01*
X9811Y-34811D01*
X9811Y-35901D01*
X7848Y-35901D01*
X7848Y-7098D01*
X26901Y-7098D01*
X26901Y-35901D01*
M02*
