G04 (created by PCBNEW (2013-may-18)-stable) date Mon 16 Nov 2015 09:23:58 AM EET*
%MOIN*%
G04 Gerber Fmt 3.4, Leading zero omitted, Abs format*
%FSLAX34Y34*%
G01*
G70*
G90*
G04 APERTURE LIST*
%ADD10C,0.00590551*%
%ADD11C,0.00393701*%
%ADD12O,0.0590551X0.106299*%
%ADD13C,0.06*%
%ADD14O,0.0551181X0.0944882*%
%ADD15C,0.055*%
%ADD16O,0.0708661X0.0393701*%
%ADD17C,0.066*%
%ADD18R,0.055X0.055*%
%ADD19O,0.0944882X0.0551181*%
%ADD20C,0.1*%
%ADD21R,0.1X0.1*%
G04 APERTURE END LIST*
G54D10*
G54D11*
X26250Y-8250D02*
G75*
G03X26250Y-8250I-500J0D01*
G74*
G01*
X9500Y-34750D02*
G75*
G03X9500Y-34750I-500J0D01*
G74*
G01*
X9500Y-8200D02*
G75*
G03X9500Y-8200I-500J0D01*
G74*
G01*
X26250Y-34750D02*
G75*
G03X26250Y-34750I-500J0D01*
G74*
G01*
G54D12*
X18200Y-8400D03*
X17200Y-8400D03*
X16200Y-8400D03*
G54D13*
X24750Y-20500D03*
X24750Y-24500D03*
X25000Y-18500D03*
X21000Y-18500D03*
X15500Y-19500D03*
X15500Y-23500D03*
X23250Y-24500D03*
X23250Y-20500D03*
X21000Y-17500D03*
X25000Y-17500D03*
G54D14*
X21750Y-30500D03*
X23750Y-30500D03*
X24750Y-30500D03*
X11500Y-17750D03*
X12500Y-17750D03*
X13500Y-17750D03*
X10500Y-21000D03*
X11500Y-21000D03*
X12500Y-21000D03*
G54D15*
X15500Y-26500D03*
X15500Y-24500D03*
X20200Y-32900D03*
X18200Y-32900D03*
X13900Y-34800D03*
X11900Y-34800D03*
G54D16*
X10500Y-24500D03*
X10500Y-25500D03*
X10500Y-26500D03*
X10500Y-27500D03*
X10500Y-28500D03*
X10500Y-29500D03*
X10500Y-30500D03*
X10500Y-31500D03*
X13500Y-31500D03*
X13500Y-30500D03*
X13500Y-29500D03*
X13500Y-28500D03*
X13500Y-27500D03*
X13500Y-26500D03*
X13500Y-25500D03*
X13500Y-24500D03*
X17000Y-18500D03*
X17000Y-19500D03*
X17000Y-20500D03*
X17000Y-21500D03*
X17000Y-22500D03*
X17000Y-23500D03*
X17000Y-24500D03*
X17000Y-25500D03*
X17000Y-26500D03*
X17000Y-27500D03*
X17000Y-28500D03*
X17000Y-29500D03*
X17000Y-30500D03*
X17000Y-17500D03*
X20000Y-30500D03*
X20000Y-29500D03*
X20000Y-28500D03*
X20000Y-27500D03*
X20000Y-26500D03*
X20000Y-25500D03*
X20000Y-24500D03*
X20000Y-23500D03*
X20000Y-22500D03*
X20000Y-21500D03*
X20000Y-20500D03*
X20000Y-19500D03*
X20000Y-18500D03*
X20000Y-17500D03*
G54D13*
X23000Y-8000D03*
X23000Y-12000D03*
X21750Y-8000D03*
X21750Y-12000D03*
G54D17*
X24500Y-10500D03*
X24500Y-12000D03*
G54D18*
X11300Y-8400D03*
G54D15*
X11300Y-11400D03*
G54D18*
X14750Y-8000D03*
G54D15*
X19750Y-8000D03*
X23750Y-13250D03*
X21750Y-13250D03*
X17000Y-10250D03*
X15000Y-10250D03*
X15750Y-11500D03*
X17750Y-11500D03*
G54D18*
X19750Y-11000D03*
G54D15*
X19750Y-12000D03*
G54D18*
X16500Y-14000D03*
G54D15*
X16500Y-13000D03*
G54D18*
X13250Y-10250D03*
G54D15*
X13250Y-11250D03*
G54D18*
X8750Y-30750D03*
G54D15*
X8750Y-31750D03*
G54D18*
X23750Y-28500D03*
G54D15*
X24750Y-28500D03*
X12500Y-22500D03*
X10500Y-22500D03*
X21750Y-24500D03*
X21750Y-22500D03*
G54D14*
X10500Y-19500D03*
X11500Y-19500D03*
X12500Y-19500D03*
X26000Y-15500D03*
X25000Y-15500D03*
X24000Y-15500D03*
X23000Y-15500D03*
X18000Y-15200D03*
X19000Y-15200D03*
X20000Y-15200D03*
G54D19*
X11900Y-14000D03*
X11900Y-15000D03*
G54D20*
X9000Y-13000D03*
G54D21*
X9000Y-11000D03*
G54D14*
X16500Y-34800D03*
X17500Y-34800D03*
X18500Y-34800D03*
X19500Y-34800D03*
G54D20*
X9000Y-15250D03*
G54D21*
X9000Y-17250D03*
G54D19*
X13500Y-14000D03*
X13500Y-15000D03*
M02*
