<?xml version="1.0" standalone="no"?>
 <!DOCTYPE svg PUBLIC "-//W3C//DTD SVG 1.1//EN" 
 "http://www.w3.org/Graphics/SVG/1.1/DTD/svg11.dtd"> 
<svg xmlns="http://www.w3.org/2000/svg" version="1.1" 
    width="41.9989cm" height="29.7002cm" viewBox="0 0 165350 116930 ">
<title>SVG Picture created as i2c_conn-F_SilkS.svg date 2015/10/17 23:12:25 </title>
  <desc>Picture generated by PCBNEW </desc>
<g style="fill:#000000; fill-opacity:1;stroke:#000000; stroke-opacity:1;
stroke-linecap:round; stroke-linejoin:round; "
 transform="translate(0 0) scale(1 1)">
</g>
<g style="fill:#000000; fill-opacity:0.0; 
stroke:#000000; stroke-width:59.0551; stroke-opacity:1; 
stroke-linecap:round; stroke-linejoin:round;">
<path d="M66650 32000
L66900 32000
" />
<path d="M62150 32000
L61500 32000
" />
<circle cx="62100" cy="32000" r="600" /> 
<circle cx="66300" cy="32000" r="600" /> 
<path d="M62150 32000
L66650 32000
" />
</g>
<g style="fill:#000000; fill-opacity:0.0; 
stroke:#000000; stroke-width:150; stroke-opacity:1; 
stroke-linecap:round; stroke-linejoin:round;">
<path d="M61550 35800
L61550 30600
" />
<path d="M66850 35800
L66850 30600
" />
<path d="M61550 30600
L66850 30600
" />
<path d="M66550 35800
L66850 35800
" />
<path d="M61550 35800
L66550 35800
" />
</g>
<g style="fill:#000000; fill-opacity:0.0; 
stroke:#000000; stroke-width:60; stroke-opacity:1; 
stroke-linecap:round; stroke-linejoin:round;">
<path d="M64950 37350
L64950 36350
" />
<path d="M64950 36350
L66950 36350
" />
<path d="M66950 36350
L66950 37350
" />
<path d="M66950 37350
L64950 37350
" />
<path d="M64950 37350
L64950 38350
" />
<path d="M64950 38350
L62950 38350
" />
<path d="M62950 38350
L62950 37350
" />
<path d="M62950 37350
L64950 37350
" />
<path d="M64950 38350
L64950 37350
" />
<path d="M64950 37350
L66950 37350
" />
<path d="M66950 37350
L66950 38350
" />
<path d="M66950 38350
L64950 38350
" />
<path d="M64950 36350
L64950 37350
" />
<path d="M64950 37350
L62950 37350
" />
<path d="M62950 37350
L62950 36350
" />
<path d="M62950 36350
L64950 36350
" />
</g>
<g style="fill:#000000; fill-opacity:0.0; 
stroke:#000000; stroke-width:120; stroke-opacity:1; 
stroke-linecap:round; stroke-linejoin:round;">
<path d="M64050 32142
L64050 32571
L64021 32657
L63964 32714
L63878 32742
L63821 32742
" />
<path d="M64650 32742
L64307 32742
" />
<path d="M64478 32742
L64478 32142
L64421 32228
L64364 32285
L64307 32314
" />
<path d="M67992 33864
L67707 34064
" />
<path d="M67992 34207
L67392 34207
L67392 33978
L67421 33921
L67450 33892
L67507 33864
L67592 33864
L67650 33892
L67678 33921
L67707 33978
L67707 34207
" />
<path d="M67392 33435
L67821 33435
L67907 33464
L67964 33521
L67992 33607
L67992 33664
" />
<path d="M67992 32835
L67992 33178
" />
<path d="M67992 33007
L67392 33007
L67478 33064
L67535 33121
L67564 33178
" />
<path d="M67450 32607
L67421 32578
L67392 32521
L67392 32378
L67421 32321
L67450 32292
L67507 32264
L67564 32264
L67650 32292
L67992 32635
L67992 32264
" />
</g>
<g style="fill:#000000; fill-opacity:0.0; 
stroke:#000000; stroke-width:60; stroke-opacity:1; 
stroke-linecap:round; stroke-linejoin:round;">
<path d="M65728 36221
L65728 35921
L65842 35921
L65871 35935
L65885 35950
L65900 35978
L65900 36021
L65885 36050
L65871 36064
L65842 36078
L65728 36078
" />
<path d="M66185 36221
L66014 36221
" />
<path d="M66100 36221
L66100 35921
L66071 35964
L66042 35992
L66014 36007
" />
<path d="M63728 38721
L63728 38421
L63842 38421
L63871 38435
L63885 38450
L63900 38478
L63900 38521
L63885 38550
L63871 38564
L63842 38578
L63728 38578
" />
<path d="M64014 38450
L64028 38435
L64057 38421
L64128 38421
L64157 38435
L64171 38450
L64185 38478
L64185 38507
L64171 38550
L64000 38721
L64185 38721
" />
<path d="M65728 37221
L65728 36921
L65842 36921
L65871 36935
L65885 36950
L65900 36978
L65900 37021
L65885 37050
L65871 37064
L65842 37078
L65728 37078
" />
<path d="M66000 36921
L66185 36921
L66085 37035
L66128 37035
L66157 37050
L66171 37064
L66185 37092
L66185 37164
L66171 37192
L66157 37207
L66128 37221
L66042 37221
L66014 37207
L66000 37192
" />
<path d="M63728 37721
L63728 37421
L63842 37421
L63871 37435
L63885 37450
L63900 37478
L63900 37521
L63885 37550
L63871 37564
L63842 37578
L63728 37578
" />
<path d="M64157 37521
L64157 37721
" />
<path d="M64085 37407
L64014 37621
L64200 37621
" />
</g> 
</svg>
