<?xml version="1.0" standalone="no"?>
 <!DOCTYPE svg PUBLIC "-//W3C//DTD SVG 1.1//EN" 
 "http://www.w3.org/Graphics/SVG/1.1/DTD/svg11.dtd"> 
<svg xmlns="http://www.w3.org/2000/svg" version="1.1" 
    width="21.0007cm" height="29.7002cm" viewBox="0 0 82680 116930 ">
<title>SVG Picture created as power_split-F_Mask.svg date 2015/08/05 17:27:13 </title>
  <desc>Picture generated by PCBNEW </desc>
<g style="fill:#000000; fill-opacity:1;stroke:#000000; stroke-opacity:1;
stroke-linecap:round; stroke-linejoin:round; "
 transform="translate(0 0) scale(1 1)">
</g>
<g style="fill:#000000; fill-opacity:1.0; 
stroke:#000000; stroke-width:59.0551; stroke-opacity:1; 
stroke-linecap:round; stroke-linejoin:round;">
<polyline style="fill-rule:evenodd;"
points="18579,62197
18577,62318
18550,62437
18508,62533
18437,62633
18361,62705
18258,62771
18160,62809
18040,62830
17935,62828
17815,62802
17720,62760
17619,62690
17546,62615
17480,62511
17441,62415
17419,62293
17421,62190
17446,62069
17487,61974
17557,61871
17631,61799
17735,61731
17830,61693
17952,61669
18055,61670
18177,61695
18272,61735
18375,61805
18447,61877
18516,61981
18555,62076
18579,62197
" /> 
<polyline style="fill-rule:evenodd;"
points="18579,64197
18577,64318
18550,64437
18508,64533
18437,64633
18361,64705
18258,64771
18160,64809
18040,64830
17935,64828
17815,64802
17720,64760
17619,64690
17546,64615
17480,64511
17441,64415
17419,64293
17421,64190
17446,64069
17487,63974
17557,63871
17631,63799
17735,63731
17830,63693
17952,63669
18055,63670
18177,63695
18272,63735
18375,63805
18447,63877
18516,63981
18555,64076
18579,64197
" /> 
<polyline style="fill-rule:evenodd;"
points="18579,66197
18577,66318
18550,66437
18508,66533
18437,66633
18361,66705
18258,66771
18160,66809
18040,66830
17935,66828
17815,66802
17720,66760
17619,66690
17546,66615
17480,66511
17441,66415
17419,66293
17421,66190
17446,66069
17487,65974
17557,65871
17631,65799
17735,65731
17830,65693
17952,65669
18055,65670
18177,65695
18272,65735
18375,65805
18447,65877
18516,65981
18555,66076
18579,66197
" /> 
<polyline style="fill-rule:evenodd;"
points="20629,59217
20628,59293
20610,59374
20583,59434
20535,59502
20488,59547
20417,59592
20356,59615
20274,59630
20209,59628
20127,59610
20068,59584
19999,59537
19954,59490
19908,59419
19885,59359
19869,59276
19870,59212
19888,59129
19913,59070
19961,59001
20007,58956
20078,58909
20137,58885
20220,58869
20284,58870
20367,58887
20426,58912
20497,58959
20541,59004
20589,59076
20613,59134
20629,59217
" /> 
<polyline style="fill-rule:evenodd;"
points="22672,63252
22664,63333
22640,63409
22601,63481
22550,63543
22488,63594
22417,63632
22339,63655
22247,63664
21752,63664
21745,63664
21735,63663
21735,63663
21654,63654
21654,63654
21653,63654
21578,63630
21506,63590
21445,63539
21394,63475
21357,63405
21334,63327
21327,63247
21335,63166
21359,63090
21398,63018
21449,62956
21511,62905
21582,62867
21660,62844
21752,62835
22247,62835
22254,62835
22264,62836
22264,62836
22345,62845
22345,62845
22346,62845
22421,62869
22493,62909
22554,62960
22605,63024
22642,63094
22665,63172
22672,63252
" /> 
<polyline style="fill-rule:evenodd;"
points="22672,64752
22664,64833
22640,64909
22601,64981
22550,65043
22488,65094
22417,65132
22339,65155
22247,65164
21752,65164
21745,65164
21735,65163
21735,65163
21654,65154
21654,65154
21653,65154
21578,65130
21506,65090
21445,65039
21394,64975
21357,64905
21334,64827
21327,64747
21335,64666
21359,64590
21398,64518
21449,64456
21511,64405
21582,64367
21660,64344
21752,64335
22247,64335
22254,64335
22264,64336
22264,64336
22345,64345
22345,64345
22346,64345
22421,64369
22493,64409
22554,64460
22605,64524
22642,64594
22665,64672
22672,64752
" /> 
<polyline style="fill-rule:evenodd;"
points="22672,66252
22664,66333
22640,66409
22601,66481
22550,66543
22488,66594
22417,66632
22339,66655
22247,66664
21752,66664
21745,66664
21735,66663
21735,66663
21654,66654
21654,66654
21653,66654
21578,66630
21506,66590
21445,66539
21394,66475
21357,66405
21334,66327
21327,66247
21335,66166
21359,66090
21398,66018
21449,65956
21511,65905
21582,65867
21660,65844
21752,65835
22247,65835
22254,65835
22264,65836
22264,65836
22345,65845
22345,65845
22346,65845
22421,65869
22493,65909
22554,65960
22605,66024
22642,66094
22665,66172
22672,66252
" /> 
<polyline style="fill-rule:evenodd;"
points="23424,60462
23422,60549
23402,60638
23372,60706
23319,60781
23265,60832
23187,60882
23118,60908
23028,60924
22954,60923
22863,60903
22796,60873
22720,60821
22669,60768
22619,60690
22592,60622
22575,60530
22576,60457
22595,60366
22624,60299
22677,60222
22729,60171
22807,60120
22874,60093
22966,60075
23039,60075
23131,60094
23197,60122
23275,60175
23326,60226
23378,60305
23406,60371
23424,60462
" /> 
<polyline style="fill-rule:evenodd;"
points="24379,63217
24378,63293
24360,63374
24333,63434
24285,63502
24238,63547
24167,63592
24106,63615
24024,63630
23959,63628
23877,63610
23818,63584
23749,63537
23704,63490
23658,63419
23635,63359
23619,63276
23620,63212
23638,63129
23663,63070
23711,63001
23757,62956
23828,62909
23887,62885
23970,62869
24034,62870
24117,62887
24176,62912
24247,62959
24291,63004
24339,63076
24363,63134
24379,63217
" /> 
<polyline style="fill-rule:evenodd;"
points="24379,67217
24378,67293
24360,67374
24333,67434
24285,67502
24238,67547
24167,67592
24106,67615
24024,67630
23959,67628
23877,67610
23818,67584
23749,67537
23704,67490
23658,67419
23635,67359
23619,67276
23620,67212
23638,67129
23663,67070
23711,67001
23757,66956
23828,66909
23887,66885
23970,66869
24034,66870
24117,66887
24176,66912
24247,66959
24291,67004
24339,67076
24363,67134
24379,67217
" /> 
<polyline style="fill-rule:evenodd;"
points="24629,59217
24628,59293
24610,59374
24583,59434
24535,59502
24488,59547
24417,59592
24356,59615
24274,59630
24209,59628
24127,59610
24068,59584
23999,59537
23954,59490
23908,59419
23885,59359
23869,59276
23870,59212
23888,59129
23913,59070
23961,59001
24007,58956
24078,58909
24137,58885
24220,58869
24284,58870
24367,58887
24426,58912
24497,58959
24541,59004
24589,59076
24613,59134
24629,59217
" /> 
<polyline style="fill-rule:evenodd;"
points="24674,61462
24672,61549
24652,61638
24622,61706
24569,61781
24515,61832
24437,61882
24368,61908
24278,61924
24204,61923
24113,61903
24046,61873
23970,61821
23919,61768
23869,61690
23842,61622
23825,61530
23826,61457
23845,61366
23874,61299
23927,61222
23979,61171
24057,61120
24124,61093
24216,61075
24289,61075
24381,61094
24447,61122
24525,61175
24576,61226
24628,61305
24656,61371
24674,61462
" /> 
<polyline style="fill-rule:evenodd;"
points="25924,60462
25922,60549
25902,60638
25872,60706
25819,60781
25765,60832
25687,60882
25618,60908
25528,60924
25454,60923
25363,60903
25296,60873
25220,60821
25169,60768
25119,60690
25092,60622
25075,60530
25076,60457
25095,60366
25124,60299
25177,60222
25229,60171
25307,60120
25374,60093
25466,60075
25539,60075
25631,60094
25697,60122
25775,60175
25826,60226
25878,60305
25906,60371
25924,60462
" /> 
<polyline style="fill-rule:evenodd;"
points="26379,64467
26378,64543
26360,64624
26333,64684
26285,64752
26238,64797
26167,64842
26106,64865
26024,64880
25959,64878
25877,64860
25818,64834
25749,64787
25704,64740
25658,64669
25635,64609
25619,64526
25620,64462
25638,64379
25663,64320
25711,64251
25757,64206
25828,64159
25887,64135
25970,64119
26034,64120
26117,64137
26176,64162
26247,64209
26291,64254
26339,64326
26363,64384
26379,64467
" /> 
<polyline style="fill-rule:evenodd;"
points="26379,68467
26378,68543
26360,68624
26333,68684
26285,68752
26238,68797
26167,68842
26106,68865
26024,68880
25959,68878
25877,68860
25818,68834
25749,68787
25704,68740
25658,68669
25635,68609
25619,68526
25620,68462
25638,68379
25663,68320
25711,68251
25757,68206
25828,68159
25887,68135
25970,68119
26034,68120
26117,68137
26176,68162
26247,68209
26291,68254
26339,68326
26363,68384
26379,68467
" /> 
<polyline style="fill-rule:evenodd;"
points="28104,68854
27395,68854
27395,68145
28104,68145
28104,68854
" /> 
<polyline style="fill-rule:evenodd;"
points="30104,68469
30103,68540
30086,68616
30061,68672
30016,68735
29972,68777
29906,68819
29850,68841
29772,68855
29712,68853
29635,68837
29580,68812
29515,68767
29474,68724
29431,68658
29409,68602
29394,68524
29395,68465
29412,68387
29435,68332
29480,68267
29522,68225
29589,68182
29644,68160
29723,68144
29781,68145
29860,68161
29914,68184
29981,68229
30022,68270
30067,68337
30089,68391
30104,68469
" /> 
<polyline style="fill-rule:evenodd;"
points="30223,60231
30221,60329
30199,60427
30165,60504
30106,60587
30045,60645
29960,60699
29882,60730
29781,60747
29698,60746
29598,60724
29522,60690
29438,60632
29380,60572
29325,60486
29294,60409
29276,60308
29277,60225
29298,60125
29331,60049
29389,59964
29448,59906
29534,59849
29610,59819
29712,59799
29794,59800
29895,59821
29971,59852
30057,59910
30114,59968
30172,60055
30203,60130
30223,60231
" /> 
<polyline style="fill-rule:evenodd;"
points="30223,63699
29276,63699
29276,62752
30223,62752
30223,63699
" /> 
<polyline style="fill-rule:evenodd;"
points="35329,63829
34170,63829
34170,62670
35329,62670
35329,63829
" /> 
<polyline style="fill-rule:evenodd;"
points="35329,67079
34170,67079
34170,65920
35329,65920
35329,67079
" /> 
<polyline style="fill-rule:evenodd;"
points="37329,63197
37327,63318
37300,63437
37258,63533
37187,63633
37111,63705
37008,63771
36910,63809
36790,63830
36685,63828
36565,63802
36470,63760
36369,63690
36296,63615
36230,63511
36191,63415
36169,63293
36171,63190
36196,63069
36237,62974
36307,62871
36381,62799
36485,62731
36580,62693
36702,62669
36805,62670
36927,62695
37022,62735
37125,62805
37197,62877
37266,62981
37305,63076
37329,63197
" /> 
<polyline style="fill-rule:evenodd;"
points="37329,66447
37327,66568
37300,66687
37258,66783
37187,66883
37111,66955
37008,67021
36910,67059
36790,67080
36685,67078
36565,67052
36470,67010
36369,66940
36296,66865
36230,66761
36191,66665
36169,66543
36171,66440
36196,66319
36237,66224
36307,66121
36381,66049
36485,65981
36580,65943
36702,65919
36805,65920
36927,65945
37022,65985
37125,66055
37197,66127
37266,66231
37305,66326
37329,66447
" /> 
</g> 
</svg>
