<?xml version="1.0" standalone="no"?>
 <!DOCTYPE svg PUBLIC "-//W3C//DTD SVG 1.1//EN" 
 "http://www.w3.org/Graphics/SVG/1.1/DTD/svg11.dtd"> 
<svg xmlns="http://www.w3.org/2000/svg" version="1.1" 
    width="21.0007cm" height="29.7002cm" viewBox="0 0 82680 116930 ">
<title>SVG Picture created as power_split-F_SilkS.svg date 2015/08/05 17:27:13 </title>
  <desc>Picture generated by PCBNEW </desc>
<g style="fill:#000000; fill-opacity:1;stroke:#000000; stroke-opacity:1;
stroke-linecap:round; stroke-linejoin:round; "
 transform="translate(0 0) scale(1 1)">
</g>
<g style="fill:#000000; fill-opacity:0.0; 
stroke:#000000; stroke-width:59.0551; stroke-opacity:1; 
stroke-linecap:round; stroke-linejoin:round;">
<path d="M21173 62860
L21173 66757
" />
<path d="M21173 66757
L23062 66757
" />
<path d="M23062 66757
L23062 62781
" />
<path d="M23062 62781
L21173 62781
" />
<path d="M21173 62781
L21173 62860
" />
</g>
<g style="fill:#000000; fill-opacity:0.0; 
stroke:#000000; stroke-width:120; stroke-opacity:1; 
stroke-linecap:round; stroke-linejoin:round;">
<path d="M26000 64500
L26000 64900
" />
<path d="M26000 64900
L26400 64900
" />
<path d="M26400 64900
L26400 68100
" />
<path d="M26400 68100
L25600 68100
" />
<path d="M25600 68100
L25600 64900
" />
<path d="M25600 64900
L26000 64900
" />
<path d="M26200 64900
L26400 65100
" />
<path d="M26000 68500
L26000 68100
" />
<path d="M24000 67250
L24000 66850
" />
<path d="M24000 66850
L23600 66850
" />
<path d="M23600 66850
L23600 63650
" />
<path d="M23600 63650
L24400 63650
" />
<path d="M24400 63650
L24400 66850
" />
<path d="M24400 66850
L24000 66850
" />
<path d="M23800 66850
L23600 66650
" />
<path d="M24000 63250
L24000 63650
" />
<path d="M20250 59250
L20650 59250
" />
<path d="M20650 59250
L20650 58850
" />
<path d="M20650 58850
L23850 58850
" />
<path d="M23850 58850
L23850 59650
" />
<path d="M23850 59650
L20650 59650
" />
<path d="M20650 59650
L20650 59250
" />
<path d="M20650 59050
L20850 58850
" />
<path d="M24250 59250
L23850 59250
" />
<path d="M37750 67500
L33750 67500
" />
<path d="M37750 68000
L37750 65000
" />
<path d="M37750 65000
L33750 65000
" />
<path d="M33750 65000
L33750 68000
" />
<path d="M33750 68000
L37750 68000
" />
<path d="M19500 67250
L16500 67250
" />
<path d="M19500 61250
L16500 61250
" />
<path d="M19000 67250
L19000 61250
" />
<path d="M16500 67250
L16500 61250
" />
<path d="M19500 67250
L19500 61250
" />
<path d="M37750 64250
L33750 64250
" />
<path d="M37750 64750
L37750 61750
" />
<path d="M37750 61750
L33750 61750
" />
<path d="M33750 61750
L33750 64750
" />
<path d="M33750 64750
L37750 64750
" />
<circle cx="28750" cy="68500" r="1000" /> 
<path d="M29750 68250
L29500 68250
" />
<path d="M29500 68250
L29500 68750
" />
<path d="M29500 68750
L29750 68750
" />
</g>
<g style="fill:#000000; fill-opacity:0.0; 
stroke:#000000; stroke-width:150; stroke-opacity:1; 
stroke-linecap:round; stroke-linejoin:round;">
<path d="M23250 60750
L25250 60750
" />
<path d="M23250 60750
L23500 60250
" />
<path d="M23500 60250
L25000 60250
" />
<path d="M25000 60250
L25250 60750
" />
<path d="M23250 60750 A1000 1000 0.0 0 0 24250 61750 " />
<path d="M24250 61750 A1000 1000 0.0 0 0 25250 60750 " />
</g>
<g style="fill:#000000; fill-opacity:0.0; 
stroke:#000000; stroke-width:120; stroke-opacity:1; 
stroke-linecap:round; stroke-linejoin:round;">
<path d="M31285 58875
L28214 58875
" />
<path d="M28411 58797
L31088 58797
" />
<path d="M30931 58718
L28608 58718
" />
<path d="M28805 58639
L30694 58639
" />
<path d="M29080 58561
L30419 58561
" />
<circle cx="29750" cy="61750" r="3267.72" /> 
</g>
<g style="fill:#000000; fill-opacity:0.0; 
stroke:#000000; stroke-width:196.85; stroke-opacity:1; 
stroke-linecap:round; stroke-linejoin:round;">
<path d="M29356 59387
L30143 59387
" />
</g>
<g style="fill:#000000; fill-opacity:0.0; 
stroke:#000000; stroke-width:80; stroke-opacity:1; 
stroke-linecap:round; stroke-linejoin:round;">
<path d="M22300 62038
L22271 62076
L22214 62114
L22128 62171
L22100 62209
L22100 62247
" />
<path d="M22242 62228
L22214 62266
L22157 62304
L22042 62323
L21842 62323
L21728 62304
L21671 62266
L21642 62228
L21642 62152
L21671 62114
L21728 62076
L21842 62057
L22042 62057
L22157 62076
L22214 62114
L22242 62152
L22242 62228
" />
<path d="M21700 61904
L21671 61885
L21642 61847
L21642 61752
L21671 61714
L21700 61695
L21757 61676
L21814 61676
L21900 61695
L22242 61923
L22242 61676
" />
<path d="M20992 66133
L20392 66133
" />
<path d="M20992 65714
L20707 65847
" />
<path d="M20992 65942
L20392 65942
L20392 65790
L20421 65752
L20450 65733
L20507 65714
L20592 65714
L20650 65733
L20678 65752
L20707 65790
L20707 65942
" />
<path d="M20678 65409
L20678 65542
" />
<path d="M20992 65542
L20392 65542
L20392 65352
" />
<path d="M20592 65028
L20992 65028
" />
<path d="M20364 65123
L20792 65219
L20792 64971
" />
<path d="M20992 64799
L20992 64723
L20964 64685
L20935 64666
L20850 64628
L20735 64609
L20507 64609
L20450 64628
L20421 64647
L20392 64685
L20392 64761
L20421 64799
L20450 64819
L20507 64838
L20650 64838
L20707 64819
L20735 64799
L20764 64761
L20764 64685
L20735 64647
L20707 64628
L20650 64609
" />
<path d="M20392 64361
L20392 64323
L20421 64285
L20450 64266
L20507 64247
L20621 64228
L20764 64228
L20878 64247
L20935 64266
L20964 64285
L20992 64323
L20992 64361
L20964 64399
L20935 64419
L20878 64438
L20764 64457
L20621 64457
L20507 64438
L20450 64419
L20421 64399
L20392 64361
" />
<path d="M20392 63866
L20392 64057
L20678 64076
L20650 64057
L20621 64019
L20621 63923
L20650 63885
L20678 63866
L20735 63847
L20878 63847
L20935 63866
L20964 63885
L20992 63923
L20992 64019
L20964 64057
L20935 64076
" />
<path d="M30166 60472
L30000 60210
" />
<path d="M29880 60472
L29880 59922
L30071 59922
L30119 59948
L30142 59975
L30166 60027
L30166 60105
L30142 60158
L30119 60184
L30071 60210
L29880 60210
" />
<path d="M30642 60472
L30357 60472
" />
<path d="M30500 60472
L30500 59922
L30452 60001
L30404 60053
L30357 60079
" />
<path d="M24222 66083
L23960 66250
" />
<path d="M24222 66369
L23672 66369
L23672 66178
L23698 66130
L23725 66107
L23777 66083
L23855 66083
L23908 66107
L23934 66130
L23960 66178
L23960 66369
" />
<path d="M23672 65916
L23672 65607
L23882 65773
L23882 65702
L23908 65654
L23934 65630
L23986 65607
L24117 65607
L24170 65630
L24196 65654
L24222 65702
L24222 65845
L24196 65892
L24170 65916
" />
<path d="M22972 59333
L22710 59500
" />
<path d="M22972 59619
L22422 59619
L22422 59428
L22448 59380
L22475 59357
L22527 59333
L22605 59333
L22658 59357
L22684 59380
L22710 59428
L22710 59619
" />
<path d="M22475 59142
L22448 59119
L22422 59071
L22422 58952
L22448 58904
L22475 58880
L22527 58857
L22579 58857
L22658 58880
L22972 59166
L22972 58857
" />
</g>
<g style="fill:#000000; fill-opacity:0.0; 
stroke:#000000; stroke-width:120; stroke-opacity:1; 
stroke-linecap:round; stroke-linejoin:round;">
<path d="M34407 69742
L34064 69742
" />
<path d="M34235 69742
L34235 69142
L34178 69228
L34121 69285
L34064 69314
" />
<path d="M34635 69200
L34664 69171
L34721 69142
L34864 69142
L34921 69171
L34950 69200
L34978 69257
L34978 69314
L34950 69400
L34607 69742
L34978 69742
" />
<path d="M35150 69142
L35350 69742
L35550 69142
" />
<path d="M35607 69800
L36064 69800
" />
<path d="M36207 69742
L36207 69142
" />
<path d="M36492 69742
L36492 69142
L36835 69742
L36835 69142
" />
<path d="M37435 69742
L37092 69742
" />
<path d="M37264 69742
L37264 69142
L37207 69228
L37150 69285
L37092 69314
" />
<path d="M34478 68685
L34450 68714
L34364 68742
L34307 68742
L34221 68714
L34164 68657
L34135 68600
L34107 68485
L34107 68400
L34135 68285
L34164 68228
L34221 68171
L34307 68142
L34364 68142
L34450 68171
L34478 68200
" />
<path d="M34850 68142
L34964 68142
L35021 68171
L35078 68228
L35107 68342
L35107 68542
L35078 68657
L35021 68714
L34964 68742
L34850 68742
L34792 68714
L34735 68657
L34707 68542
L34707 68342
L34735 68228
L34792 68171
L34850 68142
" />
<path d="M35364 68742
L35364 68142
L35707 68742
L35707 68142
" />
<path d="M35992 68742
L35992 68142
L36335 68742
L36335 68142
" />
<path d="M36478 68800
L36935 68800
" />
<path d="M37050 68200
L37078 68171
L37135 68142
L37278 68142
L37335 68171
L37364 68200
L37392 68257
L37392 68314
L37364 68400
L37021 68742
L37392 68742
" />
<path d="M16242 64692
L15642 64692
" />
<path d="M16242 64350
L15900 64607
" />
<path d="M15642 64350
L15985 64692
" />
<path d="M16242 63778
L16242 64121
" />
<path d="M16242 63950
L15642 63950
L15728 64007
L15785 64064
L15814 64121
" />
<path d="M20185 65521
L20214 65549
L20242 65635
L20242 65692
L20214 65778
L20157 65835
L20100 65864
L19985 65892
L19900 65892
L19785 65864
L19728 65835
L19671 65778
L19642 65692
L19642 65635
L19671 65549
L19700 65521
" />
<path d="M19642 65149
L19642 65035
L19671 64978
L19728 64921
L19842 64892
L20042 64892
L20157 64921
L20214 64978
L20242 65035
L20242 65149
L20214 65207
L20157 65264
L20042 65292
L19842 65292
L19728 65264
L19671 65207
L19642 65149
" />
<path d="M20242 64635
L19642 64635
L20242 64292
L19642 64292
" />
<path d="M20242 64007
L19642 64007
L20242 63664
L19642 63664
" />
<path d="M20300 63521
L20300 63064
" />
<path d="M19642 62978
L19642 62607
L19871 62807
L19871 62721
L19900 62664
L19928 62635
L19985 62607
L20128 62607
L20185 62635
L20214 62664
L20242 62721
L20242 62892
L20214 62950
L20185 62978
" />
<path d="M34235 61492
L33892 61492
" />
<path d="M34064 61492
L34064 60892
L34007 60978
L33950 61035
L33892 61064
" />
<path d="M34464 60950
L34492 60921
L34550 60892
L34692 60892
L34750 60921
L34778 60950
L34807 61007
L34807 61064
L34778 61150
L34435 61492
L34807 61492
" />
<path d="M34978 60892
L35178 61492
L35378 60892
" />
<path d="M35435 61550
L35892 61550
" />
<path d="M36007 61464
L36092 61492
L36235 61492
L36292 61464
L36321 61435
L36350 61378
L36350 61321
L36321 61264
L36292 61235
L36235 61207
L36121 61178
L36064 61150
L36035 61121
L36007 61064
L36007 61007
L36035 60950
L36064 60921
L36121 60892
L36264 60892
L36350 60921
" />
<path d="M36550 60892
L36692 61492
L36807 61064
L36921 61492
L37064 60892
" />
<path d="M37607 61492
L37264 61492
" />
<path d="M37435 61492
L37435 60892
L37378 60978
L37321 61035
L37264 61064
" />
<path d="M34478 65435
L34450 65464
L34364 65492
L34307 65492
L34221 65464
L34164 65407
L34135 65350
L34107 65235
L34107 65150
L34135 65035
L34164 64978
L34221 64921
L34307 64892
L34364 64892
L34450 64921
L34478 64950
" />
<path d="M34850 64892
L34964 64892
L35021 64921
L35078 64978
L35107 65092
L35107 65292
L35078 65407
L35021 65464
L34964 65492
L34850 65492
L34792 65464
L34735 65407
L34707 65292
L34707 65092
L34735 64978
L34792 64921
L34850 64892
" />
<path d="M35364 65492
L35364 64892
L35707 65492
L35707 64892
" />
<path d="M35992 65492
L35992 64892
L36335 65492
L36335 64892
" />
<path d="M36478 65550
L36935 65550
" />
<path d="M37050 64950
L37078 64921
L37135 64892
L37278 64892
L37335 64921
L37364 64950
L37392 65007
L37392 65064
L37364 65150
L37021 65492
L37392 65492
" />
<path d="M28307 67242
L28307 66642
L28450 66642
L28535 66671
L28592 66728
L28621 66785
L28650 66900
L28650 66985
L28621 67100
L28592 67157
L28535 67214
L28450 67242
L28307 67242
" />
<path d="M29221 67242
L28878 67242
" />
<path d="M29050 67242
L29050 66642
L28992 66728
L28935 66785
L28878 66814
" />
<path d="M24192 59800
L24135 59771
L24078 59714
L23992 59628
L23935 59600
L23878 59600
" />
<path d="M23907 59742
L23850 59714
L23792 59657
L23764 59542
L23764 59342
L23792 59228
L23850 59171
L23907 59142
L24021 59142
L24078 59171
L24135 59228
L24164 59342
L24164 59542
L24135 59657
L24078 59714
L24021 59742
L23907 59742
" />
<path d="M24735 59742
L24392 59742
" />
<path d="M24564 59742
L24564 59142
L24507 59228
L24450 59285
L24392 59314
" />
<path d="M23135 62428
L23221 62457
L23250 62485
L23278 62542
L23278 62628
L23250 62685
L23221 62714
L23164 62742
L22935 62742
L22935 62142
L23135 62142
L23192 62171
L23221 62200
L23250 62257
L23250 62314
L23221 62371
L23192 62400
L23135 62428
L22935 62428
" />
<path d="M23878 62685
L23850 62714
L23764 62742
L23707 62742
L23621 62714
L23564 62657
L23535 62600
L23507 62485
L23507 62400
L23535 62285
L23564 62228
L23621 62171
L23707 62142
L23764 62142
L23850 62171
L23878 62200
" />
<path d="M24421 62142
L24135 62142
L24107 62428
L24135 62400
L24192 62371
L24335 62371
L24392 62400
L24421 62428
L24450 62485
L24450 62628
L24421 62685
L24392 62714
L24335 62742
L24192 62742
L24135 62714
L24107 62685
" />
<path d="M24964 62342
L24964 62742
" />
<path d="M24821 62114
L24678 62542
L25050 62542
" />
<path d="M25221 62142
L25621 62142
L25364 62742
" />
<path d="M29650 58195
L29621 58224
L29535 58252
L29478 58252
L29392 58224
L29335 58166
L29307 58109
L29278 57995
L29278 57909
L29307 57795
L29335 57738
L29392 57681
L29478 57652
L29535 57652
L29621 57681
L29650 57709
" />
<path d="M30221 58252
L29878 58252
" />
<path d="M30050 58252
L30050 57652
L29992 57738
L29935 57795
L29878 57824
" />
<path d="M28478 65333
L28478 65733
" />
<path d="M28335 65104
L28192 65533
L28564 65533
" />
<path d="M28735 65133
L29135 65133
L28878 65733
" />
<path d="M29478 65133
L29535 65133
L29592 65161
L29621 65190
L29650 65247
L29678 65361
L29678 65504
L29650 65618
L29621 65675
L29592 65704
L29535 65733
L29478 65733
L29421 65704
L29392 65675
L29364 65618
L29335 65504
L29335 65361
L29364 65247
L29392 65190
L29421 65161
L29478 65133
" />
<path d="M30050 65133
L30107 65133
L30164 65161
L30192 65190
L30221 65247
L30250 65361
L30250 65504
L30221 65618
L30192 65675
L30164 65704
L30107 65733
L30050 65733
L29992 65704
L29964 65675
L29935 65618
L29907 65504
L29907 65361
L29935 65247
L29964 65190
L29992 65161
L30050 65133
" />
<path d="M30764 65333
L30764 65733
" />
<path d="M30507 65333
L30507 65647
L30535 65704
L30592 65733
L30678 65733
L30735 65704
L30764 65675
" />
<path d="M31250 65418
L31050 65418
" />
<path d="M31050 65733
L31050 65133
L31335 65133
" />
</g> 
</svg>
