<?xml version="1.0" standalone="no"?>
 <!DOCTYPE svg PUBLIC "-//W3C//DTD SVG 1.1//EN" 
 "http://www.w3.org/Graphics/SVG/1.1/DTD/svg11.dtd"> 
<svg xmlns="http://www.w3.org/2000/svg" version="1.1" 
    width="41.9989cm" height="29.7002cm" viewBox="0 0 165350 116930 ">
<title>SVG Picture created as speaker_relay-F_Mask.svg date 2015/06/23 14:15:06 </title>
  <desc>Picture generated by PCBNEW </desc>
<g style="fill:#000000; fill-opacity:1;stroke:#000000; stroke-opacity:1;
stroke-linecap:round; stroke-linejoin:round; "
 transform="translate(0 0) scale(1 1)">
</g>
<g style="fill:#000000; fill-opacity:0.0; 
stroke:#000000; stroke-width:59.0551; stroke-opacity:1; 
stroke-linecap:round; stroke-linejoin:round;">
<circle cx="70750" cy="53250" r="500" /> 
<circle cx="70750" cy="41750" r="500" /> 
<circle cx="90500" cy="53250" r="500" /> 
<circle cx="90500" cy="41750" r="500" /> 
</g>
<g style="fill:#000000; fill-opacity:1.0; 
stroke:#000000; stroke-width:59.0551; stroke-opacity:1; 
stroke-linecap:round; stroke-linejoin:round;">
<polyline style="fill-rule:evenodd;"
points="71129,49967
71128,50043
71110,50124
71083,50184
71035,50252
70988,50297
70917,50342
70856,50365
70774,50380
70709,50378
70627,50360
70568,50334
70499,50287
70454,50240
70408,50169
70385,50109
70369,50026
70370,49962
70388,49879
70413,49820
70461,49751
70507,49706
70578,49659
70637,49635
70720,49619
70784,49620
70867,49637
70926,49662
70997,49709
71041,49754
71089,49826
71113,49884
71129,49967
" /> 
<polyline style="fill-rule:evenodd;"
points="71329,46197
71327,46318
71300,46437
71258,46533
71187,46633
71111,46705
71008,46771
70910,46809
70790,46830
70685,46828
70565,46802
70470,46760
70369,46690
70296,46615
70230,46511
70191,46415
70169,46293
70171,46190
70196,46069
70237,45974
70307,45871
70381,45799
70485,45731
70580,45693
70702,45669
70805,45670
70927,45695
71022,45735
71125,45805
71197,45877
71266,45981
71305,46076
71329,46197
" /> 
<polyline style="fill-rule:evenodd;"
points="71329,48197
71327,48318
71300,48437
71258,48533
71187,48633
71111,48705
71008,48771
70910,48809
70790,48830
70685,48828
70565,48802
70470,48760
70369,48690
70296,48615
70230,48511
70191,48415
70169,48293
70171,48190
70196,48069
70237,47974
70307,47871
70381,47799
70485,47731
70580,47693
70702,47669
70805,47670
70927,47695
71022,47735
71125,47805
71197,47877
71266,47981
71305,48076
71329,48197
" /> 
<polyline style="fill-rule:evenodd;"
points="71329,44829
70170,44829
70170,43670
71329,43670
71329,44829
" /> 
<polyline style="fill-rule:evenodd;"
points="74129,42217
74128,42293
74110,42374
74083,42434
74035,42502
73988,42547
73917,42592
73856,42615
73774,42630
73709,42628
73627,42610
73568,42584
73499,42537
73454,42490
73408,42419
73385,42359
73369,42276
73370,42212
73388,42129
73413,42070
73461,42001
73507,41956
73578,41909
73637,41885
73720,41869
73784,41870
73867,41887
73926,41912
73997,41959
74041,42004
74089,42076
74113,42134
74129,42217
" /> 
<polyline style="fill-rule:evenodd;"
points="74129,46217
74128,46293
74110,46374
74083,46434
74035,46502
73988,46547
73917,46592
73856,46615
73774,46630
73709,46628
73627,46610
73568,46584
73499,46537
73454,46490
73408,46419
73385,46359
73369,46276
73370,46212
73388,46129
73413,46070
73461,46001
73507,45956
73578,45909
73637,45885
73720,45869
73784,45870
73867,45887
73926,45912
73997,45959
74041,46004
74089,46076
74113,46134
74129,46217
" /> 
<polyline style="fill-rule:evenodd;"
points="74159,47464
74158,47547
74138,47633
74109,47699
74058,47771
74006,47821
73931,47869
73864,47894
73776,47910
73705,47908
73618,47889
73553,47861
73479,47810
73430,47759
73382,47683
73356,47618
73339,47529
73340,47459
73359,47370
73387,47306
73438,47231
73488,47182
73564,47133
73628,47106
73718,47089
73787,47090
73876,47108
73940,47135
74016,47186
74065,47235
74115,47311
74142,47375
74159,47464
" /> 
<polyline style="fill-rule:evenodd;"
points="74159,48464
74158,48547
74138,48633
74109,48699
74058,48771
74006,48821
73931,48869
73864,48894
73776,48910
73705,48908
73618,48889
73553,48861
73479,48810
73430,48759
73382,48683
73356,48618
73339,48529
73340,48459
73359,48370
73387,48306
73438,48231
73488,48182
73564,48133
73628,48106
73718,48089
73787,48090
73876,48108
73940,48135
74016,48186
74065,48235
74115,48311
74142,48375
74159,48464
" /> 
<polyline style="fill-rule:evenodd;"
points="75129,49967
75128,50043
75110,50124
75083,50184
75035,50252
74988,50297
74917,50342
74856,50365
74774,50380
74709,50378
74627,50360
74568,50334
74499,50287
74454,50240
74408,50169
74385,50109
74369,50026
74370,49962
74388,49879
74413,49820
74461,49751
74507,49706
74578,49659
74637,49635
74720,49619
74784,49620
74867,49637
74926,49662
74997,49709
75041,49754
75089,49826
75113,49884
75129,49967
" /> 
<polyline style="fill-rule:evenodd;"
points="75354,51719
75353,51790
75336,51866
75311,51922
75266,51985
75222,52027
75156,52069
75100,52091
75022,52105
74962,52103
74885,52087
74830,52062
74765,52017
74724,51974
74681,51908
74659,51852
74644,51774
74645,51715
74662,51637
74685,51582
74730,51517
74772,51475
74839,51432
74894,51410
74973,51394
75031,51395
75110,51411
75164,51434
75231,51479
75272,51520
75317,51587
75339,51641
75354,51719
" /> 
<polyline style="fill-rule:evenodd;"
points="76179,48462
76178,48549
76157,48640
76127,48709
76073,48785
76018,48837
75940,48886
75870,48914
75778,48930
75703,48928
75612,48908
75543,48878
75466,48825
75414,48771
75364,48692
75336,48623
75319,48531
75320,48456
75340,48364
75369,48296
75422,48218
75475,48167
75554,48115
75623,48087
75716,48069
75789,48070
75882,48089
75950,48117
76029,48171
76080,48223
76133,48302
76161,48369
76179,48462
" /> 
<polyline style="fill-rule:evenodd;"
points="76179,44929
75320,44929
75320,44070
76179,44070
76179,44929
" /> 
<polyline style="fill-rule:evenodd;"
points="76354,51719
76353,51790
76336,51866
76311,51922
76266,51985
76222,52027
76156,52069
76100,52091
76022,52105
75962,52103
75885,52087
75830,52062
75765,52017
75724,51974
75681,51908
75659,51852
75644,51774
75645,51715
75662,51637
75685,51582
75730,51517
75772,51475
75839,51432
75894,51410
75973,51394
76031,51395
76110,51411
76164,51434
76231,51479
76272,51520
76317,51587
76339,51641
76354,51719
" /> 
<polyline style="fill-rule:evenodd;"
points="77354,52104
76645,52104
76645,51395
77354,51395
77354,52104
" /> 
<polyline style="fill-rule:evenodd;"
points="78532,46129
78532,46138
78531,46148
78531,46148
78519,46251
78519,46251
78519,46252
78488,46350
78438,46442
78372,46520
78290,46586
78199,46633
78099,46663
77996,46672
77892,46661
77794,46631
77702,46581
77623,46515
77557,46435
77508,46343
77478,46244
77467,46129
77467,45870
77467,45861
77468,45851
77468,45851
77480,45748
77480,45748
77480,45747
77511,45649
77561,45557
77627,45479
77709,45413
77800,45366
77900,45336
78003,45327
78107,45338
78205,45368
78297,45418
78376,45484
78442,45564
78491,45656
78521,45755
78532,45870
78532,46129
" /> 
<polyline style="fill-rule:evenodd;"
points="78532,49129
78532,49138
78531,49148
78531,49148
78519,49251
78519,49251
78519,49252
78488,49350
78438,49442
78372,49520
78290,49586
78199,49633
78099,49663
77996,49672
77892,49661
77794,49631
77702,49581
77623,49515
77557,49435
77508,49343
77478,49244
77467,49129
77467,48870
77467,48861
77468,48851
77468,48851
77480,48748
77480,48748
77480,48747
77511,48649
77561,48557
77627,48479
77709,48413
77800,48366
77900,48336
78003,48327
78107,48338
78205,48368
78297,48418
78376,48484
78442,48564
78491,48656
78521,48755
78532,48870
78532,49129
" /> 
<polyline style="fill-rule:evenodd;"
points="81579,42447
81577,42568
81550,42687
81508,42783
81437,42883
81361,42955
81258,43021
81160,43059
81040,43080
80935,43078
80815,43052
80720,43010
80619,42940
80546,42865
80480,42761
80441,42665
80419,42543
80421,42440
80446,42319
80487,42224
80557,42121
80631,42049
80735,41981
80830,41943
80952,41919
81055,41920
81177,41945
81272,41985
81375,42055
81447,42127
81516,42231
81555,42326
81579,42447
" /> 
<polyline style="fill-rule:evenodd;"
points="81579,52447
81577,52568
81550,52687
81508,52783
81437,52883
81361,52955
81258,53021
81160,53059
81040,53080
80935,53078
80815,53052
80720,53010
80619,52940
80546,52865
80480,52761
80441,52665
80419,52543
80421,52440
80446,52319
80487,52224
80557,52121
80631,52049
80735,51981
80830,51943
80952,51919
81055,51920
81177,51945
81272,51985
81375,52055
81447,52127
81516,52231
81555,52326
81579,52447
" /> 
<polyline style="fill-rule:evenodd;"
points="83579,42447
83577,42568
83550,42687
83508,42783
83437,42883
83361,42955
83258,43021
83160,43059
83040,43080
82935,43078
82815,43052
82720,43010
82619,42940
82546,42865
82480,42761
82441,42665
82419,42543
82421,42440
82446,42319
82487,42224
82557,42121
82631,42049
82735,41981
82830,41943
82952,41919
83055,41920
83177,41945
83272,41985
83375,42055
83447,42127
83516,42231
83555,42326
83579,42447
" /> 
<polyline style="fill-rule:evenodd;"
points="83579,52447
83577,52568
83550,52687
83508,52783
83437,52883
83361,52955
83258,53021
83160,53059
83040,53080
82935,53078
82815,53052
82720,53010
82619,52940
82546,52865
82480,52761
82441,52665
82419,52543
82421,52440
82446,52319
82487,52224
82557,52121
82631,52049
82735,51981
82830,51943
82952,51919
83055,51920
83177,51945
83272,51985
83375,52055
83447,52127
83516,52231
83555,52326
83579,52447
" /> 
<polyline style="fill-rule:evenodd;"
points="84532,46129
84532,46138
84531,46148
84531,46148
84519,46251
84519,46251
84519,46252
84488,46350
84438,46442
84372,46520
84290,46586
84199,46633
84099,46663
83996,46672
83892,46661
83794,46631
83702,46581
83623,46515
83557,46435
83508,46343
83478,46244
83467,46129
83467,45870
83467,45861
83468,45851
83468,45851
83480,45748
83480,45748
83480,45747
83511,45649
83561,45557
83627,45479
83709,45413
83800,45366
83900,45336
84003,45327
84107,45338
84205,45368
84297,45418
84376,45484
84442,45564
84491,45656
84521,45755
84532,45870
84532,46129
" /> 
<polyline style="fill-rule:evenodd;"
points="84532,49129
84532,49138
84531,49148
84531,49148
84519,49251
84519,49251
84519,49252
84488,49350
84438,49442
84372,49520
84290,49586
84199,49633
84099,49663
83996,49672
83892,49661
83794,49631
83702,49581
83623,49515
83557,49435
83508,49343
83478,49244
83467,49129
83467,48870
83467,48861
83468,48851
83468,48851
83480,48748
83480,48748
83480,48747
83511,48649
83561,48557
83627,48479
83709,48413
83800,48366
83900,48336
84003,48327
84107,48338
84205,48368
84297,48418
84376,48484
84442,48564
84491,48656
84521,48755
84532,48870
84532,49129
" /> 
<polyline style="fill-rule:evenodd;"
points="86532,46129
86532,46138
86531,46148
86531,46148
86519,46251
86519,46251
86519,46252
86488,46350
86438,46442
86372,46520
86290,46586
86199,46633
86099,46663
85996,46672
85892,46661
85794,46631
85702,46581
85623,46515
85557,46435
85508,46343
85478,46244
85467,46129
85467,45870
85467,45861
85468,45851
85468,45851
85480,45748
85480,45748
85480,45747
85511,45649
85561,45557
85627,45479
85709,45413
85800,45366
85900,45336
86003,45327
86107,45338
86205,45368
86297,45418
86376,45484
86442,45564
86491,45656
86521,45755
86532,45870
86532,46129
" /> 
<polyline style="fill-rule:evenodd;"
points="86532,49129
86532,49138
86531,49148
86531,49148
86519,49251
86519,49251
86519,49252
86488,49350
86438,49442
86372,49520
86290,49586
86199,49633
86099,49663
85996,49672
85892,49661
85794,49631
85702,49581
85623,49515
85557,49435
85508,49343
85478,49244
85467,49129
85467,48870
85467,48861
85468,48851
85468,48851
85480,48748
85480,48748
85480,48747
85511,48649
85561,48557
85627,48479
85709,48413
85800,48366
85900,48336
86003,48327
86107,48338
86205,48368
86297,48418
86376,48484
86442,48564
86491,48656
86521,48755
86532,48870
86532,49129
" /> 
<polyline style="fill-rule:evenodd;"
points="86579,42447
86577,42568
86550,42687
86508,42783
86437,42883
86361,42955
86258,43021
86160,43059
86040,43080
85935,43078
85815,43052
85720,43010
85619,42940
85546,42865
85480,42761
85441,42665
85419,42543
85421,42440
85446,42319
85487,42224
85557,42121
85631,42049
85735,41981
85830,41943
85952,41919
86055,41920
86177,41945
86272,41985
86375,42055
86447,42127
86516,42231
86555,42326
86579,42447
" /> 
<polyline style="fill-rule:evenodd;"
points="86579,52447
86577,52568
86550,52687
86508,52783
86437,52883
86361,52955
86258,53021
86160,53059
86040,53080
85935,53078
85815,53052
85720,53010
85619,52940
85546,52865
85480,52761
85441,52665
85419,52543
85421,52440
85446,52319
85487,52224
85557,52121
85631,52049
85735,51981
85830,51943
85952,51919
86055,51920
86177,51945
86272,51985
86375,52055
86447,52127
86516,52231
86555,52326
86579,52447
" /> 
<polyline style="fill-rule:evenodd;"
points="88532,46129
88532,46138
88531,46148
88531,46148
88519,46251
88519,46251
88519,46252
88488,46350
88438,46442
88372,46520
88290,46586
88199,46633
88099,46663
87996,46672
87892,46661
87794,46631
87702,46581
87623,46515
87557,46435
87508,46343
87478,46244
87467,46129
87467,45870
87467,45861
87468,45851
87468,45851
87480,45748
87480,45748
87480,45747
87511,45649
87561,45557
87627,45479
87709,45413
87800,45366
87900,45336
88003,45327
88107,45338
88205,45368
88297,45418
88376,45484
88442,45564
88491,45656
88521,45755
88532,45870
88532,46129
" /> 
<polyline style="fill-rule:evenodd;"
points="88532,49129
88532,49138
88531,49148
88531,49148
88519,49251
88519,49251
88519,49252
88488,49350
88438,49442
88372,49520
88290,49586
88199,49633
88099,49663
87996,49672
87892,49661
87794,49631
87702,49581
87623,49515
87557,49435
87508,49343
87478,49244
87467,49129
87467,48870
87467,48861
87468,48851
87468,48851
87480,48748
87480,48748
87480,48747
87511,48649
87561,48557
87627,48479
87709,48413
87800,48366
87900,48336
88003,48327
88107,48338
88205,48368
88297,48418
88376,48484
88442,48564
88491,48656
88521,48755
88532,48870
88532,49129
" /> 
<polyline style="fill-rule:evenodd;"
points="88579,42447
88577,42568
88550,42687
88508,42783
88437,42883
88361,42955
88258,43021
88160,43059
88040,43080
87935,43078
87815,43052
87720,43010
87619,42940
87546,42865
87480,42761
87441,42665
87419,42543
87421,42440
87446,42319
87487,42224
87557,42121
87631,42049
87735,41981
87830,41943
87952,41919
88055,41920
88177,41945
88272,41985
88375,42055
88447,42127
88516,42231
88555,42326
88579,42447
" /> 
<polyline style="fill-rule:evenodd;"
points="88579,52447
88577,52568
88550,52687
88508,52783
88437,52883
88361,52955
88258,53021
88160,53059
88040,53080
87935,53078
87815,53052
87720,53010
87619,52940
87546,52865
87480,52761
87441,52665
87419,52543
87421,52440
87446,52319
87487,52224
87557,52121
87631,52049
87735,51981
87830,51943
87952,51919
88055,51920
88177,51945
88272,51985
88375,52055
88447,52127
88516,52231
88555,52326
88579,52447
" /> 
</g> 
</svg>
