<?xml version="1.0" encoding="UTF-8" standalone="no"?>
<svg
   xmlns:dc="http://purl.org/dc/elements/1.1/"
   xmlns:cc="http://creativecommons.org/ns#"
   xmlns:rdf="http://www.w3.org/1999/02/22-rdf-syntax-ns#"
   xmlns:svg="http://www.w3.org/2000/svg"
   xmlns="http://www.w3.org/2000/svg"
   xmlns:sodipodi="http://sodipodi.sourceforge.net/DTD/sodipodi-0.dtd"
   xmlns:inkscape="http://www.inkscape.org/namespaces/inkscape"
   version="1.1"
   width="744.09448"
   height="1052.3622"
   viewBox="0 0 82677.164 116929.21"
   id="svg2"
   inkscape:version="0.48.4 r9939"
   sodipodi:docname="speaker_relay-B_Cu.svg">
  <metadata
     id="metadata222">
    <rdf:RDF>
      <cc:Work
         rdf:about="">
        <dc:format>image/svg+xml</dc:format>
        <dc:type
           rdf:resource="http://purl.org/dc/dcmitype/StillImage" />
      </cc:Work>
    </rdf:RDF>
  </metadata>
  <defs
     id="defs220" />
  <sodipodi:namedview
     pagecolor="#ffffff"
     bordercolor="#666666"
     borderopacity="1"
     objecttolerance="10"
     gridtolerance="10"
     guidetolerance="10"
     inkscape:pageopacity="0"
     inkscape:pageshadow="2"
     inkscape:window-width="1920"
     inkscape:window-height="997"
     id="namedview218"
     showgrid="false"
     inkscape:zoom="0.44851177"
     inkscape:cx="1508.4587"
     inkscape:cy="253.48009"
     inkscape:window-x="1276"
     inkscape:window-y="-3"
     inkscape:window-maximized="1"
     inkscape:current-layer="svg2" />
  <title
     id="title4">SVG Picture created as speaker_relay-B_Cu.svg date 2015/06/23 14:15:06 </title>
  <desc
     id="desc6">Picture generated by PCBNEW </desc>
  <g
     style="fill:#000000;fill-opacity:1;stroke:#000000;stroke-linecap:round;stroke-linejoin:round;stroke-opacity:1"
     id="g8"
     transform="translate(0,-0.78370803)" />
  <g
     style="fill:#000000;fill-opacity:0;stroke:#000000;stroke-width:59.05509949;stroke-linecap:round;stroke-linejoin:round;stroke-opacity:1"
     id="g10"
     transform="translate(-38150.889,9413.072)">
    <circle
       cx="70750"
       cy="53250"
       r="500"
       id="circle12"
       sodipodi:cx="70750"
       sodipodi:cy="53250"
       sodipodi:rx="500"
       sodipodi:ry="500"
       d="m 71250,53250 c 0,276.142 -223.858,500 -500,500 -276.142,0 -500,-223.858 -500,-500 0,-276.142 223.858,-500 500,-500 276.142,0 500,223.858 500,500 z" />
    <circle
       cx="70750"
       cy="41750"
       r="500"
       id="circle14"
       sodipodi:cx="70750"
       sodipodi:cy="41750"
       sodipodi:rx="500"
       sodipodi:ry="500"
       d="m 71250,41750 c 0,276.142 -223.858,500 -500,500 -276.142,0 -500,-223.858 -500,-500 0,-276.142 223.858,-500 500,-500 276.142,0 500,223.858 500,500 z" />
    <circle
       cx="90500"
       cy="53250"
       r="500"
       id="circle16"
       sodipodi:cx="90500"
       sodipodi:cy="53250"
       sodipodi:rx="500"
       sodipodi:ry="500"
       d="m 91000,53250 c 0,276.142 -223.858,500 -500,500 -276.142,0 -500,-223.858 -500,-500 0,-276.142 223.858,-500 500,-500 276.142,0 500,223.858 500,500 z" />
    <circle
       cx="90500"
       cy="41750"
       r="500"
       id="circle18"
       sodipodi:cx="90500"
       sodipodi:cy="41750"
       sodipodi:rx="500"
       sodipodi:ry="500"
       d="m 91000,41750 c 0,276.142 -223.858,500 -500,500 -276.142,0 -500,-223.858 -500,-500 0,-276.142 223.858,-500 500,-500 276.142,0 500,223.858 500,500 z" />
  </g>
  <g
     style="fill:#000000;fill-opacity:0;stroke:#000000;stroke-width:905.51202393;stroke-linecap:round;stroke-linejoin:round;stroke-opacity:1"
     id="g20"
     transform="translate(-38150.889,9413.072)">
    <path
       d="m 78000,48862 0,275"
       id="path22"
       inkscape:connector-curvature="0" />
    <path
       d="m 84000,48862 0,275"
       id="path24"
       inkscape:connector-curvature="0" />
    <path
       d="m 86000,48862 0,275"
       id="path26"
       inkscape:connector-curvature="0" />
    <path
       d="m 88000,48862 0,275"
       id="path28"
       inkscape:connector-curvature="0" />
    <path
       d="m 88000,45862 0,275"
       id="path30"
       inkscape:connector-curvature="0" />
    <path
       d="m 86000,45862 0,275"
       id="path32"
       inkscape:connector-curvature="0" />
    <path
       d="m 84000,45862 0,275"
       id="path34"
       inkscape:connector-curvature="0" />
    <path
       d="m 78000,45862 0,275"
       id="path36"
       inkscape:connector-curvature="0" />
  </g>
  <g
     style="fill:#000000;fill-opacity:0;stroke:#000000;stroke-width:59.05509949;stroke-linecap:round;stroke-linejoin:round;stroke-opacity:1"
     id="g38"
     transform="translate(0,-0.78370803)" />
  <g
     style="fill:#000000;fill-opacity:1;stroke:#000000;stroke-width:59.05509949;stroke-linecap:round;stroke-linejoin:round;stroke-opacity:1"
     id="g40"
     transform="translate(-38150.889,9413.072)">
    <polyline
       style="fill-rule:evenodd"
       points="76754,51995 76754,51504 77245,51504 77245,51995 76754,51995 "
       id="polyline42" />
    <circle
       cx="76000"
       cy="51750"
       r="245.472"
       id="circle44"
       sodipodi:cx="76000"
       sodipodi:cy="51750"
       sodipodi:rx="245.472"
       sodipodi:ry="245.472"
       d="m 76245.472,51750 c 0,135.57 -109.902,245.472 -245.472,245.472 -135.57,0 -245.472,-109.902 -245.472,-245.472 0,-135.57 109.902,-245.472 245.472,-245.472 135.57,0 245.472,109.902 245.472,245.472 z" />
    <circle
       cx="75000"
       cy="51750"
       r="245.472"
       id="circle46"
       sodipodi:cx="75000"
       sodipodi:cy="51750"
       sodipodi:rx="245.472"
       sodipodi:ry="245.472"
       d="m 75245.472,51750 c 0,135.57 -109.902,245.472 -245.472,245.472 -135.57,0 -245.472,-109.902 -245.472,-245.472 0,-135.57 109.902,-245.472 245.472,-245.472 135.57,0 245.472,109.902 245.472,245.472 z" />
    <circle
       cx="74750"
       cy="50000"
       r="270.47198"
       id="circle48"
       sodipodi:cx="74750"
       sodipodi:cy="50000"
       sodipodi:rx="270.47198"
       sodipodi:ry="270.47198"
       d="m 75020.472,50000 c 0,149.378 -121.094,270.472 -270.472,270.472 -149.378,0 -270.472,-121.094 -270.472,-270.472 0,-149.378 121.094,-270.472 270.472,-270.472 149.378,0 270.472,121.094 270.472,270.472 z" />
    <circle
       cx="70750"
       cy="50000"
       r="270.47198"
       id="circle50"
       sodipodi:cx="70750"
       sodipodi:cy="50000"
       sodipodi:rx="270.47198"
       sodipodi:ry="270.47198"
       d="m 71020.472,50000 c 0,149.378 -121.094,270.472 -270.472,270.472 -149.378,0 -270.472,-121.094 -270.472,-270.472 0,-149.378 121.094,-270.472 270.472,-270.472 149.378,0 270.472,121.094 270.472,270.472 z" />
    <circle
       cx="73750"
       cy="46250"
       r="270.47198"
       id="circle52"
       sodipodi:cx="73750"
       sodipodi:cy="46250"
       sodipodi:rx="270.47198"
       sodipodi:ry="270.47198"
       d="m 74020.472,46250 c 0,149.378 -121.094,270.472 -270.472,270.472 -149.378,0 -270.472,-121.094 -270.472,-270.472 0,-149.378 121.094,-270.472 270.472,-270.472 149.378,0 270.472,121.094 270.472,270.472 z" />
    <circle
       cx="73750"
       cy="42250"
       r="270.47198"
       id="circle54"
       sodipodi:cx="73750"
       sodipodi:cy="42250"
       sodipodi:rx="270.47198"
       sodipodi:ry="270.47198"
       d="m 74020.472,42250 c 0,149.378 -121.094,270.472 -270.472,270.472 -149.378,0 -270.472,-121.094 -270.472,-270.472 0,-149.378 121.094,-270.472 270.472,-270.472 149.378,0 270.472,121.094 270.472,270.472 z" />
    <circle
       cx="73750"
       cy="47500"
       r="300.47198"
       id="circle56"
       sodipodi:cx="73750"
       sodipodi:cy="47500"
       sodipodi:rx="300.47198"
       sodipodi:ry="300.47198"
       d="m 74050.472,47500 c 0,165.946 -134.526,300.472 -300.472,300.472 -165.946,0 -300.472,-134.526 -300.472,-300.472 0,-165.946 134.526,-300.472 300.472,-300.472 165.946,0 300.472,134.526 300.472,300.472 z" />
    <circle
       cx="73750"
       cy="48500"
       r="300.47198"
       id="circle58"
       sodipodi:cx="73750"
       sodipodi:cy="48500"
       sodipodi:rx="300.47198"
       sodipodi:ry="300.47198"
       d="m 74050.472,48500 c 0,165.946 -134.526,300.472 -300.472,300.472 -165.946,0 -300.472,-134.526 -300.472,-300.472 0,-165.946 134.526,-300.472 300.472,-300.472 165.946,0 300.472,134.526 300.472,300.472 z" />
    <circle
       cx="75750"
       cy="48500"
       r="320.47198"
       id="circle60"
       sodipodi:cx="75750"
       sodipodi:cy="48500"
       sodipodi:rx="320.47198"
       sodipodi:ry="320.47198"
       d="m 76070.472,48500 c 0,176.992 -143.48,320.472 -320.472,320.472 -176.992,0 -320.472,-143.48 -320.472,-320.472 0,-176.992 143.48,-320.472 320.472,-320.472 176.992,0 320.472,143.48 320.472,320.472 z" />
    <polyline
       style="fill-rule:evenodd"
       points="76070,44820 75429,44820 75429,44179 76070,44179 76070,44820 "
       id="polyline62" />
    <polyline
       style="fill-rule:evenodd"
       points="70279,43779 71220,43779 71220,44720 70279,44720 70279,43779 "
       id="polyline64" />
    <circle
       cx="70750"
       cy="46250"
       r="470.47198"
       id="circle66"
       sodipodi:cx="70750"
       sodipodi:cy="46250"
       sodipodi:rx="470.47198"
       sodipodi:ry="470.47198"
       d="m 71220.472,46250 c 0,259.835 -210.637,470.472 -470.472,470.472 -259.835,0 -470.472,-210.637 -470.472,-470.472 0,-259.835 210.637,-470.472 470.472,-470.472 259.835,0 470.472,210.637 470.472,470.472 z" />
    <circle
       cx="70750"
       cy="48250"
       r="470.47198"
       id="circle68"
       sodipodi:cx="70750"
       sodipodi:cy="48250"
       sodipodi:rx="470.47198"
       sodipodi:ry="470.47198"
       d="m 71220.472,48250 c 0,259.835 -210.637,470.472 -470.472,470.472 -259.835,0 -470.472,-210.637 -470.472,-470.472 0,-259.835 210.637,-470.472 470.472,-470.472 259.835,0 470.472,210.637 470.472,470.472 z" />
    <circle
       cx="86000"
       cy="52500"
       r="470.47198"
       id="circle70"
       sodipodi:cx="86000"
       sodipodi:cy="52500"
       sodipodi:rx="470.47198"
       sodipodi:ry="470.47198"
       d="m 86470.472,52500 c 0,259.835 -210.637,470.472 -470.472,470.472 -259.835,0 -470.472,-210.637 -470.472,-470.472 0,-259.835 210.637,-470.472 470.472,-470.472 259.835,0 470.472,210.637 470.472,470.472 z" />
    <circle
       cx="88000"
       cy="52500"
       r="470.47198"
       id="circle72"
       sodipodi:cx="88000"
       sodipodi:cy="52500"
       sodipodi:rx="470.47198"
       sodipodi:ry="470.47198"
       d="m 88470.472,52500 c 0,259.835 -210.637,470.472 -470.472,470.472 -259.835,0 -470.472,-210.637 -470.472,-470.472 0,-259.835 210.637,-470.472 470.472,-470.472 259.835,0 470.472,210.637 470.472,470.472 z" />
    <circle
       cx="86000"
       cy="42500"
       r="470.47198"
       id="circle74"
       sodipodi:cx="86000"
       sodipodi:cy="42500"
       sodipodi:rx="470.47198"
       sodipodi:ry="470.47198"
       d="m 86470.472,42500 c 0,259.835 -210.637,470.472 -470.472,470.472 -259.835,0 -470.472,-210.637 -470.472,-470.472 0,-259.835 210.637,-470.472 470.472,-470.472 259.835,0 470.472,210.637 470.472,470.472 z" />
    <circle
       cx="88000"
       cy="42500"
       r="470.47198"
       id="circle76"
       sodipodi:cx="88000"
       sodipodi:cy="42500"
       sodipodi:rx="470.47198"
       sodipodi:ry="470.47198"
       d="m 88470.472,42500 c 0,259.835 -210.637,470.472 -470.472,470.472 -259.835,0 -470.472,-210.637 -470.472,-470.472 0,-259.835 210.637,-470.472 470.472,-470.472 259.835,0 470.472,210.637 470.472,470.472 z" />
    <circle
       cx="81000"
       cy="42500"
       r="470.47198"
       id="circle78"
       sodipodi:cx="81000"
       sodipodi:cy="42500"
       sodipodi:rx="470.47198"
       sodipodi:ry="470.47198"
       d="m 81470.472,42500 c 0,259.835 -210.637,470.472 -470.472,470.472 -259.835,0 -470.472,-210.637 -470.472,-470.472 0,-259.835 210.637,-470.472 470.472,-470.472 259.835,0 470.472,210.637 470.472,470.472 z" />
    <circle
       cx="83000"
       cy="42500"
       r="470.47198"
       id="circle80"
       sodipodi:cx="83000"
       sodipodi:cy="42500"
       sodipodi:rx="470.47198"
       sodipodi:ry="470.47198"
       d="m 83470.472,42500 c 0,259.835 -210.637,470.472 -470.472,470.472 -259.835,0 -470.472,-210.637 -470.472,-470.472 0,-259.835 210.637,-470.472 470.472,-470.472 259.835,0 470.472,210.637 470.472,470.472 z" />
    <circle
       cx="81000"
       cy="52500"
       r="470.47198"
       id="circle82"
       sodipodi:cx="81000"
       sodipodi:cy="52500"
       sodipodi:rx="470.47198"
       sodipodi:ry="470.47198"
       d="m 81470.472,52500 c 0,259.835 -210.637,470.472 -470.472,470.472 -259.835,0 -470.472,-210.637 -470.472,-470.472 0,-259.835 210.637,-470.472 470.472,-470.472 259.835,0 470.472,210.637 470.472,470.472 z" />
    <circle
       cx="83000"
       cy="52500"
       r="470.47198"
       id="circle84"
       sodipodi:cx="83000"
       sodipodi:cy="52500"
       sodipodi:rx="470.47198"
       sodipodi:ry="470.47198"
       d="m 83470.472,52500 c 0,259.835 -210.637,470.472 -470.472,470.472 -259.835,0 -470.472,-210.637 -470.472,-470.472 0,-259.835 210.637,-470.472 470.472,-470.472 259.835,0 470.472,210.637 470.472,470.472 z" />
  </g>
  <g
     style="fill:#000000;fill-opacity:1;stroke:#000000;stroke-width:196.8500061;stroke-linecap:round;stroke-linejoin:round;stroke-opacity:1"
     id="g86"
     transform="translate(-38150.889,9413.072)">
    <path
       d="M 75750,44500 73750,42500"
       id="path88"
       inkscape:connector-curvature="0" />
    <path
       d="m 73750,42500 0,-250"
       id="path90"
       inkscape:connector-curvature="0" />
    <path
       d="m 75750,44500 1500,1500"
       id="path92"
       inkscape:connector-curvature="0" />
    <path
       d="m 77250,46000 750,0"
       id="path94"
       inkscape:connector-curvature="0" />
    <path
       d="m 75750,44500 -4750,0"
       id="path96"
       inkscape:connector-curvature="0" />
    <path
       d="m 71000,44500 -250,-250"
       id="path98"
       inkscape:connector-curvature="0" />
  </g>
  <g
     style="fill:#000000;fill-opacity:1;stroke:#000000;stroke-width:787.40197754;stroke-linecap:round;stroke-linejoin:round;stroke-opacity:1"
     id="g100"
     transform="translate(-38150.889,9413.072)">
    <path
       d="m 84000,46000 0,-2500"
       id="path102"
       inkscape:connector-curvature="0" />
    <path
       d="M 84000,43500 83000,42500"
       id="path104"
       inkscape:connector-curvature="0" />
    <path
       d="m 81000,42500 2000,0"
       id="path106"
       inkscape:connector-curvature="0" />
    <path
       d="m 84000,49000 0,2500"
       id="path108"
       inkscape:connector-curvature="0" />
    <path
       d="m 84000,51500 -1000,1000"
       id="path110"
       inkscape:connector-curvature="0" />
    <path
       d="m 83000,52500 -2000,0"
       id="path112"
       inkscape:connector-curvature="0" />
  </g>
  <g
     style="fill:#000000;fill-opacity:1;stroke:#000000;stroke-width:196.8500061;stroke-linecap:round;stroke-linejoin:round;stroke-opacity:1"
     id="g114"
     transform="translate(-38150.889,9413.072)">
    <path
       d="m 70750,50000 0,-1750"
       id="path116"
       inkscape:connector-curvature="0" />
  </g>
  <g
     style="fill:#000000;fill-opacity:1;stroke:#000000;stroke-width:787.40197754;stroke-linecap:round;stroke-linejoin:round;stroke-opacity:1"
     id="g118"
     transform="translate(-38150.889,9413.072)">
    <path
       d="m 88000,46000 0,-3500"
       id="path120"
       inkscape:connector-curvature="0" />
    <path
       d="m 88000,49000 0,3500"
       id="path122"
       inkscape:connector-curvature="0" />
    <path
       d="m 86000,46000 0,-3500"
       id="path124"
       inkscape:connector-curvature="0" />
    <path
       d="m 86000,52500 0,-3500"
       id="path126"
       inkscape:connector-curvature="0" />
  </g>
  <g
     style="fill:#000000;fill-opacity:1;stroke:#000000;stroke-width:196.8500061;stroke-linecap:round;stroke-linejoin:round;stroke-opacity:1"
     id="g128"
     transform="translate(-38150.889,9413.072)">
    <path
       d="m 74750,50000 1250,1250"
       id="path130"
       inkscape:connector-curvature="0" />
    <path
       d="m 76000,51250 0,500"
       id="path132"
       inkscape:connector-curvature="0" />
    <path
       d="m 77000,51750 1000,-1000"
       id="path134"
       inkscape:connector-curvature="0" />
    <path
       d="m 78000,50750 0,-1750"
       id="path136"
       inkscape:connector-curvature="0" />
    <path
       d="m 75750,48500 1750,0"
       id="path138"
       inkscape:connector-curvature="0" />
    <path
       d="m 77500,48500 500,500"
       id="path140"
       inkscape:connector-curvature="0" />
    <path
       d="m 73750,48500 2000,0"
       id="path142"
       inkscape:connector-curvature="0" />
    <path
       d="m 73750,47500 0,-1250"
       id="path144"
       inkscape:connector-curvature="0" />
  </g>
  <g
     style="fill:#000000;fill-opacity:1;stroke:#000000;stroke-width:59.05509949;stroke-linecap:round;stroke-linejoin:round;stroke-opacity:1"
     id="g146"
     transform="translate(-38150.889,9413.072)">
    <polyline
       style="fill-rule:evenodd"
       points="91901,54651 91321,54651 91321,53313 91321,53250 91321,53186 91321,41813 91321,41750 91321,41686 91321,41685 91321,41685 91321,41685 91283,41494 91234,41376 91234,41376 91126,41214 91126,41213 91035,41123 90873,41015 90873,41015 90755,40966 90563,40928 90435,40928 90434,40928 90244,40966 90126,41015 90126,41015 89964,41123 89963,41123 89873,41214 89765,41376 89765,41376 89716,41494 89678,41686 89678,41750 89678,41813 89716,42005 89765,42123 89765,42123 89873,42285 89963,42376 89964,42376 90126,42484 90126,42484 90244,42533 90434,42571 90435,42571 90563,42571 90755,42533 90873,42484 90873,42484 91035,42376 91126,42286 91126,42285 91234,42123 91234,42123 91283,42005 91321,41814 91321,41814 91321,41814 91321,41813 91321,53186 91321,53185 91321,53185 91321,53185 91283,52994 91234,52876 91234,52876 91126,52714 91126,52713 91035,52623 90873,52515 90873,52515 90755,52466 90563,52428 90435,52428 90434,52428 90244,52466 90126,52515 90126,52515 89964,52623 89963,52623 89873,52714 89765,52876 89765,52876 89716,52994 89678,53186 89678,53250 89678,53313 89716,53505 89765,53623 89765,53623 89873,53785 89963,53876 89964,53876 90126,53984 90126,53984 90244,54033 90434,54071 90435,54071 90563,54071 90755,54033 90873,53984 90873,53984 91035,53876 91126,53786 91126,53785 91234,53623 91234,53623 91283,53505 91321,53314 91321,53314 91321,53314 91321,53313 91321,54651 89386,54651 89386,52225 89279,51967 89279,49463 89338,49166 89338,48833 89236,48321 88946,47886 88512,47596 88026,47500 88512,47403 88946,47113 89236,46678 89338,46166 89338,45833 89279,45536 89279,43032 89385,42776 89386,42225 89175,41716 88786,41325 88276,41114 87725,41113 87216,41324 86999,41540 86786,41325 86276,41114 85725,41113 85216,41324 84825,41713 84614,42223 84614,42304 84281,41971 84175,41716 83786,41325 83276,41114 82725,41113 82467,41220 81532,41220 81276,41114 80725,41113 80216,41324 79825,41713 79614,42223 79613,42774 79824,43283 80213,43674 80723,43885 81274,43886 81532,43779 82467,43779 82471,43781 82720,44029 82720,45536 82661,45833 82661,46166 82763,46678 83053,47113 83487,47403 83973,47500 83487,47596 83053,47886 82763,48321 82661,48833 82661,49166 82720,49463 82720,50970 82471,51218 82467,51220 81532,51220 81276,51114 80725,51113 80216,51324 79825,51713 79614,52223 79613,52774 79824,53283 80213,53674 80723,53885 81274,53886 81532,53779 82467,53779 82723,53885 83274,53886 83783,53675 84174,53286 84281,53028 84614,52695 84613,52774 84824,53283 85213,53674 85723,53885 86274,53886 86783,53675 87000,53459 87213,53674 87723,53885 88274,53886 88783,53675 89174,53286 89385,52776 89386,52225 89386,54651 78751,54651 78751,49155 78751,48844 78751,46155 78751,45844 78694,45557 78531,45313 78287,45150 78000,45093 77712,45150 77468,45313 77331,45519 76398,44587 76398,44090 76353,43981 76269,43897 76159,43851 76040,43851 75662,43851 74299,42487 74348,42369 74348,42131 74257,41911 74089,41742 73869,41651 73631,41651 73411,41742 73242,41910 73151,42130 73151,42368 73242,42588 73410,42757 73470,42782 74791,44103 71571,44103 71571,41813 71571,41750 71571,41686 71571,41685 71571,41685 71571,41685 71533,41494 71484,41376 71484,41376 71376,41214 71376,41213 71285,41123 71123,41015 71123,41015 71005,40966 70813,40928 70685,40928 70684,40928 70494,40966 70376,41015 70376,41015 70214,41123 70213,41123 70123,41214 70015,41376 70015,41376 69966,41494 69928,41686 69928,41750 69928,41813 69966,42005 70015,42123 70015,42123 70123,42285 70213,42376 70214,42376 70376,42484 70376,42484 70494,42533 70684,42571 70685,42571 70813,42571 71005,42533 71123,42484 71123,42484 71285,42376 71376,42286 71376,42285 71484,42123 71484,42123 71533,42005 71571,41814 71571,41814 71571,41814 71571,41813 71571,44103 71548,44103 71548,43690 71503,43581 71419,43497 71309,43451 71190,43451 70190,43451 70081,43496 69997,43580 69951,43690 69951,43809 69951,44809 69996,44918 70080,45002 70190,45048 70309,45048 71309,45048 71418,45003 71502,44919 71512,44896 75101,44896 75101,44909 75146,45018 75230,45102 75340,45148 75459,45148 75837,45148 76969,46280 76969,46280 77098,46366 77098,46366 77250,46396 77296,46396 77305,46442 77468,46686 77712,46849 78000,46906 78287,46849 78531,46686 78694,46442 78751,46155 78751,48844 78694,48557 78531,48313 78287,48150 78000,48093 77712,48150 77695,48162 77651,48133 77500,48103 77499,48103 76270,48103 76117,47950 75879,47851 75621,47851 75383,47949 75229,48103 74241,48103 74138,47999 74282,47856 74378,47625 74378,47375 74283,47144 74146,47008 74146,46699 74257,46589 74348,46369 74348,46131 74257,45911 74089,45742 73869,45651 73631,45651 73411,45742 73242,45910 73151,46130 73151,46368 73242,46588 73353,46699 73353,47008 73217,47143 73121,47374 73121,47624 73216,47855 73361,48000 73217,48143 73121,48374 73121,48624 73216,48855 73393,49032 73624,49128 73874,49128 74105,49033 74241,48896 75229,48896 75382,49049 75620,49148 75878,49148 76116,49050 76270,48896 77248,48896 77248,49155 77305,49442 77468,49686 77603,49776 77603,50585 77012,51176 76665,51176 76556,51221 76472,51305 76441,51380 76396,51335 76396,51250 76366,51098 76280,50969 75348,50037 75348,49881 75257,49661 75089,49492 74869,49401 74631,49401 74411,49492 74242,49660 74151,49880 74151,50118 74242,50338 74410,50507 74630,50598 74787,50598 75563,51375 75514,51424 75426,51635 75426,51863 75513,52074 75674,52235 75885,52323 76113,52323 76324,52236 76441,52119 76471,52193 76555,52277 76665,52323 76784,52323 77334,52323 77443,52278 77527,52194 77573,52084 77573,51965 77573,51737 78280,51030 78280,51030 78280,51030 78366,50901 78396,50750 78396,49776 78531,49686 78694,49442 78751,49155 78751,54651 71571,54651 71571,53313 71571,53250 71571,53186 71571,53185 71571,53185 71571,53185 71548,53070 71548,48091 71427,47798 71202,47573 70909,47451 70591,47451 70298,47572 70073,47797 69951,48090 69951,48408 70072,48701 70297,48926 70353,48949 70353,49550 70242,49660 70151,49880 70151,50118 70242,50338 70410,50507 70630,50598 70868,50598 71088,50507 71257,50339 71348,50119 71348,49881 71257,49661 71146,49550 71146,48949 71201,48927 71426,48702 71548,48409 71548,48091 71548,53070 71533,52994 71484,52876 71484,52876 71376,52714 71376,52713 71285,52623 71123,52515 71123,52515 71005,52466 70813,52428 70685,52428 70684,52428 70494,52466 70376,52515 70376,52515 70214,52623 70213,52623 70123,52714 70015,52876 70015,52876 69966,52994 69928,53186 69928,53250 69928,53313 69966,53505 70015,53623 70015,53623 70123,53785 70213,53876 70214,53876 70376,53984 70376,53984 70494,54033 70684,54071 70685,54071 70813,54071 71005,54033 71123,53984 71123,53984 71285,53876 71376,53786 71376,53785 71484,53623 71484,53623 71533,53505 71571,53314 71571,53314 71571,53314 71571,53313 71571,54651 69348,54651 69348,40348 91901,40348 91901,54651 "
       id="polyline148" />
  </g>
  <g
     style="fill:#000000;fill-opacity:0;stroke:#000000;stroke-width:196.8500061;stroke-linecap:round;stroke-linejoin:round;stroke-opacity:1"
     id="g150"
     transform="translate(-38150.889,9413.072)">
    <polyline
       fill="none;"
       points="91901,54651 91321,54651 91321,53313 91321,53250 91321,53186 91321,41813 91321,41750 91321,41686 91321,41685 91321,41685 91321,41685 91283,41494 91234,41376 91234,41376 91126,41214 91126,41213 91035,41123 90873,41015 90873,41015 90755,40966 90563,40928 90435,40928 90434,40928 90244,40966 90126,41015 90126,41015 89964,41123 89963,41123 89873,41214 89765,41376 89765,41376 89716,41494 89678,41686 89678,41750 89678,41813 89716,42005 89765,42123 89765,42123 89873,42285 89963,42376 89964,42376 90126,42484 90126,42484 90244,42533 90434,42571 90435,42571 90563,42571 90755,42533 90873,42484 90873,42484 91035,42376 91126,42286 91126,42285 91234,42123 91234,42123 91283,42005 91321,41814 91321,41814 91321,41814 91321,41813 91321,53186 91321,53185 91321,53185 91321,53185 91283,52994 91234,52876 91234,52876 91126,52714 91126,52713 91035,52623 90873,52515 90873,52515 90755,52466 90563,52428 90435,52428 90434,52428 90244,52466 90126,52515 90126,52515 89964,52623 89963,52623 89873,52714 89765,52876 89765,52876 89716,52994 89678,53186 89678,53250 89678,53313 89716,53505 89765,53623 89765,53623 89873,53785 89963,53876 89964,53876 90126,53984 90126,53984 90244,54033 90434,54071 90435,54071 90563,54071 90755,54033 90873,53984 90873,53984 91035,53876 91126,53786 91126,53785 91234,53623 91234,53623 91283,53505 91321,53314 91321,53314 91321,53314 91321,53313 91321,54651 89386,54651 89386,52225 89279,51967 89279,49463 89338,49166 89338,48833 89236,48321 88946,47886 88512,47596 88026,47500 88512,47403 88946,47113 89236,46678 89338,46166 89338,45833 89279,45536 89279,43032 89385,42776 89386,42225 89175,41716 88786,41325 88276,41114 87725,41113 87216,41324 86999,41540 86786,41325 86276,41114 85725,41113 85216,41324 84825,41713 84614,42223 84614,42304 84281,41971 84175,41716 83786,41325 83276,41114 82725,41113 82467,41220 81532,41220 81276,41114 80725,41113 80216,41324 79825,41713 79614,42223 79613,42774 79824,43283 80213,43674 80723,43885 81274,43886 81532,43779 82467,43779 82471,43781 82720,44029 82720,45536 82661,45833 82661,46166 82763,46678 83053,47113 83487,47403 83973,47500 83487,47596 83053,47886 82763,48321 82661,48833 82661,49166 82720,49463 82720,50970 82471,51218 82467,51220 81532,51220 81276,51114 80725,51113 80216,51324 79825,51713 79614,52223 79613,52774 79824,53283 80213,53674 80723,53885 81274,53886 81532,53779 82467,53779 82723,53885 83274,53886 83783,53675 84174,53286 84281,53028 84614,52695 84613,52774 84824,53283 85213,53674 85723,53885 86274,53886 86783,53675 87000,53459 87213,53674 87723,53885 88274,53886 88783,53675 89174,53286 89385,52776 89386,52225 89386,54651 78751,54651 78751,49155 78751,48844 78751,46155 78751,45844 78694,45557 78531,45313 78287,45150 78000,45093 77712,45150 77468,45313 77331,45519 76398,44587 76398,44090 76353,43981 76269,43897 76159,43851 76040,43851 75662,43851 74299,42487 74348,42369 74348,42131 74257,41911 74089,41742 73869,41651 73631,41651 73411,41742 73242,41910 73151,42130 73151,42368 73242,42588 73410,42757 73470,42782 74791,44103 71571,44103 71571,41813 71571,41750 71571,41686 71571,41685 71571,41685 71571,41685 71533,41494 71484,41376 71484,41376 71376,41214 71376,41213 71285,41123 71123,41015 71123,41015 71005,40966 70813,40928 70685,40928 70684,40928 70494,40966 70376,41015 70376,41015 70214,41123 70213,41123 70123,41214 70015,41376 70015,41376 69966,41494 69928,41686 69928,41750 69928,41813 69966,42005 70015,42123 70015,42123 70123,42285 70213,42376 70214,42376 70376,42484 70376,42484 70494,42533 70684,42571 70685,42571 70813,42571 71005,42533 71123,42484 71123,42484 71285,42376 71376,42286 71376,42285 71484,42123 71484,42123 71533,42005 71571,41814 71571,41814 71571,41814 71571,41813 71571,44103 71548,44103 71548,43690 71503,43581 71419,43497 71309,43451 71190,43451 70190,43451 70081,43496 69997,43580 69951,43690 69951,43809 69951,44809 69996,44918 70080,45002 70190,45048 70309,45048 71309,45048 71418,45003 71502,44919 71512,44896 75101,44896 75101,44909 75146,45018 75230,45102 75340,45148 75459,45148 75837,45148 76969,46280 76969,46280 77098,46366 77098,46366 77250,46396 77296,46396 77305,46442 77468,46686 77712,46849 78000,46906 78287,46849 78531,46686 78694,46442 78751,46155 78751,48844 78694,48557 78531,48313 78287,48150 78000,48093 77712,48150 77695,48162 77651,48133 77500,48103 77499,48103 76270,48103 76117,47950 75879,47851 75621,47851 75383,47949 75229,48103 74241,48103 74138,47999 74282,47856 74378,47625 74378,47375 74283,47144 74146,47008 74146,46699 74257,46589 74348,46369 74348,46131 74257,45911 74089,45742 73869,45651 73631,45651 73411,45742 73242,45910 73151,46130 73151,46368 73242,46588 73353,46699 73353,47008 73217,47143 73121,47374 73121,47624 73216,47855 73361,48000 73217,48143 73121,48374 73121,48624 73216,48855 73393,49032 73624,49128 73874,49128 74105,49033 74241,48896 75229,48896 75382,49049 75620,49148 75878,49148 76116,49050 76270,48896 77248,48896 77248,49155 77305,49442 77468,49686 77603,49776 77603,50585 77012,51176 76665,51176 76556,51221 76472,51305 76441,51380 76396,51335 76396,51250 76366,51098 76280,50969 75348,50037 75348,49881 75257,49661 75089,49492 74869,49401 74631,49401 74411,49492 74242,49660 74151,49880 74151,50118 74242,50338 74410,50507 74630,50598 74787,50598 75563,51375 75514,51424 75426,51635 75426,51863 75513,52074 75674,52235 75885,52323 76113,52323 76324,52236 76441,52119 76471,52193 76555,52277 76665,52323 76784,52323 77334,52323 77443,52278 77527,52194 77573,52084 77573,51965 77573,51737 78280,51030 78280,51030 78280,51030 78366,50901 78396,50750 78396,49776 78531,49686 78694,49442 78751,49155 78751,54651 71571,54651 71571,53313 71571,53250 71571,53186 71571,53185 71571,53185 71571,53185 71548,53070 71548,48091 71427,47798 71202,47573 70909,47451 70591,47451 70298,47572 70073,47797 69951,48090 69951,48408 70072,48701 70297,48926 70353,48949 70353,49550 70242,49660 70151,49880 70151,50118 70242,50338 70410,50507 70630,50598 70868,50598 71088,50507 71257,50339 71348,50119 71348,49881 71257,49661 71146,49550 71146,48949 71201,48927 71426,48702 71548,48409 71548,48091 71548,53070 71533,52994 71484,52876 71484,52876 71376,52714 71376,52713 71285,52623 71123,52515 71123,52515 71005,52466 70813,52428 70685,52428 70684,52428 70494,52466 70376,52515 70376,52515 70214,52623 70213,52623 70123,52714 70015,52876 70015,52876 69966,52994 69928,53186 69928,53250 69928,53313 69966,53505 70015,53623 70015,53623 70123,53785 70213,53876 70214,53876 70376,53984 70376,53984 70494,54033 70684,54071 70685,54071 70813,54071 71005,54033 71123,53984 71123,53984 71285,53876 71376,53786 71376,53785 71484,53623 71484,53623 71533,53505 71571,53314 71571,53314 71571,53314 71571,53313 71571,54651 69348,54651 69348,40348 91901,40348 91901,54651 "
       id="polyline152" />
  </g>
  <g
     style="fill:#ffffff;fill-opacity:0;stroke:#ffffff;stroke-width:59.05509949;stroke-linecap:round;stroke-linejoin:round;stroke-opacity:1"
     id="g154"
     transform="translate(0,-0.78370803)" />
  <g
     style="fill:#ffffff;fill-opacity:1;stroke:#ffffff;stroke-width:59.05509949;stroke-linecap:round;stroke-linejoin:round;stroke-opacity:1"
     id="g156"
     transform="translate(-38150.889,9413.072)">
    <circle
       cx="78000"
       cy="49000"
       r="39.370098"
       id="circle158"
       sodipodi:cx="78000"
       sodipodi:cy="49000"
       sodipodi:rx="39.370098"
       sodipodi:ry="39.370098"
       d="m 78039.37,49000 c 0,21.744 -17.626,39.37 -39.37,39.37 -21.744,0 -39.37,-17.626 -39.37,-39.37 0,-21.744 17.626,-39.37 39.37,-39.37 21.744,0 39.37,17.626 39.37,39.37 z" />
    <circle
       cx="84000"
       cy="49000"
       r="39.370098"
       id="circle160"
       sodipodi:cx="84000"
       sodipodi:cy="49000"
       sodipodi:rx="39.370098"
       sodipodi:ry="39.370098"
       d="m 84039.37,49000 c 0,21.744 -17.626,39.37 -39.37,39.37 -21.744,0 -39.37,-17.626 -39.37,-39.37 0,-21.744 17.626,-39.37 39.37,-39.37 21.744,0 39.37,17.626 39.37,39.37 z" />
    <circle
       cx="86000"
       cy="49000"
       r="39.370098"
       id="circle162"
       sodipodi:cx="86000"
       sodipodi:cy="49000"
       sodipodi:rx="39.370098"
       sodipodi:ry="39.370098"
       d="m 86039.37,49000 c 0,21.744 -17.626,39.37 -39.37,39.37 -21.744,0 -39.37,-17.626 -39.37,-39.37 0,-21.744 17.626,-39.37 39.37,-39.37 21.744,0 39.37,17.626 39.37,39.37 z" />
    <circle
       cx="88000"
       cy="49000"
       r="39.370098"
       id="circle164"
       sodipodi:cx="88000"
       sodipodi:cy="49000"
       sodipodi:rx="39.370098"
       sodipodi:ry="39.370098"
       d="m 88039.37,49000 c 0,21.744 -17.626,39.37 -39.37,39.37 -21.744,0 -39.37,-17.626 -39.37,-39.37 0,-21.744 17.626,-39.37 39.37,-39.37 21.744,0 39.37,17.626 39.37,39.37 z" />
    <circle
       cx="88000"
       cy="46000"
       r="39.370098"
       id="circle166"
       sodipodi:cx="88000"
       sodipodi:cy="46000"
       sodipodi:rx="39.370098"
       sodipodi:ry="39.370098"
       d="m 88039.37,46000 c 0,21.744 -17.626,39.37 -39.37,39.37 -21.744,0 -39.37,-17.626 -39.37,-39.37 0,-21.744 17.626,-39.37 39.37,-39.37 21.744,0 39.37,17.626 39.37,39.37 z" />
    <circle
       cx="86000"
       cy="46000"
       r="39.370098"
       id="circle168"
       sodipodi:cx="86000"
       sodipodi:cy="46000"
       sodipodi:rx="39.370098"
       sodipodi:ry="39.370098"
       d="m 86039.37,46000 c 0,21.744 -17.626,39.37 -39.37,39.37 -21.744,0 -39.37,-17.626 -39.37,-39.37 0,-21.744 17.626,-39.37 39.37,-39.37 21.744,0 39.37,17.626 39.37,39.37 z" />
    <circle
       cx="84000"
       cy="46000"
       r="39.370098"
       id="circle170"
       sodipodi:cx="84000"
       sodipodi:cy="46000"
       sodipodi:rx="39.370098"
       sodipodi:ry="39.370098"
       d="m 84039.37,46000 c 0,21.744 -17.626,39.37 -39.37,39.37 -21.744,0 -39.37,-17.626 -39.37,-39.37 0,-21.744 17.626,-39.37 39.37,-39.37 21.744,0 39.37,17.626 39.37,39.37 z" />
    <circle
       cx="78000"
       cy="46000"
       r="39.370098"
       id="circle172"
       sodipodi:cx="78000"
       sodipodi:cy="46000"
       sodipodi:rx="39.370098"
       sodipodi:ry="39.370098"
       d="m 78039.37,46000 c 0,21.744 -17.626,39.37 -39.37,39.37 -21.744,0 -39.37,-17.626 -39.37,-39.37 0,-21.744 17.626,-39.37 39.37,-39.37 21.744,0 39.37,17.626 39.37,39.37 z" />
    <circle
       cx="77000"
       cy="51750"
       r="39.370098"
       id="circle174"
       sodipodi:cx="77000"
       sodipodi:cy="51750"
       sodipodi:rx="39.370098"
       sodipodi:ry="39.370098"
       d="m 77039.37,51750 c 0,21.744 -17.626,39.37 -39.37,39.37 -21.744,0 -39.37,-17.626 -39.37,-39.37 0,-21.744 17.626,-39.37 39.37,-39.37 21.744,0 39.37,17.626 39.37,39.37 z" />
    <circle
       cx="76000"
       cy="51750"
       r="39.370098"
       id="circle176"
       sodipodi:cx="76000"
       sodipodi:cy="51750"
       sodipodi:rx="39.370098"
       sodipodi:ry="39.370098"
       d="m 76039.37,51750 c 0,21.744 -17.626,39.37 -39.37,39.37 -21.744,0 -39.37,-17.626 -39.37,-39.37 0,-21.744 17.626,-39.37 39.37,-39.37 21.744,0 39.37,17.626 39.37,39.37 z" />
    <circle
       cx="75000"
       cy="51750"
       r="39.370098"
       id="circle178"
       sodipodi:cx="75000"
       sodipodi:cy="51750"
       sodipodi:rx="39.370098"
       sodipodi:ry="39.370098"
       d="m 75039.37,51750 c 0,21.744 -17.626,39.37 -39.37,39.37 -21.744,0 -39.37,-17.626 -39.37,-39.37 0,-21.744 17.626,-39.37 39.37,-39.37 21.744,0 39.37,17.626 39.37,39.37 z" />
    <circle
       cx="74750"
       cy="50000"
       r="39.370098"
       id="circle180"
       sodipodi:cx="74750"
       sodipodi:cy="50000"
       sodipodi:rx="39.370098"
       sodipodi:ry="39.370098"
       d="m 74789.37,50000 c 0,21.744 -17.626,39.37 -39.37,39.37 -21.744,0 -39.37,-17.626 -39.37,-39.37 0,-21.744 17.626,-39.37 39.37,-39.37 21.744,0 39.37,17.626 39.37,39.37 z" />
    <circle
       cx="70750"
       cy="50000"
       r="39.370098"
       id="circle182"
       sodipodi:cx="70750"
       sodipodi:cy="50000"
       sodipodi:rx="39.370098"
       sodipodi:ry="39.370098"
       d="m 70789.37,50000 c 0,21.744 -17.626,39.37 -39.37,39.37 -21.744,0 -39.37,-17.626 -39.37,-39.37 0,-21.744 17.626,-39.37 39.37,-39.37 21.744,0 39.37,17.626 39.37,39.37 z" />
    <circle
       cx="73750"
       cy="46250"
       r="39.370098"
       id="circle184"
       sodipodi:cx="73750"
       sodipodi:cy="46250"
       sodipodi:rx="39.370098"
       sodipodi:ry="39.370098"
       d="m 73789.37,46250 c 0,21.744 -17.626,39.37 -39.37,39.37 -21.744,0 -39.37,-17.626 -39.37,-39.37 0,-21.744 17.626,-39.37 39.37,-39.37 21.744,0 39.37,17.626 39.37,39.37 z" />
    <circle
       cx="73750"
       cy="42250"
       r="39.370098"
       id="circle186"
       sodipodi:cx="73750"
       sodipodi:cy="42250"
       sodipodi:rx="39.370098"
       sodipodi:ry="39.370098"
       d="m 73789.37,42250 c 0,21.744 -17.626,39.37 -39.37,39.37 -21.744,0 -39.37,-17.626 -39.37,-39.37 0,-21.744 17.626,-39.37 39.37,-39.37 21.744,0 39.37,17.626 39.37,39.37 z" />
    <circle
       cx="73750"
       cy="47500"
       r="39.370098"
       id="circle188"
       sodipodi:cx="73750"
       sodipodi:cy="47500"
       sodipodi:rx="39.370098"
       sodipodi:ry="39.370098"
       d="m 73789.37,47500 c 0,21.744 -17.626,39.37 -39.37,39.37 -21.744,0 -39.37,-17.626 -39.37,-39.37 0,-21.744 17.626,-39.37 39.37,-39.37 21.744,0 39.37,17.626 39.37,39.37 z" />
    <circle
       cx="73750"
       cy="48500"
       r="39.370098"
       id="circle190"
       sodipodi:cx="73750"
       sodipodi:cy="48500"
       sodipodi:rx="39.370098"
       sodipodi:ry="39.370098"
       d="m 73789.37,48500 c 0,21.744 -17.626,39.37 -39.37,39.37 -21.744,0 -39.37,-17.626 -39.37,-39.37 0,-21.744 17.626,-39.37 39.37,-39.37 21.744,0 39.37,17.626 39.37,39.37 z" />
    <circle
       cx="75750"
       cy="48500"
       r="39.370098"
       id="circle192"
       sodipodi:cx="75750"
       sodipodi:cy="48500"
       sodipodi:rx="39.370098"
       sodipodi:ry="39.370098"
       d="m 75789.37,48500 c 0,21.744 -17.626,39.37 -39.37,39.37 -21.744,0 -39.37,-17.626 -39.37,-39.37 0,-21.744 17.626,-39.37 39.37,-39.37 21.744,0 39.37,17.626 39.37,39.37 z" />
    <circle
       cx="75750"
       cy="44500"
       r="39.370098"
       id="circle194"
       sodipodi:cx="75750"
       sodipodi:cy="44500"
       sodipodi:rx="39.370098"
       sodipodi:ry="39.370098"
       d="m 75789.37,44500 c 0,21.744 -17.626,39.37 -39.37,39.37 -21.744,0 -39.37,-17.626 -39.37,-39.37 0,-21.744 17.626,-39.37 39.37,-39.37 21.744,0 39.37,17.626 39.37,39.37 z" />
    <circle
       cx="70750"
       cy="44250"
       r="39.370098"
       id="circle196"
       sodipodi:cx="70750"
       sodipodi:cy="44250"
       sodipodi:rx="39.370098"
       sodipodi:ry="39.370098"
       d="m 70789.37,44250 c 0,21.744 -17.626,39.37 -39.37,39.37 -21.744,0 -39.37,-17.626 -39.37,-39.37 0,-21.744 17.626,-39.37 39.37,-39.37 21.744,0 39.37,17.626 39.37,39.37 z" />
    <circle
       cx="70750"
       cy="46250"
       r="39.370098"
       id="circle198"
       sodipodi:cx="70750"
       sodipodi:cy="46250"
       sodipodi:rx="39.370098"
       sodipodi:ry="39.370098"
       d="m 70789.37,46250 c 0,21.744 -17.626,39.37 -39.37,39.37 -21.744,0 -39.37,-17.626 -39.37,-39.37 0,-21.744 17.626,-39.37 39.37,-39.37 21.744,0 39.37,17.626 39.37,39.37 z" />
    <circle
       cx="70750"
       cy="48250"
       r="39.370098"
       id="circle200"
       sodipodi:cx="70750"
       sodipodi:cy="48250"
       sodipodi:rx="39.370098"
       sodipodi:ry="39.370098"
       d="m 70789.37,48250 c 0,21.744 -17.626,39.37 -39.37,39.37 -21.744,0 -39.37,-17.626 -39.37,-39.37 0,-21.744 17.626,-39.37 39.37,-39.37 21.744,0 39.37,17.626 39.37,39.37 z" />
    <circle
       cx="86000"
       cy="52500"
       r="39.370098"
       id="circle202"
       sodipodi:cx="86000"
       sodipodi:cy="52500"
       sodipodi:rx="39.370098"
       sodipodi:ry="39.370098"
       d="m 86039.37,52500 c 0,21.744 -17.626,39.37 -39.37,39.37 -21.744,0 -39.37,-17.626 -39.37,-39.37 0,-21.744 17.626,-39.37 39.37,-39.37 21.744,0 39.37,17.626 39.37,39.37 z" />
    <circle
       cx="88000"
       cy="52500"
       r="39.370098"
       id="circle204"
       sodipodi:cx="88000"
       sodipodi:cy="52500"
       sodipodi:rx="39.370098"
       sodipodi:ry="39.370098"
       d="m 88039.37,52500 c 0,21.744 -17.626,39.37 -39.37,39.37 -21.744,0 -39.37,-17.626 -39.37,-39.37 0,-21.744 17.626,-39.37 39.37,-39.37 21.744,0 39.37,17.626 39.37,39.37 z" />
    <circle
       cx="86000"
       cy="42500"
       r="39.370098"
       id="circle206"
       sodipodi:cx="86000"
       sodipodi:cy="42500"
       sodipodi:rx="39.370098"
       sodipodi:ry="39.370098"
       d="m 86039.37,42500 c 0,21.744 -17.626,39.37 -39.37,39.37 -21.744,0 -39.37,-17.626 -39.37,-39.37 0,-21.744 17.626,-39.37 39.37,-39.37 21.744,0 39.37,17.626 39.37,39.37 z" />
    <circle
       cx="88000"
       cy="42500"
       r="39.370098"
       id="circle208"
       sodipodi:cx="88000"
       sodipodi:cy="42500"
       sodipodi:rx="39.370098"
       sodipodi:ry="39.370098"
       d="m 88039.37,42500 c 0,21.744 -17.626,39.37 -39.37,39.37 -21.744,0 -39.37,-17.626 -39.37,-39.37 0,-21.744 17.626,-39.37 39.37,-39.37 21.744,0 39.37,17.626 39.37,39.37 z" />
    <circle
       cx="81000"
       cy="42500"
       r="39.370098"
       id="circle210"
       sodipodi:cx="81000"
       sodipodi:cy="42500"
       sodipodi:rx="39.370098"
       sodipodi:ry="39.370098"
       d="m 81039.37,42500 c 0,21.744 -17.626,39.37 -39.37,39.37 -21.744,0 -39.37,-17.626 -39.37,-39.37 0,-21.744 17.626,-39.37 39.37,-39.37 21.744,0 39.37,17.626 39.37,39.37 z" />
    <circle
       cx="83000"
       cy="42500"
       r="39.370098"
       id="circle212"
       sodipodi:cx="83000"
       sodipodi:cy="42500"
       sodipodi:rx="39.370098"
       sodipodi:ry="39.370098"
       d="m 83039.37,42500 c 0,21.744 -17.626,39.37 -39.37,39.37 -21.744,0 -39.37,-17.626 -39.37,-39.37 0,-21.744 17.626,-39.37 39.37,-39.37 21.744,0 39.37,17.626 39.37,39.37 z" />
    <circle
       cx="81000"
       cy="52500"
       r="39.370098"
       id="circle214"
       sodipodi:cx="81000"
       sodipodi:cy="52500"
       sodipodi:rx="39.370098"
       sodipodi:ry="39.370098"
       d="m 81039.37,52500 c 0,21.744 -17.626,39.37 -39.37,39.37 -21.744,0 -39.37,-17.626 -39.37,-39.37 0,-21.744 17.626,-39.37 39.37,-39.37 21.744,0 39.37,17.626 39.37,39.37 z" />
    <circle
       cx="83000"
       cy="52500"
       r="39.370098"
       id="circle216"
       sodipodi:cx="83000"
       sodipodi:cy="52500"
       sodipodi:rx="39.370098"
       sodipodi:ry="39.370098"
       d="m 83039.37,52500 c 0,21.744 -17.626,39.37 -39.37,39.37 -21.744,0 -39.37,-17.626 -39.37,-39.37 0,-21.744 17.626,-39.37 39.37,-39.37 21.744,0 39.37,17.626 39.37,39.37 z" />
  </g>
</svg>
