<?xml version="1.0" standalone="no"?>
 <!DOCTYPE svg PUBLIC "-//W3C//DTD SVG 1.1//EN" 
 "http://www.w3.org/Graphics/SVG/1.1/DTD/svg11.dtd"> 
<svg xmlns="http://www.w3.org/2000/svg" version="1.1" 
    width="41.9989cm" height="29.7002cm" viewBox="0 0 165350 116930 ">
<title>SVG Picture created as speaker_relay-F_SilkS.svg date 2015/06/23 14:15:06 </title>
  <desc>Picture generated by PCBNEW </desc>
<g style="fill:#000000; fill-opacity:1;stroke:#000000; stroke-opacity:1;
stroke-linecap:round; stroke-linejoin:round; "
 transform="translate(0 0) scale(1 1)">
</g>
<g style="fill:#000000; fill-opacity:0.0; 
stroke:#000000; stroke-width:59.0551; stroke-opacity:1; 
stroke-linecap:round; stroke-linejoin:round;">
<circle cx="70750" cy="53250" r="500" /> 
<circle cx="70750" cy="41750" r="500" /> 
<circle cx="90500" cy="53250" r="500" /> 
<circle cx="90500" cy="41750" r="500" /> 
<path d="M88750 45000
L88750 50000
" />
<path d="M77000 45000
L88750 45000
" />
<path d="M88750 50000
L88500 50000
" />
<path d="M77000 45000
L77000 50000
" />
<path d="M77000 50000
L88500 50000
" />
<path d="M86000 46500
L86000 46750
" />
<path d="M86000 46750
L84250 47000
" />
<path d="M86000 46000
L86000 46500
" />
<path d="M88000 46000
L88000 47000
" />
<path d="M84000 46000
L84000 47000
" />
<path d="M86000 49000
L86000 48250
" />
<path d="M86000 48250
L84250 47750
" />
<path d="M88000 49000
L88000 47750
" />
<path d="M84000 49000
L84000 47750
" />
</g>
<g style="fill:#000000; fill-opacity:0.0; 
stroke:#000000; stroke-width:120; stroke-opacity:1; 
stroke-linecap:round; stroke-linejoin:round;">
<path d="M76000 53250
L77500 51750
" />
<path d="M77500 51750
L77500 51250
" />
<path d="M77500 51250
L77000 50750
" />
<path d="M77000 50750
L76000 50750
" />
<path d="M76000 50750
L75000 51750
" />
<path d="M75000 51750
L75000 52750
" />
<path d="M75000 52750
L75500 53250
" />
<path d="M75500 53250
L76000 53250
" />
<path d="M74750 50000
L74350 50000
" />
<path d="M74350 50000
L74350 50400
" />
<path d="M74350 50400
L71150 50400
" />
<path d="M71150 50400
L71150 49600
" />
<path d="M71150 49600
L74350 49600
" />
<path d="M74350 49600
L74350 50000
" />
<path d="M74350 50200
L74150 50400
" />
<path d="M70750 50000
L71150 50000
" />
<path d="M73750 46250
L73750 45850
" />
<path d="M73750 45850
L73350 45850
" />
<path d="M73350 45850
L73350 42650
" />
<path d="M73350 42650
L74150 42650
" />
<path d="M74150 42650
L74150 45850
" />
<path d="M74150 45850
L73750 45850
" />
<path d="M73550 45850
L73350 45650
" />
<path d="M73750 42250
L73750 42650
" />
</g>
<g style="fill:#000000; fill-opacity:0.0; 
stroke:#000000; stroke-width:100; stroke-opacity:1; 
stroke-linecap:round; stroke-linejoin:round;">
<path d="M73250 48720
L74250 48720
" />
</g>
<g style="fill:#000000; fill-opacity:0.0; 
stroke:#000000; stroke-width:60; stroke-opacity:1; 
stroke-linecap:round; stroke-linejoin:round;">
<path d="M74134.1 47639 A600 600 0.0 0 0 73750 47500 " />
<path d="M73750 47500.7 A599.256 599.256 0.0 0 0 73352.1 47651.9 " />
<path d="M73750 48699.3 A599.27 599.27 0.0 0 0 74140 48555 " />
<path d="M73365.9 48561 A600 600 0.0 0 0 73750 48700 " />
<path d="M74099.3 48587.9 A600 600 0.0 0 0 74350 48100 " />
<path d="M74350 48100 A600 600 0.0 0 0 74110.3 47620.2 " />
<path d="M73150.7 48100 A599.294 599.294 0.0 0 0 73381.9 48572.9 " />
<path d="M73381.4 47626.5 A600 600 0.0 0 0 73150 48100 " />
<path d="M74000 48100 A250 250 0.0 0 0 73750 47850 " />
<path d="M74150 48100 A400 400 0.0 0 0 73750 47700 " />
<path d="M73500 48100 A250 250 0.0 0 0 73750 48350 " />
<path d="M73350 48100 A400 400 0.0 0 0 73750 48500 " />
</g>
<g style="fill:#000000; fill-opacity:0.0; 
stroke:#000000; stroke-width:100; stroke-opacity:1; 
stroke-linecap:round; stroke-linejoin:round;">
<path d="M74263.2 48713.7 A800 800 0.0 0 0 74550 48100 " />
<path d="M74549 48100 A799 799 0.0 0 0 74126.3 47395.2 " />
<path d="M72951 48101.4 A798.972 798.972 0.0 0 0 73234.3 48710.3 " />
<path d="M73352.4 47405.8 A800 800 0.0 0 0 72950 48100 " />
<path d="M74129.3 47395.6 A800 800 0.0 0 0 73750 47300 " />
<path d="M73750 47300.4 A799.576 799.576 0.0 0 0 73331 47419 " />
</g>
<g style="fill:#000000; fill-opacity:0.0; 
stroke:#000000; stroke-width:120; stroke-opacity:1; 
stroke-linecap:round; stroke-linejoin:round;">
<path d="M75250 48000
L75250 45000
" />
<path d="M75250 45000
L76250 45000
" />
<path d="M76250 45000
L76250 48000
" />
<path d="M76250 48000
L75250 48000
" />
<path d="M75250 45250
L76250 45250
" />
<path d="M76250 45500
L75250 45500
" />
<path d="M75750 48000
L75750 48500
" />
<path d="M75750 45000
L75750 44500
" />
<path d="M69250 43250
L72250 43250
" />
<path d="M69250 49250
L72250 49250
" />
<path d="M69750 43250
L69750 49250
" />
<path d="M72250 43250
L72250 49250
" />
<path d="M69250 43250
L69250 49250
" />
<path d="M89000 53500
L85000 53500
" />
<path d="M89000 54000
L89000 51000
" />
<path d="M89000 51000
L85000 51000
" />
<path d="M85000 51000
L85000 54000
" />
<path d="M85000 54000
L89000 54000
" />
<path d="M89000 43500
L85000 43500
" />
<path d="M89000 44000
L89000 41000
" />
<path d="M89000 41000
L85000 41000
" />
<path d="M85000 41000
L85000 44000
" />
<path d="M85000 44000
L89000 44000
" />
<path d="M84000 43500
L80000 43500
" />
<path d="M84000 44000
L84000 41000
" />
<path d="M84000 41000
L80000 41000
" />
<path d="M80000 41000
L80000 44000
" />
<path d="M80000 44000
L84000 44000
" />
<path d="M84000 53500
L80000 53500
" />
<path d="M84000 54000
L84000 51000
" />
<path d="M84000 51000
L80000 51000
" />
<path d="M80000 51000
L80000 54000
" />
<path d="M80000 54000
L84000 54000
" />
<path d="M84057 50742
L84057 50142
" />
<path d="M84400 50742
L84142 50400
" />
<path d="M84400 50142
L84057 50485
" />
<path d="M84971 50742
L84628 50742
" />
<path d="M84800 50742
L84800 50142
L84742 50228
L84685 50285
L84628 50314
" />
<path d="M81757 47742
L81557 47457
" />
<path d="M81414 47742
L81414 47142
L81642 47142
L81700 47171
L81728 47200
L81757 47257
L81757 47342
L81728 47400
L81700 47428
L81642 47457
L81414 47457
" />
<path d="M82014 47428
L82214 47428
" />
<path d="M82300 47742
L82014 47742
L82014 47142
L82300 47142
" />
<path d="M82842 47742
L82557 47742
L82557 47142
" />
<path d="M83014 47571
L83300 47571
" />
<path d="M82957 47742
L83157 47142
L83357 47742
" />
<path d="M83671 47457
L83671 47742
" />
<path d="M83471 47142
L83671 47457
L83871 47142
" />
<path d="M83928 47800
L84385 47800
" />
<path d="M84871 47742
L84671 47457
" />
<path d="M84528 47742
L84528 47142
L84757 47142
L84814 47171
L84842 47200
L84871 47257
L84871 47342
L84842 47400
L84814 47428
L84757 47457
L84528 47457
" />
<path d="M85128 47428
L85328 47428
" />
<path d="M85414 47742
L85128 47742
L85128 47142
L85414 47142
" />
<path d="M85957 47742
L85671 47742
L85671 47142
" />
<path d="M86157 47742
L86157 47142
L86385 47142
L86442 47171
L86471 47200
L86500 47257
L86500 47342
L86471 47400
L86442 47428
L86385 47457
L86157 47457
" />
<path d="M86871 47142
L86985 47142
L87042 47171
L87100 47228
L87128 47342
L87128 47542
L87100 47657
L87042 47714
L86985 47742
L86871 47742
L86814 47714
L86757 47657
L86728 47542
L86728 47342
L86757 47228
L86814 47171
L86871 47142
" />
<path d="M87671 47742
L87385 47742
L87385 47142
" />
</g>
<g style="fill:#000000; fill-opacity:0.0; 
stroke:#000000; stroke-width:80; stroke-opacity:1; 
stroke-linecap:round; stroke-linejoin:round;">
<path d="M75961 53950
L75923 53930
L75885 53892
L75828 53835
L75790 53816
L75752 53816
" />
<path d="M75771 53911
L75733 53892
L75695 53854
L75676 53778
L75676 53645
L75695 53569
L75733 53530
L75771 53511
L75847 53511
L75885 53530
L75923 53569
L75942 53645
L75942 53778
L75923 53854
L75885 53892
L75847 53911
L75771 53911
" />
<path d="M76323 53911
L76095 53911
" />
<path d="M76209 53911
L76209 53511
L76171 53569
L76133 53607
L76095 53626
" />
<path d="M75476 50411
L75476 50011
L75704 50411
L75704 50011
" />
<path d="M75895 50411
L75895 50011
L76047 50011
L76085 50030
L76104 50050
L76123 50088
L76123 50145
L76104 50183
L76085 50202
L76047 50221
L75895 50221
" />
<path d="M76295 50411
L76295 50011
L76523 50411
L76523 50011
" />
<path d="M72666 50222
L72500 49960
" />
<path d="M72380 50222
L72380 49672
L72571 49672
L72619 49698
L72642 49725
L72666 49777
L72666 49855
L72642 49908
L72619 49934
L72571 49960
L72380 49960
" />
<path d="M73142 50222
L72857 50222
" />
<path d="M73000 50222
L73000 49672
L72952 49751
L72904 49803
L72857 49829
" />
<path d="M73972 44583
L73710 44750
" />
<path d="M73972 44869
L73422 44869
L73422 44678
L73448 44630
L73475 44607
L73527 44583
L73605 44583
L73658 44607
L73684 44630
L73710 44678
L73710 44869
" />
<path d="M73475 44392
L73448 44369
L73422 44321
L73422 44202
L73448 44154
L73475 44130
L73527 44107
L73579 44107
L73658 44130
L73972 44416
L73972 44107
" />
</g>
<g style="fill:#000000; fill-opacity:0.0; 
stroke:#000000; stroke-width:35; stroke-opacity:1; 
stroke-linecap:round; stroke-linejoin:round;">
<path d="M74971 48921
L74671 48921
L74671 48850
L74685 48807
L74714 48778
L74742 48764
L74800 48750
L74842 48750
L74900 48764
L74928 48778
L74957 48807
L74971 48850
L74971 48921
" />
<path d="M74971 48464
L74971 48635
" />
<path d="M74971 48550
L74671 48550
L74714 48578
L74742 48607
L74757 48635
" />
<path d="M72871 48192
L72871 48335
L72571 48335
" />
<path d="M72714 48092
L72714 47992
" />
<path d="M72871 47950
L72871 48092
L72571 48092
L72571 47950
" />
<path d="M72871 47821
L72571 47821
L72571 47750
L72585 47707
L72614 47678
L72642 47664
L72700 47650
L72742 47650
L72800 47664
L72828 47678
L72857 47707
L72871 47750
L72871 47821
" />
</g>
<g style="fill:#000000; fill-opacity:0.0; 
stroke:#000000; stroke-width:80; stroke-opacity:1; 
stroke-linecap:round; stroke-linejoin:round;">
<path d="M75454 46702
L75454 46202
L75550 46202
L75607 46226
L75645 46273
L75664 46321
L75683 46416
L75683 46488
L75664 46583
L75645 46630
L75607 46678
L75550 46702
L75454 46702
" />
<path d="M75835 46250
L75854 46226
L75892 46202
L75988 46202
L76026 46226
L76045 46250
L76064 46297
L76064 46345
L76045 46416
L75816 46702
L76064 46702
" />
</g>
<g style="fill:#000000; fill-opacity:0.0; 
stroke:#000000; stroke-width:120; stroke-opacity:1; 
stroke-linecap:round; stroke-linejoin:round;">
<path d="M72992 46692
L72392 46692
" />
<path d="M72992 46350
L72650 46607
" />
<path d="M72392 46350
L72735 46692
" />
<path d="M72450 46121
L72421 46092
L72392 46035
L72392 45892
L72421 45835
L72450 45807
L72507 45778
L72564 45778
L72650 45807
L72992 46150
L72992 45778
" />
<path d="M68935 47521
L68964 47549
L68992 47635
L68992 47692
L68964 47778
L68907 47835
L68850 47864
L68735 47892
L68650 47892
L68535 47864
L68478 47835
L68421 47778
L68392 47692
L68392 47635
L68421 47549
L68450 47521
" />
<path d="M68392 47149
L68392 47035
L68421 46978
L68478 46921
L68592 46892
L68792 46892
L68907 46921
L68964 46978
L68992 47035
L68992 47149
L68964 47207
L68907 47264
L68792 47292
L68592 47292
L68478 47264
L68421 47207
L68392 47149
" />
<path d="M68992 46635
L68392 46635
L68992 46292
L68392 46292
" />
<path d="M68992 46007
L68392 46007
L68992 45664
L68392 45664
" />
<path d="M69050 45521
L69050 45064
" />
<path d="M68392 44978
L68392 44607
L68621 44807
L68621 44721
L68650 44664
L68678 44635
L68735 44607
L68878 44607
L68935 44635
L68964 44664
L68992 44721
L68992 44892
L68964 44950
L68935 44978
" />
<path d="M86557 50742
L86557 50142
L86785 50142
L86842 50171
L86871 50200
L86900 50257
L86900 50342
L86871 50400
L86842 50428
L86785 50457
L86557 50457
" />
<path d="M87100 50142
L87471 50142
L87271 50371
L87357 50371
L87414 50400
L87442 50428
L87471 50485
L87471 50628
L87442 50685
L87414 50714
L87357 50742
L87185 50742
L87128 50714
L87100 50685
" />
<path d="M85728 54685
L85700 54714
L85614 54742
L85557 54742
L85471 54714
L85414 54657
L85385 54600
L85357 54485
L85357 54400
L85385 54285
L85414 54228
L85471 54171
L85557 54142
L85614 54142
L85700 54171
L85728 54200
" />
<path d="M86100 54142
L86214 54142
L86271 54171
L86328 54228
L86357 54342
L86357 54542
L86328 54657
L86271 54714
L86214 54742
L86100 54742
L86042 54714
L85985 54657
L85957 54542
L85957 54342
L85985 54228
L86042 54171
L86100 54142
" />
<path d="M86614 54742
L86614 54142
L86957 54742
L86957 54142
" />
<path d="M87242 54742
L87242 54142
L87585 54742
L87585 54142
" />
<path d="M87728 54800
L88185 54800
" />
<path d="M88300 54200
L88328 54171
L88385 54142
L88528 54142
L88585 54171
L88614 54200
L88642 54257
L88642 54314
L88614 54400
L88271 54742
L88642 54742
" />
<path d="M86557 40742
L86557 40142
L86785 40142
L86842 40171
L86871 40200
L86900 40257
L86900 40342
L86871 40400
L86842 40428
L86785 40457
L86557 40457
" />
<path d="M87471 40742
L87128 40742
" />
<path d="M87300 40742
L87300 40142
L87242 40228
L87185 40285
L87128 40314
" />
<path d="M85728 44685
L85700 44714
L85614 44742
L85557 44742
L85471 44714
L85414 44657
L85385 44600
L85357 44485
L85357 44400
L85385 44285
L85414 44228
L85471 44171
L85557 44142
L85614 44142
L85700 44171
L85728 44200
" />
<path d="M86100 44142
L86214 44142
L86271 44171
L86328 44228
L86357 44342
L86357 44542
L86328 44657
L86271 44714
L86214 44742
L86100 44742
L86042 44714
L85985 44657
L85957 44542
L85957 44342
L85985 44228
L86042 44171
L86100 44142
" />
<path d="M86614 44742
L86614 44142
L86957 44742
L86957 44142
" />
<path d="M87242 44742
L87242 44142
L87585 44742
L87585 44142
" />
<path d="M87728 44800
L88185 44800
" />
<path d="M88300 44200
L88328 44171
L88385 44142
L88528 44142
L88585 44171
L88614 44200
L88642 44257
L88642 44314
L88614 44400
L88271 44742
L88642 44742
" />
<path d="M81557 40742
L81557 40142
L81785 40142
L81842 40171
L81871 40200
L81900 40257
L81900 40342
L81871 40400
L81842 40428
L81785 40457
L81557 40457
" />
<path d="M82128 40200
L82157 40171
L82214 40142
L82357 40142
L82414 40171
L82442 40200
L82471 40257
L82471 40314
L82442 40400
L82100 40742
L82471 40742
" />
<path d="M80728 44685
L80700 44714
L80614 44742
L80557 44742
L80471 44714
L80414 44657
L80385 44600
L80357 44485
L80357 44400
L80385 44285
L80414 44228
L80471 44171
L80557 44142
L80614 44142
L80700 44171
L80728 44200
" />
<path d="M81100 44142
L81214 44142
L81271 44171
L81328 44228
L81357 44342
L81357 44542
L81328 44657
L81271 44714
L81214 44742
L81100 44742
L81042 44714
L80985 44657
L80957 44542
L80957 44342
L80985 44228
L81042 44171
L81100 44142
" />
<path d="M81614 44742
L81614 44142
L81957 44742
L81957 44142
" />
<path d="M82242 44742
L82242 44142
L82585 44742
L82585 44142
" />
<path d="M82728 44800
L83185 44800
" />
<path d="M83300 44200
L83328 44171
L83385 44142
L83528 44142
L83585 44171
L83614 44200
L83642 44257
L83642 44314
L83614 44400
L83271 44742
L83642 44742
" />
<path d="M81557 50742
L81557 50142
L81785 50142
L81842 50171
L81871 50200
L81900 50257
L81900 50342
L81871 50400
L81842 50428
L81785 50457
L81557 50457
" />
<path d="M82414 50342
L82414 50742
" />
<path d="M82271 50114
L82128 50542
L82500 50542
" />
<path d="M80728 54685
L80700 54714
L80614 54742
L80557 54742
L80471 54714
L80414 54657
L80385 54600
L80357 54485
L80357 54400
L80385 54285
L80414 54228
L80471 54171
L80557 54142
L80614 54142
L80700 54171
L80728 54200
" />
<path d="M81100 54142
L81214 54142
L81271 54171
L81328 54228
L81357 54342
L81357 54542
L81328 54657
L81271 54714
L81214 54742
L81100 54742
L81042 54714
L80985 54657
L80957 54542
L80957 54342
L80985 54228
L81042 54171
L81100 54142
" />
<path d="M81614 54742
L81614 54142
L81957 54742
L81957 54142
" />
<path d="M82242 54742
L82242 54142
L82585 54742
L82585 54142
" />
<path d="M82728 54800
L83185 54800
" />
<path d="M83300 54200
L83328 54171
L83385 54142
L83528 54142
L83585 54171
L83614 54200
L83642 54257
L83642 54314
L83614 54400
L83271 54742
L83642 54742
" />
</g> 
</svg>
