<?xml version="1.0" standalone="no"?>
 <!DOCTYPE svg PUBLIC "-//W3C//DTD SVG 1.1//EN" 
 "http://www.w3.org/Graphics/SVG/1.1/DTD/svg11.dtd"> 
<svg xmlns="http://www.w3.org/2000/svg" version="1.1" 
    width="21.0007cm" height="29.7002cm" viewBox="0 0 82680 116930 ">
<title>SVG Picture created as bridge_fuse-F_Mask.svg date 2015/06/29 16:41:33 </title>
  <desc>Picture generated by PCBNEW </desc>
<g style="fill:#000000; fill-opacity:1;stroke:#000000; stroke-opacity:1;
stroke-linecap:round; stroke-linejoin:round; "
 transform="translate(0 0) scale(1 1)">
</g>
<g style="fill:#000000; fill-opacity:0.0; 
stroke:#000000; stroke-width:39.3701; stroke-opacity:1; 
stroke-linecap:round; stroke-linejoin:round;">
<circle cx="15250" cy="39000" r="500" /> 
<circle cx="38000" cy="39000" r="500" /> 
<circle cx="38000" cy="21750" r="500" /> 
<circle cx="15250" cy="21750" r="500" /> 
</g>
<g style="fill:#000000; fill-opacity:1.0; 
stroke:#000000; stroke-width:59.0551; stroke-opacity:1; 
stroke-linecap:round; stroke-linejoin:round;">
<polyline style="fill-rule:evenodd;"
points="16079,28697
16077,28818
16050,28937
16008,29033
15937,29133
15861,29205
15758,29271
15660,29309
15540,29330
15435,29328
15315,29302
15220,29260
15119,29190
15046,29115
14980,29011
14941,28915
14919,28793
14921,28690
14946,28569
14987,28474
15057,28371
15131,28299
15235,28231
15330,28193
15452,28169
15555,28170
15677,28195
15772,28235
15875,28305
15947,28377
16016,28481
16055,28576
16079,28697
" /> 
<polyline style="fill-rule:evenodd;"
points="16079,30697
16077,30818
16050,30937
16008,31033
15937,31133
15861,31205
15758,31271
15660,31309
15540,31330
15435,31328
15315,31302
15220,31260
15119,31190
15046,31115
14980,31011
14941,30915
14919,30793
14921,30690
14946,30569
14987,30474
15057,30371
15131,30299
15235,30231
15330,30193
15452,30169
15555,30170
15677,30195
15772,30235
15875,30305
15947,30377
16016,30481
16055,30576
16079,30697
" /> 
<polyline style="fill-rule:evenodd;"
points="16079,27329
14920,27329
14920,26170
16079,26170
16079,27329
" /> 
<polyline style="fill-rule:evenodd;"
points="18104,28219
18103,28290
18086,28366
18061,28422
18016,28485
17972,28527
17906,28569
17850,28591
17772,28605
17712,28603
17635,28587
17580,28562
17515,28517
17474,28474
17431,28408
17409,28352
17394,28274
17395,28215
17412,28137
17435,28082
17480,28017
17522,27975
17589,27932
17644,27910
17723,27894
17781,27895
17860,27911
17914,27934
17981,27979
18022,28020
18067,28087
18089,28141
18104,28219
" /> 
<polyline style="fill-rule:evenodd;"
points="18104,34719
18103,34790
18086,34866
18061,34922
18016,34985
17972,35027
17906,35069
17850,35091
17772,35105
17712,35103
17635,35087
17580,35062
17515,35017
17474,34974
17431,34908
17409,34852
17394,34774
17395,34715
17412,34637
17435,34582
17480,34517
17522,34475
17589,34432
17644,34410
17723,34394
17781,34395
17860,34411
17914,34434
17981,34479
18022,34520
18067,34587
18089,34641
18104,34719
" /> 
<polyline style="fill-rule:evenodd;"
points="18104,23854
17395,23854
17395,23145
18104,23145
18104,23854
" /> 
<polyline style="fill-rule:evenodd;"
points="18104,30104
17395,30104
17395,29395
18104,29395
18104,30104
" /> 
<polyline style="fill-rule:evenodd;"
points="19604,32469
19603,32540
19586,32616
19561,32672
19516,32735
19472,32777
19406,32819
19350,32841
19272,32855
19212,32853
19135,32837
19080,32812
19015,32767
18974,32724
18931,32658
18909,32602
18894,32524
18895,32465
18912,32387
18935,32332
18980,32267
19022,32225
19089,32182
19144,32160
19223,32144
19281,32145
19360,32161
19414,32184
19481,32229
19522,32270
19567,32337
19589,32391
19604,32469
" /> 
<polyline style="fill-rule:evenodd;"
points="19604,26854
18895,26854
18895,26145
19604,26145
19604,26854
" /> 
<polyline style="fill-rule:evenodd;"
points="23817,27434
23817,27447
23816,27457
23816,27457
23797,27625
23797,27625
23797,27626
23746,27786
23664,27935
23556,28064
23423,28170
23274,28248
23111,28296
22944,28311
22775,28294
22614,28244
22465,28163
22335,28056
22228,27924
22149,27775
22100,27613
22082,27434
22082,25865
22082,25852
22083,25842
22083,25842
22102,25674
22102,25674
22102,25673
22153,25513
22235,25364
22343,25235
22476,25129
22625,25051
22788,25003
22955,24988
23124,25005
23285,25055
23434,25136
23564,25243
23671,25375
23750,25524
23799,25686
23817,25865
23817,27434
" /> 
<polyline style="fill-rule:evenodd;"
points="23817,33084
23817,33097
23816,33107
23816,33107
23797,33275
23797,33275
23797,33276
23746,33436
23664,33585
23556,33714
23423,33820
23274,33898
23111,33946
22944,33961
22775,33944
22614,33894
22465,33813
22335,33706
22228,33574
22149,33425
22100,33263
22082,33084
22082,31515
22082,31502
22083,31492
22083,31492
22102,31324
22102,31324
22102,31323
22153,31163
22235,31014
22343,30885
22476,30779
22625,30701
22788,30653
22955,30638
23124,30655
23285,30705
23434,30786
23564,30893
23671,31025
23750,31174
23799,31336
23817,31515
23817,33084
" /> 
<polyline style="fill-rule:evenodd;"
points="24104,37104
23395,37104
23395,36395
24104,36395
24104,37104
" /> 
<polyline style="fill-rule:evenodd;"
points="24854,22604
24145,22604
24145,21895
24854,21895
24854,22604
" /> 
<polyline style="fill-rule:evenodd;"
points="30104,36719
30103,36790
30086,36866
30061,36922
30016,36985
29972,37027
29906,37069
29850,37091
29772,37105
29712,37103
29635,37087
29580,37062
29515,37017
29474,36974
29431,36908
29409,36852
29394,36774
29395,36715
29412,36637
29435,36582
29480,36517
29522,36475
29589,36432
29644,36410
29723,36394
29781,36395
29860,36411
29914,36434
29981,36479
30022,36520
30067,36587
30089,36641
30104,36719
" /> 
<polyline style="fill-rule:evenodd;"
points="30854,22219
30853,22290
30836,22366
30811,22422
30766,22485
30722,22527
30656,22569
30600,22591
30522,22605
30462,22603
30385,22587
30330,22562
30265,22517
30224,22474
30181,22408
30159,22352
30144,22274
30145,22215
30162,22137
30185,22082
30230,22017
30272,21975
30339,21932
30394,21910
30473,21894
30531,21895
30610,21911
30664,21934
30731,21979
30772,22020
30817,22087
30839,22141
30854,22219
" /> 
<polyline style="fill-rule:evenodd;"
points="30967,33034
30967,33047
30966,33057
30966,33057
30947,33225
30947,33225
30947,33226
30896,33386
30814,33535
30706,33664
30573,33770
30424,33848
30261,33896
30094,33911
29925,33894
29764,33844
29615,33763
29485,33656
29378,33524
29299,33375
29250,33213
29232,33034
29232,31465
29232,31452
29233,31442
29233,31442
29252,31274
29252,31274
29252,31273
29303,31113
29385,30964
29493,30835
29626,30729
29775,30651
29938,30603
30105,30588
30274,30605
30435,30655
30584,30736
30714,30843
30821,30975
30900,31124
30949,31286
30967,31465
30967,33034
" /> 
<polyline style="fill-rule:evenodd;"
points="31011,25905
30994,26074
30944,26235
30863,26384
30756,26514
30624,26621
30475,26700
30313,26749
30134,26767
28565,26767
28552,26767
28542,26766
28542,26766
28374,26747
28374,26747
28373,26747
28213,26696
28064,26614
27935,26506
27829,26373
27751,26224
27703,26061
27688,25894
27705,25725
27755,25564
27836,25415
27943,25285
28075,25178
28224,25099
28386,25050
28565,25032
30134,25032
30147,25032
30157,25033
30157,25033
30325,25052
30325,25052
30326,25052
30486,25103
30635,25185
30764,25293
30870,25426
30948,25575
30996,25738
31011,25905
" /> 
<polyline style="fill-rule:evenodd;"
points="34104,31969
34103,32040
34086,32116
34061,32172
34016,32235
33972,32277
33906,32319
33850,32341
33772,32355
33712,32353
33635,32337
33580,32312
33515,32267
33474,32224
33431,32158
33409,32102
33394,32024
33395,31965
33412,31887
33435,31832
33480,31767
33522,31725
33589,31682
33644,31660
33723,31644
33781,31645
33860,31661
33914,31684
33981,31729
34022,31770
34067,31837
34089,31891
34104,31969
" /> 
<polyline style="fill-rule:evenodd;"
points="34104,26354
33395,26354
33395,25645
34104,25645
34104,26354
" /> 
<polyline style="fill-rule:evenodd;"
points="38329,25947
38327,26068
38300,26187
38258,26283
38187,26383
38111,26455
38008,26521
37910,26559
37790,26580
37685,26578
37565,26552
37470,26510
37369,26440
37296,26365
37230,26261
37191,26165
37169,26043
37171,25940
37196,25819
37237,25724
37307,25621
37381,25549
37485,25481
37580,25443
37702,25419
37805,25420
37927,25445
38022,25485
38125,25555
38197,25627
38266,25731
38305,25826
38329,25947
" /> 
<polyline style="fill-rule:evenodd;"
points="38329,27947
38327,28068
38300,28187
38258,28283
38187,28383
38111,28455
38008,28521
37910,28559
37790,28580
37685,28578
37565,28552
37470,28510
37369,28440
37296,28365
37230,28261
37191,28165
37169,28043
37171,27940
37196,27819
37237,27724
37307,27621
37381,27549
37485,27481
37580,27443
37702,27419
37805,27420
37927,27445
38022,27485
38125,27555
38197,27627
38266,27731
38305,27826
38329,27947
" /> 
<polyline style="fill-rule:evenodd;"
points="38329,30579
37170,30579
37170,29420
38329,29420
38329,30579
" /> 
</g> 
</svg>
