M48
; DRILL file KiCad 10.0.3 date 2026-05-24T19:32:39
; FORMAT={-:-/ absolute / metric / decimal}
; #@! TF.CreationDate,2026-05-24T19:32:39+03:00
; #@! TF.GenerationSoftware,Kicad,Pcbnew,10.0.3
; #@! TF.FileFunction,Plated,1,2,PTH
FMAT,2
METRIC
; #@! TA.AperFunction,Plated,PTH,ComponentDrill
T1C0.800
%
G90
G05
T1
X80.0Y-76.0
X80.01Y-71.12
X80.05Y-66.04
X82.55Y-71.12
X84.455Y-91.44
X85.0Y-76.0
X85.05Y-66.04
X85.09Y-71.12
X86.36Y-121.92
X86.36Y-132.08
X91.44Y-121.92
X91.44Y-132.08
X93.345Y-71.12
X96.52Y-121.92
X96.52Y-132.08
X102.87Y-91.44
X110.49Y-71.12
X110.49Y-119.42
X110.49Y-121.92
X110.49Y-124.42
X110.49Y-126.92
X111.76Y-114.3
X111.76Y-132.08
X119.38Y-114.3
X119.38Y-132.08
X120.0Y-102.0
X120.0Y-107.0
X120.032Y-88.9
X120.032Y-93.9
X120.65Y-119.5
X120.65Y-122.0
X120.65Y-124.5
X120.65Y-127.0
M30
