<?xml version="1.0" standalone="no"?>
 <!DOCTYPE svg PUBLIC "-//W3C//DTD SVG 1.1//EN" 
 "http://www.w3.org/Graphics/SVG/1.1/DTD/svg11.dtd"> 
<svg xmlns="http://www.w3.org/2000/svg" version="1.1" 
    width="21.0007cm" height="29.7002cm" viewBox="0 0 82680 116930 ">
<title>SVG Picture created as soft_start-F_SilkS.svg date 2014/09/30 12:37:14 </title>
  <desc>Picture generated by PCBNEW </desc>
<g style="fill:#000000; fill-opacity:1;stroke:#000000; stroke-opacity:1;
stroke-linecap:round; stroke-linejoin:round; "
 transform="translate(0 0) scale(1 1)">
</g>
<g style="fill:#000000; fill-opacity:0.0; 
stroke:#000000; stroke-width:39.3701; stroke-opacity:1; 
stroke-linecap:round; stroke-linejoin:round;">
<path d="M42250 36750
L42250 35250
" />
<path d="M42250 36750
L55250 36750
" />
<path d="M42250 22500
L42250 35250
" />
<path d="M55250 22500
L42250 22500
" />
<circle cx="63250" cy="35500" r="500" /> 
<circle cx="63000" cy="23750" r="500" /> 
<circle cx="43750" cy="35500" r="500" /> 
<circle cx="43750" cy="23750" r="500" /> 
</g>
<g style="fill:#000000; fill-opacity:0.0; 
stroke:#000000; stroke-width:59.0551; stroke-opacity:1; 
stroke-linecap:round; stroke-linejoin:round;">
<path d="M46187 26620
L46187 32683
" />
<path d="M46187 32683
L53746 32683
" />
<path d="M46187 26620
L53746 26620
" />
<path d="M53746 26620
L53746 32683
" />
</g>
<g style="fill:#000000; fill-opacity:0.0; 
stroke:#000000; stroke-width:120; stroke-opacity:1; 
stroke-linecap:round; stroke-linejoin:round;">
<path d="M58500 31250
L58500 30850
" />
<path d="M58500 30850
L58100 30850
" />
<path d="M58100 30850
L58100 27650
" />
<path d="M58100 27650
L58900 27650
" />
<path d="M58900 27650
L58900 30850
" />
<path d="M58900 30850
L58500 30850
" />
<path d="M58300 30850
L58100 30650
" />
<path d="M58500 27250
L58500 27650
" />
<path d="M57250 33500
L57250 33100
" />
<path d="M57250 33100
L56850 33100
" />
<path d="M56850 33100
L56850 29900
" />
<path d="M56850 29900
L57650 29900
" />
<path d="M57650 29900
L57650 33100
" />
<path d="M57650 33100
L57250 33100
" />
<path d="M57050 33100
L56850 32900
" />
<path d="M57250 29500
L57250 29900
" />
<path d="M56000 28000
L56000 28300
" />
<path d="M56000 28300
L55600 28300
" />
<path d="M55600 28300
L55600 30700
" />
<path d="M55600 30700
L56000 30700
" />
<path d="M56000 30700
L56000 31000
" />
<path d="M56000 30700
L56400 30700
" />
<path d="M56400 30700
L56400 28300
" />
<path d="M56400 28300
L56000 28300
" />
<path d="M55600 28500
L56400 28500
" />
<path d="M56400 28600
L55600 28600
" />
<path d="M52250 25000
L48250 25000
" />
<path d="M52250 25500
L52250 22500
" />
<path d="M52250 22500
L48250 22500
" />
<path d="M48250 22500
L48250 25500
" />
<path d="M48250 25500
L52250 25500
" />
<path d="M42750 31750
L42750 27750
" />
<path d="M42250 31750
L45250 31750
" />
<path d="M45250 31750
L45250 27750
" />
<path d="M45250 27750
L42250 27750
" />
<path d="M42250 27750
L42250 31750
" />
<path d="M61103 32310
L61103 30189
" />
<path d="M61103 30189
L60750 29835
" />
<path d="M60750 29835
L60042 29835
" />
<path d="M60042 29835
L59335 30542
" />
<path d="M59335 30542
L59335 31957
" />
<path d="M59335 31957
L60042 32664
" />
<path d="M60042 32664
L60750 32664
" />
<path d="M60750 32664
L61103 32310
" />
<path d="M51750 36250
L47750 36250
" />
<path d="M51750 36750
L51750 33750
" />
<path d="M51750 33750
L47750 33750
" />
<path d="M47750 33750
L47750 36750
" />
<path d="M47750 36750
L51750 36750
" />
<path d="M55500 25500
L55500 22500
" />
<path d="M61500 25500
L61500 22500
" />
<path d="M55500 25000
L61500 25000
" />
<path d="M55500 22500
L61500 22500
" />
<path d="M55500 25500
L61500 25500
" />
</g>
<g style="fill:#000000; fill-opacity:0.0; 
stroke:#000000; stroke-width:50; stroke-opacity:1; 
stroke-linecap:round; stroke-linejoin:round;">
<circle cx="63000" cy="32000" r="1250" /> 
</g>
<g style="fill:#000000; fill-opacity:0.0; 
stroke:#000000; stroke-width:100; stroke-opacity:1; 
stroke-linecap:round; stroke-linejoin:round;">
<path d="M55780 34750
L55780 35750
" />
</g>
<g style="fill:#000000; fill-opacity:0.0; 
stroke:#000000; stroke-width:60; stroke-opacity:1; 
stroke-linecap:round; stroke-linejoin:round;">
<path d="M56861 35634.1 A600 600 0.0 0 0 57000 35250 " />
<path d="M56999.3 35250 A599.256 599.256 0.0 0 0 56848.1 34852.1 " />
<path d="M55800.7 35250 A599.27 599.27 0.0 0 0 55945 35640 " />
<path d="M55939 34865.9 A600 600 0.0 0 0 55800 35250 " />
<path d="M55912.1 35599.3 A600 600 0.0 0 0 56400 35850 " />
<path d="M56400 35850 A600 600 0.0 0 0 56879.8 35610.3 " />
<path d="M56400 34650.7 A599.294 599.294 0.0 0 0 55927.1 34881.9 " />
<path d="M56873.5 34881.4 A600 600 0.0 0 0 56400 34650 " />
<path d="M56400 35500 A250 250 0.0 0 0 56650 35250 " />
<path d="M56400 35650 A400 400 0.0 0 0 56800 35250 " />
<path d="M56400 35000 A250 250 0.0 0 0 56150 35250 " />
<path d="M56400 34850 A400 400 0.0 0 0 56000 35250 " />
</g>
<g style="fill:#000000; fill-opacity:0.0; 
stroke:#000000; stroke-width:100; stroke-opacity:1; 
stroke-linecap:round; stroke-linejoin:round;">
<path d="M55786.3 35763.2 A800 800 0.0 0 0 56400 36050 " />
<path d="M56400 36049 A799 799 0.0 0 0 57104.8 35626.3 " />
<path d="M56398.6 34451 A798.972 798.972 0.0 0 0 55789.7 34734.3 " />
<path d="M57094.2 34852.4 A800 800 0.0 0 0 56400 34450 " />
<path d="M57104.4 35629.3 A800 800 0.0 0 0 57200 35250 " />
<path d="M57199.6 35250 A799.576 799.576 0.0 0 0 57081 34831 " />
</g>
<g style="fill:#000000; fill-opacity:0.0; 
stroke:#000000; stroke-width:120; stroke-opacity:1; 
stroke-linecap:round; stroke-linejoin:round;">
<path d="M58000 34250
L62000 34250
" />
<path d="M58000 33750
L58000 36750
" />
<path d="M58000 36750
L62000 36750
" />
<path d="M62000 36750
L62000 33750
" />
<path d="M62000 33750
L58000 33750
" />
</g>
<g style="fill:#000000; fill-opacity:0.0; 
stroke:#000000; stroke-width:59.0551; stroke-opacity:1; 
stroke-linecap:round; stroke-linejoin:round;">
<path d="M49606 27409
L49475 27221
" />
<path d="M49381 27409
L49381 27015
L49531 27015
L49568 27034
L49587 27053
L49606 27090
L49606 27146
L49587 27184
L49568 27203
L49531 27221
L49381 27221
" />
<path d="M49962 27409
L49775 27409
L49775 27015
" />
<path d="M50168 27221
L50168 27409
" />
<path d="M50037 27015
L50168 27221
L50299 27015
" />
<path d="M50637 27409
L50412 27409
" />
<path d="M50524 27409
L50524 27015
L50487 27071
L50449 27109
L50412 27128
" />
<path d="M48772 25909
L48640 25721
" />
<path d="M48547 25909
L48547 25515
L48697 25515
L48734 25534
L48753 25553
L48772 25590
L48772 25646
L48753 25684
L48734 25703
L48697 25721
L48547 25721
" />
<path d="M48922 25796
L49109 25796
" />
<path d="M48884 25909
L49015 25515
L49146 25909
" />
<path d="M49259 25890
L49315 25909
L49409 25909
L49446 25890
L49465 25871
L49484 25834
L49484 25796
L49465 25759
L49446 25740
L49409 25721
L49334 25703
L49296 25684
L49278 25665
L49259 25628
L49259 25590
L49278 25553
L49296 25534
L49334 25515
L49428 25515
L49484 25534
" />
<path d="M49653 25759
L49953 25759
" />
<path d="M50215 25515
L50253 25515
L50290 25534
L50309 25553
L50328 25590
L50346 25665
L50346 25759
L50328 25834
L50309 25871
L50290 25890
L50253 25909
L50215 25909
L50178 25890
L50159 25871
L50140 25834
L50121 25759
L50121 25665
L50140 25590
L50159 25553
L50178 25534
L50215 25515
" />
<path d="M50703 25515
L50515 25515
L50496 25703
L50515 25684
L50553 25665
L50646 25665
L50684 25684
L50703 25703
L50721 25740
L50721 25834
L50703 25871
L50684 25890
L50646 25909
L50553 25909
L50515 25890
L50496 25871
" />
<path d="M51096 25909
L50871 25909
" />
<path d="M50984 25909
L50984 25515
L50946 25571
L50909 25609
L50871 25628
" />
<path d="M51452 25515
L51265 25515
L51246 25703
L51265 25684
L51302 25665
L51396 25665
L51434 25684
L51452 25703
L51471 25740
L51471 25834
L51452 25871
L51434 25890
L51396 25909
L51302 25909
L51265 25890
L51246 25871
" />
</g>
<g style="fill:#000000; fill-opacity:0.0; 
stroke:#000000; stroke-width:80; stroke-opacity:1; 
stroke-linecap:round; stroke-linejoin:round;">
<path d="M58416 29472
L58250 29210
" />
<path d="M58130 29472
L58130 28922
L58321 28922
L58369 28948
L58392 28975
L58416 29027
L58416 29105
L58392 29158
L58369 29184
L58321 29210
L58130 29210
" />
<path d="M58892 29472
L58607 29472
" />
<path d="M58750 29472
L58750 28922
L58702 29001
L58654 29053
L58607 29079
" />
<path d="M57472 32333
L57210 32500
" />
<path d="M57472 32619
L56922 32619
L56922 32428
L56948 32380
L56975 32357
L57027 32333
L57105 32333
L57158 32357
L57184 32380
L57210 32428
L57210 32619
" />
<path d="M56975 32142
L56948 32119
L56922 32071
L56922 31952
L56948 31904
L56975 31880
L57027 31857
L57079 31857
L57158 31880
L57472 32166
L57472 31857
" />
<path d="M55911 29795
L55511 29795
L55511 29699
L55530 29642
L55569 29604
L55607 29585
L55683 29566
L55740 29566
L55816 29585
L55854 29604
L55892 29642
L55911 29699
L55911 29795
" />
<path d="M55550 29414
L55530 29395
L55511 29357
L55511 29261
L55530 29223
L55550 29204
L55588 29185
L55626 29185
L55683 29204
L55911 29433
L55911 29185
" />
</g>
<g style="fill:#000000; fill-opacity:0.0; 
stroke:#000000; stroke-width:120; stroke-opacity:1; 
stroke-linecap:round; stroke-linejoin:round;">
<path d="M49557 26492
L49557 25892
L49785 25892
L49842 25921
L49871 25950
L49900 26007
L49900 26092
L49871 26150
L49842 26178
L49785 26207
L49557 26207
" />
<path d="M50471 26492
L50128 26492
" />
<path d="M50300 26492
L50300 25892
L50242 25978
L50185 26035
L50128 26064
" />
<path d="M48978 22185
L48950 22214
L48864 22242
L48807 22242
L48721 22214
L48664 22157
L48635 22100
L48607 21985
L48607 21900
L48635 21785
L48664 21728
L48721 21671
L48807 21642
L48864 21642
L48950 21671
L48978 21700
" />
<path d="M49350 21642
L49464 21642
L49521 21671
L49578 21728
L49607 21842
L49607 22042
L49578 22157
L49521 22214
L49464 22242
L49350 22242
L49292 22214
L49235 22157
L49207 22042
L49207 21842
L49235 21728
L49292 21671
L49350 21642
" />
<path d="M49864 22242
L49864 21642
L50207 22242
L50207 21642
" />
<path d="M50492 22242
L50492 21642
L50835 22242
L50835 21642
" />
<path d="M50978 22300
L51435 22300
" />
<path d="M51550 21700
L51578 21671
L51635 21642
L51778 21642
L51835 21671
L51864 21700
L51892 21757
L51892 21814
L51864 21900
L51521 22242
L51892 22242
" />
<path d="M41742 30192
L41142 30192
L41142 29964
L41171 29907
L41200 29878
L41257 29850
L41342 29850
L41400 29878
L41428 29907
L41457 29964
L41457 30192
" />
<path d="M41200 29621
L41171 29592
L41142 29535
L41142 29392
L41171 29335
L41200 29307
L41257 29278
L41314 29278
L41400 29307
L41742 29650
L41742 29278
" />
<path d="M40685 31271
L40714 31299
L40742 31385
L40742 31442
L40714 31528
L40657 31585
L40600 31614
L40485 31642
L40400 31642
L40285 31614
L40228 31585
L40171 31528
L40142 31442
L40142 31385
L40171 31299
L40200 31271
" />
<path d="M40142 30899
L40142 30785
L40171 30728
L40228 30671
L40342 30642
L40542 30642
L40657 30671
L40714 30728
L40742 30785
L40742 30899
L40714 30957
L40657 31014
L40542 31042
L40342 31042
L40228 31014
L40171 30957
L40142 30899
" />
<path d="M40742 30385
L40142 30385
L40742 30042
L40142 30042
" />
<path d="M40742 29757
L40142 29757
L40742 29414
L40142 29414
" />
<path d="M40800 29271
L40800 28814
" />
<path d="M40200 28700
L40171 28671
L40142 28614
L40142 28471
L40171 28414
L40200 28385
L40257 28357
L40314 28357
L40400 28385
L40742 28728
L40742 28357
" />
</g>
<g style="fill:#000000; fill-opacity:0.0; 
stroke:#000000; stroke-width:80; stroke-opacity:1; 
stroke-linecap:round; stroke-linejoin:round;">
<path d="M61571 32832
L61531 32846
L61477 32846
L61396 32846
L61356 32859
L61329 32886
" />
<path d="M61409 32940
L61369 32953
L61315 32953
L61248 32913
L61154 32819
L61113 32751
L61113 32697
L61127 32657
L61180 32603
L61221 32590
L61275 32590
L61342 32630
L61436 32724
L61477 32792
L61477 32846
L61463 32886
L61409 32940
" />
<path d="M61383 32455
L61383 32428
L61396 32388
L61463 32320
L61504 32307
L61531 32307
L61571 32320
L61598 32347
L61625 32401
L61625 32724
L61800 32549
" />
<path d="M58423 30680
L58477 30654
L58504 30654
L58544 30667
L58584 30707
L58598 30748
L58598 30775
L58584 30815
L58477 30923
L58194 30640
L58288 30546
L58329 30532
L58355 30532
L58396 30546
L58423 30573
L58436 30613
L58436 30640
L58423 30680
L58329 30775
" />
<path d="M58894 30451
L58894 30478
L58867 30532
L58840 30559
L58786 30586
L58733 30586
L58692 30573
L58625 30532
L58584 30492
L58544 30425
L58531 30384
L58531 30330
L58557 30276
L58584 30249
L58638 30223
L58665 30223
" />
<path d="M58894 29940
L58759 30074
L58881 30223
L58881 30196
L58894 30155
L58962 30088
L59002 30074
L59029 30074
L59069 30088
L59137 30155
L59150 30196
L59150 30223
L59137 30263
L59069 30330
L59029 30344
L59002 30344
" />
<path d="M59244 29778
L59433 29967
" />
<path d="M59069 29738
L59204 30007
L59379 29832
" />
<path d="M59271 29563
L59460 29374
L59621 29778
" />
</g>
<g style="fill:#000000; fill-opacity:0.0; 
stroke:#000000; stroke-width:120; stroke-opacity:1; 
stroke-linecap:round; stroke-linejoin:round;">
<path d="M49307 33492
L49307 32892
L49535 32892
L49592 32921
L49621 32950
L49650 33007
L49650 33092
L49621 33150
L49592 33178
L49535 33207
L49307 33207
" />
<path d="M50164 32892
L50050 32892
L49992 32921
L49964 32950
L49907 33035
L49878 33150
L49878 33378
L49907 33435
L49935 33464
L49992 33492
L50107 33492
L50164 33464
L50192 33435
L50221 33378
L50221 33235
L50192 33178
L50164 33150
L50107 33121
L49992 33121
L49935 33150
L49907 33178
L49878 33235
" />
<path d="M48478 37435
L48450 37464
L48364 37492
L48307 37492
L48221 37464
L48164 37407
L48135 37350
L48107 37235
L48107 37150
L48135 37035
L48164 36978
L48221 36921
L48307 36892
L48364 36892
L48450 36921
L48478 36950
" />
<path d="M48850 36892
L48964 36892
L49021 36921
L49078 36978
L49107 37092
L49107 37292
L49078 37407
L49021 37464
L48964 37492
L48850 37492
L48792 37464
L48735 37407
L48707 37292
L48707 37092
L48735 36978
L48792 36921
L48850 36892
" />
<path d="M49364 37492
L49364 36892
L49707 37492
L49707 36892
" />
<path d="M49992 37492
L49992 36892
L50335 37492
L50335 36892
" />
<path d="M50478 37550
L50935 37550
" />
<path d="M51050 36950
L51078 36921
L51135 36892
L51278 36892
L51335 36921
L51364 36950
L51392 37007
L51392 37064
L51364 37150
L51021 37492
L51392 37492
" />
<path d="M58057 22242
L58057 21642
" />
<path d="M58400 22242
L58142 21900
" />
<path d="M58400 21642
L58057 21985
" />
<path d="M58971 22242
L58628 22242
" />
<path d="M58800 22242
L58800 21642
L58742 21728
L58685 21785
L58628 21814
" />
<path d="M57228 26185
L57200 26214
L57114 26242
L57057 26242
L56971 26214
L56914 26157
L56885 26100
L56857 25985
L56857 25900
L56885 25785
L56914 25728
L56971 25671
L57057 25642
L57114 25642
L57200 25671
L57228 25700
" />
<path d="M57600 25642
L57714 25642
L57771 25671
L57828 25728
L57857 25842
L57857 26042
L57828 26157
L57771 26214
L57714 26242
L57600 26242
L57542 26214
L57485 26157
L57457 26042
L57457 25842
L57485 25728
L57542 25671
L57600 25642
" />
<path d="M58114 26242
L58114 25642
L58457 26242
L58457 25642
" />
<path d="M58742 26242
L58742 25642
L59085 26242
L59085 25642
" />
<path d="M59228 26300
L59685 26300
" />
<path d="M59771 25642
L60142 25642
L59942 25871
L60028 25871
L60085 25900
L60114 25928
L60142 25985
L60142 26128
L60114 26185
L60085 26214
L60028 26242
L59857 26242
L59800 26214
L59771 26185
" />
</g>
<g style="fill:#000000; fill-opacity:0.0; 
stroke:#000000; stroke-width:80; stroke-opacity:1; 
stroke-linecap:round; stroke-linejoin:round;">
<path d="M62441 32889
L62425 32910
L62375 32932
L62341 32932
L62291 32910
L62258 32867
L62241 32825
L62225 32739
L62225 32675
L62241 32589
L62258 32546
L62291 32503
L62341 32482
L62375 32482
L62425 32503
L62441 32525
" />
<path d="M62775 32932
L62575 32932
" />
<path d="M62675 32932
L62675 32482
L62641 32546
L62608 32589
L62575 32610
" />
<path d="M63016 32139
L63000 32160
L62950 32182
L62916 32182
L62866 32160
L62833 32117
L62816 32075
L62800 31989
L62800 31925
L62816 31839
L62833 31796
L62866 31753
L62916 31732
L62950 31732
L63000 31753
L63016 31775
" />
<path d="M63166 32182
L63166 31732
L63300 31732
L63333 31753
L63350 31775
L63366 31817
L63366 31882
L63350 31925
L63333 31946
L63300 31967
L63166 31967
" />
<path d="M63700 32182
L63500 32182
" />
<path d="M63600 32182
L63600 31732
L63566 31796
L63533 31839
L63500 31860
" />
</g>
<g style="fill:#000000; fill-opacity:0.0; 
stroke:#000000; stroke-width:120; stroke-opacity:1; 
stroke-linecap:round; stroke-linejoin:round;">
</g>
<g style="fill:#000000; fill-opacity:0.0; 
stroke:#000000; stroke-width:112.5; stroke-opacity:1; 
stroke-linecap:round; stroke-linejoin:round;">
<path d="M61828 32010
L62171 32010
" />
<path d="M62000 32182
L62000 31839
" />
</g>
<g style="fill:#000000; fill-opacity:0.0; 
stroke:#000000; stroke-width:120; stroke-opacity:1; 
stroke-linecap:round; stroke-linejoin:round;">
</g>
<g style="fill:#000000; fill-opacity:0.0; 
stroke:#000000; stroke-width:35; stroke-opacity:1; 
stroke-linecap:round; stroke-linejoin:round;">
<path d="M55578 36471
L55578 36171
L55650 36171
L55692 36185
L55721 36214
L55735 36242
L55750 36300
L55750 36342
L55735 36400
L55721 36428
L55692 36457
L55650 36471
L55578 36471
" />
<path d="M56035 36471
L55864 36471
" />
<path d="M55950 36471
L55950 36171
L55921 36214
L55892 36242
L55864 36257
" />
<path d="M56307 34371
L56164 34371
L56164 34071
" />
<path d="M56407 34214
L56507 34214
" />
<path d="M56550 34371
L56407 34371
L56407 34071
L56550 34071
" />
<path d="M56678 34371
L56678 34071
L56750 34071
L56792 34085
L56821 34114
L56835 34142
L56850 34200
L56850 34242
L56835 34300
L56821 34328
L56792 34357
L56750 34371
L56678 34371
" />
</g>
<g style="fill:#000000; fill-opacity:0.0; 
stroke:#000000; stroke-width:120; stroke-opacity:1; 
stroke-linecap:round; stroke-linejoin:round;">
<path d="M59557 37492
L59557 36892
L59785 36892
L59842 36921
L59871 36950
L59900 37007
L59900 37092
L59871 37150
L59842 37178
L59785 37207
L59557 37207
" />
<path d="M60242 37150
L60185 37121
L60157 37092
L60128 37035
L60128 37007
L60157 36950
L60185 36921
L60242 36892
L60357 36892
L60414 36921
L60442 36950
L60471 37007
L60471 37035
L60442 37092
L60414 37121
L60357 37150
L60242 37150
L60185 37178
L60157 37207
L60128 37264
L60128 37378
L60157 37435
L60185 37464
L60242 37492
L60357 37492
L60414 37464
L60442 37435
L60471 37378
L60471 37264
L60442 37207
L60414 37178
L60357 37150
" />
<path d="M58728 33435
L58700 33464
L58614 33492
L58557 33492
L58471 33464
L58414 33407
L58385 33350
L58357 33235
L58357 33150
L58385 33035
L58414 32978
L58471 32921
L58557 32892
L58614 32892
L58700 32921
L58728 32950
" />
<path d="M59100 32892
L59214 32892
L59271 32921
L59328 32978
L59357 33092
L59357 33292
L59328 33407
L59271 33464
L59214 33492
L59100 33492
L59042 33464
L58985 33407
L58957 33292
L58957 33092
L58985 32978
L59042 32921
L59100 32892
" />
<path d="M59614 33492
L59614 32892
L59957 33492
L59957 32892
" />
<path d="M60242 33492
L60242 32892
L60585 33492
L60585 32892
" />
<path d="M60728 33550
L61185 33550
" />
<path d="M61300 32950
L61328 32921
L61385 32892
L61528 32892
L61585 32921
L61614 32950
L61642 33007
L61642 33064
L61614 33150
L61271 33492
L61642 33492
" />
</g> 
</svg>
