<?xml version="1.0" standalone="no"?>
 <!DOCTYPE svg PUBLIC "-//W3C//DTD SVG 1.1//EN" 
 "http://www.w3.org/Graphics/SVG/1.1/DTD/svg11.dtd"> 
<svg xmlns="http://www.w3.org/2000/svg" version="1.1" 
    width="21.0007cm" height="29.7002cm" viewBox="0 0 82680 116930 ">
<title>SVG Picture created as soft_start-F_Mask.svg date 2014/09/30 12:37:14 </title>
  <desc>Picture generated by PCBNEW </desc>
<g style="fill:#000000; fill-opacity:1;stroke:#000000; stroke-opacity:1;
stroke-linecap:round; stroke-linejoin:round; "
 transform="translate(0 0) scale(1 1)">
</g>
<g style="fill:#000000; fill-opacity:0.0; 
stroke:#000000; stroke-width:39.3701; stroke-opacity:1; 
stroke-linecap:round; stroke-linejoin:round;">
<path d="M42250 36750
L42250 35250
" />
<path d="M42250 36750
L55250 36750
" />
<path d="M42250 22500
L42250 35250
" />
<path d="M55250 22500
L42250 22500
" />
<circle cx="63250" cy="35500" r="500" /> 
<circle cx="63000" cy="23750" r="500" /> 
<circle cx="43750" cy="35500" r="500" /> 
<circle cx="43750" cy="23750" r="500" /> 
</g>
<g style="fill:#000000; fill-opacity:1.0; 
stroke:#000000; stroke-width:59.0551; stroke-opacity:1; 
stroke-linecap:round; stroke-linejoin:round;">
<polyline style="fill-rule:evenodd;"
points="44329,30697
44327,30818
44300,30937
44258,31033
44187,31133
44111,31205
44008,31271
43910,31309
43790,31330
43685,31328
43565,31302
43470,31260
43369,31190
43296,31115
43230,31011
43191,30915
43169,30793
43171,30690
43196,30569
43237,30474
43307,30371
43381,30299
43485,30231
43580,30193
43702,30169
43805,30170
43927,30195
44022,30235
44125,30305
44197,30377
44266,30481
44305,30576
44329,30697
" /> 
<polyline style="fill-rule:evenodd;"
points="44329,29329
43170,29329
43170,28170
44329,28170
44329,29329
" /> 
<polyline style="fill-rule:evenodd;"
points="47723,27207
47721,27305
47699,27404
47665,27480
47606,27563
47545,27621
47460,27676
47382,27706
47281,27724
47198,27722
47098,27700
47022,27667
46938,27608
46880,27548
46825,27462
46794,27385
46776,27284
46777,27201
46798,27101
46831,27025
46889,26940
46948,26882
47034,26826
47110,26795
47212,26776
47294,26776
47395,26797
47471,26829
47557,26887
47614,26945
47672,27031
47703,27107
47723,27207
" /> 
<polyline style="fill-rule:evenodd;"
points="47723,31932
47721,32029
47699,32128
47665,32205
47606,32288
47545,32346
47460,32400
47382,32430
47281,32448
47198,32446
47098,32424
47022,32391
46938,32333
46880,32273
46825,32187
46794,32110
46776,32009
46777,31926
46798,31825
46831,31749
46889,31664
46948,31607
47034,31550
47110,31519
47212,31500
47294,31501
47395,31522
47471,31553
47557,31611
47614,31669
47672,31756
47703,31831
47723,31932
" /> 
<polyline style="fill-rule:evenodd;"
points="49329,35829
48170,35829
48170,34670
49329,34670
49329,35829
" /> 
<polyline style="fill-rule:evenodd;"
points="49829,24579
48670,24579
48670,23420
49829,23420
49829,24579
" /> 
<polyline style="fill-rule:evenodd;"
points="51329,35197
51327,35318
51300,35437
51258,35533
51187,35633
51111,35705
51008,35771
50910,35809
50790,35830
50685,35828
50565,35802
50470,35760
50369,35690
50296,35615
50230,35511
50191,35415
50169,35293
50171,35190
50196,35069
50237,34974
50307,34871
50381,34799
50485,34731
50580,34693
50702,34669
50805,34670
50927,34695
51022,34735
51125,34805
51197,34877
51266,34981
51305,35076
51329,35197
" /> 
<polyline style="fill-rule:evenodd;"
points="51829,23947
51827,24068
51800,24187
51758,24283
51687,24383
51611,24455
51508,24521
51410,24559
51290,24580
51185,24578
51065,24552
50970,24510
50869,24440
50796,24365
50730,24261
50691,24165
50669,24043
50671,23940
50696,23819
50737,23724
50807,23621
50881,23549
50985,23481
51080,23443
51202,23419
51305,23420
51427,23445
51522,23485
51625,23555
51697,23627
51766,23731
51805,23826
51829,23947
" /> 
<polyline style="fill-rule:evenodd;"
points="52565,27207
52564,27305
52542,27404
52507,27480
52449,27563
52388,27621
52302,27676
52224,27706
52124,27724
52040,27722
51941,27700
51864,27667
51780,27608
51723,27548
51667,27462
51637,27385
51618,27284
51619,27201
51641,27101
51673,27025
51731,26940
51790,26882
51877,26826
51953,26795
52054,26776
52136,26776
52238,26797
52313,26829
52399,26887
52457,26945
52514,27031
52545,27107
52565,27207
" /> 
<polyline style="fill-rule:evenodd;"
points="52565,31932
52564,32029
52542,32128
52507,32205
52449,32288
52388,32346
52302,32400
52224,32430
52124,32448
52040,32446
51941,32424
51864,32391
51780,32333
51723,32273
51667,32187
51637,32110
51618,32009
51619,31926
51641,31825
51673,31749
51731,31664
51790,31607
51877,31550
51953,31519
52054,31500
52136,31501
52238,31522
52313,31553
52399,31611
52457,31669
52514,31756
52545,31831
52565,31932
" /> 
<polyline style="fill-rule:evenodd;"
points="53353,29570
53351,29667
53329,29766
53295,29843
53236,29925
53175,29983
53090,30038
53012,30068
52911,30086
52828,30084
52728,30062
52652,30029
52568,29970
52510,29911
52455,29825
52424,29747
52405,29647
52407,29564
52428,29463
52461,29387
52519,29302
52578,29245
52664,29188
52740,29157
52842,29138
52924,29138
53025,29159
53101,29191
53187,29249
53244,29307
53302,29394
53333,29469
53353,29570
" /> 
<polyline style="fill-rule:evenodd;"
points="56354,30969
56353,31040
56336,31116
56311,31172
56266,31235
56222,31277
56156,31319
56100,31341
56022,31355
55962,31353
55885,31337
55830,31312
55765,31267
55724,31224
55681,31158
55659,31102
55644,31024
55645,30965
55662,30887
55685,30832
55730,30767
55772,30725
55839,30682
55894,30660
55973,30644
56031,30645
56110,30661
56164,30684
56231,30729
56272,30770
56317,30837
56339,30891
56354,30969
" /> 
<polyline style="fill-rule:evenodd;"
points="56354,28354
55645,28354
55645,27645
56354,27645
56354,28354
" /> 
<polyline style="fill-rule:evenodd;"
points="56409,35214
56408,35297
56388,35383
56359,35449
56308,35521
56256,35571
56181,35619
56114,35644
56026,35660
55955,35658
55868,35639
55803,35611
55729,35560
55680,35509
55632,35433
55606,35368
55589,35279
55590,35209
55609,35120
55637,35056
55688,34981
55738,34932
55814,34883
55878,34856
55968,34839
56037,34840
56126,34858
56190,34885
56266,34936
56315,34985
56365,35061
56392,35125
56409,35214
" /> 
<polyline style="fill-rule:evenodd;"
points="57079,24579
55920,24579
55920,23420
57079,23420
57079,24579
" /> 
<polyline style="fill-rule:evenodd;"
points="57409,35214
57408,35297
57388,35383
57359,35449
57308,35521
57256,35571
57181,35619
57114,35644
57026,35660
56955,35658
56868,35639
56803,35611
56729,35560
56680,35509
56632,35433
56606,35368
56589,35279
56590,35209
56609,35120
56637,35056
56688,34981
56738,34932
56814,34883
56878,34856
56968,34839
57037,34840
57126,34858
57190,34885
57266,34936
57315,34985
57365,35061
57392,35125
57409,35214
" /> 
<polyline style="fill-rule:evenodd;"
points="57629,29467
57628,29543
57610,29624
57583,29684
57535,29752
57488,29797
57417,29842
57356,29865
57274,29880
57209,29878
57127,29860
57068,29834
56999,29787
56954,29740
56908,29669
56885,29609
56869,29526
56870,29462
56888,29379
56913,29320
56961,29251
57007,29206
57078,29159
57137,29135
57220,29119
57284,29120
57367,29137
57426,29162
57497,29209
57541,29254
57589,29326
57613,29384
57629,29467
" /> 
<polyline style="fill-rule:evenodd;"
points="57629,33467
57628,33543
57610,33624
57583,33684
57535,33752
57488,33797
57417,33842
57356,33865
57274,33880
57209,33878
57127,33860
57068,33834
56999,33787
56954,33740
56908,33669
56885,33609
56869,33526
56870,33462
56888,33379
56913,33320
56961,33251
57007,33206
57078,33159
57137,33135
57220,33119
57284,33120
57367,33137
57426,33162
57497,33209
57541,33254
57589,33326
57613,33384
57629,33467
" /> 
<polyline style="fill-rule:evenodd;"
points="58879,27217
58878,27293
58860,27374
58833,27434
58785,27502
58738,27547
58667,27592
58606,27615
58524,27630
58459,27628
58377,27610
58318,27584
58249,27537
58204,27490
58158,27419
58135,27359
58119,27276
58120,27212
58138,27129
58163,27070
58211,27001
58257,26956
58328,26909
58387,26885
58470,26869
58534,26870
58617,26887
58676,26912
58747,26959
58791,27004
58839,27076
58863,27134
58879,27217
" /> 
<polyline style="fill-rule:evenodd;"
points="58879,31217
58878,31293
58860,31374
58833,31434
58785,31502
58738,31547
58667,31592
58606,31615
58524,31630
58459,31628
58377,31610
58318,31584
58249,31537
58204,31490
58158,31419
58135,31359
58119,31276
58120,31212
58138,31129
58163,31070
58211,31001
58257,30956
58328,30909
58387,30885
58470,30869
58534,30870
58617,30887
58676,30912
58747,30959
58791,31004
58839,31076
58863,31134
58879,31217
" /> 
<polyline style="fill-rule:evenodd;"
points="59079,23947
59077,24068
59050,24187
59008,24283
58937,24383
58861,24455
58758,24521
58660,24559
58540,24580
58435,24578
58315,24552
58220,24510
58119,24440
58046,24365
57980,24261
57941,24165
57919,24043
57921,23940
57946,23819
57987,23724
58057,23621
58131,23549
58235,23481
58330,23443
58452,23419
58555,23420
58677,23445
58772,23485
58875,23555
58947,23627
59016,23731
59055,23826
59079,23947
" /> 
<polyline style="fill-rule:evenodd;"
points="59579,35197
59577,35318
59550,35437
59508,35533
59437,35633
59361,35705
59258,35771
59160,35809
59040,35830
58935,35828
58815,35802
58720,35760
58619,35690
58546,35615
58480,35511
58441,35415
58419,35293
58421,35190
58446,35069
58487,34974
58557,34871
58631,34799
58735,34731
58830,34693
58952,34669
59055,34670
59177,34695
59272,34735
59375,34805
59447,34877
59516,34981
59555,35076
59579,35197
" /> 
<polyline style="fill-rule:evenodd;"
points="60604,30219
60603,30290
60586,30366
60561,30422
60516,30485
60472,30527
60406,30569
60350,30591
60272,30605
60212,30603
60135,30587
60080,30562
60015,30517
59974,30474
59931,30408
59909,30352
59894,30274
59895,30215
59912,30137
59935,30082
59980,30017
60022,29975
60089,29932
60144,29910
60223,29894
60281,29895
60360,29911
60414,29934
60481,29979
60522,30020
60567,30087
60589,30141
60604,30219
" /> 
<polyline style="fill-rule:evenodd;"
points="60604,31219
60603,31290
60586,31366
60561,31422
60516,31485
60472,31527
60406,31569
60350,31591
60272,31605
60212,31603
60135,31587
60080,31562
60015,31517
59974,31474
59931,31408
59909,31352
59894,31274
59895,31215
59912,31137
59935,31082
59980,31017
60022,30975
60089,30932
60144,30910
60223,30894
60281,30895
60360,30911
60414,30934
60481,30979
60522,31020
60567,31087
60589,31141
60604,31219
" /> 
<polyline style="fill-rule:evenodd;"
points="60604,32219
60603,32290
60586,32366
60561,32422
60516,32485
60472,32527
60406,32569
60350,32591
60272,32605
60212,32603
60135,32587
60080,32562
60015,32517
59974,32474
59931,32408
59909,32352
59894,32274
59895,32215
59912,32137
59935,32082
59980,32017
60022,31975
60089,31932
60144,31910
60223,31894
60281,31895
60360,31911
60414,31934
60481,31979
60522,32020
60567,32087
60589,32141
60604,32219
" /> 
<polyline style="fill-rule:evenodd;"
points="61079,23947
61077,24068
61050,24187
61008,24283
60937,24383
60861,24455
60758,24521
60660,24559
60540,24580
60435,24578
60315,24552
60220,24510
60119,24440
60046,24365
59980,24261
59941,24165
59919,24043
59921,23940
59946,23819
59987,23724
60057,23621
60131,23549
60235,23481
60330,23443
60452,23419
60555,23420
60677,23445
60772,23485
60875,23555
60947,23627
61016,23731
61055,23826
61079,23947
" /> 
<polyline style="fill-rule:evenodd;"
points="61579,35829
60420,35829
60420,34670
61579,34670
61579,35829
" /> 
<polyline style="fill-rule:evenodd;"
points="62879,32379
62120,32379
62120,31620
62879,31620
62879,32379
" /> 
<polyline style="fill-rule:evenodd;"
points="63879,31967
63878,32043
63860,32124
63833,32184
63785,32252
63738,32297
63667,32342
63606,32365
63524,32380
63459,32378
63377,32360
63318,32334
63249,32287
63204,32240
63158,32169
63135,32109
63119,32026
63120,31962
63138,31879
63163,31820
63211,31751
63257,31706
63328,31659
63387,31635
63470,31619
63534,31620
63617,31637
63676,31662
63747,31709
63791,31754
63839,31826
63863,31884
63879,31967
" /> 
</g> 
</svg>
