<?xml version="1.0" standalone="no"?>
 <!DOCTYPE svg PUBLIC "-//W3C//DTD SVG 1.1//EN" 
 "http://www.w3.org/Graphics/SVG/1.1/DTD/svg11.dtd"> 
<svg xmlns="http://www.w3.org/2000/svg" version="1.1" 
    width="21.0007cm" height="29.7002cm" viewBox="0 0 82680 116930 ">
<title>SVG Picture created as ponyser-F_Mask.svg date 2014/10/07 00:02:16 </title>
  <desc>Picture generated by PCBNEW </desc>
<g style="fill:#000000; fill-opacity:1;stroke:#000000; stroke-opacity:1;
stroke-linecap:round; stroke-linejoin:round; "
 transform="translate(0 0) scale(1 1)">
</g>
<g style="fill:#000000; fill-opacity:0.0; 
stroke:#000000; stroke-width:39.3701; stroke-opacity:1; 
stroke-linecap:round; stroke-linejoin:round;">
<circle cx="14000" cy="11250" r="750" /> 
<circle cx="36000" cy="11250" r="750" /> 
<path d="M37250 17750
L37250 5000
" />
<path d="M12750 17750
L37250 17750
" />
<path d="M12750 5000
L12750 17750
" />
<path d="M12750 5000
L37250 5000
" />
</g>
<g style="fill:#000000; fill-opacity:1.0; 
stroke:#000000; stroke-width:59.0551; stroke-opacity:1; 
stroke-linecap:round; stroke-linejoin:round;">
<polyline style="fill-rule:evenodd;"
points="17604,14354
16895,14354
16895,13645
17604,13645
17604,14354
" /> 
<polyline style="fill-rule:evenodd;"
points="18354,16469
18353,16540
18336,16616
18311,16672
18266,16735
18222,16777
18156,16819
18100,16841
18022,16855
17962,16853
17885,16837
17830,16812
17765,16767
17724,16724
17681,16658
17659,16602
17644,16524
17645,16465
17662,16387
17685,16332
17730,16267
17772,16225
17839,16182
17894,16160
17973,16144
18031,16145
18110,16161
18164,16184
18231,16229
18272,16270
18317,16337
18339,16391
18354,16469
" /> 
<polyline style="fill-rule:evenodd;"
points="18354,15854
17645,15854
17645,15145
18354,15145
18354,15854
" /> 
<polyline style="fill-rule:evenodd;"
points="18604,13104
17895,13104
17895,12395
18604,12395
18604,13104
" /> 
<polyline style="fill-rule:evenodd;"
points="19604,11854
18895,11854
18895,11145
19604,11145
19604,11854
" /> 
<polyline style="fill-rule:evenodd;"
points="20104,16469
20103,16540
20086,16616
20061,16672
20016,16735
19972,16777
19906,16819
19850,16841
19772,16855
19712,16853
19635,16837
19580,16812
19515,16767
19474,16724
19431,16658
19409,16602
19394,16524
19395,16465
19412,16387
19435,16332
19480,16267
19522,16225
19589,16182
19644,16160
19723,16144
19781,16145
19860,16161
19914,16184
19981,16229
20022,16270
20067,16337
20089,16391
20104,16469
" /> 
<polyline style="fill-rule:evenodd;"
points="20460,6426
20457,6596
20421,6757
20361,6892
20265,7027
20158,7128
20019,7217
19881,7270
19718,7299
19571,7296
19409,7260
19275,7201
19138,7107
19036,7001
18946,6862
18892,6725
18862,6562
18864,6415
18899,6252
18957,6118
19051,5980
19155,5878
19295,5787
19430,5732
19594,5701
19740,5702
19904,5735
20038,5792
20177,5885
20279,5988
20372,6128
20427,6262
20460,6426
" /> 
<polyline style="fill-rule:evenodd;"
points="20604,13969
20603,14040
20586,14116
20561,14172
20516,14235
20472,14277
20406,14319
20350,14341
20272,14355
20212,14353
20135,14337
20080,14312
20015,14267
19974,14224
19931,14158
19909,14102
19894,14024
19895,13965
19912,13887
19935,13832
19980,13767
20022,13725
20089,13682
20144,13660
20223,13644
20281,13645
20360,13661
20414,13684
20481,13729
20522,13770
20567,13837
20589,13891
20604,13969
" /> 
<polyline style="fill-rule:evenodd;"
points="20625,9967
20624,10043
20605,10122
20579,10182
20532,10249
20485,10293
20415,10338
20355,10361
20274,10375
20209,10374
20129,10356
20070,10330
20002,10283
19957,10237
19912,10167
19889,10108
19874,10026
19875,9962
19892,9881
19917,9823
19964,9753
20009,9709
20080,9663
20138,9640
20221,9624
20283,9624
20366,9641
20424,9666
20494,9713
20538,9757
20585,9828
20608,9885
20625,9967
" /> 
<polyline style="fill-rule:evenodd;"
points="21125,8967
21124,9043
21105,9122
21079,9182
21032,9249
20985,9293
20915,9338
20855,9361
20774,9375
20709,9374
20629,9356
20570,9330
20502,9283
20457,9237
20412,9167
20389,9108
20374,9026
20375,8962
20392,8881
20417,8823
20464,8753
20509,8709
20580,8663
20638,8640
20721,8624
20783,8624
20866,8641
20924,8666
20994,8713
21038,8757
21085,8828
21108,8885
21125,8967
" /> 
<polyline style="fill-rule:evenodd;"
points="21604,12719
21603,12790
21586,12866
21561,12922
21516,12985
21472,13027
21406,13069
21350,13091
21272,13105
21212,13103
21135,13087
21080,13062
21015,13017
20974,12974
20931,12908
20909,12852
20894,12774
20895,12715
20912,12637
20935,12582
20980,12517
21022,12475
21089,12432
21144,12410
21223,12394
21281,12395
21360,12411
21414,12434
21481,12479
21522,12520
21567,12587
21589,12641
21604,12719
" /> 
<polyline style="fill-rule:evenodd;"
points="21625,9967
21624,10043
21605,10122
21579,10182
21532,10249
21485,10293
21415,10338
21355,10361
21274,10375
21209,10374
21129,10356
21070,10330
21002,10283
20957,10237
20912,10167
20889,10108
20874,10026
20875,9962
20892,9881
20917,9823
20964,9753
21009,9709
21080,9663
21138,9640
21221,9624
21283,9624
21366,9641
21424,9666
21494,9713
21538,9757
21585,9828
21608,9885
21625,9967
" /> 
<polyline style="fill-rule:evenodd;"
points="22104,16469
22103,16540
22086,16616
22061,16672
22016,16735
21972,16777
21906,16819
21850,16841
21772,16855
21712,16853
21635,16837
21580,16812
21515,16767
21474,16724
21431,16658
21409,16602
21394,16524
21395,16465
21412,16387
21435,16332
21480,16267
21522,16225
21589,16182
21644,16160
21723,16144
21781,16145
21860,16161
21914,16184
21981,16229
22022,16270
22067,16337
22089,16391
22104,16469
" /> 
<polyline style="fill-rule:evenodd;"
points="22125,8967
22124,9043
22105,9122
22079,9182
22032,9249
21985,9293
21915,9338
21855,9361
21774,9375
21709,9374
21629,9356
21570,9330
21502,9283
21457,9237
21412,9167
21389,9108
21374,9026
21375,8962
21392,8881
21417,8823
21464,8753
21509,8709
21580,8663
21638,8640
21721,8624
21783,8624
21866,8641
21924,8666
21994,8713
22038,8757
22085,8828
22108,8885
22125,8967
" /> 
<polyline style="fill-rule:evenodd;"
points="22129,14217
22128,14293
22110,14374
22083,14434
22035,14502
21988,14547
21917,14592
21856,14615
21774,14630
21709,14628
21627,14610
21568,14584
21499,14537
21454,14490
21408,14419
21385,14359
21369,14276
21370,14212
21388,14129
21413,14070
21461,14001
21507,13956
21578,13909
21637,13885
21720,13869
21784,13870
21867,13887
21926,13912
21997,13959
22041,14004
22089,14076
22113,14134
22129,14217
" /> 
<polyline style="fill-rule:evenodd;"
points="22604,11469
22603,11540
22586,11616
22561,11672
22516,11735
22472,11777
22406,11819
22350,11841
22272,11855
22212,11853
22135,11837
22080,11812
22015,11767
21974,11724
21931,11658
21909,11602
21894,11524
21895,11465
21912,11387
21935,11332
21980,11267
22022,11225
22089,11182
22144,11160
22223,11144
22281,11145
22360,11161
22414,11184
22481,11229
22522,11270
22567,11337
22589,11391
22604,11469
" /> 
<polyline style="fill-rule:evenodd;"
points="22625,9967
22624,10043
22605,10122
22579,10182
22532,10249
22485,10293
22415,10338
22355,10361
22274,10375
22209,10374
22129,10356
22070,10330
22002,10283
21957,10237
21912,10167
21889,10108
21874,10026
21875,9962
21892,9881
21917,9823
21964,9753
22009,9709
22080,9663
22138,9640
22221,9624
22283,9624
22366,9641
22424,9666
22494,9713
22538,9757
22585,9828
22608,9885
22625,9967
" /> 
<polyline style="fill-rule:evenodd;"
points="23125,8967
23124,9043
23105,9122
23079,9182
23032,9249
22985,9293
22915,9338
22855,9361
22774,9375
22709,9374
22629,9356
22570,9330
22502,9283
22457,9237
22412,9167
22389,9108
22374,9026
22375,8962
22392,8881
22417,8823
22464,8753
22509,8709
22580,8663
22638,8640
22721,8624
22783,8624
22866,8641
22924,8666
22994,8713
23038,8757
23085,8828
23108,8885
23125,8967
" /> 
<polyline style="fill-rule:evenodd;"
points="23379,12967
23378,13043
23360,13124
23333,13184
23285,13252
23238,13297
23167,13342
23106,13365
23024,13380
22959,13378
22877,13360
22818,13334
22749,13287
22704,13240
22658,13169
22635,13109
22619,13026
22620,12962
22638,12879
22663,12820
22711,12751
22757,12706
22828,12659
22887,12635
22970,12619
23034,12620
23117,12637
23176,12662
23247,12709
23291,12754
23339,12826
23363,12884
23379,12967
" /> 
<polyline style="fill-rule:evenodd;"
points="23625,9967
23624,10043
23605,10122
23579,10182
23532,10249
23485,10293
23415,10338
23355,10361
23274,10375
23209,10374
23129,10356
23070,10330
23002,10283
22957,10237
22912,10167
22889,10108
22874,10026
22875,9962
22892,9881
22917,9823
22964,9753
23009,9709
23080,9663
23138,9640
23221,9624
23283,9624
23366,9641
23424,9666
23494,9713
23538,9757
23585,9828
23608,9885
23625,9967
" /> 
<polyline style="fill-rule:evenodd;"
points="24125,9375
23374,9375
23374,8624
24125,8624
24125,9375
" /> 
<polyline style="fill-rule:evenodd;"
points="24629,11717
24628,11793
24610,11874
24583,11934
24535,12002
24488,12047
24417,12092
24356,12115
24274,12130
24209,12128
24127,12110
24068,12084
23999,12037
23954,11990
23908,11919
23885,11859
23869,11776
23870,11712
23888,11629
23913,11570
23961,11501
24007,11456
24078,11409
24137,11385
24220,11369
24284,11370
24367,11387
24426,11412
24497,11459
24541,11504
24589,11576
24613,11634
24629,11717
" /> 
<polyline style="fill-rule:evenodd;"
points="25133,6426
25130,6596
25094,6757
25034,6892
24938,7027
24831,7128
24692,7217
24554,7270
24391,7299
24244,7296
24082,7260
23948,7201
23811,7107
23709,7001
23619,6862
23565,6725
23535,6562
23537,6415
23572,6252
23630,6118
23724,5980
23828,5878
23968,5787
24103,5732
24267,5701
24413,5702
24577,5735
24711,5792
24850,5885
24952,5988
25045,6128
25100,6262
25133,6426
" /> 
<polyline style="fill-rule:evenodd;"
points="26129,14217
26128,14293
26110,14374
26083,14434
26035,14502
25988,14547
25917,14592
25856,14615
25774,14630
25709,14628
25627,14610
25568,14584
25499,14537
25454,14490
25408,14419
25385,14359
25369,14276
25370,14212
25388,14129
25413,14070
25461,14001
25507,13956
25578,13909
25637,13885
25720,13869
25784,13870
25867,13887
25926,13912
25997,13959
26041,14004
26089,14076
26113,14134
26129,14217
" /> 
<polyline style="fill-rule:evenodd;"
points="26854,7219
26853,7290
26836,7366
26811,7422
26766,7485
26722,7527
26656,7569
26600,7591
26522,7605
26462,7603
26385,7587
26330,7562
26265,7517
26224,7474
26181,7408
26159,7352
26144,7274
26145,7215
26162,7137
26185,7082
26230,7017
26272,6975
26339,6932
26394,6910
26473,6894
26531,6895
26610,6911
26664,6934
26731,6979
26772,7020
26817,7087
26839,7141
26854,7219
" /> 
<polyline style="fill-rule:evenodd;"
points="26854,10604
26145,10604
26145,9895
26854,9895
26854,10604
" /> 
<polyline style="fill-rule:evenodd;"
points="27379,12967
27378,13043
27360,13124
27333,13184
27285,13252
27238,13297
27167,13342
27106,13365
27024,13380
26959,13378
26877,13360
26818,13334
26749,13287
26704,13240
26658,13169
26635,13109
26619,13026
26620,12962
26638,12879
26663,12820
26711,12751
26757,12706
26828,12659
26887,12635
26970,12619
27034,12620
27117,12637
27176,12662
27247,12709
27291,12754
27339,12826
27363,12884
27379,12967
" /> 
<polyline style="fill-rule:evenodd;"
points="28354,7219
28353,7290
28336,7366
28311,7422
28266,7485
28222,7527
28156,7569
28100,7591
28022,7605
27962,7603
27885,7587
27830,7562
27765,7517
27724,7474
27681,7408
27659,7352
27644,7274
27645,7215
27662,7137
27685,7082
27730,7017
27772,6975
27839,6932
27894,6910
27973,6894
28031,6895
28110,6911
28164,6934
28231,6979
28272,7020
28317,7087
28339,7141
28354,7219
" /> 
<polyline style="fill-rule:evenodd;"
points="28354,10604
27645,10604
27645,9895
28354,9895
28354,10604
" /> 
<polyline style="fill-rule:evenodd;"
points="28629,11717
28628,11793
28610,11874
28583,11934
28535,12002
28488,12047
28417,12092
28356,12115
28274,12130
28209,12128
28127,12110
28068,12084
27999,12037
27954,11990
27908,11919
27885,11859
27869,11776
27870,11712
27888,11629
27913,11570
27961,11501
28007,11456
28078,11409
28137,11385
28220,11369
28284,11370
28367,11387
28426,11412
28497,11459
28541,11504
28589,11576
28613,11634
28629,11717
" /> 
<polyline style="fill-rule:evenodd;"
points="28879,14467
28878,14543
28860,14624
28833,14684
28785,14752
28738,14797
28667,14842
28606,14865
28524,14880
28459,14878
28377,14860
28318,14834
28249,14787
28204,14740
28158,14669
28135,14609
28119,14526
28120,14462
28138,14379
28163,14320
28211,14251
28257,14206
28328,14159
28387,14135
28470,14119
28534,14120
28617,14137
28676,14162
28747,14209
28791,14254
28839,14326
28863,14384
28879,14467
" /> 
<polyline style="fill-rule:evenodd;"
points="29355,16254
29347,16324
29327,16389
29293,16450
29250,16502
29195,16546
29135,16578
29068,16598
29000,16605
28931,16598
28865,16578
28804,16545
28747,16498
28745,16495
28745,16495
28702,16441
28702,16441
28701,16440
28670,16380
28650,16313
28644,16245
28652,16175
28672,16110
28706,16049
28749,15997
28804,15953
28864,15921
28931,15901
28999,15894
29068,15901
29134,15921
29195,15954
29252,16001
29254,16004
29254,16004
29297,16058
29297,16058
29298,16059
29329,16119
29349,16186
29355,16254
" /> 
<polyline style="fill-rule:evenodd;"
points="29604,12719
29603,12790
29586,12866
29561,12922
29516,12985
29472,13027
29406,13069
29350,13091
29272,13105
29212,13103
29135,13087
29080,13062
29015,13017
28974,12974
28931,12908
28909,12852
28894,12774
28895,12715
28912,12637
28935,12582
28980,12517
29022,12475
29089,12432
29144,12410
29223,12394
29281,12395
29360,12411
29414,12434
29481,12479
29522,12520
29567,12587
29589,12641
29604,12719
" /> 
<polyline style="fill-rule:evenodd;"
points="29854,7219
29853,7290
29836,7366
29811,7422
29766,7485
29722,7527
29656,7569
29600,7591
29522,7605
29462,7603
29385,7587
29330,7562
29265,7517
29224,7474
29181,7408
29159,7352
29144,7274
29145,7215
29162,7137
29185,7082
29230,7017
29272,6975
29339,6932
29394,6910
29473,6894
29531,6895
29610,6911
29664,6934
29731,6979
29772,7020
29817,7087
29839,7141
29854,7219
" /> 
<polyline style="fill-rule:evenodd;"
points="29854,10604
29145,10604
29145,9895
29854,9895
29854,10604
" /> 
<polyline style="fill-rule:evenodd;"
points="30604,16219
30603,16290
30586,16366
30561,16422
30516,16485
30472,16527
30406,16569
30350,16591
30272,16605
30212,16603
30135,16587
30080,16562
30015,16517
29974,16474
29931,16408
29909,16352
29894,16274
29895,16215
29912,16137
29935,16082
29980,16017
30022,15975
30089,15932
30144,15910
30223,15894
30281,15895
30360,15911
30414,15934
30481,15979
30522,16020
30567,16087
30589,16141
30604,16219
" /> 
<polyline style="fill-rule:evenodd;"
points="30604,13104
29895,13104
29895,12395
30604,12395
30604,13104
" /> 
<polyline style="fill-rule:evenodd;"
points="31854,16219
31853,16290
31836,16366
31811,16422
31766,16485
31722,16527
31656,16569
31600,16591
31522,16605
31462,16603
31385,16587
31330,16562
31265,16517
31224,16474
31181,16408
31159,16352
31144,16274
31145,16215
31162,16137
31185,16082
31230,16017
31272,15975
31339,15932
31394,15910
31473,15894
31531,15895
31610,15911
31664,15934
31731,15979
31772,16020
31817,16087
31839,16141
31854,16219
" /> 
<polyline style="fill-rule:evenodd;"
points="32129,7217
32128,7293
32110,7374
32083,7434
32035,7502
31988,7547
31917,7592
31856,7615
31774,7630
31709,7628
31627,7610
31568,7584
31499,7537
31454,7490
31408,7419
31385,7359
31369,7276
31370,7212
31388,7129
31413,7070
31461,7001
31507,6956
31578,6909
31637,6885
31720,6869
31784,6870
31867,6887
31926,6912
31997,6959
32041,7004
32089,7076
32113,7134
32129,7217
" /> 
<polyline style="fill-rule:evenodd;"
points="32129,8217
32128,8293
32110,8374
32083,8434
32035,8502
31988,8547
31917,8592
31856,8615
31774,8630
31709,8628
31627,8610
31568,8584
31499,8537
31454,8490
31408,8419
31385,8359
31369,8276
31370,8212
31388,8129
31413,8070
31461,8001
31507,7956
31578,7909
31637,7885
31720,7869
31784,7870
31867,7887
31926,7912
31997,7959
32041,8004
32089,8076
32113,8134
32129,8217
" /> 
<polyline style="fill-rule:evenodd;"
points="32129,9217
32128,9293
32110,9374
32083,9434
32035,9502
31988,9547
31917,9592
31856,9615
31774,9630
31709,9628
31627,9610
31568,9584
31499,9537
31454,9490
31408,9419
31385,9359
31369,9276
31370,9212
31388,9129
31413,9070
31461,9001
31507,8956
31578,8909
31637,8885
31720,8869
31784,8870
31867,8887
31926,8912
31997,8959
32041,9004
32089,9076
32113,9134
32129,9217
" /> 
<polyline style="fill-rule:evenodd;"
points="32129,10217
32128,10293
32110,10374
32083,10434
32035,10502
31988,10547
31917,10592
31856,10615
31774,10630
31709,10628
31627,10610
31568,10584
31499,10537
31454,10490
31408,10419
31385,10359
31369,10276
31370,10212
31388,10129
31413,10070
31461,10001
31507,9956
31578,9909
31637,9885
31720,9869
31784,9870
31867,9887
31926,9912
31997,9959
32041,10004
32089,10076
32113,10134
32129,10217
" /> 
<polyline style="fill-rule:evenodd;"
points="32129,11217
32128,11293
32110,11374
32083,11434
32035,11502
31988,11547
31917,11592
31856,11615
31774,11630
31709,11628
31627,11610
31568,11584
31499,11537
31454,11490
31408,11419
31385,11359
31369,11276
31370,11212
31388,11129
31413,11070
31461,11001
31507,10956
31578,10909
31637,10885
31720,10869
31784,10870
31867,10887
31926,10912
31997,10959
32041,11004
32089,11076
32113,11134
32129,11217
" /> 
<polyline style="fill-rule:evenodd;"
points="32129,12629
31370,12629
31370,11870
32129,11870
32129,12629
" /> 
<polyline style="fill-rule:evenodd;"
points="32879,14467
32878,14543
32860,14624
32833,14684
32785,14752
32738,14797
32667,14842
32606,14865
32524,14880
32459,14878
32377,14860
32318,14834
32249,14787
32204,14740
32158,14669
32135,14609
32119,14526
32120,14462
32138,14379
32163,14320
32211,14251
32257,14206
32328,14159
32387,14135
32470,14119
32534,14120
32617,14137
32676,14162
32747,14209
32791,14254
32839,14326
32863,14384
32879,14467
" /> 
<polyline style="fill-rule:evenodd;"
points="33629,5967
33628,6043
33610,6124
33583,6184
33535,6252
33488,6297
33417,6342
33356,6365
33274,6380
33209,6378
33127,6360
33068,6334
32999,6287
32954,6240
32908,6169
32885,6109
32869,6026
32870,5962
32888,5879
32913,5820
32961,5751
33007,5706
33078,5659
33137,5635
33220,5619
33284,5620
33367,5637
33426,5662
33497,5709
33541,5754
33589,5826
33613,5884
33629,5967
" /> 
<polyline style="fill-rule:evenodd;"
points="33629,9967
33628,10043
33610,10124
33583,10184
33535,10252
33488,10297
33417,10342
33356,10365
33274,10380
33209,10378
33127,10360
33068,10334
32999,10287
32954,10240
32908,10169
32885,10109
32869,10026
32870,9962
32888,9879
32913,9820
32961,9751
33007,9706
33078,9659
33137,9635
33220,9619
33284,9620
33367,9637
33426,9662
33497,9709
33541,9754
33589,9826
33613,9884
33629,9967
" /> 
<polyline style="fill-rule:evenodd;"
points="35854,6469
35853,6540
35836,6616
35811,6672
35766,6735
35722,6777
35656,6819
35600,6841
35522,6855
35462,6853
35385,6837
35330,6812
35265,6767
35224,6724
35181,6658
35159,6602
35144,6524
35145,6465
35162,6387
35185,6332
35230,6267
35272,6225
35339,6182
35394,6160
35473,6144
35531,6145
35610,6161
35664,6184
35731,6229
35772,6270
35817,6337
35839,6391
35854,6469
" /> 
<polyline style="fill-rule:evenodd;"
points="35854,7719
35853,7790
35836,7866
35811,7922
35766,7985
35722,8027
35656,8069
35600,8091
35522,8105
35462,8103
35385,8087
35330,8062
35265,8017
35224,7974
35181,7908
35159,7852
35144,7774
35145,7715
35162,7637
35185,7582
35230,7517
35272,7475
35339,7432
35394,7410
35473,7394
35531,7395
35610,7411
35664,7434
35731,7479
35772,7520
35817,7587
35839,7641
35854,7719
" /> 
<polyline style="fill-rule:evenodd;"
points="35855,8999
35848,9068
35828,9134
35795,9195
35748,9252
35745,9254
35745,9254
35691,9297
35691,9297
35690,9298
35630,9329
35563,9349
35495,9355
35425,9347
35360,9327
35299,9293
35247,9250
35203,9195
35171,9135
35151,9068
35144,9000
35151,8931
35171,8865
35204,8804
35251,8747
35254,8745
35254,8745
35308,8702
35308,8702
35309,8701
35369,8670
35436,8650
35504,8644
35574,8652
35639,8672
35700,8706
35752,8749
35796,8804
35828,8864
35848,8931
35855,8999
" /> 
</g> 
</svg>
