<?xml version="1.0" standalone="no"?>
 <!DOCTYPE svg PUBLIC "-//W3C//DTD SVG 1.1//EN" 
 "http://www.w3.org/Graphics/SVG/1.1/DTD/svg11.dtd"> 
<svg xmlns="http://www.w3.org/2000/svg" version="1.1" 
    width="41.9989cm" height="29.7002cm" viewBox="0 0 165350 116930 ">
<title>SVG Picture created as i2c_conn-F_Mask.svg date 2015/10/17 23:12:25 </title>
  <desc>Picture generated by PCBNEW </desc>
<g style="fill:#000000; fill-opacity:1;stroke:#000000; stroke-opacity:1;
stroke-linecap:round; stroke-linejoin:round; "
 transform="translate(0 0) scale(1 1)">
</g>
<g style="fill:#000000; fill-opacity:0.0; 
stroke:#000000; stroke-width:393.701; stroke-opacity:1; 
stroke-linecap:round; stroke-linejoin:round;">
<path d="M64450 34921
L64450 35078
" />
<path d="M63450 34921
L63450 35078
" />
<path d="M65450 34921
L65450 35078
" />
<path d="M62950 33921
L62950 34078
" />
<path d="M63950 33921
L63950 34078
" />
<path d="M64950 33921
L64950 34078
" />
</g>
<g style="fill:#000000; fill-opacity:0.0; 
stroke:#000000; stroke-width:488.189; stroke-opacity:1; 
stroke-linecap:round; stroke-linejoin:round;">
<path d="M65450 36700
L65450 36999
" />
<path d="M66450 36700
L66450 36999
" />
<path d="M64450 37999
L64450 37700
" />
<path d="M63450 37999
L63450 37700
" />
<path d="M65450 37700
L65450 37999
" />
<path d="M66450 37700
L66450 37999
" />
<path d="M64450 36999
L64450 36700
" />
<path d="M63450 36999
L63450 36700
" />
</g> 
</svg>
