<?xml version="1.0" standalone="no"?>
 <!DOCTYPE svg PUBLIC "-//W3C//DTD SVG 1.1//EN" 
 "http://www.w3.org/Graphics/SVG/1.1/DTD/svg11.dtd"> 
<svg xmlns="http://www.w3.org/2000/svg" version="1.1" 
    width="41.9989cm" height="29.7002cm" viewBox="0 0 165350 116930 ">
<title>SVG Picture created as i2c_conn-B_Cu.svg date 2015/10/17 23:12:25 </title>
  <desc>Picture generated by PCBNEW </desc>
<g style="fill:#000000; fill-opacity:1;stroke:#000000; stroke-opacity:1;
stroke-linecap:round; stroke-linejoin:round; "
 transform="translate(0 0) scale(1 1)">
</g>
<g style="fill:#000000; fill-opacity:0.0; 
stroke:#000000; stroke-width:393.701; stroke-opacity:1; 
stroke-linecap:round; stroke-linejoin:round;">
<path d="M64450 34921
L64450 35078
" />
<path d="M63450 34921
L63450 35078
" />
<path d="M65450 34921
L65450 35078
" />
<path d="M62950 33921
L62950 34078
" />
<path d="M63950 33921
L63950 34078
" />
<path d="M64950 33921
L64950 34078
" />
</g>
<g style="fill:#000000; fill-opacity:0.0; 
stroke:#000000; stroke-width:488.189; stroke-opacity:1; 
stroke-linecap:round; stroke-linejoin:round;">
<path d="M65450 36700
L65450 36999
" />
<path d="M66450 36700
L66450 36999
" />
<path d="M64450 37999
L64450 37700
" />
<path d="M63450 37999
L63450 37700
" />
<path d="M65450 37700
L65450 37999
" />
<path d="M66450 37700
L66450 37999
" />
<path d="M64450 36999
L64450 36700
" />
<path d="M63450 36999
L63450 36700
" />
</g>
<g style="fill:#000000; fill-opacity:0.0; 
stroke:#000000; stroke-width:157.48; stroke-opacity:1; 
stroke-linecap:round; stroke-linejoin:round;">
<path d="M65450 36850
L65450 37850
" />
<path d="M65450 36850
L65450 35000
" />
</g>
<g style="fill:#000000; fill-opacity:0.0; 
stroke:#000000; stroke-width:118.11; stroke-opacity:1; 
stroke-linecap:round; stroke-linejoin:round;">
<path d="M63450 36850
L63450 37850
" />
<path d="M63450 35000
L63450 36850
" />
<path d="M64450 36850
L64450 37850
" />
<path d="M64450 35000
L64450 36850
" />
</g>
<g style="fill:#000000; fill-opacity:1.0; 
stroke:#000000; stroke-width:59.0551; stroke-opacity:1; 
stroke-linecap:round; stroke-linejoin:round;">
<polyline style="fill-rule:evenodd;"
points="67651,38901
67225,38901
67225,31512
67199,31279
67199,31279
67160,31157
67046,30952
67046,30952
66963,30854
66780,30708
66779,30708
66666,30649
66440,30584
66440,30584
66312,30574
66079,30600
66079,30600
65957,30639
65752,30753
65752,30753
65654,30836
65508,31019
65508,31020
65449,31133
65384,31359
65374,31487
65374,31487
65400,31720
65400,31720
65439,31842
65553,32047
65553,32047
65636,32145
65819,32291
65820,32291
65933,32350
66159,32415
66159,32415
66287,32425
66520,32399
66520,32399
66642,32360
66847,32246
66847,32246
66945,32163
67091,31980
67091,31979
67150,31866
67215,31640
67215,31640
67225,31512
67225,38901
66992,38901
66992,38001
66992,37851
66992,37848
66992,37698
66950,37491
66855,37350
66950,37208
66992,37001
66992,36851
66992,36848
66992,36698
66950,36491
66832,36315
66656,36198
66536,36164
66451,36232
66451,36848
66992,36848
66992,36851
66451,36851
66451,37232
66451,37467
66451,37848
66992,37848
66992,37851
66451,37851
66451,38467
66536,38535
66656,38501
66832,38384
66950,38208
66992,38001
66992,38901
66448,38901
66448,38467
66448,37851
66440,37851
66440,37848
66448,37848
66448,37467
66448,37232
66448,36851
66440,36851
66440,36848
66448,36848
66448,36232
66363,36164
66243,36198
66067,36315
65952,36486
65951,36479
65833,36303
65827,36298
65827,35399
65907,35279
65945,35089
65945,34910
65907,34720
65800,34559
65639,34452
65450,34414
65267,34451
65299,34430
65406,34269
65445,34080
65445,34001
65445,33998
65445,33919
65406,33730
65299,33569
65138,33463
65029,33432
64951,33500
64951,33998
65445,33998
65445,34001
64951,34001
64951,34499
65029,34567
65131,34538
65099,34559
64992,34720
64954,34910
64954,35089
64992,35279
65072,35399
65072,36298
65066,36303
64950,36477
64833,36303
64807,36285
64807,35429
64907,35279
64945,35089
64945,34910
64907,34720
64800,34559
64768,34538
64870,34567
64948,34499
64948,34001
64948,33998
64948,33500
64870,33432
64761,33463
64600,33569
64493,33730
64454,33919
64454,33998
64948,33998
64948,34001
64454,34001
64454,34080
64493,34269
64600,34430
64632,34451
64450,34414
64267,34451
64299,34430
64406,34269
64445,34080
64445,34001
64445,33998
64445,33919
64406,33730
64299,33569
64138,33463
64029,33432
63951,33500
63951,33998
64445,33998
64445,34001
63951,34001
63951,34499
64029,34567
64131,34538
64099,34559
63992,34720
63954,34910
63954,35089
63992,35279
64092,35429
64092,36285
64066,36303
63950,36477
63833,36303
63807,36285
63807,35429
63907,35279
63945,35089
63945,34910
63907,34720
63800,34559
63768,34538
63870,34567
63948,34499
63948,34001
63948,33998
63948,33500
63870,33432
63761,33463
63600,33569
63493,33730
63454,33919
63454,33998
63948,33998
63948,34001
63454,34001
63454,34080
63493,34269
63600,34430
63632,34451
63450,34414
63267,34451
63299,34430
63406,34269
63445,34080
63445,34001
63445,33998
63445,33919
63406,33730
63299,33569
63138,33463
63029,33432
63021,33438
63021,31563
63021,31500
63021,31436
63021,31436
63021,31435
62975,31206
62926,31087
62926,31087
62797,30894
62796,30893
62706,30802
62511,30672
62393,30623
62392,30623
62164,30578
62163,30578
62035,30578
61806,30624
61687,30673
61687,30673
61494,30802
61493,30803
61402,30893
61272,31088
61223,31206
61223,31207
61178,31435
61178,31436
61178,31436
61178,31500
61178,31563
61178,31563
61178,31564
61223,31792
61223,31793
61272,31911
61402,32106
61493,32196
61494,32197
61687,32326
61687,32326
61806,32375
62035,32421
62163,32421
62164,32421
62392,32376
62393,32376
62511,32327
62706,32197
62796,32106
62797,32105
62926,31912
62926,31912
62975,31793
63021,31564
63021,31563
63021,31563
63021,33438
62951,33500
62951,33998
63445,33998
63445,34001
62951,34001
62951,34499
63029,34567
63131,34538
63099,34559
62992,34720
62954,34910
62954,35089
62992,35279
63092,35429
63092,36285
63066,36303
62948,36479
62948,36480
62948,34499
62948,34001
62948,33998
62948,33500
62870,33432
62761,33463
62600,33569
62493,33730
62454,33919
62454,33998
62948,33998
62948,34001
62454,34001
62454,34080
62493,34269
62600,34430
62761,34536
62870,34567
62948,34499
62948,36480
62907,36686
62907,37013
62948,37220
63035,37350
62948,37479
62907,37686
62907,38013
62948,38220
63066,38396
63242,38514
63450,38555
63657,38514
63833,38396
63950,38222
64066,38396
64242,38514
64450,38555
64657,38514
64833,38396
64950,38222
65066,38396
65242,38514
65450,38555
65657,38514
65833,38396
65951,38220
65952,38213
66067,38384
66243,38501
66363,38535
66448,38467
66448,38901
62321,38901
62321,37813
62321,37750
62321,37686
62321,37685
62321,37685
62321,37685
62283,37494
62234,37376
62234,37376
62126,37214
62126,37213
62035,37123
61873,37015
61873,37015
61755,36966
61563,36928
61435,36928
61434,36928
61244,36966
61126,37015
61126,37015
60964,37123
60963,37123
60873,37214
60765,37376
60765,37376
60716,37494
60678,37686
60678,37750
60678,37813
60716,38005
60765,38123
60765,38123
60873,38285
60963,38376
60964,38376
61126,38484
61126,38484
61244,38533
61434,38571
61435,38571
61563,38571
61755,38533
61873,38484
61873,38484
62035,38376
62126,38286
62126,38285
62234,38123
62234,38123
62283,38005
62321,37814
62321,37814
62321,37814
62321,37813
62321,38901
60348,38901
60348,29848
67651,29848
67651,38901
" /> 
</g>
<g style="fill:#000000; fill-opacity:0.0; 
stroke:#000000; stroke-width:196.85; stroke-opacity:1; 
stroke-linecap:round; stroke-linejoin:round;">
<polyline fill="none;"
points="67651,38901
67225,38901
67225,31512
67199,31279
67199,31279
67160,31157
67046,30952
67046,30952
66963,30854
66780,30708
66779,30708
66666,30649
66440,30584
66440,30584
66312,30574
66079,30600
66079,30600
65957,30639
65752,30753
65752,30753
65654,30836
65508,31019
65508,31020
65449,31133
65384,31359
65374,31487
65374,31487
65400,31720
65400,31720
65439,31842
65553,32047
65553,32047
65636,32145
65819,32291
65820,32291
65933,32350
66159,32415
66159,32415
66287,32425
66520,32399
66520,32399
66642,32360
66847,32246
66847,32246
66945,32163
67091,31980
67091,31979
67150,31866
67215,31640
67215,31640
67225,31512
67225,38901
66992,38901
66992,38001
66992,37851
66992,37848
66992,37698
66950,37491
66855,37350
66950,37208
66992,37001
66992,36851
66992,36848
66992,36698
66950,36491
66832,36315
66656,36198
66536,36164
66451,36232
66451,36848
66992,36848
66992,36851
66451,36851
66451,37232
66451,37467
66451,37848
66992,37848
66992,37851
66451,37851
66451,38467
66536,38535
66656,38501
66832,38384
66950,38208
66992,38001
66992,38901
66448,38901
66448,38467
66448,37851
66440,37851
66440,37848
66448,37848
66448,37467
66448,37232
66448,36851
66440,36851
66440,36848
66448,36848
66448,36232
66363,36164
66243,36198
66067,36315
65952,36486
65951,36479
65833,36303
65827,36298
65827,35399
65907,35279
65945,35089
65945,34910
65907,34720
65800,34559
65639,34452
65450,34414
65267,34451
65299,34430
65406,34269
65445,34080
65445,34001
65445,33998
65445,33919
65406,33730
65299,33569
65138,33463
65029,33432
64951,33500
64951,33998
65445,33998
65445,34001
64951,34001
64951,34499
65029,34567
65131,34538
65099,34559
64992,34720
64954,34910
64954,35089
64992,35279
65072,35399
65072,36298
65066,36303
64950,36477
64833,36303
64807,36285
64807,35429
64907,35279
64945,35089
64945,34910
64907,34720
64800,34559
64768,34538
64870,34567
64948,34499
64948,34001
64948,33998
64948,33500
64870,33432
64761,33463
64600,33569
64493,33730
64454,33919
64454,33998
64948,33998
64948,34001
64454,34001
64454,34080
64493,34269
64600,34430
64632,34451
64450,34414
64267,34451
64299,34430
64406,34269
64445,34080
64445,34001
64445,33998
64445,33919
64406,33730
64299,33569
64138,33463
64029,33432
63951,33500
63951,33998
64445,33998
64445,34001
63951,34001
63951,34499
64029,34567
64131,34538
64099,34559
63992,34720
63954,34910
63954,35089
63992,35279
64092,35429
64092,36285
64066,36303
63950,36477
63833,36303
63807,36285
63807,35429
63907,35279
63945,35089
63945,34910
63907,34720
63800,34559
63768,34538
63870,34567
63948,34499
63948,34001
63948,33998
63948,33500
63870,33432
63761,33463
63600,33569
63493,33730
63454,33919
63454,33998
63948,33998
63948,34001
63454,34001
63454,34080
63493,34269
63600,34430
63632,34451
63450,34414
63267,34451
63299,34430
63406,34269
63445,34080
63445,34001
63445,33998
63445,33919
63406,33730
63299,33569
63138,33463
63029,33432
63021,33438
63021,31563
63021,31500
63021,31436
63021,31436
63021,31435
62975,31206
62926,31087
62926,31087
62797,30894
62796,30893
62706,30802
62511,30672
62393,30623
62392,30623
62164,30578
62163,30578
62035,30578
61806,30624
61687,30673
61687,30673
61494,30802
61493,30803
61402,30893
61272,31088
61223,31206
61223,31207
61178,31435
61178,31436
61178,31436
61178,31500
61178,31563
61178,31563
61178,31564
61223,31792
61223,31793
61272,31911
61402,32106
61493,32196
61494,32197
61687,32326
61687,32326
61806,32375
62035,32421
62163,32421
62164,32421
62392,32376
62393,32376
62511,32327
62706,32197
62796,32106
62797,32105
62926,31912
62926,31912
62975,31793
63021,31564
63021,31563
63021,31563
63021,33438
62951,33500
62951,33998
63445,33998
63445,34001
62951,34001
62951,34499
63029,34567
63131,34538
63099,34559
62992,34720
62954,34910
62954,35089
62992,35279
63092,35429
63092,36285
63066,36303
62948,36479
62948,36480
62948,34499
62948,34001
62948,33998
62948,33500
62870,33432
62761,33463
62600,33569
62493,33730
62454,33919
62454,33998
62948,33998
62948,34001
62454,34001
62454,34080
62493,34269
62600,34430
62761,34536
62870,34567
62948,34499
62948,36480
62907,36686
62907,37013
62948,37220
63035,37350
62948,37479
62907,37686
62907,38013
62948,38220
63066,38396
63242,38514
63450,38555
63657,38514
63833,38396
63950,38222
64066,38396
64242,38514
64450,38555
64657,38514
64833,38396
64950,38222
65066,38396
65242,38514
65450,38555
65657,38514
65833,38396
65951,38220
65952,38213
66067,38384
66243,38501
66363,38535
66448,38467
66448,38901
62321,38901
62321,37813
62321,37750
62321,37686
62321,37685
62321,37685
62321,37685
62283,37494
62234,37376
62234,37376
62126,37214
62126,37213
62035,37123
61873,37015
61873,37015
61755,36966
61563,36928
61435,36928
61434,36928
61244,36966
61126,37015
61126,37015
60964,37123
60963,37123
60873,37214
60765,37376
60765,37376
60716,37494
60678,37686
60678,37750
60678,37813
60716,38005
60765,38123
60765,38123
60873,38285
60963,38376
60964,38376
61126,38484
61126,38484
61244,38533
61434,38571
61435,38571
61563,38571
61755,38533
61873,38484
61873,38484
62035,38376
62126,38286
62126,38285
62234,38123
62234,38123
62283,38005
62321,37814
62321,37814
62321,37814
62321,37813
62321,38901
60348,38901
60348,29848
67651,29848
67651,38901
" /> 
</g>
<g style="fill:#FFFFFF; fill-opacity:0.0; 
stroke:#FFFFFF; stroke-width:59.0551; stroke-opacity:1; 
stroke-linecap:round; stroke-linejoin:round;">
</g>
<g style="fill:#FFFFFF; fill-opacity:1.0; 
stroke:#FFFFFF; stroke-width:59.0551; stroke-opacity:1; 
stroke-linecap:round; stroke-linejoin:round;">
<circle cx="64450" cy="35000" r="39.3701" /> 
<circle cx="63450" cy="35000" r="39.3701" /> 
<circle cx="65450" cy="35000" r="39.3701" /> 
<circle cx="62950" cy="34000" r="39.3701" /> 
<circle cx="63950" cy="34000" r="39.3701" /> 
<circle cx="64950" cy="34000" r="39.3701" /> 
<circle cx="65450" cy="36850" r="39.3701" /> 
<circle cx="66450" cy="36850" r="39.3701" /> 
<circle cx="64450" cy="37850" r="39.3701" /> 
<circle cx="63450" cy="37850" r="39.3701" /> 
<circle cx="65450" cy="37850" r="39.3701" /> 
<circle cx="66450" cy="37850" r="39.3701" /> 
<circle cx="64450" cy="36850" r="39.3701" /> 
<circle cx="63450" cy="36850" r="39.3701" /> 
</g> 
</svg>
