<?xml version="1.0" standalone="no"?>
 <!DOCTYPE svg PUBLIC "-//W3C//DTD SVG 1.1//EN" 
 "http://www.w3.org/Graphics/SVG/1.1/DTD/svg11.dtd"> 
<svg xmlns="http://www.w3.org/2000/svg" version="1.1" 
    width="41.9989cm" height="29.7002cm" viewBox="0 0 165350 116930 ">
<title>SVG Picture created as selector_ctrl-F_Mask.svg date 2014/10/14 12:12:28 </title>
  <desc>Picture generated by PCBNEW </desc>
<g style="fill:#000000; fill-opacity:1;stroke:#000000; stroke-opacity:1;
stroke-linecap:round; stroke-linejoin:round; "
 transform="translate(0 0) scale(1 1)">
</g>
<g style="fill:#000000; fill-opacity:0.0; 
stroke:#000000; stroke-width:39.3701; stroke-opacity:1; 
stroke-linecap:round; stroke-linejoin:round;">
<circle cx="33500" cy="36500" r="500" /> 
<circle cx="43000" cy="12000" r="500" /> 
<circle cx="33500" cy="17750" r="500" /> 
</g>
<g style="fill:#000000; fill-opacity:1.0; 
stroke:#000000; stroke-width:59.0551; stroke-opacity:1; 
stroke-linecap:round; stroke-linejoin:round;">
<polyline style="fill-rule:evenodd;"
points="33879,34467
33878,34543
33860,34624
33833,34684
33785,34752
33738,34797
33667,34842
33606,34865
33524,34880
33459,34878
33377,34860
33318,34834
33249,34787
33204,34740
33158,34669
33135,34609
33119,34526
33120,34462
33138,34379
33163,34320
33211,34251
33257,34206
33328,34159
33387,34135
33470,34119
33534,34120
33617,34137
33676,34162
33747,34209
33791,34254
33839,34326
33863,34384
33879,34467
" /> 
<polyline style="fill-rule:evenodd;"
points="34129,15217
34128,15293
34110,15374
34083,15434
34035,15502
33988,15547
33917,15592
33856,15615
33774,15630
33709,15628
33627,15610
33568,15584
33499,15537
33454,15490
33408,15419
33385,15359
33369,15276
33370,15212
33388,15129
33413,15070
33461,15001
33507,14956
33578,14909
33637,14885
33720,14869
33784,14870
33867,14887
33926,14912
33997,14959
34041,15004
34089,15076
34113,15134
34129,15217
" /> 
<polyline style="fill-rule:evenodd;"
points="34129,14629
33370,14629
33370,13870
34129,13870
34129,14629
" /> 
<polyline style="fill-rule:evenodd;"
points="35854,25469
35853,25540
35836,25616
35811,25672
35766,25735
35722,25777
35656,25819
35600,25841
35522,25855
35462,25853
35385,25837
35330,25812
35265,25767
35224,25724
35181,25658
35159,25602
35144,25524
35145,25465
35162,25387
35185,25332
35230,25267
35272,25225
35339,25182
35394,25160
35473,25144
35531,25145
35610,25161
35664,25184
35731,25229
35772,25270
35817,25337
35839,25391
35854,25469
" /> 
<polyline style="fill-rule:evenodd;"
points="35854,27469
35853,27540
35836,27616
35811,27672
35766,27735
35722,27777
35656,27819
35600,27841
35522,27855
35462,27853
35385,27837
35330,27812
35265,27767
35224,27724
35181,27658
35159,27602
35144,27524
35145,27465
35162,27387
35185,27332
35230,27267
35272,27225
35339,27182
35394,27160
35473,27144
35531,27145
35610,27161
35664,27184
35731,27229
35772,27270
35817,27337
35839,27391
35854,27469
" /> 
<polyline style="fill-rule:evenodd;"
points="35879,21467
35878,21543
35860,21624
35833,21684
35785,21752
35738,21797
35667,21842
35606,21865
35524,21880
35459,21878
35377,21860
35318,21834
35249,21787
35204,21740
35158,21669
35135,21609
35119,21526
35120,21462
35138,21379
35163,21320
35211,21251
35257,21206
35328,21159
35387,21135
35470,21119
35534,21120
35617,21137
35676,21162
35747,21209
35791,21254
35839,21326
35863,21384
35879,21467
" /> 
<polyline style="fill-rule:evenodd;"
points="35879,22467
35878,22543
35860,22624
35833,22684
35785,22752
35738,22797
35667,22842
35606,22865
35524,22880
35459,22878
35377,22860
35318,22834
35249,22787
35204,22740
35158,22669
35135,22609
35119,22526
35120,22462
35138,22379
35163,22320
35211,22251
35257,22206
35328,22159
35387,22135
35470,22119
35534,22120
35617,22137
35676,22162
35747,22209
35791,22254
35839,22326
35863,22384
35879,22467
" /> 
<polyline style="fill-rule:evenodd;"
points="35879,23467
35878,23543
35860,23624
35833,23684
35785,23752
35738,23797
35667,23842
35606,23865
35524,23880
35459,23878
35377,23860
35318,23834
35249,23787
35204,23740
35158,23669
35135,23609
35119,23526
35120,23462
35138,23379
35163,23320
35211,23251
35257,23206
35328,23159
35387,23135
35470,23119
35534,23120
35617,23137
35676,23162
35747,23209
35791,23254
35839,23326
35863,23384
35879,23467
" /> 
<polyline style="fill-rule:evenodd;"
points="35879,30467
35878,30543
35860,30624
35833,30684
35785,30752
35738,30797
35667,30842
35606,30865
35524,30880
35459,30878
35377,30860
35318,30834
35249,30787
35204,30740
35158,30669
35135,30609
35119,30526
35120,30462
35138,30379
35163,30320
35211,30251
35257,30206
35328,30159
35387,30135
35470,30119
35534,30120
35617,30137
35676,30162
35747,30209
35791,30254
35839,30326
35863,30384
35879,30467
" /> 
<polyline style="fill-rule:evenodd;"
points="35879,32467
35878,32543
35860,32624
35833,32684
35785,32752
35738,32797
35667,32842
35606,32865
35524,32880
35459,32878
35377,32860
35318,32834
35249,32787
35204,32740
35158,32669
35135,32609
35119,32526
35120,32462
35138,32379
35163,32320
35211,32251
35257,32206
35328,32159
35387,32135
35470,32119
35534,32120
35617,32137
35676,32162
35747,32209
35791,32254
35839,32326
35863,32384
35879,32467
" /> 
<polyline style="fill-rule:evenodd;"
points="35879,20879
35120,20879
35120,20120
35879,20120
35879,20879
" /> 
<polyline style="fill-rule:evenodd;"
points="35879,29879
35120,29879
35120,29120
35879,29120
35879,29879
" /> 
<polyline style="fill-rule:evenodd;"
points="35879,31879
35120,31879
35120,31120
35879,31120
35879,31879
" /> 
<polyline style="fill-rule:evenodd;"
points="37354,20469
37353,20540
37336,20616
37311,20672
37266,20735
37222,20777
37156,20819
37100,20841
37022,20855
36962,20853
36885,20837
36830,20812
36765,20767
36724,20724
36681,20658
36659,20602
36644,20524
36645,20465
36662,20387
36685,20332
36730,20267
36772,20225
36839,20182
36894,20160
36973,20144
37031,20145
37110,20161
37164,20184
37231,20229
37272,20270
37317,20337
37339,20391
37354,20469
" /> 
<polyline style="fill-rule:evenodd;"
points="37354,21469
37353,21540
37336,21616
37311,21672
37266,21735
37222,21777
37156,21819
37100,21841
37022,21855
36962,21853
36885,21837
36830,21812
36765,21767
36724,21724
36681,21658
36659,21602
36644,21524
36645,21465
36662,21387
36685,21332
36730,21267
36772,21225
36839,21182
36894,21160
36973,21144
37031,21145
37110,21161
37164,21184
37231,21229
37272,21270
37317,21337
37339,21391
37354,21469
" /> 
<polyline style="fill-rule:evenodd;"
points="37354,22469
37353,22540
37336,22616
37311,22672
37266,22735
37222,22777
37156,22819
37100,22841
37022,22855
36962,22853
36885,22837
36830,22812
36765,22767
36724,22724
36681,22658
36659,22602
36644,22524
36645,22465
36662,22387
36685,22332
36730,22267
36772,22225
36839,22182
36894,22160
36973,22144
37031,22145
37110,22161
37164,22184
37231,22229
37272,22270
37317,22337
37339,22391
37354,22469
" /> 
<polyline style="fill-rule:evenodd;"
points="37354,23469
37353,23540
37336,23616
37311,23672
37266,23735
37222,23777
37156,23819
37100,23841
37022,23855
36962,23853
36885,23837
36830,23812
36765,23767
36724,23724
36681,23658
36659,23602
36644,23524
36645,23465
36662,23387
36685,23332
36730,23267
36772,23225
36839,23182
36894,23160
36973,23144
37031,23145
37110,23161
37164,23184
37231,23229
37272,23270
37317,23337
37339,23391
37354,23469
" /> 
<polyline style="fill-rule:evenodd;"
points="37354,24469
37353,24540
37336,24616
37311,24672
37266,24735
37222,24777
37156,24819
37100,24841
37022,24855
36962,24853
36885,24837
36830,24812
36765,24767
36724,24724
36681,24658
36659,24602
36644,24524
36645,24465
36662,24387
36685,24332
36730,24267
36772,24225
36839,24182
36894,24160
36973,24144
37031,24145
37110,24161
37164,24184
37231,24229
37272,24270
37317,24337
37339,24391
37354,24469
" /> 
<polyline style="fill-rule:evenodd;"
points="37354,25469
37353,25540
37336,25616
37311,25672
37266,25735
37222,25777
37156,25819
37100,25841
37022,25855
36962,25853
36885,25837
36830,25812
36765,25767
36724,25724
36681,25658
36659,25602
36644,25524
36645,25465
36662,25387
36685,25332
36730,25267
36772,25225
36839,25182
36894,25160
36973,25144
37031,25145
37110,25161
37164,25184
37231,25229
37272,25270
37317,25337
37339,25391
37354,25469
" /> 
<polyline style="fill-rule:evenodd;"
points="37354,26469
37353,26540
37336,26616
37311,26672
37266,26735
37222,26777
37156,26819
37100,26841
37022,26855
36962,26853
36885,26837
36830,26812
36765,26767
36724,26724
36681,26658
36659,26602
36644,26524
36645,26465
36662,26387
36685,26332
36730,26267
36772,26225
36839,26182
36894,26160
36973,26144
37031,26145
37110,26161
37164,26184
37231,26229
37272,26270
37317,26337
37339,26391
37354,26469
" /> 
<polyline style="fill-rule:evenodd;"
points="37354,27469
37353,27540
37336,27616
37311,27672
37266,27735
37222,27777
37156,27819
37100,27841
37022,27855
36962,27853
36885,27837
36830,27812
36765,27767
36724,27724
36681,27658
36659,27602
36644,27524
36645,27465
36662,27387
36685,27332
36730,27267
36772,27225
36839,27182
36894,27160
36973,27144
37031,27145
37110,27161
37164,27184
37231,27229
37272,27270
37317,27337
37339,27391
37354,27469
" /> 
<polyline style="fill-rule:evenodd;"
points="37354,28469
37353,28540
37336,28616
37311,28672
37266,28735
37222,28777
37156,28819
37100,28841
37022,28855
36962,28853
36885,28837
36830,28812
36765,28767
36724,28724
36681,28658
36659,28602
36644,28524
36645,28465
36662,28387
36685,28332
36730,28267
36772,28225
36839,28182
36894,28160
36973,28144
37031,28145
37110,28161
37164,28184
37231,28229
37272,28270
37317,28337
37339,28391
37354,28469
" /> 
<polyline style="fill-rule:evenodd;"
points="37354,29469
37353,29540
37336,29616
37311,29672
37266,29735
37222,29777
37156,29819
37100,29841
37022,29855
36962,29853
36885,29837
36830,29812
36765,29767
36724,29724
36681,29658
36659,29602
36644,29524
36645,29465
36662,29387
36685,29332
36730,29267
36772,29225
36839,29182
36894,29160
36973,29144
37031,29145
37110,29161
37164,29184
37231,29229
37272,29270
37317,29337
37339,29391
37354,29469
" /> 
<polyline style="fill-rule:evenodd;"
points="37354,30469
37353,30540
37336,30616
37311,30672
37266,30735
37222,30777
37156,30819
37100,30841
37022,30855
36962,30853
36885,30837
36830,30812
36765,30767
36724,30724
36681,30658
36659,30602
36644,30524
36645,30465
36662,30387
36685,30332
36730,30267
36772,30225
36839,30182
36894,30160
36973,30144
37031,30145
37110,30161
37164,30184
37231,30229
37272,30270
37317,30337
37339,30391
37354,30469
" /> 
<polyline style="fill-rule:evenodd;"
points="37354,31469
37353,31540
37336,31616
37311,31672
37266,31735
37222,31777
37156,31819
37100,31841
37022,31855
36962,31853
36885,31837
36830,31812
36765,31767
36724,31724
36681,31658
36659,31602
36644,31524
36645,31465
36662,31387
36685,31332
36730,31267
36772,31225
36839,31182
36894,31160
36973,31144
37031,31145
37110,31161
37164,31184
37231,31229
37272,31270
37317,31337
37339,31391
37354,31469
" /> 
<polyline style="fill-rule:evenodd;"
points="37354,32469
37353,32540
37336,32616
37311,32672
37266,32735
37222,32777
37156,32819
37100,32841
37022,32855
36962,32853
36885,32837
36830,32812
36765,32767
36724,32724
36681,32658
36659,32602
36644,32524
36645,32465
36662,32387
36685,32332
36730,32267
36772,32225
36839,32182
36894,32160
36973,32144
37031,32145
37110,32161
37164,32184
37231,32229
37272,32270
37317,32337
37339,32391
37354,32469
" /> 
<polyline style="fill-rule:evenodd;"
points="37354,19854
36645,19854
36645,19145
37354,19145
37354,19854
" /> 
<polyline style="fill-rule:evenodd;"
points="37379,16717
37378,16793
37360,16874
37333,16934
37285,17002
37238,17047
37167,17092
37106,17115
37024,17130
36959,17128
36877,17110
36818,17084
36749,17037
36704,16990
36658,16919
36635,16859
36619,16776
36620,16712
36638,16629
36663,16570
36711,16501
36757,16456
36828,16409
36887,16385
36970,16369
37034,16370
37117,16387
37176,16412
37247,16459
37291,16504
37339,16576
37363,16634
37379,16717
" /> 
<polyline style="fill-rule:evenodd;"
points="37879,34467
37878,34543
37860,34624
37833,34684
37785,34752
37738,34797
37667,34842
37606,34865
37524,34880
37459,34878
37377,34860
37318,34834
37249,34787
37204,34740
37158,34669
37135,34609
37119,34526
37120,34462
37138,34379
37163,34320
37211,34251
37257,34206
37328,34159
37387,34135
37470,34119
37534,34120
37617,34137
37676,34162
37747,34209
37791,34254
37839,34326
37863,34384
37879,34467
" /> 
<polyline style="fill-rule:evenodd;"
points="38679,14462
38678,14549
38657,14640
38627,14709
38573,14785
38518,14837
38440,14886
38370,14914
38278,14930
38203,14928
38112,14908
38043,14878
37966,14825
37914,14771
37864,14692
37836,14623
37819,14531
37820,14456
37840,14364
37869,14296
37922,14218
37975,14167
38054,14115
38123,14087
38216,14069
38289,14070
38382,14089
38450,14117
38529,14171
38580,14223
38633,14302
38661,14369
38679,14462
" /> 
<polyline style="fill-rule:evenodd;"
points="38679,12929
37820,12929
37820,12070
38679,12070
38679,12929
" /> 
<polyline style="fill-rule:evenodd;"
points="40104,35469
40103,35540
40086,35616
40061,35672
40016,35735
39972,35777
39906,35819
39850,35841
39772,35855
39712,35853
39635,35837
39580,35812
39515,35767
39474,35724
39431,35658
39409,35602
39394,35524
39395,35465
39412,35387
39435,35332
39480,35267
39522,35225
39589,35182
39644,35160
39723,35144
39781,35145
39860,35161
39914,35184
39981,35229
40022,35270
40067,35337
40089,35391
40104,35469
" /> 
<polyline style="fill-rule:evenodd;"
points="40104,34854
39395,34854
39395,34145
40104,34145
40104,34854
" /> 
<polyline style="fill-rule:evenodd;"
points="40354,19469
40353,19540
40336,19616
40311,19672
40266,19735
40222,19777
40156,19819
40100,19841
40022,19855
39962,19853
39885,19837
39830,19812
39765,19767
39724,19724
39681,19658
39659,19602
39644,19524
39645,19465
39662,19387
39685,19332
39730,19267
39772,19225
39839,19182
39894,19160
39973,19144
40031,19145
40110,19161
40164,19184
40231,19229
40272,19270
40317,19337
40339,19391
40354,19469
" /> 
<polyline style="fill-rule:evenodd;"
points="40354,20469
40353,20540
40336,20616
40311,20672
40266,20735
40222,20777
40156,20819
40100,20841
40022,20855
39962,20853
39885,20837
39830,20812
39765,20767
39724,20724
39681,20658
39659,20602
39644,20524
39645,20465
39662,20387
39685,20332
39730,20267
39772,20225
39839,20182
39894,20160
39973,20144
40031,20145
40110,20161
40164,20184
40231,20229
40272,20270
40317,20337
40339,20391
40354,20469
" /> 
<polyline style="fill-rule:evenodd;"
points="40354,21469
40353,21540
40336,21616
40311,21672
40266,21735
40222,21777
40156,21819
40100,21841
40022,21855
39962,21853
39885,21837
39830,21812
39765,21767
39724,21724
39681,21658
39659,21602
39644,21524
39645,21465
39662,21387
39685,21332
39730,21267
39772,21225
39839,21182
39894,21160
39973,21144
40031,21145
40110,21161
40164,21184
40231,21229
40272,21270
40317,21337
40339,21391
40354,21469
" /> 
<polyline style="fill-rule:evenodd;"
points="40354,22469
40353,22540
40336,22616
40311,22672
40266,22735
40222,22777
40156,22819
40100,22841
40022,22855
39962,22853
39885,22837
39830,22812
39765,22767
39724,22724
39681,22658
39659,22602
39644,22524
39645,22465
39662,22387
39685,22332
39730,22267
39772,22225
39839,22182
39894,22160
39973,22144
40031,22145
40110,22161
40164,22184
40231,22229
40272,22270
40317,22337
40339,22391
40354,22469
" /> 
<polyline style="fill-rule:evenodd;"
points="40354,23469
40353,23540
40336,23616
40311,23672
40266,23735
40222,23777
40156,23819
40100,23841
40022,23855
39962,23853
39885,23837
39830,23812
39765,23767
39724,23724
39681,23658
39659,23602
39644,23524
39645,23465
39662,23387
39685,23332
39730,23267
39772,23225
39839,23182
39894,23160
39973,23144
40031,23145
40110,23161
40164,23184
40231,23229
40272,23270
40317,23337
40339,23391
40354,23469
" /> 
<polyline style="fill-rule:evenodd;"
points="40354,24469
40353,24540
40336,24616
40311,24672
40266,24735
40222,24777
40156,24819
40100,24841
40022,24855
39962,24853
39885,24837
39830,24812
39765,24767
39724,24724
39681,24658
39659,24602
39644,24524
39645,24465
39662,24387
39685,24332
39730,24267
39772,24225
39839,24182
39894,24160
39973,24144
40031,24145
40110,24161
40164,24184
40231,24229
40272,24270
40317,24337
40339,24391
40354,24469
" /> 
<polyline style="fill-rule:evenodd;"
points="40354,25469
40353,25540
40336,25616
40311,25672
40266,25735
40222,25777
40156,25819
40100,25841
40022,25855
39962,25853
39885,25837
39830,25812
39765,25767
39724,25724
39681,25658
39659,25602
39644,25524
39645,25465
39662,25387
39685,25332
39730,25267
39772,25225
39839,25182
39894,25160
39973,25144
40031,25145
40110,25161
40164,25184
40231,25229
40272,25270
40317,25337
40339,25391
40354,25469
" /> 
<polyline style="fill-rule:evenodd;"
points="40354,26469
40353,26540
40336,26616
40311,26672
40266,26735
40222,26777
40156,26819
40100,26841
40022,26855
39962,26853
39885,26837
39830,26812
39765,26767
39724,26724
39681,26658
39659,26602
39644,26524
39645,26465
39662,26387
39685,26332
39730,26267
39772,26225
39839,26182
39894,26160
39973,26144
40031,26145
40110,26161
40164,26184
40231,26229
40272,26270
40317,26337
40339,26391
40354,26469
" /> 
<polyline style="fill-rule:evenodd;"
points="40354,27469
40353,27540
40336,27616
40311,27672
40266,27735
40222,27777
40156,27819
40100,27841
40022,27855
39962,27853
39885,27837
39830,27812
39765,27767
39724,27724
39681,27658
39659,27602
39644,27524
39645,27465
39662,27387
39685,27332
39730,27267
39772,27225
39839,27182
39894,27160
39973,27144
40031,27145
40110,27161
40164,27184
40231,27229
40272,27270
40317,27337
40339,27391
40354,27469
" /> 
<polyline style="fill-rule:evenodd;"
points="40354,28469
40353,28540
40336,28616
40311,28672
40266,28735
40222,28777
40156,28819
40100,28841
40022,28855
39962,28853
39885,28837
39830,28812
39765,28767
39724,28724
39681,28658
39659,28602
39644,28524
39645,28465
39662,28387
39685,28332
39730,28267
39772,28225
39839,28182
39894,28160
39973,28144
40031,28145
40110,28161
40164,28184
40231,28229
40272,28270
40317,28337
40339,28391
40354,28469
" /> 
<polyline style="fill-rule:evenodd;"
points="40354,29469
40353,29540
40336,29616
40311,29672
40266,29735
40222,29777
40156,29819
40100,29841
40022,29855
39962,29853
39885,29837
39830,29812
39765,29767
39724,29724
39681,29658
39659,29602
39644,29524
39645,29465
39662,29387
39685,29332
39730,29267
39772,29225
39839,29182
39894,29160
39973,29144
40031,29145
40110,29161
40164,29184
40231,29229
40272,29270
40317,29337
40339,29391
40354,29469
" /> 
<polyline style="fill-rule:evenodd;"
points="40354,30469
40353,30540
40336,30616
40311,30672
40266,30735
40222,30777
40156,30819
40100,30841
40022,30855
39962,30853
39885,30837
39830,30812
39765,30767
39724,30724
39681,30658
39659,30602
39644,30524
39645,30465
39662,30387
39685,30332
39730,30267
39772,30225
39839,30182
39894,30160
39973,30144
40031,30145
40110,30161
40164,30184
40231,30229
40272,30270
40317,30337
40339,30391
40354,30469
" /> 
<polyline style="fill-rule:evenodd;"
points="40354,31469
40353,31540
40336,31616
40311,31672
40266,31735
40222,31777
40156,31819
40100,31841
40022,31855
39962,31853
39885,31837
39830,31812
39765,31767
39724,31724
39681,31658
39659,31602
39644,31524
39645,31465
39662,31387
39685,31332
39730,31267
39772,31225
39839,31182
39894,31160
39973,31144
40031,31145
40110,31161
40164,31184
40231,31229
40272,31270
40317,31337
40339,31391
40354,31469
" /> 
<polyline style="fill-rule:evenodd;"
points="40354,32469
40353,32540
40336,32616
40311,32672
40266,32735
40222,32777
40156,32819
40100,32841
40022,32855
39962,32853
39885,32837
39830,32812
39765,32767
39724,32724
39681,32658
39659,32602
39644,32524
39645,32465
39662,32387
39685,32332
39730,32267
39772,32225
39839,32182
39894,32160
39973,32144
40031,32145
40110,32161
40164,32184
40231,32229
40272,32270
40317,32337
40339,32391
40354,32469
" /> 
<polyline style="fill-rule:evenodd;"
points="41379,16717
41378,16793
41360,16874
41333,16934
41285,17002
41238,17047
41167,17092
41106,17115
41024,17130
40959,17128
40877,17110
40818,17084
40749,17037
40704,16990
40658,16919
40635,16859
40619,16776
40620,16712
40638,16629
40663,16570
40711,16501
40757,16456
40828,16409
40887,16385
40970,16369
41034,16370
41117,16387
41176,16412
41247,16459
41291,16504
41339,16576
41363,16634
41379,16717
" /> 
<polyline style="fill-rule:evenodd;"
points="41854,24469
41853,24540
41836,24616
41811,24672
41766,24735
41722,24777
41656,24819
41600,24841
41522,24855
41462,24853
41385,24837
41330,24812
41265,24767
41224,24724
41181,24658
41159,24602
41144,24524
41145,24465
41162,24387
41185,24332
41230,24267
41272,24225
41339,24182
41394,24160
41473,24144
41531,24145
41610,24161
41664,24184
41731,24229
41772,24270
41817,24337
41839,24391
41854,24469
" /> 
<polyline style="fill-rule:evenodd;"
points="41854,27469
41853,27540
41836,27616
41811,27672
41766,27735
41722,27777
41656,27819
41600,27841
41522,27855
41462,27853
41385,27837
41330,27812
41265,27767
41224,27724
41181,27658
41159,27602
41144,27524
41145,27465
41162,27387
41185,27332
41230,27267
41272,27225
41339,27182
41394,27160
41473,27144
41531,27145
41610,27161
41664,27184
41731,27229
41772,27270
41817,27337
41839,27391
41854,27469
" /> 
<polyline style="fill-rule:evenodd;"
points="41879,19467
41878,19543
41860,19624
41833,19684
41785,19752
41738,19797
41667,19842
41606,19865
41524,19880
41459,19878
41377,19860
41318,19834
41249,19787
41204,19740
41158,19669
41135,19609
41119,19526
41120,19462
41138,19379
41163,19320
41211,19251
41257,19206
41328,19159
41387,19135
41470,19119
41534,19120
41617,19137
41676,19162
41747,19209
41791,19254
41839,19326
41863,19384
41879,19467
" /> 
<polyline style="fill-rule:evenodd;"
points="41879,28467
41878,28543
41860,28624
41833,28684
41785,28752
41738,28797
41667,28842
41606,28865
41524,28880
41459,28878
41377,28860
41318,28834
41249,28787
41204,28740
41158,28669
41135,28609
41119,28526
41120,28462
41138,28379
41163,28320
41211,28251
41257,28206
41328,28159
41387,28135
41470,28119
41534,28120
41617,28137
41676,28162
41747,28209
41791,28254
41839,28326
41863,28384
41879,28467
" /> 
<polyline style="fill-rule:evenodd;"
points="41879,29467
41878,29543
41860,29624
41833,29684
41785,29752
41738,29797
41667,29842
41606,29865
41524,29880
41459,29878
41377,29860
41318,29834
41249,29787
41204,29740
41158,29669
41135,29609
41119,29526
41120,29462
41138,29379
41163,29320
41211,29251
41257,29206
41328,29159
41387,29135
41470,29119
41534,29120
41617,29137
41676,29162
41747,29209
41791,29254
41839,29326
41863,29384
41879,29467
" /> 
<polyline style="fill-rule:evenodd;"
points="41879,31467
41878,31543
41860,31624
41833,31684
41785,31752
41738,31797
41667,31842
41606,31865
41524,31880
41459,31878
41377,31860
41318,31834
41249,31787
41204,31740
41158,31669
41135,31609
41119,31526
41120,31462
41138,31379
41163,31320
41211,31251
41257,31206
41328,31159
41387,31135
41470,31119
41534,31120
41617,31137
41676,31162
41747,31209
41791,31254
41839,31326
41863,31384
41879,31467
" /> 
<polyline style="fill-rule:evenodd;"
points="41879,33467
41878,33543
41860,33624
41833,33684
41785,33752
41738,33797
41667,33842
41606,33865
41524,33880
41459,33878
41377,33860
41318,33834
41249,33787
41204,33740
41158,33669
41135,33609
41119,33526
41120,33462
41138,33379
41163,33320
41211,33251
41257,33206
41328,33159
41387,33135
41470,33119
41534,33120
41617,33137
41676,33162
41747,33209
41791,33254
41839,33326
41863,33384
41879,33467
" /> 
<polyline style="fill-rule:evenodd;"
points="41879,34467
41878,34543
41860,34624
41833,34684
41785,34752
41738,34797
41667,34842
41606,34865
41524,34880
41459,34878
41377,34860
41318,34834
41249,34787
41204,34740
41158,34669
41135,34609
41119,34526
41120,34462
41138,34379
41163,34320
41211,34251
41257,34206
41328,34159
41387,34135
41470,34119
41534,34120
41617,34137
41676,34162
41747,34209
41791,34254
41839,34326
41863,34384
41879,34467
" /> 
<polyline style="fill-rule:evenodd;"
points="41879,20879
41120,20879
41120,20120
41879,20120
41879,20879
" /> 
<polyline style="fill-rule:evenodd;"
points="41879,22879
41120,22879
41120,22120
41879,22120
41879,22879
" /> 
<polyline style="fill-rule:evenodd;"
points="41879,30879
41120,30879
41120,30120
41879,30120
41879,30879
" /> 
<polyline style="fill-rule:evenodd;"
points="41879,32879
41120,32879
41120,32120
41879,32120
41879,32879
" /> 
</g> 
</svg>
