%TF.GenerationSoftware,KiCad,Pcbnew,10.0.6*%
%TF.CreationDate,2026-09-17T20:20:47+03:00*%
%TF.ProjectId,mute,6d757465-2e6b-4696-9361-645f70636258,rev?*%
%TF.SameCoordinates,Original*%
%TF.FileFunction,Copper,L2,Bot*%
%TF.FilePolarity,Positive*%
%FSLAX46Y46*%
G04 Gerber Fmt 4.6, Leading zero omitted, Abs format (unit mm)*
G04 Created by KiCad (PCBNEW 10.0.6) date 2026-09-17 20:20:47*
%MOMM*%
%LPD*%
G01*
G04 APERTURE LIST*
%TA.AperFunction,EtchedComponent*%
%ADD10C,0.000000*%
%TD*%
%TA.AperFunction,ComponentPad*%
%ADD11O,2.600000X1.600000*%
%TD*%
%TA.AperFunction,ComponentPad*%
%ADD12O,1.600000X2.600000*%
%TD*%
%TA.AperFunction,SMDPad,CuDef*%
%ADD13C,1.000000*%
%TD*%
%TA.AperFunction,Conductor*%
%ADD14C,1.000000*%
%TD*%
%TA.AperFunction,Profile*%
%ADD15C,0.200000*%
%TD*%
G04 APERTURE END LIST*
D10*
%TA.AperFunction,EtchedComponent*%
%TO.C,NT3*%
G36*
X139250589Y-57114661D02*
G01*
X138250589Y-57114661D01*
X138250589Y-55114661D01*
X139250589Y-55114661D01*
X139250589Y-57114661D01*
G37*
%TD.AperFunction*%
%TD*%
D11*
%TO.P,J11,1,Pin_1_1*%
%TO.N,/board#3/CABLE_SHD*%
X138750589Y-57103000D03*
%TO.P,J11,2,Pin_2_2*%
%TO.N,/board#3/AMP_MUTE_PIN*%
X138750589Y-59603000D03*
%TO.P,J11,3,Pin_3_3*%
%TO.N,/board#3/AMP_GND_PIN*%
X138750589Y-62103000D03*
%TD*%
D12*
%TO.P,R15,1*%
%TO.N,Net-(R15-Pad1)*%
X122875589Y-56388000D03*
%TO.P,R15,2*%
%TO.N,/board#3/3.3V_PICO*%
X120335589Y-56388000D03*
%TD*%
D11*
%TO.P,R20,1*%
%TO.N,/board#3/MUTE_CTRL*%
X120970589Y-62738000D03*
%TO.P,R20,2*%
%TO.N,GNDD*%
X120970589Y-60198000D03*
%TD*%
D13*
%TO.P,NT3,1,1_1*%
%TO.N,/board#3/CABLE_SHD*%
X138750589Y-57118000D03*
%TO.P,NT3,2,2_2*%
%TO.N,GNDD*%
X138750589Y-55118000D03*
%TD*%
D11*
%TO.P,U4,1*%
%TO.N,Net-(R15-Pad1)*%
X126050589Y-57023000D03*
%TO.P,U4,2*%
%TO.N,/board#3/MUTE_CTRL*%
X126050589Y-59563000D03*
%TO.P,U4,3,NC_3*%
%TO.N,unconnected-(U4-NC-Pad3)*%
X126050589Y-62103000D03*
%TO.P,U4,4*%
%TO.N,/board#3/AMP_GND_PIN*%
X133670589Y-62103000D03*
%TO.P,U4,5*%
%TO.N,/board#3/AMP_MUTE_PIN*%
X133670589Y-59563000D03*
%TO.P,U4,6*%
%TO.N,unconnected-(U4-Pad6)*%
X133670589Y-57023000D03*
%TD*%
%TO.P,J23,1,Pin_1_1*%
%TO.N,/board#3/3.3V_PICO*%
X115780589Y-57063000D03*
%TO.P,J23,2,Pin_2_2*%
%TO.N,GNDD*%
X115780589Y-59563000D03*
%TO.P,J23,3,Pin_3_3*%
%TO.N,/board#3/MUTE_CTRL*%
X115780589Y-62063000D03*
%TD*%
%TO.N,/board#3/MUTE_CTRL*%
D14*
X120970589Y-62738000D02*
X116455589Y-62738000D01*
%TO.N,/board#3/3.3V_PICO*%
X120335589Y-56388000D02*
X116455589Y-56388000D01*
%TO.N,Net-(R15-Pad1)*%
X122875589Y-56388000D02*
X125415589Y-56388000D01*
%TO.N,/board#3/AMP_MUTE_PIN*%
X133670589Y-59563000D02*
X138710589Y-59563000D01*
%TO.N,/board#3/3.3V_PICO*%
X116455589Y-56388000D02*
X115780589Y-57063000D01*
%TO.N,/board#3/MUTE_CTRL*%
X120970589Y-62738000D02*
X121945741Y-62738000D01*
X121945741Y-62738000D02*
X125120741Y-59563000D01*
%TO.N,Net-(R15-Pad1)*%
X125415589Y-56388000D02*
X126050589Y-57023000D01*
%TO.N,/board#3/MUTE_CTRL*%
X125120741Y-59563000D02*
X126050589Y-59563000D01*
X116455589Y-62738000D02*
X115780589Y-62063000D01*
%TO.N,/board#3/AMP_GND_PIN*%
X133670589Y-62103000D02*
X138750589Y-62103000D01*
%TD*%
%TA.AperFunction,Conductor*%
%TO.N,GNDD*%
G36*
X147270911Y-52578733D02*
G01*
X147273858Y-52578401D01*
X147276924Y-52579028D01*
X147295093Y-52579921D01*
X147431570Y-52593363D01*
X147508282Y-52608622D01*
X147620664Y-52642712D01*
X147692929Y-52672645D01*
X147796501Y-52728005D01*
X147861533Y-52771457D01*
X147952320Y-52845964D01*
X148007627Y-52901271D01*
X148082128Y-52992051D01*
X148125583Y-53057087D01*
X148180943Y-53160659D01*
X148210876Y-53232924D01*
X148244966Y-53345306D01*
X148245661Y-53350332D01*
X148247760Y-53354952D01*
X148260224Y-53422015D01*
X148273667Y-53558493D01*
X148275589Y-53597605D01*
X148275589Y-65528394D01*
X148273667Y-65567506D01*
X148260224Y-65703984D01*
X148251590Y-65737068D01*
X148247760Y-65771047D01*
X148244966Y-65780693D01*
X148210876Y-65893075D01*
X148180943Y-65965340D01*
X148125583Y-66068912D01*
X148082128Y-66133948D01*
X148007627Y-66224728D01*
X147952317Y-66280038D01*
X147861537Y-66354539D01*
X147796501Y-66397994D01*
X147692929Y-66453354D01*
X147620664Y-66483287D01*
X147508282Y-66517377D01*
X147431573Y-66532635D01*
X147295096Y-66546078D01*
X147276926Y-66546970D01*
X147273858Y-66547599D01*
X147270909Y-66547266D01*
X147255984Y-66548000D01*
X106115194Y-66548000D01*
X106076082Y-66546078D01*
X105939604Y-66532635D01*
X105862895Y-66517377D01*
X105750513Y-66483287D01*
X105678248Y-66453354D01*
X105574676Y-66397994D01*
X105509640Y-66354539D01*
X105418857Y-66280035D01*
X105363553Y-66224731D01*
X105289046Y-66133944D01*
X105245594Y-66068912D01*
X105190234Y-65965340D01*
X105160301Y-65893075D01*
X105126211Y-65780693D01*
X105110952Y-65703981D01*
X105097510Y-65567503D01*
X105095589Y-65528394D01*
X105095589Y-59425326D01*
X106805089Y-59425326D01*
X106805089Y-59476734D01*
X106805089Y-59700674D01*
X106841029Y-59973666D01*
X106912294Y-60239632D01*
X107017666Y-60494021D01*
X107153737Y-60729703D01*
X107155341Y-60732480D01*
X107155345Y-60732487D01*
X107322950Y-60950915D01*
X107322957Y-60950923D01*
X107322961Y-60950928D01*
X107517661Y-61145628D01*
X107517664Y-61145630D01*
X107517673Y-61145638D01*
X107736101Y-61313243D01*
X107736105Y-61313245D01*
X107736110Y-61313249D01*
X107974568Y-61450923D01*
X108228957Y-61556295D01*
X108494923Y-61627560D01*
X108767915Y-61663500D01*
X108767921Y-61663500D01*
X109043257Y-61663500D01*
X109043263Y-61663500D01*
X109316255Y-61627560D01*
X109582221Y-61556295D01*
X109836610Y-61450923D01*
X110075068Y-61313249D01*
X110139052Y-61264153D01*
X110293504Y-61145638D01*
X110293504Y-61145637D01*
X110293517Y-61145628D01*
X110488217Y-60950928D01*
X110563359Y-60853001D01*
X110655832Y-60732487D01*
X110655832Y-60732486D01*
X110655838Y-60732479D01*
X110793512Y-60494021D01*
X110898884Y-60239632D01*
X110970149Y-59973666D01*
X111006089Y-59700674D01*
X111006089Y-59425326D01*
X110970149Y-59152334D01*
X110898884Y-58886368D01*
X110793512Y-58631979D01*
X110655838Y-58393521D01*
X110655834Y-58393516D01*
X110655832Y-58393512D01*
X110488227Y-58175084D01*
X110488219Y-58175075D01*
X110488217Y-58175072D01*
X110293517Y-57980372D01*
X110293512Y-57980368D01*
X110293504Y-57980361D01*
X110075076Y-57812756D01*
X110075069Y-57812752D01*
X110075070Y-57812752D01*
X110075068Y-57812751D01*
X109836610Y-57675077D01*
X109582221Y-57569705D01*
X109316255Y-57498440D01*
X109316254Y-57498439D01*
X109316251Y-57498439D01*
X109213953Y-57484971D01*
X109043263Y-57462500D01*
X108767915Y-57462500D01*
X108613333Y-57482850D01*
X108494926Y-57498439D01*
X108228957Y-57569705D01*
X107974568Y-57675077D01*
X107974565Y-57675078D01*
X107736108Y-57812752D01*
X107736101Y-57812756D01*
X107517673Y-57980361D01*
X107517664Y-57980369D01*
X107322958Y-58175075D01*
X107322950Y-58175084D01*
X107155345Y-58393512D01*
X107155341Y-58393519D01*
X107017667Y-58631976D01*
X107017666Y-58631979D01*
X106912294Y-58886368D01*
X106841028Y-59152337D01*
X106836306Y-59188209D01*
X106805089Y-59425326D01*
X105095589Y-59425326D01*
X105095589Y-56937038D01*
X113680089Y-56937038D01*
X113680089Y-57188962D01*
X113719499Y-57437785D01*
X113719500Y-57437790D01*
X113784351Y-57637379D01*
X113797348Y-57677379D01*
X113911719Y-57901845D01*
X114059796Y-58105656D01*
X114237933Y-58283793D01*
X114441744Y-58431870D01*
X114666210Y-58546241D01*
X114905804Y-58624090D01*
X115154627Y-58663500D01*
X115154630Y-58663500D01*
X116406548Y-58663500D01*
X116406551Y-58663500D01*
X116655374Y-58624090D01*
X116894968Y-58546241D01*
X117119434Y-58431870D01*
X117323245Y-58283793D01*
X117501382Y-58105656D01*
X117649459Y-57901845D01*
X117649466Y-57901830D01*
X117657650Y-57888478D01*
X117659378Y-57889537D01*
X117720546Y-57805354D01*
X117821542Y-57731982D01*
X117940268Y-57693410D01*
X118002671Y-57688500D01*
X118735559Y-57688500D01*
X118858857Y-57708028D01*
X118970085Y-57764702D01*
X119058356Y-57852973D01*
X119114796Y-57930656D01*
X119292933Y-58108793D01*
X119496744Y-58256870D01*
X119721210Y-58371241D01*
X119960804Y-58449090D01*
X120209627Y-58488500D01*
X120209630Y-58488500D01*
X120461548Y-58488500D01*
X120461551Y-58488500D01*
X120710374Y-58449090D01*
X120949968Y-58371241D01*
X121174434Y-58256870D01*
X121174433Y-58256870D01*
X121174436Y-58256869D01*
X121287015Y-58175075D01*
X121371065Y-58114009D01*
X121482290Y-58057337D01*
X121605588Y-58037808D01*
X121728886Y-58057336D01*
X121840112Y-58114009D01*
X121883671Y-58145656D01*
X122036741Y-58256869D01*
X122089583Y-58283793D01*
X122261210Y-58371241D01*
X122500804Y-58449090D01*
X122749627Y-58488500D01*
X122749630Y-58488500D01*
X123001548Y-58488500D01*
X123001551Y-58488500D01*
X123250374Y-58449090D01*
X123365992Y-58411523D01*
X123489285Y-58391994D01*
X123612583Y-58411521D01*
X123723812Y-58468194D01*
X123812084Y-58556464D01*
X123868759Y-58667692D01*
X123888289Y-58790990D01*
X123868762Y-58914288D01*
X123812089Y-59025517D01*
X123771425Y-59073130D01*
X121823919Y-61020636D01*
X121722925Y-61094012D01*
X121604200Y-61132588D01*
X121541783Y-61137500D01*
X120344627Y-61137500D01*
X120095804Y-61176910D01*
X120095798Y-61176911D01*
X119856209Y-61254759D01*
X119631737Y-61369133D01*
X119618380Y-61377319D01*
X119616642Y-61374483D01*
X119531311Y-61417967D01*
X119408014Y-61437500D01*
X118002671Y-61437500D01*
X117879373Y-61417972D01*
X117768145Y-61361298D01*
X117679873Y-61273026D01*
X117657988Y-61237314D01*
X117657650Y-61237522D01*
X117649463Y-61224163D01*
X117649459Y-61224155D01*
X117501382Y-61020344D01*
X117323245Y-60842207D01*
X117119434Y-60694130D01*
X116894968Y-60579759D01*
X116892035Y-60578806D01*
X116655379Y-60501911D01*
X116655375Y-60501910D01*
X116655374Y-60501910D01*
X116406551Y-60462500D01*
X115154627Y-60462500D01*
X114905804Y-60501910D01*
X114905798Y-60501911D01*
X114666209Y-60579759D01*
X114441743Y-60694130D01*
X114237935Y-60842205D01*
X114059794Y-61020346D01*
X113911719Y-61224154D01*
X113797348Y-61448620D01*
X113719500Y-61688209D01*
X113719499Y-61688214D01*
X113719499Y-61688215D01*
X113680089Y-61937038D01*
X113680089Y-62188962D01*
X113719499Y-62437785D01*
X113719500Y-62437790D01*
X113732497Y-62477790D01*
X113797348Y-62677379D01*
X113911719Y-62901845D01*
X114059796Y-63105656D01*
X114237933Y-63283793D01*
X114441744Y-63431870D01*
X114666210Y-63546241D01*
X114905804Y-63624090D01*
X115154627Y-63663500D01*
X115387245Y-63663500D01*
X115510543Y-63683028D01*
X115621769Y-63739701D01*
X115621772Y-63739703D01*
X115773973Y-63850284D01*
X115773975Y-63850285D01*
X115773978Y-63850287D01*
X115865174Y-63896753D01*
X115956370Y-63943220D01*
X116004299Y-63958793D01*
X116151054Y-64006477D01*
X116353237Y-64038500D01*
X116557940Y-64038500D01*
X119407998Y-64038500D01*
X119531296Y-64058028D01*
X119616643Y-64101514D01*
X119618380Y-64098681D01*
X119631737Y-64106866D01*
X119631742Y-64106868D01*
X119631744Y-64106870D01*
X119856210Y-64221241D01*
X120095804Y-64299090D01*
X120344627Y-64338500D01*
X120344630Y-64338500D01*
X121596548Y-64338500D01*
X121596551Y-64338500D01*
X121845374Y-64299090D01*
X122084968Y-64221241D01*
X122309434Y-64106870D01*
X122513245Y-63958793D01*
X122584665Y-63887371D01*
X122632262Y-63846719D01*
X122792960Y-63729966D01*
X123598630Y-62924294D01*
X123699619Y-62850922D01*
X123818344Y-62812345D01*
X123943179Y-62812345D01*
X124061904Y-62850921D01*
X124162897Y-62924297D01*
X124203556Y-62971902D01*
X124329796Y-63145656D01*
X124507933Y-63323793D01*
X124711744Y-63471870D01*
X124936210Y-63586241D01*
X125175804Y-63664090D01*
X125424627Y-63703500D01*
X125424630Y-63703500D01*
X126676548Y-63703500D01*
X126676551Y-63703500D01*
X126925374Y-63664090D01*
X127164968Y-63586241D01*
X127389434Y-63471870D01*
X127593245Y-63323793D01*
X127771382Y-63145656D01*
X127919459Y-62941845D01*
X128033830Y-62717379D01*
X128111679Y-62477785D01*
X128151089Y-62228962D01*
X128151089Y-61977038D01*
X128111679Y-61728215D01*
X128033830Y-61488621D01*
X127923979Y-61273026D01*
X127919458Y-61264152D01*
X127795843Y-61094012D01*
X127776598Y-61067523D01*
X127719926Y-60956299D01*
X127700397Y-60833001D01*
X127719925Y-60709703D01*
X127776599Y-60598475D01*
X127890396Y-60441847D01*
X127919458Y-60401847D01*
X127921596Y-60397650D01*
X128033830Y-60177379D01*
X128111679Y-59937785D01*
X128151089Y-59688962D01*
X128151089Y-59437038D01*
X128111679Y-59188215D01*
X128033830Y-58948621D01*
X127939840Y-58764155D01*
X127919458Y-58724152D01*
X127808210Y-58571034D01*
X127776598Y-58527523D01*
X127719926Y-58416299D01*
X127700397Y-58293001D01*
X127719925Y-58169703D01*
X127776599Y-58058475D01*
X127869467Y-57930653D01*
X127919458Y-57861847D01*
X127944473Y-57812752D01*
X128033830Y-57637379D01*
X128111679Y-57397785D01*
X128151089Y-57148962D01*
X128151089Y-56897038D01*
X131570089Y-56897038D01*
X131570089Y-57148962D01*
X131582760Y-57228962D01*
X131609500Y-57397790D01*
X131687348Y-57637379D01*
X131801719Y-57861846D01*
X131944578Y-58058474D01*
X132001252Y-58169702D01*
X132020780Y-58293000D01*
X132001252Y-58416298D01*
X131944578Y-58527526D01*
X131801719Y-58724153D01*
X131687348Y-58948620D01*
X131609500Y-59188209D01*
X131609499Y-59188214D01*
X131609499Y-59188215D01*
X131570089Y-59437038D01*
X131570089Y-59688962D01*
X131590792Y-59819673D01*
X131609500Y-59937790D01*
X131687348Y-60177379D01*
X131801719Y-60401846D01*
X131944578Y-60598474D01*
X132001252Y-60709702D01*
X132020780Y-60833000D01*
X132001252Y-60956298D01*
X131944578Y-61067526D01*
X131801719Y-61264153D01*
X131687348Y-61488620D01*
X131609500Y-61728209D01*
X131609499Y-61728214D01*
X131609499Y-61728215D01*
X131570089Y-61977038D01*
X131570089Y-62228962D01*
X131609499Y-62477785D01*
X131609500Y-62477790D01*
X131623144Y-62519781D01*
X131687348Y-62717379D01*
X131801719Y-62941845D01*
X131949796Y-63145656D01*
X132127933Y-63323793D01*
X132331744Y-63471870D01*
X132556210Y-63586241D01*
X132795804Y-63664090D01*
X133044627Y-63703500D01*
X133044630Y-63703500D01*
X134296548Y-63703500D01*
X134296551Y-63703500D01*
X134545374Y-63664090D01*
X134784968Y-63586241D01*
X135009434Y-63471870D01*
X135009440Y-63471866D01*
X135022798Y-63463681D01*
X135024535Y-63466516D01*
X135109867Y-63423033D01*
X135233164Y-63403500D01*
X137187998Y-63403500D01*
X137311296Y-63423028D01*
X137396643Y-63466514D01*
X137398380Y-63463681D01*
X137411737Y-63471866D01*
X137411742Y-63471868D01*
X137411744Y-63471870D01*
X137636210Y-63586241D01*
X137875804Y-63664090D01*
X138124627Y-63703500D01*
X138124630Y-63703500D01*
X139376548Y-63703500D01*
X139376551Y-63703500D01*
X139625374Y-63664090D01*
X139864968Y-63586241D01*
X140089434Y-63471870D01*
X140293245Y-63323793D01*
X140471382Y-63145656D01*
X140619459Y-62941845D01*
X140733830Y-62717379D01*
X140811679Y-62477785D01*
X140851089Y-62228962D01*
X140851089Y-61977038D01*
X140811679Y-61728215D01*
X140733830Y-61488621D01*
X140619459Y-61264155D01*
X140612632Y-61254759D01*
X140588192Y-61221119D01*
X140491129Y-61087524D01*
X140434457Y-60976299D01*
X140414928Y-60853001D01*
X140434456Y-60729703D01*
X140491130Y-60618475D01*
X140491129Y-60618475D01*
X140619459Y-60441845D01*
X140733830Y-60217379D01*
X140811679Y-59977785D01*
X140851089Y-59728962D01*
X140851089Y-59477038D01*
X140842899Y-59425326D01*
X142365089Y-59425326D01*
X142365089Y-59476734D01*
X142365089Y-59700674D01*
X142401029Y-59973666D01*
X142472294Y-60239632D01*
X142577666Y-60494021D01*
X142713737Y-60729703D01*
X142715341Y-60732480D01*
X142715345Y-60732487D01*
X142882950Y-60950915D01*
X142882957Y-60950923D01*
X142882961Y-60950928D01*
X143077661Y-61145628D01*
X143077664Y-61145630D01*
X143077673Y-61145638D01*
X143296101Y-61313243D01*
X143296105Y-61313245D01*
X143296110Y-61313249D01*
X143534568Y-61450923D01*
X143788957Y-61556295D01*
X144054923Y-61627560D01*
X144327915Y-61663500D01*
X144327921Y-61663500D01*
X144603257Y-61663500D01*
X144603263Y-61663500D01*
X144876255Y-61627560D01*
X145142221Y-61556295D01*
X145396610Y-61450923D01*
X145635068Y-61313249D01*
X145699052Y-61264153D01*
X145853504Y-61145638D01*
X145853504Y-61145637D01*
X145853517Y-61145628D01*
X146048217Y-60950928D01*
X146123359Y-60853001D01*
X146215832Y-60732487D01*
X146215832Y-60732486D01*
X146215838Y-60732479D01*
X146353512Y-60494021D01*
X146458884Y-60239632D01*
X146530149Y-59973666D01*
X146566089Y-59700674D01*
X146566089Y-59425326D01*
X146530149Y-59152334D01*
X146458884Y-58886368D01*
X146353512Y-58631979D01*
X146215838Y-58393521D01*
X146215834Y-58393516D01*
X146215832Y-58393512D01*
X146048227Y-58175084D01*
X146048219Y-58175075D01*
X146048217Y-58175072D01*
X145853517Y-57980372D01*
X145853512Y-57980368D01*
X145853504Y-57980361D01*
X145635076Y-57812756D01*
X145635069Y-57812752D01*
X145635070Y-57812752D01*
X145635068Y-57812751D01*
X145396610Y-57675077D01*
X145142221Y-57569705D01*
X144876255Y-57498440D01*
X144876254Y-57498439D01*
X144876251Y-57498439D01*
X144773953Y-57484971D01*
X144603263Y-57462500D01*
X144327915Y-57462500D01*
X144173333Y-57482850D01*
X144054926Y-57498439D01*
X143788957Y-57569705D01*
X143534568Y-57675077D01*
X143534565Y-57675078D01*
X143296108Y-57812752D01*
X143296101Y-57812756D01*
X143077673Y-57980361D01*
X143077664Y-57980369D01*
X142882958Y-58175075D01*
X142882950Y-58175084D01*
X142715345Y-58393512D01*
X142715341Y-58393519D01*
X142577667Y-58631976D01*
X142577666Y-58631979D01*
X142472294Y-58886368D01*
X142401028Y-59152337D01*
X142396306Y-59188209D01*
X142365089Y-59425326D01*
X140842899Y-59425326D01*
X140811679Y-59228215D01*
X140733830Y-58988621D01*
X140619459Y-58764155D01*
X140491129Y-58587524D01*
X140434457Y-58476299D01*
X140414928Y-58353001D01*
X140434456Y-58229703D01*
X140491130Y-58118475D01*
X140491129Y-58118475D01*
X140619459Y-57941845D01*
X140733830Y-57717379D01*
X140811679Y-57477785D01*
X140851089Y-57228962D01*
X140851089Y-56977038D01*
X140811679Y-56728215D01*
X140733830Y-56488621D01*
X140619459Y-56264155D01*
X140471382Y-56060344D01*
X140293245Y-55882207D01*
X140089434Y-55734130D01*
X139864968Y-55619759D01*
X139625379Y-55541911D01*
X139625375Y-55541910D01*
X139625374Y-55541910D01*
X139376551Y-55502500D01*
X138124627Y-55502500D01*
X137889385Y-55539759D01*
X137875798Y-55541911D01*
X137636209Y-55619759D01*
X137411743Y-55734130D01*
X137207935Y-55882205D01*
X137029794Y-56060346D01*
X136881719Y-56264154D01*
X136767348Y-56488620D01*
X136689500Y-56728209D01*
X136689499Y-56728214D01*
X136689499Y-56728215D01*
X136650089Y-56977038D01*
X136650089Y-57228962D01*
X136687078Y-57462500D01*
X136689500Y-57477790D01*
X136772192Y-57732287D01*
X136769957Y-57733013D01*
X136793769Y-57832199D01*
X136783974Y-57956648D01*
X136736200Y-58071980D01*
X136655126Y-58166904D01*
X136548686Y-58232129D01*
X136427300Y-58261270D01*
X136395999Y-58262500D01*
X135986424Y-58262500D01*
X135863126Y-58242972D01*
X135751898Y-58186298D01*
X135663626Y-58098026D01*
X135606952Y-57986798D01*
X135587424Y-57863500D01*
X135606952Y-57740202D01*
X135630912Y-57682358D01*
X135634622Y-57675077D01*
X135653830Y-57637379D01*
X135731679Y-57397785D01*
X135771089Y-57148962D01*
X135771089Y-56897038D01*
X135731679Y-56648215D01*
X135653830Y-56408621D01*
X135539459Y-56184155D01*
X135391382Y-55980344D01*
X135213245Y-55802207D01*
X135009434Y-55654130D01*
X134784968Y-55539759D01*
X134545379Y-55461911D01*
X134545375Y-55461910D01*
X134545374Y-55461910D01*
X134296551Y-55422500D01*
X133044627Y-55422500D01*
X132795804Y-55461910D01*
X132795798Y-55461911D01*
X132556209Y-55539759D01*
X132331743Y-55654130D01*
X132127935Y-55802205D01*
X131949794Y-55980346D01*
X131801719Y-56184154D01*
X131687348Y-56408620D01*
X131609500Y-56648209D01*
X131609499Y-56648214D01*
X131609499Y-56648215D01*
X131570089Y-56897038D01*
X128151089Y-56897038D01*
X128111679Y-56648215D01*
X128033830Y-56408621D01*
X127919459Y-56184155D01*
X127771382Y-55980344D01*
X127593245Y-55802207D01*
X127389434Y-55654130D01*
X127164968Y-55539759D01*
X126925379Y-55461911D01*
X126925375Y-55461910D01*
X126925374Y-55461910D01*
X126676551Y-55422500D01*
X126676548Y-55422500D01*
X126428878Y-55422500D01*
X126305580Y-55402972D01*
X126194352Y-55346298D01*
X126194351Y-55346297D01*
X126097203Y-55275715D01*
X126097200Y-55275713D01*
X125982086Y-55217060D01*
X125982084Y-55217059D01*
X125914811Y-55182781D01*
X125914805Y-55182779D01*
X125911298Y-55181639D01*
X125817465Y-55151151D01*
X125720124Y-55119523D01*
X125517941Y-55087500D01*
X125517938Y-55087500D01*
X124475619Y-55087500D01*
X124352321Y-55067972D01*
X124241093Y-55011298D01*
X124152821Y-54923026D01*
X124096383Y-54845346D01*
X124096382Y-54845344D01*
X123918245Y-54667207D01*
X123714434Y-54519130D01*
X123489968Y-54404759D01*
X123250379Y-54326911D01*
X123250375Y-54326910D01*
X123250374Y-54326910D01*
X123001551Y-54287500D01*
X122749627Y-54287500D01*
X122500804Y-54326910D01*
X122500798Y-54326911D01*
X122261209Y-54404759D01*
X122036742Y-54519130D01*
X121840115Y-54661989D01*
X121728887Y-54718663D01*
X121605589Y-54738191D01*
X121482291Y-54718663D01*
X121371063Y-54661989D01*
X121174435Y-54519130D01*
X120949968Y-54404759D01*
X120710379Y-54326911D01*
X120710375Y-54326910D01*
X120710374Y-54326910D01*
X120461551Y-54287500D01*
X120209627Y-54287500D01*
X119960804Y-54326910D01*
X119960798Y-54326911D01*
X119721209Y-54404759D01*
X119496743Y-54519130D01*
X119292935Y-54667205D01*
X119114794Y-54845346D01*
X119058357Y-54923026D01*
X118970085Y-55011298D01*
X118858857Y-55067972D01*
X118735559Y-55087500D01*
X116353230Y-55087500D01*
X116151053Y-55119522D01*
X116151052Y-55119522D01*
X116053713Y-55151150D01*
X116053712Y-55151151D01*
X115987091Y-55172797D01*
X115956366Y-55182781D01*
X115889094Y-55217059D01*
X115889092Y-55217060D01*
X115773977Y-55275713D01*
X115773974Y-55275715D01*
X115621772Y-55386297D01*
X115510543Y-55442971D01*
X115387246Y-55462500D01*
X115154627Y-55462500D01*
X114905804Y-55501910D01*
X114905798Y-55501911D01*
X114666209Y-55579759D01*
X114441743Y-55694130D01*
X114237935Y-55842205D01*
X114059794Y-56020346D01*
X113911719Y-56224154D01*
X113797348Y-56448620D01*
X113719500Y-56688209D01*
X113719499Y-56688214D01*
X113719499Y-56688215D01*
X113680089Y-56937038D01*
X105095589Y-56937038D01*
X105095589Y-53597605D01*
X105097510Y-53558496D01*
X105110952Y-53422018D01*
X105126211Y-53345306D01*
X105160301Y-53232924D01*
X105190234Y-53160659D01*
X105245594Y-53057087D01*
X105289043Y-52992059D01*
X105363558Y-52901262D01*
X105418851Y-52845969D01*
X105509648Y-52771454D01*
X105574672Y-52728007D01*
X105678248Y-52672644D01*
X105750511Y-52642712D01*
X105862895Y-52608622D01*
X105939605Y-52593363D01*
X106076085Y-52579920D01*
X106115194Y-52578000D01*
X147255984Y-52578000D01*
X147270911Y-52578733D01*
G37*
%TD.AperFunction*%
%TD*%
D15*
X146065589Y-59563000D02*
G75*
G02*
X142865589Y-59563000I-1600000J0D01*
G01*
X142865589Y-59563000D02*
G75*
G02*
X146065589Y-59563000I1600000J0D01*
G01*
X110505589Y-59563000D02*
G75*
G02*
X107305589Y-59563000I-1600000J0D01*
G01*
X107305589Y-59563000D02*
G75*
G02*
X110505589Y-59563000I1600000J0D01*
G01*
X104079589Y-51562000D02*
X149291589Y-51562000D01*
X149291589Y-67564000D01*
X104079589Y-67564000D01*
X104079589Y-51562000D01*
M02*
