<?xml version="1.0" standalone="no"?>
 <!DOCTYPE svg PUBLIC "-//W3C//DTD SVG 1.1//EN" 
 "http://www.w3.org/Graphics/SVG/1.1/DTD/svg11.dtd"> 
<svg xmlns="http://www.w3.org/2000/svg" version="1.1" 
    width="21.0007cm" height="29.7002cm" viewBox="0 0 82680 116930 ">
<title>SVG Picture created as power_amp-B_Cu.svg date 2014/07/28 12:38:22 </title>
  <desc>Picture generated by PCBNEW </desc>
<g style="fill:#000000; fill-opacity:1;stroke:#000000; stroke-opacity:1;
stroke-linecap:round; stroke-linejoin:round; "
 transform="translate(0 0) scale(1 1)">
</g>
<g style="fill:#000000; fill-opacity:0.0; 
stroke:#000000; stroke-width:39.3701; stroke-opacity:1; 
stroke-linecap:round; stroke-linejoin:round;">
<path d="M70500 17000
L25000 17000
" />
<path d="M70500 43000
L70500 17000
" />
<path d="M25000 43000
L70500 43000
" />
<path d="M25000 17000
L25000 43000
" />
</g>
<g style="fill:#000000; fill-opacity:0.0; 
stroke:#000000; stroke-width:59.0551; stroke-opacity:1; 
stroke-linecap:round; stroke-linejoin:round;">
</g>
<g style="fill:#000000; fill-opacity:1.0; 
stroke:#000000; stroke-width:59.0551; stroke-opacity:1; 
stroke-linecap:round; stroke-linejoin:round;">
<circle cx="40000" cy="39000" r="265.748" /> 
<polyline style="fill-rule:evenodd;"
points="39734,34734
40265,34734
40265,35265
39734,35265
39734,34734
" /> 
<circle cx="56000" cy="25000" r="265.748" /> 
<polyline style="fill-rule:evenodd;"
points="55734,20734
56265,20734
56265,21265
55734,21265
55734,20734
" /> 
<polyline style="fill-rule:evenodd;"
points="68470,32470
67529,32470
67529,31529
68470,31529
68470,32470
" /> 
<circle cx="68000" cy="30000" r="470.472" /> 
<circle cx="68000" cy="28000" r="470.472" /> 
<polyline style="fill-rule:evenodd;"
points="31254,34754
31745,34754
31745,35245
31254,35245
31254,34754
" /> 
<circle cx="31500" cy="39000" r="245.472" /> 
<polyline style="fill-rule:evenodd;"
points="31254,20754
31745,20754
31745,21245
31254,21245
31254,20754
" /> 
<circle cx="31500" cy="25000" r="245.472" /> 
<circle cx="56000" cy="39000" r="265.748" /> 
<polyline style="fill-rule:evenodd;"
points="55734,34734
56265,34734
56265,35265
55734,35265
55734,34734
" /> 
<circle cx="40000" cy="25000" r="265.748" /> 
<polyline style="fill-rule:evenodd;"
points="39734,20734
40265,20734
40265,21265
39734,21265
39734,20734
" /> 
<polyline style="fill-rule:evenodd;"
points="63254,32754
63745,32754
63745,33245
63254,33245
63254,32754
" /> 
<circle cx="63500" cy="39000" r="245.472" /> 
<polyline style="fill-rule:evenodd;"
points="47754,20754
48245,20754
48245,21245
47754,21245
47754,20754
" /> 
<circle cx="48000" cy="27000" r="245.472" /> 
<polyline style="fill-rule:evenodd;"
points="63254,20754
63745,20754
63745,21245
63254,21245
63254,20754
" /> 
<circle cx="63500" cy="27000" r="245.472" /> 
<polyline style="fill-rule:evenodd;"
points="47754,32754
48245,32754
48245,33245
47754,33245
47754,32754
" /> 
<circle cx="48000" cy="39000" r="245.472" /> 
<polyline style="fill-rule:evenodd;"
points="27029,27529
27970,27529
27970,28470
27029,28470
27029,27529
" /> 
<circle cx="27500" cy="30000" r="470.472" /> 
<circle cx="27500" cy="32000" r="470.472" /> 
</g>
<g style="fill:#000000; fill-opacity:1.0; 
stroke:#000000; stroke-width:787.402; stroke-opacity:1; 
stroke-linecap:round; stroke-linejoin:round;">
<path d="M48000 39000
L50250 41250
" />
<path d="M50250 41250
L50500 41250
" />
<path d="M63500 39000
L67250 39000
" />
<path d="M56000 39000
L63500 39000
" />
<path d="M40000 39000
L48000 39000
" />
<path d="M31500 39000
L33750 41250
" />
<path d="M45750 41250
L50500 41250
" />
<path d="M33750 41250
L45750 41250
" />
<path d="M50500 41250
L54750 41250
" />
<path d="M65000 41250
L67250 39000
" />
<path d="M61750 41250
L65000 41250
" />
<path d="M61250 41250
L61750 41250
" />
<path d="M54750 41250
L61250 41250
" />
<path d="M68000 38250
L68000 34500
" />
<path d="M68000 32000
L68000 34500
" />
<path d="M67250 39000
L68000 38250
" />
<path d="M27500 32000
L27500 35000
" />
<path d="M27500 35000
L31500 39000
" />
<path d="M48000 21000
L50500 18500
" />
<path d="M63500 21000
L67000 21000
" />
<path d="M50500 18500
L60750 18500
" />
<path d="M60750 18500
L64500 18500
" />
<path d="M64500 18500
L67000 21000
" />
<path d="M45500 18500
L50500 18500
" />
<path d="M68000 22000
L68000 28000
" />
<path d="M67000 21000
L68000 22000
" />
<path d="M31500 21000
L34000 18500
" />
<path d="M34000 18500
L45500 18500
" />
<path d="M27500 28000
L27500 25000
" />
<path d="M27500 25000
L31500 21000
" />
<path d="M56000 21000
L59250 21000
" />
<path d="M59250 21000
L59750 21000
" />
<path d="M59750 21000
L63500 21000
" />
<path d="M40000 21000
L43250 21000
" />
<path d="M43250 21000
L48000 21000
" />
<path d="M63500 27000
L53750 27000
" />
<path d="M53750 27000
L50875 29875
" />
<path d="M63500 33000
L54000 33000
" />
<path d="M54000 33000
L51000 30000
" />
<path d="M56000 35000
L61500 35000
" />
<path d="M61500 35000
L63500 33000
" />
<path d="M48000 33000
L51000 30000
" />
<path d="M56000 25000
L61500 25000
" />
<path d="M61500 25000
L63500 27000
" />
<path d="M48000 27000
L50875 29875
" />
<path d="M50875 29875
L51000 30000
" />
<path d="M40000 25000
L45750 25000
" />
<path d="M45750 25000
L46000 25000
" />
<path d="M46000 25000
L48000 27000
" />
<path d="M68000 30000
L57000 30000
" />
<path d="M51000 30000
L57000 30000
" />
<path d="M40000 35000
L45750 35000
" />
<path d="M45750 35000
L46000 35000
" />
<path d="M46000 35000
L48000 33000
" />
<path d="M31500 25000
L31500 28000
" />
<path d="M31500 28000
L29500 30000
" />
<path d="M31500 35000
L31500 32000
" />
<path d="M31500 32000
L29500 30000
" />
<path d="M27500 30000
L29500 30000
" />
<path d="M29500 30000
L36500 30000
" />
<path d="M36500 30000
L51000 30000
" />
</g> 
</svg>
