<?xml version="1.0" standalone="no"?>
 <!DOCTYPE svg PUBLIC "-//W3C//DTD SVG 1.1//EN" 
 "http://www.w3.org/Graphics/SVG/1.1/DTD/svg11.dtd"> 
<svg xmlns="http://www.w3.org/2000/svg" version="1.1" 
    width="29.7002cm" height="21.0007cm" viewBox="0 0 116930 82680 ">
<title>SVG Picture created as panel_buttons_bt-F_Cu.svg date 2015/01/07 20:20:22 </title>
  <desc>Picture generated by PCBNEW </desc>
<g style="fill:#000000; fill-opacity:1;stroke:#000000; stroke-opacity:1;
stroke-linecap:round; stroke-linejoin:round; "
 transform="translate(0 0) scale(1 1)">
</g>
<g style="fill:#000000; fill-opacity:0.0; 
stroke:#000000; stroke-width:39.3701; stroke-opacity:1; 
stroke-linecap:round; stroke-linejoin:round;">
<circle cx="61500" cy="46680" r="500" /> 
<circle cx="35750" cy="43680" r="500" /> 
<circle cx="81750" cy="36180" r="500" /> 
<circle cx="81750" cy="48930" r="500" /> 
</g>
<g style="fill:#000000; fill-opacity:0.0; 
stroke:#000000; stroke-width:600; stroke-opacity:1; 
stroke-linecap:round; stroke-linejoin:round;">
<path d="M56750 36376
L56750 35983
" />
<path d="M58750 36376
L58750 35983
" />
<path d="M59750 36376
L59750 35983
" />
<path d="M61750 36376
L61750 35983
" />
<path d="M63250 36376
L63250 35983
" />
<path d="M65250 36376
L65250 35983
" />
<path d="M66250 36376
L66250 35983
" />
<path d="M68250 36376
L68250 35983
" />
<path d="M69250 36376
L69250 35983
" />
<path d="M71250 36376
L71250 35983
" />
<path d="M72250 36376
L72250 35983
" />
</g>
<g style="fill:#000000; fill-opacity:0.0; 
stroke:#000000; stroke-width:472.441; stroke-opacity:1; 
stroke-linecap:round; stroke-linejoin:round;">
<path d="M50500 38022
L50500 38337
" />
<path d="M49500 38022
L49500 38337
" />
<path d="M48500 38022
L48500 38337
" />
<path d="M47500 38022
L47500 38337
" />
<path d="M46500 38022
L46500 38337
" />
<path d="M45500 38022
L45500 38337
" />
<path d="M44500 38022
L44500 38337
" />
<path d="M43500 38022
L43500 38337
" />
<path d="M42500 38022
L42500 38337
" />
<path d="M41500 38022
L41500 38337
" />
<path d="M40500 38022
L40500 38337
" />
<path d="M39500 38022
L39500 38337
" />
<path d="M38500 38022
L38500 38337
" />
<path d="M51500 38022
L51500 38337
" />
<path d="M38500 41022
L38500 41337
" />
<path d="M39500 41022
L39500 41337
" />
<path d="M40500 41022
L40500 41337
" />
<path d="M41500 41022
L41500 41337
" />
<path d="M42500 41022
L42500 41337
" />
<path d="M43500 41022
L43500 41337
" />
<path d="M44500 41022
L44500 41337
" />
<path d="M45500 41022
L45500 41337
" />
<path d="M46500 41022
L46500 41337
" />
<path d="M47500 41022
L47500 41337
" />
<path d="M48500 41022
L48500 41337
" />
<path d="M49500 41022
L49500 41337
" />
<path d="M50500 41022
L50500 41337
" />
<path d="M51500 41022
L51500 41337
" />
</g>
<g style="fill:#000000; fill-opacity:0.0; 
stroke:#000000; stroke-width:680; stroke-opacity:1; 
stroke-linecap:round; stroke-linejoin:round;">
<path d="M45760 45680
L45240 45680
" />
<path d="M45760 47680
L45240 47680
" />
<path d="M50760 45680
L50240 45680
" />
<path d="M50760 47680
L50240 47680
" />
<path d="M54760 45680
L54240 45680
" />
<path d="M54760 47680
L54240 47680
" />
<path d="M59760 45680
L59240 45680
" />
<path d="M59760 47680
L59240 47680
" />
<path d="M63760 45680
L63240 45680
" />
<path d="M63760 47680
L63240 47680
" />
<path d="M68760 45680
L68240 45680
" />
<path d="M68760 47680
L68240 47680
" />
<path d="M72760 45680
L72240 45680
" />
<path d="M72760 47680
L72240 47680
" />
<path d="M77760 45680
L77240 45680
" />
<path d="M77760 47680
L77240 47680
" />
</g>
<g style="fill:#000000; fill-opacity:0.0; 
stroke:#000000; stroke-width:59.0551; stroke-opacity:1; 
stroke-linecap:round; stroke-linejoin:round;">
</g>
<g style="fill:#000000; fill-opacity:1.0; 
stroke:#000000; stroke-width:59.0551; stroke-opacity:1; 
stroke-linecap:round; stroke-linejoin:round;">
<circle cx="73250" cy="42680" r="270.472" /> 
<circle cx="73250" cy="38680" r="270.472" /> 
<circle cx="66250" cy="41680" r="270.472" /> 
<circle cx="70250" cy="41680" r="270.472" /> 
<circle cx="63250" cy="40680" r="270.472" /> 
<circle cx="67250" cy="40680" r="270.472" /> 
<circle cx="60250" cy="39430" r="270.472" /> 
<circle cx="64250" cy="39430" r="270.472" /> 
<circle cx="54250" cy="37930" r="270.472" /> 
<circle cx="58250" cy="37930" r="270.472" /> 
<circle cx="47250" cy="36680" r="270.472" /> 
<circle cx="51250" cy="36680" r="270.472" /> 
<circle cx="35500" cy="36430" r="270.472" /> 
<circle cx="35500" cy="40430" r="270.472" /> 
<polyline style="fill-rule:evenodd;"
points="74495,37434
74004,37434
74004,37925
74495,37925
74495,37434
" /> 
<circle cx="73250" cy="37680" r="245.472" /> 
<circle cx="72250" cy="37680" r="245.472" /> 
<polyline style="fill-rule:evenodd;"
points="53254,35925
53745,35925
53745,35434
53254,35434
53254,35925
" /> 
<circle cx="53500" cy="36680" r="245.472" /> 
<circle cx="54500" cy="36680" r="245.472" /> 
<polyline style="fill-rule:evenodd;"
points="61995,37434
61504,37434
61504,37925
61995,37925
61995,37434
" /> 
<circle cx="60750" cy="37680" r="245.472" /> 
<circle cx="59750" cy="37680" r="245.472" /> 
<polyline style="fill-rule:evenodd;"
points="65495,37434
65004,37434
65004,37925
65495,37925
65495,37434
" /> 
<circle cx="64250" cy="37680" r="245.472" /> 
<circle cx="63250" cy="37680" r="245.472" /> 
<polyline style="fill-rule:evenodd;"
points="68495,37434
68004,37434
68004,37925
68495,37925
68495,37434
" /> 
<circle cx="67250" cy="37680" r="245.472" /> 
<circle cx="66250" cy="37680" r="245.472" /> 
<polyline style="fill-rule:evenodd;"
points="71495,37434
71004,37434
71004,37925
71495,37925
71495,37434
" /> 
<circle cx="70250" cy="37680" r="245.472" /> 
<circle cx="69250" cy="37680" r="245.472" /> 
<polyline style="fill-rule:evenodd;"
points="36754,36184
36754,36675
37245,36675
37245,36184
36754,36184
" /> 
<circle cx="38000" cy="36430" r="245.472" /> 
<circle cx="43000" cy="36680" r="245.472" /> 
<circle cx="41000" cy="36680" r="245.472" /> 
</g>
<g style="fill:#000000; fill-opacity:1.0; 
stroke:#000000; stroke-width:600; stroke-opacity:1; 
stroke-linecap:round; stroke-linejoin:round;">
<path d="M36803 38180
L37196 38180
" />
<path d="M36803 39180
L37196 39180
" />
<path d="M36803 40180
L37196 40180
" />
<path d="M36803 41180
L37196 41180
" />
<path d="M47500 42483
L47500 42876
" />
<path d="M46500 42483
L46500 42876
" />
<path d="M45500 42483
L45500 42876
" />
<path d="M44500 42483
L44500 42876
" />
<path d="M43500 42483
L43500 42876
" />
<path d="M42500 42483
L42500 42876
" />
<path d="M44500 36876
L44500 36483
" />
<path d="M45500 36876
L45500 36483
" />
</g>
<g style="fill:#000000; fill-opacity:1.0; 
stroke:#000000; stroke-width:196.85; stroke-opacity:1; 
stroke-linecap:round; stroke-linejoin:round;">
<path d="M43000 36680
L42000 35680
" />
<path d="M43500 38180
L43500 37180
" />
<path d="M43500 37180
L43000 36680
" />
<path d="M35500 36430
L36250 35680
" />
<path d="M36250 35680
L37500 35680
" />
<path d="M37000 38180
L37000 36430
" />
<path d="M37000 36430
L37000 36180
" />
<path d="M37500 35680
L42000 35680
" />
<path d="M37000 36180
L37500 35680
" />
</g>
<g style="fill:#000000; fill-opacity:1.0; 
stroke:#000000; stroke-width:118.11; stroke-opacity:1; 
stroke-linecap:round; stroke-linejoin:round;">
<path d="M48500 41180
L48500 43680
" />
<path d="M48500 43680
L50500 45680
" />
<path d="M50500 45680
L45500 45680
" />
<path d="M54500 45680
L59500 45680
" />
<path d="M49500 41180
L49500 41930
" />
<path d="M53250 45680
L54500 45680
" />
<path d="M49500 41930
L53250 45680
" />
<path d="M63500 45680
L68500 45680
" />
<path d="M50500 41180
L50500 41680
" />
<path d="M62500 44680
L63500 45680
" />
<path d="M53500 44680
L62500 44680
" />
<path d="M50500 41680
L53500 44680
" />
<path d="M51500 41180
L54000 43680
" />
<path d="M54000 43680
L54750 43680
" />
<path d="M70500 43680
L72500 45680
" />
<path d="M54750 43680
L70500 43680
" />
<path d="M72500 45680
L77500 45680
" />
<path d="M57650 38830
L58250 39430
" />
<path d="M58250 39430
L58750 39430
" />
<path d="M50500 38180
L51150 38830
" />
<path d="M58750 39430
L60250 39430
" />
<path d="M51150 38830
L57650 38830
" />
<path d="M51500 38180
L54000 38180
" />
<path d="M54000 38180
L54250 37930
" />
<path d="M49400 39980
L49550 40130
" />
<path d="M49550 40130
L53900 40130
" />
<path d="M47500 38180
L47600 38180
" />
<path d="M47600 38180
L49400 39980
" />
<path d="M47600 38180
L49400 39980
" />
<path d="M56450 42680
L73250 42680
" />
<path d="M53900 40130
L56450 42680
" />
<path d="M46500 38180
L46500 37430
" />
<path d="M46500 37430
L47250 36680
" />
<path d="M48500 38180
L49850 39530
" />
<path d="M57250 41680
L66250 41680
" />
<path d="M55100 39530
L57250 41680
" />
<path d="M49850 39530
L55100 39530
" />
<path d="M49500 38180
L50500 39180
" />
<path d="M58000 40680
L63250 40680
" />
<path d="M56500 39180
L58000 40680
" />
<path d="M50500 39180
L56500 39180
" />
<path d="M37000 40180
L37750 40180
" />
<path d="M38250 39680
L39500 39680
" />
<path d="M37750 40180
L38250 39680
" />
<path d="M40500 38680
L40500 38180
" />
<path d="M39500 39680
L40500 38680
" />
<path d="M37000 39180
L39250 39180
" />
<path d="M39500 38930
L39500 38180
" />
<path d="M39250 39180
L39500 38930
" />
<path d="M64250 39430
L64250 37680
" />
<path d="M54500 36680
L55750 36680
" />
<path d="M58000 36930
L58750 36180
" />
<path d="M56000 36930
L58000 36930
" />
<path d="M55750 36680
L56000 36930
" />
<path d="M67250 37680
L67250 40680
" />
<path d="M70250 37680
L70250 41680
" />
<path d="M73250 37680
L73250 38680
" />
<path d="M71250 36180
L72000 35430
" />
<path d="M74250 36180
L74250 37680
" />
<path d="M73500 35430
L74250 36180
" />
<path d="M72000 35430
L73500 35430
" />
<path d="M71250 36180
L71250 37680
" />
<path d="M63250 36180
L63250 37680
" />
<path d="M68250 36180
L68250 37680
" />
<path d="M45500 41180
L45500 42680
" />
<path d="M47500 41180
L47500 42680
" />
<path d="M46500 41180
L46500 42680
" />
<path d="M44500 41180
L44500 42680
" />
<path d="M43500 41180
L43500 42680
" />
<path d="M42500 41180
L42500 42680
" />
<path d="M45500 36680
L45500 38180
" />
<path d="M44500 36680
L44500 38180
" />
<path d="M66250 36180
L66250 37680
" />
<path d="M35500 40430
L35500 41430
" />
<path d="M39000 42180
L41000 42180
" />
<path d="M41000 42180
L41500 41680
" />
<path d="M41500 41680
L41500 41180
" />
<path d="M36250 42180
L39000 42180
" />
<path d="M35500 41430
L36250 42180
" />
<path d="M38500 41180
L38500 41680
" />
<path d="M38500 41680
L39000 42180
" />
<path d="M41500 41680
L41500 41180
" />
<path d="M51250 36680
L53500 36680
" />
<path d="M69250 36180
L69250 37680
" />
<path d="M53500 35680
L56250 35680
" />
<path d="M56250 35680
L56750 36180
" />
<path d="M72250 36180
L72250 37680
" />
<path d="M61750 36180
L61750 37680
" />
<path d="M58250 37930
L59000 38680
" />
<path d="M59000 38680
L59250 38680
" />
<path d="M60750 38180
L60750 37680
" />
<path d="M60250 38680
L60750 38180
" />
<path d="M59000 38680
L59250 38680
" />
<path d="M59250 38680
L60250 38680
" />
<path d="M58500 38180
L59000 38680
" />
<path d="M59750 36180
L59750 37680
" />
<path d="M65250 36180
L65250 37680
" />
</g>
<g style="fill:#000000; fill-opacity:1.0; 
stroke:#000000; stroke-width:59.0551; stroke-opacity:1; 
stroke-linecap:round; stroke-linejoin:round;">
<polyline style="fill-rule:evenodd;"
points="83190,34489
82520,34489
82520,36126
82520,36180
82520,36233
82520,48876
82520,48930
82520,48983
82520,48983
82520,48984
82520,48984
82482,49174
82441,49274
82440,49274
82332,49436
82332,49437
82256,49512
82094,49620
82094,49621
81994,49662
81803,49700
81695,49700
81695,49699
81505,49662
81405,49621
81405,49620
81243,49512
81242,49512
81167,49436
81059,49274
81058,49274
81017,49174
80979,48983
80979,48930
80979,48876
81017,48685
81058,48585
81059,48585
81167,48423
81242,48347
81243,48347
81405,48239
81405,48238
81505,48197
81695,48160
81695,48159
81803,48159
81994,48197
82094,48238
82094,48239
82256,48347
82332,48422
82332,48423
82440,48585
82441,48585
82482,48685
82520,48875
82520,48875
82520,48876
82520,48876
82520,36233
82520,36233
82520,36234
82520,36234
82482,36424
82441,36524
82440,36524
82332,36686
82332,36687
82256,36762
82094,36870
82094,36871
81994,36912
81803,36950
81695,36950
81695,36949
81505,36912
81405,36871
81405,36870
81243,36762
81242,36762
81167,36686
81059,36524
81058,36524
81017,36424
80979,36233
80979,36180
80979,36126
81017,35935
81058,35835
81059,35835
81167,35673
81242,35597
81243,35597
81405,35489
81405,35488
81505,35447
81695,35410
81695,35409
81803,35409
81994,35447
82094,35488
82094,35489
82256,35597
82332,35672
82332,35673
82440,35835
82441,35835
82482,35935
82520,36125
82520,36125
82520,36126
82520,36126
82520,34489
78372,34489
78372,45680
78327,45908
78198,46101
78004,46230
77776,46275
77223,46275
76995,46230
76801,46101
76730,45994
73269,45994
73198,46101
73004,46230
72776,46275
72223,46275
71995,46230
71801,46101
71672,45908
71627,45680
71672,45451
71734,45359
70369,43994
69372,43994
69372,45680
69327,45908
69198,46101
69004,46230
68776,46275
68223,46275
67995,46230
67801,46101
67730,45994
64269,45994
64198,46101
64004,46230
63776,46275
63223,46275
62995,46230
62801,46101
62672,45908
62627,45680
62672,45451
62734,45359
62369,44994
62270,44994
62270,46626
62270,46680
62270,46733
62270,46733
62270,46734
62270,46734
62232,46924
62191,47024
62190,47024
62082,47186
62082,47187
62006,47262
61844,47370
61844,47371
61744,47412
61553,47450
61445,47450
61445,47449
61255,47412
61155,47371
61155,47370
60993,47262
60992,47262
60917,47186
60809,47024
60808,47024
60767,46924
60729,46733
60729,46680
60729,46626
60767,46435
60808,46335
60809,46335
60917,46173
60992,46097
60993,46097
61155,45989
61155,45988
61255,45947
61445,45910
61445,45909
61553,45909
61744,45947
61844,45988
61844,45989
62006,46097
62082,46172
62082,46173
62190,46335
62191,46335
62232,46435
62270,46625
62270,46625
62270,46626
62270,46626
62270,44994
60372,44994
60372,45680
60327,45908
60198,46101
60004,46230
59776,46275
59223,46275
58995,46230
58801,46101
58730,45994
55269,45994
55198,46101
55004,46230
54776,46275
54223,46275
53995,46230
53801,46101
53730,45994
53250,45994
53129,45970
53027,45902
51372,44248
51372,45680
51327,45908
51198,46101
51004,46230
50776,46275
50223,46275
49995,46230
49801,46101
49730,45994
46269,45994
46198,46101
46004,46230
45776,46275
45223,46275
44995,46230
44801,46101
44672,45908
44627,45680
44672,45451
44801,45258
44995,45129
45223,45084
45776,45084
46004,45129
46198,45258
46269,45365
49730,45365
49734,45359
48277,43902
48209,43800
48185,43680
48185,41720
48152,41698
48055,41554
48055,42468
48055,42891
48013,43104
47893,43284
47712,43405
47500,43447
47287,43405
47106,43284
47000,43124
46893,43284
46712,43405
46500,43447
46287,43405
46106,43284
46000,43124
45893,43284
45712,43405
45500,43447
45287,43405
45106,43284
45000,43124
44893,43284
44712,43405
44500,43447
44287,43405
44106,43284
44000,43124
43893,43284
43712,43405
43500,43447
43287,43405
43106,43284
43000,43124
42893,43284
42712,43405
42500,43447
42287,43405
42106,43284
41986,43104
41944,42891
41944,42468
41986,42255
42106,42075
42185,42023
42185,41720
42152,41698
42045,41538
42007,41350
42007,41009
42045,40821
42152,40661
42311,40555
42500,40517
42688,40555
42847,40661
42954,40821
42992,41009
42992,41350
42954,41538
42847,41698
42814,41720
42814,42023
42893,42075
43000,42235
43106,42075
43185,42023
43185,41720
43152,41698
43045,41538
43007,41350
43007,41009
43045,40821
43152,40661
43311,40555
43500,40517
43688,40555
43847,40661
43954,40821
43992,41009
43992,41350
43954,41538
43847,41698
43814,41720
43814,42023
43893,42075
44000,42235
44106,42075
44185,42023
44185,41720
44152,41698
44045,41538
44007,41350
44007,41009
44045,40821
44152,40661
44311,40555
44500,40517
44688,40555
44847,40661
44954,40821
44992,41009
44992,41350
44954,41538
44847,41698
44814,41720
44814,42023
44893,42075
45000,42235
45106,42075
45185,42023
45185,41720
45152,41698
45045,41538
45007,41350
45007,41009
45045,40821
45152,40661
45311,40555
45500,40517
45688,40555
45847,40661
45954,40821
45992,41009
45992,41350
45954,41538
45847,41698
45814,41720
45814,42023
45893,42075
46000,42235
46106,42075
46185,42023
46185,41720
46152,41698
46045,41538
46007,41350
46007,41009
46045,40821
46152,40661
46311,40555
46500,40517
46688,40555
46847,40661
46954,40821
46992,41009
46992,41350
46954,41538
46847,41698
46814,41720
46814,42023
46893,42075
47000,42235
47106,42075
47185,42023
47185,41720
47152,41698
47045,41538
47007,41350
47007,41009
47045,40821
47152,40661
47311,40555
47500,40517
47688,40555
47847,40661
47954,40821
47992,41009
47992,41350
47954,41538
47847,41698
47814,41720
47814,42023
47893,42075
48013,42255
48055,42468
48055,41554
48045,41538
48007,41350
48007,41009
48045,40821
48152,40661
48311,40555
48500,40517
48688,40555
48847,40661
48954,40821
48992,41009
48992,41350
48954,41538
48847,41698
48814,41720
48814,43549
50349,45084
50776,45084
51004,45129
51198,45258
51327,45451
51372,45680
51372,44248
49277,42152
49209,42050
49185,41930
49185,41720
49152,41698
49045,41538
49007,41350
49007,41009
49045,40821
49152,40661
49311,40555
49500,40517
49688,40555
49847,40661
49954,40821
49992,41009
49992,41350
49954,41538
49847,41698
49814,41720
49814,41799
53380,45365
53730,45365
53801,45258
53995,45129
54223,45084
54776,45084
55004,45129
55198,45258
55269,45365
58730,45365
58801,45258
58995,45129
59223,45084
59776,45084
60004,45129
60198,45258
60327,45451
60372,45680
60372,44994
53500,44994
53379,44970
53277,44902
50277,41902
50209,41800
50194,41726
50152,41698
50045,41538
50007,41350
50007,41009
50045,40821
50152,40661
50311,40555
50500,40517
50688,40555
50847,40661
50954,40821
50992,41009
50992,41350
50954,41538
50894,41628
53630,44365
62500,44365
62500,44365
62620,44389
62722,44457
63349,45084
63776,45084
64004,45129
64198,45258
64269,45365
67730,45365
67801,45258
67995,45129
68223,45084
68776,45084
69004,45129
69198,45258
69327,45451
69372,45680
69372,43994
54750,43994
54000,43994
53879,43970
53777,43902
51680,41806
51500,41842
51311,41804
51152,41698
51045,41538
51007,41350
51007,41009
51045,40821
51152,40661
51311,40555
51500,40517
51688,40555
51847,40661
51954,40821
51992,41009
51992,41226
54130,43365
54750,43365
70500,43365
70500,43365
70620,43389
70722,43457
72349,45084
72776,45084
73004,45129
73198,45258
73269,45365
76730,45365
76801,45258
76995,45129
77223,45084
77776,45084
78004,45129
78198,45258
78327,45451
78372,45680
78372,34489
74780,34489
74780,37455
74780,38005
74742,38099
74670,38171
74576,38210
74474,38210
73924,38210
73830,38172
73758,38100
73719,38006
73719,37934
73700,37980
73564,38115
73564,38208
73720,38364
73805,38568
73806,38790
73806,42790
73721,42994
73565,43150
73361,43235
73139,43236
72935,43151
72779,42995
72778,42994
56450,42994
56329,42970
56227,42902
53769,40444
49550,40444
49429,40420
49327,40352
49177,40202
49177,40202
47742,38768
47688,38804
47500,38842
47311,38804
47152,38698
47045,38538
47007,38350
47007,38009
47045,37821
47152,37661
47311,37555
47500,37517
47688,37555
47847,37661
47954,37821
47992,38009
47992,38126
48007,38142
48007,38009
48045,37821
48152,37661
48311,37555
48500,37517
48688,37555
48847,37661
48954,37821
48992,38009
48992,38226
49007,38242
49007,38009
49045,37821
49152,37661
49311,37555
49500,37517
49688,37555
49847,37661
49954,37821
49992,38009
49992,38226
50007,38242
50007,38009
50045,37821
50152,37661
50311,37555
50500,37517
50688,37555
50847,37661
50954,37821
50992,38009
50992,38226
51007,38242
51007,38009
51045,37821
51152,37661
51311,37555
51500,37517
51688,37555
51847,37661
51954,37821
51963,37865
53694,37865
53693,37819
53778,37615
53934,37459
54138,37374
54360,37373
54564,37458
54720,37614
54805,37818
54806,38040
54721,38244
54565,38400
54361,38485
54139,38486
54109,38473
54000,38494
51963,38494
51959,38515
57650,38515
57650,38515
57770,38539
57872,38607
58380,39115
58750,39115
59778,39115
59898,38994
59250,38994
59000,38994
58879,38970
58777,38902
58360,38485
58139,38486
57935,38401
57779,38245
57694,38041
57693,37819
57778,37615
57934,37459
58138,37374
58360,37373
58564,37458
58720,37614
58805,37818
58806,38040
58805,38040
59130,38365
59250,38365
60119,38365
60401,38082
60300,37981
60249,37860
60200,37980
60051,38129
59856,38210
59644,38210
59449,38130
59300,37981
59219,37786
59219,37574
59299,37379
59435,37244
59435,36836
59356,36784
59249,36624
59143,36784
58962,36905
58750,36947
58537,36905
58497,36878
58222,37152
58120,37220
58000,37244
56000,37244
55879,37220
55777,37152
55619,36994
54935,36994
54801,37129
54606,37210
54394,37210
54199,37130
54050,36981
53999,36860
53950,36980
53801,37129
53606,37210
53394,37210
53199,37130
53064,36994
51721,36994
51565,37150
51361,37235
51139,37236
50935,37151
50779,36995
50694,36791
50693,36569
50778,36365
50934,36209
51138,36124
51360,36123
51564,36208
51720,36364
51721,36365
53064,36365
53198,36230
53245,36210
53174,36210
53080,36172
53008,36100
52969,36006
52969,35904
52969,35354
53007,35260
53079,35188
53173,35149
53275,35149
53825,35149
53919,35187
53991,35259
54030,35353
54030,35365
56250,35365
56250,35365
56370,35389
56472,35457
56497,35481
56537,35454
56750,35412
56962,35454
57143,35575
57263,35755
57305,35968
57305,36391
57263,36604
57256,36615
57869,36615
58194,36290
58194,35968
58236,35755
58356,35575
58537,35454
58750,35412
58962,35454
59143,35575
59249,35735
59356,35575
59537,35454
59750,35412
59962,35454
60143,35575
60263,35755
60305,35968
60305,36391
60263,36604
60143,36784
60064,36836
60064,37244
60199,37378
60250,37499
60299,37379
60448,37230
60643,37149
60855,37149
61050,37229
61199,37378
61219,37425
61219,37354
61257,37260
61329,37188
61423,37149
61435,37149
61435,36836
61356,36784
61236,36604
61194,36391
61194,35968
61236,35755
61356,35575
61537,35454
61750,35412
61962,35454
62143,35575
62263,35755
62305,35968
62305,36391
62263,36604
62143,36784
62064,36836
62064,37149
62075,37149
62169,37187
62241,37259
62280,37353
62280,37455
62280,38005
62242,38099
62170,38171
62076,38210
61974,38210
61424,38210
61330,38172
61258,38100
61219,38006
61219,37934
61200,37980
61064,38115
61064,38180
61040,38300
60972,38402
60972,38402
60472,38902
60456,38913
60564,38958
60720,39114
60805,39318
60806,39540
60721,39744
60565,39900
60361,39985
60139,39986
59935,39901
59779,39745
59778,39744
58750,39744
58250,39744
58129,39720
58027,39652
57519,39144
56910,39144
58130,40365
62778,40365
62934,40209
63138,40124
63360,40123
63564,40208
63720,40364
63805,40568
63806,40790
63721,40994
63565,41150
63361,41235
63139,41236
62935,41151
62779,40995
62778,40994
58000,40994
57879,40970
57777,40902
56369,39494
55510,39494
57380,41365
65778,41365
65934,41209
66138,41124
66360,41123
66564,41208
66720,41364
66805,41568
66806,41790
66721,41994
66565,42150
66361,42235
66139,42236
65935,42151
65779,41995
65778,41994
57250,41994
57129,41970
57027,41902
54969,39844
54029,39844
54122,39907
56580,42365
72778,42365
72934,42209
73138,42124
73360,42123
73564,42208
73720,42364
73805,42568
73806,42790
73806,38790
73721,38994
73565,39150
73361,39235
73139,39236
72935,39151
72779,38995
72694,38791
72693,38569
72778,38365
72934,38209
72935,38208
72935,38115
72800,37981
72749,37860
72700,37980
72551,38129
72356,38210
72144,38210
71949,38130
71800,37981
71780,37934
71780,38005
71742,38099
71670,38171
71576,38210
71474,38210
70924,38210
70830,38172
70758,38100
70719,38006
70719,37934
70700,37980
70564,38115
70564,41208
70720,41364
70805,41568
70806,41790
70721,41994
70565,42150
70361,42235
70139,42236
69935,42151
69779,41995
69694,41791
69693,41569
69778,41365
69934,41209
69935,41208
69935,38115
69800,37981
69749,37860
69700,37980
69551,38129
69356,38210
69144,38210
68949,38130
68800,37981
68780,37934
68780,38005
68742,38099
68670,38171
68576,38210
68474,38210
67924,38210
67830,38172
67758,38100
67719,38006
67719,37934
67700,37980
67564,38115
67564,40208
67720,40364
67805,40568
67806,40790
67721,40994
67565,41150
67361,41235
67139,41236
66935,41151
66779,40995
66694,40791
66693,40569
66778,40365
66934,40209
66935,40208
66935,38115
66800,37981
66749,37860
66700,37980
66551,38129
66356,38210
66144,38210
65949,38130
65800,37981
65780,37934
65780,38005
65742,38099
65670,38171
65576,38210
65474,38210
64924,38210
64830,38172
64758,38100
64719,38006
64719,37934
64700,37980
64564,38115
64564,38958
64720,39114
64805,39318
64806,39540
64721,39744
64565,39900
64361,39985
64139,39986
63935,39901
63779,39745
63694,39541
63693,39319
63778,39115
63934,38959
63935,38958
63935,38115
63800,37981
63749,37860
63700,37980
63551,38129
63356,38210
63144,38210
62949,38130
62800,37981
62719,37786
62719,37574
62799,37379
62935,37244
62935,36836
62856,36784
62736,36604
62694,36391
62694,35968
62736,35755
62856,35575
63037,35454
63250,35412
63462,35454
63643,35575
63763,35755
63805,35968
63805,36391
63763,36604
63643,36784
63564,36836
63564,37244
63699,37378
63750,37499
63799,37379
63948,37230
64143,37149
64355,37149
64550,37229
64699,37378
64719,37425
64719,37354
64757,37260
64829,37188
64923,37149
64935,37149
64935,36836
64856,36784
64736,36604
64694,36391
64694,35968
64736,35755
64856,35575
65037,35454
65250,35412
65462,35454
65643,35575
65749,35735
65856,35575
66037,35454
66250,35412
66462,35454
66643,35575
66763,35755
66805,35968
66805,36391
66763,36604
66643,36784
66564,36836
66564,37244
66699,37378
66750,37499
66799,37379
66948,37230
67143,37149
67355,37149
67550,37229
67699,37378
67719,37425
67719,37354
67757,37260
67829,37188
67923,37149
67935,37149
67935,36836
67856,36784
67736,36604
67694,36391
67694,35968
67736,35755
67856,35575
68037,35454
68250,35412
68462,35454
68643,35575
68749,35735
68856,35575
69037,35454
69250,35412
69462,35454
69643,35575
69763,35755
69805,35968
69805,36391
69763,36604
69643,36784
69564,36836
69564,37244
69699,37378
69750,37499
69799,37379
69948,37230
70143,37149
70355,37149
70550,37229
70699,37378
70719,37425
70719,37354
70757,37260
70829,37188
70923,37149
70935,37149
70935,36836
70856,36784
70736,36604
70694,36391
70694,35968
70736,35755
70856,35575
71037,35454
71250,35412
71462,35454
71502,35481
71777,35207
71777,35207
71818,35179
71879,35139
71999,35115
72000,35115
73500,35115
73500,35115
73620,35139
73722,35207
74472,35957
74472,35957
74500,35998
74540,36059
74540,36059
74564,36179
74564,36180
74564,37149
74575,37149
74669,37187
74741,37259
74780,37353
74780,37455
74780,34489
47806,34489
47806,36790
47721,36994
47565,37150
47361,37235
47139,37236
47139,37235
46814,37560
46814,37639
46847,37661
46954,37821
46992,38009
46992,38350
46954,38538
46847,38698
46688,38804
46500,38842
46311,38804
46152,38698
46045,38538
46007,38350
46007,38009
46045,37821
46152,37661
46185,37639
46185,37430
46209,37309
46277,37207
46694,36790
46693,36569
46778,36365
46934,36209
47138,36124
47360,36123
47564,36208
47720,36364
47805,36568
47806,36790
47806,34489
46055,34489
46055,36468
46055,36891
46013,37104
45893,37284
45814,37336
45814,37639
45847,37661
45954,37821
45992,38009
45992,38350
45954,38538
45847,38698
45688,38804
45500,38842
45311,38804
45152,38698
45045,38538
45007,38350
45007,38009
45045,37821
45152,37661
45185,37639
45185,37336
45106,37284
45000,37124
44893,37284
44814,37336
44814,37639
44847,37661
44954,37821
44992,38009
44992,38350
44954,38538
44847,38698
44688,38804
44500,38842
44311,38804
44152,38698
44045,38538
44007,38350
44007,38009
44045,37821
44152,37661
44185,37639
44185,37336
44106,37284
43992,37112
43992,38009
43992,38350
43954,38538
43847,38698
43688,38804
43500,38842
43311,38804
43152,38698
43045,38538
43007,38350
43007,38009
43045,37821
43145,37671
43145,37326
43029,37210
42894,37210
42699,37130
42550,36981
42469,36786
42469,36650
41992,36173
41992,38009
41992,38350
41992,41009
41992,41350
41954,41538
41847,41698
41805,41726
41790,41800
41722,41902
41722,41902
41222,42402
41120,42470
41000,42494
39000,42494
36520,42494
36520,43626
36520,43680
36520,43733
36520,43733
36520,43734
36520,43734
36482,43924
36441,44024
36440,44024
36332,44186
36332,44187
36256,44262
36094,44370
36094,44371
35994,44412
35803,44450
35695,44450
35695,44449
35505,44412
35405,44371
35405,44370
35243,44262
35242,44262
35167,44186
35059,44024
35058,44024
35017,43924
34979,43733
34979,43680
34979,43626
35017,43435
35058,43335
35059,43335
35167,43173
35242,43097
35243,43097
35405,42989
35405,42988
35505,42947
35695,42910
35695,42909
35803,42909
35994,42947
36094,42988
36094,42989
36256,43097
36332,43172
36332,43173
36440,43335
36441,43335
36482,43435
36520,43625
36520,43625
36520,43626
36520,43626
36520,42494
36250,42494
36129,42470
36068,42430
36027,42402
35277,41652
35209,41550
35185,41430
35185,40901
35029,40745
34944,40541
34943,40319
35028,40115
35184,39959
35388,39874
35610,39873
35814,39958
35970,40114
36055,40318
36056,40540
35971,40744
35815,40900
35814,40901
35814,41299
36380,41865
38252,41865
38209,41800
38194,41726
38152,41698
38045,41538
38007,41350
38007,41009
38045,40821
38152,40661
38311,40555
38500,40517
38688,40555
38847,40661
38954,40821
38992,41009
38992,41350
38954,41538
38894,41628
39130,41865
40869,41865
41105,41628
41045,41538
41007,41350
41007,41009
41045,40821
41152,40661
41311,40555
41500,40517
41688,40555
41847,40661
41954,40821
41992,41009
41992,38350
41954,38538
41847,38698
41688,38804
41500,38842
41311,38804
41152,38698
41045,38538
41007,38350
41007,38009
41045,37821
41152,37661
41311,37555
41500,37517
41688,37555
41847,37661
41954,37821
41992,38009
41992,36173
41853,36034
38992,36034
38992,38009
38992,38350
38954,38538
38847,38698
38688,38804
38500,38842
38311,38804
38152,38698
38045,38538
38007,38350
38007,38009
38045,37821
38152,37661
38311,37555
38500,37517
38688,37555
38847,37661
38954,37821
38992,38009
38992,36034
37646,36034
37530,36150
37530,36205
37530,36755
37492,36849
37420,36921
37354,36949
37354,37652
37424,37666
37604,37786
37725,37967
37767,38180
37725,38392
37604,38573
37444,38680
37604,38786
37656,38865
39119,38865
39185,38799
39185,38720
39152,38698
39045,38538
39007,38350
39007,38009
39045,37821
39152,37661
39311,37555
39500,37517
39688,37555
39847,37661
39954,37821
39992,38009
39992,38350
39954,38538
39847,38698
39814,38720
39814,38919
40105,38628
40045,38538
40007,38350
40007,38009
40045,37821
40152,37661
40311,37555
40500,37517
40688,37555
40847,37661
40954,37821
40992,38009
40992,38350
40954,38538
40847,38698
40805,38726
40790,38800
40722,38902
40722,38902
39722,39902
39620,39970
39500,39994
38380,39994
37972,40402
37870,40470
37750,40494
37656,40494
37604,40573
37424,40693
37211,40735
36788,40735
36575,40693
36395,40573
36274,40392
36232,40180
36274,39967
36395,39786
36555,39680
36395,39573
36274,39392
36232,39180
36274,38967
36395,38786
36555,38680
36395,38573
36274,38392
36232,38180
36274,37967
36395,37786
36575,37666
36645,37652
36645,36949
36580,36922
36508,36850
36469,36756
36469,36654
36469,36104
36497,36034
36396,36034
36055,36375
36056,36540
35971,36744
35815,36900
35611,36985
35389,36986
35185,36901
35029,36745
34944,36541
34943,36319
35028,36115
35184,35959
35388,35874
35554,35874
35999,35429
35999,35429
36076,35378
36114,35352
36114,35352
36249,35325
36250,35325
37500,35325
42000,35325
42135,35352
42250,35429
42970,36149
43105,36149
43300,36229
43449,36378
43530,36573
43530,36709
43750,36929
43827,37044
43827,37044
43854,37180
43854,37671
43954,37821
43992,38009
43992,37112
43986,37104
43944,36891
43944,36468
43986,36255
44106,36075
44287,35954
44500,35912
44712,35954
44893,36075
45000,36235
45106,36075
45287,35954
45500,35912
45712,35954
45893,36075
46013,36255
46055,36468
46055,34489
34309,34489
34309,45120
43309,45120
43309,50120
83190,50120
83190,34489
" /> 
</g>
<g style="fill:#000000; fill-opacity:0.0; 
stroke:#000000; stroke-width:118.11; stroke-opacity:1; 
stroke-linecap:round; stroke-linejoin:round;">
<polyline fill="none;"
points="83190,34489
82520,34489
82520,36126
82520,36180
82520,36233
82520,48876
82520,48930
82520,48983
82520,48983
82520,48984
82520,48984
82482,49174
82441,49274
82440,49274
82332,49436
82332,49437
82256,49512
82094,49620
82094,49621
81994,49662
81803,49700
81695,49700
81695,49699
81505,49662
81405,49621
81405,49620
81243,49512
81242,49512
81167,49436
81059,49274
81058,49274
81017,49174
80979,48983
80979,48930
80979,48876
81017,48685
81058,48585
81059,48585
81167,48423
81242,48347
81243,48347
81405,48239
81405,48238
81505,48197
81695,48160
81695,48159
81803,48159
81994,48197
82094,48238
82094,48239
82256,48347
82332,48422
82332,48423
82440,48585
82441,48585
82482,48685
82520,48875
82520,48875
82520,48876
82520,48876
82520,36233
82520,36233
82520,36234
82520,36234
82482,36424
82441,36524
82440,36524
82332,36686
82332,36687
82256,36762
82094,36870
82094,36871
81994,36912
81803,36950
81695,36950
81695,36949
81505,36912
81405,36871
81405,36870
81243,36762
81242,36762
81167,36686
81059,36524
81058,36524
81017,36424
80979,36233
80979,36180
80979,36126
81017,35935
81058,35835
81059,35835
81167,35673
81242,35597
81243,35597
81405,35489
81405,35488
81505,35447
81695,35410
81695,35409
81803,35409
81994,35447
82094,35488
82094,35489
82256,35597
82332,35672
82332,35673
82440,35835
82441,35835
82482,35935
82520,36125
82520,36125
82520,36126
82520,36126
82520,34489
78372,34489
78372,45680
78327,45908
78198,46101
78004,46230
77776,46275
77223,46275
76995,46230
76801,46101
76730,45994
73269,45994
73198,46101
73004,46230
72776,46275
72223,46275
71995,46230
71801,46101
71672,45908
71627,45680
71672,45451
71734,45359
70369,43994
69372,43994
69372,45680
69327,45908
69198,46101
69004,46230
68776,46275
68223,46275
67995,46230
67801,46101
67730,45994
64269,45994
64198,46101
64004,46230
63776,46275
63223,46275
62995,46230
62801,46101
62672,45908
62627,45680
62672,45451
62734,45359
62369,44994
62270,44994
62270,46626
62270,46680
62270,46733
62270,46733
62270,46734
62270,46734
62232,46924
62191,47024
62190,47024
62082,47186
62082,47187
62006,47262
61844,47370
61844,47371
61744,47412
61553,47450
61445,47450
61445,47449
61255,47412
61155,47371
61155,47370
60993,47262
60992,47262
60917,47186
60809,47024
60808,47024
60767,46924
60729,46733
60729,46680
60729,46626
60767,46435
60808,46335
60809,46335
60917,46173
60992,46097
60993,46097
61155,45989
61155,45988
61255,45947
61445,45910
61445,45909
61553,45909
61744,45947
61844,45988
61844,45989
62006,46097
62082,46172
62082,46173
62190,46335
62191,46335
62232,46435
62270,46625
62270,46625
62270,46626
62270,46626
62270,44994
60372,44994
60372,45680
60327,45908
60198,46101
60004,46230
59776,46275
59223,46275
58995,46230
58801,46101
58730,45994
55269,45994
55198,46101
55004,46230
54776,46275
54223,46275
53995,46230
53801,46101
53730,45994
53250,45994
53129,45970
53027,45902
51372,44248
51372,45680
51327,45908
51198,46101
51004,46230
50776,46275
50223,46275
49995,46230
49801,46101
49730,45994
46269,45994
46198,46101
46004,46230
45776,46275
45223,46275
44995,46230
44801,46101
44672,45908
44627,45680
44672,45451
44801,45258
44995,45129
45223,45084
45776,45084
46004,45129
46198,45258
46269,45365
49730,45365
49734,45359
48277,43902
48209,43800
48185,43680
48185,41720
48152,41698
48055,41554
48055,42468
48055,42891
48013,43104
47893,43284
47712,43405
47500,43447
47287,43405
47106,43284
47000,43124
46893,43284
46712,43405
46500,43447
46287,43405
46106,43284
46000,43124
45893,43284
45712,43405
45500,43447
45287,43405
45106,43284
45000,43124
44893,43284
44712,43405
44500,43447
44287,43405
44106,43284
44000,43124
43893,43284
43712,43405
43500,43447
43287,43405
43106,43284
43000,43124
42893,43284
42712,43405
42500,43447
42287,43405
42106,43284
41986,43104
41944,42891
41944,42468
41986,42255
42106,42075
42185,42023
42185,41720
42152,41698
42045,41538
42007,41350
42007,41009
42045,40821
42152,40661
42311,40555
42500,40517
42688,40555
42847,40661
42954,40821
42992,41009
42992,41350
42954,41538
42847,41698
42814,41720
42814,42023
42893,42075
43000,42235
43106,42075
43185,42023
43185,41720
43152,41698
43045,41538
43007,41350
43007,41009
43045,40821
43152,40661
43311,40555
43500,40517
43688,40555
43847,40661
43954,40821
43992,41009
43992,41350
43954,41538
43847,41698
43814,41720
43814,42023
43893,42075
44000,42235
44106,42075
44185,42023
44185,41720
44152,41698
44045,41538
44007,41350
44007,41009
44045,40821
44152,40661
44311,40555
44500,40517
44688,40555
44847,40661
44954,40821
44992,41009
44992,41350
44954,41538
44847,41698
44814,41720
44814,42023
44893,42075
45000,42235
45106,42075
45185,42023
45185,41720
45152,41698
45045,41538
45007,41350
45007,41009
45045,40821
45152,40661
45311,40555
45500,40517
45688,40555
45847,40661
45954,40821
45992,41009
45992,41350
45954,41538
45847,41698
45814,41720
45814,42023
45893,42075
46000,42235
46106,42075
46185,42023
46185,41720
46152,41698
46045,41538
46007,41350
46007,41009
46045,40821
46152,40661
46311,40555
46500,40517
46688,40555
46847,40661
46954,40821
46992,41009
46992,41350
46954,41538
46847,41698
46814,41720
46814,42023
46893,42075
47000,42235
47106,42075
47185,42023
47185,41720
47152,41698
47045,41538
47007,41350
47007,41009
47045,40821
47152,40661
47311,40555
47500,40517
47688,40555
47847,40661
47954,40821
47992,41009
47992,41350
47954,41538
47847,41698
47814,41720
47814,42023
47893,42075
48013,42255
48055,42468
48055,41554
48045,41538
48007,41350
48007,41009
48045,40821
48152,40661
48311,40555
48500,40517
48688,40555
48847,40661
48954,40821
48992,41009
48992,41350
48954,41538
48847,41698
48814,41720
48814,43549
50349,45084
50776,45084
51004,45129
51198,45258
51327,45451
51372,45680
51372,44248
49277,42152
49209,42050
49185,41930
49185,41720
49152,41698
49045,41538
49007,41350
49007,41009
49045,40821
49152,40661
49311,40555
49500,40517
49688,40555
49847,40661
49954,40821
49992,41009
49992,41350
49954,41538
49847,41698
49814,41720
49814,41799
53380,45365
53730,45365
53801,45258
53995,45129
54223,45084
54776,45084
55004,45129
55198,45258
55269,45365
58730,45365
58801,45258
58995,45129
59223,45084
59776,45084
60004,45129
60198,45258
60327,45451
60372,45680
60372,44994
53500,44994
53379,44970
53277,44902
50277,41902
50209,41800
50194,41726
50152,41698
50045,41538
50007,41350
50007,41009
50045,40821
50152,40661
50311,40555
50500,40517
50688,40555
50847,40661
50954,40821
50992,41009
50992,41350
50954,41538
50894,41628
53630,44365
62500,44365
62500,44365
62620,44389
62722,44457
63349,45084
63776,45084
64004,45129
64198,45258
64269,45365
67730,45365
67801,45258
67995,45129
68223,45084
68776,45084
69004,45129
69198,45258
69327,45451
69372,45680
69372,43994
54750,43994
54000,43994
53879,43970
53777,43902
51680,41806
51500,41842
51311,41804
51152,41698
51045,41538
51007,41350
51007,41009
51045,40821
51152,40661
51311,40555
51500,40517
51688,40555
51847,40661
51954,40821
51992,41009
51992,41226
54130,43365
54750,43365
70500,43365
70500,43365
70620,43389
70722,43457
72349,45084
72776,45084
73004,45129
73198,45258
73269,45365
76730,45365
76801,45258
76995,45129
77223,45084
77776,45084
78004,45129
78198,45258
78327,45451
78372,45680
78372,34489
74780,34489
74780,37455
74780,38005
74742,38099
74670,38171
74576,38210
74474,38210
73924,38210
73830,38172
73758,38100
73719,38006
73719,37934
73700,37980
73564,38115
73564,38208
73720,38364
73805,38568
73806,38790
73806,42790
73721,42994
73565,43150
73361,43235
73139,43236
72935,43151
72779,42995
72778,42994
56450,42994
56329,42970
56227,42902
53769,40444
49550,40444
49429,40420
49327,40352
49177,40202
49177,40202
47742,38768
47688,38804
47500,38842
47311,38804
47152,38698
47045,38538
47007,38350
47007,38009
47045,37821
47152,37661
47311,37555
47500,37517
47688,37555
47847,37661
47954,37821
47992,38009
47992,38126
48007,38142
48007,38009
48045,37821
48152,37661
48311,37555
48500,37517
48688,37555
48847,37661
48954,37821
48992,38009
48992,38226
49007,38242
49007,38009
49045,37821
49152,37661
49311,37555
49500,37517
49688,37555
49847,37661
49954,37821
49992,38009
49992,38226
50007,38242
50007,38009
50045,37821
50152,37661
50311,37555
50500,37517
50688,37555
50847,37661
50954,37821
50992,38009
50992,38226
51007,38242
51007,38009
51045,37821
51152,37661
51311,37555
51500,37517
51688,37555
51847,37661
51954,37821
51963,37865
53694,37865
53693,37819
53778,37615
53934,37459
54138,37374
54360,37373
54564,37458
54720,37614
54805,37818
54806,38040
54721,38244
54565,38400
54361,38485
54139,38486
54109,38473
54000,38494
51963,38494
51959,38515
57650,38515
57650,38515
57770,38539
57872,38607
58380,39115
58750,39115
59778,39115
59898,38994
59250,38994
59000,38994
58879,38970
58777,38902
58360,38485
58139,38486
57935,38401
57779,38245
57694,38041
57693,37819
57778,37615
57934,37459
58138,37374
58360,37373
58564,37458
58720,37614
58805,37818
58806,38040
58805,38040
59130,38365
59250,38365
60119,38365
60401,38082
60300,37981
60249,37860
60200,37980
60051,38129
59856,38210
59644,38210
59449,38130
59300,37981
59219,37786
59219,37574
59299,37379
59435,37244
59435,36836
59356,36784
59249,36624
59143,36784
58962,36905
58750,36947
58537,36905
58497,36878
58222,37152
58120,37220
58000,37244
56000,37244
55879,37220
55777,37152
55619,36994
54935,36994
54801,37129
54606,37210
54394,37210
54199,37130
54050,36981
53999,36860
53950,36980
53801,37129
53606,37210
53394,37210
53199,37130
53064,36994
51721,36994
51565,37150
51361,37235
51139,37236
50935,37151
50779,36995
50694,36791
50693,36569
50778,36365
50934,36209
51138,36124
51360,36123
51564,36208
51720,36364
51721,36365
53064,36365
53198,36230
53245,36210
53174,36210
53080,36172
53008,36100
52969,36006
52969,35904
52969,35354
53007,35260
53079,35188
53173,35149
53275,35149
53825,35149
53919,35187
53991,35259
54030,35353
54030,35365
56250,35365
56250,35365
56370,35389
56472,35457
56497,35481
56537,35454
56750,35412
56962,35454
57143,35575
57263,35755
57305,35968
57305,36391
57263,36604
57256,36615
57869,36615
58194,36290
58194,35968
58236,35755
58356,35575
58537,35454
58750,35412
58962,35454
59143,35575
59249,35735
59356,35575
59537,35454
59750,35412
59962,35454
60143,35575
60263,35755
60305,35968
60305,36391
60263,36604
60143,36784
60064,36836
60064,37244
60199,37378
60250,37499
60299,37379
60448,37230
60643,37149
60855,37149
61050,37229
61199,37378
61219,37425
61219,37354
61257,37260
61329,37188
61423,37149
61435,37149
61435,36836
61356,36784
61236,36604
61194,36391
61194,35968
61236,35755
61356,35575
61537,35454
61750,35412
61962,35454
62143,35575
62263,35755
62305,35968
62305,36391
62263,36604
62143,36784
62064,36836
62064,37149
62075,37149
62169,37187
62241,37259
62280,37353
62280,37455
62280,38005
62242,38099
62170,38171
62076,38210
61974,38210
61424,38210
61330,38172
61258,38100
61219,38006
61219,37934
61200,37980
61064,38115
61064,38180
61040,38300
60972,38402
60972,38402
60472,38902
60456,38913
60564,38958
60720,39114
60805,39318
60806,39540
60721,39744
60565,39900
60361,39985
60139,39986
59935,39901
59779,39745
59778,39744
58750,39744
58250,39744
58129,39720
58027,39652
57519,39144
56910,39144
58130,40365
62778,40365
62934,40209
63138,40124
63360,40123
63564,40208
63720,40364
63805,40568
63806,40790
63721,40994
63565,41150
63361,41235
63139,41236
62935,41151
62779,40995
62778,40994
58000,40994
57879,40970
57777,40902
56369,39494
55510,39494
57380,41365
65778,41365
65934,41209
66138,41124
66360,41123
66564,41208
66720,41364
66805,41568
66806,41790
66721,41994
66565,42150
66361,42235
66139,42236
65935,42151
65779,41995
65778,41994
57250,41994
57129,41970
57027,41902
54969,39844
54029,39844
54122,39907
56580,42365
72778,42365
72934,42209
73138,42124
73360,42123
73564,42208
73720,42364
73805,42568
73806,42790
73806,38790
73721,38994
73565,39150
73361,39235
73139,39236
72935,39151
72779,38995
72694,38791
72693,38569
72778,38365
72934,38209
72935,38208
72935,38115
72800,37981
72749,37860
72700,37980
72551,38129
72356,38210
72144,38210
71949,38130
71800,37981
71780,37934
71780,38005
71742,38099
71670,38171
71576,38210
71474,38210
70924,38210
70830,38172
70758,38100
70719,38006
70719,37934
70700,37980
70564,38115
70564,41208
70720,41364
70805,41568
70806,41790
70721,41994
70565,42150
70361,42235
70139,42236
69935,42151
69779,41995
69694,41791
69693,41569
69778,41365
69934,41209
69935,41208
69935,38115
69800,37981
69749,37860
69700,37980
69551,38129
69356,38210
69144,38210
68949,38130
68800,37981
68780,37934
68780,38005
68742,38099
68670,38171
68576,38210
68474,38210
67924,38210
67830,38172
67758,38100
67719,38006
67719,37934
67700,37980
67564,38115
67564,40208
67720,40364
67805,40568
67806,40790
67721,40994
67565,41150
67361,41235
67139,41236
66935,41151
66779,40995
66694,40791
66693,40569
66778,40365
66934,40209
66935,40208
66935,38115
66800,37981
66749,37860
66700,37980
66551,38129
66356,38210
66144,38210
65949,38130
65800,37981
65780,37934
65780,38005
65742,38099
65670,38171
65576,38210
65474,38210
64924,38210
64830,38172
64758,38100
64719,38006
64719,37934
64700,37980
64564,38115
64564,38958
64720,39114
64805,39318
64806,39540
64721,39744
64565,39900
64361,39985
64139,39986
63935,39901
63779,39745
63694,39541
63693,39319
63778,39115
63934,38959
63935,38958
63935,38115
63800,37981
63749,37860
63700,37980
63551,38129
63356,38210
63144,38210
62949,38130
62800,37981
62719,37786
62719,37574
62799,37379
62935,37244
62935,36836
62856,36784
62736,36604
62694,36391
62694,35968
62736,35755
62856,35575
63037,35454
63250,35412
63462,35454
63643,35575
63763,35755
63805,35968
63805,36391
63763,36604
63643,36784
63564,36836
63564,37244
63699,37378
63750,37499
63799,37379
63948,37230
64143,37149
64355,37149
64550,37229
64699,37378
64719,37425
64719,37354
64757,37260
64829,37188
64923,37149
64935,37149
64935,36836
64856,36784
64736,36604
64694,36391
64694,35968
64736,35755
64856,35575
65037,35454
65250,35412
65462,35454
65643,35575
65749,35735
65856,35575
66037,35454
66250,35412
66462,35454
66643,35575
66763,35755
66805,35968
66805,36391
66763,36604
66643,36784
66564,36836
66564,37244
66699,37378
66750,37499
66799,37379
66948,37230
67143,37149
67355,37149
67550,37229
67699,37378
67719,37425
67719,37354
67757,37260
67829,37188
67923,37149
67935,37149
67935,36836
67856,36784
67736,36604
67694,36391
67694,35968
67736,35755
67856,35575
68037,35454
68250,35412
68462,35454
68643,35575
68749,35735
68856,35575
69037,35454
69250,35412
69462,35454
69643,35575
69763,35755
69805,35968
69805,36391
69763,36604
69643,36784
69564,36836
69564,37244
69699,37378
69750,37499
69799,37379
69948,37230
70143,37149
70355,37149
70550,37229
70699,37378
70719,37425
70719,37354
70757,37260
70829,37188
70923,37149
70935,37149
70935,36836
70856,36784
70736,36604
70694,36391
70694,35968
70736,35755
70856,35575
71037,35454
71250,35412
71462,35454
71502,35481
71777,35207
71777,35207
71818,35179
71879,35139
71999,35115
72000,35115
73500,35115
73500,35115
73620,35139
73722,35207
74472,35957
74472,35957
74500,35998
74540,36059
74540,36059
74564,36179
74564,36180
74564,37149
74575,37149
74669,37187
74741,37259
74780,37353
74780,37455
74780,34489
47806,34489
47806,36790
47721,36994
47565,37150
47361,37235
47139,37236
47139,37235
46814,37560
46814,37639
46847,37661
46954,37821
46992,38009
46992,38350
46954,38538
46847,38698
46688,38804
46500,38842
46311,38804
46152,38698
46045,38538
46007,38350
46007,38009
46045,37821
46152,37661
46185,37639
46185,37430
46209,37309
46277,37207
46694,36790
46693,36569
46778,36365
46934,36209
47138,36124
47360,36123
47564,36208
47720,36364
47805,36568
47806,36790
47806,34489
46055,34489
46055,36468
46055,36891
46013,37104
45893,37284
45814,37336
45814,37639
45847,37661
45954,37821
45992,38009
45992,38350
45954,38538
45847,38698
45688,38804
45500,38842
45311,38804
45152,38698
45045,38538
45007,38350
45007,38009
45045,37821
45152,37661
45185,37639
45185,37336
45106,37284
45000,37124
44893,37284
44814,37336
44814,37639
44847,37661
44954,37821
44992,38009
44992,38350
44954,38538
44847,38698
44688,38804
44500,38842
44311,38804
44152,38698
44045,38538
44007,38350
44007,38009
44045,37821
44152,37661
44185,37639
44185,37336
44106,37284
43992,37112
43992,38009
43992,38350
43954,38538
43847,38698
43688,38804
43500,38842
43311,38804
43152,38698
43045,38538
43007,38350
43007,38009
43045,37821
43145,37671
43145,37326
43029,37210
42894,37210
42699,37130
42550,36981
42469,36786
42469,36650
41992,36173
41992,38009
41992,38350
41992,41009
41992,41350
41954,41538
41847,41698
41805,41726
41790,41800
41722,41902
41722,41902
41222,42402
41120,42470
41000,42494
39000,42494
36520,42494
36520,43626
36520,43680
36520,43733
36520,43733
36520,43734
36520,43734
36482,43924
36441,44024
36440,44024
36332,44186
36332,44187
36256,44262
36094,44370
36094,44371
35994,44412
35803,44450
35695,44450
35695,44449
35505,44412
35405,44371
35405,44370
35243,44262
35242,44262
35167,44186
35059,44024
35058,44024
35017,43924
34979,43733
34979,43680
34979,43626
35017,43435
35058,43335
35059,43335
35167,43173
35242,43097
35243,43097
35405,42989
35405,42988
35505,42947
35695,42910
35695,42909
35803,42909
35994,42947
36094,42988
36094,42989
36256,43097
36332,43172
36332,43173
36440,43335
36441,43335
36482,43435
36520,43625
36520,43625
36520,43626
36520,43626
36520,42494
36250,42494
36129,42470
36068,42430
36027,42402
35277,41652
35209,41550
35185,41430
35185,40901
35029,40745
34944,40541
34943,40319
35028,40115
35184,39959
35388,39874
35610,39873
35814,39958
35970,40114
36055,40318
36056,40540
35971,40744
35815,40900
35814,40901
35814,41299
36380,41865
38252,41865
38209,41800
38194,41726
38152,41698
38045,41538
38007,41350
38007,41009
38045,40821
38152,40661
38311,40555
38500,40517
38688,40555
38847,40661
38954,40821
38992,41009
38992,41350
38954,41538
38894,41628
39130,41865
40869,41865
41105,41628
41045,41538
41007,41350
41007,41009
41045,40821
41152,40661
41311,40555
41500,40517
41688,40555
41847,40661
41954,40821
41992,41009
41992,38350
41954,38538
41847,38698
41688,38804
41500,38842
41311,38804
41152,38698
41045,38538
41007,38350
41007,38009
41045,37821
41152,37661
41311,37555
41500,37517
41688,37555
41847,37661
41954,37821
41992,38009
41992,36173
41853,36034
38992,36034
38992,38009
38992,38350
38954,38538
38847,38698
38688,38804
38500,38842
38311,38804
38152,38698
38045,38538
38007,38350
38007,38009
38045,37821
38152,37661
38311,37555
38500,37517
38688,37555
38847,37661
38954,37821
38992,38009
38992,36034
37646,36034
37530,36150
37530,36205
37530,36755
37492,36849
37420,36921
37354,36949
37354,37652
37424,37666
37604,37786
37725,37967
37767,38180
37725,38392
37604,38573
37444,38680
37604,38786
37656,38865
39119,38865
39185,38799
39185,38720
39152,38698
39045,38538
39007,38350
39007,38009
39045,37821
39152,37661
39311,37555
39500,37517
39688,37555
39847,37661
39954,37821
39992,38009
39992,38350
39954,38538
39847,38698
39814,38720
39814,38919
40105,38628
40045,38538
40007,38350
40007,38009
40045,37821
40152,37661
40311,37555
40500,37517
40688,37555
40847,37661
40954,37821
40992,38009
40992,38350
40954,38538
40847,38698
40805,38726
40790,38800
40722,38902
40722,38902
39722,39902
39620,39970
39500,39994
38380,39994
37972,40402
37870,40470
37750,40494
37656,40494
37604,40573
37424,40693
37211,40735
36788,40735
36575,40693
36395,40573
36274,40392
36232,40180
36274,39967
36395,39786
36555,39680
36395,39573
36274,39392
36232,39180
36274,38967
36395,38786
36555,38680
36395,38573
36274,38392
36232,38180
36274,37967
36395,37786
36575,37666
36645,37652
36645,36949
36580,36922
36508,36850
36469,36756
36469,36654
36469,36104
36497,36034
36396,36034
36055,36375
36056,36540
35971,36744
35815,36900
35611,36985
35389,36986
35185,36901
35029,36745
34944,36541
34943,36319
35028,36115
35184,35959
35388,35874
35554,35874
35999,35429
35999,35429
36076,35378
36114,35352
36114,35352
36249,35325
36250,35325
37500,35325
42000,35325
42135,35352
42250,35429
42970,36149
43105,36149
43300,36229
43449,36378
43530,36573
43530,36709
43750,36929
43827,37044
43827,37044
43854,37180
43854,37671
43954,37821
43992,38009
43992,37112
43986,37104
43944,36891
43944,36468
43986,36255
44106,36075
44287,35954
44500,35912
44712,35954
44893,36075
45000,36235
45106,36075
45287,35954
45500,35912
45712,35954
45893,36075
46013,36255
46055,36468
46055,34489
34309,34489
34309,45120
43309,45120
43309,50120
83190,50120
83190,34489
" /> 
</g>
<g style="fill:#FFFFFF; fill-opacity:0.0; 
stroke:#FFFFFF; stroke-width:59.0551; stroke-opacity:1; 
stroke-linecap:round; stroke-linejoin:round;">
</g>
<g style="fill:#FFFFFF; fill-opacity:1.0; 
stroke:#FFFFFF; stroke-width:59.0551; stroke-opacity:1; 
stroke-linecap:round; stroke-linejoin:round;">
<circle cx="56750" cy="36180" r="39.3701" /> 
<circle cx="58750" cy="36180" r="39.3701" /> 
<circle cx="59750" cy="36180" r="39.3701" /> 
<circle cx="61750" cy="36180" r="39.3701" /> 
<circle cx="63250" cy="36180" r="39.3701" /> 
<circle cx="65250" cy="36180" r="39.3701" /> 
<circle cx="66250" cy="36180" r="39.3701" /> 
<circle cx="68250" cy="36180" r="39.3701" /> 
<circle cx="69250" cy="36180" r="39.3701" /> 
<circle cx="71250" cy="36180" r="39.3701" /> 
<circle cx="72250" cy="36180" r="39.3701" /> 
<circle cx="50500" cy="38180" r="39.3701" /> 
<circle cx="49500" cy="38180" r="39.3701" /> 
<circle cx="48500" cy="38180" r="39.3701" /> 
<circle cx="47500" cy="38180" r="39.3701" /> 
<circle cx="46500" cy="38180" r="39.3701" /> 
<circle cx="45500" cy="38180" r="39.3701" /> 
<circle cx="44500" cy="38180" r="39.3701" /> 
<circle cx="43500" cy="38180" r="39.3701" /> 
<circle cx="42500" cy="38180" r="39.3701" /> 
<circle cx="41500" cy="38180" r="39.3701" /> 
<circle cx="40500" cy="38180" r="39.3701" /> 
<circle cx="39500" cy="38180" r="39.3701" /> 
<circle cx="38500" cy="38180" r="39.3701" /> 
<circle cx="51500" cy="38180" r="39.3701" /> 
<circle cx="38500" cy="41180" r="39.3701" /> 
<circle cx="39500" cy="41180" r="39.3701" /> 
<circle cx="40500" cy="41180" r="39.3701" /> 
<circle cx="41500" cy="41180" r="39.3701" /> 
<circle cx="42500" cy="41180" r="39.3701" /> 
<circle cx="43500" cy="41180" r="39.3701" /> 
<circle cx="44500" cy="41180" r="39.3701" /> 
<circle cx="45500" cy="41180" r="39.3701" /> 
<circle cx="46500" cy="41180" r="39.3701" /> 
<circle cx="47500" cy="41180" r="39.3701" /> 
<circle cx="48500" cy="41180" r="39.3701" /> 
<circle cx="49500" cy="41180" r="39.3701" /> 
<circle cx="50500" cy="41180" r="39.3701" /> 
<circle cx="51500" cy="41180" r="39.3701" /> 
<circle cx="45500" cy="45680" r="39.3701" /> 
<circle cx="45500" cy="47680" r="39.3701" /> 
<circle cx="50500" cy="45680" r="39.3701" /> 
<circle cx="50500" cy="47680" r="39.3701" /> 
<circle cx="54500" cy="45680" r="39.3701" /> 
<circle cx="54500" cy="47680" r="39.3701" /> 
<circle cx="59500" cy="45680" r="39.3701" /> 
<circle cx="59500" cy="47680" r="39.3701" /> 
<circle cx="63500" cy="45680" r="39.3701" /> 
<circle cx="63500" cy="47680" r="39.3701" /> 
<circle cx="68500" cy="45680" r="39.3701" /> 
<circle cx="68500" cy="47680" r="39.3701" /> 
<circle cx="72500" cy="45680" r="39.3701" /> 
<circle cx="72500" cy="47680" r="39.3701" /> 
<circle cx="77500" cy="45680" r="39.3701" /> 
<circle cx="77500" cy="47680" r="39.3701" /> 
<circle cx="73250" cy="42680" r="39.3701" /> 
<circle cx="73250" cy="38680" r="39.3701" /> 
<circle cx="66250" cy="41680" r="39.3701" /> 
<circle cx="70250" cy="41680" r="39.3701" /> 
<circle cx="63250" cy="40680" r="39.3701" /> 
<circle cx="67250" cy="40680" r="39.3701" /> 
<circle cx="60250" cy="39430" r="39.3701" /> 
<circle cx="64250" cy="39430" r="39.3701" /> 
<circle cx="54250" cy="37930" r="39.3701" /> 
<circle cx="58250" cy="37930" r="39.3701" /> 
<circle cx="47250" cy="36680" r="39.3701" /> 
<circle cx="51250" cy="36680" r="39.3701" /> 
<circle cx="35500" cy="36430" r="39.3701" /> 
<circle cx="35500" cy="40430" r="39.3701" /> 
<circle cx="74250" cy="37680" r="39.3701" /> 
<circle cx="73250" cy="37680" r="39.3701" /> 
<circle cx="72250" cy="37680" r="39.3701" /> 
<circle cx="53500" cy="35680" r="39.3701" /> 
<circle cx="53500" cy="36680" r="39.3701" /> 
<circle cx="54500" cy="36680" r="39.3701" /> 
<circle cx="61750" cy="37680" r="39.3701" /> 
<circle cx="60750" cy="37680" r="39.3701" /> 
<circle cx="59750" cy="37680" r="39.3701" /> 
<circle cx="65250" cy="37680" r="39.3701" /> 
<circle cx="64250" cy="37680" r="39.3701" /> 
<circle cx="63250" cy="37680" r="39.3701" /> 
<circle cx="68250" cy="37680" r="39.3701" /> 
<circle cx="67250" cy="37680" r="39.3701" /> 
<circle cx="66250" cy="37680" r="39.3701" /> 
<circle cx="71250" cy="37680" r="39.3701" /> 
<circle cx="70250" cy="37680" r="39.3701" /> 
<circle cx="69250" cy="37680" r="39.3701" /> 
<circle cx="37000" cy="36430" r="39.3701" /> 
<circle cx="38000" cy="36430" r="39.3701" /> 
<circle cx="43000" cy="36680" r="39.3701" /> 
<circle cx="41000" cy="36680" r="39.3701" /> 
<circle cx="37000" cy="38180" r="39.3701" /> 
<circle cx="37000" cy="39180" r="39.3701" /> 
<circle cx="37000" cy="40180" r="39.3701" /> 
<circle cx="37000" cy="41180" r="39.3701" /> 
<circle cx="47500" cy="42680" r="39.3701" /> 
<circle cx="46500" cy="42680" r="39.3701" /> 
<circle cx="45500" cy="42680" r="39.3701" /> 
<circle cx="44500" cy="42680" r="39.3701" /> 
<circle cx="43500" cy="42680" r="39.3701" /> 
<circle cx="42500" cy="42680" r="39.3701" /> 
<circle cx="44500" cy="36680" r="39.3701" /> 
<circle cx="45500" cy="36680" r="39.3701" /> 
</g> 
</svg>
