<?xml version="1.0" standalone="no"?>
 <!DOCTYPE svg PUBLIC "-//W3C//DTD SVG 1.1//EN" 
 "http://www.w3.org/Graphics/SVG/1.1/DTD/svg11.dtd"> 
<svg xmlns="http://www.w3.org/2000/svg" version="1.1" 
    width="29.7002cm" height="21.0007cm" viewBox="0 0 116930 82680 ">
<title>SVG Picture created as panel_buttons_bt-F_SilkS.svg date 2015/01/07 20:20:22 </title>
  <desc>Picture generated by PCBNEW </desc>
<g style="fill:#000000; fill-opacity:1;stroke:#000000; stroke-opacity:1;
stroke-linecap:round; stroke-linejoin:round; "
 transform="translate(0 0) scale(1 1)">
</g>
<g style="fill:#000000; fill-opacity:0.0; 
stroke:#000000; stroke-width:39.3701; stroke-opacity:1; 
stroke-linecap:round; stroke-linejoin:round;">
<circle cx="61500" cy="46680" r="500" /> 
<circle cx="35750" cy="43680" r="500" /> 
<circle cx="81750" cy="36180" r="500" /> 
<circle cx="81750" cy="48930" r="500" /> 
</g>
<g style="fill:#000000; fill-opacity:0.0; 
stroke:#000000; stroke-width:59.0551; stroke-opacity:1; 
stroke-linecap:round; stroke-linejoin:round;">
<path d="M72250 36680
L72750 36680
" />
<path d="M72750 36680
L72750 35680
" />
<path d="M72750 35680
L72250 35680
" />
<path d="M68750 35680
L72250 35680
" />
<path d="M72250 36680
L62750 36680
" />
<path d="M62750 36680
L62750 35680
" />
<path d="M62750 35680
L68750 35680
" />
<path d="M56250 36680
L56250 35680
" />
<path d="M56250 35680
L62250 35680
" />
<path d="M62250 35680
L62250 36680
" />
<path d="M62250 36680
L56250 36680
" />
</g>
<g style="fill:#000000; fill-opacity:0.0; 
stroke:#000000; stroke-width:100; stroke-opacity:1; 
stroke-linecap:round; stroke-linejoin:round;">
<circle cx="48000" cy="46680" r="1802.78" /> 
<path d="M50500 44180
L45500 44180
" />
<path d="M45500 44180
L45500 49180
" />
<path d="M45500 49180
L50500 49180
" />
<path d="M50500 49180
L50500 44180
" />
<circle cx="57000" cy="46680" r="1802.78" /> 
<path d="M59500 44180
L54500 44180
" />
<path d="M54500 44180
L54500 49180
" />
<path d="M54500 49180
L59500 49180
" />
<path d="M59500 49180
L59500 44180
" />
<circle cx="66000" cy="46680" r="1802.78" /> 
<path d="M68500 44180
L63500 44180
" />
<path d="M63500 44180
L63500 49180
" />
<path d="M63500 49180
L68500 49180
" />
<path d="M68500 49180
L68500 44180
" />
<circle cx="75000" cy="46680" r="1802.78" /> 
<path d="M77500 44180
L72500 44180
" />
<path d="M72500 44180
L72500 49180
" />
<path d="M72500 49180
L77500 49180
" />
<path d="M77500 49180
L77500 44180
" />
</g>
<g style="fill:#000000; fill-opacity:0.0; 
stroke:#000000; stroke-width:59.0551; stroke-opacity:1; 
stroke-linecap:round; stroke-linejoin:round;">
<path d="M62065 38058
L62046 38039
L61990 38020
L61953 38020
L61896 38039
L61859 38076
L61840 38114
L61821 38189
L61821 38245
L61840 38320
L61859 38358
L61896 38395
L61953 38414
L61990 38414
L62046 38395
L62065 38376
" />
<path d="M62309 38414
L62384 38414
L62421 38395
L62459 38358
L62478 38283
L62478 38151
L62459 38076
L62421 38039
L62384 38020
L62309 38020
L62271 38039
L62234 38076
L62215 38151
L62215 38283
L62234 38358
L62271 38395
L62309 38414
" />
<path d="M62646 38020
L62646 38414
L62871 38020
L62871 38414
" />
<path d="M63059 38020
L63059 38414
L63284 38020
L63284 38414
" />
<path d="M63678 38020
L63453 38020
" />
<path d="M63565 38020
L63565 38414
L63528 38358
L63490 38320
L63453 38301
" />
<path d="M60256 34558
L60237 34539
L60181 34520
L60143 34520
L60087 34539
L60050 34576
L60031 34614
L60012 34689
L60012 34745
L60031 34820
L60050 34858
L60087 34895
L60143 34914
L60181 34914
L60237 34895
L60256 34876
" />
<path d="M60500 34914
L60575 34914
L60612 34895
L60650 34858
L60668 34783
L60668 34651
L60650 34576
L60612 34539
L60575 34520
L60500 34520
L60462 34539
L60425 34576
L60406 34651
L60406 34783
L60425 34858
L60462 34895
L60500 34914
" />
<path d="M60837 34520
L60837 34914
L61062 34520
L61062 34914
" />
<path d="M61250 34520
L61250 34914
L61474 34520
L61474 34914
" />
<path d="M61568 34483
L61868 34483
" />
<path d="M62093 34726
L62149 34708
L62168 34689
L62187 34651
L62187 34595
L62168 34558
L62149 34539
L62112 34520
L61962 34520
L61962 34914
L62093 34914
L62131 34895
L62149 34876
L62168 34839
L62168 34801
L62149 34764
L62131 34745
L62093 34726
L61962 34726
" />
<path d="M62299 34914
L62524 34914
" />
<path d="M62412 34520
L62412 34914
" />
</g>
<g style="fill:#000000; fill-opacity:0.0; 
stroke:#000000; stroke-width:80; stroke-opacity:1; 
stroke-linecap:round; stroke-linejoin:round;">
<path d="M47466 46237
L47523 46218
L47619 46218
L47657 46237
L47676 46256
L47695 46294
L47695 46332
L47676 46370
L47657 46389
L47619 46408
L47542 46427
L47504 46446
L47485 46465
L47466 46503
L47466 46541
L47485 46580
L47504 46599
L47542 46618
L47638 46618
L47695 46599
" />
<path d="M47828 46618
L47923 46218
L48000 46503
L48076 46218
L48171 46618
" />
<path d="M48533 46218
L48304 46218
" />
<path d="M48419 46218
L48419 46618
L48380 46560
L48342 46522
L48304 46503
" />
<path d="M46695 46937
L46752 46918
L46847 46918
L46885 46937
L46904 46956
L46923 46994
L46923 47032
L46904 47070
L46885 47089
L46847 47108
L46771 47127
L46733 47146
L46714 47165
L46695 47203
L46695 47241
L46714 47280
L46733 47299
L46771 47318
L46866 47318
L46923 47299
" />
<path d="M47057 47318
L47152 46918
L47228 47203
L47304 46918
L47400 47318
" />
<path d="M47457 46880
L47761 46880
" />
<path d="M47857 46918
L47857 47318
L48009 47318
L48047 47299
L48066 47280
L48085 47241
L48085 47184
L48066 47146
L48047 47127
L48009 47108
L47857 47108
" />
<path d="M48257 47318
L48257 46994
L48276 46956
L48295 46937
L48333 46918
L48409 46918
L48447 46937
L48466 46956
L48485 46994
L48485 47318
" />
<path d="M48657 46937
L48714 46918
L48809 46918
L48847 46937
L48866 46956
L48885 46994
L48885 47032
L48866 47070
L48847 47089
L48809 47108
L48733 47127
L48695 47146
L48676 47165
L48657 47203
L48657 47241
L48676 47280
L48695 47299
L48733 47318
L48828 47318
L48885 47299
" />
<path d="M49057 46918
L49057 47318
" />
<path d="M49057 47127
L49285 47127
" />
<path d="M49285 46918
L49285 47318
" />
<path d="M56466 46237
L56523 46218
L56619 46218
L56657 46237
L56676 46256
L56695 46294
L56695 46332
L56676 46370
L56657 46389
L56619 46408
L56542 46427
L56504 46446
L56485 46465
L56466 46503
L56466 46541
L56485 46580
L56504 46599
L56542 46618
L56638 46618
L56695 46599
" />
<path d="M56828 46618
L56923 46218
L57000 46503
L57076 46218
L57171 46618
" />
<path d="M57304 46580
L57323 46599
L57361 46618
L57457 46618
L57495 46599
L57514 46580
L57533 46541
L57533 46503
L57514 46446
L57285 46218
L57533 46218
" />
<path d="M55695 46937
L55752 46918
L55847 46918
L55885 46937
L55904 46956
L55923 46994
L55923 47032
L55904 47070
L55885 47089
L55847 47108
L55771 47127
L55733 47146
L55714 47165
L55695 47203
L55695 47241
L55714 47280
L55733 47299
L55771 47318
L55866 47318
L55923 47299
" />
<path d="M56057 47318
L56152 46918
L56228 47203
L56304 46918
L56400 47318
" />
<path d="M56457 46880
L56761 46880
" />
<path d="M56857 46918
L56857 47318
L57009 47318
L57047 47299
L57066 47280
L57085 47241
L57085 47184
L57066 47146
L57047 47127
L57009 47108
L56857 47108
" />
<path d="M57257 47318
L57257 46994
L57276 46956
L57295 46937
L57333 46918
L57409 46918
L57447 46937
L57466 46956
L57485 46994
L57485 47318
" />
<path d="M57657 46937
L57714 46918
L57809 46918
L57847 46937
L57866 46956
L57885 46994
L57885 47032
L57866 47070
L57847 47089
L57809 47108
L57733 47127
L57695 47146
L57676 47165
L57657 47203
L57657 47241
L57676 47280
L57695 47299
L57733 47318
L57828 47318
L57885 47299
" />
<path d="M58057 46918
L58057 47318
" />
<path d="M58057 47127
L58285 47127
" />
<path d="M58285 46918
L58285 47318
" />
<path d="M65466 46237
L65523 46218
L65619 46218
L65657 46237
L65676 46256
L65695 46294
L65695 46332
L65676 46370
L65657 46389
L65619 46408
L65542 46427
L65504 46446
L65485 46465
L65466 46503
L65466 46541
L65485 46580
L65504 46599
L65542 46618
L65638 46618
L65695 46599
" />
<path d="M65828 46618
L65923 46218
L66000 46503
L66076 46218
L66171 46618
" />
<path d="M66285 46618
L66533 46618
L66400 46465
L66457 46465
L66495 46446
L66514 46427
L66533 46389
L66533 46294
L66514 46256
L66495 46237
L66457 46218
L66342 46218
L66304 46237
L66285 46256
" />
<path d="M64695 46937
L64752 46918
L64847 46918
L64885 46937
L64904 46956
L64923 46994
L64923 47032
L64904 47070
L64885 47089
L64847 47108
L64771 47127
L64733 47146
L64714 47165
L64695 47203
L64695 47241
L64714 47280
L64733 47299
L64771 47318
L64866 47318
L64923 47299
" />
<path d="M65057 47318
L65152 46918
L65228 47203
L65304 46918
L65400 47318
" />
<path d="M65457 46880
L65761 46880
" />
<path d="M65857 46918
L65857 47318
L66009 47318
L66047 47299
L66066 47280
L66085 47241
L66085 47184
L66066 47146
L66047 47127
L66009 47108
L65857 47108
" />
<path d="M66257 47318
L66257 46994
L66276 46956
L66295 46937
L66333 46918
L66409 46918
L66447 46937
L66466 46956
L66485 46994
L66485 47318
" />
<path d="M66657 46937
L66714 46918
L66809 46918
L66847 46937
L66866 46956
L66885 46994
L66885 47032
L66866 47070
L66847 47089
L66809 47108
L66733 47127
L66695 47146
L66676 47165
L66657 47203
L66657 47241
L66676 47280
L66695 47299
L66733 47318
L66828 47318
L66885 47299
" />
<path d="M67057 46918
L67057 47318
" />
<path d="M67057 47127
L67285 47127
" />
<path d="M67285 46918
L67285 47318
" />
<path d="M74466 46237
L74523 46218
L74619 46218
L74657 46237
L74676 46256
L74695 46294
L74695 46332
L74676 46370
L74657 46389
L74619 46408
L74542 46427
L74504 46446
L74485 46465
L74466 46503
L74466 46541
L74485 46580
L74504 46599
L74542 46618
L74638 46618
L74695 46599
" />
<path d="M74828 46618
L74923 46218
L75000 46503
L75076 46218
L75171 46618
" />
<path d="M75495 46484
L75495 46218
" />
<path d="M75400 46637
L75304 46351
L75552 46351
" />
<path d="M73695 46937
L73752 46918
L73847 46918
L73885 46937
L73904 46956
L73923 46994
L73923 47032
L73904 47070
L73885 47089
L73847 47108
L73771 47127
L73733 47146
L73714 47165
L73695 47203
L73695 47241
L73714 47280
L73733 47299
L73771 47318
L73866 47318
L73923 47299
" />
<path d="M74057 47318
L74152 46918
L74228 47203
L74304 46918
L74400 47318
" />
<path d="M74457 46880
L74761 46880
" />
<path d="M74857 46918
L74857 47318
L75009 47318
L75047 47299
L75066 47280
L75085 47241
L75085 47184
L75066 47146
L75047 47127
L75009 47108
L74857 47108
" />
<path d="M75257 47318
L75257 46994
L75276 46956
L75295 46937
L75333 46918
L75409 46918
L75447 46937
L75466 46956
L75485 46994
L75485 47318
" />
<path d="M75657 46937
L75714 46918
L75809 46918
L75847 46937
L75866 46956
L75885 46994
L75885 47032
L75866 47070
L75847 47089
L75809 47108
L75733 47127
L75695 47146
L75676 47165
L75657 47203
L75657 47241
L75676 47280
L75695 47299
L75733 47318
L75828 47318
L75885 47299
" />
<path d="M76057 46918
L76057 47318
" />
<path d="M76057 47127
L76285 47127
" />
<path d="M76285 46918
L76285 47318
" />
</g> 
</svg>
