<?xml version="1.0" standalone="no"?>
 <!DOCTYPE svg PUBLIC "-//W3C//DTD SVG 1.1//EN" 
 "http://www.w3.org/Graphics/SVG/1.1/DTD/svg11.dtd"> 
<svg xmlns="http://www.w3.org/2000/svg" version="1.1" 
    width="29.7002cm" height="21.0007cm" viewBox="0 0 116930 82680 ">
<title>SVG Picture created as rc_car-F.SilkS.svg date 2017/01/18 12:08:53 </title>
  <desc>Picture generated by PCBNEW </desc>
<g style="fill:#000000; fill-opacity:1;stroke:#000000; stroke-opacity:1;
stroke-linecap:round; stroke-linejoin:round; "
 transform="translate(0 0) scale(1 1)">
</g>
<g style="fill:#000000; fill-opacity:0.0; 
stroke:#000000; stroke-width:-0.000393701; stroke-opacity:1; 
stroke-linecap:round; stroke-linejoin:round;">
</g>
<g style="fill:#000000; fill-opacity:0.0; 
stroke:#000000; stroke-width:59.0551; stroke-opacity:1; 
stroke-linecap:round; stroke-linejoin:round;">
<path d="M47488 38639
L47488 39250
" />
<path d="M48000 38639
L47488 38639
" />
<path d="M49650 39200
L51950 39200
" />
<path d="M51950 39200
L51950 39300
" />
<path d="M51950 39300
L49650 39300
" />
<path d="M49650 39300
L49650 39250
" />
<path d="M49650 39250
L51950 39250
" />
<path d="M48600 39150
L48450 39150
" />
<path d="M48600 39350
L48450 39350
" />
<path d="M48600 40150
L48450 40150
" />
<path d="M48600 40350
L48450 40350
" />
<path d="M48600 41150
L48450 41150
" />
<path d="M48600 41350
L48450 41350
" />
<path d="M48600 42350
L48450 42350
" />
<path d="M48600 42150
L48450 42150
" />
<path d="M48600 38750
L49600 38750
" />
<path d="M48600 39750
L49600 39750
" />
<path d="M48600 39750
L48600 40750
" />
<path d="M48600 40750
L49600 40750
" />
<path d="M49600 40150
L52000 40150
" />
<path d="M52000 40150
L52000 40350
" />
<path d="M52000 40350
L49600 40350
" />
<path d="M49600 40750
L49600 39750
" />
<path d="M49600 39750
L49600 38750
" />
<path d="M52000 39350
L49600 39350
" />
<path d="M52000 39150
L52000 39350
" />
<path d="M49600 39150
L52000 39150
" />
<path d="M48600 39750
L49600 39750
" />
<path d="M48600 38750
L48600 39750
" />
<path d="M48600 41750
L49600 41750
" />
<path d="M48600 41750
L48600 42750
" />
<path d="M48600 42750
L49600 42750
" />
<path d="M49600 42150
L52000 42150
" />
<path d="M52000 42150
L52000 42350
" />
<path d="M52000 42350
L49600 42350
" />
<path d="M49600 42750
L49600 41750
" />
<path d="M49600 41750
L49600 40750
" />
<path d="M52000 41350
L49600 41350
" />
<path d="M52000 41150
L52000 41350
" />
<path d="M49600 41150
L52000 41150
" />
<path d="M48600 41750
L49600 41750
" />
<path d="M48600 40750
L48600 41750
" />
<path d="M48600 40750
L49600 40750
" />
<path d="M50553 53346
L50553 53846
" />
<path d="M53446 53346
L53446 53846
" />
<path d="M53446 62153
L53446 61653
" />
<path d="M50553 62153
L50553 61653
" />
<path d="M50553 53346
L53446 53346
" />
<path d="M50553 62153
L53446 62153
" />
<path d="M50553 53846
L50047 53846
" />
<path d="M39250 45250
L43250 45250
" />
<path d="M39250 44750
L39250 47750
" />
<path d="M39250 47750
L43250 47750
" />
<path d="M43250 47750
L43250 44750
" />
<path d="M43250 44750
L39250 44750
" />
<path d="M43760 60728
L46239 60728
" />
<path d="M43762 60673
L46237 60673
" />
<path d="M43767 60618
L44824 60618
" />
<path d="M45175 60618
L46232 60618
" />
<path d="M43775 60562
L44741 60562
" />
<path d="M45258 60562
L46224 60562
" />
<path d="M43785 60507
L44689 60507
" />
<path d="M45310 60507
L46214 60507
" />
<path d="M43798 60452
L44653 60452
" />
<path d="M45346 60452
L46201 60452
" />
<path d="M43813 60397
L44629 60397
" />
<path d="M45370 60397
L46186 60397
" />
<path d="M43831 60342
L44613 60342
" />
<path d="M45386 60342
L46168 60342
" />
<path d="M43852 60287
L44607 60287
" />
<path d="M45392 60287
L46147 60287
" />
<path d="M43876 60232
L44607 60232
" />
<path d="M45392 60232
L46123 60232
" />
<path d="M43904 60177
L44616 60177
" />
<path d="M45383 60177
L46095 60177
" />
<path d="M43935 60122
L44633 60122
" />
<path d="M45366 60122
L46064 60122
" />
<path d="M43970 60066
L44660 60066
" />
<path d="M45339 60066
L46029 60066
" />
<path d="M44009 60011
L44699 60011
" />
<path d="M45300 60011
L45990 60011
" />
<path d="M44053 59956
L44756 59956
" />
<path d="M45243 59956
L45946 59956
" />
<path d="M44102 59901
L44850 59901
" />
<path d="M45149 59901
L45897 59901
" />
<path d="M44159 59846
L45840 59846
" />
<path d="M44222 59791
L45777 59791
" />
<path d="M44296 59736
L45703 59736
" />
<path d="M44384 59681
L45615 59681
" />
<path d="M44493 59625
L45506 59625
" />
<path d="M44640 59570
L45359 59570
" />
<circle cx="45000" cy="60265.7" r="393.701" /> 
<circle cx="45000" cy="60757.9" r="1254.92" /> 
<path d="M54143 51742
L51387 51742
" />
<path d="M51387 51742
L51387 50757
" />
<path d="M51387 50757
L54143 50757
" />
<path d="M54143 50757
L54143 51742
" />
<path d="M54393 45742
L51637 45742
" />
<path d="M51637 45742
L51637 44757
" />
<path d="M51637 44757
L54393 44757
" />
<path d="M54393 44757
L54393 45742
" />
<path d="M54143 52992
L51387 52992
" />
<path d="M51387 52992
L51387 52007
" />
<path d="M51387 52007
L54143 52007
" />
<path d="M54143 52007
L54143 52992
" />
<path d="M45750 51250
L46150 51250
" />
<path d="M46150 51250
L46150 50850
" />
<path d="M46150 50850
L49350 50850
" />
<path d="M49350 50850
L49350 51650
" />
<path d="M49350 51650
L46150 51650
" />
<path d="M46150 51650
L46150 51250
" />
<path d="M46150 51050
L46350 50850
" />
<path d="M49750 51250
L49350 51250
" />
<path d="M56250 43750
L55850 43750
" />
<path d="M55850 43750
L55850 44150
" />
<path d="M55850 44150
L52650 44150
" />
<path d="M52650 44150
L52650 43350
" />
<path d="M52650 43350
L55850 43350
" />
<path d="M55850 43350
L55850 43750
" />
<path d="M55850 43950
L55650 44150
" />
<path d="M52250 43750
L52650 43750
" />
<path d="M45250 45250
L45250 44850
" />
<path d="M45250 44850
L44850 44850
" />
<path d="M44850 44850
L44850 41650
" />
<path d="M44850 41650
L45650 41650
" />
<path d="M45650 41650
L45650 44850
" />
<path d="M45650 44850
L45250 44850
" />
<path d="M45050 44850
L44850 44650
" />
<path d="M45250 41250
L45250 41650
" />
<path d="M46500 41250
L46500 41650
" />
<path d="M46500 41650
L46900 41650
" />
<path d="M46900 41650
L46900 44850
" />
<path d="M46900 44850
L46100 44850
" />
<path d="M46100 44850
L46100 41650
" />
<path d="M46100 41650
L46500 41650
" />
<path d="M46700 41650
L46900 41850
" />
<path d="M46500 45250
L46500 44850
" />
<path d="M44846 49696
L45346 49696
" />
<path d="M44846 46803
L45346 46803
" />
<path d="M59653 46803
L59153 46803
" />
<path d="M59653 49696
L59153 49696
" />
<path d="M44846 49696
L44846 46803
" />
<path d="M59653 49696
L59653 46803
" />
<path d="M45346 49696
L45346 50202
" />
<path d="M41000 62250
L41000 58250
" />
<path d="M40500 62250
L43500 62250
" />
<path d="M43500 62250
L43500 58250
" />
<path d="M43500 58250
L40500 58250
" />
<path d="M40500 58250
L40500 62250
" />
<path d="M48750 55750
L48750 59750
" />
<path d="M49250 55750
L46250 55750
" />
<path d="M46250 55750
L46250 59750
" />
<path d="M46250 59750
L49250 59750
" />
<path d="M49250 59750
L49250 55750
" />
<path d="M57250 55750
L57250 59750
" />
<path d="M57750 55750
L54750 55750
" />
<path d="M54750 55750
L54750 59750
" />
<path d="M54750 59750
L57750 59750
" />
<path d="M57750 59750
L57750 55750
" />
<path d="M44000 47250
L44000 47650
" />
<path d="M44000 47650
L44400 47650
" />
<path d="M44400 47650
L44400 50850
" />
<path d="M44400 50850
L43600 50850
" />
<path d="M43600 50850
L43600 47650
" />
<path d="M43600 47650
L44000 47650
" />
<path d="M44200 47650
L44400 47850
" />
<path d="M44000 51250
L44000 50850
" />
<path d="M45250 53250
L48250 53250
" />
<path d="M45250 52250
L48250 52250
" />
<path d="M44139 52139
L44750 52139
" />
<path d="M48250 53250
L48250 52250
" />
<path d="M45250 52250
L45250 53250
" />
<path d="M44750 53360
L44139 53360
" />
<path d="M44139 53360
L44139 52139
" />
<path d="M47250 44750
L47250 43750
" />
<path d="M47139 45860
L47139 45250
" />
<path d="M47250 44750
L48250 44750
" />
<path d="M48360 45250
L48360 45860
" />
<path d="M48360 45860
L47139 45860
" />
<path d="M48250 44750
L48250 43750
" />
<path d="M48250 43750
L47250 43750
" />
<path d="M49250 44750
L49250 43750
" />
<path d="M49139 45860
L49139 45250
" />
<path d="M49250 44750
L50250 44750
" />
<path d="M50360 45250
L50360 45860
" />
<path d="M50360 45860
L49139 45860
" />
<path d="M50250 44750
L50250 43750
" />
<path d="M50250 43750
L49250 43750
" />
<path d="M48250 44750
L48250 43750
" />
<path d="M48139 45860
L48139 45250
" />
<path d="M48250 44750
L49250 44750
" />
<path d="M49360 45250
L49360 45860
" />
<path d="M49360 45860
L48139 45860
" />
<path d="M49250 44750
L49250 43750
" />
<path d="M49250 43750
L48250 43750
" />
<path d="M42393 54492
L39637 54492
" />
<path d="M39637 54492
L39637 53507
" />
<path d="M39637 53507
L42393 53507
" />
<path d="M42393 53507
L42393 54492
" />
<path d="M40521 55260
L40521 57739
" />
<path d="M40576 55262
L40576 57737
" />
<path d="M40631 55267
L40631 56324
" />
<path d="M40631 56675
L40631 57732
" />
<path d="M40687 55275
L40687 56241
" />
<path d="M40687 56758
L40687 57724
" />
<path d="M40742 55285
L40742 56189
" />
<path d="M40742 56810
L40742 57714
" />
<path d="M40797 55298
L40797 56153
" />
<path d="M40797 56846
L40797 57701
" />
<path d="M40852 55313
L40852 56129
" />
<path d="M40852 56870
L40852 57686
" />
<path d="M40907 55331
L40907 56113
" />
<path d="M40907 56886
L40907 57668
" />
<path d="M40962 55352
L40962 56107
" />
<path d="M40962 56892
L40962 57647
" />
<path d="M41017 55376
L41017 56107
" />
<path d="M41017 56892
L41017 57623
" />
<path d="M41072 55404
L41072 56116
" />
<path d="M41072 56883
L41072 57595
" />
<path d="M41127 55435
L41127 56133
" />
<path d="M41127 56866
L41127 57564
" />
<path d="M41183 55470
L41183 56160
" />
<path d="M41183 56839
L41183 57529
" />
<path d="M41238 55509
L41238 56199
" />
<path d="M41238 56800
L41238 57490
" />
<path d="M41293 55553
L41293 56256
" />
<path d="M41293 56743
L41293 57446
" />
<path d="M41348 55602
L41348 56350
" />
<path d="M41348 56649
L41348 57397
" />
<path d="M41403 55659
L41403 57340
" />
<path d="M41458 55722
L41458 57277
" />
<path d="M41513 55796
L41513 57203
" />
<path d="M41568 55884
L41568 57115
" />
<path d="M41624 55993
L41624 57006
" />
<path d="M41679 56140
L41679 56859
" />
<circle cx="40984.3" cy="56500" r="393.701" /> 
<circle cx="40492.1" cy="56500" r="1254.92" /> 
<path d="M50250 44750
L50250 43750
" />
<path d="M50139 45860
L50139 45250
" />
<path d="M50250 44750
L51250 44750
" />
<path d="M51360 45250
L51360 45860
" />
<path d="M51360 45860
L50139 45860
" />
<path d="M51250 44750
L51250 43750
" />
<path d="M51250 43750
L50250 43750
" />
<path d="M56250 51500
L56250 52500
" />
<path d="M56360 50389
L56360 51000
" />
<path d="M56250 51500
L55250 51500
" />
<path d="M55139 51000
L55139 50389
" />
<path d="M55139 50389
L56360 50389
" />
<path d="M55250 51500
L55250 52500
" />
<path d="M55250 52500
L56250 52500
" />
<path d="M57250 51500
L57250 52500
" />
<path d="M57360 50389
L57360 51000
" />
<path d="M57250 51500
L56250 51500
" />
<path d="M56139 51000
L56139 50389
" />
<path d="M56139 50389
L57360 50389
" />
<path d="M56250 51500
L56250 52500
" />
<path d="M56250 52500
L57250 52500
" />
<path d="M56250 44750
L56250 43750
" />
<path d="M56139 45860
L56139 45250
" />
<path d="M56250 44750
L57250 44750
" />
<path d="M57360 45250
L57360 45860
" />
<path d="M57360 45860
L56139 45860
" />
<path d="M57250 44750
L57250 43750
" />
<path d="M57250 43750
L56250 43750
" />
<path d="M55250 44750
L55250 43750
" />
<path d="M55139 45860
L55139 45250
" />
<path d="M55250 44750
L56250 44750
" />
<path d="M56360 45250
L56360 45860
" />
<path d="M56360 45860
L55139 45860
" />
<path d="M56250 44750
L56250 43750
" />
<path d="M56250 43750
L55250 43750
" />
<path d="M47456 37420
L47456 37157
" />
<path d="M47456 37026
L47437 37045
L47456 37064
L47475 37045
L47456 37026
L47456 37064
" />
<path d="M47625 37064
L47643 37045
L47681 37026
L47775 37026
L47812 37045
L47831 37064
L47850 37101
L47850 37139
L47831 37195
L47606 37420
L47850 37420
" />
<path d="M48187 37401
L48149 37420
L48074 37420
L48037 37401
L48018 37382
L48000 37345
L48000 37232
L48018 37195
L48037 37176
L48074 37157
L48149 37157
L48187 37176
" />
<path d="M48562 37420
L48337 37420
" />
<path d="M48449 37420
L48449 37026
L48412 37082
L48374 37120
L48337 37139
" />
<path d="M50115 52372
L50115 51979
" />
<path d="M50528 52335
L50509 52354
L50453 52372
L50415 52372
L50359 52354
L50321 52316
L50303 52279
L50284 52204
L50284 52148
L50303 52073
L50321 52035
L50359 51998
L50415 51979
L50453 51979
L50509 51998
L50528 52016
" />
<path d="M50903 52372
L50678 52372
" />
<path d="M50790 52372
L50790 51979
L50753 52035
L50715 52073
L50678 52091
" />
<path d="M40340 48034
L40153 48034
L40134 48221
L40153 48203
L40190 48184
L40284 48184
L40321 48203
L40340 48221
L40359 48259
L40359 48353
L40340 48390
L40321 48409
L40284 48428
L40190 48428
L40153 48409
L40134 48390
" />
<path d="M40490 48165
L40584 48428
L40678 48165
" />
<path d="M40734 48465
L41034 48465
" />
<path d="M41296 48428
L41296 48221
L41278 48184
L41240 48165
L41165 48165
L41128 48184
" />
<path d="M41296 48409
L41259 48428
L41165 48428
L41128 48409
L41109 48371
L41109 48334
L41128 48296
L41165 48278
L41259 48278
L41296 48259
" />
<path d="M41653 48165
L41653 48428
" />
<path d="M41484 48165
L41484 48371
L41503 48409
L41540 48428
L41596 48428
L41634 48409
L41653 48390
" />
<path d="M41803 48428
L42009 48165
" />
<path d="M41803 48165
L42009 48428
" />
<path d="M42365 48428
L42140 48428
" />
<path d="M42252 48428
L42252 48034
L42215 48090
L42178 48128
L42140 48146
" />
<path d="M43408 60823
L43427 60842
L43445 60898
L43445 60935
L43427 60992
L43389 61029
L43352 61048
L43277 61067
L43220 61067
L43145 61048
L43108 61029
L43070 60992
L43052 60935
L43052 60898
L43070 60842
L43089 60823
" />
<path d="M43445 60448
L43445 60673
" />
<path d="M43445 60561
L43052 60561
L43108 60598
L43145 60636
L43164 60673
" />
<path d="M52700 52374
L52681 52393
L52625 52412
L52587 52412
L52531 52393
L52493 52356
L52475 52318
L52456 52243
L52456 52187
L52475 52112
L52493 52074
L52531 52037
L52587 52018
L52625 52018
L52681 52037
L52700 52056
" />
<path d="M52850 52056
L52868 52037
L52906 52018
L53000 52018
L53037 52037
L53056 52056
L53075 52093
L53075 52131
L53056 52187
L52831 52412
L53075 52412
" />
<path d="M52950 46374
L52931 46393
L52875 46412
L52837 46412
L52781 46393
L52743 46356
L52725 46318
L52706 46243
L52706 46187
L52725 46112
L52743 46074
L52781 46037
L52837 46018
L52875 46018
L52931 46037
L52950 46056
" />
<path d="M53081 46018
L53325 46018
L53193 46168
L53250 46168
L53287 46187
L53306 46206
L53325 46243
L53325 46337
L53306 46374
L53287 46393
L53250 46412
L53137 46412
L53100 46393
L53081 46374
" />
<path d="M52700 53624
L52681 53643
L52625 53662
L52587 53662
L52531 53643
L52493 53606
L52475 53568
L52456 53493
L52456 53437
L52475 53362
L52493 53324
L52531 53287
L52587 53268
L52625 53268
L52681 53287
L52700 53306
" />
<path d="M53037 53399
L53037 53662
" />
<path d="M52943 53249
L52850 53531
L53093 53531
" />
<path d="M47421 51221
L47290 51221
" />
<path d="M47290 51428
L47290 51034
L47478 51034
" />
<path d="M47759 51221
L47815 51240
L47834 51259
L47853 51296
L47853 51353
L47834 51390
L47815 51409
L47778 51428
L47628 51428
L47628 51034
L47759 51034
L47796 51053
L47815 51071
L47834 51109
L47834 51146
L47815 51184
L47796 51203
L47759 51221
L47628 51221
" />
<path d="M48228 51428
L48003 51428
" />
<path d="M48115 51428
L48115 51034
L48078 51090
L48040 51128
L48003 51146
" />
<path d="M53921 43721
L53790 43721
" />
<path d="M53790 43928
L53790 43534
L53978 43534
" />
<path d="M54259 43721
L54315 43740
L54334 43759
L54353 43796
L54353 43853
L54334 43890
L54315 43909
L54278 43928
L54128 43928
L54128 43534
L54259 43534
L54296 43553
L54315 43571
L54334 43609
L54334 43646
L54315 43684
L54296 43703
L54259 43721
L54128 43721
" />
<path d="M54503 43571
L54521 43553
L54559 43534
L54653 43534
L54690 43553
L54709 43571
L54728 43609
L54728 43646
L54709 43703
L54484 43928
L54728 43928
" />
<path d="M45221 43578
L45221 43709
" />
<path d="M45428 43709
L45034 43709
L45034 43521
" />
<path d="M45221 43240
L45240 43184
L45259 43165
L45296 43146
L45353 43146
L45390 43165
L45409 43184
L45428 43221
L45428 43371
L45034 43371
L45034 43240
L45053 43203
L45071 43184
L45109 43165
L45146 43165
L45184 43184
L45203 43203
L45221 43240
L45221 43371
" />
<path d="M45034 43015
L45034 42771
L45184 42903
L45184 42846
L45203 42809
L45221 42790
L45259 42771
L45353 42771
L45390 42790
L45409 42809
L45428 42846
L45428 42959
L45409 42996
L45390 43015
" />
<path d="M46471 43578
L46471 43709
" />
<path d="M46678 43709
L46284 43709
L46284 43521
" />
<path d="M46471 43240
L46490 43184
L46509 43165
L46546 43146
L46603 43146
L46640 43165
L46659 43184
L46678 43221
L46678 43371
L46284 43371
L46284 43240
L46303 43203
L46321 43184
L46359 43165
L46396 43165
L46434 43184
L46453 43203
L46471 43240
L46471 43371
" />
<path d="M46415 42809
L46678 42809
" />
<path d="M46265 42903
L46546 42996
L46546 42753
" />
<path d="M43479 49881
L43760 49881
L43816 49899
L43854 49937
L43872 49993
L43872 50031
" />
<path d="M43872 49487
L43872 49712
" />
<path d="M43872 49600
L43479 49600
L43535 49637
L43573 49675
L43591 49712
" />
<path d="M43915 61852
L44309 61852
" />
<path d="M43934 61852
L43915 61815
L43915 61740
L43934 61702
L43953 61684
L43990 61665
L44103 61665
L44140 61684
L44159 61702
L44178 61740
L44178 61815
L44159 61852
" />
<path d="M43915 61534
L44178 61459
L43990 61384
L44178 61309
L43915 61234
" />
<path d="M44178 61084
L43915 61084
" />
<path d="M43990 61084
L43953 61065
L43934 61046
L43915 61009
L43915 60971
" />
<path d="M44215 60934
L44215 60634
" />
<path d="M44178 60540
L43915 60540
" />
<path d="M43953 60540
L43934 60521
L43915 60484
L43915 60428
L43934 60390
L43971 60371
L44178 60371
" />
<path d="M43971 60371
L43934 60353
L43915 60315
L43915 60259
L43934 60221
L43971 60203
L44178 60203
" />
<path d="M44178 59959
L44159 59996
L44140 60015
L44103 60034
L43990 60034
L43953 60015
L43934 59996
L43915 59959
L43915 59903
L43934 59865
L43953 59846
L43990 59828
L44103 59828
L44140 59846
L44159 59865
L44178 59903
L44178 59959
" />
<path d="M43915 59715
L43915 59565
" />
<path d="M43784 59659
L44121 59659
L44159 59640
L44178 59603
L44178 59565
" />
<path d="M44178 59378
L44159 59415
L44140 59434
L44103 59453
L43990 59453
L43953 59434
L43934 59415
L43915 59378
L43915 59321
L43934 59284
L43953 59265
L43990 59247
L44103 59247
L44140 59265
L44159 59284
L44178 59321
L44178 59378
" />
<path d="M44178 59078
L43915 59078
" />
<path d="M43990 59078
L43953 59059
L43934 59040
L43915 59003
L43915 58965
" />
<path d="M44178 58628
L44178 58853
" />
<path d="M44178 58740
L43784 58740
L43840 58778
L43878 58815
L43896 58853
" />
<path d="M45928 58912
L45665 58912
" />
<path d="M45703 58912
L45684 58893
L45665 58856
L45665 58799
L45684 58762
L45721 58743
L45928 58743
" />
<path d="M45721 58743
L45684 58724
L45665 58687
L45665 58631
L45684 58593
L45721 58574
L45928 58574
" />
<path d="M45928 58181
L45928 58406
" />
<path d="M45928 58293
L45534 58293
L45590 58331
L45628 58368
L45646 58406
" />
<path d="M45965 58106
L45965 57806
" />
<path d="M45928 57656
L45909 57693
L45890 57712
L45853 57731
L45740 57731
L45703 57712
L45684 57693
L45665 57656
L45665 57600
L45684 57562
L45703 57543
L45740 57525
L45853 57525
L45890 57543
L45909 57562
L45928 57600
L45928 57656
" />
<path d="M45665 57187
L45928 57187
" />
<path d="M45665 57356
L45871 57356
L45909 57337
L45928 57300
L45928 57243
L45909 57206
L45890 57187
" />
<path d="M45665 57056
L45665 56906
" />
<path d="M45534 57000
L45871 57000
L45909 56981
L45928 56943
L45928 56906
" />
<path d="M45928 56568
L45928 56793
" />
<path d="M45928 56681
L45534 56681
L45590 56718
L45628 56756
L45646 56793
" />
<path d="M54428 58912
L54165 58912
" />
<path d="M54203 58912
L54184 58893
L54165 58856
L54165 58799
L54184 58762
L54221 58743
L54428 58743
" />
<path d="M54221 58743
L54184 58724
L54165 58687
L54165 58631
L54184 58593
L54221 58574
L54428 58574
" />
<path d="M54071 58406
L54053 58387
L54034 58349
L54034 58256
L54053 58218
L54071 58199
L54109 58181
L54146 58181
L54203 58199
L54428 58424
L54428 58181
" />
<path d="M54465 58106
L54465 57806
" />
<path d="M54428 57656
L54409 57693
L54390 57712
L54353 57731
L54240 57731
L54203 57712
L54184 57693
L54165 57656
L54165 57600
L54184 57562
L54203 57543
L54240 57525
L54353 57525
L54390 57543
L54409 57562
L54428 57600
L54428 57656
" />
<path d="M54165 57187
L54428 57187
" />
<path d="M54165 57356
L54371 57356
L54409 57337
L54428 57300
L54428 57243
L54409 57206
L54390 57187
" />
<path d="M54165 57056
L54165 56906
" />
<path d="M54034 57000
L54371 57000
L54409 56981
L54428 56943
L54428 56906
" />
<path d="M54428 56568
L54428 56793
" />
<path d="M54428 56681
L54034 56681
L54090 56718
L54128 56756
L54146 56793
" />
<path d="M43971 49578
L43971 49709
" />
<path d="M44178 49709
L43784 49709
L43784 49521
" />
<path d="M43971 49240
L43990 49184
L44009 49165
L44046 49146
L44103 49146
L44140 49165
L44159 49184
L44178 49221
L44178 49371
L43784 49371
L43784 49240
L43803 49203
L43821 49184
L43859 49165
L43896 49165
L43934 49184
L43953 49203
L43971 49240
L43971 49371
" />
<path d="M43784 48790
L43784 48978
L43971 48996
L43953 48978
L43934 48940
L43934 48846
L43953 48809
L43971 48790
L44009 48771
L44103 48771
L44140 48790
L44159 48809
L44178 48846
L44178 48940
L44159 48978
L44140 48996
" />
<path d="M42920 53406
L42526 53406
" />
<path d="M42676 53406
L42657 53368
L42657 53293
L42676 53256
L42695 53237
L42732 53218
L42845 53218
L42882 53237
L42901 53256
L42920 53293
L42920 53368
L42901 53406
" />
<path d="M42657 53106
L42657 52956
" />
<path d="M42526 53049
L42863 53049
L42901 53031
L42920 52993
L42920 52956
" />
<path d="M42920 52824
L42657 52824
" />
<path d="M42526 52824
L42545 52843
L42564 52824
L42545 52806
L42526 52824
L42564 52824
" />
<path d="M42657 52637
L42920 52637
" />
<path d="M42695 52637
L42676 52618
L42657 52581
L42657 52525
L42676 52487
L42714 52468
L42920 52468
" />
<path d="M42920 52075
L42920 52300
" />
<path d="M42920 52187
L42526 52187
L42582 52225
L42620 52262
L42639 52300
" />
<path d="M46784 47435
L46784 47229
L46765 47192
L46728 47173
L46653 47173
L46615 47192
" />
<path d="M46784 47417
L46747 47435
L46653 47435
L46615 47417
L46597 47379
L46597 47342
L46615 47304
L46653 47285
L46747 47285
L46784 47267
" />
<path d="M46971 47435
L46971 47173
" />
<path d="M46971 47042
L46953 47061
L46971 47079
L46990 47061
L46971 47042
L46971 47079
" />
<path d="M47159 47173
L47159 47435
" />
<path d="M47159 47211
L47178 47192
L47215 47173
L47271 47173
L47309 47192
L47328 47229
L47328 47435
" />
<path d="M47421 47473
L47721 47473
" />
<path d="M47965 47417
L47928 47435
L47853 47435
L47815 47417
L47796 47379
L47796 47229
L47815 47192
L47853 47173
L47928 47173
L47965 47192
L47984 47229
L47984 47267
L47796 47304
" />
<path d="M48115 47435
L48321 47173
" />
<path d="M48115 47173
L48321 47435
" />
<path d="M48415 47173
L48565 47173
" />
<path d="M48471 47042
L48471 47379
L48490 47417
L48528 47435
L48565 47435
" />
<path d="M48902 47435
L48678 47435
" />
<path d="M48790 47435
L48790 47042
L48752 47098
L48715 47136
L48678 47154
" />
<path d="M48784 47435
L48784 47229
L48765 47192
L48728 47173
L48653 47173
L48615 47192
" />
<path d="M48784 47417
L48747 47435
L48653 47435
L48615 47417
L48597 47379
L48597 47342
L48615 47304
L48653 47285
L48747 47285
L48784 47267
" />
<path d="M48971 47435
L48971 47173
" />
<path d="M48971 47042
L48953 47061
L48971 47079
L48990 47061
L48971 47042
L48971 47079
" />
<path d="M49159 47173
L49159 47435
" />
<path d="M49159 47211
L49178 47192
L49215 47173
L49271 47173
L49309 47192
L49328 47229
L49328 47435
" />
<path d="M49421 47473
L49721 47473
" />
<path d="M49965 47417
L49928 47435
L49853 47435
L49815 47417
L49796 47379
L49796 47229
L49815 47192
L49853 47173
L49928 47173
L49965 47192
L49984 47229
L49984 47267
L49796 47304
" />
<path d="M50115 47435
L50321 47173
" />
<path d="M50115 47173
L50321 47435
" />
<path d="M50415 47173
L50565 47173
" />
<path d="M50471 47042
L50471 47379
L50490 47417
L50528 47435
L50565 47435
" />
<path d="M50659 47042
L50902 47042
L50771 47192
L50827 47192
L50865 47211
L50884 47229
L50902 47267
L50902 47360
L50884 47398
L50865 47417
L50827 47435
L50715 47435
L50678 47417
L50659 47398
" />
<path d="M47784 47435
L47784 47229
L47765 47192
L47728 47173
L47653 47173
L47615 47192
" />
<path d="M47784 47417
L47747 47435
L47653 47435
L47615 47417
L47597 47379
L47597 47342
L47615 47304
L47653 47285
L47747 47285
L47784 47267
" />
<path d="M47971 47435
L47971 47173
" />
<path d="M47971 47042
L47953 47061
L47971 47079
L47990 47061
L47971 47042
L47971 47079
" />
<path d="M48159 47173
L48159 47435
" />
<path d="M48159 47211
L48178 47192
L48215 47173
L48271 47173
L48309 47192
L48328 47229
L48328 47435
" />
<path d="M48421 47473
L48721 47473
" />
<path d="M48965 47417
L48928 47435
L48853 47435
L48815 47417
L48796 47379
L48796 47229
L48815 47192
L48853 47173
L48928 47173
L48965 47192
L48984 47229
L48984 47267
L48796 47304
" />
<path d="M49115 47435
L49321 47173
" />
<path d="M49115 47173
L49321 47435
" />
<path d="M49415 47173
L49565 47173
" />
<path d="M49471 47042
L49471 47379
L49490 47417
L49528 47435
L49565 47435
" />
<path d="M49865 47173
L49865 47435
" />
<path d="M49771 47023
L49678 47304
L49921 47304
" />
<path d="M40950 55124
L40931 55143
L40875 55162
L40837 55162
L40781 55143
L40743 55106
L40725 55068
L40706 54993
L40706 54937
L40725 54862
L40743 54824
L40781 54787
L40837 54768
L40875 54768
L40931 54787
L40950 54806
" />
<path d="M41306 54768
L41118 54768
L41100 54956
L41118 54937
L41156 54918
L41250 54918
L41287 54937
L41306 54956
L41325 54993
L41325 55087
L41306 55124
L41287 55143
L41250 55162
L41156 55162
L41118 55143
L41100 55124
" />
<path d="M40426 54908
L40407 54927
L40351 54945
L40314 54945
L40257 54927
L40220 54889
L40201 54852
L40182 54777
L40182 54720
L40201 54645
L40220 54608
L40257 54570
L40314 54552
L40351 54552
L40407 54570
L40426 54589
" />
<path d="M40763 54552
L40688 54552
L40651 54570
L40632 54589
L40595 54645
L40576 54720
L40576 54870
L40595 54908
L40613 54927
L40651 54945
L40726 54945
L40763 54927
L40782 54908
L40801 54870
L40801 54777
L40782 54739
L40763 54720
L40726 54702
L40651 54702
L40613 54720
L40595 54739
L40576 54777
" />
<path d="M49784 47435
L49784 47229
L49765 47192
L49728 47173
L49653 47173
L49615 47192
" />
<path d="M49784 47417
L49747 47435
L49653 47435
L49615 47417
L49597 47379
L49597 47342
L49615 47304
L49653 47285
L49747 47285
L49784 47267
" />
<path d="M49971 47435
L49971 47173
" />
<path d="M49971 47042
L49953 47061
L49971 47079
L49990 47061
L49971 47042
L49971 47079
" />
<path d="M50159 47173
L50159 47435
" />
<path d="M50159 47211
L50178 47192
L50215 47173
L50271 47173
L50309 47192
L50328 47229
L50328 47435
" />
<path d="M50421 47473
L50721 47473
" />
<path d="M50965 47417
L50928 47435
L50853 47435
L50815 47417
L50796 47379
L50796 47229
L50815 47192
L50853 47173
L50928 47173
L50965 47192
L50984 47229
L50984 47267
L50796 47304
" />
<path d="M51115 47435
L51321 47173
" />
<path d="M51115 47173
L51321 47435
" />
<path d="M51415 47173
L51565 47173
" />
<path d="M51471 47042
L51471 47379
L51490 47417
L51528 47435
L51565 47435
" />
<path d="M51678 47079
L51696 47061
L51734 47042
L51827 47042
L51865 47061
L51884 47079
L51902 47117
L51902 47154
L51884 47211
L51659 47435
L51902 47435
" />
<path d="M54784 49170
L54784 48776
" />
<path d="M54784 49151
L54747 49170
L54672 49170
L54634 49151
L54615 49132
L54597 49095
L54597 48982
L54615 48945
L54634 48926
L54672 48907
L54747 48907
L54784 48926
" />
<path d="M54971 49170
L54971 48907
" />
<path d="M54971 48776
L54953 48795
L54971 48814
L54990 48795
L54971 48776
L54971 48814
" />
<path d="M55159 48907
L55159 49170
" />
<path d="M55159 48945
L55178 48926
L55215 48907
L55271 48907
L55309 48926
L55328 48964
L55328 49170
" />
<path d="M55421 49207
L55721 49207
" />
<path d="M55965 49151
L55928 49170
L55853 49170
L55815 49151
L55796 49113
L55796 48964
L55815 48926
L55853 48907
L55928 48907
L55965 48926
L55984 48964
L55984 49001
L55796 49038
" />
<path d="M56115 49170
L56321 48907
" />
<path d="M56115 48907
L56321 49170
" />
<path d="M56415 48907
L56565 48907
" />
<path d="M56471 48776
L56471 49113
L56490 49151
L56528 49170
L56565 49170
" />
<path d="M56902 49170
L56678 49170
" />
<path d="M56790 49170
L56790 48776
L56752 48832
L56715 48870
L56678 48889
" />
<path d="M55784 49170
L55784 48776
" />
<path d="M55784 49151
L55747 49170
L55672 49170
L55634 49151
L55615 49132
L55597 49095
L55597 48982
L55615 48945
L55634 48926
L55672 48907
L55747 48907
L55784 48926
" />
<path d="M55971 49170
L55971 48907
" />
<path d="M55971 48776
L55953 48795
L55971 48814
L55990 48795
L55971 48776
L55971 48814
" />
<path d="M56159 48907
L56159 49170
" />
<path d="M56159 48945
L56178 48926
L56215 48907
L56271 48907
L56309 48926
L56328 48964
L56328 49170
" />
<path d="M56421 49207
L56721 49207
" />
<path d="M56965 49151
L56928 49170
L56853 49170
L56815 49151
L56796 49113
L56796 48964
L56815 48926
L56853 48907
L56928 48907
L56965 48926
L56984 48964
L56984 49001
L56796 49038
" />
<path d="M57115 49170
L57321 48907
" />
<path d="M57115 48907
L57321 49170
" />
<path d="M57415 48907
L57565 48907
" />
<path d="M57471 48776
L57471 49113
L57490 49151
L57528 49170
L57565 49170
" />
<path d="M57678 48814
L57696 48795
L57734 48776
L57827 48776
L57865 48795
L57884 48814
L57902 48851
L57902 48889
L57884 48945
L57659 49170
L57902 49170
" />
<path d="M55784 47435
L55784 47042
" />
<path d="M55784 47417
L55747 47435
L55672 47435
L55634 47417
L55615 47398
L55597 47360
L55597 47248
L55615 47211
L55634 47192
L55672 47173
L55747 47173
L55784 47192
" />
<path d="M55971 47435
L55971 47173
" />
<path d="M55971 47042
L55953 47061
L55971 47079
L55990 47061
L55971 47042
L55971 47079
" />
<path d="M56159 47173
L56159 47435
" />
<path d="M56159 47211
L56178 47192
L56215 47173
L56271 47173
L56309 47192
L56328 47229
L56328 47435
" />
<path d="M56421 47473
L56721 47473
" />
<path d="M56965 47417
L56928 47435
L56853 47435
L56815 47417
L56796 47379
L56796 47229
L56815 47192
L56853 47173
L56928 47173
L56965 47192
L56984 47229
L56984 47267
L56796 47304
" />
<path d="M57115 47435
L57321 47173
" />
<path d="M57115 47173
L57321 47435
" />
<path d="M57415 47173
L57565 47173
" />
<path d="M57471 47042
L57471 47379
L57490 47417
L57528 47435
L57565 47435
" />
<path d="M57659 47042
L57902 47042
L57771 47192
L57827 47192
L57865 47211
L57884 47229
L57902 47267
L57902 47360
L57884 47398
L57865 47417
L57827 47435
L57715 47435
L57678 47417
L57659 47398
" />
<path d="M54784 47435
L54784 47042
" />
<path d="M54784 47417
L54747 47435
L54672 47435
L54634 47417
L54615 47398
L54597 47360
L54597 47248
L54615 47211
L54634 47192
L54672 47173
L54747 47173
L54784 47192
" />
<path d="M54971 47435
L54971 47173
" />
<path d="M54971 47042
L54953 47061
L54971 47079
L54990 47061
L54971 47042
L54971 47079
" />
<path d="M55159 47173
L55159 47435
" />
<path d="M55159 47211
L55178 47192
L55215 47173
L55271 47173
L55309 47192
L55328 47229
L55328 47435
" />
<path d="M55421 47473
L55721 47473
" />
<path d="M55965 47417
L55928 47435
L55853 47435
L55815 47417
L55796 47379
L55796 47229
L55815 47192
L55853 47173
L55928 47173
L55965 47192
L55984 47229
L55984 47267
L55796 47304
" />
<path d="M56115 47435
L56321 47173
" />
<path d="M56115 47173
L56321 47435
" />
<path d="M56415 47173
L56565 47173
" />
<path d="M56471 47042
L56471 47379
L56490 47417
L56528 47435
L56565 47435
" />
<path d="M56865 47173
L56865 47435
" />
<path d="M56771 47023
L56678 47304
L56921 47304
" />
</g> 
</svg>
