<?xml version="1.0" standalone="no"?>
 <!DOCTYPE svg PUBLIC "-//W3C//DTD SVG 1.1//EN" 
 "http://www.w3.org/Graphics/SVG/1.1/DTD/svg11.dtd"> 
<svg xmlns="http://www.w3.org/2000/svg" version="1.1" 
    width="29.7002cm" height="21.0007cm" viewBox="0 0 116930 82680 ">
<title>SVG Picture created as ctrl_board-F_SilkS.svg date 2015/10/18 21:53:35 </title>
  <desc>Picture generated by PCBNEW </desc>
<g style="fill:#000000; fill-opacity:1;stroke:#000000; stroke-opacity:1;
stroke-linecap:round; stroke-linejoin:round; "
 transform="translate(0 0) scale(1 1)">
</g>
<g style="fill:#000000; fill-opacity:0.0; 
stroke:#000000; stroke-width:39.3701; stroke-opacity:1; 
stroke-linecap:round; stroke-linejoin:round;">
<circle cx="25750" cy="8250" r="500" /> 
<circle cx="9000" cy="34750" r="500" /> 
<circle cx="9000" cy="8200" r="500" /> 
<circle cx="25750" cy="34750" r="500" /> 
</g>
<g style="fill:#000000; fill-opacity:0.0; 
stroke:#000000; stroke-width:150; stroke-opacity:1; 
stroke-linecap:round; stroke-linejoin:round;">
<path d="M19200 9150
L19200 9400
" />
<path d="M19200 9400
L15200 9400
" />
<path d="M15200 9400
L15200 9150
" />
<path d="M19200 7650
L19200 9150
" />
<path d="M19200 9150
L15200 9150
" />
<path d="M15200 9150
L15200 7650
" />
<path d="M15200 7650
L19200 7650
" />
</g>
<g style="fill:#000000; fill-opacity:0.0; 
stroke:#000000; stroke-width:120; stroke-opacity:1; 
stroke-linecap:round; stroke-linejoin:round;">
<path d="M24750 20500
L24750 20900
" />
<path d="M24750 20900
L25150 20900
" />
<path d="M25150 20900
L25150 24100
" />
<path d="M25150 24100
L24350 24100
" />
<path d="M24350 24100
L24350 20900
" />
<path d="M24350 20900
L24750 20900
" />
<path d="M24950 20900
L25150 21100
" />
<path d="M24750 24500
L24750 24100
" />
<path d="M24000 16000
L23600 16000
" />
<path d="M23600 16000
L23600 16400
" />
<path d="M23600 16400
L20400 16400
" />
<path d="M20400 16400
L20400 15600
" />
<path d="M20400 15600
L23600 15600
" />
<path d="M23600 15600
L23600 16000
" />
<path d="M23600 16200
L23400 16400
" />
<path d="M20000 16000
L20400 16000
" />
<path d="M15500 19000
L15500 19400
" />
<path d="M15500 19400
L15900 19400
" />
<path d="M15900 19400
L15900 22600
" />
<path d="M15900 22600
L15100 22600
" />
<path d="M15100 22600
L15100 19400
" />
<path d="M15100 19400
L15500 19400
" />
<path d="M15700 19400
L15900 19600
" />
<path d="M15500 23000
L15500 22600
" />
<path d="M23250 24500
L23250 24100
" />
<path d="M23250 24100
L22850 24100
" />
<path d="M22850 24100
L22850 20900
" />
<path d="M22850 20900
L23650 20900
" />
<path d="M23650 20900
L23650 24100
" />
<path d="M23650 24100
L23250 24100
" />
<path d="M23050 24100
L22850 23900
" />
<path d="M23250 20500
L23250 20900
" />
<path d="M21500 17500
L21900 17500
" />
<path d="M21900 17500
L21900 17100
" />
<path d="M21900 17100
L25100 17100
" />
<path d="M25100 17100
L25100 17900
" />
<path d="M25100 17900
L21900 17900
" />
<path d="M21900 17900
L21900 17500
" />
<path d="M21900 17300
L22100 17100
" />
<path d="M25500 17500
L25100 17500
" />
</g>
<g style="fill:#000000; fill-opacity:0.0; 
stroke:#000000; stroke-width:100; stroke-opacity:1; 
stroke-linecap:round; stroke-linejoin:round;">
<path d="M25500 31000
L21500 31000
" />
<path d="M25500 30000
L21500 30000
" />
<path d="M21500 30000
L21500 31000
" />
<path d="M25500 31000
L25500 30000
" />
</g>
<g style="fill:#000000; fill-opacity:0.0; 
stroke:#000000; stroke-width:60; stroke-opacity:1; 
stroke-linecap:round; stroke-linejoin:round;">
<path d="M13500 17000
L14500 17000
" />
<path d="M14500 17000
L14500 20000
" />
<path d="M14500 20000
L13500 20000
" />
<path d="M13500 20000
L13500 17000
" />
<path d="M14500 18000
L13500 18000
" />
<path d="M11700 17000
L12700 17000
" />
<path d="M12700 17000
L12700 20000
" />
<path d="M12700 20000
L11700 20000
" />
<path d="M11700 20000
L11700 17000
" />
<path d="M12700 18000
L11700 18000
" />
</g>
<g style="fill:#000000; fill-opacity:0.0; 
stroke:#000000; stroke-width:120; stroke-opacity:1; 
stroke-linecap:round; stroke-linejoin:round;">
<path d="M15100 26400
L15100 23600
" />
<path d="M15100 23600
L15900 23600
" />
<path d="M15900 23600
L15900 26400
" />
<path d="M15900 26400
L15100 26400
" />
<path d="M15300 26400
L15100 26200
" />
<path d="M13800 34400
L13800 31600
" />
<path d="M13800 31600
L14600 31600
" />
<path d="M14600 31600
L14600 34400
" />
<path d="M14600 34400
L13800 34400
" />
<path d="M14000 34400
L13800 34200
" />
<path d="M15900 32600
L15900 35400
" />
<path d="M15900 35400
L15100 35400
" />
<path d="M15100 35400
L15100 32600
" />
<path d="M15100 32600
L15900 32600
" />
<path d="M15700 32600
L15900 32800
" />
</g>
<g style="fill:#000000; fill-opacity:0.0; 
stroke:#000000; stroke-width:100; stroke-opacity:1; 
stroke-linecap:round; stroke-linejoin:round;">
<path d="M20500 35250
L16500 35250
" />
<path d="M20500 34250
L16500 34250
" />
<path d="M16500 34250
L16500 35250
" />
<path d="M20500 35250
L20500 34250
" />
</g>
<g style="fill:#000000; fill-opacity:0.0; 
stroke:#000000; stroke-width:120; stroke-opacity:1; 
stroke-linecap:round; stroke-linejoin:round;">
<path d="M8250 17500
L8250 13500
" />
<path d="M7750 17500
L10750 17500
" />
<path d="M10750 17500
L10750 13500
" />
<path d="M10750 13500
L7750 13500
" />
<path d="M7750 13500
L7750 17500
" />
</g>
<g style="fill:#000000; fill-opacity:0.0; 
stroke:#000000; stroke-width:150; stroke-opacity:1; 
stroke-linecap:round; stroke-linejoin:round;">
<path d="M12500 22500
L12500 22500
" />
<path d="M12500 22500
L12500 23000
" />
<path d="M12500 23000
L11500 23000
" />
<path d="M11500 23000
L11500 22500
" />
<path d="M13000 22500
L13000 31500
" />
<path d="M13000 31500
L11000 31500
" />
<path d="M11000 31500
L11000 22500
" />
<path d="M11000 22500
L13000 22500
" />
<path d="M19500 16500
L19500 31500
" />
<path d="M19500 31500
L17500 31500
" />
<path d="M17500 31500
L17500 16500
" />
<path d="M17500 16500
L19500 16500
" />
<path d="M19000 16500
L19000 17000
" />
<path d="M19000 17000
L18000 17000
" />
<path d="M18000 17000
L18000 16500
" />
</g>
<g style="fill:#000000; fill-opacity:0.0; 
stroke:#000000; stroke-width:120; stroke-opacity:1; 
stroke-linecap:round; stroke-linejoin:round;">
<path d="M16750 15250
L16350 15250
" />
<path d="M16350 15250
L16350 15650
" />
<path d="M16350 15650
L13150 15650
" />
<path d="M13150 15650
L13150 14850
" />
<path d="M13150 14850
L16350 14850
" />
<path d="M16350 14850
L16350 15250
" />
<path d="M16350 15450
L16150 15650
" />
<path d="M12750 15250
L13150 15250
" />
<path d="M22750 8250
L22750 8650
" />
<path d="M22750 8650
L23150 8650
" />
<path d="M23150 8650
L23150 11850
" />
<path d="M23150 11850
L22350 11850
" />
<path d="M22350 11850
L22350 8650
" />
<path d="M22350 8650
L22750 8650
" />
<path d="M22950 8650
L23150 8850
" />
<path d="M22750 12250
L22750 11850
" />
</g>
<g style="fill:#000000; fill-opacity:0.0; 
stroke:#000000; stroke-width:100; stroke-opacity:1; 
stroke-linecap:round; stroke-linejoin:round;">
<path d="M25400 10900
L25400 14900
" />
<path d="M24400 10900
L24400 14900
" />
<path d="M24400 14900
L25400 14900
" />
<path d="M25400 10900
L24400 10900
" />
<path d="M13970 13500
L13970 12500
" />
</g>
<g style="fill:#000000; fill-opacity:0.0; 
stroke:#000000; stroke-width:60; stroke-opacity:1; 
stroke-linecap:round; stroke-linejoin:round;">
<path d="M12889 12615.9 A600 600 0.0 0 0 12750 13000 " />
<path d="M12750.7 13000 A599.256 599.256 0.0 0 0 12901.9 13397.9 " />
<path d="M13949.3 13000 A599.27 599.27 0.0 0 0 13805 12610 " />
<path d="M13811 13384.1 A600 600 0.0 0 0 13950 13000 " />
<path d="M13837.9 12650.7 A600 600 0.0 0 0 13350 12400 " />
<path d="M13350 12400 A600 600 0.0 0 0 12870.2 12639.7 " />
<path d="M13350 13599.3 A599.294 599.294 0.0 0 0 13822.9 13368.1 " />
<path d="M12876.5 13368.6 A600 600 0.0 0 0 13350 13600 " />
<path d="M13350 12750 A250 250 0.0 0 0 13100 13000 " />
<path d="M13350 12600 A400 400 0.0 0 0 12950 13000 " />
<path d="M13350 13250 A250 250 0.0 0 0 13600 13000 " />
<path d="M13350 13400 A400 400 0.0 0 0 13750 13000 " />
</g>
<g style="fill:#000000; fill-opacity:0.0; 
stroke:#000000; stroke-width:100; stroke-opacity:1; 
stroke-linecap:round; stroke-linejoin:round;">
<path d="M13963.7 12486.8 A800 800 0.0 0 0 13350 12200 " />
<path d="M13350 12201 A799 799 0.0 0 0 12645.2 12623.7 " />
<path d="M13351.4 13799 A798.972 798.972 0.0 0 0 13960.3 13515.7 " />
<path d="M12655.8 13397.6 A800 800 0.0 0 0 13350 13800 " />
<path d="M12645.6 12620.7 A800 800 0.0 0 0 12550 13000 " />
<path d="M12550.4 13000 A799.576 799.576 0.0 0 0 12669 13419 " />
</g>
<g style="fill:#000000; fill-opacity:0.0; 
stroke:#000000; stroke-width:120; stroke-opacity:1; 
stroke-linecap:round; stroke-linejoin:round;">
<path d="M11600 8400
L11600 8700
" />
<path d="M11600 8700
L11200 8700
" />
<path d="M11200 8700
L11200 11100
" />
<path d="M11200 11100
L11600 11100
" />
<path d="M11600 11100
L11600 11400
" />
<path d="M11600 11100
L12000 11100
" />
<path d="M12000 11100
L12000 8700
" />
<path d="M12000 8700
L11600 8700
" />
<path d="M11200 8900
L12000 8900
" />
<path d="M12000 9000
L11200 9000
" />
<path d="M14000 8250
L14300 8250
" />
<path d="M14300 8250
L14300 8650
" />
<path d="M14300 8650
L16700 8650
" />
<path d="M16700 8650
L16700 8250
" />
<path d="M16700 8250
L17000 8250
" />
<path d="M16700 8250
L16700 7850
" />
<path d="M16700 7850
L14300 7850
" />
<path d="M14300 7850
L14300 8250
" />
<path d="M14500 8650
L14500 7850
" />
<path d="M14600 7850
L14600 8650
" />
<path d="M20150 11350
L20150 14150
" />
<path d="M20150 14150
L19350 14150
" />
<path d="M19350 14150
L19350 11350
" />
<path d="M19350 11350
L20150 11350
" />
<path d="M19950 11350
L20150 11550
" />
<path d="M15100 12650
L15100 9850
" />
<path d="M15100 9850
L15900 9850
" />
<path d="M15900 9850
L15900 12650
" />
<path d="M15900 12650
L15100 12650
" />
<path d="M15300 12650
L15100 12450
" />
<path d="M18100 12650
L18100 9850
" />
<path d="M18100 9850
L18900 9850
" />
<path d="M18900 9850
L18900 12650
" />
<path d="M18900 12650
L18100 12650
" />
<path d="M18300 12650
L18100 12450
" />
</g>
<g style="fill:#000000; fill-opacity:0.0; 
stroke:#000000; stroke-width:50; stroke-opacity:1; 
stroke-linecap:round; stroke-linejoin:round;">
<circle cx="21000" cy="10500" r="1001.25" /> 
<circle cx="17000" cy="13250" r="1001.25" /> 
<circle cx="13500" cy="10700" r="1001.25" /> 
</g>
<g style="fill:#000000; fill-opacity:0.0; 
stroke:#000000; stroke-width:120; stroke-opacity:1; 
stroke-linecap:round; stroke-linejoin:round;">
<path d="M10250 9500
L10250 13500
" />
<path d="M10750 9500
L7750 9500
" />
<path d="M7750 9500
L7750 13500
" />
<path d="M7750 13500
L10750 13500
" />
<path d="M10750 13500
L10750 9500
" />
</g>
<g style="fill:#000000; fill-opacity:0.0; 
stroke:#000000; stroke-width:50; stroke-opacity:1; 
stroke-linecap:round; stroke-linejoin:round;">
<circle cx="9000" cy="32200" r="1001.25" /> 
<circle cx="24500" cy="28250" r="1001.25" /> 
</g>
<g style="fill:#000000; fill-opacity:0.0; 
stroke:#000000; stroke-width:120; stroke-opacity:1; 
stroke-linecap:round; stroke-linejoin:round;">
<path d="M12900 21800
L10100 21800
" />
<path d="M10100 21800
L10100 21000
" />
<path d="M10100 21000
L12900 21000
" />
<path d="M12900 21000
L12900 21800
" />
<path d="M12900 21600
L12700 21800
" />
<path d="M21350 24900
L21350 22100
" />
<path d="M21350 22100
L22150 22100
" />
<path d="M22150 22100
L22150 24900
" />
<path d="M22150 24900
L21350 24900
" />
<path d="M21550 24900
L21350 24700
" />
</g>
<g style="fill:#000000; fill-opacity:0.0; 
stroke:#000000; stroke-width:80; stroke-opacity:1; 
stroke-linecap:round; stroke-linejoin:round;">
<path d="M16895 6792
L16895 7278
L16914 7335
L16933 7364
L16971 7392
L17047 7392
L17085 7364
L17104 7335
L17123 7278
L17123 6792
" />
<path d="M17523 7392
L17295 7392
" />
<path d="M17409 7392
L17409 6792
L17371 6878
L17333 6935
L17295 6964
" />
<path d="M19342 9354
L19342 9088
L19942 9259
" />
<path d="M19600 8878
L19571 8916
L19542 8935
L19485 8954
L19457 8954
L19400 8935
L19371 8916
L19342 8878
L19342 8802
L19371 8764
L19400 8745
L19457 8726
L19485 8726
L19542 8745
L19571 8764
L19600 8802
L19600 8878
L19628 8916
L19657 8935
L19714 8954
L19828 8954
L19885 8935
L19914 8916
L19942 8878
L19942 8802
L19914 8764
L19885 8745
L19828 8726
L19714 8726
L19657 8745
L19628 8764
L19600 8802
" />
<path d="M19342 8478
L19342 8440
L19371 8402
L19400 8383
L19457 8364
L19571 8345
L19714 8345
L19828 8364
L19885 8383
L19914 8402
L19942 8440
L19942 8478
L19914 8516
L19885 8535
L19828 8554
L19714 8573
L19571 8573
L19457 8554
L19400 8535
L19371 8516
L19342 8478
" />
<path d="M19342 7983
L19342 8173
L19628 8192
L19600 8173
L19571 8135
L19571 8040
L19600 8002
L19628 7983
L19685 7964
L19828 7964
L19885 7983
L19914 8002
L19942 8040
L19942 8135
L19914 8173
L19885 8192
" />
<path d="M24416 21972
L24250 21710
" />
<path d="M24130 21972
L24130 21422
L24321 21422
L24369 21448
L24392 21475
L24416 21527
L24416 21605
L24392 21658
L24369 21684
L24321 21710
L24130 21710
" />
<path d="M24892 21972
L24607 21972
" />
<path d="M24750 21972
L24750 21422
L24702 21501
L24654 21553
L24607 21579
" />
<path d="M20583 16934
L20416 16934
" />
<path d="M20416 17222
L20416 16672
L20654 16672
" />
<path d="M21011 16934
L21083 16960
L21107 16986
L21130 17039
L21130 17117
L21107 17170
L21083 17196
L21035 17222
L20845 17222
L20845 16672
L21011 16672
L21059 16698
L21083 16725
L21107 16777
L21107 16829
L21083 16882
L21059 16908
L21011 16934
L20845 16934
" />
<path d="M21321 16725
L21345 16698
L21392 16672
L21511 16672
L21559 16698
L21583 16725
L21607 16777
L21607 16829
L21583 16908
L21297 17222
L21607 17222
" />
<path d="M15934 22666
L15934 22833
" />
<path d="M16222 22833
L15672 22833
L15672 22595
" />
<path d="M15934 22238
L15960 22166
L15986 22142
L16039 22119
L16117 22119
L16170 22142
L16196 22166
L16222 22214
L16222 22404
L15672 22404
L15672 22238
L15698 22190
L15725 22166
L15777 22142
L15829 22142
L15882 22166
L15908 22190
L15934 22238
L15934 22404
" />
<path d="M15672 21952
L15672 21642
L15882 21809
L15882 21738
L15908 21690
L15934 21666
L15986 21642
L16117 21642
L16170 21666
L16196 21690
L16222 21738
L16222 21880
L16196 21928
L16170 21952
" />
<path d="M22083 21434
L21916 21434
" />
<path d="M21916 21722
L21916 21172
L22154 21172
" />
<path d="M22511 21434
L22583 21460
L22607 21486
L22630 21539
L22630 21617
L22607 21670
L22583 21696
L22535 21722
L22345 21722
L22345 21172
L22511 21172
L22559 21198
L22583 21225
L22607 21277
L22607 21329
L22583 21382
L22559 21408
L22511 21434
L22345 21434
" />
<path d="M23059 21355
L23059 21722
" />
<path d="M22940 21146
L22821 21539
L23130 21539
" />
<path d="M24184 17416
L24184 17583
" />
<path d="M24472 17583
L23922 17583
L23922 17345
" />
<path d="M24184 16988
L24210 16916
L24236 16892
L24289 16869
L24367 16869
L24420 16892
L24446 16916
L24472 16964
L24472 17154
L23922 17154
L23922 16988
L23948 16940
L23975 16916
L24027 16892
L24079 16892
L24132 16916
L24158 16940
L24184 16988
L24184 17154
" />
<path d="M24472 16392
L24472 16678
" />
<path d="M24472 16535
L23922 16535
L24001 16583
L24053 16630
L24079 16678
" />
<path d="M23185 29661
L23185 29395
" />
<path d="M23185 29261
L23166 29280
L23185 29300
L23204 29280
L23185 29261
L23185 29300
" />
<path d="M23376 29661
L23376 29395
" />
<path d="M23376 29471
L23395 29433
L23414 29414
L23452 29395
L23490 29395
" />
<path d="M23833 29661
L23604 29661
" />
<path d="M23719 29661
L23719 29261
L23680 29319
L23642 29357
L23604 29376
" />
</g>
<g style="fill:#000000; fill-opacity:0.0; 
stroke:#000000; stroke-width:60; stroke-opacity:1; 
stroke-linecap:round; stroke-linejoin:round;">
<path d="M15011 19428
L14745 19428
" />
<path d="M14783 19428
L14764 19409
L14745 19371
L14745 19314
L14764 19276
L14802 19257
L15011 19257
" />
<path d="M14802 19257
L14764 19238
L14745 19200
L14745 19142
L14764 19104
L14802 19085
L15011 19085
" />
<path d="M14745 18723
L15011 18723
" />
<path d="M14745 18895
L14954 18895
L14992 18876
L15011 18838
L15011 18780
L14992 18742
L14973 18723
" />
<path d="M14745 18590
L14745 18438
" />
<path d="M14611 18533
L14954 18533
L14992 18514
L15011 18476
L15011 18438
" />
<path d="M14992 18152
L15011 18190
L15011 18266
L14992 18304
L14954 18323
L14802 18323
L14764 18304
L14745 18266
L14745 18190
L14764 18152
L14802 18133
L14840 18133
L14878 18323
" />
<path d="M15011 17752
L15011 17980
" />
<path d="M15011 17866
L14611 17866
L14669 17904
L14707 17942
L14726 17980
" />
<path d="M12945 19485
L12945 19333
" />
<path d="M12811 19428
L13154 19428
L13192 19409
L13211 19371
L13211 19333
" />
<path d="M13192 19047
L13211 19085
L13211 19161
L13192 19200
L13154 19219
L13002 19219
L12964 19200
L12945 19161
L12945 19085
L12964 19047
L13002 19028
L13040 19028
L13078 19219
" />
<path d="M13211 18857
L12945 18857
" />
<path d="M12983 18857
L12964 18838
L12945 18800
L12945 18742
L12964 18704
L13002 18685
L13211 18685
" />
<path d="M13002 18685
L12964 18666
L12945 18628
L12945 18571
L12964 18533
L13002 18514
L13211 18514
" />
<path d="M12945 18323
L13345 18323
" />
<path d="M12964 18323
L12945 18285
L12945 18209
L12964 18171
L12983 18152
L13021 18133
L13135 18133
L13173 18152
L13192 18171
L13211 18209
L13211 18285
L13192 18323
" />
<path d="M13211 17752
L13211 17980
" />
<path d="M13211 17866
L12811 17866
L12869 17904
L12907 17942
L12926 17980
" />
</g>
<g style="fill:#000000; fill-opacity:0.0; 
stroke:#000000; stroke-width:80; stroke-opacity:1; 
stroke-linecap:round; stroke-linejoin:round;">
<path d="M15623 25066
L15642 25085
L15661 25142
L15661 25180
L15642 25238
L15604 25276
L15566 25295
L15490 25314
L15433 25314
L15357 25295
L15319 25276
L15280 25238
L15261 25180
L15261 25142
L15280 25085
L15300 25066
" />
<path d="M15395 24723
L15661 24723
" />
<path d="M15242 24819
L15528 24914
L15528 24666
" />
<path d="M15323 33816
L15342 33835
L15361 33892
L15361 33930
L15342 33988
L15304 34026
L15266 34045
L15190 34064
L15133 34064
L15057 34045
L15019 34026
L14980 33988
L14961 33930
L14961 33892
L14980 33835
L15000 33816
" />
<path d="M14961 33683
L14961 33416
L15361 33588
" />
<path d="M16123 33316
L16142 33335
L16161 33392
L16161 33430
L16142 33488
L16104 33526
L16066 33545
L15990 33564
L15933 33564
L15857 33545
L15819 33526
L15780 33488
L15761 33430
L15761 33392
L15780 33335
L15800 33316
" />
<path d="M15761 32973
L15761 33049
L15780 33088
L15800 33107
L15857 33145
L15933 33164
L16085 33164
L16123 33145
L16142 33126
L16161 33088
L16161 33011
L16142 32973
L16123 32954
L16085 32935
L15990 32935
L15952 32954
L15933 32973
L15914 33011
L15914 33088
L15933 33126
L15952 33145
L15990 33164
" />
<path d="M16861 33911
L16861 33511
L16995 33797
L17128 33511
L17128 33911
" />
<path d="M17376 33911
L17338 33892
L17319 33873
L17300 33835
L17300 33721
L17319 33683
L17338 33664
L17376 33645
L17433 33645
L17471 33664
L17490 33683
L17509 33721
L17509 33835
L17490 33873
L17471 33892
L17433 33911
L17376 33911
" />
<path d="M17623 33645
L17776 33645
" />
<path d="M17680 33511
L17680 33854
L17700 33892
L17738 33911
L17776 33911
" />
<path d="M17966 33911
L17928 33892
L17909 33873
L17890 33835
L17890 33721
L17909 33683
L17928 33664
L17966 33645
L18023 33645
L18061 33664
L18080 33683
L18100 33721
L18100 33835
L18080 33873
L18061 33892
L18023 33911
L17966 33911
" />
<path d="M18271 33911
L18271 33645
" />
<path d="M18271 33721
L18290 33683
L18309 33664
L18347 33645
L18385 33645
" />
<path d="M18747 33873
L18728 33892
L18671 33911
L18633 33911
L18576 33892
L18538 33854
L18519 33816
L18500 33740
L18500 33683
L18519 33607
L18538 33569
L18576 33530
L18633 33511
L18671 33511
L18728 33530
L18747 33550
" />
<path d="M18861 33511
L19090 33511
" />
<path d="M18976 33911
L18976 33511
" />
<path d="M19452 33911
L19319 33721
" />
<path d="M19223 33911
L19223 33511
L19376 33511
L19414 33530
L19433 33550
L19452 33588
L19452 33645
L19433 33683
L19414 33702
L19376 33721
L19223 33721
" />
<path d="M19814 33911
L19623 33911
L19623 33511
" />
<path d="M20157 33911
L19928 33911
" />
<path d="M20042 33911
L20042 33511
L20004 33569
L19966 33607
L19928 33626
" />
</g>
<g style="fill:#000000; fill-opacity:0.0; 
stroke:#000000; stroke-width:120; stroke-opacity:1; 
stroke-linecap:round; stroke-linejoin:round;">
<path d="M11492 17685
L10892 17685
L10892 17457
L10921 17400
L10950 17371
L11007 17342
L11092 17342
L11150 17371
L11178 17400
L11207 17457
L11207 17685
" />
<path d="M11092 17142
L11492 17028
L11207 16914
L11492 16800
L11092 16685
" />
<path d="M11492 16457
L11092 16457
" />
<path d="M11207 16457
L11150 16428
L11121 16400
L11092 16342
L11092 16285
" />
<path d="M11492 16085
L10892 16085
L11321 15885
L10892 15685
L11492 15685
" />
<path d="M11492 15314
L11464 15371
L11435 15400
L11378 15428
L11207 15428
L11150 15400
L11121 15371
L11092 15314
L11092 15228
L11121 15171
L11150 15142
L11207 15114
L11378 15114
L11435 15142
L11464 15171
L11492 15228
L11492 15314
" />
<path d="M11092 14942
L11092 14714
" />
<path d="M10892 14857
L11407 14857
L11464 14828
L11492 14771
L11492 14714
" />
<path d="M11492 14428
L11464 14485
L11435 14514
L11378 14542
L11207 14542
L11150 14514
L11121 14485
L11092 14428
L11092 14342
L11121 14285
L11150 14257
L11207 14228
L11378 14228
L11435 14257
L11464 14285
L11492 14342
L11492 14428
" />
<path d="M11492 13971
L11092 13971
" />
<path d="M11207 13971
L11150 13942
L11121 13914
L11092 13857
L11092 13800
" />
<path d="M11492 13285
L11492 13628
" />
<path d="M11492 13457
L10892 13457
L10978 13514
L11035 13571
L11064 13628
" />
<path d="M7435 16771
L7464 16799
L7492 16885
L7492 16942
L7464 17028
L7407 17085
L7350 17114
L7235 17142
L7150 17142
L7035 17114
L6978 17085
L6921 17028
L6892 16942
L6892 16885
L6921 16799
L6950 16771
" />
<path d="M6892 16399
L6892 16285
L6921 16228
L6978 16171
L7092 16142
L7292 16142
L7407 16171
L7464 16228
L7492 16285
L7492 16399
L7464 16457
L7407 16514
L7292 16542
L7092 16542
L6978 16514
L6921 16457
L6892 16399
" />
<path d="M7492 15885
L6892 15885
L7492 15542
L6892 15542
" />
<path d="M7492 15257
L6892 15257
L7492 14914
L6892 14914
" />
<path d="M7550 14771
L7550 14314
" />
<path d="M6950 14200
L6921 14171
L6892 14114
L6892 13971
L6921 13914
L6950 13885
L7007 13857
L7064 13857
L7150 13885
L7492 14228
L7492 13857
" />
</g>
<g style="fill:#000000; fill-opacity:0.0; 
stroke:#000000; stroke-width:112.5; stroke-opacity:1; 
stroke-linecap:round; stroke-linejoin:round;">
<path d="M12742 24939
L12142 24939
" />
<path d="M12685 24467
L12714 24489
L12742 24553
L12742 24596
L12714 24660
L12657 24703
L12600 24724
L12485 24746
L12400 24746
L12285 24724
L12228 24703
L12171 24660
L12142 24596
L12142 24553
L12171 24489
L12200 24467
" />
<path d="M12742 24039
L12742 24296
" />
<path d="M12742 24167
L12142 24167
L12228 24210
L12285 24253
L12314 24296
" />
</g>
<g style="fill:#000000; fill-opacity:0.0; 
stroke:#000000; stroke-width:120; stroke-opacity:1; 
stroke-linecap:round; stroke-linejoin:round;">
</g>
<g style="fill:#000000; fill-opacity:0.0; 
stroke:#000000; stroke-width:112.5; stroke-opacity:1; 
stroke-linecap:round; stroke-linejoin:round;">
<path d="M11742 28728
L11742 28942
L11142 28942
" />
<path d="M11200 28599
L11171 28578
L11142 28535
L11142 28428
L11171 28385
L11200 28364
L11257 28342
L11314 28342
L11400 28364
L11742 28621
L11742 28342
" />
<path d="M11742 28128
L11742 28042
L11714 27999
L11685 27978
L11600 27935
L11485 27914
L11257 27914
L11200 27935
L11171 27957
L11142 27999
L11142 28085
L11171 28128
L11200 28149
L11257 28171
L11400 28171
L11457 28149
L11485 28128
L11514 28085
L11514 27999
L11485 27957
L11457 27935
L11400 27914
" />
<path d="M11142 27764
L11142 27485
L11371 27635
L11371 27571
L11400 27528
L11428 27507
L11485 27485
L11628 27485
L11685 27507
L11714 27528
L11742 27571
L11742 27700
L11714 27742
L11685 27764
" />
<path d="M11742 27292
L11142 27292
L11142 27185
L11171 27121
L11228 27078
L11285 27057
L11400 27035
L11485 27035
L11600 27057
L11657 27078
L11714 27121
L11742 27185
L11742 27292
" />
</g>
<g style="fill:#000000; fill-opacity:0.0; 
stroke:#000000; stroke-width:120; stroke-opacity:1; 
stroke-linecap:round; stroke-linejoin:round;">
</g>
<g style="fill:#000000; fill-opacity:0.0; 
stroke:#000000; stroke-width:112.5; stroke-opacity:1; 
stroke-linecap:round; stroke-linejoin:round;">
<path d="M18142 19650
L18571 19650
L18657 19671
L18714 19714
L18742 19778
L18742 19821
" />
<path d="M18742 19200
L18742 19457
" />
<path d="M18742 19328
L18142 19328
L18228 19371
L18285 19414
L18314 19457
" />
</g>
<g style="fill:#000000; fill-opacity:0.0; 
stroke:#000000; stroke-width:120; stroke-opacity:1; 
stroke-linecap:round; stroke-linejoin:round;">
</g>
<g style="fill:#000000; fill-opacity:0.0; 
stroke:#000000; stroke-width:112.5; stroke-opacity:1; 
stroke-linecap:round; stroke-linejoin:round;">
<path d="M18571 29778
L18571 29564
" />
<path d="M18742 29821
L18142 29671
L18742 29521
" />
<path d="M18342 29435
L18342 29264
" />
<path d="M18142 29371
L18657 29371
L18714 29350
L18742 29307
L18742 29264
" />
<path d="M18742 29114
L18342 29114
" />
<path d="M18400 29114
L18371 29092
L18342 29049
L18342 28985
L18371 28942
L18428 28921
L18742 28921
" />
<path d="M18428 28921
L18371 28899
L18342 28857
L18342 28792
L18371 28749
L18428 28728
L18742 28728
" />
<path d="M18714 28342
L18742 28385
L18742 28471
L18714 28514
L18657 28535
L18428 28535
L18371 28514
L18342 28471
L18342 28385
L18371 28342
L18428 28321
L18485 28321
L18542 28535
" />
<path d="M18342 27935
L18828 27935
L18885 27957
L18914 27978
L18942 28021
L18942 28085
L18914 28128
" />
<path d="M18714 27935
L18742 27978
L18742 28064
L18714 28107
L18685 28128
L18628 28150
L18457 28150
L18400 28128
L18371 28107
L18342 28064
L18342 27978
L18371 27935
" />
<path d="M18742 27528
L18428 27528
L18371 27550
L18342 27592
L18342 27678
L18371 27721
" />
<path d="M18714 27528
L18742 27571
L18742 27678
L18714 27721
L18657 27742
L18600 27742
L18542 27721
L18514 27678
L18514 27571
L18485 27528
" />
<path d="M18142 27357
L18142 27078
L18371 27228
L18371 27164
L18400 27121
L18428 27099
L18485 27078
L18628 27078
L18685 27099
L18714 27121
L18742 27164
L18742 27292
L18714 27335
L18685 27357
" />
<path d="M18200 26907
L18171 26885
L18142 26842
L18142 26735
L18171 26692
L18200 26671
L18257 26650
L18314 26650
L18400 26671
L18742 26928
L18742 26650
" />
<path d="M18400 26392
L18371 26435
L18342 26457
L18285 26478
L18257 26478
L18200 26457
L18171 26435
L18142 26392
L18142 26307
L18171 26264
L18200 26242
L18257 26221
L18285 26221
L18342 26242
L18371 26264
L18400 26307
L18400 26392
L18428 26435
L18457 26457
L18514 26478
L18628 26478
L18685 26457
L18714 26435
L18742 26392
L18742 26307
L18714 26264
L18685 26242
L18628 26221
L18514 26221
L18457 26242
L18428 26264
L18400 26307
" />
</g>
<g style="fill:#000000; fill-opacity:0.0; 
stroke:#000000; stroke-width:120; stroke-opacity:1; 
stroke-linecap:round; stroke-linejoin:round;">
</g>
<g style="fill:#000000; fill-opacity:0.0; 
stroke:#000000; stroke-width:80; stroke-opacity:1; 
stroke-linecap:round; stroke-linejoin:round;">
<path d="M14766 15372
L14600 15110
" />
<path d="M14480 15372
L14480 14822
L14671 14822
L14719 14848
L14742 14875
L14766 14927
L14766 15005
L14742 15058
L14719 15084
L14671 15110
L14480 15110
" />
<path d="M14933 14822
L15242 14822
L15076 15032
L15147 15032
L15195 15058
L15219 15084
L15242 15136
L15242 15267
L15219 15320
L15195 15346
L15147 15372
L15004 15372
L14957 15346
L14933 15320
" />
<path d="M22172 10433
L21910 10600
" />
<path d="M22172 10719
L21622 10719
L21622 10528
L21648 10480
L21675 10457
L21727 10433
L21805 10433
L21858 10457
L21884 10480
L21910 10528
L21910 10719
" />
<path d="M21675 10242
L21648 10219
L21622 10171
L21622 10052
L21648 10004
L21675 9980
L21727 9957
L21779 9957
L21858 9980
L22172 10266
L22172 9957
" />
<path d="M24061 13090
L23795 13090
" />
<path d="M23661 13090
L23680 13109
L23700 13090
L23680 13071
L23661 13090
L23700 13090
" />
<path d="M24061 12690
L24061 12919
" />
<path d="M24061 12804
L23661 12804
L23719 12842
L23757 12880
L23776 12919
" />
</g>
<g style="fill:#000000; fill-opacity:0.0; 
stroke:#000000; stroke-width:35; stroke-opacity:1; 
stroke-linecap:round; stroke-linejoin:round;">
<path d="M13728 12021
L13728 11721
L13800 11721
L13842 11735
L13871 11764
L13885 11792
L13900 11850
L13900 11892
L13885 11950
L13871 11978
L13842 12007
L13800 12021
L13728 12021
" />
<path d="M14000 11721
L14185 11721
L14085 11835
L14128 11835
L14157 11850
L14171 11864
L14185 11892
L14185 11964
L14171 11992
L14157 12007
L14128 12021
L14042 12021
L14014 12007
L14000 11992
" />
<path d="M13057 14121
L12914 14121
L12914 13821
" />
<path d="M13157 13964
L13257 13964
" />
<path d="M13300 14121
L13157 14121
L13157 13821
L13300 13821
" />
<path d="M13428 14121
L13428 13821
L13500 13821
L13542 13835
L13571 13864
L13585 13892
L13600 13950
L13600 13992
L13585 14050
L13571 14078
L13542 14107
L13500 14121
L13428 14121
" />
</g>
<g style="fill:#000000; fill-opacity:0.0; 
stroke:#000000; stroke-width:80; stroke-opacity:1; 
stroke-linecap:round; stroke-linejoin:round;">
<path d="M11661 10695
L11261 10695
L11261 10599
L11280 10542
L11319 10504
L11357 10485
L11433 10466
L11490 10466
L11566 10485
L11604 10504
L11642 10542
L11661 10599
L11661 10695
" />
<path d="M11300 10314
L11280 10295
L11261 10257
L11261 10161
L11280 10123
L11300 10104
L11338 10085
L11376 10085
L11433 10104
L11661 10333
L11661 10085
" />
<path d="M15204 8411
L15204 8011
L15300 8011
L15357 8030
L15395 8069
L15414 8107
L15433 8183
L15433 8240
L15414 8316
L15395 8354
L15357 8392
L15300 8411
L15204 8411
" />
<path d="M15814 8411
L15585 8411
" />
<path d="M15700 8411
L15700 8011
L15661 8069
L15623 8107
L15585 8126
" />
<path d="M19173 13207
L19192 13226
L19211 13283
L19211 13321
L19192 13378
L19154 13416
L19116 13435
L19040 13454
L18983 13454
L18907 13435
L18869 13416
L18830 13378
L18811 13321
L18811 13283
L18830 13226
L18850 13207
" />
<path d="M19211 12826
L19211 13054
" />
<path d="M19211 12940
L18811 12940
L18869 12978
L18907 13016
L18926 13054
" />
<path d="M18811 12692
L18811 12445
L18964 12578
L18964 12521
L18983 12483
L19002 12464
L19040 12445
L19135 12445
L19173 12464
L19192 12483
L19211 12521
L19211 12635
L19192 12673
L19173 12692
" />
<path d="M14823 11207
L14842 11226
L14861 11283
L14861 11321
L14842 11378
L14804 11416
L14766 11435
L14690 11454
L14633 11454
L14557 11435
L14519 11416
L14480 11378
L14461 11321
L14461 11283
L14480 11226
L14500 11207
" />
<path d="M14861 10826
L14861 11054
" />
<path d="M14861 10940
L14461 10940
L14519 10978
L14557 11016
L14576 11054
" />
<path d="M14461 10578
L14461 10540
L14480 10502
L14500 10483
L14538 10464
L14614 10445
L14709 10445
L14785 10464
L14823 10483
L14842 10502
L14861 10540
L14861 10578
L14842 10616
L14823 10635
L14785 10654
L14709 10673
L14614 10673
L14538 10654
L14500 10635
L14480 10616
L14461 10578
" />
<path d="M18873 11507
L18892 11526
L18911 11583
L18911 11621
L18892 11678
L18854 11716
L18816 11735
L18740 11754
L18683 11754
L18607 11735
L18569 11716
L18530 11678
L18511 11621
L18511 11583
L18530 11526
L18550 11507
" />
<path d="M18911 11126
L18911 11354
" />
<path d="M18911 11240
L18511 11240
L18569 11278
L18607 11316
L18626 11354
" />
<path d="M18911 10745
L18911 10973
" />
<path d="M18911 10859
L18511 10859
L18569 10897
L18607 10935
L18626 10973
" />
</g>
<g style="fill:#000000; fill-opacity:0.0; 
stroke:#000000; stroke-width:50; stroke-opacity:1; 
stroke-linecap:round; stroke-linejoin:round;">
<path d="M21842 10442
L21857 10457
L21871 10500
L21871 10528
L21857 10571
L21828 10600
L21800 10614
L21742 10628
L21700 10628
L21642 10614
L21614 10600
L21585 10571
L21571 10528
L21571 10500
L21585 10457
L21600 10442
" />
<path d="M21871 10157
L21871 10328
" />
<path d="M21871 10242
L21571 10242
L21614 10271
L21642 10300
L21657 10328
" />
<path d="M21600 10042
L21585 10028
L21571 10000
L21571 9928
L21585 9900
L21600 9885
L21628 9871
L21657 9871
L21700 9885
L21871 10057
L21871 9871
" />
<path d="M20721 10867
L20721 11010
" />
<path d="M20721 10939
L20421 10939
L20464 10963
L20492 10986
L20507 11010
" />
<path d="M20421 10713
L20421 10689
L20435 10665
L20450 10653
L20478 10641
L20535 10629
L20607 10629
L20664 10641
L20692 10653
L20707 10665
L20721 10689
L20721 10713
L20707 10736
L20692 10748
L20664 10760
L20607 10772
L20535 10772
L20478 10760
L20450 10748
L20435 10736
L20421 10713
" />
<path d="M20521 10415
L20721 10415
" />
<path d="M20521 10522
L20678 10522
L20707 10510
L20721 10486
L20721 10451
L20707 10427
L20692 10415
" />
<path d="M20564 10213
L20564 10296
" />
<path d="M20721 10296
L20421 10296
L20421 10177
" />
</g>
<g style="fill:#000000; fill-opacity:0.0; 
stroke:#000000; stroke-width:80; stroke-opacity:1; 
stroke-linecap:round; stroke-linejoin:round;">
</g>
<g style="fill:#000000; fill-opacity:0.0; 
stroke:#000000; stroke-width:75; stroke-opacity:1; 
stroke-linecap:round; stroke-linejoin:round;">
<path d="M21007 9714
L21007 9485
" />
<path d="M21121 9600
L20892 9600
" />
</g>
<g style="fill:#000000; fill-opacity:0.0; 
stroke:#000000; stroke-width:80; stroke-opacity:1; 
stroke-linecap:round; stroke-linejoin:round;">
</g>
<g style="fill:#000000; fill-opacity:0.0; 
stroke:#000000; stroke-width:50; stroke-opacity:1; 
stroke-linecap:round; stroke-linejoin:round;">
<path d="M15292 13042
L15307 13057
L15321 13100
L15321 13128
L15307 13171
L15278 13200
L15250 13214
L15192 13228
L15150 13228
L15092 13214
L15064 13200
L15035 13171
L15021 13128
L15021 13100
L15035 13057
L15050 13042
" />
<path d="M15321 12757
L15321 12928
" />
<path d="M15321 12842
L15021 12842
L15064 12871
L15092 12900
L15107 12928
" />
<path d="M15121 12500
L15321 12500
" />
<path d="M15007 12571
L15221 12642
L15221 12457
" />
<path d="M17321 13617
L17321 13760
" />
<path d="M17321 13689
L17021 13689
L17064 13713
L17092 13736
L17107 13760
" />
<path d="M17021 13463
L17021 13439
L17035 13415
L17050 13403
L17078 13391
L17135 13379
L17207 13379
L17264 13391
L17292 13403
L17307 13415
L17321 13439
L17321 13463
L17307 13486
L17292 13498
L17264 13510
L17207 13522
L17135 13522
L17078 13510
L17050 13498
L17035 13486
L17021 13463
" />
<path d="M17121 13165
L17321 13165
" />
<path d="M17121 13272
L17278 13272
L17307 13260
L17321 13236
L17321 13201
L17307 13177
L17292 13165
" />
<path d="M17164 12963
L17164 13046
" />
<path d="M17321 13046
L17021 13046
L17021 12927
" />
</g>
<g style="fill:#000000; fill-opacity:0.0; 
stroke:#000000; stroke-width:80; stroke-opacity:1; 
stroke-linecap:round; stroke-linejoin:round;">
</g>
<g style="fill:#000000; fill-opacity:0.0; 
stroke:#000000; stroke-width:75; stroke-opacity:1; 
stroke-linecap:round; stroke-linejoin:round;">
<path d="M17007 14264
L17007 14035
" />
<path d="M17121 14150
L16892 14150
" />
</g>
<g style="fill:#000000; fill-opacity:0.0; 
stroke:#000000; stroke-width:80; stroke-opacity:1; 
stroke-linecap:round; stroke-linejoin:round;">
</g>
<g style="fill:#000000; fill-opacity:0.0; 
stroke:#000000; stroke-width:50; stroke-opacity:1; 
stroke-linecap:round; stroke-linejoin:round;">
<path d="M14091 10750
L14106 10764
L14120 10807
L14120 10835
L14106 10878
L14077 10907
L14049 10921
L13991 10935
L13949 10935
L13891 10921
L13863 10907
L13834 10878
L13820 10835
L13820 10807
L13834 10764
L13849 10750
" />
<path d="M14120 10607
L14120 10550
L14106 10521
L14091 10507
L14049 10478
L13991 10464
L13877 10464
L13849 10478
L13834 10492
L13820 10521
L13820 10578
L13834 10607
L13849 10621
L13877 10635
L13949 10635
L13977 10621
L13991 10607
L14006 10578
L14006 10521
L13991 10492
L13977 10478
L13949 10464
" />
<path d="M13821 11710
L14021 11710
" />
<path d="M13707 11770
L13921 11829
L13921 11675
" />
<path d="M13721 11603
L13721 11436
L14021 11544
" />
<path d="M13721 11294
L13721 11270
L13735 11246
L13750 11234
L13778 11222
L13835 11210
L13907 11210
L13964 11222
L13992 11234
L14007 11246
L14021 11270
L14021 11294
L14007 11317
L13992 11329
L13964 11341
L13907 11353
L13835 11353
L13778 11341
L13750 11329
L13735 11317
L13721 11294
" />
<path d="M13821 10996
L14021 10996
" />
<path d="M13821 11103
L13978 11103
L14007 11091
L14021 11067
L14021 11032
L14007 11008
L13992 10996
" />
<path d="M13864 10794
L13864 10877
" />
<path d="M14021 10877
L13721 10877
L13721 10758
" />
</g>
<g style="fill:#000000; fill-opacity:0.0; 
stroke:#000000; stroke-width:80; stroke-opacity:1; 
stroke-linecap:round; stroke-linejoin:round;">
</g>
<g style="fill:#000000; fill-opacity:0.0; 
stroke:#000000; stroke-width:75; stroke-opacity:1; 
stroke-linecap:round; stroke-linejoin:round;">
<path d="M13507 9914
L13507 9685
" />
<path d="M13621 9800
L13392 9800
" />
</g>
<g style="fill:#000000; fill-opacity:0.0; 
stroke:#000000; stroke-width:80; stroke-opacity:1; 
stroke-linecap:round; stroke-linejoin:round;">
</g>
<g style="fill:#000000; fill-opacity:0.0; 
stroke:#000000; stroke-width:120; stroke-opacity:1; 
stroke-linecap:round; stroke-linejoin:round;">
<path d="M7492 13385
L6892 13385
L6892 13157
L6921 13100
L6950 13071
L7007 13042
L7092 13042
L7150 13071
L7178 13100
L7207 13157
L7207 13385
" />
<path d="M7492 12700
L7464 12757
L7435 12785
L7378 12814
L7207 12814
L7150 12785
L7121 12757
L7092 12700
L7092 12614
L7121 12557
L7150 12528
L7207 12500
L7378 12500
L7435 12528
L7464 12557
L7492 12614
L7492 12700
" />
<path d="M7092 12300
L7492 12185
L7207 12071
L7492 11957
L7092 11842
" />
<path d="M7464 11385
L7492 11442
L7492 11557
L7464 11614
L7407 11642
L7178 11642
L7121 11614
L7092 11557
L7092 11442
L7121 11385
L7178 11357
L7235 11357
L7292 11642
" />
<path d="M7492 11100
L7092 11100
" />
<path d="M7207 11100
L7150 11071
L7121 11042
L7092 10985
L7092 10928
" />
<path d="M7492 10728
L6892 10728
" />
<path d="M7092 10442
L7492 10442
" />
<path d="M7150 10442
L7121 10414
L7092 10357
L7092 10271
L7121 10214
L7178 10185
L7492 10185
" />
<path d="M6950 9928
L6921 9900
L6892 9842
L6892 9700
L6921 9642
L6950 9614
L7007 9585
L7064 9585
L7150 9614
L7492 9957
L7492 9585
" />
<path d="M11435 12771
L11464 12799
L11492 12885
L11492 12942
L11464 13028
L11407 13085
L11350 13114
L11235 13142
L11150 13142
L11035 13114
L10978 13085
L10921 13028
L10892 12942
L10892 12885
L10921 12799
L10950 12771
" />
<path d="M10892 12399
L10892 12285
L10921 12228
L10978 12171
L11092 12142
L11292 12142
L11407 12171
L11464 12228
L11492 12285
L11492 12399
L11464 12457
L11407 12514
L11292 12542
L11092 12542
L10978 12514
L10921 12457
L10892 12399
" />
<path d="M11492 11885
L10892 11885
L11492 11542
L10892 11542
" />
<path d="M11492 11257
L10892 11257
L11492 10914
L10892 10914
" />
<path d="M11550 10771
L11550 10314
" />
<path d="M10950 10200
L10921 10171
L10892 10114
L10892 9971
L10921 9914
L10950 9885
L11007 9857
L11064 9857
L11150 9885
L11492 10228
L11492 9857
" />
</g>
<g style="fill:#000000; fill-opacity:0.0; 
stroke:#000000; stroke-width:50; stroke-opacity:1; 
stroke-linecap:round; stroke-linejoin:round;">
<path d="M9591 32250
L9606 32264
L9620 32307
L9620 32335
L9606 32378
L9577 32407
L9549 32421
L9491 32435
L9449 32435
L9391 32421
L9363 32407
L9334 32378
L9320 32335
L9320 32307
L9334 32264
L9349 32250
" />
<path d="M9349 32135
L9334 32121
L9320 32092
L9320 32021
L9334 31992
L9349 31978
L9377 31964
L9406 31964
L9449 31978
L9620 32150
L9620 31964
" />
<path d="M7921 32610
L8121 32610
" />
<path d="M7807 32670
L8021 32729
L8021 32575
" />
<path d="M7821 32503
L7821 32336
L8121 32444
" />
<path d="M7821 32194
L7821 32170
L7835 32146
L7850 32134
L7878 32122
L7935 32110
L8007 32110
L8064 32122
L8092 32134
L8107 32146
L8121 32170
L8121 32194
L8107 32217
L8092 32229
L8064 32241
L8007 32253
L7935 32253
L7878 32241
L7850 32229
L7835 32217
L7821 32194
" />
<path d="M7921 31896
L8121 31896
" />
<path d="M7921 32003
L8078 32003
L8107 31991
L8121 31967
L8121 31932
L8107 31908
L8092 31896
" />
<path d="M7964 31694
L7964 31777
" />
<path d="M8121 31777
L7821 31777
L7821 31658
" />
</g>
<g style="fill:#000000; fill-opacity:0.0; 
stroke:#000000; stroke-width:80; stroke-opacity:1; 
stroke-linecap:round; stroke-linejoin:round;">
</g>
<g style="fill:#000000; fill-opacity:0.0; 
stroke:#000000; stroke-width:75; stroke-opacity:1; 
stroke-linecap:round; stroke-linejoin:round;">
<path d="M9007 31414
L9007 31185
" />
<path d="M9121 31300
L8892 31300
" />
</g>
<g style="fill:#000000; fill-opacity:0.0; 
stroke:#000000; stroke-width:80; stroke-opacity:1; 
stroke-linecap:round; stroke-linejoin:round;">
</g>
<g style="fill:#000000; fill-opacity:0.0; 
stroke:#000000; stroke-width:50; stroke-opacity:1; 
stroke-linecap:round; stroke-linejoin:round;">
<path d="M24450 27843
L24435 27858
L24392 27872
L24364 27872
L24321 27858
L24292 27829
L24278 27801
L24264 27743
L24264 27701
L24278 27643
L24292 27615
L24321 27586
L24364 27572
L24392 27572
L24435 27586
L24450 27601
" />
<path d="M24621 27701
L24592 27686
L24578 27672
L24564 27643
L24564 27629
L24578 27601
L24592 27586
L24621 27572
L24678 27572
L24707 27586
L24721 27601
L24735 27629
L24735 27643
L24721 27672
L24707 27686
L24678 27701
L24621 27701
L24592 27715
L24578 27729
L24564 27758
L24564 27815
L24578 27843
L24592 27858
L24621 27872
L24678 27872
L24707 27858
L24721 27843
L24735 27815
L24735 27758
L24721 27729
L24707 27715
L24678 27701
" />
<path d="M24148 28671
L24148 28871
" />
<path d="M24089 28557
L24029 28771
L24184 28771
" />
<path d="M24279 28842
L24291 28857
L24279 28871
L24267 28857
L24279 28842
L24279 28871
" />
<path d="M24375 28571
L24541 28571
L24434 28871
" />
<path d="M24744 28671
L24744 28871
" />
<path d="M24636 28671
L24636 28828
L24648 28857
L24672 28871
L24708 28871
L24732 28857
L24744 28842
" />
<path d="M24946 28714
L24863 28714
" />
<path d="M24863 28871
L24863 28571
L24982 28571
" />
</g>
<g style="fill:#000000; fill-opacity:0.0; 
stroke:#000000; stroke-width:80; stroke-opacity:1; 
stroke-linecap:round; stroke-linejoin:round;">
</g>
<g style="fill:#000000; fill-opacity:0.0; 
stroke:#000000; stroke-width:75; stroke-opacity:1; 
stroke-linecap:round; stroke-linejoin:round;">
<path d="M23485 28257
L23714 28257
" />
<path d="M23600 28371
L23600 28142
" />
</g>
<g style="fill:#000000; fill-opacity:0.0; 
stroke:#000000; stroke-width:80; stroke-opacity:1; 
stroke-linecap:round; stroke-linejoin:round;">
<path d="M11533 21523
L11514 21542
L11457 21561
L11419 21561
L11361 21542
L11323 21504
L11304 21466
L11285 21390
L11285 21333
L11304 21257
L11323 21219
L11361 21180
L11419 21161
L11457 21161
L11514 21180
L11533 21200
" />
<path d="M11666 21161
L11914 21161
L11780 21314
L11838 21314
L11876 21333
L11895 21352
L11914 21390
L11914 21485
L11895 21523
L11876 21542
L11838 21561
L11723 21561
L11685 21542
L11666 21523
" />
<path d="M21123 23566
L21142 23585
L21161 23642
L21161 23680
L21142 23738
L21104 23776
L21066 23795
L20990 23814
L20933 23814
L20857 23795
L20819 23776
L20780 23738
L20761 23680
L20761 23642
L20780 23585
L20800 23566
" />
<path d="M20761 23204
L20761 23395
L20952 23414
L20933 23395
L20914 23357
L20914 23261
L20933 23223
L20952 23204
L20990 23185
L21085 23185
L21123 23204
L21142 23223
L21161 23261
L21161 23357
L21142 23395
L21123 23414
" />
</g> 
</svg>
