<?xml version="1.0" standalone="no"?>
 <!DOCTYPE svg PUBLIC "-//W3C//DTD SVG 1.1//EN" 
 "http://www.w3.org/Graphics/SVG/1.1/DTD/svg11.dtd"> 
<svg xmlns="http://www.w3.org/2000/svg" version="1.1" 
    width="41.9989cm" height="29.7002cm" viewBox="0 0 165350 116930 ">
<title>SVG Picture created as 7805-F_Mask.svg date 2015/06/29 16:52:59 </title>
  <desc>Picture generated by PCBNEW </desc>
<g style="fill:#000000; fill-opacity:1;stroke:#000000; stroke-opacity:1;
stroke-linecap:round; stroke-linejoin:round; "
 transform="translate(0 0) scale(1 1)">
</g>
<g style="fill:#000000; fill-opacity:0.0; 
stroke:#000000; stroke-width:39.3701; stroke-opacity:1; 
stroke-linecap:round; stroke-linejoin:round;">
<circle cx="53750" cy="14000" r="500" /> 
<circle cx="33250" cy="14000" r="500" /> 
<circle cx="33250" cy="21000" r="500" /> 
<circle cx="53750" cy="21000" r="500" /> 
</g>
<g style="fill:#000000; fill-opacity:1.0; 
stroke:#000000; stroke-width:59.0551; stroke-opacity:1; 
stroke-linecap:round; stroke-linejoin:round;">
<polyline style="fill-rule:evenodd;"
points="34079,16447
34077,16568
34050,16687
34008,16783
33937,16883
33861,16955
33758,17021
33660,17059
33540,17080
33435,17078
33315,17052
33220,17010
33119,16940
33046,16865
32980,16761
32941,16665
32919,16543
32921,16440
32946,16319
32987,16224
33057,16121
33131,16049
33235,15981
33330,15943
33452,15919
33555,15920
33677,15945
33772,15985
33875,16055
33947,16127
34016,16231
34055,16326
34079,16447
" /> 
<polyline style="fill-rule:evenodd;"
points="34079,18447
34077,18568
34050,18687
34008,18783
33937,18883
33861,18955
33758,19021
33660,19059
33540,19080
33435,19078
33315,19052
33220,19010
33119,18940
33046,18865
32980,18761
32941,18665
32919,18543
32921,18440
32946,18319
32987,18224
33057,18121
33131,18049
33235,17981
33330,17943
33452,17919
33555,17920
33677,17945
33772,17985
33875,18055
33947,18127
34016,18231
34055,18326
34079,18447
" /> 
<polyline style="fill-rule:evenodd;"
points="36429,18212
36428,18299
36407,18390
36377,18459
36323,18535
36268,18587
36190,18636
36120,18664
36028,18680
35953,18678
35862,18658
35793,18628
35716,18575
35664,18521
35614,18442
35586,18373
35569,18281
35570,18206
35590,18114
35619,18046
35672,17968
35725,17917
35804,17865
35873,17837
35966,17819
36039,17820
36132,17839
36200,17867
36279,17921
36330,17973
36383,18052
36411,18119
36429,18212
" /> 
<polyline style="fill-rule:evenodd;"
points="36429,14679
35570,14679
35570,13820
36429,13820
36429,14679
" /> 
<polyline style="fill-rule:evenodd;"
points="38079,20447
38077,20568
38050,20687
38008,20783
37937,20883
37861,20955
37758,21021
37660,21059
37540,21080
37435,21078
37315,21052
37220,21010
37119,20940
37046,20865
36980,20761
36941,20665
36919,20543
36921,20440
36946,20319
36987,20224
37057,20121
37131,20049
37235,19981
37330,19943
37452,19919
37555,19920
37677,19945
37772,19985
37875,20055
37947,20127
38016,20231
38055,20326
38079,20447
" /> 
<polyline style="fill-rule:evenodd;"
points="38629,17467
38628,17543
38610,17624
38583,17684
38535,17752
38488,17797
38417,17842
38356,17865
38274,17880
38209,17878
38127,17860
38068,17834
37999,17787
37954,17740
37908,17669
37885,17609
37869,17526
37870,17462
37888,17379
37913,17320
37961,17251
38007,17206
38078,17159
38137,17135
38220,17119
38284,17120
38367,17137
38426,17162
38497,17209
38541,17254
38589,17326
38613,17384
38629,17467
" /> 
<polyline style="fill-rule:evenodd;"
points="38629,16879
37870,16879
37870,16120
38629,16120
38629,16879
" /> 
<polyline style="fill-rule:evenodd;"
points="39679,15179
38820,15179
38820,14320
39679,14320
39679,15179
" /> 
<polyline style="fill-rule:evenodd;"
points="40079,20447
40077,20568
40050,20687
40008,20783
39937,20883
39861,20955
39758,21021
39660,21059
39540,21080
39435,21078
39315,21052
39220,21010
39119,20940
39046,20865
38980,20761
38941,20665
38919,20543
38921,20440
38946,20319
38987,20224
39057,20121
39131,20049
39235,19981
39330,19943
39452,19919
39555,19920
39677,19945
39772,19985
39875,20055
39947,20127
40016,20231
40055,20326
40079,20447
" /> 
<polyline style="fill-rule:evenodd;"
points="41604,16469
41603,16540
41586,16616
41561,16672
41516,16735
41472,16777
41406,16819
41350,16841
41272,16855
41212,16853
41135,16837
41080,16812
41015,16767
40974,16724
40931,16658
40909,16602
40894,16524
40895,16465
40912,16387
40935,16332
40980,16267
41022,16225
41089,16182
41144,16160
41223,16144
41281,16145
41360,16161
41414,16184
41481,16229
41522,16270
41567,16337
41589,16391
41604,16469
" /> 
<polyline style="fill-rule:evenodd;"
points="41604,18469
41603,18540
41586,18616
41561,18672
41516,18735
41472,18777
41406,18819
41350,18841
41272,18855
41212,18853
41135,18837
41080,18812
41015,18767
40974,18724
40931,18658
40909,18602
40894,18524
40895,18465
40912,18387
40935,18332
40980,18267
41022,18225
41089,18182
41144,18160
41223,18144
41281,18145
41360,18161
41414,18184
41481,18229
41522,18270
41567,18337
41589,18391
41604,18469
" /> 
<polyline style="fill-rule:evenodd;"
points="41625,14993
41625,14999
41623,15009
41623,15009
41615,15082
41615,15082
41615,15083
41594,15151
41558,15216
41512,15271
41454,15318
41390,15351
41319,15372
41247,15378
41174,15371
41105,15349
41040,15314
40984,15268
40938,15211
40904,15147
40883,15077
40874,14993
40874,14506
40874,14500
40876,14490
40876,14490
40884,14417
40884,14417
40884,14416
40905,14348
40941,14283
40987,14228
41045,14181
41109,14148
41180,14127
41252,14121
41325,14128
41394,14150
41459,14185
41515,14231
41561,14288
41595,14352
41616,14422
41625,14506
41625,14993
" /> 
<polyline style="fill-rule:evenodd;"
points="42625,14993
42625,14999
42623,15009
42623,15009
42615,15082
42615,15082
42615,15083
42594,15151
42558,15216
42512,15271
42454,15318
42390,15351
42319,15372
42247,15378
42174,15371
42105,15349
42040,15314
41984,15268
41938,15211
41904,15147
41883,15077
41874,14993
41874,14506
41874,14500
41876,14490
41876,14490
41884,14417
41884,14417
41884,14416
41905,14348
41941,14283
41987,14228
42045,14181
42109,14148
42180,14127
42252,14121
42325,14128
42394,14150
42459,14185
42515,14231
42561,14288
42595,14352
42616,14422
42625,14506
42625,14993
" /> 
<polyline style="fill-rule:evenodd;"
points="43604,16469
43603,16540
43586,16616
43561,16672
43516,16735
43472,16777
43406,16819
43350,16841
43272,16855
43212,16853
43135,16837
43080,16812
43015,16767
42974,16724
42931,16658
42909,16602
42894,16524
42895,16465
42912,16387
42935,16332
42980,16267
43022,16225
43089,16182
43144,16160
43223,16144
43281,16145
43360,16161
43414,16184
43481,16229
43522,16270
43567,16337
43589,16391
43604,16469
" /> 
<polyline style="fill-rule:evenodd;"
points="43604,18469
43603,18540
43586,18616
43561,18672
43516,18735
43472,18777
43406,18819
43350,18841
43272,18855
43212,18853
43135,18837
43080,18812
43015,18767
42974,18724
42931,18658
42909,18602
42894,18524
42895,18465
42912,18387
42935,18332
42980,18267
43022,18225
43089,18182
43144,18160
43223,18144
43281,18145
43360,18161
43414,18184
43481,18229
43522,18270
43567,18337
43589,18391
43604,18469
" /> 
<polyline style="fill-rule:evenodd;"
points="43625,14993
43625,14999
43623,15009
43623,15009
43615,15082
43615,15082
43615,15083
43594,15151
43558,15216
43512,15271
43454,15318
43390,15351
43319,15372
43247,15378
43174,15371
43105,15349
43040,15314
42984,15268
42938,15211
42904,15147
42883,15077
42874,14993
42874,14506
42874,14500
42876,14490
42876,14490
42884,14417
42884,14417
42884,14416
42905,14348
42941,14283
42987,14228
43045,14181
43109,14148
43180,14127
43252,14121
43325,14128
43394,14150
43459,14185
43515,14231
43561,14288
43595,14352
43616,14422
43625,14506
43625,14993
" /> 
<polyline style="fill-rule:evenodd;"
points="44879,20467
44878,20543
44860,20624
44833,20684
44785,20752
44738,20797
44667,20842
44606,20865
44524,20880
44459,20878
44377,20860
44318,20834
44249,20787
44204,20740
44158,20669
44135,20609
44119,20526
44120,20462
44138,20379
44163,20320
44211,20251
44257,20206
44328,20159
44387,20135
44470,20119
44534,20120
44617,20137
44676,20162
44747,20209
44791,20254
44839,20326
44863,20384
44879,20467
" /> 
<polyline style="fill-rule:evenodd;"
points="45429,14712
45428,14799
45407,14890
45377,14959
45323,15035
45268,15087
45190,15136
45120,15164
45028,15180
44953,15178
44862,15158
44793,15128
44716,15075
44664,15021
44614,14942
44586,14873
44569,14781
44570,14706
44590,14614
44619,14546
44672,14468
44725,14417
44804,14365
44873,14337
44966,14319
45039,14320
45132,14339
45200,14367
45279,14421
45330,14473
45383,14552
45411,14619
45429,14712
" /> 
<polyline style="fill-rule:evenodd;"
points="45604,17969
45603,18040
45586,18116
45561,18172
45516,18235
45472,18277
45406,18319
45350,18341
45272,18355
45212,18353
45135,18337
45080,18312
45015,18267
44974,18224
44931,18158
44909,18102
44894,18024
44895,17965
44912,17887
44935,17832
44980,17767
45022,17725
45089,17682
45144,17660
45223,17644
45281,17645
45360,17661
45414,17684
45481,17729
45522,17770
45567,17837
45589,17891
45604,17969
" /> 
<polyline style="fill-rule:evenodd;"
points="45604,17354
44895,17354
44895,16645
45604,16645
45604,17354
" /> 
<polyline style="fill-rule:evenodd;"
points="47379,16717
47378,16793
47360,16874
47333,16934
47285,17002
47238,17047
47167,17092
47106,17115
47024,17130
46959,17128
46877,17110
46818,17084
46749,17037
46704,16990
46658,16919
46635,16859
46619,16776
46620,16712
46638,16629
46663,16570
46711,16501
46757,16456
46828,16409
46887,16385
46970,16369
47034,16370
47117,16387
47176,16412
47247,16459
47291,16504
47339,16576
47363,16634
47379,16717
" /> 
<polyline style="fill-rule:evenodd;"
points="47604,18219
47603,18290
47586,18366
47561,18422
47516,18485
47472,18527
47406,18569
47350,18591
47272,18605
47212,18603
47135,18587
47080,18562
47015,18517
46974,18474
46931,18408
46909,18352
46894,18274
46895,18215
46912,18137
46935,18082
46980,18017
47022,17975
47089,17932
47144,17910
47223,17894
47281,17895
47360,17911
47414,17934
47481,17979
47522,18020
47567,18087
47589,18141
47604,18219
" /> 
<polyline style="fill-rule:evenodd;"
points="47604,19604
46895,19604
46895,18895
47604,18895
47604,19604
" /> 
<polyline style="fill-rule:evenodd;"
points="47829,14197
47827,14318
47800,14437
47758,14533
47687,14633
47611,14705
47508,14771
47410,14809
47290,14830
47185,14828
47065,14802
46970,14760
46869,14690
46796,14615
46730,14511
46691,14415
46669,14293
46671,14190
46696,14069
46737,13974
46807,13871
46881,13799
46985,13731
47080,13693
47202,13669
47305,13670
47427,13695
47522,13735
47625,13805
47697,13877
47766,13981
47805,14076
47829,14197
" /> 
<polyline style="fill-rule:evenodd;"
points="48879,20467
48878,20543
48860,20624
48833,20684
48785,20752
48738,20797
48667,20842
48606,20865
48524,20880
48459,20878
48377,20860
48318,20834
48249,20787
48204,20740
48158,20669
48135,20609
48119,20526
48120,20462
48138,20379
48163,20320
48211,20251
48257,20206
48328,20159
48387,20135
48470,20119
48534,20120
48617,20137
48676,20162
48747,20209
48791,20254
48839,20326
48863,20384
48879,20467
" /> 
<polyline style="fill-rule:evenodd;"
points="49354,17969
49353,18040
49336,18116
49311,18172
49266,18235
49222,18277
49156,18319
49100,18341
49022,18355
48962,18353
48885,18337
48830,18312
48765,18267
48724,18224
48681,18158
48659,18102
48644,18024
48645,17965
48662,17887
48685,17832
48730,17767
48772,17725
48839,17682
48894,17660
48973,17644
49031,17645
49110,17661
49164,17684
49231,17729
49272,17770
49317,17837
49339,17891
49354,17969
" /> 
<polyline style="fill-rule:evenodd;"
points="49829,14197
49827,14318
49800,14437
49758,14533
49687,14633
49611,14705
49508,14771
49410,14809
49290,14830
49185,14828
49065,14802
48970,14760
48869,14690
48796,14615
48730,14511
48691,14415
48669,14293
48671,14190
48696,14069
48737,13974
48807,13871
48881,13799
48985,13731
49080,13693
49202,13669
49305,13670
49427,13695
49522,13735
49625,13805
49697,13877
49766,13981
49805,14076
49829,14197
" /> 
<polyline style="fill-rule:evenodd;"
points="50354,19719
50353,19790
50336,19866
50311,19922
50266,19985
50222,20027
50156,20069
50100,20091
50022,20105
49962,20103
49885,20087
49830,20062
49765,20017
49724,19974
49681,19908
49659,19852
49644,19774
49645,19715
49662,19637
49685,19582
49730,19517
49772,19475
49839,19432
49894,19410
49973,19394
50031,19395
50110,19411
50164,19434
50231,19479
50272,19520
50317,19587
50339,19641
50354,19719
" /> 
<polyline style="fill-rule:evenodd;"
points="51354,17969
51353,18040
51336,18116
51311,18172
51266,18235
51222,18277
51156,18319
51100,18341
51022,18355
50962,18353
50885,18337
50830,18312
50765,18267
50724,18224
50681,18158
50659,18102
50644,18024
50645,17965
50662,17887
50685,17832
50730,17767
50772,17725
50839,17682
50894,17660
50973,17644
51031,17645
51110,17661
51164,17684
51231,17729
51272,17770
51317,17837
51339,17891
51354,17969
" /> 
<polyline style="fill-rule:evenodd;"
points="51354,20104
50645,20104
50645,19395
51354,19395
51354,20104
" /> 
<polyline style="fill-rule:evenodd;"
points="51379,16717
51378,16793
51360,16874
51333,16934
51285,17002
51238,17047
51167,17092
51106,17115
51024,17130
50959,17128
50877,17110
50818,17084
50749,17037
50704,16990
50658,16919
50635,16859
50619,16776
50620,16712
50638,16629
50663,16570
50711,16501
50757,16456
50828,16409
50887,16385
50970,16369
51034,16370
51117,16387
51176,16412
51247,16459
51291,16504
51339,16576
51363,16634
51379,16717
" /> 
<polyline style="fill-rule:evenodd;"
points="54079,16447
54077,16568
54050,16687
54008,16783
53937,16883
53861,16955
53758,17021
53660,17059
53540,17080
53435,17078
53315,17052
53220,17010
53119,16940
53046,16865
52980,16761
52941,16665
52919,16543
52921,16440
52946,16319
52987,16224
53057,16121
53131,16049
53235,15981
53330,15943
53452,15919
53555,15920
53677,15945
53772,15985
53875,16055
53947,16127
54016,16231
54055,16326
54079,16447
" /> 
<polyline style="fill-rule:evenodd;"
points="54079,18447
54077,18568
54050,18687
54008,18783
53937,18883
53861,18955
53758,19021
53660,19059
53540,19080
53435,19078
53315,19052
53220,19010
53119,18940
53046,18865
52980,18761
52941,18665
52919,18543
52921,18440
52946,18319
52987,18224
53057,18121
53131,18049
53235,17981
53330,17943
53452,17919
53555,17920
53677,17945
53772,17985
53875,18055
53947,18127
54016,18231
54055,18326
54079,18447
" /> 
</g> 
</svg>
