<?xml version="1.0" standalone="no"?>
 <!DOCTYPE svg PUBLIC "-//W3C//DTD SVG 1.1//EN" 
 "http://www.w3.org/Graphics/SVG/1.1/DTD/svg11.dtd"> 
<svg xmlns="http://www.w3.org/2000/svg" version="1.1" 
    width="41.9989cm" height="29.7002cm" viewBox="0 0 165350 116930 ">
<title>SVG Picture created as selector_ctrl-F_SilkS.svg date 2014/10/14 12:12:28 </title>
  <desc>Picture generated by PCBNEW </desc>
<g style="fill:#000000; fill-opacity:1;stroke:#000000; stroke-opacity:1;
stroke-linecap:round; stroke-linejoin:round; "
 transform="translate(0 0) scale(1 1)">
</g>
<g style="fill:#000000; fill-opacity:0.0; 
stroke:#000000; stroke-width:39.3701; stroke-opacity:1; 
stroke-linecap:round; stroke-linejoin:round;">
<circle cx="33500" cy="36500" r="500" /> 
<circle cx="43000" cy="12000" r="500" /> 
<circle cx="33500" cy="17750" r="500" /> 
</g>
<g style="fill:#000000; fill-opacity:0.0; 
stroke:#000000; stroke-width:120; stroke-opacity:1; 
stroke-linecap:round; stroke-linejoin:round;">
<path d="M33500 34500
L33900 34500
" />
<path d="M33900 34500
L33900 34100
" />
<path d="M33900 34100
L37100 34100
" />
<path d="M37100 34100
L37100 34900
" />
<path d="M37100 34900
L33900 34900
" />
<path d="M33900 34900
L33900 34500
" />
<path d="M33900 34300
L34100 34100
" />
<path d="M37500 34500
L37100 34500
" />
</g>
<g style="fill:#000000; fill-opacity:0.0; 
stroke:#000000; stroke-width:60; stroke-opacity:1; 
stroke-linecap:round; stroke-linejoin:round;">
<path d="M41000 32000
L42000 32000
" />
<path d="M42000 32000
L42000 35000
" />
<path d="M42000 35000
L41000 35000
" />
<path d="M41000 35000
L41000 32000
" />
<path d="M42000 33000
L41000 33000
" />
</g>
<g style="fill:#000000; fill-opacity:0.0; 
stroke:#000000; stroke-width:150; stroke-opacity:1; 
stroke-linecap:round; stroke-linejoin:round;">
<path d="M39500 18500
L39500 33500
" />
<path d="M39500 33500
L37500 33500
" />
<path d="M37500 33500
L37500 18500
" />
<path d="M37500 18500
L39500 18500
" />
<path d="M39000 18500
L39000 19000
" />
<path d="M39000 19000
L38000 19000
" />
<path d="M38000 19000
L38000 18500
" />
</g>
<g style="fill:#000000; fill-opacity:0.0; 
stroke:#000000; stroke-width:120; stroke-opacity:1; 
stroke-linecap:round; stroke-linejoin:round;">
<path d="M35100 27900
L35100 25100
" />
<path d="M35100 25100
L35900 25100
" />
<path d="M35900 25100
L35900 27900
" />
<path d="M35900 27900
L35100 27900
" />
<path d="M35300 27900
L35100 27700
" />
<path d="M41100 27400
L41100 24600
" />
<path d="M41100 24600
L41900 24600
" />
<path d="M41900 24600
L41900 27400
" />
<path d="M41900 27400
L41100 27400
" />
<path d="M41300 27400
L41100 27200
" />
</g>
<g style="fill:#000000; fill-opacity:0.0; 
stroke:#000000; stroke-width:50; stroke-opacity:1; 
stroke-linecap:round; stroke-linejoin:round;">
<circle cx="39750" cy="35000" r="1001.25" /> 
</g>
<g style="fill:#000000; fill-opacity:0.0; 
stroke:#000000; stroke-width:120; stroke-opacity:1; 
stroke-linecap:round; stroke-linejoin:round;">
<path d="M41000 16750
L40600 16750
" />
<path d="M40600 16750
L40600 17150
" />
<path d="M40600 17150
L37400 17150
" />
<path d="M37400 17150
L37400 16350
" />
<path d="M37400 16350
L40600 16350
" />
<path d="M40600 16350
L40600 16750
" />
<path d="M40600 16950
L40400 17150
" />
<path d="M37000 16750
L37400 16750
" />
</g>
<g style="fill:#000000; fill-opacity:0.0; 
stroke:#000000; stroke-width:60; stroke-opacity:1; 
stroke-linecap:round; stroke-linejoin:round;">
<path d="M41000 30000
L42000 30000
" />
<path d="M42000 30000
L42000 32000
" />
<path d="M42000 32000
L41000 32000
" />
<path d="M41000 32000
L41000 30000
" />
<path d="M41000 27000
L42000 27000
" />
<path d="M42000 27000
L42000 30000
" />
<path d="M42000 30000
L41000 30000
" />
<path d="M41000 30000
L41000 27000
" />
<path d="M42000 28000
L41000 28000
" />
<path d="M35000 29000
L36000 29000
" />
<path d="M36000 29000
L36000 31000
" />
<path d="M36000 31000
L35000 31000
" />
<path d="M35000 31000
L35000 29000
" />
<path d="M35000 31000
L36000 31000
" />
<path d="M36000 31000
L36000 33000
" />
<path d="M36000 33000
L35000 33000
" />
<path d="M35000 33000
L35000 31000
" />
</g>
<g style="fill:#000000; fill-opacity:0.0; 
stroke:#000000; stroke-width:120; stroke-opacity:1; 
stroke-linecap:round; stroke-linejoin:round;">
<circle cx="38250" cy="13500" r="2195.45" /> 
</g>
<g style="fill:#000000; fill-opacity:0.0; 
stroke:#000000; stroke-width:60; stroke-opacity:1; 
stroke-linecap:round; stroke-linejoin:round;">
<path d="M42000 21000
L41000 21000
" />
<path d="M41000 21000
L41000 19000
" />
<path d="M41000 19000
L42000 19000
" />
<path d="M42000 19000
L42000 21000
" />
<path d="M33250 13750
L34250 13750
" />
<path d="M34250 13750
L34250 15750
" />
<path d="M34250 15750
L33250 15750
" />
<path d="M33250 15750
L33250 13750
" />
</g>
<g style="fill:#000000; fill-opacity:0.0; 
stroke:#000000; stroke-width:100; stroke-opacity:1; 
stroke-linecap:round; stroke-linejoin:round;">
<path d="M35000 24000
L35000 20000
" />
<path d="M36000 24000
L36000 20000
" />
<path d="M36000 20000
L35000 20000
" />
<path d="M35000 24000
L36000 24000
" />
</g>
<g style="fill:#000000; fill-opacity:0.0; 
stroke:#000000; stroke-width:80; stroke-opacity:1; 
stroke-linecap:round; stroke-linejoin:round;">
<path d="M35416 35472
L35250 35210
" />
<path d="M35130 35472
L35130 34922
L35321 34922
L35369 34948
L35392 34975
L35416 35027
L35416 35105
L35392 35158
L35369 35184
L35321 35210
L35130 35210
" />
<path d="M35892 35472
L35607 35472
" />
<path d="M35750 35472
L35750 34922
L35702 35001
L35654 35053
L35607 35079
" />
</g>
<g style="fill:#000000; fill-opacity:0.0; 
stroke:#000000; stroke-width:60; stroke-opacity:1; 
stroke-linecap:round; stroke-linejoin:round;">
<path d="M41661 32890
L41261 32890
" />
<path d="M41661 32471
L41471 32604
" />
<path d="M41661 32699
L41261 32699
L41261 32547
L41280 32509
L41300 32490
L41338 32471
L41395 32471
L41433 32490
L41452 32509
L41471 32547
L41471 32699
" />
<path d="M41661 32090
L41661 32319
" />
<path d="M41661 32204
L41261 32204
L41319 32242
L41357 32280
L41376 32319
" />
</g>
<g style="fill:#000000; fill-opacity:0.0; 
stroke:#000000; stroke-width:120; stroke-opacity:1; 
stroke-linecap:round; stroke-linejoin:round;">
</g>
<g style="fill:#000000; fill-opacity:0.0; 
stroke:#000000; stroke-width:112.5; stroke-opacity:1; 
stroke-linecap:round; stroke-linejoin:round;">
<path d="M38142 21650
L38571 21650
L38657 21671
L38714 21714
L38742 21778
L38742 21821
" />
<path d="M38742 21200
L38742 21457
" />
<path d="M38742 21328
L38142 21328
L38228 21371
L38285 21414
L38314 21457
" />
</g>
<g style="fill:#000000; fill-opacity:0.0; 
stroke:#000000; stroke-width:120; stroke-opacity:1; 
stroke-linecap:round; stroke-linejoin:round;">
</g>
<g style="fill:#000000; fill-opacity:0.0; 
stroke:#000000; stroke-width:112.5; stroke-opacity:1; 
stroke-linecap:round; stroke-linejoin:round;">
<path d="M38821 31524
L38821 31310
" />
<path d="M38992 31567
L38392 31417
L38992 31267
" />
<path d="M38392 31182
L38392 30924
" />
<path d="M38992 31053
L38392 31053
" />
<path d="M38992 30774
L38392 30774
L38821 30624
L38392 30474
L38992 30474
" />
<path d="M38678 30260
L38678 30110
" />
<path d="M38992 30046
L38992 30260
L38392 30260
L38392 30046
" />
<path d="M38421 29617
L38392 29660
L38392 29724
L38421 29789
L38478 29832
L38535 29853
L38650 29874
L38735 29874
L38850 29853
L38907 29832
L38964 29789
L38992 29724
L38992 29682
L38964 29617
L38935 29596
L38735 29596
L38735 29682
" />
<path d="M38821 29424
L38821 29210
" />
<path d="M38992 29467
L38392 29317
L38992 29167
" />
<path d="M38392 29060
L38392 28782
L38621 28932
L38621 28867
L38650 28824
L38678 28803
L38735 28782
L38878 28782
L38935 28803
L38964 28824
L38992 28867
L38992 28996
L38964 29039
L38935 29060
" />
<path d="M38450 28610
L38421 28589
L38392 28546
L38392 28439
L38421 28396
L38450 28374
L38507 28353
L38564 28353
L38650 28374
L38992 28632
L38992 28353
" />
<path d="M38650 28096
L38621 28139
L38592 28160
L38535 28182
L38507 28182
L38450 28160
L38421 28139
L38392 28096
L38392 28010
L38421 27967
L38450 27946
L38507 27925
L38535 27925
L38592 27946
L38621 27967
L38650 28010
L38650 28096
L38678 28139
L38707 28160
L38764 28182
L38878 28182
L38935 28160
L38964 28139
L38992 28096
L38992 28010
L38964 27967
L38935 27946
L38878 27925
L38764 27925
L38707 27946
L38678 27967
L38650 28010
" />
<path d="M38992 27732
L38392 27732
L38392 27560
L38421 27517
L38450 27496
L38507 27475
L38592 27475
L38650 27496
L38678 27517
L38707 27560
L38707 27732
" />
</g>
<g style="fill:#000000; fill-opacity:0.0; 
stroke:#000000; stroke-width:120; stroke-opacity:1; 
stroke-linecap:round; stroke-linejoin:round;">
</g>
<g style="fill:#000000; fill-opacity:0.0; 
stroke:#000000; stroke-width:80; stroke-opacity:1; 
stroke-linecap:round; stroke-linejoin:round;">
<path d="M36623 25566
L36642 25585
L36661 25642
L36661 25680
L36642 25738
L36604 25776
L36566 25795
L36490 25814
L36433 25814
L36357 25795
L36319 25776
L36280 25738
L36261 25680
L36261 25642
L36280 25585
L36300 25566
" />
<path d="M36300 25414
L36280 25395
L36261 25357
L36261 25261
L36280 25223
L36300 25204
L36338 25185
L36376 25185
L36433 25204
L36661 25433
L36661 25185
" />
<path d="M41623 26066
L41642 26085
L41661 26142
L41661 26180
L41642 26238
L41604 26276
L41566 26295
L41490 26314
L41433 26314
L41357 26295
L41319 26276
L41280 26238
L41261 26180
L41261 26142
L41280 26085
L41300 26066
" />
<path d="M41395 25723
L41661 25723
" />
<path d="M41242 25819
L41528 25914
L41528 25666
" />
</g>
<g style="fill:#000000; fill-opacity:0.0; 
stroke:#000000; stroke-width:50; stroke-opacity:1; 
stroke-linecap:round; stroke-linejoin:round;">
<path d="M39200 33842
L39185 33857
L39142 33871
L39114 33871
L39071 33857
L39042 33828
L39028 33800
L39014 33742
L39014 33700
L39028 33642
L39042 33614
L39071 33585
L39114 33571
L39142 33571
L39185 33585
L39200 33600
" />
<path d="M39300 33571
L39485 33571
L39385 33685
L39428 33685
L39457 33700
L39471 33714
L39485 33742
L39485 33814
L39471 33842
L39457 33857
L39428 33871
L39342 33871
L39314 33857
L39300 33842
" />
<path d="M38421 36101
L38621 36101
" />
<path d="M38307 36160
L38521 36220
L38521 36065
" />
<path d="M38592 35970
L38607 35958
L38621 35970
L38607 35982
L38592 35970
L38621 35970
" />
<path d="M38321 35875
L38321 35708
L38621 35815
" />
<path d="M38421 35505
L38621 35505
" />
<path d="M38421 35613
L38578 35613
L38607 35601
L38621 35577
L38621 35541
L38607 35517
L38592 35505
" />
<path d="M38464 35303
L38464 35386
" />
<path d="M38621 35386
L38321 35386
L38321 35267
" />
</g>
<g style="fill:#000000; fill-opacity:0.0; 
stroke:#000000; stroke-width:80; stroke-opacity:1; 
stroke-linecap:round; stroke-linejoin:round;">
</g>
<g style="fill:#000000; fill-opacity:0.0; 
stroke:#000000; stroke-width:75; stroke-opacity:1; 
stroke-linecap:round; stroke-linejoin:round;">
<path d="M39757 34214
L39757 33985
" />
<path d="M39871 34100
L39642 34100
" />
</g>
<g style="fill:#000000; fill-opacity:0.0; 
stroke:#000000; stroke-width:80; stroke-opacity:1; 
stroke-linecap:round; stroke-linejoin:round;">
<path d="M38666 17722
L38500 17460
" />
<path d="M38380 17722
L38380 17172
L38571 17172
L38619 17198
L38642 17225
L38666 17277
L38666 17355
L38642 17408
L38619 17434
L38571 17460
L38380 17460
" />
<path d="M38857 17225
L38880 17198
L38928 17172
L39047 17172
L39095 17198
L39119 17225
L39142 17277
L39142 17329
L39119 17408
L38833 17722
L39142 17722
" />
</g>
<g style="fill:#000000; fill-opacity:0.0; 
stroke:#000000; stroke-width:60; stroke-opacity:1; 
stroke-linecap:round; stroke-linejoin:round;">
<path d="M40464 31414
L40464 31314
" />
<path d="M40621 31271
L40621 31414
L40321 31414
L40321 31271
" />
<path d="M40621 31171
L40421 31014
" />
<path d="M40421 31171
L40621 31014
" />
<path d="M40421 30942
L40421 30828
" />
<path d="M40321 30899
L40578 30899
L40607 30885
L40621 30857
L40621 30828
" />
<path d="M40621 30571
L40621 30742
" />
<path d="M40621 30657
L40321 30657
L40364 30685
L40392 30714
L40407 30742
" />
<path d="M42661 29057
L42395 29057
" />
<path d="M42433 29057
L42414 29038
L42395 28999
L42395 28942
L42414 28904
L42452 28885
L42661 28885
" />
<path d="M42452 28885
L42414 28866
L42395 28828
L42395 28771
L42414 28733
L42452 28714
L42661 28714
" />
<path d="M42642 28542
L42661 28504
L42661 28428
L42642 28390
L42604 28371
L42585 28371
L42547 28390
L42528 28428
L42528 28485
L42509 28523
L42471 28542
L42452 28542
L42414 28523
L42395 28485
L42395 28428
L42414 28390
" />
<path d="M42395 28028
L42719 28028
L42757 28047
L42776 28066
L42795 28104
L42795 28161
L42776 28199
" />
<path d="M42642 28028
L42661 28066
L42661 28142
L42642 28180
L42623 28199
L42585 28219
L42471 28219
L42433 28199
L42414 28180
L42395 28142
L42395 28066
L42414 28028
" />
<path d="M42642 27685
L42661 27723
L42661 27799
L42642 27838
L42604 27857
L42452 27857
L42414 27838
L42395 27799
L42395 27723
L42414 27685
L42452 27666
L42490 27666
L42528 27857
" />
<path d="M42395 27323
L42795 27323
" />
<path d="M42642 27323
L42661 27361
L42661 27438
L42642 27476
L42623 27495
L42585 27514
L42471 27514
L42433 27495
L42414 27476
L42395 27438
L42395 27361
L42414 27323
" />
<path d="M42661 26923
L42661 27152
" />
<path d="M42661 27038
L42261 27038
L42319 27076
L42357 27114
L42376 27152
" />
<path d="M36342 30464
L36357 30478
L36371 30521
L36371 30549
L36357 30592
L36328 30621
L36300 30635
L36242 30649
L36200 30649
L36142 30635
L36114 30621
L36085 30592
L36071 30549
L36071 30521
L36085 30478
L36100 30464
" />
<path d="M36371 30335
L36071 30335
" />
<path d="M36214 30335
L36214 30164
" />
<path d="M36371 30164
L36071 30164
" />
<path d="M36371 29864
L36371 30035
" />
<path d="M36371 29949
L36071 29949
L36114 29978
L36142 30007
L36157 30035
" />
<path d="M36400 29807
L36400 29578
" />
<path d="M36100 29521
L36085 29507
L36071 29478
L36071 29407
L36085 29378
L36100 29364
L36128 29350
L36157 29350
L36200 29364
L36371 29535
L36371 29350
" />
<path d="M36342 32464
L36357 32478
L36371 32521
L36371 32549
L36357 32592
L36328 32621
L36300 32635
L36242 32649
L36200 32649
L36142 32635
L36114 32621
L36085 32592
L36071 32549
L36071 32521
L36085 32478
L36100 32464
" />
<path d="M36371 32335
L36071 32335
" />
<path d="M36214 32335
L36214 32164
" />
<path d="M36371 32164
L36071 32164
" />
<path d="M36071 32049
L36071 31864
L36185 31964
L36185 31921
L36200 31892
L36214 31878
L36242 31864
L36314 31864
L36342 31878
L36357 31892
L36371 31921
L36371 32007
L36357 32035
L36342 32049
" />
<path d="M36400 31807
L36400 31578
" />
<path d="M36171 31378
L36371 31378
" />
<path d="M36057 31450
L36271 31521
L36271 31335
" />
</g>
<g style="fill:#000000; fill-opacity:0.0; 
stroke:#000000; stroke-width:100; stroke-opacity:1; 
stroke-linecap:round; stroke-linejoin:round;">
<path d="M37404 13583
L37428 13607
L37452 13678
L37452 13726
L37428 13797
L37380 13845
L37333 13869
L37238 13892
L37166 13892
L37071 13869
L37023 13845
L36976 13797
L36952 13726
L36952 13678
L36976 13607
L37000 13583
" />
<path d="M37452 13107
L37452 13392
" />
<path d="M37452 13250
L36952 13250
L37023 13297
L37071 13345
L37095 13392
" />
<path d="M40369 13571
L40702 13571
" />
<path d="M40178 13690
L40535 13809
L40535 13500
" />
<path d="M40202 13357
L40202 13023
L40702 13238
" />
<path d="M40202 12738
L40202 12690
L40226 12642
L40250 12619
L40297 12595
L40392 12571
L40511 12571
L40607 12595
L40654 12619
L40678 12642
L40702 12690
L40702 12738
L40678 12785
L40654 12809
L40607 12833
L40511 12857
L40392 12857
L40297 12833
L40250 12809
L40226 12785
L40202 12738
" />
<path d="M40369 12142
L40702 12142
" />
<path d="M40369 12357
L40630 12357
L40678 12333
L40702 12285
L40702 12214
L40678 12166
L40654 12142
" />
<path d="M40440 11738
L40440 11904
" />
<path d="M40702 11904
L40202 11904
L40202 11666
" />
</g>
<g style="fill:#000000; fill-opacity:0.0; 
stroke:#000000; stroke-width:60; stroke-opacity:1; 
stroke-linecap:round; stroke-linejoin:round;">
<path d="M40871 20221
L40571 20221
L40571 20107
L40585 20078
L40600 20064
L40628 20050
L40671 20050
L40700 20064
L40714 20078
L40728 20107
L40728 20221
" />
<path d="M40600 19935
L40585 19921
L40571 19892
L40571 19821
L40585 19792
L40600 19778
L40628 19764
L40657 19764
L40700 19778
L40871 19950
L40871 19764
" />
<path d="M34621 14971
L34321 14971
L34321 14857
L34335 14828
L34350 14814
L34378 14800
L34421 14800
L34450 14814
L34464 14828
L34478 14857
L34478 14971
" />
<path d="M34621 14514
L34621 14685
" />
<path d="M34621 14600
L34321 14600
L34364 14628
L34392 14657
L34407 14685
" />
</g>
<g style="fill:#000000; fill-opacity:0.0; 
stroke:#000000; stroke-width:80; stroke-opacity:1; 
stroke-linecap:round; stroke-linejoin:round;">
<path d="M36661 22638
L36471 22771
" />
<path d="M36661 22866
L36261 22866
L36261 22714
L36280 22676
L36300 22657
L36338 22638
L36395 22638
L36433 22657
L36452 22676
L36471 22714
L36471 22866
" />
<path d="M36642 22485
L36661 22428
L36661 22333
L36642 22295
L36623 22276
L36585 22257
L36547 22257
L36509 22276
L36490 22295
L36471 22333
L36452 22409
L36433 22447
L36414 22466
L36376 22485
L36338 22485
L36300 22466
L36280 22447
L36261 22409
L36261 22314
L36280 22257
" />
<path d="M36300 22104
L36280 22085
L36261 22047
L36261 21952
L36280 21914
L36300 21895
L36338 21876
L36376 21876
L36433 21895
L36661 22123
L36661 21876
" />
<path d="M36261 21742
L36261 21495
L36414 21628
L36414 21571
L36433 21533
L36452 21514
L36490 21495
L36585 21495
L36623 21514
L36642 21533
L36661 21571
L36661 21685
L36642 21723
L36623 21742
" />
<path d="M36300 21342
L36280 21323
L36261 21285
L36261 21190
L36280 21152
L36300 21133
L36338 21114
L36376 21114
L36433 21133
L36661 21361
L36661 21114
" />
</g> 
</svg>
