<?xml version="1.0" standalone="no"?>
 <!DOCTYPE svg PUBLIC "-//W3C//DTD SVG 1.1//EN" 
 "http://www.w3.org/Graphics/SVG/1.1/DTD/svg11.dtd"> 
<svg xmlns="http://www.w3.org/2000/svg" version="1.1" 
    width="21.0007cm" height="29.7002cm" viewBox="0 0 82680 116930 ">
<title>SVG Picture created as power_split-F.SilkS.svg date 2016/04/01 15:41:24 </title>
  <desc>Picture generated by PCBNEW </desc>
<g style="fill:#000000; fill-opacity:1;stroke:#000000; stroke-opacity:1;
stroke-linecap:round; stroke-linejoin:round; "
 transform="translate(0 0) scale(1 1)">
</g>
<g style="fill:#000000; fill-opacity:0.0; 
stroke:#000000; stroke-width:-0.000393701; stroke-opacity:1; 
stroke-linecap:round; stroke-linejoin:round;">
</g>
<g style="fill:#000000; fill-opacity:0.0; 
stroke:#000000; stroke-width:120; stroke-opacity:1; 
stroke-linecap:round; stroke-linejoin:round;">
<path d="M17175 65526
L16624 65526
" />
<path d="M17372 65448
L16427 65448
" />
<path d="M17490 65369
L16309 65369
" />
</g>
<g style="fill:#000000; fill-opacity:0.0; 
stroke:#000000; stroke-width:118.11; stroke-opacity:1; 
stroke-linecap:round; stroke-linejoin:round;">
<path d="M16506 65014
L16270 65014
" />
</g>
<g style="fill:#000000; fill-opacity:0.0; 
stroke:#000000; stroke-width:120; stroke-opacity:1; 
stroke-linecap:round; stroke-linejoin:round;">
<circle cx="16900" cy="64700" r="905.512" /> 
<path d="M28512 67421
L26387 67421
" />
<path d="M26544 67500
L28355 67500
" />
<path d="M26701 67579
L28198 67579
" />
<path d="M27961 67657
L26938 67657
" />
<circle cx="27450" cy="65650" r="2086.61" /> 
</g>
<g style="fill:#000000; fill-opacity:0.0; 
stroke:#000000; stroke-width:196.85; stroke-opacity:1; 
stroke-linecap:round; stroke-linejoin:round;">
<path d="M26859 66929
L26268 66929
" />
</g>
<g style="fill:#000000; fill-opacity:0.0; 
stroke:#000000; stroke-width:120; stroke-opacity:1; 
stroke-linecap:round; stroke-linejoin:round;">
<path d="M15077 51755
L15077 53644
" />
<circle cx="13700" cy="52700" r="1692.91" /> 
<path d="M15156 51991
L15156 53408
" />
<path d="M15235 52148
L15235 53251
" />
<path d="M15314 52385
L15314 53054
" />
</g>
<g style="fill:#000000; fill-opacity:0.0; 
stroke:#000000; stroke-width:118.11; stroke-opacity:1; 
stroke-linecap:round; stroke-linejoin:round;">
<path d="M14566 53211
L14566 53684
" />
</g>
<g style="fill:#000000; fill-opacity:0.0; 
stroke:#000000; stroke-width:120; stroke-opacity:1; 
stroke-linecap:round; stroke-linejoin:round;">
<path d="M28564 84667
L27935 84667
" />
<path d="M28761 84588
L27738 84588
" />
<path d="M28919 84509
L27580 84509
" />
<circle cx="28250" cy="83643.7" r="1102.36" /> 
</g>
<g style="fill:#000000; fill-opacity:0.0; 
stroke:#000000; stroke-width:118.11; stroke-opacity:1; 
stroke-linecap:round; stroke-linejoin:round;">
<path d="M27856 84076
L27462 84076
" />
</g>
<g style="fill:#000000; fill-opacity:0.0; 
stroke:#000000; stroke-width:59.0551; stroke-opacity:1; 
stroke-linecap:round; stroke-linejoin:round;">
<path d="M19293 57856
L19293 60612
" />
<path d="M19293 60612
L18506 60612
" />
<path d="M18506 60612
L18506 57856
" />
<path d="M18506 57856
L19293 57856
" />
<path d="M25143 56306
L25143 59062
" />
<path d="M25143 59062
L24356 59062
" />
<path d="M24356 59062
L24356 56306
" />
<path d="M24356 56306
L25143 56306
" />
<path d="M17056 49606
L19812 49606
" />
<path d="M19812 49606
L19812 50393
" />
<path d="M19812 50393
L17056 50393
" />
<path d="M17056 50393
L17056 49606
" />
<path d="M23656 81006
L26412 81006
" />
<path d="M26412 81006
L26412 81793
" />
<path d="M26412 81793
L23656 81793
" />
<path d="M23656 81793
L23656 81006
" />
<path d="M17478 56432
L17478 56511
" />
<path d="M17478 57453
L17478 57383
" />
<path d="M16207.6 57331.7 A786.653 786.653 0.0 0 0 17478.3 57456.3 " />
<path d="M16473.6 57382.7 A608.718 608.718 0.0 0 0 17301.6 57383.1 " />
<path d="M17473.3 56422.2 A782.385 782.385 0.0 0 0 16198.8 56558.7 " />
<path d="M17287 56511.7 A582.991 582.991 0.0 0 0 16480.7 56519.3 " />
<path d="M19350 64200
L19350 61200
" />
<path d="M18350 64200
L18350 61200
" />
<path d="M18239 65310
L18239 64700
" />
<path d="M19350 61200
L18350 61200
" />
<path d="M18350 64200
L19350 64200
" />
<path d="M19460 64700
L19460 65310
" />
<path d="M19460 65310
L18239 65310
" />
<path d="M20453 50796
L20453 51296
" />
<path d="M23346 50796
L23346 51296
" />
<path d="M23346 65603
L23346 65103
" />
<path d="M20453 65603
L20453 65103
" />
<path d="M20453 50796
L23346 50796
" />
<path d="M20453 65603
L23346 65603
" />
<path d="M20453 51296
L19947 51296
" />
<path d="M13096 79946
L13596 79946
" />
<path d="M13096 77053
L13596 77053
" />
<path d="M27903 77053
L27403 77053
" />
<path d="M27903 79946
L27403 79946
" />
<path d="M13096 79946
L13096 77053
" />
<path d="M27903 79946
L27903 77053
" />
<path d="M13596 79946
L13596 80452
" />
<path d="M24450 61200
L24450 64200
" />
<path d="M25450 61200
L25450 64200
" />
<path d="M25560 60089
L25560 60700
" />
<path d="M24450 64200
L25450 64200
" />
<path d="M25450 61200
L24450 61200
" />
<path d="M24339 60700
L24339 60089
" />
<path d="M24339 60089
L25560 60089
" />
<path d="M17900 49150
L20900 49150
" />
<path d="M17900 48150
L20900 48150
" />
<path d="M16789 48039
L17400 48039
" />
<path d="M20900 49150
L20900 48150
" />
<path d="M17900 48150
L17900 49150
" />
<path d="M17400 49260
L16789 49260
" />
<path d="M16789 49260
L16789 48039
" />
<path d="M24350 46800
L27350 46800
" />
<path d="M24350 45800
L27350 45800
" />
<path d="M23239 45689
L23850 45689
" />
<path d="M27350 46800
L27350 45800
" />
<path d="M24350 45800
L24350 46800
" />
<path d="M23850 46910
L23239 46910
" />
<path d="M23239 46910
L23239 45689
" />
<path d="M31000 83750
L31000 84750
" />
<path d="M31110 82639
L31110 83250
" />
<path d="M31000 83750
L30000 83750
" />
<path d="M29889 83250
L29889 82639
" />
<path d="M29889 82639
L31110 82639
" />
<path d="M30000 83750
L30000 84750
" />
<path d="M30000 84750
L31000 84750
" />
<path d="M31000 79750
L31000 76750
" />
<path d="M30000 79750
L30000 76750
" />
<path d="M29889 80860
L29889 80250
" />
<path d="M31000 76750
L30000 76750
" />
<path d="M30000 79750
L31000 79750
" />
<path d="M31110 80250
L31110 80860
" />
<path d="M31110 80860
L29889 80860
" />
<path d="M13550 48150
L14550 48150
" />
<path d="M12439 48039
L13050 48039
" />
<path d="M13550 48150
L13550 49150
" />
<path d="M13050 49260
L12439 49260
" />
<path d="M12439 49260
L12439 48039
" />
<path d="M13550 49150
L14550 49150
" />
<path d="M14550 49150
L14550 48150
" />
<path d="M20969 68969
L20969 67630
" />
<path d="M19355.1 68300 A944.882 944.882 0.0 0 0 20968.1 68968.1 " />
<path d="M20968.1 67631.9 A944.882 944.882 0.0 0 0 19355.1 68300 " />
<path d="M14550 69000
L15300 69000
" />
<path d="M16300 69000
L16000 69000
" />
<path d="M17250 69000
L17300 69000
" />
<path d="M17250 69000
L17000 69000
" />
<path d="M18750 69000
L18050 69000
" />
<path d="M18750 67550
L18100 67550
" />
<path d="M17050 67500
L17300 67500
" />
<path d="M16050 67500
L16300 67500
" />
<path d="M14550 67550
L15200 67550
" />
<path d="M17250 69450
L17250 69000
" />
<path d="M16050 69450
L16050 69000
" />
<path d="M14550 69000
L14550 67550
" />
<path d="M18750 67550
L18750 69000
" />
<path d="M14550 69450
L14550 69000
" />
<path d="M18750 69000
L18750 69450
" />
<path d="M16650 69450
L18750 69450
" />
<path d="M16650 69450
L14550 69450
" />
<path d="M22919 84919
L22919 83580
" />
<path d="M21305.1 84250 A944.882 944.882 0.0 0 0 22918.1 84918.1 " />
<path d="M22918.1 83581.9 A944.882 944.882 0.0 0 0 21305.1 84250 " />
<path d="M19619 85130
L18280 85130
" />
<path d="M18950 86744.9 A944.882 944.882 0.0 0 0 19618.1 85131.9 " />
<path d="M18281.9 85131.9 A944.882 944.882 0.0 0 0 18950 86744.9 " />
<path d="M13080 86469
L14419 86469
" />
<path d="M13750 84855.1 A944.882 944.882 0.0 0 0 13081.9 86468.1 " />
<path d="M14418.1 86468.1 A944.882 944.882 0.0 0 0 13750 84855.1 " />
<path d="M26000 74700
L26000 82300
" />
<path d="M26000 82300
L11200 82300
" />
<path d="M26000 74700
L11200 74700
" />
<path d="M11200 74750
L11200 82250
" />
<path d="M14650 69950
L18650 69950
" />
<path d="M14650 69450
L14650 72450
" />
<path d="M14650 72450
L18650 72450
" />
<path d="M18650 72450
L18650 69450
" />
<path d="M18650 69450
L14650 69450
" />
<path d="M11700 71550
L11700 67550
" />
<path d="M11200 71550
L14200 71550
" />
<path d="M14200 71550
L14200 67550
" />
<path d="M14200 67550
L11200 67550
" />
<path d="M11200 67550
L11200 71550
" />
<path d="M25350 72300
L21350 72300
" />
<path d="M25350 72800
L25350 69800
" />
<path d="M25350 69800
L21350 69800
" />
<path d="M21350 69800
L21350 72800
" />
<path d="M21350 72800
L25350 72800
" />
<path d="M29700 72250
L25700 72250
" />
<path d="M29700 72750
L29700 69750
" />
<path d="M29700 69750
L25700 69750
" />
<path d="M25700 69750
L25700 72750
" />
<path d="M25700 72750
L29700 72750
" />
<path d="M19400 53450
L19400 55450
" />
<path d="M19400 55450
L18400 55450
" />
<path d="M18400 55450
L18400 53450
" />
<path d="M18400 53450
L19400 53450
" />
<path d="M18900 53450
L18900 52950
" />
<path d="M18900 55450
L18900 55950
" />
<path d="M26600 55700
L26600 57700
" />
<path d="M26600 57700
L25600 57700
" />
<path d="M25600 57700
L25600 55700
" />
<path d="M25600 55700
L26600 55700
" />
<path d="M26100 55700
L26100 55200
" />
<path d="M26100 57700
L26100 58200
" />
<path d="M24550 84050
L24550 86050
" />
<path d="M24550 86050
L23550 86050
" />
<path d="M23550 86050
L23550 84050
" />
<path d="M23550 84050
L24550 84050
" />
<path d="M24050 84050
L24050 83550
" />
<path d="M24050 86050
L24050 86550
" />
<path d="M25500 50800
L25500 48800
" />
<path d="M25500 48800
L26500 48800
" />
<path d="M26500 48800
L26500 50800
" />
<path d="M26500 50800
L25500 50800
" />
<path d="M26000 50800
L26000 51300
" />
<path d="M26000 48800
L26000 48300
" />
<path d="M24200 51700
L24200 49700
" />
<path d="M24200 49700
L25200 49700
" />
<path d="M25200 49700
L25200 51700
" />
<path d="M25200 51700
L24200 51700
" />
<path d="M24700 51700
L24700 52200
" />
<path d="M24700 49700
L24700 49200
" />
<path d="M17000 82500
L19000 82500
" />
<path d="M19000 82500
L19000 83500
" />
<path d="M19000 83500
L17000 83500
" />
<path d="M17000 83500
L17000 82500
" />
<path d="M17000 83000
L16500 83000
" />
<path d="M19000 83000
L19500 83000
" />
<path d="M22700 66950
L20700 66950
" />
<path d="M20700 66950
L20700 65950
" />
<path d="M20700 65950
L22700 65950
" />
<path d="M22700 65950
L22700 66950
" />
<path d="M22700 66450
L23200 66450
" />
<path d="M20700 66450
L20200 66450
" />
<path d="M17400 59700
L17400 61700
" />
<path d="M17400 61700
L16400 61700
" />
<path d="M16400 61700
L16400 59700
" />
<path d="M16400 59700
L17400 59700
" />
<path d="M16900 59700
L16900 59200
" />
<path d="M16900 61700
L16900 62200
" />
<path d="M12600 65700
L14600 65700
" />
<path d="M14600 65700
L14600 66700
" />
<path d="M14600 66700
L12600 66700
" />
<path d="M12600 66700
L12600 65700
" />
<path d="M12600 66200
L12100 66200
" />
<path d="M14600 66200
L15100 66200
" />
<path d="M17900 52450
L17900 54450
" />
<path d="M17900 54450
L16900 54450
" />
<path d="M16900 54450
L16900 52450
" />
<path d="M16900 52450
L17900 52450
" />
<path d="M17400 52450
L17400 51950
" />
<path d="M17400 54450
L17400 54950
" />
<path d="M15950 83800
L17950 83800
" />
<path d="M17950 83800
L17950 84800
" />
<path d="M17950 84800
L15950 84800
" />
<path d="M15950 84800
L15950 83800
" />
<path d="M15950 84300
L15450 84300
" />
<path d="M17950 84300
L18450 84300
" />
<path d="M12500 81000
L12500 83000
" />
<path d="M12500 83000
L11500 83000
" />
<path d="M11500 83000
L11500 81000
" />
<path d="M11500 81000
L12500 81000
" />
<path d="M12000 81000
L12000 80500
" />
<path d="M12000 83000
L12000 83500
" />
<path d="M29500 78000
L29500 80000
" />
<path d="M29500 80000
L28500 80000
" />
<path d="M28500 80000
L28500 78000
" />
<path d="M28500 78000
L29500 78000
" />
<path d="M29000 78000
L29000 77500
" />
<path d="M29000 80000
L29000 80500
" />
<path d="M13900 60700
L16900 60700
" />
<path d="M13900 59700
L16900 59700
" />
<path d="M12789 59589
L13400 59589
" />
<path d="M16900 60700
L16900 59700
" />
<path d="M13900 59700
L13900 60700
" />
<path d="M13400 60810
L12789 60810
" />
<path d="M12789 60810
L12789 59589
" />
</g>
<g style="fill:#000000; fill-opacity:0.0; 
stroke:#000000; stroke-width:120; stroke-opacity:1; 
stroke-linecap:round; stroke-linejoin:round;">
<path d="M16800 66331
L16771 66360
L16685 66388
L16628 66388
L16542 66360
L16485 66303
L16457 66245
L16428 66131
L16428 66045
L16457 65931
L16485 65874
L16542 65817
L16628 65788
L16685 65788
L16771 65817
L16800 65845
" />
<path d="M17314 65788
L17200 65788
L17142 65817
L17114 65845
L17057 65931
L17028 66045
L17028 66274
L17057 66331
L17085 66360
L17142 66388
L17257 66388
L17314 66360
L17342 66331
L17371 66274
L17371 66131
L17342 66074
L17314 66045
L17257 66017
L17142 66017
L17085 66045
L17057 66074
L17028 66131
" />
<path d="M16057 63154
L16057 63554
" />
<path d="M15914 62925
L15771 63354
L16142 63354
" />
<path d="M16371 63496
L16400 63525
L16371 63554
L16342 63525
L16371 63496
L16371 63554
" />
<path d="M16600 62954
L17000 62954
L16742 63554
" />
<path d="M17485 63154
L17485 63554
" />
<path d="M17228 63154
L17228 63468
L17257 63525
L17314 63554
L17400 63554
L17457 63525
L17485 63496
" />
<path d="M17971 63239
L17771 63239
" />
<path d="M17771 63554
L17771 62954
L18057 62954
" />
<path d="M27350 68462
L27321 68491
L27235 68519
L27178 68519
L27092 68491
L27035 68434
L27007 68376
L26978 68262
L26978 68176
L27007 68062
L27035 68005
L27092 67948
L27178 67919
L27235 67919
L27321 67948
L27350 67976
" />
<path d="M27550 67919
L27921 67919
L27721 68148
L27807 68148
L27864 68176
L27892 68205
L27921 68262
L27921 68405
L27892 68462
L27864 68491
L27807 68519
L27635 68519
L27578 68491
L27550 68462
" />
<path d="M26235 63323
L25892 63323
" />
<path d="M26064 63323
L26064 62723
L26007 62808
L25950 62865
L25892 62894
" />
<path d="M26607 62723
L26664 62723
L26721 62751
L26750 62780
L26778 62837
L26807 62951
L26807 63094
L26778 63208
L26750 63265
L26721 63294
L26664 63323
L26607 63323
L26550 63294
L26521 63265
L26492 63208
L26464 63094
L26464 62951
L26492 62837
L26521 62780
L26550 62751
L26607 62723
" />
<path d="M27178 62723
L27235 62723
L27292 62751
L27321 62780
L27350 62837
L27378 62951
L27378 63094
L27350 63208
L27321 63265
L27292 63294
L27235 63323
L27178 63323
L27121 63294
L27092 63265
L27064 63208
L27035 63094
L27035 62951
L27064 62837
L27092 62780
L27121 62751
L27178 62723
" />
<path d="M27750 62723
L27807 62723
L27864 62751
L27892 62780
L27921 62837
L27950 62951
L27950 63094
L27921 63208
L27892 63265
L27864 63294
L27807 63323
L27750 63323
L27692 63294
L27664 63265
L27635 63208
L27607 63094
L27607 62951
L27635 62837
L27664 62780
L27692 62751
L27750 62723
" />
<path d="M28464 62923
L28464 63323
" />
<path d="M28207 62923
L28207 63237
L28235 63294
L28292 63323
L28378 63323
L28435 63294
L28464 63265
" />
<path d="M28950 63008
L28750 63008
" />
<path d="M28750 63323
L28750 62723
L29035 62723
" />
<path d="M16119 52800
L16147 52828
L16176 52914
L16176 52971
L16147 53057
L16090 53114
L16033 53142
L15919 53171
L15833 53171
L15719 53142
L15661 53114
L15604 53057
L15576 52971
L15576 52914
L15604 52828
L15633 52800
" />
<path d="M16176 52228
L16176 52571
" />
<path d="M16176 52400
L15576 52400
L15661 52457
L15719 52514
L15747 52571
" />
<path d="M11366 53685
L11766 53685
" />
<path d="M11138 53828
L11566 53971
L11566 53600
" />
<path d="M11166 53428
L11166 53028
L11766 53285
" />
<path d="M11166 52685
L11166 52628
L11195 52571
L11223 52542
L11280 52514
L11395 52485
L11538 52485
L11652 52514
L11709 52542
L11738 52571
L11766 52628
L11766 52685
L11738 52742
L11709 52771
L11652 52800
L11538 52828
L11395 52828
L11280 52800
L11223 52771
L11195 52742
L11166 52685
" />
<path d="M11366 51971
L11766 51971
" />
<path d="M11366 52228
L11680 52228
L11738 52199
L11766 52142
L11766 52057
L11738 51999
L11709 51971
" />
<path d="M11452 51485
L11452 51685
" />
<path d="M11766 51685
L11166 51685
L11166 51400
" />
<path d="M28150 85511
L28121 85540
L28035 85568
L27978 85568
L27892 85540
L27835 85482
L27807 85425
L27778 85311
L27778 85225
L27807 85111
L27835 85054
L27892 84997
L27978 84968
L28035 84968
L28121 84997
L28150 85025
" />
<path d="M28492 85225
L28435 85197
L28407 85168
L28378 85111
L28378 85082
L28407 85025
L28435 84997
L28492 84968
L28607 84968
L28664 84997
L28692 85025
L28721 85082
L28721 85111
L28692 85168
L28664 85197
L28607 85225
L28492 85225
L28435 85254
L28407 85282
L28378 85340
L28378 85454
L28407 85511
L28435 85540
L28492 85568
L28607 85568
L28664 85540
L28692 85511
L28721 85454
L28721 85340
L28692 85282
L28664 85254
L28607 85225
" />
<path d="M27550 81861
L27550 82261
" />
<path d="M27407 81633
L27264 82061
L27635 82061
" />
<path d="M27807 81661
L28207 81661
L27950 82261
" />
<path d="M28692 81861
L28692 82261
" />
<path d="M28435 81861
L28435 82175
L28464 82233
L28521 82261
L28607 82261
L28664 82233
L28692 82204
" />
<path d="M29178 81947
L28978 81947
" />
<path d="M28978 82261
L28978 81661
L29264 81661
" />
</g>
<g style="fill:#000000; fill-opacity:0.0; 
stroke:#000000; stroke-width:59.0551; stroke-opacity:1; 
stroke-linecap:round; stroke-linejoin:round;">
<path d="M19926 59299
L19945 59318
L19963 59374
L19963 59412
L19945 59468
L19907 59506
L19870 59524
L19795 59543
L19738 59543
L19663 59524
L19626 59506
L19588 59468
L19570 59412
L19570 59374
L19588 59318
L19607 59299
" />
<path d="M19607 59149
L19588 59131
L19570 59093
L19570 58999
L19588 58962
L19607 58943
L19645 58924
L19682 58924
L19738 58943
L19963 59168
L19963 58924
" />
<path d="M25776 57749
L25795 57768
L25813 57824
L25813 57862
L25795 57918
L25757 57956
L25720 57974
L25645 57993
L25588 57993
L25513 57974
L25476 57956
L25438 57918
L25420 57862
L25420 57824
L25438 57768
L25457 57749
" />
<path d="M25551 57412
L25813 57412
" />
<path d="M25401 57506
L25682 57599
L25682 57356
" />
<path d="M18368 49254
L18349 49273
L18293 49292
L18256 49292
L18199 49273
L18162 49236
L18143 49198
L18124 49123
L18124 49067
L18143 48992
L18162 48954
L18199 48917
L18256 48898
L18293 48898
L18349 48917
L18368 48936
" />
<path d="M18724 48898
L18537 48898
L18518 49086
L18537 49067
L18574 49048
L18668 49048
L18706 49067
L18724 49086
L18743 49123
L18743 49217
L18724 49254
L18706 49273
L18668 49292
L18574 49292
L18537 49273
L18518 49254
" />
<path d="M24934 81590
L24915 81609
L24859 81628
L24821 81628
L24765 81609
L24728 81571
L24709 81534
L24690 81459
L24690 81403
L24709 81328
L24728 81290
L24765 81253
L24821 81234
L24859 81234
L24915 81253
L24934 81271
" />
<path d="M25065 81234
L25328 81234
L25159 81628
" />
<path d="M16357 55923
L16357 55529
L16451 55529
L16507 55548
L16544 55585
L16563 55623
L16582 55698
L16582 55754
L16563 55829
L16544 55867
L16507 55904
L16451 55923
L16357 55923
" />
<path d="M16732 55567
L16751 55548
L16788 55529
L16882 55529
L16919 55548
L16938 55567
L16957 55604
L16957 55642
L16938 55698
L16713 55923
L16957 55923
" />
<path d="M17962 56443
L17962 56049
" />
<path d="M18187 56443
L18018 56218
" />
<path d="M18187 56049
L17962 56274
" />
<path d="M17153 66885
L17153 66492
" />
<path d="M17565 66885
L17434 66698
" />
<path d="M17340 66885
L17340 66492
L17490 66492
L17528 66511
L17547 66529
L17565 66567
L17565 66623
L17547 66661
L17528 66679
L17490 66698
L17340 66698
" />
<path d="M17640 66923
L17940 66923
" />
<path d="M18015 66867
L18071 66885
L18165 66885
L18203 66867
L18221 66848
L18240 66810
L18240 66773
L18221 66735
L18203 66717
L18165 66698
L18090 66679
L18053 66661
L18034 66642
L18015 66604
L18015 66567
L18034 66529
L18053 66511
L18090 66492
L18184 66492
L18240 66511
" />
<path d="M18409 66679
L18540 66679
" />
<path d="M18596 66885
L18409 66885
L18409 66492
L18596 66492
" />
<path d="M18765 66885
L18765 66492
L18990 66885
L18990 66492
" />
<path d="M19159 66867
L19215 66885
L19309 66885
L19346 66867
L19365 66848
L19384 66810
L19384 66773
L19365 66735
L19346 66717
L19309 66698
L19234 66679
L19196 66661
L19178 66642
L19159 66604
L19159 66567
L19178 66529
L19196 66511
L19234 66492
L19328 66492
L19384 66511
" />
<path d="M19628 66492
L19703 66492
L19740 66511
L19778 66548
L19796 66623
L19796 66754
L19778 66829
L19740 66867
L19703 66885
L19628 66885
L19590 66867
L19553 66829
L19534 66754
L19534 66623
L19553 66548
L19590 66511
L19628 66492
" />
<path d="M20190 66885
L20059 66698
" />
<path d="M19965 66885
L19965 66492
L20115 66492
L20152 66511
L20171 66529
L20190 66567
L20190 66623
L20171 66661
L20152 66679
L20115 66698
L19965 66698
" />
<path d="M20565 66885
L20340 66885
" />
<path d="M20452 66885
L20452 66492
L20415 66548
L20377 66586
L20340 66604
" />
<path d="M20268 49429
L20268 49710
L20250 49766
L20212 49804
L20156 49822
L20118 49822
" />
<path d="M20662 49822
L20437 49822
" />
<path d="M20549 49822
L20549 49429
L20512 49485
L20474 49523
L20437 49541
" />
<path d="M11729 80131
L12010 80131
L12066 80149
L12104 80187
L12122 80243
L12122 80281
" />
<path d="M11766 79962
L11748 79943
L11729 79906
L11729 79812
L11748 79775
L11766 79756
L11804 79737
L11841 79737
L11898 79756
L12122 79981
L12122 79737
" />
<path d="M24659 58870
L24659 58476
L24809 58476
L24846 58495
L24865 58514
L24884 58551
L24884 58607
L24865 58645
L24846 58664
L24809 58682
L24659 58682
" />
<path d="M25259 58870
L25034 58870
" />
<path d="M25146 58870
L25146 58476
L25109 58532
L25071 58570
L25034 58589
" />
<path d="M15570 48940
L15176 48940
L15176 48790
L15195 48753
L15214 48734
L15251 48715
L15307 48715
L15345 48734
L15364 48753
L15382 48790
L15382 48940
" />
<path d="M15214 48565
L15195 48546
L15176 48509
L15176 48415
L15195 48378
L15214 48359
L15251 48340
L15289 48340
L15345 48359
L15570 48584
L15570 48340
" />
<path d="M22020 46590
L21626 46590
L21626 46440
L21645 46403
L21664 46384
L21701 46365
L21757 46365
L21795 46384
L21814 46403
L21832 46440
L21832 46590
" />
<path d="M21626 46234
L21626 45990
L21776 46121
L21776 46065
L21795 46028
L21814 46009
L21851 45990
L21945 45990
L21982 46009
L22001 46028
L22020 46065
L22020 46178
L22001 46215
L21982 46234
" />
<path d="M31778 85640
L31384 85640
L31384 85490
L31403 85453
L31421 85434
L31459 85415
L31515 85415
L31553 85434
L31571 85453
L31590 85490
L31590 85640
" />
<path d="M31515 85078
L31778 85078
" />
<path d="M31365 85171
L31646 85265
L31646 85021
" />
<path d="M31828 80640
L31434 80640
L31434 80490
L31453 80453
L31471 80434
L31509 80415
L31565 80415
L31603 80434
L31621 80453
L31640 80490
L31640 80640
" />
<path d="M31434 80059
L31434 80246
L31621 80265
L31603 80246
L31584 80209
L31584 80115
L31603 80078
L31621 80059
L31659 80040
L31753 80040
L31790 80059
L31809 80078
L31828 80115
L31828 80209
L31809 80246
L31790 80265
" />
<path d="M11220 48940
L10826 48940
L10826 48790
L10845 48753
L10864 48734
L10901 48715
L10957 48715
L10995 48734
L11014 48753
L11032 48790
L11032 48940
" />
<path d="M10826 48378
L10826 48453
L10845 48490
L10864 48509
L10920 48546
L10995 48565
L11145 48565
L11182 48546
L11201 48528
L11220 48490
L11220 48415
L11201 48378
L11182 48359
L11145 48340
L11051 48340
L11014 48359
L10995 48378
L10976 48415
L10976 48490
L10995 48528
L11014 48546
L11051 48565
" />
<path d="M18940 68837
L18922 68874
L18884 68912
L18828 68968
L18809 69006
L18809 69043
" />
<path d="M18903 69024
L18884 69062
L18847 69099
L18772 69118
L18640 69118
L18565 69099
L18528 69062
L18509 69024
L18509 68949
L18528 68912
L18565 68874
L18640 68856
L18772 68856
L18847 68874
L18884 68912
L18903 68949
L18903 69024
" />
<path d="M18903 68481
L18903 68706
" />
<path d="M18903 68593
L18509 68593
L18565 68631
L18603 68668
L18622 68706
" />
<path d="M16612 70465
L16575 70446
L16537 70409
L16481 70353
L16443 70334
L16406 70334
" />
<path d="M16425 70428
L16387 70409
L16350 70371
L16331 70296
L16331 70165
L16350 70090
L16387 70053
L16425 70034
L16500 70034
L16537 70053
L16575 70090
L16593 70165
L16593 70296
L16575 70371
L16537 70409
L16500 70428
L16425 70428
" />
<path d="M16743 70071
L16762 70053
L16799 70034
L16893 70034
L16931 70053
L16949 70071
L16968 70109
L16968 70146
L16949 70203
L16724 70428
L16968 70428
" />
<path d="M21565 84987
L21546 85024
L21509 85062
L21453 85118
L21434 85156
L21434 85193
" />
<path d="M21528 85174
L21509 85212
L21471 85249
L21396 85268
L21265 85268
L21190 85249
L21153 85212
L21134 85174
L21134 85099
L21153 85062
L21190 85024
L21265 85006
L21396 85006
L21471 85024
L21509 85062
L21528 85099
L21528 85174
" />
<path d="M21134 84875
L21134 84631
L21284 84762
L21284 84706
L21303 84668
L21321 84650
L21359 84631
L21453 84631
L21490 84650
L21509 84668
L21528 84706
L21528 84818
L21509 84856
L21490 84875
" />
<path d="M19662 85465
L19625 85446
L19587 85409
L19531 85353
L19493 85334
L19456 85334
" />
<path d="M19475 85428
L19437 85409
L19400 85371
L19381 85296
L19381 85165
L19400 85090
L19437 85053
L19475 85034
L19550 85034
L19587 85053
L19625 85090
L19643 85165
L19643 85296
L19625 85371
L19587 85409
L19550 85428
L19475 85428
" />
<path d="M19981 85165
L19981 85428
" />
<path d="M19887 85015
L19793 85296
L20037 85296
" />
<path d="M12962 85165
L12925 85146
L12887 85109
L12831 85053
L12793 85034
L12756 85034
" />
<path d="M12775 85128
L12737 85109
L12700 85071
L12681 84996
L12681 84865
L12700 84790
L12737 84753
L12775 84734
L12850 84734
L12887 84753
L12925 84790
L12943 84865
L12943 84996
L12925 85071
L12887 85109
L12850 85128
L12775 85128
" />
<path d="M13299 84734
L13112 84734
L13093 84921
L13112 84903
L13149 84884
L13243 84884
L13281 84903
L13299 84921
L13318 84959
L13318 85053
L13299 85090
L13281 85109
L13243 85128
L13149 85128
L13112 85109
L13093 85090
" />
</g>
<g style="fill:#000000; fill-opacity:0.0; 
stroke:#000000; stroke-width:120; stroke-opacity:1; 
stroke-linecap:round; stroke-linejoin:round;">
</g>
<g style="fill:#000000; fill-opacity:0.0; 
stroke:#000000; stroke-width:112.5; stroke-opacity:1; 
stroke-linecap:round; stroke-linejoin:round;">
<path d="M20157 79242
L20221 79271
L20328 79271
L20371 79242
L20392 79214
L20414 79157
L20414 79100
L20392 79042
L20371 79014
L20328 78985
L20242 78957
L20200 78928
L20178 78900
L20157 78842
L20157 78785
L20178 78728
L20200 78700
L20242 78671
L20350 78671
L20414 78700
" />
<path d="M20842 79271
L20585 79271
" />
<path d="M20714 79271
L20714 78671
L20671 78757
L20628 78814
L20585 78842
" />
</g>
<g style="fill:#000000; fill-opacity:0.0; 
stroke:#000000; stroke-width:120; stroke-opacity:1; 
stroke-linecap:round; stroke-linejoin:round;">
</g>
<g style="fill:#000000; fill-opacity:0.0; 
stroke:#000000; stroke-width:112.5; stroke-opacity:1; 
stroke-linecap:round; stroke-linejoin:round;">
<path d="M14067 77671
L14367 77671
L14175 78271
" />
<path d="M14517 78242
L14582 78271
L14689 78271
L14732 78242
L14753 78214
L14774 78157
L14774 78100
L14753 78042
L14732 78014
L14689 77985
L14603 77957
L14560 77928
L14539 77900
L14517 77842
L14517 77785
L14539 77728
L14560 77700
L14603 77671
L14710 77671
L14774 77700
" />
<path d="M14967 77957
L15117 77957
" />
<path d="M15182 78271
L14967 78271
L14967 77671
L15182 77671
" />
<path d="M15610 77700
L15567 77671
L15503 77671
L15439 77700
L15396 77757
L15374 77814
L15353 77928
L15353 78014
L15374 78128
L15396 78185
L15439 78242
L15503 78271
L15546 78271
L15610 78242
L15632 78214
L15632 78014
L15546 78014
" />
<path d="M15824 78271
L15824 77671
L15974 78100
L16124 77671
L16124 78271
" />
<path d="M16232 78328
L16574 78328
" />
<path d="M16939 78214
L16917 78242
L16853 78271
L16810 78271
L16746 78242
L16703 78185
L16682 78128
L16660 78014
L16660 77928
L16682 77814
L16703 77757
L16746 77700
L16810 77671
L16853 77671
L16917 77700
L16939 77728
" />
<path d="M17217 77671
L17303 77671
L17346 77700
L17389 77757
L17410 77871
L17410 78071
L17389 78185
L17346 78242
L17303 78271
L17217 78271
L17174 78242
L17132 78185
L17110 78071
L17110 77871
L17132 77757
L17174 77700
L17217 77671
" />
<path d="M17603 78271
L17603 77671
L17753 78100
L17903 77671
L17903 78271
" />
<path d="M18117 78271
L18117 77671
L18267 78100
L18417 77671
L18417 78271
" />
<path d="M18717 77671
L18803 77671
L18846 77700
L18889 77757
L18910 77871
L18910 78071
L18889 78185
L18846 78242
L18803 78271
L18717 78271
L18675 78242
L18632 78185
L18610 78071
L18610 77871
L18632 77757
L18675 77700
L18717 77671
" />
<path d="M19103 78271
L19103 77671
L19360 78271
L19360 77671
" />
<path d="M19467 78328
L19810 78328
" />
<path d="M19896 78100
L20110 78100
" />
<path d="M19853 78271
L20003 77671
L20153 78271
" />
<path d="M20303 78271
L20303 77671
L20560 78271
L20560 77671
" />
<path d="M20860 77671
L20946 77671
L20989 77700
L21032 77757
L21053 77871
L21053 78071
L21032 78185
L20989 78242
L20946 78271
L20860 78271
L20817 78242
L20775 78185
L20753 78071
L20753 77871
L20775 77757
L20817 77700
L20860 77671
" />
<path d="M21246 78271
L21246 77671
L21353 77671
L21417 77700
L21460 77757
L21482 77814
L21503 77928
L21503 78014
L21482 78128
L21460 78185
L21417 78242
L21353 78271
L21246 78271
" />
<path d="M21696 77957
L21846 77957
" />
<path d="M21910 78271
L21696 78271
L21696 77671
L21910 77671
" />
</g>
<g style="fill:#000000; fill-opacity:0.0; 
stroke:#000000; stroke-width:120; stroke-opacity:1; 
stroke-linecap:round; stroke-linejoin:round;">
</g>
<g style="fill:#000000; fill-opacity:0.0; 
stroke:#000000; stroke-width:59.0551; stroke-opacity:1; 
stroke-linecap:round; stroke-linejoin:round;">
<path d="M16350 72734
L16350 73053
L16368 73090
L16387 73109
L16425 73128
L16500 73128
L16537 73109
L16556 73090
L16575 73053
L16575 72734
" />
<path d="M16968 73128
L16743 73128
" />
<path d="M16856 73128
L16856 72734
L16818 72790
L16781 72828
L16743 72846
" />
<path d="M14484 69849
L14803 69849
L14840 69831
L14859 69812
L14878 69774
L14878 69699
L14859 69662
L14840 69643
L14803 69624
L14484 69624
" />
<path d="M14521 69456
L14503 69437
L14484 69400
L14484 69306
L14503 69268
L14521 69250
L14559 69231
L14596 69231
L14653 69250
L14878 69475
L14878 69231
" />
<path d="M23050 69084
L23050 69403
L23068 69440
L23087 69459
L23125 69478
L23200 69478
L23237 69459
L23256 69440
L23275 69403
L23275 69084
" />
<path d="M23424 69084
L23668 69084
L23537 69234
L23593 69234
L23631 69253
L23649 69271
L23668 69309
L23668 69403
L23649 69440
L23631 69459
L23593 69478
L23481 69478
L23443 69459
L23424 69440
" />
<path d="M27400 69034
L27400 69353
L27418 69390
L27437 69409
L27475 69428
L27550 69428
L27587 69409
L27606 69390
L27625 69353
L27625 69034
" />
<path d="M27981 69165
L27981 69428
" />
<path d="M27887 69015
L27793 69296
L28037 69296
" />
<path d="M20249 54876
L20249 55007
" />
<path d="M20456 55007
L20062 55007
L20062 54819
" />
<path d="M20249 54538
L20268 54482
L20287 54463
L20324 54444
L20381 54444
L20418 54463
L20437 54482
L20456 54519
L20456 54669
L20062 54669
L20062 54538
L20081 54501
L20099 54482
L20137 54463
L20174 54463
L20212 54482
L20231 54501
L20249 54538
L20249 54669
" />
<path d="M20456 54069
L20456 54294
" />
<path d="M20456 54182
L20062 54182
L20118 54219
L20156 54257
L20174 54294
" />
<path d="M27449 57126
L27449 57257
" />
<path d="M27656 57257
L27262 57257
L27262 57069
" />
<path d="M27449 56788
L27468 56732
L27487 56713
L27524 56694
L27581 56694
L27618 56713
L27637 56732
L27656 56769
L27656 56919
L27262 56919
L27262 56788
L27281 56751
L27299 56732
L27337 56713
L27374 56713
L27412 56732
L27431 56751
L27449 56788
L27449 56919
" />
<path d="M27299 56544
L27281 56526
L27262 56488
L27262 56394
L27281 56357
L27299 56338
L27337 56319
L27374 56319
L27431 56338
L27656 56563
L27656 56319
" />
<path d="M24021 85428
L24021 85559
" />
<path d="M24228 85559
L23834 85559
L23834 85371
" />
<path d="M24021 85090
L24040 85034
L24059 85015
L24096 84996
L24153 84996
L24190 85015
L24209 85034
L24228 85071
L24228 85221
L23834 85221
L23834 85090
L23853 85053
L23871 85034
L23909 85015
L23946 85015
L23984 85034
L24003 85053
L24021 85090
L24021 85221
" />
<path d="M23834 84865
L23834 84621
L23984 84753
L23984 84696
L24003 84659
L24021 84640
L24059 84621
L24153 84621
L24190 84640
L24209 84659
L24228 84696
L24228 84809
L24209 84846
L24190 84865
" />
<path d="M24593 50030
L24593 50161
" />
<path d="M24800 50161
L24406 50161
L24406 49973
" />
<path d="M24593 49692
L24612 49636
L24631 49617
L24668 49598
L24725 49598
L24762 49617
L24781 49636
L24800 49673
L24800 49823
L24406 49823
L24406 49692
L24425 49655
L24443 49636
L24481 49617
L24518 49617
L24556 49636
L24575 49655
L24593 49692
L24593 49823
" />
<path d="M24537 49261
L24800 49261
" />
<path d="M24387 49355
L24668 49448
L24668 49205
" />
<path d="M23293 50930
L23293 51061
" />
<path d="M23500 51061
L23106 51061
L23106 50873
" />
<path d="M23293 50592
L23312 50536
L23331 50517
L23368 50498
L23425 50498
L23462 50517
L23481 50536
L23500 50573
L23500 50723
L23106 50723
L23106 50592
L23125 50555
L23143 50536
L23181 50517
L23218 50517
L23256 50536
L23275 50555
L23293 50592
L23293 50723
" />
<path d="M23106 50142
L23106 50330
L23293 50348
L23275 50330
L23256 50292
L23256 50198
L23275 50161
L23293 50142
L23331 50123
L23425 50123
L23462 50142
L23481 50161
L23500 50198
L23500 50292
L23481 50330
L23462 50348
" />
<path d="M17434 83028
L17303 82840
" />
<path d="M17209 83028
L17209 82634
L17359 82634
L17396 82653
L17415 82671
L17434 82709
L17434 82765
L17415 82803
L17396 82821
L17359 82840
L17209 82840
" />
<path d="M17809 83028
L17584 83028
" />
<path d="M17696 83028
L17696 82634
L17659 82690
L17621 82728
L17584 82746
" />
<path d="M21536 68006
L21405 67818
" />
<path d="M21311 68006
L21311 67612
L21461 67612
L21498 67631
L21517 67649
L21536 67687
L21536 67743
L21517 67781
L21498 67799
L21461 67818
L21311 67818
" />
<path d="M21686 67649
L21705 67631
L21742 67612
L21836 67612
L21873 67631
L21892 67649
L21911 67687
L21911 67724
L21892 67781
L21667 68006
L21911 68006
" />
<path d="M18456 60863
L18268 60994
" />
<path d="M18456 61088
L18062 61088
L18062 60938
L18081 60901
L18099 60882
L18137 60863
L18193 60863
L18231 60882
L18249 60901
L18268 60938
L18268 61088
" />
<path d="M18062 60732
L18062 60488
L18212 60619
L18212 60563
L18231 60526
L18249 60507
L18287 60488
L18381 60488
L18418 60507
L18437 60526
L18456 60563
L18456 60676
L18437 60713
L18418 60732
" />
<path d="M13632 65000
L13501 64812
" />
<path d="M13407 65000
L13407 64606
L13557 64606
L13594 64625
L13613 64643
L13632 64681
L13632 64737
L13613 64775
L13594 64793
L13557 64812
L13407 64812
" />
<path d="M13969 64737
L13969 65000
" />
<path d="M13876 64587
L13782 64868
L14026 64868
" />
<path d="M18956 53613
L18768 53744
" />
<path d="M18956 53838
L18562 53838
L18562 53688
L18581 53651
L18599 53632
L18637 53613
L18693 53613
L18731 53632
L18749 53651
L18768 53688
L18768 53838
" />
<path d="M18562 53257
L18562 53444
L18749 53463
L18731 53444
L18712 53407
L18712 53313
L18731 53276
L18749 53257
L18787 53238
L18881 53238
L18918 53257
L18937 53276
L18956 53313
L18956 53407
L18937 53444
L18918 53463
" />
<path d="M16234 84228
L16103 84040
" />
<path d="M16009 84228
L16009 83834
L16159 83834
L16196 83853
L16215 83871
L16234 83909
L16234 83965
L16215 84003
L16196 84021
L16159 84040
L16009 84040
" />
<path d="M16571 83834
L16496 83834
L16459 83853
L16440 83871
L16403 83928
L16384 84003
L16384 84153
L16403 84190
L16421 84209
L16459 84228
L16534 84228
L16571 84209
L16590 84190
L16609 84153
L16609 84059
L16590 84021
L16571 84003
L16534 83984
L16459 83984
L16421 84003
L16403 84021
L16384 84059
" />
<path d="M11578 82765
L11390 82896
" />
<path d="M11578 82990
L11184 82990
L11184 82840
L11203 82803
L11221 82784
L11259 82765
L11315 82765
L11353 82784
L11371 82803
L11390 82840
L11390 82990
" />
<path d="M11184 82634
L11184 82371
L11578 82540
" />
<path d="M30556 79163
L30368 79294
" />
<path d="M30556 79388
L30162 79388
L30162 79238
L30181 79201
L30199 79182
L30237 79163
L30293 79163
L30331 79182
L30349 79201
L30368 79238
L30368 79388
" />
<path d="M30331 78938
L30312 78976
L30293 78994
L30256 79013
L30237 79013
L30199 78994
L30181 78976
L30162 78938
L30162 78863
L30181 78826
L30199 78807
L30237 78788
L30256 78788
L30293 78807
L30312 78826
L30331 78863
L30331 78938
L30349 78976
L30368 78994
L30406 79013
L30481 79013
L30518 78994
L30537 78976
L30556 78938
L30556 78863
L30537 78826
L30518 78807
L30481 78788
L30406 78788
L30368 78807
L30349 78826
L30331 78863
" />
<path d="M11570 61193
L11382 61324
" />
<path d="M11570 61418
L11176 61418
L11176 61268
L11195 61231
L11214 61212
L11251 61193
L11307 61193
L11345 61212
L11364 61231
L11382 61268
L11382 61418
" />
<path d="M11551 60874
L11570 60912
L11570 60987
L11551 61024
L11513 61043
L11364 61043
L11326 61024
L11307 60987
L11307 60912
L11326 60874
L11364 60856
L11401 60856
L11438 61043
" />
<path d="M11307 60518
L11626 60518
L11663 60537
L11682 60556
L11701 60593
L11701 60649
L11682 60687
" />
<path d="M11551 60518
L11570 60556
L11570 60631
L11551 60668
L11532 60687
L11495 60706
L11382 60706
L11345 60687
L11326 60668
L11307 60631
L11307 60556
L11326 60518
" />
<path d="M11570 60125
L11570 60349
" />
<path d="M11570 60237
L11176 60237
L11232 60274
L11270 60312
L11289 60349
" />
<path d="M11214 59975
L11195 59956
L11176 59918
L11176 59825
L11195 59787
L11214 59768
L11251 59750
L11289 59750
L11345 59768
L11570 59993
L11570 59750
" />
<path d="M11157 59300
L11663 59637
" />
<path d="M11176 58981
L11176 59168
L11364 59187
L11345 59168
L11326 59131
L11326 59037
L11345 59000
L11364 58981
L11401 58962
L11495 58962
L11532 58981
L11551 59000
L11570 59037
L11570 59131
L11551 59168
L11532 59187
" />
</g> 
</svg>
