<?xml version="1.0" encoding="UTF-8" standalone="no"?>
<svg
   xmlns:dc="http://purl.org/dc/elements/1.1/"
   xmlns:cc="http://creativecommons.org/ns#"
   xmlns:rdf="http://www.w3.org/1999/02/22-rdf-syntax-ns#"
   xmlns:svg="http://www.w3.org/2000/svg"
   xmlns="http://www.w3.org/2000/svg"
   xmlns:sodipodi="http://sodipodi.sourceforge.net/DTD/sodipodi-0.dtd"
   xmlns:inkscape="http://www.inkscape.org/namespaces/inkscape"
   version="1.1"
   width="21.0007cm"
   height="29.7002cm"
   viewBox="0 0 82680 116930 "
   id="svg2"
   inkscape:version="0.91 r13725"
   sodipodi:docname="power_split-B_Cu.svg">
  <metadata
     id="metadata446">
    <rdf:RDF>
      <cc:Work
         rdf:about="">
        <dc:format>image/svg+xml</dc:format>
        <dc:type
           rdf:resource="http://purl.org/dc/dcmitype/StillImage" />
      </cc:Work>
    </rdf:RDF>
  </metadata>
  <defs
     id="defs444" />
  <sodipodi:namedview
     pagecolor="#ffffff"
     bordercolor="#666666"
     borderopacity="1"
     objecttolerance="10"
     gridtolerance="10"
     guidetolerance="10"
     inkscape:pageopacity="0"
     inkscape:pageshadow="2"
     inkscape:window-width="1920"
     inkscape:window-height="1016"
     id="namedview442"
     showgrid="false"
     inkscape:zoom="2.5371657"
     inkscape:cx="465.1375"
     inkscape:cy="539.43915"
     inkscape:window-x="0"
     inkscape:window-y="0"
     inkscape:window-maximized="1"
     inkscape:current-layer="svg2" />
  <title
     id="title4">SVG Picture created as power_split-B_Cu.svg date 2015/12/04 10:07:18 </title>
  <desc
     id="desc6">Picture generated by PCBNEW </desc>
  <g
     style="fill:#000000; fill-opacity:1;stroke:#000000; stroke-opacity:1; stroke-linecap:round; stroke-linejoin:round; "
     transform="translate(0 0) scale(1 1)"
     id="g8" />
  <g
     style="fill:#000000;fill-opacity:0;stroke:#000000;stroke-width:590.55102539;stroke-linecap:round;stroke-linejoin:round;stroke-opacity:1"
     id="g10"
     transform="translate(18827.717,4459.1966)">
    <path
       d="m 18000,57637 0,-275"
       id="path12"
       inkscape:connector-curvature="0" />
    <path
       d="m 17000,57637 0,-275"
       id="path14"
       inkscape:connector-curvature="0" />
    <path
       d="m 17000,48937 0,-275"
       id="path16"
       inkscape:connector-curvature="0" />
    <path
       d="m 18000,48937 0,-275"
       id="path18"
       inkscape:connector-curvature="0" />
  </g>
  <g
     style="fill:#000000;fill-opacity:0;stroke:#000000;stroke-width:700;stroke-linecap:round;stroke-linejoin:round;stroke-opacity:1"
     id="g20"
     transform="translate(18827.717,4459.1966)">
    <path
       d="m 19750,61190 0,-481"
       id="path22"
       inkscape:connector-curvature="0" />
    <path
       d="m 20750,61190 0,-481"
       id="path24"
       inkscape:connector-curvature="0" />
    <path
       d="m 21750,61190 0,-481"
       id="path26"
       inkscape:connector-curvature="0" />
  </g>
  <g
     style="fill:#000000; fill-opacity:0.0;  stroke:#000000; stroke-width:59.0551; stroke-opacity:1;  stroke-linecap:round; stroke-linejoin:round;"
     id="g28" />
  <g
     style="fill:#000000;fill-opacity:1;stroke:#000000;stroke-width:59.05509949;stroke-linecap:round;stroke-linejoin:round;stroke-opacity:1"
     id="g30"
     transform="translate(18827.717,4459.1966)">
    <circle
       cx="21000"
       cy="51500"
       r="270.47198"
       id="circle32" />
    <circle
       cx="21000"
       cy="55500"
       r="270.47198"
       id="circle34" />
    <circle
       cx="26600"
       cy="59300"
       r="270.47198"
       id="circle36" />
    <circle
       cx="22600"
       cy="59300"
       r="270.47198"
       id="circle38" />
    <circle
       cx="23800"
       cy="60900"
       r="314.97198"
       id="circle40" />
    <circle
       cx="25050"
       cy="60900"
       r="314.97198"
       id="circle42" />
    <circle
       cx="26300"
       cy="60900"
       r="314.97198"
       id="circle44" />
    <circle
       cx="15700"
       cy="59000"
       r="270.47198"
       id="circle46" />
    <circle
       cx="19700"
       cy="59000"
       r="270.47198"
       id="circle48" />
    <circle
       cx="23000"
       cy="45250"
       r="270.47198"
       id="circle50" />
    <circle
       cx="23000"
       cy="49250"
       r="270.47198"
       id="circle52" />
    <circle
       cx="28800"
       cy="44300"
       r="270.47198"
       id="circle54" />
    <circle
       cx="28800"
       cy="48300"
       r="270.47198"
       id="circle56" />
    <circle
       cx="21500"
       cy="44250"
       r="270.47198"
       id="circle58" />
    <circle
       cx="21500"
       cy="48250"
       r="270.47198"
       id="circle60" />
  </g>
  <g
     style="fill:#000000;fill-opacity:1;stroke:#000000;stroke-width:590.55102539;stroke-linecap:round;stroke-linejoin:round;stroke-opacity:1"
     id="g62"
     transform="translate(18827.717,4459.1966)">
    <path
       d="m 22862,57500 275,0"
       id="path64"
       inkscape:connector-curvature="0" />
    <path
       d="m 22862,55500 275,0"
       id="path66"
       inkscape:connector-curvature="0" />
    <path
       d="m 22862,54500 275,0"
       id="path68"
       inkscape:connector-curvature="0" />
  </g>
  <g
     style="fill:#000000;fill-opacity:1;stroke:#000000;stroke-width:59.05509949;stroke-linecap:round;stroke-linejoin:round;stroke-opacity:1"
     id="g70"
     transform="translate(18827.717,4459.1966)">
    <polyline
       style="fill-rule:evenodd"
       points="21745,49504 21745,49995 21254,49995 21254,49504 21745,49504 "
       id="polyline72" />
    <circle
       cx="20500"
       cy="49750"
       r="245.472"
       id="circle74" />
  </g>
  <g
     style="fill:#000000;fill-opacity:1;stroke:#000000;stroke-width:620;stroke-linecap:round;stroke-linejoin:round;stroke-opacity:1"
     id="g76"
     transform="translate(18827.717,4459.1966)">
    <path
       d="m 24590,50500 -280,0"
       id="path78"
       inkscape:connector-curvature="0" />
    <path
       d="m 24590,51500 -280,0"
       id="path80"
       inkscape:connector-curvature="0" />
    <path
       d="m 24590,54500 -280,0"
       id="path82"
       inkscape:connector-curvature="0" />
    <path
       d="m 24590,57500 -280,0"
       id="path84"
       inkscape:connector-curvature="0" />
    <path
       d="m 24590,44500 -280,0"
       id="path86"
       inkscape:connector-curvature="0" />
    <path
       d="m 27590,56500 -280,0"
       id="path88"
       inkscape:connector-curvature="0" />
    <path
       d="m 27590,52500 -280,0"
       id="path90"
       inkscape:connector-curvature="0" />
    <path
       d="m 27590,51500 -280,0"
       id="path92"
       inkscape:connector-curvature="0" />
    <path
       d="m 27590,50500 -280,0"
       id="path94"
       inkscape:connector-curvature="0" />
    <path
       d="m 27590,46500 -280,0"
       id="path96"
       inkscape:connector-curvature="0" />
  </g>
  <g
     style="fill:#000000;fill-opacity:1;stroke:#000000;stroke-width:59.05509949;stroke-linecap:round;stroke-linejoin:round;stroke-opacity:1"
     id="g98"
     transform="translate(18827.717,4459.1966)">
    <circle
       cx="18350"
       cy="43000"
       r="245.472"
       id="circle100" />
    <circle
       cx="16350"
       cy="43000"
       r="245.472"
       id="circle102" />
    <circle
       cx="23000"
       cy="51000"
       r="245.472"
       id="circle104" />
    <circle
       cx="23000"
       cy="53000"
       r="245.472"
       id="circle106" />
    <circle
       cx="28800"
       cy="49500"
       r="245.472"
       id="circle108" />
    <circle
       cx="28800"
       cy="51500"
       r="245.472"
       id="circle110" />
    <polyline
       style="fill-rule:evenodd"
       points="22220,63279 22220,64220 21279,64220 21279,63279 22220,63279 "
       id="polyline112" />
    <polyline
       style="fill-rule:evenodd"
       points="20220,63279 20220,64220 19279,64220 19279,63279 20220,63279 "
       id="polyline114" />
    <polyline
       style="fill-rule:evenodd"
       points="16329,60479 17270,60479 17270,61420 16329,61420 16329,60479 "
       id="polyline116" />
    <polyline
       style="fill-rule:evenodd"
       points="16329,62479 17270,62479 17270,63420 16329,63420 16329,62479 "
       id="polyline118" />
    <circle
       cx="23850"
       cy="63750"
       r="470.47198"
       id="circle120" />
    <circle
       cx="25850"
       cy="63750"
       r="470.47198"
       id="circle122" />
    <polyline
       style="fill-rule:evenodd"
       points="21206,56793 21206,57206 20793,57206 20793,56793 21206,56793 "
       id="polyline124" />
    <circle
       cx="21000"
       cy="57795.301"
       r="206.69299"
       id="circle126" />
    <polyline
       style="fill-rule:evenodd"
       points="29624,58540 29624,59190 28975,59190 28975,58540 29624,58540 "
       id="polyline128" />
    <circle
       cx="29300"
       cy="60834.301"
       r="324.80301"
       id="circle130" />
    <circle
       cx="28000"
       cy="63750"
       r="470.47198"
       id="circle132" />
    <circle
       cx="30000"
       cy="63750"
       r="470.47198"
       id="circle134" />
    <polyline
       style="fill-rule:evenodd"
       points="16786,45175 17435,45175 17435,45824 16786,45824 16786,45175 "
       id="polyline136" />
    <circle
       cx="18489"
       cy="45500"
       r="324.80301"
       id="circle138" />
  </g>
  <g
     style="fill:#000000;fill-opacity:1;stroke:#000000;stroke-width:590.55102539;stroke-linecap:round;stroke-linejoin:round;stroke-opacity:1"
     id="g140"
     transform="translate(18827.717,4459.1966)">
    <path
       d="m 19525,42862 0,275"
       id="path142"
       inkscape:connector-curvature="0" />
    <path
       d="m 20525,42862 0,275"
       id="path144"
       inkscape:connector-curvature="0" />
    <path
       d="m 22525,42862 0,275"
       id="path146"
       inkscape:connector-curvature="0" />
    <path
       d="m 29137,53500 -275,0"
       id="path148"
       inkscape:connector-curvature="0" />
    <path
       d="m 29137,54500 -275,0"
       id="path150"
       inkscape:connector-curvature="0" />
    <path
       d="m 29137,56500 -275,0"
       id="path152"
       inkscape:connector-curvature="0" />
  </g>
  <g
     style="fill:#000000;fill-opacity:1;stroke:#000000;stroke-width:196.8500061;stroke-linecap:round;stroke-linejoin:round;stroke-opacity:1"
     id="g154"
     transform="translate(18827.717,4459.1966)">
    <path
       d="m 17000,57500 0,200"
       id="path156"
       inkscape:connector-curvature="0" />
    <path
       d="m 17000,57700 -1300,1300"
       id="path158"
       inkscape:connector-curvature="0" />
    <path
       d="m 17000,57500 0,3250"
       id="path160"
       inkscape:connector-curvature="0" />
    <path
       d="m 17000,60750 -200,200"
       id="path162"
       inkscape:connector-curvature="0" />
    <path
       d="m 24450,54500 850,0"
       id="path164"
       inkscape:connector-curvature="0" />
    <path
       d="m 25900,58600 700,700"
       id="path166"
       inkscape:connector-curvature="0" />
    <path
       d="m 25900,55100 0,3500"
       id="path168"
       inkscape:connector-curvature="0" />
    <path
       d="m 25300,54500 600,600"
       id="path170"
       inkscape:connector-curvature="0" />
    <path
       d="m 29000,53500 0,-50"
       id="path172"
       inkscape:connector-curvature="0" />
    <path
       d="m 29000,53450 1550,-1550"
       id="path174"
       inkscape:connector-curvature="0" />
    <path
       d="m 29300,58865 0,-65"
       id="path176"
       inkscape:connector-curvature="0" />
    <path
       d="M 30550,46050 28800,44300"
       id="path178"
       inkscape:connector-curvature="0" />
    <path
       d="m 30550,57550 0,-5650"
       id="path180"
       inkscape:connector-curvature="0" />
    <path
       d="m 30550,51900 0,-5850"
       id="path182"
       inkscape:connector-curvature="0" />
    <path
       d="m 29300,58800 1250,-1250"
       id="path184"
       inkscape:connector-curvature="0" />
    <path
       d="m 21000,51500 -2200,0"
       id="path186"
       inkscape:connector-curvature="0" />
    <path
       d="m 17000,49700 0,-900"
       id="path188"
       inkscape:connector-curvature="0" />
    <path
       d="M 18800,51500 17000,49700"
       id="path190"
       inkscape:connector-curvature="0" />
    <path
       d="m 19525,43000 0,-175"
       id="path192"
       inkscape:connector-curvature="0" />
    <path
       d="m 26225,41725 2575,2575"
       id="path194"
       inkscape:connector-curvature="0" />
    <path
       d="m 20625,41725 5600,0"
       id="path196"
       inkscape:connector-curvature="0" />
    <path
       d="m 19525,42825 1100,-1100"
       id="path198"
       inkscape:connector-curvature="0" />
    <path
       d="m 18361,44250 0,-12"
       id="path200"
       inkscape:connector-curvature="0" />
    <path
       d="m 18361,44238 1239,-1238"
       id="path202"
       inkscape:connector-curvature="0" />
    <path
       d="m 21500,44250 -3139,0"
       id="path204"
       inkscape:connector-curvature="0" />
    <path
       d="m 18361,44250 -1250,1250"
       id="path206"
       inkscape:connector-curvature="0" />
    <path
       d="m 17000,48800 0,-3189"
       id="path208"
       inkscape:connector-curvature="0" />
    <path
       d="m 17000,45611 111,-111"
       id="path210"
       inkscape:connector-curvature="0" />
    <path
       d="m 19600,43000 -50,0"
       id="path212"
       inkscape:connector-curvature="0" />
    <path
       d="m 19550,43000 -1200,0"
       id="path214"
       inkscape:connector-curvature="0" />
    <path
       d="m 21500,44250 500,0"
       id="path216"
       inkscape:connector-curvature="0" />
    <path
       d="m 22000,44250 1000,1000"
       id="path218"
       inkscape:connector-curvature="0" />
    <path
       d="m 21500,44250 1150,0"
       id="path220"
       inkscape:connector-curvature="0" />
    <path
       d="m 22650,44250 1550,0"
       id="path222"
       inkscape:connector-curvature="0" />
    <path
       d="m 24200,44250 250,250"
       id="path224"
       inkscape:connector-curvature="0" />
    <path
       d="m 24450,57500 -1450,0"
       id="path226"
       inkscape:connector-curvature="0" />
    <path
       d="m 27450,56500 1550,0"
       id="path228"
       inkscape:connector-curvature="0" />
    <path
       d="m 22525,43000 475,0"
       id="path230"
       inkscape:connector-curvature="0" />
    <path
       d="m 23750,43000 950,0"
       id="path232"
       inkscape:connector-curvature="0" />
    <path
       d="m 24700,43000 1350,1350"
       id="path234"
       inkscape:connector-curvature="0" />
    <path
       d="m 27000,46500 450,0"
       id="path236"
       inkscape:connector-curvature="0" />
    <path
       d="m 26050,45550 0,-1200"
       id="path238"
       inkscape:connector-curvature="0" />
    <path
       d="m 27000,46500 -950,-950"
       id="path240"
       inkscape:connector-curvature="0" />
    <path
       d="m 23000,43000 750,0"
       id="path242"
       inkscape:connector-curvature="0" />
    <path
       d="m 21500,48250 0,1500"
       id="path244"
       inkscape:connector-curvature="0" />
    <path
       d="m 24450,50500 -950,0"
       id="path246"
       inkscape:connector-curvature="0" />
    <path
       d="m 23500,50500 -500,500"
       id="path248"
       inkscape:connector-curvature="0" />
    <path
       d="m 23000,49250 0,1750"
       id="path250"
       inkscape:connector-curvature="0" />
    <path
       d="m 22600,59300 1650,0"
       id="path252"
       inkscape:connector-curvature="0" />
    <path
       d="m 25050,60100 0,800"
       id="path254"
       inkscape:connector-curvature="0" />
    <path
       d="m 24250,59300 800,800"
       id="path256"
       inkscape:connector-curvature="0" />
    <path
       d="m 21000,57000 500,0"
       id="path258"
       inkscape:connector-curvature="0" />
    <path
       d="m 21500,57000 1500,-1500"
       id="path260"
       inkscape:connector-curvature="0" />
    <path
       d="m 23000,55500 -2000,0"
       id="path262"
       inkscape:connector-curvature="0" />
    <path
       d="m 27450,52500 350,0"
       id="path264"
       inkscape:connector-curvature="0" />
    <path
       d="m 27800,52500 1000,-1000"
       id="path266"
       inkscape:connector-curvature="0" />
    <path
       d="m 27450,51500 1350,0"
       id="path268"
       inkscape:connector-curvature="0" />
    <path
       d="m 28800,48300 250,0"
       id="path270"
       inkscape:connector-curvature="0" />
    <path
       d="m 29650,50650 -850,850"
       id="path272"
       inkscape:connector-curvature="0" />
    <path
       d="m 29650,48900 0,1750"
       id="path274"
       inkscape:connector-curvature="0" />
    <path
       d="m 29050,48300 600,600"
       id="path276"
       inkscape:connector-curvature="0" />
    <path
       d="m 19700,59000 800,0"
       id="path278"
       inkscape:connector-curvature="0" />
    <path
       d="m 21750,60250 0,700"
       id="path280"
       inkscape:connector-curvature="0" />
    <path
       d="m 20500,59000 1250,1250"
       id="path282"
       inkscape:connector-curvature="0" />
    <path
       d="m 23800,60900 -2000,0"
       id="path284"
       inkscape:connector-curvature="0" />
    <path
       d="m 21800,60900 -50,50"
       id="path286"
       inkscape:connector-curvature="0" />
  </g>
  <g
     style="fill:#000000;fill-opacity:1;stroke:#000000;stroke-width:59.05509949;stroke-linecap:round;stroke-linejoin:round;stroke-opacity:1"
     id="g288"
     transform="translate(18827.717,4459.1966)">
    <polyline
       style="fill-rule:evenodd"
       points="31100,65400 30895,65400 30895,57550 30895,51900 30895,51900 30895,46050 30868,45917 30868,45917 30839,45873 30794,45805 30794,45805 30511,45522 30511,42326 30511,42275 30511,42223 30511,42222 30511,42222 30511,42222 30473,42031 30433,41935 30433,41935 30325,41773 30325,41773 30251,41699 30089,41591 30089,41591 29993,41551 29801,41513 29697,41513 29696,41513 29506,41551 29410,41591 29410,41591 29248,41699 29248,41699 29174,41773 29066,41935 29066,41935 29026,42031 28988,42223 28988,42275 28988,42326 29026,42518 29066,42614 29066,42614 29174,42776 29248,42850 29248,42850 29410,42958 29410,42958 29506,42998 29696,43036 29697,43036 29801,43036 29993,42998 30089,42958 30089,42958 30251,42850 30325,42776 30325,42776 30433,42614 30433,42614 30473,42518 30511,42327 30511,42327 30511,42327 30511,42326 30511,45522 29346,44358 29346,44191 29263,43990 29110,43836 28909,43753 28741,43753 26469,41480 26357,41406 26225,41379 20625,41379 20492,41406 20380,41480 20380,41480 19549,42311 19525,42306 19317,42348 19141,42465 19024,42641 19021,42654 18742,42654 18645,42557 18454,42478 18246,42478 18054,42557 17907,42704 17828,42895 17828,43103 17907,43295 18054,43442 18245,43521 18453,43521 18645,43442 18742,43345 18766,43345 18116,43994 18094,44028 17223,44898 16707,44898 16617,44936 16547,45005 16509,45096 16509,45194 16509,45903 16547,45993 16616,46063 16654,46079 16654,48240 16616,48265 16499,48441 16457,48648 16457,48951 16499,49158 16616,49334 16654,49359 16654,49700 16681,49832 16755,49944 18555,51744 18555,51744 18623,51789 18667,51818 18667,51818 18800,51845 20571,51845 20689,51963 20890,52046 21108,52046 21309,51963 21463,51810 21546,51609 21546,51391 21463,51190 21310,51036 21109,50953 20891,50953 20690,51036 20571,51154 18943,51154 17345,49556 17345,49359 17383,49334 17500,49158 17542,48951 17542,48648 17500,48441 17383,48265 17345,48240 17345,46101 17514,46101 17605,46063 17674,45994 17712,45903 17712,45805 17712,45387 18504,44595 21071,44595 21189,44713 21390,44796 21608,44796 21809,44713 21892,44630 22453,45191 22453,45358 22536,45559 22689,45713 22890,45796 23108,45796 23309,45713 23463,45560 23546,45359 23546,45141 23463,44940 23310,44786 23109,44703 22941,44703 22833,44595 23758,44595 23781,44713 23902,44893 24083,45014 24296,45056 24603,45056 24816,45014 24997,44893 25118,44713 25160,44500 25118,44286 24997,44106 24816,43985 24603,43943 24350,43943 24332,43931 24200,43904 22650,43904 22000,43904 21928,43904 21810,43786 21609,43703 21391,43703 21190,43786 21071,43904 19183,43904 19416,43671 19525,43693 19732,43651 19908,43534 20025,43358 20067,43151 20067,42848 20054,42784 20768,42070 26081,42070 28253,44241 28253,44408 28336,44609 28489,44763 28690,44846 28858,44846 30204,46193 30204,51756 29995,51966 29995,50650 29995,48900 29968,48767 29968,48767 29939,48723 29894,48655 29894,48655 29294,48055 29289,48052 29263,47990 29110,47836 28909,47753 28691,47753 28490,47836 28336,47989 28253,48190 28253,48408 28336,48609 28489,48763 28690,48846 28908,48846 29050,48788 29304,49043 29304,50506 28833,50978 28696,50978 28504,51057 28407,51154 28160,51154 28160,46500 28118,46286 27997,46106 27816,45985 27603,45943 27296,45943 27083,45985 27017,46029 26395,45406 26395,44350 26368,44217 26368,44217 26339,44173 26294,44105 26294,44105 24944,42755 24832,42681 24700,42654 23750,42654 23028,42654 23025,42641 22908,42465 22732,42348 22525,42306 22317,42348 22141,42465 22024,42641 21982,42848 21982,43151 22024,43358 22141,43534 22317,43651 22525,43693 22732,43651 22908,43534 23025,43358 23028,43345 23750,43345 24556,43345 25704,44493 25704,45550 25731,45682 25805,45794 26755,46744 26755,46744 26823,46789 26840,46800 26840,46800 26902,46893 27083,47014 27296,47056 27603,47056 27816,47014 27997,46893 28118,46713 28160,46500 28160,51154 28029,51154 27997,51106 27816,50985 27603,50943 27296,50943 27083,50985 26902,51106 26781,51286 26739,51500 26781,51713 26902,51893 27061,52000 26902,52106 26781,52286 26739,52500 26781,52713 26902,52893 27083,53014 27296,53056 27603,53056 27816,53014 27997,52893 28118,52713 28128,52659 28766,52021 28903,52021 29095,51942 29242,51795 29321,51604 29321,51466 29894,50894 29968,50782 29995,50650 29995,51966 29003,52957 28848,52957 28641,52999 28465,53116 28348,53292 28306,53500 28348,53707 28465,53883 28641,54000 28848,54042 29151,54042 29358,54000 29534,53883 29651,53707 29693,53500 29651,53292 29649,53288 30204,52733 30204,57406 29693,57918 29693,56500 29651,56292 29534,56116 29358,55999 29151,55957 28848,55957 28641,55999 28465,56116 28440,56154 28029,56154 27997,56106 27816,55985 27603,55943 27296,55943 27083,55985 26902,56106 26781,56286 26739,56500 26781,56713 26902,56893 27083,57014 27296,57056 27603,57056 27816,57014 27997,56893 28029,56845 28440,56845 28465,56883 28641,57000 28848,57042 29151,57042 29358,57000 29534,56883 29651,56707 29693,56500 29693,57918 29347,58264 28896,58264 28806,58302 28736,58371 28698,58462 28698,58560 28698,59268 28736,59359 28805,59429 28896,59466 28994,59466 29703,59466 29793,59429 29863,59360 29901,59269 29901,59171 29901,58687 30794,57794 30868,57682 30895,57550 30895,65400 27146,65400 27146,59191 27063,58990 26910,58836 26709,58753 26541,58753 26245,58456 26245,55100 26218,54967 26218,54967 26189,54923 26144,54855 26144,54855 25544,54255 25432,54181 25300,54154 25160,54154 25160,50500 25118,50286 24997,50106 24816,49985 24603,49943 24296,49943 24083,49985 23902,50106 23870,50154 23500,50154 23367,50181 23345,50196 23345,49678 23463,49560 23546,49359 23546,49141 23463,48940 23310,48786 23109,48703 22891,48703 22690,48786 22536,48939 22453,49140 22453,49358 22536,49559 22654,49678 22654,50607 22557,50704 22478,50895 22478,51103 22557,51295 22704,51442 22895,51521 23103,51521 23295,51442 23442,51295 23521,51104 23521,50966 23643,50845 23870,50845 23902,50893 24083,51014 24296,51056 24603,51056 24816,51014 24997,50893 25118,50713 25160,50500 25160,54154 25029,54154 24997,54106 24816,53985 24603,53943 24296,53943 24083,53985 23902,54106 23781,54286 23739,54500 23781,54713 23902,54893 24083,55014 24296,55056 24603,55056 24816,55014 24997,54893 25029,54845 25156,54845 25554,55243 25554,58600 25581,58732 25655,58844 26053,59241 26053,59408 26136,59609 26289,59763 26490,59846 26708,59846 26909,59763 27063,59610 27146,59409 27146,59191 27146,65400 25641,65400 25641,60782 25551,60565 25395,60408 25395,60100 25395,60099 25395,60099 25390,60073 25368,59967 25368,59967 25294,59855 25294,59855 25160,59722 25160,57500 25118,57286 24997,57106 24816,56985 24603,56943 24296,56943 24083,56985 23902,57106 23870,57154 23693,57154 23693,55500 23651,55292 23534,55116 23358,54999 23151,54957 22848,54957 22641,54999 22465,55116 22440,55154 22046,55154 22046,48141 21963,47940 21810,47786 21609,47703 21391,47703 21190,47786 21036,47939 20953,48140 20953,48358 21036,48559 21154,48678 21154,49236 21085,49265 21015,49334 20978,49425 20978,49523 20978,50073 21015,50164 21084,50234 21175,50271 21273,50271 21823,50271 21914,50234 21984,50165 22021,50074 22021,49976 22021,49426 21984,49335 21915,49265 21845,49236 21845,48678 21963,48560 22046,48359 22046,48141 22046,55154 21428,55154 21310,55036 21109,54953 20891,54953 20690,55036 20536,55189 20453,55390 20453,55608 20536,55809 20689,55963 20890,56046 21108,56046 21309,55963 21428,55845 22166,55845 21416,56595 21376,56554 21285,56516 21187,56516 20714,56516 20624,56554 20554,56623 20516,56714 20516,56812 20516,57285 20554,57375 20623,57445 20714,57483 20812,57483 21285,57483 21375,57445 21445,57376 21458,57345 21500,57345 21632,57318 21744,57244 22946,56042 23151,56042 23358,56000 23534,55883 23651,55707 23693,55500 23693,57154 23559,57154 23534,57116 23358,56999 23151,56957 22848,56957 22641,56999 22465,57116 22348,57292 22306,57500 22348,57707 22465,57883 22641,58000 22848,58042 23151,58042 23358,58000 23534,57883 23559,57845 23870,57845 23902,57893 24083,58014 24296,58056 24603,58056 24816,58014 24997,57893 25118,57713 25160,57500 25160,59722 24494,59055 24382,58981 24250,58954 23028,58954 22910,58836 22709,58753 22491,58753 22290,58836 22136,58989 22053,59190 22053,59408 22136,59609 22289,59763 22490,59846 22708,59846 22909,59763 23028,59645 24106,59645 24704,60243 24704,60409 24548,60564 24458,60781 24458,61017 24548,61234 24714,61401 24931,61491 25167,61491 25384,61401 25551,61235 25641,61018 25641,60782 25641,65400 24391,65400 24391,60782 24301,60565 24135,60398 23918,60308 23682,60308 23465,60398 23308,60554 22850,60554 22850,59900 22650,59900 21888,59900 20744,58755 20632,58681 20500,58654 20128,58654 20010,58536 19809,58453 19591,58453 19390,58536 19236,58689 19153,58890 19153,59108 19236,59309 19389,59463 19590,59546 19808,59546 20009,59463 20128,59345 20356,59345 20911,59900 17686,59900 17686,55151 17686,55100 17686,55048 17686,55047 17686,55047 17686,55047 17648,54856 17608,54760 17608,54760 17500,54598 17500,54598 17426,54524 17264,54416 17264,54416 17168,54376 16976,54338 16872,54338 16871,54338 16681,54376 16585,54416 16585,54416 16423,54524 16423,54524 16349,54598 16241,54760 16241,54760 16201,54856 16163,55048 16163,55100 16163,55151 16201,55343 16241,55439 16241,55439 16349,55601 16423,55675 16423,55675 16585,55783 16585,55783 16681,55823 16871,55861 16872,55861 16976,55861 17168,55823 17264,55783 17264,55783 17426,55675 17500,55601 17500,55601 17608,55439 17608,55439 17648,55343 17686,55152 17686,55152 17686,55152 17686,55151 17686,59900 17345,59900 17345,58059 17383,58034 17500,57858 17542,57651 17542,57348 17500,57141 17383,56965 17207,56848 17000,56806 16792,56848 16616,56965 16499,57141 16457,57348 16457,57651 16474,57736 15758,58453 15591,58453 15390,58536 15236,58689 15153,58890 15153,59108 15236,59309 15389,59463 15590,59546 15808,59546 16009,59463 16163,59310 16246,59109 16246,58941 16654,58533 16654,59900 15200,59900 15200,64900 22850,64900 22850,63000 22850,61245 23309,61245 23464,61401 23681,61491 23917,61491 24134,61401 24301,61235 24391,61018 24391,60782 24391,65400 22850,65400 22800,65400 14650,65400 14650,41050 31100,41050 31100,65400 "
       id="polyline290" />
  </g>
  <g
     style="fill:#000000;fill-opacity:0;stroke:#000000;stroke-width:100;stroke-linecap:round;stroke-linejoin:round;stroke-opacity:1"
     id="g292"
     transform="translate(18827.717,4459.1966)">
    <polyline
       fill="none;"
       points="31100,65400 30895,65400 30895,57550 30895,51900 30895,51900 30895,46050 30868,45917 30868,45917 30839,45873 30794,45805 30794,45805 30511,45522 30511,42326 30511,42275 30511,42223 30511,42222 30511,42222 30511,42222 30473,42031 30433,41935 30433,41935 30325,41773 30325,41773 30251,41699 30089,41591 30089,41591 29993,41551 29801,41513 29697,41513 29696,41513 29506,41551 29410,41591 29410,41591 29248,41699 29248,41699 29174,41773 29066,41935 29066,41935 29026,42031 28988,42223 28988,42275 28988,42326 29026,42518 29066,42614 29066,42614 29174,42776 29248,42850 29248,42850 29410,42958 29410,42958 29506,42998 29696,43036 29697,43036 29801,43036 29993,42998 30089,42958 30089,42958 30251,42850 30325,42776 30325,42776 30433,42614 30433,42614 30473,42518 30511,42327 30511,42327 30511,42327 30511,42326 30511,45522 29346,44358 29346,44191 29263,43990 29110,43836 28909,43753 28741,43753 26469,41480 26357,41406 26225,41379 20625,41379 20492,41406 20380,41480 20380,41480 19549,42311 19525,42306 19317,42348 19141,42465 19024,42641 19021,42654 18742,42654 18645,42557 18454,42478 18246,42478 18054,42557 17907,42704 17828,42895 17828,43103 17907,43295 18054,43442 18245,43521 18453,43521 18645,43442 18742,43345 18766,43345 18116,43994 18094,44028 17223,44898 16707,44898 16617,44936 16547,45005 16509,45096 16509,45194 16509,45903 16547,45993 16616,46063 16654,46079 16654,48240 16616,48265 16499,48441 16457,48648 16457,48951 16499,49158 16616,49334 16654,49359 16654,49700 16681,49832 16755,49944 18555,51744 18555,51744 18623,51789 18667,51818 18667,51818 18800,51845 20571,51845 20689,51963 20890,52046 21108,52046 21309,51963 21463,51810 21546,51609 21546,51391 21463,51190 21310,51036 21109,50953 20891,50953 20690,51036 20571,51154 18943,51154 17345,49556 17345,49359 17383,49334 17500,49158 17542,48951 17542,48648 17500,48441 17383,48265 17345,48240 17345,46101 17514,46101 17605,46063 17674,45994 17712,45903 17712,45805 17712,45387 18504,44595 21071,44595 21189,44713 21390,44796 21608,44796 21809,44713 21892,44630 22453,45191 22453,45358 22536,45559 22689,45713 22890,45796 23108,45796 23309,45713 23463,45560 23546,45359 23546,45141 23463,44940 23310,44786 23109,44703 22941,44703 22833,44595 23758,44595 23781,44713 23902,44893 24083,45014 24296,45056 24603,45056 24816,45014 24997,44893 25118,44713 25160,44500 25118,44286 24997,44106 24816,43985 24603,43943 24350,43943 24332,43931 24200,43904 22650,43904 22000,43904 21928,43904 21810,43786 21609,43703 21391,43703 21190,43786 21071,43904 19183,43904 19416,43671 19525,43693 19732,43651 19908,43534 20025,43358 20067,43151 20067,42848 20054,42784 20768,42070 26081,42070 28253,44241 28253,44408 28336,44609 28489,44763 28690,44846 28858,44846 30204,46193 30204,51756 29995,51966 29995,50650 29995,48900 29968,48767 29968,48767 29939,48723 29894,48655 29894,48655 29294,48055 29289,48052 29263,47990 29110,47836 28909,47753 28691,47753 28490,47836 28336,47989 28253,48190 28253,48408 28336,48609 28489,48763 28690,48846 28908,48846 29050,48788 29304,49043 29304,50506 28833,50978 28696,50978 28504,51057 28407,51154 28160,51154 28160,46500 28118,46286 27997,46106 27816,45985 27603,45943 27296,45943 27083,45985 27017,46029 26395,45406 26395,44350 26368,44217 26368,44217 26339,44173 26294,44105 26294,44105 24944,42755 24832,42681 24700,42654 23750,42654 23028,42654 23025,42641 22908,42465 22732,42348 22525,42306 22317,42348 22141,42465 22024,42641 21982,42848 21982,43151 22024,43358 22141,43534 22317,43651 22525,43693 22732,43651 22908,43534 23025,43358 23028,43345 23750,43345 24556,43345 25704,44493 25704,45550 25731,45682 25805,45794 26755,46744 26755,46744 26823,46789 26840,46800 26840,46800 26902,46893 27083,47014 27296,47056 27603,47056 27816,47014 27997,46893 28118,46713 28160,46500 28160,51154 28029,51154 27997,51106 27816,50985 27603,50943 27296,50943 27083,50985 26902,51106 26781,51286 26739,51500 26781,51713 26902,51893 27061,52000 26902,52106 26781,52286 26739,52500 26781,52713 26902,52893 27083,53014 27296,53056 27603,53056 27816,53014 27997,52893 28118,52713 28128,52659 28766,52021 28903,52021 29095,51942 29242,51795 29321,51604 29321,51466 29894,50894 29968,50782 29995,50650 29995,51966 29003,52957 28848,52957 28641,52999 28465,53116 28348,53292 28306,53500 28348,53707 28465,53883 28641,54000 28848,54042 29151,54042 29358,54000 29534,53883 29651,53707 29693,53500 29651,53292 29649,53288 30204,52733 30204,57406 29693,57918 29693,56500 29651,56292 29534,56116 29358,55999 29151,55957 28848,55957 28641,55999 28465,56116 28440,56154 28029,56154 27997,56106 27816,55985 27603,55943 27296,55943 27083,55985 26902,56106 26781,56286 26739,56500 26781,56713 26902,56893 27083,57014 27296,57056 27603,57056 27816,57014 27997,56893 28029,56845 28440,56845 28465,56883 28641,57000 28848,57042 29151,57042 29358,57000 29534,56883 29651,56707 29693,56500 29693,57918 29347,58264 28896,58264 28806,58302 28736,58371 28698,58462 28698,58560 28698,59268 28736,59359 28805,59429 28896,59466 28994,59466 29703,59466 29793,59429 29863,59360 29901,59269 29901,59171 29901,58687 30794,57794 30868,57682 30895,57550 30895,65400 27146,65400 27146,59191 27063,58990 26910,58836 26709,58753 26541,58753 26245,58456 26245,55100 26218,54967 26218,54967 26189,54923 26144,54855 26144,54855 25544,54255 25432,54181 25300,54154 25160,54154 25160,50500 25118,50286 24997,50106 24816,49985 24603,49943 24296,49943 24083,49985 23902,50106 23870,50154 23500,50154 23367,50181 23345,50196 23345,49678 23463,49560 23546,49359 23546,49141 23463,48940 23310,48786 23109,48703 22891,48703 22690,48786 22536,48939 22453,49140 22453,49358 22536,49559 22654,49678 22654,50607 22557,50704 22478,50895 22478,51103 22557,51295 22704,51442 22895,51521 23103,51521 23295,51442 23442,51295 23521,51104 23521,50966 23643,50845 23870,50845 23902,50893 24083,51014 24296,51056 24603,51056 24816,51014 24997,50893 25118,50713 25160,50500 25160,54154 25029,54154 24997,54106 24816,53985 24603,53943 24296,53943 24083,53985 23902,54106 23781,54286 23739,54500 23781,54713 23902,54893 24083,55014 24296,55056 24603,55056 24816,55014 24997,54893 25029,54845 25156,54845 25554,55243 25554,58600 25581,58732 25655,58844 26053,59241 26053,59408 26136,59609 26289,59763 26490,59846 26708,59846 26909,59763 27063,59610 27146,59409 27146,59191 27146,65400 25641,65400 25641,60782 25551,60565 25395,60408 25395,60100 25395,60099 25395,60099 25390,60073 25368,59967 25368,59967 25294,59855 25294,59855 25160,59722 25160,57500 25118,57286 24997,57106 24816,56985 24603,56943 24296,56943 24083,56985 23902,57106 23870,57154 23693,57154 23693,55500 23651,55292 23534,55116 23358,54999 23151,54957 22848,54957 22641,54999 22465,55116 22440,55154 22046,55154 22046,48141 21963,47940 21810,47786 21609,47703 21391,47703 21190,47786 21036,47939 20953,48140 20953,48358 21036,48559 21154,48678 21154,49236 21085,49265 21015,49334 20978,49425 20978,49523 20978,50073 21015,50164 21084,50234 21175,50271 21273,50271 21823,50271 21914,50234 21984,50165 22021,50074 22021,49976 22021,49426 21984,49335 21915,49265 21845,49236 21845,48678 21963,48560 22046,48359 22046,48141 22046,55154 21428,55154 21310,55036 21109,54953 20891,54953 20690,55036 20536,55189 20453,55390 20453,55608 20536,55809 20689,55963 20890,56046 21108,56046 21309,55963 21428,55845 22166,55845 21416,56595 21376,56554 21285,56516 21187,56516 20714,56516 20624,56554 20554,56623 20516,56714 20516,56812 20516,57285 20554,57375 20623,57445 20714,57483 20812,57483 21285,57483 21375,57445 21445,57376 21458,57345 21500,57345 21632,57318 21744,57244 22946,56042 23151,56042 23358,56000 23534,55883 23651,55707 23693,55500 23693,57154 23559,57154 23534,57116 23358,56999 23151,56957 22848,56957 22641,56999 22465,57116 22348,57292 22306,57500 22348,57707 22465,57883 22641,58000 22848,58042 23151,58042 23358,58000 23534,57883 23559,57845 23870,57845 23902,57893 24083,58014 24296,58056 24603,58056 24816,58014 24997,57893 25118,57713 25160,57500 25160,59722 24494,59055 24382,58981 24250,58954 23028,58954 22910,58836 22709,58753 22491,58753 22290,58836 22136,58989 22053,59190 22053,59408 22136,59609 22289,59763 22490,59846 22708,59846 22909,59763 23028,59645 24106,59645 24704,60243 24704,60409 24548,60564 24458,60781 24458,61017 24548,61234 24714,61401 24931,61491 25167,61491 25384,61401 25551,61235 25641,61018 25641,60782 25641,65400 24391,65400 24391,60782 24301,60565 24135,60398 23918,60308 23682,60308 23465,60398 23308,60554 22850,60554 22850,59900 22650,59900 21888,59900 20744,58755 20632,58681 20500,58654 20128,58654 20010,58536 19809,58453 19591,58453 19390,58536 19236,58689 19153,58890 19153,59108 19236,59309 19389,59463 19590,59546 19808,59546 20009,59463 20128,59345 20356,59345 20911,59900 17686,59900 17686,55151 17686,55100 17686,55048 17686,55047 17686,55047 17686,55047 17648,54856 17608,54760 17608,54760 17500,54598 17500,54598 17426,54524 17264,54416 17264,54416 17168,54376 16976,54338 16872,54338 16871,54338 16681,54376 16585,54416 16585,54416 16423,54524 16423,54524 16349,54598 16241,54760 16241,54760 16201,54856 16163,55048 16163,55100 16163,55151 16201,55343 16241,55439 16241,55439 16349,55601 16423,55675 16423,55675 16585,55783 16585,55783 16681,55823 16871,55861 16872,55861 16976,55861 17168,55823 17264,55783 17264,55783 17426,55675 17500,55601 17500,55601 17608,55439 17608,55439 17648,55343 17686,55152 17686,55152 17686,55152 17686,55151 17686,59900 17345,59900 17345,58059 17383,58034 17500,57858 17542,57651 17542,57348 17500,57141 17383,56965 17207,56848 17000,56806 16792,56848 16616,56965 16499,57141 16457,57348 16457,57651 16474,57736 15758,58453 15591,58453 15390,58536 15236,58689 15153,58890 15153,59108 15236,59309 15389,59463 15590,59546 15808,59546 16009,59463 16163,59310 16246,59109 16246,58941 16654,58533 16654,59900 15200,59900 15200,64900 22850,64900 22850,63000 22850,61245 23309,61245 23464,61401 23681,61491 23917,61491 24134,61401 24301,61235 24391,61018 24391,60782 24391,65400 22850,65400 22800,65400 14650,65400 14650,41050 31100,41050 31100,65400 "
       id="polyline294" />
  </g>
  <g
     style="fill:#000000;fill-opacity:1;stroke:#000000;stroke-width:59.05509949;stroke-linecap:round;stroke-linejoin:round;stroke-opacity:1"
     id="g296"
     transform="translate(18827.717,4459.1966)">
    <polyline
       style="fill-rule:evenodd"
       points="20045,60953 19857,61471 17480,63600 16150,63600 16150,60300 17498,60300 19768,60398 20045,60953 "
       id="polyline298" />
  </g>
  <g
     style="fill:#000000;fill-opacity:0;stroke:#000000;stroke-width:100;stroke-linecap:round;stroke-linejoin:round;stroke-opacity:1"
     id="g300"
     transform="translate(18827.717,4459.1966)">
    <polyline
       fill="none;"
       points="20045,60953 19857,61471 17480,63600 16150,63600 16150,60300 17498,60300 19768,60398 20045,60953 "
       id="polyline302" />
  </g>
  <g
     style="fill:#000000;fill-opacity:1;stroke:#000000;stroke-width:59.05509949;stroke-linecap:round;stroke-linejoin:round;stroke-opacity:1"
     id="g304"
     transform="translate(18827.717,4459.1966)">
    <polyline
       style="fill-rule:evenodd"
       points="22400,64400 19100,64400 19100,63071 20450,61771 20450,60700 21050,60700 21050,61771 22400,63071 22400,64400 "
       id="polyline306" />
  </g>
  <g
     style="fill:#000000;fill-opacity:0;stroke:#000000;stroke-width:100;stroke-linecap:round;stroke-linejoin:round;stroke-opacity:1"
     id="g308"
     transform="translate(18827.717,4459.1966)">
    <polyline
       fill="none;"
       points="22400,64400 19100,64400 19100,63071 20450,61771 20450,60700 21050,60700 21050,61771 22400,63071 22400,64400 "
       id="polyline310" />
  </g>
  <g
     style="fill:#FFFFFF; fill-opacity:0.0;  stroke:#FFFFFF; stroke-width:59.0551; stroke-opacity:1;  stroke-linecap:round; stroke-linejoin:round;"
     id="g312" />
  <g
     style="fill:#ffffff;fill-opacity:1;stroke:#ffffff;stroke-width:59.05509949;stroke-linecap:round;stroke-linejoin:round;stroke-opacity:1"
     id="g314"
     transform="translate(18827.717,4459.1966)">
    <circle
       cx="18000"
       cy="57500"
       r="39.370098"
       id="circle316" />
    <circle
       cx="17000"
       cy="57500"
       r="39.370098"
       id="circle318" />
    <circle
       cx="17000"
       cy="48800"
       r="39.370098"
       id="circle320" />
    <circle
       cx="18000"
       cy="48800"
       r="39.370098"
       id="circle322" />
    <circle
       cx="19750"
       cy="60950"
       r="39.370098"
       id="circle324" />
    <circle
       cx="20750"
       cy="60950"
       r="39.370098"
       id="circle326" />
    <circle
       cx="21750"
       cy="60950"
       r="39.370098"
       id="circle328" />
    <circle
       cx="21000"
       cy="51500"
       r="39.370098"
       id="circle330" />
    <circle
       cx="21000"
       cy="55500"
       r="39.370098"
       id="circle332" />
    <circle
       cx="26600"
       cy="59300"
       r="39.370098"
       id="circle334" />
    <circle
       cx="22600"
       cy="59300"
       r="39.370098"
       id="circle336" />
    <circle
       cx="23800"
       cy="60900"
       r="39.370098"
       id="circle338" />
    <circle
       cx="25050"
       cy="60900"
       r="39.370098"
       id="circle340" />
    <circle
       cx="26300"
       cy="60900"
       r="39.370098"
       id="circle342" />
    <circle
       cx="15700"
       cy="59000"
       r="39.370098"
       id="circle344" />
    <circle
       cx="19700"
       cy="59000"
       r="39.370098"
       id="circle346" />
    <circle
       cx="23000"
       cy="45250"
       r="39.370098"
       id="circle348" />
    <circle
       cx="23000"
       cy="49250"
       r="39.370098"
       id="circle350" />
    <circle
       cx="28800"
       cy="44300"
       r="39.370098"
       id="circle352" />
    <circle
       cx="28800"
       cy="48300"
       r="39.370098"
       id="circle354" />
    <circle
       cx="21500"
       cy="44250"
       r="39.370098"
       id="circle356" />
    <circle
       cx="21500"
       cy="48250"
       r="39.370098"
       id="circle358" />
    <circle
       cx="23000"
       cy="57500"
       r="39.370098"
       id="circle360" />
    <circle
       cx="23000"
       cy="55500"
       r="39.370098"
       id="circle362" />
    <circle
       cx="23000"
       cy="54500"
       r="39.370098"
       id="circle364" />
    <circle
       cx="21500"
       cy="49750"
       r="39.370098"
       id="circle366" />
    <circle
       cx="20500"
       cy="49750"
       r="39.370098"
       id="circle368" />
    <circle
       cx="24450"
       cy="50500"
       r="39.370098"
       id="circle370" />
    <circle
       cx="24450"
       cy="51500"
       r="39.370098"
       id="circle372" />
    <circle
       cx="24450"
       cy="54500"
       r="39.370098"
       id="circle374" />
    <circle
       cx="24450"
       cy="57500"
       r="39.370098"
       id="circle376" />
    <circle
       cx="24450"
       cy="44500"
       r="39.370098"
       id="circle378" />
    <circle
       cx="27450"
       cy="56500"
       r="39.370098"
       id="circle380" />
    <circle
       cx="27450"
       cy="52500"
       r="39.370098"
       id="circle382" />
    <circle
       cx="27450"
       cy="51500"
       r="39.370098"
       id="circle384" />
    <circle
       cx="27450"
       cy="50500"
       r="39.370098"
       id="circle386" />
    <circle
       cx="27450"
       cy="46500"
       r="39.370098"
       id="circle388" />
    <circle
       cx="18350"
       cy="43000"
       r="39.370098"
       id="circle390" />
    <circle
       cx="16350"
       cy="43000"
       r="39.370098"
       id="circle392" />
    <circle
       cx="23000"
       cy="51000"
       r="39.370098"
       id="circle394" />
    <circle
       cx="23000"
       cy="53000"
       r="39.370098"
       id="circle396" />
    <circle
       cx="28800"
       cy="49500"
       r="39.370098"
       id="circle398" />
    <circle
       cx="28800"
       cy="51500"
       r="39.370098"
       id="circle400" />
    <circle
       cx="21750"
       cy="63750"
       r="39.370098"
       id="circle402" />
    <circle
       cx="19750"
       cy="63750"
       r="39.370098"
       id="circle404" />
    <circle
       cx="16800"
       cy="60950"
       r="39.370098"
       id="circle406" />
    <circle
       cx="16800"
       cy="62950"
       r="39.370098"
       id="circle408" />
    <circle
       cx="23850"
       cy="63750"
       r="39.370098"
       id="circle410" />
    <circle
       cx="25850"
       cy="63750"
       r="39.370098"
       id="circle412" />
    <circle
       cx="21000"
       cy="57000"
       r="39.370098"
       id="circle414" />
    <circle
       cx="21000"
       cy="57795.301"
       r="39.370098"
       id="circle416" />
    <circle
       cx="29300"
       cy="58865.699"
       r="39.370098"
       id="circle418" />
    <circle
       cx="29300"
       cy="60834.301"
       r="39.370098"
       id="circle420" />
    <circle
       cx="28000"
       cy="63750"
       r="39.370098"
       id="circle422" />
    <circle
       cx="30000"
       cy="63750"
       r="39.370098"
       id="circle424" />
    <circle
       cx="17111"
       cy="45500"
       r="39.370098"
       id="circle426" />
    <circle
       cx="18489"
       cy="45500"
       r="39.370098"
       id="circle428" />
    <circle
       cx="19525"
       cy="43000"
       r="39.370098"
       id="circle430" />
    <circle
       cx="20525"
       cy="43000"
       r="39.370098"
       id="circle432" />
    <circle
       cx="22525"
       cy="43000"
       r="39.370098"
       id="circle434" />
    <circle
       cx="29000"
       cy="53500"
       r="39.370098"
       id="circle436" />
    <circle
       cx="29000"
       cy="54500"
       r="39.370098"
       id="circle438" />
    <circle
       cx="29000"
       cy="56500"
       r="39.370098"
       id="circle440" />
  </g>
</svg>
