<?xml version="1.0" standalone="no"?>
 <!DOCTYPE svg PUBLIC "-//W3C//DTD SVG 1.1//EN" 
 "http://www.w3.org/Graphics/SVG/1.1/DTD/svg11.dtd"> 
<svg xmlns="http://www.w3.org/2000/svg" version="1.1" 
    width="29.7002cm" height="21.0007cm" viewBox="0 0 116930 82680 ">
<title>SVG Picture created as rc_car-B.SilkS.svg date 2017/07/07 16:49:17 </title>
  <desc>Picture generated by PCBNEW </desc>
<g style="fill:#000000; fill-opacity:1;stroke:#000000; stroke-opacity:1;
stroke-linecap:round; stroke-linejoin:round; "
 transform="translate(0 0) scale(1 1)">
</g>
<g style="fill:#000000; fill-opacity:0.0; 
stroke:#000000; stroke-width:-0.000393701; stroke-opacity:1; 
stroke-linecap:round; stroke-linejoin:round;">
</g>
<g style="fill:#000000; fill-opacity:0.0; 
stroke:#000000; stroke-width:59.0551; stroke-opacity:1; 
stroke-linecap:round; stroke-linejoin:round;">
<path d="M74214 38553
L71872 38553
" />
<path d="M71872 38553
L71872 35561
" />
<path d="M71872 35561
L74214 35561
" />
<path d="M74214 35561
L74214 38553
" />
<path d="M74214 37254
L73919 37254
" />
<path d="M73919 37254
L73919 36861
" />
<path d="M73919 36861
L74214 36861
" />
<path d="M74214 36861
L74214 37254
" />
<path d="M74214 38553
L73919 38553
" />
<path d="M73919 38553
L73919 37845
" />
<path d="M73919 37845
L74214 37845
" />
<path d="M74214 37845
L74214 38553
" />
<path d="M74214 36270
L73919 36270
" />
<path d="M73919 36270
L73919 35561
" />
<path d="M73919 35561
L74214 35561
" />
<path d="M74214 35561
L74214 36270
" />
<path d="M73328 38553
L73328 38258
" />
<path d="M73328 38258
L72167 38258
" />
<path d="M72167 38258
L72167 37057
" />
<path d="M73328 35561
L73328 35857
" />
<path d="M73328 35857
L72167 35857
" />
<path d="M72167 35857
L72167 37057
" />
<path d="M74332 37550
L74568 37668
" />
<path d="M74568 37668
L74568 37431
" />
<path d="M74568 37431
L74332 37550
" />
<path d="M74412 36237
L74693 36237
L74749 36218
L74787 36181
L74806 36125
L74806 36087
" />
<path d="M74412 36593
L74412 36518
L74431 36481
L74449 36462
L74506 36425
L74581 36406
L74731 36406
L74768 36425
L74787 36443
L74806 36481
L74806 36556
L74787 36593
L74768 36612
L74731 36631
L74637 36631
L74599 36612
L74581 36593
L74562 36556
L74562 36481
L74581 36443
L74599 36425
L74637 36406
" />
</g> 
</svg>
