M48
; DRILL file {KiCad 5.1.4-e60b266~84~ubuntu18.04.1} date  4.05.2021 (вт) 15:43:39
; FORMAT={-:-/ absolute / metric / decimal}
; #@! TF.CreationDate,2021-05-04T15:43:39+03:00
; #@! TF.GenerationSoftware,Kicad,Pcbnew,5.1.4-e60b266~84~ubuntu18.04.1
FMAT,2
METRIC
T1C0.800
T2C0.900
T3C1.016
T4C1.200
T5C1.524
%
G90
G05
T1
X15.113Y-49.713
X15.113Y-53.213
X28.702Y-49.713
X28.702Y-53.213
T2
X2.54Y-20.955
X12.7Y-20.955
X24.003Y-20.955
X26.67Y-20.955
X8.255Y-29.21
X8.255Y-32.131
X37.719Y-29.21
X37.719Y-32.131
X2.54Y-23.622
X12.7Y-23.622
X21.844Y-28.575
X24.765Y-28.575
X34.163Y-27.051
X34.163Y-29.591
X34.163Y-32.131
X12.827Y-27.051
X12.827Y-29.591
X12.827Y-32.131
X31.242Y-23.622
X41.402Y-23.622
X14.859Y-23.622
X14.922Y-20.955
X17.145Y-20.955
X19.812Y-20.955
X37.973Y-6.223
X37.973Y-8.89
X25.908Y-6.223
X25.908Y-8.763
X36.83Y-17.399
X39.116Y-17.399
X41.402Y-17.399
X28.956Y-20.955
X28.956Y-23.622
X31.75Y-6.223
X31.75Y-8.763
X2.54Y-13.081
X6.223Y-13.081
X2.54Y-17.399
X4.826Y-17.399
X7.112Y-17.399
X31.242Y-20.955
X41.402Y-20.955
X29.083Y-17.399
X31.369Y-17.399
X33.655Y-17.399
X11.176Y-13.081
X14.859Y-13.081
X21.971Y-2.667
X21.971Y-20.955
X29.083Y-13.081
X32.766Y-13.081
X37.719Y-13.081
X41.402Y-13.081
X10.287Y-17.399
X12.573Y-17.399
X14.859Y-17.399
X19.812Y-24.638
X22.352Y-24.638
X24.892Y-24.638
X18.288Y-2.667
X18.288Y-15.367
T3
X16.891Y-32.131
X19.431Y-32.131
X21.971Y-32.131
X24.511Y-32.131
X27.051Y-32.131
X29.591Y-32.131
T4
X6.731Y-49.951
X6.731Y-52.451
X54.61Y-46.99
X37.084Y-49.951
X37.084Y-52.451
T5
X8.7Y-11.176
X35.242Y-11.176
X6.604Y-42.926
X11.684Y-42.926
X19.431Y-42.926
X24.511Y-42.926
X25.908Y-2.54
X25.908Y-15.24
X32.131Y-42.926
X37.211Y-42.926
X54.61Y-50.546
T0
M30
