<?xml version="1.0" standalone="no"?>
 <!DOCTYPE svg PUBLIC "-//W3C//DTD SVG 1.1//EN" 
 "http://www.w3.org/Graphics/SVG/1.1/DTD/svg11.dtd"> 
<svg xmlns="http://www.w3.org/2000/svg" version="1.1" 
    width="29.7002cm" height="21.0007cm" viewBox="0 0 116930 82680 ">
<title>SVG Picture created as rc_car-F.SilkS.svg date 2017/07/07 16:49:17 </title>
  <desc>Picture generated by PCBNEW </desc>
<g style="fill:#000000; fill-opacity:1;stroke:#000000; stroke-opacity:1;
stroke-linecap:round; stroke-linejoin:round; "
 transform="translate(0 0) scale(1 1)">
</g>
<g style="fill:#000000; fill-opacity:0.0; 
stroke:#000000; stroke-width:-0.000393701; stroke-opacity:1; 
stroke-linecap:round; stroke-linejoin:round;">
</g>
<g style="fill:#000000; fill-opacity:0.0; 
stroke:#000000; stroke-width:59.0551; stroke-opacity:1; 
stroke-linecap:round; stroke-linejoin:round;">
<path d="M68375 37131
L71524 37131
" />
<path d="M68377 37076
L71522 37076
" />
<path d="M68381 37021
L71518 37021
" />
<path d="M68387 36966
L71512 36966
" />
<path d="M68395 36911
L71504 36911
" />
<path d="M68405 36855
L69862 36855
" />
<path d="M70037 36855
L71494 36855
" />
<path d="M68416 36800
L69733 36800
" />
<path d="M70166 36800
L71483 36800
" />
<path d="M68431 36745
L69666 36745
" />
<path d="M70233 36745
L71468 36745
" />
<path d="M68447 36690
L69622 36690
" />
<path d="M70277 36690
L71452 36690
" />
<path d="M68465 36635
L69591 36635
" />
<path d="M70308 36635
L71434 36635
" />
<path d="M68486 36580
L69571 36580
" />
<path d="M70328 36580
L71413 36580
" />
<path d="M68509 36525
L69559 36525
" />
<path d="M70340 36525
L71390 36525
" />
<path d="M68535 36470
L69556 36470
" />
<path d="M70343 36470
L71364 36470
" />
<path d="M68562 36414
L69560 36414
" />
<path d="M70339 36414
L71337 36414
" />
<path d="M68594 36359
L69572 36359
" />
<path d="M70327 36359
L71305 36359
" />
<path d="M68628 36304
L69593 36304
" />
<path d="M70306 36304
L71271 36304
" />
<path d="M68665 36249
L69625 36249
" />
<path d="M70274 36249
L71234 36249
" />
<path d="M68706 36194
L69670 36194
" />
<path d="M70229 36194
L71193 36194
" />
<path d="M68751 36139
L69739 36139
" />
<path d="M70160 36139
L71148 36139
" />
<path d="M68800 36084
L69881 36084
" />
<path d="M70018 36084
L71099 36084
" />
<path d="M68855 36029
L71044 36029
" />
<path d="M68914 35974
L70985 35974
" />
<path d="M68981 35918
L70918 35918
" />
<path d="M69057 35863
L70842 35863
" />
<path d="M69142 35808
L70757 35808
" />
<path d="M69243 35753
L70656 35753
" />
<path d="M69366 35698
L70533 35698
" />
<path d="M69529 35643
L70370 35643
" />
<path d="M69871 35588
L70028 35588
" />
<circle cx="69950" cy="36472" r="393.701" /> 
<circle cx="69950" cy="37161" r="1589.57" /> 
<path d="M53650 21550
L54150 21550
" />
<path d="M50650 21550
L50150 21550
" />
<path d="M50650 21550
L50950 21550
" />
<path d="M50950 21550
L50950 21950
" />
<path d="M50950 21950
L53350 21950
" />
<path d="M53350 21950
L53350 21550
" />
<path d="M53350 21550
L53650 21550
" />
<path d="M53350 21550
L53350 21150
" />
<path d="M53350 21150
L50950 21150
" />
<path d="M50950 21150
L50950 21550
" />
<path d="M51150 21950
L51150 21150
" />
<path d="M51250 21150
L51250 21950
" />
<path d="M57300 15850
L53300 15850
" />
<path d="M57300 16350
L57300 13350
" />
<path d="M57300 13350
L53300 13350
" />
<path d="M53300 13350
L53300 16350
" />
<path d="M53300 16350
L57300 16350
" />
<path d="M66950 21550
L66450 21550
" />
<path d="M69950 21550
L70450 21550
" />
<path d="M69950 21550
L69650 21550
" />
<path d="M69650 21550
L69650 21150
" />
<path d="M69650 21150
L67250 21150
" />
<path d="M67250 21150
L67250 21550
" />
<path d="M67250 21550
L66950 21550
" />
<path d="M67250 21550
L67250 21950
" />
<path d="M67250 21950
L69650 21950
" />
<path d="M69650 21950
L69650 21550
" />
<path d="M69450 21150
L69450 21950
" />
<path d="M69350 21950
L69350 21150
" />
<path d="M62150 25150
L62150 24650
" />
<path d="M62150 28150
L62150 28650
" />
<path d="M62150 28150
L62150 27850
" />
<path d="M62150 27850
L62550 27850
" />
<path d="M62550 27850
L62550 25450
" />
<path d="M62550 25450
L62150 25450
" />
<path d="M62150 25450
L62150 25150
" />
<path d="M62150 25450
L61750 25450
" />
<path d="M61750 25450
L61750 27850
" />
<path d="M61750 27850
L62150 27850
" />
<path d="M62550 27650
L61750 27650
" />
<path d="M61750 27550
L62550 27550
" />
<path d="M57500 25150
L57500 24650
" />
<path d="M57500 28150
L57500 28650
" />
<path d="M57500 28150
L57500 27850
" />
<path d="M57500 27850
L57900 27850
" />
<path d="M57900 27850
L57900 25450
" />
<path d="M57900 25450
L57500 25450
" />
<path d="M57500 25450
L57500 25150
" />
<path d="M57500 25450
L57100 25450
" />
<path d="M57100 25450
L57100 27850
" />
<path d="M57100 27850
L57500 27850
" />
<path d="M57900 27650
L57100 27650
" />
<path d="M57100 27550
L57900 27550
" />
<path d="M58400 25150
L58400 24650
" />
<path d="M58400 28150
L58400 28650
" />
<path d="M58400 28150
L58400 27850
" />
<path d="M58400 27850
L58800 27850
" />
<path d="M58800 27850
L58800 25450
" />
<path d="M58800 25450
L58400 25450
" />
<path d="M58400 25450
L58400 25150
" />
<path d="M58400 25450
L58000 25450
" />
<path d="M58000 25450
L58000 27850
" />
<path d="M58000 27850
L58400 27850
" />
<path d="M58800 27650
L58000 27650
" />
<path d="M58000 27550
L58800 27550
" />
<path d="M63050 25150
L63050 24650
" />
<path d="M63050 28150
L63050 28650
" />
<path d="M63050 28150
L63050 27850
" />
<path d="M63050 27850
L63450 27850
" />
<path d="M63450 27850
L63450 25450
" />
<path d="M63450 25450
L63050 25450
" />
<path d="M63050 25450
L63050 25150
" />
<path d="M63050 25450
L62650 25450
" />
<path d="M62650 25450
L62650 27850
" />
<path d="M62650 27850
L63050 27850
" />
<path d="M63450 27650
L62650 27650
" />
<path d="M62650 27550
L63450 27550
" />
<path d="M52250 23650
L54850 23650
" />
<path d="M52250 23250
L52250 23800
" />
<path d="M52250 23800
L54850 23800
" />
<path d="M54850 23800
L54850 22800
" />
<path d="M54850 22800
L52250 22800
" />
<path d="M52250 22800
L52250 23250
" />
<path d="M57900 22850
L55300 22850
" />
<path d="M57900 23250
L57900 22700
" />
<path d="M57900 22700
L55300 22700
" />
<path d="M55300 22700
L55300 23700
" />
<path d="M55300 23700
L57900 23700
" />
<path d="M57900 23700
L57900 23250
" />
<path d="M68350 22850
L65750 22850
" />
<path d="M68350 23250
L68350 22700
" />
<path d="M68350 22700
L65750 22700
" />
<path d="M65750 22700
L65750 23700
" />
<path d="M65750 23700
L68350 23700
" />
<path d="M68350 23700
L68350 23250
" />
<path d="M62700 23650
L65300 23650
" />
<path d="M62700 23250
L62700 23800
" />
<path d="M62700 23800
L65300 23800
" />
<path d="M65300 23800
L65300 22800
" />
<path d="M65300 22800
L62700 22800
" />
<path d="M62700 22800
L62700 23250
" />
<path d="M52650 24650
L53050 24650
" />
<path d="M53050 24650
L53050 24250
" />
<path d="M53050 24250
L56250 24250
" />
<path d="M56250 24250
L56250 25050
" />
<path d="M56250 25050
L53050 25050
" />
<path d="M53050 25050
L53050 24650
" />
<path d="M53050 24450
L53250 24250
" />
<path d="M56650 24650
L56250 24650
" />
<path d="M60300 17300
L60300 17700
" />
<path d="M60300 17700
L60700 17700
" />
<path d="M60700 17700
L60700 20900
" />
<path d="M60700 20900
L59900 20900
" />
<path d="M59900 20900
L59900 17700
" />
<path d="M59900 17700
L60300 17700
" />
<path d="M60500 17700
L60700 17900
" />
<path d="M60300 21300
L60300 20900
" />
<path d="M67950 24650
L67550 24650
" />
<path d="M67550 24650
L67550 25050
" />
<path d="M67550 25050
L64350 25050
" />
<path d="M64350 25050
L64350 24250
" />
<path d="M64350 24250
L67550 24250
" />
<path d="M67550 24250
L67550 24650
" />
<path d="M67550 24850
L67350 25050
" />
<path d="M63950 24650
L64350 24650
" />
<path d="M52650 25700
L53050 25700
" />
<path d="M53050 25700
L53050 25300
" />
<path d="M53050 25300
L56250 25300
" />
<path d="M56250 25300
L56250 26100
" />
<path d="M56250 26100
L53050 26100
" />
<path d="M53050 26100
L53050 25700
" />
<path d="M53050 25500
L53250 25300
" />
<path d="M56650 25700
L56250 25700
" />
<path d="M60250 27700
L61250 27700
" />
<circle cx="60250" cy="27700" r="559.017" /> 
<path d="M66500 27900
L66500 28900
" />
<circle cx="66500" cy="27900" r="559.017" /> 
<path d="M54900 27900
L54900 28900
" />
<circle cx="54900" cy="27900" r="559.017" /> 
<path d="M58800 28550
L63800 28550
" />
<path d="M63800 28550
L63800 29550
" />
<path d="M63800 29550
L58800 29550
" />
<path d="M57689 28439
L58300 28439
" />
<path d="M58800 28550
L58800 29550
" />
<path d="M58300 29660
L57689 29660
" />
<path d="M57689 29660
L57689 28439
" />
<path d="M57092.5 28911.3 A946.521 946.521 0.0 0 0 57369.3 28719.3 " />
<path d="M57369.3 27380.7 A946.521 946.521 0.0 0 0 57092.5 27188.7 " />
<path d="M57369 28719
L57369 27380
" />
<path d="M55755.1 28050 A944.882 944.882 0.0 0 0 56309 28910.2 " />
<path d="M56309 27189.8 A944.882 944.882 0.0 0 0 55755.1 28050 " />
<path d="M61311.3 25707.5 A946.521 946.521 0.0 0 0 61119.3 25430.7 " />
<path d="M59780.7 25430.7 A946.521 946.521 0.0 0 0 59588.7 25707.5 " />
<path d="M61119 25430
L59780 25430
" />
<path d="M60450 27044.9 A944.882 944.882 0.0 0 0 61310.2 26491 " />
<path d="M59589.8 26491 A944.882 944.882 0.0 0 0 60450 27044.9 " />
<path d="M65492.5 28911.3 A946.521 946.521 0.0 0 0 65769.3 28719.3 " />
<path d="M65769.3 27380.7 A946.521 946.521 0.0 0 0 65492.5 27188.7 " />
<path d="M65769 28719
L65769 27380
" />
<path d="M64155.1 28050 A944.882 944.882 0.0 0 0 64709 28910.2 " />
<path d="M64709 27189.8 A944.882 944.882 0.0 0 0 64155.1 28050 " />
<path d="M67950 25700
L67550 25700
" />
<path d="M67550 25700
L67550 26100
" />
<path d="M67550 26100
L64350 26100
" />
<path d="M64350 26100
L64350 25300
" />
<path d="M64350 25300
L67550 25300
" />
<path d="M67550 25300
L67550 25700
" />
<path d="M67550 25900
L67350 26100
" />
<path d="M63950 25700
L64350 25700
" />
<path d="M57000 21550
L57500 21550
" />
<path d="M54000 21550
L53500 21550
" />
<path d="M54000 21550
L54300 21550
" />
<path d="M54300 21550
L54300 21950
" />
<path d="M54300 21950
L56700 21950
" />
<path d="M56700 21950
L56700 21550
" />
<path d="M56700 21550
L57000 21550
" />
<path d="M56700 21550
L56700 21150
" />
<path d="M56700 21150
L54300 21150
" />
<path d="M54300 21150
L54300 21550
" />
<path d="M54500 21950
L54500 21150
" />
<path d="M54600 21150
L54600 21950
" />
<path d="M63600 21550
L63100 21550
" />
<path d="M66600 21550
L67100 21550
" />
<path d="M66600 21550
L66300 21550
" />
<path d="M66300 21550
L66300 21150
" />
<path d="M66300 21150
L63900 21150
" />
<path d="M63900 21150
L63900 21550
" />
<path d="M63900 21550
L63600 21550
" />
<path d="M63900 21550
L63900 21950
" />
<path d="M63900 21950
L66300 21950
" />
<path d="M66300 21950
L66300 21550
" />
<path d="M66100 21150
L66100 21950
" />
<path d="M66000 21950
L66000 21150
" />
<path d="M67117 19978
L67038 19978
" />
<path d="M66096 19978
L66166 19978
" />
<path d="M66218.3 18707.6 A786.653 786.653 0.0 0 0 66093.7 19978.3 " />
<path d="M66167.3 18973.6 A608.718 608.718 0.0 0 0 66166.9 19801.6 " />
<path d="M67127.8 19973.3 A782.385 782.385 0.0 0 0 66991.3 18698.8 " />
<path d="M67038.3 19787 A582.991 582.991 0.0 0 0 67030.7 18980.7 " />
<path d="M63632 18771
L63711 18771
" />
<path d="M64653 18771
L64583 18771
" />
<path d="M64531.7 20042.4 A786.653 786.653 0.0 0 0 64656.3 18771.7 " />
<path d="M64582.7 19776.4 A608.718 608.718 0.0 0 0 64583.1 18948.4 " />
<path d="M63622.2 18776.7 A782.385 782.385 0.0 0 0 63758.7 20051.2 " />
<path d="M63711.7 18963 A582.991 582.991 0.0 0 0 63719.3 19769.3 " />
<path d="M59424 18268
L56275 18268
" />
<path d="M59422 18323
L56277 18323
" />
<path d="M59418 18378
L56281 18378
" />
<path d="M59412 18433
L56287 18433
" />
<path d="M59404 18488
L56295 18488
" />
<path d="M59394 18544
L57937 18544
" />
<path d="M57762 18544
L56305 18544
" />
<path d="M59383 18599
L58066 18599
" />
<path d="M57633 18599
L56316 18599
" />
<path d="M59368 18654
L58133 18654
" />
<path d="M57566 18654
L56331 18654
" />
<path d="M59352 18709
L58177 18709
" />
<path d="M57522 18709
L56347 18709
" />
<path d="M59334 18764
L58208 18764
" />
<path d="M57491 18764
L56365 18764
" />
<path d="M59313 18819
L58228 18819
" />
<path d="M57471 18819
L56386 18819
" />
<path d="M59290 18874
L58240 18874
" />
<path d="M57459 18874
L56409 18874
" />
<path d="M59264 18929
L58243 18929
" />
<path d="M57456 18929
L56435 18929
" />
<path d="M59237 18985
L58239 18985
" />
<path d="M57460 18985
L56462 18985
" />
<path d="M59205 19040
L58227 19040
" />
<path d="M57472 19040
L56494 19040
" />
<path d="M59171 19095
L58206 19095
" />
<path d="M57493 19095
L56528 19095
" />
<path d="M59134 19150
L58174 19150
" />
<path d="M57525 19150
L56565 19150
" />
<path d="M59093 19205
L58129 19205
" />
<path d="M57570 19205
L56606 19205
" />
<path d="M59048 19260
L58060 19260
" />
<path d="M57639 19260
L56651 19260
" />
<path d="M58999 19315
L57918 19315
" />
<path d="M57781 19315
L56700 19315
" />
<path d="M58944 19370
L56755 19370
" />
<path d="M58885 19425
L56814 19425
" />
<path d="M58818 19481
L56881 19481
" />
<path d="M58742 19536
L56957 19536
" />
<path d="M58657 19591
L57042 19591
" />
<path d="M58556 19646
L57143 19646
" />
<path d="M58433 19701
L57266 19701
" />
<path d="M58270 19756
L57429 19756
" />
<path d="M57928 19811
L57771 19811
" />
<circle cx="57850" cy="18928" r="393.701" /> 
<circle cx="57850" cy="18239" r="1589.57" /> 
<path d="M66500 15900
L62500 15900
" />
<path d="M66500 16400
L66500 13400
" />
<path d="M66500 13400
L62500 13400
" />
<path d="M62500 13400
L62500 16400
" />
<path d="M62500 16400
L66500 16400
" />
<path d="M61850 18850
L61850 19850
" />
<circle cx="61850" cy="18850" r="559.017" /> 
<path d="M63025 37131
L66174 37131
" />
<path d="M63027 37076
L66172 37076
" />
<path d="M63031 37021
L66168 37021
" />
<path d="M63037 36966
L66162 36966
" />
<path d="M63045 36911
L66154 36911
" />
<path d="M63055 36855
L64512 36855
" />
<path d="M64687 36855
L66144 36855
" />
<path d="M63066 36800
L64383 36800
" />
<path d="M64816 36800
L66133 36800
" />
<path d="M63081 36745
L64316 36745
" />
<path d="M64883 36745
L66118 36745
" />
<path d="M63097 36690
L64272 36690
" />
<path d="M64927 36690
L66102 36690
" />
<path d="M63115 36635
L64241 36635
" />
<path d="M64958 36635
L66084 36635
" />
<path d="M63136 36580
L64221 36580
" />
<path d="M64978 36580
L66063 36580
" />
<path d="M63159 36525
L64209 36525
" />
<path d="M64990 36525
L66040 36525
" />
<path d="M63185 36470
L64206 36470
" />
<path d="M64993 36470
L66014 36470
" />
<path d="M63212 36414
L64210 36414
" />
<path d="M64989 36414
L65987 36414
" />
<path d="M63244 36359
L64222 36359
" />
<path d="M64977 36359
L65955 36359
" />
<path d="M63278 36304
L64243 36304
" />
<path d="M64956 36304
L65921 36304
" />
<path d="M63315 36249
L64275 36249
" />
<path d="M64924 36249
L65884 36249
" />
<path d="M63356 36194
L64320 36194
" />
<path d="M64879 36194
L65843 36194
" />
<path d="M63401 36139
L64389 36139
" />
<path d="M64810 36139
L65798 36139
" />
<path d="M63450 36084
L64531 36084
" />
<path d="M64668 36084
L65749 36084
" />
<path d="M63505 36029
L65694 36029
" />
<path d="M63564 35974
L65635 35974
" />
<path d="M63631 35918
L65568 35918
" />
<path d="M63707 35863
L65492 35863
" />
<path d="M63792 35808
L65407 35808
" />
<path d="M63893 35753
L65306 35753
" />
<path d="M64016 35698
L65183 35698
" />
<path d="M64179 35643
L65020 35643
" />
<path d="M64521 35588
L64678 35588
" />
<circle cx="64600" cy="36472" r="393.701" /> 
<circle cx="64600" cy="37161" r="1589.57" /> 
<path d="M64250 34800
L60250 34800
" />
<path d="M64250 35300
L64250 32300
" />
<path d="M64250 32300
L60250 32300
" />
<path d="M60250 32300
L60250 35300
" />
<path d="M60250 35300
L64250 35300
" />
<path d="M60335 38553
L62677 38553
" />
<path d="M62677 38553
L62677 35561
" />
<path d="M62677 35561
L60335 35561
" />
<path d="M60335 35561
L60335 38553
" />
<path d="M60335 37254
L60630 37254
" />
<path d="M60630 37254
L60630 36861
" />
<path d="M60630 36861
L60335 36861
" />
<path d="M60335 36861
L60335 37254
" />
<path d="M60335 38553
L60630 38553
" />
<path d="M60630 38553
L60630 37845
" />
<path d="M60630 37845
L60335 37845
" />
<path d="M60335 37845
L60335 38553
" />
<path d="M60335 36270
L60630 36270
" />
<path d="M60630 36270
L60630 35561
" />
<path d="M60630 35561
L60335 35561
" />
<path d="M60335 35561
L60335 36270
" />
<path d="M61221 38553
L61221 38258
" />
<path d="M61221 38258
L62382 38258
" />
<path d="M62382 38258
L62382 37057
" />
<path d="M61221 35561
L61221 35857
" />
<path d="M61221 35857
L62382 35857
" />
<path d="M62382 35857
L62382 37057
" />
<path d="M60217 37550
L59981 37668
" />
<path d="M59981 37668
L59981 37431
" />
<path d="M59981 37431
L60217 37550
" />
<path d="M70300 32800
L74300 32800
" />
<path d="M70300 32300
L70300 35300
" />
<path d="M70300 35300
L74300 35300
" />
<path d="M74300 35300
L74300 32300
" />
<path d="M74300 32300
L70300 32300
" />
<path d="M65950 40100
L65950 44100
" />
<path d="M66450 40100
L63450 40100
" />
<path d="M63450 40100
L63450 44100
" />
<path d="M63450 44100
L66450 44100
" />
<path d="M66450 44100
L66450 40100
" />
<path d="M69300 34800
L65300 34800
" />
<path d="M69300 35300
L69300 32300
" />
<path d="M69300 32300
L65300 32300
" />
<path d="M65300 32300
L65300 35300
" />
<path d="M65300 35300
L69300 35300
" />
<path d="M68003 37226
L68022 37245
L68041 37301
L68041 37339
L68022 37395
L67985 37432
L67947 37451
L67872 37470
L67816 37470
L67741 37451
L67704 37432
L67666 37395
L67647 37339
L67647 37301
L67666 37245
L67685 37226
" />
<path d="M67685 37076
L67666 37057
L67647 37020
L67647 36926
L67666 36889
L67685 36870
L67722 36851
L67760 36851
L67816 36870
L68041 37095
L68041 36851
" />
<path d="M51859 21728
L51859 21334
L51953 21334
L52009 21353
L52046 21390
L52065 21428
L52084 21503
L52084 21559
L52065 21634
L52046 21671
L52009 21709
L51953 21728
L51859 21728
" />
<path d="M52440 21334
L52253 21334
L52234 21521
L52253 21503
L52290 21484
L52384 21484
L52421 21503
L52440 21521
L52459 21559
L52459 21653
L52440 21690
L52421 21709
L52384 21728
L52290 21728
L52253 21709
L52234 21690
" />
<path d="M55168 12634
L55168 12915
L55150 12971
L55112 13009
L55056 13028
L55018 13028
" />
<path d="M55337 12671
L55356 12653
L55393 12634
L55487 12634
L55524 12653
L55543 12671
L55562 12709
L55562 12746
L55543 12803
L55318 13028
L55562 13028
" />
<path d="M68159 21728
L68159 21334
L68253 21334
L68309 21353
L68346 21390
L68365 21428
L68384 21503
L68384 21559
L68365 21634
L68346 21671
L68309 21709
L68253 21728
L68159 21728
" />
<path d="M68515 21334
L68778 21334
L68609 21728
" />
<path d="M62328 26940
L61934 26940
L61934 26846
L61953 26790
L61990 26753
L62028 26734
L62103 26715
L62159 26715
L62234 26734
L62271 26753
L62309 26790
L62328 26846
L62328 26940
" />
<path d="M62065 26378
L62328 26378
" />
<path d="M61915 26471
L62196 26565
L62196 26321
" />
<path d="M57678 26940
L57284 26940
L57284 26846
L57303 26790
L57340 26753
L57378 26734
L57453 26715
L57509 26715
L57584 26734
L57621 26753
L57659 26790
L57678 26846
L57678 26940
" />
<path d="M57678 26340
L57678 26565
" />
<path d="M57678 26453
L57284 26453
L57340 26490
L57378 26528
L57396 26565
" />
<path d="M58578 26940
L58184 26940
L58184 26846
L58203 26790
L58240 26753
L58278 26734
L58353 26715
L58409 26715
L58484 26734
L58521 26753
L58559 26790
L58578 26846
L58578 26940
" />
<path d="M58221 26565
L58203 26546
L58184 26509
L58184 26415
L58203 26378
L58221 26359
L58259 26340
L58296 26340
L58353 26359
L58578 26584
L58578 26340
" />
<path d="M63228 26940
L62834 26940
L62834 26846
L62853 26790
L62890 26753
L62928 26734
L63003 26715
L63059 26715
L63134 26734
L63171 26753
L63209 26790
L63228 26846
L63228 26940
" />
<path d="M62834 26584
L62834 26340
L62984 26471
L62984 26415
L63003 26378
L63021 26359
L63059 26340
L63153 26340
L63190 26359
L63209 26378
L63228 26415
L63228 26528
L63209 26565
L63190 26584
" />
<path d="M53339 22589
L53302 22570
L53264 22533
L53208 22477
L53170 22458
L53133 22458
" />
<path d="M53152 22552
L53114 22533
L53077 22495
L53058 22420
L53058 22289
L53077 22214
L53114 22177
L53152 22158
L53227 22158
L53264 22177
L53302 22214
L53320 22289
L53320 22420
L53302 22495
L53264 22533
L53227 22552
L53152 22552
" />
<path d="M53545 22327
L53508 22308
L53489 22289
L53470 22252
L53470 22233
L53489 22195
L53508 22177
L53545 22158
L53620 22158
L53658 22177
L53677 22195
L53695 22233
L53695 22252
L53677 22289
L53658 22308
L53620 22327
L53545 22327
L53508 22345
L53489 22364
L53470 22402
L53470 22477
L53489 22514
L53508 22533
L53545 22552
L53620 22552
L53658 22533
L53677 22514
L53695 22477
L53695 22402
L53677 22364
L53658 22345
L53620 22327
" />
<path d="M56547 24341
L56510 24322
L56472 24285
L56416 24229
L56379 24210
L56341 24210
" />
<path d="M56360 24304
L56322 24285
L56285 24247
L56266 24172
L56266 24041
L56285 23966
L56322 23929
L56360 23910
L56435 23910
L56472 23929
L56510 23966
L56529 24041
L56529 24172
L56510 24247
L56472 24285
L56435 24304
L56360 24304
" />
<path d="M56904 24304
L56679 24304
" />
<path d="M56791 24304
L56791 23910
L56754 23966
L56716 24004
L56679 24022
" />
<path d="M57147 23910
L57185 23910
L57222 23929
L57241 23947
L57260 23985
L57279 24060
L57279 24154
L57260 24229
L57241 24266
L57222 24285
L57185 24304
L57147 24304
L57110 24285
L57091 24266
L57072 24229
L57054 24154
L57054 24060
L57072 23985
L57091 23947
L57110 23929
L57147 23910
" />
<path d="M66997 24341
L66960 24322
L66922 24285
L66866 24229
L66829 24210
L66791 24210
" />
<path d="M66810 24304
L66772 24285
L66735 24247
L66716 24172
L66716 24041
L66735 23966
L66772 23929
L66810 23910
L66885 23910
L66922 23929
L66960 23966
L66979 24041
L66979 24172
L66960 24247
L66922 24285
L66885 24304
L66810 24304
" />
<path d="M67354 24304
L67129 24304
" />
<path d="M67241 24304
L67241 23910
L67204 23966
L67166 24004
L67129 24022
" />
<path d="M67504 23947
L67522 23929
L67560 23910
L67654 23910
L67691 23929
L67710 23947
L67729 23985
L67729 24022
L67710 24079
L67485 24304
L67729 24304
" />
<path d="M63602 22589
L63564 22570
L63527 22533
L63470 22477
L63433 22458
L63395 22458
" />
<path d="M63414 22552
L63377 22533
L63339 22495
L63320 22420
L63320 22289
L63339 22214
L63377 22177
L63414 22158
L63489 22158
L63527 22177
L63564 22214
L63583 22289
L63583 22420
L63564 22495
L63527 22533
L63489 22552
L63414 22552
" />
<path d="M63958 22552
L63733 22552
" />
<path d="M63845 22552
L63845 22158
L63808 22214
L63770 22252
L63733 22270
" />
<path d="M64089 22158
L64333 22158
L64202 22308
L64258 22308
L64295 22327
L64314 22345
L64333 22383
L64333 22477
L64314 22514
L64295 22533
L64258 22552
L64145 22552
L64108 22533
L64089 22514
" />
<path d="M54584 24828
L54453 24640
" />
<path d="M54359 24828
L54359 24434
L54509 24434
L54546 24453
L54565 24471
L54584 24509
L54584 24565
L54565 24603
L54546 24621
L54509 24640
L54359 24640
" />
<path d="M54715 24434
L54978 24434
L54809 24828
" />
<path d="M60478 19553
L60290 19684
" />
<path d="M60478 19778
L60084 19778
L60084 19628
L60103 19590
L60121 19571
L60159 19553
L60215 19553
L60253 19571
L60271 19590
L60290 19628
L60290 19778
" />
<path d="M60478 19178
L60478 19403
" />
<path d="M60478 19290
L60084 19290
L60140 19328
L60178 19365
L60196 19403
" />
<path d="M60478 18803
L60478 19028
" />
<path d="M60478 18915
L60084 18915
L60140 18953
L60178 18990
L60196 19028
" />
<path d="M65696 24828
L65565 24640
" />
<path d="M65471 24828
L65471 24434
L65621 24434
L65659 24453
L65678 24471
L65696 24509
L65696 24565
L65678 24603
L65659 24621
L65621 24640
L65471 24640
" />
<path d="M66071 24828
L65846 24828
" />
<path d="M65959 24828
L65959 24434
L65921 24490
L65884 24528
L65846 24546
" />
<path d="M66221 24471
L66240 24453
L66278 24434
L66371 24434
L66409 24453
L66428 24471
L66446 24509
L66446 24546
L66428 24603
L66203 24828
L66446 24828
" />
<path d="M54396 25878
L54265 25690
" />
<path d="M54171 25878
L54171 25484
L54321 25484
L54359 25503
L54378 25521
L54396 25559
L54396 25615
L54378 25653
L54359 25671
L54321 25690
L54171 25690
" />
<path d="M54771 25878
L54546 25878
" />
<path d="M54659 25878
L54659 25484
L54621 25540
L54584 25578
L54546 25596
" />
<path d="M54903 25484
L55146 25484
L55015 25634
L55071 25634
L55109 25653
L55128 25671
L55146 25709
L55146 25803
L55128 25840
L55109 25859
L55071 25878
L54959 25878
L54921 25859
L54903 25840
" />
<path d="M60284 28878
L60153 28690
" />
<path d="M60059 28878
L60059 28484
L60209 28484
L60246 28503
L60265 28521
L60284 28559
L60284 28615
L60265 28653
L60246 28671
L60209 28690
L60059 28690
" />
<path d="M60509 28653
L60471 28634
L60453 28615
L60434 28578
L60434 28559
L60453 28521
L60471 28503
L60509 28484
L60584 28484
L60621 28503
L60640 28521
L60659 28559
L60659 28578
L60640 28615
L60621 28634
L60584 28653
L60509 28653
L60471 28671
L60453 28690
L60434 28728
L60434 28803
L60453 28840
L60471 28859
L60509 28878
L60584 28878
L60621 28859
L60640 28840
L60659 28803
L60659 28728
L60640 28690
L60621 28671
L60584 28653
" />
<path d="M65678 28253
L65490 28384
" />
<path d="M65678 28478
L65284 28478
L65284 28328
L65303 28290
L65321 28271
L65359 28253
L65415 28253
L65453 28271
L65471 28290
L65490 28328
L65490 28478
" />
<path d="M65678 27878
L65678 28103
" />
<path d="M65678 27990
L65284 27990
L65340 28028
L65378 28065
L65396 28103
" />
<path d="M65284 27746
L65284 27484
L65678 27653
" />
<path d="M54078 28065
L53890 28196
" />
<path d="M54078 28290
L53684 28290
L53684 28140
L53703 28103
L53721 28084
L53759 28065
L53815 28065
L53853 28084
L53871 28103
L53890 28140
L53890 28290
" />
<path d="M53684 27728
L53684 27803
L53703 27840
L53721 27859
L53778 27896
L53853 27915
L54003 27915
L54040 27896
L54059 27878
L54078 27840
L54078 27765
L54059 27728
L54040 27709
L54003 27690
L53909 27690
L53871 27709
L53853 27728
L53834 27765
L53834 27840
L53853 27878
L53871 27896
L53909 27915
" />
<path d="M56076 29181
L56357 29181
L56413 29199
L56451 29237
L56470 29293
L56470 29331
" />
<path d="M56470 28787
L56470 29012
" />
<path d="M56470 28900
L56076 28900
L56132 28937
L56170 28975
L56189 29012
" />
<path d="M55340 29087
L55322 29124
L55284 29162
L55228 29218
L55209 29256
L55209 29293
" />
<path d="M55303 29274
L55284 29312
L55247 29349
L55172 29368
L55040 29368
L54965 29349
L54928 29312
L54909 29274
L54909 29199
L54928 29162
L54965 29124
L55040 29106
L55172 29106
L55247 29124
L55284 29162
L55303 29199
L55303 29274
" />
<path d="M54909 28975
L54909 28712
L55303 28881
" />
<path d="M61225 27890
L61187 27871
L61150 27834
L61093 27777
L61056 27759
L61018 27759
" />
<path d="M61037 27852
L61000 27834
L60962 27796
L60943 27721
L60943 27590
L60962 27515
L61000 27477
L61037 27459
L61112 27459
L61150 27477
L61187 27515
L61206 27590
L61206 27721
L61187 27796
L61150 27834
L61112 27852
L61037 27852
" />
<path d="M61581 27852
L61356 27852
" />
<path d="M61468 27852
L61468 27459
L61431 27515
L61393 27552
L61356 27571
" />
<path d="M61956 27852
L61731 27852
" />
<path d="M61843 27852
L61843 27459
L61806 27515
L61768 27552
L61731 27571
" />
<path d="M63740 29274
L63722 29312
L63684 29349
L63628 29406
L63609 29443
L63609 29481
" />
<path d="M63703 29462
L63684 29499
L63647 29537
L63572 29556
L63440 29556
L63365 29537
L63328 29499
L63309 29462
L63309 29387
L63328 29349
L63365 29312
L63440 29293
L63572 29293
L63647 29312
L63684 29349
L63703 29387
L63703 29462
" />
<path d="M63703 28918
L63703 29143
" />
<path d="M63703 29031
L63309 29031
L63365 29068
L63403 29106
L63422 29143
" />
<path d="M63440 28581
L63703 28581
" />
<path d="M63290 28675
L63572 28768
L63572 28525
" />
<path d="M65696 25878
L65565 25690
" />
<path d="M65471 25878
L65471 25484
L65621 25484
L65659 25503
L65678 25521
L65696 25559
L65696 25615
L65678 25653
L65659 25671
L65621 25690
L65471 25690
" />
<path d="M66071 25878
L65846 25878
" />
<path d="M65959 25878
L65959 25484
L65921 25540
L65884 25578
L65846 25596
" />
<path d="M66409 25484
L66334 25484
L66296 25503
L66278 25521
L66240 25578
L66221 25653
L66221 25803
L66240 25840
L66259 25859
L66296 25878
L66371 25878
L66409 25859
L66428 25840
L66446 25803
L66446 25709
L66428 25671
L66409 25653
L66371 25634
L66296 25634
L66259 25653
L66240 25671
L66221 25709
" />
<path d="M55209 21728
L55209 21334
L55303 21334
L55359 21353
L55396 21390
L55415 21428
L55434 21503
L55434 21559
L55415 21634
L55396 21671
L55359 21709
L55303 21728
L55209 21728
" />
<path d="M55771 21334
L55696 21334
L55659 21353
L55640 21371
L55603 21428
L55584 21503
L55584 21653
L55603 21690
L55621 21709
L55659 21728
L55734 21728
L55771 21709
L55790 21690
L55809 21653
L55809 21559
L55790 21521
L55771 21503
L55734 21484
L55659 21484
L55621 21503
L55603 21521
L55584 21559
" />
<path d="M64809 21728
L64809 21334
L64903 21334
L64959 21353
L64996 21390
L65015 21428
L65034 21503
L65034 21559
L65015 21634
L64996 21671
L64959 21709
L64903 21728
L64809 21728
" />
<path d="M65259 21503
L65221 21484
L65203 21465
L65184 21428
L65184 21409
L65203 21371
L65221 21353
L65259 21334
L65334 21334
L65371 21353
L65390 21371
L65409 21409
L65409 21428
L65390 21465
L65371 21484
L65334 21503
L65259 21503
L65221 21521
L65203 21540
L65184 21578
L65184 21653
L65203 21690
L65221 21709
L65259 21728
L65334 21728
L65371 21709
L65390 21690
L65409 21653
L65409 21578
L65390 21540
L65371 21521
L65334 21503
" />
<path d="M67982 19438
L67589 19438
L67589 19344
L67607 19288
L67645 19251
L67682 19232
L67757 19213
L67814 19213
L67889 19232
L67926 19251
L67964 19288
L67982 19344
L67982 19438
" />
<path d="M67982 19026
L67982 18951
L67964 18913
L67945 18894
L67889 18857
L67814 18838
L67664 18838
L67626 18857
L67607 18876
L67589 18913
L67589 18988
L67607 19026
L67626 19044
L67664 19063
L67757 19063
L67795 19044
L67814 19026
L67832 18988
L67832 18913
L67814 18876
L67795 18857
L67757 18838
" />
<path d="M67463 20668
L67069 20668
" />
<path d="M67463 20443
L67238 20612
" />
<path d="M67069 20443
L67294 20668
" />
<path d="M63123 20080
L62729 20080
L62729 19986
L62748 19930
L62785 19892
L62823 19873
L62898 19855
L62954 19855
L63029 19873
L63067 19892
L63104 19930
L63123 19986
L63123 20080
" />
<path d="M63123 19480
L63123 19705
" />
<path d="M63123 19592
L62729 19592
L62785 19630
L62823 19667
L62842 19705
" />
<path d="M62729 19236
L62729 19198
L62748 19161
L62767 19142
L62804 19123
L62879 19105
L62973 19105
L63048 19123
L63085 19142
L63104 19161
L63123 19198
L63123 19236
L63104 19273
L63085 19292
L63048 19311
L62973 19330
L62879 19330
L62804 19311
L62767 19292
L62748 19273
L62729 19236
" />
<path d="M63643 18287
L63249 18287
" />
<path d="M63643 18062
L63418 18231
" />
<path d="M63249 18062
L63474 18287
" />
<path d="M60077 18304
L60095 18323
L60114 18379
L60114 18417
L60095 18473
L60058 18510
L60020 18529
L59945 18548
L59889 18548
L59814 18529
L59777 18510
L59739 18473
L59721 18417
L59721 18379
L59739 18323
L59758 18304
" />
<path d="M60114 17929
L60114 18154
" />
<path d="M60114 18042
L59721 18042
L59777 18079
L59814 18117
L59833 18154
" />
<path d="M64368 12684
L64368 12965
L64350 13021
L64312 13059
L64256 13078
L64218 13078
" />
<path d="M64518 12684
L64762 12684
L64631 12834
L64687 12834
L64724 12853
L64743 12871
L64762 12909
L64762 13003
L64743 13040
L64724 13059
L64687 13078
L64574 13078
L64537 13059
L64518 13040
" />
<path d="M61028 19015
L60840 19146
" />
<path d="M61028 19240
L60634 19240
L60634 19090
L60653 19053
L60671 19034
L60709 19015
L60765 19015
L60803 19034
L60821 19053
L60840 19090
L60840 19240
" />
<path d="M61028 18640
L61028 18865
" />
<path d="M61028 18753
L60634 18753
L60690 18790
L60728 18828
L60746 18865
" />
<path d="M62653 37226
L62672 37245
L62691 37301
L62691 37339
L62672 37395
L62635 37432
L62597 37451
L62522 37470
L62466 37470
L62391 37451
L62354 37432
L62316 37395
L62297 37339
L62297 37301
L62316 37245
L62335 37226
" />
<path d="M62335 37076
L62316 37057
L62297 37020
L62297 36926
L62316 36889
L62335 36870
L62372 36851
L62410 36851
L62466 36870
L62691 37095
L62691 36851
" />
<path d="M62118 31584
L62118 31865
L62100 31921
L62062 31959
L62006 31978
L61968 31978
" />
<path d="M62474 31715
L62474 31978
" />
<path d="M62381 31565
L62287 31846
L62531 31846
" />
<path d="M59706 36500
L59987 36500
L60043 36518
L60081 36556
L60100 36612
L60100 36650
" />
<path d="M59706 36125
L59706 36312
L59893 36331
L59875 36312
L59856 36275
L59856 36181
L59875 36143
L59893 36125
L59931 36106
L60025 36106
L60062 36125
L60081 36143
L60100 36181
L60100 36275
L60081 36312
L60062 36331
" />
<path d="M72168 35584
L72168 35865
L72150 35921
L72112 35959
L72056 35978
L72018 35978
" />
<path d="M72318 35584
L72581 35584
L72412 35978
" />
<path d="M62734 42231
L63015 42231
L63071 42249
L63109 42287
L63128 42343
L63128 42381
" />
<path d="M62903 41987
L62884 42025
L62865 42043
L62828 42062
L62809 42062
L62771 42043
L62753 42025
L62734 41987
L62734 41912
L62753 41875
L62771 41856
L62809 41837
L62828 41837
L62865 41856
L62884 41875
L62903 41912
L62903 41987
L62921 42025
L62940 42043
L62978 42062
L63053 42062
L63090 42043
L63109 42025
L63128 41987
L63128 41912
L63109 41875
L63090 41856
L63053 41837
L62978 41837
L62940 41856
L62921 41875
L62903 41912
" />
<path d="M67168 31584
L67168 31865
L67150 31921
L67112 31959
L67056 31978
L67018 31978
" />
<path d="M67374 31978
L67449 31978
L67487 31959
L67506 31940
L67543 31884
L67562 31809
L67562 31659
L67543 31621
L67524 31603
L67487 31584
L67412 31584
L67374 31603
L67356 31621
L67337 31659
L67337 31753
L67356 31790
L67374 31809
L67412 31828
L67487 31828
L67524 31809
L67543 31790
L67562 31753
" />
</g> 
</svg>
