M48
; DRILL file KiCad 10.0.2 date 2026-05-21T17:34:12
; FORMAT={-:-/ absolute / metric / decimal}
; #@! TF.CreationDate,2026-05-21T17:34:12+03:00
; #@! TF.GenerationSoftware,Kicad,Pcbnew,10.0.2
; #@! TF.FileFunction,Plated,1,2,PTH
FMAT,2
METRIC
; #@! TA.AperFunction,Plated,PTH,ComponentDrill
T1C0.800
%
G90
G05
T1
X43.18Y-77.49
X43.18Y-79.99
X43.18Y-82.49
X43.18Y-84.99
X49.53Y-76.24
X49.53Y-78.74
X49.53Y-83.82
X49.53Y-86.32
X54.61Y-73.7
X54.61Y-78.7
X54.61Y-83.86
X54.61Y-88.86
X58.42Y-58.42
X58.42Y-71.12
X58.42Y-91.44
X58.42Y-104.14
X58.42Y-109.22
X58.532Y-53.34
X63.5Y-58.42
X63.5Y-71.12
X63.5Y-91.44
X63.5Y-104.14
X68.58Y-66.736
X68.58Y-79.436
X68.58Y-83.185
X68.58Y-95.885
X69.85Y-58.46
X69.85Y-63.46
X69.85Y-99.1
X69.85Y-104.1
X71.12Y-109.22
X71.233Y-53.34
X74.93Y-68.58
X74.93Y-93.98
X76.2Y-58.46
X76.2Y-63.46
X76.2Y-99.1
X76.2Y-104.1
X77.43Y-68.58
X77.43Y-93.98
X85.085Y-71.12
X85.085Y-76.12
X85.09Y-55.88
X85.09Y-58.38
X85.09Y-62.23
X85.09Y-64.77
X85.09Y-67.31
X85.09Y-86.4
X85.09Y-91.4
X85.09Y-104.18
X85.09Y-106.68
X85.135Y-95.25
X85.135Y-97.79
X85.135Y-100.33
X90.17Y-57.15
X90.17Y-62.23
X90.17Y-100.33
X90.17Y-105.41
X92.75Y-69.85
X92.75Y-92.71
X95.25Y-69.85
X95.25Y-92.71
X101.6Y-66.04
X101.6Y-78.74
X101.6Y-83.82
X101.6Y-96.52
X102.87Y-57.15
X102.87Y-62.23
X102.87Y-100.33
X102.87Y-105.41
X109.22Y-62.23
X109.22Y-64.77
X109.22Y-67.31
X109.22Y-71.16
X109.22Y-76.16
X109.22Y-79.375
X109.22Y-83.185
X109.22Y-86.18
X109.22Y-91.18
X109.22Y-95.24
X109.22Y-97.78
X109.22Y-100.32
X115.57Y-60.96
X115.57Y-73.66
X115.57Y-88.9
X115.57Y-101.6
X116.84Y-55.88
X116.88Y-106.68
X119.34Y-55.88
X119.38Y-106.68
X120.65Y-60.96
X120.65Y-73.66
X120.65Y-88.9
X120.65Y-101.6
X121.92Y-79.375
X121.92Y-83.185
X126.365Y-71.16
X126.365Y-73.66
X126.365Y-88.9
X126.365Y-91.4
M30
