<?xml version="1.0" standalone="no"?>
 <!DOCTYPE svg PUBLIC "-//W3C//DTD SVG 1.1//EN" 
 "http://www.w3.org/Graphics/SVG/1.1/DTD/svg11.dtd"> 
<svg xmlns="http://www.w3.org/2000/svg" version="1.1" 
    width="29.7002cm" height="21.0007cm" viewBox="0 0 116930 82680 ">
<title>SVG Picture created as rc_car-F.SilkS.svg date 2017/04/04 14:05:27 </title>
  <desc>Picture generated by PCBNEW </desc>
<g style="fill:#000000; fill-opacity:1;stroke:#000000; stroke-opacity:1;
stroke-linecap:round; stroke-linejoin:round; "
 transform="translate(0 0) scale(1 1)">
</g>
<g style="fill:#000000; fill-opacity:0.0; 
stroke:#000000; stroke-width:-0.000393701; stroke-opacity:1; 
stroke-linecap:round; stroke-linejoin:round;">
</g>
<g style="fill:#000000; fill-opacity:0.0; 
stroke:#000000; stroke-width:59.0551; stroke-opacity:1; 
stroke-linecap:round; stroke-linejoin:round;">
<path d="M45896 40453
L45896 39953
" />
<path d="M43003 40453
L43003 39953
" />
<path d="M43003 25646
L43003 26146
" />
<path d="M45896 25646
L45896 26146
" />
<path d="M45896 40453
L43003 40453
" />
<path d="M45896 25646
L43003 25646
" />
<path d="M45896 39953
L46402 39953
" />
<path d="M49989 23489
L49635 23135
" />
<path d="M52110 25610
L52464 25964
" />
<path d="M52110 25610
L51898 25398
" />
<path d="M51898 25398
L52181 25115
" />
<path d="M52181 25115
L50484 23418
" />
<path d="M50484 23418
L50201 23701
" />
<path d="M50201 23701
L49989 23489
" />
<path d="M50201 23701
L49918 23984
" />
<path d="M49918 23984
L51615 25681
" />
<path d="M51615 25681
L51898 25398
" />
<path d="M52039 24974
L51474 25539
" />
<path d="M51403 25469
L51969 24903
" />
<path d="M33389 37611
L34000 37611
" />
<path d="M33389 37100
L33389 37611
" />
<path d="M33950 35450
L33950 33150
" />
<path d="M33950 33150
L34050 33150
" />
<path d="M34050 33150
L34050 35450
" />
<path d="M34050 35450
L34000 35450
" />
<path d="M34000 35450
L34000 33150
" />
<path d="M33900 36500
L33900 36650
" />
<path d="M34100 36500
L34100 36650
" />
<path d="M34900 36500
L34900 36650
" />
<path d="M35100 36500
L35100 36650
" />
<path d="M35900 36500
L35900 36650
" />
<path d="M36100 36500
L36100 36650
" />
<path d="M37100 36500
L37100 36650
" />
<path d="M36900 36500
L36900 36650
" />
<path d="M33500 36500
L33500 35500
" />
<path d="M34500 36500
L34500 35500
" />
<path d="M34500 36500
L35500 36500
" />
<path d="M35500 36500
L35500 35500
" />
<path d="M34900 35500
L34900 33100
" />
<path d="M34900 33100
L35100 33100
" />
<path d="M35100 33100
L35100 35500
" />
<path d="M35500 35500
L34500 35500
" />
<path d="M34500 35500
L33500 35500
" />
<path d="M34100 33100
L34100 35500
" />
<path d="M33900 33100
L34100 33100
" />
<path d="M33900 35500
L33900 33100
" />
<path d="M34500 36500
L34500 35500
" />
<path d="M33500 36500
L34500 36500
" />
<path d="M36500 36500
L36500 35500
" />
<path d="M36500 36500
L37500 36500
" />
<path d="M37500 36500
L37500 35500
" />
<path d="M36900 35500
L36900 33100
" />
<path d="M36900 33100
L37100 33100
" />
<path d="M37100 33100
L37100 35500
" />
<path d="M37500 35500
L36500 35500
" />
<path d="M36500 35500
L35500 35500
" />
<path d="M36100 33100
L36100 35500
" />
<path d="M35900 33100
L36100 33100
" />
<path d="M35900 35500
L35900 33100
" />
<path d="M36500 36500
L36500 35500
" />
<path d="M35500 36500
L36500 36500
" />
<path d="M35500 36500
L35500 35500
" />
<path d="M25550 14150
L21550 14150
" />
<path d="M25550 14650
L25550 11650
" />
<path d="M25550 11650
L21550 11650
" />
<path d="M21550 11650
L21550 14650
" />
<path d="M21550 14650
L25550 14650
" />
<path d="M46939 18671
L44460 18671
" />
<path d="M46937 18726
L44462 18726
" />
<path d="M46932 18781
L45875 18781
" />
<path d="M45524 18781
L44467 18781
" />
<path d="M46924 18837
L45958 18837
" />
<path d="M45441 18837
L44475 18837
" />
<path d="M46914 18892
L46010 18892
" />
<path d="M45389 18892
L44485 18892
" />
<path d="M46901 18947
L46046 18947
" />
<path d="M45353 18947
L44498 18947
" />
<path d="M46886 19002
L46070 19002
" />
<path d="M45329 19002
L44513 19002
" />
<path d="M46868 19057
L46086 19057
" />
<path d="M45313 19057
L44531 19057
" />
<path d="M46847 19112
L46092 19112
" />
<path d="M45307 19112
L44552 19112
" />
<path d="M46823 19167
L46092 19167
" />
<path d="M45307 19167
L44576 19167
" />
<path d="M46795 19222
L46083 19222
" />
<path d="M45316 19222
L44604 19222
" />
<path d="M46764 19277
L46066 19277
" />
<path d="M45333 19277
L44635 19277
" />
<path d="M46729 19333
L46039 19333
" />
<path d="M45360 19333
L44670 19333
" />
<path d="M46690 19388
L46000 19388
" />
<path d="M45399 19388
L44709 19388
" />
<path d="M46646 19443
L45943 19443
" />
<path d="M45456 19443
L44753 19443
" />
<path d="M46597 19498
L45849 19498
" />
<path d="M45550 19498
L44802 19498
" />
<path d="M46540 19553
L44859 19553
" />
<path d="M46477 19608
L44922 19608
" />
<path d="M46403 19663
L44996 19663
" />
<path d="M46315 19718
L45084 19718
" />
<path d="M46206 19774
L45193 19774
" />
<path d="M46059 19829
L45340 19829
" />
<circle cx="45700" cy="19134.3" r="393.701" /> 
<circle cx="45700" cy="18642.1" r="1254.92" /> 
<path d="M47742 31206
L47742 33962
" />
<path d="M47742 33962
L46757 33962
" />
<path d="M46757 33962
L46757 31206
" />
<path d="M46757 31206
L47742 31206
" />
<path d="M41442 31506
L41442 34262
" />
<path d="M41442 34262
L40457 34262
" />
<path d="M40457 34262
L40457 31506
" />
<path d="M40457 31506
L41442 31506
" />
<path d="M52350 33600
L51950 33600
" />
<path d="M51950 33600
L51950 34000
" />
<path d="M51950 34000
L48750 34000
" />
<path d="M48750 34000
L48750 33200
" />
<path d="M48750 33200
L51950 33200
" />
<path d="M51950 33200
L51950 33600
" />
<path d="M51950 33800
L51750 34000
" />
<path d="M48350 33600
L48750 33600
" />
<path d="M38950 31900
L38950 32300
" />
<path d="M38950 32300
L39350 32300
" />
<path d="M39350 32300
L39350 35500
" />
<path d="M39350 35500
L38550 35500
" />
<path d="M38550 35500
L38550 32300
" />
<path d="M38550 32300
L38950 32300
" />
<path d="M39150 32300
L39350 32500
" />
<path d="M38950 35900
L38950 35500
" />
<path d="M41550 39550
L41150 39550
" />
<path d="M41150 39550
L41150 39950
" />
<path d="M41150 39950
L37950 39950
" />
<path d="M37950 39950
L37950 39150
" />
<path d="M37950 39150
L41150 39150
" />
<path d="M41150 39150
L41150 39550
" />
<path d="M41150 39750
L40950 39950
" />
<path d="M37550 39550
L37950 39550
" />
<path d="M37550 38550
L37950 38550
" />
<path d="M37950 38550
L37950 38150
" />
<path d="M37950 38150
L41150 38150
" />
<path d="M41150 38150
L41150 38950
" />
<path d="M41150 38950
L37950 38950
" />
<path d="M37950 38950
L37950 38550
" />
<path d="M37950 38350
L38150 38150
" />
<path d="M41550 38550
L41150 38550
" />
<path d="M44350 10600
L44350 14600
" />
<path d="M44850 10600
L41850 10600
" />
<path d="M41850 10600
L41850 14600
" />
<path d="M41850 14600
L44850 14600
" />
<path d="M44850 14600
L44850 10600
" />
<path d="M27850 14000
L27850 10000
" />
<path d="M27350 14000
L30350 14000
" />
<path d="M30350 14000
L30350 10000
" />
<path d="M30350 10000
L27350 10000
" />
<path d="M27350 10000
L27350 14000
" />
<path d="M34650 14100
L34650 10100
" />
<path d="M34150 14100
L37150 14100
" />
<path d="M37150 14100
L37150 10100
" />
<path d="M37150 10100
L34150 10100
" />
<path d="M34150 10100
L34150 14100
" />
<path d="M49900 36550
L49900 36950
" />
<path d="M49900 36950
L50300 36950
" />
<path d="M50300 36950
L50300 40150
" />
<path d="M50300 40150
L49500 40150
" />
<path d="M49500 40150
L49500 36950
" />
<path d="M49500 36950
L49900 36950
" />
<path d="M50100 36950
L50300 37150
" />
<path d="M49900 40550
L49900 40150
" />
<path d="M49000 40050
L49000 37050
" />
<path d="M48000 40050
L48000 37050
" />
<path d="M47889 41160
L47889 40550
" />
<path d="M49000 37050
L48000 37050
" />
<path d="M48000 40050
L49000 40050
" />
<path d="M49110 40550
L49110 41160
" />
<path d="M49110 41160
L47889 41160
" />
<path d="M41050 38050
L40050 38050
" />
<path d="M42160 38160
L41550 38160
" />
<path d="M41050 38050
L41050 37050
" />
<path d="M41550 36939
L42160 36939
" />
<path d="M42160 36939
L42160 38160
" />
<path d="M41050 37050
L40050 37050
" />
<path d="M40050 37050
L40050 38050
" />
<path d="M41050 37050
L40050 37050
" />
<path d="M42160 37160
L41550 37160
" />
<path d="M41050 37050
L41050 36050
" />
<path d="M41550 35939
L42160 35939
" />
<path d="M42160 35939
L42160 37160
" />
<path d="M41050 36050
L40050 36050
" />
<path d="M40050 36050
L40050 37050
" />
<path d="M43292 17756
L43292 20512
" />
<path d="M43292 20512
L42307 20512
" />
<path d="M42307 20512
L42307 17756
" />
<path d="M42307 17756
L43292 17756
" />
<path d="M53600 35950
L54600 35950
" />
<path d="M52489 35839
L53100 35839
" />
<path d="M53600 35950
L53600 36950
" />
<path d="M53100 37060
L52489 37060
" />
<path d="M52489 37060
L52489 35839
" />
<path d="M53600 36950
L54600 36950
" />
<path d="M54600 36950
L54600 35950
" />
<path d="M44450 24800
L43450 24800
" />
<path d="M45560 24910
L44950 24910
" />
<path d="M44450 24800
L44450 23800
" />
<path d="M44950 23689
L45560 23689
" />
<path d="M45560 23689
L45560 24910
" />
<path d="M44450 23800
L43450 23800
" />
<path d="M43450 23800
L43450 24800
" />
<path d="M32800 24300
L33300 24300
" />
<path d="M29800 24300
L29300 24300
" />
<path d="M29800 24300
L30100 24300
" />
<path d="M30100 24300
L30100 24700
" />
<path d="M30100 24700
L32500 24700
" />
<path d="M32500 24700
L32500 24300
" />
<path d="M32500 24300
L32800 24300
" />
<path d="M32500 24300
L32500 23900
" />
<path d="M32500 23900
L30100 23900
" />
<path d="M30100 23900
L30100 24300
" />
<path d="M30300 24700
L30300 23900
" />
<path d="M30400 23900
L30400 24700
" />
<path d="M33689 23489
L33335 23135
" />
<path d="M35810 25610
L36164 25964
" />
<path d="M35810 25610
L35598 25398
" />
<path d="M35598 25398
L35881 25115
" />
<path d="M35881 25115
L34184 23418
" />
<path d="M34184 23418
L33901 23701
" />
<path d="M33901 23701
L33689 23489
" />
<path d="M33901 23701
L33618 23984
" />
<path d="M33618 23984
L35315 25681
" />
<path d="M35315 25681
L35598 25398
" />
<path d="M35739 24974
L35174 25539
" />
<path d="M35103 25469
L35669 24903
" />
<path d="M40350 23700
L40350 24200
" />
<path d="M40350 20700
L40350 20200
" />
<path d="M40350 20700
L40350 21000
" />
<path d="M40350 21000
L39950 21000
" />
<path d="M39950 21000
L39950 23400
" />
<path d="M39950 23400
L40350 23400
" />
<path d="M40350 23400
L40350 23700
" />
<path d="M40350 23400
L40750 23400
" />
<path d="M40750 23400
L40750 21000
" />
<path d="M40750 21000
L40350 21000
" />
<path d="M39950 21200
L40750 21200
" />
<path d="M40750 21300
L39950 21300
" />
<path d="M39010 23489
L39364 23135
" />
<path d="M36889 25610
L36535 25964
" />
<path d="M36889 25610
L37101 25398
" />
<path d="M37101 25398
L37384 25681
" />
<path d="M37384 25681
L39081 23984
" />
<path d="M39081 23984
L38798 23701
" />
<path d="M38798 23701
L39010 23489
" />
<path d="M38798 23701
L38515 23418
" />
<path d="M38515 23418
L36818 25115
" />
<path d="M36818 25115
L37101 25398
" />
<path d="M37525 25539
L36960 24974
" />
<path d="M37030 24903
L37596 25469
" />
<path d="M34250 28250
L36250 28250
" />
<path d="M36250 28250
L36250 27250
" />
<path d="M36250 27250
L34250 27250
" />
<path d="M33139 27139
L33750 27139
" />
<path d="M34250 27250
L34250 28250
" />
<path d="M33750 28360
L33139 28360
" />
<path d="M33139 28360
L33139 27139
" />
<path d="M39000 41350
L41000 41350
" />
<path d="M41000 41350
L41000 40350
" />
<path d="M41000 40350
L39000 40350
" />
<path d="M37889 40239
L38500 40239
" />
<path d="M39000 40350
L39000 41350
" />
<path d="M38500 41460
L37889 41460
" />
<path d="M37889 41460
L37889 40239
" />
<path d="M33519 25080
L32180 25080
" />
<path d="M32850 26694.9 A944.882 944.882 0.0 0 0 33518.1 25081.9 " />
<path d="M32181.9 25081.9 A944.882 944.882 0.0 0 0 32850 26694.9 " />
<path d="M34350 17750
L34350 20350
" />
<path d="M34750 17750
L34200 17750
" />
<path d="M34200 17750
L34200 20350
" />
<path d="M34200 20350
L35200 20350
" />
<path d="M35200 20350
L35200 17750
" />
<path d="M35200 17750
L34750 17750
" />
<path d="M35150 23350
L35150 20750
" />
<path d="M34750 23350
L35300 23350
" />
<path d="M35300 23350
L35300 20750
" />
<path d="M35300 20750
L34300 20750
" />
<path d="M34300 20750
L34300 23350
" />
<path d="M34300 23350
L34750 23350
" />
<path d="M41569 25580
L40230 25580
" />
<path d="M40900 27194.9 A944.882 944.882 0.0 0 0 41568.1 25581.9 " />
<path d="M40231.9 25581.9 A944.882 944.882 0.0 0 0 40900 27194.9 " />
<path d="M37550 17750
L37550 20350
" />
<path d="M37950 17750
L37400 17750
" />
<path d="M37400 17750
L37400 20350
" />
<path d="M37400 20350
L38400 20350
" />
<path d="M38400 20350
L38400 17750
" />
<path d="M38400 17750
L37950 17750
" />
<path d="M38350 23350
L38350 20750
" />
<path d="M37950 23350
L38500 23350
" />
<path d="M38500 23350
L38500 20750
" />
<path d="M38500 20750
L37500 20750
" />
<path d="M37500 20750
L37500 23350
" />
<path d="M37500 23350
L37950 23350
" />
<path d="M38080 27080
L38080 28419
" />
<path d="M39694.9 27750 A944.882 944.882 0.0 0 0 38081.9 27081.9 " />
<path d="M38081.9 28418.1 A944.882 944.882 0.0 0 0 39694.9 27750 " />
<path d="M33350 18150
L33350 18550
" />
<path d="M33350 18550
L33750 18550
" />
<path d="M33750 18550
L33750 21750
" />
<path d="M33750 21750
L32950 21750
" />
<path d="M32950 21750
L32950 18550
" />
<path d="M32950 18550
L33350 18550
" />
<path d="M33550 18550
L33750 18750
" />
<path d="M33350 22150
L33350 21750
" />
<path d="M47150 35550
L47150 35950
" />
<path d="M47150 35950
L47550 35950
" />
<path d="M47550 35950
L47550 39150
" />
<path d="M47550 39150
L46750 39150
" />
<path d="M46750 39150
L46750 35950
" />
<path d="M46750 35950
L47150 35950
" />
<path d="M47350 35950
L47550 36150
" />
<path d="M47150 39550
L47150 39150
" />
<path d="M36350 21950
L36350 22350
" />
<path d="M36350 22350
L36750 22350
" />
<path d="M36750 22350
L36750 25550
" />
<path d="M36750 25550
L35950 25550
" />
<path d="M35950 25550
L35950 22350
" />
<path d="M35950 22350
L36350 22350
" />
<path d="M36550 22350
L36750 22550
" />
<path d="M36350 25950
L36350 25550
" />
<path d="M39350 18150
L39350 18550
" />
<path d="M39350 18550
L39750 18550
" />
<path d="M39750 18550
L39750 21750
" />
<path d="M39750 21750
L38950 21750
" />
<path d="M38950 21750
L38950 18550
" />
<path d="M38950 18550
L39350 18550
" />
<path d="M39550 18550
L39750 18750
" />
<path d="M39350 22150
L39350 21750
" />
<path d="M32350 18150
L32350 18550
" />
<path d="M32350 18550
L32750 18550
" />
<path d="M32750 18550
L32750 21750
" />
<path d="M32750 21750
L31950 21750
" />
<path d="M31950 21750
L31950 18550
" />
<path d="M31950 18550
L32350 18550
" />
<path d="M32550 18550
L32750 18750
" />
<path d="M32350 22150
L32350 21750
" />
<path d="M40900 24800
L41900 24800
" />
<circle cx="40900" cy="24800" r="559.017" /> 
<path d="M37250 27750
L37250 26750
" />
<circle cx="37250" cy="27750" r="559.017" /> 
<path d="M34450 26400
L34450 25400
" />
<circle cx="34450" cy="26400" r="559.017" /> 
<path d="M40350 18150
L40350 19150
" />
<circle cx="40350" cy="18150" r="559.017" /> 
<path d="M56150 24150
L55650 24150
" />
<path d="M59150 24150
L59650 24150
" />
<path d="M59150 24150
L58850 24150
" />
<path d="M58850 24150
L58850 23750
" />
<path d="M58850 23750
L56450 23750
" />
<path d="M56450 23750
L56450 24150
" />
<path d="M56450 24150
L56150 24150
" />
<path d="M56450 24150
L56450 24550
" />
<path d="M56450 24550
L58850 24550
" />
<path d="M58850 24550
L58850 24150
" />
<path d="M58650 23750
L58650 24550
" />
<path d="M58550 24550
L58550 23750
" />
<path d="M55310 23489
L55664 23135
" />
<path d="M53189 25610
L52835 25964
" />
<path d="M53189 25610
L53401 25398
" />
<path d="M53401 25398
L53684 25681
" />
<path d="M53684 25681
L55381 23984
" />
<path d="M55381 23984
L55098 23701
" />
<path d="M55098 23701
L55310 23489
" />
<path d="M55098 23701
L54815 23418
" />
<path d="M54815 23418
L53118 25115
" />
<path d="M53118 25115
L53401 25398
" />
<path d="M53825 25539
L53260 24974
" />
<path d="M53330 24903
L53896 25469
" />
<path d="M48600 23750
L48600 24250
" />
<path d="M48600 20750
L48600 20250
" />
<path d="M48600 20750
L48600 21050
" />
<path d="M48600 21050
L48200 21050
" />
<path d="M48200 21050
L48200 23450
" />
<path d="M48200 23450
L48600 23450
" />
<path d="M48600 23450
L48600 23750
" />
<path d="M48600 23450
L49000 23450
" />
<path d="M49000 23450
L49000 21050
" />
<path d="M49000 21050
L48600 21050
" />
<path d="M48200 21250
L49000 21250
" />
<path d="M49000 21350
L48200 21350
" />
<path d="M47230 27219
L48569 27219
" />
<path d="M47900 25605.1 A944.882 944.882 0.0 0 0 47231.9 27218.1 " />
<path d="M48568.1 27218.1 A944.882 944.882 0.0 0 0 47900 25605.1 " />
<path d="M55280 27569
L56619 27569
" />
<path d="M55950 25955.1 A944.882 944.882 0.0 0 0 55281.9 27568.1 " />
<path d="M56618.1 27568.1 A944.882 944.882 0.0 0 0 55950 25955.1 " />
<path d="M53850 17750
L53850 20350
" />
<path d="M54250 17750
L53700 17750
" />
<path d="M53700 17750
L53700 20350
" />
<path d="M53700 20350
L54700 20350
" />
<path d="M54700 20350
L54700 17750
" />
<path d="M54700 17750
L54250 17750
" />
<path d="M54650 23350
L54650 20750
" />
<path d="M54250 23350
L54800 23350
" />
<path d="M54800 23350
L54800 20750
" />
<path d="M54800 20750
L53800 20750
" />
<path d="M53800 20750
L53800 23350
" />
<path d="M53800 23350
L54250 23350
" />
<path d="M50650 17750
L50650 20350
" />
<path d="M51050 17750
L50500 17750
" />
<path d="M50500 17750
L50500 20350
" />
<path d="M50500 20350
L51500 20350
" />
<path d="M51500 20350
L51500 17750
" />
<path d="M51500 17750
L51050 17750
" />
<path d="M51450 23350
L51450 20750
" />
<path d="M51050 23350
L51600 23350
" />
<path d="M51600 23350
L51600 20750
" />
<path d="M51600 20750
L50600 20750
" />
<path d="M50600 20750
L50600 23350
" />
<path d="M50600 23350
L51050 23350
" />
<path d="M49280 26780
L49280 28119
" />
<path d="M50894.9 27450 A944.882 944.882 0.0 0 0 49281.9 26781.9 " />
<path d="M49281.9 28118.1 A944.882 944.882 0.0 0 0 50894.9 27450 " />
<path d="M47900 24850
L46900 24850
" />
<circle cx="47900" cy="24850" r="559.017" /> 
<path d="M52650 18150
L52650 18550
" />
<path d="M52650 18550
L53050 18550
" />
<path d="M53050 18550
L53050 21750
" />
<path d="M53050 21750
L52250 21750
" />
<path d="M52250 21750
L52250 18550
" />
<path d="M52250 18550
L52650 18550
" />
<path d="M52850 18550
L53050 18750
" />
<path d="M52650 22150
L52650 21750
" />
<path d="M55950 25300
L54950 25300
" />
<circle cx="55950" cy="25300" r="559.017" /> 
<path d="M56650 18150
L56650 18550
" />
<path d="M56650 18550
L57050 18550
" />
<path d="M57050 18550
L57050 21750
" />
<path d="M57050 21750
L56250 21750
" />
<path d="M56250 21750
L56250 18550
" />
<path d="M56250 18550
L56650 18550
" />
<path d="M56850 18550
L57050 18750
" />
<path d="M56650 22150
L56650 21750
" />
<path d="M55650 18150
L55650 18550
" />
<path d="M55650 18550
L56050 18550
" />
<path d="M56050 18550
L56050 21750
" />
<path d="M56050 21750
L55250 21750
" />
<path d="M55250 21750
L55250 18550
" />
<path d="M55250 18550
L55650 18550
" />
<path d="M55850 18550
L56050 18750
" />
<path d="M55650 22150
L55650 21750
" />
<path d="M49650 18150
L49650 18550
" />
<path d="M49650 18550
L50050 18550
" />
<path d="M50050 18550
L50050 21750
" />
<path d="M50050 21750
L49250 21750
" />
<path d="M49250 21750
L49250 18550
" />
<path d="M49250 18550
L49650 18550
" />
<path d="M49850 18550
L50050 18750
" />
<path d="M49650 22150
L49650 21750
" />
<path d="M48600 18150
L48600 19150
" />
<circle cx="48600" cy="18150" r="559.017" /> 
<path d="M51650 27250
L51650 26250
" />
<circle cx="51650" cy="27250" r="559.017" /> 
<path d="M45818 41389
L45818 41670
L45800 41726
L45762 41764
L45706 41783
L45668 41783
" />
<path d="M46212 41783
L45987 41783
" />
<path d="M46099 41783
L46099 41389
L46062 41445
L46024 41483
L45987 41502
" />
<path d="M50718 24470
L50996 24192
L51063 24258
L51089 24311
L51089 24364
L51076 24404
L51036 24470
L50996 24510
L50930 24550
L50890 24563
L50837 24563
L50784 24536
L50718 24470
" />
<path d="M51195 24629
L51182 24589
L51182 24563
L51195 24523
L51209 24510
L51248 24496
L51275 24496
L51315 24510
L51368 24563
L51381 24603
L51381 24629
L51368 24669
L51354 24682
L51315 24695
L51288 24695
L51248 24682
L51195 24629
L51156 24616
L51129 24616
L51089 24629
L51036 24682
L51023 24722
L51023 24748
L51036 24788
L51089 24841
L51129 24854
L51156 24854
L51195 24841
L51248 24788
L51262 24748
L51262 24722
L51248 24682
" />
<path d="M32170 37643
L31907 37643
" />
<path d="M31776 37643
L31795 37662
L31814 37643
L31795 37624
L31776 37643
L31814 37643
" />
<path d="M31814 37474
L31795 37456
L31776 37418
L31776 37324
L31795 37287
L31814 37268
L31851 37249
L31889 37249
L31945 37268
L32170 37493
L32170 37249
" />
<path d="M32151 36912
L32170 36950
L32170 37025
L32151 37062
L32132 37081
L32095 37100
L31982 37100
L31945 37081
L31926 37062
L31907 37025
L31907 36950
L31926 36912
" />
<path d="M32170 36537
L32170 36762
" />
<path d="M32170 36650
L31776 36650
L31832 36687
L31870 36725
L31889 36762
" />
<path d="M22640 10934
L22453 10934
L22434 11121
L22453 11103
L22490 11084
L22584 11084
L22621 11103
L22640 11121
L22659 11159
L22659 11253
L22640 11290
L22621 11309
L22584 11328
L22490 11328
L22453 11309
L22434 11290
" />
<path d="M22790 11065
L22884 11328
L22978 11065
" />
<path d="M23034 11365
L23334 11365
" />
<path d="M23596 11328
L23596 11121
L23578 11084
L23540 11065
L23465 11065
L23428 11084
" />
<path d="M23596 11309
L23559 11328
L23465 11328
L23428 11309
L23409 11271
L23409 11234
L23428 11196
L23465 11178
L23559 11178
L23596 11159
" />
<path d="M23953 11065
L23953 11328
" />
<path d="M23784 11065
L23784 11271
L23803 11309
L23840 11328
L23896 11328
L23934 11309
L23953 11290
" />
<path d="M24103 11328
L24309 11065
" />
<path d="M24103 11065
L24309 11328
" />
<path d="M24665 11328
L24440 11328
" />
<path d="M24552 11328
L24552 10934
L24515 10990
L24478 11028
L24440 11046
" />
<path d="M47572 18707
L47591 18726
L47610 18782
L47610 18820
L47591 18876
L47554 18913
L47516 18932
L47441 18951
L47385 18951
L47310 18932
L47272 18913
L47235 18876
L47216 18820
L47216 18782
L47235 18726
L47254 18707
" />
<path d="M47610 18332
L47610 18557
" />
<path d="M47610 18445
L47216 18445
L47272 18482
L47310 18520
L47329 18557
" />
<path d="M48374 32649
L48393 32668
L48412 32724
L48412 32762
L48393 32818
L48356 32856
L48318 32874
L48243 32893
L48187 32893
L48112 32874
L48074 32856
L48037 32818
L48018 32762
L48018 32724
L48037 32668
L48056 32649
" />
<path d="M48056 32499
L48037 32481
L48018 32443
L48018 32349
L48037 32312
L48056 32293
L48093 32274
L48131 32274
L48187 32293
L48412 32518
L48412 32274
" />
<path d="M42074 32949
L42093 32968
L42112 33024
L42112 33062
L42093 33118
L42056 33156
L42018 33174
L41943 33193
L41887 33193
L41812 33174
L41774 33156
L41737 33118
L41718 33062
L41718 33024
L41737 32968
L41756 32949
" />
<path d="M41718 32818
L41718 32574
L41868 32706
L41868 32649
L41887 32612
L41906 32593
L41943 32574
L42037 32574
L42074 32593
L42093 32612
L42112 32649
L42112 32762
L42093 32799
L42074 32818
" />
<path d="M50021 33571
L49890 33571
" />
<path d="M49890 33778
L49890 33384
L50078 33384
" />
<path d="M50359 33571
L50415 33590
L50434 33609
L50453 33646
L50453 33703
L50434 33740
L50415 33759
L50378 33778
L50228 33778
L50228 33384
L50359 33384
L50396 33403
L50415 33421
L50434 33459
L50434 33496
L50415 33534
L50396 33553
L50359 33571
L50228 33571
" />
<path d="M50828 33778
L50603 33778
" />
<path d="M50715 33778
L50715 33384
L50678 33440
L50640 33478
L50603 33496
" />
<path d="M38921 34228
L38921 34359
" />
<path d="M39128 34359
L38734 34359
L38734 34171
" />
<path d="M38921 33890
L38940 33834
L38959 33815
L38996 33796
L39053 33796
L39090 33815
L39109 33834
L39128 33871
L39128 34021
L38734 34021
L38734 33890
L38753 33853
L38771 33834
L38809 33815
L38846 33815
L38884 33834
L38903 33853
L38921 33890
L38921 34021
" />
<path d="M38771 33646
L38753 33628
L38734 33590
L38734 33496
L38753 33459
L38771 33440
L38809 33421
L38846 33421
L38903 33440
L39128 33665
L39128 33421
" />
<path d="M39221 39521
L39090 39521
" />
<path d="M39090 39728
L39090 39334
L39278 39334
" />
<path d="M39559 39521
L39615 39540
L39634 39559
L39653 39596
L39653 39653
L39634 39690
L39615 39709
L39578 39728
L39428 39728
L39428 39334
L39559 39334
L39596 39353
L39615 39371
L39634 39409
L39634 39446
L39615 39484
L39596 39503
L39559 39521
L39428 39521
" />
<path d="M39784 39334
L40028 39334
L39896 39484
L39953 39484
L39990 39503
L40009 39521
L40028 39559
L40028 39653
L40009 39690
L39990 39709
L39953 39728
L39840 39728
L39803 39709
L39784 39690
" />
<path d="M39221 38521
L39090 38521
" />
<path d="M39090 38728
L39090 38334
L39278 38334
" />
<path d="M39559 38521
L39615 38540
L39634 38559
L39653 38596
L39653 38653
L39634 38690
L39615 38709
L39578 38728
L39428 38728
L39428 38334
L39559 38334
L39596 38353
L39615 38371
L39634 38409
L39634 38446
L39615 38484
L39596 38503
L39559 38521
L39428 38521
" />
<path d="M39990 38465
L39990 38728
" />
<path d="M39896 38315
L39803 38596
L40046 38596
" />
<path d="M41265 14202
L41659 14202
" />
<path d="M41284 14202
L41265 14165
L41265 14090
L41284 14052
L41303 14034
L41340 14015
L41453 14015
L41490 14034
L41509 14052
L41528 14090
L41528 14165
L41509 14202
" />
<path d="M41265 13884
L41528 13809
L41340 13734
L41528 13659
L41265 13584
" />
<path d="M41528 13434
L41265 13434
" />
<path d="M41340 13434
L41303 13415
L41284 13396
L41265 13359
L41265 13321
" />
<path d="M41565 13284
L41565 12984
" />
<path d="M41528 12890
L41265 12890
" />
<path d="M41303 12890
L41284 12871
L41265 12834
L41265 12778
L41284 12740
L41321 12721
L41528 12721
" />
<path d="M41321 12721
L41284 12703
L41265 12665
L41265 12609
L41284 12571
L41321 12553
L41528 12553
" />
<path d="M41528 12309
L41509 12346
L41490 12365
L41453 12384
L41340 12384
L41303 12365
L41284 12346
L41265 12309
L41265 12253
L41284 12215
L41303 12196
L41340 12178
L41453 12178
L41490 12196
L41509 12215
L41528 12253
L41528 12309
" />
<path d="M41265 12065
L41265 11915
" />
<path d="M41134 12009
L41471 12009
L41509 11990
L41528 11953
L41528 11915
" />
<path d="M41528 11728
L41509 11765
L41490 11784
L41453 11803
L41340 11803
L41303 11784
L41284 11765
L41265 11728
L41265 11671
L41284 11634
L41303 11615
L41340 11597
L41453 11597
L41490 11615
L41509 11634
L41528 11671
L41528 11728
" />
<path d="M41528 11428
L41265 11428
" />
<path d="M41340 11428
L41303 11409
L41284 11390
L41265 11353
L41265 11315
" />
<path d="M41528 10978
L41528 11203
" />
<path d="M41528 11090
L41134 11090
L41190 11128
L41228 11165
L41246 11203
" />
<path d="M31028 13162
L30765 13162
" />
<path d="M30803 13162
L30784 13143
L30765 13106
L30765 13049
L30784 13012
L30821 12993
L31028 12993
" />
<path d="M30821 12993
L30784 12974
L30765 12937
L30765 12881
L30784 12843
L30821 12824
L31028 12824
" />
<path d="M31028 12431
L31028 12656
" />
<path d="M31028 12543
L30634 12543
L30690 12581
L30728 12618
L30746 12656
" />
<path d="M31065 12356
L31065 12056
" />
<path d="M31028 11906
L31009 11943
L30990 11962
L30953 11981
L30840 11981
L30803 11962
L30784 11943
L30765 11906
L30765 11850
L30784 11812
L30803 11793
L30840 11775
L30953 11775
L30990 11793
L31009 11812
L31028 11850
L31028 11906
" />
<path d="M30765 11437
L31028 11437
" />
<path d="M30765 11606
L30971 11606
L31009 11587
L31028 11550
L31028 11493
L31009 11456
L30990 11437
" />
<path d="M30765 11306
L30765 11156
" />
<path d="M30634 11250
L30971 11250
L31009 11231
L31028 11193
L31028 11156
" />
<path d="M31028 10818
L31028 11043
" />
<path d="M31028 10931
L30634 10931
L30690 10968
L30728 11006
L30746 11043
" />
<path d="M37828 13262
L37565 13262
" />
<path d="M37603 13262
L37584 13243
L37565 13206
L37565 13149
L37584 13112
L37621 13093
L37828 13093
" />
<path d="M37621 13093
L37584 13074
L37565 13037
L37565 12981
L37584 12943
L37621 12924
L37828 12924
" />
<path d="M37471 12756
L37453 12737
L37434 12699
L37434 12606
L37453 12568
L37471 12549
L37509 12531
L37546 12531
L37603 12549
L37828 12774
L37828 12531
" />
<path d="M37865 12456
L37865 12156
" />
<path d="M37828 12006
L37809 12043
L37790 12062
L37753 12081
L37640 12081
L37603 12062
L37584 12043
L37565 12006
L37565 11950
L37584 11912
L37603 11893
L37640 11875
L37753 11875
L37790 11893
L37809 11912
L37828 11950
L37828 12006
" />
<path d="M37565 11537
L37828 11537
" />
<path d="M37565 11706
L37771 11706
L37809 11687
L37828 11650
L37828 11593
L37809 11556
L37790 11537
" />
<path d="M37565 11406
L37565 11256
" />
<path d="M37434 11350
L37771 11350
L37809 11331
L37828 11293
L37828 11256
" />
<path d="M37828 10918
L37828 11143
" />
<path d="M37828 11031
L37434 11031
L37490 11068
L37528 11106
L37546 11143
" />
<path d="M49871 38878
L49871 39009
" />
<path d="M50078 39009
L49684 39009
L49684 38821
" />
<path d="M49871 38540
L49890 38484
L49909 38465
L49946 38446
L50003 38446
L50040 38465
L50059 38484
L50078 38521
L50078 38671
L49684 38671
L49684 38540
L49703 38503
L49721 38484
L49759 38465
L49796 38465
L49834 38484
L49853 38503
L49871 38540
L49871 38671
" />
<path d="M49684 38090
L49684 38278
L49871 38296
L49853 38278
L49834 38240
L49834 38146
L49853 38109
L49871 38090
L49909 38071
L50003 38071
L50040 38090
L50059 38109
L50078 38146
L50078 38240
L50059 38278
L50040 38296
" />
<path d="M47843 42735
L47843 42342
" />
<path d="M47843 42492
L47881 42473
L47956 42473
L47993 42492
L48012 42511
L48031 42548
L48031 42660
L48012 42698
L47993 42717
L47956 42735
L47881 42735
L47843 42717
" />
<path d="M48143 42473
L48293 42473
" />
<path d="M48200 42342
L48200 42679
L48218 42717
L48256 42735
L48293 42735
" />
<path d="M48425 42735
L48425 42473
" />
<path d="M48425 42342
L48406 42361
L48425 42379
L48443 42361
L48425 42342
L48425 42379
" />
<path d="M48612 42473
L48612 42735
" />
<path d="M48612 42511
L48631 42492
L48668 42473
L48724 42473
L48762 42492
L48781 42529
L48781 42735
" />
<path d="M49174 42735
L48949 42735
" />
<path d="M49062 42735
L49062 42342
L49024 42398
L48987 42436
L48949 42454
" />
<path d="M43735 38515
L43529 38515
L43492 38534
L43473 38571
L43473 38646
L43492 38684
" />
<path d="M43717 38515
L43735 38552
L43735 38646
L43717 38684
L43679 38702
L43642 38702
L43604 38684
L43585 38646
L43585 38552
L43567 38515
" />
<path d="M43735 38328
L43473 38328
" />
<path d="M43342 38328
L43361 38346
L43379 38328
L43361 38309
L43342 38328
L43379 38328
" />
<path d="M43473 38140
L43735 38140
" />
<path d="M43511 38140
L43492 38121
L43473 38084
L43473 38028
L43492 37990
L43529 37971
L43735 37971
" />
<path d="M43773 37878
L43773 37578
" />
<path d="M43717 37334
L43735 37371
L43735 37446
L43717 37484
L43679 37503
L43529 37503
L43492 37484
L43473 37446
L43473 37371
L43492 37334
L43529 37315
L43567 37315
L43604 37503
" />
<path d="M43735 37184
L43473 36978
" />
<path d="M43473 37184
L43735 36978
" />
<path d="M43473 36884
L43473 36734
" />
<path d="M43342 36828
L43679 36828
L43717 36809
L43735 36771
L43735 36734
" />
<path d="M43735 36397
L43735 36621
" />
<path d="M43735 36509
L43342 36509
L43398 36547
L43436 36584
L43454 36621
" />
<path d="M43735 37515
L43529 37515
L43492 37534
L43473 37571
L43473 37646
L43492 37684
" />
<path d="M43717 37515
L43735 37552
L43735 37646
L43717 37684
L43679 37702
L43642 37702
L43604 37684
L43585 37646
L43585 37552
L43567 37515
" />
<path d="M43735 37328
L43473 37328
" />
<path d="M43342 37328
L43361 37346
L43379 37328
L43361 37309
L43342 37328
L43379 37328
" />
<path d="M43473 37140
L43735 37140
" />
<path d="M43511 37140
L43492 37121
L43473 37084
L43473 37028
L43492 36990
L43529 36971
L43735 36971
" />
<path d="M43773 36878
L43773 36578
" />
<path d="M43717 36334
L43735 36371
L43735 36446
L43717 36484
L43679 36503
L43529 36503
L43492 36484
L43473 36446
L43473 36371
L43492 36334
L43529 36315
L43567 36315
L43604 36503
" />
<path d="M43735 36184
L43473 35978
" />
<path d="M43473 36184
L43735 35978
" />
<path d="M43473 35884
L43473 35734
" />
<path d="M43342 35828
L43679 35828
L43717 35809
L43735 35771
L43735 35734
" />
<path d="M43473 35434
L43735 35434
" />
<path d="M43323 35528
L43604 35621
L43604 35378
" />
<path d="M43924 19199
L43943 19218
L43962 19274
L43962 19312
L43943 19368
L43906 19406
L43868 19424
L43793 19443
L43737 19443
L43662 19424
L43624 19406
L43587 19368
L43568 19312
L43568 19274
L43587 19218
L43606 19199
" />
<path d="M43568 18843
L43568 19031
L43756 19049
L43737 19031
L43718 18993
L43718 18899
L43737 18862
L43756 18843
L43793 18824
L43887 18824
L43924 18843
L43943 18862
L43962 18899
L43962 18993
L43943 19031
L43924 19049
" />
<path d="M51270 37415
L50876 37415
" />
<path d="M51251 37415
L51270 37452
L51270 37527
L51251 37565
L51232 37584
L51195 37602
L51082 37602
L51045 37584
L51026 37565
L51007 37527
L51007 37452
L51026 37415
" />
<path d="M51270 37228
L51007 37228
" />
<path d="M50876 37228
L50895 37246
L50914 37228
L50895 37209
L50876 37228
L50914 37228
" />
<path d="M51007 37040
L51270 37040
" />
<path d="M51045 37040
L51026 37021
L51007 36984
L51007 36928
L51026 36890
L51064 36871
L51270 36871
" />
<path d="M51307 36778
L51307 36478
" />
<path d="M51251 36234
L51270 36271
L51270 36346
L51251 36384
L51213 36403
L51064 36403
L51026 36384
L51007 36346
L51007 36271
L51026 36234
L51064 36215
L51101 36215
L51138 36403
" />
<path d="M51270 36084
L51007 35878
" />
<path d="M51007 36084
L51270 35878
" />
<path d="M51007 35784
L51007 35634
" />
<path d="M50876 35728
L51213 35728
L51251 35709
L51270 35671
L51270 35634
" />
<path d="M51270 35297
L51270 35521
" />
<path d="M51270 35409
L50876 35409
L50932 35447
L50970 35484
L50989 35521
" />
<path d="M47135 25265
L46742 25265
" />
<path d="M47117 25265
L47135 25302
L47135 25377
L47117 25415
L47098 25434
L47060 25452
L46948 25452
L46911 25434
L46892 25415
L46873 25377
L46873 25302
L46892 25265
" />
<path d="M47135 25078
L46873 25078
" />
<path d="M46742 25078
L46761 25096
L46779 25078
L46761 25059
L46742 25078
L46779 25078
" />
<path d="M46873 24890
L47135 24890
" />
<path d="M46911 24890
L46892 24871
L46873 24834
L46873 24778
L46892 24740
L46929 24721
L47135 24721
" />
<path d="M47173 24628
L47173 24328
" />
<path d="M47117 24084
L47135 24121
L47135 24196
L47117 24234
L47079 24253
L46929 24253
L46892 24234
L46873 24196
L46873 24121
L46892 24084
L46929 24065
L46967 24065
L47004 24253
" />
<path d="M47135 23934
L46873 23728
" />
<path d="M46873 23934
L47135 23728
" />
<path d="M46873 23634
L46873 23484
" />
<path d="M46742 23578
L47079 23578
L47117 23559
L47135 23521
L47135 23484
" />
<path d="M46779 23371
L46761 23353
L46742 23315
L46742 23222
L46761 23184
L46779 23165
L46817 23147
L46854 23147
L46911 23165
L47135 23390
L47135 23147
" />
<path d="M31009 24478
L31009 24084
L31103 24084
L31159 24103
L31196 24140
L31215 24178
L31234 24253
L31234 24309
L31215 24384
L31196 24421
L31159 24459
L31103 24478
L31009 24478
" />
<path d="M31609 24478
L31384 24478
" />
<path d="M31496 24478
L31496 24084
L31459 24140
L31421 24178
L31384 24196
" />
<path d="M34418 24470
L34696 24192
L34763 24258
L34789 24311
L34789 24364
L34776 24404
L34736 24470
L34696 24510
L34630 24550
L34590 24563
L34537 24563
L34484 24536
L34418 24470
" />
<path d="M34935 24483
L34962 24483
L35001 24496
L35068 24563
L35081 24603
L35081 24629
L35068 24669
L35041 24695
L34988 24722
L34670 24722
L34842 24894
" />
<path d="M40528 22490
L40134 22490
L40134 22396
L40153 22340
L40190 22303
L40228 22284
L40303 22265
L40359 22265
L40434 22284
L40471 22303
L40509 22340
L40528 22396
L40528 22490
" />
<path d="M40134 22134
L40134 21890
L40284 22021
L40284 21965
L40303 21928
L40321 21909
L40359 21890
L40453 21890
L40490 21909
L40509 21928
L40528 21965
L40528 22078
L40509 22115
L40490 22134
" />
<path d="M37870 24881
L37592 24603
L37658 24536
L37711 24510
L37764 24510
L37804 24523
L37870 24563
L37910 24603
L37950 24669
L37963 24709
L37963 24762
L37936 24815
L37870 24881
" />
<path d="M38082 24298
L38268 24483
" />
<path d="M37910 24258
L38042 24523
L38215 24351
" />
<path d="M31920 28040
L31526 28040
L31526 27890
L31545 27853
L31564 27834
L31601 27815
L31657 27815
L31695 27834
L31714 27853
L31732 27890
L31732 28040
" />
<path d="M31526 27684
L31526 27440
L31676 27571
L31676 27515
L31695 27478
L31714 27459
L31751 27440
L31845 27440
L31882 27459
L31901 27478
L31920 27515
L31920 27628
L31901 27665
L31882 27684
" />
<path d="M36670 41140
L36276 41140
L36276 40990
L36295 40953
L36314 40934
L36351 40915
L36407 40915
L36445 40934
L36464 40953
L36482 40990
L36482 41140
" />
<path d="M36407 40578
L36670 40578
" />
<path d="M36257 40671
L36538 40765
L36538 40521
" />
<path d="M33312 27540
L33275 27521
L33237 27484
L33181 27427
L33143 27409
L33106 27409
" />
<path d="M33125 27502
L33087 27484
L33050 27446
L33031 27371
L33031 27240
L33050 27165
L33087 27127
L33125 27109
L33200 27109
L33237 27127
L33275 27165
L33293 27240
L33293 27371
L33275 27446
L33237 27484
L33200 27502
L33125 27502
" />
<path d="M33424 27109
L33687 27109
L33518 27502
" />
<path d="M35841 18914
L35822 18952
L35785 18989
L35729 19045
L35710 19083
L35710 19120
" />
<path d="M35804 19102
L35785 19139
L35747 19177
L35672 19195
L35541 19195
L35466 19177
L35429 19139
L35410 19102
L35410 19027
L35429 18989
L35466 18952
L35541 18933
L35672 18933
L35747 18952
L35785 18989
L35804 19027
L35804 19102
" />
<path d="M35579 18708
L35560 18745
L35541 18764
L35504 18783
L35485 18783
L35447 18764
L35429 18745
L35410 18708
L35410 18633
L35429 18595
L35447 18577
L35485 18558
L35504 18558
L35541 18577
L35560 18595
L35579 18633
L35579 18708
L35597 18745
L35616 18764
L35654 18783
L35729 18783
L35766 18764
L35785 18745
L35804 18708
L35804 18633
L35785 18595
L35766 18577
L35729 18558
L35654 18558
L35616 18577
L35597 18595
L35579 18633
" />
<path d="M34089 22447
L34070 22485
L34033 22522
L33977 22579
L33958 22616
L33958 22654
" />
<path d="M34052 22635
L34033 22672
L33995 22710
L33920 22729
L33789 22729
L33714 22710
L33677 22672
L33658 22635
L33658 22560
L33677 22522
L33714 22485
L33789 22466
L33920 22466
L33995 22485
L34033 22522
L34052 22560
L34052 22635
" />
<path d="M34052 22091
L34052 22316
" />
<path d="M34052 22204
L33658 22204
L33714 22241
L33752 22279
L33770 22316
" />
<path d="M33658 21847
L33658 21810
L33677 21772
L33695 21754
L33733 21735
L33808 21716
L33902 21716
L33977 21735
L34014 21754
L34033 21772
L34052 21810
L34052 21847
L34033 21885
L34014 21904
L33977 21922
L33902 21941
L33808 21941
L33733 21922
L33695 21904
L33677 21885
L33658 21847
" />
<path d="M41175 28040
L41137 28021
L41100 27984
L41043 27927
L41006 27909
L40968 27909
" />
<path d="M40987 28002
L40950 27984
L40912 27946
L40893 27871
L40893 27740
L40912 27665
L40950 27627
L40987 27609
L41062 27609
L41100 27627
L41137 27665
L41156 27740
L41156 27871
L41137 27946
L41100 27984
L41062 28002
L40987 28002
" />
<path d="M41531 28002
L41306 28002
" />
<path d="M41418 28002
L41418 27609
L41381 27665
L41343 27702
L41306 27721
" />
<path d="M41906 28002
L41681 28002
" />
<path d="M41793 28002
L41793 27609
L41756 27665
L41718 27702
L41681 27721
" />
<path d="M39041 19102
L39022 19139
L38985 19177
L38929 19233
L38910 19270
L38910 19308
" />
<path d="M39004 19289
L38985 19327
L38947 19364
L38872 19383
L38741 19383
L38666 19364
L38629 19327
L38610 19289
L38610 19214
L38629 19177
L38666 19139
L38741 19120
L38872 19120
L38947 19139
L38985 19177
L39004 19214
L39004 19289
" />
<path d="M39004 18745
L39004 18970
" />
<path d="M39004 18858
L38610 18858
L38666 18895
L38704 18933
L38722 18970
" />
<path d="M38647 18595
L38629 18577
L38610 18539
L38610 18445
L38629 18408
L38647 18389
L38685 18370
L38722 18370
L38779 18389
L39004 18614
L39004 18370
" />
<path d="M37289 22447
L37270 22485
L37233 22522
L37177 22579
L37158 22616
L37158 22654
" />
<path d="M37252 22635
L37233 22672
L37195 22710
L37120 22729
L36989 22729
L36914 22710
L36877 22672
L36858 22635
L36858 22560
L36877 22522
L36914 22485
L36989 22466
L37120 22466
L37195 22485
L37233 22522
L37252 22560
L37252 22635
" />
<path d="M37252 22091
L37252 22316
" />
<path d="M37252 22204
L36858 22204
L36914 22241
L36952 22279
L36970 22316
" />
<path d="M36858 21960
L36858 21716
L37008 21847
L37008 21791
L37027 21754
L37045 21735
L37083 21716
L37177 21716
L37214 21735
L37233 21754
L37252 21791
L37252 21904
L37233 21941
L37214 21960
" />
<path d="M40540 27474
L40521 27512
L40484 27549
L40427 27606
L40409 27643
L40409 27681
" />
<path d="M40502 27662
L40484 27699
L40446 27737
L40371 27756
L40240 27756
L40165 27737
L40127 27699
L40109 27662
L40109 27587
L40127 27549
L40165 27512
L40240 27493
L40371 27493
L40446 27512
L40484 27549
L40502 27587
L40502 27662
" />
<path d="M40502 27118
L40502 27343
" />
<path d="M40502 27231
L40109 27231
L40165 27268
L40202 27306
L40221 27343
" />
<path d="M40240 26781
L40502 26781
" />
<path d="M40090 26875
L40371 26968
L40371 26725
" />
<path d="M33528 20215
L33340 20346
" />
<path d="M33528 20440
L33134 20440
L33134 20290
L33153 20253
L33171 20234
L33209 20215
L33265 20215
L33303 20234
L33321 20253
L33340 20290
L33340 20440
" />
<path d="M33134 20084
L33134 19821
L33528 19990
" />
<path d="M47328 37615
L47140 37746
" />
<path d="M47328 37840
L46934 37840
L46934 37690
L46953 37653
L46971 37634
L47009 37615
L47065 37615
L47103 37634
L47121 37653
L47140 37690
L47140 37840
" />
<path d="M47328 37428
L47328 37353
L47309 37315
L47290 37296
L47234 37259
L47159 37240
L47009 37240
L46971 37259
L46953 37278
L46934 37315
L46934 37390
L46953 37428
L46971 37446
L47009 37465
L47103 37465
L47140 37446
L47159 37428
L47178 37390
L47178 37315
L47159 37278
L47140 37259
L47103 37240
" />
<path d="M36528 24203
L36340 24334
" />
<path d="M36528 24428
L36134 24428
L36134 24278
L36153 24240
L36171 24221
L36209 24203
L36265 24203
L36303 24221
L36321 24240
L36340 24278
L36340 24428
" />
<path d="M36528 23828
L36528 24053
" />
<path d="M36528 23940
L36134 23940
L36190 23978
L36228 24015
L36246 24053
" />
<path d="M36528 23453
L36528 23678
" />
<path d="M36528 23565
L36134 23565
L36190 23603
L36228 23640
L36246 23678
" />
<path d="M39528 20403
L39340 20534
" />
<path d="M39528 20628
L39134 20628
L39134 20478
L39153 20440
L39171 20421
L39209 20403
L39265 20403
L39303 20421
L39321 20440
L39340 20478
L39340 20628
" />
<path d="M39528 20028
L39528 20253
" />
<path d="M39528 20140
L39134 20140
L39190 20178
L39228 20215
L39246 20253
" />
<path d="M39171 19878
L39153 19859
L39134 19821
L39134 19728
L39153 19690
L39171 19671
L39209 19653
L39246 19653
L39303 19671
L39528 19896
L39528 19653
" />
<path d="M32528 20403
L32340 20534
" />
<path d="M32528 20628
L32134 20628
L32134 20478
L32153 20440
L32171 20421
L32209 20403
L32265 20403
L32303 20421
L32321 20440
L32340 20478
L32340 20628
" />
<path d="M32528 20028
L32528 20253
" />
<path d="M32528 20140
L32134 20140
L32190 20178
L32228 20215
L32246 20253
" />
<path d="M32134 19896
L32134 19653
L32284 19784
L32284 19728
L32303 19690
L32321 19671
L32359 19653
L32453 19653
L32490 19671
L32509 19690
L32528 19728
L32528 19840
L32509 19878
L32490 19896
" />
<path d="M40934 25978
L40803 25790
" />
<path d="M40709 25978
L40709 25584
L40859 25584
L40896 25603
L40915 25621
L40934 25659
L40934 25715
L40915 25753
L40896 25771
L40859 25790
L40709 25790
" />
<path d="M41159 25753
L41121 25734
L41103 25715
L41084 25678
L41084 25659
L41103 25621
L41121 25603
L41159 25584
L41234 25584
L41271 25603
L41290 25621
L41309 25659
L41309 25678
L41290 25715
L41271 25734
L41234 25753
L41159 25753
L41121 25771
L41103 25790
L41084 25828
L41084 25903
L41103 25940
L41121 25959
L41159 25978
L41234 25978
L41271 25959
L41290 25940
L41309 25903
L41309 25828
L41290 25790
L41271 25771
L41234 25753
" />
<path d="M38428 27903
L38240 28034
" />
<path d="M38428 28128
L38034 28128
L38034 27978
L38053 27940
L38071 27921
L38109 27903
L38165 27903
L38203 27921
L38221 27940
L38240 27978
L38240 28128
" />
<path d="M38428 27528
L38428 27753
" />
<path d="M38428 27640
L38034 27640
L38090 27678
L38128 27715
L38146 27753
" />
<path d="M38034 27396
L38034 27134
L38428 27303
" />
<path d="M35628 26365
L35440 26496
" />
<path d="M35628 26590
L35234 26590
L35234 26440
L35253 26403
L35271 26384
L35309 26365
L35365 26365
L35403 26384
L35421 26403
L35440 26440
L35440 26590
" />
<path d="M35234 26028
L35234 26103
L35253 26140
L35271 26159
L35328 26196
L35403 26215
L35553 26215
L35590 26196
L35609 26178
L35628 26140
L35628 26065
L35609 26028
L35590 26009
L35553 25990
L35459 25990
L35421 26009
L35403 26028
L35384 26065
L35384 26140
L35403 26178
L35421 26196
L35459 26215
" />
<path d="M41278 19253
L41090 19384
" />
<path d="M41278 19478
L40884 19478
L40884 19328
L40903 19290
L40921 19271
L40959 19253
L41015 19253
L41053 19271
L41071 19290
L41090 19328
L41090 19478
" />
<path d="M41278 18878
L41278 19103
" />
<path d="M41278 18990
L40884 18990
L40940 19028
L40978 19065
L40996 19103
" />
<path d="M40884 18540
L40884 18615
L40903 18653
L40921 18671
L40978 18709
L41053 18728
L41203 18728
L41240 18709
L41259 18690
L41278 18653
L41278 18578
L41259 18540
L41240 18521
L41203 18503
L41109 18503
L41071 18521
L41053 18540
L41034 18578
L41034 18653
L41053 18690
L41071 18709
L41109 18728
" />
<path d="M57359 24328
L57359 23934
L57453 23934
L57509 23953
L57546 23990
L57565 24028
L57584 24103
L57584 24159
L57565 24234
L57546 24271
L57509 24309
L57453 24328
L57359 24328
" />
<path d="M57940 23934
L57753 23934
L57734 24121
L57753 24103
L57790 24084
L57884 24084
L57921 24103
L57940 24121
L57959 24159
L57959 24253
L57940 24290
L57921 24309
L57884 24328
L57790 24328
L57753 24309
L57734 24290
" />
<path d="M54170 24881
L53892 24603
L53958 24536
L54011 24510
L54064 24510
L54104 24523
L54170 24563
L54210 24603
L54250 24669
L54263 24709
L54263 24762
L54236 24815
L54170 24881
" />
<path d="M54289 24205
L54236 24258
L54223 24298
L54223 24324
L54236 24390
L54276 24457
L54382 24563
L54422 24576
L54448 24576
L54488 24563
L54541 24510
L54554 24470
L54554 24443
L54541 24404
L54475 24337
L54435 24324
L54409 24324
L54369 24337
L54316 24390
L54303 24430
L54303 24457
L54316 24496
" />
<path d="M48778 22540
L48384 22540
L48384 22446
L48403 22390
L48440 22353
L48478 22334
L48553 22315
L48609 22315
L48684 22334
L48721 22353
L48759 22390
L48778 22446
L48778 22540
" />
<path d="M48384 22184
L48384 21921
L48778 22090
" />
<path d="M47362 25190
L47325 25172
L47287 25134
L47231 25078
L47193 25059
L47156 25059
" />
<path d="M47175 25153
L47137 25134
L47100 25097
L47081 25022
L47081 24890
L47100 24815
L47137 24778
L47175 24759
L47250 24759
L47287 24778
L47325 24815
L47343 24890
L47343 25022
L47325 25097
L47287 25134
L47250 25153
L47175 25153
" />
<path d="M47718 25153
L47493 25153
" />
<path d="M47606 25153
L47606 24759
L47568 24815
L47531 24853
L47493 24872
" />
<path d="M55412 25540
L55375 25522
L55337 25484
L55281 25428
L55243 25409
L55206 25409
" />
<path d="M55225 25503
L55187 25484
L55150 25447
L55131 25372
L55131 25240
L55150 25165
L55187 25128
L55225 25109
L55300 25109
L55337 25128
L55375 25165
L55393 25240
L55393 25372
L55375 25447
L55337 25484
L55300 25503
L55225 25503
" />
<path d="M55543 25147
L55562 25128
L55599 25109
L55693 25109
L55731 25128
L55749 25147
L55768 25184
L55768 25222
L55749 25278
L55524 25503
L55768 25503
" />
<path d="M55341 18914
L55322 18952
L55285 18989
L55229 19045
L55210 19083
L55210 19120
" />
<path d="M55304 19102
L55285 19139
L55247 19177
L55172 19195
L55041 19195
L54966 19177
L54929 19139
L54910 19102
L54910 19027
L54929 18989
L54966 18952
L55041 18933
L55172 18933
L55247 18952
L55285 18989
L55304 19027
L55304 19102
" />
<path d="M54910 18802
L54910 18558
L55060 18689
L55060 18633
L55079 18595
L55097 18577
L55135 18558
L55229 18558
L55266 18577
L55285 18595
L55304 18633
L55304 18745
L55285 18783
L55266 18802
" />
<path d="M53589 22260
L53570 22297
L53533 22335
L53477 22391
L53458 22429
L53458 22466
" />
<path d="M53552 22447
L53533 22485
L53495 22522
L53420 22541
L53289 22541
L53214 22522
L53177 22485
L53158 22447
L53158 22372
L53177 22335
L53214 22297
L53289 22279
L53420 22279
L53495 22297
L53533 22335
L53552 22372
L53552 22447
" />
<path d="M53289 21941
L53552 21941
" />
<path d="M53139 22035
L53420 22129
L53420 21885
" />
<path d="M52141 18914
L52122 18952
L52085 18989
L52029 19045
L52010 19083
L52010 19120
" />
<path d="M52104 19102
L52085 19139
L52047 19177
L51972 19195
L51841 19195
L51766 19177
L51729 19139
L51710 19102
L51710 19027
L51729 18989
L51766 18952
L51841 18933
L51972 18933
L52047 18952
L52085 18989
L52104 19027
L52104 19102
" />
<path d="M51710 18577
L51710 18764
L51897 18783
L51879 18764
L51860 18727
L51860 18633
L51879 18595
L51897 18577
L51935 18558
L52029 18558
L52066 18577
L52085 18595
L52104 18633
L52104 18727
L52085 18764
L52066 18783
" />
<path d="M50389 22260
L50370 22297
L50333 22335
L50277 22391
L50258 22429
L50258 22466
" />
<path d="M50352 22447
L50333 22485
L50295 22522
L50220 22541
L50089 22541
L50014 22522
L49977 22485
L49958 22447
L49958 22372
L49977 22335
L50014 22297
L50089 22279
L50220 22279
L50295 22297
L50333 22335
L50352 22372
L50352 22447
" />
<path d="M49958 21941
L49958 22016
L49977 22054
L49995 22072
L50052 22110
L50127 22129
L50277 22129
L50314 22110
L50333 22091
L50352 22054
L50352 21979
L50333 21941
L50314 21922
L50277 21904
L50183 21904
L50145 21922
L50127 21941
L50108 21979
L50108 22054
L50127 22091
L50145 22110
L50183 22129
" />
<path d="M51740 26987
L51721 27024
L51684 27062
L51627 27118
L51609 27156
L51609 27193
" />
<path d="M51702 27174
L51684 27212
L51646 27249
L51571 27268
L51440 27268
L51365 27249
L51327 27212
L51309 27174
L51309 27099
L51327 27062
L51365 27024
L51440 27006
L51571 27006
L51646 27024
L51684 27062
L51702 27099
L51702 27174
" />
<path d="M51702 26818
L51702 26743
L51684 26706
L51665 26687
L51609 26650
L51534 26631
L51384 26631
L51346 26650
L51327 26668
L51309 26706
L51309 26781
L51327 26818
L51346 26837
L51384 26856
L51477 26856
L51515 26837
L51534 26818
L51552 26781
L51552 26706
L51534 26668
L51515 26650
L51477 26631
" />
<path d="M47734 24028
L47603 23840
" />
<path d="M47509 24028
L47509 23634
L47659 23634
L47696 23653
L47715 23671
L47734 23709
L47734 23765
L47715 23803
L47696 23821
L47659 23840
L47509 23840
" />
<path d="M48109 24028
L47884 24028
" />
<path d="M47996 24028
L47996 23634
L47959 23690
L47921 23728
L47884 23746
" />
<path d="M52828 20215
L52640 20346
" />
<path d="M52828 20440
L52434 20440
L52434 20290
L52453 20253
L52471 20234
L52509 20215
L52565 20215
L52603 20234
L52621 20253
L52640 20290
L52640 20440
" />
<path d="M52471 20065
L52453 20046
L52434 20009
L52434 19915
L52453 19878
L52471 19859
L52509 19840
L52546 19840
L52603 19859
L52828 20084
L52828 19840
" />
<path d="M55784 24478
L55653 24290
" />
<path d="M55559 24478
L55559 24084
L55709 24084
L55746 24103
L55765 24121
L55784 24159
L55784 24215
L55765 24253
L55746 24271
L55709 24290
L55559 24290
" />
<path d="M55915 24084
L56159 24084
L56028 24234
L56084 24234
L56121 24253
L56140 24271
L56159 24309
L56159 24403
L56140 24440
L56121 24459
L56084 24478
L55971 24478
L55934 24459
L55915 24440
" />
<path d="M56828 20215
L56640 20346
" />
<path d="M56828 20440
L56434 20440
L56434 20290
L56453 20253
L56471 20234
L56509 20215
L56565 20215
L56603 20234
L56621 20253
L56640 20290
L56640 20440
" />
<path d="M56565 19878
L56828 19878
" />
<path d="M56415 19971
L56696 20065
L56696 19821
" />
<path d="M55828 20215
L55640 20346
" />
<path d="M55828 20440
L55434 20440
L55434 20290
L55453 20253
L55471 20234
L55509 20215
L55565 20215
L55603 20234
L55621 20253
L55640 20290
L55640 20440
" />
<path d="M55434 19859
L55434 20046
L55621 20065
L55603 20046
L55584 20009
L55584 19915
L55603 19878
L55621 19859
L55659 19840
L55753 19840
L55790 19859
L55809 19878
L55828 19915
L55828 20009
L55809 20046
L55790 20065
" />
<path d="M49828 20403
L49640 20534
" />
<path d="M49828 20628
L49434 20628
L49434 20478
L49453 20440
L49471 20421
L49509 20403
L49565 20403
L49603 20421
L49621 20440
L49640 20478
L49640 20628
" />
<path d="M49828 20028
L49828 20253
" />
<path d="M49828 20140
L49434 20140
L49490 20178
L49528 20215
L49546 20253
" />
<path d="M49434 19784
L49434 19746
L49453 19709
L49471 19690
L49509 19671
L49584 19653
L49678 19653
L49753 19671
L49790 19690
L49809 19709
L49828 19746
L49828 19784
L49809 19821
L49790 19840
L49753 19859
L49678 19878
L49584 19878
L49509 19859
L49471 19840
L49453 19821
L49434 19784
" />
<path d="M47778 18503
L47590 18634
" />
<path d="M47778 18728
L47384 18728
L47384 18578
L47403 18540
L47421 18521
L47459 18503
L47515 18503
L47553 18521
L47571 18540
L47590 18578
L47590 18728
" />
<path d="M47778 18128
L47778 18353
" />
<path d="M47778 18240
L47384 18240
L47440 18278
L47478 18315
L47496 18353
" />
<path d="M47515 17790
L47778 17790
" />
<path d="M47365 17884
L47646 17978
L47646 17734
" />
<path d="M52828 27403
L52640 27534
" />
<path d="M52828 27628
L52434 27628
L52434 27478
L52453 27440
L52471 27421
L52509 27403
L52565 27403
L52603 27421
L52621 27440
L52640 27478
L52640 27628
" />
<path d="M52828 27028
L52828 27253
" />
<path d="M52828 27140
L52434 27140
L52490 27178
L52528 27215
L52546 27253
" />
<path d="M52434 26671
L52434 26859
L52621 26878
L52603 26859
L52584 26821
L52584 26728
L52603 26690
L52621 26671
L52659 26653
L52753 26653
L52790 26671
L52809 26690
L52828 26728
L52828 26821
L52809 26859
L52790 26878
" />
</g> 
</svg>
