<?xml version="1.0" standalone="no"?>
 <!DOCTYPE svg PUBLIC "-//W3C//DTD SVG 1.1//EN" 
 "http://www.w3.org/Graphics/SVG/1.1/DTD/svg11.dtd"> 
<svg xmlns="http://www.w3.org/2000/svg" version="1.1" 
    width="41.9989cm" height="29.7002cm" viewBox="0 0 165350 116930 ">
<title>SVG Picture created as power_ctrl-F_Mask.svg date 2014/06/08 17:03:29 </title>
  <desc>Picture generated by PCBNEW </desc>
<g style="fill:#000000; fill-opacity:1;stroke:#000000; stroke-opacity:1;
stroke-linecap:round; stroke-linejoin:round; "
 transform="translate(0 0) scale(1 1)">
</g>
<g style="fill:#000000; fill-opacity:1.0; 
stroke:#000000; stroke-width:59.0551; stroke-opacity:1; 
stroke-linecap:round; stroke-linejoin:round;">
<polyline style="fill-rule:evenodd;"
points="79379,65379
78620,65379
78620,64620
79379,64620
79379,65379
" /> 
<polyline style="fill-rule:evenodd;"
points="79879,73717
79878,73793
79860,73874
79833,73934
79785,74002
79738,74047
79667,74092
79606,74115
79524,74130
79459,74128
79377,74110
79318,74084
79249,74037
79204,73990
79158,73919
79135,73859
79119,73776
79120,73712
79138,73629
79163,73570
79211,73501
79257,73456
79328,73409
79387,73385
79470,73369
79534,73370
79617,73387
79676,73412
79747,73459
79791,73504
79839,73576
79863,73634
79879,73717
" /> 
<polyline style="fill-rule:evenodd;"
points="80079,76829
78920,76829
78920,75670
80079,75670
80079,76829
" /> 
<polyline style="fill-rule:evenodd;"
points="80354,57969
80353,58040
80336,58116
80311,58172
80266,58235
80222,58277
80156,58319
80100,58341
80022,58355
79962,58353
79885,58337
79830,58312
79765,58267
79724,58224
79681,58158
79659,58102
79644,58024
79645,57965
79662,57887
79685,57832
79730,57767
79772,57725
79839,57682
79894,57660
79973,57644
80031,57645
80110,57661
80164,57684
80231,57729
80272,57770
80317,57837
80339,57891
80354,57969
" /> 
<polyline style="fill-rule:evenodd;"
points="80354,59969
80353,60040
80336,60116
80311,60172
80266,60235
80222,60277
80156,60319
80100,60341
80022,60355
79962,60353
79885,60337
79830,60312
79765,60267
79724,60224
79681,60158
79659,60102
79644,60024
79645,59965
79662,59887
79685,59832
79730,59767
79772,59725
79839,59682
79894,59660
79973,59644
80031,59645
80110,59661
80164,59684
80231,59729
80272,59770
80317,59837
80339,59891
80354,59969
" /> 
<polyline style="fill-rule:evenodd;"
points="80379,48967
80378,49043
80360,49124
80333,49184
80285,49252
80238,49297
80167,49342
80106,49365
80024,49380
79959,49378
79877,49360
79818,49334
79749,49287
79704,49240
79658,49169
79635,49109
79619,49026
79620,48962
79638,48879
79663,48820
79711,48751
79757,48706
79828,48659
79887,48635
79970,48619
80034,48620
80117,48637
80176,48662
80247,48709
80291,48754
80339,48826
80363,48884
80379,48967
" /> 
<polyline style="fill-rule:evenodd;"
points="80379,52967
80378,53043
80360,53124
80333,53184
80285,53252
80238,53297
80167,53342
80106,53365
80024,53380
79959,53378
79877,53360
79818,53334
79749,53287
79704,53240
79658,53169
79635,53109
79619,53026
79620,52962
79638,52879
79663,52820
79711,52751
79757,52706
79828,52659
79887,52635
79970,52619
80034,52620
80117,52637
80176,52662
80247,52709
80291,52754
80339,52826
80363,52884
80379,52967
" /> 
<polyline style="fill-rule:evenodd;"
points="80379,55717
80378,55793
80360,55874
80333,55934
80285,56002
80238,56047
80167,56092
80106,56115
80024,56130
79959,56128
79877,56110
79818,56084
79749,56037
79704,55990
79658,55919
79635,55859
79619,55776
79620,55712
79638,55629
79663,55570
79711,55501
79757,55456
79828,55409
79887,55385
79970,55369
80034,55370
80117,55387
80176,55412
80247,55459
80291,55504
80339,55576
80363,55634
80379,55717
" /> 
<polyline style="fill-rule:evenodd;"
points="80379,64967
80378,65043
80360,65124
80333,65184
80285,65252
80238,65297
80167,65342
80106,65365
80024,65380
79959,65378
79877,65360
79818,65334
79749,65287
79704,65240
79658,65169
79635,65109
79619,65026
79620,64962
79638,64879
79663,64820
79711,64751
79757,64706
79828,64659
79887,64635
79970,64619
80034,64620
80117,64637
80176,64662
80247,64709
80291,64754
80339,64826
80363,64884
80379,64967
" /> 
<polyline style="fill-rule:evenodd;"
points="80379,55129
79620,55129
79620,54370
80379,54370
80379,55129
" /> 
<polyline style="fill-rule:evenodd;"
points="81379,70467
81378,70543
81360,70624
81333,70684
81285,70752
81238,70797
81167,70842
81106,70865
81024,70880
80959,70878
80877,70860
80818,70834
80749,70787
80704,70740
80658,70669
80635,70609
80619,70526
80620,70462
80638,70379
80663,70320
80711,70251
80757,70206
80828,70159
80887,70135
80970,70119
81034,70120
81117,70137
81176,70162
81247,70209
81291,70254
81339,70326
81363,70384
81379,70467
" /> 
<polyline style="fill-rule:evenodd;"
points="82079,76197
82077,76318
82050,76437
82008,76533
81937,76633
81861,76705
81758,76771
81660,76809
81540,76830
81435,76828
81315,76802
81220,76760
81119,76690
81046,76615
80980,76511
80941,76415
80919,76293
80921,76190
80946,76069
80987,75974
81057,75871
81131,75799
81235,75731
81330,75693
81452,75669
81555,75670
81677,75695
81772,75735
81875,75805
81947,75877
82016,75981
82055,76076
82079,76197
" /> 
<polyline style="fill-rule:evenodd;"
points="82329,44829
81170,44829
81170,43670
82329,43670
82329,44829
" /> 
<polyline style="fill-rule:evenodd;"
points="82354,53969
82353,54040
82336,54116
82311,54172
82266,54235
82222,54277
82156,54319
82100,54341
82022,54355
81962,54353
81885,54337
81830,54312
81765,54267
81724,54224
81681,54158
81659,54102
81644,54024
81645,53965
81662,53887
81685,53832
81730,53767
81772,53725
81839,53682
81894,53660
81973,53644
82031,53645
82110,53661
82164,53684
82231,53729
82272,53770
82317,53837
82339,53891
82354,53969
" /> 
<polyline style="fill-rule:evenodd;"
points="82354,54969
82353,55040
82336,55116
82311,55172
82266,55235
82222,55277
82156,55319
82100,55341
82022,55355
81962,55353
81885,55337
81830,55312
81765,55267
81724,55224
81681,55158
81659,55102
81644,55024
81645,54965
81662,54887
81685,54832
81730,54767
81772,54725
81839,54682
81894,54660
81973,54644
82031,54645
82110,54661
82164,54684
82231,54729
82272,54770
82317,54837
82339,54891
82354,54969
" /> 
<polyline style="fill-rule:evenodd;"
points="82354,55969
82353,56040
82336,56116
82311,56172
82266,56235
82222,56277
82156,56319
82100,56341
82022,56355
81962,56353
81885,56337
81830,56312
81765,56267
81724,56224
81681,56158
81659,56102
81644,56024
81645,55965
81662,55887
81685,55832
81730,55767
81772,55725
81839,55682
81894,55660
81973,55644
82031,55645
82110,55661
82164,55684
82231,55729
82272,55770
82317,55837
82339,55891
82354,55969
" /> 
<polyline style="fill-rule:evenodd;"
points="82354,56969
82353,57040
82336,57116
82311,57172
82266,57235
82222,57277
82156,57319
82100,57341
82022,57355
81962,57353
81885,57337
81830,57312
81765,57267
81724,57224
81681,57158
81659,57102
81644,57024
81645,56965
81662,56887
81685,56832
81730,56767
81772,56725
81839,56682
81894,56660
81973,56644
82031,56645
82110,56661
82164,56684
82231,56729
82272,56770
82317,56837
82339,56891
82354,56969
" /> 
<polyline style="fill-rule:evenodd;"
points="82354,57969
82353,58040
82336,58116
82311,58172
82266,58235
82222,58277
82156,58319
82100,58341
82022,58355
81962,58353
81885,58337
81830,58312
81765,58267
81724,58224
81681,58158
81659,58102
81644,58024
81645,57965
81662,57887
81685,57832
81730,57767
81772,57725
81839,57682
81894,57660
81973,57644
82031,57645
82110,57661
82164,57684
82231,57729
82272,57770
82317,57837
82339,57891
82354,57969
" /> 
<polyline style="fill-rule:evenodd;"
points="82354,58969
82353,59040
82336,59116
82311,59172
82266,59235
82222,59277
82156,59319
82100,59341
82022,59355
81962,59353
81885,59337
81830,59312
81765,59267
81724,59224
81681,59158
81659,59102
81644,59024
81645,58965
81662,58887
81685,58832
81730,58767
81772,58725
81839,58682
81894,58660
81973,58644
82031,58645
82110,58661
82164,58684
82231,58729
82272,58770
82317,58837
82339,58891
82354,58969
" /> 
<polyline style="fill-rule:evenodd;"
points="82354,59969
82353,60040
82336,60116
82311,60172
82266,60235
82222,60277
82156,60319
82100,60341
82022,60355
81962,60353
81885,60337
81830,60312
81765,60267
81724,60224
81681,60158
81659,60102
81644,60024
81645,59965
81662,59887
81685,59832
81730,59767
81772,59725
81839,59682
81894,59660
81973,59644
82031,59645
82110,59661
82164,59684
82231,59729
82272,59770
82317,59837
82339,59891
82354,59969
" /> 
<polyline style="fill-rule:evenodd;"
points="82354,60969
82353,61040
82336,61116
82311,61172
82266,61235
82222,61277
82156,61319
82100,61341
82022,61355
81962,61353
81885,61337
81830,61312
81765,61267
81724,61224
81681,61158
81659,61102
81644,61024
81645,60965
81662,60887
81685,60832
81730,60767
81772,60725
81839,60682
81894,60660
81973,60644
82031,60645
82110,60661
82164,60684
82231,60729
82272,60770
82317,60837
82339,60891
82354,60969
" /> 
<polyline style="fill-rule:evenodd;"
points="82354,61969
82353,62040
82336,62116
82311,62172
82266,62235
82222,62277
82156,62319
82100,62341
82022,62355
81962,62353
81885,62337
81830,62312
81765,62267
81724,62224
81681,62158
81659,62102
81644,62024
81645,61965
81662,61887
81685,61832
81730,61767
81772,61725
81839,61682
81894,61660
81973,61644
82031,61645
82110,61661
82164,61684
82231,61729
82272,61770
82317,61837
82339,61891
82354,61969
" /> 
<polyline style="fill-rule:evenodd;"
points="82354,62969
82353,63040
82336,63116
82311,63172
82266,63235
82222,63277
82156,63319
82100,63341
82022,63355
81962,63353
81885,63337
81830,63312
81765,63267
81724,63224
81681,63158
81659,63102
81644,63024
81645,62965
81662,62887
81685,62832
81730,62767
81772,62725
81839,62682
81894,62660
81973,62644
82031,62645
82110,62661
82164,62684
82231,62729
82272,62770
82317,62837
82339,62891
82354,62969
" /> 
<polyline style="fill-rule:evenodd;"
points="82354,63969
82353,64040
82336,64116
82311,64172
82266,64235
82222,64277
82156,64319
82100,64341
82022,64355
81962,64353
81885,64337
81830,64312
81765,64267
81724,64224
81681,64158
81659,64102
81644,64024
81645,63965
81662,63887
81685,63832
81730,63767
81772,63725
81839,63682
81894,63660
81973,63644
82031,63645
82110,63661
82164,63684
82231,63729
82272,63770
82317,63837
82339,63891
82354,63969
" /> 
<polyline style="fill-rule:evenodd;"
points="82354,64969
82353,65040
82336,65116
82311,65172
82266,65235
82222,65277
82156,65319
82100,65341
82022,65355
81962,65353
81885,65337
81830,65312
81765,65267
81724,65224
81681,65158
81659,65102
81644,65024
81645,64965
81662,64887
81685,64832
81730,64767
81772,64725
81839,64682
81894,64660
81973,64644
82031,64645
82110,64661
82164,64684
82231,64729
82272,64770
82317,64837
82339,64891
82354,64969
" /> 
<polyline style="fill-rule:evenodd;"
points="82354,65969
82353,66040
82336,66116
82311,66172
82266,66235
82222,66277
82156,66319
82100,66341
82022,66355
81962,66353
81885,66337
81830,66312
81765,66267
81724,66224
81681,66158
81659,66102
81644,66024
81645,65965
81662,65887
81685,65832
81730,65767
81772,65725
81839,65682
81894,65660
81973,65644
82031,65645
82110,65661
82164,65684
82231,65729
82272,65770
82317,65837
82339,65891
82354,65969
" /> 
<polyline style="fill-rule:evenodd;"
points="82354,53354
81645,53354
81645,52645
82354,52645
82354,53354
" /> 
<polyline style="fill-rule:evenodd;"
points="82379,68467
82378,68543
82360,68624
82333,68684
82285,68752
82238,68797
82167,68842
82106,68865
82024,68880
81959,68878
81877,68860
81818,68834
81749,68787
81704,68740
81658,68669
81635,68609
81619,68526
81620,68462
81638,68379
81663,68320
81711,68251
81757,68206
81828,68159
81887,68135
81970,68119
82034,68120
82117,68137
82176,68162
82247,68209
82291,68254
82339,68326
82363,68384
82379,68467
" /> 
<polyline style="fill-rule:evenodd;"
points="82929,49179
82070,49179
82070,48320
82929,48320
82929,49179
" /> 
<polyline style="fill-rule:evenodd;"
points="83379,68879
82620,68879
82620,68120
83379,68120
83379,68879
" /> 
<polyline style="fill-rule:evenodd;"
points="83879,73717
83878,73793
83860,73874
83833,73934
83785,74002
83738,74047
83667,74092
83606,74115
83524,74130
83459,74128
83377,74110
83318,74084
83249,74037
83204,73990
83158,73919
83135,73859
83119,73776
83120,73712
83138,73629
83163,73570
83211,73501
83257,73456
83328,73409
83387,73385
83470,73369
83534,73370
83617,73387
83676,73412
83747,73459
83791,73504
83839,73576
83863,73634
83879,73717
" /> 
<polyline style="fill-rule:evenodd;"
points="84079,76197
84077,76318
84050,76437
84008,76533
83937,76633
83861,76705
83758,76771
83660,76809
83540,76830
83435,76828
83315,76802
83220,76760
83119,76690
83046,76615
82980,76511
82941,76415
82919,76293
82921,76190
82946,76069
82987,75974
83057,75871
83131,75799
83235,75731
83330,75693
83452,75669
83555,75670
83677,75695
83772,75735
83875,75805
83947,75877
84016,75981
84055,76076
84079,76197
" /> 
<polyline style="fill-rule:evenodd;"
points="84329,44197
84327,44318
84300,44437
84258,44533
84187,44633
84111,44705
84008,44771
83910,44809
83790,44830
83685,44828
83565,44802
83470,44760
83369,44690
83296,44615
83230,44511
83191,44415
83169,44293
83171,44190
83196,44069
83237,43974
83307,43871
83381,43799
83485,43731
83580,43693
83702,43669
83805,43670
83927,43695
84022,43735
84125,43805
84197,43877
84266,43981
84305,44076
84329,44197
" /> 
<polyline style="fill-rule:evenodd;"
points="84929,48712
84928,48799
84907,48890
84877,48959
84823,49035
84768,49087
84690,49136
84620,49164
84528,49180
84453,49178
84362,49158
84293,49128
84216,49075
84164,49021
84114,48942
84086,48873
84069,48781
84070,48706
84090,48614
84119,48546
84172,48468
84225,48417
84304,48365
84373,48337
84466,48319
84539,48320
84632,48339
84700,48367
84779,48421
84830,48473
84883,48552
84911,48619
84929,48712
" /> 
<polyline style="fill-rule:evenodd;"
points="85354,52969
85353,53040
85336,53116
85311,53172
85266,53235
85222,53277
85156,53319
85100,53341
85022,53355
84962,53353
84885,53337
84830,53312
84765,53267
84724,53224
84681,53158
84659,53102
84644,53024
84645,52965
84662,52887
84685,52832
84730,52767
84772,52725
84839,52682
84894,52660
84973,52644
85031,52645
85110,52661
85164,52684
85231,52729
85272,52770
85317,52837
85339,52891
85354,52969
" /> 
<polyline style="fill-rule:evenodd;"
points="85354,53969
85353,54040
85336,54116
85311,54172
85266,54235
85222,54277
85156,54319
85100,54341
85022,54355
84962,54353
84885,54337
84830,54312
84765,54267
84724,54224
84681,54158
84659,54102
84644,54024
84645,53965
84662,53887
84685,53832
84730,53767
84772,53725
84839,53682
84894,53660
84973,53644
85031,53645
85110,53661
85164,53684
85231,53729
85272,53770
85317,53837
85339,53891
85354,53969
" /> 
<polyline style="fill-rule:evenodd;"
points="85354,54969
85353,55040
85336,55116
85311,55172
85266,55235
85222,55277
85156,55319
85100,55341
85022,55355
84962,55353
84885,55337
84830,55312
84765,55267
84724,55224
84681,55158
84659,55102
84644,55024
84645,54965
84662,54887
84685,54832
84730,54767
84772,54725
84839,54682
84894,54660
84973,54644
85031,54645
85110,54661
85164,54684
85231,54729
85272,54770
85317,54837
85339,54891
85354,54969
" /> 
<polyline style="fill-rule:evenodd;"
points="85354,55969
85353,56040
85336,56116
85311,56172
85266,56235
85222,56277
85156,56319
85100,56341
85022,56355
84962,56353
84885,56337
84830,56312
84765,56267
84724,56224
84681,56158
84659,56102
84644,56024
84645,55965
84662,55887
84685,55832
84730,55767
84772,55725
84839,55682
84894,55660
84973,55644
85031,55645
85110,55661
85164,55684
85231,55729
85272,55770
85317,55837
85339,55891
85354,55969
" /> 
<polyline style="fill-rule:evenodd;"
points="85354,56969
85353,57040
85336,57116
85311,57172
85266,57235
85222,57277
85156,57319
85100,57341
85022,57355
84962,57353
84885,57337
84830,57312
84765,57267
84724,57224
84681,57158
84659,57102
84644,57024
84645,56965
84662,56887
84685,56832
84730,56767
84772,56725
84839,56682
84894,56660
84973,56644
85031,56645
85110,56661
85164,56684
85231,56729
85272,56770
85317,56837
85339,56891
85354,56969
" /> 
<polyline style="fill-rule:evenodd;"
points="85354,57969
85353,58040
85336,58116
85311,58172
85266,58235
85222,58277
85156,58319
85100,58341
85022,58355
84962,58353
84885,58337
84830,58312
84765,58267
84724,58224
84681,58158
84659,58102
84644,58024
84645,57965
84662,57887
84685,57832
84730,57767
84772,57725
84839,57682
84894,57660
84973,57644
85031,57645
85110,57661
85164,57684
85231,57729
85272,57770
85317,57837
85339,57891
85354,57969
" /> 
<polyline style="fill-rule:evenodd;"
points="85354,58969
85353,59040
85336,59116
85311,59172
85266,59235
85222,59277
85156,59319
85100,59341
85022,59355
84962,59353
84885,59337
84830,59312
84765,59267
84724,59224
84681,59158
84659,59102
84644,59024
84645,58965
84662,58887
84685,58832
84730,58767
84772,58725
84839,58682
84894,58660
84973,58644
85031,58645
85110,58661
85164,58684
85231,58729
85272,58770
85317,58837
85339,58891
85354,58969
" /> 
<polyline style="fill-rule:evenodd;"
points="85354,59969
85353,60040
85336,60116
85311,60172
85266,60235
85222,60277
85156,60319
85100,60341
85022,60355
84962,60353
84885,60337
84830,60312
84765,60267
84724,60224
84681,60158
84659,60102
84644,60024
84645,59965
84662,59887
84685,59832
84730,59767
84772,59725
84839,59682
84894,59660
84973,59644
85031,59645
85110,59661
85164,59684
85231,59729
85272,59770
85317,59837
85339,59891
85354,59969
" /> 
<polyline style="fill-rule:evenodd;"
points="85354,60969
85353,61040
85336,61116
85311,61172
85266,61235
85222,61277
85156,61319
85100,61341
85022,61355
84962,61353
84885,61337
84830,61312
84765,61267
84724,61224
84681,61158
84659,61102
84644,61024
84645,60965
84662,60887
84685,60832
84730,60767
84772,60725
84839,60682
84894,60660
84973,60644
85031,60645
85110,60661
85164,60684
85231,60729
85272,60770
85317,60837
85339,60891
85354,60969
" /> 
<polyline style="fill-rule:evenodd;"
points="85354,61969
85353,62040
85336,62116
85311,62172
85266,62235
85222,62277
85156,62319
85100,62341
85022,62355
84962,62353
84885,62337
84830,62312
84765,62267
84724,62224
84681,62158
84659,62102
84644,62024
84645,61965
84662,61887
84685,61832
84730,61767
84772,61725
84839,61682
84894,61660
84973,61644
85031,61645
85110,61661
85164,61684
85231,61729
85272,61770
85317,61837
85339,61891
85354,61969
" /> 
<polyline style="fill-rule:evenodd;"
points="85354,62969
85353,63040
85336,63116
85311,63172
85266,63235
85222,63277
85156,63319
85100,63341
85022,63355
84962,63353
84885,63337
84830,63312
84765,63267
84724,63224
84681,63158
84659,63102
84644,63024
84645,62965
84662,62887
84685,62832
84730,62767
84772,62725
84839,62682
84894,62660
84973,62644
85031,62645
85110,62661
85164,62684
85231,62729
85272,62770
85317,62837
85339,62891
85354,62969
" /> 
<polyline style="fill-rule:evenodd;"
points="85354,63969
85353,64040
85336,64116
85311,64172
85266,64235
85222,64277
85156,64319
85100,64341
85022,64355
84962,64353
84885,64337
84830,64312
84765,64267
84724,64224
84681,64158
84659,64102
84644,64024
84645,63965
84662,63887
84685,63832
84730,63767
84772,63725
84839,63682
84894,63660
84973,63644
85031,63645
85110,63661
85164,63684
85231,63729
85272,63770
85317,63837
85339,63891
85354,63969
" /> 
<polyline style="fill-rule:evenodd;"
points="85354,64969
85353,65040
85336,65116
85311,65172
85266,65235
85222,65277
85156,65319
85100,65341
85022,65355
84962,65353
84885,65337
84830,65312
84765,65267
84724,65224
84681,65158
84659,65102
84644,65024
84645,64965
84662,64887
84685,64832
84730,64767
84772,64725
84839,64682
84894,64660
84973,64644
85031,64645
85110,64661
85164,64684
85231,64729
85272,64770
85317,64837
85339,64891
85354,64969
" /> 
<polyline style="fill-rule:evenodd;"
points="85354,65969
85353,66040
85336,66116
85311,66172
85266,66235
85222,66277
85156,66319
85100,66341
85022,66355
84962,66353
84885,66337
84830,66312
84765,66267
84724,66224
84681,66158
84659,66102
84644,66024
84645,65965
84662,65887
84685,65832
84730,65767
84772,65725
84839,65682
84894,65660
84973,65644
85031,65645
85110,65661
85164,65684
85231,65729
85272,65770
85317,65837
85339,65891
85354,65969
" /> 
<polyline style="fill-rule:evenodd;"
points="85379,70467
85378,70543
85360,70624
85333,70684
85285,70752
85238,70797
85167,70842
85106,70865
85024,70880
84959,70878
84877,70860
84818,70834
84749,70787
84704,70740
84658,70669
84635,70609
84619,70526
84620,70462
84638,70379
84663,70320
84711,70251
84757,70206
84828,70159
84887,70135
84970,70119
85034,70120
85117,70137
85176,70162
85247,70209
85291,70254
85339,70326
85363,70384
85379,70467
" /> 
<polyline style="fill-rule:evenodd;"
points="86104,73604
85395,73604
85395,72895
86104,72895
86104,73604
" /> 
<polyline style="fill-rule:evenodd;"
points="87104,58219
87103,58290
87086,58366
87061,58422
87016,58485
86972,58527
86906,58569
86850,58591
86772,58605
86712,58603
86635,58587
86580,58562
86515,58517
86474,58474
86431,58408
86409,58352
86394,58274
86395,58215
86412,58137
86435,58082
86480,58017
86522,57975
86589,57932
86644,57910
86723,57894
86781,57895
86860,57911
86914,57934
86981,57979
87022,58020
87067,58087
87089,58141
87104,58219
" /> 
<polyline style="fill-rule:evenodd;"
points="87104,73219
87103,73290
87086,73366
87061,73422
87016,73485
86972,73527
86906,73569
86850,73591
86772,73605
86712,73603
86635,73587
86580,73562
86515,73517
86474,73474
86431,73408
86409,73352
86394,73274
86395,73215
86412,73137
86435,73082
86480,73017
86522,72975
86589,72932
86644,72910
86723,72894
86781,72895
86860,72911
86914,72934
86981,72979
87022,73020
87067,73087
87089,73141
87104,73219
" /> 
<polyline style="fill-rule:evenodd;"
points="87104,59604
86395,59604
86395,58895
87104,58895
87104,59604
" /> 
<polyline style="fill-rule:evenodd;"
points="87129,52967
87128,53043
87110,53124
87083,53184
87035,53252
86988,53297
86917,53342
86856,53365
86774,53380
86709,53378
86627,53360
86568,53334
86499,53287
86454,53240
86408,53169
86385,53109
86369,53026
86370,52962
86388,52879
86413,52820
86461,52751
86507,52706
86578,52659
86637,52635
86720,52619
86784,52620
86867,52637
86926,52662
86997,52709
87041,52754
87089,52826
87113,52884
87129,52967
" /> 
<polyline style="fill-rule:evenodd;"
points="87129,54967
87128,55043
87110,55124
87083,55184
87035,55252
86988,55297
86917,55342
86856,55365
86774,55380
86709,55378
86627,55360
86568,55334
86499,55287
86454,55240
86408,55169
86385,55109
86369,55026
86370,54962
86388,54879
86413,54820
86461,54751
86507,54706
86578,54659
86637,54635
86720,54619
86784,54620
86867,54637
86926,54662
86997,54709
87041,54754
87089,54826
87113,54884
87129,54967
" /> 
<polyline style="fill-rule:evenodd;"
points="87129,60967
87128,61043
87110,61124
87083,61184
87035,61252
86988,61297
86917,61342
86856,61365
86774,61380
86709,61378
86627,61360
86568,61334
86499,61287
86454,61240
86408,61169
86385,61109
86369,61026
86370,60962
86388,60879
86413,60820
86461,60751
86507,60706
86578,60659
86637,60635
86720,60619
86784,60620
86867,60637
86926,60662
86997,60709
87041,60754
87089,60826
87113,60884
87129,60967
" /> 
<polyline style="fill-rule:evenodd;"
points="87129,64967
87128,65043
87110,65124
87083,65184
87035,65252
86988,65297
86917,65342
86856,65365
86774,65380
86709,65378
86627,65360
86568,65334
86499,65287
86454,65240
86408,65169
86385,65109
86369,65026
86370,64962
86388,64879
86413,64820
86461,64751
86507,64706
86578,64659
86637,64635
86720,64619
86784,64620
86867,64637
86926,64662
86997,64709
87041,64754
87089,64826
87113,64884
87129,64967
" /> 
<polyline style="fill-rule:evenodd;"
points="87129,68967
87128,69043
87110,69124
87083,69184
87035,69252
86988,69297
86917,69342
86856,69365
86774,69380
86709,69378
86627,69360
86568,69334
86499,69287
86454,69240
86408,69169
86385,69109
86369,69026
86370,68962
86388,68879
86413,68820
86461,68751
86507,68706
86578,68659
86637,68635
86720,68619
86784,68620
86867,68637
86926,68662
86997,68709
87041,68754
87089,68826
87113,68884
87129,68967
" /> 
<polyline style="fill-rule:evenodd;"
points="87129,69967
87128,70043
87110,70124
87083,70184
87035,70252
86988,70297
86917,70342
86856,70365
86774,70380
86709,70378
86627,70360
86568,70334
86499,70287
86454,70240
86408,70169
86385,70109
86369,70026
86370,69962
86388,69879
86413,69820
86461,69751
86507,69706
86578,69659
86637,69635
86720,69619
86784,69620
86867,69637
86926,69662
86997,69709
87041,69754
87089,69826
87113,69884
87129,69967
" /> 
<polyline style="fill-rule:evenodd;"
points="87129,70967
87128,71043
87110,71124
87083,71184
87035,71252
86988,71297
86917,71342
86856,71365
86774,71380
86709,71378
86627,71360
86568,71334
86499,71287
86454,71240
86408,71169
86385,71109
86369,71026
86370,70962
86388,70879
86413,70820
86461,70751
86507,70706
86578,70659
86637,70635
86720,70619
86784,70620
86867,70637
86926,70662
86997,70709
87041,70754
87089,70826
87113,70884
87129,70967
" /> 
<polyline style="fill-rule:evenodd;"
points="87129,54379
86370,54379
86370,53620
87129,53620
87129,54379
" /> 
<polyline style="fill-rule:evenodd;"
points="87129,56379
86370,56379
86370,55620
87129,55620
87129,56379
" /> 
<polyline style="fill-rule:evenodd;"
points="87129,68379
86370,68379
86370,67620
87129,67620
87129,68379
" /> 
</g> 
</svg>
