<?xml version="1.0" standalone="no"?>
 <!DOCTYPE svg PUBLIC "-//W3C//DTD SVG 1.1//EN" 
 "http://www.w3.org/Graphics/SVG/1.1/DTD/svg11.dtd"> 
<svg xmlns="http://www.w3.org/2000/svg" version="1.1" 
    width="41.9989cm" height="29.7002cm" viewBox="0 0 165350 116930 ">
<title>SVG Picture created as power_ctrl-F_SilkS.svg date 2014/06/08 17:03:29 </title>
  <desc>Picture generated by PCBNEW </desc>
<g style="fill:#000000; fill-opacity:1;stroke:#000000; stroke-opacity:1;
stroke-linecap:round; stroke-linejoin:round; "
 transform="translate(0 0) scale(1 1)">
</g>
<g style="fill:#000000; fill-opacity:0.0; 
stroke:#000000; stroke-width:120; stroke-opacity:1; 
stroke-linecap:round; stroke-linejoin:round;">
<path d="M81000 70500
L81400 70500
" />
<path d="M81400 70500
L81400 70100
" />
<path d="M81400 70100
L84600 70100
" />
<path d="M84600 70100
L84600 70900
" />
<path d="M84600 70900
L81400 70900
" />
<path d="M81400 70900
L81400 70500
" />
<path d="M81400 70300
L81600 70100
" />
<path d="M85000 70500
L84600 70500
" />
<path d="M80000 49000
L80000 49400
" />
<path d="M80000 49400
L80400 49400
" />
<path d="M80400 49400
L80400 52600
" />
<path d="M80400 52600
L79600 52600
" />
<path d="M79600 52600
L79600 49400
" />
<path d="M79600 49400
L80000 49400
" />
<path d="M80200 49400
L80400 49600
" />
<path d="M80000 53000
L80000 52600
" />
<path d="M83500 73750
L83100 73750
" />
<path d="M83100 73750
L83100 74150
" />
<path d="M83100 74150
L79900 74150
" />
<path d="M79900 74150
L79900 73350
" />
<path d="M79900 73350
L83100 73350
" />
<path d="M83100 73350
L83100 73750
" />
<path d="M83100 73950
L82900 74150
" />
<path d="M79500 73750
L79900 73750
" />
</g>
<g style="fill:#000000; fill-opacity:0.0; 
stroke:#000000; stroke-width:100; stroke-opacity:1; 
stroke-linecap:round; stroke-linejoin:round;">
<path d="M86250 71500
L86250 67500
" />
<path d="M87250 71500
L87250 67500
" />
<path d="M87250 67500
L86250 67500
" />
<path d="M86250 71500
L87250 71500
" />
</g>
<g style="fill:#000000; fill-opacity:0.0; 
stroke:#000000; stroke-width:60; stroke-opacity:1; 
stroke-linecap:round; stroke-linejoin:round;">
<path d="M79500 54250
L80500 54250
" />
<path d="M80500 54250
L80500 56250
" />
<path d="M80500 56250
L79500 56250
" />
<path d="M79500 56250
L79500 54250
" />
<path d="M87250 54500
L86250 54500
" />
<path d="M86250 54500
L86250 52500
" />
<path d="M86250 52500
L87250 52500
" />
<path d="M87250 52500
L87250 54500
" />
<path d="M87250 56500
L86250 56500
" />
<path d="M86250 56500
L86250 54500
" />
<path d="M86250 54500
L87250 54500
" />
<path d="M87250 54500
L87250 56500
" />
</g>
<g style="fill:#000000; fill-opacity:0.0; 
stroke:#000000; stroke-width:150; stroke-opacity:1; 
stroke-linecap:round; stroke-linejoin:round;">
<path d="M84500 52000
L84500 67000
" />
<path d="M84500 67000
L82500 67000
" />
<path d="M82500 67000
L82500 52000
" />
<path d="M82500 52000
L84500 52000
" />
<path d="M84000 52000
L84000 52500
" />
<path d="M84000 52500
L83000 52500
" />
<path d="M83000 52500
L83000 52000
" />
</g>
<g style="fill:#000000; fill-opacity:0.0; 
stroke:#000000; stroke-width:120; stroke-opacity:1; 
stroke-linecap:round; stroke-linejoin:round;">
<circle cx="83500" cy="48750" r="2195.45" /> 
<path d="M80400 57600
L80400 60400
" />
<path d="M80400 60400
L79600 60400
" />
<path d="M79600 60400
L79600 57600
" />
<path d="M79600 57600
L80400 57600
" />
<path d="M80200 57600
L80400 57800
" />
</g>
<g style="fill:#000000; fill-opacity:0.0; 
stroke:#000000; stroke-width:50; stroke-opacity:1; 
stroke-linecap:round; stroke-linejoin:round;">
<circle cx="86250" cy="73250" r="1001.25" /> 
</g>
<g style="fill:#000000; fill-opacity:0.0; 
stroke:#000000; stroke-width:120; stroke-opacity:1; 
stroke-linecap:round; stroke-linejoin:round;">
<path d="M84750 45250
L80750 45250
" />
<path d="M84750 45750
L84750 42750
" />
<path d="M84750 42750
L80750 42750
" />
<path d="M80750 42750
L80750 45750
" />
<path d="M80750 45750
L84750 45750
" />
<path d="M86750 65000
L86750 64600
" />
<path d="M86750 64600
L86350 64600
" />
<path d="M86350 64600
L86350 61400
" />
<path d="M86350 61400
L87150 61400
" />
<path d="M87150 61400
L87150 64600
" />
<path d="M87150 64600
L86750 64600
" />
<path d="M86550 64600
L86350 64400
" />
<path d="M86750 61000
L86750 61400
" />
<circle cx="86750" cy="58750" r="1000" /> 
<path d="M86500 57750
L86500 58000
" />
<path d="M86500 58000
L87000 58000
" />
<path d="M87000 58000
L87000 57750
" />
</g>
<g style="fill:#000000; fill-opacity:0.0; 
stroke:#000000; stroke-width:60; stroke-opacity:1; 
stroke-linecap:round; stroke-linejoin:round;">
<path d="M78500 65500
L78500 64500
" />
<path d="M78500 64500
L80500 64500
" />
<path d="M80500 64500
L80500 65500
" />
<path d="M80500 65500
L78500 65500
" />
<path d="M83500 68000
L83500 69000
" />
<path d="M83500 69000
L81500 69000
" />
<path d="M81500 69000
L81500 68000
" />
<path d="M81500 68000
L83500 68000
" />
</g>
<g style="fill:#000000; fill-opacity:0.0; 
stroke:#000000; stroke-width:120; stroke-opacity:1; 
stroke-linecap:round; stroke-linejoin:round;">
<path d="M78500 77750
L78500 74750
" />
<path d="M84500 77750
L84500 74750
" />
<path d="M78500 77250
L84500 77250
" />
<path d="M78500 74750
L84500 74750
" />
<path d="M78500 77750
L84500 77750
" />
</g>
<g style="fill:#000000; fill-opacity:0.0; 
stroke:#000000; stroke-width:80; stroke-opacity:1; 
stroke-linecap:round; stroke-linejoin:round;">
<path d="M82916 70722
L82750 70460
" />
<path d="M82630 70722
L82630 70172
L82821 70172
L82869 70198
L82892 70225
L82916 70277
L82916 70355
L82892 70408
L82869 70434
L82821 70460
L82630 70460
" />
<path d="M83107 70225
L83130 70198
L83178 70172
L83297 70172
L83345 70198
L83369 70225
L83392 70277
L83392 70329
L83369 70408
L83083 70722
L83392 70722
" />
<path d="M80222 51083
L79960 51250
" />
<path d="M80222 51369
L79672 51369
L79672 51178
L79698 51130
L79725 51107
L79777 51083
L79855 51083
L79908 51107
L79934 51130
L79960 51178
L79960 51369
" />
<path d="M80222 50607
L80222 50892
" />
<path d="M80222 50750
L79672 50750
L79751 50797
L79803 50845
L79829 50892
" />
<path d="M81666 73722
L81500 73460
" />
<path d="M81380 73722
L81380 73172
L81571 73172
L81619 73198
L81642 73225
L81666 73277
L81666 73355
L81642 73408
L81619 73434
L81571 73460
L81380 73460
" />
<path d="M81833 73172
L82142 73172
L81976 73382
L82047 73382
L82095 73408
L82119 73434
L82142 73486
L82142 73617
L82119 73670
L82095 73696
L82047 73722
L81904 73722
L81857 73696
L81833 73670
" />
<path d="M87911 71223
L87511 71223
" />
<path d="M87911 70804
L87721 70938
" />
<path d="M87911 71033
L87511 71033
L87511 70880
L87530 70842
L87550 70823
L87588 70804
L87645 70804
L87683 70823
L87702 70842
L87721 70880
L87721 71033
" />
<path d="M87950 70728
L87950 70423
" />
<path d="M87892 70347
L87911 70290
L87911 70195
L87892 70157
L87873 70138
L87835 70119
L87797 70119
L87759 70138
L87740 70157
L87721 70195
L87702 70271
L87683 70309
L87664 70328
L87626 70347
L87588 70347
L87550 70328
L87530 70309
L87511 70271
L87511 70176
L87530 70119
" />
<path d="M87702 69947
L87702 69814
" />
<path d="M87911 69757
L87911 69947
L87511 69947
L87511 69757
" />
<path d="M87911 69585
L87511 69585
L87911 69357
L87511 69357
" />
<path d="M87892 69185
L87911 69128
L87911 69033
L87892 68995
L87873 68976
L87835 68957
L87797 68957
L87759 68976
L87740 68995
L87721 69033
L87702 69109
L87683 69147
L87664 69166
L87626 69185
L87588 69185
L87550 69166
L87530 69147
L87511 69109
L87511 69014
L87530 68957
" />
<path d="M87511 68709
L87511 68633
L87530 68595
L87569 68557
L87645 68538
L87778 68538
L87854 68557
L87892 68595
L87911 68633
L87911 68709
L87892 68747
L87854 68785
L87778 68804
L87645 68804
L87569 68785
L87530 68747
L87511 68709
" />
<path d="M87911 68138
L87721 68271
" />
<path d="M87911 68366
L87511 68366
L87511 68214
L87530 68176
L87550 68157
L87588 68138
L87645 68138
L87683 68157
L87702 68176
L87721 68214
L87721 68366
" />
<path d="M87911 67757
L87911 67985
" />
<path d="M87911 67871
L87511 67871
L87569 67909
L87607 67947
L87626 67985
" />
</g>
<g style="fill:#000000; fill-opacity:0.0; 
stroke:#000000; stroke-width:60; stroke-opacity:1; 
stroke-linecap:round; stroke-linejoin:round;">
<path d="M80871 55442
L80728 55542
" />
<path d="M80871 55614
L80571 55614
L80571 55500
L80585 55471
L80600 55457
L80628 55442
L80671 55442
L80700 55457
L80714 55471
L80728 55500
L80728 55614
" />
<path d="M80857 55328
L80871 55285
L80871 55214
L80857 55185
L80842 55171
L80814 55157
L80785 55157
L80757 55171
L80742 55185
L80728 55214
L80714 55271
L80700 55300
L80685 55314
L80657 55328
L80628 55328
L80600 55314
L80585 55300
L80571 55271
L80571 55200
L80585 55157
" />
<path d="M80871 54871
L80871 55042
" />
<path d="M80871 54957
L80571 54957
L80614 54985
L80642 55014
L80657 55042
" />
<path d="M85964 53964
L85964 53864
" />
<path d="M86121 53821
L86121 53964
L85821 53964
L85821 53821
" />
<path d="M85821 53721
L86121 53521
" />
<path d="M85821 53521
L86121 53721
" />
<path d="M85821 53450
L85821 53278
" />
<path d="M86121 53364
L85821 53364
" />
<path d="M85850 53192
L85835 53178
L85821 53150
L85821 53078
L85835 53050
L85850 53035
L85878 53021
L85907 53021
L85950 53035
L86121 53207
L86121 53021
" />
<path d="M85964 55964
L85964 55864
" />
<path d="M86121 55821
L86121 55964
L85821 55964
L85821 55821
" />
<path d="M85821 55721
L86121 55521
" />
<path d="M85821 55521
L86121 55721
" />
<path d="M85821 55450
L85821 55278
" />
<path d="M86121 55364
L85821 55364
" />
<path d="M86121 55021
L86121 55192
" />
<path d="M86121 55107
L85821 55107
L85864 55135
L85892 55164
L85907 55192
" />
</g>
<g style="fill:#000000; fill-opacity:0.0; 
stroke:#000000; stroke-width:120; stroke-opacity:1; 
stroke-linecap:round; stroke-linejoin:round;">
</g>
<g style="fill:#000000; fill-opacity:0.0; 
stroke:#000000; stroke-width:112.5; stroke-opacity:1; 
stroke-linecap:round; stroke-linejoin:round;">
<path d="M83142 55150
L83571 55150
L83657 55171
L83714 55214
L83742 55278
L83742 55321
" />
<path d="M83742 54700
L83742 54957
" />
<path d="M83742 54828
L83142 54828
L83228 54871
L83285 54914
L83314 54957
" />
</g>
<g style="fill:#000000; fill-opacity:0.0; 
stroke:#000000; stroke-width:120; stroke-opacity:1; 
stroke-linecap:round; stroke-linejoin:round;">
</g>
<g style="fill:#000000; fill-opacity:0.0; 
stroke:#000000; stroke-width:112.5; stroke-opacity:1; 
stroke-linecap:round; stroke-linejoin:round;">
<path d="M84071 67274
L84071 67060
" />
<path d="M84242 67317
L83642 67167
L84242 67017
" />
<path d="M83642 66932
L83642 66674
" />
<path d="M84242 66803
L83642 66803
" />
<path d="M84242 66524
L83642 66524
L84071 66374
L83642 66224
L84242 66224
" />
<path d="M83928 66010
L83928 65860
" />
<path d="M84242 65796
L84242 66010
L83642 66010
L83642 65796
" />
<path d="M83671 65367
L83642 65410
L83642 65474
L83671 65539
L83728 65582
L83785 65603
L83900 65624
L83985 65624
L84100 65603
L84157 65582
L84214 65539
L84242 65474
L84242 65432
L84214 65367
L84185 65346
L83985 65346
L83985 65432
" />
<path d="M84071 65174
L84071 64960
" />
<path d="M84242 65217
L83642 65067
L84242 64917
" />
<path d="M83642 64810
L83642 64532
L83871 64682
L83871 64617
L83900 64574
L83928 64553
L83985 64532
L84128 64532
L84185 64553
L84214 64574
L84242 64617
L84242 64746
L84214 64789
L84185 64810
" />
<path d="M83700 64360
L83671 64339
L83642 64296
L83642 64189
L83671 64146
L83700 64124
L83757 64103
L83814 64103
L83900 64124
L84242 64382
L84242 64103
" />
<path d="M83900 63846
L83871 63889
L83842 63910
L83785 63932
L83757 63932
L83700 63910
L83671 63889
L83642 63846
L83642 63760
L83671 63717
L83700 63696
L83757 63675
L83785 63675
L83842 63696
L83871 63717
L83900 63760
L83900 63846
L83928 63889
L83957 63910
L84014 63932
L84128 63932
L84185 63910
L84214 63889
L84242 63846
L84242 63760
L84214 63717
L84185 63696
L84128 63675
L84014 63675
L83957 63696
L83928 63717
L83900 63760
" />
<path d="M84242 63482
L83642 63482
L83642 63310
L83671 63267
L83700 63246
L83757 63225
L83842 63225
L83900 63246
L83928 63267
L83957 63310
L83957 63482
" />
</g>
<g style="fill:#000000; fill-opacity:0.0; 
stroke:#000000; stroke-width:120; stroke-opacity:1; 
stroke-linecap:round; stroke-linejoin:round;">
</g>
<g style="fill:#000000; fill-opacity:0.0; 
stroke:#000000; stroke-width:100; stroke-opacity:1; 
stroke-linecap:round; stroke-linejoin:round;">
<path d="M83416 49904
L83392 49928
L83321 49952
L83273 49952
L83202 49928
L83154 49880
L83130 49833
L83107 49738
L83107 49666
L83130 49571
L83154 49523
L83202 49476
L83273 49452
L83321 49452
L83392 49476
L83416 49500
" />
<path d="M83892 49952
L83607 49952
" />
<path d="M83750 49952
L83750 49452
L83702 49523
L83654 49571
L83607 49595
" />
<path d="M82678 47619
L82678 47952
" />
<path d="M82559 47428
L82440 47785
L82750 47785
" />
<path d="M82892 47452
L83226 47452
L83011 47952
" />
<path d="M83511 47452
L83559 47452
L83607 47476
L83630 47500
L83654 47547
L83678 47642
L83678 47761
L83654 47857
L83630 47904
L83607 47928
L83559 47952
L83511 47952
L83464 47928
L83440 47904
L83416 47857
L83392 47761
L83392 47642
L83416 47547
L83440 47500
L83464 47476
L83511 47452
" />
<path d="M84107 47619
L84107 47952
" />
<path d="M83892 47619
L83892 47880
L83916 47928
L83964 47952
L84035 47952
L84083 47928
L84107 47904
" />
<path d="M84511 47690
L84345 47690
" />
<path d="M84345 47952
L84345 47452
L84583 47452
" />
</g>
<g style="fill:#000000; fill-opacity:0.0; 
stroke:#000000; stroke-width:80; stroke-opacity:1; 
stroke-linecap:round; stroke-linejoin:round;">
<path d="M79933 59123
L79914 59142
L79857 59161
L79819 59161
L79761 59142
L79723 59104
L79704 59066
L79685 58990
L79685 58933
L79704 58857
L79723 58819
L79761 58780
L79819 58761
L79857 58761
L79914 58780
L79933 58800
" />
<path d="M80085 58800
L80104 58780
L80142 58761
L80238 58761
L80276 58780
L80295 58800
L80314 58838
L80314 58876
L80295 58933
L80066 59161
L80314 59161
" />
</g>
<g style="fill:#000000; fill-opacity:0.0; 
stroke:#000000; stroke-width:50; stroke-opacity:1; 
stroke-linecap:round; stroke-linejoin:round;">
<path d="M86200 72843
L86185 72858
L86142 72872
L86114 72872
L86071 72858
L86042 72829
L86028 72801
L86014 72743
L86014 72701
L86028 72643
L86042 72615
L86071 72586
L86114 72572
L86142 72572
L86185 72586
L86200 72601
" />
<path d="M86300 72572
L86485 72572
L86385 72686
L86428 72686
L86457 72701
L86471 72715
L86485 72743
L86485 72815
L86471 72843
L86457 72858
L86428 72872
L86342 72872
L86314 72858
L86300 72843
" />
<path d="M85898 73671
L85898 73871
" />
<path d="M85839 73557
L85779 73771
L85934 73771
" />
<path d="M86029 73842
L86041 73857
L86029 73871
L86017 73857
L86029 73842
L86029 73871
" />
<path d="M86125 73571
L86291 73571
L86184 73871
" />
<path d="M86494 73671
L86494 73871
" />
<path d="M86386 73671
L86386 73828
L86398 73857
L86422 73871
L86458 73871
L86482 73857
L86494 73842
" />
<path d="M86696 73714
L86613 73714
" />
<path d="M86613 73871
L86613 73571
L86732 73571
" />
</g>
<g style="fill:#000000; fill-opacity:0.0; 
stroke:#000000; stroke-width:80; stroke-opacity:1; 
stroke-linecap:round; stroke-linejoin:round;">
</g>
<g style="fill:#000000; fill-opacity:0.0; 
stroke:#000000; stroke-width:75; stroke-opacity:1; 
stroke-linecap:round; stroke-linejoin:round;">
<path d="M85235 73257
L85464 73257
" />
<path d="M85350 73371
L85350 73142
" />
</g>
<g style="fill:#000000; fill-opacity:0.0; 
stroke:#000000; stroke-width:80; stroke-opacity:1; 
stroke-linecap:round; stroke-linejoin:round;">
</g>
<g style="fill:#000000; fill-opacity:0.0; 
stroke:#000000; stroke-width:120; stroke-opacity:1; 
stroke-linecap:round; stroke-linejoin:round;">
<path d="M81728 41742
L81728 41142
L81957 41142
L82014 41171
L82042 41200
L82071 41257
L82071 41342
L82042 41400
L82014 41428
L81957 41457
L81728 41457
" />
<path d="M82271 41142
L82414 41742
L82528 41314
L82642 41742
L82785 41142
" />
<path d="M83357 41742
L83157 41457
" />
<path d="M83014 41742
L83014 41142
L83242 41142
L83300 41171
L83328 41200
L83357 41257
L83357 41342
L83328 41400
L83300 41428
L83242 41457
L83014 41457
" />
<path d="M83471 41800
L83928 41800
" />
<path d="M84071 41742
L84071 41142
" />
<path d="M84357 41742
L84357 41142
L84700 41742
L84700 41142
" />
<path d="M85300 41742
L84957 41742
" />
<path d="M85128 41742
L85128 41142
L85071 41228
L85014 41285
L84957 41314
" />
<path d="M81478 45935
L81450 45964
L81364 45992
L81307 45992
L81221 45964
L81164 45907
L81135 45850
L81107 45735
L81107 45650
L81135 45535
L81164 45478
L81221 45421
L81307 45392
L81364 45392
L81450 45421
L81478 45450
" />
<path d="M81850 45392
L81964 45392
L82021 45421
L82078 45478
L82107 45592
L82107 45792
L82078 45907
L82021 45964
L81964 45992
L81850 45992
L81792 45964
L81735 45907
L81707 45792
L81707 45592
L81735 45478
L81792 45421
L81850 45392
" />
<path d="M82364 45992
L82364 45392
L82707 45992
L82707 45392
" />
<path d="M82992 45992
L82992 45392
L83335 45992
L83335 45392
" />
<path d="M83478 46050
L83935 46050
" />
<path d="M84050 45450
L84078 45421
L84135 45392
L84278 45392
L84335 45421
L84364 45450
L84392 45507
L84392 45564
L84364 45650
L84021 45992
L84392 45992
" />
</g>
<g style="fill:#000000; fill-opacity:0.0; 
stroke:#000000; stroke-width:80; stroke-opacity:1; 
stroke-linecap:round; stroke-linejoin:round;">
<path d="M86666 63222
L86500 62960
" />
<path d="M86380 63222
L86380 62672
L86571 62672
L86619 62698
L86642 62725
L86666 62777
L86666 62855
L86642 62908
L86619 62934
L86571 62960
L86380 62960
" />
<path d="M87095 62855
L87095 63222
" />
<path d="M86976 62646
L86857 63039
L87166 63039
" />
</g>
<g style="fill:#000000; fill-opacity:0.0; 
stroke:#000000; stroke-width:120; stroke-opacity:1; 
stroke-linecap:round; stroke-linejoin:round;">
<path d="M85492 59192
L84892 59192
L84892 59050
L84921 58964
L84978 58907
L85035 58878
L85150 58850
L85235 58850
L85350 58878
L85407 58907
L85464 58964
L85492 59050
L85492 59192
" />
<path d="M85492 58278
L85492 58621
" />
<path d="M85492 58450
L84892 58450
L84978 58507
L85035 58564
L85064 58621
" />
</g>
<g style="fill:#000000; fill-opacity:0.0; 
stroke:#000000; stroke-width:60; stroke-opacity:1; 
stroke-linecap:round; stroke-linejoin:round;">
<path d="M78350 64371
L78250 64228
" />
<path d="M78178 64371
L78178 64071
L78292 64071
L78321 64085
L78335 64100
L78350 64128
L78350 64171
L78335 64200
L78321 64214
L78292 64228
L78178 64228
" />
<path d="M78478 64214
L78578 64214
" />
<path d="M78621 64371
L78478 64371
L78478 64071
L78621 64071
" />
<path d="M78892 64371
L78750 64371
L78750 64071
" />
<path d="M78978 64285
L79121 64285
" />
<path d="M78950 64371
L79050 64071
L79150 64371
" />
<path d="M79307 64228
L79307 64371
" />
<path d="M79207 64071
L79307 64228
L79407 64071
" />
<path d="M79435 64400
L79664 64400
" />
<path d="M79735 64371
L79735 64071
L79850 64071
L79878 64085
L79892 64100
L79907 64128
L79907 64171
L79892 64200
L79878 64214
L79850 64228
L79735 64228
" />
<path d="M80007 64071
L80078 64371
L80135 64157
L80192 64371
L80264 64071
" />
<path d="M80550 64371
L80450 64228
" />
<path d="M80378 64371
L80378 64071
L80492 64071
L80521 64085
L80535 64100
L80550 64128
L80550 64171
L80535 64200
L80521 64214
L80492 64228
L80378 64228
" />
<path d="M80835 64371
L80664 64371
" />
<path d="M80750 64371
L80750 64071
L80721 64114
L80692 64142
L80664 64157
" />
<path d="M81392 69371
L81292 69228
" />
<path d="M81221 69371
L81221 69071
L81335 69071
L81364 69085
L81378 69100
L81392 69128
L81392 69171
L81378 69200
L81364 69214
L81335 69228
L81221 69228
" />
<path d="M81521 69214
L81621 69214
" />
<path d="M81664 69371
L81521 69371
L81521 69071
L81664 69071
" />
<path d="M81935 69371
L81792 69371
L81792 69071
" />
<path d="M82021 69285
L82164 69285
" />
<path d="M81992 69371
L82092 69071
L82192 69371
" />
<path d="M82350 69228
L82350 69371
" />
<path d="M82250 69071
L82350 69228
L82450 69071
" />
<path d="M82478 69400
L82707 69400
" />
<path d="M82835 69071
L82892 69071
L82921 69085
L82950 69114
L82964 69171
L82964 69271
L82950 69328
L82921 69357
L82892 69371
L82835 69371
L82807 69357
L82778 69328
L82764 69271
L82764 69171
L82778 69114
L82807 69085
L82835 69071
" />
<path d="M83092 69071
L83092 69314
L83107 69342
L83121 69357
L83150 69371
L83207 69371
L83235 69357
L83250 69342
L83264 69314
L83264 69071
" />
<path d="M83364 69071
L83535 69071
" />
<path d="M83450 69371
L83450 69071
" />
<path d="M83792 69371
L83621 69371
" />
<path d="M83707 69371
L83707 69071
L83678 69114
L83650 69142
L83621 69157
" />
</g>
<g style="fill:#000000; fill-opacity:0.0; 
stroke:#000000; stroke-width:120; stroke-opacity:1; 
stroke-linecap:round; stroke-linejoin:round;">
<path d="M81057 74492
L81057 73892
" />
<path d="M81400 74492
L81142 74150
" />
<path d="M81400 73892
L81057 74235
" />
<path d="M81971 74492
L81628 74492
" />
<path d="M81800 74492
L81800 73892
L81742 73978
L81685 74035
L81628 74064
" />
<path d="M80228 78435
L80200 78464
L80114 78492
L80057 78492
L79971 78464
L79914 78407
L79885 78350
L79857 78235
L79857 78150
L79885 78035
L79914 77978
L79971 77921
L80057 77892
L80114 77892
L80200 77921
L80228 77950
" />
<path d="M80600 77892
L80714 77892
L80771 77921
L80828 77978
L80857 78092
L80857 78292
L80828 78407
L80771 78464
L80714 78492
L80600 78492
L80542 78464
L80485 78407
L80457 78292
L80457 78092
L80485 77978
L80542 77921
L80600 77892
" />
<path d="M81114 78492
L81114 77892
L81457 78492
L81457 77892
" />
<path d="M81742 78492
L81742 77892
L82085 78492
L82085 77892
" />
<path d="M82228 78550
L82685 78550
" />
<path d="M82771 77892
L83142 77892
L82942 78121
L83028 78121
L83085 78150
L83114 78178
L83142 78235
L83142 78378
L83114 78435
L83085 78464
L83028 78492
L82857 78492
L82800 78464
L82771 78435
" />
</g> 
</svg>
