<?xml version="1.0" standalone="no"?>
 <!DOCTYPE svg PUBLIC "-//W3C//DTD SVG 1.1//EN" 
 "http://www.w3.org/Graphics/SVG/1.1/DTD/svg11.dtd"> 
<svg xmlns="http://www.w3.org/2000/svg" version="1.1" 
    width="21.0007cm" height="29.7002cm" viewBox="0 0 82680 116930 ">
<title>SVG Picture created as power_amp-F_Mask.svg date 2014/07/28 12:38:22 </title>
  <desc>Picture generated by PCBNEW </desc>
<g style="fill:#000000; fill-opacity:1;stroke:#000000; stroke-opacity:1;
stroke-linecap:round; stroke-linejoin:round; "
 transform="translate(0 0) scale(1 1)">
</g>
<g style="fill:#000000; fill-opacity:0.0; 
stroke:#000000; stroke-width:39.3701; stroke-opacity:1; 
stroke-linecap:round; stroke-linejoin:round;">
<path d="M70500 17000
L25000 17000
" />
<path d="M70500 43000
L70500 17000
" />
<path d="M25000 43000
L70500 43000
" />
<path d="M25000 17000
L25000 43000
" />
</g>
<g style="fill:#000000; fill-opacity:1.0; 
stroke:#000000; stroke-width:59.0551; stroke-opacity:1; 
stroke-linecap:round; stroke-linejoin:round;">
<polyline style="fill-rule:evenodd;"
points="28079,29948
28078,30067
28050,30189
28008,30282
27936,30384
27862,30455
27757,30522
27662,30559
27538,30580
27437,30578
27314,30551
27221,30511
27117,30439
27047,30366
26979,30260
26942,30166
26919,30042
26920,29941
26947,29817
26986,29725
27058,29620
27129,29550
27236,29480
27328,29443
27454,29419
27553,29420
27679,29445
27770,29484
27876,29556
27946,29626
28017,29733
28055,29824
28079,29948
" /> 
<polyline style="fill-rule:evenodd;"
points="28079,31948
28078,32067
28050,32189
28008,32282
27936,32384
27862,32455
27757,32522
27662,32559
27538,32580
27437,32578
27314,32551
27221,32511
27117,32439
27047,32366
26979,32260
26942,32166
26919,32042
26920,31941
26947,31817
26986,31725
27058,31620
27129,31550
27236,31480
27328,31443
27454,31419
27553,31420
27679,31445
27770,31484
27876,31556
27946,31626
28017,31733
28055,31824
28079,31948
" /> 
<polyline style="fill-rule:evenodd;"
points="28080,28580
26919,28580
26919,27419
28080,27419
28080,28580
" /> 
<polyline style="fill-rule:evenodd;"
points="31854,24970
31853,25039
31836,25117
31812,25170
31765,25237
31723,25276
31655,25320
31601,25341
31521,25355
31463,25354
31384,25336
31331,25313
31264,25267
31224,25226
31180,25156
31159,25104
31144,25023
31145,24966
31162,24885
31184,24834
31231,24765
31271,24726
31341,24681
31392,24660
31474,24644
31530,24645
31612,24661
31662,24683
31732,24730
31771,24769
31818,24839
31838,24889
31854,24970
" /> 
<polyline style="fill-rule:evenodd;"
points="31854,38970
31853,39039
31836,39117
31812,39170
31765,39237
31723,39276
31655,39320
31601,39341
31521,39355
31463,39354
31384,39336
31331,39313
31264,39267
31224,39226
31180,39156
31159,39104
31144,39023
31145,38966
31162,38885
31184,38834
31231,38765
31271,38726
31341,38681
31392,38660
31474,38644
31530,38645
31612,38661
31662,38683
31732,38730
31771,38769
31818,38839
31838,38889
31854,38970
" /> 
<polyline style="fill-rule:evenodd;"
points="31855,21355
31144,21355
31144,20644
31855,20644
31855,21355
" /> 
<polyline style="fill-rule:evenodd;"
points="31855,35355
31144,35355
31144,34644
31855,34644
31855,35355
" /> 
<polyline style="fill-rule:evenodd;"
points="40375,24968
40374,25041
40355,25124
40330,25180
40281,25250
40236,25293
40164,25338
40106,25360
40022,25375
39961,25374
39877,25356
39821,25331
39751,25282
39708,25238
39662,25166
39639,25110
39624,25024
39625,24964
39643,24879
39666,24824
39716,24752
39758,24710
39831,24663
39886,24640
39973,24624
40032,24624
40118,24642
40172,24665
40245,24714
40287,24756
40336,24829
40358,24883
40375,24968
" /> 
<polyline style="fill-rule:evenodd;"
points="40375,38968
40374,39041
40355,39124
40330,39180
40281,39250
40236,39293
40164,39338
40106,39360
40022,39375
39961,39374
39877,39356
39821,39331
39751,39282
39708,39238
39662,39166
39639,39110
39624,39024
39625,38964
39643,38879
39666,38824
39716,38752
39758,38710
39831,38663
39886,38640
39973,38624
40032,38624
40118,38642
40172,38665
40245,38714
40287,38756
40336,38829
40358,38883
40375,38968
" /> 
<polyline style="fill-rule:evenodd;"
points="40375,21375
39624,21375
39624,20624
40375,20624
40375,21375
" /> 
<polyline style="fill-rule:evenodd;"
points="40375,35375
39624,35375
39624,34624
40375,34624
40375,35375
" /> 
<polyline style="fill-rule:evenodd;"
points="48354,26970
48353,27039
48336,27117
48312,27170
48265,27237
48223,27276
48155,27320
48101,27341
48021,27355
47963,27354
47884,27336
47831,27313
47764,27267
47724,27226
47680,27156
47659,27104
47644,27023
47645,26966
47662,26885
47684,26834
47731,26765
47771,26726
47841,26681
47892,26660
47974,26644
48030,26645
48112,26661
48162,26683
48232,26730
48271,26769
48318,26839
48338,26889
48354,26970
" /> 
<polyline style="fill-rule:evenodd;"
points="48354,38970
48353,39039
48336,39117
48312,39170
48265,39237
48223,39276
48155,39320
48101,39341
48021,39355
47963,39354
47884,39336
47831,39313
47764,39267
47724,39226
47680,39156
47659,39104
47644,39023
47645,38966
47662,38885
47684,38834
47731,38765
47771,38726
47841,38681
47892,38660
47974,38644
48030,38645
48112,38661
48162,38683
48232,38730
48271,38769
48318,38839
48338,38889
48354,38970
" /> 
<polyline style="fill-rule:evenodd;"
points="48355,21355
47644,21355
47644,20644
48355,20644
48355,21355
" /> 
<polyline style="fill-rule:evenodd;"
points="48355,33355
47644,33355
47644,32644
48355,32644
48355,33355
" /> 
<polyline style="fill-rule:evenodd;"
points="56375,24968
56374,25041
56355,25124
56330,25180
56281,25250
56236,25293
56164,25338
56106,25360
56022,25375
55961,25374
55877,25356
55821,25331
55751,25282
55708,25238
55662,25166
55639,25110
55624,25024
55625,24964
55643,24879
55666,24824
55716,24752
55758,24710
55831,24663
55886,24640
55973,24624
56032,24624
56118,24642
56172,24665
56245,24714
56287,24756
56336,24829
56358,24883
56375,24968
" /> 
<polyline style="fill-rule:evenodd;"
points="56375,38968
56374,39041
56355,39124
56330,39180
56281,39250
56236,39293
56164,39338
56106,39360
56022,39375
55961,39374
55877,39356
55821,39331
55751,39282
55708,39238
55662,39166
55639,39110
55624,39024
55625,38964
55643,38879
55666,38824
55716,38752
55758,38710
55831,38663
55886,38640
55973,38624
56032,38624
56118,38642
56172,38665
56245,38714
56287,38756
56336,38829
56358,38883
56375,38968
" /> 
<polyline style="fill-rule:evenodd;"
points="56375,21375
55624,21375
55624,20624
56375,20624
56375,21375
" /> 
<polyline style="fill-rule:evenodd;"
points="56375,35375
55624,35375
55624,34624
56375,34624
56375,35375
" /> 
<polyline style="fill-rule:evenodd;"
points="63854,26970
63853,27039
63836,27117
63812,27170
63765,27237
63723,27276
63655,27320
63601,27341
63521,27355
63463,27354
63384,27336
63331,27313
63264,27267
63224,27226
63180,27156
63159,27104
63144,27023
63145,26966
63162,26885
63184,26834
63231,26765
63271,26726
63341,26681
63392,26660
63474,26644
63530,26645
63612,26661
63662,26683
63732,26730
63771,26769
63818,26839
63838,26889
63854,26970
" /> 
<polyline style="fill-rule:evenodd;"
points="63854,38970
63853,39039
63836,39117
63812,39170
63765,39237
63723,39276
63655,39320
63601,39341
63521,39355
63463,39354
63384,39336
63331,39313
63264,39267
63224,39226
63180,39156
63159,39104
63144,39023
63145,38966
63162,38885
63184,38834
63231,38765
63271,38726
63341,38681
63392,38660
63474,38644
63530,38645
63612,38661
63662,38683
63732,38730
63771,38769
63818,38839
63838,38889
63854,38970
" /> 
<polyline style="fill-rule:evenodd;"
points="63855,21355
63144,21355
63144,20644
63855,20644
63855,21355
" /> 
<polyline style="fill-rule:evenodd;"
points="63855,33355
63144,33355
63144,32644
63855,32644
63855,33355
" /> 
<polyline style="fill-rule:evenodd;"
points="68579,27948
68578,28067
68550,28189
68508,28282
68436,28384
68362,28455
68257,28522
68162,28559
68038,28580
67937,28578
67814,28551
67721,28511
67617,28439
67547,28366
67479,28260
67442,28166
67419,28042
67420,27941
67447,27817
67486,27725
67558,27620
67629,27550
67736,27480
67828,27443
67954,27419
68053,27420
68179,27445
68270,27484
68376,27556
68446,27626
68517,27733
68555,27824
68579,27948
" /> 
<polyline style="fill-rule:evenodd;"
points="68579,29948
68578,30067
68550,30189
68508,30282
68436,30384
68362,30455
68257,30522
68162,30559
68038,30580
67937,30578
67814,30551
67721,30511
67617,30439
67547,30366
67479,30260
67442,30166
67419,30042
67420,29941
67447,29817
67486,29725
67558,29620
67629,29550
67736,29480
67828,29443
67954,29419
68053,29420
68179,29445
68270,29484
68376,29556
68446,29626
68517,29733
68555,29824
68579,29948
" /> 
<polyline style="fill-rule:evenodd;"
points="68580,32580
67419,32580
67419,31419
68580,31419
68580,32580
" /> 
</g> 
</svg>
