<?xml version="1.0" standalone="no"?>
 <!DOCTYPE svg PUBLIC "-//W3C//DTD SVG 1.1//EN" 
 "http://www.w3.org/Graphics/SVG/1.1/DTD/svg11.dtd"> 
<svg xmlns="http://www.w3.org/2000/svg" version="1.1" 
    width="29.7002cm" height="21.0007cm" viewBox="0 0 116930 82680 ">
<title>SVG Picture created as filter_caps-F.SilkS.svg date 2016/04/15 19:03:35 </title>
  <desc>Picture generated by PCBNEW </desc>
<g style="fill:#000000; fill-opacity:1;stroke:#000000; stroke-opacity:1;
stroke-linecap:round; stroke-linejoin:round; "
 transform="translate(0 0) scale(1 1)">
</g>
<g style="fill:#000000; fill-opacity:0.0; 
stroke:#000000; stroke-width:-0.000393701; stroke-opacity:1; 
stroke-linecap:round; stroke-linejoin:round;">
</g>
<g style="fill:#000000; fill-opacity:0.0; 
stroke:#000000; stroke-width:59.0551; stroke-opacity:1; 
stroke-linecap:round; stroke-linejoin:round;">
<circle cx="74000" cy="56000" r="500" /> 
<circle cx="74000" cy="45500" r="500" /> 
<circle cx="74000" cy="64250" r="559.017" /> 
<circle cx="36500" cy="58000" r="500" /> 
<circle cx="36500" cy="43750" r="500" /> 
<circle cx="74000" cy="37250" r="500" /> 
<path d="M35250 65500
L75250 65500
" />
<path d="M35250 36000
L75250 36000
" />
<path d="M75250 65500
L75250 36000
" />
<path d="M35250 36000
L35250 65500
" />
<circle cx="45250" cy="64250" r="500" /> 
<circle cx="45250" cy="37250" r="500" /> 
<path d="M44899 40255
L38600 40255
" />
<path d="M44898 40311
L38601 40311
" />
<path d="M44896 40366
L38603 40366
" />
<path d="M44893 40421
L38606 40421
" />
<path d="M44889 40476
L38610 40476
" />
<path d="M44884 40531
L38615 40531
" />
<path d="M44879 40586
L38620 40586
" />
<path d="M44872 40641
L38627 40641
" />
<path d="M44864 40696
L38635 40696
" />
<path d="M44855 40751
L38644 40751
" />
<path d="M44845 40807
L38654 40807
" />
<path d="M44834 40862
L38665 40862
" />
<path d="M44822 40917
L38677 40917
" />
<path d="M44809 40972
L38690 40972
" />
<path d="M44796 41027
L38703 41027
" />
<path d="M44781 41082
L38718 41082
" />
<path d="M44764 41137
L38735 41137
" />
<path d="M44747 41192
L38752 41192
" />
<path d="M44729 41248
L38770 41248
" />
<path d="M44709 41303
L38790 41303
" />
<path d="M44689 41358
L41940 41358
" />
<path d="M41559 41358
L38810 41358
" />
<path d="M44667 41413
L42016 41413
" />
<path d="M41483 41413
L38832 41413
" />
<path d="M44644 41468
L42066 41468
" />
<path d="M41433 41468
L38855 41468
" />
<path d="M44620 41523
L42100 41523
" />
<path d="M41399 41523
L38879 41523
" />
<path d="M44594 41578
L42123 41578
" />
<path d="M41376 41578
L38905 41578
" />
<path d="M44567 41633
L42137 41633
" />
<path d="M41362 41633
L38932 41633
" />
<path d="M44539 41688
L42143 41688
" />
<path d="M41356 41688
L38960 41688
" />
<path d="M44509 41744
L42141 41744
" />
<path d="M41358 41744
L38990 41744
" />
<path d="M44478 41799
L42131 41799
" />
<path d="M41368 41799
L39021 41799
" />
<path d="M44446 41854
L42113 41854
" />
<path d="M41386 41854
L39053 41854
" />
<path d="M44412 41909
L42085 41909
" />
<path d="M41414 41909
L39087 41909
" />
<path d="M44376 41964
L42044 41964
" />
<path d="M41455 41964
L39123 41964
" />
<path d="M44339 42019
L41983 42019
" />
<path d="M41516 42019
L39160 42019
" />
<path d="M44300 42074
L41878 42074
" />
<path d="M41621 42074
L39200 42074
" />
<path d="M44259 42129
L39240 42129
" />
<path d="M44216 42185
L39283 42185
" />
<path d="M44171 42240
L39328 42240
" />
<path d="M44124 42295
L39375 42295
" />
<path d="M44075 42350
L39424 42350
" />
<path d="M44024 42405
L39475 42405
" />
<path d="M43970 42460
L39529 42460
" />
<path d="M43912 42515
L39587 42515
" />
<path d="M43853 42570
L39646 42570
" />
<path d="M43790 42625
L39709 42625
" />
<path d="M43723 42681
L39776 42681
" />
<path d="M43652 42736
L39847 42736
" />
<path d="M43577 42791
L39922 42791
" />
<path d="M43498 42846
L40001 42846
" />
<path d="M43412 42901
L40087 42901
" />
<path d="M43320 42956
L40179 42956
" />
<path d="M43220 43011
L40279 43011
" />
<path d="M43110 43066
L40389 43066
" />
<path d="M42988 43122
L40511 43122
" />
<path d="M42851 43177
L40648 43177
" />
<path d="M42690 43232
L40809 43232
" />
<path d="M42491 43287
L41008 43287
" />
<path d="M42207 43342
L41292 43342
" />
<circle cx="41750" cy="41702.8" r="393.701" /> 
<circle cx="41750" cy="40226.4" r="3164.37" /> 
<path d="M44899 54255
L38600 54255
" />
<path d="M44898 54311
L38601 54311
" />
<path d="M44896 54366
L38603 54366
" />
<path d="M44893 54421
L38606 54421
" />
<path d="M44889 54476
L38610 54476
" />
<path d="M44884 54531
L38615 54531
" />
<path d="M44879 54586
L38620 54586
" />
<path d="M44872 54641
L38627 54641
" />
<path d="M44864 54696
L38635 54696
" />
<path d="M44855 54751
L38644 54751
" />
<path d="M44845 54807
L38654 54807
" />
<path d="M44834 54862
L38665 54862
" />
<path d="M44822 54917
L38677 54917
" />
<path d="M44809 54972
L38690 54972
" />
<path d="M44796 55027
L38703 55027
" />
<path d="M44781 55082
L38718 55082
" />
<path d="M44764 55137
L38735 55137
" />
<path d="M44747 55192
L38752 55192
" />
<path d="M44729 55248
L38770 55248
" />
<path d="M44709 55303
L38790 55303
" />
<path d="M44689 55358
L41940 55358
" />
<path d="M41559 55358
L38810 55358
" />
<path d="M44667 55413
L42016 55413
" />
<path d="M41483 55413
L38832 55413
" />
<path d="M44644 55468
L42066 55468
" />
<path d="M41433 55468
L38855 55468
" />
<path d="M44620 55523
L42100 55523
" />
<path d="M41399 55523
L38879 55523
" />
<path d="M44594 55578
L42123 55578
" />
<path d="M41376 55578
L38905 55578
" />
<path d="M44567 55633
L42137 55633
" />
<path d="M41362 55633
L38932 55633
" />
<path d="M44539 55688
L42143 55688
" />
<path d="M41356 55688
L38960 55688
" />
<path d="M44509 55744
L42141 55744
" />
<path d="M41358 55744
L38990 55744
" />
<path d="M44478 55799
L42131 55799
" />
<path d="M41368 55799
L39021 55799
" />
<path d="M44446 55854
L42113 55854
" />
<path d="M41386 55854
L39053 55854
" />
<path d="M44412 55909
L42085 55909
" />
<path d="M41414 55909
L39087 55909
" />
<path d="M44376 55964
L42044 55964
" />
<path d="M41455 55964
L39123 55964
" />
<path d="M44339 56019
L41983 56019
" />
<path d="M41516 56019
L39160 56019
" />
<path d="M44300 56074
L41878 56074
" />
<path d="M41621 56074
L39200 56074
" />
<path d="M44259 56129
L39240 56129
" />
<path d="M44216 56185
L39283 56185
" />
<path d="M44171 56240
L39328 56240
" />
<path d="M44124 56295
L39375 56295
" />
<path d="M44075 56350
L39424 56350
" />
<path d="M44024 56405
L39475 56405
" />
<path d="M43970 56460
L39529 56460
" />
<path d="M43912 56515
L39587 56515
" />
<path d="M43853 56570
L39646 56570
" />
<path d="M43790 56625
L39709 56625
" />
<path d="M43723 56681
L39776 56681
" />
<path d="M43652 56736
L39847 56736
" />
<path d="M43577 56791
L39922 56791
" />
<path d="M43498 56846
L40001 56846
" />
<path d="M43412 56901
L40087 56901
" />
<path d="M43320 56956
L40179 56956
" />
<path d="M43220 57011
L40279 57011
" />
<path d="M43110 57066
L40389 57066
" />
<path d="M42988 57122
L40511 57122
" />
<path d="M42851 57177
L40648 57177
" />
<path d="M42690 57232
L40809 57232
" />
<path d="M42491 57287
L41008 57287
" />
<path d="M42207 57342
L41292 57342
" />
<circle cx="41750" cy="55702.8" r="393.701" /> 
<circle cx="41750" cy="54226.4" r="3164.37" /> 
<path d="M51649 40255
L45350 40255
" />
<path d="M51648 40311
L45351 40311
" />
<path d="M51646 40366
L45353 40366
" />
<path d="M51643 40421
L45356 40421
" />
<path d="M51639 40476
L45360 40476
" />
<path d="M51634 40531
L45365 40531
" />
<path d="M51629 40586
L45370 40586
" />
<path d="M51622 40641
L45377 40641
" />
<path d="M51614 40696
L45385 40696
" />
<path d="M51605 40751
L45394 40751
" />
<path d="M51595 40807
L45404 40807
" />
<path d="M51584 40862
L45415 40862
" />
<path d="M51572 40917
L45427 40917
" />
<path d="M51559 40972
L45440 40972
" />
<path d="M51546 41027
L45453 41027
" />
<path d="M51531 41082
L45468 41082
" />
<path d="M51514 41137
L45485 41137
" />
<path d="M51497 41192
L45502 41192
" />
<path d="M51479 41248
L45520 41248
" />
<path d="M51459 41303
L45540 41303
" />
<path d="M51439 41358
L48690 41358
" />
<path d="M48309 41358
L45560 41358
" />
<path d="M51417 41413
L48766 41413
" />
<path d="M48233 41413
L45582 41413
" />
<path d="M51394 41468
L48816 41468
" />
<path d="M48183 41468
L45605 41468
" />
<path d="M51370 41523
L48850 41523
" />
<path d="M48149 41523
L45629 41523
" />
<path d="M51344 41578
L48873 41578
" />
<path d="M48126 41578
L45655 41578
" />
<path d="M51317 41633
L48887 41633
" />
<path d="M48112 41633
L45682 41633
" />
<path d="M51289 41688
L48893 41688
" />
<path d="M48106 41688
L45710 41688
" />
<path d="M51259 41744
L48891 41744
" />
<path d="M48108 41744
L45740 41744
" />
<path d="M51228 41799
L48881 41799
" />
<path d="M48118 41799
L45771 41799
" />
<path d="M51196 41854
L48863 41854
" />
<path d="M48136 41854
L45803 41854
" />
<path d="M51162 41909
L48835 41909
" />
<path d="M48164 41909
L45837 41909
" />
<path d="M51126 41964
L48794 41964
" />
<path d="M48205 41964
L45873 41964
" />
<path d="M51089 42019
L48733 42019
" />
<path d="M48266 42019
L45910 42019
" />
<path d="M51050 42074
L48628 42074
" />
<path d="M48371 42074
L45950 42074
" />
<path d="M51009 42129
L45990 42129
" />
<path d="M50966 42185
L46033 42185
" />
<path d="M50921 42240
L46078 42240
" />
<path d="M50874 42295
L46125 42295
" />
<path d="M50825 42350
L46174 42350
" />
<path d="M50774 42405
L46225 42405
" />
<path d="M50720 42460
L46279 42460
" />
<path d="M50662 42515
L46337 42515
" />
<path d="M50603 42570
L46396 42570
" />
<path d="M50540 42625
L46459 42625
" />
<path d="M50473 42681
L46526 42681
" />
<path d="M50402 42736
L46597 42736
" />
<path d="M50327 42791
L46672 42791
" />
<path d="M50248 42846
L46751 42846
" />
<path d="M50162 42901
L46837 42901
" />
<path d="M50070 42956
L46929 42956
" />
<path d="M49970 43011
L47029 43011
" />
<path d="M49860 43066
L47139 43066
" />
<path d="M49738 43122
L47261 43122
" />
<path d="M49601 43177
L47398 43177
" />
<path d="M49440 43232
L47559 43232
" />
<path d="M49241 43287
L47758 43287
" />
<path d="M48957 43342
L48042 43342
" />
<circle cx="48500" cy="41702.8" r="393.701" /> 
<circle cx="48500" cy="40226.4" r="3164.37" /> 
<path d="M51649 54255
L45350 54255
" />
<path d="M51648 54311
L45351 54311
" />
<path d="M51646 54366
L45353 54366
" />
<path d="M51643 54421
L45356 54421
" />
<path d="M51639 54476
L45360 54476
" />
<path d="M51634 54531
L45365 54531
" />
<path d="M51629 54586
L45370 54586
" />
<path d="M51622 54641
L45377 54641
" />
<path d="M51614 54696
L45385 54696
" />
<path d="M51605 54751
L45394 54751
" />
<path d="M51595 54807
L45404 54807
" />
<path d="M51584 54862
L45415 54862
" />
<path d="M51572 54917
L45427 54917
" />
<path d="M51559 54972
L45440 54972
" />
<path d="M51546 55027
L45453 55027
" />
<path d="M51531 55082
L45468 55082
" />
<path d="M51514 55137
L45485 55137
" />
<path d="M51497 55192
L45502 55192
" />
<path d="M51479 55248
L45520 55248
" />
<path d="M51459 55303
L45540 55303
" />
<path d="M51439 55358
L48690 55358
" />
<path d="M48309 55358
L45560 55358
" />
<path d="M51417 55413
L48766 55413
" />
<path d="M48233 55413
L45582 55413
" />
<path d="M51394 55468
L48816 55468
" />
<path d="M48183 55468
L45605 55468
" />
<path d="M51370 55523
L48850 55523
" />
<path d="M48149 55523
L45629 55523
" />
<path d="M51344 55578
L48873 55578
" />
<path d="M48126 55578
L45655 55578
" />
<path d="M51317 55633
L48887 55633
" />
<path d="M48112 55633
L45682 55633
" />
<path d="M51289 55688
L48893 55688
" />
<path d="M48106 55688
L45710 55688
" />
<path d="M51259 55744
L48891 55744
" />
<path d="M48108 55744
L45740 55744
" />
<path d="M51228 55799
L48881 55799
" />
<path d="M48118 55799
L45771 55799
" />
<path d="M51196 55854
L48863 55854
" />
<path d="M48136 55854
L45803 55854
" />
<path d="M51162 55909
L48835 55909
" />
<path d="M48164 55909
L45837 55909
" />
<path d="M51126 55964
L48794 55964
" />
<path d="M48205 55964
L45873 55964
" />
<path d="M51089 56019
L48733 56019
" />
<path d="M48266 56019
L45910 56019
" />
<path d="M51050 56074
L48628 56074
" />
<path d="M48371 56074
L45950 56074
" />
<path d="M51009 56129
L45990 56129
" />
<path d="M50966 56185
L46033 56185
" />
<path d="M50921 56240
L46078 56240
" />
<path d="M50874 56295
L46125 56295
" />
<path d="M50825 56350
L46174 56350
" />
<path d="M50774 56405
L46225 56405
" />
<path d="M50720 56460
L46279 56460
" />
<path d="M50662 56515
L46337 56515
" />
<path d="M50603 56570
L46396 56570
" />
<path d="M50540 56625
L46459 56625
" />
<path d="M50473 56681
L46526 56681
" />
<path d="M50402 56736
L46597 56736
" />
<path d="M50327 56791
L46672 56791
" />
<path d="M50248 56846
L46751 56846
" />
<path d="M50162 56901
L46837 56901
" />
<path d="M50070 56956
L46929 56956
" />
<path d="M49970 57011
L47029 57011
" />
<path d="M49860 57066
L47139 57066
" />
<path d="M49738 57122
L47261 57122
" />
<path d="M49601 57177
L47398 57177
" />
<path d="M49440 57232
L47559 57232
" />
<path d="M49241 57287
L47758 57287
" />
<path d="M48957 57342
L48042 57342
" />
<circle cx="48500" cy="55702.8" r="393.701" /> 
<circle cx="48500" cy="54226.4" r="3164.37" /> 
<path d="M58399 40255
L52100 40255
" />
<path d="M58398 40311
L52101 40311
" />
<path d="M58396 40366
L52103 40366
" />
<path d="M58393 40421
L52106 40421
" />
<path d="M58389 40476
L52110 40476
" />
<path d="M58384 40531
L52115 40531
" />
<path d="M58379 40586
L52120 40586
" />
<path d="M58372 40641
L52127 40641
" />
<path d="M58364 40696
L52135 40696
" />
<path d="M58355 40751
L52144 40751
" />
<path d="M58345 40807
L52154 40807
" />
<path d="M58334 40862
L52165 40862
" />
<path d="M58322 40917
L52177 40917
" />
<path d="M58309 40972
L52190 40972
" />
<path d="M58296 41027
L52203 41027
" />
<path d="M58281 41082
L52218 41082
" />
<path d="M58264 41137
L52235 41137
" />
<path d="M58247 41192
L52252 41192
" />
<path d="M58229 41248
L52270 41248
" />
<path d="M58209 41303
L52290 41303
" />
<path d="M58189 41358
L55440 41358
" />
<path d="M55059 41358
L52310 41358
" />
<path d="M58167 41413
L55516 41413
" />
<path d="M54983 41413
L52332 41413
" />
<path d="M58144 41468
L55566 41468
" />
<path d="M54933 41468
L52355 41468
" />
<path d="M58120 41523
L55600 41523
" />
<path d="M54899 41523
L52379 41523
" />
<path d="M58094 41578
L55623 41578
" />
<path d="M54876 41578
L52405 41578
" />
<path d="M58067 41633
L55637 41633
" />
<path d="M54862 41633
L52432 41633
" />
<path d="M58039 41688
L55643 41688
" />
<path d="M54856 41688
L52460 41688
" />
<path d="M58009 41744
L55641 41744
" />
<path d="M54858 41744
L52490 41744
" />
<path d="M57978 41799
L55631 41799
" />
<path d="M54868 41799
L52521 41799
" />
<path d="M57946 41854
L55613 41854
" />
<path d="M54886 41854
L52553 41854
" />
<path d="M57912 41909
L55585 41909
" />
<path d="M54914 41909
L52587 41909
" />
<path d="M57876 41964
L55544 41964
" />
<path d="M54955 41964
L52623 41964
" />
<path d="M57839 42019
L55483 42019
" />
<path d="M55016 42019
L52660 42019
" />
<path d="M57800 42074
L55378 42074
" />
<path d="M55121 42074
L52700 42074
" />
<path d="M57759 42129
L52740 42129
" />
<path d="M57716 42185
L52783 42185
" />
<path d="M57671 42240
L52828 42240
" />
<path d="M57624 42295
L52875 42295
" />
<path d="M57575 42350
L52924 42350
" />
<path d="M57524 42405
L52975 42405
" />
<path d="M57470 42460
L53029 42460
" />
<path d="M57412 42515
L53087 42515
" />
<path d="M57353 42570
L53146 42570
" />
<path d="M57290 42625
L53209 42625
" />
<path d="M57223 42681
L53276 42681
" />
<path d="M57152 42736
L53347 42736
" />
<path d="M57077 42791
L53422 42791
" />
<path d="M56998 42846
L53501 42846
" />
<path d="M56912 42901
L53587 42901
" />
<path d="M56820 42956
L53679 42956
" />
<path d="M56720 43011
L53779 43011
" />
<path d="M56610 43066
L53889 43066
" />
<path d="M56488 43122
L54011 43122
" />
<path d="M56351 43177
L54148 43177
" />
<path d="M56190 43232
L54309 43232
" />
<path d="M55991 43287
L54508 43287
" />
<path d="M55707 43342
L54792 43342
" />
<circle cx="55250" cy="41702.8" r="393.701" /> 
<circle cx="55250" cy="40226.4" r="3164.37" /> 
<path d="M58399 54255
L52100 54255
" />
<path d="M58398 54311
L52101 54311
" />
<path d="M58396 54366
L52103 54366
" />
<path d="M58393 54421
L52106 54421
" />
<path d="M58389 54476
L52110 54476
" />
<path d="M58384 54531
L52115 54531
" />
<path d="M58379 54586
L52120 54586
" />
<path d="M58372 54641
L52127 54641
" />
<path d="M58364 54696
L52135 54696
" />
<path d="M58355 54751
L52144 54751
" />
<path d="M58345 54807
L52154 54807
" />
<path d="M58334 54862
L52165 54862
" />
<path d="M58322 54917
L52177 54917
" />
<path d="M58309 54972
L52190 54972
" />
<path d="M58296 55027
L52203 55027
" />
<path d="M58281 55082
L52218 55082
" />
<path d="M58264 55137
L52235 55137
" />
<path d="M58247 55192
L52252 55192
" />
<path d="M58229 55248
L52270 55248
" />
<path d="M58209 55303
L52290 55303
" />
<path d="M58189 55358
L55440 55358
" />
<path d="M55059 55358
L52310 55358
" />
<path d="M58167 55413
L55516 55413
" />
<path d="M54983 55413
L52332 55413
" />
<path d="M58144 55468
L55566 55468
" />
<path d="M54933 55468
L52355 55468
" />
<path d="M58120 55523
L55600 55523
" />
<path d="M54899 55523
L52379 55523
" />
<path d="M58094 55578
L55623 55578
" />
<path d="M54876 55578
L52405 55578
" />
<path d="M58067 55633
L55637 55633
" />
<path d="M54862 55633
L52432 55633
" />
<path d="M58039 55688
L55643 55688
" />
<path d="M54856 55688
L52460 55688
" />
<path d="M58009 55744
L55641 55744
" />
<path d="M54858 55744
L52490 55744
" />
<path d="M57978 55799
L55631 55799
" />
<path d="M54868 55799
L52521 55799
" />
<path d="M57946 55854
L55613 55854
" />
<path d="M54886 55854
L52553 55854
" />
<path d="M57912 55909
L55585 55909
" />
<path d="M54914 55909
L52587 55909
" />
<path d="M57876 55964
L55544 55964
" />
<path d="M54955 55964
L52623 55964
" />
<path d="M57839 56019
L55483 56019
" />
<path d="M55016 56019
L52660 56019
" />
<path d="M57800 56074
L55378 56074
" />
<path d="M55121 56074
L52700 56074
" />
<path d="M57759 56129
L52740 56129
" />
<path d="M57716 56185
L52783 56185
" />
<path d="M57671 56240
L52828 56240
" />
<path d="M57624 56295
L52875 56295
" />
<path d="M57575 56350
L52924 56350
" />
<path d="M57524 56405
L52975 56405
" />
<path d="M57470 56460
L53029 56460
" />
<path d="M57412 56515
L53087 56515
" />
<path d="M57353 56570
L53146 56570
" />
<path d="M57290 56625
L53209 56625
" />
<path d="M57223 56681
L53276 56681
" />
<path d="M57152 56736
L53347 56736
" />
<path d="M57077 56791
L53422 56791
" />
<path d="M56998 56846
L53501 56846
" />
<path d="M56912 56901
L53587 56901
" />
<path d="M56820 56956
L53679 56956
" />
<path d="M56720 57011
L53779 57011
" />
<path d="M56610 57066
L53889 57066
" />
<path d="M56488 57122
L54011 57122
" />
<path d="M56351 57177
L54148 57177
" />
<path d="M56190 57232
L54309 57232
" />
<path d="M55991 57287
L54508 57287
" />
<path d="M55707 57342
L54792 57342
" />
<circle cx="55250" cy="55702.8" r="393.701" /> 
<circle cx="55250" cy="54226.4" r="3164.37" /> 
<path d="M65149 40255
L58850 40255
" />
<path d="M65148 40311
L58851 40311
" />
<path d="M65146 40366
L58853 40366
" />
<path d="M65143 40421
L58856 40421
" />
<path d="M65139 40476
L58860 40476
" />
<path d="M65134 40531
L58865 40531
" />
<path d="M65129 40586
L58870 40586
" />
<path d="M65122 40641
L58877 40641
" />
<path d="M65114 40696
L58885 40696
" />
<path d="M65105 40751
L58894 40751
" />
<path d="M65095 40807
L58904 40807
" />
<path d="M65084 40862
L58915 40862
" />
<path d="M65072 40917
L58927 40917
" />
<path d="M65059 40972
L58940 40972
" />
<path d="M65046 41027
L58953 41027
" />
<path d="M65031 41082
L58968 41082
" />
<path d="M65014 41137
L58985 41137
" />
<path d="M64997 41192
L59002 41192
" />
<path d="M64979 41248
L59020 41248
" />
<path d="M64959 41303
L59040 41303
" />
<path d="M64939 41358
L62190 41358
" />
<path d="M61809 41358
L59060 41358
" />
<path d="M64917 41413
L62266 41413
" />
<path d="M61733 41413
L59082 41413
" />
<path d="M64894 41468
L62316 41468
" />
<path d="M61683 41468
L59105 41468
" />
<path d="M64870 41523
L62350 41523
" />
<path d="M61649 41523
L59129 41523
" />
<path d="M64844 41578
L62373 41578
" />
<path d="M61626 41578
L59155 41578
" />
<path d="M64817 41633
L62387 41633
" />
<path d="M61612 41633
L59182 41633
" />
<path d="M64789 41688
L62393 41688
" />
<path d="M61606 41688
L59210 41688
" />
<path d="M64759 41744
L62391 41744
" />
<path d="M61608 41744
L59240 41744
" />
<path d="M64728 41799
L62381 41799
" />
<path d="M61618 41799
L59271 41799
" />
<path d="M64696 41854
L62363 41854
" />
<path d="M61636 41854
L59303 41854
" />
<path d="M64662 41909
L62335 41909
" />
<path d="M61664 41909
L59337 41909
" />
<path d="M64626 41964
L62294 41964
" />
<path d="M61705 41964
L59373 41964
" />
<path d="M64589 42019
L62233 42019
" />
<path d="M61766 42019
L59410 42019
" />
<path d="M64550 42074
L62128 42074
" />
<path d="M61871 42074
L59450 42074
" />
<path d="M64509 42129
L59490 42129
" />
<path d="M64466 42185
L59533 42185
" />
<path d="M64421 42240
L59578 42240
" />
<path d="M64374 42295
L59625 42295
" />
<path d="M64325 42350
L59674 42350
" />
<path d="M64274 42405
L59725 42405
" />
<path d="M64220 42460
L59779 42460
" />
<path d="M64162 42515
L59837 42515
" />
<path d="M64103 42570
L59896 42570
" />
<path d="M64040 42625
L59959 42625
" />
<path d="M63973 42681
L60026 42681
" />
<path d="M63902 42736
L60097 42736
" />
<path d="M63827 42791
L60172 42791
" />
<path d="M63748 42846
L60251 42846
" />
<path d="M63662 42901
L60337 42901
" />
<path d="M63570 42956
L60429 42956
" />
<path d="M63470 43011
L60529 43011
" />
<path d="M63360 43066
L60639 43066
" />
<path d="M63238 43122
L60761 43122
" />
<path d="M63101 43177
L60898 43177
" />
<path d="M62940 43232
L61059 43232
" />
<path d="M62741 43287
L61258 43287
" />
<path d="M62457 43342
L61542 43342
" />
<circle cx="62000" cy="41702.8" r="393.701" /> 
<circle cx="62000" cy="40226.4" r="3164.37" /> 
<path d="M65149 54255
L58850 54255
" />
<path d="M65148 54311
L58851 54311
" />
<path d="M65146 54366
L58853 54366
" />
<path d="M65143 54421
L58856 54421
" />
<path d="M65139 54476
L58860 54476
" />
<path d="M65134 54531
L58865 54531
" />
<path d="M65129 54586
L58870 54586
" />
<path d="M65122 54641
L58877 54641
" />
<path d="M65114 54696
L58885 54696
" />
<path d="M65105 54751
L58894 54751
" />
<path d="M65095 54807
L58904 54807
" />
<path d="M65084 54862
L58915 54862
" />
<path d="M65072 54917
L58927 54917
" />
<path d="M65059 54972
L58940 54972
" />
<path d="M65046 55027
L58953 55027
" />
<path d="M65031 55082
L58968 55082
" />
<path d="M65014 55137
L58985 55137
" />
<path d="M64997 55192
L59002 55192
" />
<path d="M64979 55248
L59020 55248
" />
<path d="M64959 55303
L59040 55303
" />
<path d="M64939 55358
L62190 55358
" />
<path d="M61809 55358
L59060 55358
" />
<path d="M64917 55413
L62266 55413
" />
<path d="M61733 55413
L59082 55413
" />
<path d="M64894 55468
L62316 55468
" />
<path d="M61683 55468
L59105 55468
" />
<path d="M64870 55523
L62350 55523
" />
<path d="M61649 55523
L59129 55523
" />
<path d="M64844 55578
L62373 55578
" />
<path d="M61626 55578
L59155 55578
" />
<path d="M64817 55633
L62387 55633
" />
<path d="M61612 55633
L59182 55633
" />
<path d="M64789 55688
L62393 55688
" />
<path d="M61606 55688
L59210 55688
" />
<path d="M64759 55744
L62391 55744
" />
<path d="M61608 55744
L59240 55744
" />
<path d="M64728 55799
L62381 55799
" />
<path d="M61618 55799
L59271 55799
" />
<path d="M64696 55854
L62363 55854
" />
<path d="M61636 55854
L59303 55854
" />
<path d="M64662 55909
L62335 55909
" />
<path d="M61664 55909
L59337 55909
" />
<path d="M64626 55964
L62294 55964
" />
<path d="M61705 55964
L59373 55964
" />
<path d="M64589 56019
L62233 56019
" />
<path d="M61766 56019
L59410 56019
" />
<path d="M64550 56074
L62128 56074
" />
<path d="M61871 56074
L59450 56074
" />
<path d="M64509 56129
L59490 56129
" />
<path d="M64466 56185
L59533 56185
" />
<path d="M64421 56240
L59578 56240
" />
<path d="M64374 56295
L59625 56295
" />
<path d="M64325 56350
L59674 56350
" />
<path d="M64274 56405
L59725 56405
" />
<path d="M64220 56460
L59779 56460
" />
<path d="M64162 56515
L59837 56515
" />
<path d="M64103 56570
L59896 56570
" />
<path d="M64040 56625
L59959 56625
" />
<path d="M63973 56681
L60026 56681
" />
<path d="M63902 56736
L60097 56736
" />
<path d="M63827 56791
L60172 56791
" />
<path d="M63748 56846
L60251 56846
" />
<path d="M63662 56901
L60337 56901
" />
<path d="M63570 56956
L60429 56956
" />
<path d="M63470 57011
L60529 57011
" />
<path d="M63360 57066
L60639 57066
" />
<path d="M63238 57122
L60761 57122
" />
<path d="M63101 57177
L60898 57177
" />
<path d="M62940 57232
L61059 57232
" />
<path d="M62741 57287
L61258 57287
" />
<path d="M62457 57342
L61542 57342
" />
<circle cx="62000" cy="55702.8" r="393.701" /> 
<circle cx="62000" cy="54226.4" r="3164.37" /> 
<path d="M71899 40255
L65600 40255
" />
<path d="M71898 40311
L65601 40311
" />
<path d="M71896 40366
L65603 40366
" />
<path d="M71893 40421
L65606 40421
" />
<path d="M71889 40476
L65610 40476
" />
<path d="M71884 40531
L65615 40531
" />
<path d="M71879 40586
L65620 40586
" />
<path d="M71872 40641
L65627 40641
" />
<path d="M71864 40696
L65635 40696
" />
<path d="M71855 40751
L65644 40751
" />
<path d="M71845 40807
L65654 40807
" />
<path d="M71834 40862
L65665 40862
" />
<path d="M71822 40917
L65677 40917
" />
<path d="M71809 40972
L65690 40972
" />
<path d="M71796 41027
L65703 41027
" />
<path d="M71781 41082
L65718 41082
" />
<path d="M71764 41137
L65735 41137
" />
<path d="M71747 41192
L65752 41192
" />
<path d="M71729 41248
L65770 41248
" />
<path d="M71709 41303
L65790 41303
" />
<path d="M71689 41358
L68940 41358
" />
<path d="M68559 41358
L65810 41358
" />
<path d="M71667 41413
L69016 41413
" />
<path d="M68483 41413
L65832 41413
" />
<path d="M71644 41468
L69066 41468
" />
<path d="M68433 41468
L65855 41468
" />
<path d="M71620 41523
L69100 41523
" />
<path d="M68399 41523
L65879 41523
" />
<path d="M71594 41578
L69123 41578
" />
<path d="M68376 41578
L65905 41578
" />
<path d="M71567 41633
L69137 41633
" />
<path d="M68362 41633
L65932 41633
" />
<path d="M71539 41688
L69143 41688
" />
<path d="M68356 41688
L65960 41688
" />
<path d="M71509 41744
L69141 41744
" />
<path d="M68358 41744
L65990 41744
" />
<path d="M71478 41799
L69131 41799
" />
<path d="M68368 41799
L66021 41799
" />
<path d="M71446 41854
L69113 41854
" />
<path d="M68386 41854
L66053 41854
" />
<path d="M71412 41909
L69085 41909
" />
<path d="M68414 41909
L66087 41909
" />
<path d="M71376 41964
L69044 41964
" />
<path d="M68455 41964
L66123 41964
" />
<path d="M71339 42019
L68983 42019
" />
<path d="M68516 42019
L66160 42019
" />
<path d="M71300 42074
L68878 42074
" />
<path d="M68621 42074
L66200 42074
" />
<path d="M71259 42129
L66240 42129
" />
<path d="M71216 42185
L66283 42185
" />
<path d="M71171 42240
L66328 42240
" />
<path d="M71124 42295
L66375 42295
" />
<path d="M71075 42350
L66424 42350
" />
<path d="M71024 42405
L66475 42405
" />
<path d="M70970 42460
L66529 42460
" />
<path d="M70912 42515
L66587 42515
" />
<path d="M70853 42570
L66646 42570
" />
<path d="M70790 42625
L66709 42625
" />
<path d="M70723 42681
L66776 42681
" />
<path d="M70652 42736
L66847 42736
" />
<path d="M70577 42791
L66922 42791
" />
<path d="M70498 42846
L67001 42846
" />
<path d="M70412 42901
L67087 42901
" />
<path d="M70320 42956
L67179 42956
" />
<path d="M70220 43011
L67279 43011
" />
<path d="M70110 43066
L67389 43066
" />
<path d="M69988 43122
L67511 43122
" />
<path d="M69851 43177
L67648 43177
" />
<path d="M69690 43232
L67809 43232
" />
<path d="M69491 43287
L68008 43287
" />
<path d="M69207 43342
L68292 43342
" />
<circle cx="68750" cy="41702.8" r="393.701" /> 
<circle cx="68750" cy="40226.4" r="3164.37" /> 
<path d="M71899 54255
L65600 54255
" />
<path d="M71898 54311
L65601 54311
" />
<path d="M71896 54366
L65603 54366
" />
<path d="M71893 54421
L65606 54421
" />
<path d="M71889 54476
L65610 54476
" />
<path d="M71884 54531
L65615 54531
" />
<path d="M71879 54586
L65620 54586
" />
<path d="M71872 54641
L65627 54641
" />
<path d="M71864 54696
L65635 54696
" />
<path d="M71855 54751
L65644 54751
" />
<path d="M71845 54807
L65654 54807
" />
<path d="M71834 54862
L65665 54862
" />
<path d="M71822 54917
L65677 54917
" />
<path d="M71809 54972
L65690 54972
" />
<path d="M71796 55027
L65703 55027
" />
<path d="M71781 55082
L65718 55082
" />
<path d="M71764 55137
L65735 55137
" />
<path d="M71747 55192
L65752 55192
" />
<path d="M71729 55248
L65770 55248
" />
<path d="M71709 55303
L65790 55303
" />
<path d="M71689 55358
L68940 55358
" />
<path d="M68559 55358
L65810 55358
" />
<path d="M71667 55413
L69016 55413
" />
<path d="M68483 55413
L65832 55413
" />
<path d="M71644 55468
L69066 55468
" />
<path d="M68433 55468
L65855 55468
" />
<path d="M71620 55523
L69100 55523
" />
<path d="M68399 55523
L65879 55523
" />
<path d="M71594 55578
L69123 55578
" />
<path d="M68376 55578
L65905 55578
" />
<path d="M71567 55633
L69137 55633
" />
<path d="M68362 55633
L65932 55633
" />
<path d="M71539 55688
L69143 55688
" />
<path d="M68356 55688
L65960 55688
" />
<path d="M71509 55744
L69141 55744
" />
<path d="M68358 55744
L65990 55744
" />
<path d="M71478 55799
L69131 55799
" />
<path d="M68368 55799
L66021 55799
" />
<path d="M71446 55854
L69113 55854
" />
<path d="M68386 55854
L66053 55854
" />
<path d="M71412 55909
L69085 55909
" />
<path d="M68414 55909
L66087 55909
" />
<path d="M71376 55964
L69044 55964
" />
<path d="M68455 55964
L66123 55964
" />
<path d="M71339 56019
L68983 56019
" />
<path d="M68516 56019
L66160 56019
" />
<path d="M71300 56074
L68878 56074
" />
<path d="M68621 56074
L66200 56074
" />
<path d="M71259 56129
L66240 56129
" />
<path d="M71216 56185
L66283 56185
" />
<path d="M71171 56240
L66328 56240
" />
<path d="M71124 56295
L66375 56295
" />
<path d="M71075 56350
L66424 56350
" />
<path d="M71024 56405
L66475 56405
" />
<path d="M70970 56460
L66529 56460
" />
<path d="M70912 56515
L66587 56515
" />
<path d="M70853 56570
L66646 56570
" />
<path d="M70790 56625
L66709 56625
" />
<path d="M70723 56681
L66776 56681
" />
<path d="M70652 56736
L66847 56736
" />
<path d="M70577 56791
L66922 56791
" />
<path d="M70498 56846
L67001 56846
" />
<path d="M70412 56901
L67087 56901
" />
<path d="M70320 56956
L67179 56956
" />
<path d="M70220 57011
L67279 57011
" />
<path d="M70110 57066
L67389 57066
" />
<path d="M69988 57122
L67511 57122
" />
<path d="M69851 57177
L67648 57177
" />
<path d="M69690 57232
L67809 57232
" />
<path d="M69491 57287
L68008 57287
" />
<path d="M69207 57342
L68292 57342
" />
<circle cx="68750" cy="55702.8" r="393.701" /> 
<circle cx="68750" cy="54226.4" r="3164.37" /> 
<path d="M44899 47255
L38600 47255
" />
<path d="M44898 47311
L38601 47311
" />
<path d="M44896 47366
L38603 47366
" />
<path d="M44893 47421
L38606 47421
" />
<path d="M44889 47476
L38610 47476
" />
<path d="M44884 47531
L38615 47531
" />
<path d="M44879 47586
L38620 47586
" />
<path d="M44872 47641
L38627 47641
" />
<path d="M44864 47696
L38635 47696
" />
<path d="M44855 47751
L38644 47751
" />
<path d="M44845 47807
L38654 47807
" />
<path d="M44834 47862
L38665 47862
" />
<path d="M44822 47917
L38677 47917
" />
<path d="M44809 47972
L38690 47972
" />
<path d="M44796 48027
L38703 48027
" />
<path d="M44781 48082
L38718 48082
" />
<path d="M44764 48137
L38735 48137
" />
<path d="M44747 48192
L38752 48192
" />
<path d="M44729 48248
L38770 48248
" />
<path d="M44709 48303
L38790 48303
" />
<path d="M44689 48358
L41940 48358
" />
<path d="M41559 48358
L38810 48358
" />
<path d="M44667 48413
L42016 48413
" />
<path d="M41483 48413
L38832 48413
" />
<path d="M44644 48468
L42066 48468
" />
<path d="M41433 48468
L38855 48468
" />
<path d="M44620 48523
L42100 48523
" />
<path d="M41399 48523
L38879 48523
" />
<path d="M44594 48578
L42123 48578
" />
<path d="M41376 48578
L38905 48578
" />
<path d="M44567 48633
L42137 48633
" />
<path d="M41362 48633
L38932 48633
" />
<path d="M44539 48688
L42143 48688
" />
<path d="M41356 48688
L38960 48688
" />
<path d="M44509 48744
L42141 48744
" />
<path d="M41358 48744
L38990 48744
" />
<path d="M44478 48799
L42131 48799
" />
<path d="M41368 48799
L39021 48799
" />
<path d="M44446 48854
L42113 48854
" />
<path d="M41386 48854
L39053 48854
" />
<path d="M44412 48909
L42085 48909
" />
<path d="M41414 48909
L39087 48909
" />
<path d="M44376 48964
L42044 48964
" />
<path d="M41455 48964
L39123 48964
" />
<path d="M44339 49019
L41983 49019
" />
<path d="M41516 49019
L39160 49019
" />
<path d="M44300 49074
L41878 49074
" />
<path d="M41621 49074
L39200 49074
" />
<path d="M44259 49129
L39240 49129
" />
<path d="M44216 49185
L39283 49185
" />
<path d="M44171 49240
L39328 49240
" />
<path d="M44124 49295
L39375 49295
" />
<path d="M44075 49350
L39424 49350
" />
<path d="M44024 49405
L39475 49405
" />
<path d="M43970 49460
L39529 49460
" />
<path d="M43912 49515
L39587 49515
" />
<path d="M43853 49570
L39646 49570
" />
<path d="M43790 49625
L39709 49625
" />
<path d="M43723 49681
L39776 49681
" />
<path d="M43652 49736
L39847 49736
" />
<path d="M43577 49791
L39922 49791
" />
<path d="M43498 49846
L40001 49846
" />
<path d="M43412 49901
L40087 49901
" />
<path d="M43320 49956
L40179 49956
" />
<path d="M43220 50011
L40279 50011
" />
<path d="M43110 50066
L40389 50066
" />
<path d="M42988 50122
L40511 50122
" />
<path d="M42851 50177
L40648 50177
" />
<path d="M42690 50232
L40809 50232
" />
<path d="M42491 50287
L41008 50287
" />
<path d="M42207 50342
L41292 50342
" />
<circle cx="41750" cy="48702.8" r="393.701" /> 
<circle cx="41750" cy="47226.4" r="3164.37" /> 
<path d="M44899 61255
L38600 61255
" />
<path d="M44898 61311
L38601 61311
" />
<path d="M44896 61366
L38603 61366
" />
<path d="M44893 61421
L38606 61421
" />
<path d="M44889 61476
L38610 61476
" />
<path d="M44884 61531
L38615 61531
" />
<path d="M44879 61586
L38620 61586
" />
<path d="M44872 61641
L38627 61641
" />
<path d="M44864 61696
L38635 61696
" />
<path d="M44855 61751
L38644 61751
" />
<path d="M44845 61807
L38654 61807
" />
<path d="M44834 61862
L38665 61862
" />
<path d="M44822 61917
L38677 61917
" />
<path d="M44809 61972
L38690 61972
" />
<path d="M44796 62027
L38703 62027
" />
<path d="M44781 62082
L38718 62082
" />
<path d="M44764 62137
L38735 62137
" />
<path d="M44747 62192
L38752 62192
" />
<path d="M44729 62248
L38770 62248
" />
<path d="M44709 62303
L38790 62303
" />
<path d="M44689 62358
L41940 62358
" />
<path d="M41559 62358
L38810 62358
" />
<path d="M44667 62413
L42016 62413
" />
<path d="M41483 62413
L38832 62413
" />
<path d="M44644 62468
L42066 62468
" />
<path d="M41433 62468
L38855 62468
" />
<path d="M44620 62523
L42100 62523
" />
<path d="M41399 62523
L38879 62523
" />
<path d="M44594 62578
L42123 62578
" />
<path d="M41376 62578
L38905 62578
" />
<path d="M44567 62633
L42137 62633
" />
<path d="M41362 62633
L38932 62633
" />
<path d="M44539 62688
L42143 62688
" />
<path d="M41356 62688
L38960 62688
" />
<path d="M44509 62744
L42141 62744
" />
<path d="M41358 62744
L38990 62744
" />
<path d="M44478 62799
L42131 62799
" />
<path d="M41368 62799
L39021 62799
" />
<path d="M44446 62854
L42113 62854
" />
<path d="M41386 62854
L39053 62854
" />
<path d="M44412 62909
L42085 62909
" />
<path d="M41414 62909
L39087 62909
" />
<path d="M44376 62964
L42044 62964
" />
<path d="M41455 62964
L39123 62964
" />
<path d="M44339 63019
L41983 63019
" />
<path d="M41516 63019
L39160 63019
" />
<path d="M44300 63074
L41878 63074
" />
<path d="M41621 63074
L39200 63074
" />
<path d="M44259 63129
L39240 63129
" />
<path d="M44216 63185
L39283 63185
" />
<path d="M44171 63240
L39328 63240
" />
<path d="M44124 63295
L39375 63295
" />
<path d="M44075 63350
L39424 63350
" />
<path d="M44024 63405
L39475 63405
" />
<path d="M43970 63460
L39529 63460
" />
<path d="M43912 63515
L39587 63515
" />
<path d="M43853 63570
L39646 63570
" />
<path d="M43790 63625
L39709 63625
" />
<path d="M43723 63681
L39776 63681
" />
<path d="M43652 63736
L39847 63736
" />
<path d="M43577 63791
L39922 63791
" />
<path d="M43498 63846
L40001 63846
" />
<path d="M43412 63901
L40087 63901
" />
<path d="M43320 63956
L40179 63956
" />
<path d="M43220 64011
L40279 64011
" />
<path d="M43110 64066
L40389 64066
" />
<path d="M42988 64122
L40511 64122
" />
<path d="M42851 64177
L40648 64177
" />
<path d="M42690 64232
L40809 64232
" />
<path d="M42491 64287
L41008 64287
" />
<path d="M42207 64342
L41292 64342
" />
<circle cx="41750" cy="62702.8" r="393.701" /> 
<circle cx="41750" cy="61226.4" r="3164.37" /> 
<path d="M51649 47255
L45350 47255
" />
<path d="M51648 47311
L45351 47311
" />
<path d="M51646 47366
L45353 47366
" />
<path d="M51643 47421
L45356 47421
" />
<path d="M51639 47476
L45360 47476
" />
<path d="M51634 47531
L45365 47531
" />
<path d="M51629 47586
L45370 47586
" />
<path d="M51622 47641
L45377 47641
" />
<path d="M51614 47696
L45385 47696
" />
<path d="M51605 47751
L45394 47751
" />
<path d="M51595 47807
L45404 47807
" />
<path d="M51584 47862
L45415 47862
" />
<path d="M51572 47917
L45427 47917
" />
<path d="M51559 47972
L45440 47972
" />
<path d="M51546 48027
L45453 48027
" />
<path d="M51531 48082
L45468 48082
" />
<path d="M51514 48137
L45485 48137
" />
<path d="M51497 48192
L45502 48192
" />
<path d="M51479 48248
L45520 48248
" />
<path d="M51459 48303
L45540 48303
" />
<path d="M51439 48358
L48690 48358
" />
<path d="M48309 48358
L45560 48358
" />
<path d="M51417 48413
L48766 48413
" />
<path d="M48233 48413
L45582 48413
" />
<path d="M51394 48468
L48816 48468
" />
<path d="M48183 48468
L45605 48468
" />
<path d="M51370 48523
L48850 48523
" />
<path d="M48149 48523
L45629 48523
" />
<path d="M51344 48578
L48873 48578
" />
<path d="M48126 48578
L45655 48578
" />
<path d="M51317 48633
L48887 48633
" />
<path d="M48112 48633
L45682 48633
" />
<path d="M51289 48688
L48893 48688
" />
<path d="M48106 48688
L45710 48688
" />
<path d="M51259 48744
L48891 48744
" />
<path d="M48108 48744
L45740 48744
" />
<path d="M51228 48799
L48881 48799
" />
<path d="M48118 48799
L45771 48799
" />
<path d="M51196 48854
L48863 48854
" />
<path d="M48136 48854
L45803 48854
" />
<path d="M51162 48909
L48835 48909
" />
<path d="M48164 48909
L45837 48909
" />
<path d="M51126 48964
L48794 48964
" />
<path d="M48205 48964
L45873 48964
" />
<path d="M51089 49019
L48733 49019
" />
<path d="M48266 49019
L45910 49019
" />
<path d="M51050 49074
L48628 49074
" />
<path d="M48371 49074
L45950 49074
" />
<path d="M51009 49129
L45990 49129
" />
<path d="M50966 49185
L46033 49185
" />
<path d="M50921 49240
L46078 49240
" />
<path d="M50874 49295
L46125 49295
" />
<path d="M50825 49350
L46174 49350
" />
<path d="M50774 49405
L46225 49405
" />
<path d="M50720 49460
L46279 49460
" />
<path d="M50662 49515
L46337 49515
" />
<path d="M50603 49570
L46396 49570
" />
<path d="M50540 49625
L46459 49625
" />
<path d="M50473 49681
L46526 49681
" />
<path d="M50402 49736
L46597 49736
" />
<path d="M50327 49791
L46672 49791
" />
<path d="M50248 49846
L46751 49846
" />
<path d="M50162 49901
L46837 49901
" />
<path d="M50070 49956
L46929 49956
" />
<path d="M49970 50011
L47029 50011
" />
<path d="M49860 50066
L47139 50066
" />
<path d="M49738 50122
L47261 50122
" />
<path d="M49601 50177
L47398 50177
" />
<path d="M49440 50232
L47559 50232
" />
<path d="M49241 50287
L47758 50287
" />
<path d="M48957 50342
L48042 50342
" />
<circle cx="48500" cy="48702.8" r="393.701" /> 
<circle cx="48500" cy="47226.4" r="3164.37" /> 
<path d="M51649 61255
L45350 61255
" />
<path d="M51648 61311
L45351 61311
" />
<path d="M51646 61366
L45353 61366
" />
<path d="M51643 61421
L45356 61421
" />
<path d="M51639 61476
L45360 61476
" />
<path d="M51634 61531
L45365 61531
" />
<path d="M51629 61586
L45370 61586
" />
<path d="M51622 61641
L45377 61641
" />
<path d="M51614 61696
L45385 61696
" />
<path d="M51605 61751
L45394 61751
" />
<path d="M51595 61807
L45404 61807
" />
<path d="M51584 61862
L45415 61862
" />
<path d="M51572 61917
L45427 61917
" />
<path d="M51559 61972
L45440 61972
" />
<path d="M51546 62027
L45453 62027
" />
<path d="M51531 62082
L45468 62082
" />
<path d="M51514 62137
L45485 62137
" />
<path d="M51497 62192
L45502 62192
" />
<path d="M51479 62248
L45520 62248
" />
<path d="M51459 62303
L45540 62303
" />
<path d="M51439 62358
L48690 62358
" />
<path d="M48309 62358
L45560 62358
" />
<path d="M51417 62413
L48766 62413
" />
<path d="M48233 62413
L45582 62413
" />
<path d="M51394 62468
L48816 62468
" />
<path d="M48183 62468
L45605 62468
" />
<path d="M51370 62523
L48850 62523
" />
<path d="M48149 62523
L45629 62523
" />
<path d="M51344 62578
L48873 62578
" />
<path d="M48126 62578
L45655 62578
" />
<path d="M51317 62633
L48887 62633
" />
<path d="M48112 62633
L45682 62633
" />
<path d="M51289 62688
L48893 62688
" />
<path d="M48106 62688
L45710 62688
" />
<path d="M51259 62744
L48891 62744
" />
<path d="M48108 62744
L45740 62744
" />
<path d="M51228 62799
L48881 62799
" />
<path d="M48118 62799
L45771 62799
" />
<path d="M51196 62854
L48863 62854
" />
<path d="M48136 62854
L45803 62854
" />
<path d="M51162 62909
L48835 62909
" />
<path d="M48164 62909
L45837 62909
" />
<path d="M51126 62964
L48794 62964
" />
<path d="M48205 62964
L45873 62964
" />
<path d="M51089 63019
L48733 63019
" />
<path d="M48266 63019
L45910 63019
" />
<path d="M51050 63074
L48628 63074
" />
<path d="M48371 63074
L45950 63074
" />
<path d="M51009 63129
L45990 63129
" />
<path d="M50966 63185
L46033 63185
" />
<path d="M50921 63240
L46078 63240
" />
<path d="M50874 63295
L46125 63295
" />
<path d="M50825 63350
L46174 63350
" />
<path d="M50774 63405
L46225 63405
" />
<path d="M50720 63460
L46279 63460
" />
<path d="M50662 63515
L46337 63515
" />
<path d="M50603 63570
L46396 63570
" />
<path d="M50540 63625
L46459 63625
" />
<path d="M50473 63681
L46526 63681
" />
<path d="M50402 63736
L46597 63736
" />
<path d="M50327 63791
L46672 63791
" />
<path d="M50248 63846
L46751 63846
" />
<path d="M50162 63901
L46837 63901
" />
<path d="M50070 63956
L46929 63956
" />
<path d="M49970 64011
L47029 64011
" />
<path d="M49860 64066
L47139 64066
" />
<path d="M49738 64122
L47261 64122
" />
<path d="M49601 64177
L47398 64177
" />
<path d="M49440 64232
L47559 64232
" />
<path d="M49241 64287
L47758 64287
" />
<path d="M48957 64342
L48042 64342
" />
<circle cx="48500" cy="62702.8" r="393.701" /> 
<circle cx="48500" cy="61226.4" r="3164.37" /> 
<path d="M58399 47255
L52100 47255
" />
<path d="M58398 47311
L52101 47311
" />
<path d="M58396 47366
L52103 47366
" />
<path d="M58393 47421
L52106 47421
" />
<path d="M58389 47476
L52110 47476
" />
<path d="M58384 47531
L52115 47531
" />
<path d="M58379 47586
L52120 47586
" />
<path d="M58372 47641
L52127 47641
" />
<path d="M58364 47696
L52135 47696
" />
<path d="M58355 47751
L52144 47751
" />
<path d="M58345 47807
L52154 47807
" />
<path d="M58334 47862
L52165 47862
" />
<path d="M58322 47917
L52177 47917
" />
<path d="M58309 47972
L52190 47972
" />
<path d="M58296 48027
L52203 48027
" />
<path d="M58281 48082
L52218 48082
" />
<path d="M58264 48137
L52235 48137
" />
<path d="M58247 48192
L52252 48192
" />
<path d="M58229 48248
L52270 48248
" />
<path d="M58209 48303
L52290 48303
" />
<path d="M58189 48358
L55440 48358
" />
<path d="M55059 48358
L52310 48358
" />
<path d="M58167 48413
L55516 48413
" />
<path d="M54983 48413
L52332 48413
" />
<path d="M58144 48468
L55566 48468
" />
<path d="M54933 48468
L52355 48468
" />
<path d="M58120 48523
L55600 48523
" />
<path d="M54899 48523
L52379 48523
" />
<path d="M58094 48578
L55623 48578
" />
<path d="M54876 48578
L52405 48578
" />
<path d="M58067 48633
L55637 48633
" />
<path d="M54862 48633
L52432 48633
" />
<path d="M58039 48688
L55643 48688
" />
<path d="M54856 48688
L52460 48688
" />
<path d="M58009 48744
L55641 48744
" />
<path d="M54858 48744
L52490 48744
" />
<path d="M57978 48799
L55631 48799
" />
<path d="M54868 48799
L52521 48799
" />
<path d="M57946 48854
L55613 48854
" />
<path d="M54886 48854
L52553 48854
" />
<path d="M57912 48909
L55585 48909
" />
<path d="M54914 48909
L52587 48909
" />
<path d="M57876 48964
L55544 48964
" />
<path d="M54955 48964
L52623 48964
" />
<path d="M57839 49019
L55483 49019
" />
<path d="M55016 49019
L52660 49019
" />
<path d="M57800 49074
L55378 49074
" />
<path d="M55121 49074
L52700 49074
" />
<path d="M57759 49129
L52740 49129
" />
<path d="M57716 49185
L52783 49185
" />
<path d="M57671 49240
L52828 49240
" />
<path d="M57624 49295
L52875 49295
" />
<path d="M57575 49350
L52924 49350
" />
<path d="M57524 49405
L52975 49405
" />
<path d="M57470 49460
L53029 49460
" />
<path d="M57412 49515
L53087 49515
" />
<path d="M57353 49570
L53146 49570
" />
<path d="M57290 49625
L53209 49625
" />
<path d="M57223 49681
L53276 49681
" />
<path d="M57152 49736
L53347 49736
" />
<path d="M57077 49791
L53422 49791
" />
<path d="M56998 49846
L53501 49846
" />
<path d="M56912 49901
L53587 49901
" />
<path d="M56820 49956
L53679 49956
" />
<path d="M56720 50011
L53779 50011
" />
<path d="M56610 50066
L53889 50066
" />
<path d="M56488 50122
L54011 50122
" />
<path d="M56351 50177
L54148 50177
" />
<path d="M56190 50232
L54309 50232
" />
<path d="M55991 50287
L54508 50287
" />
<path d="M55707 50342
L54792 50342
" />
<circle cx="55250" cy="48702.8" r="393.701" /> 
<circle cx="55250" cy="47226.4" r="3164.37" /> 
<path d="M58399 61255
L52100 61255
" />
<path d="M58398 61311
L52101 61311
" />
<path d="M58396 61366
L52103 61366
" />
<path d="M58393 61421
L52106 61421
" />
<path d="M58389 61476
L52110 61476
" />
<path d="M58384 61531
L52115 61531
" />
<path d="M58379 61586
L52120 61586
" />
<path d="M58372 61641
L52127 61641
" />
<path d="M58364 61696
L52135 61696
" />
<path d="M58355 61751
L52144 61751
" />
<path d="M58345 61807
L52154 61807
" />
<path d="M58334 61862
L52165 61862
" />
<path d="M58322 61917
L52177 61917
" />
<path d="M58309 61972
L52190 61972
" />
<path d="M58296 62027
L52203 62027
" />
<path d="M58281 62082
L52218 62082
" />
<path d="M58264 62137
L52235 62137
" />
<path d="M58247 62192
L52252 62192
" />
<path d="M58229 62248
L52270 62248
" />
<path d="M58209 62303
L52290 62303
" />
<path d="M58189 62358
L55440 62358
" />
<path d="M55059 62358
L52310 62358
" />
<path d="M58167 62413
L55516 62413
" />
<path d="M54983 62413
L52332 62413
" />
<path d="M58144 62468
L55566 62468
" />
<path d="M54933 62468
L52355 62468
" />
<path d="M58120 62523
L55600 62523
" />
<path d="M54899 62523
L52379 62523
" />
<path d="M58094 62578
L55623 62578
" />
<path d="M54876 62578
L52405 62578
" />
<path d="M58067 62633
L55637 62633
" />
<path d="M54862 62633
L52432 62633
" />
<path d="M58039 62688
L55643 62688
" />
<path d="M54856 62688
L52460 62688
" />
<path d="M58009 62744
L55641 62744
" />
<path d="M54858 62744
L52490 62744
" />
<path d="M57978 62799
L55631 62799
" />
<path d="M54868 62799
L52521 62799
" />
<path d="M57946 62854
L55613 62854
" />
<path d="M54886 62854
L52553 62854
" />
<path d="M57912 62909
L55585 62909
" />
<path d="M54914 62909
L52587 62909
" />
<path d="M57876 62964
L55544 62964
" />
<path d="M54955 62964
L52623 62964
" />
<path d="M57839 63019
L55483 63019
" />
<path d="M55016 63019
L52660 63019
" />
<path d="M57800 63074
L55378 63074
" />
<path d="M55121 63074
L52700 63074
" />
<path d="M57759 63129
L52740 63129
" />
<path d="M57716 63185
L52783 63185
" />
<path d="M57671 63240
L52828 63240
" />
<path d="M57624 63295
L52875 63295
" />
<path d="M57575 63350
L52924 63350
" />
<path d="M57524 63405
L52975 63405
" />
<path d="M57470 63460
L53029 63460
" />
<path d="M57412 63515
L53087 63515
" />
<path d="M57353 63570
L53146 63570
" />
<path d="M57290 63625
L53209 63625
" />
<path d="M57223 63681
L53276 63681
" />
<path d="M57152 63736
L53347 63736
" />
<path d="M57077 63791
L53422 63791
" />
<path d="M56998 63846
L53501 63846
" />
<path d="M56912 63901
L53587 63901
" />
<path d="M56820 63956
L53679 63956
" />
<path d="M56720 64011
L53779 64011
" />
<path d="M56610 64066
L53889 64066
" />
<path d="M56488 64122
L54011 64122
" />
<path d="M56351 64177
L54148 64177
" />
<path d="M56190 64232
L54309 64232
" />
<path d="M55991 64287
L54508 64287
" />
<path d="M55707 64342
L54792 64342
" />
<circle cx="55250" cy="62702.8" r="393.701" /> 
<circle cx="55250" cy="61226.4" r="3164.37" /> 
<path d="M65149 47255
L58850 47255
" />
<path d="M65148 47311
L58851 47311
" />
<path d="M65146 47366
L58853 47366
" />
<path d="M65143 47421
L58856 47421
" />
<path d="M65139 47476
L58860 47476
" />
<path d="M65134 47531
L58865 47531
" />
<path d="M65129 47586
L58870 47586
" />
<path d="M65122 47641
L58877 47641
" />
<path d="M65114 47696
L58885 47696
" />
<path d="M65105 47751
L58894 47751
" />
<path d="M65095 47807
L58904 47807
" />
<path d="M65084 47862
L58915 47862
" />
<path d="M65072 47917
L58927 47917
" />
<path d="M65059 47972
L58940 47972
" />
<path d="M65046 48027
L58953 48027
" />
<path d="M65031 48082
L58968 48082
" />
<path d="M65014 48137
L58985 48137
" />
<path d="M64997 48192
L59002 48192
" />
<path d="M64979 48248
L59020 48248
" />
<path d="M64959 48303
L59040 48303
" />
<path d="M64939 48358
L62190 48358
" />
<path d="M61809 48358
L59060 48358
" />
<path d="M64917 48413
L62266 48413
" />
<path d="M61733 48413
L59082 48413
" />
<path d="M64894 48468
L62316 48468
" />
<path d="M61683 48468
L59105 48468
" />
<path d="M64870 48523
L62350 48523
" />
<path d="M61649 48523
L59129 48523
" />
<path d="M64844 48578
L62373 48578
" />
<path d="M61626 48578
L59155 48578
" />
<path d="M64817 48633
L62387 48633
" />
<path d="M61612 48633
L59182 48633
" />
<path d="M64789 48688
L62393 48688
" />
<path d="M61606 48688
L59210 48688
" />
<path d="M64759 48744
L62391 48744
" />
<path d="M61608 48744
L59240 48744
" />
<path d="M64728 48799
L62381 48799
" />
<path d="M61618 48799
L59271 48799
" />
<path d="M64696 48854
L62363 48854
" />
<path d="M61636 48854
L59303 48854
" />
<path d="M64662 48909
L62335 48909
" />
<path d="M61664 48909
L59337 48909
" />
<path d="M64626 48964
L62294 48964
" />
<path d="M61705 48964
L59373 48964
" />
<path d="M64589 49019
L62233 49019
" />
<path d="M61766 49019
L59410 49019
" />
<path d="M64550 49074
L62128 49074
" />
<path d="M61871 49074
L59450 49074
" />
<path d="M64509 49129
L59490 49129
" />
<path d="M64466 49185
L59533 49185
" />
<path d="M64421 49240
L59578 49240
" />
<path d="M64374 49295
L59625 49295
" />
<path d="M64325 49350
L59674 49350
" />
<path d="M64274 49405
L59725 49405
" />
<path d="M64220 49460
L59779 49460
" />
<path d="M64162 49515
L59837 49515
" />
<path d="M64103 49570
L59896 49570
" />
<path d="M64040 49625
L59959 49625
" />
<path d="M63973 49681
L60026 49681
" />
<path d="M63902 49736
L60097 49736
" />
<path d="M63827 49791
L60172 49791
" />
<path d="M63748 49846
L60251 49846
" />
<path d="M63662 49901
L60337 49901
" />
<path d="M63570 49956
L60429 49956
" />
<path d="M63470 50011
L60529 50011
" />
<path d="M63360 50066
L60639 50066
" />
<path d="M63238 50122
L60761 50122
" />
<path d="M63101 50177
L60898 50177
" />
<path d="M62940 50232
L61059 50232
" />
<path d="M62741 50287
L61258 50287
" />
<path d="M62457 50342
L61542 50342
" />
<circle cx="62000" cy="48702.8" r="393.701" /> 
<circle cx="62000" cy="47226.4" r="3164.37" /> 
<path d="M65149 61255
L58850 61255
" />
<path d="M65148 61311
L58851 61311
" />
<path d="M65146 61366
L58853 61366
" />
<path d="M65143 61421
L58856 61421
" />
<path d="M65139 61476
L58860 61476
" />
<path d="M65134 61531
L58865 61531
" />
<path d="M65129 61586
L58870 61586
" />
<path d="M65122 61641
L58877 61641
" />
<path d="M65114 61696
L58885 61696
" />
<path d="M65105 61751
L58894 61751
" />
<path d="M65095 61807
L58904 61807
" />
<path d="M65084 61862
L58915 61862
" />
<path d="M65072 61917
L58927 61917
" />
<path d="M65059 61972
L58940 61972
" />
<path d="M65046 62027
L58953 62027
" />
<path d="M65031 62082
L58968 62082
" />
<path d="M65014 62137
L58985 62137
" />
<path d="M64997 62192
L59002 62192
" />
<path d="M64979 62248
L59020 62248
" />
<path d="M64959 62303
L59040 62303
" />
<path d="M64939 62358
L62190 62358
" />
<path d="M61809 62358
L59060 62358
" />
<path d="M64917 62413
L62266 62413
" />
<path d="M61733 62413
L59082 62413
" />
<path d="M64894 62468
L62316 62468
" />
<path d="M61683 62468
L59105 62468
" />
<path d="M64870 62523
L62350 62523
" />
<path d="M61649 62523
L59129 62523
" />
<path d="M64844 62578
L62373 62578
" />
<path d="M61626 62578
L59155 62578
" />
<path d="M64817 62633
L62387 62633
" />
<path d="M61612 62633
L59182 62633
" />
<path d="M64789 62688
L62393 62688
" />
<path d="M61606 62688
L59210 62688
" />
<path d="M64759 62744
L62391 62744
" />
<path d="M61608 62744
L59240 62744
" />
<path d="M64728 62799
L62381 62799
" />
<path d="M61618 62799
L59271 62799
" />
<path d="M64696 62854
L62363 62854
" />
<path d="M61636 62854
L59303 62854
" />
<path d="M64662 62909
L62335 62909
" />
<path d="M61664 62909
L59337 62909
" />
<path d="M64626 62964
L62294 62964
" />
<path d="M61705 62964
L59373 62964
" />
<path d="M64589 63019
L62233 63019
" />
<path d="M61766 63019
L59410 63019
" />
<path d="M64550 63074
L62128 63074
" />
<path d="M61871 63074
L59450 63074
" />
<path d="M64509 63129
L59490 63129
" />
<path d="M64466 63185
L59533 63185
" />
<path d="M64421 63240
L59578 63240
" />
<path d="M64374 63295
L59625 63295
" />
<path d="M64325 63350
L59674 63350
" />
<path d="M64274 63405
L59725 63405
" />
<path d="M64220 63460
L59779 63460
" />
<path d="M64162 63515
L59837 63515
" />
<path d="M64103 63570
L59896 63570
" />
<path d="M64040 63625
L59959 63625
" />
<path d="M63973 63681
L60026 63681
" />
<path d="M63902 63736
L60097 63736
" />
<path d="M63827 63791
L60172 63791
" />
<path d="M63748 63846
L60251 63846
" />
<path d="M63662 63901
L60337 63901
" />
<path d="M63570 63956
L60429 63956
" />
<path d="M63470 64011
L60529 64011
" />
<path d="M63360 64066
L60639 64066
" />
<path d="M63238 64122
L60761 64122
" />
<path d="M63101 64177
L60898 64177
" />
<path d="M62940 64232
L61059 64232
" />
<path d="M62741 64287
L61258 64287
" />
<path d="M62457 64342
L61542 64342
" />
<circle cx="62000" cy="62702.8" r="393.701" /> 
<circle cx="62000" cy="61226.4" r="3164.37" /> 
<path d="M71899 47255
L65600 47255
" />
<path d="M71898 47311
L65601 47311
" />
<path d="M71896 47366
L65603 47366
" />
<path d="M71893 47421
L65606 47421
" />
<path d="M71889 47476
L65610 47476
" />
<path d="M71884 47531
L65615 47531
" />
<path d="M71879 47586
L65620 47586
" />
<path d="M71872 47641
L65627 47641
" />
<path d="M71864 47696
L65635 47696
" />
<path d="M71855 47751
L65644 47751
" />
<path d="M71845 47807
L65654 47807
" />
<path d="M71834 47862
L65665 47862
" />
<path d="M71822 47917
L65677 47917
" />
<path d="M71809 47972
L65690 47972
" />
<path d="M71796 48027
L65703 48027
" />
<path d="M71781 48082
L65718 48082
" />
<path d="M71764 48137
L65735 48137
" />
<path d="M71747 48192
L65752 48192
" />
<path d="M71729 48248
L65770 48248
" />
<path d="M71709 48303
L65790 48303
" />
<path d="M71689 48358
L68940 48358
" />
<path d="M68559 48358
L65810 48358
" />
<path d="M71667 48413
L69016 48413
" />
<path d="M68483 48413
L65832 48413
" />
<path d="M71644 48468
L69066 48468
" />
<path d="M68433 48468
L65855 48468
" />
<path d="M71620 48523
L69100 48523
" />
<path d="M68399 48523
L65879 48523
" />
<path d="M71594 48578
L69123 48578
" />
<path d="M68376 48578
L65905 48578
" />
<path d="M71567 48633
L69137 48633
" />
<path d="M68362 48633
L65932 48633
" />
<path d="M71539 48688
L69143 48688
" />
<path d="M68356 48688
L65960 48688
" />
<path d="M71509 48744
L69141 48744
" />
<path d="M68358 48744
L65990 48744
" />
<path d="M71478 48799
L69131 48799
" />
<path d="M68368 48799
L66021 48799
" />
<path d="M71446 48854
L69113 48854
" />
<path d="M68386 48854
L66053 48854
" />
<path d="M71412 48909
L69085 48909
" />
<path d="M68414 48909
L66087 48909
" />
<path d="M71376 48964
L69044 48964
" />
<path d="M68455 48964
L66123 48964
" />
<path d="M71339 49019
L68983 49019
" />
<path d="M68516 49019
L66160 49019
" />
<path d="M71300 49074
L68878 49074
" />
<path d="M68621 49074
L66200 49074
" />
<path d="M71259 49129
L66240 49129
" />
<path d="M71216 49185
L66283 49185
" />
<path d="M71171 49240
L66328 49240
" />
<path d="M71124 49295
L66375 49295
" />
<path d="M71075 49350
L66424 49350
" />
<path d="M71024 49405
L66475 49405
" />
<path d="M70970 49460
L66529 49460
" />
<path d="M70912 49515
L66587 49515
" />
<path d="M70853 49570
L66646 49570
" />
<path d="M70790 49625
L66709 49625
" />
<path d="M70723 49681
L66776 49681
" />
<path d="M70652 49736
L66847 49736
" />
<path d="M70577 49791
L66922 49791
" />
<path d="M70498 49846
L67001 49846
" />
<path d="M70412 49901
L67087 49901
" />
<path d="M70320 49956
L67179 49956
" />
<path d="M70220 50011
L67279 50011
" />
<path d="M70110 50066
L67389 50066
" />
<path d="M69988 50122
L67511 50122
" />
<path d="M69851 50177
L67648 50177
" />
<path d="M69690 50232
L67809 50232
" />
<path d="M69491 50287
L68008 50287
" />
<path d="M69207 50342
L68292 50342
" />
<circle cx="68750" cy="48702.8" r="393.701" /> 
<circle cx="68750" cy="47226.4" r="3164.37" /> 
<path d="M71899 61255
L65600 61255
" />
<path d="M71898 61311
L65601 61311
" />
<path d="M71896 61366
L65603 61366
" />
<path d="M71893 61421
L65606 61421
" />
<path d="M71889 61476
L65610 61476
" />
<path d="M71884 61531
L65615 61531
" />
<path d="M71879 61586
L65620 61586
" />
<path d="M71872 61641
L65627 61641
" />
<path d="M71864 61696
L65635 61696
" />
<path d="M71855 61751
L65644 61751
" />
<path d="M71845 61807
L65654 61807
" />
<path d="M71834 61862
L65665 61862
" />
<path d="M71822 61917
L65677 61917
" />
<path d="M71809 61972
L65690 61972
" />
<path d="M71796 62027
L65703 62027
" />
<path d="M71781 62082
L65718 62082
" />
<path d="M71764 62137
L65735 62137
" />
<path d="M71747 62192
L65752 62192
" />
<path d="M71729 62248
L65770 62248
" />
<path d="M71709 62303
L65790 62303
" />
<path d="M71689 62358
L68940 62358
" />
<path d="M68559 62358
L65810 62358
" />
<path d="M71667 62413
L69016 62413
" />
<path d="M68483 62413
L65832 62413
" />
<path d="M71644 62468
L69066 62468
" />
<path d="M68433 62468
L65855 62468
" />
<path d="M71620 62523
L69100 62523
" />
<path d="M68399 62523
L65879 62523
" />
<path d="M71594 62578
L69123 62578
" />
<path d="M68376 62578
L65905 62578
" />
<path d="M71567 62633
L69137 62633
" />
<path d="M68362 62633
L65932 62633
" />
<path d="M71539 62688
L69143 62688
" />
<path d="M68356 62688
L65960 62688
" />
<path d="M71509 62744
L69141 62744
" />
<path d="M68358 62744
L65990 62744
" />
<path d="M71478 62799
L69131 62799
" />
<path d="M68368 62799
L66021 62799
" />
<path d="M71446 62854
L69113 62854
" />
<path d="M68386 62854
L66053 62854
" />
<path d="M71412 62909
L69085 62909
" />
<path d="M68414 62909
L66087 62909
" />
<path d="M71376 62964
L69044 62964
" />
<path d="M68455 62964
L66123 62964
" />
<path d="M71339 63019
L68983 63019
" />
<path d="M68516 63019
L66160 63019
" />
<path d="M71300 63074
L68878 63074
" />
<path d="M68621 63074
L66200 63074
" />
<path d="M71259 63129
L66240 63129
" />
<path d="M71216 63185
L66283 63185
" />
<path d="M71171 63240
L66328 63240
" />
<path d="M71124 63295
L66375 63295
" />
<path d="M71075 63350
L66424 63350
" />
<path d="M71024 63405
L66475 63405
" />
<path d="M70970 63460
L66529 63460
" />
<path d="M70912 63515
L66587 63515
" />
<path d="M70853 63570
L66646 63570
" />
<path d="M70790 63625
L66709 63625
" />
<path d="M70723 63681
L66776 63681
" />
<path d="M70652 63736
L66847 63736
" />
<path d="M70577 63791
L66922 63791
" />
<path d="M70498 63846
L67001 63846
" />
<path d="M70412 63901
L67087 63901
" />
<path d="M70320 63956
L67179 63956
" />
<path d="M70220 64011
L67279 64011
" />
<path d="M70110 64066
L67389 64066
" />
<path d="M69988 64122
L67511 64122
" />
<path d="M69851 64177
L67648 64177
" />
<path d="M69690 64232
L67809 64232
" />
<path d="M69491 64287
L68008 64287
" />
<path d="M69207 64342
L68292 64342
" />
<circle cx="68750" cy="62702.8" r="393.701" /> 
<circle cx="68750" cy="61226.4" r="3164.37" /> 
<path d="M37750 37750
L37750 41750
" />
<path d="M38250 37750
L35250 37750
" />
<path d="M35250 37750
L35250 41750
" />
<path d="M35250 41750
L38250 41750
" />
<path d="M38250 41750
L38250 37750
" />
<path d="M37750 59750
L37750 63750
" />
<path d="M38250 59750
L35250 59750
" />
<path d="M35250 59750
L35250 63750
" />
<path d="M35250 63750
L38250 63750
" />
<path d="M38250 63750
L38250 59750
" />
<path d="M74750 39250
L74750 43250
" />
<path d="M75250 39250
L72250 39250
" />
<path d="M72250 39250
L72250 43250
" />
<path d="M72250 43250
L75250 43250
" />
<path d="M75250 43250
L75250 39250
" />
<path d="M74750 58250
L74750 62250
" />
<path d="M75250 58250
L72250 58250
" />
<path d="M72250 58250
L72250 62250
" />
<path d="M72250 62250
L75250 62250
" />
<path d="M75250 62250
L75250 58250
" />
<path d="M35250 47750
L38250 47750
" />
<path d="M35250 53750
L38250 53750
" />
<path d="M35750 47750
L35750 53750
" />
<path d="M38250 47750
L38250 53750
" />
<path d="M35250 47750
L35250 53750
" />
<path d="M75250 53750
L72250 53750
" />
<path d="M75250 47750
L72250 47750
" />
<path d="M74750 53750
L74750 47750
" />
<path d="M72250 53750
L72250 47750
" />
<path d="M75250 53750
L75250 47750
" />
<path d="M45552 40291
L45570 40310
L45589 40366
L45589 40404
L45570 40460
L45533 40498
L45495 40516
L45420 40535
L45364 40535
L45289 40516
L45252 40498
L45214 40460
L45195 40404
L45195 40366
L45214 40310
L45233 40291
" />
<path d="M45589 39917
L45589 40142
" />
<path d="M45589 40029
L45195 40029
L45252 40067
L45289 40104
L45308 40142
" />
<path d="M45552 54291
L45570 54310
L45589 54366
L45589 54404
L45570 54460
L45533 54498
L45495 54516
L45420 54535
L45364 54535
L45289 54516
L45252 54498
L45214 54460
L45195 54404
L45195 54366
L45214 54310
L45233 54291
" />
<path d="M45233 54142
L45214 54123
L45195 54085
L45195 53992
L45214 53954
L45233 53935
L45270 53917
L45308 53917
L45364 53935
L45589 54160
L45589 53917
" />
<path d="M52302 40291
L52320 40310
L52339 40366
L52339 40404
L52320 40460
L52283 40498
L52245 40516
L52170 40535
L52114 40535
L52039 40516
L52002 40498
L51964 40460
L51945 40404
L51945 40366
L51964 40310
L51983 40291
" />
<path d="M51945 40160
L51945 39917
L52095 40048
L52095 39992
L52114 39954
L52133 39935
L52170 39917
L52264 39917
L52302 39935
L52320 39954
L52339 39992
L52339 40104
L52320 40142
L52302 40160
" />
<path d="M52302 54291
L52320 54310
L52339 54366
L52339 54404
L52320 54460
L52283 54498
L52245 54516
L52170 54535
L52114 54535
L52039 54516
L52002 54498
L51964 54460
L51945 54404
L51945 54366
L51964 54310
L51983 54291
" />
<path d="M52077 53954
L52339 53954
" />
<path d="M51927 54048
L52208 54142
L52208 53898
" />
<path d="M59052 40291
L59070 40310
L59089 40366
L59089 40404
L59070 40460
L59033 40498
L58995 40516
L58920 40535
L58864 40535
L58789 40516
L58752 40498
L58714 40460
L58695 40404
L58695 40366
L58714 40310
L58733 40291
" />
<path d="M58695 39935
L58695 40123
L58883 40142
L58864 40123
L58845 40085
L58845 39992
L58864 39954
L58883 39935
L58920 39917
L59014 39917
L59052 39935
L59070 39954
L59089 39992
L59089 40085
L59070 40123
L59052 40142
" />
<path d="M59052 54291
L59070 54310
L59089 54366
L59089 54404
L59070 54460
L59033 54498
L58995 54516
L58920 54535
L58864 54535
L58789 54516
L58752 54498
L58714 54460
L58695 54404
L58695 54366
L58714 54310
L58733 54291
" />
<path d="M58695 53954
L58695 54029
L58714 54067
L58733 54085
L58789 54123
L58864 54142
L59014 54142
L59052 54123
L59070 54104
L59089 54067
L59089 53992
L59070 53954
L59052 53935
L59014 53917
L58920 53917
L58883 53935
L58864 53954
L58845 53992
L58845 54067
L58864 54104
L58883 54123
L58920 54142
" />
<path d="M65802 40291
L65820 40310
L65839 40366
L65839 40404
L65820 40460
L65783 40498
L65745 40516
L65670 40535
L65614 40535
L65539 40516
L65502 40498
L65464 40460
L65445 40404
L65445 40366
L65464 40310
L65483 40291
" />
<path d="M65445 40160
L65445 39898
L65839 40067
" />
<path d="M65802 54291
L65820 54310
L65839 54366
L65839 54404
L65820 54460
L65783 54498
L65745 54516
L65670 54535
L65614 54535
L65539 54516
L65502 54498
L65464 54460
L65445 54404
L65445 54366
L65464 54310
L65483 54291
" />
<path d="M65614 54067
L65595 54104
L65577 54123
L65539 54142
L65520 54142
L65483 54123
L65464 54104
L65445 54067
L65445 53992
L65464 53954
L65483 53935
L65520 53917
L65539 53917
L65577 53935
L65595 53954
L65614 53992
L65614 54067
L65633 54104
L65652 54123
L65689 54142
L65764 54142
L65802 54123
L65820 54104
L65839 54067
L65839 53992
L65820 53954
L65802 53935
L65764 53917
L65689 53917
L65652 53935
L65633 53954
L65614 53992
" />
<path d="M72552 40291
L72570 40310
L72589 40366
L72589 40404
L72570 40460
L72533 40498
L72495 40516
L72420 40535
L72364 40535
L72289 40516
L72252 40498
L72214 40460
L72195 40404
L72195 40366
L72214 40310
L72233 40291
" />
<path d="M72589 40104
L72589 40029
L72570 39992
L72552 39973
L72495 39935
L72420 39917
L72270 39917
L72233 39935
L72214 39954
L72195 39992
L72195 40067
L72214 40104
L72233 40123
L72270 40142
L72364 40142
L72402 40123
L72420 40104
L72439 40067
L72439 39992
L72420 39954
L72402 39935
L72364 39917
" />
<path d="M72552 54479
L72570 54498
L72589 54554
L72589 54591
L72570 54648
L72533 54685
L72495 54704
L72420 54723
L72364 54723
L72289 54704
L72252 54685
L72214 54648
L72195 54591
L72195 54554
L72214 54498
L72233 54479
" />
<path d="M72589 54104
L72589 54329
" />
<path d="M72589 54217
L72195 54217
L72252 54254
L72289 54291
L72308 54329
" />
<path d="M72195 53860
L72195 53823
L72214 53785
L72233 53767
L72270 53748
L72345 53729
L72439 53729
L72514 53748
L72552 53767
L72570 53785
L72589 53823
L72589 53860
L72570 53898
L72552 53917
L72514 53935
L72439 53954
L72345 53954
L72270 53935
L72233 53917
L72214 53898
L72195 53860
" />
<path d="M45552 47479
L45570 47498
L45589 47554
L45589 47591
L45570 47648
L45533 47685
L45495 47704
L45420 47723
L45364 47723
L45289 47704
L45252 47685
L45214 47648
L45195 47591
L45195 47554
L45214 47498
L45233 47479
" />
<path d="M45589 47104
L45589 47329
" />
<path d="M45589 47217
L45195 47217
L45252 47254
L45289 47291
L45308 47329
" />
<path d="M45589 46729
L45589 46954
" />
<path d="M45589 46842
L45195 46842
L45252 46879
L45289 46917
L45308 46954
" />
<path d="M45552 61479
L45570 61498
L45589 61554
L45589 61591
L45570 61648
L45533 61685
L45495 61704
L45420 61723
L45364 61723
L45289 61704
L45252 61685
L45214 61648
L45195 61591
L45195 61554
L45214 61498
L45233 61479
" />
<path d="M45589 61104
L45589 61329
" />
<path d="M45589 61217
L45195 61217
L45252 61254
L45289 61291
L45308 61329
" />
<path d="M45233 60954
L45214 60935
L45195 60898
L45195 60804
L45214 60767
L45233 60748
L45270 60729
L45308 60729
L45364 60748
L45589 60973
L45589 60729
" />
<path d="M52302 47479
L52320 47498
L52339 47554
L52339 47591
L52320 47648
L52283 47685
L52245 47704
L52170 47723
L52114 47723
L52039 47704
L52002 47685
L51964 47648
L51945 47591
L51945 47554
L51964 47498
L51983 47479
" />
<path d="M52339 47104
L52339 47329
" />
<path d="M52339 47217
L51945 47217
L52002 47254
L52039 47291
L52058 47329
" />
<path d="M51945 46973
L51945 46729
L52095 46860
L52095 46804
L52114 46767
L52133 46748
L52170 46729
L52264 46729
L52302 46748
L52320 46767
L52339 46804
L52339 46917
L52320 46954
L52302 46973
" />
<path d="M52302 61479
L52320 61498
L52339 61554
L52339 61591
L52320 61648
L52283 61685
L52245 61704
L52170 61723
L52114 61723
L52039 61704
L52002 61685
L51964 61648
L51945 61591
L51945 61554
L51964 61498
L51983 61479
" />
<path d="M52339 61104
L52339 61329
" />
<path d="M52339 61217
L51945 61217
L52002 61254
L52039 61291
L52058 61329
" />
<path d="M52077 60767
L52339 60767
" />
<path d="M51927 60860
L52208 60954
L52208 60710
" />
<path d="M59052 47479
L59070 47498
L59089 47554
L59089 47591
L59070 47648
L59033 47685
L58995 47704
L58920 47723
L58864 47723
L58789 47704
L58752 47685
L58714 47648
L58695 47591
L58695 47554
L58714 47498
L58733 47479
" />
<path d="M59089 47104
L59089 47329
" />
<path d="M59089 47217
L58695 47217
L58752 47254
L58789 47291
L58808 47329
" />
<path d="M58695 46748
L58695 46935
L58883 46954
L58864 46935
L58845 46898
L58845 46804
L58864 46767
L58883 46748
L58920 46729
L59014 46729
L59052 46748
L59070 46767
L59089 46804
L59089 46898
L59070 46935
L59052 46954
" />
<path d="M59052 61479
L59070 61498
L59089 61554
L59089 61591
L59070 61648
L59033 61685
L58995 61704
L58920 61723
L58864 61723
L58789 61704
L58752 61685
L58714 61648
L58695 61591
L58695 61554
L58714 61498
L58733 61479
" />
<path d="M59089 61104
L59089 61329
" />
<path d="M59089 61217
L58695 61217
L58752 61254
L58789 61291
L58808 61329
" />
<path d="M58695 60767
L58695 60842
L58714 60879
L58733 60898
L58789 60935
L58864 60954
L59014 60954
L59052 60935
L59070 60917
L59089 60879
L59089 60804
L59070 60767
L59052 60748
L59014 60729
L58920 60729
L58883 60748
L58864 60767
L58845 60804
L58845 60879
L58864 60917
L58883 60935
L58920 60954
" />
<path d="M65802 47479
L65820 47498
L65839 47554
L65839 47591
L65820 47648
L65783 47685
L65745 47704
L65670 47723
L65614 47723
L65539 47704
L65502 47685
L65464 47648
L65445 47591
L65445 47554
L65464 47498
L65483 47479
" />
<path d="M65839 47104
L65839 47329
" />
<path d="M65839 47217
L65445 47217
L65502 47254
L65539 47291
L65558 47329
" />
<path d="M65445 46973
L65445 46710
L65839 46879
" />
<path d="M65802 61479
L65820 61498
L65839 61554
L65839 61591
L65820 61648
L65783 61685
L65745 61704
L65670 61723
L65614 61723
L65539 61704
L65502 61685
L65464 61648
L65445 61591
L65445 61554
L65464 61498
L65483 61479
" />
<path d="M65839 61104
L65839 61329
" />
<path d="M65839 61217
L65445 61217
L65502 61254
L65539 61291
L65558 61329
" />
<path d="M65614 60879
L65595 60917
L65577 60935
L65539 60954
L65520 60954
L65483 60935
L65464 60917
L65445 60879
L65445 60804
L65464 60767
L65483 60748
L65520 60729
L65539 60729
L65577 60748
L65595 60767
L65614 60804
L65614 60879
L65633 60917
L65652 60935
L65689 60954
L65764 60954
L65802 60935
L65820 60917
L65839 60879
L65839 60804
L65820 60767
L65802 60748
L65764 60729
L65689 60729
L65652 60748
L65633 60767
L65614 60804
" />
<path d="M72552 47479
L72570 47498
L72589 47554
L72589 47591
L72570 47648
L72533 47685
L72495 47704
L72420 47723
L72364 47723
L72289 47704
L72252 47685
L72214 47648
L72195 47591
L72195 47554
L72214 47498
L72233 47479
" />
<path d="M72589 47104
L72589 47329
" />
<path d="M72589 47217
L72195 47217
L72252 47254
L72289 47291
L72308 47329
" />
<path d="M72589 46917
L72589 46842
L72570 46804
L72552 46785
L72495 46748
L72420 46729
L72270 46729
L72233 46748
L72214 46767
L72195 46804
L72195 46879
L72214 46917
L72233 46935
L72270 46954
L72364 46954
L72402 46935
L72420 46917
L72439 46879
L72439 46804
L72420 46767
L72402 46748
L72364 46729
" />
<path d="M72552 61479
L72570 61498
L72589 61554
L72589 61591
L72570 61648
L72533 61685
L72495 61704
L72420 61723
L72364 61723
L72289 61704
L72252 61685
L72214 61648
L72195 61591
L72195 61554
L72214 61498
L72233 61479
" />
<path d="M72233 61329
L72214 61310
L72195 61273
L72195 61179
L72214 61142
L72233 61123
L72270 61104
L72308 61104
L72364 61123
L72589 61348
L72589 61104
" />
<path d="M72195 60860
L72195 60823
L72214 60785
L72233 60767
L72270 60748
L72345 60729
L72439 60729
L72514 60748
L72552 60767
L72570 60785
L72589 60823
L72589 60860
L72570 60898
L72552 60917
L72514 60935
L72439 60954
L72345 60954
L72270 60935
L72233 60917
L72214 60898
L72195 60860
" />
<path d="M34928 40040
L34534 40040
L34534 39890
L34553 39853
L34571 39834
L34609 39815
L34665 39815
L34703 39834
L34721 39853
L34740 39890
L34740 40040
" />
<path d="M34928 39440
L34928 39665
" />
<path d="M34928 39553
L34534 39553
L34590 39590
L34628 39628
L34646 39665
" />
<path d="M34928 62040
L34534 62040
L34534 61890
L34553 61853
L34571 61834
L34609 61815
L34665 61815
L34703 61834
L34721 61853
L34740 61890
L34740 62040
" />
<path d="M34534 61684
L34534 61440
L34684 61571
L34684 61515
L34703 61478
L34721 61459
L34759 61440
L34853 61440
L34890 61459
L34909 61478
L34928 61515
L34928 61628
L34909 61665
L34890 61684
" />
<path d="M71928 41540
L71534 41540
L71534 41390
L71553 41353
L71571 41334
L71609 41315
L71665 41315
L71703 41334
L71721 41353
L71740 41390
L71740 41540
" />
<path d="M71665 40978
L71928 40978
" />
<path d="M71515 41071
L71796 41165
L71796 40921
" />
<path d="M71928 60540
L71534 60540
L71534 60390
L71553 60353
L71571 60334
L71609 60315
L71665 60315
L71703 60334
L71721 60353
L71740 60390
L71740 60540
" />
<path d="M71534 59978
L71534 60053
L71553 60090
L71571 60109
L71628 60146
L71703 60165
L71853 60165
L71890 60146
L71909 60128
L71928 60090
L71928 60015
L71909 59978
L71890 59959
L71853 59940
L71759 59940
L71721 59959
L71703 59978
L71684 60015
L71684 60090
L71703 60128
L71721 60146
L71759 60165
" />
<path d="M38928 51040
L38534 51040
L38534 50890
L38553 50853
L38571 50834
L38609 50815
L38665 50815
L38703 50834
L38721 50853
L38740 50890
L38740 51040
" />
<path d="M38571 50665
L38553 50646
L38534 50609
L38534 50515
L38553 50478
L38571 50459
L38609 50440
L38646 50440
L38703 50459
L38928 50684
L38928 50440
" />
<path d="M71928 51040
L71534 51040
L71534 50890
L71553 50853
L71571 50834
L71609 50815
L71665 50815
L71703 50834
L71721 50853
L71740 50890
L71740 51040
" />
<path d="M71534 50459
L71534 50646
L71721 50665
L71703 50646
L71684 50609
L71684 50515
L71703 50478
L71721 50459
L71759 50440
L71853 50440
L71890 50459
L71909 50478
L71928 50515
L71928 50609
L71909 50646
L71890 50665
" />
</g> 
</svg>
