M48
; DRILL file KiCad 10.0.3 date 2026-06-24T20:39:18
; FORMAT={-:-/ absolute / metric / decimal}
; #@! TF.CreationDate,2026-06-24T20:39:18+03:00
; #@! TF.GenerationSoftware,Kicad,Pcbnew,10.0.3
; #@! TF.FileFunction,MixedPlating,1,2
FMAT,2
METRIC
; #@! TA.AperFunction,Plated,PTH,ComponentDrill
T1C0.800
%
G90
G05
T1
X22.352Y-26.71
X22.352Y-29.21
X36.195Y-24.462
X36.195Y-31.962
X48.392Y-20.482
X48.392Y-35.682
X53.492Y-20.482
X53.492Y-35.682
X63.5Y-25.616
X63.5Y-30.616
X69.85Y-20.32
X73.025Y-25.44
X73.025Y-30.44
X77.47Y-20.32
X77.47Y-31.409
X78.74Y-25.4
X81.28Y-20.32
X81.28Y-25.4
X83.82Y-25.4
X85.09Y-31.409
X88.9Y-20.32
X88.9Y-24.13
X88.9Y-31.75
X93.98Y-19.09
X93.98Y-24.09
X93.98Y-29.21
X93.98Y-31.71
X99.594Y-22.89
X99.594Y-25.39
X106.426Y-21.63
X106.426Y-24.13
X107.442Y-31.79
X107.442Y-34.29
M30
