<?xml version="1.0" standalone="no"?>
 <!DOCTYPE svg PUBLIC "-//W3C//DTD SVG 1.1//EN" 
 "http://www.w3.org/Graphics/SVG/1.1/DTD/svg11.dtd"> 
<svg xmlns="http://www.w3.org/2000/svg" version="1.1" 
    width="29.7002cm" height="21.0007cm" viewBox="0 0 116930 82680 ">
<title>SVG Picture created as led_segments-F.SilkS.svg date 2018/12/08 22:19:47 </title>
  <desc>Picture generated by PCBNEW </desc>
<g style="fill:#000000; fill-opacity:1;stroke:#000000; stroke-opacity:1;
stroke-linecap:round; stroke-linejoin:round; "
 transform="translate(0 0) scale(1 1)">
</g>
<g style="fill:#000000; fill-opacity:0.0; 
stroke:#000000; stroke-width:-0.000393701; stroke-opacity:1; 
stroke-linecap:round; stroke-linejoin:round;">
</g>
<g style="fill:#000000; fill-opacity:0.0; 
stroke:#000000; stroke-width:59.0551; stroke-opacity:1; 
stroke-linecap:round; stroke-linejoin:round;">
<circle cx="11200" cy="28200" r="707.107" /> 
<circle cx="21200" cy="28200" r="707.107" /> 
<circle cx="21200" cy="48700" r="707.107" /> 
<circle cx="11200" cy="48700" r="707.107" /> 
<path d="M10196 49707
L22007 49707
" />
<path d="M22007 49707
L22203 49707
" />
<path d="M22203 49707
L22203 27266
" />
<path d="M22203 27266
L10196 27266
" />
<path d="M10196 27266
L10196 49707
" />
</g>
<g style="fill:#000000; fill-opacity:0.0; 
stroke:#000000; stroke-width:47.2441; stroke-opacity:1; 
stroke-linecap:round; stroke-linejoin:round;">
<path d="M34332 40038
L34332 39361
" />
<path d="M34332 39361
L32867 39361
" />
<path d="M32867 39361
L32867 40038
" />
<path d="M32867 40038
L34332 40038
" />
<path d="M34753 39700
L34332 39700
" />
<path d="M32446 39700
L32867 39700
" />
<path d="M26740 25478
L26740 28132
" />
<path d="M25740 25478
L25740 28132
" />
<path d="M26740 25478
L25740 25478
" />
<path d="M26740 28132
L25740 28132
" />
<path d="M26450 25478
L26450 25565
" />
<path d="M26450 26234
L26450 26475
" />
<path d="M26450 27135
L26450 27381
" />
<path d="M26450 28041
L26450 28132
" />
<path d="M33821 22140
L31167 22140
" />
<path d="M33821 21140
L31167 21140
" />
<path d="M33821 22140
L33821 21140
" />
<path d="M31167 22140
L31167 21140
" />
<path d="M33821 21850
L33734 21850
" />
<path d="M33065 21850
L32824 21850
" />
<path d="M32164 21850
L31918 21850
" />
<path d="M31258 21850
L31167 21850
" />
<path d="M33821 27140
L31167 27140
" />
<path d="M33821 26140
L31167 26140
" />
<path d="M33821 27140
L33821 26140
" />
<path d="M31167 27140
L31167 26140
" />
<path d="M33821 26850
L33734 26850
" />
<path d="M33065 26850
L32824 26850
" />
<path d="M32164 26850
L31918 26850
" />
<path d="M31258 26850
L31167 26850
" />
<path d="M33821 31740
L31167 31740
" />
<path d="M33821 30740
L31167 30740
" />
<path d="M33821 31740
L33821 30740
" />
<path d="M31167 31740
L31167 30740
" />
<path d="M33821 31450
L33734 31450
" />
<path d="M33065 31450
L32824 31450
" />
<path d="M32164 31450
L31918 31450
" />
<path d="M31258 31450
L31167 31450
" />
<path d="M33821 35740
L31167 35740
" />
<path d="M33821 34740
L31167 34740
" />
<path d="M33821 35740
L33821 34740
" />
<path d="M31167 35740
L31167 34740
" />
<path d="M33821 35450
L33734 35450
" />
<path d="M33065 35450
L32824 35450
" />
<path d="M32164 35450
L31918 35450
" />
<path d="M31258 35450
L31167 35450
" />
<path d="M33821 42840
L31167 42840
" />
<path d="M33821 41840
L31167 41840
" />
<path d="M33821 42840
L33821 41840
" />
<path d="M31167 42840
L31167 41840
" />
<path d="M33821 42550
L33734 42550
" />
<path d="M33065 42550
L32824 42550
" />
<path d="M32164 42550
L31918 42550
" />
<path d="M31258 42550
L31167 42550
" />
<path d="M21559 26321
L21559 23667
" />
<path d="M22559 26321
L22559 23667
" />
<path d="M21559 26321
L22559 26321
" />
<path d="M21559 23667
L22559 23667
" />
<path d="M21850 26321
L21850 26234
" />
<path d="M21850 25565
L21850 25324
" />
<path d="M21850 24664
L21850 24418
" />
<path d="M21850 23758
L21850 23667
" />
<path d="M17059 26321
L17059 23667
" />
<path d="M18059 26321
L18059 23667
" />
<path d="M17059 26321
L18059 26321
" />
<path d="M17059 23667
L18059 23667
" />
<path d="M17350 26321
L17350 26234
" />
<path d="M17350 25565
L17350 25324
" />
<path d="M17350 24664
L17350 24418
" />
<path d="M17350 23758
L17350 23667
" />
<path d="M14859 26321
L14859 23667
" />
<path d="M15859 26321
L15859 23667
" />
<path d="M14859 26321
L15859 26321
" />
<path d="M14859 23667
L15859 23667
" />
<path d="M15150 26321
L15150 26234
" />
<path d="M15150 25565
L15150 25324
" />
<path d="M15150 24664
L15150 24418
" />
<path d="M15150 23758
L15150 23667
" />
<path d="M10359 26321
L10359 23667
" />
<path d="M11359 26321
L11359 23667
" />
<path d="M10359 26321
L11359 26321
" />
<path d="M10359 23667
L11359 23667
" />
<path d="M10650 26321
L10650 26234
" />
<path d="M10650 25565
L10650 25324
" />
<path d="M10650 24664
L10650 24418
" />
<path d="M10650 23758
L10650 23667
" />
<path d="M33821 45640
L31167 45640
" />
<path d="M33821 44640
L31167 44640
" />
<path d="M33821 45640
L33821 44640
" />
<path d="M31167 45640
L31167 44640
" />
<path d="M33821 45350
L33734 45350
" />
<path d="M33065 45350
L32824 45350
" />
<path d="M32164 45350
L31918 45350
" />
<path d="M31258 45350
L31167 45350
" />
<path d="M24138 25467
L23461 25467
" />
<path d="M23461 25467
L23461 26932
" />
<path d="M23461 26932
L24138 26932
" />
<path d="M24138 26932
L24138 25467
" />
<path d="M23800 25046
L23800 25467
" />
<path d="M23800 27353
L23800 26932
" />
<path d="M24661 28132
L25338 28132
" />
<path d="M25338 28132
L25338 26667
" />
<path d="M25338 26667
L24661 26667
" />
<path d="M24661 26667
L24661 28132
" />
<path d="M25000 28553
L25000 28132
" />
<path d="M25000 26246
L25000 26667
" />
<path d="M33832 24938
L33832 24261
" />
<path d="M33832 24261
L32367 24261
" />
<path d="M32367 24261
L32367 24938
" />
<path d="M32367 24938
L33832 24938
" />
<path d="M34253 24600
L33832 24600
" />
<path d="M31946 24600
L32367 24600
" />
<path d="M31167 23061
L31167 23738
" />
<path d="M31167 23738
L32632 23738
" />
<path d="M32632 23738
L32632 23061
" />
<path d="M32632 23061
L31167 23061
" />
<path d="M30746 23400
L31167 23400
" />
<path d="M33053 23400
L32632 23400
" />
<path d="M34332 29538
L34332 28861
" />
<path d="M34332 28861
L32867 28861
" />
<path d="M32867 28861
L32867 29538
" />
<path d="M32867 29538
L34332 29538
" />
<path d="M34753 29200
L34332 29200
" />
<path d="M32446 29200
L32867 29200
" />
<path d="M31167 27761
L31167 28438
" />
<path d="M31167 28438
L32632 28438
" />
<path d="M32632 28438
L32632 27761
" />
<path d="M32632 27761
L31167 27761
" />
<path d="M30746 28100
L31167 28100
" />
<path d="M33053 28100
L32632 28100
" />
<path d="M34332 34038
L34332 33361
" />
<path d="M34332 33361
L32867 33361
" />
<path d="M32867 33361
L32867 34038
" />
<path d="M32867 34038
L34332 34038
" />
<path d="M34753 33700
L34332 33700
" />
<path d="M32446 33700
L32867 33700
" />
<path d="M31167 32361
L31167 33038
" />
<path d="M31167 33038
L32632 33038
" />
<path d="M32632 33038
L32632 32361
" />
<path d="M32632 32361
L31167 32361
" />
<path d="M30746 32700
L31167 32700
" />
<path d="M33053 32700
L32632 32700
" />
<path d="M34332 38138
L34332 37461
" />
<path d="M34332 37461
L32867 37461
" />
<path d="M32867 37461
L32867 38138
" />
<path d="M32867 38138
L34332 38138
" />
<path d="M34753 37800
L34332 37800
" />
<path d="M32446 37800
L32867 37800
" />
<path d="M31167 36261
L31167 36938
" />
<path d="M31167 36938
L32632 36938
" />
<path d="M32632 36938
L32632 36261
" />
<path d="M32632 36261
L31167 36261
" />
<path d="M30746 36600
L31167 36600
" />
<path d="M33053 36600
L32632 36600
" />
<path d="M31167 40461
L31167 41138
" />
<path d="M31167 41138
L32632 41138
" />
<path d="M32632 41138
L32632 40461
" />
<path d="M32632 40461
L31167 40461
" />
<path d="M30746 40800
L31167 40800
" />
<path d="M33053 40800
L32632 40800
" />
<path d="M20161 25132
L20838 25132
" />
<path d="M20838 25132
L20838 23667
" />
<path d="M20838 23667
L20161 23667
" />
<path d="M20161 23667
L20161 25132
" />
<path d="M20500 25553
L20500 25132
" />
<path d="M20500 23246
L20500 23667
" />
<path d="M18661 25132
L19338 25132
" />
<path d="M19338 25132
L19338 23667
" />
<path d="M19338 23667
L18661 23667
" />
<path d="M18661 23667
L18661 25132
" />
<path d="M19000 25553
L19000 25132
" />
<path d="M19000 23246
L19000 23667
" />
<path d="M13461 25132
L14138 25132
" />
<path d="M14138 25132
L14138 23667
" />
<path d="M14138 23667
L13461 23667
" />
<path d="M13461 23667
L13461 25132
" />
<path d="M13800 25553
L13800 25132
" />
<path d="M13800 23246
L13800 23667
" />
<path d="M11961 25132
L12638 25132
" />
<path d="M12638 25132
L12638 23667
" />
<path d="M12638 23667
L11961 23667
" />
<path d="M11961 23667
L11961 25132
" />
<path d="M12300 25553
L12300 25132
" />
<path d="M12300 23246
L12300 23667
" />
<path d="M34332 46838
L34332 46161
" />
<path d="M34332 46161
L32867 46161
" />
<path d="M32867 46161
L32867 46838
" />
<path d="M32867 46838
L34332 46838
" />
<path d="M34753 46500
L34332 46500
" />
<path d="M32446 46500
L32867 46500
" />
<path d="M31167 47161
L31167 47838
" />
<path d="M31167 47838
L32632 47838
" />
<path d="M32632 47838
L32632 47161
" />
<path d="M32632 47161
L31167 47161
" />
<path d="M30746 47500
L31167 47500
" />
<path d="M33053 47500
L32632 47500
" />
<path d="M25906.3 30176.4 A393.701 393.701 0.0 0 0 26693.7 30176.4 " />
<path d="M25906 30176
L25414 30176
" />
<path d="M25414 30176
L25414 44223
" />
<path d="M25414 44223
L27185 44223
" />
<path d="M27185 44223
L27185 30176
" />
<path d="M27185 30176
L26693 30176
" />
<path d="M27028 24908
L27028 23491
" />
<path d="M25276.4 24200 A1023.62 1023.62 0.0 0 0 27023.8 24923.8 " />
<path d="M27023.8 23476.2 A1023.62 1023.62 0.0 0 0 25276.4 24200 " />
<path d="M34391 23428
L35808 23428
" />
<path d="M35100 21676.4 A1023.62 1023.62 0.0 0 0 34376.2 23423.8 " />
<path d="M35823.8 23423.8 A1023.62 1023.62 0.0 0 0 35100 21676.4 " />
<path d="M34391 27928
L35808 27928
" />
<path d="M35100 26176.4 A1023.62 1023.62 0.0 0 0 34376.2 27923.8 " />
<path d="M35823.8 27923.8 A1023.62 1023.62 0.0 0 0 35100 26176.4 " />
<path d="M34391 32528
L35808 32528
" />
<path d="M35100 30776.4 A1023.62 1023.62 0.0 0 0 34376.2 32523.8 " />
<path d="M35823.8 32523.8 A1023.62 1023.62 0.0 0 0 35100 30776.4 " />
<path d="M34391 36428
L35808 36428
" />
<path d="M35100 34676.4 A1023.62 1023.62 0.0 0 0 34376.2 36423.8 " />
<path d="M35823.8 36423.8 A1023.62 1023.62 0.0 0 0 35100 34676.4 " />
<path d="M34391 42228
L35808 42228
" />
<path d="M35100 40476.4 A1023.62 1023.62 0.0 0 0 34376.2 42223.8 " />
<path d="M35823.8 42223.8 A1023.62 1023.62 0.0 0 0 35100 40476.4 " />
<path d="M33871 47591
L33871 49008
" />
<path d="M35623.6 48300 A1023.62 1023.62 0.0 0 0 33876.2 47576.2 " />
<path d="M33876.2 49023.8 A1023.62 1023.62 0.0 0 0 35623.6 48300 " />
<path d="M22664 38595
L23735 38595
" />
<path d="M23735 38595
L23735 37051
" />
<path d="M23735 37051
L22664 37051
" />
<path d="M22664 37051
L22664 38595
" />
<path d="M23200 38914
L23200 38595
" />
<path d="M23200 36733
L23200 37051
" />
<path d="M17700 20000
L21700 20000
" />
<path d="M17700 19500
L17700 22500
" />
<path d="M17700 22500
L21700 22500
" />
<path d="M21700 22500
L21700 19500
" />
<path d="M21700 19500
L17700 19500
" />
<path d="M11100 20000
L15100 20000
" />
<path d="M11100 19500
L11100 22500
" />
<path d="M11100 22500
L15100 22500
" />
<path d="M15100 22500
L15100 19500
" />
<path d="M15100 19500
L11100 19500
" />
<path d="M23076 48223
L24123 48223
" />
<path d="M23076 46200
L23076 48223
" />
<path d="M24123 46200
L24123 48223
" />
<path d="M23076 46200
L24123 46200
" />
<path d="M23076 45700
L23076 45176
" />
<path d="M23076 45176
L23600 45176
" />
<path d="M13361 44932
L14038 44932
" />
<path d="M14038 44932
L14038 43467
" />
<path d="M14038 43467
L13361 43467
" />
<path d="M13361 43467
L13361 44932
" />
<path d="M13700 45353
L13700 44932
" />
<path d="M13700 43046
L13700 43467
" />
<path d="M12261 43932
L12938 43932
" />
<path d="M12938 43932
L12938 42467
" />
<path d="M12938 42467
L12261 42467
" />
<path d="M12261 42467
L12261 43932
" />
<path d="M12600 44353
L12600 43932
" />
<path d="M12600 42046
L12600 42467
" />
<path d="M29300 45400
L29300 49400
" />
<path d="M29800 45400
L26800 45400
" />
<path d="M26800 45400
L26800 49400
" />
<path d="M26800 49400
L29800 49400
" />
<path d="M29800 49400
L29800 45400
" />
<path d="M23723 40176
L22676 40176
" />
<path d="M23723 43200
L23723 40176
" />
<path d="M22676 43200
L22676 40176
" />
<path d="M23723 43200
L22676 43200
" />
<path d="M23723 43700
L23723 44223
" />
<path d="M23723 44223
L23200 44223
" />
<path d="M28800 19800
L28800 23800
" />
<path d="M29300 19800
L26300 19800
" />
<path d="M26300 19800
L26300 23800
" />
<path d="M26300 23800
L29300 23800
" />
<path d="M29300 23800
L29300 19800
" />
<path d="M33500 17050
L33500 21050
" />
<path d="M34000 17050
L31000 17050
" />
<path d="M31000 17050
L31000 21050
" />
<path d="M31000 21050
L34000 21050
" />
<path d="M34000 21050
L34000 17050
" />
<path d="M32850 24600
L36850 24600
" />
<path d="M32850 24100
L32850 27100
" />
<path d="M32850 27100
L36850 27100
" />
<path d="M36850 27100
L36850 24100
" />
<path d="M36850 24100
L32850 24100
" />
<path d="M36600 30900
L32600 30900
" />
<path d="M36600 31400
L36600 28400
" />
<path d="M36600 28400
L32600 28400
" />
<path d="M32600 28400
L32600 31400
" />
<path d="M32600 31400
L36600 31400
" />
<path d="M36400 39600
L32400 39600
" />
<path d="M36400 40100
L36400 37100
" />
<path d="M36400 37100
L32400 37100
" />
<path d="M32400 37100
L32400 40100
" />
<path d="M32400 40100
L36400 40100
" />
<path d="M37000 44800
L33000 44800
" />
<path d="M37000 45300
L37000 42300
" />
<path d="M37000 42300
L33000 42300
" />
<path d="M33000 42300
L33000 45300
" />
<path d="M33000 45300
L37000 45300
" />
<path d="M33500 47700
L33500 51700
" />
<path d="M34000 47700
L31000 47700
" />
<path d="M31000 47700
L31000 51700
" />
<path d="M31000 51700
L34000 51700
" />
<path d="M34000 51700
L34000 47700
" />
<path d="M28861 43932
L29538 43932
" />
<path d="M29538 43932
L29538 42467
" />
<path d="M29538 42467
L28861 42467
" />
<path d="M28861 42467
L28861 43932
" />
<path d="M29200 44353
L29200 43932
" />
<path d="M29200 42046
L29200 42467
" />
<path d="M25135.5 47000.1 A1019.69 1019.69 0.0 0 0 25135.4 48815.6 " />
<path d="M26064.6 48815.6 A1019.69 1019.69 0.0 0 0 26064.5 47000.1 " />
<path d="M26064.5 47000.1 A1019.69 1019.69 0.0 0 0 25135.4 47000.2 " />
<path d="M24596 47907
L26603 47907
" />
<path d="M24596 47892
L26603 47892
" />
<path d="M24596 47876
L26603 47876
" />
<path d="M24596 47860
L26603 47860
" />
<path d="M24597 47844
L26602 47844
" />
<path d="M24598 47829
L26601 47829
" />
<path d="M24600 47813
L26599 47813
" />
<path d="M24601 47797
L25214 47797
" />
<path d="M25985 47797
L26598 47797
" />
<path d="M24603 47781
L25214 47781
" />
<path d="M25985 47781
L26596 47781
" />
<path d="M24605 47766
L25214 47766
" />
<path d="M25985 47766
L26594 47766
" />
<path d="M24608 47750
L25214 47750
" />
<path d="M25985 47750
L26591 47750
" />
<path d="M24610 47734
L25214 47734
" />
<path d="M25985 47734
L26589 47734
" />
<path d="M24613 47718
L25214 47718
" />
<path d="M25985 47718
L26586 47718
" />
<path d="M24616 47703
L25214 47703
" />
<path d="M25985 47703
L26583 47703
" />
<path d="M24620 47687
L25214 47687
" />
<path d="M25985 47687
L26579 47687
" />
<path d="M24623 47671
L25214 47671
" />
<path d="M25985 47671
L26576 47671
" />
<path d="M24627 47655
L25214 47655
" />
<path d="M25985 47655
L26572 47655
" />
<path d="M24631 47640
L25214 47640
" />
<path d="M25985 47640
L26568 47640
" />
<path d="M24636 47624
L25214 47624
" />
<path d="M25985 47624
L26563 47624
" />
<path d="M24640 47608
L25214 47608
" />
<path d="M25985 47608
L26559 47608
" />
<path d="M24645 47592
L25214 47592
" />
<path d="M25985 47592
L26554 47592
" />
<path d="M24651 47576
L25214 47576
" />
<path d="M25985 47576
L26548 47576
" />
<path d="M24656 47561
L25214 47561
" />
<path d="M25985 47561
L26543 47561
" />
<path d="M24662 47545
L25214 47545
" />
<path d="M25985 47545
L26537 47545
" />
<path d="M24668 47529
L25214 47529
" />
<path d="M25985 47529
L26531 47529
" />
<path d="M24674 47513
L25214 47513
" />
<path d="M25985 47513
L26525 47513
" />
<path d="M24681 47498
L25214 47498
" />
<path d="M25985 47498
L26518 47498
" />
<path d="M24688 47482
L25214 47482
" />
<path d="M25985 47482
L26511 47482
" />
<path d="M24696 47466
L25214 47466
" />
<path d="M25985 47466
L26503 47466
" />
<path d="M24703 47450
L25214 47450
" />
<path d="M25985 47450
L26496 47450
" />
<path d="M24711 47435
L25214 47435
" />
<path d="M25985 47435
L26488 47435
" />
<path d="M24720 47419
L25214 47419
" />
<path d="M25985 47419
L26479 47419
" />
<path d="M24729 47403
L25214 47403
" />
<path d="M25985 47403
L26470 47403
" />
<path d="M24738 47387
L25214 47387
" />
<path d="M25985 47387
L26461 47387
" />
<path d="M24747 47372
L25214 47372
" />
<path d="M25985 47372
L26452 47372
" />
<path d="M24757 47356
L25214 47356
" />
<path d="M25985 47356
L26442 47356
" />
<path d="M24768 47340
L25214 47340
" />
<path d="M25985 47340
L26431 47340
" />
<path d="M24778 47324
L25214 47324
" />
<path d="M25985 47324
L26421 47324
" />
<path d="M24789 47309
L25214 47309
" />
<path d="M25985 47309
L26410 47309
" />
<path d="M24801 47293
L25214 47293
" />
<path d="M25985 47293
L26398 47293
" />
<path d="M24813 47277
L25214 47277
" />
<path d="M25985 47277
L26386 47277
" />
<path d="M24826 47261
L25214 47261
" />
<path d="M25985 47261
L26373 47261
" />
<path d="M24839 47246
L25214 47246
" />
<path d="M25985 47246
L26360 47246
" />
<path d="M24853 47230
L25214 47230
" />
<path d="M25985 47230
L26346 47230
" />
<path d="M24867 47214
L25214 47214
" />
<path d="M25985 47214
L26332 47214
" />
<path d="M24882 47198
L25214 47198
" />
<path d="M25985 47198
L26317 47198
" />
<path d="M24898 47183
L25214 47183
" />
<path d="M25985 47183
L26301 47183
" />
<path d="M24914 47167
L25214 47167
" />
<path d="M25985 47167
L26285 47167
" />
<path d="M24931 47151
L25214 47151
" />
<path d="M25985 47151
L26268 47151
" />
<path d="M24948 47135
L25214 47135
" />
<path d="M25985 47135
L26251 47135
" />
<path d="M24967 47120
L25214 47120
" />
<path d="M25985 47120
L26232 47120
" />
<path d="M24987 47104
L25214 47104
" />
<path d="M25985 47104
L26212 47104
" />
<path d="M25007 47088
L25214 47088
" />
<path d="M25985 47088
L26192 47088
" />
<path d="M25029 47072
L25214 47072
" />
<path d="M25985 47072
L26170 47072
" />
<path d="M25052 47057
L25214 47057
" />
<path d="M25985 47057
L26147 47057
" />
<path d="M25077 47041
L25214 47041
" />
<path d="M25985 47041
L26122 47041
" />
<path d="M25103 47025
L26096 47025
" />
<path d="M25131 47009
L26068 47009
" />
<path d="M25162 46994
L26037 46994
" />
<path d="M25195 46978
L26004 46978
" />
<path d="M25232 46962
L25967 46962
" />
<path d="M25273 46946
L25926 46946
" />
<path d="M25321 46931
L25878 46931
" />
<path d="M25379 46915
L25820 46915
" />
<path d="M25460 46899
L25739 46899
" />
<path d="M25600 49266
L25600 48793
" />
<path d="M25344 49029
L25855 49029
" />
<path d="M26064.5 46499.9 A1019.69 1019.69 0.0 0 0 26064.6 44684.4 " />
<path d="M25135.4 44684.4 A1019.69 1019.69 0.0 0 0 25135.5 46499.9 " />
<path d="M25135.5 46499.9 A1019.69 1019.69 0.0 0 0 26064.6 46499.8 " />
<path d="M26603 45592
L24596 45592
" />
<path d="M26603 45607
L24596 45607
" />
<path d="M26603 45623
L24596 45623
" />
<path d="M26603 45639
L24596 45639
" />
<path d="M26602 45655
L24597 45655
" />
<path d="M26601 45670
L24598 45670
" />
<path d="M26599 45686
L24600 45686
" />
<path d="M26598 45702
L25985 45702
" />
<path d="M25214 45702
L24601 45702
" />
<path d="M26596 45718
L25985 45718
" />
<path d="M25214 45718
L24603 45718
" />
<path d="M26594 45733
L25985 45733
" />
<path d="M25214 45733
L24605 45733
" />
<path d="M26591 45749
L25985 45749
" />
<path d="M25214 45749
L24608 45749
" />
<path d="M26589 45765
L25985 45765
" />
<path d="M25214 45765
L24610 45765
" />
<path d="M26586 45781
L25985 45781
" />
<path d="M25214 45781
L24613 45781
" />
<path d="M26583 45796
L25985 45796
" />
<path d="M25214 45796
L24616 45796
" />
<path d="M26579 45812
L25985 45812
" />
<path d="M25214 45812
L24620 45812
" />
<path d="M26576 45828
L25985 45828
" />
<path d="M25214 45828
L24623 45828
" />
<path d="M26572 45844
L25985 45844
" />
<path d="M25214 45844
L24627 45844
" />
<path d="M26568 45859
L25985 45859
" />
<path d="M25214 45859
L24631 45859
" />
<path d="M26563 45875
L25985 45875
" />
<path d="M25214 45875
L24636 45875
" />
<path d="M26559 45891
L25985 45891
" />
<path d="M25214 45891
L24640 45891
" />
<path d="M26554 45907
L25985 45907
" />
<path d="M25214 45907
L24645 45907
" />
<path d="M26548 45923
L25985 45923
" />
<path d="M25214 45923
L24651 45923
" />
<path d="M26543 45938
L25985 45938
" />
<path d="M25214 45938
L24656 45938
" />
<path d="M26537 45954
L25985 45954
" />
<path d="M25214 45954
L24662 45954
" />
<path d="M26531 45970
L25985 45970
" />
<path d="M25214 45970
L24668 45970
" />
<path d="M26525 45986
L25985 45986
" />
<path d="M25214 45986
L24674 45986
" />
<path d="M26518 46001
L25985 46001
" />
<path d="M25214 46001
L24681 46001
" />
<path d="M26511 46017
L25985 46017
" />
<path d="M25214 46017
L24688 46017
" />
<path d="M26503 46033
L25985 46033
" />
<path d="M25214 46033
L24696 46033
" />
<path d="M26496 46049
L25985 46049
" />
<path d="M25214 46049
L24703 46049
" />
<path d="M26488 46064
L25985 46064
" />
<path d="M25214 46064
L24711 46064
" />
<path d="M26479 46080
L25985 46080
" />
<path d="M25214 46080
L24720 46080
" />
<path d="M26470 46096
L25985 46096
" />
<path d="M25214 46096
L24729 46096
" />
<path d="M26461 46112
L25985 46112
" />
<path d="M25214 46112
L24738 46112
" />
<path d="M26452 46127
L25985 46127
" />
<path d="M25214 46127
L24747 46127
" />
<path d="M26442 46143
L25985 46143
" />
<path d="M25214 46143
L24757 46143
" />
<path d="M26431 46159
L25985 46159
" />
<path d="M25214 46159
L24768 46159
" />
<path d="M26421 46175
L25985 46175
" />
<path d="M25214 46175
L24778 46175
" />
<path d="M26410 46190
L25985 46190
" />
<path d="M25214 46190
L24789 46190
" />
<path d="M26398 46206
L25985 46206
" />
<path d="M25214 46206
L24801 46206
" />
<path d="M26386 46222
L25985 46222
" />
<path d="M25214 46222
L24813 46222
" />
<path d="M26373 46238
L25985 46238
" />
<path d="M25214 46238
L24826 46238
" />
<path d="M26360 46253
L25985 46253
" />
<path d="M25214 46253
L24839 46253
" />
<path d="M26346 46269
L25985 46269
" />
<path d="M25214 46269
L24853 46269
" />
<path d="M26332 46285
L25985 46285
" />
<path d="M25214 46285
L24867 46285
" />
<path d="M26317 46301
L25985 46301
" />
<path d="M25214 46301
L24882 46301
" />
<path d="M26301 46316
L25985 46316
" />
<path d="M25214 46316
L24898 46316
" />
<path d="M26285 46332
L25985 46332
" />
<path d="M25214 46332
L24914 46332
" />
<path d="M26268 46348
L25985 46348
" />
<path d="M25214 46348
L24931 46348
" />
<path d="M26251 46364
L25985 46364
" />
<path d="M25214 46364
L24948 46364
" />
<path d="M26232 46379
L25985 46379
" />
<path d="M25214 46379
L24967 46379
" />
<path d="M26212 46395
L25985 46395
" />
<path d="M25214 46395
L24987 46395
" />
<path d="M26192 46411
L25985 46411
" />
<path d="M25214 46411
L25007 46411
" />
<path d="M26170 46427
L25985 46427
" />
<path d="M25214 46427
L25029 46427
" />
<path d="M26147 46442
L25985 46442
" />
<path d="M25214 46442
L25052 46442
" />
<path d="M26122 46458
L25985 46458
" />
<path d="M25214 46458
L25077 46458
" />
<path d="M26096 46474
L25103 46474
" />
<path d="M26068 46490
L25131 46490
" />
<path d="M26037 46505
L25162 46505
" />
<path d="M26004 46521
L25195 46521
" />
<path d="M25967 46537
L25232 46537
" />
<path d="M25926 46553
L25273 46553
" />
<path d="M25878 46568
L25321 46568
" />
<path d="M25820 46584
L25379 46584
" />
<path d="M25739 46600
L25460 46600
" />
<path d="M25600 44233
L25600 44706
" />
<path d="M25855 44470
L25344 44470
" />
<path d="M22676 35223
L23723 35223
" />
<path d="M22676 35200
L22676 35223
" />
<path d="M23723 35200
L23723 35223
" />
<path d="M22676 35200
L23723 35200
" />
<path d="M22676 34700
L22676 34176
" />
<path d="M22676 34176
L23200 34176
" />
</g>
<g style="fill:#000000; fill-opacity:0.0; 
stroke:#000000; stroke-width:59.0551; stroke-opacity:1; 
stroke-linecap:round; stroke-linejoin:round;">
<path d="M15900 37484
L15900 37803
L15918 37840
L15937 37859
L15975 37878
L16050 37878
L16087 37859
L16106 37840
L16125 37803
L16125 37484
" />
<path d="M16293 37521
L16312 37503
L16349 37484
L16443 37484
L16481 37503
L16499 37521
L16518 37559
L16518 37596
L16499 37653
L16274 37878
L16518 37878
" />
<path d="M20268 31484
L20400 31878
L20531 31484
" />
<path d="M20662 31878
L20662 31484
" />
<path d="M20849 31878
L20849 31484
L21074 31878
L21074 31484
" />
<path d="M20803 32503
L20765 32484
L20709 32484
L20653 32503
L20615 32540
L20596 32578
L20578 32653
L20578 32709
L20596 32784
L20615 32821
L20653 32859
L20709 32878
L20746 32878
L20803 32859
L20821 32840
L20821 32709
L20746 32709
" />
<path d="M20484 33878
L20353 33690
" />
<path d="M20259 33878
L20259 33484
L20409 33484
L20446 33503
L20465 33521
L20484 33559
L20484 33615
L20465 33653
L20446 33671
L20409 33690
L20259 33690
" />
<path d="M20634 33859
L20690 33878
L20784 33878
L20821 33859
L20840 33840
L20859 33803
L20859 33765
L20840 33728
L20821 33709
L20784 33690
L20709 33671
L20671 33653
L20653 33634
L20634 33596
L20634 33559
L20653 33521
L20671 33503
L20709 33484
L20803 33484
L20859 33503
" />
<path d="M20971 33484
L21196 33484
" />
<path d="M21084 33878
L21084 33484
" />
<path d="M20409 34671
L20540 34671
" />
<path d="M20596 34878
L20409 34878
L20409 34484
L20596 34484
" />
<path d="M20765 34878
L20765 34484
L20990 34878
L20990 34484
" />
<path d="M20400 35484
L20643 35484
L20512 35634
L20568 35634
L20606 35653
L20625 35671
L20643 35709
L20643 35803
L20625 35840
L20606 35859
L20568 35878
L20456 35878
L20418 35859
L20400 35840
" />
<path d="M20756 35484
L20887 35878
L21018 35484
" />
<path d="M20803 36503
L20765 36484
L20709 36484
L20653 36503
L20615 36540
L20596 36578
L20578 36653
L20578 36709
L20596 36784
L20615 36821
L20653 36859
L20709 36878
L20746 36878
L20803 36859
L20821 36840
L20821 36709
L20746 36709
" />
<path d="M20390 37859
L20446 37878
L20540 37878
L20578 37859
L20596 37840
L20615 37803
L20615 37765
L20596 37728
L20578 37709
L20540 37690
L20465 37671
L20428 37653
L20409 37634
L20390 37596
L20390 37559
L20409 37521
L20428 37503
L20465 37484
L20559 37484
L20615 37503
" />
<path d="M20784 37878
L20784 37484
" />
<path d="M21009 37878
L20840 37653
" />
<path d="M21009 37484
L20784 37709
" />
<path d="M20381 38859
L20437 38878
L20531 38878
L20568 38859
L20587 38840
L20606 38803
L20606 38765
L20587 38728
L20568 38709
L20531 38690
L20456 38671
L20418 38653
L20400 38634
L20381 38596
L20381 38559
L20400 38521
L20418 38503
L20456 38484
L20550 38484
L20606 38503
" />
<path d="M20849 38484
L20924 38484
L20962 38503
L20999 38540
L21018 38615
L21018 38746
L20999 38821
L20962 38859
L20924 38878
L20849 38878
L20812 38859
L20774 38821
L20756 38746
L20756 38615
L20774 38540
L20812 38503
L20849 38484
" />
<path d="M20390 39859
L20446 39878
L20540 39878
L20578 39859
L20596 39840
L20615 39803
L20615 39765
L20596 39728
L20578 39709
L20540 39690
L20465 39671
L20428 39653
L20409 39634
L20390 39596
L20390 39559
L20409 39521
L20428 39503
L20465 39484
L20559 39484
L20615 39503
" />
<path d="M21009 39840
L20990 39859
L20934 39878
L20896 39878
L20840 39859
L20803 39821
L20784 39784
L20765 39709
L20765 39653
L20784 39578
L20803 39540
L20840 39503
L20896 39484
L20934 39484
L20990 39503
L21009 39521
" />
<path d="M20400 40859
L20456 40878
L20550 40878
L20587 40859
L20606 40840
L20625 40803
L20625 40765
L20606 40728
L20587 40709
L20550 40690
L20475 40671
L20437 40653
L20418 40634
L20400 40596
L20400 40559
L20418 40521
L20437 40503
L20475 40484
L20568 40484
L20625 40503
" />
<path d="M20999 40878
L20774 40878
" />
<path d="M20887 40878
L20887 40484
L20849 40540
L20812 40578
L20774 40596
" />
<path d="M20400 41859
L20456 41878
L20550 41878
L20587 41859
L20606 41840
L20625 41803
L20625 41765
L20606 41728
L20587 41709
L20550 41690
L20475 41671
L20437 41653
L20418 41634
L20400 41596
L20400 41559
L20418 41521
L20437 41503
L20475 41484
L20568 41484
L20625 41503
" />
<path d="M20774 41521
L20793 41503
L20831 41484
L20924 41484
L20962 41503
L20981 41521
L20999 41559
L20999 41596
L20981 41653
L20756 41878
L20999 41878
" />
<path d="M20400 42859
L20456 42878
L20550 42878
L20587 42859
L20606 42840
L20625 42803
L20625 42765
L20606 42728
L20587 42709
L20550 42690
L20475 42671
L20437 42653
L20418 42634
L20400 42596
L20400 42559
L20418 42521
L20437 42503
L20475 42484
L20568 42484
L20625 42503
" />
<path d="M20756 42484
L20999 42484
L20868 42634
L20924 42634
L20962 42653
L20981 42671
L20999 42709
L20999 42803
L20981 42840
L20962 42859
L20924 42878
L20812 42878
L20774 42859
L20756 42840
" />
<path d="M20362 43484
L20493 43878
L20625 43484
" />
<path d="M20756 43484
L20756 43803
L20774 43840
L20793 43859
L20831 43878
L20906 43878
L20943 43859
L20962 43840
L20981 43803
L20981 43484
" />
<path d="M20803 44503
L20765 44484
L20709 44484
L20653 44503
L20615 44540
L20596 44578
L20578 44653
L20578 44709
L20596 44784
L20615 44821
L20653 44859
L20709 44878
L20746 44878
L20803 44859
L20821 44840
L20821 44709
L20746 44709
" />
<path d="M20418 45765
L20606 45765
" />
<path d="M20381 45878
L20512 45484
L20643 45878
" />
<path d="M20849 45484
L20887 45484
L20924 45503
L20943 45521
L20962 45559
L20981 45634
L20981 45728
L20962 45803
L20943 45840
L20924 45859
L20887 45878
L20849 45878
L20812 45859
L20793 45840
L20774 45803
L20756 45728
L20756 45634
L20774 45559
L20793 45521
L20812 45503
L20849 45484
" />
<path d="M11400 31484
L11643 31484
L11512 31634
L11568 31634
L11606 31653
L11625 31671
L11643 31709
L11643 31803
L11625 31840
L11606 31859
L11568 31878
L11456 31878
L11418 31859
L11400 31840
" />
<path d="M11756 31484
L11887 31878
L12018 31484
" />
<path d="M11803 32503
L11765 32484
L11709 32484
L11653 32503
L11615 32540
L11596 32578
L11578 32653
L11578 32709
L11596 32784
L11615 32821
L11653 32859
L11709 32878
L11746 32878
L11803 32859
L11821 32840
L11821 32709
L11746 32709
" />
<path d="M11400 33484
L11625 33484
" />
<path d="M11512 33878
L11512 33484
" />
<path d="M11718 33484
L11981 33878
" />
<path d="M11981 33484
L11718 33878
" />
<path d="M11634 34878
L11503 34690
" />
<path d="M11409 34878
L11409 34484
L11559 34484
L11596 34503
L11615 34521
L11634 34559
L11634 34615
L11615 34653
L11596 34671
L11559 34690
L11409 34690
" />
<path d="M11765 34484
L12028 34878
" />
<path d="M12028 34484
L11765 34878
" />
<path d="M11409 35878
L11409 35484
L11503 35484
L11559 35503
L11596 35540
L11615 35578
L11634 35653
L11634 35709
L11615 35784
L11596 35821
L11559 35859
L11503 35878
L11409 35878
" />
<path d="M11859 35653
L11821 35634
L11803 35615
L11784 35578
L11784 35559
L11803 35521
L11821 35503
L11859 35484
L11934 35484
L11971 35503
L11990 35521
L12009 35559
L12009 35578
L11990 35615
L11971 35634
L11934 35653
L11859 35653
L11821 35671
L11803 35690
L11784 35728
L11784 35803
L11803 35840
L11821 35859
L11859 35878
L11934 35878
L11971 35859
L11990 35840
L12009 35803
L12009 35728
L11990 35690
L11971 35671
L11934 35653
" />
<path d="M11409 36878
L11409 36484
L11503 36484
L11559 36503
L11596 36540
L11615 36578
L11634 36653
L11634 36709
L11615 36784
L11596 36821
L11559 36859
L11503 36878
L11409 36878
" />
<path d="M11765 36484
L12028 36484
L11859 36878
" />
<path d="M11409 37878
L11409 37484
L11503 37484
L11559 37503
L11596 37540
L11615 37578
L11634 37653
L11634 37709
L11615 37784
L11596 37821
L11559 37859
L11503 37878
L11409 37878
" />
<path d="M11971 37484
L11896 37484
L11859 37503
L11840 37521
L11803 37578
L11784 37653
L11784 37803
L11803 37840
L11821 37859
L11859 37878
L11934 37878
L11971 37859
L11990 37840
L12009 37803
L12009 37709
L11990 37671
L11971 37653
L11934 37634
L11859 37634
L11821 37653
L11803 37671
L11784 37709
" />
<path d="M11409 38878
L11409 38484
L11503 38484
L11559 38503
L11596 38540
L11615 38578
L11634 38653
L11634 38709
L11615 38784
L11596 38821
L11559 38859
L11503 38878
L11409 38878
" />
<path d="M11990 38484
L11803 38484
L11784 38671
L11803 38653
L11840 38634
L11934 38634
L11971 38653
L11990 38671
L12009 38709
L12009 38803
L11990 38840
L11971 38859
L11934 38878
L11840 38878
L11803 38859
L11784 38840
" />
<path d="M11803 39503
L11765 39484
L11709 39484
L11653 39503
L11615 39540
L11596 39578
L11578 39653
L11578 39709
L11596 39784
L11615 39821
L11653 39859
L11709 39878
L11746 39878
L11803 39859
L11821 39840
L11821 39709
L11746 39709
" />
<path d="M11400 40484
L11643 40484
L11512 40634
L11568 40634
L11606 40653
L11625 40671
L11643 40709
L11643 40803
L11625 40840
L11606 40859
L11568 40878
L11456 40878
L11418 40859
L11400 40840
" />
<path d="M11756 40484
L11887 40878
L12018 40484
" />
<path d="M11409 41878
L11409 41484
L11503 41484
L11559 41503
L11596 41540
L11615 41578
L11634 41653
L11634 41709
L11615 41784
L11596 41821
L11559 41859
L11503 41878
L11409 41878
" />
<path d="M11971 41615
L11971 41878
" />
<path d="M11878 41465
L11784 41746
L12028 41746
" />
<path d="M11409 42878
L11409 42484
L11503 42484
L11559 42503
L11596 42540
L11615 42578
L11634 42653
L11634 42709
L11615 42784
L11596 42821
L11559 42859
L11503 42878
L11409 42878
" />
<path d="M11765 42484
L12009 42484
L11878 42634
L11934 42634
L11971 42653
L11990 42671
L12009 42709
L12009 42803
L11990 42840
L11971 42859
L11934 42878
L11821 42878
L11784 42859
L11765 42840
" />
<path d="M11409 43878
L11409 43484
L11503 43484
L11559 43503
L11596 43540
L11615 43578
L11634 43653
L11634 43709
L11615 43784
L11596 43821
L11559 43859
L11503 43878
L11409 43878
" />
<path d="M11784 43521
L11803 43503
L11840 43484
L11934 43484
L11971 43503
L11990 43521
L12009 43559
L12009 43596
L11990 43653
L11765 43878
L12009 43878
" />
<path d="M11409 44878
L11409 44484
L11503 44484
L11559 44503
L11596 44540
L11615 44578
L11634 44653
L11634 44709
L11615 44784
L11596 44821
L11559 44859
L11503 44878
L11409 44878
" />
<path d="M12009 44878
L11784 44878
" />
<path d="M11896 44878
L11896 44484
L11859 44540
L11821 44578
L11784 44596
" />
<path d="M11409 45878
L11409 45484
L11503 45484
L11559 45503
L11596 45540
L11615 45578
L11634 45653
L11634 45709
L11615 45784
L11596 45821
L11559 45859
L11503 45878
L11409 45878
" />
<path d="M11878 45484
L11915 45484
L11953 45503
L11971 45521
L11990 45559
L12009 45634
L12009 45728
L11990 45803
L11971 45840
L11953 45859
L11915 45878
L11878 45878
L11840 45859
L11821 45840
L11803 45803
L11784 45728
L11784 45634
L11803 45559
L11821 45521
L11840 45503
L11878 45484
" />
<path d="M33346 40610
L33215 40422
" />
<path d="M33121 40610
L33121 40216
L33271 40216
L33309 40235
L33328 40254
L33346 40291
L33346 40347
L33328 40385
L33309 40404
L33271 40422
L33121 40422
" />
<path d="M33721 40610
L33496 40610
" />
<path d="M33609 40610
L33609 40216
L33571 40272
L33534 40310
L33496 40329
" />
<path d="M34096 40610
L33871 40610
" />
<path d="M33984 40610
L33984 40216
L33946 40272
L33909 40310
L33871 40329
" />
<path d="M27350 26843
L27331 26880
L27294 26917
L27237 26974
L27219 27011
L27219 27049
" />
<path d="M27312 27030
L27294 27067
L27256 27105
L27181 27124
L27050 27124
L26975 27105
L26937 27067
L26919 27030
L26919 26955
L26937 26917
L26975 26880
L27050 26861
L27181 26861
L27256 26880
L27294 26917
L27312 26955
L27312 27030
" />
<path d="M26956 26711
L26937 26693
L26919 26655
L26919 26561
L26937 26524
L26956 26505
L26994 26486
L27031 26486
L27087 26505
L27312 26730
L27312 26486
" />
<path d="M32456 22750
L32419 22731
L32382 22694
L32325 22637
L32288 22619
L32250 22619
" />
<path d="M32269 22712
L32232 22694
L32194 22656
L32175 22581
L32175 22450
L32194 22375
L32232 22337
L32269 22319
L32344 22319
L32382 22337
L32419 22375
L32438 22450
L32438 22581
L32419 22656
L32382 22694
L32344 22712
L32269 22712
" />
<path d="M32775 22450
L32775 22712
" />
<path d="M32681 22300
L32588 22581
L32831 22581
" />
<path d="M32456 27750
L32419 27731
L32382 27694
L32325 27637
L32288 27619
L32250 27619
" />
<path d="M32269 27712
L32232 27694
L32194 27656
L32175 27581
L32175 27450
L32194 27375
L32232 27337
L32269 27319
L32344 27319
L32382 27337
L32419 27375
L32438 27450
L32438 27581
L32419 27656
L32382 27694
L32344 27712
L32269 27712
" />
<path d="M32775 27319
L32700 27319
L32663 27337
L32644 27356
L32606 27412
L32588 27487
L32588 27637
L32606 27675
L32625 27694
L32663 27712
L32738 27712
L32775 27694
L32794 27675
L32813 27637
L32813 27544
L32794 27506
L32775 27487
L32738 27469
L32663 27469
L32625 27487
L32606 27506
L32588 27544
" />
<path d="M32456 32350
L32419 32331
L32382 32294
L32325 32237
L32288 32219
L32250 32219
" />
<path d="M32269 32312
L32232 32294
L32194 32256
L32175 32181
L32175 32050
L32194 31975
L32232 31937
L32269 31919
L32344 31919
L32382 31937
L32419 31975
L32438 32050
L32438 32181
L32419 32256
L32382 32294
L32344 32312
L32269 32312
" />
<path d="M32663 32087
L32625 32069
L32606 32050
L32588 32012
L32588 31994
L32606 31956
L32625 31937
L32663 31919
L32738 31919
L32775 31937
L32794 31956
L32813 31994
L32813 32012
L32794 32050
L32775 32069
L32738 32087
L32663 32087
L32625 32106
L32606 32125
L32588 32162
L32588 32237
L32606 32275
L32625 32294
L32663 32312
L32738 32312
L32775 32294
L32794 32275
L32813 32237
L32813 32162
L32794 32125
L32775 32106
L32738 32087
" />
<path d="M32269 36350
L32232 36331
L32194 36294
L32138 36237
L32100 36219
L32063 36219
" />
<path d="M32082 36312
L32044 36294
L32007 36256
L31988 36181
L31988 36050
L32007 35975
L32044 35937
L32082 35919
L32157 35919
L32194 35937
L32232 35975
L32250 36050
L32250 36181
L32232 36256
L32194 36294
L32157 36312
L32082 36312
" />
<path d="M32625 36312
L32400 36312
" />
<path d="M32513 36312
L32513 35919
L32475 35975
L32438 36012
L32400 36031
" />
<path d="M32869 35919
L32906 35919
L32944 35937
L32963 35956
L32981 35994
L33000 36069
L33000 36162
L32981 36237
L32963 36275
L32944 36294
L32906 36312
L32869 36312
L32831 36294
L32813 36275
L32794 36237
L32775 36162
L32775 36069
L32794 35994
L32813 35956
L32831 35937
L32869 35919
" />
<path d="M32269 43450
L32232 43431
L32194 43394
L32138 43337
L32100 43319
L32063 43319
" />
<path d="M32082 43412
L32044 43394
L32007 43356
L31988 43281
L31988 43150
L32007 43075
L32044 43037
L32082 43019
L32157 43019
L32194 43037
L32232 43075
L32250 43150
L32250 43281
L32232 43356
L32194 43394
L32157 43412
L32082 43412
" />
<path d="M32625 43412
L32400 43412
" />
<path d="M32513 43412
L32513 43019
L32475 43075
L32438 43112
L32400 43131
" />
<path d="M32775 43056
L32794 43037
L32831 43019
L32925 43019
L32963 43037
L32981 43056
L33000 43094
L33000 43131
L32981 43187
L32756 43412
L33000 43412
" />
<path d="M21380 25219
L21362 25256
L21324 25294
L21268 25350
L21249 25388
L21249 25425
" />
<path d="M21343 25406
L21324 25444
L21287 25481
L21212 25500
L21080 25500
L21005 25481
L20968 25444
L20949 25406
L20949 25331
L20968 25294
L21005 25256
L21080 25238
L21212 25238
L21287 25256
L21324 25294
L21343 25331
L21343 25406
" />
<path d="M21343 24863
L21343 25088
" />
<path d="M21343 24975
L20949 24975
L21005 25013
L21043 25050
L21062 25088
" />
<path d="M20949 24732
L20949 24488
L21099 24619
L21099 24563
L21118 24525
L21137 24507
L21174 24488
L21268 24488
L21305 24507
L21324 24525
L21343 24563
L21343 24675
L21324 24713
L21305 24732
" />
<path d="M16880 25219
L16862 25256
L16824 25294
L16768 25350
L16749 25388
L16749 25425
" />
<path d="M16843 25406
L16824 25444
L16787 25481
L16712 25500
L16580 25500
L16505 25481
L16468 25444
L16449 25406
L16449 25331
L16468 25294
L16505 25256
L16580 25238
L16712 25238
L16787 25256
L16824 25294
L16843 25331
L16843 25406
" />
<path d="M16843 24863
L16843 25088
" />
<path d="M16843 24975
L16449 24975
L16505 25013
L16543 25050
L16562 25088
" />
<path d="M16580 24525
L16843 24525
" />
<path d="M16431 24619
L16712 24713
L16712 24469
" />
<path d="M14680 25219
L14662 25256
L14624 25294
L14568 25350
L14549 25388
L14549 25425
" />
<path d="M14643 25406
L14624 25444
L14587 25481
L14512 25500
L14380 25500
L14305 25481
L14268 25444
L14249 25406
L14249 25331
L14268 25294
L14305 25256
L14380 25238
L14512 25238
L14587 25256
L14624 25294
L14643 25331
L14643 25406
" />
<path d="M14643 24863
L14643 25088
" />
<path d="M14643 24975
L14249 24975
L14305 25013
L14343 25050
L14362 25088
" />
<path d="M14249 24507
L14249 24694
L14437 24713
L14418 24694
L14399 24657
L14399 24563
L14418 24525
L14437 24507
L14474 24488
L14568 24488
L14605 24507
L14624 24525
L14643 24563
L14643 24657
L14624 24694
L14605 24713
" />
<path d="M10180 25219
L10162 25256
L10124 25294
L10068 25350
L10049 25388
L10049 25425
" />
<path d="M10143 25406
L10124 25444
L10087 25481
L10012 25500
L9880 25500
L9805 25481
L9768 25444
L9749 25406
L9749 25331
L9768 25294
L9805 25256
L9880 25238
L10012 25238
L10087 25256
L10124 25294
L10143 25331
L10143 25406
" />
<path d="M10143 24863
L10143 25088
" />
<path d="M10143 24975
L9749 24975
L9805 25013
L9843 25050
L9862 25088
" />
<path d="M9749 24525
L9749 24600
L9768 24638
L9787 24657
L9843 24694
L9918 24713
L10068 24713
L10105 24694
L10124 24675
L10143 24638
L10143 24563
L10124 24525
L10105 24507
L10068 24488
L9974 24488
L9937 24507
L9918 24525
L9899 24563
L9899 24638
L9918 24675
L9937 24694
L9974 24713
" />
<path d="M32269 46250
L32232 46231
L32194 46194
L32138 46137
L32100 46119
L32063 46119
" />
<path d="M32082 46212
L32044 46194
L32007 46156
L31988 46081
L31988 45950
L32007 45875
L32044 45837
L32082 45819
L32157 45819
L32194 45837
L32232 45875
L32250 45950
L32250 46081
L32232 46156
L32194 46194
L32157 46212
L32082 46212
" />
<path d="M32625 46212
L32400 46212
" />
<path d="M32513 46212
L32513 45819
L32475 45875
L32438 45912
L32400 45931
" />
<path d="M32850 45987
L32813 45969
L32794 45950
L32775 45912
L32775 45894
L32794 45856
L32813 45837
L32850 45819
L32925 45819
L32963 45837
L32981 45856
L33000 45894
L33000 45912
L32981 45950
L32963 45969
L32925 45987
L32850 45987
L32813 46006
L32794 46025
L32775 46062
L32775 46137
L32794 46175
L32813 46194
L32850 46212
L32925 46212
L32963 46194
L32981 46175
L33000 46137
L33000 46062
L32981 46025
L32963 46006
L32925 45987
" />
<path d="M24710 26265
L24522 26396
" />
<path d="M24710 26490
L24316 26490
L24316 26340
L24335 26303
L24354 26284
L24391 26265
L24447 26265
L24485 26284
L24504 26303
L24522 26340
L24522 26490
" />
<path d="M24710 25890
L24710 26115
" />
<path d="M24710 26003
L24316 26003
L24372 26040
L24410 26078
L24429 26115
" />
<path d="M24445 27465
L24258 27596
" />
<path d="M24445 27690
L24052 27690
L24052 27540
L24070 27503
L24089 27484
L24127 27465
L24183 27465
L24220 27484
L24239 27503
L24258 27540
L24258 27690
" />
<path d="M24089 27315
L24070 27296
L24052 27259
L24052 27165
L24070 27128
L24089 27109
L24127 27090
L24164 27090
L24220 27109
L24445 27334
L24445 27090
" />
<path d="M33034 25510
L32903 25322
" />
<path d="M32809 25510
L32809 25116
L32959 25116
L32996 25135
L33015 25154
L33034 25191
L33034 25247
L33015 25285
L32996 25304
L32959 25322
L32809 25322
" />
<path d="M33165 25116
L33409 25116
L33278 25266
L33334 25266
L33371 25285
L33390 25304
L33409 25341
L33409 25435
L33390 25472
L33371 25491
L33334 25510
L33221 25510
L33184 25491
L33165 25472
" />
<path d="M31834 22845
L31703 22658
" />
<path d="M31609 22845
L31609 22452
L31759 22452
L31796 22470
L31815 22489
L31834 22527
L31834 22583
L31815 22620
L31796 22639
L31759 22658
L31609 22658
" />
<path d="M32171 22583
L32171 22845
" />
<path d="M32078 22433
L31984 22714
L32228 22714
" />
<path d="M34334 28578
L34203 28390
" />
<path d="M34109 28578
L34109 28184
L34259 28184
L34296 28203
L34315 28221
L34334 28259
L34334 28315
L34315 28353
L34296 28371
L34259 28390
L34109 28390
" />
<path d="M34690 28184
L34503 28184
L34484 28371
L34503 28353
L34540 28334
L34634 28334
L34671 28353
L34690 28371
L34709 28409
L34709 28503
L34690 28540
L34671 28559
L34634 28578
L34540 28578
L34503 28559
L34484 28540
" />
<path d="M31834 27545
L31703 27358
" />
<path d="M31609 27545
L31609 27152
L31759 27152
L31796 27170
L31815 27189
L31834 27227
L31834 27283
L31815 27320
L31796 27339
L31759 27358
L31609 27358
" />
<path d="M32171 27152
L32096 27152
L32059 27170
L32040 27189
L32003 27245
L31984 27320
L31984 27470
L32003 27508
L32021 27527
L32059 27545
L32134 27545
L32171 27527
L32190 27508
L32209 27470
L32209 27377
L32190 27339
L32171 27320
L32134 27302
L32059 27302
L32021 27320
L32003 27339
L31984 27377
" />
<path d="M33534 34610
L33403 34422
" />
<path d="M33309 34610
L33309 34216
L33459 34216
L33496 34235
L33515 34254
L33534 34291
L33534 34347
L33515 34385
L33496 34404
L33459 34422
L33309 34422
" />
<path d="M33665 34216
L33928 34216
L33759 34610
" />
<path d="M31834 32145
L31703 31958
" />
<path d="M31609 32145
L31609 31752
L31759 31752
L31796 31770
L31815 31789
L31834 31827
L31834 31883
L31815 31920
L31796 31939
L31759 31958
L31609 31958
" />
<path d="M32059 31920
L32021 31902
L32003 31883
L31984 31845
L31984 31827
L32003 31789
L32021 31770
L32059 31752
L32134 31752
L32171 31770
L32190 31789
L32209 31827
L32209 31845
L32190 31883
L32171 31902
L32134 31920
L32059 31920
L32021 31939
L32003 31958
L31984 31995
L31984 32070
L32003 32108
L32021 32127
L32059 32145
L32134 32145
L32171 32127
L32190 32108
L32209 32070
L32209 31995
L32190 31958
L32171 31939
L32134 31920
" />
<path d="M33534 38710
L33403 38522
" />
<path d="M33309 38710
L33309 38316
L33459 38316
L33496 38335
L33515 38354
L33534 38391
L33534 38447
L33515 38485
L33496 38504
L33459 38522
L33309 38522
" />
<path d="M33721 38710
L33796 38710
L33834 38691
L33853 38672
L33890 38616
L33909 38541
L33909 38391
L33890 38354
L33871 38335
L33834 38316
L33759 38316
L33721 38335
L33703 38354
L33684 38391
L33684 38485
L33703 38522
L33721 38541
L33759 38560
L33834 38560
L33871 38541
L33890 38522
L33909 38485
" />
<path d="M31646 36045
L31515 35858
" />
<path d="M31421 36045
L31421 35652
L31571 35652
L31609 35670
L31628 35689
L31646 35727
L31646 35783
L31628 35820
L31609 35839
L31571 35858
L31421 35858
" />
<path d="M32021 36045
L31796 36045
" />
<path d="M31909 36045
L31909 35652
L31871 35708
L31834 35745
L31796 35764
" />
<path d="M32265 35652
L32303 35652
L32340 35670
L32359 35689
L32378 35727
L32396 35802
L32396 35895
L32378 35970
L32359 36008
L32340 36027
L32303 36045
L32265 36045
L32228 36027
L32209 36008
L32190 35970
L32171 35895
L32171 35802
L32190 35727
L32209 35689
L32228 35670
L32265 35652
" />
<path d="M31646 40245
L31515 40058
" />
<path d="M31421 40245
L31421 39852
L31571 39852
L31609 39870
L31628 39889
L31646 39927
L31646 39983
L31628 40020
L31609 40039
L31571 40058
L31421 40058
" />
<path d="M32021 40245
L31796 40245
" />
<path d="M31909 40245
L31909 39852
L31871 39908
L31834 39945
L31796 39964
" />
<path d="M32171 39889
L32190 39870
L32228 39852
L32321 39852
L32359 39870
L32378 39889
L32396 39927
L32396 39964
L32378 40020
L32153 40245
L32396 40245
" />
<path d="M19945 24653
L19758 24784
" />
<path d="M19945 24878
L19552 24878
L19552 24728
L19570 24690
L19589 24671
L19627 24653
L19683 24653
L19720 24671
L19739 24690
L19758 24728
L19758 24878
" />
<path d="M19945 24278
L19945 24503
" />
<path d="M19945 24390
L19552 24390
L19608 24428
L19645 24465
L19664 24503
" />
<path d="M19552 24146
L19552 23903
L19702 24034
L19702 23978
L19720 23940
L19739 23921
L19777 23903
L19870 23903
L19908 23921
L19927 23940
L19945 23978
L19945 24090
L19927 24128
L19908 24146
" />
<path d="M18445 24653
L18258 24784
" />
<path d="M18445 24878
L18052 24878
L18052 24728
L18070 24690
L18089 24671
L18127 24653
L18183 24653
L18220 24671
L18239 24690
L18258 24728
L18258 24878
" />
<path d="M18445 24278
L18445 24503
" />
<path d="M18445 24390
L18052 24390
L18108 24428
L18145 24465
L18164 24503
" />
<path d="M18183 23940
L18445 23940
" />
<path d="M18033 24034
L18314 24128
L18314 23884
" />
<path d="M13245 24653
L13058 24784
" />
<path d="M13245 24878
L12852 24878
L12852 24728
L12870 24690
L12889 24671
L12927 24653
L12983 24653
L13020 24671
L13039 24690
L13058 24728
L13058 24878
" />
<path d="M13245 24278
L13245 24503
" />
<path d="M13245 24390
L12852 24390
L12908 24428
L12945 24465
L12964 24503
" />
<path d="M12852 23921
L12852 24109
L13039 24128
L13020 24109
L13002 24071
L13002 23978
L13020 23940
L13039 23921
L13077 23903
L13170 23903
L13208 23921
L13227 23940
L13245 23978
L13245 24071
L13227 24109
L13208 24128
" />
<path d="M11745 24653
L11558 24784
" />
<path d="M11745 24878
L11352 24878
L11352 24728
L11370 24690
L11389 24671
L11427 24653
L11483 24653
L11520 24671
L11539 24690
L11558 24728
L11558 24878
" />
<path d="M11745 24278
L11745 24503
" />
<path d="M11745 24390
L11352 24390
L11408 24428
L11445 24465
L11464 24503
" />
<path d="M11352 23940
L11352 24015
L11370 24053
L11389 24071
L11445 24109
L11520 24128
L11670 24128
L11708 24109
L11727 24090
L11745 24053
L11745 23978
L11727 23940
L11708 23921
L11670 23903
L11577 23903
L11539 23921
L11520 23940
L11502 23978
L11502 24053
L11520 24090
L11539 24109
L11577 24128
" />
<path d="M33346 47410
L33215 47222
" />
<path d="M33121 47410
L33121 47016
L33271 47016
L33309 47035
L33328 47054
L33346 47091
L33346 47147
L33328 47185
L33309 47204
L33271 47222
L33121 47222
" />
<path d="M33721 47410
L33496 47410
" />
<path d="M33609 47410
L33609 47016
L33571 47072
L33534 47110
L33496 47129
" />
<path d="M33853 47016
L34115 47016
L33946 47410
" />
<path d="M31646 46945
L31515 46758
" />
<path d="M31421 46945
L31421 46552
L31571 46552
L31609 46570
L31628 46589
L31646 46627
L31646 46683
L31628 46720
L31609 46739
L31571 46758
L31421 46758
" />
<path d="M32021 46945
L31796 46945
" />
<path d="M31909 46945
L31909 46552
L31871 46608
L31834 46645
L31796 46664
" />
<path d="M32246 46720
L32209 46702
L32190 46683
L32171 46645
L32171 46627
L32190 46589
L32209 46570
L32246 46552
L32321 46552
L32359 46570
L32378 46589
L32396 46627
L32396 46645
L32378 46683
L32359 46702
L32321 46720
L32246 46720
L32209 46739
L32190 46758
L32171 46795
L32171 46870
L32190 46908
L32209 46927
L32246 46945
L32321 46945
L32359 46927
L32378 46908
L32396 46870
L32396 46795
L32378 46758
L32359 46739
L32321 46720
" />
<path d="M26000 29567
L26000 29885
L26018 29923
L26037 29942
L26075 29960
L26150 29960
L26187 29942
L26206 29923
L26225 29885
L26225 29567
" />
<path d="M26618 29960
L26393 29960
" />
<path d="M26506 29960
L26506 29567
L26468 29623
L26431 29660
L26393 29679
" />
<path d="M25114 24237
L25095 24274
L25057 24312
L25001 24368
L24982 24406
L24982 24443
" />
<path d="M25076 24424
L25057 24462
L25020 24499
L24945 24518
L24814 24518
L24739 24499
L24701 24462
L24682 24424
L24682 24349
L24701 24312
L24739 24274
L24814 24256
L24945 24256
L25020 24274
L25057 24312
L25076 24349
L25076 24424
" />
<path d="M25076 23881
L25076 24106
" />
<path d="M25076 23993
L24682 23993
L24739 24031
L24776 24068
L24795 24106
" />
<path d="M35062 21514
L35025 21495
L34987 21457
L34931 21401
L34893 21382
L34856 21382
" />
<path d="M34875 21476
L34837 21457
L34800 21420
L34781 21345
L34781 21214
L34800 21139
L34837 21101
L34875 21082
L34950 21082
L34987 21101
L35025 21139
L35043 21214
L35043 21345
L35025 21420
L34987 21457
L34950 21476
L34875 21476
" />
<path d="M35174 21082
L35418 21082
L35287 21232
L35343 21232
L35381 21251
L35399 21270
L35418 21307
L35418 21401
L35399 21439
L35381 21457
L35343 21476
L35231 21476
L35193 21457
L35174 21439
" />
<path d="M36462 26615
L36425 26596
L36387 26559
L36331 26503
L36293 26484
L36256 26484
" />
<path d="M36275 26578
L36237 26559
L36200 26521
L36181 26446
L36181 26315
L36200 26240
L36237 26203
L36275 26184
L36350 26184
L36387 26203
L36425 26240
L36443 26315
L36443 26446
L36425 26521
L36387 26559
L36350 26578
L36275 26578
" />
<path d="M36799 26184
L36612 26184
L36593 26371
L36612 26353
L36649 26334
L36743 26334
L36781 26353
L36799 26371
L36818 26409
L36818 26503
L36799 26540
L36781 26559
L36743 26578
L36649 26578
L36612 26559
L36593 26540
" />
<path d="M35062 30614
L35025 30595
L34987 30557
L34931 30501
L34893 30482
L34856 30482
" />
<path d="M34875 30576
L34837 30557
L34800 30520
L34781 30445
L34781 30314
L34800 30239
L34837 30201
L34875 30182
L34950 30182
L34987 30201
L35025 30239
L35043 30314
L35043 30445
L35025 30520
L34987 30557
L34950 30576
L34875 30576
" />
<path d="M35174 30182
L35437 30182
L35268 30576
" />
<path d="M35062 34514
L35025 34495
L34987 34457
L34931 34401
L34893 34382
L34856 34382
" />
<path d="M34875 34476
L34837 34457
L34800 34420
L34781 34345
L34781 34214
L34800 34139
L34837 34101
L34875 34082
L34950 34082
L34987 34101
L35025 34139
L35043 34214
L35043 34345
L35025 34420
L34987 34457
L34950 34476
L34875 34476
" />
<path d="M35231 34476
L35306 34476
L35343 34457
L35362 34439
L35399 34382
L35418 34307
L35418 34157
L35399 34120
L35381 34101
L35343 34082
L35268 34082
L35231 34101
L35212 34120
L35193 34157
L35193 34251
L35212 34289
L35231 34307
L35268 34326
L35343 34326
L35381 34307
L35399 34289
L35418 34251
" />
<path d="M34875 40314
L34837 40295
L34800 40257
L34743 40201
L34706 40182
L34668 40182
" />
<path d="M34687 40276
L34650 40257
L34612 40220
L34593 40145
L34593 40014
L34612 39939
L34650 39901
L34687 39882
L34762 39882
L34800 39901
L34837 39939
L34856 40014
L34856 40145
L34837 40220
L34800 40257
L34762 40276
L34687 40276
" />
<path d="M35231 40276
L35006 40276
" />
<path d="M35118 40276
L35118 39882
L35081 39939
L35043 39976
L35006 39995
" />
<path d="M35606 40276
L35381 40276
" />
<path d="M35493 40276
L35493 39882
L35456 39939
L35418 39976
L35381 39995
" />
<path d="M36217 48524
L36198 48562
L36160 48599
L36104 48656
L36085 48693
L36085 48731
" />
<path d="M36179 48712
L36160 48749
L36123 48787
L36048 48806
L35917 48806
L35842 48787
L35804 48749
L35785 48712
L35785 48637
L35804 48599
L35842 48562
L35917 48543
L36048 48543
L36123 48562
L36160 48599
L36179 48637
L36179 48712
" />
<path d="M36179 48168
L36179 48393
" />
<path d="M36179 48281
L35785 48281
L35842 48318
L35879 48356
L35898 48393
" />
<path d="M35785 48037
L35785 47775
L36179 47943
" />
<path d="M22411 37889
L22430 37907
L22448 37964
L22448 38001
L22430 38057
L22392 38095
L22355 38114
L22280 38132
L22223 38132
L22149 38114
L22111 38095
L22074 38057
L22055 38001
L22055 37964
L22074 37907
L22092 37889
" />
<path d="M22055 37758
L22055 37514
L22205 37645
L22205 37589
L22223 37551
L22242 37533
L22280 37514
L22373 37514
L22411 37533
L22430 37551
L22448 37589
L22448 37701
L22430 37739
L22411 37758
" />
<path d="M19568 22784
L19568 23065
L19550 23121
L19512 23159
L19456 23178
L19418 23178
" />
<path d="M19943 22784
L19756 22784
L19737 22971
L19756 22953
L19793 22934
L19887 22934
L19924 22953
L19943 22971
L19962 23009
L19962 23103
L19943 23140
L19924 23159
L19887 23178
L19793 23178
L19756 23159
L19737 23140
" />
<path d="M12968 22784
L12968 23065
L12950 23121
L12912 23159
L12856 23178
L12818 23178
" />
<path d="M13324 22784
L13249 22784
L13212 22803
L13193 22821
L13156 22878
L13137 22953
L13137 23103
L13156 23140
L13174 23159
L13212 23178
L13287 23178
L13324 23159
L13343 23140
L13362 23103
L13362 23009
L13343 22971
L13324 22953
L13287 22934
L13212 22934
L13174 22953
L13156 22971
L13137 23009
" />
<path d="M23468 44567
L23468 44848
L23450 44904
L23412 44942
L23356 44960
L23318 44960
" />
<path d="M23618 44567
L23881 44567
L23712 44960
" />
<path d="M13145 44453
L12958 44584
" />
<path d="M13145 44678
L12752 44678
L12752 44528
L12770 44490
L12789 44471
L12827 44453
L12883 44453
L12920 44471
L12939 44490
L12958 44528
L12958 44678
" />
<path d="M13145 44078
L13145 44303
" />
<path d="M13145 44190
L12752 44190
L12808 44228
L12845 44265
L12864 44303
" />
<path d="M13145 43890
L13145 43815
L13127 43778
L13108 43759
L13052 43721
L12977 43703
L12827 43703
L12789 43721
L12770 43740
L12752 43778
L12752 43853
L12770 43890
L12789 43909
L12827 43928
L12920 43928
L12958 43909
L12977 43890
L12995 43853
L12995 43778
L12977 43740
L12958 43721
L12920 43703
" />
<path d="M12045 43453
L11858 43584
" />
<path d="M12045 43678
L11652 43678
L11652 43528
L11670 43490
L11689 43471
L11727 43453
L11783 43453
L11820 43471
L11839 43490
L11858 43528
L11858 43678
" />
<path d="M11689 43303
L11670 43284
L11652 43246
L11652 43153
L11670 43115
L11689 43096
L11727 43078
L11764 43078
L11820 43096
L12045 43321
L12045 43078
" />
<path d="M11652 42834
L11652 42796
L11670 42759
L11689 42740
L11727 42721
L11802 42703
L11895 42703
L11970 42721
L12008 42740
L12027 42759
L12045 42796
L12045 42834
L12027 42871
L12008 42890
L11970 42909
L11895 42928
L11802 42928
L11727 42909
L11689 42890
L11670 42871
L11652 42834
" />
<path d="M26084 47718
L26365 47718
L26421 47737
L26459 47774
L26478 47831
L26478 47868
" />
<path d="M26478 47325
L26478 47549
" />
<path d="M26478 47437
L26084 47437
L26140 47474
L26178 47512
L26196 47549
" />
<path d="M26084 46968
L26084 47156
L26271 47175
L26253 47156
L26234 47118
L26234 47025
L26253 46987
L26271 46968
L26309 46950
L26403 46950
L26440 46968
L26459 46987
L26478 47025
L26478 47118
L26459 47156
L26440 47175
" />
<path d="M22881 44401
L22881 44682
L22862 44739
L22825 44776
L22768 44795
L22731 44795
" />
<path d="M23274 44795
L23050 44795
" />
<path d="M23162 44795
L23162 44401
L23125 44457
L23087 44495
L23050 44514
" />
<path d="M23612 44401
L23537 44401
L23499 44420
L23481 44439
L23443 44495
L23424 44570
L23424 44720
L23443 44757
L23462 44776
L23499 44795
L23574 44795
L23612 44776
L23631 44757
L23649 44720
L23649 44626
L23631 44589
L23612 44570
L23574 44551
L23499 44551
L23462 44570
L23443 44589
L23424 44626
" />
<path d="M25584 21931
L25865 21931
L25921 21949
L25959 21987
L25978 22043
L25978 22081
" />
<path d="M25753 21687
L25734 21725
L25715 21743
L25678 21762
L25659 21762
L25621 21743
L25603 21725
L25584 21687
L25584 21612
L25603 21575
L25621 21556
L25659 21537
L25678 21537
L25715 21556
L25734 21575
L25753 21612
L25753 21687
L25771 21725
L25790 21743
L25828 21762
L25903 21762
L25940 21743
L25959 21725
L25978 21687
L25978 21612
L25959 21575
L25940 21556
L25903 21537
L25828 21537
L25790 21556
L25771 21575
L25753 21612
" />
<path d="M30284 19181
L30565 19181
L30621 19199
L30659 19237
L30678 19293
L30678 19331
" />
<path d="M30678 18975
L30678 18900
L30659 18862
L30640 18843
L30584 18806
L30509 18787
L30359 18787
L30321 18806
L30303 18825
L30284 18862
L30284 18937
L30303 18975
L30321 18993
L30359 19012
L30453 19012
L30490 18993
L30509 18975
L30528 18937
L30528 18862
L30509 18825
L30490 18806
L30453 18787
" />
<path d="M34531 27384
L34531 27665
L34512 27721
L34475 27759
L34418 27778
L34381 27778
" />
<path d="M34924 27778
L34700 27778
" />
<path d="M34812 27778
L34812 27384
L34775 27440
L34737 27478
L34700 27496
" />
<path d="M35168 27384
L35206 27384
L35243 27403
L35262 27421
L35281 27459
L35299 27534
L35299 27628
L35281 27703
L35262 27740
L35243 27759
L35206 27778
L35168 27778
L35131 27759
L35112 27740
L35093 27703
L35074 27628
L35074 27534
L35093 27459
L35112 27421
L35131 27403
L35168 27384
" />
<path d="M34281 27684
L34281 27965
L34262 28021
L34225 28059
L34168 28078
L34131 28078
" />
<path d="M34674 28078
L34450 28078
" />
<path d="M34562 28078
L34562 27684
L34525 27740
L34487 27778
L34450 27796
" />
<path d="M35049 28078
L34824 28078
" />
<path d="M34937 28078
L34937 27684
L34899 27740
L34862 27778
L34824 27796
" />
<path d="M34081 36384
L34081 36665
L34062 36721
L34025 36759
L33968 36778
L33931 36778
" />
<path d="M34474 36778
L34250 36778
" />
<path d="M34362 36778
L34362 36384
L34325 36440
L34287 36478
L34250 36496
" />
<path d="M34624 36421
L34643 36403
L34681 36384
L34774 36384
L34812 36403
L34831 36421
L34849 36459
L34849 36496
L34831 36553
L34606 36778
L34849 36778
" />
<path d="M34681 41584
L34681 41865
L34662 41921
L34625 41959
L34568 41978
L34531 41978
" />
<path d="M35074 41978
L34850 41978
" />
<path d="M34962 41978
L34962 41584
L34925 41640
L34887 41678
L34850 41696
" />
<path d="M35206 41584
L35449 41584
L35318 41734
L35374 41734
L35412 41753
L35431 41771
L35449 41809
L35449 41903
L35431 41940
L35412 41959
L35374 41978
L35262 41978
L35224 41959
L35206 41940
" />
<path d="M30284 50018
L30565 50018
L30621 50037
L30659 50074
L30678 50131
L30678 50168
" />
<path d="M30678 49625
L30678 49849
" />
<path d="M30678 49737
L30284 49737
L30340 49774
L30378 49812
L30396 49849
" />
<path d="M30415 49287
L30678 49287
" />
<path d="M30265 49381
L30546 49475
L30546 49231
" />
<path d="M28645 43453
L28458 43584
" />
<path d="M28645 43678
L28252 43678
L28252 43528
L28270 43490
L28289 43471
L28327 43453
L28383 43453
L28420 43471
L28439 43490
L28458 43528
L28458 43678
" />
<path d="M28289 43303
L28270 43284
L28252 43246
L28252 43153
L28270 43115
L28289 43096
L28327 43078
L28364 43078
L28420 43096
L28645 43321
L28645 43078
" />
<path d="M28645 42703
L28645 42928
" />
<path d="M28645 42815
L28252 42815
L28308 42853
L28345 42890
L28364 42928
" />
<path d="M24240 47973
L24259 47992
L24278 48048
L24278 48085
L24259 48142
L24221 48179
L24184 48198
L24109 48217
L24053 48217
L23978 48198
L23940 48179
L23903 48142
L23884 48085
L23884 48048
L23903 47992
L23921 47973
" />
<path d="M24278 47598
L24278 47823
" />
<path d="M24278 47711
L23884 47711
L23940 47748
L23978 47786
L23996 47823
" />
<path d="M27240 45657
L27259 45676
L27278 45732
L27278 45770
L27259 45826
L27221 45863
L27184 45882
L27109 45901
L27053 45901
L26978 45882
L26940 45863
L26903 45826
L26884 45770
L26884 45732
L26903 45676
L26921 45657
" />
<path d="M26921 45507
L26903 45489
L26884 45451
L26884 45357
L26903 45320
L26921 45301
L26959 45282
L26996 45282
L27053 45301
L27278 45526
L27278 45282
" />
<path d="M23068 33567
L23068 33848
L23050 33904
L23012 33942
L22956 33960
L22918 33960
" />
<path d="M23237 33604
L23256 33585
L23293 33567
L23387 33567
L23424 33585
L23443 33604
L23462 33642
L23462 33679
L23443 33735
L23218 33960
L23462 33960
" />
</g> 
</svg>
