G04 #@! TF.FileFunction,Copper,L1,Top*
%FSLAX46Y46*%
G04 Gerber Fmt 4.6, Leading zero omitted, Abs format (unit mm)*
G04 Created by KiCad (PCBNEW 4.0.7) date Wed Jan  2 22:17:41 2019*
%MOMM*%
%LPD*%
G01*
G04 APERTURE LIST*
%ADD10C,0.100000*%
%ADD11O,2.300000X1.200000*%
%ADD12O,1.300000X2.300000*%
%ADD13O,2.400000X1.200000*%
%ADD14O,1.200000X2.400000*%
%ADD15O,2.300000X1.300000*%
%ADD16O,2.000000X1.200000*%
%ADD17O,1.200000X2.000000*%
%ADD18C,1.300000*%
%ADD19O,5.000000X1.200000*%
G04 APERTURE END LIST*
D10*
D11*
X27178000Y-98298000D03*
X55118000Y-113538000D03*
X55118000Y-110998000D03*
X27178000Y-105918000D03*
X27178000Y-108458000D03*
D12*
X89154000Y-100838000D03*
X77216000Y-100838000D03*
D13*
X66802000Y-65786000D03*
X66802000Y-68086000D03*
X66802000Y-70386000D03*
D14*
X84836000Y-55118000D03*
X82536000Y-55118000D03*
X80236000Y-55118000D03*
X84836000Y-67818000D03*
X82536000Y-67818000D03*
X80236000Y-67818000D03*
X84836000Y-79502000D03*
X82536000Y-79502000D03*
X80236000Y-79502000D03*
X84836000Y-89662000D03*
X82536000Y-89662000D03*
X80236000Y-89662000D03*
X84836000Y-107696000D03*
X82536000Y-107696000D03*
X80236000Y-107696000D03*
D13*
X55880000Y-65786000D03*
X55880000Y-63486000D03*
X55880000Y-61186000D03*
X44450000Y-65786000D03*
X44450000Y-63486000D03*
X44450000Y-61186000D03*
X38862000Y-65786000D03*
X38862000Y-63486000D03*
X38862000Y-61186000D03*
X27432000Y-65786000D03*
X27432000Y-63486000D03*
X27432000Y-61186000D03*
D14*
X84836000Y-114808000D03*
X82536000Y-114808000D03*
X80236000Y-114808000D03*
D15*
X60452000Y-61468000D03*
X60452000Y-74168000D03*
X63500000Y-70358000D03*
X63500000Y-65786000D03*
D12*
X89154000Y-62484000D03*
X77216000Y-62484000D03*
X80264000Y-59436000D03*
X84836000Y-59436000D03*
X89154000Y-74168000D03*
X77216000Y-74168000D03*
X80264000Y-71374000D03*
X84836000Y-71374000D03*
X89154000Y-85598000D03*
X77216000Y-85598000D03*
X80264000Y-83058000D03*
X84836000Y-83058000D03*
X89154000Y-96012000D03*
X77216000Y-96012000D03*
X80264000Y-92964000D03*
X84836000Y-92964000D03*
X80264000Y-103632000D03*
X84836000Y-103632000D03*
X52070000Y-67310000D03*
X52070000Y-55626000D03*
X48260000Y-67310000D03*
X48260000Y-55626000D03*
X35052000Y-67310000D03*
X35052000Y-55626000D03*
X31242000Y-67310000D03*
D15*
X31242000Y-55626000D03*
X89154000Y-118110000D03*
D12*
X77216000Y-118110000D03*
X80264000Y-120650000D03*
X84836000Y-120650000D03*
D13*
X62992000Y-77978000D03*
X70612000Y-110998000D03*
X62992000Y-80518000D03*
X70612000Y-108458000D03*
X62992000Y-83058000D03*
X70612000Y-105918000D03*
X62992000Y-85598000D03*
X70612000Y-103378000D03*
X70612000Y-93218000D03*
X62992000Y-98298000D03*
X70612000Y-90678000D03*
X62992000Y-100838000D03*
X70612000Y-88138000D03*
X70612000Y-85598000D03*
X62992000Y-105918000D03*
X70612000Y-83058000D03*
X62992000Y-108458000D03*
X70612000Y-80518000D03*
X70612000Y-77978000D03*
D16*
X66802000Y-61468000D03*
X66802000Y-59436000D03*
X66802000Y-63500000D03*
D17*
X89154000Y-57658000D03*
X91186000Y-57658000D03*
X87122000Y-57658000D03*
X89154000Y-69088000D03*
X91186000Y-69088000D03*
X87122000Y-69088000D03*
X89154000Y-80772000D03*
X91186000Y-80772000D03*
X87122000Y-80772000D03*
X89154000Y-90678000D03*
X91186000Y-90678000D03*
X87122000Y-90678000D03*
X89154000Y-105410000D03*
X91186000Y-105410000D03*
X87122000Y-105410000D03*
X89154000Y-122428000D03*
X91186000Y-122428000D03*
X87122000Y-122428000D03*
D12*
X58928000Y-99822000D03*
X58928000Y-94488000D03*
D18*
X56233553Y-57050447D02*
X55526447Y-57757553D01*
X44096447Y-57050447D02*
X44803553Y-57757553D01*
X39215553Y-57050447D02*
X38508447Y-57757553D01*
X27078447Y-57050447D02*
X27785553Y-57757553D01*
D15*
X59944000Y-116078000D03*
X59944000Y-118618000D03*
X59944000Y-121158000D03*
X34798000Y-116078000D03*
X34798000Y-108458000D03*
X32004000Y-113538000D03*
X32004000Y-105918000D03*
X71882000Y-122936000D03*
X71882000Y-117856000D03*
D11*
X58928000Y-110998000D03*
X58928000Y-108458000D03*
X58928000Y-105918000D03*
X58928000Y-103378000D03*
D19*
X41148000Y-113538000D03*
X41148000Y-110998000D03*
X41148000Y-108458000D03*
X41148000Y-105918000D03*
X41148000Y-103378000D03*
X41148000Y-100838000D03*
D12*
X70612000Y-57912000D03*
X82550000Y-50927000D03*
D15*
X85979000Y-65024000D03*
X85344000Y-75946000D03*
X84836000Y-98044000D03*
X86360000Y-111252000D03*
D12*
X82550000Y-123698000D03*
X74295000Y-114554000D03*
X74295000Y-106934000D03*
D15*
X65024000Y-122936000D03*
X65024000Y-120436000D03*
X65024000Y-114554000D03*
X65024000Y-117054000D03*
M02*
