M48
;DRILL file {KiCad 4.0.7} date Wed Jan 16 01:19:52 2019
;FORMAT={-:-/ absolute / metric / decimal}
FMAT,2
METRIC,TZ
T1C0.800
%
G90

M71
T1
X4.064Y8.763
X4.064Y6.223
X4.064Y3.683
X4.064Y1.143
X4.064Y-11.557
X4.064Y-14.097
X4.064Y-19.177
X4.064Y-21.717
X11.684Y8.763
X11.684Y6.223
X11.684Y3.683
X11.684Y1.143
X11.684Y-1.397
X11.684Y-3.937
X11.684Y-6.477
X11.684Y-16.637
X11.684Y-19.177
X11.684Y-21.717
X11.684Y-24.257
X-27.686Y31.115
X-27.686Y19.431
X-26.924Y-19.177
X-26.924Y-26.797
X-24.13Y-21.717
X-24.13Y-29.337
X-23.876Y31.115
X-23.876Y19.431
X-10.668Y31.115
X-10.668Y19.431
X-6.858Y31.115
X-6.858Y19.431
X1.524Y25.273
X1.524Y12.573
X4.572Y20.955
X4.572Y16.383
X6.096Y-27.813
X6.096Y-30.313
X6.096Y-33.695
X6.096Y-36.195
X7.874Y27.305
X7.874Y25.273
X7.874Y23.241
X18.288Y24.257
X18.288Y12.573
X18.288Y1.143
X18.288Y-9.271
X18.288Y-14.097
X18.288Y-31.369
X21.336Y27.305
X21.336Y15.367
X21.336Y3.683
X21.336Y-6.223
X21.336Y-16.891
X21.336Y-33.909
X25.908Y27.305
X25.908Y15.367
X25.908Y3.683
X25.908Y-6.223
X25.908Y-16.891
X25.908Y-33.909
X28.194Y29.083
X28.194Y17.653
X28.194Y5.969
X28.194Y-3.937
X28.194Y-18.669
X28.194Y-35.687
X30.226Y29.083
X30.226Y24.257
X30.226Y17.653
X30.226Y12.573
X30.226Y5.969
X30.226Y1.143
X30.226Y-3.937
X30.226Y-9.271
X30.226Y-14.097
X30.226Y-18.669
X30.226Y-31.369
X30.226Y-35.687
X32.258Y29.083
X32.258Y17.653
X32.258Y5.969
X32.258Y-3.937
X32.258Y-18.669
X32.258Y-35.687
X-31.75Y-11.557
X-31.75Y-19.177
X-31.75Y-21.717
X-31.496Y29.337
X-20.066Y29.337
X-17.78Y-14.097
X-17.78Y-16.637
X-17.78Y-19.177
X-17.78Y-21.717
X-17.78Y-24.257
X-17.78Y-26.797
X-14.478Y29.337
X-3.81Y-24.257
X-3.81Y-26.797
X-3.048Y29.337
X0.Y-7.747
X0.Y-13.081
X0.Y-16.637
X0.Y-19.177
X0.Y-21.717
X0.Y-24.257
X1.016Y-29.337
X1.016Y-31.877
X1.016Y-34.417
X11.684Y28.829
X12.954Y-31.115
X12.954Y-36.195
X15.367Y-20.193
X15.367Y-27.813
X23.622Y35.814
X23.622Y-36.957
X25.908Y-11.303
X26.416Y10.795
X27.051Y21.717
X27.432Y-24.511
X-31.496Y25.555X-31.496Y25.555
X-31.496Y23.255X-31.496Y23.255
X-31.496Y20.955X-31.496Y20.955
X-20.066Y25.555X-20.066Y25.555
X-20.066Y23.255X-20.066Y23.255
X-20.066Y20.955X-20.066Y20.955
X-14.478Y25.555X-14.478Y25.555
X-14.478Y23.255X-14.478Y23.255
X-14.478Y20.955X-14.478Y20.955
X-3.048Y25.555X-3.048Y25.555
X-3.048Y23.255X-3.048Y23.255
X-3.048Y20.955X-3.048Y20.955
X7.874Y20.955X7.874Y20.955
X7.874Y18.655X7.874Y18.655
X7.874Y16.355X7.874Y16.355
X21.308Y31.623X21.308Y31.623
X21.308Y18.923X21.308Y18.923
X21.308Y7.239X21.308Y7.239
X21.308Y-2.921X21.308Y-2.921
X21.308Y-20.955X21.308Y-20.955
X21.308Y-28.067X21.308Y-28.067
X23.608Y31.623X23.608Y31.623
X23.608Y18.923X23.608Y18.923
X23.608Y7.239X23.608Y7.239
X23.608Y-2.921X23.608Y-2.921
X23.608Y-20.955X23.608Y-20.955
X23.608Y-28.067X23.608Y-28.067
X25.908Y31.623X25.908Y31.623
X25.908Y18.923X25.908Y18.923
X25.908Y7.239X25.908Y7.239
X25.908Y-2.921X25.908Y-2.921
X25.908Y-20.955X25.908Y-20.955
X25.908Y-28.067X25.908Y-28.067
T0
M30
