<?xml version="1.0" standalone="no"?>
 <!DOCTYPE svg PUBLIC "-//W3C//DTD SVG 1.1//EN" 
 "http://www.w3.org/Graphics/SVG/1.1/DTD/svg11.dtd"> 
<svg xmlns="http://www.w3.org/2000/svg" version="1.1" 
    width="29.7002cm" height="21.0007cm" viewBox="0 0 116930 82680 ">
<title>SVG Picture created as led_segments-F.Cu.svg date 2019/01/03 00:08:59 </title>
  <desc>Picture generated by PCBNEW </desc>
<g style="fill:#000000; fill-opacity:1;stroke:#000000; stroke-opacity:1;
stroke-linecap:round; stroke-linejoin:round; "
 transform="translate(0 0) scale(1 1)">
</g>
<g style="fill:#000000; fill-opacity:0.0; 
stroke:#000000; stroke-width:-0.000393701; stroke-opacity:1; 
stroke-linecap:round; stroke-linejoin:round;">
</g>
<g style="fill:#000000; fill-opacity:0.0; 
stroke:#000000; stroke-width:472.441; stroke-opacity:1; 
stroke-linecap:round; stroke-linejoin:round;">
<path d="M10916 38700
L10483 38700
" />
<path d="M21916 44700
L21483 44700
" />
<path d="M21916 43700
L21483 43700
" />
<path d="M10916 41700
L10483 41700
" />
<path d="M10916 42700
L10483 42700
" />
</g>
<g style="fill:#000000; fill-opacity:0.0; 
stroke:#000000; stroke-width:511.811; stroke-opacity:1; 
stroke-linecap:round; stroke-linejoin:round;">
<path d="M35100 39896
L35100 39503
" />
<path d="M30400 39896
L30400 39503
" />
</g>
<g style="fill:#000000; fill-opacity:0.0; 
stroke:#000000; stroke-width:472.441; stroke-opacity:1; 
stroke-linecap:round; stroke-linejoin:round;">
<path d="M26536 25900
L26063 25900
" />
<path d="M26536 26805
L26063 26805
" />
<path d="M26536 27711
L26063 27711
" />
<path d="M33400 21936
L33400 21463
" />
<path d="M32494 21936
L32494 21463
" />
<path d="M31588 21936
L31588 21463
" />
<path d="M33400 26936
L33400 26463
" />
<path d="M32494 26936
L32494 26463
" />
<path d="M31588 26936
L31588 26463
" />
<path d="M33400 31536
L33400 31063
" />
<path d="M32494 31536
L32494 31063
" />
<path d="M31588 31536
L31588 31063
" />
<path d="M33400 35536
L33400 35063
" />
<path d="M32494 35536
L32494 35063
" />
<path d="M31588 35536
L31588 35063
" />
<path d="M33400 42636
L33400 42163
" />
<path d="M32494 42636
L32494 42163
" />
<path d="M31588 42636
L31588 42163
" />
<path d="M21763 25900
L22236 25900
" />
<path d="M21763 24994
L22236 24994
" />
<path d="M21763 24088
L22236 24088
" />
<path d="M17263 25900
L17736 25900
" />
<path d="M17263 24994
L17736 24994
" />
<path d="M17263 24088
L17736 24088
" />
<path d="M15063 25900
L15536 25900
" />
<path d="M15063 24994
L15536 24994
" />
<path d="M15063 24088
L15536 24088
" />
<path d="M10563 25900
L11036 25900
" />
<path d="M10563 24994
L11036 24994
" />
<path d="M10563 24088
L11036 24088
" />
<path d="M33400 45436
L33400 44963
" />
<path d="M32494 45436
L32494 44963
" />
<path d="M31588 45436
L31588 44963
" />
</g>
<g style="fill:#000000; fill-opacity:0.0; 
stroke:#000000; stroke-width:511.811; stroke-opacity:1; 
stroke-linecap:round; stroke-linejoin:round;">
<path d="M23996 24200
L23603 24200
" />
<path d="M23996 29200
L23603 29200
" />
<path d="M24803 27700
L25196 27700
" />
<path d="M24803 25900
L25196 25900
" />
<path d="M35100 24796
L35100 24403
" />
<path d="M30400 24796
L30400 24403
" />
<path d="M31600 23203
L31600 23596
" />
<path d="M33400 23203
L33400 23596
" />
<path d="M35100 29396
L35100 29003
" />
<path d="M30400 29396
L30400 29003
" />
<path d="M31600 27903
L31600 28296
" />
<path d="M33400 27903
L33400 28296
" />
<path d="M35100 33896
L35100 33503
" />
<path d="M30400 33896
L30400 33503
" />
<path d="M31600 32503
L31600 32896
" />
<path d="M33400 32503
L33400 32896
" />
<path d="M35100 37996
L35100 37603
" />
<path d="M30400 37996
L30400 37603
" />
<path d="M31600 36403
L31600 36796
" />
<path d="M33400 36403
L33400 36796
" />
<path d="M31600 40603
L31600 40996
" />
<path d="M33400 40603
L33400 40996
" />
<path d="M20500 26696
L20500 26303
" />
<path d="M20500 22096
L20500 21703
" />
<path d="M19000 26696
L19000 26303
" />
<path d="M19000 22096
L19000 21703
" />
<path d="M13800 26696
L13800 26303
" />
<path d="M13800 22096
L13800 21703
" />
<path d="M12300 26696
L12300 26303
" />
<path d="M12103 21900
L12496 21900
" />
<path d="M35296 46500
L34903 46500
" />
<path d="M30400 46696
L30400 46303
" />
<path d="M31600 47303
L31600 47696
" />
<path d="M33400 47303
L33400 47696
" />
</g>
<g style="fill:#000000; fill-opacity:0.0; 
stroke:#000000; stroke-width:472.441; stroke-opacity:1; 
stroke-linecap:round; stroke-linejoin:round;">
<path d="M24563 30700
L25036 30700
" />
<path d="M27563 43700
L28036 43700
" />
<path d="M24563 31700
L25036 31700
" />
<path d="M27563 42700
L28036 42700
" />
<path d="M24563 32700
L25036 32700
" />
<path d="M27563 41700
L28036 41700
" />
<path d="M24563 33700
L25036 33700
" />
<path d="M27563 40700
L28036 40700
" />
<path d="M27563 36700
L28036 36700
" />
<path d="M24563 38700
L25036 38700
" />
<path d="M27563 35700
L28036 35700
" />
<path d="M24563 39700
L25036 39700
" />
<path d="M27563 34700
L28036 34700
" />
<path d="M27563 33700
L28036 33700
" />
<path d="M24563 41700
L25036 41700
" />
<path d="M27563 32700
L28036 32700
" />
<path d="M24563 42700
L25036 42700
" />
<path d="M27563 31700
L28036 31700
" />
<path d="M27563 30700
L28036 30700
" />
<path d="M26457 24200
L26142 24200
" />
<path d="M26457 23400
L26142 23400
" />
<path d="M26457 25000
L26142 25000
" />
<path d="M35100 22857
L35100 22542
" />
<path d="M35900 22857
L35900 22542
" />
<path d="M34300 22857
L34300 22542
" />
<path d="M35100 27357
L35100 27042
" />
<path d="M35900 27357
L35900 27042
" />
<path d="M34300 27357
L34300 27042
" />
<path d="M35100 31957
L35100 31642
" />
<path d="M35900 31957
L35900 31642
" />
<path d="M34300 31957
L34300 31642
" />
<path d="M35100 35857
L35100 35542
" />
<path d="M35900 35857
L35900 35542
" />
<path d="M34300 35857
L34300 35542
" />
<path d="M35100 41657
L35100 41342
" />
<path d="M35900 41657
L35900 41342
" />
<path d="M34300 41657
L34300 41342
" />
<path d="M35100 48357
L35100 48042
" />
<path d="M35900 48357
L35900 48042
" />
<path d="M34300 48357
L34300 48042
" />
</g>
<g style="fill:#000000; fill-opacity:0.0; 
stroke:#000000; stroke-width:511.811; stroke-opacity:1; 
stroke-linecap:round; stroke-linejoin:round;">
<path d="M23200 39496
L23200 39103
" />
<path d="M23200 37396
L23200 37003
" />
<path d="M22139 22460
L21860 22739
" />
<path d="M17360 22460
L17639 22739
" />
<path d="M15439 22460
L15160 22739
" />
<path d="M10660 22460
L10939 22739
" />
<path d="M23403 45700
L23796 45700
" />
<path d="M23403 46700
L23796 46700
" />
<path d="M23403 47700
L23796 47700
" />
<path d="M13503 45700
L13896 45700
" />
<path d="M13503 42700
L13896 42700
" />
<path d="M12403 44700
L12796 44700
" />
<path d="M12403 41700
L12796 41700
" />
<path d="M28103 48400
L28496 48400
" />
<path d="M28103 46400
L28496 46400
" />
</g>
<g style="fill:#000000; fill-opacity:0.0; 
stroke:#000000; stroke-width:472.441; stroke-opacity:1; 
stroke-linecap:round; stroke-linejoin:round;">
<path d="M23416 43700
L22983 43700
" />
<path d="M23416 42700
L22983 42700
" />
<path d="M23416 41700
L22983 41700
" />
<path d="M23416 40700
L22983 40700
" />
<path d="M15451 44700
L16948 44700
" />
<path d="M15451 43700
L16948 43700
" />
<path d="M15451 42700
L16948 42700
" />
<path d="M15451 41700
L16948 41700
" />
<path d="M15451 40700
L16948 40700
" />
<path d="M15451 39700
L16948 39700
" />
</g>
<g style="fill:#000000; fill-opacity:0.0; 
stroke:#000000; stroke-width:511.811; stroke-opacity:1; 
stroke-linecap:round; stroke-linejoin:round;">
<path d="M27800 22996
L27800 22603
" />
<path d="M32500 20246
L32500 19853
" />
<path d="M34046 25600
L33653 25600
" />
<path d="M33403 29900
L33796 29900
" />
<path d="M33203 38600
L33596 38600
" />
<path d="M33803 43800
L34196 43800
" />
<path d="M32500 48896
L32500 48503
" />
<path d="M29250 45296
L29250 44903
" />
<path d="M29250 42296
L29250 41903
" />
<path d="M25403 48400
L25796 48400
" />
<path d="M25403 47415
L25796 47415
" />
<path d="M25796 45100
L25403 45100
" />
<path d="M25796 46084
L25403 46084
" />
</g> 
</svg>
