G04 #@! TF.FileFunction,Copper,L2,Bot,Mixed*
%FSLAX46Y46*%
G04 Gerber Fmt 4.6, Leading zero omitted, Abs format (unit mm)*
G04 Created by KiCad (PCBNEW 4.0.7) date Wed Jan 16 02:07:46 2019*
%MOMM*%
%LPD*%
G01*
G04 APERTURE LIST*
%ADD10C,0.020000*%
%ADD11O,2.300000X1.200000*%
%ADD12O,1.300000X2.300000*%
%ADD13O,2.400000X1.200000*%
%ADD14O,1.200000X2.400000*%
%ADD15O,2.300000X1.300000*%
%ADD16O,2.000000X1.200000*%
%ADD17O,1.200000X2.000000*%
%ADD18C,1.300000*%
%ADD19O,5.000000X1.200000*%
%ADD20C,1.000000*%
%ADD21C,0.700000*%
%ADD22C,0.500000*%
%ADD23C,0.800000*%
G04 APERTURE END LIST*
D10*
D11*
X-31750000Y-11557000D03*
X-3810000Y-26797000D03*
X-3810000Y-24257000D03*
X-31750000Y-19177000D03*
X-31750000Y-21717000D03*
D12*
X30226000Y-14097000D03*
X18288000Y-14097000D03*
D13*
X7874000Y20955000D03*
X7874000Y18655000D03*
X7874000Y16355000D03*
D14*
X25908000Y31623000D03*
X23608000Y31623000D03*
X21308000Y31623000D03*
X25908000Y18923000D03*
X23608000Y18923000D03*
X21308000Y18923000D03*
X25908000Y7239000D03*
X23608000Y7239000D03*
X21308000Y7239000D03*
X25908000Y-2921000D03*
X23608000Y-2921000D03*
X21308000Y-2921000D03*
X25908000Y-20955000D03*
X23608000Y-20955000D03*
X21308000Y-20955000D03*
D13*
X-3048000Y20955000D03*
X-3048000Y23255000D03*
X-3048000Y25555000D03*
X-14478000Y20955000D03*
X-14478000Y23255000D03*
X-14478000Y25555000D03*
X-20066000Y20955000D03*
X-20066000Y23255000D03*
X-20066000Y25555000D03*
X-31496000Y20955000D03*
X-31496000Y23255000D03*
X-31496000Y25555000D03*
D14*
X25908000Y-28067000D03*
X23608000Y-28067000D03*
X21308000Y-28067000D03*
D15*
X1524000Y25273000D03*
X1524000Y12573000D03*
X4572000Y16383000D03*
X4572000Y20955000D03*
D12*
X30226000Y24257000D03*
X18288000Y24257000D03*
X21336000Y27305000D03*
X25908000Y27305000D03*
X30226000Y12573000D03*
X18288000Y12573000D03*
X21336000Y15367000D03*
X25908000Y15367000D03*
X30226000Y1143000D03*
X18288000Y1143000D03*
X21336000Y3683000D03*
X25908000Y3683000D03*
X30226000Y-9271000D03*
X18288000Y-9271000D03*
X21336000Y-6223000D03*
X25908000Y-6223000D03*
X21336000Y-16891000D03*
X25908000Y-16891000D03*
X-6858000Y19431000D03*
X-6858000Y31115000D03*
X-10668000Y19431000D03*
X-10668000Y31115000D03*
X-23876000Y19431000D03*
X-23876000Y31115000D03*
X-27686000Y19431000D03*
X-27686000Y31115000D03*
D15*
X30226000Y-31369000D03*
D12*
X18288000Y-31369000D03*
X21336000Y-33909000D03*
X25908000Y-33909000D03*
D13*
X4064000Y8763000D03*
X11684000Y-24257000D03*
X4064000Y6223000D03*
X11684000Y-21717000D03*
X4064000Y3683000D03*
X11684000Y-19177000D03*
X4064000Y1143000D03*
X11684000Y-16637000D03*
X11684000Y-6477000D03*
X4064000Y-11557000D03*
X11684000Y-3937000D03*
X4064000Y-14097000D03*
X11684000Y-1397000D03*
X11684000Y1143000D03*
X4064000Y-19177000D03*
X11684000Y3683000D03*
X4064000Y-21717000D03*
X11684000Y6223000D03*
X11684000Y8763000D03*
D16*
X7874000Y25273000D03*
X7874000Y27305000D03*
X7874000Y23241000D03*
D17*
X30226000Y29083000D03*
X32258000Y29083000D03*
X28194000Y29083000D03*
X30226000Y17653000D03*
X32258000Y17653000D03*
X28194000Y17653000D03*
X30226000Y5969000D03*
X32258000Y5969000D03*
X28194000Y5969000D03*
X30226000Y-3937000D03*
X32258000Y-3937000D03*
X28194000Y-3937000D03*
X30226000Y-18669000D03*
X32258000Y-18669000D03*
X28194000Y-18669000D03*
X30226000Y-35687000D03*
X32258000Y-35687000D03*
X28194000Y-35687000D03*
D12*
X0Y-13081000D03*
X0Y-7747000D03*
D18*
X-2694447Y29690553D02*
X-3401553Y28983447D01*
X-14831553Y29690553D02*
X-14124447Y28983447D01*
X-19712447Y29690553D02*
X-20419553Y28983447D01*
X-31849553Y29690553D02*
X-31142447Y28983447D01*
D15*
X1016000Y-29337000D03*
X1016000Y-31877000D03*
X1016000Y-34417000D03*
X-24130000Y-29337000D03*
X-24130000Y-21717000D03*
X-26924000Y-26797000D03*
X-26924000Y-19177000D03*
X12954000Y-36195000D03*
X12954000Y-31115000D03*
D11*
X0Y-24257000D03*
X0Y-21717000D03*
X0Y-19177000D03*
X0Y-16637000D03*
D19*
X-17780000Y-26797000D03*
X-17780000Y-24257000D03*
X-17780000Y-21717000D03*
X-17780000Y-19177000D03*
X-17780000Y-16637000D03*
X-17780000Y-14097000D03*
D12*
X11684000Y28829000D03*
X23622000Y35814000D03*
D15*
X27051000Y21717000D03*
X26416000Y10795000D03*
X25908000Y-11303000D03*
X27432000Y-24511000D03*
D12*
X23622000Y-36957000D03*
X15367000Y-27813000D03*
X15367000Y-20193000D03*
D15*
X6096000Y-36195000D03*
X6096000Y-33695000D03*
X6096000Y-27813000D03*
X6096000Y-30313000D03*
D20*
X-3048000Y23255000D02*
X-5856000Y23255000D01*
X-6731000Y25654000D02*
X-3048000Y29337000D01*
X-6731000Y24130000D02*
X-6731000Y25654000D01*
X-5856000Y23255000D02*
X-6731000Y24130000D01*
X7874000Y18655000D02*
X9257000Y18655000D01*
X11684000Y21082000D02*
X11684000Y28829000D01*
X9257000Y18655000D02*
X11684000Y21082000D01*
X-14478000Y23255000D02*
X-11416000Y23255000D01*
X-10668000Y25527000D02*
X-14478000Y29337000D01*
X-10668000Y24003000D02*
X-10668000Y25527000D01*
X-11416000Y23255000D02*
X-10668000Y24003000D01*
X-20066000Y23255000D02*
X-22620000Y23255000D01*
X-23622000Y25781000D02*
X-20066000Y29337000D01*
X-23622000Y24257000D02*
X-23622000Y25781000D01*
X-22620000Y23255000D02*
X-23622000Y24257000D01*
X-31496000Y23255000D02*
X-28688000Y23255000D01*
X-27686000Y25527000D02*
X-31496000Y29337000D01*
X-27686000Y24257000D02*
X-27686000Y25527000D01*
X-28688000Y23255000D02*
X-27686000Y24257000D01*
X23622000Y35814000D02*
X23622000Y31637000D01*
X23622000Y31637000D02*
X23608000Y31623000D01*
X23608000Y35800000D02*
X23622000Y35814000D01*
X23608000Y35800000D02*
X23622000Y35814000D01*
X23608000Y18923000D02*
X23608000Y21195000D01*
X24130000Y21717000D02*
X27051000Y21717000D01*
X23608000Y21195000D02*
X24130000Y21717000D01*
X26416000Y10795000D02*
X24892000Y10795000D01*
X23608000Y9511000D02*
X23608000Y7239000D01*
X24892000Y10795000D02*
X23608000Y9511000D01*
X23608000Y-2921000D02*
X23608000Y-9003000D01*
X23608000Y-9003000D02*
X25908000Y-11303000D01*
X23608000Y-20955000D02*
X23608000Y-22338000D01*
X25781000Y-24511000D02*
X27432000Y-24511000D01*
X23608000Y-22338000D02*
X25781000Y-24511000D01*
X23608000Y-28067000D02*
X23608000Y-36943000D01*
X23608000Y-36943000D02*
X23622000Y-36957000D01*
X23608000Y-36943000D02*
X23622000Y-36957000D01*
D21*
X1524000Y25273000D02*
X7874000Y25273000D01*
X7874000Y23241000D02*
X6858000Y23241000D01*
X6858000Y23241000D02*
X4572000Y20955000D01*
X7874000Y20955000D02*
X4572000Y20955000D01*
D20*
X4572000Y16383000D02*
X7846000Y16383000D01*
X7846000Y16383000D02*
X7874000Y16355000D01*
X7874000Y16355000D02*
X10132000Y16355000D01*
X14986000Y25301000D02*
X21308000Y31623000D01*
X14986000Y21209000D02*
X14986000Y25301000D01*
X10132000Y16355000D02*
X14986000Y21209000D01*
X21336000Y27305000D02*
X21336000Y31595000D01*
X21336000Y31595000D02*
X21308000Y31623000D01*
X21336000Y15367000D02*
X21336000Y18895000D01*
X21336000Y18895000D02*
X21308000Y18923000D01*
X21336000Y15367000D02*
X21336000Y7267000D01*
X21336000Y7267000D02*
X21308000Y7239000D01*
X21336000Y3683000D02*
X21336000Y-2893000D01*
X21336000Y-2893000D02*
X21308000Y-2921000D01*
X21336000Y-6223000D02*
X21336000Y-2949000D01*
X21336000Y-2949000D02*
X21308000Y-2921000D01*
X21336000Y-16891000D02*
X21336000Y-6223000D01*
X6096000Y-36195000D02*
X2794000Y-36195000D01*
X2794000Y-36195000D02*
X1016000Y-34417000D01*
X6096000Y-36195000D02*
X12954000Y-36195000D01*
X12954000Y-36195000D02*
X19050000Y-36195000D01*
X19050000Y-36195000D02*
X21336000Y-33909000D01*
X21308000Y-28067000D02*
X21308000Y-33881000D01*
X21308000Y-33881000D02*
X21336000Y-33909000D01*
X21308000Y-20955000D02*
X21308000Y-28067000D01*
X21308000Y27333000D02*
X21336000Y27305000D01*
X21308000Y30861000D02*
X20828000Y30861000D01*
X21308000Y27333000D02*
X21336000Y27305000D01*
X21308000Y18923000D02*
X21308000Y27277000D01*
X21308000Y27277000D02*
X21336000Y27305000D01*
X7846000Y16355000D02*
X7874000Y16383000D01*
X21336000Y7267000D02*
X21308000Y7239000D01*
X21308000Y15395000D02*
X21336000Y15367000D01*
X21308000Y7239000D02*
X21308000Y3711000D01*
X21308000Y3711000D02*
X21336000Y3683000D01*
X21308000Y4191000D02*
X21308000Y7973000D01*
X21308000Y7973000D02*
X21336000Y8001000D01*
X21336000Y-2949000D02*
X21308000Y-2921000D01*
X21308000Y-20955000D02*
X21308000Y-16919000D01*
X21308000Y-16919000D02*
X21336000Y-16891000D01*
X21308000Y-33881000D02*
X21336000Y-33909000D01*
X21308000Y-16919000D02*
X21336000Y-16891000D01*
D21*
X30226000Y24257000D02*
X30226000Y29083000D01*
X25908000Y27305000D02*
X26416000Y27305000D01*
X26416000Y27305000D02*
X28194000Y29083000D01*
X25908000Y31623000D02*
X25908000Y27305000D01*
X30226000Y17653000D02*
X30226000Y12573000D01*
X25908000Y15367000D02*
X28194000Y17653000D01*
X25908000Y18923000D02*
X25908000Y15367000D01*
D22*
X25908000Y15367000D02*
X25908000Y15621000D01*
D21*
X30226000Y5969000D02*
X30226000Y1143000D01*
X25908000Y7239000D02*
X25908000Y3683000D01*
X25908000Y3683000D02*
X28194000Y5969000D01*
X30226000Y-9271000D02*
X30226000Y-3937000D01*
X28194000Y-3937000D02*
X25908000Y-6223000D01*
X25908000Y-2921000D02*
X25908000Y-6223000D01*
X30226000Y-18669000D02*
X30226000Y-14097000D01*
X25908000Y-16891000D02*
X26416000Y-16891000D01*
X26416000Y-16891000D02*
X28194000Y-18669000D01*
X25908000Y-20955000D02*
X25908000Y-16891000D01*
X4064000Y8763000D02*
X-4191000Y8763000D01*
X-6858000Y11430000D02*
X-6858000Y19431000D01*
X-4191000Y8763000D02*
X-6858000Y11430000D01*
X-3048000Y20955000D02*
X-5334000Y20955000D01*
X-5334000Y20955000D02*
X-6858000Y19431000D01*
D22*
X4064000Y8763000D02*
X4826000Y8763000D01*
D21*
X-10668000Y19431000D02*
X-10668000Y10668000D01*
X-6223000Y6223000D02*
X4064000Y6223000D01*
X-10668000Y10668000D02*
X-6223000Y6223000D01*
X-14478000Y20955000D02*
X-12192000Y20955000D01*
X-12192000Y20955000D02*
X-10668000Y19431000D01*
X-20066000Y20955000D02*
X-22352000Y20955000D01*
X-22352000Y20955000D02*
X-23876000Y19431000D01*
X-23876000Y19431000D02*
X-23876000Y17145000D01*
X-10414000Y3683000D02*
X4064000Y3683000D01*
X-23876000Y17145000D02*
X-10414000Y3683000D01*
X-31496000Y20955000D02*
X-29210000Y20955000D01*
X-29210000Y20955000D02*
X-27686000Y19431000D01*
X-27686000Y19431000D02*
X-27686000Y16764000D01*
X-12065000Y1143000D02*
X4064000Y1143000D01*
X-27686000Y16764000D02*
X-12065000Y1143000D01*
D22*
X-32004000Y20955000D02*
X-31750000Y20955000D01*
D21*
X30226000Y-31369000D02*
X30226000Y-35687000D01*
X28194000Y-35687000D02*
X27686000Y-35687000D01*
X27686000Y-35687000D02*
X25908000Y-33909000D01*
X25908000Y-28067000D02*
X25908000Y-33909000D01*
X1524000Y12573000D02*
X7874000Y12573000D01*
X7874000Y12573000D02*
X11684000Y8763000D01*
D22*
X11684000Y8763000D02*
X12700000Y8763000D01*
D21*
X11684000Y6223000D02*
X13970000Y6223000D01*
X18288000Y17780000D02*
X18288000Y24257000D01*
X15113000Y14605000D02*
X18288000Y17780000D01*
X15113000Y7366000D02*
X15113000Y14605000D01*
X13970000Y6223000D02*
X15113000Y7366000D01*
D22*
X12700000Y6223000D02*
X11684000Y6223000D01*
D21*
X11684000Y3683000D02*
X14732000Y3683000D01*
X18288000Y7239000D02*
X18288000Y12573000D01*
X14732000Y3683000D02*
X18288000Y7239000D01*
X11684000Y1143000D02*
X18288000Y1143000D01*
X11684000Y-1397000D02*
X15113000Y-1397000D01*
X18288000Y-4572000D02*
X18288000Y-9271000D01*
X15113000Y-1397000D02*
X18288000Y-4572000D01*
X11684000Y-3937000D02*
X13462000Y-3937000D01*
X15113000Y-10922000D02*
X18288000Y-14097000D01*
X15113000Y-5588000D02*
X15113000Y-10922000D01*
X13462000Y-3937000D02*
X15113000Y-5588000D01*
X18288000Y-31369000D02*
X18288000Y-18161000D01*
X11684000Y-11557000D02*
X11684000Y-6477000D01*
X18288000Y-18161000D02*
X11684000Y-11557000D01*
X0Y-21717000D02*
X-17780000Y-21717000D01*
X4064000Y-21717000D02*
X0Y-21717000D01*
X-24130000Y-21717000D02*
X-31750000Y-21717000D01*
X-17780000Y-21717000D02*
X-24130000Y-21717000D01*
X0Y-19177000D02*
X4064000Y-19177000D01*
X-17780000Y-19177000D02*
X0Y-19177000D01*
X-26924000Y-19177000D02*
X-17780000Y-19177000D01*
X-31750000Y-19177000D02*
X-26924000Y-19177000D01*
D22*
X4064000Y-19177000D02*
X3048000Y-19177000D01*
X4064000Y-19177000D02*
X3810000Y-19177000D01*
D21*
X7620000Y-22352000D02*
X7620000Y-26289000D01*
X7620000Y-26289000D02*
X6096000Y-27813000D01*
X6096000Y-27813000D02*
X2540000Y-27813000D01*
X2540000Y-27813000D02*
X1016000Y-29337000D01*
X0Y-24257000D02*
X127000Y-24257000D01*
X127000Y-24257000D02*
X3683000Y-27813000D01*
X3683000Y-27813000D02*
X6096000Y-27813000D01*
X0Y-7747000D02*
X254000Y-7747000D01*
X254000Y-7747000D02*
X4064000Y-11557000D01*
X6096000Y-27813000D02*
X6350000Y-27813000D01*
X5334000Y-11557000D02*
X4064000Y-11557000D01*
X7620000Y-22352000D02*
X7620000Y-13843000D01*
X7620000Y-13843000D02*
X5334000Y-11557000D01*
X6096000Y-27813000D02*
X15367000Y-27813000D01*
X1016000Y-29337000D02*
X1016000Y-29083000D01*
X-3810000Y-24257000D02*
X0Y-24257000D01*
X-17780000Y-24257000D02*
X-3810000Y-24257000D01*
X-26924000Y-26797000D02*
X-26924000Y-28194000D01*
X-25781000Y-29337000D02*
X-24130000Y-29337000D01*
X-26924000Y-28194000D02*
X-25781000Y-29337000D01*
X-17780000Y-24257000D02*
X-24384000Y-24257000D01*
X-24384000Y-24257000D02*
X-26924000Y-26797000D01*
X0Y-7493000D02*
X4064000Y-11557000D01*
D22*
X-26924000Y-26797000D02*
X-26670000Y-26797000D01*
X4064000Y-11557000D02*
X3422000Y-11557000D01*
X3302000Y-11557000D02*
X4064000Y-11557000D01*
D21*
X11684000Y-16637000D02*
X13208000Y-16637000D01*
X15367000Y-18796000D02*
X15367000Y-20193000D01*
X13208000Y-16637000D02*
X15367000Y-18796000D01*
D22*
X11684000Y-16637000D02*
X12700000Y-16637000D01*
D21*
X-31750000Y-11557000D02*
X-27305000Y-11557000D01*
X-22225000Y-16637000D02*
X-17780000Y-16637000D01*
X-27305000Y-11557000D02*
X-22225000Y-16637000D01*
D23*
G36*
X37853600Y-42298600D02*
X-37726600Y-42298600D01*
X-37726600Y-36957000D01*
X-32798763Y-36957000D01*
X-32622258Y-37844352D01*
X-32119613Y-38596613D01*
X-31367352Y-39099258D01*
X-30480000Y-39275763D01*
X-29592648Y-39099258D01*
X-28840387Y-38596613D01*
X-28337742Y-37844352D01*
X-28161237Y-36957000D01*
X-7455533Y-36957000D01*
X-7274706Y-37866077D01*
X-6759755Y-38636755D01*
X-5989077Y-39151706D01*
X-5080000Y-39332533D01*
X-4170923Y-39151706D01*
X-3400245Y-38636755D01*
X-2885294Y-37866077D01*
X-2704467Y-36957000D01*
X-2885294Y-36047923D01*
X-3400245Y-35277245D01*
X-4170923Y-34762294D01*
X-5080000Y-34581467D01*
X-5989077Y-34762294D01*
X-6759755Y-35277245D01*
X-7274706Y-36047923D01*
X-7455533Y-36957000D01*
X-28161237Y-36957000D01*
X-28337742Y-36069648D01*
X-28840387Y-35317387D01*
X-29592648Y-34814742D01*
X-30480000Y-34638237D01*
X-31367352Y-34814742D01*
X-32119613Y-35317387D01*
X-32622258Y-36069648D01*
X-32798763Y-36957000D01*
X-37726600Y-36957000D01*
X-37726600Y-11557000D01*
X-34146039Y-11557000D01*
X-34009022Y-12245830D01*
X-33618831Y-12829792D01*
X-33034869Y-13219983D01*
X-32346039Y-13357000D01*
X-31153961Y-13357000D01*
X-30465131Y-13219983D01*
X-30296040Y-13107000D01*
X-27947032Y-13107000D01*
X-23427031Y-17627000D01*
X-25431771Y-17627000D01*
X-25669997Y-17467823D01*
X-26377961Y-17327000D01*
X-27470039Y-17327000D01*
X-28178003Y-17467823D01*
X-28416229Y-17627000D01*
X-30296040Y-17627000D01*
X-30465131Y-17514017D01*
X-31153961Y-17377000D01*
X-32346039Y-17377000D01*
X-33034869Y-17514017D01*
X-33618831Y-17904208D01*
X-34009022Y-18488170D01*
X-34146039Y-19177000D01*
X-34009022Y-19865830D01*
X-33620697Y-20447000D01*
X-34009022Y-21028170D01*
X-34146039Y-21717000D01*
X-34009022Y-22405830D01*
X-33618831Y-22989792D01*
X-33034869Y-23379983D01*
X-32346039Y-23517000D01*
X-31153961Y-23517000D01*
X-30465131Y-23379983D01*
X-30296040Y-23267000D01*
X-25622229Y-23267000D01*
X-25600530Y-23281499D01*
X-27266032Y-24947000D01*
X-27470039Y-24947000D01*
X-28178003Y-25087823D01*
X-28778187Y-25488852D01*
X-29179216Y-26089036D01*
X-29320039Y-26797000D01*
X-29179216Y-27504964D01*
X-28778187Y-28105148D01*
X-28447758Y-28325933D01*
X-28356013Y-28787159D01*
X-28020016Y-29290016D01*
X-26877018Y-30433013D01*
X-26877016Y-30433016D01*
X-26374159Y-30769013D01*
X-25781000Y-30887001D01*
X-25780995Y-30887000D01*
X-25622229Y-30887000D01*
X-25384003Y-31046177D01*
X-24676039Y-31187000D01*
X-23583961Y-31187000D01*
X-22875997Y-31046177D01*
X-22275813Y-30645148D01*
X-21874784Y-30044964D01*
X-21733961Y-29337000D01*
X-21874784Y-28629036D01*
X-22275813Y-28028852D01*
X-22875997Y-27627823D01*
X-23583961Y-27487000D01*
X-24665211Y-27487000D01*
X-24527961Y-26797000D01*
X-24561808Y-26626840D01*
X-23741969Y-25807000D01*
X-20610408Y-25807000D01*
X-20441317Y-25919983D01*
X-19752487Y-26057000D01*
X-15807513Y-26057000D01*
X-15118683Y-25919983D01*
X-14949592Y-25807000D01*
X-5263960Y-25807000D01*
X-5094869Y-25919983D01*
X-4406039Y-26057000D01*
X-3213961Y-26057000D01*
X-2525131Y-25919983D01*
X-2356040Y-25807000D01*
X-1453960Y-25807000D01*
X-1284869Y-25919983D01*
X-596039Y-26057000D01*
X-265032Y-26057000D01*
X919469Y-27241500D01*
X673968Y-27487000D01*
X469961Y-27487000D01*
X-238003Y-27627823D01*
X-838187Y-28028852D01*
X-1239216Y-28629036D01*
X-1380039Y-29337000D01*
X-1239216Y-30044964D01*
X-838187Y-30645148D01*
X-238003Y-31046177D01*
X469961Y-31187000D01*
X1562039Y-31187000D01*
X2270003Y-31046177D01*
X2870187Y-30645148D01*
X3271216Y-30044964D01*
X3406867Y-29363000D01*
X4603771Y-29363000D01*
X4841997Y-29522177D01*
X5549961Y-29663000D01*
X6642039Y-29663000D01*
X7350003Y-29522177D01*
X7588229Y-29363000D01*
X13855601Y-29363000D01*
X14058852Y-29667187D01*
X14659036Y-30068216D01*
X15367000Y-30209039D01*
X16074964Y-30068216D01*
X16675148Y-29667187D01*
X16738000Y-29573122D01*
X16738000Y-29876771D01*
X16578823Y-30114997D01*
X16438000Y-30822961D01*
X16438000Y-31915039D01*
X16578823Y-32623003D01*
X16979852Y-33223187D01*
X17580036Y-33624216D01*
X18288000Y-33765039D01*
X18995964Y-33624216D01*
X19501181Y-33286642D01*
X19488017Y-33352819D01*
X18345836Y-34495000D01*
X14221737Y-34495000D01*
X14208003Y-34485823D01*
X13500039Y-34345000D01*
X12407961Y-34345000D01*
X11699997Y-34485823D01*
X11686263Y-34495000D01*
X7363737Y-34495000D01*
X7350003Y-34485823D01*
X6642039Y-34345000D01*
X5549961Y-34345000D01*
X4841997Y-34485823D01*
X4828263Y-34495000D01*
X3498163Y-34495000D01*
X3410022Y-34406858D01*
X3271216Y-33709036D01*
X2870187Y-33108852D01*
X2270003Y-32707823D01*
X1562039Y-32567000D01*
X469961Y-32567000D01*
X-238003Y-32707823D01*
X-838187Y-33108852D01*
X-1239216Y-33709036D01*
X-1380039Y-34417000D01*
X-1239216Y-35124964D01*
X-838187Y-35725148D01*
X-238003Y-36126177D01*
X459819Y-36264983D01*
X1591916Y-37397079D01*
X1591918Y-37397082D01*
X2143438Y-37765595D01*
X2251374Y-37787065D01*
X2794000Y-37895001D01*
X2794005Y-37895000D01*
X4828263Y-37895000D01*
X4841997Y-37904177D01*
X5549961Y-38045000D01*
X6642039Y-38045000D01*
X7350003Y-37904177D01*
X7363737Y-37895000D01*
X11686263Y-37895000D01*
X11699997Y-37904177D01*
X12407961Y-38045000D01*
X13500039Y-38045000D01*
X14208003Y-37904177D01*
X14221737Y-37895000D01*
X19049995Y-37895000D01*
X19050000Y-37895001D01*
X19700562Y-37765595D01*
X20252082Y-37397082D01*
X21346142Y-36303022D01*
X21811899Y-36210377D01*
X21772000Y-36410961D01*
X21772000Y-37503039D01*
X21912823Y-38211003D01*
X22313852Y-38811187D01*
X22914036Y-39212216D01*
X23622000Y-39353039D01*
X24329964Y-39212216D01*
X24930148Y-38811187D01*
X25331177Y-38211003D01*
X25472000Y-37503039D01*
X25472000Y-36410961D01*
X25432101Y-36210377D01*
X25908000Y-36305039D01*
X26078161Y-36271192D01*
X26507457Y-36700488D01*
X26531017Y-36818931D01*
X26921208Y-37402893D01*
X27505170Y-37793084D01*
X28194000Y-37930101D01*
X28882830Y-37793084D01*
X29210000Y-37574476D01*
X29537170Y-37793084D01*
X30226000Y-37930101D01*
X30914830Y-37793084D01*
X31498792Y-37402893D01*
X31888983Y-36818931D01*
X32026000Y-36130101D01*
X32026000Y-35243899D01*
X31888983Y-34555069D01*
X31776000Y-34385978D01*
X31776000Y-32880399D01*
X32080187Y-32677148D01*
X32481216Y-32076964D01*
X32622039Y-31369000D01*
X32481216Y-30661036D01*
X32080187Y-30060852D01*
X31480003Y-29659823D01*
X30772039Y-29519000D01*
X29679961Y-29519000D01*
X28971997Y-29659823D01*
X28371813Y-30060852D01*
X27970784Y-30661036D01*
X27829961Y-31369000D01*
X27970784Y-32076964D01*
X28371813Y-32677148D01*
X28676000Y-32880399D01*
X28676000Y-33539775D01*
X28194000Y-33443899D01*
X27758000Y-33530625D01*
X27758000Y-33362961D01*
X27617177Y-32654997D01*
X27458000Y-32416771D01*
X27458000Y-29571940D01*
X27570983Y-29402849D01*
X27708000Y-28714019D01*
X27708000Y-27419981D01*
X27570983Y-26731151D01*
X27323656Y-26361000D01*
X27978039Y-26361000D01*
X28686003Y-26220177D01*
X29286187Y-25819148D01*
X29687216Y-25218964D01*
X29828039Y-24511000D01*
X29687216Y-23803036D01*
X29286187Y-23202852D01*
X28686003Y-22801823D01*
X27978039Y-22661000D01*
X27323656Y-22661000D01*
X27570983Y-22290849D01*
X27708000Y-21602019D01*
X27708000Y-20815429D01*
X28194000Y-20912101D01*
X28882830Y-20775084D01*
X29210000Y-20556476D01*
X29537170Y-20775084D01*
X30226000Y-20912101D01*
X30914830Y-20775084D01*
X31498792Y-20384893D01*
X31888983Y-19800931D01*
X32026000Y-19112101D01*
X32026000Y-18225899D01*
X31888983Y-17537069D01*
X31776000Y-17367978D01*
X31776000Y-15589229D01*
X31935177Y-15351003D01*
X32076000Y-14643039D01*
X32076000Y-13550961D01*
X31935177Y-12842997D01*
X31534148Y-12242813D01*
X30933964Y-11841784D01*
X30226000Y-11700961D01*
X29518036Y-11841784D01*
X28917852Y-12242813D01*
X28516823Y-12842997D01*
X28376000Y-13550961D01*
X28376000Y-14643039D01*
X28516823Y-15351003D01*
X28676000Y-15589229D01*
X28676000Y-16521775D01*
X28194000Y-16425899D01*
X28151404Y-16434372D01*
X27682518Y-15965486D01*
X27617177Y-15636997D01*
X27216148Y-15036813D01*
X26615964Y-14635784D01*
X25908000Y-14494961D01*
X25200036Y-14635784D01*
X24599852Y-15036813D01*
X24198823Y-15636997D01*
X24058000Y-16344961D01*
X24058000Y-17437039D01*
X24198823Y-18145003D01*
X24358000Y-18383229D01*
X24358000Y-18685870D01*
X24296830Y-18644998D01*
X23608000Y-18507981D01*
X23008000Y-18627329D01*
X23008000Y-18200642D01*
X23045177Y-18145003D01*
X23186000Y-17437039D01*
X23186000Y-16344961D01*
X23045177Y-15636997D01*
X23036000Y-15623263D01*
X23036000Y-10835164D01*
X23513978Y-11313142D01*
X23652784Y-12010964D01*
X24053813Y-12611148D01*
X24653997Y-13012177D01*
X25361961Y-13153000D01*
X26454039Y-13153000D01*
X27162003Y-13012177D01*
X27762187Y-12611148D01*
X28163216Y-12010964D01*
X28304039Y-11303000D01*
X28163216Y-10595036D01*
X27762187Y-9994852D01*
X27162003Y-9593823D01*
X26464181Y-9455017D01*
X25558728Y-8549564D01*
X25908000Y-8619039D01*
X26615964Y-8478216D01*
X27216148Y-8077187D01*
X27617177Y-7477003D01*
X27758000Y-6769039D01*
X27758000Y-6565032D01*
X28151403Y-6171628D01*
X28194000Y-6180101D01*
X28676000Y-6084225D01*
X28676000Y-7778771D01*
X28516823Y-8016997D01*
X28376000Y-8724961D01*
X28376000Y-9817039D01*
X28516823Y-10525003D01*
X28917852Y-11125187D01*
X29518036Y-11526216D01*
X30226000Y-11667039D01*
X30933964Y-11526216D01*
X31534148Y-11125187D01*
X31935177Y-10525003D01*
X32076000Y-9817039D01*
X32076000Y-8724961D01*
X31935177Y-8016997D01*
X31776000Y-7778771D01*
X31776000Y-5238022D01*
X31888983Y-5068931D01*
X32026000Y-4380101D01*
X32026000Y-3493899D01*
X31888983Y-2805069D01*
X31498792Y-2221107D01*
X30914830Y-1830916D01*
X30226000Y-1693899D01*
X29537170Y-1830916D01*
X29210000Y-2049524D01*
X28882830Y-1830916D01*
X28194000Y-1693899D01*
X27615503Y-1808969D01*
X27570983Y-1585151D01*
X27180792Y-1001189D01*
X26596830Y-610998D01*
X25908000Y-473981D01*
X25219170Y-610998D01*
X24758000Y-919142D01*
X24296830Y-610998D01*
X23608000Y-473981D01*
X23036000Y-587759D01*
X23036000Y2415263D01*
X23045177Y2428997D01*
X23186000Y3136961D01*
X23186000Y4229039D01*
X23052026Y4902571D01*
X23608000Y4791981D01*
X24193128Y4908370D01*
X24058000Y4229039D01*
X24058000Y3136961D01*
X24198823Y2428997D01*
X24599852Y1828813D01*
X25200036Y1427784D01*
X25908000Y1286961D01*
X26615964Y1427784D01*
X27216148Y1828813D01*
X27617177Y2428997D01*
X27758000Y3136961D01*
X27758000Y3340968D01*
X28151403Y3734372D01*
X28194000Y3725899D01*
X28676000Y3821775D01*
X28676000Y2635229D01*
X28516823Y2397003D01*
X28376000Y1689039D01*
X28376000Y596961D01*
X28516823Y-111003D01*
X28917852Y-711187D01*
X29518036Y-1112216D01*
X30226000Y-1253039D01*
X30933964Y-1112216D01*
X31534148Y-711187D01*
X31935177Y-111003D01*
X32076000Y596961D01*
X32076000Y1689039D01*
X31935177Y2397003D01*
X31776000Y2635229D01*
X31776000Y4667978D01*
X31888983Y4837069D01*
X32026000Y5525899D01*
X32026000Y6412101D01*
X31888983Y7100931D01*
X31498792Y7684893D01*
X30914830Y8075084D01*
X30226000Y8212101D01*
X29537170Y8075084D01*
X29210000Y7856476D01*
X28882830Y8075084D01*
X28194000Y8212101D01*
X27664104Y8106698D01*
X27570983Y8574849D01*
X27281232Y9008492D01*
X27670003Y9085823D01*
X28270187Y9486852D01*
X28671216Y10087036D01*
X28812039Y10795000D01*
X28788765Y10912006D01*
X28917852Y10718813D01*
X29518036Y10317784D01*
X30226000Y10176961D01*
X30933964Y10317784D01*
X31534148Y10718813D01*
X31935177Y11318997D01*
X32076000Y12026961D01*
X32076000Y13119039D01*
X31935177Y13827003D01*
X31776000Y14065229D01*
X31776000Y16351978D01*
X31888983Y16521069D01*
X32026000Y17209899D01*
X32026000Y18096101D01*
X31888983Y18784931D01*
X31498792Y19368893D01*
X30914830Y19759084D01*
X30226000Y19896101D01*
X29537170Y19759084D01*
X29210000Y19540476D01*
X28882830Y19759084D01*
X28194000Y19896101D01*
X27664104Y19790698D01*
X27646952Y19876928D01*
X28305003Y20007823D01*
X28905187Y20408852D01*
X29306216Y21009036D01*
X29447039Y21717000D01*
X29370826Y22100146D01*
X29518036Y22001784D01*
X30226000Y21860961D01*
X30933964Y22001784D01*
X31534148Y22402813D01*
X31935177Y23002997D01*
X32076000Y23710961D01*
X32076000Y24803039D01*
X31935177Y25511003D01*
X31776000Y25749229D01*
X31776000Y27781978D01*
X31888983Y27951069D01*
X32026000Y28639899D01*
X32026000Y29526101D01*
X31888983Y30214931D01*
X31498792Y30798893D01*
X30914830Y31189084D01*
X30226000Y31326101D01*
X29537170Y31189084D01*
X29210000Y30970476D01*
X28882830Y31189084D01*
X28194000Y31326101D01*
X27708000Y31229429D01*
X27708000Y32270019D01*
X27570983Y32958849D01*
X27180792Y33542811D01*
X26596830Y33933002D01*
X25908000Y34070019D01*
X25322000Y33953456D01*
X25322000Y34546263D01*
X25331177Y34559997D01*
X25472000Y35267961D01*
X25472000Y36360039D01*
X25331177Y37068003D01*
X24930148Y37668187D01*
X24329964Y38069216D01*
X23622000Y38210039D01*
X22914036Y38069216D01*
X22313852Y37668187D01*
X21912823Y37068003D01*
X21772000Y36360039D01*
X21772000Y35267961D01*
X21912823Y34559997D01*
X21922000Y34546263D01*
X21922000Y33947887D01*
X21308000Y34070019D01*
X20619170Y33933002D01*
X20035208Y33542811D01*
X19645017Y32958849D01*
X19508000Y32270019D01*
X19508000Y32227163D01*
X13783918Y26503082D01*
X13415405Y25951562D01*
X13384000Y25793680D01*
X13384000Y27561263D01*
X13393177Y27574997D01*
X13534000Y28282961D01*
X13534000Y29375039D01*
X13393177Y30083003D01*
X12992148Y30683187D01*
X12391964Y31084216D01*
X11684000Y31225039D01*
X10976036Y31084216D01*
X10375852Y30683187D01*
X9974823Y30083003D01*
X9834000Y29375039D01*
X9834000Y28282961D01*
X9974823Y27574997D01*
X9984000Y27561263D01*
X9984000Y25942143D01*
X9980084Y25961830D01*
X9589893Y26545792D01*
X9005931Y26935983D01*
X8317101Y27073000D01*
X7430899Y27073000D01*
X6742069Y26935983D01*
X6572978Y26823000D01*
X3016229Y26823000D01*
X2778003Y26982177D01*
X2070039Y27123000D01*
X977961Y27123000D01*
X269997Y26982177D01*
X-330187Y26581148D01*
X-731216Y25980964D01*
X-872039Y25273000D01*
X-731216Y24565036D01*
X-330187Y23964852D01*
X269997Y23563823D01*
X977961Y23423000D01*
X2070039Y23423000D01*
X2778003Y23563823D01*
X3016229Y23723000D01*
X5147969Y23723000D01*
X4229968Y22805000D01*
X4025961Y22805000D01*
X3317997Y22664177D01*
X2717813Y22263148D01*
X2316784Y21662964D01*
X2175961Y20955000D01*
X2316784Y20247036D01*
X2717813Y19646852D01*
X3317997Y19245823D01*
X4025961Y19105000D01*
X5118039Y19105000D01*
X5532906Y19187522D01*
X5426981Y18655000D01*
X5527107Y18151631D01*
X5118039Y18233000D01*
X4025961Y18233000D01*
X3317997Y18092177D01*
X2717813Y17691148D01*
X2316784Y17090964D01*
X2175961Y16383000D01*
X2316784Y15675036D01*
X2717813Y15074852D01*
X3317997Y14673823D01*
X4025961Y14533000D01*
X5118039Y14533000D01*
X5826003Y14673823D01*
X5839737Y14683000D01*
X6583482Y14683000D01*
X7226981Y14555000D01*
X8521019Y14555000D01*
X9023752Y14655000D01*
X10131995Y14655000D01*
X10132000Y14654999D01*
X10782562Y14784405D01*
X11334082Y15152918D01*
X16188079Y20006916D01*
X16188082Y20006918D01*
X16556595Y20558438D01*
X16581770Y20685003D01*
X16686001Y21209000D01*
X16686000Y21209005D01*
X16686000Y22842595D01*
X16738000Y22764771D01*
X16738000Y18422031D01*
X14016984Y15701016D01*
X13680987Y15198159D01*
X13562999Y14605000D01*
X13563000Y14604995D01*
X13563000Y10063061D01*
X13019849Y10425983D01*
X12331019Y10563000D01*
X12076031Y10563000D01*
X8970016Y13669016D01*
X8467159Y14005013D01*
X7874000Y14123001D01*
X7873995Y14123000D01*
X3016229Y14123000D01*
X2778003Y14282177D01*
X2070039Y14423000D01*
X977961Y14423000D01*
X269997Y14282177D01*
X-330187Y13881148D01*
X-731216Y13280964D01*
X-872039Y12573000D01*
X-731216Y11865036D01*
X-330187Y11264852D01*
X269997Y10863823D01*
X977961Y10723000D01*
X2070039Y10723000D01*
X2778003Y10863823D01*
X3016229Y11023000D01*
X7231968Y11023000D01*
X9279286Y8975682D01*
X9236981Y8763000D01*
X9373998Y8074170D01*
X9762323Y7493000D01*
X9373998Y6911830D01*
X9236981Y6223000D01*
X9373998Y5534170D01*
X9762323Y4953000D01*
X9373998Y4371830D01*
X9236981Y3683000D01*
X9373998Y2994170D01*
X9762323Y2413000D01*
X9373998Y1831830D01*
X9236981Y1143000D01*
X9373998Y454170D01*
X9762323Y-127000D01*
X9373998Y-708170D01*
X9236981Y-1397000D01*
X9373998Y-2085830D01*
X9762323Y-2667000D01*
X9373998Y-3248170D01*
X9236981Y-3937000D01*
X9373998Y-4625830D01*
X9762323Y-5207000D01*
X9373998Y-5788170D01*
X9236981Y-6477000D01*
X9373998Y-7165830D01*
X9764189Y-7749792D01*
X10134000Y-7996892D01*
X10134000Y-11556995D01*
X10133999Y-11557000D01*
X10251987Y-12150159D01*
X10587984Y-12653016D01*
X12881458Y-14946489D01*
X12331019Y-14837000D01*
X11036981Y-14837000D01*
X10348151Y-14974017D01*
X9764189Y-15364208D01*
X9373998Y-15948170D01*
X9236981Y-16637000D01*
X9373998Y-17325830D01*
X9764189Y-17909792D01*
X10348151Y-18299983D01*
X11036981Y-18437000D01*
X12331019Y-18437000D01*
X12735510Y-18356542D01*
X13601437Y-19222468D01*
X13517000Y-19646961D01*
X13517000Y-20739039D01*
X13657823Y-21447003D01*
X14058852Y-22047187D01*
X14659036Y-22448216D01*
X15367000Y-22589039D01*
X16074964Y-22448216D01*
X16675148Y-22047187D01*
X16738000Y-21953122D01*
X16738000Y-26052878D01*
X16675148Y-25958813D01*
X16074964Y-25557784D01*
X15367000Y-25416961D01*
X14659036Y-25557784D01*
X14058852Y-25958813D01*
X13855601Y-26263000D01*
X9170000Y-26263000D01*
X9170000Y-13843005D01*
X9170001Y-13843000D01*
X9052013Y-13249841D01*
X8987306Y-13153000D01*
X8716016Y-12746984D01*
X8716013Y-12746982D01*
X6430016Y-10460984D01*
X5927159Y-10124987D01*
X5668526Y-10073541D01*
X5399849Y-9894017D01*
X4711019Y-9757000D01*
X4456031Y-9757000D01*
X1837587Y-7138555D01*
X1709177Y-6492997D01*
X1308148Y-5892813D01*
X707964Y-5491784D01*
X0Y-5350961D01*
X-707964Y-5491784D01*
X-1308148Y-5892813D01*
X-1709177Y-6492997D01*
X-1850000Y-7200961D01*
X-1850000Y-8293039D01*
X-1709177Y-9001003D01*
X-1308148Y-9601187D01*
X-707964Y-10002216D01*
X0Y-10143039D01*
X382019Y-10067051D01*
X1135969Y-10821000D01*
X1659286Y-11344318D01*
X1616981Y-11557000D01*
X1753998Y-12245830D01*
X2144189Y-12829792D01*
X2728151Y-13219983D01*
X3416981Y-13357000D01*
X4711019Y-13357000D01*
X4903651Y-13318683D01*
X6070000Y-14485031D01*
X6070000Y-18033199D01*
X5983811Y-17904208D01*
X5399849Y-17514017D01*
X4711019Y-17377000D01*
X3416981Y-17377000D01*
X2728151Y-17514017D01*
X2559060Y-17627000D01*
X1453960Y-17627000D01*
X1284869Y-17514017D01*
X596039Y-17377000D01*
X-596039Y-17377000D01*
X-1284869Y-17514017D01*
X-1453960Y-17627000D01*
X-14345765Y-17627000D01*
X-14144530Y-17325830D01*
X-14007513Y-16637000D01*
X-14144530Y-15948170D01*
X-14532855Y-15367000D01*
X-14144530Y-14785830D01*
X-14007513Y-14097000D01*
X-14144530Y-13408170D01*
X-14534721Y-12824208D01*
X-15118683Y-12434017D01*
X-15807513Y-12297000D01*
X-19752487Y-12297000D01*
X-20441317Y-12434017D01*
X-21025279Y-12824208D01*
X-21415470Y-13408170D01*
X-21552487Y-14097000D01*
X-21415470Y-14785830D01*
X-21214235Y-15087000D01*
X-21582969Y-15087000D01*
X-26208984Y-10460984D01*
X-26711841Y-10124987D01*
X-27305000Y-10006999D01*
X-27305005Y-10007000D01*
X-30296040Y-10007000D01*
X-30465131Y-9894017D01*
X-31153961Y-9757000D01*
X-32346039Y-9757000D01*
X-33034869Y-9894017D01*
X-33618831Y-10284208D01*
X-34009022Y-10868170D01*
X-34146039Y-11557000D01*
X-37726600Y-11557000D01*
X-37726600Y23255000D01*
X-33943019Y23255000D01*
X-33806002Y22566170D01*
X-33497858Y22105000D01*
X-33806002Y21643830D01*
X-33943019Y20955000D01*
X-33806002Y20266170D01*
X-33415811Y19682208D01*
X-32831849Y19292017D01*
X-32143019Y19155000D01*
X-30848981Y19155000D01*
X-30160151Y19292017D01*
X-29991060Y19405000D01*
X-29852032Y19405000D01*
X-29536000Y19088969D01*
X-29536000Y18884961D01*
X-29395177Y18176997D01*
X-29236000Y17938771D01*
X-29236000Y16764005D01*
X-29236001Y16764000D01*
X-29118013Y16170841D01*
X-28782016Y15667984D01*
X-13161018Y46987D01*
X-13161016Y46984D01*
X-12658159Y-289013D01*
X-12065000Y-407001D01*
X-12064995Y-407000D01*
X2559060Y-407000D01*
X2728151Y-519983D01*
X3416981Y-657000D01*
X4711019Y-657000D01*
X5399849Y-519983D01*
X5983811Y-129792D01*
X6374002Y454170D01*
X6511019Y1143000D01*
X6374002Y1831830D01*
X5985677Y2413000D01*
X6374002Y2994170D01*
X6511019Y3683000D01*
X6374002Y4371830D01*
X5985677Y4953000D01*
X6374002Y5534170D01*
X6511019Y6223000D01*
X6374002Y6911830D01*
X5985677Y7493000D01*
X6374002Y8074170D01*
X6511019Y8763000D01*
X6374002Y9451830D01*
X5983811Y10035792D01*
X5399849Y10425983D01*
X4711019Y10563000D01*
X3416981Y10563000D01*
X2728151Y10425983D01*
X2559060Y10313000D01*
X-3548969Y10313000D01*
X-5308000Y12072032D01*
X-5308000Y17938771D01*
X-5148823Y18176997D01*
X-5008000Y18884961D01*
X-5008000Y19088968D01*
X-4691969Y19405000D01*
X-4552940Y19405000D01*
X-4383849Y19292017D01*
X-3695019Y19155000D01*
X-2400981Y19155000D01*
X-1712151Y19292017D01*
X-1128189Y19682208D01*
X-737998Y20266170D01*
X-600981Y20955000D01*
X-737998Y21643830D01*
X-1046142Y22105000D01*
X-737998Y22566170D01*
X-600981Y23255000D01*
X-737998Y23943830D01*
X-1128189Y24527792D01*
X-1712151Y24917983D01*
X-2400981Y25055000D01*
X-3695019Y25055000D01*
X-4197752Y24955000D01*
X-5025836Y24955000D01*
X-2742344Y27238492D01*
X-2726143Y27241715D01*
X-2125960Y27642744D01*
X-1353745Y28414960D01*
X-952715Y29015143D01*
X-811892Y29723108D01*
X-952715Y30431072D01*
X-1353745Y31031255D01*
X-1953928Y31432285D01*
X-2661892Y31573108D01*
X-3369857Y31432285D01*
X-3970040Y31031255D01*
X-4742256Y30259040D01*
X-5143285Y29658857D01*
X-5146508Y29642656D01*
X-7933082Y26856082D01*
X-8301595Y26304562D01*
X-8431001Y25654000D01*
X-8431000Y25653995D01*
X-8431000Y24130005D01*
X-8431001Y24130000D01*
X-8301595Y23479438D01*
X-7933082Y22927918D01*
X-7058084Y22052921D01*
X-7058082Y22052918D01*
X-6680443Y21800588D01*
X-6687839Y21793192D01*
X-6858000Y21827039D01*
X-7565964Y21686216D01*
X-8166148Y21285187D01*
X-8567177Y20685003D01*
X-8708000Y19977039D01*
X-8708000Y18884961D01*
X-8567177Y18176997D01*
X-8408000Y17938771D01*
X-8408000Y11430005D01*
X-8408001Y11430000D01*
X-8290013Y10836841D01*
X-7954016Y10333984D01*
X-5393031Y7773000D01*
X-5580969Y7773000D01*
X-9118000Y11310032D01*
X-9118000Y17938771D01*
X-8958823Y18176997D01*
X-8818000Y18884961D01*
X-8818000Y19977039D01*
X-8958823Y20685003D01*
X-9359852Y21285187D01*
X-9960036Y21686216D01*
X-10578588Y21809254D01*
X-10213918Y22052918D01*
X-9465921Y22800916D01*
X-9465918Y22800918D01*
X-9097405Y23352438D01*
X-9026090Y23710961D01*
X-8967999Y24003000D01*
X-8968000Y24003005D01*
X-8968000Y25526995D01*
X-8967999Y25527000D01*
X-9097405Y26177561D01*
X-9097405Y26177562D01*
X-9465918Y26729082D01*
X-9465921Y26729084D01*
X-12379492Y29642656D01*
X-12382715Y29658857D01*
X-12783745Y30259040D01*
X-13555960Y31031256D01*
X-14156143Y31432285D01*
X-14864108Y31573109D01*
X-15572073Y31432285D01*
X-16172256Y31031256D01*
X-16573285Y30431073D01*
X-16714109Y29723108D01*
X-16573285Y29015143D01*
X-16172256Y28414960D01*
X-15400040Y27642745D01*
X-14799857Y27241715D01*
X-14783656Y27238492D01*
X-12500163Y24955000D01*
X-13328248Y24955000D01*
X-13830981Y25055000D01*
X-15125019Y25055000D01*
X-15813849Y24917983D01*
X-16397811Y24527792D01*
X-16788002Y23943830D01*
X-16925019Y23255000D01*
X-16788002Y22566170D01*
X-16479858Y22105000D01*
X-16788002Y21643830D01*
X-16925019Y20955000D01*
X-16788002Y20266170D01*
X-16397811Y19682208D01*
X-15813849Y19292017D01*
X-15125019Y19155000D01*
X-13830981Y19155000D01*
X-13142151Y19292017D01*
X-12973060Y19405000D01*
X-12834032Y19405000D01*
X-12518000Y19088969D01*
X-12518000Y18884961D01*
X-12377177Y18176997D01*
X-12218000Y17938771D01*
X-12218000Y10668005D01*
X-12218001Y10668000D01*
X-12100013Y10074841D01*
X-11764016Y9571984D01*
X-7425031Y5233000D01*
X-9771969Y5233000D01*
X-22326000Y17787032D01*
X-22326000Y17938771D01*
X-22166823Y18176997D01*
X-22026000Y18884961D01*
X-22026000Y19088968D01*
X-21709969Y19405000D01*
X-21570940Y19405000D01*
X-21401849Y19292017D01*
X-20713019Y19155000D01*
X-19418981Y19155000D01*
X-18730151Y19292017D01*
X-18146189Y19682208D01*
X-17755998Y20266170D01*
X-17618981Y20955000D01*
X-17755998Y21643830D01*
X-18064142Y22105000D01*
X-17755998Y22566170D01*
X-17618981Y23255000D01*
X-17755998Y23943830D01*
X-18146189Y24527792D01*
X-18730151Y24917983D01*
X-19418981Y25055000D01*
X-20713019Y25055000D01*
X-21215752Y24955000D01*
X-21915836Y24955000D01*
X-21922000Y24961164D01*
X-21922000Y25076836D01*
X-19760344Y27238492D01*
X-19744143Y27241715D01*
X-19143960Y27642744D01*
X-18371745Y28414960D01*
X-17970715Y29015143D01*
X-17829892Y29723108D01*
X-17970715Y30431072D01*
X-18371745Y31031255D01*
X-18971928Y31432285D01*
X-19679892Y31573108D01*
X-20387857Y31432285D01*
X-20988040Y31031255D01*
X-21760256Y30259040D01*
X-22161285Y29658857D01*
X-22164508Y29642656D01*
X-24824082Y26983082D01*
X-25192595Y26431562D01*
X-25322001Y25781000D01*
X-25322000Y25780995D01*
X-25322000Y24257005D01*
X-25322001Y24257000D01*
X-25192595Y23606438D01*
X-24824082Y23054918D01*
X-23822082Y22052918D01*
X-23596705Y21902326D01*
X-23705839Y21793192D01*
X-23876000Y21827039D01*
X-24583964Y21686216D01*
X-25184148Y21285187D01*
X-25585177Y20685003D01*
X-25726000Y19977039D01*
X-25726000Y18884961D01*
X-25585177Y18176997D01*
X-25426000Y17938771D01*
X-25426000Y17145005D01*
X-25426001Y17145000D01*
X-25314520Y16584552D01*
X-26136000Y17406032D01*
X-26136000Y17938771D01*
X-25976823Y18176997D01*
X-25836000Y18884961D01*
X-25836000Y19977039D01*
X-25976823Y20685003D01*
X-26377852Y21285187D01*
X-26978036Y21686216D01*
X-27686000Y21827039D01*
X-27856160Y21793192D01*
X-27863557Y21800589D01*
X-27485918Y22052918D01*
X-26483918Y23054918D01*
X-26115405Y23606438D01*
X-25985999Y24257000D01*
X-25986000Y24257005D01*
X-25986000Y25526995D01*
X-25985999Y25527000D01*
X-26115405Y26177561D01*
X-26115405Y26177562D01*
X-26483918Y26729082D01*
X-26483921Y26729084D01*
X-29397492Y29642656D01*
X-29400715Y29658857D01*
X-29801745Y30259040D01*
X-30573960Y31031256D01*
X-31174143Y31432285D01*
X-31882108Y31573109D01*
X-32590073Y31432285D01*
X-33190256Y31031256D01*
X-33591285Y30431073D01*
X-33732109Y29723108D01*
X-33591285Y29015143D01*
X-33190256Y28414960D01*
X-32418040Y27642745D01*
X-31817857Y27241715D01*
X-31801656Y27238492D01*
X-29518163Y24955000D01*
X-30346248Y24955000D01*
X-30848981Y25055000D01*
X-32143019Y25055000D01*
X-32831849Y24917983D01*
X-33415811Y24527792D01*
X-33806002Y23943830D01*
X-33943019Y23255000D01*
X-37726600Y23255000D01*
X-37726600Y38227000D01*
X-36173740Y38227000D01*
X-36001347Y37360322D01*
X-35510413Y36625587D01*
X-34775678Y36134653D01*
X-33909000Y35962260D01*
X-33042322Y36134653D01*
X-32307587Y36625587D01*
X-31816653Y37360322D01*
X-31644260Y38227000D01*
X31730591Y38227000D01*
X31906080Y37344758D01*
X32405830Y36596830D01*
X33153758Y36097080D01*
X34036000Y35921591D01*
X34918242Y36097080D01*
X35666170Y36596830D01*
X36165920Y37344758D01*
X36341409Y38227000D01*
X36165920Y39109242D01*
X35666170Y39857170D01*
X34918242Y40356920D01*
X34036000Y40532409D01*
X33153758Y40356920D01*
X32405830Y39857170D01*
X31906080Y39109242D01*
X31730591Y38227000D01*
X-31644260Y38227000D01*
X-31816653Y39093678D01*
X-32307587Y39828413D01*
X-33042322Y40319347D01*
X-33909000Y40491740D01*
X-34775678Y40319347D01*
X-35510413Y39828413D01*
X-36001347Y39093678D01*
X-36173740Y38227000D01*
X-37726600Y38227000D01*
X-37726600Y42171600D01*
X37853600Y42171600D01*
X37853600Y-42298600D01*
X37853600Y-42298600D01*
G37*
X37853600Y-42298600D02*
X-37726600Y-42298600D01*
X-37726600Y-36957000D01*
X-32798763Y-36957000D01*
X-32622258Y-37844352D01*
X-32119613Y-38596613D01*
X-31367352Y-39099258D01*
X-30480000Y-39275763D01*
X-29592648Y-39099258D01*
X-28840387Y-38596613D01*
X-28337742Y-37844352D01*
X-28161237Y-36957000D01*
X-7455533Y-36957000D01*
X-7274706Y-37866077D01*
X-6759755Y-38636755D01*
X-5989077Y-39151706D01*
X-5080000Y-39332533D01*
X-4170923Y-39151706D01*
X-3400245Y-38636755D01*
X-2885294Y-37866077D01*
X-2704467Y-36957000D01*
X-2885294Y-36047923D01*
X-3400245Y-35277245D01*
X-4170923Y-34762294D01*
X-5080000Y-34581467D01*
X-5989077Y-34762294D01*
X-6759755Y-35277245D01*
X-7274706Y-36047923D01*
X-7455533Y-36957000D01*
X-28161237Y-36957000D01*
X-28337742Y-36069648D01*
X-28840387Y-35317387D01*
X-29592648Y-34814742D01*
X-30480000Y-34638237D01*
X-31367352Y-34814742D01*
X-32119613Y-35317387D01*
X-32622258Y-36069648D01*
X-32798763Y-36957000D01*
X-37726600Y-36957000D01*
X-37726600Y-11557000D01*
X-34146039Y-11557000D01*
X-34009022Y-12245830D01*
X-33618831Y-12829792D01*
X-33034869Y-13219983D01*
X-32346039Y-13357000D01*
X-31153961Y-13357000D01*
X-30465131Y-13219983D01*
X-30296040Y-13107000D01*
X-27947032Y-13107000D01*
X-23427031Y-17627000D01*
X-25431771Y-17627000D01*
X-25669997Y-17467823D01*
X-26377961Y-17327000D01*
X-27470039Y-17327000D01*
X-28178003Y-17467823D01*
X-28416229Y-17627000D01*
X-30296040Y-17627000D01*
X-30465131Y-17514017D01*
X-31153961Y-17377000D01*
X-32346039Y-17377000D01*
X-33034869Y-17514017D01*
X-33618831Y-17904208D01*
X-34009022Y-18488170D01*
X-34146039Y-19177000D01*
X-34009022Y-19865830D01*
X-33620697Y-20447000D01*
X-34009022Y-21028170D01*
X-34146039Y-21717000D01*
X-34009022Y-22405830D01*
X-33618831Y-22989792D01*
X-33034869Y-23379983D01*
X-32346039Y-23517000D01*
X-31153961Y-23517000D01*
X-30465131Y-23379983D01*
X-30296040Y-23267000D01*
X-25622229Y-23267000D01*
X-25600530Y-23281499D01*
X-27266032Y-24947000D01*
X-27470039Y-24947000D01*
X-28178003Y-25087823D01*
X-28778187Y-25488852D01*
X-29179216Y-26089036D01*
X-29320039Y-26797000D01*
X-29179216Y-27504964D01*
X-28778187Y-28105148D01*
X-28447758Y-28325933D01*
X-28356013Y-28787159D01*
X-28020016Y-29290016D01*
X-26877018Y-30433013D01*
X-26877016Y-30433016D01*
X-26374159Y-30769013D01*
X-25781000Y-30887001D01*
X-25780995Y-30887000D01*
X-25622229Y-30887000D01*
X-25384003Y-31046177D01*
X-24676039Y-31187000D01*
X-23583961Y-31187000D01*
X-22875997Y-31046177D01*
X-22275813Y-30645148D01*
X-21874784Y-30044964D01*
X-21733961Y-29337000D01*
X-21874784Y-28629036D01*
X-22275813Y-28028852D01*
X-22875997Y-27627823D01*
X-23583961Y-27487000D01*
X-24665211Y-27487000D01*
X-24527961Y-26797000D01*
X-24561808Y-26626840D01*
X-23741969Y-25807000D01*
X-20610408Y-25807000D01*
X-20441317Y-25919983D01*
X-19752487Y-26057000D01*
X-15807513Y-26057000D01*
X-15118683Y-25919983D01*
X-14949592Y-25807000D01*
X-5263960Y-25807000D01*
X-5094869Y-25919983D01*
X-4406039Y-26057000D01*
X-3213961Y-26057000D01*
X-2525131Y-25919983D01*
X-2356040Y-25807000D01*
X-1453960Y-25807000D01*
X-1284869Y-25919983D01*
X-596039Y-26057000D01*
X-265032Y-26057000D01*
X919469Y-27241500D01*
X673968Y-27487000D01*
X469961Y-27487000D01*
X-238003Y-27627823D01*
X-838187Y-28028852D01*
X-1239216Y-28629036D01*
X-1380039Y-29337000D01*
X-1239216Y-30044964D01*
X-838187Y-30645148D01*
X-238003Y-31046177D01*
X469961Y-31187000D01*
X1562039Y-31187000D01*
X2270003Y-31046177D01*
X2870187Y-30645148D01*
X3271216Y-30044964D01*
X3406867Y-29363000D01*
X4603771Y-29363000D01*
X4841997Y-29522177D01*
X5549961Y-29663000D01*
X6642039Y-29663000D01*
X7350003Y-29522177D01*
X7588229Y-29363000D01*
X13855601Y-29363000D01*
X14058852Y-29667187D01*
X14659036Y-30068216D01*
X15367000Y-30209039D01*
X16074964Y-30068216D01*
X16675148Y-29667187D01*
X16738000Y-29573122D01*
X16738000Y-29876771D01*
X16578823Y-30114997D01*
X16438000Y-30822961D01*
X16438000Y-31915039D01*
X16578823Y-32623003D01*
X16979852Y-33223187D01*
X17580036Y-33624216D01*
X18288000Y-33765039D01*
X18995964Y-33624216D01*
X19501181Y-33286642D01*
X19488017Y-33352819D01*
X18345836Y-34495000D01*
X14221737Y-34495000D01*
X14208003Y-34485823D01*
X13500039Y-34345000D01*
X12407961Y-34345000D01*
X11699997Y-34485823D01*
X11686263Y-34495000D01*
X7363737Y-34495000D01*
X7350003Y-34485823D01*
X6642039Y-34345000D01*
X5549961Y-34345000D01*
X4841997Y-34485823D01*
X4828263Y-34495000D01*
X3498163Y-34495000D01*
X3410022Y-34406858D01*
X3271216Y-33709036D01*
X2870187Y-33108852D01*
X2270003Y-32707823D01*
X1562039Y-32567000D01*
X469961Y-32567000D01*
X-238003Y-32707823D01*
X-838187Y-33108852D01*
X-1239216Y-33709036D01*
X-1380039Y-34417000D01*
X-1239216Y-35124964D01*
X-838187Y-35725148D01*
X-238003Y-36126177D01*
X459819Y-36264983D01*
X1591916Y-37397079D01*
X1591918Y-37397082D01*
X2143438Y-37765595D01*
X2251374Y-37787065D01*
X2794000Y-37895001D01*
X2794005Y-37895000D01*
X4828263Y-37895000D01*
X4841997Y-37904177D01*
X5549961Y-38045000D01*
X6642039Y-38045000D01*
X7350003Y-37904177D01*
X7363737Y-37895000D01*
X11686263Y-37895000D01*
X11699997Y-37904177D01*
X12407961Y-38045000D01*
X13500039Y-38045000D01*
X14208003Y-37904177D01*
X14221737Y-37895000D01*
X19049995Y-37895000D01*
X19050000Y-37895001D01*
X19700562Y-37765595D01*
X20252082Y-37397082D01*
X21346142Y-36303022D01*
X21811899Y-36210377D01*
X21772000Y-36410961D01*
X21772000Y-37503039D01*
X21912823Y-38211003D01*
X22313852Y-38811187D01*
X22914036Y-39212216D01*
X23622000Y-39353039D01*
X24329964Y-39212216D01*
X24930148Y-38811187D01*
X25331177Y-38211003D01*
X25472000Y-37503039D01*
X25472000Y-36410961D01*
X25432101Y-36210377D01*
X25908000Y-36305039D01*
X26078161Y-36271192D01*
X26507457Y-36700488D01*
X26531017Y-36818931D01*
X26921208Y-37402893D01*
X27505170Y-37793084D01*
X28194000Y-37930101D01*
X28882830Y-37793084D01*
X29210000Y-37574476D01*
X29537170Y-37793084D01*
X30226000Y-37930101D01*
X30914830Y-37793084D01*
X31498792Y-37402893D01*
X31888983Y-36818931D01*
X32026000Y-36130101D01*
X32026000Y-35243899D01*
X31888983Y-34555069D01*
X31776000Y-34385978D01*
X31776000Y-32880399D01*
X32080187Y-32677148D01*
X32481216Y-32076964D01*
X32622039Y-31369000D01*
X32481216Y-30661036D01*
X32080187Y-30060852D01*
X31480003Y-29659823D01*
X30772039Y-29519000D01*
X29679961Y-29519000D01*
X28971997Y-29659823D01*
X28371813Y-30060852D01*
X27970784Y-30661036D01*
X27829961Y-31369000D01*
X27970784Y-32076964D01*
X28371813Y-32677148D01*
X28676000Y-32880399D01*
X28676000Y-33539775D01*
X28194000Y-33443899D01*
X27758000Y-33530625D01*
X27758000Y-33362961D01*
X27617177Y-32654997D01*
X27458000Y-32416771D01*
X27458000Y-29571940D01*
X27570983Y-29402849D01*
X27708000Y-28714019D01*
X27708000Y-27419981D01*
X27570983Y-26731151D01*
X27323656Y-26361000D01*
X27978039Y-26361000D01*
X28686003Y-26220177D01*
X29286187Y-25819148D01*
X29687216Y-25218964D01*
X29828039Y-24511000D01*
X29687216Y-23803036D01*
X29286187Y-23202852D01*
X28686003Y-22801823D01*
X27978039Y-22661000D01*
X27323656Y-22661000D01*
X27570983Y-22290849D01*
X27708000Y-21602019D01*
X27708000Y-20815429D01*
X28194000Y-20912101D01*
X28882830Y-20775084D01*
X29210000Y-20556476D01*
X29537170Y-20775084D01*
X30226000Y-20912101D01*
X30914830Y-20775084D01*
X31498792Y-20384893D01*
X31888983Y-19800931D01*
X32026000Y-19112101D01*
X32026000Y-18225899D01*
X31888983Y-17537069D01*
X31776000Y-17367978D01*
X31776000Y-15589229D01*
X31935177Y-15351003D01*
X32076000Y-14643039D01*
X32076000Y-13550961D01*
X31935177Y-12842997D01*
X31534148Y-12242813D01*
X30933964Y-11841784D01*
X30226000Y-11700961D01*
X29518036Y-11841784D01*
X28917852Y-12242813D01*
X28516823Y-12842997D01*
X28376000Y-13550961D01*
X28376000Y-14643039D01*
X28516823Y-15351003D01*
X28676000Y-15589229D01*
X28676000Y-16521775D01*
X28194000Y-16425899D01*
X28151404Y-16434372D01*
X27682518Y-15965486D01*
X27617177Y-15636997D01*
X27216148Y-15036813D01*
X26615964Y-14635784D01*
X25908000Y-14494961D01*
X25200036Y-14635784D01*
X24599852Y-15036813D01*
X24198823Y-15636997D01*
X24058000Y-16344961D01*
X24058000Y-17437039D01*
X24198823Y-18145003D01*
X24358000Y-18383229D01*
X24358000Y-18685870D01*
X24296830Y-18644998D01*
X23608000Y-18507981D01*
X23008000Y-18627329D01*
X23008000Y-18200642D01*
X23045177Y-18145003D01*
X23186000Y-17437039D01*
X23186000Y-16344961D01*
X23045177Y-15636997D01*
X23036000Y-15623263D01*
X23036000Y-10835164D01*
X23513978Y-11313142D01*
X23652784Y-12010964D01*
X24053813Y-12611148D01*
X24653997Y-13012177D01*
X25361961Y-13153000D01*
X26454039Y-13153000D01*
X27162003Y-13012177D01*
X27762187Y-12611148D01*
X28163216Y-12010964D01*
X28304039Y-11303000D01*
X28163216Y-10595036D01*
X27762187Y-9994852D01*
X27162003Y-9593823D01*
X26464181Y-9455017D01*
X25558728Y-8549564D01*
X25908000Y-8619039D01*
X26615964Y-8478216D01*
X27216148Y-8077187D01*
X27617177Y-7477003D01*
X27758000Y-6769039D01*
X27758000Y-6565032D01*
X28151403Y-6171628D01*
X28194000Y-6180101D01*
X28676000Y-6084225D01*
X28676000Y-7778771D01*
X28516823Y-8016997D01*
X28376000Y-8724961D01*
X28376000Y-9817039D01*
X28516823Y-10525003D01*
X28917852Y-11125187D01*
X29518036Y-11526216D01*
X30226000Y-11667039D01*
X30933964Y-11526216D01*
X31534148Y-11125187D01*
X31935177Y-10525003D01*
X32076000Y-9817039D01*
X32076000Y-8724961D01*
X31935177Y-8016997D01*
X31776000Y-7778771D01*
X31776000Y-5238022D01*
X31888983Y-5068931D01*
X32026000Y-4380101D01*
X32026000Y-3493899D01*
X31888983Y-2805069D01*
X31498792Y-2221107D01*
X30914830Y-1830916D01*
X30226000Y-1693899D01*
X29537170Y-1830916D01*
X29210000Y-2049524D01*
X28882830Y-1830916D01*
X28194000Y-1693899D01*
X27615503Y-1808969D01*
X27570983Y-1585151D01*
X27180792Y-1001189D01*
X26596830Y-610998D01*
X25908000Y-473981D01*
X25219170Y-610998D01*
X24758000Y-919142D01*
X24296830Y-610998D01*
X23608000Y-473981D01*
X23036000Y-587759D01*
X23036000Y2415263D01*
X23045177Y2428997D01*
X23186000Y3136961D01*
X23186000Y4229039D01*
X23052026Y4902571D01*
X23608000Y4791981D01*
X24193128Y4908370D01*
X24058000Y4229039D01*
X24058000Y3136961D01*
X24198823Y2428997D01*
X24599852Y1828813D01*
X25200036Y1427784D01*
X25908000Y1286961D01*
X26615964Y1427784D01*
X27216148Y1828813D01*
X27617177Y2428997D01*
X27758000Y3136961D01*
X27758000Y3340968D01*
X28151403Y3734372D01*
X28194000Y3725899D01*
X28676000Y3821775D01*
X28676000Y2635229D01*
X28516823Y2397003D01*
X28376000Y1689039D01*
X28376000Y596961D01*
X28516823Y-111003D01*
X28917852Y-711187D01*
X29518036Y-1112216D01*
X30226000Y-1253039D01*
X30933964Y-1112216D01*
X31534148Y-711187D01*
X31935177Y-111003D01*
X32076000Y596961D01*
X32076000Y1689039D01*
X31935177Y2397003D01*
X31776000Y2635229D01*
X31776000Y4667978D01*
X31888983Y4837069D01*
X32026000Y5525899D01*
X32026000Y6412101D01*
X31888983Y7100931D01*
X31498792Y7684893D01*
X30914830Y8075084D01*
X30226000Y8212101D01*
X29537170Y8075084D01*
X29210000Y7856476D01*
X28882830Y8075084D01*
X28194000Y8212101D01*
X27664104Y8106698D01*
X27570983Y8574849D01*
X27281232Y9008492D01*
X27670003Y9085823D01*
X28270187Y9486852D01*
X28671216Y10087036D01*
X28812039Y10795000D01*
X28788765Y10912006D01*
X28917852Y10718813D01*
X29518036Y10317784D01*
X30226000Y10176961D01*
X30933964Y10317784D01*
X31534148Y10718813D01*
X31935177Y11318997D01*
X32076000Y12026961D01*
X32076000Y13119039D01*
X31935177Y13827003D01*
X31776000Y14065229D01*
X31776000Y16351978D01*
X31888983Y16521069D01*
X32026000Y17209899D01*
X32026000Y18096101D01*
X31888983Y18784931D01*
X31498792Y19368893D01*
X30914830Y19759084D01*
X30226000Y19896101D01*
X29537170Y19759084D01*
X29210000Y19540476D01*
X28882830Y19759084D01*
X28194000Y19896101D01*
X27664104Y19790698D01*
X27646952Y19876928D01*
X28305003Y20007823D01*
X28905187Y20408852D01*
X29306216Y21009036D01*
X29447039Y21717000D01*
X29370826Y22100146D01*
X29518036Y22001784D01*
X30226000Y21860961D01*
X30933964Y22001784D01*
X31534148Y22402813D01*
X31935177Y23002997D01*
X32076000Y23710961D01*
X32076000Y24803039D01*
X31935177Y25511003D01*
X31776000Y25749229D01*
X31776000Y27781978D01*
X31888983Y27951069D01*
X32026000Y28639899D01*
X32026000Y29526101D01*
X31888983Y30214931D01*
X31498792Y30798893D01*
X30914830Y31189084D01*
X30226000Y31326101D01*
X29537170Y31189084D01*
X29210000Y30970476D01*
X28882830Y31189084D01*
X28194000Y31326101D01*
X27708000Y31229429D01*
X27708000Y32270019D01*
X27570983Y32958849D01*
X27180792Y33542811D01*
X26596830Y33933002D01*
X25908000Y34070019D01*
X25322000Y33953456D01*
X25322000Y34546263D01*
X25331177Y34559997D01*
X25472000Y35267961D01*
X25472000Y36360039D01*
X25331177Y37068003D01*
X24930148Y37668187D01*
X24329964Y38069216D01*
X23622000Y38210039D01*
X22914036Y38069216D01*
X22313852Y37668187D01*
X21912823Y37068003D01*
X21772000Y36360039D01*
X21772000Y35267961D01*
X21912823Y34559997D01*
X21922000Y34546263D01*
X21922000Y33947887D01*
X21308000Y34070019D01*
X20619170Y33933002D01*
X20035208Y33542811D01*
X19645017Y32958849D01*
X19508000Y32270019D01*
X19508000Y32227163D01*
X13783918Y26503082D01*
X13415405Y25951562D01*
X13384000Y25793680D01*
X13384000Y27561263D01*
X13393177Y27574997D01*
X13534000Y28282961D01*
X13534000Y29375039D01*
X13393177Y30083003D01*
X12992148Y30683187D01*
X12391964Y31084216D01*
X11684000Y31225039D01*
X10976036Y31084216D01*
X10375852Y30683187D01*
X9974823Y30083003D01*
X9834000Y29375039D01*
X9834000Y28282961D01*
X9974823Y27574997D01*
X9984000Y27561263D01*
X9984000Y25942143D01*
X9980084Y25961830D01*
X9589893Y26545792D01*
X9005931Y26935983D01*
X8317101Y27073000D01*
X7430899Y27073000D01*
X6742069Y26935983D01*
X6572978Y26823000D01*
X3016229Y26823000D01*
X2778003Y26982177D01*
X2070039Y27123000D01*
X977961Y27123000D01*
X269997Y26982177D01*
X-330187Y26581148D01*
X-731216Y25980964D01*
X-872039Y25273000D01*
X-731216Y24565036D01*
X-330187Y23964852D01*
X269997Y23563823D01*
X977961Y23423000D01*
X2070039Y23423000D01*
X2778003Y23563823D01*
X3016229Y23723000D01*
X5147969Y23723000D01*
X4229968Y22805000D01*
X4025961Y22805000D01*
X3317997Y22664177D01*
X2717813Y22263148D01*
X2316784Y21662964D01*
X2175961Y20955000D01*
X2316784Y20247036D01*
X2717813Y19646852D01*
X3317997Y19245823D01*
X4025961Y19105000D01*
X5118039Y19105000D01*
X5532906Y19187522D01*
X5426981Y18655000D01*
X5527107Y18151631D01*
X5118039Y18233000D01*
X4025961Y18233000D01*
X3317997Y18092177D01*
X2717813Y17691148D01*
X2316784Y17090964D01*
X2175961Y16383000D01*
X2316784Y15675036D01*
X2717813Y15074852D01*
X3317997Y14673823D01*
X4025961Y14533000D01*
X5118039Y14533000D01*
X5826003Y14673823D01*
X5839737Y14683000D01*
X6583482Y14683000D01*
X7226981Y14555000D01*
X8521019Y14555000D01*
X9023752Y14655000D01*
X10131995Y14655000D01*
X10132000Y14654999D01*
X10782562Y14784405D01*
X11334082Y15152918D01*
X16188079Y20006916D01*
X16188082Y20006918D01*
X16556595Y20558438D01*
X16581770Y20685003D01*
X16686001Y21209000D01*
X16686000Y21209005D01*
X16686000Y22842595D01*
X16738000Y22764771D01*
X16738000Y18422031D01*
X14016984Y15701016D01*
X13680987Y15198159D01*
X13562999Y14605000D01*
X13563000Y14604995D01*
X13563000Y10063061D01*
X13019849Y10425983D01*
X12331019Y10563000D01*
X12076031Y10563000D01*
X8970016Y13669016D01*
X8467159Y14005013D01*
X7874000Y14123001D01*
X7873995Y14123000D01*
X3016229Y14123000D01*
X2778003Y14282177D01*
X2070039Y14423000D01*
X977961Y14423000D01*
X269997Y14282177D01*
X-330187Y13881148D01*
X-731216Y13280964D01*
X-872039Y12573000D01*
X-731216Y11865036D01*
X-330187Y11264852D01*
X269997Y10863823D01*
X977961Y10723000D01*
X2070039Y10723000D01*
X2778003Y10863823D01*
X3016229Y11023000D01*
X7231968Y11023000D01*
X9279286Y8975682D01*
X9236981Y8763000D01*
X9373998Y8074170D01*
X9762323Y7493000D01*
X9373998Y6911830D01*
X9236981Y6223000D01*
X9373998Y5534170D01*
X9762323Y4953000D01*
X9373998Y4371830D01*
X9236981Y3683000D01*
X9373998Y2994170D01*
X9762323Y2413000D01*
X9373998Y1831830D01*
X9236981Y1143000D01*
X9373998Y454170D01*
X9762323Y-127000D01*
X9373998Y-708170D01*
X9236981Y-1397000D01*
X9373998Y-2085830D01*
X9762323Y-2667000D01*
X9373998Y-3248170D01*
X9236981Y-3937000D01*
X9373998Y-4625830D01*
X9762323Y-5207000D01*
X9373998Y-5788170D01*
X9236981Y-6477000D01*
X9373998Y-7165830D01*
X9764189Y-7749792D01*
X10134000Y-7996892D01*
X10134000Y-11556995D01*
X10133999Y-11557000D01*
X10251987Y-12150159D01*
X10587984Y-12653016D01*
X12881458Y-14946489D01*
X12331019Y-14837000D01*
X11036981Y-14837000D01*
X10348151Y-14974017D01*
X9764189Y-15364208D01*
X9373998Y-15948170D01*
X9236981Y-16637000D01*
X9373998Y-17325830D01*
X9764189Y-17909792D01*
X10348151Y-18299983D01*
X11036981Y-18437000D01*
X12331019Y-18437000D01*
X12735510Y-18356542D01*
X13601437Y-19222468D01*
X13517000Y-19646961D01*
X13517000Y-20739039D01*
X13657823Y-21447003D01*
X14058852Y-22047187D01*
X14659036Y-22448216D01*
X15367000Y-22589039D01*
X16074964Y-22448216D01*
X16675148Y-22047187D01*
X16738000Y-21953122D01*
X16738000Y-26052878D01*
X16675148Y-25958813D01*
X16074964Y-25557784D01*
X15367000Y-25416961D01*
X14659036Y-25557784D01*
X14058852Y-25958813D01*
X13855601Y-26263000D01*
X9170000Y-26263000D01*
X9170000Y-13843005D01*
X9170001Y-13843000D01*
X9052013Y-13249841D01*
X8987306Y-13153000D01*
X8716016Y-12746984D01*
X8716013Y-12746982D01*
X6430016Y-10460984D01*
X5927159Y-10124987D01*
X5668526Y-10073541D01*
X5399849Y-9894017D01*
X4711019Y-9757000D01*
X4456031Y-9757000D01*
X1837587Y-7138555D01*
X1709177Y-6492997D01*
X1308148Y-5892813D01*
X707964Y-5491784D01*
X0Y-5350961D01*
X-707964Y-5491784D01*
X-1308148Y-5892813D01*
X-1709177Y-6492997D01*
X-1850000Y-7200961D01*
X-1850000Y-8293039D01*
X-1709177Y-9001003D01*
X-1308148Y-9601187D01*
X-707964Y-10002216D01*
X0Y-10143039D01*
X382019Y-10067051D01*
X1135969Y-10821000D01*
X1659286Y-11344318D01*
X1616981Y-11557000D01*
X1753998Y-12245830D01*
X2144189Y-12829792D01*
X2728151Y-13219983D01*
X3416981Y-13357000D01*
X4711019Y-13357000D01*
X4903651Y-13318683D01*
X6070000Y-14485031D01*
X6070000Y-18033199D01*
X5983811Y-17904208D01*
X5399849Y-17514017D01*
X4711019Y-17377000D01*
X3416981Y-17377000D01*
X2728151Y-17514017D01*
X2559060Y-17627000D01*
X1453960Y-17627000D01*
X1284869Y-17514017D01*
X596039Y-17377000D01*
X-596039Y-17377000D01*
X-1284869Y-17514017D01*
X-1453960Y-17627000D01*
X-14345765Y-17627000D01*
X-14144530Y-17325830D01*
X-14007513Y-16637000D01*
X-14144530Y-15948170D01*
X-14532855Y-15367000D01*
X-14144530Y-14785830D01*
X-14007513Y-14097000D01*
X-14144530Y-13408170D01*
X-14534721Y-12824208D01*
X-15118683Y-12434017D01*
X-15807513Y-12297000D01*
X-19752487Y-12297000D01*
X-20441317Y-12434017D01*
X-21025279Y-12824208D01*
X-21415470Y-13408170D01*
X-21552487Y-14097000D01*
X-21415470Y-14785830D01*
X-21214235Y-15087000D01*
X-21582969Y-15087000D01*
X-26208984Y-10460984D01*
X-26711841Y-10124987D01*
X-27305000Y-10006999D01*
X-27305005Y-10007000D01*
X-30296040Y-10007000D01*
X-30465131Y-9894017D01*
X-31153961Y-9757000D01*
X-32346039Y-9757000D01*
X-33034869Y-9894017D01*
X-33618831Y-10284208D01*
X-34009022Y-10868170D01*
X-34146039Y-11557000D01*
X-37726600Y-11557000D01*
X-37726600Y23255000D01*
X-33943019Y23255000D01*
X-33806002Y22566170D01*
X-33497858Y22105000D01*
X-33806002Y21643830D01*
X-33943019Y20955000D01*
X-33806002Y20266170D01*
X-33415811Y19682208D01*
X-32831849Y19292017D01*
X-32143019Y19155000D01*
X-30848981Y19155000D01*
X-30160151Y19292017D01*
X-29991060Y19405000D01*
X-29852032Y19405000D01*
X-29536000Y19088969D01*
X-29536000Y18884961D01*
X-29395177Y18176997D01*
X-29236000Y17938771D01*
X-29236000Y16764005D01*
X-29236001Y16764000D01*
X-29118013Y16170841D01*
X-28782016Y15667984D01*
X-13161018Y46987D01*
X-13161016Y46984D01*
X-12658159Y-289013D01*
X-12065000Y-407001D01*
X-12064995Y-407000D01*
X2559060Y-407000D01*
X2728151Y-519983D01*
X3416981Y-657000D01*
X4711019Y-657000D01*
X5399849Y-519983D01*
X5983811Y-129792D01*
X6374002Y454170D01*
X6511019Y1143000D01*
X6374002Y1831830D01*
X5985677Y2413000D01*
X6374002Y2994170D01*
X6511019Y3683000D01*
X6374002Y4371830D01*
X5985677Y4953000D01*
X6374002Y5534170D01*
X6511019Y6223000D01*
X6374002Y6911830D01*
X5985677Y7493000D01*
X6374002Y8074170D01*
X6511019Y8763000D01*
X6374002Y9451830D01*
X5983811Y10035792D01*
X5399849Y10425983D01*
X4711019Y10563000D01*
X3416981Y10563000D01*
X2728151Y10425983D01*
X2559060Y10313000D01*
X-3548969Y10313000D01*
X-5308000Y12072032D01*
X-5308000Y17938771D01*
X-5148823Y18176997D01*
X-5008000Y18884961D01*
X-5008000Y19088968D01*
X-4691969Y19405000D01*
X-4552940Y19405000D01*
X-4383849Y19292017D01*
X-3695019Y19155000D01*
X-2400981Y19155000D01*
X-1712151Y19292017D01*
X-1128189Y19682208D01*
X-737998Y20266170D01*
X-600981Y20955000D01*
X-737998Y21643830D01*
X-1046142Y22105000D01*
X-737998Y22566170D01*
X-600981Y23255000D01*
X-737998Y23943830D01*
X-1128189Y24527792D01*
X-1712151Y24917983D01*
X-2400981Y25055000D01*
X-3695019Y25055000D01*
X-4197752Y24955000D01*
X-5025836Y24955000D01*
X-2742344Y27238492D01*
X-2726143Y27241715D01*
X-2125960Y27642744D01*
X-1353745Y28414960D01*
X-952715Y29015143D01*
X-811892Y29723108D01*
X-952715Y30431072D01*
X-1353745Y31031255D01*
X-1953928Y31432285D01*
X-2661892Y31573108D01*
X-3369857Y31432285D01*
X-3970040Y31031255D01*
X-4742256Y30259040D01*
X-5143285Y29658857D01*
X-5146508Y29642656D01*
X-7933082Y26856082D01*
X-8301595Y26304562D01*
X-8431001Y25654000D01*
X-8431000Y25653995D01*
X-8431000Y24130005D01*
X-8431001Y24130000D01*
X-8301595Y23479438D01*
X-7933082Y22927918D01*
X-7058084Y22052921D01*
X-7058082Y22052918D01*
X-6680443Y21800588D01*
X-6687839Y21793192D01*
X-6858000Y21827039D01*
X-7565964Y21686216D01*
X-8166148Y21285187D01*
X-8567177Y20685003D01*
X-8708000Y19977039D01*
X-8708000Y18884961D01*
X-8567177Y18176997D01*
X-8408000Y17938771D01*
X-8408000Y11430005D01*
X-8408001Y11430000D01*
X-8290013Y10836841D01*
X-7954016Y10333984D01*
X-5393031Y7773000D01*
X-5580969Y7773000D01*
X-9118000Y11310032D01*
X-9118000Y17938771D01*
X-8958823Y18176997D01*
X-8818000Y18884961D01*
X-8818000Y19977039D01*
X-8958823Y20685003D01*
X-9359852Y21285187D01*
X-9960036Y21686216D01*
X-10578588Y21809254D01*
X-10213918Y22052918D01*
X-9465921Y22800916D01*
X-9465918Y22800918D01*
X-9097405Y23352438D01*
X-9026090Y23710961D01*
X-8967999Y24003000D01*
X-8968000Y24003005D01*
X-8968000Y25526995D01*
X-8967999Y25527000D01*
X-9097405Y26177561D01*
X-9097405Y26177562D01*
X-9465918Y26729082D01*
X-9465921Y26729084D01*
X-12379492Y29642656D01*
X-12382715Y29658857D01*
X-12783745Y30259040D01*
X-13555960Y31031256D01*
X-14156143Y31432285D01*
X-14864108Y31573109D01*
X-15572073Y31432285D01*
X-16172256Y31031256D01*
X-16573285Y30431073D01*
X-16714109Y29723108D01*
X-16573285Y29015143D01*
X-16172256Y28414960D01*
X-15400040Y27642745D01*
X-14799857Y27241715D01*
X-14783656Y27238492D01*
X-12500163Y24955000D01*
X-13328248Y24955000D01*
X-13830981Y25055000D01*
X-15125019Y25055000D01*
X-15813849Y24917983D01*
X-16397811Y24527792D01*
X-16788002Y23943830D01*
X-16925019Y23255000D01*
X-16788002Y22566170D01*
X-16479858Y22105000D01*
X-16788002Y21643830D01*
X-16925019Y20955000D01*
X-16788002Y20266170D01*
X-16397811Y19682208D01*
X-15813849Y19292017D01*
X-15125019Y19155000D01*
X-13830981Y19155000D01*
X-13142151Y19292017D01*
X-12973060Y19405000D01*
X-12834032Y19405000D01*
X-12518000Y19088969D01*
X-12518000Y18884961D01*
X-12377177Y18176997D01*
X-12218000Y17938771D01*
X-12218000Y10668005D01*
X-12218001Y10668000D01*
X-12100013Y10074841D01*
X-11764016Y9571984D01*
X-7425031Y5233000D01*
X-9771969Y5233000D01*
X-22326000Y17787032D01*
X-22326000Y17938771D01*
X-22166823Y18176997D01*
X-22026000Y18884961D01*
X-22026000Y19088968D01*
X-21709969Y19405000D01*
X-21570940Y19405000D01*
X-21401849Y19292017D01*
X-20713019Y19155000D01*
X-19418981Y19155000D01*
X-18730151Y19292017D01*
X-18146189Y19682208D01*
X-17755998Y20266170D01*
X-17618981Y20955000D01*
X-17755998Y21643830D01*
X-18064142Y22105000D01*
X-17755998Y22566170D01*
X-17618981Y23255000D01*
X-17755998Y23943830D01*
X-18146189Y24527792D01*
X-18730151Y24917983D01*
X-19418981Y25055000D01*
X-20713019Y25055000D01*
X-21215752Y24955000D01*
X-21915836Y24955000D01*
X-21922000Y24961164D01*
X-21922000Y25076836D01*
X-19760344Y27238492D01*
X-19744143Y27241715D01*
X-19143960Y27642744D01*
X-18371745Y28414960D01*
X-17970715Y29015143D01*
X-17829892Y29723108D01*
X-17970715Y30431072D01*
X-18371745Y31031255D01*
X-18971928Y31432285D01*
X-19679892Y31573108D01*
X-20387857Y31432285D01*
X-20988040Y31031255D01*
X-21760256Y30259040D01*
X-22161285Y29658857D01*
X-22164508Y29642656D01*
X-24824082Y26983082D01*
X-25192595Y26431562D01*
X-25322001Y25781000D01*
X-25322000Y25780995D01*
X-25322000Y24257005D01*
X-25322001Y24257000D01*
X-25192595Y23606438D01*
X-24824082Y23054918D01*
X-23822082Y22052918D01*
X-23596705Y21902326D01*
X-23705839Y21793192D01*
X-23876000Y21827039D01*
X-24583964Y21686216D01*
X-25184148Y21285187D01*
X-25585177Y20685003D01*
X-25726000Y19977039D01*
X-25726000Y18884961D01*
X-25585177Y18176997D01*
X-25426000Y17938771D01*
X-25426000Y17145005D01*
X-25426001Y17145000D01*
X-25314520Y16584552D01*
X-26136000Y17406032D01*
X-26136000Y17938771D01*
X-25976823Y18176997D01*
X-25836000Y18884961D01*
X-25836000Y19977039D01*
X-25976823Y20685003D01*
X-26377852Y21285187D01*
X-26978036Y21686216D01*
X-27686000Y21827039D01*
X-27856160Y21793192D01*
X-27863557Y21800589D01*
X-27485918Y22052918D01*
X-26483918Y23054918D01*
X-26115405Y23606438D01*
X-25985999Y24257000D01*
X-25986000Y24257005D01*
X-25986000Y25526995D01*
X-25985999Y25527000D01*
X-26115405Y26177561D01*
X-26115405Y26177562D01*
X-26483918Y26729082D01*
X-26483921Y26729084D01*
X-29397492Y29642656D01*
X-29400715Y29658857D01*
X-29801745Y30259040D01*
X-30573960Y31031256D01*
X-31174143Y31432285D01*
X-31882108Y31573109D01*
X-32590073Y31432285D01*
X-33190256Y31031256D01*
X-33591285Y30431073D01*
X-33732109Y29723108D01*
X-33591285Y29015143D01*
X-33190256Y28414960D01*
X-32418040Y27642745D01*
X-31817857Y27241715D01*
X-31801656Y27238492D01*
X-29518163Y24955000D01*
X-30346248Y24955000D01*
X-30848981Y25055000D01*
X-32143019Y25055000D01*
X-32831849Y24917983D01*
X-33415811Y24527792D01*
X-33806002Y23943830D01*
X-33943019Y23255000D01*
X-37726600Y23255000D01*
X-37726600Y38227000D01*
X-36173740Y38227000D01*
X-36001347Y37360322D01*
X-35510413Y36625587D01*
X-34775678Y36134653D01*
X-33909000Y35962260D01*
X-33042322Y36134653D01*
X-32307587Y36625587D01*
X-31816653Y37360322D01*
X-31644260Y38227000D01*
X31730591Y38227000D01*
X31906080Y37344758D01*
X32405830Y36596830D01*
X33153758Y36097080D01*
X34036000Y35921591D01*
X34918242Y36097080D01*
X35666170Y36596830D01*
X36165920Y37344758D01*
X36341409Y38227000D01*
X36165920Y39109242D01*
X35666170Y39857170D01*
X34918242Y40356920D01*
X34036000Y40532409D01*
X33153758Y40356920D01*
X32405830Y39857170D01*
X31906080Y39109242D01*
X31730591Y38227000D01*
X-31644260Y38227000D01*
X-31816653Y39093678D01*
X-32307587Y39828413D01*
X-33042322Y40319347D01*
X-33909000Y40491740D01*
X-34775678Y40319347D01*
X-35510413Y39828413D01*
X-36001347Y39093678D01*
X-36173740Y38227000D01*
X-37726600Y38227000D01*
X-37726600Y42171600D01*
X37853600Y42171600D01*
X37853600Y-42298600D01*
M02*
