G04 #@! TF.FileFunction,Legend,Top*
%FSLAX46Y46*%
G04 Gerber Fmt 4.6, Leading zero omitted, Abs format (unit mm)*
G04 Created by KiCad (PCBNEW 4.0.7) date Wed Jan  2 22:17:41 2019*
%MOMM*%
%LPD*%
G01*
G04 APERTURE LIST*
%ADD10C,0.100000*%
%ADD11C,0.150000*%
%ADD12C,0.120000*%
G04 APERTURE END LIST*
D10*
D11*
X30244051Y-71628000D02*
G75*
G03X30244051Y-71628000I-1796051J0D01*
G01*
X55644051Y-71628000D02*
G75*
G03X55644051Y-71628000I-1796051J0D01*
G01*
X55644051Y-123698000D02*
G75*
G03X55644051Y-123698000I-1796051J0D01*
G01*
X30244051Y-123698000D02*
G75*
G03X30244051Y-123698000I-1796051J0D01*
G01*
X25898000Y-126258000D02*
X55898000Y-126258000D01*
X55898000Y-126258000D02*
X56398000Y-126258000D01*
X56398000Y-126258000D02*
X56398000Y-69258000D01*
X56398000Y-69258000D02*
X25898000Y-69258000D01*
X25898000Y-69258000D02*
X25898000Y-126258000D01*
D12*
X87204000Y-101698000D02*
X87204000Y-99978000D01*
X87204000Y-99978000D02*
X83484000Y-99978000D01*
X83484000Y-99978000D02*
X83484000Y-101698000D01*
X83484000Y-101698000D02*
X87204000Y-101698000D01*
X88274000Y-100838000D02*
X87204000Y-100838000D01*
X82414000Y-100838000D02*
X83484000Y-100838000D01*
X67922000Y-64715000D02*
X67922000Y-71456000D01*
X65382000Y-64715000D02*
X65382000Y-71456000D01*
X67922000Y-64715000D02*
X65382000Y-64715000D01*
X67922000Y-71456000D02*
X65382000Y-71456000D01*
X67183000Y-64715000D02*
X67183000Y-64936000D01*
X67183000Y-66636000D02*
X67183000Y-67248000D01*
X67183000Y-68925000D02*
X67183000Y-69548000D01*
X67183000Y-71225000D02*
X67183000Y-71456000D01*
X85907000Y-56238000D02*
X79166000Y-56238000D01*
X85907000Y-53698000D02*
X79166000Y-53698000D01*
X85907000Y-56238000D02*
X85907000Y-53698000D01*
X79166000Y-56238000D02*
X79166000Y-53698000D01*
X85907000Y-55499000D02*
X85686000Y-55499000D01*
X83986000Y-55499000D02*
X83374000Y-55499000D01*
X81697000Y-55499000D02*
X81074000Y-55499000D01*
X79397000Y-55499000D02*
X79166000Y-55499000D01*
X85907000Y-68938000D02*
X79166000Y-68938000D01*
X85907000Y-66398000D02*
X79166000Y-66398000D01*
X85907000Y-68938000D02*
X85907000Y-66398000D01*
X79166000Y-68938000D02*
X79166000Y-66398000D01*
X85907000Y-68199000D02*
X85686000Y-68199000D01*
X83986000Y-68199000D02*
X83374000Y-68199000D01*
X81697000Y-68199000D02*
X81074000Y-68199000D01*
X79397000Y-68199000D02*
X79166000Y-68199000D01*
X85907000Y-80622000D02*
X79166000Y-80622000D01*
X85907000Y-78082000D02*
X79166000Y-78082000D01*
X85907000Y-80622000D02*
X85907000Y-78082000D01*
X79166000Y-80622000D02*
X79166000Y-78082000D01*
X85907000Y-79883000D02*
X85686000Y-79883000D01*
X83986000Y-79883000D02*
X83374000Y-79883000D01*
X81697000Y-79883000D02*
X81074000Y-79883000D01*
X79397000Y-79883000D02*
X79166000Y-79883000D01*
X85907000Y-90782000D02*
X79166000Y-90782000D01*
X85907000Y-88242000D02*
X79166000Y-88242000D01*
X85907000Y-90782000D02*
X85907000Y-88242000D01*
X79166000Y-90782000D02*
X79166000Y-88242000D01*
X85907000Y-90043000D02*
X85686000Y-90043000D01*
X83986000Y-90043000D02*
X83374000Y-90043000D01*
X81697000Y-90043000D02*
X81074000Y-90043000D01*
X79397000Y-90043000D02*
X79166000Y-90043000D01*
X85907000Y-108816000D02*
X79166000Y-108816000D01*
X85907000Y-106276000D02*
X79166000Y-106276000D01*
X85907000Y-108816000D02*
X85907000Y-106276000D01*
X79166000Y-108816000D02*
X79166000Y-106276000D01*
X85907000Y-108077000D02*
X85686000Y-108077000D01*
X83986000Y-108077000D02*
X83374000Y-108077000D01*
X81697000Y-108077000D02*
X81074000Y-108077000D01*
X79397000Y-108077000D02*
X79166000Y-108077000D01*
X54760000Y-66857000D02*
X54760000Y-60116000D01*
X57300000Y-66857000D02*
X57300000Y-60116000D01*
X54760000Y-66857000D02*
X57300000Y-66857000D01*
X54760000Y-60116000D02*
X57300000Y-60116000D01*
X55499000Y-66857000D02*
X55499000Y-66636000D01*
X55499000Y-64936000D02*
X55499000Y-64324000D01*
X55499000Y-62647000D02*
X55499000Y-62024000D01*
X55499000Y-60347000D02*
X55499000Y-60116000D01*
X43330000Y-66857000D02*
X43330000Y-60116000D01*
X45870000Y-66857000D02*
X45870000Y-60116000D01*
X43330000Y-66857000D02*
X45870000Y-66857000D01*
X43330000Y-60116000D02*
X45870000Y-60116000D01*
X44069000Y-66857000D02*
X44069000Y-66636000D01*
X44069000Y-64936000D02*
X44069000Y-64324000D01*
X44069000Y-62647000D02*
X44069000Y-62024000D01*
X44069000Y-60347000D02*
X44069000Y-60116000D01*
X37742000Y-66857000D02*
X37742000Y-60116000D01*
X40282000Y-66857000D02*
X40282000Y-60116000D01*
X37742000Y-66857000D02*
X40282000Y-66857000D01*
X37742000Y-60116000D02*
X40282000Y-60116000D01*
X38481000Y-66857000D02*
X38481000Y-66636000D01*
X38481000Y-64936000D02*
X38481000Y-64324000D01*
X38481000Y-62647000D02*
X38481000Y-62024000D01*
X38481000Y-60347000D02*
X38481000Y-60116000D01*
X26312000Y-66857000D02*
X26312000Y-60116000D01*
X28852000Y-66857000D02*
X28852000Y-60116000D01*
X26312000Y-66857000D02*
X28852000Y-66857000D01*
X26312000Y-60116000D02*
X28852000Y-60116000D01*
X27051000Y-66857000D02*
X27051000Y-66636000D01*
X27051000Y-64936000D02*
X27051000Y-64324000D01*
X27051000Y-62647000D02*
X27051000Y-62024000D01*
X27051000Y-60347000D02*
X27051000Y-60116000D01*
X85907000Y-115928000D02*
X79166000Y-115928000D01*
X85907000Y-113388000D02*
X79166000Y-113388000D01*
X85907000Y-115928000D02*
X85907000Y-113388000D01*
X79166000Y-115928000D02*
X79166000Y-113388000D01*
X85907000Y-115189000D02*
X85686000Y-115189000D01*
X83986000Y-115189000D02*
X83374000Y-115189000D01*
X81697000Y-115189000D02*
X81074000Y-115189000D01*
X79397000Y-115189000D02*
X79166000Y-115189000D01*
X61312000Y-64688000D02*
X59592000Y-64688000D01*
X59592000Y-64688000D02*
X59592000Y-68408000D01*
X59592000Y-68408000D02*
X61312000Y-68408000D01*
X61312000Y-68408000D02*
X61312000Y-64688000D01*
X60452000Y-63618000D02*
X60452000Y-64688000D01*
X60452000Y-69478000D02*
X60452000Y-68408000D01*
X62640000Y-71456000D02*
X64360000Y-71456000D01*
X64360000Y-71456000D02*
X64360000Y-67736000D01*
X64360000Y-67736000D02*
X62640000Y-67736000D01*
X62640000Y-67736000D02*
X62640000Y-71456000D01*
X63500000Y-72526000D02*
X63500000Y-71456000D01*
X63500000Y-66666000D02*
X63500000Y-67736000D01*
X85934000Y-63344000D02*
X85934000Y-61624000D01*
X85934000Y-61624000D02*
X82214000Y-61624000D01*
X82214000Y-61624000D02*
X82214000Y-63344000D01*
X82214000Y-63344000D02*
X85934000Y-63344000D01*
X87004000Y-62484000D02*
X85934000Y-62484000D01*
X81144000Y-62484000D02*
X82214000Y-62484000D01*
X79166000Y-58576000D02*
X79166000Y-60296000D01*
X79166000Y-60296000D02*
X82886000Y-60296000D01*
X82886000Y-60296000D02*
X82886000Y-58576000D01*
X82886000Y-58576000D02*
X79166000Y-58576000D01*
X78096000Y-59436000D02*
X79166000Y-59436000D01*
X83956000Y-59436000D02*
X82886000Y-59436000D01*
X87204000Y-75028000D02*
X87204000Y-73308000D01*
X87204000Y-73308000D02*
X83484000Y-73308000D01*
X83484000Y-73308000D02*
X83484000Y-75028000D01*
X83484000Y-75028000D02*
X87204000Y-75028000D01*
X88274000Y-74168000D02*
X87204000Y-74168000D01*
X82414000Y-74168000D02*
X83484000Y-74168000D01*
X79166000Y-70514000D02*
X79166000Y-72234000D01*
X79166000Y-72234000D02*
X82886000Y-72234000D01*
X82886000Y-72234000D02*
X82886000Y-70514000D01*
X82886000Y-70514000D02*
X79166000Y-70514000D01*
X78096000Y-71374000D02*
X79166000Y-71374000D01*
X83956000Y-71374000D02*
X82886000Y-71374000D01*
X87204000Y-86458000D02*
X87204000Y-84738000D01*
X87204000Y-84738000D02*
X83484000Y-84738000D01*
X83484000Y-84738000D02*
X83484000Y-86458000D01*
X83484000Y-86458000D02*
X87204000Y-86458000D01*
X88274000Y-85598000D02*
X87204000Y-85598000D01*
X82414000Y-85598000D02*
X83484000Y-85598000D01*
X79166000Y-82198000D02*
X79166000Y-83918000D01*
X79166000Y-83918000D02*
X82886000Y-83918000D01*
X82886000Y-83918000D02*
X82886000Y-82198000D01*
X82886000Y-82198000D02*
X79166000Y-82198000D01*
X78096000Y-83058000D02*
X79166000Y-83058000D01*
X83956000Y-83058000D02*
X82886000Y-83058000D01*
X87204000Y-96872000D02*
X87204000Y-95152000D01*
X87204000Y-95152000D02*
X83484000Y-95152000D01*
X83484000Y-95152000D02*
X83484000Y-96872000D01*
X83484000Y-96872000D02*
X87204000Y-96872000D01*
X88274000Y-96012000D02*
X87204000Y-96012000D01*
X82414000Y-96012000D02*
X83484000Y-96012000D01*
X79166000Y-92104000D02*
X79166000Y-93824000D01*
X79166000Y-93824000D02*
X82886000Y-93824000D01*
X82886000Y-93824000D02*
X82886000Y-92104000D01*
X82886000Y-92104000D02*
X79166000Y-92104000D01*
X78096000Y-92964000D02*
X79166000Y-92964000D01*
X83956000Y-92964000D02*
X82886000Y-92964000D01*
X79166000Y-102772000D02*
X79166000Y-104492000D01*
X79166000Y-104492000D02*
X82886000Y-104492000D01*
X82886000Y-104492000D02*
X82886000Y-102772000D01*
X82886000Y-102772000D02*
X79166000Y-102772000D01*
X78096000Y-103632000D02*
X79166000Y-103632000D01*
X83956000Y-103632000D02*
X82886000Y-103632000D01*
X51210000Y-63836000D02*
X52930000Y-63836000D01*
X52930000Y-63836000D02*
X52930000Y-60116000D01*
X52930000Y-60116000D02*
X51210000Y-60116000D01*
X51210000Y-60116000D02*
X51210000Y-63836000D01*
X52070000Y-64906000D02*
X52070000Y-63836000D01*
X52070000Y-59046000D02*
X52070000Y-60116000D01*
X47400000Y-63836000D02*
X49120000Y-63836000D01*
X49120000Y-63836000D02*
X49120000Y-60116000D01*
X49120000Y-60116000D02*
X47400000Y-60116000D01*
X47400000Y-60116000D02*
X47400000Y-63836000D01*
X48260000Y-64906000D02*
X48260000Y-63836000D01*
X48260000Y-59046000D02*
X48260000Y-60116000D01*
X34192000Y-63836000D02*
X35912000Y-63836000D01*
X35912000Y-63836000D02*
X35912000Y-60116000D01*
X35912000Y-60116000D02*
X34192000Y-60116000D01*
X34192000Y-60116000D02*
X34192000Y-63836000D01*
X35052000Y-64906000D02*
X35052000Y-63836000D01*
X35052000Y-59046000D02*
X35052000Y-60116000D01*
X30382000Y-63836000D02*
X32102000Y-63836000D01*
X32102000Y-63836000D02*
X32102000Y-60116000D01*
X32102000Y-60116000D02*
X30382000Y-60116000D01*
X30382000Y-60116000D02*
X30382000Y-63836000D01*
X31242000Y-64906000D02*
X31242000Y-63836000D01*
X31242000Y-59046000D02*
X31242000Y-60116000D01*
X87204000Y-118970000D02*
X87204000Y-117250000D01*
X87204000Y-117250000D02*
X83484000Y-117250000D01*
X83484000Y-117250000D02*
X83484000Y-118970000D01*
X83484000Y-118970000D02*
X87204000Y-118970000D01*
X88274000Y-118110000D02*
X87204000Y-118110000D01*
X82414000Y-118110000D02*
X83484000Y-118110000D01*
X79166000Y-119790000D02*
X79166000Y-121510000D01*
X79166000Y-121510000D02*
X82886000Y-121510000D01*
X82886000Y-121510000D02*
X82886000Y-119790000D01*
X82886000Y-119790000D02*
X79166000Y-119790000D01*
X78096000Y-120650000D02*
X79166000Y-120650000D01*
X83956000Y-120650000D02*
X82886000Y-120650000D01*
X67802000Y-76648000D02*
G75*
G02X65802000Y-76648000I-1000000J0D01*
G01*
X65802000Y-76648000D02*
X64552000Y-76648000D01*
X64552000Y-76648000D02*
X64552000Y-112328000D01*
X64552000Y-112328000D02*
X69052000Y-112328000D01*
X69052000Y-112328000D02*
X69052000Y-76648000D01*
X69052000Y-76648000D02*
X67802000Y-76648000D01*
X68652000Y-63268000D02*
X68652000Y-59668000D01*
X68640478Y-63306478D02*
G75*
G02X64202000Y-61468000I-1838478J1838478D01*
G01*
X68640478Y-59629522D02*
G75*
G03X64202000Y-61468000I-1838478J-1838478D01*
G01*
X87354000Y-59508000D02*
X90954000Y-59508000D01*
X87315522Y-59496478D02*
G75*
G02X89154000Y-55058000I1838478J1838478D01*
G01*
X90992478Y-59496478D02*
G75*
G03X89154000Y-55058000I-1838478J1838478D01*
G01*
X87354000Y-70938000D02*
X90954000Y-70938000D01*
X87315522Y-70926478D02*
G75*
G02X89154000Y-66488000I1838478J1838478D01*
G01*
X90992478Y-70926478D02*
G75*
G03X89154000Y-66488000I-1838478J1838478D01*
G01*
X87354000Y-82622000D02*
X90954000Y-82622000D01*
X87315522Y-82610478D02*
G75*
G02X89154000Y-78172000I1838478J1838478D01*
G01*
X90992478Y-82610478D02*
G75*
G03X89154000Y-78172000I-1838478J1838478D01*
G01*
X87354000Y-92528000D02*
X90954000Y-92528000D01*
X87315522Y-92516478D02*
G75*
G02X89154000Y-88078000I1838478J1838478D01*
G01*
X90992478Y-92516478D02*
G75*
G03X89154000Y-88078000I-1838478J1838478D01*
G01*
X87354000Y-107260000D02*
X90954000Y-107260000D01*
X87315522Y-107248478D02*
G75*
G02X89154000Y-102810000I1838478J1838478D01*
G01*
X90992478Y-107248478D02*
G75*
G03X89154000Y-102810000I-1838478J1838478D01*
G01*
X87354000Y-124278000D02*
X90954000Y-124278000D01*
X87315522Y-124266478D02*
G75*
G02X89154000Y-119828000I1838478J1838478D01*
G01*
X90992478Y-124266478D02*
G75*
G03X89154000Y-119828000I-1838478J1838478D01*
G01*
X57568000Y-98032000D02*
X60288000Y-98032000D01*
X60288000Y-98032000D02*
X60288000Y-94112000D01*
X60288000Y-94112000D02*
X57568000Y-94112000D01*
X57568000Y-94112000D02*
X57568000Y-98032000D01*
X58928000Y-98842000D02*
X58928000Y-98032000D01*
X58928000Y-93302000D02*
X58928000Y-94112000D01*
X44958000Y-50800000D02*
X55118000Y-50800000D01*
X44958000Y-49530000D02*
X44958000Y-57150000D01*
X44958000Y-57150000D02*
X55118000Y-57150000D01*
X55118000Y-57150000D02*
X55118000Y-49530000D01*
X55118000Y-49530000D02*
X44958000Y-49530000D01*
X28194000Y-50800000D02*
X38354000Y-50800000D01*
X28194000Y-49530000D02*
X28194000Y-57150000D01*
X28194000Y-57150000D02*
X38354000Y-57150000D01*
X38354000Y-57150000D02*
X38354000Y-49530000D01*
X38354000Y-49530000D02*
X28194000Y-49530000D01*
X58614000Y-122488000D02*
X61274000Y-122488000D01*
X58614000Y-117348000D02*
X58614000Y-122488000D01*
X61274000Y-117348000D02*
X61274000Y-122488000D01*
X58614000Y-117348000D02*
X61274000Y-117348000D01*
X58614000Y-116078000D02*
X58614000Y-114748000D01*
X58614000Y-114748000D02*
X59944000Y-114748000D01*
X33938000Y-114128000D02*
X35658000Y-114128000D01*
X35658000Y-114128000D02*
X35658000Y-110408000D01*
X35658000Y-110408000D02*
X33938000Y-110408000D01*
X33938000Y-110408000D02*
X33938000Y-114128000D01*
X34798000Y-115198000D02*
X34798000Y-114128000D01*
X34798000Y-109338000D02*
X34798000Y-110408000D01*
X31144000Y-111588000D02*
X32864000Y-111588000D01*
X32864000Y-111588000D02*
X32864000Y-107868000D01*
X32864000Y-107868000D02*
X31144000Y-107868000D01*
X31144000Y-107868000D02*
X31144000Y-111588000D01*
X32004000Y-112658000D02*
X32004000Y-111588000D01*
X32004000Y-106798000D02*
X32004000Y-107868000D01*
X74422000Y-115316000D02*
X74422000Y-125476000D01*
X75692000Y-115316000D02*
X68072000Y-115316000D01*
X68072000Y-115316000D02*
X68072000Y-125476000D01*
X68072000Y-125476000D02*
X75692000Y-125476000D01*
X75692000Y-125476000D02*
X75692000Y-115316000D01*
X60258000Y-102048000D02*
X57598000Y-102048000D01*
X60258000Y-109728000D02*
X60258000Y-102048000D01*
X57598000Y-109728000D02*
X57598000Y-102048000D01*
X60258000Y-109728000D02*
X57598000Y-109728000D01*
X60258000Y-110998000D02*
X60258000Y-112328000D01*
X60258000Y-112328000D02*
X58928000Y-112328000D01*
X73152000Y-50292000D02*
X73152000Y-60452000D01*
X74422000Y-50292000D02*
X66802000Y-50292000D01*
X66802000Y-50292000D02*
X66802000Y-60452000D01*
X66802000Y-60452000D02*
X74422000Y-60452000D01*
X74422000Y-60452000D02*
X74422000Y-50292000D01*
X85090000Y-43307000D02*
X85090000Y-53467000D01*
X86360000Y-43307000D02*
X78740000Y-43307000D01*
X78740000Y-43307000D02*
X78740000Y-53467000D01*
X78740000Y-53467000D02*
X86360000Y-53467000D01*
X86360000Y-53467000D02*
X86360000Y-43307000D01*
X83439000Y-62484000D02*
X93599000Y-62484000D01*
X83439000Y-61214000D02*
X83439000Y-68834000D01*
X83439000Y-68834000D02*
X93599000Y-68834000D01*
X93599000Y-68834000D02*
X93599000Y-61214000D01*
X93599000Y-61214000D02*
X83439000Y-61214000D01*
X92964000Y-78486000D02*
X82804000Y-78486000D01*
X92964000Y-79756000D02*
X92964000Y-72136000D01*
X92964000Y-72136000D02*
X82804000Y-72136000D01*
X82804000Y-72136000D02*
X82804000Y-79756000D01*
X82804000Y-79756000D02*
X92964000Y-79756000D01*
X92456000Y-100584000D02*
X82296000Y-100584000D01*
X92456000Y-101854000D02*
X92456000Y-94234000D01*
X92456000Y-94234000D02*
X82296000Y-94234000D01*
X82296000Y-94234000D02*
X82296000Y-101854000D01*
X82296000Y-101854000D02*
X92456000Y-101854000D01*
X93980000Y-113792000D02*
X83820000Y-113792000D01*
X93980000Y-115062000D02*
X93980000Y-107442000D01*
X93980000Y-107442000D02*
X83820000Y-107442000D01*
X83820000Y-107442000D02*
X83820000Y-115062000D01*
X83820000Y-115062000D02*
X93980000Y-115062000D01*
X85090000Y-121158000D02*
X85090000Y-131318000D01*
X86360000Y-121158000D02*
X78740000Y-121158000D01*
X78740000Y-121158000D02*
X78740000Y-131318000D01*
X78740000Y-131318000D02*
X86360000Y-131318000D01*
X86360000Y-131318000D02*
X86360000Y-121158000D01*
X73435000Y-112604000D02*
X75155000Y-112604000D01*
X75155000Y-112604000D02*
X75155000Y-108884000D01*
X75155000Y-108884000D02*
X73435000Y-108884000D01*
X73435000Y-108884000D02*
X73435000Y-112604000D01*
X74295000Y-113674000D02*
X74295000Y-112604000D01*
X74295000Y-107814000D02*
X74295000Y-108884000D01*
X63844277Y-119380278D02*
G75*
G03X63844000Y-123991580I1179723J-2305722D01*
G01*
X66203723Y-119380278D02*
G75*
G02X66204000Y-123991580I-1179723J-2305722D01*
G01*
X66203723Y-119380278D02*
G75*
G03X63844000Y-119380420I-1179723J-2305722D01*
G01*
X62474000Y-121686000D02*
X67574000Y-121686000D01*
X62474000Y-121646000D02*
X67574000Y-121646000D01*
X62475000Y-121606000D02*
X67573000Y-121606000D01*
X62476000Y-121566000D02*
X67572000Y-121566000D01*
X62478000Y-121526000D02*
X67570000Y-121526000D01*
X62481000Y-121486000D02*
X67567000Y-121486000D01*
X62485000Y-121446000D02*
X67563000Y-121446000D01*
X62489000Y-121406000D02*
X64044000Y-121406000D01*
X66004000Y-121406000D02*
X67559000Y-121406000D01*
X62493000Y-121366000D02*
X64044000Y-121366000D01*
X66004000Y-121366000D02*
X67555000Y-121366000D01*
X62499000Y-121326000D02*
X64044000Y-121326000D01*
X66004000Y-121326000D02*
X67549000Y-121326000D01*
X62505000Y-121286000D02*
X64044000Y-121286000D01*
X66004000Y-121286000D02*
X67543000Y-121286000D01*
X62511000Y-121246000D02*
X64044000Y-121246000D01*
X66004000Y-121246000D02*
X67537000Y-121246000D01*
X62518000Y-121206000D02*
X64044000Y-121206000D01*
X66004000Y-121206000D02*
X67530000Y-121206000D01*
X62526000Y-121166000D02*
X64044000Y-121166000D01*
X66004000Y-121166000D02*
X67522000Y-121166000D01*
X62535000Y-121126000D02*
X64044000Y-121126000D01*
X66004000Y-121126000D02*
X67513000Y-121126000D01*
X62544000Y-121086000D02*
X64044000Y-121086000D01*
X66004000Y-121086000D02*
X67504000Y-121086000D01*
X62554000Y-121046000D02*
X64044000Y-121046000D01*
X66004000Y-121046000D02*
X67494000Y-121046000D01*
X62564000Y-121006000D02*
X64044000Y-121006000D01*
X66004000Y-121006000D02*
X67484000Y-121006000D01*
X62576000Y-120965000D02*
X64044000Y-120965000D01*
X66004000Y-120965000D02*
X67472000Y-120965000D01*
X62588000Y-120925000D02*
X64044000Y-120925000D01*
X66004000Y-120925000D02*
X67460000Y-120925000D01*
X62600000Y-120885000D02*
X64044000Y-120885000D01*
X66004000Y-120885000D02*
X67448000Y-120885000D01*
X62614000Y-120845000D02*
X64044000Y-120845000D01*
X66004000Y-120845000D02*
X67434000Y-120845000D01*
X62628000Y-120805000D02*
X64044000Y-120805000D01*
X66004000Y-120805000D02*
X67420000Y-120805000D01*
X62642000Y-120765000D02*
X64044000Y-120765000D01*
X66004000Y-120765000D02*
X67406000Y-120765000D01*
X62658000Y-120725000D02*
X64044000Y-120725000D01*
X66004000Y-120725000D02*
X67390000Y-120725000D01*
X62674000Y-120685000D02*
X64044000Y-120685000D01*
X66004000Y-120685000D02*
X67374000Y-120685000D01*
X62691000Y-120645000D02*
X64044000Y-120645000D01*
X66004000Y-120645000D02*
X67357000Y-120645000D01*
X62709000Y-120605000D02*
X64044000Y-120605000D01*
X66004000Y-120605000D02*
X67339000Y-120605000D01*
X62728000Y-120565000D02*
X64044000Y-120565000D01*
X66004000Y-120565000D02*
X67320000Y-120565000D01*
X62748000Y-120525000D02*
X64044000Y-120525000D01*
X66004000Y-120525000D02*
X67300000Y-120525000D01*
X62768000Y-120485000D02*
X64044000Y-120485000D01*
X66004000Y-120485000D02*
X67280000Y-120485000D01*
X62790000Y-120445000D02*
X64044000Y-120445000D01*
X66004000Y-120445000D02*
X67258000Y-120445000D01*
X62812000Y-120405000D02*
X64044000Y-120405000D01*
X66004000Y-120405000D02*
X67236000Y-120405000D01*
X62835000Y-120365000D02*
X64044000Y-120365000D01*
X66004000Y-120365000D02*
X67213000Y-120365000D01*
X62859000Y-120325000D02*
X64044000Y-120325000D01*
X66004000Y-120325000D02*
X67189000Y-120325000D01*
X62884000Y-120285000D02*
X64044000Y-120285000D01*
X66004000Y-120285000D02*
X67164000Y-120285000D01*
X62911000Y-120245000D02*
X64044000Y-120245000D01*
X66004000Y-120245000D02*
X67137000Y-120245000D01*
X62938000Y-120205000D02*
X64044000Y-120205000D01*
X66004000Y-120205000D02*
X67110000Y-120205000D01*
X62966000Y-120165000D02*
X64044000Y-120165000D01*
X66004000Y-120165000D02*
X67082000Y-120165000D01*
X62996000Y-120125000D02*
X64044000Y-120125000D01*
X66004000Y-120125000D02*
X67052000Y-120125000D01*
X63027000Y-120085000D02*
X64044000Y-120085000D01*
X66004000Y-120085000D02*
X67021000Y-120085000D01*
X63059000Y-120045000D02*
X64044000Y-120045000D01*
X66004000Y-120045000D02*
X66989000Y-120045000D01*
X63092000Y-120005000D02*
X64044000Y-120005000D01*
X66004000Y-120005000D02*
X66956000Y-120005000D01*
X63127000Y-119965000D02*
X64044000Y-119965000D01*
X66004000Y-119965000D02*
X66921000Y-119965000D01*
X63163000Y-119925000D02*
X64044000Y-119925000D01*
X66004000Y-119925000D02*
X66885000Y-119925000D01*
X63201000Y-119885000D02*
X64044000Y-119885000D01*
X66004000Y-119885000D02*
X66847000Y-119885000D01*
X63241000Y-119845000D02*
X64044000Y-119845000D01*
X66004000Y-119845000D02*
X66807000Y-119845000D01*
X63282000Y-119805000D02*
X64044000Y-119805000D01*
X66004000Y-119805000D02*
X66766000Y-119805000D01*
X63325000Y-119765000D02*
X64044000Y-119765000D01*
X66004000Y-119765000D02*
X66723000Y-119765000D01*
X63370000Y-119725000D02*
X64044000Y-119725000D01*
X66004000Y-119725000D02*
X66678000Y-119725000D01*
X63418000Y-119685000D02*
X64044000Y-119685000D01*
X66004000Y-119685000D02*
X66630000Y-119685000D01*
X63468000Y-119645000D02*
X64044000Y-119645000D01*
X66004000Y-119645000D02*
X66580000Y-119645000D01*
X63520000Y-119605000D02*
X64044000Y-119605000D01*
X66004000Y-119605000D02*
X66528000Y-119605000D01*
X63576000Y-119565000D02*
X64044000Y-119565000D01*
X66004000Y-119565000D02*
X66472000Y-119565000D01*
X63634000Y-119525000D02*
X64044000Y-119525000D01*
X66004000Y-119525000D02*
X66414000Y-119525000D01*
X63697000Y-119485000D02*
X64044000Y-119485000D01*
X66004000Y-119485000D02*
X66351000Y-119485000D01*
X63763000Y-119445000D02*
X66285000Y-119445000D01*
X63835000Y-119405000D02*
X66213000Y-119405000D01*
X63912000Y-119365000D02*
X66136000Y-119365000D01*
X63996000Y-119325000D02*
X66052000Y-119325000D01*
X64090000Y-119285000D02*
X65958000Y-119285000D01*
X64195000Y-119245000D02*
X65853000Y-119245000D01*
X64317000Y-119205000D02*
X65731000Y-119205000D01*
X64465000Y-119165000D02*
X65583000Y-119165000D01*
X64670000Y-119125000D02*
X65378000Y-119125000D01*
X65024000Y-125136000D02*
X65024000Y-123936000D01*
X64374000Y-124536000D02*
X65674000Y-124536000D01*
X66203723Y-118109722D02*
G75*
G03X66204000Y-113498420I-1179723J2305722D01*
G01*
X63844277Y-118109722D02*
G75*
G02X63844000Y-113498420I1179723J2305722D01*
G01*
X63844277Y-118109722D02*
G75*
G03X66204000Y-118109580I1179723J2305722D01*
G01*
X67574000Y-115804000D02*
X62474000Y-115804000D01*
X67574000Y-115844000D02*
X62474000Y-115844000D01*
X67573000Y-115884000D02*
X62475000Y-115884000D01*
X67572000Y-115924000D02*
X62476000Y-115924000D01*
X67570000Y-115964000D02*
X62478000Y-115964000D01*
X67567000Y-116004000D02*
X62481000Y-116004000D01*
X67563000Y-116044000D02*
X62485000Y-116044000D01*
X67559000Y-116084000D02*
X66004000Y-116084000D01*
X64044000Y-116084000D02*
X62489000Y-116084000D01*
X67555000Y-116124000D02*
X66004000Y-116124000D01*
X64044000Y-116124000D02*
X62493000Y-116124000D01*
X67549000Y-116164000D02*
X66004000Y-116164000D01*
X64044000Y-116164000D02*
X62499000Y-116164000D01*
X67543000Y-116204000D02*
X66004000Y-116204000D01*
X64044000Y-116204000D02*
X62505000Y-116204000D01*
X67537000Y-116244000D02*
X66004000Y-116244000D01*
X64044000Y-116244000D02*
X62511000Y-116244000D01*
X67530000Y-116284000D02*
X66004000Y-116284000D01*
X64044000Y-116284000D02*
X62518000Y-116284000D01*
X67522000Y-116324000D02*
X66004000Y-116324000D01*
X64044000Y-116324000D02*
X62526000Y-116324000D01*
X67513000Y-116364000D02*
X66004000Y-116364000D01*
X64044000Y-116364000D02*
X62535000Y-116364000D01*
X67504000Y-116404000D02*
X66004000Y-116404000D01*
X64044000Y-116404000D02*
X62544000Y-116404000D01*
X67494000Y-116444000D02*
X66004000Y-116444000D01*
X64044000Y-116444000D02*
X62554000Y-116444000D01*
X67484000Y-116484000D02*
X66004000Y-116484000D01*
X64044000Y-116484000D02*
X62564000Y-116484000D01*
X67472000Y-116525000D02*
X66004000Y-116525000D01*
X64044000Y-116525000D02*
X62576000Y-116525000D01*
X67460000Y-116565000D02*
X66004000Y-116565000D01*
X64044000Y-116565000D02*
X62588000Y-116565000D01*
X67448000Y-116605000D02*
X66004000Y-116605000D01*
X64044000Y-116605000D02*
X62600000Y-116605000D01*
X67434000Y-116645000D02*
X66004000Y-116645000D01*
X64044000Y-116645000D02*
X62614000Y-116645000D01*
X67420000Y-116685000D02*
X66004000Y-116685000D01*
X64044000Y-116685000D02*
X62628000Y-116685000D01*
X67406000Y-116725000D02*
X66004000Y-116725000D01*
X64044000Y-116725000D02*
X62642000Y-116725000D01*
X67390000Y-116765000D02*
X66004000Y-116765000D01*
X64044000Y-116765000D02*
X62658000Y-116765000D01*
X67374000Y-116805000D02*
X66004000Y-116805000D01*
X64044000Y-116805000D02*
X62674000Y-116805000D01*
X67357000Y-116845000D02*
X66004000Y-116845000D01*
X64044000Y-116845000D02*
X62691000Y-116845000D01*
X67339000Y-116885000D02*
X66004000Y-116885000D01*
X64044000Y-116885000D02*
X62709000Y-116885000D01*
X67320000Y-116925000D02*
X66004000Y-116925000D01*
X64044000Y-116925000D02*
X62728000Y-116925000D01*
X67300000Y-116965000D02*
X66004000Y-116965000D01*
X64044000Y-116965000D02*
X62748000Y-116965000D01*
X67280000Y-117005000D02*
X66004000Y-117005000D01*
X64044000Y-117005000D02*
X62768000Y-117005000D01*
X67258000Y-117045000D02*
X66004000Y-117045000D01*
X64044000Y-117045000D02*
X62790000Y-117045000D01*
X67236000Y-117085000D02*
X66004000Y-117085000D01*
X64044000Y-117085000D02*
X62812000Y-117085000D01*
X67213000Y-117125000D02*
X66004000Y-117125000D01*
X64044000Y-117125000D02*
X62835000Y-117125000D01*
X67189000Y-117165000D02*
X66004000Y-117165000D01*
X64044000Y-117165000D02*
X62859000Y-117165000D01*
X67164000Y-117205000D02*
X66004000Y-117205000D01*
X64044000Y-117205000D02*
X62884000Y-117205000D01*
X67137000Y-117245000D02*
X66004000Y-117245000D01*
X64044000Y-117245000D02*
X62911000Y-117245000D01*
X67110000Y-117285000D02*
X66004000Y-117285000D01*
X64044000Y-117285000D02*
X62938000Y-117285000D01*
X67082000Y-117325000D02*
X66004000Y-117325000D01*
X64044000Y-117325000D02*
X62966000Y-117325000D01*
X67052000Y-117365000D02*
X66004000Y-117365000D01*
X64044000Y-117365000D02*
X62996000Y-117365000D01*
X67021000Y-117405000D02*
X66004000Y-117405000D01*
X64044000Y-117405000D02*
X63027000Y-117405000D01*
X66989000Y-117445000D02*
X66004000Y-117445000D01*
X64044000Y-117445000D02*
X63059000Y-117445000D01*
X66956000Y-117485000D02*
X66004000Y-117485000D01*
X64044000Y-117485000D02*
X63092000Y-117485000D01*
X66921000Y-117525000D02*
X66004000Y-117525000D01*
X64044000Y-117525000D02*
X63127000Y-117525000D01*
X66885000Y-117565000D02*
X66004000Y-117565000D01*
X64044000Y-117565000D02*
X63163000Y-117565000D01*
X66847000Y-117605000D02*
X66004000Y-117605000D01*
X64044000Y-117605000D02*
X63201000Y-117605000D01*
X66807000Y-117645000D02*
X66004000Y-117645000D01*
X64044000Y-117645000D02*
X63241000Y-117645000D01*
X66766000Y-117685000D02*
X66004000Y-117685000D01*
X64044000Y-117685000D02*
X63282000Y-117685000D01*
X66723000Y-117725000D02*
X66004000Y-117725000D01*
X64044000Y-117725000D02*
X63325000Y-117725000D01*
X66678000Y-117765000D02*
X66004000Y-117765000D01*
X64044000Y-117765000D02*
X63370000Y-117765000D01*
X66630000Y-117805000D02*
X66004000Y-117805000D01*
X64044000Y-117805000D02*
X63418000Y-117805000D01*
X66580000Y-117845000D02*
X66004000Y-117845000D01*
X64044000Y-117845000D02*
X63468000Y-117845000D01*
X66528000Y-117885000D02*
X66004000Y-117885000D01*
X64044000Y-117885000D02*
X63520000Y-117885000D01*
X66472000Y-117925000D02*
X66004000Y-117925000D01*
X64044000Y-117925000D02*
X63576000Y-117925000D01*
X66414000Y-117965000D02*
X66004000Y-117965000D01*
X64044000Y-117965000D02*
X63634000Y-117965000D01*
X66351000Y-118005000D02*
X66004000Y-118005000D01*
X64044000Y-118005000D02*
X63697000Y-118005000D01*
X66285000Y-118045000D02*
X63763000Y-118045000D01*
X66213000Y-118085000D02*
X63835000Y-118085000D01*
X66136000Y-118125000D02*
X63912000Y-118125000D01*
X66052000Y-118165000D02*
X63996000Y-118165000D01*
X65958000Y-118205000D02*
X64090000Y-118205000D01*
X65853000Y-118245000D02*
X64195000Y-118245000D01*
X65731000Y-118285000D02*
X64317000Y-118285000D01*
X65583000Y-118325000D02*
X64465000Y-118325000D01*
X65378000Y-118365000D02*
X64670000Y-118365000D01*
X65024000Y-112354000D02*
X65024000Y-113554000D01*
X65674000Y-112954000D02*
X64374000Y-112954000D01*
D11*
X40386095Y-95210381D02*
X40386095Y-96019905D01*
X40433714Y-96115143D01*
X40481333Y-96162762D01*
X40576571Y-96210381D01*
X40767048Y-96210381D01*
X40862286Y-96162762D01*
X40909905Y-96115143D01*
X40957524Y-96019905D01*
X40957524Y-95210381D01*
X41386095Y-95305619D02*
X41433714Y-95258000D01*
X41528952Y-95210381D01*
X41767048Y-95210381D01*
X41862286Y-95258000D01*
X41909905Y-95305619D01*
X41957524Y-95400857D01*
X41957524Y-95496095D01*
X41909905Y-95638952D01*
X41338476Y-96210381D01*
X41957524Y-96210381D01*
X51482762Y-79970381D02*
X51816095Y-80970381D01*
X52149429Y-79970381D01*
X52482762Y-80970381D02*
X52482762Y-79970381D01*
X52958952Y-80970381D02*
X52958952Y-79970381D01*
X53530381Y-80970381D01*
X53530381Y-79970381D01*
X52839905Y-82558000D02*
X52744667Y-82510381D01*
X52601810Y-82510381D01*
X52458952Y-82558000D01*
X52363714Y-82653238D01*
X52316095Y-82748476D01*
X52268476Y-82938952D01*
X52268476Y-83081810D01*
X52316095Y-83272286D01*
X52363714Y-83367524D01*
X52458952Y-83462762D01*
X52601810Y-83510381D01*
X52697048Y-83510381D01*
X52839905Y-83462762D01*
X52887524Y-83415143D01*
X52887524Y-83081810D01*
X52697048Y-83081810D01*
X52030381Y-86050381D02*
X51697047Y-85574190D01*
X51458952Y-86050381D02*
X51458952Y-85050381D01*
X51839905Y-85050381D01*
X51935143Y-85098000D01*
X51982762Y-85145619D01*
X52030381Y-85240857D01*
X52030381Y-85383714D01*
X51982762Y-85478952D01*
X51935143Y-85526571D01*
X51839905Y-85574190D01*
X51458952Y-85574190D01*
X52411333Y-86002762D02*
X52554190Y-86050381D01*
X52792286Y-86050381D01*
X52887524Y-86002762D01*
X52935143Y-85955143D01*
X52982762Y-85859905D01*
X52982762Y-85764667D01*
X52935143Y-85669429D01*
X52887524Y-85621810D01*
X52792286Y-85574190D01*
X52601809Y-85526571D01*
X52506571Y-85478952D01*
X52458952Y-85431333D01*
X52411333Y-85336095D01*
X52411333Y-85240857D01*
X52458952Y-85145619D01*
X52506571Y-85098000D01*
X52601809Y-85050381D01*
X52839905Y-85050381D01*
X52982762Y-85098000D01*
X53268476Y-85050381D02*
X53839905Y-85050381D01*
X53554190Y-86050381D02*
X53554190Y-85050381D01*
X51839905Y-88066571D02*
X52173239Y-88066571D01*
X52316096Y-88590381D02*
X51839905Y-88590381D01*
X51839905Y-87590381D01*
X52316096Y-87590381D01*
X52744667Y-88590381D02*
X52744667Y-87590381D01*
X53316096Y-88590381D01*
X53316096Y-87590381D01*
X51816095Y-90130381D02*
X52435143Y-90130381D01*
X52101809Y-90511333D01*
X52244667Y-90511333D01*
X52339905Y-90558952D01*
X52387524Y-90606571D01*
X52435143Y-90701810D01*
X52435143Y-90939905D01*
X52387524Y-91035143D01*
X52339905Y-91082762D01*
X52244667Y-91130381D01*
X51958952Y-91130381D01*
X51863714Y-91082762D01*
X51816095Y-91035143D01*
X52720857Y-90130381D02*
X53054190Y-91130381D01*
X53387524Y-90130381D01*
X52839905Y-92718000D02*
X52744667Y-92670381D01*
X52601810Y-92670381D01*
X52458952Y-92718000D01*
X52363714Y-92813238D01*
X52316095Y-92908476D01*
X52268476Y-93098952D01*
X52268476Y-93241810D01*
X52316095Y-93432286D01*
X52363714Y-93527524D01*
X52458952Y-93622762D01*
X52601810Y-93670381D01*
X52697048Y-93670381D01*
X52839905Y-93622762D01*
X52887524Y-93575143D01*
X52887524Y-93241810D01*
X52697048Y-93241810D01*
X51792286Y-96162762D02*
X51935143Y-96210381D01*
X52173239Y-96210381D01*
X52268477Y-96162762D01*
X52316096Y-96115143D01*
X52363715Y-96019905D01*
X52363715Y-95924667D01*
X52316096Y-95829429D01*
X52268477Y-95781810D01*
X52173239Y-95734190D01*
X51982762Y-95686571D01*
X51887524Y-95638952D01*
X51839905Y-95591333D01*
X51792286Y-95496095D01*
X51792286Y-95400857D01*
X51839905Y-95305619D01*
X51887524Y-95258000D01*
X51982762Y-95210381D01*
X52220858Y-95210381D01*
X52363715Y-95258000D01*
X52792286Y-96210381D02*
X52792286Y-95210381D01*
X53363715Y-96210381D02*
X52935143Y-95638952D01*
X53363715Y-95210381D02*
X52792286Y-95781810D01*
X51768476Y-98702762D02*
X51911333Y-98750381D01*
X52149429Y-98750381D01*
X52244667Y-98702762D01*
X52292286Y-98655143D01*
X52339905Y-98559905D01*
X52339905Y-98464667D01*
X52292286Y-98369429D01*
X52244667Y-98321810D01*
X52149429Y-98274190D01*
X51958952Y-98226571D01*
X51863714Y-98178952D01*
X51816095Y-98131333D01*
X51768476Y-98036095D01*
X51768476Y-97940857D01*
X51816095Y-97845619D01*
X51863714Y-97798000D01*
X51958952Y-97750381D01*
X52197048Y-97750381D01*
X52339905Y-97798000D01*
X52958952Y-97750381D02*
X53149429Y-97750381D01*
X53244667Y-97798000D01*
X53339905Y-97893238D01*
X53387524Y-98083714D01*
X53387524Y-98417048D01*
X53339905Y-98607524D01*
X53244667Y-98702762D01*
X53149429Y-98750381D01*
X52958952Y-98750381D01*
X52863714Y-98702762D01*
X52768476Y-98607524D01*
X52720857Y-98417048D01*
X52720857Y-98083714D01*
X52768476Y-97893238D01*
X52863714Y-97798000D01*
X52958952Y-97750381D01*
X51792286Y-101242762D02*
X51935143Y-101290381D01*
X52173239Y-101290381D01*
X52268477Y-101242762D01*
X52316096Y-101195143D01*
X52363715Y-101099905D01*
X52363715Y-101004667D01*
X52316096Y-100909429D01*
X52268477Y-100861810D01*
X52173239Y-100814190D01*
X51982762Y-100766571D01*
X51887524Y-100718952D01*
X51839905Y-100671333D01*
X51792286Y-100576095D01*
X51792286Y-100480857D01*
X51839905Y-100385619D01*
X51887524Y-100338000D01*
X51982762Y-100290381D01*
X52220858Y-100290381D01*
X52363715Y-100338000D01*
X53363715Y-101195143D02*
X53316096Y-101242762D01*
X53173239Y-101290381D01*
X53078001Y-101290381D01*
X52935143Y-101242762D01*
X52839905Y-101147524D01*
X52792286Y-101052286D01*
X52744667Y-100861810D01*
X52744667Y-100718952D01*
X52792286Y-100528476D01*
X52839905Y-100433238D01*
X52935143Y-100338000D01*
X53078001Y-100290381D01*
X53173239Y-100290381D01*
X53316096Y-100338000D01*
X53363715Y-100385619D01*
X51816095Y-103782762D02*
X51958952Y-103830381D01*
X52197048Y-103830381D01*
X52292286Y-103782762D01*
X52339905Y-103735143D01*
X52387524Y-103639905D01*
X52387524Y-103544667D01*
X52339905Y-103449429D01*
X52292286Y-103401810D01*
X52197048Y-103354190D01*
X52006571Y-103306571D01*
X51911333Y-103258952D01*
X51863714Y-103211333D01*
X51816095Y-103116095D01*
X51816095Y-103020857D01*
X51863714Y-102925619D01*
X51911333Y-102878000D01*
X52006571Y-102830381D01*
X52244667Y-102830381D01*
X52387524Y-102878000D01*
X53339905Y-103830381D02*
X52768476Y-103830381D01*
X53054190Y-103830381D02*
X53054190Y-102830381D01*
X52958952Y-102973238D01*
X52863714Y-103068476D01*
X52768476Y-103116095D01*
X51816095Y-106322762D02*
X51958952Y-106370381D01*
X52197048Y-106370381D01*
X52292286Y-106322762D01*
X52339905Y-106275143D01*
X52387524Y-106179905D01*
X52387524Y-106084667D01*
X52339905Y-105989429D01*
X52292286Y-105941810D01*
X52197048Y-105894190D01*
X52006571Y-105846571D01*
X51911333Y-105798952D01*
X51863714Y-105751333D01*
X51816095Y-105656095D01*
X51816095Y-105560857D01*
X51863714Y-105465619D01*
X51911333Y-105418000D01*
X52006571Y-105370381D01*
X52244667Y-105370381D01*
X52387524Y-105418000D01*
X52768476Y-105465619D02*
X52816095Y-105418000D01*
X52911333Y-105370381D01*
X53149429Y-105370381D01*
X53244667Y-105418000D01*
X53292286Y-105465619D01*
X53339905Y-105560857D01*
X53339905Y-105656095D01*
X53292286Y-105798952D01*
X52720857Y-106370381D01*
X53339905Y-106370381D01*
X51816095Y-108862762D02*
X51958952Y-108910381D01*
X52197048Y-108910381D01*
X52292286Y-108862762D01*
X52339905Y-108815143D01*
X52387524Y-108719905D01*
X52387524Y-108624667D01*
X52339905Y-108529429D01*
X52292286Y-108481810D01*
X52197048Y-108434190D01*
X52006571Y-108386571D01*
X51911333Y-108338952D01*
X51863714Y-108291333D01*
X51816095Y-108196095D01*
X51816095Y-108100857D01*
X51863714Y-108005619D01*
X51911333Y-107958000D01*
X52006571Y-107910381D01*
X52244667Y-107910381D01*
X52387524Y-107958000D01*
X52720857Y-107910381D02*
X53339905Y-107910381D01*
X53006571Y-108291333D01*
X53149429Y-108291333D01*
X53244667Y-108338952D01*
X53292286Y-108386571D01*
X53339905Y-108481810D01*
X53339905Y-108719905D01*
X53292286Y-108815143D01*
X53244667Y-108862762D01*
X53149429Y-108910381D01*
X52863714Y-108910381D01*
X52768476Y-108862762D01*
X52720857Y-108815143D01*
X51720857Y-110450381D02*
X52054190Y-111450381D01*
X52387524Y-110450381D01*
X52720857Y-110450381D02*
X52720857Y-111259905D01*
X52768476Y-111355143D01*
X52816095Y-111402762D01*
X52911333Y-111450381D01*
X53101810Y-111450381D01*
X53197048Y-111402762D01*
X53244667Y-111355143D01*
X53292286Y-111259905D01*
X53292286Y-110450381D01*
X52839905Y-113038000D02*
X52744667Y-112990381D01*
X52601810Y-112990381D01*
X52458952Y-113038000D01*
X52363714Y-113133238D01*
X52316095Y-113228476D01*
X52268476Y-113418952D01*
X52268476Y-113561810D01*
X52316095Y-113752286D01*
X52363714Y-113847524D01*
X52458952Y-113942762D01*
X52601810Y-113990381D01*
X52697048Y-113990381D01*
X52839905Y-113942762D01*
X52887524Y-113895143D01*
X52887524Y-113561810D01*
X52697048Y-113561810D01*
X51863714Y-116244667D02*
X52339905Y-116244667D01*
X51768476Y-116530381D02*
X52101809Y-115530381D01*
X52435143Y-116530381D01*
X52958952Y-115530381D02*
X53054191Y-115530381D01*
X53149429Y-115578000D01*
X53197048Y-115625619D01*
X53244667Y-115720857D01*
X53292286Y-115911333D01*
X53292286Y-116149429D01*
X53244667Y-116339905D01*
X53197048Y-116435143D01*
X53149429Y-116482762D01*
X53054191Y-116530381D01*
X52958952Y-116530381D01*
X52863714Y-116482762D01*
X52816095Y-116435143D01*
X52768476Y-116339905D01*
X52720857Y-116149429D01*
X52720857Y-115911333D01*
X52768476Y-115720857D01*
X52816095Y-115625619D01*
X52863714Y-115578000D01*
X52958952Y-115530381D01*
X28956095Y-79970381D02*
X29575143Y-79970381D01*
X29241809Y-80351333D01*
X29384667Y-80351333D01*
X29479905Y-80398952D01*
X29527524Y-80446571D01*
X29575143Y-80541810D01*
X29575143Y-80779905D01*
X29527524Y-80875143D01*
X29479905Y-80922762D01*
X29384667Y-80970381D01*
X29098952Y-80970381D01*
X29003714Y-80922762D01*
X28956095Y-80875143D01*
X29860857Y-79970381D02*
X30194190Y-80970381D01*
X30527524Y-79970381D01*
X29979905Y-82558000D02*
X29884667Y-82510381D01*
X29741810Y-82510381D01*
X29598952Y-82558000D01*
X29503714Y-82653238D01*
X29456095Y-82748476D01*
X29408476Y-82938952D01*
X29408476Y-83081810D01*
X29456095Y-83272286D01*
X29503714Y-83367524D01*
X29598952Y-83462762D01*
X29741810Y-83510381D01*
X29837048Y-83510381D01*
X29979905Y-83462762D01*
X30027524Y-83415143D01*
X30027524Y-83081810D01*
X29837048Y-83081810D01*
X28956095Y-85050381D02*
X29527524Y-85050381D01*
X29241809Y-86050381D02*
X29241809Y-85050381D01*
X29765619Y-85050381D02*
X30432286Y-86050381D01*
X30432286Y-85050381D02*
X29765619Y-86050381D01*
X29551334Y-88590381D02*
X29218000Y-88114190D01*
X28979905Y-88590381D02*
X28979905Y-87590381D01*
X29360858Y-87590381D01*
X29456096Y-87638000D01*
X29503715Y-87685619D01*
X29551334Y-87780857D01*
X29551334Y-87923714D01*
X29503715Y-88018952D01*
X29456096Y-88066571D01*
X29360858Y-88114190D01*
X28979905Y-88114190D01*
X29884667Y-87590381D02*
X30551334Y-88590381D01*
X30551334Y-87590381D02*
X29884667Y-88590381D01*
X28979905Y-91130381D02*
X28979905Y-90130381D01*
X29218000Y-90130381D01*
X29360858Y-90178000D01*
X29456096Y-90273238D01*
X29503715Y-90368476D01*
X29551334Y-90558952D01*
X29551334Y-90701810D01*
X29503715Y-90892286D01*
X29456096Y-90987524D01*
X29360858Y-91082762D01*
X29218000Y-91130381D01*
X28979905Y-91130381D01*
X30122762Y-90558952D02*
X30027524Y-90511333D01*
X29979905Y-90463714D01*
X29932286Y-90368476D01*
X29932286Y-90320857D01*
X29979905Y-90225619D01*
X30027524Y-90178000D01*
X30122762Y-90130381D01*
X30313239Y-90130381D01*
X30408477Y-90178000D01*
X30456096Y-90225619D01*
X30503715Y-90320857D01*
X30503715Y-90368476D01*
X30456096Y-90463714D01*
X30408477Y-90511333D01*
X30313239Y-90558952D01*
X30122762Y-90558952D01*
X30027524Y-90606571D01*
X29979905Y-90654190D01*
X29932286Y-90749429D01*
X29932286Y-90939905D01*
X29979905Y-91035143D01*
X30027524Y-91082762D01*
X30122762Y-91130381D01*
X30313239Y-91130381D01*
X30408477Y-91082762D01*
X30456096Y-91035143D01*
X30503715Y-90939905D01*
X30503715Y-90749429D01*
X30456096Y-90654190D01*
X30408477Y-90606571D01*
X30313239Y-90558952D01*
X28979905Y-93670381D02*
X28979905Y-92670381D01*
X29218000Y-92670381D01*
X29360858Y-92718000D01*
X29456096Y-92813238D01*
X29503715Y-92908476D01*
X29551334Y-93098952D01*
X29551334Y-93241810D01*
X29503715Y-93432286D01*
X29456096Y-93527524D01*
X29360858Y-93622762D01*
X29218000Y-93670381D01*
X28979905Y-93670381D01*
X29884667Y-92670381D02*
X30551334Y-92670381D01*
X30122762Y-93670381D01*
X28979905Y-96210381D02*
X28979905Y-95210381D01*
X29218000Y-95210381D01*
X29360858Y-95258000D01*
X29456096Y-95353238D01*
X29503715Y-95448476D01*
X29551334Y-95638952D01*
X29551334Y-95781810D01*
X29503715Y-95972286D01*
X29456096Y-96067524D01*
X29360858Y-96162762D01*
X29218000Y-96210381D01*
X28979905Y-96210381D01*
X30408477Y-95210381D02*
X30218000Y-95210381D01*
X30122762Y-95258000D01*
X30075143Y-95305619D01*
X29979905Y-95448476D01*
X29932286Y-95638952D01*
X29932286Y-96019905D01*
X29979905Y-96115143D01*
X30027524Y-96162762D01*
X30122762Y-96210381D01*
X30313239Y-96210381D01*
X30408477Y-96162762D01*
X30456096Y-96115143D01*
X30503715Y-96019905D01*
X30503715Y-95781810D01*
X30456096Y-95686571D01*
X30408477Y-95638952D01*
X30313239Y-95591333D01*
X30122762Y-95591333D01*
X30027524Y-95638952D01*
X29979905Y-95686571D01*
X29932286Y-95781810D01*
X28979905Y-98750381D02*
X28979905Y-97750381D01*
X29218000Y-97750381D01*
X29360858Y-97798000D01*
X29456096Y-97893238D01*
X29503715Y-97988476D01*
X29551334Y-98178952D01*
X29551334Y-98321810D01*
X29503715Y-98512286D01*
X29456096Y-98607524D01*
X29360858Y-98702762D01*
X29218000Y-98750381D01*
X28979905Y-98750381D01*
X30456096Y-97750381D02*
X29979905Y-97750381D01*
X29932286Y-98226571D01*
X29979905Y-98178952D01*
X30075143Y-98131333D01*
X30313239Y-98131333D01*
X30408477Y-98178952D01*
X30456096Y-98226571D01*
X30503715Y-98321810D01*
X30503715Y-98559905D01*
X30456096Y-98655143D01*
X30408477Y-98702762D01*
X30313239Y-98750381D01*
X30075143Y-98750381D01*
X29979905Y-98702762D01*
X29932286Y-98655143D01*
X29979905Y-100338000D02*
X29884667Y-100290381D01*
X29741810Y-100290381D01*
X29598952Y-100338000D01*
X29503714Y-100433238D01*
X29456095Y-100528476D01*
X29408476Y-100718952D01*
X29408476Y-100861810D01*
X29456095Y-101052286D01*
X29503714Y-101147524D01*
X29598952Y-101242762D01*
X29741810Y-101290381D01*
X29837048Y-101290381D01*
X29979905Y-101242762D01*
X30027524Y-101195143D01*
X30027524Y-100861810D01*
X29837048Y-100861810D01*
X28956095Y-102830381D02*
X29575143Y-102830381D01*
X29241809Y-103211333D01*
X29384667Y-103211333D01*
X29479905Y-103258952D01*
X29527524Y-103306571D01*
X29575143Y-103401810D01*
X29575143Y-103639905D01*
X29527524Y-103735143D01*
X29479905Y-103782762D01*
X29384667Y-103830381D01*
X29098952Y-103830381D01*
X29003714Y-103782762D01*
X28956095Y-103735143D01*
X29860857Y-102830381D02*
X30194190Y-103830381D01*
X30527524Y-102830381D01*
X28979905Y-106370381D02*
X28979905Y-105370381D01*
X29218000Y-105370381D01*
X29360858Y-105418000D01*
X29456096Y-105513238D01*
X29503715Y-105608476D01*
X29551334Y-105798952D01*
X29551334Y-105941810D01*
X29503715Y-106132286D01*
X29456096Y-106227524D01*
X29360858Y-106322762D01*
X29218000Y-106370381D01*
X28979905Y-106370381D01*
X30408477Y-105703714D02*
X30408477Y-106370381D01*
X30170381Y-105322762D02*
X29932286Y-106037048D01*
X30551334Y-106037048D01*
X28979905Y-108910381D02*
X28979905Y-107910381D01*
X29218000Y-107910381D01*
X29360858Y-107958000D01*
X29456096Y-108053238D01*
X29503715Y-108148476D01*
X29551334Y-108338952D01*
X29551334Y-108481810D01*
X29503715Y-108672286D01*
X29456096Y-108767524D01*
X29360858Y-108862762D01*
X29218000Y-108910381D01*
X28979905Y-108910381D01*
X29884667Y-107910381D02*
X30503715Y-107910381D01*
X30170381Y-108291333D01*
X30313239Y-108291333D01*
X30408477Y-108338952D01*
X30456096Y-108386571D01*
X30503715Y-108481810D01*
X30503715Y-108719905D01*
X30456096Y-108815143D01*
X30408477Y-108862762D01*
X30313239Y-108910381D01*
X30027524Y-108910381D01*
X29932286Y-108862762D01*
X29884667Y-108815143D01*
X28979905Y-111450381D02*
X28979905Y-110450381D01*
X29218000Y-110450381D01*
X29360858Y-110498000D01*
X29456096Y-110593238D01*
X29503715Y-110688476D01*
X29551334Y-110878952D01*
X29551334Y-111021810D01*
X29503715Y-111212286D01*
X29456096Y-111307524D01*
X29360858Y-111402762D01*
X29218000Y-111450381D01*
X28979905Y-111450381D01*
X29932286Y-110545619D02*
X29979905Y-110498000D01*
X30075143Y-110450381D01*
X30313239Y-110450381D01*
X30408477Y-110498000D01*
X30456096Y-110545619D01*
X30503715Y-110640857D01*
X30503715Y-110736095D01*
X30456096Y-110878952D01*
X29884667Y-111450381D01*
X30503715Y-111450381D01*
X28979905Y-113990381D02*
X28979905Y-112990381D01*
X29218000Y-112990381D01*
X29360858Y-113038000D01*
X29456096Y-113133238D01*
X29503715Y-113228476D01*
X29551334Y-113418952D01*
X29551334Y-113561810D01*
X29503715Y-113752286D01*
X29456096Y-113847524D01*
X29360858Y-113942762D01*
X29218000Y-113990381D01*
X28979905Y-113990381D01*
X30503715Y-113990381D02*
X29932286Y-113990381D01*
X30218000Y-113990381D02*
X30218000Y-112990381D01*
X30122762Y-113133238D01*
X30027524Y-113228476D01*
X29932286Y-113276095D01*
X28979905Y-116530381D02*
X28979905Y-115530381D01*
X29218000Y-115530381D01*
X29360858Y-115578000D01*
X29456096Y-115673238D01*
X29503715Y-115768476D01*
X29551334Y-115958952D01*
X29551334Y-116101810D01*
X29503715Y-116292286D01*
X29456096Y-116387524D01*
X29360858Y-116482762D01*
X29218000Y-116530381D01*
X28979905Y-116530381D01*
X30170381Y-115530381D02*
X30265620Y-115530381D01*
X30360858Y-115578000D01*
X30408477Y-115625619D01*
X30456096Y-115720857D01*
X30503715Y-115911333D01*
X30503715Y-116149429D01*
X30456096Y-116339905D01*
X30408477Y-116435143D01*
X30360858Y-116482762D01*
X30265620Y-116530381D01*
X30170381Y-116530381D01*
X30075143Y-116482762D01*
X30027524Y-116435143D01*
X29979905Y-116339905D01*
X29932286Y-116149429D01*
X29932286Y-115911333D01*
X29979905Y-115720857D01*
X30027524Y-115625619D01*
X30075143Y-115578000D01*
X30170381Y-115530381D01*
X84701143Y-103150381D02*
X84367809Y-102674190D01*
X84129714Y-103150381D02*
X84129714Y-102150381D01*
X84510667Y-102150381D01*
X84605905Y-102198000D01*
X84653524Y-102245619D01*
X84701143Y-102340857D01*
X84701143Y-102483714D01*
X84653524Y-102578952D01*
X84605905Y-102626571D01*
X84510667Y-102674190D01*
X84129714Y-102674190D01*
X85653524Y-103150381D02*
X85082095Y-103150381D01*
X85367809Y-103150381D02*
X85367809Y-102150381D01*
X85272571Y-102293238D01*
X85177333Y-102388476D01*
X85082095Y-102436095D01*
X86605905Y-103150381D02*
X86034476Y-103150381D01*
X86320190Y-103150381D02*
X86320190Y-102150381D01*
X86224952Y-102293238D01*
X86129714Y-102388476D01*
X86034476Y-102436095D01*
X69469619Y-68181238D02*
X69422000Y-68276476D01*
X69326762Y-68371714D01*
X69183905Y-68514571D01*
X69136286Y-68609810D01*
X69136286Y-68705048D01*
X69374381Y-68657429D02*
X69326762Y-68752667D01*
X69231524Y-68847905D01*
X69041048Y-68895524D01*
X68707714Y-68895524D01*
X68517238Y-68847905D01*
X68422000Y-68752667D01*
X68374381Y-68657429D01*
X68374381Y-68466952D01*
X68422000Y-68371714D01*
X68517238Y-68276476D01*
X68707714Y-68228857D01*
X69041048Y-68228857D01*
X69231524Y-68276476D01*
X69326762Y-68371714D01*
X69374381Y-68466952D01*
X69374381Y-68657429D01*
X68469619Y-67847905D02*
X68422000Y-67800286D01*
X68374381Y-67705048D01*
X68374381Y-67466952D01*
X68422000Y-67371714D01*
X68469619Y-67324095D01*
X68564857Y-67276476D01*
X68660095Y-67276476D01*
X68802952Y-67324095D01*
X69374381Y-67895524D01*
X69374381Y-67276476D01*
X82440762Y-57785619D02*
X82345524Y-57738000D01*
X82250286Y-57642762D01*
X82107429Y-57499905D01*
X82012190Y-57452286D01*
X81916952Y-57452286D01*
X81964571Y-57690381D02*
X81869333Y-57642762D01*
X81774095Y-57547524D01*
X81726476Y-57357048D01*
X81726476Y-57023714D01*
X81774095Y-56833238D01*
X81869333Y-56738000D01*
X81964571Y-56690381D01*
X82155048Y-56690381D01*
X82250286Y-56738000D01*
X82345524Y-56833238D01*
X82393143Y-57023714D01*
X82393143Y-57357048D01*
X82345524Y-57547524D01*
X82250286Y-57642762D01*
X82155048Y-57690381D01*
X81964571Y-57690381D01*
X83250286Y-57023714D02*
X83250286Y-57690381D01*
X83012190Y-56642762D02*
X82774095Y-57357048D01*
X83393143Y-57357048D01*
X82440762Y-70485619D02*
X82345524Y-70438000D01*
X82250286Y-70342762D01*
X82107429Y-70199905D01*
X82012190Y-70152286D01*
X81916952Y-70152286D01*
X81964571Y-70390381D02*
X81869333Y-70342762D01*
X81774095Y-70247524D01*
X81726476Y-70057048D01*
X81726476Y-69723714D01*
X81774095Y-69533238D01*
X81869333Y-69438000D01*
X81964571Y-69390381D01*
X82155048Y-69390381D01*
X82250286Y-69438000D01*
X82345524Y-69533238D01*
X82393143Y-69723714D01*
X82393143Y-70057048D01*
X82345524Y-70247524D01*
X82250286Y-70342762D01*
X82155048Y-70390381D01*
X81964571Y-70390381D01*
X83250286Y-69390381D02*
X83059809Y-69390381D01*
X82964571Y-69438000D01*
X82916952Y-69485619D01*
X82821714Y-69628476D01*
X82774095Y-69818952D01*
X82774095Y-70199905D01*
X82821714Y-70295143D01*
X82869333Y-70342762D01*
X82964571Y-70390381D01*
X83155048Y-70390381D01*
X83250286Y-70342762D01*
X83297905Y-70295143D01*
X83345524Y-70199905D01*
X83345524Y-69961810D01*
X83297905Y-69866571D01*
X83250286Y-69818952D01*
X83155048Y-69771333D01*
X82964571Y-69771333D01*
X82869333Y-69818952D01*
X82821714Y-69866571D01*
X82774095Y-69961810D01*
X82440762Y-82169619D02*
X82345524Y-82122000D01*
X82250286Y-82026762D01*
X82107429Y-81883905D01*
X82012190Y-81836286D01*
X81916952Y-81836286D01*
X81964571Y-82074381D02*
X81869333Y-82026762D01*
X81774095Y-81931524D01*
X81726476Y-81741048D01*
X81726476Y-81407714D01*
X81774095Y-81217238D01*
X81869333Y-81122000D01*
X81964571Y-81074381D01*
X82155048Y-81074381D01*
X82250286Y-81122000D01*
X82345524Y-81217238D01*
X82393143Y-81407714D01*
X82393143Y-81741048D01*
X82345524Y-81931524D01*
X82250286Y-82026762D01*
X82155048Y-82074381D01*
X81964571Y-82074381D01*
X82964571Y-81502952D02*
X82869333Y-81455333D01*
X82821714Y-81407714D01*
X82774095Y-81312476D01*
X82774095Y-81264857D01*
X82821714Y-81169619D01*
X82869333Y-81122000D01*
X82964571Y-81074381D01*
X83155048Y-81074381D01*
X83250286Y-81122000D01*
X83297905Y-81169619D01*
X83345524Y-81264857D01*
X83345524Y-81312476D01*
X83297905Y-81407714D01*
X83250286Y-81455333D01*
X83155048Y-81502952D01*
X82964571Y-81502952D01*
X82869333Y-81550571D01*
X82821714Y-81598190D01*
X82774095Y-81693429D01*
X82774095Y-81883905D01*
X82821714Y-81979143D01*
X82869333Y-82026762D01*
X82964571Y-82074381D01*
X83155048Y-82074381D01*
X83250286Y-82026762D01*
X83297905Y-81979143D01*
X83345524Y-81883905D01*
X83345524Y-81693429D01*
X83297905Y-81598190D01*
X83250286Y-81550571D01*
X83155048Y-81502952D01*
X81964572Y-92329619D02*
X81869334Y-92282000D01*
X81774096Y-92186762D01*
X81631239Y-92043905D01*
X81536000Y-91996286D01*
X81440762Y-91996286D01*
X81488381Y-92234381D02*
X81393143Y-92186762D01*
X81297905Y-92091524D01*
X81250286Y-91901048D01*
X81250286Y-91567714D01*
X81297905Y-91377238D01*
X81393143Y-91282000D01*
X81488381Y-91234381D01*
X81678858Y-91234381D01*
X81774096Y-91282000D01*
X81869334Y-91377238D01*
X81916953Y-91567714D01*
X81916953Y-91901048D01*
X81869334Y-92091524D01*
X81774096Y-92186762D01*
X81678858Y-92234381D01*
X81488381Y-92234381D01*
X82869334Y-92234381D02*
X82297905Y-92234381D01*
X82583619Y-92234381D02*
X82583619Y-91234381D01*
X82488381Y-91377238D01*
X82393143Y-91472476D01*
X82297905Y-91520095D01*
X83488381Y-91234381D02*
X83583620Y-91234381D01*
X83678858Y-91282000D01*
X83726477Y-91329619D01*
X83774096Y-91424857D01*
X83821715Y-91615333D01*
X83821715Y-91853429D01*
X83774096Y-92043905D01*
X83726477Y-92139143D01*
X83678858Y-92186762D01*
X83583620Y-92234381D01*
X83488381Y-92234381D01*
X83393143Y-92186762D01*
X83345524Y-92139143D01*
X83297905Y-92043905D01*
X83250286Y-91853429D01*
X83250286Y-91615333D01*
X83297905Y-91424857D01*
X83345524Y-91329619D01*
X83393143Y-91282000D01*
X83488381Y-91234381D01*
X81964572Y-110363619D02*
X81869334Y-110316000D01*
X81774096Y-110220762D01*
X81631239Y-110077905D01*
X81536000Y-110030286D01*
X81440762Y-110030286D01*
X81488381Y-110268381D02*
X81393143Y-110220762D01*
X81297905Y-110125524D01*
X81250286Y-109935048D01*
X81250286Y-109601714D01*
X81297905Y-109411238D01*
X81393143Y-109316000D01*
X81488381Y-109268381D01*
X81678858Y-109268381D01*
X81774096Y-109316000D01*
X81869334Y-109411238D01*
X81916953Y-109601714D01*
X81916953Y-109935048D01*
X81869334Y-110125524D01*
X81774096Y-110220762D01*
X81678858Y-110268381D01*
X81488381Y-110268381D01*
X82869334Y-110268381D02*
X82297905Y-110268381D01*
X82583619Y-110268381D02*
X82583619Y-109268381D01*
X82488381Y-109411238D01*
X82393143Y-109506476D01*
X82297905Y-109554095D01*
X83250286Y-109363619D02*
X83297905Y-109316000D01*
X83393143Y-109268381D01*
X83631239Y-109268381D01*
X83726477Y-109316000D01*
X83774096Y-109363619D01*
X83821715Y-109458857D01*
X83821715Y-109554095D01*
X83774096Y-109696952D01*
X83202667Y-110268381D01*
X83821715Y-110268381D01*
X54307619Y-64057428D02*
X54260000Y-64152666D01*
X54164762Y-64247904D01*
X54021905Y-64390761D01*
X53974286Y-64486000D01*
X53974286Y-64581238D01*
X54212381Y-64533619D02*
X54164762Y-64628857D01*
X54069524Y-64724095D01*
X53879048Y-64771714D01*
X53545714Y-64771714D01*
X53355238Y-64724095D01*
X53260000Y-64628857D01*
X53212381Y-64533619D01*
X53212381Y-64343142D01*
X53260000Y-64247904D01*
X53355238Y-64152666D01*
X53545714Y-64105047D01*
X53879048Y-64105047D01*
X54069524Y-64152666D01*
X54164762Y-64247904D01*
X54212381Y-64343142D01*
X54212381Y-64533619D01*
X54212381Y-63152666D02*
X54212381Y-63724095D01*
X54212381Y-63438381D02*
X53212381Y-63438381D01*
X53355238Y-63533619D01*
X53450476Y-63628857D01*
X53498095Y-63724095D01*
X53212381Y-62819333D02*
X53212381Y-62200285D01*
X53593333Y-62533619D01*
X53593333Y-62390761D01*
X53640952Y-62295523D01*
X53688571Y-62247904D01*
X53783810Y-62200285D01*
X54021905Y-62200285D01*
X54117143Y-62247904D01*
X54164762Y-62295523D01*
X54212381Y-62390761D01*
X54212381Y-62676476D01*
X54164762Y-62771714D01*
X54117143Y-62819333D01*
X42877619Y-64057428D02*
X42830000Y-64152666D01*
X42734762Y-64247904D01*
X42591905Y-64390761D01*
X42544286Y-64486000D01*
X42544286Y-64581238D01*
X42782381Y-64533619D02*
X42734762Y-64628857D01*
X42639524Y-64724095D01*
X42449048Y-64771714D01*
X42115714Y-64771714D01*
X41925238Y-64724095D01*
X41830000Y-64628857D01*
X41782381Y-64533619D01*
X41782381Y-64343142D01*
X41830000Y-64247904D01*
X41925238Y-64152666D01*
X42115714Y-64105047D01*
X42449048Y-64105047D01*
X42639524Y-64152666D01*
X42734762Y-64247904D01*
X42782381Y-64343142D01*
X42782381Y-64533619D01*
X42782381Y-63152666D02*
X42782381Y-63724095D01*
X42782381Y-63438381D02*
X41782381Y-63438381D01*
X41925238Y-63533619D01*
X42020476Y-63628857D01*
X42068095Y-63724095D01*
X42115714Y-62295523D02*
X42782381Y-62295523D01*
X41734762Y-62533619D02*
X42449048Y-62771714D01*
X42449048Y-62152666D01*
X37289619Y-64057428D02*
X37242000Y-64152666D01*
X37146762Y-64247904D01*
X37003905Y-64390761D01*
X36956286Y-64486000D01*
X36956286Y-64581238D01*
X37194381Y-64533619D02*
X37146762Y-64628857D01*
X37051524Y-64724095D01*
X36861048Y-64771714D01*
X36527714Y-64771714D01*
X36337238Y-64724095D01*
X36242000Y-64628857D01*
X36194381Y-64533619D01*
X36194381Y-64343142D01*
X36242000Y-64247904D01*
X36337238Y-64152666D01*
X36527714Y-64105047D01*
X36861048Y-64105047D01*
X37051524Y-64152666D01*
X37146762Y-64247904D01*
X37194381Y-64343142D01*
X37194381Y-64533619D01*
X37194381Y-63152666D02*
X37194381Y-63724095D01*
X37194381Y-63438381D02*
X36194381Y-63438381D01*
X36337238Y-63533619D01*
X36432476Y-63628857D01*
X36480095Y-63724095D01*
X36194381Y-62247904D02*
X36194381Y-62724095D01*
X36670571Y-62771714D01*
X36622952Y-62724095D01*
X36575333Y-62628857D01*
X36575333Y-62390761D01*
X36622952Y-62295523D01*
X36670571Y-62247904D01*
X36765810Y-62200285D01*
X37003905Y-62200285D01*
X37099143Y-62247904D01*
X37146762Y-62295523D01*
X37194381Y-62390761D01*
X37194381Y-62628857D01*
X37146762Y-62724095D01*
X37099143Y-62771714D01*
X25859619Y-64057428D02*
X25812000Y-64152666D01*
X25716762Y-64247904D01*
X25573905Y-64390761D01*
X25526286Y-64486000D01*
X25526286Y-64581238D01*
X25764381Y-64533619D02*
X25716762Y-64628857D01*
X25621524Y-64724095D01*
X25431048Y-64771714D01*
X25097714Y-64771714D01*
X24907238Y-64724095D01*
X24812000Y-64628857D01*
X24764381Y-64533619D01*
X24764381Y-64343142D01*
X24812000Y-64247904D01*
X24907238Y-64152666D01*
X25097714Y-64105047D01*
X25431048Y-64105047D01*
X25621524Y-64152666D01*
X25716762Y-64247904D01*
X25764381Y-64343142D01*
X25764381Y-64533619D01*
X25764381Y-63152666D02*
X25764381Y-63724095D01*
X25764381Y-63438381D02*
X24764381Y-63438381D01*
X24907238Y-63533619D01*
X25002476Y-63628857D01*
X25050095Y-63724095D01*
X24764381Y-62295523D02*
X24764381Y-62486000D01*
X24812000Y-62581238D01*
X24859619Y-62628857D01*
X25002476Y-62724095D01*
X25192952Y-62771714D01*
X25573905Y-62771714D01*
X25669143Y-62724095D01*
X25716762Y-62676476D01*
X25764381Y-62581238D01*
X25764381Y-62390761D01*
X25716762Y-62295523D01*
X25669143Y-62247904D01*
X25573905Y-62200285D01*
X25335810Y-62200285D01*
X25240571Y-62247904D01*
X25192952Y-62295523D01*
X25145333Y-62390761D01*
X25145333Y-62581238D01*
X25192952Y-62676476D01*
X25240571Y-62724095D01*
X25335810Y-62771714D01*
X81964572Y-117475619D02*
X81869334Y-117428000D01*
X81774096Y-117332762D01*
X81631239Y-117189905D01*
X81536000Y-117142286D01*
X81440762Y-117142286D01*
X81488381Y-117380381D02*
X81393143Y-117332762D01*
X81297905Y-117237524D01*
X81250286Y-117047048D01*
X81250286Y-116713714D01*
X81297905Y-116523238D01*
X81393143Y-116428000D01*
X81488381Y-116380381D01*
X81678858Y-116380381D01*
X81774096Y-116428000D01*
X81869334Y-116523238D01*
X81916953Y-116713714D01*
X81916953Y-117047048D01*
X81869334Y-117237524D01*
X81774096Y-117332762D01*
X81678858Y-117380381D01*
X81488381Y-117380381D01*
X82869334Y-117380381D02*
X82297905Y-117380381D01*
X82583619Y-117380381D02*
X82583619Y-116380381D01*
X82488381Y-116523238D01*
X82393143Y-116618476D01*
X82297905Y-116666095D01*
X83440762Y-116808952D02*
X83345524Y-116761333D01*
X83297905Y-116713714D01*
X83250286Y-116618476D01*
X83250286Y-116570857D01*
X83297905Y-116475619D01*
X83345524Y-116428000D01*
X83440762Y-116380381D01*
X83631239Y-116380381D01*
X83726477Y-116428000D01*
X83774096Y-116475619D01*
X83821715Y-116570857D01*
X83821715Y-116618476D01*
X83774096Y-116713714D01*
X83726477Y-116761333D01*
X83631239Y-116808952D01*
X83440762Y-116808952D01*
X83345524Y-116856571D01*
X83297905Y-116904190D01*
X83250286Y-116999429D01*
X83250286Y-117189905D01*
X83297905Y-117285143D01*
X83345524Y-117332762D01*
X83440762Y-117380381D01*
X83631239Y-117380381D01*
X83726477Y-117332762D01*
X83774096Y-117285143D01*
X83821715Y-117189905D01*
X83821715Y-116999429D01*
X83774096Y-116904190D01*
X83726477Y-116856571D01*
X83631239Y-116808952D01*
X62764381Y-66714666D02*
X62288190Y-67048000D01*
X62764381Y-67286095D02*
X61764381Y-67286095D01*
X61764381Y-66905142D01*
X61812000Y-66809904D01*
X61859619Y-66762285D01*
X61954857Y-66714666D01*
X62097714Y-66714666D01*
X62192952Y-66762285D01*
X62240571Y-66809904D01*
X62288190Y-66905142D01*
X62288190Y-67286095D01*
X62764381Y-65762285D02*
X62764381Y-66333714D01*
X62764381Y-66048000D02*
X61764381Y-66048000D01*
X61907238Y-66143238D01*
X62002476Y-66238476D01*
X62050095Y-66333714D01*
X62092381Y-69762666D02*
X61616190Y-70096000D01*
X62092381Y-70334095D02*
X61092381Y-70334095D01*
X61092381Y-69953142D01*
X61140000Y-69857904D01*
X61187619Y-69810285D01*
X61282857Y-69762666D01*
X61425714Y-69762666D01*
X61520952Y-69810285D01*
X61568571Y-69857904D01*
X61616190Y-69953142D01*
X61616190Y-70334095D01*
X61187619Y-69381714D02*
X61140000Y-69334095D01*
X61092381Y-69238857D01*
X61092381Y-69000761D01*
X61140000Y-68905523D01*
X61187619Y-68857904D01*
X61282857Y-68810285D01*
X61378095Y-68810285D01*
X61520952Y-68857904D01*
X62092381Y-69429333D01*
X62092381Y-68810285D01*
X83907334Y-64796381D02*
X83574000Y-64320190D01*
X83335905Y-64796381D02*
X83335905Y-63796381D01*
X83716858Y-63796381D01*
X83812096Y-63844000D01*
X83859715Y-63891619D01*
X83907334Y-63986857D01*
X83907334Y-64129714D01*
X83859715Y-64224952D01*
X83812096Y-64272571D01*
X83716858Y-64320190D01*
X83335905Y-64320190D01*
X84240667Y-63796381D02*
X84859715Y-63796381D01*
X84526381Y-64177333D01*
X84669239Y-64177333D01*
X84764477Y-64224952D01*
X84812096Y-64272571D01*
X84859715Y-64367810D01*
X84859715Y-64605905D01*
X84812096Y-64701143D01*
X84764477Y-64748762D01*
X84669239Y-64796381D01*
X84383524Y-64796381D01*
X84288286Y-64748762D01*
X84240667Y-64701143D01*
X80859334Y-58028381D02*
X80526000Y-57552190D01*
X80287905Y-58028381D02*
X80287905Y-57028381D01*
X80668858Y-57028381D01*
X80764096Y-57076000D01*
X80811715Y-57123619D01*
X80859334Y-57218857D01*
X80859334Y-57361714D01*
X80811715Y-57456952D01*
X80764096Y-57504571D01*
X80668858Y-57552190D01*
X80287905Y-57552190D01*
X81716477Y-57361714D02*
X81716477Y-58028381D01*
X81478381Y-56980762D02*
X81240286Y-57695048D01*
X81859334Y-57695048D01*
X87209334Y-72588381D02*
X86876000Y-72112190D01*
X86637905Y-72588381D02*
X86637905Y-71588381D01*
X87018858Y-71588381D01*
X87114096Y-71636000D01*
X87161715Y-71683619D01*
X87209334Y-71778857D01*
X87209334Y-71921714D01*
X87161715Y-72016952D01*
X87114096Y-72064571D01*
X87018858Y-72112190D01*
X86637905Y-72112190D01*
X88114096Y-71588381D02*
X87637905Y-71588381D01*
X87590286Y-72064571D01*
X87637905Y-72016952D01*
X87733143Y-71969333D01*
X87971239Y-71969333D01*
X88066477Y-72016952D01*
X88114096Y-72064571D01*
X88161715Y-72159810D01*
X88161715Y-72397905D01*
X88114096Y-72493143D01*
X88066477Y-72540762D01*
X87971239Y-72588381D01*
X87733143Y-72588381D01*
X87637905Y-72540762D01*
X87590286Y-72493143D01*
X80859334Y-69966381D02*
X80526000Y-69490190D01*
X80287905Y-69966381D02*
X80287905Y-68966381D01*
X80668858Y-68966381D01*
X80764096Y-69014000D01*
X80811715Y-69061619D01*
X80859334Y-69156857D01*
X80859334Y-69299714D01*
X80811715Y-69394952D01*
X80764096Y-69442571D01*
X80668858Y-69490190D01*
X80287905Y-69490190D01*
X81716477Y-68966381D02*
X81526000Y-68966381D01*
X81430762Y-69014000D01*
X81383143Y-69061619D01*
X81287905Y-69204476D01*
X81240286Y-69394952D01*
X81240286Y-69775905D01*
X81287905Y-69871143D01*
X81335524Y-69918762D01*
X81430762Y-69966381D01*
X81621239Y-69966381D01*
X81716477Y-69918762D01*
X81764096Y-69871143D01*
X81811715Y-69775905D01*
X81811715Y-69537810D01*
X81764096Y-69442571D01*
X81716477Y-69394952D01*
X81621239Y-69347333D01*
X81430762Y-69347333D01*
X81335524Y-69394952D01*
X81287905Y-69442571D01*
X81240286Y-69537810D01*
X85177334Y-87910381D02*
X84844000Y-87434190D01*
X84605905Y-87910381D02*
X84605905Y-86910381D01*
X84986858Y-86910381D01*
X85082096Y-86958000D01*
X85129715Y-87005619D01*
X85177334Y-87100857D01*
X85177334Y-87243714D01*
X85129715Y-87338952D01*
X85082096Y-87386571D01*
X84986858Y-87434190D01*
X84605905Y-87434190D01*
X85510667Y-86910381D02*
X86177334Y-86910381D01*
X85748762Y-87910381D01*
X80859334Y-81650381D02*
X80526000Y-81174190D01*
X80287905Y-81650381D02*
X80287905Y-80650381D01*
X80668858Y-80650381D01*
X80764096Y-80698000D01*
X80811715Y-80745619D01*
X80859334Y-80840857D01*
X80859334Y-80983714D01*
X80811715Y-81078952D01*
X80764096Y-81126571D01*
X80668858Y-81174190D01*
X80287905Y-81174190D01*
X81430762Y-81078952D02*
X81335524Y-81031333D01*
X81287905Y-80983714D01*
X81240286Y-80888476D01*
X81240286Y-80840857D01*
X81287905Y-80745619D01*
X81335524Y-80698000D01*
X81430762Y-80650381D01*
X81621239Y-80650381D01*
X81716477Y-80698000D01*
X81764096Y-80745619D01*
X81811715Y-80840857D01*
X81811715Y-80888476D01*
X81764096Y-80983714D01*
X81716477Y-81031333D01*
X81621239Y-81078952D01*
X81430762Y-81078952D01*
X81335524Y-81126571D01*
X81287905Y-81174190D01*
X81240286Y-81269429D01*
X81240286Y-81459905D01*
X81287905Y-81555143D01*
X81335524Y-81602762D01*
X81430762Y-81650381D01*
X81621239Y-81650381D01*
X81716477Y-81602762D01*
X81764096Y-81555143D01*
X81811715Y-81459905D01*
X81811715Y-81269429D01*
X81764096Y-81174190D01*
X81716477Y-81126571D01*
X81621239Y-81078952D01*
X85177334Y-98324381D02*
X84844000Y-97848190D01*
X84605905Y-98324381D02*
X84605905Y-97324381D01*
X84986858Y-97324381D01*
X85082096Y-97372000D01*
X85129715Y-97419619D01*
X85177334Y-97514857D01*
X85177334Y-97657714D01*
X85129715Y-97752952D01*
X85082096Y-97800571D01*
X84986858Y-97848190D01*
X84605905Y-97848190D01*
X85653524Y-98324381D02*
X85844000Y-98324381D01*
X85939239Y-98276762D01*
X85986858Y-98229143D01*
X86082096Y-98086286D01*
X86129715Y-97895810D01*
X86129715Y-97514857D01*
X86082096Y-97419619D01*
X86034477Y-97372000D01*
X85939239Y-97324381D01*
X85748762Y-97324381D01*
X85653524Y-97372000D01*
X85605905Y-97419619D01*
X85558286Y-97514857D01*
X85558286Y-97752952D01*
X85605905Y-97848190D01*
X85653524Y-97895810D01*
X85748762Y-97943429D01*
X85939239Y-97943429D01*
X86034477Y-97895810D01*
X86082096Y-97848190D01*
X86129715Y-97752952D01*
X80383143Y-91556381D02*
X80049809Y-91080190D01*
X79811714Y-91556381D02*
X79811714Y-90556381D01*
X80192667Y-90556381D01*
X80287905Y-90604000D01*
X80335524Y-90651619D01*
X80383143Y-90746857D01*
X80383143Y-90889714D01*
X80335524Y-90984952D01*
X80287905Y-91032571D01*
X80192667Y-91080190D01*
X79811714Y-91080190D01*
X81335524Y-91556381D02*
X80764095Y-91556381D01*
X81049809Y-91556381D02*
X81049809Y-90556381D01*
X80954571Y-90699238D01*
X80859333Y-90794476D01*
X80764095Y-90842095D01*
X81954571Y-90556381D02*
X82049810Y-90556381D01*
X82145048Y-90604000D01*
X82192667Y-90651619D01*
X82240286Y-90746857D01*
X82287905Y-90937333D01*
X82287905Y-91175429D01*
X82240286Y-91365905D01*
X82192667Y-91461143D01*
X82145048Y-91508762D01*
X82049810Y-91556381D01*
X81954571Y-91556381D01*
X81859333Y-91508762D01*
X81811714Y-91461143D01*
X81764095Y-91365905D01*
X81716476Y-91175429D01*
X81716476Y-90937333D01*
X81764095Y-90746857D01*
X81811714Y-90651619D01*
X81859333Y-90604000D01*
X81954571Y-90556381D01*
X80383143Y-102224381D02*
X80049809Y-101748190D01*
X79811714Y-102224381D02*
X79811714Y-101224381D01*
X80192667Y-101224381D01*
X80287905Y-101272000D01*
X80335524Y-101319619D01*
X80383143Y-101414857D01*
X80383143Y-101557714D01*
X80335524Y-101652952D01*
X80287905Y-101700571D01*
X80192667Y-101748190D01*
X79811714Y-101748190D01*
X81335524Y-102224381D02*
X80764095Y-102224381D01*
X81049809Y-102224381D02*
X81049809Y-101224381D01*
X80954571Y-101367238D01*
X80859333Y-101462476D01*
X80764095Y-101510095D01*
X81716476Y-101319619D02*
X81764095Y-101272000D01*
X81859333Y-101224381D01*
X82097429Y-101224381D01*
X82192667Y-101272000D01*
X82240286Y-101319619D01*
X82287905Y-101414857D01*
X82287905Y-101510095D01*
X82240286Y-101652952D01*
X81668857Y-102224381D01*
X82287905Y-102224381D01*
X50662381Y-62618857D02*
X50186190Y-62952191D01*
X50662381Y-63190286D02*
X49662381Y-63190286D01*
X49662381Y-62809333D01*
X49710000Y-62714095D01*
X49757619Y-62666476D01*
X49852857Y-62618857D01*
X49995714Y-62618857D01*
X50090952Y-62666476D01*
X50138571Y-62714095D01*
X50186190Y-62809333D01*
X50186190Y-63190286D01*
X50662381Y-61666476D02*
X50662381Y-62237905D01*
X50662381Y-61952191D02*
X49662381Y-61952191D01*
X49805238Y-62047429D01*
X49900476Y-62142667D01*
X49948095Y-62237905D01*
X49662381Y-61333143D02*
X49662381Y-60714095D01*
X50043333Y-61047429D01*
X50043333Y-60904571D01*
X50090952Y-60809333D01*
X50138571Y-60761714D01*
X50233810Y-60714095D01*
X50471905Y-60714095D01*
X50567143Y-60761714D01*
X50614762Y-60809333D01*
X50662381Y-60904571D01*
X50662381Y-61190286D01*
X50614762Y-61285524D01*
X50567143Y-61333143D01*
X46852381Y-62618857D02*
X46376190Y-62952191D01*
X46852381Y-63190286D02*
X45852381Y-63190286D01*
X45852381Y-62809333D01*
X45900000Y-62714095D01*
X45947619Y-62666476D01*
X46042857Y-62618857D01*
X46185714Y-62618857D01*
X46280952Y-62666476D01*
X46328571Y-62714095D01*
X46376190Y-62809333D01*
X46376190Y-63190286D01*
X46852381Y-61666476D02*
X46852381Y-62237905D01*
X46852381Y-61952191D02*
X45852381Y-61952191D01*
X45995238Y-62047429D01*
X46090476Y-62142667D01*
X46138095Y-62237905D01*
X46185714Y-60809333D02*
X46852381Y-60809333D01*
X45804762Y-61047429D02*
X46519048Y-61285524D01*
X46519048Y-60666476D01*
X33644381Y-62618857D02*
X33168190Y-62952191D01*
X33644381Y-63190286D02*
X32644381Y-63190286D01*
X32644381Y-62809333D01*
X32692000Y-62714095D01*
X32739619Y-62666476D01*
X32834857Y-62618857D01*
X32977714Y-62618857D01*
X33072952Y-62666476D01*
X33120571Y-62714095D01*
X33168190Y-62809333D01*
X33168190Y-63190286D01*
X33644381Y-61666476D02*
X33644381Y-62237905D01*
X33644381Y-61952191D02*
X32644381Y-61952191D01*
X32787238Y-62047429D01*
X32882476Y-62142667D01*
X32930095Y-62237905D01*
X32644381Y-60761714D02*
X32644381Y-61237905D01*
X33120571Y-61285524D01*
X33072952Y-61237905D01*
X33025333Y-61142667D01*
X33025333Y-60904571D01*
X33072952Y-60809333D01*
X33120571Y-60761714D01*
X33215810Y-60714095D01*
X33453905Y-60714095D01*
X33549143Y-60761714D01*
X33596762Y-60809333D01*
X33644381Y-60904571D01*
X33644381Y-61142667D01*
X33596762Y-61237905D01*
X33549143Y-61285524D01*
X29834381Y-62618857D02*
X29358190Y-62952191D01*
X29834381Y-63190286D02*
X28834381Y-63190286D01*
X28834381Y-62809333D01*
X28882000Y-62714095D01*
X28929619Y-62666476D01*
X29024857Y-62618857D01*
X29167714Y-62618857D01*
X29262952Y-62666476D01*
X29310571Y-62714095D01*
X29358190Y-62809333D01*
X29358190Y-63190286D01*
X29834381Y-61666476D02*
X29834381Y-62237905D01*
X29834381Y-61952191D02*
X28834381Y-61952191D01*
X28977238Y-62047429D01*
X29072476Y-62142667D01*
X29120095Y-62237905D01*
X28834381Y-60809333D02*
X28834381Y-60999810D01*
X28882000Y-61095048D01*
X28929619Y-61142667D01*
X29072476Y-61237905D01*
X29262952Y-61285524D01*
X29643905Y-61285524D01*
X29739143Y-61237905D01*
X29786762Y-61190286D01*
X29834381Y-61095048D01*
X29834381Y-60904571D01*
X29786762Y-60809333D01*
X29739143Y-60761714D01*
X29643905Y-60714095D01*
X29405810Y-60714095D01*
X29310571Y-60761714D01*
X29262952Y-60809333D01*
X29215333Y-60904571D01*
X29215333Y-61095048D01*
X29262952Y-61190286D01*
X29310571Y-61237905D01*
X29405810Y-61285524D01*
X84701143Y-120422381D02*
X84367809Y-119946190D01*
X84129714Y-120422381D02*
X84129714Y-119422381D01*
X84510667Y-119422381D01*
X84605905Y-119470000D01*
X84653524Y-119517619D01*
X84701143Y-119612857D01*
X84701143Y-119755714D01*
X84653524Y-119850952D01*
X84605905Y-119898571D01*
X84510667Y-119946190D01*
X84129714Y-119946190D01*
X85653524Y-120422381D02*
X85082095Y-120422381D01*
X85367809Y-120422381D02*
X85367809Y-119422381D01*
X85272571Y-119565238D01*
X85177333Y-119660476D01*
X85082095Y-119708095D01*
X85986857Y-119422381D02*
X86653524Y-119422381D01*
X86224952Y-120422381D01*
X80383143Y-119242381D02*
X80049809Y-118766190D01*
X79811714Y-119242381D02*
X79811714Y-118242381D01*
X80192667Y-118242381D01*
X80287905Y-118290000D01*
X80335524Y-118337619D01*
X80383143Y-118432857D01*
X80383143Y-118575714D01*
X80335524Y-118670952D01*
X80287905Y-118718571D01*
X80192667Y-118766190D01*
X79811714Y-118766190D01*
X81335524Y-119242381D02*
X80764095Y-119242381D01*
X81049809Y-119242381D02*
X81049809Y-118242381D01*
X80954571Y-118385238D01*
X80859333Y-118480476D01*
X80764095Y-118528095D01*
X81906952Y-118670952D02*
X81811714Y-118623333D01*
X81764095Y-118575714D01*
X81716476Y-118480476D01*
X81716476Y-118432857D01*
X81764095Y-118337619D01*
X81811714Y-118290000D01*
X81906952Y-118242381D01*
X82097429Y-118242381D01*
X82192667Y-118290000D01*
X82240286Y-118337619D01*
X82287905Y-118432857D01*
X82287905Y-118480476D01*
X82240286Y-118575714D01*
X82192667Y-118623333D01*
X82097429Y-118670952D01*
X81906952Y-118670952D01*
X81811714Y-118718571D01*
X81764095Y-118766190D01*
X81716476Y-118861429D01*
X81716476Y-119051905D01*
X81764095Y-119147143D01*
X81811714Y-119194762D01*
X81906952Y-119242381D01*
X82097429Y-119242381D01*
X82192667Y-119194762D01*
X82240286Y-119147143D01*
X82287905Y-119051905D01*
X82287905Y-118861429D01*
X82240286Y-118766190D01*
X82192667Y-118718571D01*
X82097429Y-118670952D01*
X66040095Y-75100381D02*
X66040095Y-75909905D01*
X66087714Y-76005143D01*
X66135333Y-76052762D01*
X66230571Y-76100381D01*
X66421048Y-76100381D01*
X66516286Y-76052762D01*
X66563905Y-76005143D01*
X66611524Y-75909905D01*
X66611524Y-75100381D01*
X67611524Y-76100381D02*
X67040095Y-76100381D01*
X67325809Y-76100381D02*
X67325809Y-75100381D01*
X67230571Y-75243238D01*
X67135333Y-75338476D01*
X67040095Y-75386095D01*
X63789619Y-61563238D02*
X63742000Y-61658476D01*
X63646762Y-61753714D01*
X63503905Y-61896571D01*
X63456286Y-61991810D01*
X63456286Y-62087048D01*
X63694381Y-62039429D02*
X63646762Y-62134667D01*
X63551524Y-62229905D01*
X63361048Y-62277524D01*
X63027714Y-62277524D01*
X62837238Y-62229905D01*
X62742000Y-62134667D01*
X62694381Y-62039429D01*
X62694381Y-61848952D01*
X62742000Y-61753714D01*
X62837238Y-61658476D01*
X63027714Y-61610857D01*
X63361048Y-61610857D01*
X63551524Y-61658476D01*
X63646762Y-61753714D01*
X63694381Y-61848952D01*
X63694381Y-62039429D01*
X63694381Y-60658476D02*
X63694381Y-61229905D01*
X63694381Y-60944191D02*
X62694381Y-60944191D01*
X62837238Y-61039429D01*
X62932476Y-61134667D01*
X62980095Y-61229905D01*
X89058762Y-54645619D02*
X88963524Y-54598000D01*
X88868286Y-54502762D01*
X88725429Y-54359905D01*
X88630190Y-54312286D01*
X88534952Y-54312286D01*
X88582571Y-54550381D02*
X88487333Y-54502762D01*
X88392095Y-54407524D01*
X88344476Y-54217048D01*
X88344476Y-53883714D01*
X88392095Y-53693238D01*
X88487333Y-53598000D01*
X88582571Y-53550381D01*
X88773048Y-53550381D01*
X88868286Y-53598000D01*
X88963524Y-53693238D01*
X89011143Y-53883714D01*
X89011143Y-54217048D01*
X88963524Y-54407524D01*
X88868286Y-54502762D01*
X88773048Y-54550381D01*
X88582571Y-54550381D01*
X89344476Y-53550381D02*
X89963524Y-53550381D01*
X89630190Y-53931333D01*
X89773048Y-53931333D01*
X89868286Y-53978952D01*
X89915905Y-54026571D01*
X89963524Y-54121810D01*
X89963524Y-54359905D01*
X89915905Y-54455143D01*
X89868286Y-54502762D01*
X89773048Y-54550381D01*
X89487333Y-54550381D01*
X89392095Y-54502762D01*
X89344476Y-54455143D01*
X92614762Y-67603619D02*
X92519524Y-67556000D01*
X92424286Y-67460762D01*
X92281429Y-67317905D01*
X92186190Y-67270286D01*
X92090952Y-67270286D01*
X92138571Y-67508381D02*
X92043333Y-67460762D01*
X91948095Y-67365524D01*
X91900476Y-67175048D01*
X91900476Y-66841714D01*
X91948095Y-66651238D01*
X92043333Y-66556000D01*
X92138571Y-66508381D01*
X92329048Y-66508381D01*
X92424286Y-66556000D01*
X92519524Y-66651238D01*
X92567143Y-66841714D01*
X92567143Y-67175048D01*
X92519524Y-67365524D01*
X92424286Y-67460762D01*
X92329048Y-67508381D01*
X92138571Y-67508381D01*
X93471905Y-66508381D02*
X92995714Y-66508381D01*
X92948095Y-66984571D01*
X92995714Y-66936952D01*
X93090952Y-66889333D01*
X93329048Y-66889333D01*
X93424286Y-66936952D01*
X93471905Y-66984571D01*
X93519524Y-67079810D01*
X93519524Y-67317905D01*
X93471905Y-67413143D01*
X93424286Y-67460762D01*
X93329048Y-67508381D01*
X93090952Y-67508381D01*
X92995714Y-67460762D01*
X92948095Y-67413143D01*
X89058762Y-77759619D02*
X88963524Y-77712000D01*
X88868286Y-77616762D01*
X88725429Y-77473905D01*
X88630190Y-77426286D01*
X88534952Y-77426286D01*
X88582571Y-77664381D02*
X88487333Y-77616762D01*
X88392095Y-77521524D01*
X88344476Y-77331048D01*
X88344476Y-76997714D01*
X88392095Y-76807238D01*
X88487333Y-76712000D01*
X88582571Y-76664381D01*
X88773048Y-76664381D01*
X88868286Y-76712000D01*
X88963524Y-76807238D01*
X89011143Y-76997714D01*
X89011143Y-77331048D01*
X88963524Y-77521524D01*
X88868286Y-77616762D01*
X88773048Y-77664381D01*
X88582571Y-77664381D01*
X89344476Y-76664381D02*
X90011143Y-76664381D01*
X89582571Y-77664381D01*
X89058762Y-87665619D02*
X88963524Y-87618000D01*
X88868286Y-87522762D01*
X88725429Y-87379905D01*
X88630190Y-87332286D01*
X88534952Y-87332286D01*
X88582571Y-87570381D02*
X88487333Y-87522762D01*
X88392095Y-87427524D01*
X88344476Y-87237048D01*
X88344476Y-86903714D01*
X88392095Y-86713238D01*
X88487333Y-86618000D01*
X88582571Y-86570381D01*
X88773048Y-86570381D01*
X88868286Y-86618000D01*
X88963524Y-86713238D01*
X89011143Y-86903714D01*
X89011143Y-87237048D01*
X88963524Y-87427524D01*
X88868286Y-87522762D01*
X88773048Y-87570381D01*
X88582571Y-87570381D01*
X89487333Y-87570381D02*
X89677809Y-87570381D01*
X89773048Y-87522762D01*
X89820667Y-87475143D01*
X89915905Y-87332286D01*
X89963524Y-87141810D01*
X89963524Y-86760857D01*
X89915905Y-86665619D01*
X89868286Y-86618000D01*
X89773048Y-86570381D01*
X89582571Y-86570381D01*
X89487333Y-86618000D01*
X89439714Y-86665619D01*
X89392095Y-86760857D01*
X89392095Y-86998952D01*
X89439714Y-87094190D01*
X89487333Y-87141810D01*
X89582571Y-87189429D01*
X89773048Y-87189429D01*
X89868286Y-87141810D01*
X89915905Y-87094190D01*
X89963524Y-86998952D01*
X88582572Y-102397619D02*
X88487334Y-102350000D01*
X88392096Y-102254762D01*
X88249239Y-102111905D01*
X88154000Y-102064286D01*
X88058762Y-102064286D01*
X88106381Y-102302381D02*
X88011143Y-102254762D01*
X87915905Y-102159524D01*
X87868286Y-101969048D01*
X87868286Y-101635714D01*
X87915905Y-101445238D01*
X88011143Y-101350000D01*
X88106381Y-101302381D01*
X88296858Y-101302381D01*
X88392096Y-101350000D01*
X88487334Y-101445238D01*
X88534953Y-101635714D01*
X88534953Y-101969048D01*
X88487334Y-102159524D01*
X88392096Y-102254762D01*
X88296858Y-102302381D01*
X88106381Y-102302381D01*
X89487334Y-102302381D02*
X88915905Y-102302381D01*
X89201619Y-102302381D02*
X89201619Y-101302381D01*
X89106381Y-101445238D01*
X89011143Y-101540476D01*
X88915905Y-101588095D01*
X90439715Y-102302381D02*
X89868286Y-102302381D01*
X90154000Y-102302381D02*
X90154000Y-101302381D01*
X90058762Y-101445238D01*
X89963524Y-101540476D01*
X89868286Y-101588095D01*
X88582572Y-119415619D02*
X88487334Y-119368000D01*
X88392096Y-119272762D01*
X88249239Y-119129905D01*
X88154000Y-119082286D01*
X88058762Y-119082286D01*
X88106381Y-119320381D02*
X88011143Y-119272762D01*
X87915905Y-119177524D01*
X87868286Y-118987048D01*
X87868286Y-118653714D01*
X87915905Y-118463238D01*
X88011143Y-118368000D01*
X88106381Y-118320381D01*
X88296858Y-118320381D01*
X88392096Y-118368000D01*
X88487334Y-118463238D01*
X88534953Y-118653714D01*
X88534953Y-118987048D01*
X88487334Y-119177524D01*
X88392096Y-119272762D01*
X88296858Y-119320381D01*
X88106381Y-119320381D01*
X89487334Y-119320381D02*
X88915905Y-119320381D01*
X89201619Y-119320381D02*
X89201619Y-118320381D01*
X89106381Y-118463238D01*
X89011143Y-118558476D01*
X88915905Y-118606095D01*
X89820667Y-118320381D02*
X90487334Y-118320381D01*
X90058762Y-119320381D01*
X56925143Y-96238666D02*
X56972762Y-96286285D01*
X57020381Y-96429142D01*
X57020381Y-96524380D01*
X56972762Y-96667238D01*
X56877524Y-96762476D01*
X56782286Y-96810095D01*
X56591810Y-96857714D01*
X56448952Y-96857714D01*
X56258476Y-96810095D01*
X56163238Y-96762476D01*
X56068000Y-96667238D01*
X56020381Y-96524380D01*
X56020381Y-96429142D01*
X56068000Y-96286285D01*
X56115619Y-96238666D01*
X56020381Y-95905333D02*
X56020381Y-95286285D01*
X56401333Y-95619619D01*
X56401333Y-95476761D01*
X56448952Y-95381523D01*
X56496571Y-95333904D01*
X56591810Y-95286285D01*
X56829905Y-95286285D01*
X56925143Y-95333904D01*
X56972762Y-95381523D01*
X57020381Y-95476761D01*
X57020381Y-95762476D01*
X56972762Y-95857714D01*
X56925143Y-95905333D01*
X49704667Y-57872381D02*
X49704667Y-58586667D01*
X49657047Y-58729524D01*
X49561809Y-58824762D01*
X49418952Y-58872381D01*
X49323714Y-58872381D01*
X50657048Y-57872381D02*
X50180857Y-57872381D01*
X50133238Y-58348571D01*
X50180857Y-58300952D01*
X50276095Y-58253333D01*
X50514191Y-58253333D01*
X50609429Y-58300952D01*
X50657048Y-58348571D01*
X50704667Y-58443810D01*
X50704667Y-58681905D01*
X50657048Y-58777143D01*
X50609429Y-58824762D01*
X50514191Y-58872381D01*
X50276095Y-58872381D01*
X50180857Y-58824762D01*
X50133238Y-58777143D01*
X32940667Y-57872381D02*
X32940667Y-58586667D01*
X32893047Y-58729524D01*
X32797809Y-58824762D01*
X32654952Y-58872381D01*
X32559714Y-58872381D01*
X33845429Y-57872381D02*
X33654952Y-57872381D01*
X33559714Y-57920000D01*
X33512095Y-57967619D01*
X33416857Y-58110476D01*
X33369238Y-58300952D01*
X33369238Y-58681905D01*
X33416857Y-58777143D01*
X33464476Y-58824762D01*
X33559714Y-58872381D01*
X33750191Y-58872381D01*
X33845429Y-58824762D01*
X33893048Y-58777143D01*
X33940667Y-58681905D01*
X33940667Y-58443810D01*
X33893048Y-58348571D01*
X33845429Y-58300952D01*
X33750191Y-58253333D01*
X33559714Y-58253333D01*
X33464476Y-58300952D01*
X33416857Y-58348571D01*
X33369238Y-58443810D01*
X59610667Y-113200381D02*
X59610667Y-113914667D01*
X59563047Y-114057524D01*
X59467809Y-114152762D01*
X59324952Y-114200381D01*
X59229714Y-114200381D01*
X59991619Y-113200381D02*
X60658286Y-113200381D01*
X60229714Y-114200381D01*
X33390381Y-112910857D02*
X32914190Y-113244191D01*
X33390381Y-113482286D02*
X32390381Y-113482286D01*
X32390381Y-113101333D01*
X32438000Y-113006095D01*
X32485619Y-112958476D01*
X32580857Y-112910857D01*
X32723714Y-112910857D01*
X32818952Y-112958476D01*
X32866571Y-113006095D01*
X32914190Y-113101333D01*
X32914190Y-113482286D01*
X33390381Y-111958476D02*
X33390381Y-112529905D01*
X33390381Y-112244191D02*
X32390381Y-112244191D01*
X32533238Y-112339429D01*
X32628476Y-112434667D01*
X32676095Y-112529905D01*
X33390381Y-111482286D02*
X33390381Y-111291810D01*
X33342762Y-111196571D01*
X33295143Y-111148952D01*
X33152286Y-111053714D01*
X32961810Y-111006095D01*
X32580857Y-111006095D01*
X32485619Y-111053714D01*
X32438000Y-111101333D01*
X32390381Y-111196571D01*
X32390381Y-111387048D01*
X32438000Y-111482286D01*
X32485619Y-111529905D01*
X32580857Y-111577524D01*
X32818952Y-111577524D01*
X32914190Y-111529905D01*
X32961810Y-111482286D01*
X33009429Y-111387048D01*
X33009429Y-111196571D01*
X32961810Y-111101333D01*
X32914190Y-111053714D01*
X32818952Y-111006095D01*
X30596381Y-110370857D02*
X30120190Y-110704191D01*
X30596381Y-110942286D02*
X29596381Y-110942286D01*
X29596381Y-110561333D01*
X29644000Y-110466095D01*
X29691619Y-110418476D01*
X29786857Y-110370857D01*
X29929714Y-110370857D01*
X30024952Y-110418476D01*
X30072571Y-110466095D01*
X30120190Y-110561333D01*
X30120190Y-110942286D01*
X29691619Y-109989905D02*
X29644000Y-109942286D01*
X29596381Y-109847048D01*
X29596381Y-109608952D01*
X29644000Y-109513714D01*
X29691619Y-109466095D01*
X29786857Y-109418476D01*
X29882095Y-109418476D01*
X30024952Y-109466095D01*
X30596381Y-110037524D01*
X30596381Y-109418476D01*
X29596381Y-108799429D02*
X29596381Y-108704190D01*
X29644000Y-108608952D01*
X29691619Y-108561333D01*
X29786857Y-108513714D01*
X29977333Y-108466095D01*
X30215429Y-108466095D01*
X30405905Y-108513714D01*
X30501143Y-108561333D01*
X30548762Y-108608952D01*
X30596381Y-108704190D01*
X30596381Y-108799429D01*
X30548762Y-108894667D01*
X30501143Y-108942286D01*
X30405905Y-108989905D01*
X30215429Y-109037524D01*
X29977333Y-109037524D01*
X29786857Y-108989905D01*
X29691619Y-108942286D01*
X29644000Y-108894667D01*
X29596381Y-108799429D01*
X66254381Y-121205523D02*
X66968667Y-121205523D01*
X67111524Y-121253143D01*
X67206762Y-121348381D01*
X67254381Y-121491238D01*
X67254381Y-121586476D01*
X67254381Y-120205523D02*
X67254381Y-120776952D01*
X67254381Y-120491238D02*
X66254381Y-120491238D01*
X66397238Y-120586476D01*
X66492476Y-120681714D01*
X66540095Y-120776952D01*
X66254381Y-119300761D02*
X66254381Y-119776952D01*
X66730571Y-119824571D01*
X66682952Y-119776952D01*
X66635333Y-119681714D01*
X66635333Y-119443618D01*
X66682952Y-119348380D01*
X66730571Y-119300761D01*
X66825810Y-119253142D01*
X67063905Y-119253142D01*
X67159143Y-119300761D01*
X67206762Y-119348380D01*
X67254381Y-119443618D01*
X67254381Y-119681714D01*
X67206762Y-119776952D01*
X67159143Y-119824571D01*
X58118477Y-112780381D02*
X58118477Y-113494667D01*
X58070857Y-113637524D01*
X57975619Y-113732762D01*
X57832762Y-113780381D01*
X57737524Y-113780381D01*
X59118477Y-113780381D02*
X58547048Y-113780381D01*
X58832762Y-113780381D02*
X58832762Y-112780381D01*
X58737524Y-112923238D01*
X58642286Y-113018476D01*
X58547048Y-113066095D01*
X59975620Y-112780381D02*
X59785143Y-112780381D01*
X59689905Y-112828000D01*
X59642286Y-112875619D01*
X59547048Y-113018476D01*
X59499429Y-113208952D01*
X59499429Y-113589905D01*
X59547048Y-113685143D01*
X59594667Y-113732762D01*
X59689905Y-113780381D01*
X59880382Y-113780381D01*
X59975620Y-113732762D01*
X60023239Y-113685143D01*
X60070858Y-113589905D01*
X60070858Y-113351810D01*
X60023239Y-113256571D01*
X59975620Y-113208952D01*
X59880382Y-113161333D01*
X59689905Y-113161333D01*
X59594667Y-113208952D01*
X59547048Y-113256571D01*
X59499429Y-113351810D01*
X64984381Y-55705333D02*
X65698667Y-55705333D01*
X65841524Y-55752953D01*
X65936762Y-55848191D01*
X65984381Y-55991048D01*
X65984381Y-56086286D01*
X65412952Y-55086286D02*
X65365333Y-55181524D01*
X65317714Y-55229143D01*
X65222476Y-55276762D01*
X65174857Y-55276762D01*
X65079619Y-55229143D01*
X65032000Y-55181524D01*
X64984381Y-55086286D01*
X64984381Y-54895809D01*
X65032000Y-54800571D01*
X65079619Y-54752952D01*
X65174857Y-54705333D01*
X65222476Y-54705333D01*
X65317714Y-54752952D01*
X65365333Y-54800571D01*
X65412952Y-54895809D01*
X65412952Y-55086286D01*
X65460571Y-55181524D01*
X65508190Y-55229143D01*
X65603429Y-55276762D01*
X65793905Y-55276762D01*
X65889143Y-55229143D01*
X65936762Y-55181524D01*
X65984381Y-55086286D01*
X65984381Y-54895809D01*
X65936762Y-54800571D01*
X65889143Y-54752952D01*
X65793905Y-54705333D01*
X65603429Y-54705333D01*
X65508190Y-54752952D01*
X65460571Y-54800571D01*
X65412952Y-54895809D01*
X76922381Y-48720333D02*
X77636667Y-48720333D01*
X77779524Y-48767953D01*
X77874762Y-48863191D01*
X77922381Y-49006048D01*
X77922381Y-49101286D01*
X77922381Y-48196524D02*
X77922381Y-48006048D01*
X77874762Y-47910809D01*
X77827143Y-47863190D01*
X77684286Y-47767952D01*
X77493810Y-47720333D01*
X77112857Y-47720333D01*
X77017619Y-47767952D01*
X76970000Y-47815571D01*
X76922381Y-47910809D01*
X76922381Y-48101286D01*
X76970000Y-48196524D01*
X77017619Y-48244143D01*
X77112857Y-48291762D01*
X77350952Y-48291762D01*
X77446190Y-48244143D01*
X77493810Y-48196524D01*
X77541429Y-48101286D01*
X77541429Y-47910809D01*
X77493810Y-47815571D01*
X77446190Y-47767952D01*
X77350952Y-47720333D01*
X87709477Y-69556381D02*
X87709477Y-70270667D01*
X87661857Y-70413524D01*
X87566619Y-70508762D01*
X87423762Y-70556381D01*
X87328524Y-70556381D01*
X88709477Y-70556381D02*
X88138048Y-70556381D01*
X88423762Y-70556381D02*
X88423762Y-69556381D01*
X88328524Y-69699238D01*
X88233286Y-69794476D01*
X88138048Y-69842095D01*
X89328524Y-69556381D02*
X89423763Y-69556381D01*
X89519001Y-69604000D01*
X89566620Y-69651619D01*
X89614239Y-69746857D01*
X89661858Y-69937333D01*
X89661858Y-70175429D01*
X89614239Y-70365905D01*
X89566620Y-70461143D01*
X89519001Y-70508762D01*
X89423763Y-70556381D01*
X89328524Y-70556381D01*
X89233286Y-70508762D01*
X89185667Y-70461143D01*
X89138048Y-70365905D01*
X89090429Y-70175429D01*
X89090429Y-69937333D01*
X89138048Y-69746857D01*
X89185667Y-69651619D01*
X89233286Y-69604000D01*
X89328524Y-69556381D01*
X87074477Y-70318381D02*
X87074477Y-71032667D01*
X87026857Y-71175524D01*
X86931619Y-71270762D01*
X86788762Y-71318381D01*
X86693524Y-71318381D01*
X88074477Y-71318381D02*
X87503048Y-71318381D01*
X87788762Y-71318381D02*
X87788762Y-70318381D01*
X87693524Y-70461238D01*
X87598286Y-70556476D01*
X87503048Y-70604095D01*
X89026858Y-71318381D02*
X88455429Y-71318381D01*
X88741143Y-71318381D02*
X88741143Y-70318381D01*
X88645905Y-70461238D01*
X88550667Y-70556476D01*
X88455429Y-70604095D01*
X86566477Y-92416381D02*
X86566477Y-93130667D01*
X86518857Y-93273524D01*
X86423619Y-93368762D01*
X86280762Y-93416381D01*
X86185524Y-93416381D01*
X87566477Y-93416381D02*
X86995048Y-93416381D01*
X87280762Y-93416381D02*
X87280762Y-92416381D01*
X87185524Y-92559238D01*
X87090286Y-92654476D01*
X86995048Y-92702095D01*
X87947429Y-92511619D02*
X87995048Y-92464000D01*
X88090286Y-92416381D01*
X88328382Y-92416381D01*
X88423620Y-92464000D01*
X88471239Y-92511619D01*
X88518858Y-92606857D01*
X88518858Y-92702095D01*
X88471239Y-92844952D01*
X87899810Y-93416381D01*
X88518858Y-93416381D01*
X88090477Y-105624381D02*
X88090477Y-106338667D01*
X88042857Y-106481524D01*
X87947619Y-106576762D01*
X87804762Y-106624381D01*
X87709524Y-106624381D01*
X89090477Y-106624381D02*
X88519048Y-106624381D01*
X88804762Y-106624381D02*
X88804762Y-105624381D01*
X88709524Y-105767238D01*
X88614286Y-105862476D01*
X88519048Y-105910095D01*
X89423810Y-105624381D02*
X90042858Y-105624381D01*
X89709524Y-106005333D01*
X89852382Y-106005333D01*
X89947620Y-106052952D01*
X89995239Y-106100571D01*
X90042858Y-106195810D01*
X90042858Y-106433905D01*
X89995239Y-106529143D01*
X89947620Y-106576762D01*
X89852382Y-106624381D01*
X89566667Y-106624381D01*
X89471429Y-106576762D01*
X89423810Y-106529143D01*
X76922381Y-127047523D02*
X77636667Y-127047523D01*
X77779524Y-127095143D01*
X77874762Y-127190381D01*
X77922381Y-127333238D01*
X77922381Y-127428476D01*
X77922381Y-126047523D02*
X77922381Y-126618952D01*
X77922381Y-126333238D02*
X76922381Y-126333238D01*
X77065238Y-126428476D01*
X77160476Y-126523714D01*
X77208095Y-126618952D01*
X77255714Y-125190380D02*
X77922381Y-125190380D01*
X76874762Y-125428476D02*
X77589048Y-125666571D01*
X77589048Y-125047523D01*
X72887381Y-111386857D02*
X72411190Y-111720191D01*
X72887381Y-111958286D02*
X71887381Y-111958286D01*
X71887381Y-111577333D01*
X71935000Y-111482095D01*
X71982619Y-111434476D01*
X72077857Y-111386857D01*
X72220714Y-111386857D01*
X72315952Y-111434476D01*
X72363571Y-111482095D01*
X72411190Y-111577333D01*
X72411190Y-111958286D01*
X71982619Y-111005905D02*
X71935000Y-110958286D01*
X71887381Y-110863048D01*
X71887381Y-110624952D01*
X71935000Y-110529714D01*
X71982619Y-110482095D01*
X72077857Y-110434476D01*
X72173095Y-110434476D01*
X72315952Y-110482095D01*
X72887381Y-111053524D01*
X72887381Y-110434476D01*
X72887381Y-109482095D02*
X72887381Y-110053524D01*
X72887381Y-109767810D02*
X71887381Y-109767810D01*
X72030238Y-109863048D01*
X72125476Y-109958286D01*
X72173095Y-110053524D01*
X61571143Y-121852666D02*
X61618762Y-121900285D01*
X61666381Y-122043142D01*
X61666381Y-122138380D01*
X61618762Y-122281238D01*
X61523524Y-122376476D01*
X61428286Y-122424095D01*
X61237810Y-122471714D01*
X61094952Y-122471714D01*
X60904476Y-122424095D01*
X60809238Y-122376476D01*
X60714000Y-122281238D01*
X60666381Y-122138380D01*
X60666381Y-122043142D01*
X60714000Y-121900285D01*
X60761619Y-121852666D01*
X61666381Y-120900285D02*
X61666381Y-121471714D01*
X61666381Y-121186000D02*
X60666381Y-121186000D01*
X60809238Y-121281238D01*
X60904476Y-121376476D01*
X60952095Y-121471714D01*
X69191143Y-115970666D02*
X69238762Y-116018285D01*
X69286381Y-116161142D01*
X69286381Y-116256380D01*
X69238762Y-116399238D01*
X69143524Y-116494476D01*
X69048286Y-116542095D01*
X68857810Y-116589714D01*
X68714952Y-116589714D01*
X68524476Y-116542095D01*
X68429238Y-116494476D01*
X68334000Y-116399238D01*
X68286381Y-116256380D01*
X68286381Y-116161142D01*
X68334000Y-116018285D01*
X68381619Y-115970666D01*
X68381619Y-115589714D02*
X68334000Y-115542095D01*
X68286381Y-115446857D01*
X68286381Y-115208761D01*
X68334000Y-115113523D01*
X68381619Y-115065904D01*
X68476857Y-115018285D01*
X68572095Y-115018285D01*
X68714952Y-115065904D01*
X69286381Y-115637333D01*
X69286381Y-115018285D01*
M02*
