<?xml version="1.0" standalone="no"?>
 <!DOCTYPE svg PUBLIC "-//W3C//DTD SVG 1.1//EN" 
 "http://www.w3.org/Graphics/SVG/1.1/DTD/svg11.dtd"> 
<svg xmlns="http://www.w3.org/2000/svg" version="1.1" 
    width="29.7002cm" height="21.0007cm" viewBox="0 0 116930 82680 ">
<title>SVG Picture created as led_segments-B.Cu.svg date 2019/01/16 01:28:48 </title>
  <desc>Picture generated by PCBNEW </desc>
<g style="fill:#000000; fill-opacity:1;stroke:#000000; stroke-opacity:1;
stroke-linecap:round; stroke-linejoin:round; "
 transform="translate(0 0) scale(1 1)">
</g>
<g style="fill:#000000; fill-opacity:0.0; 
stroke:#000000; stroke-width:-0.000393701; stroke-opacity:1; 
stroke-linecap:round; stroke-linejoin:round;">
</g>
<g style="fill:#000000; fill-opacity:0.0; 
stroke:#000000; stroke-width:472.441; stroke-opacity:1; 
stroke-linecap:round; stroke-linejoin:round;">
<path d="M87563 37500
L87996 37500
" />
<path d="M76563 43500
L76996 43500
" />
<path d="M76563 42500
L76996 42500
" />
<path d="M87563 40500
L87996 40500
" />
<path d="M87563 41500
L87996 41500
" />
</g>
<g style="fill:#000000; fill-opacity:0.0; 
stroke:#000000; stroke-width:511.811; stroke-opacity:1; 
stroke-linecap:round; stroke-linejoin:round;">
<path d="M63380 38696
L63380 38303
" />
<path d="M68080 38696
L68080 38303
" />
</g>
<g style="fill:#000000; fill-opacity:0.0; 
stroke:#000000; stroke-width:472.441; stroke-opacity:1; 
stroke-linecap:round; stroke-linejoin:round;">
<path d="M71943 24700
L72416 24700
" />
<path d="M71943 25605
L72416 25605
" />
<path d="M71943 26511
L72416 26511
" />
<path d="M65080 20736
L65080 20263
" />
<path d="M65985 20736
L65985 20263
" />
<path d="M66891 20736
L66891 20263
" />
<path d="M65080 25736
L65080 25263
" />
<path d="M65985 25736
L65985 25263
" />
<path d="M66891 25736
L66891 25263
" />
<path d="M65080 30336
L65080 29863
" />
<path d="M65985 30336
L65985 29863
" />
<path d="M66891 30336
L66891 29863
" />
<path d="M65080 34336
L65080 33863
" />
<path d="M65985 34336
L65985 33863
" />
<path d="M66891 34336
L66891 33863
" />
<path d="M65080 41436
L65080 40963
" />
<path d="M65985 41436
L65985 40963
" />
<path d="M66891 41436
L66891 40963
" />
<path d="M76716 24700
L76243 24700
" />
<path d="M76716 23794
L76243 23794
" />
<path d="M76716 22888
L76243 22888
" />
<path d="M81216 24700
L80743 24700
" />
<path d="M81216 23794
L80743 23794
" />
<path d="M81216 22888
L80743 22888
" />
<path d="M83416 24700
L82943 24700
" />
<path d="M83416 23794
L82943 23794
" />
<path d="M83416 22888
L82943 22888
" />
<path d="M87916 24700
L87443 24700
" />
<path d="M87916 23794
L87443 23794
" />
<path d="M87916 22888
L87443 22888
" />
<path d="M65080 44236
L65080 43763
" />
<path d="M65985 44236
L65985 43763
" />
<path d="M66891 44236
L66891 43763
" />
</g>
<g style="fill:#000000; fill-opacity:0.0; 
stroke:#000000; stroke-width:511.811; stroke-opacity:1; 
stroke-linecap:round; stroke-linejoin:round;">
<path d="M74483 23000
L74876 23000
" />
<path d="M74483 28000
L74876 28000
" />
<path d="M73676 26500
L73283 26500
" />
<path d="M73676 24700
L73283 24700
" />
<path d="M63380 23596
L63380 23203
" />
<path d="M68080 23596
L68080 23203
" />
<path d="M66880 22003
L66880 22396
" />
<path d="M65080 22003
L65080 22396
" />
<path d="M63380 28196
L63380 27803
" />
<path d="M68080 28196
L68080 27803
" />
<path d="M66880 26703
L66880 27096
" />
<path d="M65080 26703
L65080 27096
" />
<path d="M63380 32696
L63380 32303
" />
<path d="M68080 32696
L68080 32303
" />
<path d="M66880 31303
L66880 31696
" />
<path d="M65080 31303
L65080 31696
" />
<path d="M63380 36796
L63380 36403
" />
<path d="M68080 36796
L68080 36403
" />
<path d="M66880 35203
L66880 35596
" />
<path d="M65080 35203
L65080 35596
" />
<path d="M66880 39403
L66880 39796
" />
<path d="M65080 39403
L65080 39796
" />
<path d="M77980 25496
L77980 25103
" />
<path d="M77980 20896
L77980 20503
" />
<path d="M79480 25496
L79480 25103
" />
<path d="M79480 20896
L79480 20503
" />
<path d="M84680 25496
L84680 25103
" />
<path d="M84680 20896
L84680 20503
" />
<path d="M86180 25496
L86180 25103
" />
<path d="M86180 20896
L86180 20503
" />
<path d="M63183 45300
L63576 45300
" />
<path d="M68080 45496
L68080 45103
" />
<path d="M66880 46103
L66880 46496
" />
<path d="M65080 46103
L65080 46496
" />
</g>
<g style="fill:#000000; fill-opacity:0.0; 
stroke:#000000; stroke-width:472.441; stroke-opacity:1; 
stroke-linecap:round; stroke-linejoin:round;">
<path d="M73916 29500
L73443 29500
" />
<path d="M70916 42500
L70443 42500
" />
<path d="M73916 30500
L73443 30500
" />
<path d="M70916 41500
L70443 41500
" />
<path d="M73916 31500
L73443 31500
" />
<path d="M70916 40500
L70443 40500
" />
<path d="M73916 32500
L73443 32500
" />
<path d="M70916 39500
L70443 39500
" />
<path d="M70916 35500
L70443 35500
" />
<path d="M73916 37500
L73443 37500
" />
<path d="M70916 34500
L70443 34500
" />
<path d="M73916 38500
L73443 38500
" />
<path d="M70916 33500
L70443 33500
" />
<path d="M70916 32500
L70443 32500
" />
<path d="M73916 40500
L73443 40500
" />
<path d="M70916 31500
L70443 31500
" />
<path d="M73916 41500
L73443 41500
" />
<path d="M70916 30500
L70443 30500
" />
<path d="M70916 29500
L70443 29500
" />
<path d="M72022 23000
L72337 23000
" />
<path d="M72022 22200
L72337 22200
" />
<path d="M72022 23800
L72337 23800
" />
<path d="M63380 21657
L63380 21342
" />
<path d="M62580 21657
L62580 21342
" />
<path d="M64180 21657
L64180 21342
" />
<path d="M63380 26157
L63380 25842
" />
<path d="M62580 26157
L62580 25842
" />
<path d="M64180 26157
L64180 25842
" />
<path d="M63380 30757
L63380 30442
" />
<path d="M62580 30757
L62580 30442
" />
<path d="M64180 30757
L64180 30442
" />
<path d="M63380 34657
L63380 34342
" />
<path d="M62580 34657
L62580 34342
" />
<path d="M64180 34657
L64180 34342
" />
<path d="M63380 40457
L63380 40142
" />
<path d="M62580 40457
L62580 40142
" />
<path d="M64180 40457
L64180 40142
" />
<path d="M63380 47157
L63380 46842
" />
<path d="M62580 47157
L62580 46842
" />
<path d="M64180 47157
L64180 46842
" />
</g>
<g style="fill:#000000; fill-opacity:0.0; 
stroke:#000000; stroke-width:511.811; stroke-opacity:1; 
stroke-linecap:round; stroke-linejoin:round;">
<path d="M75280 38296
L75280 37903
" />
<path d="M75280 36196
L75280 35803
" />
<path d="M76340 21260
L76619 21539
" />
<path d="M81119 21260
L80840 21539
" />
<path d="M83040 21260
L83319 21539
" />
<path d="M87819 21260
L87540 21539
" />
<path d="M75076 44500
L74683 44500
" />
<path d="M75076 45500
L74683 45500
" />
<path d="M75076 46500
L74683 46500
" />
<path d="M84976 44500
L84583 44500
" />
<path d="M84976 41500
L84583 41500
" />
<path d="M86076 43500
L85683 43500
" />
<path d="M86076 40500
L85683 40500
" />
<path d="M70376 47200
L69983 47200
" />
<path d="M70376 45200
L69983 45200
" />
</g>
<g style="fill:#000000; fill-opacity:0.0; 
stroke:#000000; stroke-width:472.441; stroke-opacity:1; 
stroke-linecap:round; stroke-linejoin:round;">
<path d="M75063 42500
L75496 42500
" />
<path d="M75063 41500
L75496 41500
" />
<path d="M75063 40500
L75496 40500
" />
<path d="M75063 39500
L75496 39500
" />
<path d="M83028 43500
L81531 43500
" />
<path d="M83028 42500
L81531 42500
" />
<path d="M83028 41500
L81531 41500
" />
<path d="M83028 40500
L81531 40500
" />
<path d="M83028 39500
L81531 39500
" />
<path d="M83028 38500
L81531 38500
" />
</g>
<g style="fill:#000000; fill-opacity:0.0; 
stroke:#000000; stroke-width:511.811; stroke-opacity:1; 
stroke-linecap:round; stroke-linejoin:round;">
<path d="M70680 21796
L70680 21403
" />
<path d="M65980 19046
L65980 18653
" />
<path d="M64433 24400
L64826 24400
" />
<path d="M65076 28700
L64683 28700
" />
<path d="M65276 37400
L64883 37400
" />
<path d="M64676 42600
L64283 42600
" />
<path d="M65980 47696
L65980 47303
" />
<path d="M69230 44096
L69230 43703
" />
<path d="M69230 41096
L69230 40703
" />
<path d="M73076 47200
L72683 47200
" />
<path d="M73076 46215
L72683 46215
" />
<path d="M72683 43900
L73076 43900
" />
<path d="M72683 44884
L73076 44884
" />
</g>
<g style="fill:#000000; fill-opacity:0.0; 
stroke:#000000; stroke-width:393.701; stroke-opacity:1; 
stroke-linecap:round; stroke-linejoin:round;">
<path d="M76480 23794
L77585 23794
" />
<path d="M77930 22850
L76480 21400
" />
<path d="M77930 23450
L77930 22850
" />
<path d="M77585 23794
L77930 23450
" />
<path d="M72180 25605
L71635 25605
" />
<path d="M70680 24650
L70680 21600
" />
<path d="M71635 25605
L70680 24650
" />
<path d="M80980 23794
L79774 23794
" />
<path d="M79480 22900
L80980 21400
" />
<path d="M79480 23500
L79480 22900
" />
<path d="M79774 23794
L79480 23500
" />
<path d="M83180 23794
L84185 23794
" />
<path d="M84580 22800
L83180 21400
" />
<path d="M84580 23400
L84580 22800
" />
<path d="M84185 23794
L84580 23400
" />
<path d="M87680 23794
L86574 23794
" />
<path d="M86180 22900
L87680 21400
" />
<path d="M86180 23400
L86180 22900
" />
<path d="M86574 23794
L86180 23400
" />
<path d="M65980 18850
L65980 20494
" />
<path d="M65980 20494
L65985 20500
" />
<path d="M65985 18855
L65980 18850
" />
<path d="M65985 18855
L65980 18850
" />
<path d="M65985 25500
L65985 24605
" />
<path d="M65780 24400
L64630 24400
" />
<path d="M65985 24605
L65780 24400
" />
<path d="M64880 28700
L65480 28700
" />
<path d="M65985 29205
L65985 30100
" />
<path d="M65480 28700
L65985 29205
" />
<path d="M65985 34100
L65985 36494
" />
<path d="M65985 36494
L65080 37400
" />
<path d="M65985 41200
L65985 41744
" />
<path d="M65130 42600
L64480 42600
" />
<path d="M65985 41744
L65130 42600
" />
<path d="M65985 44000
L65985 47494
" />
<path d="M65985 47494
L65980 47500
" />
<path d="M65985 47494
L65980 47500
" />
</g>
<g style="fill:#000000; fill-opacity:0.0; 
stroke:#000000; stroke-width:275.591; stroke-opacity:1; 
stroke-linecap:round; stroke-linejoin:round;">
<path d="M74680 23000
L72180 23000
" />
<path d="M72180 23800
L72580 23800
" />
<path d="M72580 23800
L73480 24700
" />
<path d="M72180 24700
L73480 24700
" />
</g>
<g style="fill:#000000; fill-opacity:0.0; 
stroke:#000000; stroke-width:393.701; stroke-opacity:1; 
stroke-linecap:round; stroke-linejoin:round;">
<path d="M73480 26500
L72191 26500
" />
<path d="M72191 26500
L72180 26511
" />
<path d="M72180 26511
L71291 26511
" />
<path d="M69380 22988
L66891 20500
" />
<path d="M69380 24600
L69380 22988
" />
<path d="M71291 26511
L69380 24600
" />
<path d="M66880 22200
L66880 20511
" />
<path d="M66880 20511
L66891 20500
" />
<path d="M66880 26900
L66880 25511
" />
<path d="M66880 25511
L66891 25500
" />
<path d="M66880 26900
L66880 30088
" />
<path d="M66880 30088
L66891 30100
" />
<path d="M66880 31500
L66880 34088
" />
<path d="M66880 34088
L66891 34100
" />
<path d="M66880 35400
L66880 34111
" />
<path d="M66880 34111
L66891 34100
" />
<path d="M66880 39600
L66880 35400
" />
<path d="M72880 47200
L74180 47200
" />
<path d="M74180 47200
L74880 46500
" />
<path d="M72880 47200
L70180 47200
" />
<path d="M70180 47200
L67780 47200
" />
<path d="M67780 47200
L66880 46300
" />
<path d="M66891 44000
L66891 46288
" />
<path d="M66891 46288
L66880 46300
" />
<path d="M66891 41200
L66891 44000
" />
<path d="M66891 22188
L66880 22200
" />
<path d="M66891 20800
L67080 20800
" />
<path d="M66891 22188
L66880 22200
" />
<path d="M66891 25500
L66891 22211
" />
<path d="M66891 22211
L66880 22200
" />
<path d="M72191 26511
L72180 26500
" />
<path d="M66880 30088
L66891 30100
" />
<path d="M66891 26888
L66880 26900
" />
<path d="M66891 30100
L66891 31488
" />
<path d="M66891 31488
L66880 31500
" />
<path d="M66891 31300
L66891 29811
" />
<path d="M66891 29811
L66880 29800
" />
<path d="M66880 34111
L66891 34100
" />
<path d="M66891 41200
L66891 39611
" />
<path d="M66891 39611
L66880 39600
" />
<path d="M66891 46288
L66880 46300
" />
<path d="M66891 39611
L66880 39600
" />
</g>
<g style="fill:#000000; fill-opacity:0.0; 
stroke:#000000; stroke-width:275.591; stroke-opacity:1; 
stroke-linecap:round; stroke-linejoin:round;">
<path d="M63380 23400
L63380 21500
" />
<path d="M65080 22200
L64880 22200
" />
<path d="M64880 22200
L64180 21500
" />
<path d="M65080 20500
L65080 22200
" />
<path d="M63380 26000
L63380 28000
" />
<path d="M65080 26900
L64180 26000
" />
<path d="M65080 25500
L65080 26900
" />
</g>
<g style="fill:#000000; fill-opacity:0.0; 
stroke:#000000; stroke-width:196.85; stroke-opacity:1; 
stroke-linecap:round; stroke-linejoin:round;">
<path d="M65080 26900
L65080 26800
" />
</g>
<g style="fill:#000000; fill-opacity:0.0; 
stroke:#000000; stroke-width:275.591; stroke-opacity:1; 
stroke-linecap:round; stroke-linejoin:round;">
<path d="M63380 30600
L63380 32500
" />
<path d="M65080 30100
L65080 31500
" />
<path d="M65080 31500
L64180 30600
" />
<path d="M63380 36600
L63380 34500
" />
<path d="M64180 34500
L65080 35400
" />
<path d="M65080 34100
L65080 35400
" />
<path d="M63380 40300
L63380 38500
" />
<path d="M65080 39600
L64880 39600
" />
<path d="M64880 39600
L64180 40300
" />
<path d="M65080 41200
L65080 39600
" />
<path d="M73680 29500
L76930 29500
" />
<path d="M77980 28450
L77980 25300
" />
<path d="M76930 29500
L77980 28450
" />
<path d="M76480 24700
L77380 24700
" />
<path d="M77380 24700
L77980 25300
" />
</g>
<g style="fill:#000000; fill-opacity:0.0; 
stroke:#000000; stroke-width:196.85; stroke-opacity:1; 
stroke-linecap:round; stroke-linejoin:round;">
<path d="M73680 29500
L73380 29500
" />
</g>
<g style="fill:#000000; fill-opacity:0.0; 
stroke:#000000; stroke-width:275.591; stroke-opacity:1; 
stroke-linecap:round; stroke-linejoin:round;">
<path d="M79480 25300
L79480 28750
" />
<path d="M77730 30500
L73680 30500
" />
<path d="M79480 28750
L77730 30500
" />
<path d="M80980 24700
L80080 24700
" />
<path d="M80080 24700
L79480 25300
" />
<path d="M83180 24700
L84080 24700
" />
<path d="M84080 24700
L84680 25300
" />
<path d="M84680 25300
L84680 26200
" />
<path d="M79380 31500
L73680 31500
" />
<path d="M84680 26200
L79380 31500
" />
<path d="M87680 24700
L86780 24700
" />
<path d="M86780 24700
L86180 25300
" />
<path d="M86180 25300
L86180 26350
" />
<path d="M80030 32500
L73680 32500
" />
<path d="M86180 26350
L80030 32500
" />
</g>
<g style="fill:#000000; fill-opacity:0.0; 
stroke:#000000; stroke-width:196.85; stroke-opacity:1; 
stroke-linecap:round; stroke-linejoin:round;">
<path d="M87880 24700
L87780 24700
" />
</g>
<g style="fill:#000000; fill-opacity:0.0; 
stroke:#000000; stroke-width:275.591; stroke-opacity:1; 
stroke-linecap:round; stroke-linejoin:round;">
<path d="M63380 45300
L63380 47000
" />
<path d="M64180 47000
L64380 47000
" />
<path d="M64380 47000
L65080 46300
" />
<path d="M65080 44000
L65080 46300
" />
<path d="M74680 28000
L72180 28000
" />
<path d="M72180 28000
L70680 29500
" />
</g>
<g style="fill:#000000; fill-opacity:0.0; 
stroke:#000000; stroke-width:196.85; stroke-opacity:1; 
stroke-linecap:round; stroke-linejoin:round;">
<path d="M70680 29500
L70280 29500
" />
</g>
<g style="fill:#000000; fill-opacity:0.0; 
stroke:#000000; stroke-width:275.591; stroke-opacity:1; 
stroke-linecap:round; stroke-linejoin:round;">
<path d="M70680 30500
L69780 30500
" />
<path d="M68080 25950
L68080 23400
" />
<path d="M69330 27200
L68080 25950
" />
<path d="M69330 30050
L69330 27200
" />
<path d="M69780 30500
L69330 30050
" />
</g>
<g style="fill:#000000; fill-opacity:0.0; 
stroke:#000000; stroke-width:196.85; stroke-opacity:1; 
stroke-linecap:round; stroke-linejoin:round;">
<path d="M70280 30500
L70680 30500
" />
</g>
<g style="fill:#000000; fill-opacity:0.0; 
stroke:#000000; stroke-width:275.591; stroke-opacity:1; 
stroke-linecap:round; stroke-linejoin:round;">
<path d="M70680 31500
L69480 31500
" />
<path d="M68080 30100
L68080 28000
" />
<path d="M69480 31500
L68080 30100
" />
<path d="M70680 32500
L68080 32500
" />
<path d="M70680 33500
L69330 33500
" />
<path d="M68080 34750
L68080 36600
" />
<path d="M69330 33500
L68080 34750
" />
<path d="M70680 34500
L69980 34500
" />
<path d="M69330 37250
L68080 38500
" />
<path d="M69330 35150
L69330 37250
" />
<path d="M69980 34500
L69330 35150
" />
<path d="M68080 45300
L68080 40100
" />
<path d="M70680 37500
L70680 35500
" />
<path d="M68080 40100
L70680 37500
" />
<path d="M75280 41500
L82280 41500
" />
<path d="M73680 41500
L75280 41500
" />
<path d="M84780 41500
L87780 41500
" />
<path d="M82280 41500
L84780 41500
" />
<path d="M75280 40500
L73680 40500
" />
<path d="M82280 40500
L75280 40500
" />
<path d="M85880 40500
L82280 40500
" />
<path d="M87780 40500
L85880 40500
" />
</g>
<g style="fill:#000000; fill-opacity:0.0; 
stroke:#000000; stroke-width:196.85; stroke-opacity:1; 
stroke-linecap:round; stroke-linejoin:round;">
<path d="M73680 40500
L74080 40500
" />
<path d="M73680 40500
L73780 40500
" />
</g>
<g style="fill:#000000; fill-opacity:0.0; 
stroke:#000000; stroke-width:275.591; stroke-opacity:1; 
stroke-linecap:round; stroke-linejoin:round;">
<path d="M72280 41750
L72280 43300
" />
<path d="M72280 43300
L72880 43900
" />
<path d="M72880 43900
L74280 43900
" />
<path d="M74280 43900
L74880 44500
" />
<path d="M75280 42500
L75230 42500
" />
<path d="M75230 42500
L73830 43900
" />
<path d="M73830 43900
L72880 43900
" />
<path d="M75280 36000
L75180 36000
" />
<path d="M75180 36000
L73680 37500
" />
<path d="M72880 43900
L72780 43900
" />
<path d="M73180 37500
L73680 37500
" />
<path d="M72280 41750
L72280 38400
" />
<path d="M72280 38400
L73180 37500
" />
<path d="M72880 43900
L69230 43900
" />
<path d="M74880 44500
L74880 44400
" />
<path d="M76780 42500
L75280 42500
" />
<path d="M82280 42500
L76780 42500
" />
<path d="M85880 43500
L85880 44050
" />
<path d="M85430 44500
L84780 44500
" />
<path d="M85880 44050
L85430 44500
" />
<path d="M82280 42500
L84880 42500
" />
<path d="M84880 42500
L85880 43500
" />
<path d="M75280 35900
L73680 37500
" />
</g>
<g style="fill:#000000; fill-opacity:0.0; 
stroke:#000000; stroke-width:196.85; stroke-opacity:1; 
stroke-linecap:round; stroke-linejoin:round;">
<path d="M85880 43500
L85780 43500
" />
<path d="M73680 37500
L73932 37500
" />
<path d="M73980 37500
L73680 37500
" />
</g>
<g style="fill:#000000; fill-opacity:0.0; 
stroke:#000000; stroke-width:275.591; stroke-opacity:1; 
stroke-linecap:round; stroke-linejoin:round;">
<path d="M70680 39500
L70080 39500
" />
<path d="M69230 40350
L69230 40900
" />
<path d="M70080 39500
L69230 40350
" />
</g>
<g style="fill:#000000; fill-opacity:0.0; 
stroke:#000000; stroke-width:196.85; stroke-opacity:1; 
stroke-linecap:round; stroke-linejoin:round;">
<path d="M70680 39500
L70280 39500
" />
</g>
<g style="fill:#000000; fill-opacity:0.0; 
stroke:#000000; stroke-width:275.591; stroke-opacity:1; 
stroke-linecap:round; stroke-linejoin:round;">
<path d="M87780 37500
L86030 37500
" />
<path d="M84030 39500
L82280 39500
" />
<path d="M86030 37500
L84030 39500
" />
</g>
<g style="fill:#000000; fill-opacity:1.0; 
stroke:#000000; stroke-width:10; stroke-opacity:1; 
stroke-linecap:round; stroke-linejoin:round;">
<polyline style="fill-rule:evenodd;"
points="60224,49755
90285,49755
90285,47500
88040,47500
87982,47790
87817,48037
87570,48202
87280,48260
86989,48202
86742,48037
86577,47790
86519,47500
78062,47500
78003,47799
77833,48053
77579,48223
77280,48282
76980,48223
76726,48053
76556,47799
76497,47500
76556,47200
76726,46946
76980,46776
77280,46717
77579,46776
77833,46946
78003,47200
78062,47500
86519,47500
86577,47209
86742,46962
86989,46797
87280,46739
87570,46797
87817,46962
87982,47209
88040,47500
90285,47500
90285,46500
75667,46500
75624,46720
75499,46907
75312,47032
75091,47075
75035,47075
74545,47565
74377,47677
74180,47716
73335,47716
73312,47732
73091,47775
72668,47775
72447,47732
72424,47716
70635,47716
70612,47732
70391,47775
69968,47775
69747,47732
69724,47716
67780,47716
67582,47677
67414,47565
66927,47078
66880,47087
66659,47044
66502,46938
66502,47053
66512,47067
66555,47288
66555,47711
66512,47932
66387,48119
66200,48244
65980,48287
65759,48244
65572,48119
65447,47932
65404,47711
65404,47288
65447,47067
65468,47036
65468,46931
65300,47044
65080,47087
64962,47064
64706,47320
64693,47384
64573,47564
64392,47685
64180,47727
63967,47685
63786,47564
63780,47554
63773,47564
63592,47685
63380,47727
63167,47685
62986,47564
62866,47384
62823,47171
62823,46828
62866,46615
62922,46531
62922,45815
62760,45707
62635,45520
62592,45300
62635,45079
62760,44892
62947,44767
63168,44724
63591,44724
63812,44767
63999,44892
64124,45079
64167,45300
64124,45520
63999,45707
63837,45815
63837,46401
63967,46314
64180,46272
64392,46314
64407,46324
64504,46228
64504,46088
64547,45867
64622,45756
64622,44548
64566,44464
64523,44251
64523,43748
64566,43535
64686,43354
64867,43234
65080,43192
65292,43234
65473,43354
65532,43443
65592,43354
65772,43234
65985,43192
66198,43234
66374,43351
66374,42075
66368,42083
66350,42109
65495,42965
65327,43077
65130,43116
64935,43116
64912,43132
64691,43175
64268,43175
64047,43132
63860,43007
63735,42820
63692,42600
63735,42379
63860,42192
64047,42067
64268,42024
64691,42024
64912,42067
64923,42075
65005,41993
64867,41965
64686,41845
64566,41664
64523,41451
64523,40948
64535,40890
64392,40985
64180,41027
63967,40985
63786,40864
63780,40854
63773,40864
63592,40985
63380,41027
63167,40985
62986,40864
62866,40684
62823,40471
62823,40128
62866,39915
62922,39831
62922,39043
62847,38932
62804,38711
62804,38288
62847,38067
62972,37880
63159,37755
63380,37712
63600,37755
63787,37880
63912,38067
63955,38288
63955,38711
63912,38932
63837,39043
63837,39701
63967,39614
64180,39572
64246,39585
64518,39313
64547,39167
64672,38980
64859,38855
65080,38812
65300,38855
65487,38980
65612,39167
65655,39388
65655,39811
65612,40032
65537,40143
65537,40636
65592,40554
65772,40434
65985,40392
66198,40434
66374,40551
66374,40071
66347,40032
66304,39811
66304,39388
66347,39167
66363,39144
66363,36841
66350,36859
65858,37352
65867,37400
65824,37620
65699,37807
65512,37932
65291,37975
64868,37975
64647,37932
64460,37807
64335,37620
64292,37400
64335,37179
64460,36992
64647,36867
64868,36824
64924,36824
65468,36280
65468,36031
65300,36144
65080,36187
64859,36144
64672,36019
64547,35832
64504,35611
64504,35471
64246,35214
64180,35227
63967,35185
63837,35098
63837,36056
63912,36167
63955,36388
63955,36811
63912,37032
63787,37219
63600,37344
63380,37387
63159,37344
62972,37219
62847,37032
62804,36811
62804,36388
62847,36167
62922,36056
62922,34968
62866,34884
62823,34671
62823,34328
62866,34115
62986,33935
63167,33814
63380,33772
63592,33814
63773,33935
63780,33945
63786,33935
63967,33814
64180,33772
64392,33814
64523,33902
64523,33848
64566,33635
64686,33454
64867,33334
65080,33292
65292,33334
65473,33454
65532,33543
65592,33454
65772,33334
65985,33292
66198,33334
66363,33444
66363,31955
66347,31932
66304,31711
66304,31288
66347,31067
66374,31028
66374,30748
66198,30865
65985,30907
65772,30865
65592,30745
65537,30663
65537,30956
65612,31067
65655,31288
65655,31711
65612,31932
65487,32119
65300,32244
65080,32287
64859,32244
64672,32119
64547,31932
64504,31711
64504,31571
64246,31314
64180,31327
63967,31285
63837,31198
63837,31956
63912,32067
63955,32288
63955,32711
63912,32932
63787,33119
63600,33244
63380,33287
63159,33244
62972,33119
62847,32932
62804,32711
62804,32288
62847,32067
62922,31956
62922,31068
62866,30984
62823,30771
62823,30428
62866,30215
62986,30035
63167,29914
63380,29872
63592,29914
63773,30035
63780,30045
63786,30035
63967,29914
64180,29872
64392,29914
64523,30002
64523,29848
64566,29635
64686,29454
64867,29334
65080,29292
65292,29334
65468,29451
65468,29419
65286,29237
65091,29275
64668,29275
64447,29232
64260,29107
64135,28920
64092,28700
64135,28479
64260,28292
64447,28167
64668,28124
65091,28124
65312,28167
65335,28183
65480,28183
65677,28222
65845,28334
66350,28840
66363,28858
66363,27355
66347,27332
66304,27111
66304,26688
66347,26467
66363,26444
66363,26155
66198,26265
65985,26307
65772,26265
65592,26145
65537,26063
65537,26356
65612,26467
65655,26688
65655,27111
65612,27332
65487,27519
65300,27644
65080,27687
64859,27644
64672,27519
64547,27332
64504,27111
64504,26971
64246,26714
64180,26727
63967,26685
63837,26598
63837,27456
63912,27567
63955,27788
63955,28211
63912,28432
63787,28619
63600,28744
63380,28787
63159,28744
62972,28619
62847,28432
62804,28211
62804,27788
62847,27567
62922,27456
62922,26468
62866,26384
62823,26171
62823,25828
62866,25615
62986,25435
63167,25314
63380,25272
63592,25314
63773,25435
63780,25445
63786,25435
63967,25314
64180,25272
64392,25314
64523,25402
64523,25248
64566,25035
64605,24975
64418,24975
64197,24932
64010,24807
63885,24620
63842,24400
63885,24179
64010,23992
64197,23867
64418,23824
64841,23824
65062,23867
65085,23883
65780,23883
65977,23922
66145,24034
66350,24240
66374,24274
66374,22671
66347,22632
66304,22411
66304,21988
66347,21767
66363,21744
66363,21155
66198,21265
65985,21307
65772,21265
65592,21145
65537,21063
65537,21656
65612,21767
65655,21988
65655,22411
65612,22632
65487,22819
65300,22944
65080,22987
64859,22944
64672,22819
64547,22632
64518,22486
64246,22214
64180,22227
63967,22185
63837,22098
63837,22856
63912,22967
63955,23188
63955,23611
63912,23832
63787,24019
63600,24144
63380,24187
63159,24144
62972,24019
62847,23832
62804,23611
62804,23188
62847,22967
62922,22856
62922,21968
62866,21884
62823,21671
62823,21328
62866,21115
62986,20935
63167,20814
63380,20772
63592,20814
63773,20935
63780,20945
63786,20935
63967,20814
64180,20772
64392,20814
64558,20925
64523,20751
64523,20248
64566,20035
64686,19854
64867,19734
65080,19692
65292,19734
65463,19848
65463,19305
65447,19282
65404,19061
65404,18638
65447,18417
65572,18230
65759,18105
65980,18062
66200,18105
66387,18230
66512,18417
66555,18638
66555,19061
66512,19282
66496,19305
66496,19856
66497,19854
66678,19734
66891,19692
67103,19734
67284,19854
67404,20035
67447,20248
67447,20325
69745,22623
69857,22791
69896,22988
69896,24385
70163,24652
70163,24650
70163,22055
70147,22032
70104,21811
70104,21388
70147,21167
70272,20980
70459,20855
70680,20812
70900,20855
71087,20980
71212,21167
71255,21388
71255,21811
71212,22032
71196,22055
71196,24435
71386,24625
71414,24487
71534,24306
71660,24223
71615,24193
71494,24012
71452,23800
71494,23587
71615,23406
71625,23400
71615,23393
71494,23212
71452,23000
71494,22787
71615,22606
71795,22486
72008,22443
72351,22443
72564,22486
72648,22542
74136,22542
74247,22467
74468,22424
74891,22424
75112,22467
75299,22592
75424,22779
75467,23000
75424,23220
75299,23407
75112,23532
74891,23575
74468,23575
74247,23532
74136,23457
72875,23457
72903,23476
73551,24124
73691,24124
73912,24167
74099,24292
74224,24479
74267,24700
74224,24920
74099,25107
73912,25232
73691,25275
73268,25275
73047,25232
72936,25157
72743,25157
72825,25212
72945,25392
72987,25605
72945,25818
72835,25983
73024,25983
73047,25967
73268,25924
73691,25924
73912,25967
74099,26092
74224,26279
74267,26500
74224,26720
74099,26907
73912,27032
73691,27075
73268,27075
73047,27032
73024,27016
72656,27016
72644,27024
72431,27067
71928,27067
71730,27027
71291,27027
71093,26988
70925,26876
69014,24965
68979,24912
68902,24797
68863,24600
68863,23203
68580,22920
68612,22967
68655,23188
68655,23611
68612,23832
68537,23943
68537,25760
69653,26876
69752,27024
69787,27200
69787,29860
69969,30042
70131,30042
70194,30000
70034,29893
69914,29712
69908,29682
69893,29660
69861,29500
69893,29339
69908,29317
69914,29287
70034,29106
70215,28986
70428,28943
70588,28943
71856,27676
72004,27577
72180,27542
74136,27542
74247,27467
74468,27424
74891,27424
75112,27467
75299,27592
75424,27779
75467,28000
75424,28220
75299,28407
75112,28532
74891,28575
74468,28575
74247,28532
74136,28457
72369,28457
71461,29366
71487,29500
71445,29712
71325,29893
71165,30000
71325,30106
71445,30287
71487,30500
71445,30712
71325,30893
71165,31000
71325,31106
71445,31287
71487,31500
71445,31712
71325,31893
71165,32000
71325,32106
71445,32287
71487,32500
71445,32712
71325,32893
71165,33000
71325,33106
71445,33287
71487,33500
71445,33712
71325,33893
71165,34000
71325,34106
71445,34287
71487,34500
71445,34712
71325,34893
71165,35000
71325,35106
71445,35287
71487,35500
71445,35712
71325,35893
71144,36013
71137,36015
71137,37500
71102,37675
71003,37823
68537,40289
68537,44756
68612,44867
68655,45088
68655,45511
68612,45732
68487,45919
68300,46044
68080,46087
67859,46044
67672,45919
67547,45732
67504,45511
67504,45088
67547,44867
67622,44756
67622,40100
67657,39924
67756,39776
68285,39246
68080,39287
67859,39244
67672,39119
67547,38932
67504,38711
67504,38288
67547,38067
67672,37880
67859,37755
68080,37712
68197,37735
68872,37060
68872,35150
68907,34974
69006,34826
69656,34176
69804,34077
69980,34042
70131,34042
70194,34000
70131,33957
69519,33957
68537,34939
68537,36056
68612,36167
68655,36388
68655,36811
68612,37032
68487,37219
68300,37344
68080,37387
67859,37344
67672,37219
67547,37032
67504,36811
67504,36388
67547,36167
67622,36056
67622,34750
67657,34574
67756,34426
69006,33176
69154,33077
69330,33042
70131,33042
70194,33000
70131,32957
68595,32957
68487,33119
68300,33244
68080,33287
67859,33244
67672,33119
67547,32932
67504,32711
67504,32288
67547,32067
67672,31880
67859,31755
68080,31712
68300,31755
68487,31880
68595,32042
70131,32042
70194,32000
70131,31957
69480,31957
69304,31922
69156,31823
67756,30423
67657,30275
67622,30100
67622,28543
67547,28432
67504,28211
67504,27788
67547,27567
67672,27380
67859,27255
68080,27212
68300,27255
68487,27380
68612,27567
68655,27788
68655,28211
68612,28432
68537,28543
68537,29910
69669,31042
70131,31042
70194,31000
70131,30957
69780,30957
69604,30922
69456,30823
69006,30373
68907,30225
68872,30050
68872,27389
67756,26273
67657,26125
67622,25950
67622,23943
67547,23832
67504,23611
67504,23188
67547,22967
67672,22780
67859,22655
68080,22612
68300,22655
68347,22687
67396,21736
67396,21744
67412,21767
67455,21988
67455,22411
67412,22632
67407,22638
67407,25050
67447,25248
67447,25751
67404,25964
67396,25976
67396,26444
67412,26467
67455,26688
67455,27111
67412,27332
67396,27355
67396,29623
67404,29635
67447,29848
67447,30351
67407,30549
67407,31061
67412,31067
67455,31288
67455,31711
67412,31932
67396,31955
67396,33623
67404,33635
67447,33848
67447,34351
67404,34564
67396,34576
67396,34944
67412,34967
67455,35188
67455,35611
67412,35832
67396,35855
67396,39144
67412,39167
67455,39388
67455,39811
67412,40032
67407,40038
67407,40750
67447,40948
67447,41451
67407,41649
67407,43550
67447,43748
67447,44251
67407,44449
67407,45861
67412,45867
67455,46088
67455,46144
67994,46683
69724,46683
69747,46667
69968,46624
70391,46624
70612,46667
70635,46683
72424,46683
72447,46667
72668,46624
73091,46624
73312,46667
73335,46683
73965,46683
74101,46547
74092,46500
74135,46279
74260,46092
74447,45967
74668,45924
75091,45924
75312,45967
75499,46092
75624,46279
75667,46500
90285,46500
90285,37500
88567,37500
88525,37712
88404,37893
88224,38013
88011,38056
87548,38056
87335,38013
87251,37957
86219,37957
84353,39823
84205,39922
84030,39957
83350,39957
83287,40000
83350,40042
85336,40042
85447,39967
85668,39924
86091,39924
86312,39967
86423,40042
87251,40042
87335,39986
87548,39943
88011,39943
88224,39986
88404,40106
88525,40287
88567,40500
88525,40712
88404,40893
88245,41000
88404,41106
88525,41287
88567,41500
88525,41712
88404,41893
88224,42013
88011,42056
87548,42056
87335,42013
87251,41957
85323,41957
85212,42032
85020,42070
85055,42077
85203,42176
85951,42924
86091,42924
86312,42967
86499,43092
86624,43279
86667,43500
86624,43720
86499,43907
86337,44015
86337,44050
86302,44225
86203,44373
85753,44823
85605,44922
85430,44957
85323,44957
85212,45032
84991,45075
84568,45075
84347,45032
84160,44907
84035,44720
83992,44500
84035,44279
84160,44092
84347,43967
84568,43924
84991,43924
85212,43967
85273,44008
85329,43953
85260,43907
85135,43720
85092,43500
85115,43382
84690,42957
83350,42957
83266,43013
83053,43056
81506,43056
81293,43013
81209,42957
77308,42957
77224,43013
77011,43056
76548,43056
76335,43013
76251,42957
75808,42957
75724,43013
75511,43056
75321,43056
74702,43675
74951,43924
75091,43924
75312,43967
75499,44092
75624,44279
75667,44500
75624,44720
75499,44907
75312,45032
75091,45075
74668,45075
74447,45032
74260,44907
74135,44720
74092,44500
74115,44382
74090,44357
73423,44357
73312,44432
73091,44475
72668,44475
72447,44432
72336,44357
69745,44357
69637,44519
69450,44644
69230,44687
69009,44644
68822,44519
68697,44332
68654,44111
68654,43688
68697,43467
68822,43280
69009,43155
69230,43112
69450,43155
69637,43280
69745,43442
71850,43442
71822,43300
71822,39500
71487,39500
71445,39712
71325,39893
71144,40013
70931,40056
70428,40056
70215,40013
70214,40013
69761,40466
69762,40467
69805,40688
69805,41111
69762,41332
69637,41519
69450,41644
69230,41687
69009,41644
68822,41519
68697,41332
68654,41111
68654,40688
68697,40467
68772,40356
68772,40350
68807,40174
68906,40026
69756,39176
69904,39077
70080,39042
70131,39042
70215,38986
70428,38943
70931,38943
71144,38986
71325,39106
71445,39287
71487,39500
71822,39500
71822,38400
71857,38224
71956,38076
72856,37176
73004,37077
73110,37055
73215,36986
73428,36943
73588,36943
74704,35828
74704,35788
74747,35567
74872,35380
75059,35255
75280,35212
75500,35255
75687,35380
75812,35567
75855,35788
75855,36211
75812,36432
75687,36619
75500,36744
75280,36787
75079,36747
74461,37366
74487,37500
74445,37712
74325,37893
74144,38013
73931,38056
73428,38056
73297,38030
72737,38589
72737,43110
72951,43324
73091,43324
73312,43367
73423,43442
73640,43442
74507,42575
74492,42500
74534,42287
74655,42106
74814,42000
74751,41957
74228,41957
74144,42013
73931,42056
73428,42056
73215,42013
73034,41893
72914,41712
72872,41500
72914,41287
73034,41106
73194,41000
73034,40893
72914,40712
72872,40500
72914,40287
73034,40106
73215,39986
73428,39943
73931,39943
74144,39986
74228,40042
74751,40042
74835,39986
75048,39943
75511,39943
75724,39986
75808,40042
81209,40042
81272,40000
81113,39893
80992,39712
80950,39500
80992,39287
81113,39106
81272,39000
81113,38893
80992,38712
80950,38500
80992,38287
81113,38106
81293,37986
81506,37943
83053,37943
83266,37986
83446,38106
83567,38287
83609,38500
83567,38712
83446,38893
83287,39000
83350,39042
83840,39042
85706,37176
85854,37077
86030,37042
87251,37042
87335,36986
87548,36943
88011,36943
88224,36986
88404,37106
88525,37287
88567,37500
90285,37500
90285,23794
88487,23794
88445,24007
88325,24187
88236,24247
88325,24306
88445,24487
88487,24700
88445,24912
88325,25093
88144,25213
87931,25256
87428,25256
87215,25213
87131,25157
86969,25157
86755,25371
86755,25511
86712,25732
86637,25843
86637,26350
86602,26525
86503,26673
80353,32823
80205,32922
80030,32957
74228,32957
74144,33013
73931,33056
73428,33056
73215,33013
73034,32893
72914,32712
72872,32500
72914,32287
73034,32106
73194,32000
73034,31893
72914,31712
72872,31500
72914,31287
73034,31106
73194,31000
73034,30893
72914,30712
72872,30500
72914,30287
73034,30106
73194,30000
73034,29893
72914,29712
72872,29500
72914,29287
73034,29106
73215,28986
73428,28943
73931,28943
74144,28986
74228,29042
76740,29042
77522,28260
77522,25843
77447,25732
77404,25511
77404,25371
77190,25157
77028,25157
76944,25213
76731,25256
76228,25256
76015,25213
75834,25093
75714,24912
75672,24700
75714,24487
75834,24306
75923,24247
75834,24187
75714,24007
75672,23794
75714,23581
75834,23401
76015,23280
76228,23238
76731,23238
76929,23277
77371,23277
77413,23235
77413,23064
76436,22087
76409,22081
76222,21957
75922,21657
75798,21470
75754,21250
75798,21029
75922,20842
76109,20718
76330,20674
76550,20718
76737,20842
77037,21142
77161,21329
77167,21356
78295,22484
78407,22652
78446,22850
78446,23450
78407,23647
78374,23697
78295,23815
77950,24159
77783,24271
77601,24308
77703,24376
77862,24535
77980,24512
78200,24555
78387,24680
78512,24867
78555,25088
78555,25511
78512,25732
78437,25843
78437,28450
78402,28625
78303,28773
77253,29823
77105,29922
76930,29957
74228,29957
74165,30000
74228,30042
77540,30042
79022,28560
79022,25843
78947,25732
78904,25511
78904,25088
78947,24867
79072,24680
79259,24555
79480,24512
79597,24535
79756,24376
79853,24311
79774,24311
79576,24271
79409,24159
79114,23865
79086,23824
79002,23697
78963,23500
78963,22900
79002,22702
79114,22534
80292,21356
80298,21329
80422,21142
80722,20842
80909,20718
81129,20674
81350,20718
81537,20842
81661,21029
81705,21250
81661,21470
81537,21657
81237,21957
81050,22081
81023,22087
79996,23114
79996,23277
80530,23277
80728,23238
81231,23238
81444,23280
81625,23401
81745,23581
81787,23794
81745,24007
81625,24187
81536,24247
81625,24306
81745,24487
81787,24700
81745,24912
81625,25093
81444,25213
81231,25256
80728,25256
80515,25213
80431,25157
80269,25157
80055,25371
80055,25511
80012,25732
79937,25843
79937,28750
79902,28925
79803,29073
78053,30823
77905,30922
77730,30957
74228,30957
74165,31000
74228,31042
79190,31042
84222,26010
84222,25843
84147,25732
84104,25511
84104,25371
83890,25157
83728,25157
83644,25213
83431,25256
82928,25256
82715,25213
82534,25093
82414,24912
82372,24700
82414,24487
82534,24306
82623,24247
82534,24187
82414,24007
82372,23794
82414,23581
82534,23401
82715,23280
82928,23238
83431,23238
83629,23277
83971,23277
84063,23185
84063,23014
83136,22087
83109,22081
82922,21957
82622,21657
82498,21470
82454,21250
82498,21029
82622,20842
82809,20718
83030,20674
83250,20718
83437,20842
83737,21142
83861,21329
83867,21356
84945,22434
85057,22602
85096,22800
85096,23400
85057,23597
85024,23647
84945,23765
84550,24159
84383,24271
84278,24292
84403,24376
84562,24535
84680,24512
84900,24555
85087,24680
85212,24867
85255,25088
85255,25511
85212,25732
85137,25843
85137,26200
85102,26375
85003,26523
79703,31823
79555,31922
79380,31957
74228,31957
74165,32000
74228,32042
79840,32042
85722,26160
85722,25843
85647,25732
85604,25511
85604,25088
85647,24867
85772,24680
85959,24555
86180,24512
86297,24535
86456,24376
86558,24308
86376,24271
86209,24159
85814,23765
85735,23647
85702,23597
85663,23400
85663,22900
85702,22702
85814,22534
86992,21356
86998,21329
87122,21142
87422,20842
87609,20718
87829,20674
88050,20718
88237,20842
88361,21029
88405,21250
88361,21470
88237,21657
87937,21957
87750,22081
87723,22087
86696,23114
86696,23185
86788,23277
87230,23277
87428,23238
87931,23238
88144,23280
88325,23401
88445,23581
88487,23794
90285,23794
90285,17900
89369,17900
89312,18182
89152,18422
88912,18582
88630,18639
88347,18582
88107,18422
87947,18182
87890,17900
62635,17900
62577,18188
62413,18433
62168,18597
61880,18655
61591,18597
61346,18433
61182,18188
61124,17900
61182,17611
61346,17366
61591,17202
61880,17144
62168,17202
62413,17366
62577,17611
62635,17900
87890,17900
87947,17617
88107,17377
88347,17217
88630,17160
88912,17217
89152,17377
89312,17617
89369,17900
90285,17900
90285,16194
60224,16194
60224,49755
" /> 
</g> 
</svg>
