<?xml version="1.0" standalone="no"?>
 <!DOCTYPE svg PUBLIC "-//W3C//DTD SVG 1.1//EN" 
 "http://www.w3.org/Graphics/SVG/1.1/DTD/svg11.dtd"> 
<svg xmlns="http://www.w3.org/2000/svg" version="1.1" 
    width="29.7002cm" height="21.0007cm" viewBox="0 0 116930 82680 ">
<title>SVG Picture created as led_segments-B.Cu.svg date 2018/12/08 22:19:47 </title>
  <desc>Picture generated by PCBNEW </desc>
<g style="fill:#000000; fill-opacity:1;stroke:#000000; stroke-opacity:1;
stroke-linecap:round; stroke-linejoin:round; "
 transform="translate(0 0) scale(1 1)">
</g>
<g style="fill:#000000; fill-opacity:0.0; 
stroke:#000000; stroke-width:-0.000393701; stroke-opacity:1; 
stroke-linecap:round; stroke-linejoin:round;">
</g>
<g style="fill:#000000; fill-opacity:0.0; 
stroke:#000000; stroke-width:472.441; stroke-opacity:1; 
stroke-linecap:round; stroke-linejoin:round;">
<path d="M21916 44700
L21483 44700
" />
<path d="M21916 43700
L21483 43700
" />
<path d="M21916 40700
L21483 40700
" />
<path d="M21916 34700
L21483 34700
" />
<path d="M10916 41700
L10483 41700
" />
<path d="M10916 42700
L10483 42700
" />
</g>
<g style="fill:#000000; fill-opacity:0.0; 
stroke:#000000; stroke-width:511.811; stroke-opacity:1; 
stroke-linecap:round; stroke-linejoin:round;">
<path d="M35100 39896
L35100 39503
" />
<path d="M30400 39896
L30400 39503
" />
</g>
<g style="fill:#000000; fill-opacity:0.0; 
stroke:#000000; stroke-width:472.441; stroke-opacity:1; 
stroke-linecap:round; stroke-linejoin:round;">
<path d="M26536 25900
L26063 25900
" />
<path d="M26536 26805
L26063 26805
" />
<path d="M26536 27711
L26063 27711
" />
<path d="M33400 21936
L33400 21463
" />
<path d="M32494 21936
L32494 21463
" />
<path d="M31588 21936
L31588 21463
" />
<path d="M33400 26936
L33400 26463
" />
<path d="M32494 26936
L32494 26463
" />
<path d="M31588 26936
L31588 26463
" />
<path d="M33400 31536
L33400 31063
" />
<path d="M32494 31536
L32494 31063
" />
<path d="M31588 31536
L31588 31063
" />
<path d="M33400 35536
L33400 35063
" />
<path d="M32494 35536
L32494 35063
" />
<path d="M31588 35536
L31588 35063
" />
<path d="M33400 42636
L33400 42163
" />
<path d="M32494 42636
L32494 42163
" />
<path d="M31588 42636
L31588 42163
" />
<path d="M21763 25900
L22236 25900
" />
<path d="M21763 24994
L22236 24994
" />
<path d="M21763 24088
L22236 24088
" />
<path d="M17263 25900
L17736 25900
" />
<path d="M17263 24994
L17736 24994
" />
<path d="M17263 24088
L17736 24088
" />
<path d="M15063 25900
L15536 25900
" />
<path d="M15063 24994
L15536 24994
" />
<path d="M15063 24088
L15536 24088
" />
<path d="M10563 25900
L11036 25900
" />
<path d="M10563 24994
L11036 24994
" />
<path d="M10563 24088
L11036 24088
" />
<path d="M33400 45436
L33400 44963
" />
<path d="M32494 45436
L32494 44963
" />
<path d="M31588 45436
L31588 44963
" />
</g>
<g style="fill:#000000; fill-opacity:0.0; 
stroke:#000000; stroke-width:511.811; stroke-opacity:1; 
stroke-linecap:round; stroke-linejoin:round;">
<path d="M23996 24200
L23603 24200
" />
<path d="M23996 28900
L23603 28900
" />
<path d="M24803 27700
L25196 27700
" />
<path d="M24803 25900
L25196 25900
" />
<path d="M35100 24796
L35100 24403
" />
<path d="M30400 24796
L30400 24403
" />
<path d="M31600 23203
L31600 23596
" />
<path d="M33400 23203
L33400 23596
" />
<path d="M35100 29396
L35100 29003
" />
<path d="M30400 29396
L30400 29003
" />
<path d="M31600 27903
L31600 28296
" />
<path d="M33400 27903
L33400 28296
" />
<path d="M35100 33896
L35100 33503
" />
<path d="M30400 33896
L30400 33503
" />
<path d="M31600 32503
L31600 32896
" />
<path d="M33400 32503
L33400 32896
" />
<path d="M35100 37996
L35100 37603
" />
<path d="M30400 37996
L30400 37603
" />
<path d="M31600 36403
L31600 36796
" />
<path d="M33400 36403
L33400 36796
" />
<path d="M31600 40603
L31600 40996
" />
<path d="M33400 40603
L33400 40996
" />
<path d="M20303 26500
L20696 26500
" />
<path d="M20303 21900
L20696 21900
" />
<path d="M18803 26500
L19196 26500
" />
<path d="M18803 21900
L19196 21900
" />
<path d="M13603 26500
L13996 26500
" />
<path d="M13603 21900
L13996 21900
" />
<path d="M12103 26500
L12496 26500
" />
<path d="M12103 21900
L12496 21900
" />
<path d="M35296 46500
L34903 46500
" />
<path d="M30400 46696
L30400 46303
" />
<path d="M31600 47303
L31600 47696
" />
<path d="M33400 47303
L33400 47696
" />
</g>
<g style="fill:#000000; fill-opacity:0.0; 
stroke:#000000; stroke-width:472.441; stroke-opacity:1; 
stroke-linecap:round; stroke-linejoin:round;">
<path d="M24563 30700
L25036 30700
" />
<path d="M27563 43700
L28036 43700
" />
<path d="M24563 31700
L25036 31700
" />
<path d="M27563 42700
L28036 42700
" />
<path d="M24563 32700
L25036 32700
" />
<path d="M27563 41700
L28036 41700
" />
<path d="M24563 33700
L25036 33700
" />
<path d="M27563 40700
L28036 40700
" />
<path d="M27563 36700
L28036 36700
" />
<path d="M24563 38700
L25036 38700
" />
<path d="M27563 35700
L28036 35700
" />
<path d="M24563 39700
L25036 39700
" />
<path d="M27563 34700
L28036 34700
" />
<path d="M27563 33700
L28036 33700
" />
<path d="M24563 41700
L25036 41700
" />
<path d="M27563 32700
L28036 32700
" />
<path d="M24563 42700
L25036 42700
" />
<path d="M27563 31700
L28036 31700
" />
<path d="M27563 30700
L28036 30700
" />
<path d="M26457 24200
L26142 24200
" />
<path d="M26457 23400
L26142 23400
" />
<path d="M26457 25000
L26142 25000
" />
<path d="M35100 22857
L35100 22542
" />
<path d="M35900 22857
L35900 22542
" />
<path d="M34300 22857
L34300 22542
" />
<path d="M35100 27357
L35100 27042
" />
<path d="M35900 27357
L35900 27042
" />
<path d="M34300 27357
L34300 27042
" />
<path d="M35100 31957
L35100 31642
" />
<path d="M35900 31957
L35900 31642
" />
<path d="M34300 31957
L34300 31642
" />
<path d="M35100 35857
L35100 35542
" />
<path d="M35900 35857
L35900 35542
" />
<path d="M34300 35857
L34300 35542
" />
<path d="M35100 41657
L35100 41342
" />
<path d="M35900 41657
L35900 41342
" />
<path d="M34300 41657
L34300 41342
" />
<path d="M34442 48300
L34757 48300
" />
<path d="M34442 49100
L34757 49100
" />
<path d="M34442 47500
L34757 47500
" />
</g>
<g style="fill:#000000; fill-opacity:0.0; 
stroke:#000000; stroke-width:511.811; stroke-opacity:1; 
stroke-linecap:round; stroke-linejoin:round;">
<path d="M23200 39496
L23200 39103
" />
<path d="M23200 36544
L23200 36150
" />
<path d="M22139 22460
L21860 22739
" />
<path d="M17360 22460
L17639 22739
" />
<path d="M15439 22460
L15160 22739
" />
<path d="M10660 22460
L10939 22739
" />
<path d="M23403 45700
L23796 45700
" />
<path d="M23403 46700
L23796 46700
" />
<path d="M23403 47700
L23796 47700
" />
<path d="M13503 45700
L13896 45700
" />
<path d="M13503 42700
L13896 42700
" />
<path d="M12403 44700
L12796 44700
" />
<path d="M12403 41700
L12796 41700
" />
<path d="M28103 48400
L28496 48400
" />
<path d="M28103 46400
L28496 46400
" />
</g>
<g style="fill:#000000; fill-opacity:0.0; 
stroke:#000000; stroke-width:472.441; stroke-opacity:1; 
stroke-linecap:round; stroke-linejoin:round;">
<path d="M23416 43700
L22983 43700
" />
<path d="M23416 42700
L22983 42700
" />
<path d="M23416 41700
L22983 41700
" />
<path d="M23416 40700
L22983 40700
" />
<path d="M15451 44700
L16948 44700
" />
<path d="M15451 43700
L16948 43700
" />
<path d="M15451 42700
L16948 42700
" />
<path d="M15451 41700
L16948 41700
" />
<path d="M15451 40700
L16948 40700
" />
<path d="M15451 39700
L16948 39700
" />
</g>
<g style="fill:#000000; fill-opacity:0.0; 
stroke:#000000; stroke-width:511.811; stroke-opacity:1; 
stroke-linecap:round; stroke-linejoin:round;">
<path d="M27800 22996
L27800 22603
" />
<path d="M32500 20246
L32500 19853
" />
<path d="M34046 25600
L33653 25600
" />
<path d="M33403 29900
L33796 29900
" />
<path d="M33203 38600
L33596 38600
" />
<path d="M33803 43800
L34196 43800
" />
<path d="M32500 48896
L32500 48503
" />
<path d="M29200 44896
L29200 44503
" />
<path d="M29200 41896
L29200 41503
" />
<path d="M25403 48400
L25796 48400
" />
<path d="M25403 47415
L25796 47415
" />
<path d="M25796 45100
L25403 45100
" />
<path d="M25796 46084
L25403 46084
" />
</g>
<g style="fill:#000000; fill-opacity:1.0; 
stroke:#000000; stroke-width:0; stroke-opacity:1; 
stroke-linecap:round; stroke-linejoin:round;">
<circle cx="23200" cy="34700" r="393.701" /> 
</g>
<g style="fill:#000000; fill-opacity:1.0; 
stroke:#000000; stroke-width:39.3701; stroke-opacity:1; 
stroke-linecap:round; stroke-linejoin:round;">
</g>
<g style="fill:#000000; fill-opacity:1.0; 
stroke:#000000; stroke-width:393.701; stroke-opacity:1; 
stroke-linecap:round; stroke-linejoin:round;">
</g>
<g style="fill:#000000; fill-opacity:0.0; 
stroke:#000000; stroke-width:393.701; stroke-opacity:1; 
stroke-linecap:round; stroke-linejoin:round;">
<path d="M22000 24994
L20794 24994
" />
<path d="M20500 24100
L22000 22600
" />
<path d="M20500 24700
L20500 24100
" />
<path d="M20794 24994
L20500 24700
" />
<path d="M26300 26805
L26894 26805
" />
<path d="M27800 25900
L27800 22800
" />
<path d="M26894 26805
L27800 25900
" />
<path d="M17500 24994
L18705 24994
" />
<path d="M19000 24100
L17500 22600
" />
<path d="M19000 24700
L19000 24100
" />
<path d="M18705 24994
L19000 24700
" />
<path d="M15300 24994
L14094 24994
" />
<path d="M13800 24100
L15300 22600
" />
<path d="M13800 24700
L13800 24100
" />
<path d="M14094 24994
L13800 24700
" />
<path d="M10800 24994
L12005 24994
" />
<path d="M12300 24100
L10800 22600
" />
<path d="M12300 24700
L12300 24100
" />
<path d="M12005 24994
L12300 24700
" />
<path d="M32494 21700
L32494 20055
" />
<path d="M32494 20055
L32500 20050
" />
<path d="M32494 26700
L32494 26005
" />
<path d="M32494 26005
L32900 25600
" />
<path d="M32900 25600
L33850 25600
" />
<path d="M32494 26005
L32900 25600
" />
<path d="M32494 31300
L32494 30405
" />
<path d="M32494 30405
L33000 29900
" />
<path d="M33000 29900
L33600 29900
" />
<path d="M32494 30405
L33000 29900
" />
<path d="M32494 35300
L32494 37694
" />
<path d="M32494 37694
L33400 38600
" />
<path d="M32494 37694
L33400 38600
" />
<path d="M32494 42400
L32494 42994
" />
<path d="M33300 43800
L33900 43800
" />
<path d="M32494 42994
L33300 43800
" />
<path d="M32494 45200
L32494 48694
" />
<path d="M32494 48694
L32500 48700
" />
</g>
<g style="fill:#000000; fill-opacity:0.0; 
stroke:#000000; stroke-width:196.85; stroke-opacity:1; 
stroke-linecap:round; stroke-linejoin:round;">
<path d="M26300 24200
L23800 24200
" />
<path d="M26300 25000
L26300 25900
" />
<path d="M25000 25900
L26300 25900
" />
</g>
<g style="fill:#000000; fill-opacity:0.0; 
stroke:#000000; stroke-width:393.701; stroke-opacity:1; 
stroke-linecap:round; stroke-linejoin:round;">
<path d="M28300 48400
L30700 48400
" />
<path d="M30700 48400
L31600 47500
" />
<path d="M25600 48400
L28300 48400
" />
<path d="M25600 48400
L24300 48400
" />
<path d="M24300 48400
L23600 47700
" />
<path d="M31588 21700
L31588 23388
" />
<path d="M31588 23388
L31600 23400
" />
<path d="M31588 22000
L31400 22000
" />
<path d="M31400 21700
L29200 23900
" />
<path d="M28100 27700
L26300 27700
" />
<path d="M29200 26600
L28100 27700
" />
<path d="M29200 23900
L29200 26600
" />
<path d="M31588 22000
L31588 23388
" />
<path d="M31588 23388
L31600 23400
" />
<path d="M31588 26700
L31588 23411
" />
<path d="M31588 23411
L31600 23400
" />
<path d="M25000 27711
L26288 27711
" />
<path d="M26288 27711
L26300 27700
" />
<path d="M31600 28100
L31600 31288
" />
<path d="M31600 31288
L31588 31300
" />
<path d="M31588 26700
L31588 28088
" />
<path d="M31588 28088
L31600 28100
" />
<path d="M31588 31300
L31588 32688
" />
<path d="M31588 32688
L31600 32700
" />
<path d="M31588 32500
L31588 35300
" />
<path d="M31588 32500
L31588 31011
" />
<path d="M31588 31011
L31600 31000
" />
<path d="M31600 36600
L31600 35311
" />
<path d="M31600 35311
L31588 35300
" />
<path d="M31600 38611
L31600 36600
" />
<path d="M31588 42400
L31588 40811
" />
<path d="M31588 40811
L31600 40800
" />
<path d="M31588 45200
L31588 47488
" />
<path d="M31588 47488
L31600 47500
" />
<path d="M31600 40800
L31600 38611
" />
<path d="M31600 38611
L31588 38600
" />
<path d="M31588 43800
L31588 40811
" />
<path d="M31588 40811
L31600 40800
" />
<path d="M31600 45100
L31600 43811
" />
<path d="M31600 43811
L31588 43800
" />
<path d="M31600 43811
L31588 43800
" />
</g>
<g style="fill:#000000; fill-opacity:0.0; 
stroke:#000000; stroke-width:196.85; stroke-opacity:1; 
stroke-linecap:round; stroke-linejoin:round;">
<path d="M35100 22700
L35100 24600
" />
<path d="M33400 23400
L33600 23400
" />
<path d="M33600 23400
L34300 22700
" />
<path d="M33400 23400
L33400 21700
" />
<path d="M35100 29200
L35100 27500
" />
<path d="M33400 28100
L34300 27200
" />
<path d="M33400 26700
L33400 28100
" />
<path d="M33400 28100
L33400 28000
" />
<path d="M35100 31800
L35100 33700
" />
<path d="M35100 33700
L35100 32200
" />
<path d="M33400 32700
L34300 31800
" />
<path d="M33400 31300
L33400 32700
" />
<path d="M33400 31000
L33400 32600
" />
<path d="M35100 37800
L35100 36000
" />
<path d="M34300 35700
L33400 36600
" />
<path d="M33400 35300
L33400 36600
" />
<path d="M35100 41500
L35100 39700
" />
<path d="M33400 40800
L33600 40800
" />
<path d="M33600 40800
L34300 41500
" />
<path d="M33400 42400
L33400 40800
" />
<path d="M20500 26500
L20500 29700
" />
<path d="M21500 30700
L24800 30700
" />
<path d="M20500 29700
L21500 30700
" />
<path d="M22000 25900
L21100 25900
" />
<path d="M21100 25900
L20500 26500
" />
<path d="M24800 30700
L25100 30700
" />
<path d="M19000 26500
L19000 30900
" />
<path d="M19800 31700
L24800 31700
" />
<path d="M19000 30900
L19800 31700
" />
<path d="M17500 25900
L18400 25900
" />
<path d="M18400 25900
L19000 26500
" />
<path d="M13800 26500
L13800 27500
" />
<path d="M19000 32700
L24800 32700
" />
<path d="M13800 27500
L19000 32700
" />
<path d="M15300 25900
L14400 25900
" />
<path d="M14400 25900
L13800 26500
" />
<path d="M10800 25900
L11700 25900
" />
<path d="M11700 25900
L12300 26500
" />
<path d="M24800 33700
L18400 33700
" />
<path d="M12300 27600
L12300 26500
" />
<path d="M18400 33700
L12300 27600
" />
<path d="M10600 25900
L10700 25900
" />
<path d="M35100 46500
L35200 46500
" />
<path d="M35200 46500
L35800 47100
" />
<path d="M35800 47100
L35800 47900
" />
<path d="M35800 47900
L35400 48300
" />
<path d="M35400 48300
L34600 48300
" />
<path d="M34300 47500
L33400 47500
" />
<path d="M33400 45200
L33400 47500
" />
<path d="M23800 28900
L26000 28900
" />
<path d="M26000 28900
L27800 30700
" />
<path d="M27800 30700
L28200 30700
" />
<path d="M30400 24600
L30400 27400
" />
<path d="M28800 31700
L27800 31700
" />
<path d="M29200 31300
L28800 31700
" />
<path d="M29200 28600
L29200 31300
" />
<path d="M30400 27400
L29200 28600
" />
<path d="M28200 31700
L27800 31700
" />
<path d="M27800 32700
L29400 32700
" />
<path d="M30400 31700
L30400 29200
" />
<path d="M29400 32700
L30400 31700
" />
<path d="M27800 33700
L30400 33700
" />
<path d="M30400 35600
L30400 37800
" />
<path d="M27800 34700
L29500 34700
" />
<path d="M29500 34700
L30400 35600
" />
<path d="M27800 35700
L28600 35700
" />
<path d="M29100 38400
L30400 39700
" />
<path d="M29100 36200
L29100 38400
" />
<path d="M28600 35700
L29100 36200
" />
<path d="M30400 46200
L30400 44700
" />
<path d="M30400 41400
L27800 38800
" />
<path d="M27800 38800
L27800 36700
" />
<path d="M30400 44700
L30400 41400
" />
<path d="M23200 42700
L24800 42700
" />
<path d="M16200 42700
L23200 42700
" />
<path d="M10700 42700
L13700 42700
" />
<path d="M13700 42700
L16200 42700
" />
<path d="M13700 42700
L15200 42700
" />
<path d="M19900 42700
L21600 42700
" />
<path d="M15200 42700
L19900 42700
" />
<path d="M22100 42700
L21600 42700
" />
<path d="M24800 42700
L22100 42700
" />
<path d="M10700 42700
L13700 42700
" />
<path d="M12600 41700
L10700 41700
" />
<path d="M16200 41700
L12600 41700
" />
<path d="M23200 41700
L16200 41700
" />
<path d="M24800 41700
L23200 41700
" />
<path d="M15200 41700
L23200 41700
" />
<path d="M15200 41700
L12300 41700
" />
<path d="M12300 41700
L10700 41700
" />
<path d="M18500 41700
L15200 41700
" />
<path d="M21600 41700
L18500 41700
" />
<path d="M22100 41700
L21400 41700
" />
<path d="M24800 41700
L22100 41700
" />
<path d="M24800 41700
L24400 41700
" />
<path d="M24800 41700
L24700 41700
" />
<path d="M24800 38700
L24200 38700
" />
<path d="M23200 37700
L23200 36347
" />
<path d="M24200 38700
L23200 37700
" />
<path d="M26400 42900
L26400 44200
" />
<path d="M26400 44200
L27300 45100
" />
<path d="M25600 45100
L27300 45100
" />
<path d="M27300 45100
L28800 45100
" />
<path d="M28800 45100
L29200 44700
" />
<path d="M25600 45100
L24200 45100
" />
<path d="M24200 45100
L23600 45700
" />
<path d="M16200 43700
L21700 43700
" />
<path d="M12600 44700
L12600 45200
" />
<path d="M13100 45700
L13700 45700
" />
<path d="M12600 45200
L13100 45700
" />
<path d="M15200 43700
L13600 43700
" />
<path d="M13600 43700
L12600 44700
" />
<path d="M23200 43700
L25600 43700
" />
<path d="M25600 43700
L26400 42900
" />
<path d="M23200 43700
L21700 43700
" />
<path d="M24800 38700
L25500 38700
" />
<path d="M26400 42900
L26400 40000
" />
<path d="M26400 39700
L26400 40000
" />
<path d="M25500 38700
L26400 39600
" />
<path d="M26400 39600
L26400 39700
" />
<path d="M21700 43700
L15200 43700
" />
<path d="M12300 44700
L12700 44700
" />
<path d="M24800 38700
L24547 38700
" />
<path d="M24500 38700
L24800 38700
" />
<path d="M27800 40700
L28200 40700
" />
<path d="M28200 40700
L29200 41700
" />
<path d="M16200 40700
L21700 40700
" />
<path d="M23200 34700
L21700 34700
" />
</g>
<g style="fill:#000000; fill-opacity:1.0; 
stroke:#000000; stroke-width:100; stroke-opacity:1; 
stroke-linecap:round; stroke-linejoin:round;">
<polyline style="fill-rule:evenodd;"
points="38250,50950
8200,50950
8200,48700
10220,48700
10295,49074
10507,49392
10825,49604
11200,49679
11574,49604
11892,49392
12104,49074
12179,48700
20220,48700
20295,49074
20507,49392
20825,49604
21200,49679
21574,49604
21892,49392
22104,49074
22179,48700
22104,48325
21892,48007
21574,47795
21200,47720
20825,47795
20507,48007
20295,48325
20220,48700
12179,48700
12104,48325
11892,48007
11574,47795
11200,47720
10825,47795
10507,48007
10295,48325
10220,48700
8200,48700
8200,47700
22766,47700
22813,47937
22948,48139
23149,48273
23387,48320
23426,48320
23902,48797
24085,48919
24300,48961
25131,48961
25149,48973
25387,49020
25812,49020
26050,48973
26068,48961
27831,48961
27849,48973
28087,49020
28512,49020
28750,48973
28768,48961
30700,48961
30914,48919
31097,48797
31567,48327
31600,48333
31837,48286
31932,48222
31932,48240
31926,48249
31879,48487
31879,48912
31926,49150
32060,49351
32262,49486
32500,49533
32737,49486
32939,49351
33073,49150
33120,48912
33120,48487
33073,48249
33056,48223
33056,48077
33206,48178
33400,48216
33593,48178
33757,48068
33867,47904
33878,47848
34093,47848
34170,47900
34086,47956
33980,48113
33943,48300
33980,48486
34086,48643
34243,48749
34429,48786
34770,48786
34956,48749
35106,48648
35399,48648
35400,48648
35511,48626
35533,48621
35646,48546
36046,48146
36046,48146
36121,48033
36136,47960
36148,47900
36148,47899
36148,47100
36121,46966
36046,46853
36046,46853
35795,46603
35816,46500
35778,46306
35668,46142
35504,46032
35310,45994
34889,45994
34695,46032
34531,46142
34421,46306
34383,46500
34421,46693
34531,46857
34695,46967
34889,47005
35213,47005
35451,47244
35451,47755
35255,47951
35106,47951
35029,47900
35113,47843
35219,47686
35256,47500
35219,47313
35113,47156
34956,47050
34770,47013
34429,47013
34243,47050
34093,47151
33878,47151
33867,47095
33757,46931
33748,46925
33748,45787
33849,45636
33886,45450
33886,44949
33849,44763
33743,44605
33586,44500
33400,44463
33213,44500
33056,44605
33015,44666
32919,44522
32724,44391
32494,44346
32264,44391
32161,44460
32161,43811
32150,43755
32150,43445
32902,44197
33085,44319
33300,44361
33531,44361
33549,44373
33787,44420
34212,44420
34450,44373
34651,44239
34786,44037
34833,43800
34786,43562
34651,43360
34450,43226
34212,43179
33787,43179
33549,43226
33532,43237
33425,43131
33586,43099
33743,42994
33849,42836
33886,42650
33886,42149
33849,41963
33748,41812
33748,41441
33813,41506
33813,41670
33850,41856
33956,42013
34113,42119
34300,42156
34486,42119
34643,42013
34700,41929
34756,42013
34913,42119
35100,42156
35286,42119
35443,42013
35549,41856
35586,41670
35586,41329
35549,41143
35448,40993
35448,40274
35457,40268
35567,40104
35605,39910
35605,39489
35567,39295
35457,39131
35293,39021
35100,38983
34906,39021
34742,39131
34632,39295
34594,39489
34594,39910
34632,40104
34742,40268
34751,40274
34751,40993
34700,41070
34643,40986
34486,40880
34300,40843
34163,40870
33905,40613
33905,40589
33867,40395
33757,40231
33593,40121
33400,40083
33206,40121
33042,40231
32932,40395
32894,40589
32894,41010
32932,41204
33042,41368
33051,41374
33051,41812
33015,41866
32919,41722
32724,41591
32494,41546
32264,41591
32150,41667
32150,41284
32173,41250
32220,41012
32220,40587
32173,40349
32161,40331
32161,38156
32572,38567
32566,38600
32613,38837
32748,39039
32949,39173
33187,39220
33612,39220
33850,39173
34051,39039
34186,38837
34233,38600
34186,38362
34051,38160
33850,38026
33612,37979
33573,37979
33056,37461
33056,37177
33206,37278
33400,37316
33593,37278
33757,37168
33867,37004
33905,36810
33905,36586
34163,36329
34300,36356
34486,36319
34643,36213
34700,36129
34751,36206
34751,37225
34742,37231
34632,37395
34594,37589
34594,38010
34632,38204
34742,38368
34906,38478
35100,38516
35293,38478
35457,38368
35567,38204
35605,38010
35605,37589
35567,37395
35457,37231
35448,37225
35448,36206
35549,36056
35586,35870
35586,35529
35549,35343
35443,35186
35286,35080
35100,35043
34913,35080
34756,35186
34700,35270
34643,35186
34486,35080
34300,35043
34113,35080
33956,35186
33886,35290
33886,35049
33849,34863
33743,34705
33586,34600
33400,34563
33213,34600
33056,34705
33015,34766
32919,34622
32724,34491
32494,34446
32264,34491
32150,34567
32150,33184
32173,33150
32220,32912
32220,32487
32173,32249
32150,32215
32150,32032
32264,32108
32494,32153
32724,32108
32919,31977
33015,31833
33051,31887
33051,32125
33042,32131
32932,32295
32894,32489
32894,32910
32932,33104
33042,33268
33206,33378
33400,33416
33593,33378
33757,33268
33867,33104
33905,32910
33905,32686
34163,32429
34300,32456
34486,32419
34643,32313
34700,32229
34751,32306
34751,33125
34742,33131
34632,33295
34594,33489
34594,33910
34632,34104
34742,34268
34906,34378
35100,34416
35293,34378
35457,34268
35567,34104
35605,33910
35605,33489
35567,33295
35457,33131
35448,33125
35448,32306
35549,32156
35586,31970
35586,31629
35549,31443
35443,31286
35286,31180
35100,31143
34913,31180
34756,31286
34700,31370
34643,31286
34486,31180
34300,31143
34113,31180
33956,31286
33886,31390
33886,31049
33849,30863
33743,30705
33586,30600
33400,30563
33213,30600
33056,30705
33056,30638
33209,30485
33387,30520
33812,30520
34050,30473
34251,30339
34386,30137
34433,29900
34386,29662
34251,29460
34050,29326
33812,29279
33387,29279
33149,29326
33131,29338
33000,29338
32820,29373
32785,29380
32602,29502
32161,29943
32161,28568
32173,28550
32220,28312
32220,27887
32173,27649
32150,27615
32150,27432
32264,27508
32494,27553
32724,27508
32919,27377
33015,27233
33051,27287
33051,27525
33042,27531
32932,27695
32894,27889
32894,28310
32932,28504
33042,28668
33206,28778
33400,28816
33593,28778
33757,28668
33867,28504
33905,28310
33905,28086
34163,27829
34300,27856
34486,27819
34643,27713
34700,27629
34751,27706
34751,28625
34742,28631
34632,28795
34594,28989
34594,29410
34632,29604
34742,29768
34906,29878
35100,29916
35293,29878
35457,29768
35567,29604
35605,29410
35605,28989
35567,28795
35457,28631
35448,28625
35448,27706
35549,27556
35586,27370
35586,27029
35549,26843
35443,26686
35286,26580
35100,26543
34913,26580
34756,26686
34700,26770
34643,26686
34486,26580
34300,26543
34113,26580
33956,26686
33886,26790
33886,26449
33849,26263
33820,26220
34062,26220
34300,26173
34501,26039
34636,25837
34683,25600
34636,25362
34501,25160
34300,25026
34062,24979
33637,24979
33399,25026
33381,25038
32900,25038
32685,25080
32502,25202
32150,25554
32150,23884
32173,23850
32220,23612
32220,23187
32173,22949
32150,22915
32150,22432
32264,22508
32494,22553
32724,22508
32919,22377
33015,22233
33051,22287
33051,22825
33042,22831
32932,22995
32894,23189
32894,23610
32932,23804
33042,23968
33206,24078
33400,24116
33593,24078
33757,23968
33867,23804
33905,23610
33905,23586
34163,23329
34300,23356
34486,23319
34643,23213
34700,23129
34751,23206
34751,24025
34742,24031
34632,24195
34594,24389
34594,24810
34632,25004
34742,25168
34906,25278
35100,25316
35293,25278
35457,25168
35567,25004
35605,24810
35605,24389
35567,24195
35457,24031
35448,24025
35448,23206
35549,23056
35586,22870
35586,22529
35549,22343
35443,22186
35286,22080
35100,22043
34913,22080
34756,22186
34700,22270
34643,22186
34486,22080
34300,22043
34113,22080
33956,22186
33850,22343
33813,22529
33813,22693
33748,22758
33748,22287
33849,22136
33886,21950
33886,21449
33849,21263
33743,21105
33586,21000
33400,20963
33213,21000
33056,21105
33056,20526
33073,20500
33120,20262
33120,19837
33073,19599
32939,19398
32737,19263
32500,19216
32262,19263
32060,19398
31926,19599
31879,19837
31879,20262
31926,20500
31932,20509
31932,20967
31819,20891
31588,20846
31358,20891
31163,21022
31033,21217
31018,21292
31002,21302
28802,23502
28680,23685
28638,23900
28638,26367
27867,27138
27356,27138
28197,26297
28319,26114
28326,26079
28361,25900
28361,23268
28373,23250
28420,23012
28420,22587
28373,22349
28239,22148
28037,22013
27800,21966
27562,22013
27360,22148
27226,22349
27179,22587
27179,23012
27226,23250
27238,23268
27238,25667
27031,25874
26999,25713
26894,25556
26736,25450
26672,25438
26813,25343
26919,25186
26956,25000
26919,24813
26813,24656
26729,24600
26813,24543
26919,24386
26956,24200
26919,24013
26813,23856
26656,23750
26470,23713
26129,23713
25943,23750
25793,23851
24374,23851
24368,23842
24204,23732
24010,23694
23589,23694
23395,23732
23231,23842
23121,24006
23083,24200
23121,24393
23231,24557
23395,24667
23589,24705
24010,24705
24204,24667
24368,24557
24374,24548
25793,24548
25870,24600
25786,24656
25680,24813
25643,25000
25680,25186
25786,25343
25927,25438
25863,25450
25712,25551
25574,25551
25568,25542
25404,25432
25210,25394
24789,25394
24595,25432
24431,25542
24321,25706
24283,25900
24321,26093
24431,26257
24595,26367
24789,26405
25210,26405
25404,26367
25568,26257
25574,26248
25712,26248
25766,26284
25622,26380
25491,26575
25446,26805
25491,27035
25567,27149
25484,27149
25450,27126
25212,27079
24787,27079
24549,27126
24348,27260
24213,27462
24166,27700
24213,27937
24348,28139
24549,28273
24787,28320
25212,28320
25450,28273
25451,28272
25849,28272
26047,28312
26552,28312
26782,28266
26789,28261
28100,28261
28314,28219
28497,28097
29597,26997
29719,26814
29761,26600
29761,24132
31027,22867
31027,22948
31026,22949
30979,23187
30979,23612
31026,23850
31027,23851
31027,26249
30987,26447
30987,26952
31027,27150
31027,27648
31026,27649
30979,27887
30979,28312
31026,28550
31038,28568
31038,30810
31033,30817
30987,31047
30987,31552
31027,31750
31027,32248
31026,32249
30979,32487
30979,32912
31026,33150
31027,33151
31027,34849
30987,35047
30987,35552
31033,35782
31038,35789
31038,36131
31026,36149
30979,36387
30979,36812
31026,37050
31038,37068
31038,38544
31027,38600
31038,38655
31038,40331
31026,40349
30979,40587
30979,41012
31026,41250
31027,41251
31027,41949
30987,42147
30987,42652
31027,42850
31027,43800
31038,43855
31038,44710
31033,44717
30987,44947
30987,45452
31027,45650
31027,47048
31026,47049
30979,47287
30979,47326
30467,47838
28768,47838
28750,47826
28512,47779
28087,47779
27849,47826
27831,47838
26068,47838
26050,47826
25812,47779
25387,47779
25149,47826
25131,47838
24532,47838
24427,47732
24433,47700
24386,47462
24251,47260
24050,47126
23812,47079
23387,47079
23149,47126
22948,47260
22813,47462
22766,47700
8200,47700
8200,44700
11883,44700
11921,44893
12031,45057
12195,45167
12251,45178
12251,45199
12251,45200
12270,45293
12278,45333
12333,45416
12353,45446
12853,45946
12853,45946
12925,45994
12966,46021
13100,46048
13100,46048
13125,46048
13131,46057
13295,46167
13489,46205
13910,46205
14104,46167
14268,46057
14378,45893
14416,45700
14378,45506
14268,45342
14104,45232
13910,45194
13489,45194
13295,45232
13193,45300
13037,45144
13168,45057
13278,44893
13316,44700
13279,44513
13744,44048
15090,44048
15241,44149
15427,44186
16972,44186
17158,44149
17309,44048
21132,44048
21283,44149
21469,44186
21930,44186
22116,44149
22267,44048
22632,44048
22783,44149
22969,44186
23430,44186
23616,44149
23767,44048
25599,44048
25600,44048
25712,44026
25733,44021
25846,43946
26051,43741
26051,44199
26051,44200
26070,44295
26078,44333
26136,44420
26153,44446
26458,44751
26174,44751
26168,44742
26004,44632
25810,44594
25389,44594
25195,44632
25031,44742
25025,44751
24200,44751
24066,44778
23953,44853
23953,44853
23613,45194
23389,45194
23195,45232
23031,45342
22921,45506
22883,45700
22921,45893
23031,46057
23195,46167
23389,46205
23810,46205
24004,46167
24168,46057
24278,45893
24316,45700
24279,45513
24344,45448
25025,45448
25031,45457
25195,45567
25389,45605
25810,45605
26004,45567
26168,45457
26174,45448
27299,45448
27300,45448
27300,45448
28799,45448
28800,45448
28911,45426
28933,45421
29002,45375
29006,45378
29200,45416
29393,45378
29557,45268
29667,45104
29705,44910
29705,44489
29667,44295
29557,44131
29393,44021
29200,43983
29006,44021
28842,44131
28732,44295
28694,44489
28694,44713
28655,44751
27444,44751
26748,44055
26748,42900
26748,42900
26748,42899
26748,40700
27063,40700
27100,40886
27205,41043
27363,41149
27549,41186
28050,41186
28169,41162
28694,41686
28694,41910
28732,42104
28842,42268
29006,42378
29200,42416
29393,42378
29557,42268
29667,42104
29705,41910
29705,41489
29667,41295
29557,41131
29393,41021
29200,40983
29013,41020
28485,40492
28394,40356
28236,40250
28050,40213
27549,40213
27363,40250
27205,40356
27100,40513
27063,40700
26748,40700
26748,39600
26748,39600
26721,39466
26713,39453
26646,39353
26646,39353
25746,38453
25743,38451
25633,38378
25611,38373
25500,38351
25499,38351
25387,38351
25236,38250
25050,38213
24549,38213
24363,38250
24291,38298
23548,37555
23548,36921
23557,36915
23667,36751
23677,36700
27063,36700
27100,36886
27205,37043
27363,37149
27451,37166
27451,38799
27451,38800
27468,38886
27478,38933
27551,39043
27553,39046
30051,41544
30051,45925
30042,45931
29932,46095
29894,46289
29894,46710
29932,46904
30042,47068
30206,47178
30400,47216
30593,47178
30757,47068
30867,46904
30905,46710
30905,46289
30867,46095
30757,45931
30748,45925
30748,41400
30721,41266
30646,41153
30646,41153
28148,38655
28148,37166
28236,37149
28394,37043
28499,36886
28536,36700
28499,36513
28394,36356
28236,36250
28050,36213
27549,36213
27363,36250
27205,36356
27100,36513
27063,36700
23677,36700
23705,36557
23705,36136
23667,35943
23557,35778
23439,35700
27063,35700
27100,35886
27205,36043
27363,36149
27549,36186
28050,36186
28236,36149
28387,36048
28455,36048
28751,36344
28751,38399
28751,38400
28767,38478
28778,38533
28800,38566
28853,38646
29894,39686
29894,39910
29932,40104
30042,40268
30206,40378
30400,40416
30593,40378
30757,40268
30867,40104
30905,39910
30905,39489
30867,39295
30757,39131
30593,39021
30400,38983
30213,39020
29448,38255
29448,36200
29448,36200
29421,36066
29398,36031
29346,35953
29346,35953
28846,35453
28733,35378
28711,35373
28600,35351
28599,35351
28387,35351
28236,35250
28050,35213
27549,35213
27363,35250
27205,35356
27100,35513
27063,35700
23439,35700
23393,35669
23200,35630
23006,35669
22842,35778
22732,35943
22694,36136
22694,36557
22732,36751
22842,36915
22851,36921
22851,37699
22851,37700
22871,37800
22878,37833
22944,37933
22953,37946
23953,38946
23953,38946
24029,38997
24066,39021
24200,39048
24212,39048
24363,39149
24549,39186
25050,39186
25236,39149
25368,39061
26051,39744
26051,42755
25455,43351
23767,43351
23616,43250
23430,43213
22969,43213
22783,43250
22632,43351
22267,43351
22116,43250
21930,43213
21469,43213
21283,43250
21132,43351
17309,43351
17158,43250
16972,43213
15427,43213
15241,43250
15090,43351
13600,43351
13466,43378
13353,43453
13353,43453
12613,44194
12389,44194
12195,44232
12031,44342
11921,44506
11883,44700
8200,44700
8200,42700
9983,42700
10020,42886
10125,43043
10283,43149
10469,43186
10930,43186
11116,43149
11267,43048
13125,43048
13131,43057
13295,43167
13489,43205
13910,43205
14104,43167
14268,43057
14274,43048
15090,43048
15241,43149
15427,43186
16972,43186
17158,43149
17309,43048
22632,43048
22783,43149
22969,43186
23430,43186
23616,43149
23767,43048
24212,43048
24363,43149
24549,43186
25050,43186
25236,43149
25394,43043
25499,42886
25536,42700
25499,42513
25394,42356
25236,42250
25050,42213
24549,42213
24363,42250
24212,42351
23767,42351
23616,42250
23430,42213
22969,42213
22783,42250
22632,42351
17309,42351
17158,42250
16972,42213
15427,42213
15241,42250
15090,42351
14274,42351
14268,42342
14104,42232
13910,42194
13489,42194
13295,42232
13131,42342
13125,42351
11267,42351
11116,42250
10930,42213
10469,42213
10283,42250
10125,42356
10020,42513
9983,42700
8200,42700
8200,41700
9983,41700
10020,41886
10125,42043
10283,42149
10469,42186
10930,42186
11116,42149
11267,42048
12025,42048
12031,42057
12195,42167
12389,42205
12810,42205
13004,42167
13168,42057
13174,42048
15090,42048
15241,42149
15427,42186
16972,42186
17158,42149
17309,42048
22632,42048
22783,42149
22969,42186
23430,42186
23616,42149
23767,42048
24212,42048
24363,42149
24549,42186
25050,42186
25236,42149
25394,42043
25499,41886
25536,41700
25499,41513
25394,41356
25236,41250
25050,41213
24549,41213
24363,41250
24212,41351
23767,41351
23616,41250
23430,41213
22969,41213
22783,41250
22632,41351
17309,41351
17158,41250
16972,41213
15427,41213
15241,41250
15090,41351
13174,41351
13168,41342
13004,41232
12810,41194
12389,41194
12195,41232
12031,41342
12025,41351
11267,41351
11116,41250
10930,41213
10469,41213
10283,41250
10125,41356
10020,41513
9983,41700
8200,41700
8200,40700
14941,40700
14978,40886
15083,41043
15241,41149
15427,41186
16972,41186
17158,41149
17309,41048
21132,41048
21283,41149
21469,41186
21930,41186
22116,41149
22274,41043
22379,40886
22416,40700
22379,40513
22274,40356
22116,40250
21930,40213
21469,40213
21283,40250
21132,40351
17309,40351
17158,40250
16972,40213
15427,40213
15241,40250
15083,40356
14978,40513
14941,40700
8200,40700
8200,39700
14941,39700
14978,39886
15083,40043
15241,40149
15427,40186
16972,40186
17158,40149
17316,40043
17421,39886
17458,39700
17421,39513
17316,39356
17158,39250
16972,39213
15427,39213
15241,39250
15083,39356
14978,39513
14941,39700
8200,39700
8200,34700
20983,34700
21020,34886
21125,35043
21283,35149
21469,35186
21930,35186
22116,35149
22267,35048
22647,35048
22653,35064
22834,35245
23071,35343
23327,35343
23564,35246
23745,35065
23843,34828
23843,34700
27063,34700
27100,34886
27205,35043
27363,35149
27549,35186
28050,35186
28236,35149
28387,35048
29355,35048
30051,35744
30051,37225
30042,37231
29932,37395
29894,37589
29894,38010
29932,38204
30042,38368
30206,38478
30400,38516
30593,38478
30757,38368
30867,38204
30905,38010
30905,37589
30867,37395
30757,37231
30748,37225
30748,35600
30748,35600
30721,35466
30713,35453
30646,35353
30646,35353
29746,34453
29690,34416
29633,34378
29611,34373
29500,34351
29499,34351
28387,34351
28236,34250
28050,34213
27549,34213
27363,34250
27205,34356
27100,34513
27063,34700
23843,34700
23843,34572
23746,34335
23565,34154
23328,34056
23072,34056
22835,34153
22654,34334
22647,34351
22267,34351
22116,34250
21930,34213
21469,34213
21283,34250
21125,34356
21020,34513
20983,34700
8200,34700
8200,24994
9946,24994
9991,25224
10122,25419
10266,25515
10205,25556
10100,25713
10063,25900
10100,26086
10205,26243
10363,26349
10549,26386
11050,26386
11236,26349
11387,26248
11555,26248
11620,26313
11583,26500
11621,26693
11731,26857
11895,26967
11951,26978
11951,27599
11951,27600
11970,27695
11978,27733
12035,27819
12053,27846
18153,33946
18153,33946
18266,34021
18288,34026
18400,34048
18400,34048
24212,34048
24363,34149
24549,34186
25050,34186
25236,34149
25394,34043
25499,33886
25536,33700
27063,33700
27100,33886
27205,34043
27363,34149
27549,34186
28050,34186
28236,34149
28387,34048
29921,34048
29932,34104
30042,34268
30206,34378
30400,34416
30593,34378
30757,34268
30867,34104
30905,33910
30905,33489
30867,33295
30757,33131
30593,33021
30400,32983
30206,33021
30042,33131
29932,33295
29921,33351
28387,33351
28236,33250
28050,33213
27549,33213
27363,33250
27205,33356
27100,33513
27063,33700
25536,33700
25499,33513
25394,33356
25236,33250
25050,33213
24549,33213
24363,33250
24212,33351
18544,33351
12648,27455
12648,26978
12704,26967
12868,26857
12978,26693
13016,26500
13083,26500
13121,26693
13231,26857
13395,26967
13451,26978
13451,27499
13451,27500
13467,27580
13478,27633
13517,27691
13553,27746
18753,32946
18753,32946
18866,33021
18888,33026
19000,33048
19000,33048
24212,33048
24363,33149
24549,33186
25050,33186
25236,33149
25394,33043
25499,32886
25536,32700
27063,32700
27100,32886
27205,33043
27363,33149
27549,33186
28050,33186
28236,33149
28387,33048
29399,33048
29400,33048
29511,33026
29533,33021
29646,32946
30646,31946
30646,31946
30721,31833
30748,31700
30748,29774
30757,29768
30867,29604
30905,29410
30905,28989
30867,28795
30757,28631
30593,28521
30400,28483
30206,28521
30042,28631
29932,28795
29894,28989
29894,29410
29932,29604
30042,29768
30051,29774
30051,31555
29255,32351
28387,32351
28236,32250
28050,32213
27549,32213
27363,32250
27205,32356
27100,32513
27063,32700
25536,32700
25499,32513
25394,32356
25236,32250
25050,32213
24549,32213
24363,32250
24212,32351
19144,32351
14148,27355
14148,26978
14204,26967
14368,26857
14478,26693
14516,26500
14479,26313
14544,26248
14712,26248
14863,26349
15049,26386
15550,26386
15736,26349
15894,26243
15999,26086
16036,25900
15999,25713
15894,25556
15833,25515
15977,25419
16108,25224
16153,24994
16646,24994
16691,25224
16822,25419
16966,25515
16905,25556
16800,25713
16763,25900
16800,26086
16905,26243
17063,26349
17249,26386
17750,26386
17936,26349
18087,26248
18255,26248
18320,26313
18283,26500
18321,26693
18431,26857
18595,26967
18651,26978
18651,30899
18651,30900
18664,30967
18678,31033
18705,31073
18753,31146
19553,31946
19553,31946
19666,32021
19688,32026
19800,32048
19800,32048
24212,32048
24363,32149
24549,32186
25050,32186
25236,32149
25394,32043
25499,31886
25536,31700
27063,31700
27100,31886
27205,32043
27363,32149
27549,32186
28050,32186
28236,32149
28387,32048
28799,32048
28800,32048
28911,32026
28933,32021
29046,31946
29446,31546
29446,31546
29521,31433
29532,31378
29548,31300
29548,31299
29548,28744
30646,27646
30646,27646
30721,27533
30729,27496
30748,27400
30748,27399
30748,25174
30757,25168
30867,25004
30905,24810
30905,24389
30867,24195
30757,24031
30593,23921
30400,23883
30206,23921
30042,24031
29932,24195
29894,24389
29894,24810
29932,25004
30042,25168
30051,25174
30051,27255
28953,28353
28878,28466
28878,28466
28851,28600
28851,28600
28851,31155
28655,31351
28387,31351
28236,31250
28050,31213
27549,31213
27363,31250
27205,31356
27100,31513
27063,31700
25536,31700
25499,31513
25394,31356
25236,31250
25050,31213
24549,31213
24363,31250
24212,31351
19944,31351
19348,30755
19348,26978
19404,26967
19568,26857
19678,26693
19716,26500
19783,26500
19821,26693
19931,26857
20095,26967
20151,26978
20151,29699
20151,29700
20173,29811
20178,29833
20213,29886
20253,29946
21253,30946
21253,30946
21333,31000
21366,31021
21500,31048
24212,31048
24363,31149
24549,31186
25050,31186
25236,31149
25394,31043
25499,30886
25536,30700
25499,30513
25394,30356
25236,30250
25050,30213
24549,30213
24363,30250
24212,30351
21644,30351
20848,29555
20848,28900
23083,28900
23121,29093
23231,29257
23395,29367
23589,29405
24010,29405
24204,29367
24368,29257
24374,29248
25855,29248
27108,30501
27100,30513
27063,30700
27100,30886
27205,31043
27363,31149
27549,31186
28050,31186
28236,31149
28394,31043
28499,30886
28505,30858
28521,30833
28548,30700
28521,30566
28505,30541
28499,30513
28394,30356
28236,30250
28050,30213
27806,30213
26246,28653
26178,28608
26133,28578
26111,28573
26000,28551
25999,28551
24374,28551
24368,28542
24204,28432
24010,28394
23589,28394
23395,28432
23231,28542
23121,28706
23083,28900
20848,28900
20848,26978
20904,26967
21068,26857
21178,26693
21216,26500
21179,26313
21244,26248
21412,26248
21563,26349
21749,26386
22250,26386
22436,26349
22594,26243
22699,26086
22736,25900
22699,25713
22594,25556
22533,25515
22677,25419
22808,25224
22853,24994
22808,24764
22677,24569
22482,24439
22252,24393
21747,24393
21549,24432
21061,24432
21061,24332
22066,23328
22087,23324
22288,23189
22589,22888
22724,22687
22771,22449
22724,22211
22589,22010
22388,21875
22150,21828
21912,21875
21711,22010
21410,22311
21275,22512
21271,22533
20102,23702
19980,23885
19938,24100
19938,24700
19960,24813
19980,24914
20102,25097
20397,25391
20579,25513
20794,25556
21076,25556
20966,25578
20853,25653
20853,25653
20513,25994
20289,25994
20095,26032
19931,26142
19821,26306
19783,26500
19716,26500
19678,26306
19568,26142
19404,26032
19210,25994
18986,25994
18646,25653
18533,25578
18511,25573
18423,25556
18705,25556
18920,25513
19102,25391
19397,25097
19519,24914
19561,24700
19561,24100
19519,23885
19467,23808
19397,23702
18228,22533
18224,22512
18089,22311
17788,22010
17587,21875
17349,21828
17111,21875
16910,22010
16775,22211
16728,22449
16775,22687
16910,22888
17211,23189
17412,23324
17433,23328
18438,24332
18438,24432
17950,24432
17752,24393
17247,24393
17017,24439
16822,24569
16691,24764
16646,24994
16153,24994
16108,24764
15977,24569
15782,24439
15552,24393
15047,24393
14849,24432
14361,24432
14361,24332
15366,23328
15387,23324
15588,23189
15889,22888
16024,22687
16071,22449
16024,22211
15889,22010
15688,21875
15450,21828
15212,21875
15011,22010
14710,22311
14575,22512
14571,22533
13402,23702
13280,23885
13238,24100
13238,24700
13260,24813
13280,24914
13402,25097
13697,25391
13879,25513
14094,25556
14376,25556
14266,25578
14153,25653
14153,25653
13813,25994
13589,25994
13395,26032
13231,26142
13121,26306
13083,26500
13016,26500
12978,26306
12868,26142
12704,26032
12510,25994
12286,25994
11946,25653
11833,25578
11811,25573
11723,25556
12005,25556
12220,25513
12402,25391
12697,25097
12819,24914
12861,24700
12861,24100
12819,23885
12767,23808
12697,23702
11528,22533
11524,22512
11389,22311
11088,22010
10887,21875
10649,21828
10411,21875
10210,22010
10075,22211
10028,22449
10075,22687
10210,22888
10511,23189
10712,23324
10733,23328
11738,24332
11738,24432
11250,24432
11052,24393
10547,24393
10317,24439
10122,24569
9991,24764
9946,24994
8200,24994
8200,19100
8920,19100
8995,19474
9207,19792
9525,20004
9900,20079
10274,20004
10592,19792
10804,19474
10879,19100
35620,19100
35695,19474
35907,19792
36225,20004
36600,20079
36974,20004
37292,19792
37504,19474
37579,19100
37504,18725
37292,18407
36974,18195
36600,18120
36225,18195
35907,18407
35695,18725
35620,19100
10879,19100
10804,18725
10592,18407
10274,18195
9900,18120
9525,18195
9207,18407
8995,18725
8920,19100
8200,19100
8200,17400
38250,17400
38250,50950
" /> 
</g>
<g style="fill:#FFFFFF; fill-opacity:1.0; 
stroke:#FFFFFF; stroke-width:100; stroke-opacity:1; 
stroke-linecap:round; stroke-linejoin:round;">
</g>
<g style="fill:#FFFFFF; fill-opacity:1.0; 
stroke:#FFFFFF; stroke-width:0; stroke-opacity:1; 
stroke-linecap:round; stroke-linejoin:round;">
<circle cx="21700" cy="44700" r="68.8976" /> 
</g>
<g style="fill:#FFFFFF; fill-opacity:1.0; 
stroke:#FFFFFF; stroke-width:39.3701; stroke-opacity:1; 
stroke-linecap:round; stroke-linejoin:round;">
</g>
<g style="fill:#FFFFFF; fill-opacity:1.0; 
stroke:#FFFFFF; stroke-width:0; stroke-opacity:1; 
stroke-linecap:round; stroke-linejoin:round;">
<circle cx="21700" cy="43700" r="68.8976" /> 
</g>
<g style="fill:#FFFFFF; fill-opacity:1.0; 
stroke:#FFFFFF; stroke-width:39.3701; stroke-opacity:1; 
stroke-linecap:round; stroke-linejoin:round;">
</g>
<g style="fill:#FFFFFF; fill-opacity:1.0; 
stroke:#FFFFFF; stroke-width:0; stroke-opacity:1; 
stroke-linecap:round; stroke-linejoin:round;">
<circle cx="21700" cy="40700" r="68.8976" /> 
</g>
<g style="fill:#FFFFFF; fill-opacity:1.0; 
stroke:#FFFFFF; stroke-width:39.3701; stroke-opacity:1; 
stroke-linecap:round; stroke-linejoin:round;">
</g>
<g style="fill:#FFFFFF; fill-opacity:1.0; 
stroke:#FFFFFF; stroke-width:0; stroke-opacity:1; 
stroke-linecap:round; stroke-linejoin:round;">
<circle cx="21700" cy="34700" r="68.8976" /> 
</g>
<g style="fill:#FFFFFF; fill-opacity:1.0; 
stroke:#FFFFFF; stroke-width:39.3701; stroke-opacity:1; 
stroke-linecap:round; stroke-linejoin:round;">
</g>
<g style="fill:#FFFFFF; fill-opacity:1.0; 
stroke:#FFFFFF; stroke-width:0; stroke-opacity:1; 
stroke-linecap:round; stroke-linejoin:round;">
<circle cx="10700" cy="41700" r="68.8976" /> 
</g>
<g style="fill:#FFFFFF; fill-opacity:1.0; 
stroke:#FFFFFF; stroke-width:39.3701; stroke-opacity:1; 
stroke-linecap:round; stroke-linejoin:round;">
</g>
<g style="fill:#FFFFFF; fill-opacity:1.0; 
stroke:#FFFFFF; stroke-width:0; stroke-opacity:1; 
stroke-linecap:round; stroke-linejoin:round;">
<circle cx="10700" cy="42700" r="68.8976" /> 
</g>
<g style="fill:#FFFFFF; fill-opacity:1.0; 
stroke:#FFFFFF; stroke-width:39.3701; stroke-opacity:1; 
stroke-linecap:round; stroke-linejoin:round;">
</g>
<g style="fill:#FFFFFF; fill-opacity:1.0; 
stroke:#FFFFFF; stroke-width:0; stroke-opacity:1; 
stroke-linecap:round; stroke-linejoin:round;">
<circle cx="35100" cy="39700" r="68.8976" /> 
</g>
<g style="fill:#FFFFFF; fill-opacity:1.0; 
stroke:#FFFFFF; stroke-width:39.3701; stroke-opacity:1; 
stroke-linecap:round; stroke-linejoin:round;">
</g>
<g style="fill:#FFFFFF; fill-opacity:1.0; 
stroke:#FFFFFF; stroke-width:0; stroke-opacity:1; 
stroke-linecap:round; stroke-linejoin:round;">
<circle cx="30400" cy="39700" r="68.8976" /> 
</g>
<g style="fill:#FFFFFF; fill-opacity:1.0; 
stroke:#FFFFFF; stroke-width:39.3701; stroke-opacity:1; 
stroke-linecap:round; stroke-linejoin:round;">
</g>
<g style="fill:#FFFFFF; fill-opacity:1.0; 
stroke:#FFFFFF; stroke-width:314.961; stroke-opacity:1; 
stroke-linecap:round; stroke-linejoin:round;">
</g>
<g style="fill:#FFFFFF; fill-opacity:0.0; 
stroke:#FFFFFF; stroke-width:314.961; stroke-opacity:1; 
stroke-linecap:round; stroke-linejoin:round;">
<path d="M26300 25900
L26300 25900
" />
<path d="M26300 26805
L26300 26805
" />
<path d="M26300 27711
L26300 27711
" />
<path d="M33400 21700
L33400 21700
" />
<path d="M32494 21700
L32494 21700
" />
<path d="M31588 21700
L31588 21700
" />
<path d="M33400 26700
L33400 26700
" />
<path d="M32494 26700
L32494 26700
" />
<path d="M31588 26700
L31588 26700
" />
<path d="M33400 31300
L33400 31300
" />
<path d="M32494 31300
L32494 31300
" />
<path d="M31588 31300
L31588 31300
" />
<path d="M33400 35300
L33400 35300
" />
<path d="M32494 35300
L32494 35300
" />
<path d="M31588 35300
L31588 35300
" />
<path d="M33400 42400
L33400 42400
" />
<path d="M32494 42400
L32494 42400
" />
<path d="M31588 42400
L31588 42400
" />
<path d="M22000 25900
L22000 25900
" />
<path d="M22000 24994
L22000 24994
" />
<path d="M22000 24088
L22000 24088
" />
<path d="M17500 25900
L17500 25900
" />
<path d="M17500 24994
L17500 24994
" />
<path d="M17500 24088
L17500 24088
" />
<path d="M15300 25900
L15300 25900
" />
<path d="M15300 24994
L15300 24994
" />
<path d="M15300 24088
L15300 24088
" />
<path d="M10800 25900
L10800 25900
" />
<path d="M10800 24994
L10800 24994
" />
<path d="M10800 24088
L10800 24088
" />
<path d="M33400 45200
L33400 45200
" />
<path d="M32494 45200
L32494 45200
" />
<path d="M31588 45200
L31588 45200
" />
</g>
<g style="fill:#FFFFFF; fill-opacity:1.0; 
stroke:#FFFFFF; stroke-width:0; stroke-opacity:1; 
stroke-linecap:round; stroke-linejoin:round;">
<circle cx="23800" cy="24200" r="68.8976" /> 
</g>
<g style="fill:#FFFFFF; fill-opacity:1.0; 
stroke:#FFFFFF; stroke-width:39.3701; stroke-opacity:1; 
stroke-linecap:round; stroke-linejoin:round;">
</g>
<g style="fill:#FFFFFF; fill-opacity:1.0; 
stroke:#FFFFFF; stroke-width:0; stroke-opacity:1; 
stroke-linecap:round; stroke-linejoin:round;">
<circle cx="23800" cy="28900" r="68.8976" /> 
</g>
<g style="fill:#FFFFFF; fill-opacity:1.0; 
stroke:#FFFFFF; stroke-width:39.3701; stroke-opacity:1; 
stroke-linecap:round; stroke-linejoin:round;">
</g>
<g style="fill:#FFFFFF; fill-opacity:1.0; 
stroke:#FFFFFF; stroke-width:0; stroke-opacity:1; 
stroke-linecap:round; stroke-linejoin:round;">
<circle cx="25000" cy="27700" r="68.8976" /> 
</g>
<g style="fill:#FFFFFF; fill-opacity:1.0; 
stroke:#FFFFFF; stroke-width:39.3701; stroke-opacity:1; 
stroke-linecap:round; stroke-linejoin:round;">
</g>
<g style="fill:#FFFFFF; fill-opacity:1.0; 
stroke:#FFFFFF; stroke-width:0; stroke-opacity:1; 
stroke-linecap:round; stroke-linejoin:round;">
<circle cx="25000" cy="25900" r="68.8976" /> 
</g>
<g style="fill:#FFFFFF; fill-opacity:1.0; 
stroke:#FFFFFF; stroke-width:39.3701; stroke-opacity:1; 
stroke-linecap:round; stroke-linejoin:round;">
</g>
<g style="fill:#FFFFFF; fill-opacity:1.0; 
stroke:#FFFFFF; stroke-width:0; stroke-opacity:1; 
stroke-linecap:round; stroke-linejoin:round;">
<circle cx="35100" cy="24600" r="68.8976" /> 
</g>
<g style="fill:#FFFFFF; fill-opacity:1.0; 
stroke:#FFFFFF; stroke-width:39.3701; stroke-opacity:1; 
stroke-linecap:round; stroke-linejoin:round;">
</g>
<g style="fill:#FFFFFF; fill-opacity:1.0; 
stroke:#FFFFFF; stroke-width:0; stroke-opacity:1; 
stroke-linecap:round; stroke-linejoin:round;">
<circle cx="30400" cy="24600" r="68.8976" /> 
</g>
<g style="fill:#FFFFFF; fill-opacity:1.0; 
stroke:#FFFFFF; stroke-width:39.3701; stroke-opacity:1; 
stroke-linecap:round; stroke-linejoin:round;">
</g>
<g style="fill:#FFFFFF; fill-opacity:1.0; 
stroke:#FFFFFF; stroke-width:0; stroke-opacity:1; 
stroke-linecap:round; stroke-linejoin:round;">
<circle cx="31600" cy="23400" r="68.8976" /> 
</g>
<g style="fill:#FFFFFF; fill-opacity:1.0; 
stroke:#FFFFFF; stroke-width:39.3701; stroke-opacity:1; 
stroke-linecap:round; stroke-linejoin:round;">
</g>
<g style="fill:#FFFFFF; fill-opacity:1.0; 
stroke:#FFFFFF; stroke-width:0; stroke-opacity:1; 
stroke-linecap:round; stroke-linejoin:round;">
<circle cx="33400" cy="23400" r="68.8976" /> 
</g>
<g style="fill:#FFFFFF; fill-opacity:1.0; 
stroke:#FFFFFF; stroke-width:39.3701; stroke-opacity:1; 
stroke-linecap:round; stroke-linejoin:round;">
</g>
<g style="fill:#FFFFFF; fill-opacity:1.0; 
stroke:#FFFFFF; stroke-width:0; stroke-opacity:1; 
stroke-linecap:round; stroke-linejoin:round;">
<circle cx="35100" cy="29200" r="68.8976" /> 
</g>
<g style="fill:#FFFFFF; fill-opacity:1.0; 
stroke:#FFFFFF; stroke-width:39.3701; stroke-opacity:1; 
stroke-linecap:round; stroke-linejoin:round;">
</g>
<g style="fill:#FFFFFF; fill-opacity:1.0; 
stroke:#FFFFFF; stroke-width:0; stroke-opacity:1; 
stroke-linecap:round; stroke-linejoin:round;">
<circle cx="30400" cy="29200" r="68.8976" /> 
</g>
<g style="fill:#FFFFFF; fill-opacity:1.0; 
stroke:#FFFFFF; stroke-width:39.3701; stroke-opacity:1; 
stroke-linecap:round; stroke-linejoin:round;">
</g>
<g style="fill:#FFFFFF; fill-opacity:1.0; 
stroke:#FFFFFF; stroke-width:0; stroke-opacity:1; 
stroke-linecap:round; stroke-linejoin:round;">
<circle cx="31600" cy="28100" r="68.8976" /> 
</g>
<g style="fill:#FFFFFF; fill-opacity:1.0; 
stroke:#FFFFFF; stroke-width:39.3701; stroke-opacity:1; 
stroke-linecap:round; stroke-linejoin:round;">
</g>
<g style="fill:#FFFFFF; fill-opacity:1.0; 
stroke:#FFFFFF; stroke-width:0; stroke-opacity:1; 
stroke-linecap:round; stroke-linejoin:round;">
<circle cx="33400" cy="28100" r="68.8976" /> 
</g>
<g style="fill:#FFFFFF; fill-opacity:1.0; 
stroke:#FFFFFF; stroke-width:39.3701; stroke-opacity:1; 
stroke-linecap:round; stroke-linejoin:round;">
</g>
<g style="fill:#FFFFFF; fill-opacity:1.0; 
stroke:#FFFFFF; stroke-width:0; stroke-opacity:1; 
stroke-linecap:round; stroke-linejoin:round;">
<circle cx="35100" cy="33700" r="68.8976" /> 
</g>
<g style="fill:#FFFFFF; fill-opacity:1.0; 
stroke:#FFFFFF; stroke-width:39.3701; stroke-opacity:1; 
stroke-linecap:round; stroke-linejoin:round;">
</g>
<g style="fill:#FFFFFF; fill-opacity:1.0; 
stroke:#FFFFFF; stroke-width:0; stroke-opacity:1; 
stroke-linecap:round; stroke-linejoin:round;">
<circle cx="30400" cy="33700" r="68.8976" /> 
</g>
<g style="fill:#FFFFFF; fill-opacity:1.0; 
stroke:#FFFFFF; stroke-width:39.3701; stroke-opacity:1; 
stroke-linecap:round; stroke-linejoin:round;">
</g>
<g style="fill:#FFFFFF; fill-opacity:1.0; 
stroke:#FFFFFF; stroke-width:0; stroke-opacity:1; 
stroke-linecap:round; stroke-linejoin:round;">
<circle cx="31600" cy="32700" r="68.8976" /> 
</g>
<g style="fill:#FFFFFF; fill-opacity:1.0; 
stroke:#FFFFFF; stroke-width:39.3701; stroke-opacity:1; 
stroke-linecap:round; stroke-linejoin:round;">
</g>
<g style="fill:#FFFFFF; fill-opacity:1.0; 
stroke:#FFFFFF; stroke-width:0; stroke-opacity:1; 
stroke-linecap:round; stroke-linejoin:round;">
<circle cx="33400" cy="32700" r="68.8976" /> 
</g>
<g style="fill:#FFFFFF; fill-opacity:1.0; 
stroke:#FFFFFF; stroke-width:39.3701; stroke-opacity:1; 
stroke-linecap:round; stroke-linejoin:round;">
</g>
<g style="fill:#FFFFFF; fill-opacity:1.0; 
stroke:#FFFFFF; stroke-width:0; stroke-opacity:1; 
stroke-linecap:round; stroke-linejoin:round;">
<circle cx="35100" cy="37800" r="68.8976" /> 
</g>
<g style="fill:#FFFFFF; fill-opacity:1.0; 
stroke:#FFFFFF; stroke-width:39.3701; stroke-opacity:1; 
stroke-linecap:round; stroke-linejoin:round;">
</g>
<g style="fill:#FFFFFF; fill-opacity:1.0; 
stroke:#FFFFFF; stroke-width:0; stroke-opacity:1; 
stroke-linecap:round; stroke-linejoin:round;">
<circle cx="30400" cy="37800" r="68.8976" /> 
</g>
<g style="fill:#FFFFFF; fill-opacity:1.0; 
stroke:#FFFFFF; stroke-width:39.3701; stroke-opacity:1; 
stroke-linecap:round; stroke-linejoin:round;">
</g>
<g style="fill:#FFFFFF; fill-opacity:1.0; 
stroke:#FFFFFF; stroke-width:0; stroke-opacity:1; 
stroke-linecap:round; stroke-linejoin:round;">
<circle cx="31600" cy="36600" r="68.8976" /> 
</g>
<g style="fill:#FFFFFF; fill-opacity:1.0; 
stroke:#FFFFFF; stroke-width:39.3701; stroke-opacity:1; 
stroke-linecap:round; stroke-linejoin:round;">
</g>
<g style="fill:#FFFFFF; fill-opacity:1.0; 
stroke:#FFFFFF; stroke-width:0; stroke-opacity:1; 
stroke-linecap:round; stroke-linejoin:round;">
<circle cx="33400" cy="36600" r="68.8976" /> 
</g>
<g style="fill:#FFFFFF; fill-opacity:1.0; 
stroke:#FFFFFF; stroke-width:39.3701; stroke-opacity:1; 
stroke-linecap:round; stroke-linejoin:round;">
</g>
<g style="fill:#FFFFFF; fill-opacity:1.0; 
stroke:#FFFFFF; stroke-width:0; stroke-opacity:1; 
stroke-linecap:round; stroke-linejoin:round;">
<circle cx="31600" cy="40800" r="68.8976" /> 
</g>
<g style="fill:#FFFFFF; fill-opacity:1.0; 
stroke:#FFFFFF; stroke-width:39.3701; stroke-opacity:1; 
stroke-linecap:round; stroke-linejoin:round;">
</g>
<g style="fill:#FFFFFF; fill-opacity:1.0; 
stroke:#FFFFFF; stroke-width:0; stroke-opacity:1; 
stroke-linecap:round; stroke-linejoin:round;">
<circle cx="33400" cy="40800" r="68.8976" /> 
</g>
<g style="fill:#FFFFFF; fill-opacity:1.0; 
stroke:#FFFFFF; stroke-width:39.3701; stroke-opacity:1; 
stroke-linecap:round; stroke-linejoin:round;">
</g>
<g style="fill:#FFFFFF; fill-opacity:1.0; 
stroke:#FFFFFF; stroke-width:0; stroke-opacity:1; 
stroke-linecap:round; stroke-linejoin:round;">
<circle cx="20500" cy="26500" r="68.8976" /> 
</g>
<g style="fill:#FFFFFF; fill-opacity:1.0; 
stroke:#FFFFFF; stroke-width:39.3701; stroke-opacity:1; 
stroke-linecap:round; stroke-linejoin:round;">
</g>
<g style="fill:#FFFFFF; fill-opacity:1.0; 
stroke:#FFFFFF; stroke-width:0; stroke-opacity:1; 
stroke-linecap:round; stroke-linejoin:round;">
<circle cx="20500" cy="21900" r="68.8976" /> 
</g>
<g style="fill:#FFFFFF; fill-opacity:1.0; 
stroke:#FFFFFF; stroke-width:39.3701; stroke-opacity:1; 
stroke-linecap:round; stroke-linejoin:round;">
</g>
<g style="fill:#FFFFFF; fill-opacity:1.0; 
stroke:#FFFFFF; stroke-width:0; stroke-opacity:1; 
stroke-linecap:round; stroke-linejoin:round;">
<circle cx="19000" cy="26500" r="68.8976" /> 
</g>
<g style="fill:#FFFFFF; fill-opacity:1.0; 
stroke:#FFFFFF; stroke-width:39.3701; stroke-opacity:1; 
stroke-linecap:round; stroke-linejoin:round;">
</g>
<g style="fill:#FFFFFF; fill-opacity:1.0; 
stroke:#FFFFFF; stroke-width:0; stroke-opacity:1; 
stroke-linecap:round; stroke-linejoin:round;">
<circle cx="19000" cy="21900" r="68.8976" /> 
</g>
<g style="fill:#FFFFFF; fill-opacity:1.0; 
stroke:#FFFFFF; stroke-width:39.3701; stroke-opacity:1; 
stroke-linecap:round; stroke-linejoin:round;">
</g>
<g style="fill:#FFFFFF; fill-opacity:1.0; 
stroke:#FFFFFF; stroke-width:0; stroke-opacity:1; 
stroke-linecap:round; stroke-linejoin:round;">
<circle cx="13800" cy="26500" r="68.8976" /> 
</g>
<g style="fill:#FFFFFF; fill-opacity:1.0; 
stroke:#FFFFFF; stroke-width:39.3701; stroke-opacity:1; 
stroke-linecap:round; stroke-linejoin:round;">
</g>
<g style="fill:#FFFFFF; fill-opacity:1.0; 
stroke:#FFFFFF; stroke-width:0; stroke-opacity:1; 
stroke-linecap:round; stroke-linejoin:round;">
<circle cx="13800" cy="21900" r="68.8976" /> 
</g>
<g style="fill:#FFFFFF; fill-opacity:1.0; 
stroke:#FFFFFF; stroke-width:39.3701; stroke-opacity:1; 
stroke-linecap:round; stroke-linejoin:round;">
</g>
<g style="fill:#FFFFFF; fill-opacity:1.0; 
stroke:#FFFFFF; stroke-width:0; stroke-opacity:1; 
stroke-linecap:round; stroke-linejoin:round;">
<circle cx="12300" cy="26500" r="68.8976" /> 
</g>
<g style="fill:#FFFFFF; fill-opacity:1.0; 
stroke:#FFFFFF; stroke-width:39.3701; stroke-opacity:1; 
stroke-linecap:round; stroke-linejoin:round;">
</g>
<g style="fill:#FFFFFF; fill-opacity:1.0; 
stroke:#FFFFFF; stroke-width:0; stroke-opacity:1; 
stroke-linecap:round; stroke-linejoin:round;">
<circle cx="12300" cy="21900" r="68.8976" /> 
</g>
<g style="fill:#FFFFFF; fill-opacity:1.0; 
stroke:#FFFFFF; stroke-width:39.3701; stroke-opacity:1; 
stroke-linecap:round; stroke-linejoin:round;">
</g>
<g style="fill:#FFFFFF; fill-opacity:1.0; 
stroke:#FFFFFF; stroke-width:0; stroke-opacity:1; 
stroke-linecap:round; stroke-linejoin:round;">
<circle cx="35100" cy="46500" r="68.8976" /> 
</g>
<g style="fill:#FFFFFF; fill-opacity:1.0; 
stroke:#FFFFFF; stroke-width:39.3701; stroke-opacity:1; 
stroke-linecap:round; stroke-linejoin:round;">
</g>
<g style="fill:#FFFFFF; fill-opacity:1.0; 
stroke:#FFFFFF; stroke-width:0; stroke-opacity:1; 
stroke-linecap:round; stroke-linejoin:round;">
<circle cx="30400" cy="46500" r="68.8976" /> 
</g>
<g style="fill:#FFFFFF; fill-opacity:1.0; 
stroke:#FFFFFF; stroke-width:39.3701; stroke-opacity:1; 
stroke-linecap:round; stroke-linejoin:round;">
</g>
<g style="fill:#FFFFFF; fill-opacity:1.0; 
stroke:#FFFFFF; stroke-width:0; stroke-opacity:1; 
stroke-linecap:round; stroke-linejoin:round;">
<circle cx="31600" cy="47500" r="68.8976" /> 
</g>
<g style="fill:#FFFFFF; fill-opacity:1.0; 
stroke:#FFFFFF; stroke-width:39.3701; stroke-opacity:1; 
stroke-linecap:round; stroke-linejoin:round;">
</g>
<g style="fill:#FFFFFF; fill-opacity:1.0; 
stroke:#FFFFFF; stroke-width:0; stroke-opacity:1; 
stroke-linecap:round; stroke-linejoin:round;">
<circle cx="33400" cy="47500" r="68.8976" /> 
</g>
<g style="fill:#FFFFFF; fill-opacity:1.0; 
stroke:#FFFFFF; stroke-width:39.3701; stroke-opacity:1; 
stroke-linecap:round; stroke-linejoin:round;">
</g>
<g style="fill:#FFFFFF; fill-opacity:1.0; 
stroke:#FFFFFF; stroke-width:0; stroke-opacity:1; 
stroke-linecap:round; stroke-linejoin:round;">
<circle cx="24800" cy="30700" r="68.8976" /> 
</g>
<g style="fill:#FFFFFF; fill-opacity:1.0; 
stroke:#FFFFFF; stroke-width:39.3701; stroke-opacity:1; 
stroke-linecap:round; stroke-linejoin:round;">
</g>
<g style="fill:#FFFFFF; fill-opacity:1.0; 
stroke:#FFFFFF; stroke-width:0; stroke-opacity:1; 
stroke-linecap:round; stroke-linejoin:round;">
<circle cx="27800" cy="43700" r="68.8976" /> 
</g>
<g style="fill:#FFFFFF; fill-opacity:1.0; 
stroke:#FFFFFF; stroke-width:39.3701; stroke-opacity:1; 
stroke-linecap:round; stroke-linejoin:round;">
</g>
<g style="fill:#FFFFFF; fill-opacity:1.0; 
stroke:#FFFFFF; stroke-width:0; stroke-opacity:1; 
stroke-linecap:round; stroke-linejoin:round;">
<circle cx="24800" cy="31700" r="68.8976" /> 
</g>
<g style="fill:#FFFFFF; fill-opacity:1.0; 
stroke:#FFFFFF; stroke-width:39.3701; stroke-opacity:1; 
stroke-linecap:round; stroke-linejoin:round;">
</g>
<g style="fill:#FFFFFF; fill-opacity:1.0; 
stroke:#FFFFFF; stroke-width:0; stroke-opacity:1; 
stroke-linecap:round; stroke-linejoin:round;">
<circle cx="27800" cy="42700" r="68.8976" /> 
</g>
<g style="fill:#FFFFFF; fill-opacity:1.0; 
stroke:#FFFFFF; stroke-width:39.3701; stroke-opacity:1; 
stroke-linecap:round; stroke-linejoin:round;">
</g>
<g style="fill:#FFFFFF; fill-opacity:1.0; 
stroke:#FFFFFF; stroke-width:0; stroke-opacity:1; 
stroke-linecap:round; stroke-linejoin:round;">
<circle cx="24800" cy="32700" r="68.8976" /> 
</g>
<g style="fill:#FFFFFF; fill-opacity:1.0; 
stroke:#FFFFFF; stroke-width:39.3701; stroke-opacity:1; 
stroke-linecap:round; stroke-linejoin:round;">
</g>
<g style="fill:#FFFFFF; fill-opacity:1.0; 
stroke:#FFFFFF; stroke-width:0; stroke-opacity:1; 
stroke-linecap:round; stroke-linejoin:round;">
<circle cx="27800" cy="41700" r="68.8976" /> 
</g>
<g style="fill:#FFFFFF; fill-opacity:1.0; 
stroke:#FFFFFF; stroke-width:39.3701; stroke-opacity:1; 
stroke-linecap:round; stroke-linejoin:round;">
</g>
<g style="fill:#FFFFFF; fill-opacity:1.0; 
stroke:#FFFFFF; stroke-width:0; stroke-opacity:1; 
stroke-linecap:round; stroke-linejoin:round;">
<circle cx="24800" cy="33700" r="68.8976" /> 
</g>
<g style="fill:#FFFFFF; fill-opacity:1.0; 
stroke:#FFFFFF; stroke-width:39.3701; stroke-opacity:1; 
stroke-linecap:round; stroke-linejoin:round;">
</g>
<g style="fill:#FFFFFF; fill-opacity:1.0; 
stroke:#FFFFFF; stroke-width:0; stroke-opacity:1; 
stroke-linecap:round; stroke-linejoin:round;">
<circle cx="27800" cy="40700" r="68.8976" /> 
</g>
<g style="fill:#FFFFFF; fill-opacity:1.0; 
stroke:#FFFFFF; stroke-width:39.3701; stroke-opacity:1; 
stroke-linecap:round; stroke-linejoin:round;">
</g>
<g style="fill:#FFFFFF; fill-opacity:1.0; 
stroke:#FFFFFF; stroke-width:0; stroke-opacity:1; 
stroke-linecap:round; stroke-linejoin:round;">
<circle cx="27800" cy="36700" r="68.8976" /> 
</g>
<g style="fill:#FFFFFF; fill-opacity:1.0; 
stroke:#FFFFFF; stroke-width:39.3701; stroke-opacity:1; 
stroke-linecap:round; stroke-linejoin:round;">
</g>
<g style="fill:#FFFFFF; fill-opacity:1.0; 
stroke:#FFFFFF; stroke-width:0; stroke-opacity:1; 
stroke-linecap:round; stroke-linejoin:round;">
<circle cx="24800" cy="38700" r="68.8976" /> 
</g>
<g style="fill:#FFFFFF; fill-opacity:1.0; 
stroke:#FFFFFF; stroke-width:39.3701; stroke-opacity:1; 
stroke-linecap:round; stroke-linejoin:round;">
</g>
<g style="fill:#FFFFFF; fill-opacity:1.0; 
stroke:#FFFFFF; stroke-width:0; stroke-opacity:1; 
stroke-linecap:round; stroke-linejoin:round;">
<circle cx="27800" cy="35700" r="68.8976" /> 
</g>
<g style="fill:#FFFFFF; fill-opacity:1.0; 
stroke:#FFFFFF; stroke-width:39.3701; stroke-opacity:1; 
stroke-linecap:round; stroke-linejoin:round;">
</g>
<g style="fill:#FFFFFF; fill-opacity:1.0; 
stroke:#FFFFFF; stroke-width:0; stroke-opacity:1; 
stroke-linecap:round; stroke-linejoin:round;">
<circle cx="24800" cy="39700" r="68.8976" /> 
</g>
<g style="fill:#FFFFFF; fill-opacity:1.0; 
stroke:#FFFFFF; stroke-width:39.3701; stroke-opacity:1; 
stroke-linecap:round; stroke-linejoin:round;">
</g>
<g style="fill:#FFFFFF; fill-opacity:1.0; 
stroke:#FFFFFF; stroke-width:0; stroke-opacity:1; 
stroke-linecap:round; stroke-linejoin:round;">
<circle cx="27800" cy="34700" r="68.8976" /> 
</g>
<g style="fill:#FFFFFF; fill-opacity:1.0; 
stroke:#FFFFFF; stroke-width:39.3701; stroke-opacity:1; 
stroke-linecap:round; stroke-linejoin:round;">
</g>
<g style="fill:#FFFFFF; fill-opacity:1.0; 
stroke:#FFFFFF; stroke-width:0; stroke-opacity:1; 
stroke-linecap:round; stroke-linejoin:round;">
<circle cx="27800" cy="33700" r="68.8976" /> 
</g>
<g style="fill:#FFFFFF; fill-opacity:1.0; 
stroke:#FFFFFF; stroke-width:39.3701; stroke-opacity:1; 
stroke-linecap:round; stroke-linejoin:round;">
</g>
<g style="fill:#FFFFFF; fill-opacity:1.0; 
stroke:#FFFFFF; stroke-width:0; stroke-opacity:1; 
stroke-linecap:round; stroke-linejoin:round;">
<circle cx="24800" cy="41700" r="68.8976" /> 
</g>
<g style="fill:#FFFFFF; fill-opacity:1.0; 
stroke:#FFFFFF; stroke-width:39.3701; stroke-opacity:1; 
stroke-linecap:round; stroke-linejoin:round;">
</g>
<g style="fill:#FFFFFF; fill-opacity:1.0; 
stroke:#FFFFFF; stroke-width:0; stroke-opacity:1; 
stroke-linecap:round; stroke-linejoin:round;">
<circle cx="27800" cy="32700" r="68.8976" /> 
</g>
<g style="fill:#FFFFFF; fill-opacity:1.0; 
stroke:#FFFFFF; stroke-width:39.3701; stroke-opacity:1; 
stroke-linecap:round; stroke-linejoin:round;">
</g>
<g style="fill:#FFFFFF; fill-opacity:1.0; 
stroke:#FFFFFF; stroke-width:0; stroke-opacity:1; 
stroke-linecap:round; stroke-linejoin:round;">
<circle cx="24800" cy="42700" r="68.8976" /> 
</g>
<g style="fill:#FFFFFF; fill-opacity:1.0; 
stroke:#FFFFFF; stroke-width:39.3701; stroke-opacity:1; 
stroke-linecap:round; stroke-linejoin:round;">
</g>
<g style="fill:#FFFFFF; fill-opacity:1.0; 
stroke:#FFFFFF; stroke-width:0; stroke-opacity:1; 
stroke-linecap:round; stroke-linejoin:round;">
<circle cx="27800" cy="31700" r="68.8976" /> 
</g>
<g style="fill:#FFFFFF; fill-opacity:1.0; 
stroke:#FFFFFF; stroke-width:39.3701; stroke-opacity:1; 
stroke-linecap:round; stroke-linejoin:round;">
</g>
<g style="fill:#FFFFFF; fill-opacity:1.0; 
stroke:#FFFFFF; stroke-width:0; stroke-opacity:1; 
stroke-linecap:round; stroke-linejoin:round;">
<circle cx="27800" cy="30700" r="68.8976" /> 
</g>
<g style="fill:#FFFFFF; fill-opacity:1.0; 
stroke:#FFFFFF; stroke-width:39.3701; stroke-opacity:1; 
stroke-linecap:round; stroke-linejoin:round;">
</g>
<g style="fill:#FFFFFF; fill-opacity:1.0; 
stroke:#FFFFFF; stroke-width:0; stroke-opacity:1; 
stroke-linecap:round; stroke-linejoin:round;">
<circle cx="26300" cy="24200" r="68.8976" /> 
</g>
<g style="fill:#FFFFFF; fill-opacity:1.0; 
stroke:#FFFFFF; stroke-width:39.3701; stroke-opacity:1; 
stroke-linecap:round; stroke-linejoin:round;">
</g>
<g style="fill:#FFFFFF; fill-opacity:1.0; 
stroke:#FFFFFF; stroke-width:0; stroke-opacity:1; 
stroke-linecap:round; stroke-linejoin:round;">
<circle cx="26300" cy="23400" r="68.8976" /> 
</g>
<g style="fill:#FFFFFF; fill-opacity:1.0; 
stroke:#FFFFFF; stroke-width:39.3701; stroke-opacity:1; 
stroke-linecap:round; stroke-linejoin:round;">
</g>
<g style="fill:#FFFFFF; fill-opacity:1.0; 
stroke:#FFFFFF; stroke-width:0; stroke-opacity:1; 
stroke-linecap:round; stroke-linejoin:round;">
<circle cx="26300" cy="25000" r="68.8976" /> 
</g>
<g style="fill:#FFFFFF; fill-opacity:1.0; 
stroke:#FFFFFF; stroke-width:39.3701; stroke-opacity:1; 
stroke-linecap:round; stroke-linejoin:round;">
</g>
<g style="fill:#FFFFFF; fill-opacity:1.0; 
stroke:#FFFFFF; stroke-width:0; stroke-opacity:1; 
stroke-linecap:round; stroke-linejoin:round;">
<circle cx="35100" cy="22700" r="68.8976" /> 
</g>
<g style="fill:#FFFFFF; fill-opacity:1.0; 
stroke:#FFFFFF; stroke-width:39.3701; stroke-opacity:1; 
stroke-linecap:round; stroke-linejoin:round;">
</g>
<g style="fill:#FFFFFF; fill-opacity:1.0; 
stroke:#FFFFFF; stroke-width:0; stroke-opacity:1; 
stroke-linecap:round; stroke-linejoin:round;">
<circle cx="35900" cy="22700" r="68.8976" /> 
</g>
<g style="fill:#FFFFFF; fill-opacity:1.0; 
stroke:#FFFFFF; stroke-width:39.3701; stroke-opacity:1; 
stroke-linecap:round; stroke-linejoin:round;">
</g>
<g style="fill:#FFFFFF; fill-opacity:1.0; 
stroke:#FFFFFF; stroke-width:0; stroke-opacity:1; 
stroke-linecap:round; stroke-linejoin:round;">
<circle cx="34300" cy="22700" r="68.8976" /> 
</g>
<g style="fill:#FFFFFF; fill-opacity:1.0; 
stroke:#FFFFFF; stroke-width:39.3701; stroke-opacity:1; 
stroke-linecap:round; stroke-linejoin:round;">
</g>
<g style="fill:#FFFFFF; fill-opacity:1.0; 
stroke:#FFFFFF; stroke-width:0; stroke-opacity:1; 
stroke-linecap:round; stroke-linejoin:round;">
<circle cx="35100" cy="27200" r="68.8976" /> 
</g>
<g style="fill:#FFFFFF; fill-opacity:1.0; 
stroke:#FFFFFF; stroke-width:39.3701; stroke-opacity:1; 
stroke-linecap:round; stroke-linejoin:round;">
</g>
<g style="fill:#FFFFFF; fill-opacity:1.0; 
stroke:#FFFFFF; stroke-width:0; stroke-opacity:1; 
stroke-linecap:round; stroke-linejoin:round;">
<circle cx="35900" cy="27200" r="68.8976" /> 
</g>
<g style="fill:#FFFFFF; fill-opacity:1.0; 
stroke:#FFFFFF; stroke-width:39.3701; stroke-opacity:1; 
stroke-linecap:round; stroke-linejoin:round;">
</g>
<g style="fill:#FFFFFF; fill-opacity:1.0; 
stroke:#FFFFFF; stroke-width:0; stroke-opacity:1; 
stroke-linecap:round; stroke-linejoin:round;">
<circle cx="34300" cy="27200" r="68.8976" /> 
</g>
<g style="fill:#FFFFFF; fill-opacity:1.0; 
stroke:#FFFFFF; stroke-width:39.3701; stroke-opacity:1; 
stroke-linecap:round; stroke-linejoin:round;">
</g>
<g style="fill:#FFFFFF; fill-opacity:1.0; 
stroke:#FFFFFF; stroke-width:0; stroke-opacity:1; 
stroke-linecap:round; stroke-linejoin:round;">
<circle cx="35100" cy="31800" r="68.8976" /> 
</g>
<g style="fill:#FFFFFF; fill-opacity:1.0; 
stroke:#FFFFFF; stroke-width:39.3701; stroke-opacity:1; 
stroke-linecap:round; stroke-linejoin:round;">
</g>
<g style="fill:#FFFFFF; fill-opacity:1.0; 
stroke:#FFFFFF; stroke-width:0; stroke-opacity:1; 
stroke-linecap:round; stroke-linejoin:round;">
<circle cx="35900" cy="31800" r="68.8976" /> 
</g>
<g style="fill:#FFFFFF; fill-opacity:1.0; 
stroke:#FFFFFF; stroke-width:39.3701; stroke-opacity:1; 
stroke-linecap:round; stroke-linejoin:round;">
</g>
<g style="fill:#FFFFFF; fill-opacity:1.0; 
stroke:#FFFFFF; stroke-width:0; stroke-opacity:1; 
stroke-linecap:round; stroke-linejoin:round;">
<circle cx="34300" cy="31800" r="68.8976" /> 
</g>
<g style="fill:#FFFFFF; fill-opacity:1.0; 
stroke:#FFFFFF; stroke-width:39.3701; stroke-opacity:1; 
stroke-linecap:round; stroke-linejoin:round;">
</g>
<g style="fill:#FFFFFF; fill-opacity:1.0; 
stroke:#FFFFFF; stroke-width:0; stroke-opacity:1; 
stroke-linecap:round; stroke-linejoin:round;">
<circle cx="35100" cy="35700" r="68.8976" /> 
</g>
<g style="fill:#FFFFFF; fill-opacity:1.0; 
stroke:#FFFFFF; stroke-width:39.3701; stroke-opacity:1; 
stroke-linecap:round; stroke-linejoin:round;">
</g>
<g style="fill:#FFFFFF; fill-opacity:1.0; 
stroke:#FFFFFF; stroke-width:0; stroke-opacity:1; 
stroke-linecap:round; stroke-linejoin:round;">
<circle cx="35900" cy="35700" r="68.8976" /> 
</g>
<g style="fill:#FFFFFF; fill-opacity:1.0; 
stroke:#FFFFFF; stroke-width:39.3701; stroke-opacity:1; 
stroke-linecap:round; stroke-linejoin:round;">
</g>
<g style="fill:#FFFFFF; fill-opacity:1.0; 
stroke:#FFFFFF; stroke-width:0; stroke-opacity:1; 
stroke-linecap:round; stroke-linejoin:round;">
<circle cx="34300" cy="35700" r="68.8976" /> 
</g>
<g style="fill:#FFFFFF; fill-opacity:1.0; 
stroke:#FFFFFF; stroke-width:39.3701; stroke-opacity:1; 
stroke-linecap:round; stroke-linejoin:round;">
</g>
<g style="fill:#FFFFFF; fill-opacity:1.0; 
stroke:#FFFFFF; stroke-width:0; stroke-opacity:1; 
stroke-linecap:round; stroke-linejoin:round;">
<circle cx="35100" cy="41500" r="68.8976" /> 
</g>
<g style="fill:#FFFFFF; fill-opacity:1.0; 
stroke:#FFFFFF; stroke-width:39.3701; stroke-opacity:1; 
stroke-linecap:round; stroke-linejoin:round;">
</g>
<g style="fill:#FFFFFF; fill-opacity:1.0; 
stroke:#FFFFFF; stroke-width:0; stroke-opacity:1; 
stroke-linecap:round; stroke-linejoin:round;">
<circle cx="35900" cy="41500" r="68.8976" /> 
</g>
<g style="fill:#FFFFFF; fill-opacity:1.0; 
stroke:#FFFFFF; stroke-width:39.3701; stroke-opacity:1; 
stroke-linecap:round; stroke-linejoin:round;">
</g>
<g style="fill:#FFFFFF; fill-opacity:1.0; 
stroke:#FFFFFF; stroke-width:0; stroke-opacity:1; 
stroke-linecap:round; stroke-linejoin:round;">
<circle cx="34300" cy="41500" r="68.8976" /> 
</g>
<g style="fill:#FFFFFF; fill-opacity:1.0; 
stroke:#FFFFFF; stroke-width:39.3701; stroke-opacity:1; 
stroke-linecap:round; stroke-linejoin:round;">
</g>
<g style="fill:#FFFFFF; fill-opacity:1.0; 
stroke:#FFFFFF; stroke-width:0; stroke-opacity:1; 
stroke-linecap:round; stroke-linejoin:round;">
<circle cx="34600" cy="48300" r="68.8976" /> 
</g>
<g style="fill:#FFFFFF; fill-opacity:1.0; 
stroke:#FFFFFF; stroke-width:39.3701; stroke-opacity:1; 
stroke-linecap:round; stroke-linejoin:round;">
</g>
<g style="fill:#FFFFFF; fill-opacity:1.0; 
stroke:#FFFFFF; stroke-width:0; stroke-opacity:1; 
stroke-linecap:round; stroke-linejoin:round;">
<circle cx="34600" cy="49100" r="68.8976" /> 
</g>
<g style="fill:#FFFFFF; fill-opacity:1.0; 
stroke:#FFFFFF; stroke-width:39.3701; stroke-opacity:1; 
stroke-linecap:round; stroke-linejoin:round;">
</g>
<g style="fill:#FFFFFF; fill-opacity:1.0; 
stroke:#FFFFFF; stroke-width:0; stroke-opacity:1; 
stroke-linecap:round; stroke-linejoin:round;">
<circle cx="34600" cy="47500" r="68.8976" /> 
</g>
<g style="fill:#FFFFFF; fill-opacity:1.0; 
stroke:#FFFFFF; stroke-width:39.3701; stroke-opacity:1; 
stroke-linecap:round; stroke-linejoin:round;">
</g>
<g style="fill:#FFFFFF; fill-opacity:1.0; 
stroke:#FFFFFF; stroke-width:0; stroke-opacity:1; 
stroke-linecap:round; stroke-linejoin:round;">
<circle cx="23200" cy="39300" r="68.8976" /> 
</g>
<g style="fill:#FFFFFF; fill-opacity:1.0; 
stroke:#FFFFFF; stroke-width:39.3701; stroke-opacity:1; 
stroke-linecap:round; stroke-linejoin:round;">
</g>
<g style="fill:#FFFFFF; fill-opacity:1.0; 
stroke:#FFFFFF; stroke-width:0; stroke-opacity:1; 
stroke-linecap:round; stroke-linejoin:round;">
<circle cx="23200" cy="36347.2" r="68.8976" /> 
</g>
<g style="fill:#FFFFFF; fill-opacity:1.0; 
stroke:#FFFFFF; stroke-width:39.3701; stroke-opacity:1; 
stroke-linecap:round; stroke-linejoin:round;">
</g>
<g style="fill:#FFFFFF; fill-opacity:1.0; 
stroke:#FFFFFF; stroke-width:0; stroke-opacity:1; 
stroke-linecap:round; stroke-linejoin:round;">
<circle cx="22000" cy="22600" r="68.8976" /> 
</g>
<g style="fill:#FFFFFF; fill-opacity:1.0; 
stroke:#FFFFFF; stroke-width:39.3701; stroke-opacity:1; 
stroke-linecap:round; stroke-linejoin:round;">
</g>
<g style="fill:#FFFFFF; fill-opacity:1.0; 
stroke:#FFFFFF; stroke-width:0; stroke-opacity:1; 
stroke-linecap:round; stroke-linejoin:round;">
<circle cx="17500" cy="22600" r="68.8976" /> 
</g>
<g style="fill:#FFFFFF; fill-opacity:1.0; 
stroke:#FFFFFF; stroke-width:39.3701; stroke-opacity:1; 
stroke-linecap:round; stroke-linejoin:round;">
</g>
<g style="fill:#FFFFFF; fill-opacity:1.0; 
stroke:#FFFFFF; stroke-width:0; stroke-opacity:1; 
stroke-linecap:round; stroke-linejoin:round;">
<circle cx="15300" cy="22600" r="68.8976" /> 
</g>
<g style="fill:#FFFFFF; fill-opacity:1.0; 
stroke:#FFFFFF; stroke-width:39.3701; stroke-opacity:1; 
stroke-linecap:round; stroke-linejoin:round;">
</g>
<g style="fill:#FFFFFF; fill-opacity:1.0; 
stroke:#FFFFFF; stroke-width:0; stroke-opacity:1; 
stroke-linecap:round; stroke-linejoin:round;">
<circle cx="10800" cy="22600" r="68.8976" /> 
</g>
<g style="fill:#FFFFFF; fill-opacity:1.0; 
stroke:#FFFFFF; stroke-width:39.3701; stroke-opacity:1; 
stroke-linecap:round; stroke-linejoin:round;">
</g>
<g style="fill:#FFFFFF; fill-opacity:1.0; 
stroke:#FFFFFF; stroke-width:0; stroke-opacity:1; 
stroke-linecap:round; stroke-linejoin:round;">
<circle cx="23600" cy="45700" r="68.8976" /> 
</g>
<g style="fill:#FFFFFF; fill-opacity:1.0; 
stroke:#FFFFFF; stroke-width:39.3701; stroke-opacity:1; 
stroke-linecap:round; stroke-linejoin:round;">
</g>
<g style="fill:#FFFFFF; fill-opacity:1.0; 
stroke:#FFFFFF; stroke-width:0; stroke-opacity:1; 
stroke-linecap:round; stroke-linejoin:round;">
<circle cx="23600" cy="46700" r="68.8976" /> 
</g>
<g style="fill:#FFFFFF; fill-opacity:1.0; 
stroke:#FFFFFF; stroke-width:39.3701; stroke-opacity:1; 
stroke-linecap:round; stroke-linejoin:round;">
</g>
<g style="fill:#FFFFFF; fill-opacity:1.0; 
stroke:#FFFFFF; stroke-width:0; stroke-opacity:1; 
stroke-linecap:round; stroke-linejoin:round;">
<circle cx="23600" cy="47700" r="68.8976" /> 
</g>
<g style="fill:#FFFFFF; fill-opacity:1.0; 
stroke:#FFFFFF; stroke-width:39.3701; stroke-opacity:1; 
stroke-linecap:round; stroke-linejoin:round;">
</g>
<g style="fill:#FFFFFF; fill-opacity:1.0; 
stroke:#FFFFFF; stroke-width:0; stroke-opacity:1; 
stroke-linecap:round; stroke-linejoin:round;">
<circle cx="13700" cy="45700" r="68.8976" /> 
</g>
<g style="fill:#FFFFFF; fill-opacity:1.0; 
stroke:#FFFFFF; stroke-width:39.3701; stroke-opacity:1; 
stroke-linecap:round; stroke-linejoin:round;">
</g>
<g style="fill:#FFFFFF; fill-opacity:1.0; 
stroke:#FFFFFF; stroke-width:0; stroke-opacity:1; 
stroke-linecap:round; stroke-linejoin:round;">
<circle cx="13700" cy="42700" r="68.8976" /> 
</g>
<g style="fill:#FFFFFF; fill-opacity:1.0; 
stroke:#FFFFFF; stroke-width:39.3701; stroke-opacity:1; 
stroke-linecap:round; stroke-linejoin:round;">
</g>
<g style="fill:#FFFFFF; fill-opacity:1.0; 
stroke:#FFFFFF; stroke-width:0; stroke-opacity:1; 
stroke-linecap:round; stroke-linejoin:round;">
<circle cx="12600" cy="44700" r="68.8976" /> 
</g>
<g style="fill:#FFFFFF; fill-opacity:1.0; 
stroke:#FFFFFF; stroke-width:39.3701; stroke-opacity:1; 
stroke-linecap:round; stroke-linejoin:round;">
</g>
<g style="fill:#FFFFFF; fill-opacity:1.0; 
stroke:#FFFFFF; stroke-width:0; stroke-opacity:1; 
stroke-linecap:round; stroke-linejoin:round;">
<circle cx="12600" cy="41700" r="68.8976" /> 
</g>
<g style="fill:#FFFFFF; fill-opacity:1.0; 
stroke:#FFFFFF; stroke-width:39.3701; stroke-opacity:1; 
stroke-linecap:round; stroke-linejoin:round;">
</g>
<g style="fill:#FFFFFF; fill-opacity:1.0; 
stroke:#FFFFFF; stroke-width:0; stroke-opacity:1; 
stroke-linecap:round; stroke-linejoin:round;">
<circle cx="28300" cy="48400" r="68.8976" /> 
</g>
<g style="fill:#FFFFFF; fill-opacity:1.0; 
stroke:#FFFFFF; stroke-width:39.3701; stroke-opacity:1; 
stroke-linecap:round; stroke-linejoin:round;">
</g>
<g style="fill:#FFFFFF; fill-opacity:1.0; 
stroke:#FFFFFF; stroke-width:0; stroke-opacity:1; 
stroke-linecap:round; stroke-linejoin:round;">
<circle cx="28300" cy="46400" r="68.8976" /> 
</g>
<g style="fill:#FFFFFF; fill-opacity:1.0; 
stroke:#FFFFFF; stroke-width:39.3701; stroke-opacity:1; 
stroke-linecap:round; stroke-linejoin:round;">
</g>
<g style="fill:#FFFFFF; fill-opacity:1.0; 
stroke:#FFFFFF; stroke-width:0; stroke-opacity:1; 
stroke-linecap:round; stroke-linejoin:round;">
<circle cx="23200" cy="43700" r="68.8976" /> 
</g>
<g style="fill:#FFFFFF; fill-opacity:1.0; 
stroke:#FFFFFF; stroke-width:39.3701; stroke-opacity:1; 
stroke-linecap:round; stroke-linejoin:round;">
</g>
<g style="fill:#FFFFFF; fill-opacity:1.0; 
stroke:#FFFFFF; stroke-width:0; stroke-opacity:1; 
stroke-linecap:round; stroke-linejoin:round;">
<circle cx="23200" cy="42700" r="68.8976" /> 
</g>
<g style="fill:#FFFFFF; fill-opacity:1.0; 
stroke:#FFFFFF; stroke-width:39.3701; stroke-opacity:1; 
stroke-linecap:round; stroke-linejoin:round;">
</g>
<g style="fill:#FFFFFF; fill-opacity:1.0; 
stroke:#FFFFFF; stroke-width:0; stroke-opacity:1; 
stroke-linecap:round; stroke-linejoin:round;">
<circle cx="23200" cy="41700" r="68.8976" /> 
</g>
<g style="fill:#FFFFFF; fill-opacity:1.0; 
stroke:#FFFFFF; stroke-width:39.3701; stroke-opacity:1; 
stroke-linecap:round; stroke-linejoin:round;">
</g>
<g style="fill:#FFFFFF; fill-opacity:1.0; 
stroke:#FFFFFF; stroke-width:0; stroke-opacity:1; 
stroke-linecap:round; stroke-linejoin:round;">
<circle cx="23200" cy="40700" r="68.8976" /> 
</g>
<g style="fill:#FFFFFF; fill-opacity:1.0; 
stroke:#FFFFFF; stroke-width:39.3701; stroke-opacity:1; 
stroke-linecap:round; stroke-linejoin:round;">
</g>
<g style="fill:#FFFFFF; fill-opacity:1.0; 
stroke:#FFFFFF; stroke-width:0; stroke-opacity:1; 
stroke-linecap:round; stroke-linejoin:round;">
<circle cx="16200" cy="44700" r="68.8976" /> 
</g>
<g style="fill:#FFFFFF; fill-opacity:1.0; 
stroke:#FFFFFF; stroke-width:39.3701; stroke-opacity:1; 
stroke-linecap:round; stroke-linejoin:round;">
</g>
<g style="fill:#FFFFFF; fill-opacity:1.0; 
stroke:#FFFFFF; stroke-width:0; stroke-opacity:1; 
stroke-linecap:round; stroke-linejoin:round;">
<circle cx="16200" cy="43700" r="68.8976" /> 
</g>
<g style="fill:#FFFFFF; fill-opacity:1.0; 
stroke:#FFFFFF; stroke-width:39.3701; stroke-opacity:1; 
stroke-linecap:round; stroke-linejoin:round;">
</g>
<g style="fill:#FFFFFF; fill-opacity:1.0; 
stroke:#FFFFFF; stroke-width:0; stroke-opacity:1; 
stroke-linecap:round; stroke-linejoin:round;">
<circle cx="16200" cy="42700" r="68.8976" /> 
</g>
<g style="fill:#FFFFFF; fill-opacity:1.0; 
stroke:#FFFFFF; stroke-width:39.3701; stroke-opacity:1; 
stroke-linecap:round; stroke-linejoin:round;">
</g>
<g style="fill:#FFFFFF; fill-opacity:1.0; 
stroke:#FFFFFF; stroke-width:0; stroke-opacity:1; 
stroke-linecap:round; stroke-linejoin:round;">
<circle cx="16200" cy="41700" r="68.8976" /> 
</g>
<g style="fill:#FFFFFF; fill-opacity:1.0; 
stroke:#FFFFFF; stroke-width:39.3701; stroke-opacity:1; 
stroke-linecap:round; stroke-linejoin:round;">
</g>
<g style="fill:#FFFFFF; fill-opacity:1.0; 
stroke:#FFFFFF; stroke-width:0; stroke-opacity:1; 
stroke-linecap:round; stroke-linejoin:round;">
<circle cx="16200" cy="40700" r="68.8976" /> 
</g>
<g style="fill:#FFFFFF; fill-opacity:1.0; 
stroke:#FFFFFF; stroke-width:39.3701; stroke-opacity:1; 
stroke-linecap:round; stroke-linejoin:round;">
</g>
<g style="fill:#FFFFFF; fill-opacity:1.0; 
stroke:#FFFFFF; stroke-width:0; stroke-opacity:1; 
stroke-linecap:round; stroke-linejoin:round;">
<circle cx="16200" cy="39700" r="68.8976" /> 
</g>
<g style="fill:#FFFFFF; fill-opacity:1.0; 
stroke:#FFFFFF; stroke-width:39.3701; stroke-opacity:1; 
stroke-linecap:round; stroke-linejoin:round;">
</g>
<g style="fill:#FFFFFF; fill-opacity:1.0; 
stroke:#FFFFFF; stroke-width:0; stroke-opacity:1; 
stroke-linecap:round; stroke-linejoin:round;">
<circle cx="27800" cy="22800" r="68.8976" /> 
</g>
<g style="fill:#FFFFFF; fill-opacity:1.0; 
stroke:#FFFFFF; stroke-width:39.3701; stroke-opacity:1; 
stroke-linecap:round; stroke-linejoin:round;">
</g>
<g style="fill:#FFFFFF; fill-opacity:1.0; 
stroke:#FFFFFF; stroke-width:0; stroke-opacity:1; 
stroke-linecap:round; stroke-linejoin:round;">
<circle cx="32500" cy="20050" r="68.8976" /> 
</g>
<g style="fill:#FFFFFF; fill-opacity:1.0; 
stroke:#FFFFFF; stroke-width:39.3701; stroke-opacity:1; 
stroke-linecap:round; stroke-linejoin:round;">
</g>
<g style="fill:#FFFFFF; fill-opacity:1.0; 
stroke:#FFFFFF; stroke-width:0; stroke-opacity:1; 
stroke-linecap:round; stroke-linejoin:round;">
<circle cx="33850" cy="25600" r="68.8976" /> 
</g>
<g style="fill:#FFFFFF; fill-opacity:1.0; 
stroke:#FFFFFF; stroke-width:39.3701; stroke-opacity:1; 
stroke-linecap:round; stroke-linejoin:round;">
</g>
<g style="fill:#FFFFFF; fill-opacity:1.0; 
stroke:#FFFFFF; stroke-width:0; stroke-opacity:1; 
stroke-linecap:round; stroke-linejoin:round;">
<circle cx="33600" cy="29900" r="68.8976" /> 
</g>
<g style="fill:#FFFFFF; fill-opacity:1.0; 
stroke:#FFFFFF; stroke-width:39.3701; stroke-opacity:1; 
stroke-linecap:round; stroke-linejoin:round;">
</g>
<g style="fill:#FFFFFF; fill-opacity:1.0; 
stroke:#FFFFFF; stroke-width:0; stroke-opacity:1; 
stroke-linecap:round; stroke-linejoin:round;">
<circle cx="33400" cy="38600" r="68.8976" /> 
</g>
<g style="fill:#FFFFFF; fill-opacity:1.0; 
stroke:#FFFFFF; stroke-width:39.3701; stroke-opacity:1; 
stroke-linecap:round; stroke-linejoin:round;">
</g>
<g style="fill:#FFFFFF; fill-opacity:1.0; 
stroke:#FFFFFF; stroke-width:0; stroke-opacity:1; 
stroke-linecap:round; stroke-linejoin:round;">
<circle cx="34000" cy="43800" r="68.8976" /> 
</g>
<g style="fill:#FFFFFF; fill-opacity:1.0; 
stroke:#FFFFFF; stroke-width:39.3701; stroke-opacity:1; 
stroke-linecap:round; stroke-linejoin:round;">
</g>
<g style="fill:#FFFFFF; fill-opacity:1.0; 
stroke:#FFFFFF; stroke-width:0; stroke-opacity:1; 
stroke-linecap:round; stroke-linejoin:round;">
<circle cx="32500" cy="48700" r="68.8976" /> 
</g>
<g style="fill:#FFFFFF; fill-opacity:1.0; 
stroke:#FFFFFF; stroke-width:39.3701; stroke-opacity:1; 
stroke-linecap:round; stroke-linejoin:round;">
</g>
<g style="fill:#FFFFFF; fill-opacity:1.0; 
stroke:#FFFFFF; stroke-width:0; stroke-opacity:1; 
stroke-linecap:round; stroke-linejoin:round;">
<circle cx="29200" cy="44700" r="68.8976" /> 
</g>
<g style="fill:#FFFFFF; fill-opacity:1.0; 
stroke:#FFFFFF; stroke-width:39.3701; stroke-opacity:1; 
stroke-linecap:round; stroke-linejoin:round;">
</g>
<g style="fill:#FFFFFF; fill-opacity:1.0; 
stroke:#FFFFFF; stroke-width:0; stroke-opacity:1; 
stroke-linecap:round; stroke-linejoin:round;">
<circle cx="29200" cy="41700" r="68.8976" /> 
</g>
<g style="fill:#FFFFFF; fill-opacity:1.0; 
stroke:#FFFFFF; stroke-width:39.3701; stroke-opacity:1; 
stroke-linecap:round; stroke-linejoin:round;">
</g>
<g style="fill:#FFFFFF; fill-opacity:1.0; 
stroke:#FFFFFF; stroke-width:0; stroke-opacity:1; 
stroke-linecap:round; stroke-linejoin:round;">
<circle cx="25600" cy="48400" r="68.8976" /> 
</g>
<g style="fill:#FFFFFF; fill-opacity:1.0; 
stroke:#FFFFFF; stroke-width:39.3701; stroke-opacity:1; 
stroke-linecap:round; stroke-linejoin:round;">
</g>
<g style="fill:#FFFFFF; fill-opacity:1.0; 
stroke:#FFFFFF; stroke-width:0; stroke-opacity:1; 
stroke-linecap:round; stroke-linejoin:round;">
<circle cx="25600" cy="47415.7" r="68.8976" /> 
</g>
<g style="fill:#FFFFFF; fill-opacity:1.0; 
stroke:#FFFFFF; stroke-width:39.3701; stroke-opacity:1; 
stroke-linecap:round; stroke-linejoin:round;">
</g>
<g style="fill:#FFFFFF; fill-opacity:1.0; 
stroke:#FFFFFF; stroke-width:0; stroke-opacity:1; 
stroke-linecap:round; stroke-linejoin:round;">
<circle cx="25600" cy="45100" r="68.8976" /> 
</g>
<g style="fill:#FFFFFF; fill-opacity:1.0; 
stroke:#FFFFFF; stroke-width:39.3701; stroke-opacity:1; 
stroke-linecap:round; stroke-linejoin:round;">
</g>
<g style="fill:#FFFFFF; fill-opacity:1.0; 
stroke:#FFFFFF; stroke-width:0; stroke-opacity:1; 
stroke-linecap:round; stroke-linejoin:round;">
<circle cx="25600" cy="46084.3" r="68.8976" /> 
</g>
<g style="fill:#FFFFFF; fill-opacity:1.0; 
stroke:#FFFFFF; stroke-width:39.3701; stroke-opacity:1; 
stroke-linecap:round; stroke-linejoin:round;">
</g>
<g style="fill:#FFFFFF; fill-opacity:1.0; 
stroke:#FFFFFF; stroke-width:0; stroke-opacity:1; 
stroke-linecap:round; stroke-linejoin:round;">
<circle cx="23200" cy="34700" r="68.8976" /> 
</g>
<g style="fill:#FFFFFF; fill-opacity:1.0; 
stroke:#FFFFFF; stroke-width:39.3701; stroke-opacity:1; 
stroke-linecap:round; stroke-linejoin:round;">
</g>
<g style="fill:#000000; fill-opacity:1.0; 
stroke:#000000; stroke-width:39.3701; stroke-opacity:1; 
stroke-linecap:round; stroke-linejoin:round;">
</g> 
</svg>
