M48
; DRILL file KiCad 10.0.3 date 2026-06-26T01:53:38
; FORMAT={-:-/ absolute / metric / decimal}
; #@! TF.CreationDate,2026-06-26T01:53:38+03:00
; #@! TF.GenerationSoftware,Kicad,Pcbnew,10.0.3
; #@! TF.FileFunction,MixedPlating,1,2
FMAT,2
METRIC
; #@! TA.AperFunction,Plated,PTH,ComponentDrill
T1C0.800
%
G90
G05
T1
X39.751Y-76.962
X39.751Y-84.582
X39.751Y-91.17
X39.751Y-98.79
X43.815Y-76.962
X43.815Y-84.582
X43.815Y-91.297
X43.815Y-98.917
X48.133Y-73.152
X48.133Y-79.502
X48.133Y-84.502
X48.133Y-91.337
X48.133Y-96.337
X48.133Y-102.219
X54.737Y-77.002
X54.737Y-82.002
X54.737Y-93.496
X54.737Y-98.496
X55.753Y-73.152
X55.753Y-102.219
X60.452Y-99.695
X60.452Y-102.235
X60.833Y-73.181
X60.833Y-75.721
X62.103Y-82.169
X62.103Y-84.669
X62.103Y-90.805
X62.103Y-93.305
X64.77Y-97.917
X64.77Y-100.457
X64.77Y-102.997
X65.728Y-72.527
X65.728Y-75.067
X65.728Y-77.607
X69.723Y-73.787
X69.723Y-81.407
X69.723Y-94.107
X69.723Y-101.727
X73.787Y-71.53
X73.787Y-74.07
X73.787Y-101.6
X73.787Y-104.14
X74.803Y-79.034
X74.803Y-81.534
X74.803Y-94.234
X74.803Y-96.734
X77.216Y-72.517
X77.226Y-102.166
X79.756Y-72.517
X79.766Y-102.166
X81.898Y-78.994
X81.898Y-81.494
X81.915Y-94.234
X81.915Y-96.734
X82.296Y-72.517
X82.306Y-102.166
X88.138Y-73.787
X88.138Y-81.407
X88.138Y-94.107
X88.138Y-101.727
X93.218Y-76.392
X93.218Y-78.892
X93.218Y-96.774
X93.218Y-99.274
X99.568Y-76.327
X99.568Y-78.827
X99.568Y-96.774
X99.568Y-99.274
M30
