<?xml version="1.0" standalone="no"?>
 <!DOCTYPE svg PUBLIC "-//W3C//DTD SVG 1.1//EN" 
 "http://www.w3.org/Graphics/SVG/1.1/DTD/svg11.dtd"> 
<svg xmlns="http://www.w3.org/2000/svg" version="1.1" 
    width="41.9989cm" height="29.7002cm" viewBox="0 0 165350 116930 ">
<title>SVG Picture created as power_ctrl-F.SilkS.svg date 2016/10/13 14:36:49 </title>
  <desc>Picture generated by PCBNEW </desc>
<g style="fill:#000000; fill-opacity:1;stroke:#000000; stroke-opacity:1;
stroke-linecap:round; stroke-linejoin:round; "
 transform="translate(0 0) scale(1 1)">
</g>
<g style="fill:#000000; fill-opacity:0.0; 
stroke:#000000; stroke-width:-0.000393701; stroke-opacity:1; 
stroke-linecap:round; stroke-linejoin:round;">
</g>
<g style="fill:#000000; fill-opacity:0.0; 
stroke:#000000; stroke-width:59.0551; stroke-opacity:1; 
stroke-linecap:round; stroke-linejoin:round;">
<path d="M77330 31919
L78669 31919
" />
<path d="M78000 30305.1 A944.882 944.882 0.0 0 0 77331.9 31918.1 " />
<path d="M78668.1 31918.1 A944.882 944.882 0.0 0 0 78000 30305.1 " />
<path d="M81303 32346
L81303 32846
" />
<path d="M84196 32346
L84196 32846
" />
<path d="M84196 47153
L84196 46653
" />
<path d="M81303 47153
L81303 46653
" />
<path d="M81303 32346
L84196 32346
" />
<path d="M81303 47153
L84196 47153
" />
<path d="M81303 32846
L80797 32846
" />
<path d="M83850 24000
L83100 24000
" />
<path d="M82100 24000
L82400 24000
" />
<path d="M81150 24000
L81100 24000
" />
<path d="M81150 24000
L81400 24000
" />
<path d="M79650 24000
L80350 24000
" />
<path d="M79650 25450
L80300 25450
" />
<path d="M81350 25500
L81100 25500
" />
<path d="M82350 25500
L82100 25500
" />
<path d="M83850 25450
L83200 25450
" />
<path d="M81150 23550
L81150 24000
" />
<path d="M82350 23550
L82350 24000
" />
<path d="M83850 24000
L83850 25450
" />
<path d="M79650 25450
L79650 24000
" />
<path d="M83850 23550
L83850 24000
" />
<path d="M79650 24000
L79650 23550
" />
<path d="M81750 23550
L79650 23550
" />
<path d="M81750 23550
L83850 23550
" />
<path d="M93500 24250
L93500 28250
" />
<path d="M94000 24250
L91000 24250
" />
<path d="M91000 24250
L91000 28250
" />
<path d="M91000 28250
L94000 28250
" />
<path d="M94000 28250
L94000 24250
" />
<path d="M72500 32500
L72500 28500
" />
<path d="M72000 32500
L75000 32500
" />
<path d="M75000 32500
L75000 28500
" />
<path d="M75000 28500
L72000 28500
" />
<path d="M72000 28500
L72000 32500
" />
<path d="M72500 28250
L72500 24250
" />
<path d="M72000 28250
L75000 28250
" />
<path d="M75000 28250
L75000 24250
" />
<path d="M75000 24250
L72000 24250
" />
<path d="M72000 24250
L72000 28250
" />
<path d="M72000 46000
L72000 42000
" />
<path d="M71500 46000
L74500 46000
" />
<path d="M74500 46000
L74500 42000
" />
<path d="M74500 42000
L71500 42000
" />
<path d="M71500 42000
L71500 46000
" />
<path d="M79356 42143
L79356 39387
" />
<path d="M79356 39387
L80143 39387
" />
<path d="M80143 39387
L80143 42143
" />
<path d="M80143 42143
L79356 42143
" />
<path d="M81893 27143
L79137 27143
" />
<path d="M79137 27143
L79137 26356
" />
<path d="M79137 26356
L81893 26356
" />
<path d="M81893 26356
L81893 27143
" />
<path d="M80606 27606
L83362 27606
" />
<path d="M83362 27606
L83362 28393
" />
<path d="M83362 28393
L80606 28393
" />
<path d="M80606 28393
L80606 27606
" />
<path d="M85356 41143
L85356 38387
" />
<path d="M85356 38387
L86143 38387
" />
<path d="M86143 38387
L86143 41143
" />
<path d="M86143 41143
L85356 41143
" />
<path d="M84750 28193
L86698 30141
" />
<path d="M86698 30141
L86141 30698
" />
<path d="M86141 30698
L84193 28750
" />
<path d="M84193 28750
L84750 28193
" />
<path d="M89482 24721
L89561 24721
" />
<path d="M90503 24721
L90433 24721
" />
<path d="M90381.7 25992.4 A786.653 786.653 0.0 0 0 90506.3 24721.7 " />
<path d="M90432.7 25726.4 A608.718 608.718 0.0 0 0 90433.1 24898.4 " />
<path d="M89472.2 24726.7 A782.385 782.385 0.0 0 0 89608.7 26001.2 " />
<path d="M89561.7 24913 A582.991 582.991 0.0 0 0 89569.3 25719.3 " />
<path d="M77232 40171
L77311 40171
" />
<path d="M78253 40171
L78183 40171
" />
<path d="M78131.7 41442.4 A786.653 786.653 0.0 0 0 78256.3 40171.7 " />
<path d="M78182.7 41176.4 A608.718 608.718 0.0 0 0 78183.1 40348.4 " />
<path d="M77222.2 40176.7 A782.385 782.385 0.0 0 0 77358.7 41451.2 " />
<path d="M77311.7 40363 A582.991 582.991 0.0 0 0 77319.3 41169.3 " />
<path d="M79750 34750
L79750 35150
" />
<path d="M79750 35150
L80150 35150
" />
<path d="M80150 35150
L80150 38350
" />
<path d="M80150 38350
L79350 38350
" />
<path d="M79350 38350
L79350 35150
" />
<path d="M79350 35150
L79750 35150
" />
<path d="M79950 35150
L80150 35350
" />
<path d="M79750 38750
L79750 38350
" />
<path d="M85750 34000
L86150 34000
" />
<path d="M86150 34000
L86150 33600
" />
<path d="M86150 33600
L89350 33600
" />
<path d="M89350 33600
L89350 34400
" />
<path d="M89350 34400
L86150 34400
" />
<path d="M86150 34400
L86150 34000
" />
<path d="M86150 33800
L86350 33600
" />
<path d="M89750 34000
L89350 34000
" />
<path d="M87750 31500
L87350 31500
" />
<path d="M87350 31500
L87350 31900
" />
<path d="M87350 31900
L84150 31900
" />
<path d="M84150 31900
L84150 31100
" />
<path d="M84150 31100
L87350 31100
" />
<path d="M87350 31100
L87350 31500
" />
<path d="M87350 31700
L87150 31900
" />
<path d="M83750 31500
L84150 31500
" />
<path d="M86750 23750
L86750 24150
" />
<path d="M86750 24150
L87150 24150
" />
<path d="M87150 24150
L87150 27350
" />
<path d="M87150 27350
L86350 27350
" />
<path d="M86350 27350
L86350 24150
" />
<path d="M86350 24150
L86750 24150
" />
<path d="M86950 24150
L87150 24350
" />
<path d="M86750 27750
L86750 27350
" />
<path d="M87500 40750
L87500 40350
" />
<path d="M87500 40350
L87100 40350
" />
<path d="M87100 40350
L87100 37150
" />
<path d="M87100 37150
L87900 37150
" />
<path d="M87900 37150
L87900 40350
" />
<path d="M87900 40350
L87500 40350
" />
<path d="M87300 40350
L87100 40150
" />
<path d="M87500 36750
L87500 37150
" />
<path d="M87250 42750
L90250 42750
" />
<path d="M87250 41750
L90250 41750
" />
<path d="M86139 41639
L86750 41639
" />
<path d="M90250 42750
L90250 41750
" />
<path d="M87250 41750
L87250 42750
" />
<path d="M86750 42860
L86139 42860
" />
<path d="M86139 42860
L86139 41639
" />
<path d="M74750 36850
L74750 36100
" />
<path d="M74750 35100
L74750 35400
" />
<path d="M74750 34150
L74750 34100
" />
<path d="M74750 34150
L74750 34400
" />
<path d="M74750 32650
L74750 33350
" />
<path d="M73300 32650
L73300 33300
" />
<path d="M73250 34350
L73250 34100
" />
<path d="M73250 35350
L73250 35100
" />
<path d="M73300 36850
L73300 36200
" />
<path d="M75200 34150
L74750 34150
" />
<path d="M75200 35350
L74750 35350
" />
<path d="M74750 36850
L73300 36850
" />
<path d="M73300 32650
L74750 32650
" />
<path d="M75200 36850
L74750 36850
" />
<path d="M74750 32650
L75200 32650
" />
<path d="M75200 34750
L75200 32650
" />
<path d="M75200 34750
L75200 36850
" />
<path d="M88250 23750
L88250 24150
" />
<path d="M88250 24150
L88650 24150
" />
<path d="M88650 24150
L88650 27350
" />
<path d="M88650 27350
L87850 27350
" />
<path d="M87850 27350
L87850 24150
" />
<path d="M87850 24150
L88250 24150
" />
<path d="M88450 24150
L88650 24350
" />
<path d="M88250 27750
L88250 27350
" />
<path d="M88750 40000
L88750 39600
" />
<path d="M88750 39600
L88350 39600
" />
<path d="M88350 39600
L88350 36400
" />
<path d="M88350 36400
L89150 36400
" />
<path d="M89150 36400
L89150 39600
" />
<path d="M89150 39600
L88750 39600
" />
<path d="M88550 39600
L88350 39400
" />
<path d="M88750 36000
L88750 36400
" />
<path d="M78250 37000
L78250 36600
" />
<path d="M78250 36600
L77850 36600
" />
<path d="M77850 36600
L77850 33400
" />
<path d="M77850 33400
L78650 33400
" />
<path d="M78650 33400
L78650 36600
" />
<path d="M78650 36600
L78250 36600
" />
<path d="M78050 36600
L77850 36400
" />
<path d="M78250 33000
L78250 33400
" />
<path d="M77750 43250
L77750 43650
" />
<path d="M77750 43650
L78150 43650
" />
<path d="M78150 43650
L78150 46850
" />
<path d="M78150 46850
L77350 46850
" />
<path d="M77350 46850
L77350 43650
" />
<path d="M77350 43650
L77750 43650
" />
<path d="M77950 43650
L78150 43850
" />
<path d="M77750 47250
L77750 46850
" />
<path d="M76750 37000
L76750 36600
" />
<path d="M76750 36600
L76350 36600
" />
<path d="M76350 36600
L76350 33400
" />
<path d="M76350 33400
L77150 33400
" />
<path d="M77150 33400
L77150 36600
" />
<path d="M77150 36600
L76750 36600
" />
<path d="M76550 36600
L76350 36400
" />
<path d="M76750 33000
L76750 33400
" />
<path d="M76000 38500
L76000 38900
" />
<path d="M76000 38900
L76400 38900
" />
<path d="M76400 38900
L76400 42100
" />
<path d="M76400 42100
L75600 42100
" />
<path d="M75600 42100
L75600 38900
" />
<path d="M75600 38900
L76000 38900
" />
<path d="M76200 38900
L76400 39100
" />
<path d="M76000 42500
L76000 42100
" />
<path d="M78814 28173
L77423 29564
" />
<path d="M78851 28214
L77464 29601
" />
<path d="M78885 28257
L78223 28920
" />
<path d="M78170 28973
L77507 29635
" />
<path d="M78918 28303
L78372 28849
" />
<path d="M78099 29122
L77553 29668
" />
<path d="M78947 28351
L78457 28841
" />
<path d="M78091 29207
L77601 29697
" />
<path d="M78975 28402
L78526 28851
" />
<path d="M78101 29276
L77652 29725
" />
<path d="M79000 28454
L78585 28870
" />
<path d="M78120 29335
L77704 29750
" />
<path d="M79022 28510
L78636 28896
" />
<path d="M78146 29386
L77760 29772
" />
<path d="M79042 28569
L78680 28930
" />
<path d="M78180 29430
L77819 29792
" />
<path d="M79058 28631
L78719 28970
" />
<path d="M78220 29469
L77881 29808
" />
<path d="M79070 28696
L78751 29016
" />
<path d="M78266 29501
L77946 29820
" />
<path d="M79078 28766
L78776 29068
" />
<path d="M78318 29526
L78016 29828
" />
<path d="M79082 28841
L78793 29129
" />
<path d="M78379 29543
L78091 29832
" />
<path d="M79079 28921
L78800 29200
" />
<path d="M78450 29550
L78171 29829
" />
<path d="M79068 29010
L78786 29292
" />
<path d="M78542 29536
L78260 29818
" />
<path d="M79046 29110
L78360 29796
" />
<path d="M79005 29229
L78479 29755
" />
<path d="M78912 29400
L78650 29662
" />
<circle cx="78446" cy="29196" r="354.331" /> 
<circle cx="78098" cy="28848" r="999.016" /> 
<path d="M85564 26173
L84173 27564
" />
<path d="M85601 26214
L84214 27601
" />
<path d="M85635 26257
L84973 26920
" />
<path d="M84920 26973
L84257 27635
" />
<path d="M85668 26303
L85122 26849
" />
<path d="M84849 27122
L84303 27668
" />
<path d="M85697 26351
L85207 26841
" />
<path d="M84841 27207
L84351 27697
" />
<path d="M85725 26402
L85276 26851
" />
<path d="M84851 27276
L84402 27725
" />
<path d="M85750 26454
L85335 26870
" />
<path d="M84870 27335
L84454 27750
" />
<path d="M85772 26510
L85386 26896
" />
<path d="M84896 27386
L84510 27772
" />
<path d="M85792 26569
L85430 26930
" />
<path d="M84930 27430
L84569 27792
" />
<path d="M85808 26631
L85469 26970
" />
<path d="M84970 27469
L84631 27808
" />
<path d="M85820 26696
L85501 27016
" />
<path d="M85016 27501
L84696 27820
" />
<path d="M85828 26766
L85526 27068
" />
<path d="M85068 27526
L84766 27828
" />
<path d="M85832 26841
L85543 27129
" />
<path d="M85129 27543
L84841 27832
" />
<path d="M85829 26921
L85550 27200
" />
<path d="M85200 27550
L84921 27829
" />
<path d="M85818 27010
L85536 27292
" />
<path d="M85292 27536
L85010 27818
" />
<path d="M85796 27110
L85110 27796
" />
<path d="M85755 27229
L85229 27755
" />
<path d="M85662 27400
L85400 27662
" />
<circle cx="85196" cy="27196" r="354.331" /> 
<circle cx="84848" cy="26848" r="999.016" /> 
<path d="M80935 30576
L82326 29185
" />
<path d="M80898 30535
L82285 29148
" />
<path d="M80864 30492
L81526 29829
" />
<path d="M81579 29776
L82242 29114
" />
<path d="M80831 30446
L81377 29900
" />
<path d="M81650 29627
L82196 29081
" />
<path d="M80802 30398
L81292 29908
" />
<path d="M81658 29542
L82148 29052
" />
<path d="M80774 30347
L81223 29898
" />
<path d="M81648 29473
L82097 29024
" />
<path d="M80749 30295
L81164 29879
" />
<path d="M81629 29414
L82045 28999
" />
<path d="M80727 30239
L81113 29853
" />
<path d="M81603 29363
L81989 28977
" />
<path d="M80707 30180
L81069 29819
" />
<path d="M81569 29319
L81930 28957
" />
<path d="M80691 30118
L81030 29779
" />
<path d="M81529 29280
L81868 28941
" />
<path d="M80679 30053
L80998 29733
" />
<path d="M81483 29248
L81803 28929
" />
<path d="M80671 29983
L80973 29681
" />
<path d="M81431 29223
L81733 28921
" />
<path d="M80667 29908
L80956 29620
" />
<path d="M81370 29206
L81658 28917
" />
<path d="M80670 29828
L80949 29549
" />
<path d="M81299 29199
L81578 28920
" />
<path d="M80681 29739
L80963 29457
" />
<path d="M81207 29213
L81489 28931
" />
<path d="M80703 29639
L81389 28953
" />
<path d="M80744 29520
L81270 28994
" />
<path d="M80837 29349
L81099 29087
" />
<circle cx="81304" cy="29554" r="354.331" /> 
<circle cx="81652" cy="29902" r="999.016" /> 
<path d="M89516 38978
L91483 38978
" />
<path d="M89519 38923
L91480 38923
" />
<path d="M89525 38868
L90462 38868
" />
<path d="M90537 38868
L91474 38868
" />
<path d="M89535 38812
L90307 38812
" />
<path d="M90692 38812
L91464 38812
" />
<path d="M89548 38757
L90241 38757
" />
<path d="M90758 38757
L91451 38757
" />
<path d="M89564 38702
L90199 38702
" />
<path d="M90800 38702
L91435 38702
" />
<path d="M89583 38647
L90171 38647
" />
<path d="M90828 38647
L91416 38647
" />
<path d="M89607 38592
L90153 38592
" />
<path d="M90846 38592
L91392 38592
" />
<path d="M89635 38537
L90146 38537
" />
<path d="M90853 38537
L91364 38537
" />
<path d="M89667 38482
L90147 38482
" />
<path d="M90852 38482
L91332 38482
" />
<path d="M89705 38427
L90157 38427
" />
<path d="M90842 38427
L91294 38427
" />
<path d="M89748 38372
L90175 38372
" />
<path d="M90824 38372
L91251 38372
" />
<path d="M89799 38316
L90206 38316
" />
<path d="M90793 38316
L91200 38316
" />
<path d="M89857 38261
L90252 38261
" />
<path d="M90747 38261
L91142 38261
" />
<path d="M89928 38206
L90326 38206
" />
<path d="M90673 38206
L91071 38206
" />
<path d="M90014 38151
L90985 38151
" />
<path d="M90128 38096
L90871 38096
" />
<path d="M90314 38041
L90685 38041
" />
<circle cx="90500" cy="38515.7" r="354.331" /> 
<circle cx="90500" cy="39007.9" r="999.016" /> 
<path d="M72986 41468
L72986 37531
" />
<path d="M72931 41466
L72931 37533
" />
<path d="M72875 41463
L72875 37536
" />
<path d="M72820 41458
L72820 37541
" />
<path d="M72765 41452
L72765 37547
" />
<path d="M72710 41444
L72710 37555
" />
<path d="M72655 41435
L72655 37564
" />
<path d="M72600 41424
L72600 37575
" />
<path d="M72545 41411
L72545 37588
" />
<path d="M72490 41396
L72490 37603
" />
<path d="M72435 41380
L72435 37619
" />
<path d="M72379 41362
L72379 39683
" />
<path d="M72379 39316
L72379 37637
" />
<path d="M72324 41343
L72324 39762
" />
<path d="M72324 39237
L72324 37656
" />
<path d="M72269 41321
L72269 39813
" />
<path d="M72269 39186
L72269 37678
" />
<path d="M72214 41298
L72214 39848
" />
<path d="M72214 39151
L72214 37701
" />
<path d="M72159 41272
L72159 39872
" />
<path d="M72159 39127
L72159 37727
" />
<path d="M72104 41244
L72104 39887
" />
<path d="M72104 39112
L72104 37755
" />
<path d="M72049 41214
L72049 39893
" />
<path d="M72049 39106
L72049 37785
" />
<path d="M71994 41182
L71994 39891
" />
<path d="M71994 39108
L71994 37817
" />
<path d="M71938 41148
L71938 39882
" />
<path d="M71938 39117
L71938 37851
" />
<path d="M71883 41110
L71883 39864
" />
<path d="M71883 39135
L71883 37889
" />
<path d="M71828 41070
L71828 39837
" />
<path d="M71828 39162
L71828 37929
" />
<path d="M71773 41027
L71773 39797
" />
<path d="M71773 39202
L71773 37972
" />
<path d="M71718 40980
L71718 39738
" />
<path d="M71718 39261
L71718 38019
" />
<path d="M71663 40930
L71663 39639
" />
<path d="M71663 39360
L71663 38069
" />
<path d="M71608 40876
L71608 38123
" />
<path d="M71553 40817
L71553 38182
" />
<path d="M71498 40753
L71498 38246
" />
<path d="M71442 40683
L71442 38316
" />
<path d="M71387 40606
L71387 38393
" />
<path d="M71332 40520
L71332 38479
" />
<path d="M71277 40424
L71277 38575
" />
<path d="M71222 40311
L71222 38688
" />
<path d="M71167 40177
L71167 38822
" />
<path d="M71112 40001
L71112 38998
" />
<path d="M71057 39696
L71057 39303
" />
<circle cx="72031.5" cy="39500" r="393.701" /> 
<circle cx="73015.7" cy="39500" r="1983.27" /> 
<path d="M76251 26650
L76251 27200
" />
<path d="M76251 24900
L76251 24300
" />
<path d="M76551 25050
L75951 25050
" />
<path d="M76551 24950
L75951 24950
" />
<path d="M76251 24850
L75951 24850
" />
<path d="M75951 24850
L75951 26650
" />
<path d="M75951 26650
L76551 26650
" />
<path d="M76551 26650
L76551 24850
" />
<path d="M76551 24850
L76251 24850
" />
<path d="M80849 23751
L80299 23751
" />
<path d="M82599 23751
L83199 23751
" />
<path d="M82449 24051
L82449 23451
" />
<path d="M82549 24051
L82549 23451
" />
<path d="M82649 23751
L82649 23451
" />
<path d="M82649 23451
L80849 23451
" />
<path d="M80849 23451
L80849 24051
" />
<path d="M80849 24051
L82649 24051
" />
<path d="M82649 24051
L82649 23751
" />
<path d="M91250 42000
L91250 45000
" />
<path d="M92250 42000
L92250 45000
" />
<path d="M92360 40889
L92360 41500
" />
<path d="M91250 45000
L92250 45000
" />
<path d="M92250 42000
L91250 42000
" />
<path d="M91139 41500
L91139 40889
" />
<path d="M91139 40889
L92360 40889
" />
<path d="M75500 44500
L75500 47500
" />
<path d="M76500 44500
L76500 47500
" />
<path d="M76610 43389
L76610 44000
" />
<path d="M75500 47500
L76500 47500
" />
<path d="M76500 44500
L75500 44500
" />
<path d="M75389 44000
L75389 43389
" />
<path d="M75389 43389
L76610 43389
" />
<path d="M85250 36750
L85250 35750
" />
<path d="M85139 37860
L85139 37250
" />
<path d="M85250 36750
L86250 36750
" />
<path d="M86360 37250
L86360 37860
" />
<path d="M86360 37860
L85139 37860
" />
<path d="M86250 36750
L86250 35750
" />
<path d="M86250 35750
L85250 35750
" />
<path d="M80000 45750
L80000 46750
" />
<path d="M80110 44639
L80110 45250
" />
<path d="M80000 45750
L79000 45750
" />
<path d="M78889 45250
L78889 44639
" />
<path d="M78889 44639
L80110 44639
" />
<path d="M79000 45750
L79000 46750
" />
<path d="M79000 46750
L80000 46750
" />
<path d="M85500 46000
L85500 45000
" />
<path d="M85389 47110
L85389 46500
" />
<path d="M85500 46000
L86500 46000
" />
<path d="M86610 46500
L86610 47110
" />
<path d="M86610 47110
L85389 47110
" />
<path d="M86500 46000
L86500 45000
" />
<path d="M86500 45000
L85500 45000
" />
<path d="M92700 34950
L97900 34950
" />
<path d="M92700 29650
L97900 29650
" />
<path d="M97900 34950
L97900 29650
" />
<path d="M92700 29950
L92700 29650
" />
<path d="M92700 34950
L92700 29950
" />
<path d="M91750 33500
L91750 30500
" />
<path d="M90750 33500
L90750 30500
" />
<path d="M90639 34610
L90639 34000
" />
<path d="M91750 30500
L90750 30500
" />
<path d="M90750 33500
L91750 33500
" />
<path d="M91860 34000
L91860 34610
" />
<path d="M91860 34610
L90639 34610
" />
<path d="M77462 29890
L77425 29872
L77387 29834
L77331 29778
L77293 29759
L77256 29759
" />
<path d="M77275 29853
L77237 29834
L77200 29797
L77181 29722
L77181 29590
L77200 29515
L77237 29478
L77275 29459
L77350 29459
L77387 29478
L77425 29515
L77443 29590
L77443 29722
L77425 29797
L77387 29834
L77350 29853
L77275 29853
" />
<path d="M77818 29853
L77593 29853
" />
<path d="M77706 29853
L77706 29459
L77668 29515
L77631 29553
L77593 29572
" />
<path d="M81118 30979
L81118 31260
L81100 31316
L81062 31354
L81006 31372
L80968 31372
" />
<path d="M81512 31372
L81287 31372
" />
<path d="M81399 31372
L81399 30979
L81362 31035
L81324 31073
L81287 31091
" />
<path d="M79950 23034
L79950 23353
L79968 23390
L79987 23409
L80025 23428
L80100 23428
L80137 23409
L80156 23390
L80175 23353
L80175 23034
" />
<path d="M80568 23428
L80343 23428
" />
<path d="M80456 23428
L80456 23034
L80418 23090
L80381 23128
L80343 23146
" />
<path d="M90284 27224
L90284 27412
L90471 27431
L90453 27412
L90434 27374
L90434 27281
L90453 27243
L90471 27224
L90509 27206
L90603 27206
L90640 27224
L90659 27243
L90678 27281
L90678 27374
L90659 27412
L90640 27431
" />
<path d="M90284 27093
L90678 26962
L90284 26831
" />
<path d="M90715 26793
L90715 26493
" />
<path d="M90565 26418
L90565 26231
" />
<path d="M90678 26456
L90284 26324
L90678 26193
" />
<path d="M90284 26062
L90603 26062
L90640 26043
L90659 26025
L90678 25987
L90678 25912
L90659 25875
L90640 25856
L90603 25837
L90284 25837
" />
<path d="M90284 25687
L90678 25425
" />
<path d="M90284 25425
L90678 25687
" />
<path d="M90678 25068
L90678 25293
" />
<path d="M90678 25181
L90284 25181
L90340 25218
L90378 25256
L90396 25293
" />
<path d="M75678 31643
L75678 31868
" />
<path d="M75678 31756
L75284 31756
L75340 31793
L75378 31831
L75396 31868
" />
<path d="M75321 31493
L75303 31474
L75284 31437
L75284 31343
L75303 31306
L75321 31287
L75359 31268
L75396 31268
L75453 31287
L75678 31512
L75678 31268
" />
<path d="M75284 31156
L75678 31024
L75284 30893
" />
<path d="M75715 30856
L75715 30556
" />
<path d="M75565 30481
L75565 30293
" />
<path d="M75678 30518
L75284 30387
L75678 30256
" />
<path d="M75284 30125
L75603 30125
L75640 30106
L75659 30087
L75678 30050
L75678 29975
L75659 29937
L75640 29918
L75603 29900
L75284 29900
" />
<path d="M75284 29750
L75678 29487
" />
<path d="M75284 29487
L75678 29750
" />
<path d="M75678 29131
L75678 29356
" />
<path d="M75678 29243
L75284 29243
L75340 29281
L75378 29318
L75396 29356
" />
<path d="M74928 27881
L74928 28106
" />
<path d="M74928 27993
L74534 27993
L74590 28031
L74628 28068
L74646 28106
" />
<path d="M74571 27731
L74553 27712
L74534 27674
L74534 27581
L74553 27543
L74571 27524
L74609 27506
L74646 27506
L74703 27524
L74928 27749
L74928 27506
" />
<path d="M74534 27393
L74928 27262
L74534 27131
" />
<path d="M74965 27093
L74965 26793
" />
<path d="M74928 26700
L74534 26700
" />
<path d="M74928 26512
L74534 26512
L74928 26287
L74534 26287
" />
<path d="M74928 25893
L74928 26118
" />
<path d="M74928 26006
L74534 26006
L74590 26043
L74628 26081
L74646 26118
" />
<path d="M75178 44993
L75178 45218
" />
<path d="M75178 45106
L74784 45106
L74840 45143
L74878 45181
L74896 45218
" />
<path d="M74821 44843
L74803 44824
L74784 44787
L74784 44693
L74803 44656
L74821 44637
L74859 44618
L74896 44618
L74953 44637
L75178 44862
L75178 44618
" />
<path d="M74784 44506
L75178 44374
L74784 44243
" />
<path d="M75215 44206
L75215 43906
" />
<path d="M75159 43831
L75178 43775
L75178 43681
L75159 43643
L75140 43625
L75103 43606
L75065 43606
L75028 43625
L75009 43643
L74990 43681
L74971 43756
L74953 43793
L74934 43812
L74896 43831
L74859 43831
L74821 43812
L74803 43793
L74784 43756
L74784 43662
L74803 43606
" />
<path d="M74784 43475
L75178 43381
L74896 43306
L75178 43231
L74784 43137
" />
<path d="M75178 42781
L75178 43006
" />
<path d="M75178 42893
L74784 42893
L74840 42931
L74878 42968
L74896 43006
" />
<path d="M79004 40831
L79023 40850
L79042 40906
L79042 40943
L79023 41000
L78986 41037
L78948 41056
L78873 41075
L78817 41075
L78742 41056
L78704 41037
L78667 41000
L78648 40943
L78648 40906
L78667 40850
L78686 40831
" />
<path d="M79042 40456
L79042 40681
" />
<path d="M79042 40568
L78648 40568
L78704 40606
L78742 40643
L78761 40681
" />
<path d="M80450 27776
L80431 27795
L80375 27813
L80337 27813
L80281 27795
L80243 27757
L80225 27720
L80206 27645
L80206 27588
L80225 27513
L80243 27476
L80281 27438
L80337 27420
L80375 27420
L80431 27438
L80450 27457
" />
<path d="M80581 27420
L80825 27420
L80693 27570
L80750 27570
L80787 27588
L80806 27607
L80825 27645
L80825 27738
L80806 27776
L80787 27795
L80750 27813
L80637 27813
L80600 27795
L80581 27776
" />
<path d="M81918 27254
L81899 27273
L81843 27292
L81806 27292
L81749 27273
L81712 27236
L81693 27198
L81674 27123
L81674 27067
L81693 26992
L81712 26954
L81749 26917
L81806 26898
L81843 26898
L81899 26917
L81918 26936
" />
<path d="M82256 27029
L82256 27292
" />
<path d="M82162 26879
L82068 27161
L82312 27161
" />
<path d="M85004 39831
L85023 39850
L85042 39906
L85042 39943
L85023 40000
L84986 40037
L84948 40056
L84873 40075
L84817 40075
L84742 40056
L84704 40037
L84667 40000
L84648 39943
L84648 39906
L84667 39850
L84686 39831
" />
<path d="M84648 39493
L84648 39568
L84667 39606
L84686 39625
L84742 39662
L84817 39681
L84967 39681
L85004 39662
L85023 39643
L85042 39606
L85042 39531
L85023 39493
L85004 39475
L84967 39456
L84873 39456
L84836 39475
L84817 39493
L84798 39531
L84798 39606
L84817 39643
L84836 39662
L84873 39681
" />
<path d="M85926 28872
L85900 28872
L85846 28846
L85820 28819
L85793 28766
L85793 28713
L85807 28673
L85846 28607
L85886 28567
L85953 28527
L85992 28514
L86045 28514
L86098 28541
L86125 28567
L86151 28620
L86151 28647
" />
<path d="M86271 28713
L86456 28899
L86059 29058
" />
<path d="M88973 25842
L88579 25842
L88579 25748
L88598 25692
L88635 25655
L88673 25636
L88748 25617
L88804 25617
L88879 25636
L88917 25655
L88954 25692
L88973 25748
L88973 25842
" />
<path d="M88579 25486
L88579 25242
L88729 25373
L88729 25317
L88748 25280
L88767 25261
L88804 25242
L88898 25242
L88935 25261
L88954 25280
L88973 25317
L88973 25430
L88954 25467
L88935 25486
" />
<path d="M90178 26903
L89784 26903
" />
<path d="M90178 26678
L89953 26846
" />
<path d="M89784 26678
L90009 26903
" />
<path d="M76723 41292
L76329 41292
L76329 41198
L76348 41142
L76385 41105
L76423 41086
L76498 41067
L76554 41067
L76629 41086
L76667 41105
L76704 41142
L76723 41198
L76723 41292
" />
<path d="M76460 40730
L76723 40730
" />
<path d="M76310 40823
L76592 40917
L76592 40673
" />
<path d="M77243 39687
L76849 39687
" />
<path d="M77243 39462
L77018 39631
" />
<path d="M76849 39462
L77074 39687
" />
<path d="M79721 37078
L79721 37209
" />
<path d="M79928 37209
L79534 37209
L79534 37021
" />
<path d="M79721 36740
L79740 36684
L79759 36665
L79796 36646
L79853 36646
L79890 36665
L79909 36684
L79928 36721
L79928 36871
L79534 36871
L79534 36740
L79553 36703
L79571 36684
L79609 36665
L79646 36665
L79684 36684
L79703 36703
L79721 36740
L79721 36871
" />
<path d="M79928 36271
L79928 36496
" />
<path d="M79928 36384
L79534 36384
L79590 36421
L79628 36459
L79646 36496
" />
<path d="M87421 33971
L87290 33971
" />
<path d="M87290 34178
L87290 33784
L87478 33784
" />
<path d="M87759 33971
L87815 33990
L87834 34009
L87853 34046
L87853 34103
L87834 34140
L87815 34159
L87778 34178
L87628 34178
L87628 33784
L87759 33784
L87796 33803
L87815 33821
L87834 33859
L87834 33896
L87815 33934
L87796 33953
L87759 33971
L87628 33971
" />
<path d="M88003 33821
L88021 33803
L88059 33784
L88153 33784
L88190 33803
L88209 33821
L88228 33859
L88228 33896
L88209 33953
L87984 34178
L88228 34178
" />
<path d="M85421 31471
L85290 31471
" />
<path d="M85290 31678
L85290 31284
L85478 31284
" />
<path d="M85759 31471
L85815 31490
L85834 31509
L85853 31546
L85853 31603
L85834 31640
L85815 31659
L85778 31678
L85628 31678
L85628 31284
L85759 31284
L85796 31303
L85815 31321
L85834 31359
L85834 31396
L85815 31434
L85796 31453
L85759 31471
L85628 31471
" />
<path d="M85984 31284
L86228 31284
L86096 31434
L86153 31434
L86190 31453
L86209 31471
L86228 31509
L86228 31603
L86209 31640
L86190 31659
L86153 31678
L86040 31678
L86003 31659
L85984 31640
" />
<path d="M86721 26078
L86721 26209
" />
<path d="M86928 26209
L86534 26209
L86534 26021
" />
<path d="M86721 25740
L86740 25684
L86759 25665
L86796 25646
L86853 25646
L86890 25665
L86909 25684
L86928 25721
L86928 25871
L86534 25871
L86534 25740
L86553 25703
L86571 25684
L86609 25665
L86646 25665
L86684 25684
L86703 25703
L86721 25740
L86721 25871
" />
<path d="M86665 25309
L86928 25309
" />
<path d="M86515 25403
L86796 25496
L86796 25253
" />
<path d="M87471 38578
L87471 38709
" />
<path d="M87678 38709
L87284 38709
L87284 38521
" />
<path d="M87471 38240
L87490 38184
L87509 38165
L87546 38146
L87603 38146
L87640 38165
L87659 38184
L87678 38221
L87678 38371
L87284 38371
L87284 38240
L87303 38203
L87321 38184
L87359 38165
L87396 38165
L87434 38184
L87453 38203
L87471 38240
L87471 38371
" />
<path d="M87284 37790
L87284 37978
L87471 37996
L87453 37978
L87434 37940
L87434 37846
L87453 37809
L87471 37790
L87509 37771
L87603 37771
L87640 37790
L87659 37809
L87678 37846
L87678 37940
L87659 37978
L87640 37996
" />
<path d="M84920 42559
L84657 42559
" />
<path d="M84526 42559
L84545 42578
L84564 42559
L84545 42540
L84526 42559
L84564 42559
" />
<path d="M84920 42371
L84657 42371
" />
<path d="M84732 42371
L84695 42353
L84676 42334
L84657 42296
L84657 42259
" />
<path d="M84920 41921
L84920 42146
" />
<path d="M84920 42034
L84526 42034
L84582 42071
L84620 42109
L84639 42146
" />
<path d="M76215 34787
L76196 34824
L76159 34862
L76103 34918
L76084 34956
L76084 34993
" />
<path d="M76178 34974
L76159 35012
L76121 35049
L76046 35068
L75915 35068
L75840 35049
L75803 35012
L75784 34974
L75784 34899
L75803 34862
L75840 34824
L75915 34806
L76046 34806
L76121 34824
L76159 34862
L76178 34899
L76178 34974
" />
<path d="M75821 34656
L75803 34637
L75784 34600
L75784 34506
L75803 34468
L75821 34450
L75859 34431
L75896 34431
L75953 34450
L76178 34675
L76178 34431
" />
<path d="M88428 25815
L88240 25946
" />
<path d="M88428 26040
L88034 26040
L88034 25890
L88053 25853
L88071 25834
L88109 25815
L88165 25815
L88203 25834
L88221 25853
L88240 25890
L88240 26040
" />
<path d="M88428 25440
L88428 25665
" />
<path d="M88428 25553
L88034 25553
L88090 25590
L88128 25628
L88146 25665
" />
<path d="M88928 38065
L88740 38196
" />
<path d="M88928 38290
L88534 38290
L88534 38140
L88553 38103
L88571 38084
L88609 38065
L88665 38065
L88703 38084
L88721 38103
L88740 38140
L88740 38290
" />
<path d="M88571 37915
L88553 37896
L88534 37859
L88534 37765
L88553 37728
L88571 37709
L88609 37690
L88646 37690
L88703 37709
L88928 37934
L88928 37690
" />
<path d="M78428 35065
L78240 35196
" />
<path d="M78428 35290
L78034 35290
L78034 35140
L78053 35103
L78071 35084
L78109 35065
L78165 35065
L78203 35084
L78221 35103
L78240 35140
L78240 35290
" />
<path d="M78034 34934
L78034 34690
L78184 34821
L78184 34765
L78203 34728
L78221 34709
L78259 34690
L78353 34690
L78390 34709
L78409 34728
L78428 34765
L78428 34878
L78409 34915
L78390 34934
" />
<path d="M77928 45315
L77740 45446
" />
<path d="M77928 45540
L77534 45540
L77534 45390
L77553 45353
L77571 45334
L77609 45315
L77665 45315
L77703 45334
L77721 45353
L77740 45390
L77740 45540
" />
<path d="M77665 44978
L77928 44978
" />
<path d="M77515 45071
L77796 45165
L77796 44921
" />
<path d="M76928 35065
L76740 35196
" />
<path d="M76928 35290
L76534 35290
L76534 35140
L76553 35103
L76571 35084
L76609 35065
L76665 35065
L76703 35084
L76721 35103
L76740 35140
L76740 35290
" />
<path d="M76534 34709
L76534 34896
L76721 34915
L76703 34896
L76684 34859
L76684 34765
L76703 34728
L76721 34709
L76759 34690
L76853 34690
L76890 34709
L76909 34728
L76928 34765
L76928 34859
L76909 34896
L76890 34915
" />
<path d="M76178 40565
L75990 40696
" />
<path d="M76178 40790
L75784 40790
L75784 40640
L75803 40603
L75821 40584
L75859 40565
L75915 40565
L75953 40584
L75971 40603
L75990 40640
L75990 40790
" />
<path d="M75784 40228
L75784 40303
L75803 40340
L75821 40359
L75878 40396
L75953 40415
L76103 40415
L76140 40396
L76159 40378
L76178 40340
L76178 40265
L76159 40228
L76140 40209
L76103 40190
L76009 40190
L75971 40209
L75953 40228
L75934 40265
L75934 40340
L75953 40378
L75971 40396
L76009 40415
" />
<path d="M77272 28115
L77272 28142
L77246 28195
L77219 28221
L77166 28248
L77113 28248
L77073 28234
L77007 28195
L76967 28155
L76928 28088
L76914 28049
L76914 27996
L76941 27943
L76967 27916
L77020 27890
L77047 27890
" />
<path d="M77153 27784
L77153 27757
L77166 27717
L77232 27651
L77272 27638
L77299 27638
L77338 27651
L77365 27678
L77392 27731
L77392 28049
L77564 27876
" />
<path d="M85760 25843
L85733 25843
L85680 25816
L85653 25790
L85627 25737
L85627 25684
L85640 25644
L85680 25578
L85720 25538
L85786 25498
L85826 25485
L85879 25485
L85932 25511
L85958 25538
L85985 25591
L85985 25617
" />
<path d="M86263 25843
L86131 25710
L85985 25829
L86011 25829
L86051 25843
L86117 25909
L86131 25949
L86131 25975
L86117 26015
L86051 26081
L86011 26095
L85985 26095
L85945 26081
L85879 26015
L85866 25975
L85866 25949
" />
<path d="M80448 31012
L80421 31012
L80368 30986
L80342 30959
L80315 30906
L80315 30853
L80329 30814
L80368 30747
L80408 30708
L80474 30668
L80514 30654
L80567 30654
L80620 30681
L80647 30708
L80673 30761
L80673 30787
" />
<path d="M80739 31039
L80726 30999
L80726 30973
L80739 30933
L80753 30920
L80792 30906
L80819 30906
L80859 30920
L80912 30973
L80925 31012
L80925 31039
L80912 31079
L80899 31092
L80859 31105
L80832 31105
L80792 31092
L80739 31039
L80700 31026
L80673 31026
L80633 31039
L80580 31092
L80567 31132
L80567 31158
L80580 31198
L80633 31251
L80673 31264
L80700 31264
L80739 31251
L80792 31198
L80806 31158
L80806 31132
L80792 31092
" />
<path d="M89144 39073
L89163 39092
L89182 39148
L89182 39185
L89163 39242
L89125 39279
L89088 39298
L89013 39317
L88957 39317
L88882 39298
L88844 39279
L88807 39242
L88788 39185
L88788 39148
L88807 39092
L88825 39073
" />
<path d="M89182 38886
L89182 38811
L89163 38773
L89144 38754
L89088 38717
L89013 38698
L88863 38698
L88825 38717
L88807 38736
L88788 38773
L88788 38848
L88807 38886
L88825 38904
L88863 38923
L88957 38923
L88994 38904
L89013 38886
L89032 38848
L89032 38773
L89013 38736
L88994 38717
L88957 38698
" />
<path d="M72762 42120
L72743 42139
L72687 42158
L72650 42158
L72593 42139
L72556 42102
L72537 42064
L72518 41989
L72518 41933
L72537 41858
L72556 41820
L72593 41783
L72650 41764
L72687 41764
L72743 41783
L72762 41802
" />
<path d="M73137 42158
L72912 42158
" />
<path d="M73025 42158
L73025 41764
L72987 41820
L72950 41858
L72912 41877
" />
<path d="M73381 41764
L73418 41764
L73456 41783
L73475 41802
L73493 41839
L73512 41914
L73512 42008
L73493 42083
L73475 42120
L73456 42139
L73418 42158
L73381 42158
L73343 42139
L73325 42120
L73306 42083
L73287 42008
L73287 41914
L73306 41839
L73325 41802
L73343 41783
L73381 41764
" />
<path d="M75909 26178
L75909 25784
L76003 25784
L76059 25803
L76096 25840
L76115 25878
L76134 25953
L76134 26009
L76115 26084
L76096 26121
L76059 26159
L76003 26178
L75909 26178
" />
<path d="M76509 26178
L76284 26178
" />
<path d="M76396 26178
L76396 25784
L76359 25840
L76321 25878
L76284 25896
" />
<path d="M81321 22929
L81321 22535
L81415 22535
L81471 22554
L81508 22591
L81527 22629
L81546 22704
L81546 22760
L81527 22835
L81508 22872
L81471 22910
L81415 22929
L81321 22929
" />
<path d="M81696 22572
L81715 22554
L81752 22535
L81846 22535
L81883 22554
L81902 22572
L81921 22610
L81921 22647
L81902 22704
L81677 22929
L81921 22929
" />
<path d="M90240 39651
L90278 39670
L90353 39670
L90390 39651
L90409 39613
L90409 39595
L90390 39557
L90353 39538
L90297 39538
L90259 39520
L90240 39482
L90240 39464
L90259 39426
L90297 39407
L90353 39407
L90390 39426
" />
<path d="M90634 39670
L90597 39651
L90578 39632
L90559 39595
L90559 39482
L90578 39445
L90597 39426
L90634 39407
L90690 39407
L90728 39426
L90747 39445
L90765 39482
L90765 39595
L90747 39632
L90728 39651
L90690 39670
L90634 39670
" />
<path d="M90878 39407
L91028 39407
" />
<path d="M90934 39670
L90934 39332
L90953 39295
L90990 39276
L91028 39276
" />
<path d="M91103 39407
L91253 39407
" />
<path d="M91159 39276
L91159 39613
L91178 39651
L91215 39670
L91253 39670
" />
<path d="M91290 39707
L91590 39707
" />
<path d="M91665 39651
L91703 39670
L91778 39670
L91815 39651
L91834 39613
L91834 39595
L91815 39557
L91778 39538
L91721 39538
L91684 39520
L91665 39482
L91665 39464
L91684 39426
L91721 39407
L91778 39407
L91815 39426
" />
<path d="M91946 39407
L92096 39407
" />
<path d="M92003 39276
L92003 39613
L92021 39651
L92059 39670
L92096 39670
" />
<path d="M92396 39670
L92396 39464
L92378 39426
L92340 39407
L92265 39407
L92228 39426
" />
<path d="M92396 39651
L92359 39670
L92265 39670
L92228 39651
L92209 39613
L92209 39576
L92228 39538
L92265 39520
L92359 39520
L92396 39501
" />
<path d="M92584 39670
L92584 39407
" />
<path d="M92584 39482
L92603 39445
L92621 39426
L92659 39407
L92696 39407
" />
<path d="M92771 39407
L92921 39407
" />
<path d="M92827 39276
L92827 39613
L92846 39651
L92884 39670
L92921 39670
" />
<path d="M93259 39670
L93034 39670
" />
<path d="M93146 39670
L93146 39276
L93109 39332
L93071 39370
L93034 39389
" />
<path d="M74181 41907
L74181 42301
" />
<path d="M74181 41926
L74218 41907
L74293 41907
L74331 41926
L74350 41945
L74368 41982
L74368 42095
L74350 42132
L74331 42151
L74293 42170
L74218 42170
L74181 42151
" />
<path d="M74500 41907
L74575 42170
L74650 41982
L74725 42170
L74800 41907
" />
<path d="M74950 42170
L74950 41907
" />
<path d="M74950 41982
L74968 41945
L74987 41926
L75025 41907
L75062 41907
" />
<path d="M75100 42207
L75400 42207
" />
<path d="M75493 42170
L75493 41776
" />
<path d="M75493 41926
L75531 41907
L75606 41907
L75643 41926
L75662 41945
L75681 41982
L75681 42095
L75662 42132
L75643 42151
L75606 42170
L75531 42170
L75493 42151
" />
<path d="M75793 41907
L75943 41907
" />
<path d="M75850 41776
L75850 42113
L75868 42151
L75906 42170
L75943 42170
" />
<path d="M76074 41907
L76074 42170
" />
<path d="M76074 41945
L76093 41926
L76131 41907
L76187 41907
L76224 41926
L76243 41964
L76243 42170
" />
<path d="M76337 42207
L76637 42207
" />
<path d="M76787 42170
L76749 42151
L76731 42113
L76731 41776
" />
<path d="M77087 42151
L77049 42170
L76974 42170
L76937 42151
L76918 42113
L76918 41964
L76937 41926
L76974 41907
L77049 41907
L77087 41926
L77106 41964
L77106 42001
L76918 42038
" />
<path d="M77443 42170
L77443 41776
" />
<path d="M77443 42151
L77406 42170
L77331 42170
L77293 42151
L77274 42132
L77256 42095
L77256 41982
L77274 41945
L77293 41926
L77331 41907
L77406 41907
L77443 41926
" />
<path d="M77837 42170
L77612 42170
" />
<path d="M77724 42170
L77724 41776
L77687 41832
L77649 41870
L77612 41889
" />
<path d="M84906 39323
L85093 39323
" />
<path d="M84868 39435
L85000 39042
L85131 39435
" />
<path d="M85262 39042
L85262 39360
L85281 39398
L85300 39417
L85337 39435
L85412 39435
L85450 39417
L85468 39398
L85487 39360
L85487 39042
" />
<path d="M85637 39042
L85899 39435
" />
<path d="M85899 39042
L85637 39435
" />
<path d="M86031 39323
L86218 39323
" />
<path d="M85993 39435
L86124 39042
L86256 39435
" />
<path d="M86593 39435
L86368 39435
" />
<path d="M86481 39435
L86481 39042
L86443 39098
L86406 39136
L86368 39154
" />
<path d="M78628 43307
L78815 43307
" />
<path d="M78590 43420
L78721 43026
L78853 43420
" />
<path d="M78984 43026
L78984 43345
L79003 43382
L79021 43401
L79059 43420
L79134 43420
L79171 43401
L79190 43382
L79209 43345
L79209 43026
" />
<path d="M79359 43026
L79621 43420
" />
<path d="M79621 43026
L79359 43420
" />
<path d="M79771 43420
L79771 43026
L79865 43026
L79921 43045
L79959 43082
L79978 43120
L79996 43195
L79996 43251
L79978 43326
L79959 43363
L79921 43401
L79865 43420
L79771 43420
" />
<path d="M80371 43420
L80146 43420
" />
<path d="M80259 43420
L80259 43026
L80221 43082
L80184 43120
L80146 43139
" />
<path d="M85128 48573
L85315 48573
" />
<path d="M85090 48685
L85221 48292
L85353 48685
" />
<path d="M85484 48292
L85484 48610
L85503 48648
L85521 48667
L85559 48685
L85634 48685
L85671 48667
L85690 48648
L85709 48610
L85709 48292
" />
<path d="M85859 48292
L86121 48685
" />
<path d="M86121 48292
L85859 48685
" />
<path d="M86271 48685
L86271 48292
L86365 48292
L86421 48311
L86459 48348
L86478 48386
L86496 48461
L86496 48517
L86478 48592
L86459 48629
L86421 48667
L86365 48685
L86271 48685
" />
<path d="M86646 48329
L86665 48311
L86703 48292
L86796 48292
L86834 48311
L86853 48329
L86871 48367
L86871 48404
L86853 48461
L86628 48685
L86871 48685
" />
<path d="M96784 32381
L97065 32381
L97121 32399
L97159 32437
L97178 32493
L97178 32531
" />
<path d="M96821 32212
L96803 32193
L96784 32156
L96784 32062
L96803 32025
L96821 32006
L96859 31987
L96896 31987
L96953 32006
L97178 32231
L97178 31987
" />
<path d="M90706 36185
L90706 35923
" />
<path d="M90706 35792
L90687 35811
L90706 35829
L90725 35811
L90706 35792
L90706 35829
" />
<path d="M90875 35829
L90893 35811
L90931 35792
L91025 35792
L91062 35811
L91081 35829
L91100 35867
L91100 35904
L91081 35961
L90856 36185
L91100 36185
" />
<path d="M91437 36167
L91399 36185
L91324 36185
L91287 36167
L91268 36148
L91250 36110
L91250 35998
L91268 35961
L91287 35942
L91324 35923
L91399 35923
L91437 35942
" />
<path d="M91812 36185
L91587 36185
" />
<path d="M91699 36185
L91699 35792
L91662 35848
L91624 35886
L91587 35904
" />
</g> 
</svg>
