<?xml version="1.0" standalone="no"?>
 <!DOCTYPE svg PUBLIC "-//W3C//DTD SVG 1.1//EN" 
 "http://www.w3.org/Graphics/SVG/1.1/DTD/svg11.dtd"> 
<svg xmlns="http://www.w3.org/2000/svg" version="1.1" 
    width="21.0007cm" height="29.7002cm" viewBox="0 0 82680 116930 ">
<title>SVG Picture created as power_amp-F_Mask.svg date 2015/06/21 12:19:31 </title>
  <desc>Picture generated by PCBNEW </desc>
<g style="fill:#000000; fill-opacity:1;stroke:#000000; stroke-opacity:1;
stroke-linecap:round; stroke-linejoin:round; "
 transform="translate(0 0) scale(1 1)">
</g>
<g style="fill:#000000; fill-opacity:0.0; 
stroke:#000000; stroke-width:39.3701; stroke-opacity:1; 
stroke-linecap:round; stroke-linejoin:round;">
<circle cx="20250" cy="18000" r="500" /> 
<circle cx="20250" cy="42250" r="500" /> 
<circle cx="60500" cy="42250" r="500" /> 
<circle cx="60500" cy="18000" r="500" /> 
</g>
<g style="fill:#000000; fill-opacity:1.0; 
stroke:#000000; stroke-width:59.0551; stroke-opacity:1; 
stroke-linecap:round; stroke-linejoin:round;">
<polyline style="fill-rule:evenodd;"
points="22079,30197
22077,30318
22050,30437
22008,30533
21937,30633
21861,30705
21758,30771
21660,30809
21540,30830
21435,30828
21315,30802
21220,30760
21119,30690
21046,30615
20980,30511
20941,30415
20919,30293
20921,30190
20946,30069
20987,29974
21057,29871
21131,29799
21235,29731
21330,29693
21452,29669
21555,29670
21677,29695
21772,29735
21875,29805
21947,29877
22016,29981
22055,30076
22079,30197
" /> 
<polyline style="fill-rule:evenodd;"
points="22079,32197
22077,32318
22050,32437
22008,32533
21937,32633
21861,32705
21758,32771
21660,32809
21540,32830
21435,32828
21315,32802
21220,32760
21119,32690
21046,32615
20980,32511
20941,32415
20919,32293
20921,32190
20946,32069
20987,31974
21057,31871
21131,31799
21235,31731
21330,31693
21452,31669
21555,31670
21677,31695
21772,31735
21875,31805
21947,31877
22016,31981
22055,32076
22079,32197
" /> 
<polyline style="fill-rule:evenodd;"
points="22079,28829
20920,28829
20920,27670
22079,27670
22079,28829
" /> 
<polyline style="fill-rule:evenodd;"
points="26079,19122
26077,19300
26039,19467
25976,19607
25877,19747
25766,19853
25621,19945
25478,20001
25309,20031
25155,20027
24988,19990
24847,19929
24706,19831
24599,19721
24506,19576
24450,19434
24419,19264
24421,19112
24457,18943
24517,18803
24615,18660
24723,18553
24868,18459
25009,18402
25179,18369
25331,18370
25501,18405
25641,18464
25785,18561
25892,18668
25988,18813
26046,18953
26079,19122
" /> 
<polyline style="fill-rule:evenodd;"
points="26079,27722
26077,27900
26039,28067
25976,28207
25877,28347
25766,28453
25621,28545
25478,28601
25309,28631
25155,28627
24988,28590
24847,28529
24706,28431
24599,28321
24506,28176
24450,28034
24419,27864
24421,27712
24457,27543
24517,27403
24615,27260
24723,27153
24868,27059
25009,27002
25179,26969
25331,26970
25501,27005
25641,27064
25785,27161
25892,27268
25988,27413
26046,27553
26079,27722
" /> 
<polyline style="fill-rule:evenodd;"
points="26079,32622
26077,32800
26039,32967
25976,33107
25877,33247
25766,33353
25621,33445
25478,33501
25309,33531
25155,33527
24988,33490
24847,33429
24706,33331
24599,33221
24506,33076
24450,32934
24419,32764
24421,32612
24457,32443
24517,32303
24615,32160
24723,32053
24868,31959
25009,31902
25179,31869
25331,31870
25501,31905
25641,31964
25785,32061
25892,32168
25988,32313
26046,32453
26079,32622
" /> 
<polyline style="fill-rule:evenodd;"
points="26079,41222
26077,41400
26039,41567
25976,41707
25877,41847
25766,41953
25621,42045
25478,42101
25309,42131
25155,42127
24988,42090
24847,42029
24706,41931
24599,41821
24506,41676
24450,41534
24419,41364
24421,41212
24457,41043
24517,40903
24615,40760
24723,40653
24868,40559
25009,40502
25179,40469
25331,40470
25501,40505
25641,40564
25785,40661
25892,40768
25988,40913
26046,41053
26079,41222
" /> 
<polyline style="fill-rule:evenodd;"
points="29070,27338
29068,27480
29037,27616
28987,27728
28906,27843
28817,27927
28699,28002
28585,28046
28447,28071
28324,28068
28187,28038
28075,27989
27960,27909
27875,27821
27799,27703
27754,27590
27728,27451
27730,27329
27760,27191
27807,27080
27887,26963
27974,26878
28092,26801
28204,26755
28344,26729
28464,26730
28604,26758
28715,26805
28833,26884
28918,26970
28996,27089
29042,27199
29070,27338
" /> 
<polyline style="fill-rule:evenodd;"
points="29070,38838
29068,38980
29037,39116
28987,39228
28906,39343
28817,39427
28699,39502
28585,39546
28447,39571
28324,39568
28187,39538
28075,39489
27960,39409
27875,39321
27799,39203
27754,39090
27728,38951
27730,38829
27760,38691
27807,38580
27887,38463
27974,38378
28092,38301
28204,38255
28344,38229
28464,38230
28604,38258
28715,38305
28833,38384
28918,38470
28996,38589
29042,38699
29070,38838
" /> 
<polyline style="fill-rule:evenodd;"
points="29070,22170
27729,22170
27729,20829
29070,20829
29070,22170
" /> 
<polyline style="fill-rule:evenodd;"
points="29070,33670
27729,33670
27729,32329
29070,32329
29070,33670
" /> 
<polyline style="fill-rule:evenodd;"
points="36567,25419
36564,25604
36524,25778
36459,25926
36356,26072
36239,26183
36088,26279
35938,26337
35762,26368
35601,26365
35426,26326
35279,26262
35131,26160
35020,26044
34923,25893
34864,25744
34831,25567
34834,25407
34871,25231
34934,25084
35036,24936
35150,24824
35301,24725
35449,24666
35626,24632
35785,24633
35962,24669
36109,24731
36259,24832
36371,24945
36471,25096
36532,25242
36567,25419
" /> 
<polyline style="fill-rule:evenodd;"
points="36567,38819
36564,39004
36524,39178
36459,39326
36356,39472
36239,39583
36088,39679
35938,39737
35762,39768
35601,39765
35426,39726
35279,39662
35131,39560
35020,39444
34923,39293
34864,39144
34831,38967
34834,38807
34871,38631
34934,38484
35036,38336
35150,38224
35301,38125
35449,38066
35626,38032
35785,38033
35962,38069
36109,38131
36259,38232
36371,38345
36471,38496
36532,38642
36567,38819
" /> 
<polyline style="fill-rule:evenodd;"
points="36567,22567
34832,22567
34832,20832
36567,20832
36567,22567
" /> 
<polyline style="fill-rule:evenodd;"
points="36567,35967
34832,35967
34832,34232
36567,34232
36567,35967
" /> 
<polyline style="fill-rule:evenodd;"
points="48967,38819
48964,39004
48924,39178
48859,39326
48756,39472
48639,39583
48488,39679
48338,39737
48162,39768
48001,39765
47826,39726
47679,39662
47531,39560
47420,39444
47323,39293
47264,39144
47231,38967
47234,38807
47271,38631
47334,38484
47436,38336
47550,38224
47701,38125
47849,38066
48026,38032
48185,38033
48362,38069
48509,38131
48659,38232
48771,38345
48871,38496
48932,38642
48967,38819
" /> 
<polyline style="fill-rule:evenodd;"
points="48967,35967
47232,35967
47232,34232
48967,34232
48967,35967
" /> 
<polyline style="fill-rule:evenodd;"
points="49067,25419
49064,25604
49024,25778
48959,25926
48856,26072
48739,26183
48588,26279
48438,26337
48262,26368
48101,26365
47926,26326
47779,26262
47631,26160
47520,26044
47423,25893
47364,25744
47331,25567
47334,25407
47371,25231
47434,25084
47536,24936
47650,24824
47801,24725
47949,24666
48126,24632
48285,24633
48462,24669
48609,24731
48759,24832
48871,24945
48971,25096
49032,25242
49067,25419
" /> 
<polyline style="fill-rule:evenodd;"
points="49067,22567
47332,22567
47332,20832
49067,20832
49067,22567
" /> 
<polyline style="fill-rule:evenodd;"
points="56070,27338
56068,27480
56037,27616
55987,27728
55906,27843
55817,27927
55699,28002
55585,28046
55447,28071
55324,28068
55187,28038
55075,27989
54960,27909
54875,27821
54799,27703
54754,27590
54728,27451
54730,27329
54760,27191
54807,27080
54887,26963
54974,26878
55092,26801
55204,26755
55344,26729
55464,26730
55604,26758
55715,26805
55833,26884
55918,26970
55996,27089
56042,27199
56070,27338
" /> 
<polyline style="fill-rule:evenodd;"
points="56070,38838
56068,38980
56037,39116
55987,39228
55906,39343
55817,39427
55699,39502
55585,39546
55447,39571
55324,39568
55187,39538
55075,39489
54960,39409
54875,39321
54799,39203
54754,39090
54728,38951
54730,38829
54760,38691
54807,38580
54887,38463
54974,38378
55092,38301
55204,38255
55344,38229
55464,38230
55604,38258
55715,38305
55833,38384
55918,38470
55996,38589
56042,38699
56070,38838
" /> 
<polyline style="fill-rule:evenodd;"
points="56070,22170
54729,22170
54729,20829
56070,20829
56070,22170
" /> 
<polyline style="fill-rule:evenodd;"
points="56070,33670
54729,33670
54729,32329
56070,32329
56070,33670
" /> 
<polyline style="fill-rule:evenodd;"
points="59829,28197
59827,28318
59800,28437
59758,28533
59687,28633
59611,28705
59508,28771
59410,28809
59290,28830
59185,28828
59065,28802
58970,28760
58869,28690
58796,28615
58730,28511
58691,28415
58669,28293
58671,28190
58696,28069
58737,27974
58807,27871
58881,27799
58985,27731
59080,27693
59202,27669
59305,27670
59427,27695
59522,27735
59625,27805
59697,27877
59766,27981
59805,28076
59829,28197
" /> 
<polyline style="fill-rule:evenodd;"
points="59829,30197
59827,30318
59800,30437
59758,30533
59687,30633
59611,30705
59508,30771
59410,30809
59290,30830
59185,30828
59065,30802
58970,30760
58869,30690
58796,30615
58730,30511
58691,30415
58669,30293
58671,30190
58696,30069
58737,29974
58807,29871
58881,29799
58985,29731
59080,29693
59202,29669
59305,29670
59427,29695
59522,29735
59625,29805
59697,29877
59766,29981
59805,30076
59829,30197
" /> 
<polyline style="fill-rule:evenodd;"
points="59829,32829
58670,32829
58670,31670
59829,31670
59829,32829
" /> 
</g> 
</svg>
