<?xml version="1.0" encoding="UTF-8" standalone="no"?>
<svg
   xmlns:dc="http://purl.org/dc/elements/1.1/"
   xmlns:cc="http://creativecommons.org/ns#"
   xmlns:rdf="http://www.w3.org/1999/02/22-rdf-syntax-ns#"
   xmlns:svg="http://www.w3.org/2000/svg"
   xmlns="http://www.w3.org/2000/svg"
   xmlns:sodipodi="http://sodipodi.sourceforge.net/DTD/sodipodi-0.dtd"
   xmlns:inkscape="http://www.inkscape.org/namespaces/inkscape"
   version="1.1"
   width="21.0007cm"
   height="29.7002cm"
   viewBox="0 0 82680 116930 "
   id="svg2"
   inkscape:version="0.48.4 r9939"
   sodipodi:docname="power_amp-B_Cu.svg">
  <metadata
     id="metadata270">
    <rdf:RDF>
      <cc:Work
         rdf:about="">
        <dc:format>image/svg+xml</dc:format>
        <dc:type
           rdf:resource="http://purl.org/dc/dcmitype/StillImage" />
      </cc:Work>
    </rdf:RDF>
  </metadata>
  <defs
     id="defs268" />
  <sodipodi:namedview
     pagecolor="#ffffff"
     bordercolor="#666666"
     borderopacity="1"
     objecttolerance="10"
     gridtolerance="10"
     guidetolerance="10"
     inkscape:pageopacity="0"
     inkscape:pageshadow="2"
     inkscape:window-width="1920"
     inkscape:window-height="997"
     id="namedview266"
     showgrid="false"
     inkscape:zoom="0.44851177"
     inkscape:cx="870.18556"
     inkscape:cy="529.30151"
     inkscape:window-x="1276"
     inkscape:window-y="-3"
     inkscape:window-maximized="1"
     inkscape:current-layer="svg2" />
  <title
     id="title4">SVG Picture created as power_amp-B_Cu.svg date 2015/06/21 12:19:31 </title>
  <desc
     id="desc6">Picture generated by PCBNEW </desc>
  <g
     style="fill:#000000; fill-opacity:1;stroke:#000000; stroke-opacity:1; stroke-linecap:round; stroke-linejoin:round; "
     transform="translate(0 0) scale(1 1)"
     id="g8" />
  <g
     style="fill:#000000;fill-opacity:0;stroke:#000000;stroke-width:39.37009811;stroke-linecap:round;stroke-linejoin:round;stroke-opacity:1"
     id="g10"
     transform="translate(247.73312,27250.644)">
    <circle
       cx="20250"
       cy="18000"
       r="500"
       id="circle12"
       d="m 20750,18000 c 0,276.142 -223.858,500 -500,500 -276.142,0 -500,-223.858 -500,-500 0,-276.142 223.858,-500 500,-500 276.142,0 500,223.858 500,500 z"
       sodipodi:cx="20250"
       sodipodi:cy="18000"
       sodipodi:rx="500"
       sodipodi:ry="500" />
    <circle
       cx="20250"
       cy="42250"
       r="500"
       id="circle14"
       d="m 20750,42250 c 0,276.142 -223.858,500 -500,500 -276.142,0 -500,-223.858 -500,-500 0,-276.142 223.858,-500 500,-500 276.142,0 500,223.858 500,500 z"
       sodipodi:cx="20250"
       sodipodi:cy="42250"
       sodipodi:rx="500"
       sodipodi:ry="500" />
    <circle
       cx="60500"
       cy="42250"
       r="500"
       id="circle16"
       d="m 61000,42250 c 0,276.142 -223.858,500 -500,500 -276.142,0 -500,-223.858 -500,-500 0,-276.142 223.858,-500 500,-500 276.142,0 500,223.858 500,500 z"
       sodipodi:cx="60500"
       sodipodi:cy="42250"
       sodipodi:rx="500"
       sodipodi:ry="500" />
    <circle
       cx="60500"
       cy="18000"
       r="500"
       id="circle18"
       d="m 61000,18000 c 0,276.142 -223.858,500 -500,500 -276.142,0 -500,-223.858 -500,-500 0,-276.142 223.858,-500 500,-500 276.142,0 500,223.858 500,500 z"
       sodipodi:cx="60500"
       sodipodi:cy="18000"
       sodipodi:rx="500"
       sodipodi:ry="500" />
  </g>
  <g
     style="fill:#000000; fill-opacity:0.0;  stroke:#000000; stroke-width:59.0551; stroke-opacity:1;  stroke-linecap:round; stroke-linejoin:round;"
     id="g20" />
  <g
     style="fill:#000000;fill-opacity:1;stroke:#000000;stroke-width:59.05509949;stroke-linecap:round;stroke-linejoin:round;stroke-opacity:1"
     id="g22"
     transform="translate(247.73312,27250.644)">
    <polyline
       style="fill-rule:evenodd"
       points="21029,27779 21970,27779 21970,28720 21029,28720 21029,27779 "
       id="polyline24" />
    <circle
       cx="21500"
       cy="30250"
       r="470.47198"
       id="circle26"
       d="m 21970.472,30250 c 0,259.835 -210.637,470.472 -470.472,470.472 -259.835,0 -470.472,-210.637 -470.472,-470.472 0,-259.835 210.637,-470.472 470.472,-470.472 259.835,0 470.472,210.637 470.472,470.472 z"
       sodipodi:cx="21500"
       sodipodi:cy="30250"
       sodipodi:rx="470.47198"
       sodipodi:ry="470.47198" />
    <circle
       cx="21500"
       cy="32250"
       r="470.47198"
       id="circle28"
       d="m 21970.472,32250 c 0,259.835 -210.637,470.472 -470.472,470.472 -259.835,0 -470.472,-210.637 -470.472,-470.472 0,-259.835 210.637,-470.472 470.472,-470.472 259.835,0 470.472,210.637 470.472,470.472 z"
       sodipodi:cx="21500"
       sodipodi:cy="32250"
       sodipodi:rx="470.47198"
       sodipodi:ry="470.47198" />
    <polyline
       style="fill-rule:evenodd"
       points="59720,32720 58779,32720 58779,31779 59720,31779 59720,32720 "
       id="polyline30" />
    <circle
       cx="59250"
       cy="30250"
       r="470.47198"
       id="circle32"
       d="m 59720.472,30250 c 0,259.835 -210.637,470.472 -470.472,470.472 -259.835,0 -470.472,-210.637 -470.472,-470.472 0,-259.835 210.637,-470.472 470.472,-470.472 259.835,0 470.472,210.637 470.472,470.472 z"
       sodipodi:cx="59250"
       sodipodi:cy="30250"
       sodipodi:rx="470.47198"
       sodipodi:ry="470.47198" />
    <circle
       cx="59250"
       cy="28250"
       r="470.47198"
       id="circle34"
       d="m 59720.472,28250 c 0,259.835 -210.637,470.472 -470.472,470.472 -259.835,0 -470.472,-210.637 -470.472,-470.472 0,-259.835 210.637,-470.472 470.472,-470.472 259.835,0 470.472,210.637 470.472,470.472 z"
       sodipodi:cx="59250"
       sodipodi:cy="28250"
       sodipodi:rx="470.47198"
       sodipodi:ry="470.47198" />
    <polyline
       style="fill-rule:evenodd"
       points="27838,32438 28961,32438 28961,33561 27838,33561 27838,32438 "
       id="polyline36" />
    <circle
       cx="28400"
       cy="38900"
       r="561.02399"
       id="circle38"
       d="m 28961.024,38900 c 0,309.845 -251.179,561.024 -561.024,561.024 -309.845,0 -561.024,-251.179 -561.024,-561.024 0,-309.845 251.179,-561.024 561.024,-561.024 309.845,0 561.024,251.179 561.024,561.024 z"
       sodipodi:cx="28400"
       sodipodi:cy="38900"
       sodipodi:rx="561.02399"
       sodipodi:ry="561.02399" />
    <polyline
       style="fill-rule:evenodd"
       points="54838,32438 55961,32438 55961,33561 54838,33561 54838,32438 "
       id="polyline40" />
    <circle
       cx="55400"
       cy="38900"
       r="561.02399"
       id="circle42"
       d="m 55961.024,38900 c 0,309.845 -251.179,561.024 -561.024,561.024 -309.845,0 -561.024,-251.179 -561.024,-561.024 0,-309.845 251.179,-561.024 561.024,-561.024 309.845,0 561.024,251.179 561.024,561.024 z"
       sodipodi:cx="55400"
       sodipodi:cy="38900"
       sodipodi:rx="561.02399"
       sodipodi:ry="561.02399" />
    <polyline
       style="fill-rule:evenodd"
       points="54838,20938 55961,20938 55961,22061 54838,22061 54838,20938 "
       id="polyline44" />
    <circle
       cx="55400"
       cy="27400"
       r="561.02399"
       id="circle46"
       d="m 55961.024,27400 c 0,309.845 -251.179,561.024 -561.024,561.024 -309.845,0 -561.024,-251.179 -561.024,-561.024 0,-309.845 251.179,-561.024 561.024,-561.024 309.845,0 561.024,251.179 561.024,561.024 z"
       sodipodi:cx="55400"
       sodipodi:cy="27400"
       sodipodi:rx="561.02399"
       sodipodi:ry="561.02399" />
    <polyline
       style="fill-rule:evenodd"
       points="27838,20938 28961,20938 28961,22061 27838,22061 27838,20938 "
       id="polyline48" />
    <circle
       cx="28400"
       cy="27400"
       r="561.02399"
       id="circle50"
       d="m 28961.024,27400 c 0,309.845 -251.179,561.024 -561.024,561.024 -309.845,0 -561.024,-251.179 -561.024,-561.024 0,-309.845 251.179,-561.024 561.024,-561.024 309.845,0 561.024,251.179 561.024,561.024 z"
       sodipodi:cx="28400"
       sodipodi:cy="27400"
       sodipodi:rx="561.02399"
       sodipodi:ry="561.02399" />
    <circle
       cx="35700"
       cy="25500"
       r="757.87402"
       id="circle52"
       d="m 36457.874,25500 c 0,418.562 -339.312,757.874 -757.874,757.874 -418.562,0 -757.874,-339.312 -757.874,-757.874 0,-418.562 339.312,-757.874 757.874,-757.874 418.562,0 757.874,339.312 757.874,757.874 z"
       sodipodi:cx="35700"
       sodipodi:cy="25500"
       sodipodi:rx="757.87402"
       sodipodi:ry="757.87402" />
    <polyline
       style="fill-rule:evenodd"
       points="34942,20942 36457,20942 36457,22457 34942,22457 34942,20942 "
       id="polyline54" />
    <circle
       cx="48100"
       cy="38900"
       r="757.87402"
       id="circle56"
       d="m 48857.874,38900 c 0,418.562 -339.312,757.874 -757.874,757.874 -418.562,0 -757.874,-339.312 -757.874,-757.874 0,-418.562 339.312,-757.874 757.874,-757.874 418.562,0 757.874,339.312 757.874,757.874 z"
       sodipodi:cx="48100"
       sodipodi:cy="38900"
       sodipodi:rx="757.87402"
       sodipodi:ry="757.87402" />
    <polyline
       style="fill-rule:evenodd"
       points="47342,34342 48857,34342 48857,35857 47342,35857 47342,34342 "
       id="polyline58" />
    <circle
       cx="48200"
       cy="25500"
       r="757.87402"
       id="circle60"
       d="m 48957.874,25500 c 0,418.562 -339.312,757.874 -757.874,757.874 -418.562,0 -757.874,-339.312 -757.874,-757.874 0,-418.562 339.312,-757.874 757.874,-757.874 418.562,0 757.874,339.312 757.874,757.874 z"
       sodipodi:cx="48200"
       sodipodi:cy="25500"
       sodipodi:rx="757.87402"
       sodipodi:ry="757.87402" />
    <polyline
       style="fill-rule:evenodd"
       points="47442,20942 48957,20942 48957,22457 47442,22457 47442,20942 "
       id="polyline62" />
    <circle
       cx="35700"
       cy="38900"
       r="757.87402"
       id="circle64"
       d="m 36457.874,38900 c 0,418.562 -339.312,757.874 -757.874,757.874 -418.562,0 -757.874,-339.312 -757.874,-757.874 0,-418.562 339.312,-757.874 757.874,-757.874 418.562,0 757.874,339.312 757.874,757.874 z"
       sodipodi:cx="35700"
       sodipodi:cy="38900"
       sodipodi:rx="757.87402"
       sodipodi:ry="757.87402" />
    <polyline
       style="fill-rule:evenodd"
       points="34942,34342 36457,34342 36457,35857 34942,35857 34942,34342 "
       id="polyline66" />
    <circle
       cx="25250"
       cy="41300"
       r="720.47198"
       id="circle68"
       d="m 25970.472,41300 c 0,397.906 -322.566,720.472 -720.472,720.472 -397.906,0 -720.472,-322.566 -720.472,-720.472 0,-397.906 322.566,-720.472 720.472,-720.472 397.906,0 720.472,322.566 720.472,720.472 z"
       sodipodi:cx="25250"
       sodipodi:cy="41300"
       sodipodi:rx="720.47198"
       sodipodi:ry="720.47198" />
    <circle
       cx="25250"
       cy="32700"
       r="720.47198"
       id="circle70"
       d="m 25970.472,32700 c 0,397.906 -322.566,720.472 -720.472,720.472 -397.906,0 -720.472,-322.566 -720.472,-720.472 0,-397.906 322.566,-720.472 720.472,-720.472 397.906,0 720.472,322.566 720.472,720.472 z"
       sodipodi:cx="25250"
       sodipodi:cy="32700"
       sodipodi:rx="720.47198"
       sodipodi:ry="720.47198" />
    <circle
       cx="25250"
       cy="27800"
       r="720.47198"
       id="circle72"
       d="m 25970.472,27800 c 0,397.906 -322.566,720.472 -720.472,720.472 -397.906,0 -720.472,-322.566 -720.472,-720.472 0,-397.906 322.566,-720.472 720.472,-720.472 397.906,0 720.472,322.566 720.472,720.472 z"
       sodipodi:cx="25250"
       sodipodi:cy="27800"
       sodipodi:rx="720.47198"
       sodipodi:ry="720.47198" />
    <circle
       cx="25250"
       cy="19200"
       r="720.47198"
       id="circle74"
       d="m 25970.472,19200 c 0,397.906 -322.566,720.472 -720.472,720.472 -397.906,0 -720.472,-322.566 -720.472,-720.472 0,-397.906 322.566,-720.472 720.472,-720.472 397.906,0 720.472,322.566 720.472,720.472 z"
       sodipodi:cx="25250"
       sodipodi:cy="19200"
       sodipodi:rx="720.47198"
       sodipodi:ry="720.47198" />
  </g>
  <g
     style="fill:#000000;fill-opacity:1;stroke:#000000;stroke-width:787.40197754;stroke-linecap:round;stroke-linejoin:round;stroke-opacity:1"
     id="g76"
     transform="translate(247.73312,27250.644)">
    <path
       d="m 48100,38900 0,250"
       id="path78"
       inkscape:connector-curvature="0" />
    <path
       d="m 48100,39150 -2150,2150"
       id="path80"
       inkscape:connector-curvature="0" />
    <path
       d="m 55400,38900 -50,0"
       id="path82"
       inkscape:connector-curvature="0" />
    <path
       d="m 55350,38900 -2400,2400"
       id="path84"
       inkscape:connector-curvature="0" />
    <path
       d="m 55400,38900 200,0"
       id="path86"
       inkscape:connector-curvature="0" />
    <path
       d="m 55600,38900 3650,-3650"
       id="path88"
       inkscape:connector-curvature="0" />
    <path
       d="m 28400,38900 0,200"
       id="path90"
       inkscape:connector-curvature="0" />
    <path
       d="m 28400,39100 -2200,2200"
       id="path92"
       inkscape:connector-curvature="0" />
    <path
       d="m 35700,38900 0,150"
       id="path94"
       inkscape:connector-curvature="0" />
    <path
       d="m 35700,39050 -2250,2250"
       id="path96"
       inkscape:connector-curvature="0" />
    <path
       d="m 25250,41300 950,0"
       id="path98"
       inkscape:connector-curvature="0" />
    <path
       d="m 26200,41300 3550,0"
       id="path100"
       inkscape:connector-curvature="0" />
    <path
       d="m 29750,41300 3700,0"
       id="path102"
       inkscape:connector-curvature="0" />
    <path
       d="m 33450,41300 12500,0"
       id="path104"
       inkscape:connector-curvature="0" />
    <path
       d="m 45950,41300 3900,0"
       id="path106"
       inkscape:connector-curvature="0" />
    <path
       d="m 49850,41300 3100,0"
       id="path108"
       inkscape:connector-curvature="0" />
    <path
       d="m 59250,35250 0,-3000"
       id="path110"
       inkscape:connector-curvature="0" />
    <path
       d="m 21500,28250 3300,0"
       id="path112"
       inkscape:connector-curvature="0" />
    <path
       d="m 24800,28250 450,-450"
       id="path114"
       inkscape:connector-curvature="0" />
    <path
       d="m 21500,32250 3300,0"
       id="path116"
       inkscape:connector-curvature="0" />
    <path
       d="m 24800,32250 450,450"
       id="path118"
       inkscape:connector-curvature="0" />
    <path
       d="m 28400,21500 -150,0"
       id="path120"
       inkscape:connector-curvature="0" />
    <path
       d="m 25950,19200 -700,0"
       id="path122"
       inkscape:connector-curvature="0" />
    <path
       d="M 28250,21500 25950,19200"
       id="path124"
       inkscape:connector-curvature="0" />
    <path
       d="M 35700,21700 33200,19200"
       id="path126"
       inkscape:connector-curvature="0" />
    <path
       d="m 33250,19250 0,-50"
       id="path128"
       inkscape:connector-curvature="0" />
    <path
       d="m 33200,19200 50,50"
       id="path130"
       inkscape:connector-curvature="0" />
    <path
       d="m 48200,21700 -250,0"
       id="path132"
       inkscape:connector-curvature="0" />
    <path
       d="M 47950,21700 45450,19200"
       id="path134"
       inkscape:connector-curvature="0" />
    <path
       d="m 55400,21500 0,-100"
       id="path136"
       inkscape:connector-curvature="0" />
    <path
       d="M 55400,21400 53200,19200"
       id="path138"
       inkscape:connector-curvature="0" />
    <path
       d="m 55400,21500 100,0"
       id="path140"
       inkscape:connector-curvature="0" />
    <path
       d="m 55500,21500 3750,3750"
       id="path142"
       inkscape:connector-curvature="0" />
    <path
       d="m 25250,19200 8000,0"
       id="path144"
       inkscape:connector-curvature="0" />
    <path
       d="m 33250,19200 12200,0"
       id="path146"
       inkscape:connector-curvature="0" />
    <path
       d="m 45450,19200 7750,0"
       id="path148"
       inkscape:connector-curvature="0" />
    <path
       d="m 59250,25250 0,3000"
       id="path150"
       inkscape:connector-curvature="0" />
    <path
       d="m 28400,33000 100,0"
       id="path152"
       inkscape:connector-curvature="0" />
    <path
       d="m 28500,33000 2750,-2750"
       id="path154"
       inkscape:connector-curvature="0" />
    <path
       d="m 28400,27400 2850,2850"
       id="path156"
       inkscape:connector-curvature="0" />
    <path
       d="m 31250,30250 -250,0"
       id="path158"
       inkscape:connector-curvature="0" />
    <path
       d="m 35700,35100 0,-50"
       id="path160"
       inkscape:connector-curvature="0" />
    <path
       d="m 40500,30250 0,-250"
       id="path162"
       inkscape:connector-curvature="0" />
    <path
       d="m 35700,35050 4800,-4800"
       id="path164"
       inkscape:connector-curvature="0" />
    <path
       d="m 35700,25500 300,0"
       id="path166"
       inkscape:connector-curvature="0" />
    <path
       d="m 36000,25500 4500,4500"
       id="path168"
       inkscape:connector-curvature="0" />
    <path
       d="m 40500,30000 250,250"
       id="path170"
       inkscape:connector-curvature="0" />
    <path
       d="m 48200,25500 0,450"
       id="path172"
       inkscape:connector-curvature="0" />
    <path
       d="m 48200,25950 4300,4300"
       id="path174"
       inkscape:connector-curvature="0" />
    <path
       d="m 48100,35100 0,-300"
       id="path176"
       inkscape:connector-curvature="0" />
    <path
       d="m 48100,34800 4550,-4550"
       id="path178"
       inkscape:connector-curvature="0" />
    <path
       d="m 52500,30250 150,0"
       id="path180"
       inkscape:connector-curvature="0" />
    <path
       d="m 52650,30250 2750,2750"
       id="path182"
       inkscape:connector-curvature="0" />
    <path
       d="m 55400,27400 -50,0"
       id="path184"
       inkscape:connector-curvature="0" />
    <path
       d="m 55350,27400 -2850,2850"
       id="path186"
       inkscape:connector-curvature="0" />
    <path
       d="m 42750,30250 250,0"
       id="path188"
       inkscape:connector-curvature="0" />
    <path
       d="m 43000,30250 300,0"
       id="path190"
       inkscape:connector-curvature="0" />
    <path
       d="m 21500,30250 9500,0"
       id="path192"
       inkscape:connector-curvature="0" />
    <path
       d="m 31000,30250 9750,0"
       id="path194"
       inkscape:connector-curvature="0" />
    <path
       d="m 40750,30250 2000,0"
       id="path196"
       inkscape:connector-curvature="0" />
    <path
       d="m 43300,30250 9200,0"
       id="path198"
       inkscape:connector-curvature="0" />
    <path
       d="m 52500,30250 6750,0"
       id="path200"
       inkscape:connector-curvature="0" />
  </g>
  <g
     style="fill:#000000;fill-opacity:1;stroke:#000000;stroke-width:59.05509949;stroke-linecap:round;stroke-linejoin:round;stroke-opacity:1"
     id="g202"
     transform="translate(247.73312,27250.644)">
    <polyline
       style="fill-rule:evenodd"
       points="61950,43700 61264,43700 61264,42302 61264,42250 61264,42197 61264,18052 61264,18000 61264,17947 61264,17947 61264,17947 61264,17947 61226,17756 61186,17659 61185,17658 61078,17497 61077,17496 61003,17421 60841,17314 60841,17313 60743,17273 60552,17235 60447,17235 60446,17235 60256,17273 60159,17313 60158,17314 59997,17421 59996,17422 59921,17496 59814,17658 59813,17658 59773,17756 59735,17947 59735,18000 59735,18052 59773,18243 59813,18341 59814,18341 59921,18503 59996,18577 59997,18578 60158,18685 60159,18686 60256,18726 60446,18764 60447,18764 60552,18764 60743,18726 60841,18686 60841,18685 61003,18578 61077,18503 61078,18502 61185,18341 61186,18340 61226,18243 61264,18052 61264,18052 61264,18052 61264,18052 61264,42197 61264,42197 61264,42197 61264,42197 61226,42006 61186,41909 61185,41908 61078,41747 61077,41746 61003,41671 60841,41564 60841,41563 60743,41523 60587,41492 60587,27985 60481,27727 60481,25250 60387,24778 60120,24379 56828,21087 56828,20743 56700,20435 56465,20199 56157,20072 55824,20071 55812,20071 54070,18329 53671,18062 53200,17968 45450,17968 33250,17968 33200,17968 26264,17968 26150,17855 25567,17612 24935,17612 24351,17853 23905,18299 23662,18882 23662,19514 23903,20098 24349,20544 24932,20787 25564,20787 25728,20719 26971,21962 26971,22256 27099,22564 27334,22800 27642,22927 27975,22928 29156,22928 29464,22800 29700,22565 29827,22257 29828,21924 29828,20743 29700,20435 29696,20431 32690,20431 34075,21816 34075,22653 34202,22961 34437,23196 34745,23324 35078,23324 36653,23324 36961,23197 37196,22962 37324,22654 37324,22321 37324,20746 37197,20438 37189,20431 44940,20431 46575,22066 46575,22653 46702,22961 46937,23196 47245,23324 47578,23324 49153,23324 49461,23197 49696,22962 49824,22654 49824,22321 49824,20746 49697,20438 49689,20431 52690,20431 53971,21712 53971,22256 54099,22564 54334,22800 54642,22927 54975,22928 55187,22928 58018,25759 58018,27727 57912,27982 57912,28514 58115,29006 58491,29383 58982,29587 59514,29587 60006,29384 60383,29008 60587,28517 60587,27985 60587,41492 60587,41492 60587,32584 60587,31584 60460,31276 60224,31040 59917,30912 59584,30912 58584,30912 58276,31039 58040,31275 57912,31582 57912,31915 57912,32915 58018,33173 58018,34740 55287,37471 55117,37471 54592,37688 54190,38090 54027,38481 52440,40068 49850,40068 49228,40068 49476,39821 49724,39224 49725,38578 49478,37980 49021,37523 48424,37275 47778,37274 47180,37521 46723,37978 46475,38575 46475,39033 45440,40068 36828,40068 37076,39821 37324,39224 37325,38578 37078,37980 36621,37523 36024,37275 35378,37274 34780,37521 34323,37978 34075,38575 34075,38933 32940,40068 29750,40068 29250,40068 29609,39709 29827,39185 29828,38617 29611,38092 29209,37690 28685,37472 28117,37471 27592,37688 27190,38090 26972,38614 26972,38786 26837,38921 26837,32385 26837,27485 26596,26901 26150,26455 25567,26212 24935,26212 24351,26453 23905,26899 23855,27018 22422,27018 22167,26912 21834,26912 21014,26912 21014,18052 21014,18000 21014,17947 21014,17947 21014,17947 21014,17947 20976,17756 20936,17659 20935,17658 20828,17497 20827,17496 20753,17421 20591,17314 20591,17313 20493,17273 20302,17235 20197,17235 20196,17235 20006,17273 19909,17313 19908,17314 19747,17421 19746,17422 19671,17496 19564,17658 19563,17658 19523,17756 19485,17947 19485,18000 19485,18052 19523,18243 19563,18341 19564,18341 19671,18503 19746,18577 19747,18578 19908,18685 19909,18686 20006,18726 20196,18764 20197,18764 20302,18764 20493,18726 20591,18686 20591,18685 20753,18578 20827,18503 20828,18502 20935,18341 20936,18340 20976,18243 21014,18052 21014,18052 21014,18052 21014,18052 21014,26912 20834,26912 20526,27039 20290,27275 20162,27582 20162,27915 20162,28915 20289,29223 20525,29459 20832,29587 21165,29587 22165,29587 22423,29481 24800,29481 25270,29387 25564,29387 26148,29146 26594,28700 26837,28117 26837,27485 26837,32385 26596,31801 26150,31355 25567,31112 25271,31112 25271,31112 24800,31018 22022,31018 21767,30912 21235,30912 20743,31115 20366,31491 20162,31982 20162,32514 20365,33006 20741,33383 21232,33587 21764,33587 22022,33481 23855,33481 23903,33598 24349,34044 24932,34287 25564,34287 26148,34046 26594,33600 26837,33017 26837,32385 26837,38921 25905,39853 25567,39712 24935,39712 24351,39953 23905,40399 23662,40982 23662,41614 23903,42198 24349,42644 24932,42887 25564,42887 26148,42646 26263,42531 29750,42531 33450,42531 45950,42531 49850,42531 52950,42531 53421,42437 53820,42170 55662,40328 55682,40328 56207,40111 56609,39709 56665,39575 60120,36120 60120,36120 60120,36120 60387,35721 60387,35721 60481,35250 60481,35250 60481,33172 60587,32917 60587,32584 60587,41492 60552,41485 60447,41485 60446,41485 60256,41523 60159,41563 60158,41564 59997,41671 59996,41672 59921,41746 59814,41908 59813,41908 59773,42006 59735,42197 59735,42250 59735,42302 59773,42493 59813,42591 59814,42591 59921,42753 59996,42827 59997,42828 60158,42935 60159,42936 60256,42976 60446,43014 60447,43014 60552,43014 60743,42976 60841,42936 60841,42935 61003,42828 61077,42753 61078,42752 61185,42591 61186,42590 61226,42493 61264,42302 61264,42302 61264,42302 61264,42302 61264,43700 21014,43700 21014,42302 21014,42250 21014,42197 21014,42197 21014,42197 21014,42197 20976,42006 20936,41909 20935,41908 20828,41747 20827,41746 20753,41671 20591,41564 20591,41563 20493,41523 20302,41485 20197,41485 20196,41485 20006,41523 19909,41563 19908,41564 19747,41671 19746,41672 19671,41746 19564,41908 19563,41908 19523,42006 19485,42197 19485,42250 19485,42302 19523,42493 19563,42591 19564,42591 19671,42753 19746,42827 19747,42828 19908,42935 19909,42936 20006,42976 20196,43014 20197,43014 20302,43014 20493,42976 20591,42936 20591,42935 20753,42828 20827,42753 20828,42752 20935,42591 20936,42590 20976,42493 21014,42302 21014,42302 21014,42302 21014,42302 21014,43700 18800,43700 18800,16550 61950,16550 61950,43700 "
       id="polyline204" />
  </g>
  <g
     style="fill:#000000;fill-opacity:0;stroke:#000000;stroke-width:100;stroke-linecap:round;stroke-linejoin:round;stroke-opacity:1"
     id="g206"
     transform="translate(247.73312,27250.644)">
    <polyline
       fill="none;"
       points="61950,43700 61264,43700 61264,42302 61264,42250 61264,42197 61264,18052 61264,18000 61264,17947 61264,17947 61264,17947 61264,17947 61226,17756 61186,17659 61185,17658 61078,17497 61077,17496 61003,17421 60841,17314 60841,17313 60743,17273 60552,17235 60447,17235 60446,17235 60256,17273 60159,17313 60158,17314 59997,17421 59996,17422 59921,17496 59814,17658 59813,17658 59773,17756 59735,17947 59735,18000 59735,18052 59773,18243 59813,18341 59814,18341 59921,18503 59996,18577 59997,18578 60158,18685 60159,18686 60256,18726 60446,18764 60447,18764 60552,18764 60743,18726 60841,18686 60841,18685 61003,18578 61077,18503 61078,18502 61185,18341 61186,18340 61226,18243 61264,18052 61264,18052 61264,18052 61264,18052 61264,42197 61264,42197 61264,42197 61264,42197 61226,42006 61186,41909 61185,41908 61078,41747 61077,41746 61003,41671 60841,41564 60841,41563 60743,41523 60587,41492 60587,27985 60481,27727 60481,25250 60387,24778 60120,24379 56828,21087 56828,20743 56700,20435 56465,20199 56157,20072 55824,20071 55812,20071 54070,18329 53671,18062 53200,17968 45450,17968 33250,17968 33200,17968 26264,17968 26150,17855 25567,17612 24935,17612 24351,17853 23905,18299 23662,18882 23662,19514 23903,20098 24349,20544 24932,20787 25564,20787 25728,20719 26971,21962 26971,22256 27099,22564 27334,22800 27642,22927 27975,22928 29156,22928 29464,22800 29700,22565 29827,22257 29828,21924 29828,20743 29700,20435 29696,20431 32690,20431 34075,21816 34075,22653 34202,22961 34437,23196 34745,23324 35078,23324 36653,23324 36961,23197 37196,22962 37324,22654 37324,22321 37324,20746 37197,20438 37189,20431 44940,20431 46575,22066 46575,22653 46702,22961 46937,23196 47245,23324 47578,23324 49153,23324 49461,23197 49696,22962 49824,22654 49824,22321 49824,20746 49697,20438 49689,20431 52690,20431 53971,21712 53971,22256 54099,22564 54334,22800 54642,22927 54975,22928 55187,22928 58018,25759 58018,27727 57912,27982 57912,28514 58115,29006 58491,29383 58982,29587 59514,29587 60006,29384 60383,29008 60587,28517 60587,27985 60587,41492 60587,41492 60587,32584 60587,31584 60460,31276 60224,31040 59917,30912 59584,30912 58584,30912 58276,31039 58040,31275 57912,31582 57912,31915 57912,32915 58018,33173 58018,34740 55287,37471 55117,37471 54592,37688 54190,38090 54027,38481 52440,40068 49850,40068 49228,40068 49476,39821 49724,39224 49725,38578 49478,37980 49021,37523 48424,37275 47778,37274 47180,37521 46723,37978 46475,38575 46475,39033 45440,40068 36828,40068 37076,39821 37324,39224 37325,38578 37078,37980 36621,37523 36024,37275 35378,37274 34780,37521 34323,37978 34075,38575 34075,38933 32940,40068 29750,40068 29250,40068 29609,39709 29827,39185 29828,38617 29611,38092 29209,37690 28685,37472 28117,37471 27592,37688 27190,38090 26972,38614 26972,38786 26837,38921 26837,32385 26837,27485 26596,26901 26150,26455 25567,26212 24935,26212 24351,26453 23905,26899 23855,27018 22422,27018 22167,26912 21834,26912 21014,26912 21014,18052 21014,18000 21014,17947 21014,17947 21014,17947 21014,17947 20976,17756 20936,17659 20935,17658 20828,17497 20827,17496 20753,17421 20591,17314 20591,17313 20493,17273 20302,17235 20197,17235 20196,17235 20006,17273 19909,17313 19908,17314 19747,17421 19746,17422 19671,17496 19564,17658 19563,17658 19523,17756 19485,17947 19485,18000 19485,18052 19523,18243 19563,18341 19564,18341 19671,18503 19746,18577 19747,18578 19908,18685 19909,18686 20006,18726 20196,18764 20197,18764 20302,18764 20493,18726 20591,18686 20591,18685 20753,18578 20827,18503 20828,18502 20935,18341 20936,18340 20976,18243 21014,18052 21014,18052 21014,18052 21014,18052 21014,26912 20834,26912 20526,27039 20290,27275 20162,27582 20162,27915 20162,28915 20289,29223 20525,29459 20832,29587 21165,29587 22165,29587 22423,29481 24800,29481 25270,29387 25564,29387 26148,29146 26594,28700 26837,28117 26837,27485 26837,32385 26596,31801 26150,31355 25567,31112 25271,31112 25271,31112 24800,31018 22022,31018 21767,30912 21235,30912 20743,31115 20366,31491 20162,31982 20162,32514 20365,33006 20741,33383 21232,33587 21764,33587 22022,33481 23855,33481 23903,33598 24349,34044 24932,34287 25564,34287 26148,34046 26594,33600 26837,33017 26837,32385 26837,38921 25905,39853 25567,39712 24935,39712 24351,39953 23905,40399 23662,40982 23662,41614 23903,42198 24349,42644 24932,42887 25564,42887 26148,42646 26263,42531 29750,42531 33450,42531 45950,42531 49850,42531 52950,42531 53421,42437 53820,42170 55662,40328 55682,40328 56207,40111 56609,39709 56665,39575 60120,36120 60120,36120 60120,36120 60387,35721 60387,35721 60481,35250 60481,35250 60481,33172 60587,32917 60587,32584 60587,41492 60552,41485 60447,41485 60446,41485 60256,41523 60159,41563 60158,41564 59997,41671 59996,41672 59921,41746 59814,41908 59813,41908 59773,42006 59735,42197 59735,42250 59735,42302 59773,42493 59813,42591 59814,42591 59921,42753 59996,42827 59997,42828 60158,42935 60159,42936 60256,42976 60446,43014 60447,43014 60552,43014 60743,42976 60841,42936 60841,42935 61003,42828 61077,42753 61078,42752 61185,42591 61186,42590 61226,42493 61264,42302 61264,42302 61264,42302 61264,42302 61264,43700 21014,43700 21014,42302 21014,42250 21014,42197 21014,42197 21014,42197 21014,42197 20976,42006 20936,41909 20935,41908 20828,41747 20827,41746 20753,41671 20591,41564 20591,41563 20493,41523 20302,41485 20197,41485 20196,41485 20006,41523 19909,41563 19908,41564 19747,41671 19746,41672 19671,41746 19564,41908 19563,41908 19523,42006 19485,42197 19485,42250 19485,42302 19523,42493 19563,42591 19564,42591 19671,42753 19746,42827 19747,42828 19908,42935 19909,42936 20006,42976 20196,43014 20197,43014 20302,43014 20493,42976 20591,42936 20591,42935 20753,42828 20827,42753 20828,42752 20935,42591 20936,42590 20976,42493 21014,42302 21014,42302 21014,42302 21014,42302 21014,43700 18800,43700 18800,16550 61950,16550 61950,43700 "
       id="polyline208" />
  </g>
  <g
     style="fill:#FFFFFF; fill-opacity:0.0;  stroke:#FFFFFF; stroke-width:59.0551; stroke-opacity:1;  stroke-linecap:round; stroke-linejoin:round;"
     id="g210" />
  <g
     style="fill:#ffffff;fill-opacity:1;stroke:#ffffff;stroke-width:59.05509949;stroke-linecap:round;stroke-linejoin:round;stroke-opacity:1"
     id="g212"
     transform="translate(247.73312,27250.644)">
    <circle
       cx="21500"
       cy="28250"
       r="39.370098"
       id="circle214"
       d="m 21539.37,28250 c 0,21.744 -17.626,39.37 -39.37,39.37 -21.744,0 -39.37,-17.626 -39.37,-39.37 0,-21.744 17.626,-39.37 39.37,-39.37 21.744,0 39.37,17.626 39.37,39.37 z"
       sodipodi:cx="21500"
       sodipodi:cy="28250"
       sodipodi:rx="39.370098"
       sodipodi:ry="39.370098" />
    <circle
       cx="21500"
       cy="30250"
       r="39.370098"
       id="circle216"
       d="m 21539.37,30250 c 0,21.744 -17.626,39.37 -39.37,39.37 -21.744,0 -39.37,-17.626 -39.37,-39.37 0,-21.744 17.626,-39.37 39.37,-39.37 21.744,0 39.37,17.626 39.37,39.37 z"
       sodipodi:cx="21500"
       sodipodi:cy="30250"
       sodipodi:rx="39.370098"
       sodipodi:ry="39.370098" />
    <circle
       cx="21500"
       cy="32250"
       r="39.370098"
       id="circle218"
       d="m 21539.37,32250 c 0,21.744 -17.626,39.37 -39.37,39.37 -21.744,0 -39.37,-17.626 -39.37,-39.37 0,-21.744 17.626,-39.37 39.37,-39.37 21.744,0 39.37,17.626 39.37,39.37 z"
       sodipodi:cx="21500"
       sodipodi:cy="32250"
       sodipodi:rx="39.370098"
       sodipodi:ry="39.370098" />
    <circle
       cx="59250"
       cy="32250"
       r="39.370098"
       id="circle220"
       d="m 59289.37,32250 c 0,21.744 -17.626,39.37 -39.37,39.37 -21.744,0 -39.37,-17.626 -39.37,-39.37 0,-21.744 17.626,-39.37 39.37,-39.37 21.744,0 39.37,17.626 39.37,39.37 z"
       sodipodi:cx="59250"
       sodipodi:cy="32250"
       sodipodi:rx="39.370098"
       sodipodi:ry="39.370098" />
    <circle
       cx="59250"
       cy="30250"
       r="39.370098"
       id="circle222"
       d="m 59289.37,30250 c 0,21.744 -17.626,39.37 -39.37,39.37 -21.744,0 -39.37,-17.626 -39.37,-39.37 0,-21.744 17.626,-39.37 39.37,-39.37 21.744,0 39.37,17.626 39.37,39.37 z"
       sodipodi:cx="59250"
       sodipodi:cy="30250"
       sodipodi:rx="39.370098"
       sodipodi:ry="39.370098" />
    <circle
       cx="59250"
       cy="28250"
       r="39.370098"
       id="circle224"
       d="m 59289.37,28250 c 0,21.744 -17.626,39.37 -39.37,39.37 -21.744,0 -39.37,-17.626 -39.37,-39.37 0,-21.744 17.626,-39.37 39.37,-39.37 21.744,0 39.37,17.626 39.37,39.37 z"
       sodipodi:cx="59250"
       sodipodi:cy="28250"
       sodipodi:rx="39.370098"
       sodipodi:ry="39.370098" />
    <circle
       cx="28400"
       cy="33000"
       r="39.370098"
       id="circle226"
       d="m 28439.37,33000 c 0,21.744 -17.626,39.37 -39.37,39.37 -21.744,0 -39.37,-17.626 -39.37,-39.37 0,-21.744 17.626,-39.37 39.37,-39.37 21.744,0 39.37,17.626 39.37,39.37 z"
       sodipodi:cx="28400"
       sodipodi:cy="33000"
       sodipodi:rx="39.370098"
       sodipodi:ry="39.370098" />
    <circle
       cx="28400"
       cy="38900"
       r="39.370098"
       id="circle228"
       d="m 28439.37,38900 c 0,21.744 -17.626,39.37 -39.37,39.37 -21.744,0 -39.37,-17.626 -39.37,-39.37 0,-21.744 17.626,-39.37 39.37,-39.37 21.744,0 39.37,17.626 39.37,39.37 z"
       sodipodi:cx="28400"
       sodipodi:cy="38900"
       sodipodi:rx="39.370098"
       sodipodi:ry="39.370098" />
    <circle
       cx="55400"
       cy="33000"
       r="39.370098"
       id="circle230"
       d="m 55439.37,33000 c 0,21.744 -17.626,39.37 -39.37,39.37 -21.744,0 -39.37,-17.626 -39.37,-39.37 0,-21.744 17.626,-39.37 39.37,-39.37 21.744,0 39.37,17.626 39.37,39.37 z"
       sodipodi:cx="55400"
       sodipodi:cy="33000"
       sodipodi:rx="39.370098"
       sodipodi:ry="39.370098" />
    <circle
       cx="55400"
       cy="38900"
       r="39.370098"
       id="circle232"
       d="m 55439.37,38900 c 0,21.744 -17.626,39.37 -39.37,39.37 -21.744,0 -39.37,-17.626 -39.37,-39.37 0,-21.744 17.626,-39.37 39.37,-39.37 21.744,0 39.37,17.626 39.37,39.37 z"
       sodipodi:cx="55400"
       sodipodi:cy="38900"
       sodipodi:rx="39.370098"
       sodipodi:ry="39.370098" />
    <circle
       cx="55400"
       cy="21500"
       r="39.370098"
       id="circle234"
       d="m 55439.37,21500 c 0,21.744 -17.626,39.37 -39.37,39.37 -21.744,0 -39.37,-17.626 -39.37,-39.37 0,-21.744 17.626,-39.37 39.37,-39.37 21.744,0 39.37,17.626 39.37,39.37 z"
       sodipodi:cx="55400"
       sodipodi:cy="21500"
       sodipodi:rx="39.370098"
       sodipodi:ry="39.370098" />
    <circle
       cx="55400"
       cy="27400"
       r="39.370098"
       id="circle236"
       d="m 55439.37,27400 c 0,21.744 -17.626,39.37 -39.37,39.37 -21.744,0 -39.37,-17.626 -39.37,-39.37 0,-21.744 17.626,-39.37 39.37,-39.37 21.744,0 39.37,17.626 39.37,39.37 z"
       sodipodi:cx="55400"
       sodipodi:cy="27400"
       sodipodi:rx="39.370098"
       sodipodi:ry="39.370098" />
    <circle
       cx="28400"
       cy="21500"
       r="39.370098"
       id="circle238"
       d="m 28439.37,21500 c 0,21.744 -17.626,39.37 -39.37,39.37 -21.744,0 -39.37,-17.626 -39.37,-39.37 0,-21.744 17.626,-39.37 39.37,-39.37 21.744,0 39.37,17.626 39.37,39.37 z"
       sodipodi:cx="28400"
       sodipodi:cy="21500"
       sodipodi:rx="39.370098"
       sodipodi:ry="39.370098" />
    <circle
       cx="28400"
       cy="27400"
       r="39.370098"
       id="circle240"
       d="m 28439.37,27400 c 0,21.744 -17.626,39.37 -39.37,39.37 -21.744,0 -39.37,-17.626 -39.37,-39.37 0,-21.744 17.626,-39.37 39.37,-39.37 21.744,0 39.37,17.626 39.37,39.37 z"
       sodipodi:cx="28400"
       sodipodi:cy="27400"
       sodipodi:rx="39.370098"
       sodipodi:ry="39.370098" />
    <circle
       cx="35700"
       cy="25500"
       r="39.370098"
       id="circle242"
       d="m 35739.37,25500 c 0,21.744 -17.626,39.37 -39.37,39.37 -21.744,0 -39.37,-17.626 -39.37,-39.37 0,-21.744 17.626,-39.37 39.37,-39.37 21.744,0 39.37,17.626 39.37,39.37 z"
       sodipodi:cx="35700"
       sodipodi:cy="25500"
       sodipodi:rx="39.370098"
       sodipodi:ry="39.370098" />
    <circle
       cx="35700"
       cy="21700"
       r="39.370098"
       id="circle244"
       d="m 35739.37,21700 c 0,21.744 -17.626,39.37 -39.37,39.37 -21.744,0 -39.37,-17.626 -39.37,-39.37 0,-21.744 17.626,-39.37 39.37,-39.37 21.744,0 39.37,17.626 39.37,39.37 z"
       sodipodi:cx="35700"
       sodipodi:cy="21700"
       sodipodi:rx="39.370098"
       sodipodi:ry="39.370098" />
    <circle
       cx="48100"
       cy="38900"
       r="39.370098"
       id="circle246"
       d="m 48139.37,38900 c 0,21.744 -17.626,39.37 -39.37,39.37 -21.744,0 -39.37,-17.626 -39.37,-39.37 0,-21.744 17.626,-39.37 39.37,-39.37 21.744,0 39.37,17.626 39.37,39.37 z"
       sodipodi:cx="48100"
       sodipodi:cy="38900"
       sodipodi:rx="39.370098"
       sodipodi:ry="39.370098" />
    <circle
       cx="48100"
       cy="35100"
       r="39.370098"
       id="circle248"
       d="m 48139.37,35100 c 0,21.744 -17.626,39.37 -39.37,39.37 -21.744,0 -39.37,-17.626 -39.37,-39.37 0,-21.744 17.626,-39.37 39.37,-39.37 21.744,0 39.37,17.626 39.37,39.37 z"
       sodipodi:cx="48100"
       sodipodi:cy="35100"
       sodipodi:rx="39.370098"
       sodipodi:ry="39.370098" />
    <circle
       cx="48200"
       cy="25500"
       r="39.370098"
       id="circle250"
       d="m 48239.37,25500 c 0,21.744 -17.626,39.37 -39.37,39.37 -21.744,0 -39.37,-17.626 -39.37,-39.37 0,-21.744 17.626,-39.37 39.37,-39.37 21.744,0 39.37,17.626 39.37,39.37 z"
       sodipodi:cx="48200"
       sodipodi:cy="25500"
       sodipodi:rx="39.370098"
       sodipodi:ry="39.370098" />
    <circle
       cx="48200"
       cy="21700"
       r="39.370098"
       id="circle252"
       d="m 48239.37,21700 c 0,21.744 -17.626,39.37 -39.37,39.37 -21.744,0 -39.37,-17.626 -39.37,-39.37 0,-21.744 17.626,-39.37 39.37,-39.37 21.744,0 39.37,17.626 39.37,39.37 z"
       sodipodi:cx="48200"
       sodipodi:cy="21700"
       sodipodi:rx="39.370098"
       sodipodi:ry="39.370098" />
    <circle
       cx="35700"
       cy="38900"
       r="39.370098"
       id="circle254"
       d="m 35739.37,38900 c 0,21.744 -17.626,39.37 -39.37,39.37 -21.744,0 -39.37,-17.626 -39.37,-39.37 0,-21.744 17.626,-39.37 39.37,-39.37 21.744,0 39.37,17.626 39.37,39.37 z"
       sodipodi:cx="35700"
       sodipodi:cy="38900"
       sodipodi:rx="39.370098"
       sodipodi:ry="39.370098" />
    <circle
       cx="35700"
       cy="35100"
       r="39.370098"
       id="circle256"
       d="m 35739.37,35100 c 0,21.744 -17.626,39.37 -39.37,39.37 -21.744,0 -39.37,-17.626 -39.37,-39.37 0,-21.744 17.626,-39.37 39.37,-39.37 21.744,0 39.37,17.626 39.37,39.37 z"
       sodipodi:cx="35700"
       sodipodi:cy="35100"
       sodipodi:rx="39.370098"
       sodipodi:ry="39.370098" />
    <circle
       cx="25250"
       cy="41300"
       r="39.370098"
       id="circle258"
       d="m 25289.37,41300 c 0,21.744 -17.626,39.37 -39.37,39.37 -21.744,0 -39.37,-17.626 -39.37,-39.37 0,-21.744 17.626,-39.37 39.37,-39.37 21.744,0 39.37,17.626 39.37,39.37 z"
       sodipodi:cx="25250"
       sodipodi:cy="41300"
       sodipodi:rx="39.370098"
       sodipodi:ry="39.370098" />
    <circle
       cx="25250"
       cy="32700"
       r="39.370098"
       id="circle260"
       d="m 25289.37,32700 c 0,21.744 -17.626,39.37 -39.37,39.37 -21.744,0 -39.37,-17.626 -39.37,-39.37 0,-21.744 17.626,-39.37 39.37,-39.37 21.744,0 39.37,17.626 39.37,39.37 z"
       sodipodi:cx="25250"
       sodipodi:cy="32700"
       sodipodi:rx="39.370098"
       sodipodi:ry="39.370098" />
    <circle
       cx="25250"
       cy="27800"
       r="39.370098"
       id="circle262"
       d="m 25289.37,27800 c 0,21.744 -17.626,39.37 -39.37,39.37 -21.744,0 -39.37,-17.626 -39.37,-39.37 0,-21.744 17.626,-39.37 39.37,-39.37 21.744,0 39.37,17.626 39.37,39.37 z"
       sodipodi:cx="25250"
       sodipodi:cy="27800"
       sodipodi:rx="39.370098"
       sodipodi:ry="39.370098" />
    <circle
       cx="25250"
       cy="19200"
       r="39.370098"
       id="circle264"
       d="m 25289.37,19200 c 0,21.744 -17.626,39.37 -39.37,39.37 -21.744,0 -39.37,-17.626 -39.37,-39.37 0,-21.744 17.626,-39.37 39.37,-39.37 21.744,0 39.37,17.626 39.37,39.37 z"
       sodipodi:cx="25250"
       sodipodi:cy="19200"
       sodipodi:rx="39.370098"
       sodipodi:ry="39.370098" />
  </g>
</svg>
