<?xml version="1.0" standalone="no"?>
 <!DOCTYPE svg PUBLIC "-//W3C//DTD SVG 1.1//EN" 
 "http://www.w3.org/Graphics/SVG/1.1/DTD/svg11.dtd"> 
<svg xmlns="http://www.w3.org/2000/svg" version="1.1" 
    width="21.0007cm" height="29.7002cm" viewBox="0 0 82680 116930 ">
<title>SVG Picture created as ponyser1-F_Mask.svg date 2014/06/30 14:00:25 </title>
  <desc>Picture generated by PCBNEW </desc>
<g style="fill:#000000; fill-opacity:1;stroke:#000000; stroke-opacity:1;
stroke-linecap:round; stroke-linejoin:round; "
 transform="translate(0 0) scale(1 1)">
</g>
<g style="fill:#000000; fill-opacity:1.0; 
stroke:#000000; stroke-width:59.0551; stroke-opacity:1; 
stroke-linecap:round; stroke-linejoin:round;">
<polyline style="fill-rule:evenodd;"
points="16379,12967
16378,13043
16360,13124
16333,13184
16285,13252
16238,13297
16167,13342
16106,13365
16024,13380
15959,13378
15877,13360
15818,13334
15749,13287
15704,13240
15658,13169
15635,13109
15619,13026
15620,12962
15638,12879
15663,12820
15711,12751
15757,12706
15828,12659
15887,12635
15970,12619
16034,12620
16117,12637
16176,12662
16247,12709
16291,12754
16339,12826
16363,12884
16379,12967
" /> 
<polyline style="fill-rule:evenodd;"
points="16379,16967
16378,17043
16360,17124
16333,17184
16285,17252
16238,17297
16167,17342
16106,17365
16024,17380
15959,17378
15877,17360
15818,17334
15749,17287
15704,17240
15658,17169
15635,17109
15619,17026
15620,16962
15638,16879
15663,16820
15711,16751
15757,16706
15828,16659
15887,16635
15970,16619
16034,16620
16117,16637
16176,16662
16247,16709
16291,16754
16339,16826
16363,16884
16379,16967
" /> 
<polyline style="fill-rule:evenodd;"
points="17548,31841
17545,32011
17509,32172
17449,32307
17353,32442
17246,32543
17107,32632
16969,32685
16806,32714
16659,32711
16497,32675
16363,32616
16226,32522
16124,32416
16034,32277
15980,32140
15950,31977
15952,31830
15987,31667
16045,31533
16139,31395
16243,31293
16383,31202
16518,31147
16682,31116
16828,31117
16992,31150
17126,31207
17265,31300
17367,31403
17460,31543
17515,31677
17548,31841
" /> 
<polyline style="fill-rule:evenodd;"
points="17548,36514
17545,36684
17509,36845
17449,36980
17353,37115
17246,37216
17107,37305
16969,37358
16806,37387
16659,37384
16497,37348
16363,37289
16226,37195
16124,37089
16034,36950
15980,36813
15950,36650
15952,36503
15987,36340
16045,36206
16139,36068
16243,35966
16383,35875
16518,35820
16682,35789
16828,35790
16992,35823
17126,35880
17265,35973
17367,36076
17460,36216
17515,36350
17548,36514
" /> 
<polyline style="fill-rule:evenodd;"
points="18854,12969
18853,13040
18836,13116
18811,13172
18766,13235
18722,13277
18656,13319
18600,13341
18522,13355
18462,13353
18385,13337
18330,13312
18265,13267
18224,13224
18181,13158
18159,13102
18144,13024
18145,12965
18162,12887
18185,12832
18230,12767
18272,12725
18339,12682
18394,12660
18473,12644
18531,12645
18610,12661
18664,12684
18731,12729
18772,12770
18817,12837
18839,12891
18854,12969
" /> 
<polyline style="fill-rule:evenodd;"
points="18854,16354
18145,16354
18145,15645
18854,15645
18854,16354
" /> 
<polyline style="fill-rule:evenodd;"
points="18854,19354
18145,19354
18145,18645
18854,18645
18854,19354
" /> 
<polyline style="fill-rule:evenodd;"
points="18879,49317
18878,49393
18860,49474
18833,49534
18785,49602
18738,49647
18667,49692
18606,49715
18524,49730
18459,49728
18377,49710
18318,49684
18249,49637
18204,49590
18158,49519
18135,49459
18119,49376
18120,49312
18138,49229
18163,49170
18211,49101
18257,49056
18328,49009
18387,48985
18470,48969
18534,48970
18617,48987
18676,49012
18747,49059
18791,49104
18839,49176
18863,49234
18879,49317
" /> 
<polyline style="fill-rule:evenodd;"
points="18879,50417
18878,50493
18860,50574
18833,50634
18785,50702
18738,50747
18667,50792
18606,50815
18524,50830
18459,50828
18377,50810
18318,50784
18249,50737
18204,50690
18158,50619
18135,50559
18119,50476
18120,50412
18138,50329
18163,50270
18211,50201
18257,50156
18328,50109
18387,50085
18470,50069
18534,50070
18617,50087
18676,50112
18747,50159
18791,50204
18839,50276
18863,50334
18879,50417
" /> 
<polyline style="fill-rule:evenodd;"
points="18879,51467
18878,51543
18860,51624
18833,51684
18785,51752
18738,51797
18667,51842
18606,51865
18524,51880
18459,51878
18377,51860
18318,51834
18249,51787
18204,51740
18158,51669
18135,51609
18119,51526
18120,51462
18138,51379
18163,51320
18211,51251
18257,51206
18328,51159
18387,51135
18470,51119
18534,51120
18617,51137
18676,51162
18747,51209
18791,51254
18839,51326
18863,51384
18879,51467
" /> 
<polyline style="fill-rule:evenodd;"
points="18879,52567
18878,52643
18860,52724
18833,52784
18785,52852
18738,52897
18667,52942
18606,52965
18524,52980
18459,52978
18377,52960
18318,52934
18249,52887
18204,52840
18158,52769
18135,52709
18119,52626
18120,52562
18138,52479
18163,52420
18211,52351
18257,52306
18328,52259
18387,52235
18470,52219
18534,52220
18617,52237
18676,52262
18747,52309
18791,52354
18839,52426
18863,52484
18879,52567
" /> 
<polyline style="fill-rule:evenodd;"
points="19329,45872
19327,46050
19289,46217
19226,46357
19127,46497
19016,46603
18871,46695
18728,46751
18559,46781
18405,46777
18238,46740
18097,46679
17956,46581
17849,46471
17756,46326
17700,46184
17669,46014
17671,45862
17707,45693
17767,45553
17865,45410
17973,45303
18118,45209
18259,45152
18429,45119
18581,45120
18751,45155
18891,45214
19035,45311
19142,45418
19238,45563
19296,45703
19329,45872
" /> 
<polyline style="fill-rule:evenodd;"
points="19329,55872
19327,56050
19289,56217
19226,56357
19127,56497
19016,56603
18871,56695
18728,56751
18559,56781
18405,56777
18238,56740
18097,56679
17956,56581
17849,56471
17756,56326
17700,56184
17669,56014
17671,55862
17707,55693
17767,55553
17865,55410
17973,55303
18118,55209
18259,55152
18429,55119
18581,55120
18751,55155
18891,55214
19035,55311
19142,55418
19238,55563
19296,55703
19329,55872
" /> 
<polyline style="fill-rule:evenodd;"
points="19625,33467
19624,33543
19605,33622
19579,33682
19532,33749
19485,33793
19415,33838
19355,33861
19274,33875
19209,33874
19129,33856
19070,33830
19002,33783
18957,33737
18912,33667
18889,33608
18874,33526
18875,33462
18892,33381
18917,33323
18964,33253
19009,33209
19080,33163
19138,33140
19221,33124
19283,33124
19366,33141
19424,33166
19494,33213
19538,33257
19585,33328
19608,33385
19625,33467
" /> 
<polyline style="fill-rule:evenodd;"
points="19625,34467
19624,34543
19605,34622
19579,34682
19532,34749
19485,34793
19415,34838
19355,34861
19274,34875
19209,34874
19129,34856
19070,34830
19002,34783
18957,34737
18912,34667
18889,34608
18874,34526
18875,34462
18892,34381
18917,34323
18964,34253
19009,34209
19080,34163
19138,34140
19221,34124
19283,34124
19366,34141
19424,34166
19494,34213
19538,34257
19585,34328
19608,34385
19625,34467
" /> 
<polyline style="fill-rule:evenodd;"
points="19625,35467
19624,35543
19605,35622
19579,35682
19532,35749
19485,35793
19415,35838
19355,35861
19274,35875
19209,35874
19129,35856
19070,35830
19002,35783
18957,35737
18912,35667
18889,35608
18874,35526
18875,35462
18892,35381
18917,35323
18964,35253
19009,35209
19080,35163
19138,35140
19221,35124
19283,35124
19366,35141
19424,35166
19494,35213
19538,35257
19585,35328
19608,35385
19625,35467
" /> 
<polyline style="fill-rule:evenodd;"
points="19625,32875
18874,32875
18874,32124
19625,32124
19625,32875
" /> 
<polyline style="fill-rule:evenodd;"
points="19879,48767
19878,48843
19860,48924
19833,48984
19785,49052
19738,49097
19667,49142
19606,49165
19524,49180
19459,49178
19377,49160
19318,49134
19249,49087
19204,49040
19158,48969
19135,48909
19119,48826
19120,48762
19138,48679
19163,48620
19211,48551
19257,48506
19328,48459
19387,48435
19470,48419
19534,48420
19617,48437
19676,48462
19747,48509
19791,48554
19839,48626
19863,48684
19879,48767
" /> 
<polyline style="fill-rule:evenodd;"
points="19879,49867
19878,49943
19860,50024
19833,50084
19785,50152
19738,50197
19667,50242
19606,50265
19524,50280
19459,50278
19377,50260
19318,50234
19249,50187
19204,50140
19158,50069
19135,50009
19119,49926
19120,49862
19138,49779
19163,49720
19211,49651
19257,49606
19328,49559
19387,49535
19470,49519
19534,49520
19617,49537
19676,49562
19747,49609
19791,49654
19839,49726
19863,49784
19879,49867
" /> 
<polyline style="fill-rule:evenodd;"
points="19879,50967
19878,51043
19860,51124
19833,51184
19785,51252
19738,51297
19667,51342
19606,51365
19524,51380
19459,51378
19377,51360
19318,51334
19249,51287
19204,51240
19158,51169
19135,51109
19119,51026
19120,50962
19138,50879
19163,50820
19211,50751
19257,50706
19328,50659
19387,50635
19470,50619
19534,50620
19617,50637
19676,50662
19747,50709
19791,50754
19839,50826
19863,50884
19879,50967
" /> 
<polyline style="fill-rule:evenodd;"
points="19879,52017
19878,52093
19860,52174
19833,52234
19785,52302
19738,52347
19667,52392
19606,52415
19524,52430
19459,52428
19377,52410
19318,52384
19249,52337
19204,52290
19158,52219
19135,52159
19119,52076
19120,52012
19138,51929
19163,51870
19211,51801
19257,51756
19328,51709
19387,51685
19470,51669
19534,51670
19617,51687
19676,51712
19747,51759
19791,51804
19839,51876
19863,51934
19879,52017
" /> 
<polyline style="fill-rule:evenodd;"
points="19879,53529
19120,53529
19120,52770
19879,52770
19879,53529
" /> 
<polyline style="fill-rule:evenodd;"
points="20354,12969
20353,13040
20336,13116
20311,13172
20266,13235
20222,13277
20156,13319
20100,13341
20022,13355
19962,13353
19885,13337
19830,13312
19765,13267
19724,13224
19681,13158
19659,13102
19644,13024
19645,12965
19662,12887
19685,12832
19730,12767
19772,12725
19839,12682
19894,12660
19973,12644
20031,12645
20110,12661
20164,12684
20231,12729
20272,12770
20317,12837
20339,12891
20354,12969
" /> 
<polyline style="fill-rule:evenodd;"
points="20354,16354
19645,16354
19645,15645
20354,15645
20354,16354
" /> 
<polyline style="fill-rule:evenodd;"
points="20625,32967
20624,33043
20605,33122
20579,33182
20532,33249
20485,33293
20415,33338
20355,33361
20274,33375
20209,33374
20129,33356
20070,33330
20002,33283
19957,33237
19912,33167
19889,33108
19874,33026
19875,32962
19892,32881
19917,32823
19964,32753
20009,32709
20080,32663
20138,32640
20221,32624
20283,32624
20366,32641
20424,32666
20494,32713
20538,32757
20585,32828
20608,32885
20625,32967
" /> 
<polyline style="fill-rule:evenodd;"
points="20625,33967
20624,34043
20605,34122
20579,34182
20532,34249
20485,34293
20415,34338
20355,34361
20274,34375
20209,34374
20129,34356
20070,34330
20002,34283
19957,34237
19912,34167
19889,34108
19874,34026
19875,33962
19892,33881
19917,33823
19964,33753
20009,33709
20080,33663
20138,33640
20221,33624
20283,33624
20366,33641
20424,33666
20494,33713
20538,33757
20585,33828
20608,33885
20625,33967
" /> 
<polyline style="fill-rule:evenodd;"
points="20625,34967
20624,35043
20605,35122
20579,35182
20532,35249
20485,35293
20415,35338
20355,35361
20274,35375
20209,35374
20129,35356
20070,35330
20002,35283
19957,35237
19912,35167
19889,35108
19874,35026
19875,34962
19892,34881
19917,34823
19964,34753
20009,34709
20080,34663
20138,34640
20221,34624
20283,34624
20366,34641
20424,34666
20494,34713
20538,34757
20585,34828
20608,34885
20625,34967
" /> 
<polyline style="fill-rule:evenodd;"
points="20625,35967
20624,36043
20605,36122
20579,36182
20532,36249
20485,36293
20415,36338
20355,36361
20274,36375
20209,36374
20129,36356
20070,36330
20002,36283
19957,36237
19912,36167
19889,36108
19874,36026
19875,35962
19892,35881
19917,35823
19964,35753
20009,35709
20080,35663
20138,35640
20221,35624
20283,35624
20366,35641
20424,35666
20494,35713
20538,35757
20585,35828
20608,35885
20625,35967
" /> 
<polyline style="fill-rule:evenodd;"
points="20879,9717
20878,9793
20860,9874
20833,9934
20785,10002
20738,10047
20667,10092
20606,10115
20524,10130
20459,10128
20377,10110
20318,10084
20249,10037
20204,9990
20158,9919
20135,9859
20119,9776
20120,9712
20138,9629
20163,9570
20211,9501
20257,9456
20328,9409
20387,9385
20470,9369
20534,9370
20617,9387
20676,9412
20747,9459
20791,9504
20839,9576
20863,9634
20879,9717
" /> 
<polyline style="fill-rule:evenodd;"
points="21854,18969
21853,19040
21836,19116
21811,19172
21766,19235
21722,19277
21656,19319
21600,19341
21522,19355
21462,19353
21385,19337
21330,19312
21265,19267
21224,19224
21181,19158
21159,19102
21144,19024
21145,18965
21162,18887
21185,18832
21230,18767
21272,18725
21339,18682
21394,18660
21473,18644
21531,18645
21610,18661
21664,18684
21731,18729
21772,18770
21817,18837
21839,18891
21854,18969
" /> 
<polyline style="fill-rule:evenodd;"
points="21879,9717
21878,9793
21860,9874
21833,9934
21785,10002
21738,10047
21667,10092
21606,10115
21524,10130
21459,10128
21377,10110
21318,10084
21249,10037
21204,9990
21158,9919
21135,9859
21119,9776
21120,9712
21138,9629
21163,9570
21211,9501
21257,9456
21328,9409
21387,9385
21470,9369
21534,9370
21617,9387
21676,9412
21747,9459
21791,9504
21839,9576
21863,9634
21879,9717
" /> 
<polyline style="fill-rule:evenodd;"
points="21879,11967
21878,12043
21860,12124
21833,12184
21785,12252
21738,12297
21667,12342
21606,12365
21524,12380
21459,12378
21377,12360
21318,12334
21249,12287
21204,12240
21158,12169
21135,12109
21119,12026
21120,11962
21138,11879
21163,11820
21211,11751
21257,11706
21328,11659
21387,11635
21470,11619
21534,11620
21617,11637
21676,11662
21747,11709
21791,11754
21839,11826
21863,11884
21879,11967
" /> 
<polyline style="fill-rule:evenodd;"
points="21879,15967
21878,16043
21860,16124
21833,16184
21785,16252
21738,16297
21667,16342
21606,16365
21524,16380
21459,16378
21377,16360
21318,16334
21249,16287
21204,16240
21158,16169
21135,16109
21119,16026
21120,15962
21138,15879
21163,15820
21211,15751
21257,15706
21328,15659
21387,15635
21470,15619
21534,15620
21617,15637
21676,15662
21747,15709
21791,15754
21839,15826
21863,15884
21879,15967
" /> 
<polyline style="fill-rule:evenodd;"
points="22879,48467
22878,48543
22860,48624
22833,48684
22785,48752
22738,48797
22667,48842
22606,48865
22524,48880
22459,48878
22377,48860
22318,48834
22249,48787
22204,48740
22158,48669
22135,48609
22119,48526
22120,48462
22138,48379
22163,48320
22211,48251
22257,48206
22328,48159
22387,48135
22470,48119
22534,48120
22617,48137
22676,48162
22747,48209
22791,48254
22839,48326
22863,48384
22879,48467
" /> 
<polyline style="fill-rule:evenodd;"
points="22879,52217
22878,52293
22860,52374
22833,52434
22785,52502
22738,52547
22667,52592
22606,52615
22524,52630
22459,52628
22377,52610
22318,52584
22249,52537
22204,52490
22158,52419
22135,52359
22119,52276
22120,52212
22138,52129
22163,52070
22211,52001
22257,51956
22328,51909
22387,51885
22470,51869
22534,51870
22617,51887
22676,51912
22747,51959
22791,52004
22839,52076
22863,52134
22879,52217
" /> 
<polyline style="fill-rule:evenodd;"
points="22879,53217
22878,53293
22860,53374
22833,53434
22785,53502
22738,53547
22667,53592
22606,53615
22524,53630
22459,53628
22377,53610
22318,53584
22249,53537
22204,53490
22158,53419
22135,53359
22119,53276
22120,53212
22138,53129
22163,53070
22211,53001
22257,52956
22328,52909
22387,52885
22470,52869
22534,52870
22617,52887
22676,52912
22747,52959
22791,53004
22839,53076
22863,53134
22879,53217
" /> 
<polyline style="fill-rule:evenodd;"
points="22879,10129
22120,10129
22120,9370
22879,9370
22879,10129
" /> 
<polyline style="fill-rule:evenodd;"
points="22879,49879
22120,49879
22120,49120
22879,49120
22879,49879
" /> 
<polyline style="fill-rule:evenodd;"
points="22879,51629
22120,51629
22120,50870
22879,50870
22879,51629
" /> 
<polyline style="fill-rule:evenodd;"
points="23354,11469
23353,11540
23336,11616
23311,11672
23266,11735
23222,11777
23156,11819
23100,11841
23022,11855
22962,11853
22885,11837
22830,11812
22765,11767
22724,11724
22681,11658
22659,11602
22644,11524
22645,11465
22662,11387
22685,11332
22730,11267
22772,11225
22839,11182
22894,11160
22973,11144
23031,11145
23110,11161
23164,11184
23231,11229
23272,11270
23317,11337
23339,11391
23354,11469
" /> 
<polyline style="fill-rule:evenodd;"
points="23354,18969
23353,19040
23336,19116
23311,19172
23266,19235
23222,19277
23156,19319
23100,19341
23022,19355
22962,19353
22885,19337
22830,19312
22765,19267
22724,19224
22681,19158
22659,19102
22644,19024
22645,18965
22662,18887
22685,18832
22730,18767
22772,18725
22839,18682
22894,18660
22973,18644
23031,18645
23110,18661
23164,18684
23231,18729
23272,18770
23317,18837
23339,18891
23354,18969
" /> 
<polyline style="fill-rule:evenodd;"
points="23354,14854
22645,14854
22645,14145
23354,14145
23354,14854
" /> 
<polyline style="fill-rule:evenodd;"
points="23354,16354
22645,16354
22645,15645
23354,15645
23354,16354
" /> 
<polyline style="fill-rule:evenodd;"
points="23379,32967
23378,33043
23360,33124
23333,33184
23285,33252
23238,33297
23167,33342
23106,33365
23024,33380
22959,33378
22877,33360
22818,33334
22749,33287
22704,33240
22658,33169
22635,33109
22619,33026
22620,32962
22638,32879
22663,32820
22711,32751
22757,32706
22828,32659
22887,32635
22970,32619
23034,32620
23117,32637
23176,32662
23247,32709
23291,32754
23339,32826
23363,32884
23379,32967
" /> 
<polyline style="fill-rule:evenodd;"
points="23379,34967
23378,35043
23360,35124
23333,35184
23285,35252
23238,35297
23167,35342
23106,35365
23024,35380
22959,35378
22877,35360
22818,35334
22749,35287
22704,35240
22658,35169
22635,35109
22619,35026
22620,34962
22638,34879
22663,34820
22711,34751
22757,34706
22828,34659
22887,34635
22970,34619
23034,34620
23117,34637
23176,34662
23247,34709
23291,34754
23339,34826
23363,34884
23379,34967
" /> 
<polyline style="fill-rule:evenodd;"
points="23379,35967
23378,36043
23360,36124
23333,36184
23285,36252
23238,36297
23167,36342
23106,36365
23024,36380
22959,36378
22877,36360
22818,36334
22749,36287
22704,36240
22658,36169
22635,36109
22619,36026
22620,35962
22638,35879
22663,35820
22711,35751
22757,35706
22828,35659
22887,35635
22970,35619
23034,35620
23117,35637
23176,35662
23247,35709
23291,35754
23339,35826
23363,35884
23379,35967
" /> 
<polyline style="fill-rule:evenodd;"
points="23379,32379
22620,32379
22620,31620
23379,31620
23379,32379
" /> 
<polyline style="fill-rule:evenodd;"
points="23379,34379
22620,34379
22620,33620
23379,33620
23379,34379
" /> 
<polyline style="fill-rule:evenodd;"
points="23879,10129
23120,10129
23120,9370
23879,9370
23879,10129
" /> 
<polyline style="fill-rule:evenodd;"
points="24879,9717
24878,9793
24860,9874
24833,9934
24785,10002
24738,10047
24667,10092
24606,10115
24524,10130
24459,10128
24377,10110
24318,10084
24249,10037
24204,9990
24158,9919
24135,9859
24119,9776
24120,9712
24138,9629
24163,9570
24211,9501
24257,9456
24328,9409
24387,9385
24470,9369
24534,9370
24617,9387
24676,9412
24747,9459
24791,9504
24839,9576
24863,9634
24879,9717
" /> 
<polyline style="fill-rule:evenodd;"
points="24879,11467
24878,11543
24860,11624
24833,11684
24785,11752
24738,11797
24667,11842
24606,11865
24524,11880
24459,11878
24377,11860
24318,11834
24249,11787
24204,11740
24158,11669
24135,11609
24119,11526
24120,11462
24138,11379
24163,11320
24211,11251
24257,11206
24328,11159
24387,11135
24470,11119
24534,11120
24617,11137
24676,11162
24747,11209
24791,11254
24839,11326
24863,11384
24879,11467
" /> 
<polyline style="fill-rule:evenodd;"
points="26104,16104
25395,16104
25395,15395
26104,15395
26104,16104
" /> 
<polyline style="fill-rule:evenodd;"
points="27854,13969
27853,14040
27836,14116
27811,14172
27766,14235
27722,14277
27656,14319
27600,14341
27522,14355
27462,14353
27385,14337
27330,14312
27265,14267
27224,14224
27181,14158
27159,14102
27144,14024
27145,13965
27162,13887
27185,13832
27230,13767
27272,13725
27339,13682
27394,13660
27473,13644
27531,13645
27610,13661
27664,13684
27731,13729
27772,13770
27817,13837
27839,13891
27854,13969
" /> 
<polyline style="fill-rule:evenodd;"
points="27854,15719
27853,15790
27836,15866
27811,15922
27766,15985
27722,16027
27656,16069
27600,16091
27522,16105
27462,16103
27385,16087
27330,16062
27265,16017
27224,15974
27181,15908
27159,15852
27144,15774
27145,15715
27162,15637
27185,15582
27230,15517
27272,15475
27339,15432
27394,15410
27473,15394
27531,15395
27610,15411
27664,15434
27731,15479
27772,15520
27817,15587
27839,15641
27854,15719
" /> 
<polyline style="fill-rule:evenodd;"
points="28879,11467
28878,11543
28860,11624
28833,11684
28785,11752
28738,11797
28667,11842
28606,11865
28524,11880
28459,11878
28377,11860
28318,11834
28249,11787
28204,11740
28158,11669
28135,11609
28119,11526
28120,11462
28138,11379
28163,11320
28211,11251
28257,11206
28328,11159
28387,11135
28470,11119
28534,11120
28617,11137
28676,11162
28747,11209
28791,11254
28839,11326
28863,11384
28879,11467
" /> 
<polyline style="fill-rule:evenodd;"
points="29379,15717
29378,15793
29360,15874
29333,15934
29285,16002
29238,16047
29167,16092
29106,16115
29024,16130
28959,16128
28877,16110
28818,16084
28749,16037
28704,15990
28658,15919
28635,15859
28619,15776
28620,15712
28638,15629
28663,15570
28711,15501
28757,15456
28828,15409
28887,15385
28970,15369
29034,15370
29117,15387
29176,15412
29247,15459
29291,15504
29339,15576
29363,15634
29379,15717
" /> 
<polyline style="fill-rule:evenodd;"
points="29379,19717
29378,19793
29360,19874
29333,19934
29285,20002
29238,20047
29167,20092
29106,20115
29024,20130
28959,20128
28877,20110
28818,20084
28749,20037
28704,19990
28658,19919
28635,19859
28619,19776
28620,19712
28638,19629
28663,19570
28711,19501
28757,19456
28828,19409
28887,19385
28970,19369
29034,19370
29117,19387
29176,19412
29247,19459
29291,19504
29339,19576
29363,19634
29379,19717
" /> 
<polyline style="fill-rule:evenodd;"
points="30354,8469
30353,8540
30336,8616
30311,8672
30266,8735
30222,8777
30156,8819
30100,8841
30022,8855
29962,8853
29885,8837
29830,8812
29765,8767
29724,8724
29681,8658
29659,8602
29644,8524
29645,8465
29662,8387
29685,8332
29730,8267
29772,8225
29839,8182
29894,8160
29973,8144
30031,8145
30110,8161
30164,8184
30231,8229
30272,8270
30317,8337
30339,8391
30354,8469
" /> 
<polyline style="fill-rule:evenodd;"
points="30354,11854
29645,11854
29645,11145
30354,11145
30354,11854
" /> 
<polyline style="fill-rule:evenodd;"
points="30879,15717
30878,15793
30860,15874
30833,15934
30785,16002
30738,16047
30667,16092
30606,16115
30524,16130
30459,16128
30377,16110
30318,16084
30249,16037
30204,15990
30158,15919
30135,15859
30119,15776
30120,15712
30138,15629
30163,15570
30211,15501
30257,15456
30328,15409
30387,15385
30470,15369
30534,15370
30617,15387
30676,15412
30747,15459
30791,15504
30839,15576
30863,15634
30879,15717
" /> 
<polyline style="fill-rule:evenodd;"
points="30879,19717
30878,19793
30860,19874
30833,19934
30785,20002
30738,20047
30667,20092
30606,20115
30524,20130
30459,20128
30377,20110
30318,20084
30249,20037
30204,19990
30158,19919
30135,19859
30119,19776
30120,19712
30138,19629
30163,19570
30211,19501
30257,19456
30328,19409
30387,19385
30470,19369
30534,19370
30617,19387
30676,19412
30747,19459
30791,19504
30839,19576
30863,19634
30879,19717
" /> 
<polyline style="fill-rule:evenodd;"
points="32129,8717
32128,8793
32110,8874
32083,8934
32035,9002
31988,9047
31917,9092
31856,9115
31774,9130
31709,9128
31627,9110
31568,9084
31499,9037
31454,8990
31408,8919
31385,8859
31369,8776
31370,8712
31388,8629
31413,8570
31461,8501
31507,8456
31578,8409
31637,8385
31720,8369
31784,8370
31867,8387
31926,8412
31997,8459
32041,8504
32089,8576
32113,8634
32129,8717
" /> 
<polyline style="fill-rule:evenodd;"
points="32129,10717
32128,10793
32110,10874
32083,10934
32035,11002
31988,11047
31917,11092
31856,11115
31774,11130
31709,11128
31627,11110
31568,11084
31499,11037
31454,10990
31408,10919
31385,10859
31369,10776
31370,10712
31388,10629
31413,10570
31461,10501
31507,10456
31578,10409
31637,10385
31720,10369
31784,10370
31867,10387
31926,10412
31997,10459
32041,10504
32089,10576
32113,10634
32129,10717
" /> 
<polyline style="fill-rule:evenodd;"
points="32129,11717
32128,11793
32110,11874
32083,11934
32035,12002
31988,12047
31917,12092
31856,12115
31774,12130
31709,12128
31627,12110
31568,12084
31499,12037
31454,11990
31408,11919
31385,11859
31369,11776
31370,11712
31388,11629
31413,11570
31461,11501
31507,11456
31578,11409
31637,11385
31720,11369
31784,11370
31867,11387
31926,11412
31997,11459
32041,11504
32089,11576
32113,11634
32129,11717
" /> 
<polyline style="fill-rule:evenodd;"
points="32129,12717
32128,12793
32110,12874
32083,12934
32035,13002
31988,13047
31917,13092
31856,13115
31774,13130
31709,13128
31627,13110
31568,13084
31499,13037
31454,12990
31408,12919
31385,12859
31369,12776
31370,12712
31388,12629
31413,12570
31461,12501
31507,12456
31578,12409
31637,12385
31720,12369
31784,12370
31867,12387
31926,12412
31997,12459
32041,12504
32089,12576
32113,12634
32129,12717
" /> 
<polyline style="fill-rule:evenodd;"
points="32129,10129
31370,10129
31370,9370
32129,9370
32129,10129
" /> 
<polyline style="fill-rule:evenodd;"
points="32129,14129
31370,14129
31370,13370
32129,13370
32129,14129
" /> 
<polyline style="fill-rule:evenodd;"
points="32604,17969
32603,18040
32586,18116
32561,18172
32516,18235
32472,18277
32406,18319
32350,18341
32272,18355
32212,18353
32135,18337
32080,18312
32015,18267
31974,18224
31931,18158
31909,18102
31894,18024
31895,17965
31912,17887
31935,17832
31980,17767
32022,17725
32089,17682
32144,17660
32223,17644
32281,17645
32360,17661
32414,17684
32481,17729
32522,17770
32567,17837
32589,17891
32604,17969
" /> 
<polyline style="fill-rule:evenodd;"
points="32604,17354
31895,17354
31895,16645
32604,16645
32604,17354
" /> 
<polyline style="fill-rule:evenodd;"
points="34104,15354
33395,15354
33395,14645
34104,14645
34104,15354
" /> 
<polyline style="fill-rule:evenodd;"
points="34354,10469
34353,10540
34336,10616
34311,10672
34266,10735
34222,10777
34156,10819
34100,10841
34022,10855
33962,10853
33885,10837
33830,10812
33765,10767
33724,10724
33681,10658
33659,10602
33644,10524
33645,10465
33662,10387
33685,10332
33730,10267
33772,10225
33839,10182
33894,10160
33973,10144
34031,10145
34110,10161
34164,10184
34231,10229
34272,10270
34317,10337
34339,10391
34354,10469
" /> 
<polyline style="fill-rule:evenodd;"
points="34354,11854
33645,11854
33645,11145
34354,11145
34354,11854
" /> 
<polyline style="fill-rule:evenodd;"
points="34604,16969
34603,17040
34586,17116
34561,17172
34516,17235
34472,17277
34406,17319
34350,17341
34272,17355
34212,17353
34135,17337
34080,17312
34015,17267
33974,17224
33931,17158
33909,17102
33894,17024
33895,16965
33912,16887
33935,16832
33980,16767
34022,16725
34089,16682
34144,16660
34223,16644
34281,16645
34360,16661
34414,16684
34481,16729
34522,16770
34567,16837
34589,16891
34604,16969
" /> 
<polyline style="fill-rule:evenodd;"
points="34604,18969
34603,19040
34586,19116
34561,19172
34516,19235
34472,19277
34406,19319
34350,19341
34272,19355
34212,19353
34135,19337
34080,19312
34015,19267
33974,19224
33931,19158
33909,19102
33894,19024
33895,18965
33912,18887
33935,18832
33980,18767
34022,18725
34089,18682
34144,18660
34223,18644
34281,18645
34360,18661
34414,18684
34481,18729
34522,18770
34567,18837
34589,18891
34604,18969
" /> 
<polyline style="fill-rule:evenodd;"
points="35854,13219
35853,13290
35836,13366
35811,13422
35766,13485
35722,13527
35656,13569
35600,13591
35522,13605
35462,13603
35385,13587
35330,13562
35265,13517
35224,13474
35181,13408
35159,13352
35144,13274
35145,13215
35162,13137
35185,13082
35230,13017
35272,12975
35339,12932
35394,12910
35473,12894
35531,12895
35610,12911
35664,12934
35731,12979
35772,13020
35817,13087
35839,13141
35854,13219
" /> 
<polyline style="fill-rule:evenodd;"
points="35854,14969
35853,15040
35836,15116
35811,15172
35766,15235
35722,15277
35656,15319
35600,15341
35522,15355
35462,15353
35385,15337
35330,15312
35265,15267
35224,15224
35181,15158
35159,15102
35144,15024
35145,14965
35162,14887
35185,14832
35230,14767
35272,14725
35339,14682
35394,14660
35473,14644
35531,14645
35610,14661
35664,14684
35731,14729
35772,14770
35817,14837
35839,14891
35854,14969
" /> 
</g> 
</svg>
