M48
; DRILL file KiCad 10.0.3 date 2026-06-24T18:43:48
; FORMAT={-:-/ absolute / metric / decimal}
; #@! TF.CreationDate,2026-06-24T18:43:48+03:00
; #@! TF.GenerationSoftware,Kicad,Pcbnew,10.0.3
; #@! TF.FileFunction,MixedPlating,1,2
FMAT,2
METRIC
; #@! TA.AperFunction,Plated,PTH,ComponentDrill
T1C0.800
%
G90
G05
T1
X47.666Y-137.795
X47.706Y-118.745
X47.706Y-124.46
X47.706Y-132.08
X52.666Y-137.795
X52.706Y-118.745
X52.706Y-124.46
X52.706Y-132.08
X69.851Y-106.68
X69.851Y-116.68
X69.851Y-139.86
X69.851Y-149.86
X101.601Y-106.84
X101.601Y-116.84
X101.601Y-139.7
X101.601Y-149.7
X133.351Y-106.84
X133.351Y-116.84
X133.351Y-139.7
X133.351Y-149.7
X150.536Y-124.46
X150.536Y-132.08
X151.131Y-116.84
X151.131Y-139.7
X155.536Y-124.46
X155.536Y-132.08
X158.631Y-116.84
X158.631Y-139.7
M30
