%TF.GenerationSoftware,KiCad,Pcbnew,10.0.3*%
%TF.CreationDate,2026-06-24T18:43:41+03:00*%
%TF.ProjectId,power_supply_filters,706f7765-725f-4737-9570-706c795f6669,rev?*%
%TF.SameCoordinates,Original*%
%TF.FileFunction,Copper,L2,Bot*%
%TF.FilePolarity,Positive*%
%FSLAX46Y46*%
G04 Gerber Fmt 4.6, Leading zero omitted, Abs format (unit mm)*
G04 Created by KiCad (PCBNEW 10.0.3) date 2026-06-24 18:43:41*
%MOMM*%
%LPD*%
G01*
G04 APERTURE LIST*
G04 Aperture macros list*
%AMRoundRect*
0 Rectangle with rounded corners*
0 $1 Rounding radius*
0 $2 $3 $4 $5 $6 $7 $8 $9 X,Y pos of 4 corners*
0 Add a 4 corners polygon primitive as box body*
4,1,4,$2,$3,$4,$5,$6,$7,$8,$9,$2,$3,0*
0 Add four circle primitives for the rounded corners*
1,1,$1+$1,$2,$3*
1,1,$1+$1,$4,$5*
1,1,$1+$1,$6,$7*
1,1,$1+$1,$8,$9*
0 Add four rect primitives between the rounded corners*
20,1,$1+$1,$2,$3,$4,$5,0*
20,1,$1+$1,$4,$5,$6,$7,0*
20,1,$1+$1,$6,$7,$8,$9,0*
20,1,$1+$1,$8,$9,$2,$3,0*%
G04 Aperture macros list end*
%TA.AperFunction,ComponentPad*%
%ADD10O,2.000000X4.000000*%
%TD*%
%TA.AperFunction,ComponentPad*%
%ADD11C,2.000000*%
%TD*%
%TA.AperFunction,ComponentPad*%
%ADD12C,4.000000*%
%TD*%
%TA.AperFunction,ComponentPad*%
%ADD13C,1.600000*%
%TD*%
%TA.AperFunction,SMDPad,CuDef*%
%ADD14RoundRect,0.250000X-1.375000X-2.500000X1.375000X-2.500000X1.375000X2.500000X-1.375000X2.500000X0*%
%TD*%
%TA.AperFunction,Profile*%
%ADD15C,0.200000*%
%TD*%
G04 APERTURE END LIST*
D10*
%TO.P,J1,1,Pin_1_1*%
%TO.N,GND*%
X47706488Y-132080000D03*
%TO.P,J1,2,Pin_2_2*%
%TO.N,VDD_IN*%
X52706488Y-132080000D03*
%TD*%
%TO.P,J3,1,Pin_1_1*%
%TO.N,GND*%
X47706488Y-124460000D03*
%TO.P,J3,2,Pin_2_2*%
%TO.N,VDD_IN*%
X52706488Y-124460000D03*
%TD*%
%TO.P,J4,1,Pin_1_1*%
%TO.N,GND*%
X155536488Y-124460000D03*
%TO.P,J4,2,Pin_2_2*%
%TO.N,VDD*%
X150536488Y-124460000D03*
%TD*%
D11*
%TO.P,C6,1*%
%TO.N,VDD*%
X151131488Y-139700000D03*
%TO.P,C6,2*%
%TO.N,GND*%
X158631488Y-139700000D03*
%TD*%
D12*
%TO.P,C10,1*%
%TO.N,VDD*%
X101601488Y-139700000D03*
%TO.P,C10,2*%
%TO.N,GND*%
X101601488Y-149700000D03*
%TD*%
%TO.P,C1,1*%
%TO.N,VDD_IN*%
X69851488Y-139860000D03*
%TO.P,C1,2*%
%TO.N,GND*%
X69851488Y-149860000D03*
%TD*%
D11*
%TO.P,C7,1*%
%TO.N,VDD*%
X151131488Y-116840000D03*
%TO.P,C7,2*%
%TO.N,GND*%
X158631488Y-116840000D03*
%TD*%
D12*
%TO.P,C8,1*%
%TO.N,VDD*%
X133351488Y-116840000D03*
%TO.P,C8,2*%
%TO.N,GND*%
X133351488Y-106840000D03*
%TD*%
D10*
%TO.P,J5,1,Pin_1_1*%
%TO.N,GND*%
X155536488Y-132080000D03*
%TO.P,J5,2,Pin_2_2*%
%TO.N,VDD*%
X150536488Y-132080000D03*
%TD*%
D13*
%TO.P,C4,1*%
%TO.N,VDD_IN*%
X52666488Y-137795000D03*
%TO.P,C4,2*%
%TO.N,GND*%
X47666488Y-137795000D03*
%TD*%
D12*
%TO.P,C5,1*%
%TO.N,VDD*%
X133351488Y-139700000D03*
%TO.P,C5,2*%
%TO.N,GND*%
X133351488Y-149700000D03*
%TD*%
%TO.P,C9,1*%
%TO.N,VDD*%
X101601488Y-116840000D03*
%TO.P,C9,2*%
%TO.N,GND*%
X101601488Y-106840000D03*
%TD*%
%TO.P,C2,1*%
%TO.N,VDD_IN*%
X69851488Y-116680000D03*
%TO.P,C2,2*%
%TO.N,GND*%
X69851488Y-106680000D03*
%TD*%
D13*
%TO.P,C3,1*%
%TO.N,VDD_IN*%
X52706488Y-118745000D03*
%TO.P,C3,2*%
%TO.N,GND*%
X47706488Y-118745000D03*
%TD*%
D14*
%TO.P,L1,1,1_1*%
%TO.N,VDD_IN*%
X79466488Y-128270000D03*
%TO.P,L1,2,2_2*%
%TO.N,VDD*%
X90716488Y-128270000D03*
%TD*%
%TA.AperFunction,Conductor*%
%TO.N,VDD_IN*%
G36*
X79334876Y-114303819D02*
G01*
X79439095Y-114311272D01*
X79459173Y-114312708D01*
X79670882Y-114343147D01*
X79740206Y-114358227D01*
X79945388Y-114418475D01*
X80011857Y-114443266D01*
X80206411Y-114532114D01*
X80268669Y-114566110D01*
X80448595Y-114681742D01*
X80505388Y-114724257D01*
X80667020Y-114864312D01*
X80717175Y-114914467D01*
X80857230Y-115076099D01*
X80899745Y-115132892D01*
X81015379Y-115312821D01*
X81049371Y-115375073D01*
X81138221Y-115569630D01*
X81163012Y-115636099D01*
X81223260Y-115841283D01*
X81238338Y-115910592D01*
X81268779Y-116122304D01*
X81277669Y-116246601D01*
X81281488Y-116353540D01*
X81281488Y-140186459D01*
X81277669Y-140293398D01*
X81268779Y-140417695D01*
X81238338Y-140629407D01*
X81223260Y-140698716D01*
X81163012Y-140903900D01*
X81138221Y-140970369D01*
X81049371Y-141164926D01*
X81015379Y-141227178D01*
X80899745Y-141407107D01*
X80857230Y-141463900D01*
X80717175Y-141625532D01*
X80667020Y-141675687D01*
X80505388Y-141815742D01*
X80448595Y-141858257D01*
X80268666Y-141973891D01*
X80206414Y-142007883D01*
X80011857Y-142096733D01*
X79945388Y-142121524D01*
X79740204Y-142181772D01*
X79670895Y-142196850D01*
X79459183Y-142227291D01*
X79334881Y-142236181D01*
X79227948Y-142240000D01*
X52855028Y-142240000D01*
X52748093Y-142236181D01*
X52623792Y-142227291D01*
X52412081Y-142196850D01*
X52400538Y-142194339D01*
X52342771Y-142181772D01*
X52137587Y-142121524D01*
X52071118Y-142096733D01*
X51876561Y-142007883D01*
X51814309Y-141973891D01*
X51634380Y-141858257D01*
X51577587Y-141815742D01*
X51415955Y-141675687D01*
X51365800Y-141625532D01*
X51225745Y-141463900D01*
X51183230Y-141407107D01*
X51067596Y-141227178D01*
X51033604Y-141164926D01*
X50944754Y-140970369D01*
X50919963Y-140903900D01*
X50859715Y-140698716D01*
X50844635Y-140629394D01*
X50814196Y-140417683D01*
X50805307Y-140293386D01*
X50801488Y-140186459D01*
X50801488Y-116353540D01*
X50805307Y-116246613D01*
X50814196Y-116122316D01*
X50844634Y-115910607D01*
X50859716Y-115841277D01*
X50919963Y-115636099D01*
X50944754Y-115569630D01*
X51033599Y-115375081D01*
X51067602Y-115312811D01*
X51183230Y-115132892D01*
X51225745Y-115076099D01*
X51365793Y-114914474D01*
X51415962Y-114864305D01*
X51577587Y-114724257D01*
X51634380Y-114681742D01*
X51814299Y-114566114D01*
X51876569Y-114532111D01*
X52071113Y-114443267D01*
X52106800Y-114429957D01*
X52137587Y-114418475D01*
X52342765Y-114358228D01*
X52412095Y-114343146D01*
X52623802Y-114312708D01*
X52642163Y-114311395D01*
X52748101Y-114303819D01*
X52855028Y-114300000D01*
X79227948Y-114300000D01*
X79334876Y-114303819D01*
G37*
%TD.AperFunction*%
%TD*%
%TA.AperFunction,Conductor*%
%TO.N,GND*%
G36*
X161291488Y-143510000D02*
G01*
X153671488Y-143510000D01*
X153671488Y-113030000D01*
X161291488Y-113030000D01*
X161291488Y-143510000D01*
G37*
%TD.AperFunction*%
%TD*%
%TA.AperFunction,Conductor*%
%TO.N,GND*%
G36*
X49531488Y-143510000D02*
G01*
X41911488Y-143510000D01*
X41911488Y-113030000D01*
X49531488Y-113030000D01*
X49531488Y-143510000D01*
G37*
%TD.AperFunction*%
%TD*%
%TA.AperFunction,Conductor*%
%TO.N,GND*%
G36*
X153666367Y-96540444D02*
G01*
X153906365Y-96601220D01*
X154133085Y-96700669D01*
X154340345Y-96836078D01*
X154522490Y-97003755D01*
X154674553Y-97199125D01*
X154792384Y-97416859D01*
X154872771Y-97651017D01*
X154913520Y-97895214D01*
X154913520Y-98142786D01*
X154872771Y-98386983D01*
X154792384Y-98621141D01*
X154674553Y-98838875D01*
X154522490Y-99034245D01*
X154354250Y-99190966D01*
X154180783Y-99329300D01*
X153939298Y-99570785D01*
X153726385Y-99837770D01*
X153726384Y-99837772D01*
X153544689Y-100126935D01*
X153396519Y-100434613D01*
X153283726Y-100756956D01*
X153207736Y-101089892D01*
X153207736Y-101089894D01*
X153169500Y-101429249D01*
X153169500Y-101770750D01*
X153207736Y-102110105D01*
X153207736Y-102110107D01*
X153283726Y-102443043D01*
X153396519Y-102765386D01*
X153480518Y-102939810D01*
X153513710Y-103008735D01*
X153544690Y-103073064D01*
X153544689Y-103073064D01*
X153582587Y-103133377D01*
X153726380Y-103362222D01*
X153726384Y-103362227D01*
X153726385Y-103362229D01*
X153939298Y-103629214D01*
X154180785Y-103870701D01*
X154447770Y-104083614D01*
X154447778Y-104083620D01*
X154736935Y-104265310D01*
X155044613Y-104413480D01*
X155044616Y-104413481D01*
X155044618Y-104413482D01*
X155366955Y-104526273D01*
X155699895Y-104602264D01*
X156039249Y-104640500D01*
X156380751Y-104640500D01*
X156720105Y-104602264D01*
X157053045Y-104526273D01*
X157375382Y-104413482D01*
X157683065Y-104265310D01*
X157972222Y-104083620D01*
X158239219Y-103870697D01*
X158480697Y-103629219D01*
X158620522Y-103453884D01*
X158790338Y-103273731D01*
X158987490Y-103123987D01*
X159206600Y-103008735D01*
X159441691Y-102931119D01*
X159686352Y-102893256D01*
X159933907Y-102896180D01*
X160177606Y-102939810D01*
X160410799Y-103022956D01*
X160627126Y-103143351D01*
X160820686Y-103297710D01*
X160986200Y-103481823D01*
X161119153Y-103690667D01*
X161215917Y-103918546D01*
X161273854Y-104159245D01*
X161291488Y-104388494D01*
X161291488Y-113030000D01*
X41911488Y-113030000D01*
X41911488Y-104392226D01*
X41931932Y-104145499D01*
X41992708Y-103905501D01*
X42092157Y-103678781D01*
X42227566Y-103471521D01*
X42395243Y-103289376D01*
X42590613Y-103137313D01*
X42808347Y-103019482D01*
X43042505Y-102939095D01*
X43286702Y-102898346D01*
X43534274Y-102898346D01*
X43778471Y-102939095D01*
X44012629Y-103019482D01*
X44230363Y-103137313D01*
X44425733Y-103289376D01*
X44582449Y-103457610D01*
X44719299Y-103629214D01*
X44719305Y-103629221D01*
X44960785Y-103870701D01*
X45227770Y-104083614D01*
X45227778Y-104083620D01*
X45516935Y-104265310D01*
X45824613Y-104413480D01*
X45824616Y-104413481D01*
X45824618Y-104413482D01*
X46146955Y-104526273D01*
X46479895Y-104602264D01*
X46819249Y-104640500D01*
X47160751Y-104640500D01*
X47500105Y-104602264D01*
X47833045Y-104526273D01*
X48155382Y-104413482D01*
X48463065Y-104265310D01*
X48752222Y-104083620D01*
X49019219Y-103870697D01*
X49260697Y-103629219D01*
X49473620Y-103362222D01*
X49655310Y-103073065D01*
X49803482Y-102765382D01*
X49916273Y-102443045D01*
X49992264Y-102110105D01*
X50030500Y-101770751D01*
X50030500Y-101429249D01*
X49992264Y-101089895D01*
X49916273Y-100756955D01*
X49803482Y-100434618D01*
X49655310Y-100126935D01*
X49473620Y-99837778D01*
X49473614Y-99837770D01*
X49260701Y-99570785D01*
X49019216Y-99329300D01*
X48845750Y-99190966D01*
X48665597Y-99021150D01*
X48515853Y-98823998D01*
X48400600Y-98604888D01*
X48322985Y-98369796D01*
X48285122Y-98125136D01*
X48288046Y-97877580D01*
X48331676Y-97633882D01*
X48414823Y-97400689D01*
X48535217Y-97184362D01*
X48689576Y-96990802D01*
X48873689Y-96825288D01*
X49082534Y-96692335D01*
X49310413Y-96595571D01*
X49551111Y-96537634D01*
X49780360Y-96520000D01*
X153419640Y-96520000D01*
X153666367Y-96540444D01*
G37*
%TD.AperFunction*%
%TD*%
%TA.AperFunction,Conductor*%
%TO.N,VDD*%
G36*
X150419258Y-114301271D02*
G01*
X150478462Y-114305505D01*
X150650525Y-114317811D01*
X150720994Y-114327943D01*
X150930080Y-114373427D01*
X150998380Y-114393481D01*
X151198883Y-114468265D01*
X151263639Y-114497839D01*
X151451453Y-114600393D01*
X151511334Y-114638876D01*
X151682645Y-114767118D01*
X151736443Y-114813735D01*
X151887752Y-114965044D01*
X151934370Y-115018843D01*
X152062608Y-115190149D01*
X152101097Y-115250038D01*
X152203647Y-115437845D01*
X152233223Y-115502607D01*
X152308003Y-115703099D01*
X152328061Y-115771413D01*
X152373543Y-115980492D01*
X152383676Y-116050961D01*
X152400217Y-116282226D01*
X152401488Y-116317826D01*
X152401488Y-140222173D01*
X152400217Y-140257770D01*
X152400217Y-140257773D01*
X152383676Y-140489038D01*
X152373543Y-140559507D01*
X152328061Y-140768586D01*
X152308003Y-140836900D01*
X152233223Y-141037392D01*
X152203647Y-141102154D01*
X152101097Y-141289961D01*
X152062604Y-141349857D01*
X151934375Y-141521150D01*
X151887752Y-141574955D01*
X151736443Y-141726264D01*
X151682638Y-141772887D01*
X151511345Y-141901116D01*
X151451449Y-141939609D01*
X151263642Y-142042159D01*
X151198880Y-142071735D01*
X150998388Y-142146515D01*
X150930074Y-142166573D01*
X150720995Y-142212055D01*
X150650526Y-142222188D01*
X150465042Y-142235454D01*
X150419257Y-142238729D01*
X150383661Y-142240000D01*
X90919315Y-142240000D01*
X90883717Y-142238729D01*
X90858582Y-142236931D01*
X90652450Y-142222188D01*
X90581980Y-142212055D01*
X90372901Y-142166573D01*
X90304587Y-142146515D01*
X90104095Y-142071735D01*
X90039333Y-142042159D01*
X89851526Y-141939609D01*
X89791637Y-141901120D01*
X89620331Y-141772882D01*
X89566532Y-141726264D01*
X89415223Y-141574955D01*
X89368606Y-141521157D01*
X89240364Y-141349846D01*
X89201878Y-141289961D01*
X89099328Y-141102154D01*
X89069752Y-141037392D01*
X88994969Y-140836892D01*
X88974915Y-140768592D01*
X88929431Y-140559506D01*
X88919299Y-140489035D01*
X88902759Y-140257770D01*
X88901488Y-140222173D01*
X88901488Y-116317826D01*
X88902759Y-116282229D01*
X88919299Y-116050964D01*
X88929432Y-115980492D01*
X88974916Y-115771403D01*
X88994968Y-115703111D01*
X89069755Y-115502599D01*
X89099324Y-115437853D01*
X89201884Y-115250027D01*
X89240359Y-115190159D01*
X89368612Y-115018834D01*
X89415216Y-114965051D01*
X89566539Y-114813728D01*
X89620322Y-114767124D01*
X89791647Y-114638871D01*
X89851515Y-114600396D01*
X90039341Y-114497836D01*
X90104087Y-114468267D01*
X90304599Y-114393480D01*
X90372891Y-114373428D01*
X90581983Y-114327943D01*
X90652448Y-114317811D01*
X90836356Y-114304658D01*
X90883718Y-114301271D01*
X90919315Y-114300000D01*
X150383661Y-114300000D01*
X150419258Y-114301271D01*
G37*
%TD.AperFunction*%
%TD*%
%TA.AperFunction,Conductor*%
%TO.N,GND*%
G36*
X161291488Y-152149639D02*
G01*
X161271044Y-152396366D01*
X161210268Y-152636364D01*
X161110819Y-152863084D01*
X160975410Y-153070344D01*
X160807733Y-153252489D01*
X160612363Y-153404552D01*
X160394629Y-153522383D01*
X160160471Y-153602770D01*
X159916274Y-153643519D01*
X159668702Y-153643519D01*
X159424505Y-153602770D01*
X159190347Y-153522383D01*
X158972613Y-153404552D01*
X158777243Y-153252489D01*
X158620524Y-153084252D01*
X158482185Y-152910781D01*
X158240702Y-152669298D01*
X157973717Y-152456385D01*
X157973715Y-152456384D01*
X157973710Y-152456380D01*
X157771929Y-152329592D01*
X157684552Y-152274689D01*
X157376874Y-152126519D01*
X157054531Y-152013726D01*
X156721594Y-151937736D01*
X156382239Y-151899500D01*
X156040737Y-151899500D01*
X155701382Y-151937736D01*
X155701380Y-151937736D01*
X155368444Y-152013726D01*
X155046101Y-152126519D01*
X154738423Y-152274689D01*
X154449260Y-152456384D01*
X154449258Y-152456385D01*
X154182273Y-152669298D01*
X153940786Y-152910785D01*
X153727873Y-153177770D01*
X153727872Y-153177772D01*
X153546177Y-153466935D01*
X153398007Y-153774613D01*
X153285214Y-154096956D01*
X153209224Y-154429892D01*
X153209224Y-154429894D01*
X153170988Y-154769249D01*
X153170988Y-155110750D01*
X153209224Y-155450105D01*
X153209224Y-155450107D01*
X153285214Y-155783043D01*
X153398007Y-156105386D01*
X153546178Y-156413064D01*
X153546177Y-156413064D01*
X153546178Y-156413065D01*
X153727868Y-156702222D01*
X153727872Y-156702227D01*
X153727873Y-156702229D01*
X153940786Y-156969214D01*
X154182271Y-157210699D01*
X154355738Y-157349034D01*
X154535891Y-157518850D01*
X154685635Y-157716002D01*
X154800888Y-157935112D01*
X154878503Y-158170204D01*
X154916366Y-158414864D01*
X154913442Y-158662420D01*
X154869812Y-158906118D01*
X154786665Y-159139311D01*
X154666271Y-159355638D01*
X154511912Y-159549198D01*
X154327799Y-159714712D01*
X154118954Y-159847665D01*
X153891075Y-159944429D01*
X153650377Y-160002366D01*
X153421128Y-160020000D01*
X49781848Y-160020000D01*
X49535121Y-159999556D01*
X49295123Y-159938780D01*
X49068403Y-159839331D01*
X48861143Y-159703922D01*
X48678998Y-159536245D01*
X48526935Y-159340875D01*
X48409104Y-159123141D01*
X48328717Y-158888983D01*
X48287968Y-158644786D01*
X48287968Y-158397214D01*
X48328717Y-158153017D01*
X48409104Y-157918859D01*
X48526935Y-157701125D01*
X48678998Y-157505755D01*
X48847238Y-157349034D01*
X49020704Y-157210699D01*
X49020707Y-157210697D01*
X49262185Y-156969219D01*
X49475108Y-156702222D01*
X49656798Y-156413065D01*
X49804970Y-156105382D01*
X49917761Y-155783045D01*
X49993752Y-155450105D01*
X50031988Y-155110751D01*
X50031988Y-154769249D01*
X49993752Y-154429895D01*
X49917761Y-154096955D01*
X49804970Y-153774618D01*
X49656798Y-153466935D01*
X49475108Y-153177778D01*
X49475102Y-153177770D01*
X49262189Y-152910785D01*
X49020702Y-152669298D01*
X48753717Y-152456385D01*
X48753715Y-152456384D01*
X48753710Y-152456380D01*
X48551929Y-152329592D01*
X48464552Y-152274689D01*
X48156874Y-152126519D01*
X47834531Y-152013726D01*
X47501594Y-151937736D01*
X47162239Y-151899500D01*
X46820737Y-151899500D01*
X46481382Y-151937736D01*
X46481380Y-151937736D01*
X46148444Y-152013726D01*
X45826101Y-152126519D01*
X45518423Y-152274689D01*
X45229260Y-152456384D01*
X45229258Y-152456385D01*
X44962273Y-152669298D01*
X44720790Y-152910781D01*
X44582452Y-153084252D01*
X44412635Y-153264404D01*
X44215483Y-153414148D01*
X43996373Y-153529400D01*
X43761281Y-153607015D01*
X43516620Y-153644877D01*
X43269065Y-153641953D01*
X43025367Y-153598322D01*
X42792174Y-153515175D01*
X42575847Y-153394780D01*
X42382287Y-153240420D01*
X42216774Y-153056307D01*
X42083822Y-152847462D01*
X41987058Y-152619583D01*
X41929121Y-152378885D01*
X41911488Y-152149639D01*
X41911488Y-143510000D01*
X161291488Y-143510000D01*
X161291488Y-152149639D01*
G37*
%TD.AperFunction*%
%TD*%
D15*
X40641488Y-95250000D02*
X162561488Y-95250000D01*
X162561488Y-161290000D01*
X40641488Y-161290000D01*
X40641488Y-95250000D01*
X49530000Y-101600000D02*
G75*
G02*
X44450000Y-101600000I-2540000J0D01*
G01*
X44450000Y-101600000D02*
G75*
G02*
X49530000Y-101600000I2540000J0D01*
G01*
X49531488Y-154940000D02*
G75*
G02*
X44451488Y-154940000I-2540000J0D01*
G01*
X44451488Y-154940000D02*
G75*
G02*
X49531488Y-154940000I2540000J0D01*
G01*
X158750000Y-101600000D02*
G75*
G02*
X153670000Y-101600000I-2540000J0D01*
G01*
X153670000Y-101600000D02*
G75*
G02*
X158750000Y-101600000I2540000J0D01*
G01*
X158751488Y-154940000D02*
G75*
G02*
X153671488Y-154940000I-2540000J0D01*
G01*
X153671488Y-154940000D02*
G75*
G02*
X158751488Y-154940000I2540000J0D01*
G01*
M02*
