<?xml version="1.0" standalone="no"?>
 <!DOCTYPE svg PUBLIC "-//W3C//DTD SVG 1.1//EN" 
 "http://www.w3.org/Graphics/SVG/1.1/DTD/svg11.dtd"> 
<svg xmlns="http://www.w3.org/2000/svg" version="1.1" 
    width="41.9989cm" height="29.7002cm" viewBox="0 0 165350 116930 ">
<title>SVG Picture created as selector_rid_ground-F_Mask.svg date 2015/06/17 18:06:59 </title>
  <desc>Picture generated by PCBNEW </desc>
<g style="fill:#000000; fill-opacity:1;stroke:#000000; stroke-opacity:1;
stroke-linecap:round; stroke-linejoin:round; "
 transform="translate(0 0) scale(1 1)">
</g>
<g style="fill:#000000; fill-opacity:0.0; 
stroke:#000000; stroke-width:39.3701; stroke-opacity:1; 
stroke-linecap:round; stroke-linejoin:round;">
<circle cx="20000" cy="37500" r="500" /> 
<circle cx="35000" cy="35750" r="500" /> 
<circle cx="35000" cy="48750" r="500" /> 
<circle cx="20000" cy="48750" r="500" /> 
<circle cx="64750" cy="42500" r="500" /> 
<circle cx="55750" cy="52250" r="500" /> 
<circle cx="49250" cy="37250" r="500" /> 
<circle cx="51250" cy="46250" r="500" /> 
<circle cx="81250" cy="53500" r="500" /> 
<circle cx="69250" cy="53750" r="500" /> 
<circle cx="72250" cy="29500" r="500" /> 
<circle cx="60000" cy="29500" r="500" /> 
<circle cx="47500" cy="29500" r="500" /> 
<circle cx="86500" cy="34250" r="500" /> 
</g>
<g style="fill:#000000; fill-opacity:1.0; 
stroke:#000000; stroke-width:59.0551; stroke-opacity:1; 
stroke-linecap:round; stroke-linejoin:round;">
<polyline style="fill-rule:evenodd;"
points="21129,35717
21128,35793
21110,35874
21083,35934
21035,36002
20988,36047
20917,36092
20856,36115
20774,36130
20709,36128
20627,36110
20568,36084
20499,36037
20454,35990
20408,35919
20385,35859
20369,35776
20370,35712
20388,35629
20413,35570
20461,35501
20507,35456
20578,35409
20637,35385
20720,35369
20784,35370
20867,35387
20926,35412
20997,35459
21041,35504
21089,35576
21113,35634
21129,35717
" /> 
<polyline style="fill-rule:evenodd;"
points="22543,37323
22542,37394
22525,37469
22500,37525
22455,37589
22411,37631
22345,37673
22289,37695
22212,37708
22151,37707
22074,37690
22019,37666
21955,37621
21913,37578
21870,37511
21848,37456
21834,37378
21835,37318
21851,37241
21874,37186
21919,37120
21962,37079
22029,37035
22083,37013
22162,36998
22221,36998
22299,37015
22353,37037
22420,37082
22461,37124
22506,37191
22528,37245
22543,37323
" /> 
<polyline style="fill-rule:evenodd;"
points="22566,40517
22566,40522
22564,40532
22564,40532
22558,40593
22558,40594
22557,40594
22539,40652
22509,40707
22470,40753
22421,40792
22368,40820
22308,40838
22248,40843
22186,40837
22128,40819
22073,40789
22026,40750
21987,40702
21958,40648
21941,40589
21933,40517
21933,39982
21933,39977
21935,39967
21935,39967
21941,39906
21941,39905
21942,39905
21960,39847
21990,39792
22029,39746
22078,39707
22131,39679
22191,39661
22251,39656
22313,39662
22371,39680
22426,39710
22473,39749
22512,39797
22541,39851
22558,39910
22566,39982
22566,40517
" /> 
<polyline style="fill-rule:evenodd;"
points="22566,43517
22566,43522
22564,43532
22564,43532
22558,43593
22558,43594
22557,43594
22539,43652
22509,43707
22470,43753
22421,43792
22368,43820
22308,43838
22248,43843
22186,43837
22128,43819
22073,43789
22026,43750
21987,43702
21958,43648
21941,43589
21933,43517
21933,42982
21933,42977
21935,42967
21935,42967
21941,42906
21941,42905
21942,42905
21960,42847
21990,42792
22029,42746
22078,42707
22131,42679
22191,42661
22251,42656
22313,42662
22371,42680
22426,42710
22473,42749
22512,42797
22541,42851
22558,42910
22566,42982
22566,43517
" /> 
<polyline style="fill-rule:evenodd;"
points="22829,45697
22827,45818
22800,45937
22758,46033
22687,46133
22611,46205
22508,46271
22410,46309
22290,46330
22185,46328
22065,46302
21970,46260
21869,46190
21796,46115
21730,46011
21691,45915
21669,45793
21671,45690
21696,45569
21737,45474
21807,45371
21881,45299
21985,45231
22080,45193
22202,45169
22305,45170
22427,45195
22522,45235
22625,45305
22697,45377
22766,45481
22805,45576
22829,45697
" /> 
<polyline style="fill-rule:evenodd;"
points="23566,40517
23566,40522
23564,40532
23564,40532
23558,40593
23558,40594
23557,40594
23539,40652
23509,40707
23470,40753
23421,40792
23368,40820
23308,40838
23248,40843
23186,40837
23128,40819
23073,40789
23026,40750
22987,40702
22958,40648
22941,40589
22933,40517
22933,39982
22933,39977
22935,39967
22935,39967
22941,39906
22941,39905
22942,39905
22960,39847
22990,39792
23029,39746
23078,39707
23131,39679
23191,39661
23251,39656
23313,39662
23371,39680
23426,39710
23473,39749
23512,39797
23541,39851
23558,39910
23566,39982
23566,40517
" /> 
<polyline style="fill-rule:evenodd;"
points="23604,37323
23603,37394
23586,37469
23561,37525
23516,37589
23472,37631
23406,37673
23350,37695
23272,37708
23212,37707
23135,37690
23080,37666
23015,37621
22974,37578
22931,37511
22909,37456
22894,37378
22895,37318
22912,37241
22935,37186
22980,37120
23022,37079
23089,37035
23144,37013
23223,36998
23281,36998
23360,37015
23414,37037
23481,37082
23522,37124
23567,37191
23589,37245
23604,37323
" /> 
<polyline style="fill-rule:evenodd;"
points="24604,38969
24603,39040
24586,39116
24561,39172
24516,39235
24472,39277
24406,39319
24350,39341
24272,39355
24212,39353
24135,39337
24080,39312
24015,39267
23974,39224
23931,39158
23909,39102
23894,39024
23895,38965
23912,38887
23935,38832
23980,38767
24022,38725
24089,38682
24144,38660
24223,38644
24281,38645
24360,38661
24414,38684
24481,38729
24522,38770
24567,38837
24589,38891
24604,38969
" /> 
<polyline style="fill-rule:evenodd;"
points="24665,37323
24664,37394
24647,37469
24622,37525
24577,37589
24533,37631
24467,37673
24410,37695
24333,37708
24273,37707
24196,37690
24141,37666
24076,37621
24034,37578
23991,37511
23969,37456
23955,37378
23956,37318
23972,37241
23996,37186
24041,37120
24083,37079
24150,37035
24205,37013
24283,36998
24342,36998
24421,37015
24475,37037
24541,37082
24582,37124
24627,37191
24649,37245
24665,37323
" /> 
<polyline style="fill-rule:evenodd;"
points="24829,45697
24827,45818
24800,45937
24758,46033
24687,46133
24611,46205
24508,46271
24410,46309
24290,46330
24185,46328
24065,46302
23970,46260
23869,46190
23796,46115
23730,46011
23691,45915
23669,45793
23671,45690
23696,45569
23737,45474
23807,45371
23881,45299
23985,45231
24080,45193
24202,45169
24305,45170
24427,45195
24522,45235
24625,45305
24697,45377
24766,45481
24805,45576
24829,45697
" /> 
<polyline style="fill-rule:evenodd;"
points="25129,35717
25128,35793
25110,35874
25083,35934
25035,36002
24988,36047
24917,36092
24856,36115
24774,36130
24709,36128
24627,36110
24568,36084
24499,36037
24454,35990
24408,35919
24385,35859
24369,35776
24370,35712
24388,35629
24413,35570
24461,35501
24507,35456
24578,35409
24637,35385
24720,35369
24784,35370
24867,35387
24926,35412
24997,35459
25041,35504
25089,35576
25113,35634
25129,35717
" /> 
<polyline style="fill-rule:evenodd;"
points="26829,45697
26827,45818
26800,45937
26758,46033
26687,46133
26611,46205
26508,46271
26410,46309
26290,46330
26185,46328
26065,46302
25970,46260
25869,46190
25796,46115
25730,46011
25691,45915
25669,45793
25671,45690
25696,45569
25737,45474
25807,45371
25881,45299
25985,45231
26080,45193
26202,45169
26305,45170
26427,45195
26522,45235
26625,45305
26697,45377
26766,45481
26805,45576
26829,45697
" /> 
<polyline style="fill-rule:evenodd;"
points="26843,35752
26835,35829
26813,35902
26776,35970
26727,36029
26667,36078
26600,36113
26526,36136
26438,36144
26061,36144
26055,36144
26045,36143
26044,36143
25968,36135
25968,36135
25967,36134
25895,36112
25827,36074
25769,36025
25720,35965
25685,35897
25663,35823
25656,35747
25664,35670
25686,35597
25723,35529
25772,35470
25832,35421
25899,35386
25973,35363
26061,35355
26438,35355
26444,35355
26454,35356
26455,35356
26531,35364
26531,35364
26532,35365
26604,35387
26672,35425
26730,35474
26779,35534
26814,35602
26836,35676
26843,35752
" /> 
<polyline style="fill-rule:evenodd;"
points="26843,36752
26835,36829
26813,36902
26776,36970
26727,37029
26667,37078
26600,37113
26526,37136
26438,37144
26061,37144
26055,37144
26045,37143
26044,37143
25968,37135
25968,37135
25967,37134
25895,37112
25827,37074
25769,37025
25720,36965
25685,36897
25663,36823
25656,36747
25664,36670
25686,36597
25723,36529
25772,36470
25832,36421
25899,36386
25973,36363
26061,36355
26438,36355
26444,36355
26454,36356
26455,36356
26531,36364
26531,36364
26532,36365
26604,36387
26672,36425
26730,36474
26779,36534
26814,36602
26836,36676
26843,36752
" /> 
<polyline style="fill-rule:evenodd;"
points="26843,37752
26835,37829
26813,37902
26776,37970
26727,38029
26667,38078
26600,38113
26526,38136
26438,38144
26061,38144
26055,38144
26045,38143
26044,38143
25968,38135
25968,38135
25967,38134
25895,38112
25827,38074
25769,38025
25720,37965
25685,37897
25663,37823
25656,37747
25664,37670
25686,37597
25723,37529
25772,37470
25832,37421
25899,37386
25973,37363
26061,37355
26438,37355
26444,37355
26454,37356
26455,37356
26531,37364
26531,37364
26532,37365
26604,37387
26672,37425
26730,37474
26779,37534
26814,37602
26836,37676
26843,37752
" /> 
<polyline style="fill-rule:evenodd;"
points="27566,40517
27566,40522
27564,40532
27564,40532
27558,40593
27558,40594
27557,40594
27539,40652
27509,40707
27470,40753
27421,40792
27368,40820
27308,40838
27248,40843
27186,40837
27128,40819
27073,40789
27026,40750
26987,40702
26958,40648
26941,40589
26933,40517
26933,39982
26933,39977
26935,39967
26935,39967
26941,39906
26941,39905
26942,39905
26960,39847
26990,39792
27029,39746
27078,39707
27131,39679
27191,39661
27251,39656
27313,39662
27371,39680
27426,39710
27473,39749
27512,39797
27541,39851
27558,39910
27566,39982
27566,40517
" /> 
<polyline style="fill-rule:evenodd;"
points="27604,39354
26895,39354
26895,38645
27604,38645
27604,39354
" /> 
<polyline style="fill-rule:evenodd;"
points="28566,40517
28566,40522
28564,40532
28564,40532
28558,40593
28558,40594
28557,40594
28539,40652
28509,40707
28470,40753
28421,40792
28368,40820
28308,40838
28248,40843
28186,40837
28128,40819
28073,40789
28026,40750
27987,40702
27958,40648
27941,40589
27933,40517
27933,39982
27933,39977
27935,39967
27935,39967
27941,39906
27941,39905
27942,39905
27960,39847
27990,39792
28029,39746
28078,39707
28131,39679
28191,39661
28251,39656
28313,39662
28371,39680
28426,39710
28473,39749
28512,39797
28541,39851
28558,39910
28566,39982
28566,40517
" /> 
<polyline style="fill-rule:evenodd;"
points="28566,43517
28566,43522
28564,43532
28564,43532
28558,43593
28558,43594
28557,43594
28539,43652
28509,43707
28470,43753
28421,43792
28368,43820
28308,43838
28248,43843
28186,43837
28128,43819
28073,43789
28026,43750
27987,43702
27958,43648
27941,43589
27933,43517
27933,42982
27933,42977
27935,42967
27935,42967
27941,42906
27941,42905
27942,42905
27960,42847
27990,42792
28029,42746
28078,42707
28131,42679
28191,42661
28251,42656
28313,42662
28371,42680
28426,42710
28473,42749
28512,42797
28541,42851
28558,42910
28566,42982
28566,43517
" /> 
<polyline style="fill-rule:evenodd;"
points="28604,36219
28603,36290
28586,36366
28561,36422
28516,36485
28472,36527
28406,36569
28350,36591
28272,36605
28212,36603
28135,36587
28080,36562
28015,36517
27974,36474
27931,36408
27909,36352
27894,36274
27895,36215
27912,36137
27935,36082
27980,36017
28022,35975
28089,35932
28144,35910
28223,35894
28281,35895
28360,35911
28414,35934
28481,35979
28522,36020
28567,36087
28589,36141
28604,36219
" /> 
<polyline style="fill-rule:evenodd;"
points="28604,37604
27895,37604
27895,36895
28604,36895
28604,37604
" /> 
<polyline style="fill-rule:evenodd;"
points="29329,46947
29327,47068
29300,47187
29258,47283
29187,47383
29111,47455
29008,47521
28910,47559
28790,47580
28685,47578
28565,47552
28470,47510
28369,47440
28296,47365
28230,47261
28191,47165
28169,47043
28171,46940
28196,46819
28237,46724
28307,46621
28381,46549
28485,46481
28580,46443
28702,46419
28805,46420
28927,46445
29022,46485
29125,46555
29197,46627
29266,46731
29305,46826
29329,46947
" /> 
<polyline style="fill-rule:evenodd;"
points="29629,44467
29628,44543
29610,44624
29583,44684
29535,44752
29488,44797
29417,44842
29356,44865
29274,44880
29209,44878
29127,44860
29068,44834
28999,44787
28954,44740
28908,44669
28885,44609
28869,44526
28870,44462
28888,44379
28913,44320
28961,44251
29007,44206
29078,44159
29137,44135
29220,44119
29284,44120
29367,44137
29426,44162
29497,44209
29541,44254
29589,44326
29613,44384
29629,44467
" /> 
<polyline style="fill-rule:evenodd;"
points="31329,46947
31327,47068
31300,47187
31258,47283
31187,47383
31111,47455
31008,47521
30910,47559
30790,47580
30685,47578
30565,47552
30470,47510
30369,47440
30296,47365
30230,47261
30191,47165
30169,47043
30171,46940
30196,46819
30237,46724
30307,46621
30381,46549
30485,46481
30580,46443
30702,46419
30805,46420
30927,46445
31022,46485
31125,46555
31197,46627
31266,46731
31305,46826
31329,46947
" /> 
<polyline style="fill-rule:evenodd;"
points="31879,38467
31878,38543
31860,38624
31833,38684
31785,38752
31738,38797
31667,38842
31606,38865
31524,38880
31459,38878
31377,38860
31318,38834
31249,38787
31204,38740
31158,38669
31135,38609
31119,38526
31120,38462
31138,38379
31163,38320
31211,38251
31257,38206
31328,38159
31387,38135
31470,38119
31534,38120
31617,38137
31676,38162
31747,38209
31791,38254
31839,38326
31863,38384
31879,38467
" /> 
<polyline style="fill-rule:evenodd;"
points="31879,42467
31878,42543
31860,42624
31833,42684
31785,42752
31738,42797
31667,42842
31606,42865
31524,42880
31459,42878
31377,42860
31318,42834
31249,42787
31204,42740
31158,42669
31135,42609
31119,42526
31120,42462
31138,42379
31163,42320
31211,42251
31257,42206
31328,42159
31387,42135
31470,42119
31534,42120
31617,42137
31676,42162
31747,42209
31791,42254
31839,42326
31863,42384
31879,42467
" /> 
<polyline style="fill-rule:evenodd;"
points="33329,46947
33327,47068
33300,47187
33258,47283
33187,47383
33111,47455
33008,47521
32910,47559
32790,47580
32685,47578
32565,47552
32470,47510
32369,47440
32296,47365
32230,47261
32191,47165
32169,47043
32171,46940
32196,46819
32237,46724
32307,46621
32381,46549
32485,46481
32580,46443
32702,46419
32805,46420
32927,46445
33022,46485
33125,46555
33197,46627
33266,46731
33305,46826
33329,46947
" /> 
<polyline style="fill-rule:evenodd;"
points="33629,44467
33628,44543
33610,44624
33583,44684
33535,44752
33488,44797
33417,44842
33356,44865
33274,44880
33209,44878
33127,44860
33068,44834
32999,44787
32954,44740
32908,44669
32885,44609
32869,44526
32870,44462
32888,44379
32913,44320
32961,44251
33007,44206
33078,44159
33137,44135
33220,44119
33284,44120
33367,44137
33426,44162
33497,44209
33541,44254
33589,44326
33613,44384
33629,44467
" /> 
<polyline style="fill-rule:evenodd;"
points="34829,38447
34827,38568
34800,38687
34758,38783
34687,38883
34611,38955
34508,39021
34410,39059
34290,39080
34185,39078
34065,39052
33970,39010
33869,38940
33796,38865
33730,38761
33691,38665
33669,38543
33671,38440
33696,38319
33737,38224
33807,38121
33881,38049
33985,37981
34080,37943
34202,37919
34305,37920
34427,37945
34522,37985
34625,38055
34697,38127
34766,38231
34805,38326
34829,38447
" /> 
<polyline style="fill-rule:evenodd;"
points="34829,40447
34827,40568
34800,40687
34758,40783
34687,40883
34611,40955
34508,41021
34410,41059
34290,41080
34185,41078
34065,41052
33970,41010
33869,40940
33796,40865
33730,40761
33691,40665
33669,40543
33671,40440
33696,40319
33737,40224
33807,40121
33881,40049
33985,39981
34080,39943
34202,39919
34305,39920
34427,39945
34522,39985
34625,40055
34697,40127
34766,40231
34805,40326
34829,40447
" /> 
<polyline style="fill-rule:evenodd;"
points="34829,42447
34827,42568
34800,42687
34758,42783
34687,42883
34611,42955
34508,43021
34410,43059
34290,43080
34185,43078
34065,43052
33970,43010
33869,42940
33796,42865
33730,42761
33691,42665
33669,42543
33671,42440
33696,42319
33737,42224
33807,42121
33881,42049
33985,41981
34080,41943
34202,41919
34305,41920
34427,41945
34522,41985
34625,42055
34697,42127
34766,42231
34805,42326
34829,42447
" /> 
<polyline style="fill-rule:evenodd;"
points="48125,32875
47374,32875
47374,32124
48125,32124
48125,32875
" /> 
<polyline style="fill-rule:evenodd;"
points="49579,39947
49577,40068
49550,40187
49508,40283
49437,40383
49361,40455
49258,40521
49160,40559
49040,40580
48935,40578
48815,40552
48720,40510
48619,40440
48546,40365
48480,40261
48441,40165
48419,40043
48421,39940
48446,39819
48487,39724
48557,39621
48631,39549
48735,39481
48830,39443
48952,39419
49055,39420
49177,39445
49272,39485
49375,39555
49447,39627
49516,39731
49555,39826
49579,39947
" /> 
<polyline style="fill-rule:evenodd;"
points="49579,41947
49577,42068
49550,42187
49508,42283
49437,42383
49361,42455
49258,42521
49160,42559
49040,42580
48935,42578
48815,42552
48720,42510
48619,42440
48546,42365
48480,42261
48441,42165
48419,42043
48421,41940
48446,41819
48487,41724
48557,41621
48631,41549
48735,41481
48830,41443
48952,41419
49055,41420
49177,41445
49272,41485
49375,41555
49447,41627
49516,41731
49555,41826
49579,41947
" /> 
<polyline style="fill-rule:evenodd;"
points="49579,43947
49577,44068
49550,44187
49508,44283
49437,44383
49361,44455
49258,44521
49160,44559
49040,44580
48935,44578
48815,44552
48720,44510
48619,44440
48546,44365
48480,44261
48441,44165
48419,44043
48421,43940
48446,43819
48487,43724
48557,43621
48631,43549
48735,43481
48830,43443
48952,43419
49055,43420
49177,43445
49272,43485
49375,43555
49447,43627
49516,43731
49555,43826
49579,43947
" /> 
<polyline style="fill-rule:evenodd;"
points="50829,29697
50827,29818
50800,29937
50758,30033
50687,30133
50611,30205
50508,30271
50410,30309
50290,30330
50185,30328
50065,30302
49970,30260
49869,30190
49796,30115
49730,30011
49691,29915
49669,29793
49671,29690
49696,29569
49737,29474
49807,29371
49881,29299
49985,29231
50080,29193
50202,29169
50305,29170
50427,29195
50522,29235
50625,29305
50697,29377
50766,29481
50805,29576
50829,29697
" /> 
<polyline style="fill-rule:evenodd;"
points="51854,37969
51853,38040
51836,38116
51811,38172
51766,38235
51722,38277
51656,38319
51600,38341
51522,38355
51462,38353
51385,38337
51330,38312
51265,38267
51224,38224
51181,38158
51159,38102
51144,38024
51145,37965
51162,37887
51185,37832
51230,37767
51272,37725
51339,37682
51394,37660
51473,37644
51531,37645
51610,37661
51664,37684
51731,37729
51772,37770
51817,37837
51839,37891
51854,37969
" /> 
<polyline style="fill-rule:evenodd;"
points="51854,35354
51145,35354
51145,34645
51854,34645
51854,35354
" /> 
<polyline style="fill-rule:evenodd;"
points="52829,29697
52827,29818
52800,29937
52758,30033
52687,30133
52611,30205
52508,30271
52410,30309
52290,30330
52185,30328
52065,30302
51970,30260
51869,30190
51796,30115
51730,30011
51691,29915
51669,29793
51671,29690
51696,29569
51737,29474
51807,29371
51881,29299
51985,29231
52080,29193
52202,29169
52305,29170
52427,29195
52522,29235
52625,29305
52697,29377
52766,29481
52805,29576
52829,29697
" /> 
<polyline style="fill-rule:evenodd;"
points="53104,34002
53103,34006
53103,34006
53096,34075
53095,34075
53095,34076
53075,34140
53041,34202
52997,34254
52943,34298
52882,34329
52815,34349
52747,34355
52678,34348
52613,34328
52551,34295
52499,34251
52455,34197
52422,34136
52402,34070
52395,33997
52396,33993
52396,33993
52403,33924
52404,33924
52404,33923
52424,33859
52458,33797
52502,33745
52556,33701
52617,33670
52684,33650
52752,33644
52821,33651
52886,33671
52948,33704
53000,33748
53044,33802
53077,33863
53097,33929
53104,34002
" /> 
<polyline style="fill-rule:evenodd;"
points="53104,34969
53103,35040
53086,35116
53061,35172
53016,35235
52972,35277
52906,35319
52850,35341
52772,35355
52712,35353
52635,35337
52580,35312
52515,35267
52474,35224
52431,35158
52409,35102
52394,35024
52395,34965
52412,34887
52435,34832
52480,34767
52522,34725
52589,34682
52644,34660
52723,34644
52781,34645
52860,34661
52914,34684
52981,34729
53022,34770
53067,34837
53089,34891
53104,34969
" /> 
<polyline style="fill-rule:evenodd;"
points="53104,38969
53103,39040
53086,39116
53061,39172
53016,39235
52972,39277
52906,39319
52850,39341
52772,39355
52712,39353
52635,39337
52580,39312
52515,39267
52474,39224
52431,39158
52409,39102
52394,39024
52395,38965
52412,38887
52435,38832
52480,38767
52522,38725
52589,38682
52644,38660
52723,38644
52781,38645
52860,38661
52914,38684
52981,38729
53022,38770
53067,38837
53089,38891
53104,38969
" /> 
<polyline style="fill-rule:evenodd;"
points="53104,39969
53103,40040
53086,40116
53061,40172
53016,40235
52972,40277
52906,40319
52850,40341
52772,40355
52712,40353
52635,40337
52580,40312
52515,40267
52474,40224
52431,40158
52409,40102
52394,40024
52395,39965
52412,39887
52435,39832
52480,39767
52522,39725
52589,39682
52644,39660
52723,39644
52781,39645
52860,39661
52914,39684
52981,39729
53022,39770
53067,39837
53089,39891
53104,39969
" /> 
<polyline style="fill-rule:evenodd;"
points="53104,43219
53103,43290
53086,43366
53061,43422
53016,43485
52972,43527
52906,43569
52850,43591
52772,43605
52712,43603
52635,43587
52580,43562
52515,43517
52474,43474
52431,43408
52409,43352
52394,43274
52395,43215
52412,43137
52435,43082
52480,43017
52522,42975
52589,42932
52644,42910
52723,42894
52781,42895
52860,42911
52914,42934
52981,42979
53022,43020
53067,43087
53089,43141
53104,43219
" /> 
<polyline style="fill-rule:evenodd;"
points="53104,49219
53103,49290
53086,49366
53061,49422
53016,49485
52972,49527
52906,49569
52850,49591
52772,49605
52712,49603
52635,49587
52580,49562
52515,49517
52474,49474
52431,49408
52409,49352
52394,49274
52395,49215
52412,49137
52435,49082
52480,49017
52522,48975
52589,48932
52644,48910
52723,48894
52781,48895
52860,48911
52914,48934
52981,48979
53022,49020
53067,49087
53089,49141
53104,49219
" /> 
<polyline style="fill-rule:evenodd;"
points="53124,32467
53123,32543
53105,32622
53079,32682
53031,32749
52985,32793
52915,32837
52855,32861
52774,32875
52709,32874
52629,32856
52570,32830
52502,32783
52458,32737
52413,32667
52389,32608
52374,32526
52375,32463
52392,32381
52417,32323
52465,32254
52510,32209
52580,32164
52638,32140
52721,32124
52783,32125
52866,32142
52924,32166
52994,32213
53038,32257
53085,32328
53108,32385
53124,32467
" /> 
<polyline style="fill-rule:evenodd;"
points="54829,29697
54827,29818
54800,29937
54758,30033
54687,30133
54611,30205
54508,30271
54410,30309
54290,30330
54185,30328
54065,30302
53970,30260
53869,30190
53796,30115
53730,30011
53691,29915
53669,29793
53671,29690
53696,29569
53737,29474
53807,29371
53881,29299
53985,29231
54080,29193
54202,29169
54305,29170
54427,29195
54522,29235
54625,29305
54697,29377
54766,29481
54805,29576
54829,29697
" /> 
<polyline style="fill-rule:evenodd;"
points="56104,49252
56103,49256
56103,49256
56096,49325
56095,49325
56095,49326
56075,49390
56041,49452
55997,49504
55943,49548
55882,49579
55815,49599
55747,49605
55678,49598
55613,49578
55551,49545
55499,49501
55455,49447
55422,49386
55402,49320
55395,49247
55396,49243
55396,49243
55403,49174
55404,49174
55404,49173
55424,49109
55458,49047
55502,48995
55556,48951
55617,48920
55684,48900
55752,48894
55821,48901
55886,48921
55948,48954
56000,48998
56044,49052
56077,49113
56097,49179
56104,49252
" /> 
<polyline style="fill-rule:evenodd;"
points="56104,33969
56103,34040
56086,34116
56061,34172
56016,34235
55972,34277
55906,34319
55850,34341
55772,34355
55712,34353
55635,34337
55580,34312
55515,34267
55474,34224
55431,34158
55409,34102
55394,34024
55395,33965
55412,33887
55435,33832
55480,33767
55522,33725
55589,33682
55644,33660
55723,33644
55781,33645
55860,33661
55914,33684
55981,33729
56022,33770
56067,33837
56089,33891
56104,33969
" /> 
<polyline style="fill-rule:evenodd;"
points="56104,39969
56103,40040
56086,40116
56061,40172
56016,40235
55972,40277
55906,40319
55850,40341
55772,40355
55712,40353
55635,40337
55580,40312
55515,40267
55474,40224
55431,40158
55409,40102
55394,40024
55395,39965
55412,39887
55435,39832
55480,39767
55522,39725
55589,39682
55644,39660
55723,39644
55781,39645
55860,39661
55914,39684
55981,39729
56022,39770
56067,39837
56089,39891
56104,39969
" /> 
<polyline style="fill-rule:evenodd;"
points="56104,44219
56103,44290
56086,44366
56061,44422
56016,44485
55972,44527
55906,44569
55850,44591
55772,44605
55712,44603
55635,44587
55580,44562
55515,44517
55474,44474
55431,44408
55409,44352
55394,44274
55395,44215
55412,44137
55435,44082
55480,44017
55522,43975
55589,43932
55644,43910
55723,43894
55781,43895
55860,43911
55914,43934
55981,43979
56022,44020
56067,44087
56089,44141
56104,44219
" /> 
<polyline style="fill-rule:evenodd;"
points="56104,48219
56103,48290
56086,48366
56061,48422
56016,48485
55972,48527
55906,48569
55850,48591
55772,48605
55712,48603
55635,48587
55580,48562
55515,48517
55474,48474
55431,48408
55409,48352
55394,48274
55395,48215
55412,48137
55435,48082
55480,48017
55522,47975
55589,47932
55644,47910
55723,47894
55781,47895
55860,47911
55914,47934
55981,47979
56022,48020
56067,48087
56089,48141
56104,48219
" /> 
<polyline style="fill-rule:evenodd;"
points="57124,33967
57123,34043
57105,34122
57079,34182
57031,34249
56985,34293
56915,34337
56855,34361
56774,34375
56709,34374
56629,34356
56570,34330
56502,34283
56458,34237
56413,34167
56389,34108
56374,34026
56375,33963
56392,33881
56417,33823
56465,33754
56510,33709
56580,33664
56638,33640
56721,33624
56783,33625
56866,33642
56924,33666
56994,33713
57038,33757
57085,33828
57108,33885
57124,33967
" /> 
<polyline style="fill-rule:evenodd;"
points="57125,29375
56374,29375
56374,28624
57125,28624
57125,29375
" /> 
<polyline style="fill-rule:evenodd;"
points="57354,45219
57353,45290
57336,45366
57311,45422
57266,45485
57222,45527
57156,45569
57100,45591
57022,45605
56962,45603
56885,45587
56830,45562
56765,45517
56724,45474
56681,45408
56659,45352
56644,45274
56645,45215
56662,45137
56685,45082
56730,45017
56772,44975
56839,44932
56894,44910
56973,44894
57031,44895
57110,44911
57164,44934
57231,44979
57272,45020
57317,45087
57339,45141
57354,45219
" /> 
<polyline style="fill-rule:evenodd;"
points="57354,48604
56645,48604
56645,47895
57354,47895
57354,48604
" /> 
<polyline style="fill-rule:evenodd;"
points="58604,37969
58603,38040
58586,38116
58561,38172
58516,38235
58472,38277
58406,38319
58350,38341
58272,38355
58212,38353
58135,38337
58080,38312
58015,38267
57974,38224
57931,38158
57909,38102
57894,38024
57895,37965
57912,37887
57935,37832
57980,37767
58022,37725
58089,37682
58144,37660
58223,37644
58281,37645
58360,37661
58414,37684
58481,37729
58522,37770
58567,37837
58589,37891
58604,37969
" /> 
<polyline style="fill-rule:evenodd;"
points="58604,35354
57895,35354
57895,34645
58604,34645
58604,35354
" /> 
<polyline style="fill-rule:evenodd;"
points="58874,49217
58873,49293
58855,49372
58829,49432
58781,49499
58735,49543
58665,49587
58605,49611
58524,49625
58459,49624
58379,49606
58320,49580
58252,49533
58208,49487
58163,49417
58139,49358
58124,49276
58125,49213
58142,49131
58167,49073
58215,49004
58260,48959
58330,48914
58388,48890
58471,48874
58533,48875
58616,48892
58674,48916
58744,48963
58788,49007
58835,49078
58858,49135
58874,49217
" /> 
<polyline style="fill-rule:evenodd;"
points="58875,54625
58124,54625
58124,53874
58875,53874
58875,54625
" /> 
<polyline style="fill-rule:evenodd;"
points="59854,34002
59853,34006
59853,34006
59846,34075
59845,34075
59845,34076
59825,34140
59791,34202
59747,34254
59693,34298
59632,34329
59565,34349
59497,34355
59428,34348
59363,34328
59301,34295
59249,34251
59205,34197
59172,34136
59152,34070
59145,33997
59146,33993
59146,33993
59153,33924
59154,33924
59154,33923
59174,33859
59208,33797
59252,33745
59306,33701
59367,33670
59434,33650
59502,33644
59571,33651
59636,33671
59698,33704
59750,33748
59794,33802
59827,33863
59847,33929
59854,34002
" /> 
<polyline style="fill-rule:evenodd;"
points="59854,34969
59853,35040
59836,35116
59811,35172
59766,35235
59722,35277
59656,35319
59600,35341
59522,35355
59462,35353
59385,35337
59330,35312
59265,35267
59224,35224
59181,35158
59159,35102
59144,35024
59145,34965
59162,34887
59185,34832
59230,34767
59272,34725
59339,34682
59394,34660
59473,34644
59531,34645
59610,34661
59664,34684
59731,34729
59772,34770
59817,34837
59839,34891
59854,34969
" /> 
<polyline style="fill-rule:evenodd;"
points="59854,38969
59853,39040
59836,39116
59811,39172
59766,39235
59722,39277
59656,39319
59600,39341
59522,39355
59462,39353
59385,39337
59330,39312
59265,39267
59224,39224
59181,39158
59159,39102
59144,39024
59145,38965
59162,38887
59185,38832
59230,38767
59272,38725
59339,38682
59394,38660
59473,38644
59531,38645
59610,38661
59664,38684
59731,38729
59772,38770
59817,38837
59839,38891
59854,38969
" /> 
<polyline style="fill-rule:evenodd;"
points="59854,43219
59853,43290
59836,43366
59811,43422
59766,43485
59722,43527
59656,43569
59600,43591
59522,43605
59462,43603
59385,43587
59330,43562
59265,43517
59224,43474
59181,43408
59159,43352
59144,43274
59145,43215
59162,43137
59185,43082
59230,43017
59272,42975
59339,42932
59394,42910
59473,42894
59531,42895
59610,42911
59664,42934
59731,42979
59772,43020
59817,43087
59839,43141
59854,43219
" /> 
<polyline style="fill-rule:evenodd;"
points="59854,49219
59853,49290
59836,49366
59811,49422
59766,49485
59722,49527
59656,49569
59600,49591
59522,49605
59462,49603
59385,49587
59330,49562
59265,49517
59224,49474
59181,49408
59159,49352
59144,49274
59145,49215
59162,49137
59185,49082
59230,49017
59272,48975
59339,48932
59394,48910
59473,48894
59531,48895
59610,48911
59664,48934
59731,48979
59772,49020
59817,49087
59839,49141
59854,49219
" /> 
<polyline style="fill-rule:evenodd;"
points="61079,53447
61077,53568
61050,53687
61008,53783
60937,53883
60861,53955
60758,54021
60660,54059
60540,54080
60435,54078
60315,54052
60220,54010
60119,53940
60046,53865
59980,53761
59941,53665
59919,53543
59921,53440
59946,53319
59987,53224
60057,53121
60131,53049
60235,52981
60330,52943
60452,52919
60555,52920
60677,52945
60772,52985
60875,53055
60947,53127
61016,53231
61055,53326
61079,53447
" /> 
<polyline style="fill-rule:evenodd;"
points="61875,32625
61124,32625
61124,31874
61875,31874
61875,32625
" /> 
<polyline style="fill-rule:evenodd;"
points="62854,49252
62853,49256
62853,49256
62846,49325
62845,49325
62845,49326
62825,49390
62791,49452
62747,49504
62693,49548
62632,49579
62565,49599
62497,49605
62428,49598
62363,49578
62301,49545
62249,49501
62205,49447
62172,49386
62152,49320
62145,49247
62146,49243
62146,49243
62153,49174
62154,49174
62154,49173
62174,49109
62208,49047
62252,48995
62306,48951
62367,48920
62434,48900
62502,48894
62571,48901
62636,48921
62698,48954
62750,48998
62794,49052
62827,49113
62847,49179
62854,49252
" /> 
<polyline style="fill-rule:evenodd;"
points="62854,33969
62853,34040
62836,34116
62811,34172
62766,34235
62722,34277
62656,34319
62600,34341
62522,34355
62462,34353
62385,34337
62330,34312
62265,34267
62224,34224
62181,34158
62159,34102
62144,34024
62145,33965
62162,33887
62185,33832
62230,33767
62272,33725
62339,33682
62394,33660
62473,33644
62531,33645
62610,33661
62664,33684
62731,33729
62772,33770
62817,33837
62839,33891
62854,33969
" /> 
<polyline style="fill-rule:evenodd;"
points="62854,39969
62853,40040
62836,40116
62811,40172
62766,40235
62722,40277
62656,40319
62600,40341
62522,40355
62462,40353
62385,40337
62330,40312
62265,40267
62224,40224
62181,40158
62159,40102
62144,40024
62145,39965
62162,39887
62185,39832
62230,39767
62272,39725
62339,39682
62394,39660
62473,39644
62531,39645
62610,39661
62664,39684
62731,39729
62772,39770
62817,39837
62839,39891
62854,39969
" /> 
<polyline style="fill-rule:evenodd;"
points="62854,43219
62853,43290
62836,43366
62811,43422
62766,43485
62722,43527
62656,43569
62600,43591
62522,43605
62462,43603
62385,43587
62330,43562
62265,43517
62224,43474
62181,43408
62159,43352
62144,43274
62145,43215
62162,43137
62185,43082
62230,43017
62272,42975
62339,42932
62394,42910
62473,42894
62531,42895
62610,42911
62664,42934
62731,42979
62772,43020
62817,43087
62839,43141
62854,43219
" /> 
<polyline style="fill-rule:evenodd;"
points="62854,44219
62853,44290
62836,44366
62811,44422
62766,44485
62722,44527
62656,44569
62600,44591
62522,44605
62462,44603
62385,44587
62330,44562
62265,44517
62224,44474
62181,44408
62159,44352
62144,44274
62145,44215
62162,44137
62185,44082
62230,44017
62272,43975
62339,43932
62394,43910
62473,43894
62531,43895
62610,43911
62664,43934
62731,43979
62772,44020
62817,44087
62839,44141
62854,44219
" /> 
<polyline style="fill-rule:evenodd;"
points="62854,48219
62853,48290
62836,48366
62811,48422
62766,48485
62722,48527
62656,48569
62600,48591
62522,48605
62462,48603
62385,48587
62330,48562
62265,48517
62224,48474
62181,48408
62159,48352
62144,48274
62145,48215
62162,48137
62185,48082
62230,48017
62272,47975
62339,47932
62394,47910
62473,47894
62531,47895
62610,47911
62664,47934
62731,47979
62772,48020
62817,48087
62839,48141
62854,48219
" /> 
<polyline style="fill-rule:evenodd;"
points="62874,50967
62873,51043
62855,51122
62829,51182
62781,51249
62735,51293
62665,51337
62605,51361
62524,51375
62459,51374
62379,51356
62320,51330
62252,51283
62208,51237
62163,51167
62139,51108
62124,51026
62125,50963
62142,50881
62167,50823
62215,50754
62260,50709
62330,50664
62388,50640
62471,50624
62533,50625
62616,50642
62674,50666
62744,50713
62788,50757
62835,50828
62858,50885
62874,50967
" /> 
<polyline style="fill-rule:evenodd;"
points="63079,53447
63077,53568
63050,53687
63008,53783
62937,53883
62861,53955
62758,54021
62660,54059
62540,54080
62435,54078
62315,54052
62220,54010
62119,53940
62046,53865
61980,53761
61941,53665
61919,53543
61921,53440
61946,53319
61987,53224
62057,53121
62131,53049
62235,52981
62330,52943
62452,52919
62555,52920
62677,52945
62772,52985
62875,53055
62947,53127
63016,53231
63055,53326
63079,53447
" /> 
<polyline style="fill-rule:evenodd;"
points="64104,45219
64103,45290
64086,45366
64061,45422
64016,45485
63972,45527
63906,45569
63850,45591
63772,45605
63712,45603
63635,45587
63580,45562
63515,45517
63474,45474
63431,45408
63409,45352
63394,45274
63395,45215
63412,45137
63435,45082
63480,45017
63522,44975
63589,44932
63644,44910
63723,44894
63781,44895
63860,44911
63914,44934
63981,44979
64022,45020
64067,45087
64089,45141
64104,45219
" /> 
<polyline style="fill-rule:evenodd;"
points="64104,48604
63395,48604
63395,47895
64104,47895
64104,48604
" /> 
<polyline style="fill-rule:evenodd;"
points="64579,29697
64577,29818
64550,29937
64508,30033
64437,30133
64361,30205
64258,30271
64160,30309
64040,30330
63935,30328
63815,30302
63720,30260
63619,30190
63546,30115
63480,30011
63441,29915
63419,29793
63421,29690
63446,29569
63487,29474
63557,29371
63631,29299
63735,29231
63830,29193
63952,29169
64055,29170
64177,29195
64272,29235
64375,29305
64447,29377
64516,29481
64555,29576
64579,29697
" /> 
<polyline style="fill-rule:evenodd;"
points="65079,53447
65077,53568
65050,53687
65008,53783
64937,53883
64861,53955
64758,54021
64660,54059
64540,54080
64435,54078
64315,54052
64220,54010
64119,53940
64046,53865
63980,53761
63941,53665
63919,53543
63921,53440
63946,53319
63987,53224
64057,53121
64131,53049
64235,52981
64330,52943
64452,52919
64555,52920
64677,52945
64772,52985
64875,53055
64947,53127
65016,53231
65055,53326
65079,53447
" /> 
<polyline style="fill-rule:evenodd;"
points="65604,37969
65603,38040
65586,38116
65561,38172
65516,38235
65472,38277
65406,38319
65350,38341
65272,38355
65212,38353
65135,38337
65080,38312
65015,38267
64974,38224
64931,38158
64909,38102
64894,38024
64895,37965
64912,37887
64935,37832
64980,37767
65022,37725
65089,37682
65144,37660
65223,37644
65281,37645
65360,37661
65414,37684
65481,37729
65522,37770
65567,37837
65589,37891
65604,37969
" /> 
<polyline style="fill-rule:evenodd;"
points="65604,35354
64895,35354
64895,34645
65604,34645
65604,35354
" /> 
<polyline style="fill-rule:evenodd;"
points="66579,29697
66577,29818
66550,29937
66508,30033
66437,30133
66361,30205
66258,30271
66160,30309
66040,30330
65935,30328
65815,30302
65720,30260
65619,30190
65546,30115
65480,30011
65441,29915
65419,29793
65421,29690
65446,29569
65487,29474
65557,29371
65631,29299
65735,29231
65830,29193
65952,29169
66055,29170
66177,29195
66272,29235
66375,29305
66447,29377
66516,29481
66555,29576
66579,29697
" /> 
<polyline style="fill-rule:evenodd;"
points="66854,34002
66853,34006
66853,34006
66846,34075
66845,34075
66845,34076
66825,34140
66791,34202
66747,34254
66693,34298
66632,34329
66565,34349
66497,34355
66428,34348
66363,34328
66301,34295
66249,34251
66205,34197
66172,34136
66152,34070
66145,33997
66146,33993
66146,33993
66153,33924
66154,33924
66154,33923
66174,33859
66208,33797
66252,33745
66306,33701
66367,33670
66434,33650
66502,33644
66571,33651
66636,33671
66698,33704
66750,33748
66794,33802
66827,33863
66847,33929
66854,34002
" /> 
<polyline style="fill-rule:evenodd;"
points="66854,34969
66853,35040
66836,35116
66811,35172
66766,35235
66722,35277
66656,35319
66600,35341
66522,35355
66462,35353
66385,35337
66330,35312
66265,35267
66224,35224
66181,35158
66159,35102
66144,35024
66145,34965
66162,34887
66185,34832
66230,34767
66272,34725
66339,34682
66394,34660
66473,34644
66531,34645
66610,34661
66664,34684
66731,34729
66772,34770
66817,34837
66839,34891
66854,34969
" /> 
<polyline style="fill-rule:evenodd;"
points="66854,38969
66853,39040
66836,39116
66811,39172
66766,39235
66722,39277
66656,39319
66600,39341
66522,39355
66462,39353
66385,39337
66330,39312
66265,39267
66224,39224
66181,39158
66159,39102
66144,39024
66145,38965
66162,38887
66185,38832
66230,38767
66272,38725
66339,38682
66394,38660
66473,38644
66531,38645
66610,38661
66664,38684
66731,38729
66772,38770
66817,38837
66839,38891
66854,38969
" /> 
<polyline style="fill-rule:evenodd;"
points="66854,39969
66853,40040
66836,40116
66811,40172
66766,40235
66722,40277
66656,40319
66600,40341
66522,40355
66462,40353
66385,40337
66330,40312
66265,40267
66224,40224
66181,40158
66159,40102
66144,40024
66145,39965
66162,39887
66185,39832
66230,39767
66272,39725
66339,39682
66394,39660
66473,39644
66531,39645
66610,39661
66664,39684
66731,39729
66772,39770
66817,39837
66839,39891
66854,39969
" /> 
<polyline style="fill-rule:evenodd;"
points="66854,43219
66853,43290
66836,43366
66811,43422
66766,43485
66722,43527
66656,43569
66600,43591
66522,43605
66462,43603
66385,43587
66330,43562
66265,43517
66224,43474
66181,43408
66159,43352
66144,43274
66145,43215
66162,43137
66185,43082
66230,43017
66272,42975
66339,42932
66394,42910
66473,42894
66531,42895
66610,42911
66664,42934
66731,42979
66772,43020
66817,43087
66839,43141
66854,43219
" /> 
<polyline style="fill-rule:evenodd;"
points="66854,49219
66853,49290
66836,49366
66811,49422
66766,49485
66722,49527
66656,49569
66600,49591
66522,49605
66462,49603
66385,49587
66330,49562
66265,49517
66224,49474
66181,49408
66159,49352
66144,49274
66145,49215
66162,49137
66185,49082
66230,49017
66272,48975
66339,48932
66394,48910
66473,48894
66531,48895
66610,48911
66664,48934
66731,48979
66772,49020
66817,49087
66839,49141
66854,49219
" /> 
<polyline style="fill-rule:evenodd;"
points="66874,32217
66873,32293
66855,32372
66829,32432
66781,32499
66735,32543
66665,32587
66605,32611
66524,32625
66459,32624
66379,32606
66320,32580
66252,32533
66208,32487
66163,32417
66139,32358
66124,32276
66125,32213
66142,32131
66167,32073
66215,32004
66260,31959
66330,31914
66388,31890
66471,31874
66533,31875
66616,31892
66674,31916
66744,31963
66788,32007
66835,32078
66858,32135
66874,32217
" /> 
<polyline style="fill-rule:evenodd;"
points="67875,51375
67124,51375
67124,50624
67875,50624
67875,51375
" /> 
<polyline style="fill-rule:evenodd;"
points="68579,29697
68577,29818
68550,29937
68508,30033
68437,30133
68361,30205
68258,30271
68160,30309
68040,30330
67935,30328
67815,30302
67720,30260
67619,30190
67546,30115
67480,30011
67441,29915
67419,29793
67421,29690
67446,29569
67487,29474
67557,29371
67631,29299
67735,29231
67830,29193
67952,29169
68055,29170
68177,29195
68272,29235
68375,29305
68447,29377
68516,29481
68555,29576
68579,29697
" /> 
<polyline style="fill-rule:evenodd;"
points="69854,49252
69853,49256
69853,49256
69846,49325
69845,49325
69845,49326
69825,49390
69791,49452
69747,49504
69693,49548
69632,49579
69565,49599
69497,49605
69428,49598
69363,49578
69301,49545
69249,49501
69205,49447
69172,49386
69152,49320
69145,49247
69146,49243
69146,49243
69153,49174
69154,49174
69154,49173
69174,49109
69208,49047
69252,48995
69306,48951
69367,48920
69434,48900
69502,48894
69571,48901
69636,48921
69698,48954
69750,48998
69794,49052
69827,49113
69847,49179
69854,49252
" /> 
<polyline style="fill-rule:evenodd;"
points="69854,33969
69853,34040
69836,34116
69811,34172
69766,34235
69722,34277
69656,34319
69600,34341
69522,34355
69462,34353
69385,34337
69330,34312
69265,34267
69224,34224
69181,34158
69159,34102
69144,34024
69145,33965
69162,33887
69185,33832
69230,33767
69272,33725
69339,33682
69394,33660
69473,33644
69531,33645
69610,33661
69664,33684
69731,33729
69772,33770
69817,33837
69839,33891
69854,33969
" /> 
<polyline style="fill-rule:evenodd;"
points="69854,39969
69853,40040
69836,40116
69811,40172
69766,40235
69722,40277
69656,40319
69600,40341
69522,40355
69462,40353
69385,40337
69330,40312
69265,40267
69224,40224
69181,40158
69159,40102
69144,40024
69145,39965
69162,39887
69185,39832
69230,39767
69272,39725
69339,39682
69394,39660
69473,39644
69531,39645
69610,39661
69664,39684
69731,39729
69772,39770
69817,39837
69839,39891
69854,39969
" /> 
<polyline style="fill-rule:evenodd;"
points="69854,44219
69853,44290
69836,44366
69811,44422
69766,44485
69722,44527
69656,44569
69600,44591
69522,44605
69462,44603
69385,44587
69330,44562
69265,44517
69224,44474
69181,44408
69159,44352
69144,44274
69145,44215
69162,44137
69185,44082
69230,44017
69272,43975
69339,43932
69394,43910
69473,43894
69531,43895
69610,43911
69664,43934
69731,43979
69772,44020
69817,44087
69839,44141
69854,44219
" /> 
<polyline style="fill-rule:evenodd;"
points="69854,48219
69853,48290
69836,48366
69811,48422
69766,48485
69722,48527
69656,48569
69600,48591
69522,48605
69462,48603
69385,48587
69330,48562
69265,48517
69224,48474
69181,48408
69159,48352
69144,48274
69145,48215
69162,48137
69185,48082
69230,48017
69272,47975
69339,47932
69394,47910
69473,47894
69531,47895
69610,47911
69664,47934
69731,47979
69772,48020
69817,48087
69839,48141
69854,48219
" /> 
<polyline style="fill-rule:evenodd;"
points="70874,33967
70873,34043
70855,34122
70829,34182
70781,34249
70735,34293
70665,34337
70605,34361
70524,34375
70459,34374
70379,34356
70320,34330
70252,34283
70208,34237
70163,34167
70139,34108
70124,34026
70125,33963
70142,33881
70167,33823
70215,33754
70260,33709
70330,33664
70388,33640
70471,33624
70533,33625
70616,33642
70674,33666
70744,33713
70788,33757
70835,33828
70858,33885
70874,33967
" /> 
<polyline style="fill-rule:evenodd;"
points="70875,29375
70124,29375
70124,28624
70875,28624
70875,29375
" /> 
<polyline style="fill-rule:evenodd;"
points="71104,45219
71103,45290
71086,45366
71061,45422
71016,45485
70972,45527
70906,45569
70850,45591
70772,45605
70712,45603
70635,45587
70580,45562
70515,45517
70474,45474
70431,45408
70409,45352
70394,45274
70395,45215
70412,45137
70435,45082
70480,45017
70522,44975
70589,44932
70644,44910
70723,44894
70781,44895
70860,44911
70914,44934
70981,44979
71022,45020
71067,45087
71089,45141
71104,45219
" /> 
<polyline style="fill-rule:evenodd;"
points="71104,48604
70395,48604
70395,47895
71104,47895
71104,48604
" /> 
<polyline style="fill-rule:evenodd;"
points="72854,37969
72853,38040
72836,38116
72811,38172
72766,38235
72722,38277
72656,38319
72600,38341
72522,38355
72462,38353
72385,38337
72330,38312
72265,38267
72224,38224
72181,38158
72159,38102
72144,38024
72145,37965
72162,37887
72185,37832
72230,37767
72272,37725
72339,37682
72394,37660
72473,37644
72531,37645
72610,37661
72664,37684
72731,37729
72772,37770
72817,37837
72839,37891
72854,37969
" /> 
<polyline style="fill-rule:evenodd;"
points="72854,35354
72145,35354
72145,34645
72854,34645
72854,35354
" /> 
<polyline style="fill-rule:evenodd;"
points="73124,49217
73123,49293
73105,49372
73079,49432
73031,49499
72985,49543
72915,49587
72855,49611
72774,49625
72709,49624
72629,49606
72570,49580
72502,49533
72458,49487
72413,49417
72389,49358
72374,49276
72375,49213
72392,49131
72417,49073
72465,49004
72510,48959
72580,48914
72638,48890
72721,48874
72783,48875
72866,48892
72924,48916
72994,48963
73038,49007
73085,49078
73108,49135
73124,49217
" /> 
<polyline style="fill-rule:evenodd;"
points="73125,54625
72374,54625
72374,53874
73125,53874
73125,54625
" /> 
<polyline style="fill-rule:evenodd;"
points="74104,34002
74103,34006
74103,34006
74096,34075
74095,34075
74095,34076
74075,34140
74041,34202
73997,34254
73943,34298
73882,34329
73815,34349
73747,34355
73678,34348
73613,34328
73551,34295
73499,34251
73455,34197
73422,34136
73402,34070
73395,33997
73396,33993
73396,33993
73403,33924
73404,33924
73404,33923
73424,33859
73458,33797
73502,33745
73556,33701
73617,33670
73684,33650
73752,33644
73821,33651
73886,33671
73948,33704
74000,33748
74044,33802
74077,33863
74097,33929
74104,34002
" /> 
<polyline style="fill-rule:evenodd;"
points="74104,34969
74103,35040
74086,35116
74061,35172
74016,35235
73972,35277
73906,35319
73850,35341
73772,35355
73712,35353
73635,35337
73580,35312
73515,35267
73474,35224
73431,35158
73409,35102
73394,35024
73395,34965
73412,34887
73435,34832
73480,34767
73522,34725
73589,34682
73644,34660
73723,34644
73781,34645
73860,34661
73914,34684
73981,34729
74022,34770
74067,34837
74089,34891
74104,34969
" /> 
<polyline style="fill-rule:evenodd;"
points="74104,38969
74103,39040
74086,39116
74061,39172
74016,39235
73972,39277
73906,39319
73850,39341
73772,39355
73712,39353
73635,39337
73580,39312
73515,39267
73474,39224
73431,39158
73409,39102
73394,39024
73395,38965
73412,38887
73435,38832
73480,38767
73522,38725
73589,38682
73644,38660
73723,38644
73781,38645
73860,38661
73914,38684
73981,38729
74022,38770
74067,38837
74089,38891
74104,38969
" /> 
<polyline style="fill-rule:evenodd;"
points="74104,43219
74103,43290
74086,43366
74061,43422
74016,43485
73972,43527
73906,43569
73850,43591
73772,43605
73712,43603
73635,43587
73580,43562
73515,43517
73474,43474
73431,43408
73409,43352
73394,43274
73395,43215
73412,43137
73435,43082
73480,43017
73522,42975
73589,42932
73644,42910
73723,42894
73781,42895
73860,42911
73914,42934
73981,42979
74022,43020
74067,43087
74089,43141
74104,43219
" /> 
<polyline style="fill-rule:evenodd;"
points="74104,49219
74103,49290
74086,49366
74061,49422
74016,49485
73972,49527
73906,49569
73850,49591
73772,49605
73712,49603
73635,49587
73580,49562
73515,49517
73474,49474
73431,49408
73409,49352
73394,49274
73395,49215
73412,49137
73435,49082
73480,49017
73522,48975
73589,48932
73644,48910
73723,48894
73781,48895
73860,48911
73914,48934
73981,48979
74022,49020
74067,49087
74089,49141
74104,49219
" /> 
<polyline style="fill-rule:evenodd;"
points="75329,53447
75327,53568
75300,53687
75258,53783
75187,53883
75111,53955
75008,54021
74910,54059
74790,54080
74685,54078
74565,54052
74470,54010
74369,53940
74296,53865
74230,53761
74191,53665
74169,53543
74171,53440
74196,53319
74237,53224
74307,53121
74381,53049
74485,52981
74580,52943
74702,52919
74805,52920
74927,52945
75022,52985
75125,53055
75197,53127
75266,53231
75305,53326
75329,53447
" /> 
<polyline style="fill-rule:evenodd;"
points="77104,49252
77103,49256
77103,49256
77096,49325
77095,49325
77095,49326
77075,49390
77041,49452
76997,49504
76943,49548
76882,49579
76815,49599
76747,49605
76678,49598
76613,49578
76551,49545
76499,49501
76455,49447
76422,49386
76402,49320
76395,49247
76396,49243
76396,49243
76403,49174
76404,49174
76404,49173
76424,49109
76458,49047
76502,48995
76556,48951
76617,48920
76684,48900
76752,48894
76821,48901
76886,48921
76948,48954
77000,48998
77044,49052
77077,49113
77097,49179
77104,49252
" /> 
<polyline style="fill-rule:evenodd;"
points="77104,33969
77103,34040
77086,34116
77061,34172
77016,34235
76972,34277
76906,34319
76850,34341
76772,34355
76712,34353
76635,34337
76580,34312
76515,34267
76474,34224
76431,34158
76409,34102
76394,34024
76395,33965
76412,33887
76435,33832
76480,33767
76522,33725
76589,33682
76644,33660
76723,33644
76781,33645
76860,33661
76914,33684
76981,33729
77022,33770
77067,33837
77089,33891
77104,33969
" /> 
<polyline style="fill-rule:evenodd;"
points="77104,39969
77103,40040
77086,40116
77061,40172
77016,40235
76972,40277
76906,40319
76850,40341
76772,40355
76712,40353
76635,40337
76580,40312
76515,40267
76474,40224
76431,40158
76409,40102
76394,40024
76395,39965
76412,39887
76435,39832
76480,39767
76522,39725
76589,39682
76644,39660
76723,39644
76781,39645
76860,39661
76914,39684
76981,39729
77022,39770
77067,39837
77089,39891
77104,39969
" /> 
<polyline style="fill-rule:evenodd;"
points="77104,43219
77103,43290
77086,43366
77061,43422
77016,43485
76972,43527
76906,43569
76850,43591
76772,43605
76712,43603
76635,43587
76580,43562
76515,43517
76474,43474
76431,43408
76409,43352
76394,43274
76395,43215
76412,43137
76435,43082
76480,43017
76522,42975
76589,42932
76644,42910
76723,42894
76781,42895
76860,42911
76914,42934
76981,42979
77022,43020
77067,43087
77089,43141
77104,43219
" /> 
<polyline style="fill-rule:evenodd;"
points="77104,44219
77103,44290
77086,44366
77061,44422
77016,44485
76972,44527
76906,44569
76850,44591
76772,44605
76712,44603
76635,44587
76580,44562
76515,44517
76474,44474
76431,44408
76409,44352
76394,44274
76395,44215
76412,44137
76435,44082
76480,44017
76522,43975
76589,43932
76644,43910
76723,43894
76781,43895
76860,43911
76914,43934
76981,43979
77022,44020
77067,44087
77089,44141
77104,44219
" /> 
<polyline style="fill-rule:evenodd;"
points="77104,48219
77103,48290
77086,48366
77061,48422
77016,48485
76972,48527
76906,48569
76850,48591
76772,48605
76712,48603
76635,48587
76580,48562
76515,48517
76474,48474
76431,48408
76409,48352
76394,48274
76395,48215
76412,48137
76435,48082
76480,48017
76522,47975
76589,47932
76644,47910
76723,47894
76781,47895
76860,47911
76914,47934
76981,47979
77022,48020
77067,48087
77089,48141
77104,48219
" /> 
<polyline style="fill-rule:evenodd;"
points="77124,50967
77123,51043
77105,51122
77079,51182
77031,51249
76985,51293
76915,51337
76855,51361
76774,51375
76709,51374
76629,51356
76570,51330
76502,51283
76458,51237
76413,51167
76389,51108
76374,51026
76375,50963
76392,50881
76417,50823
76465,50754
76510,50709
76580,50664
76638,50640
76721,50624
76783,50625
76866,50642
76924,50666
76994,50713
77038,50757
77085,50828
77108,50885
77124,50967
" /> 
<polyline style="fill-rule:evenodd;"
points="77329,53447
77327,53568
77300,53687
77258,53783
77187,53883
77111,53955
77008,54021
76910,54059
76790,54080
76685,54078
76565,54052
76470,54010
76369,53940
76296,53865
76230,53761
76191,53665
76169,53543
76171,53440
76196,53319
76237,53224
76307,53121
76381,53049
76485,52981
76580,52943
76702,52919
76805,52920
76927,52945
77022,52985
77125,53055
77197,53127
77266,53231
77305,53326
77329,53447
" /> 
<polyline style="fill-rule:evenodd;"
points="78354,45219
78353,45290
78336,45366
78311,45422
78266,45485
78222,45527
78156,45569
78100,45591
78022,45605
77962,45603
77885,45587
77830,45562
77765,45517
77724,45474
77681,45408
77659,45352
77644,45274
77645,45215
77662,45137
77685,45082
77730,45017
77772,44975
77839,44932
77894,44910
77973,44894
78031,44895
78110,44911
78164,44934
78231,44979
78272,45020
78317,45087
78339,45141
78354,45219
" /> 
<polyline style="fill-rule:evenodd;"
points="78354,48604
77645,48604
77645,47895
78354,47895
78354,48604
" /> 
<polyline style="fill-rule:evenodd;"
points="79329,53447
79327,53568
79300,53687
79258,53783
79187,53883
79111,53955
79008,54021
78910,54059
78790,54080
78685,54078
78565,54052
78470,54010
78369,53940
78296,53865
78230,53761
78191,53665
78169,53543
78171,53440
78196,53319
78237,53224
78307,53121
78381,53049
78485,52981
78580,52943
78702,52919
78805,52920
78927,52945
79022,52985
79125,53055
79197,53127
79266,53231
79305,53326
79329,53447
" /> 
<polyline style="fill-rule:evenodd;"
points="79458,34408
79457,34479
79439,34555
79415,34611
79370,34675
79326,34717
79260,34759
79203,34780
79126,34794
79065,34793
78989,34776
78934,34752
78869,34707
78827,34664
78784,34597
78762,34542
78748,34464
78749,34404
78765,34326
78789,34272
78834,34206
78876,34165
78943,34121
78997,34099
79076,34084
79135,34084
79214,34100
79268,34123
79334,34168
79375,34209
79420,34277
79442,34330
79458,34408
" /> 
<polyline style="fill-rule:evenodd;"
points="79458,35469
79457,35540
79439,35616
79415,35672
79370,35735
79326,35777
79260,35819
79203,35841
79126,35855
79065,35853
78989,35837
78934,35812
78869,35767
78827,35724
78784,35658
78762,35602
78748,35524
78749,35465
78765,35387
78789,35332
78834,35267
78876,35225
78943,35182
78997,35160
79076,35144
79135,35145
79214,35161
79268,35184
79334,35229
79375,35270
79420,35337
79442,35391
79458,35469
" /> 
<polyline style="fill-rule:evenodd;"
points="79458,36530
79457,36601
79439,36677
79415,36732
79370,36796
79326,36838
79260,36880
79203,36902
79126,36915
79065,36914
78989,36897
78934,36873
78869,36828
78827,36785
78784,36719
78762,36663
78748,36585
78749,36525
78765,36448
78789,36393
78834,36327
78876,36286
78943,36242
78997,36220
79076,36205
79135,36206
79214,36222
79268,36244
79334,36289
79375,36331
79420,36398
79442,36452
79458,36530
" /> 
<polyline style="fill-rule:evenodd;"
points="81001,38158
81000,38229
80982,38305
80958,38361
80913,38425
80869,38467
80802,38509
80746,38530
80669,38544
80608,38543
80532,38526
80476,38502
80412,38457
80370,38414
80327,38347
80305,38292
80291,38214
80292,38154
80308,38076
80332,38022
80377,37956
80419,37915
80486,37871
80540,37849
80619,37834
80678,37834
80756,37850
80810,37873
80877,37918
80918,37959
80963,38027
80985,38080
81001,38158
" /> 
<polyline style="fill-rule:evenodd;"
points="81001,39219
81000,39290
80982,39366
80958,39422
80913,39485
80869,39527
80802,39569
80746,39591
80669,39605
80608,39603
80532,39587
80476,39562
80412,39517
80370,39474
80327,39408
80305,39352
80291,39274
80292,39215
80308,39137
80332,39082
80377,39017
80419,38975
80486,38932
80540,38910
80619,38894
80678,38895
80756,38911
80810,38934
80877,38979
80918,39020
80963,39087
80985,39141
81001,39219
" /> 
<polyline style="fill-rule:evenodd;"
points="81001,40280
81000,40351
80982,40427
80958,40482
80913,40546
80869,40588
80802,40630
80746,40652
80669,40665
80608,40664
80532,40647
80476,40623
80412,40578
80370,40535
80327,40469
80305,40413
80291,40335
80292,40275
80308,40198
80332,40143
80377,40077
80419,40036
80486,39992
80540,39970
80619,39955
80678,39956
80756,39972
80810,39994
80877,40039
80918,40081
80963,40148
80985,40202
81001,40280
" /> 
<polyline style="fill-rule:evenodd;"
points="81379,35717
81378,35793
81360,35874
81333,35934
81285,36002
81238,36047
81167,36092
81106,36115
81024,36130
80959,36128
80877,36110
80818,36084
80749,36037
80704,35990
80658,35919
80635,35859
80619,35776
80620,35712
80638,35629
80663,35570
80711,35501
80757,35456
80828,35409
80887,35385
80970,35369
81034,35370
81117,35387
81176,35412
81247,35459
81291,35504
81339,35576
81363,35634
81379,35717
" /> 
<polyline style="fill-rule:evenodd;"
points="81708,42908
81707,42979
81689,43055
81665,43111
81620,43175
81576,43217
81510,43259
81453,43280
81376,43294
81315,43293
81239,43276
81184,43252
81119,43207
81077,43164
81034,43097
81012,43042
80998,42964
80999,42904
81015,42826
81039,42772
81084,42706
81126,42665
81193,42621
81247,42599
81326,42584
81385,42584
81464,42600
81518,42623
81584,42668
81625,42709
81670,42777
81692,42830
81708,42908
" /> 
<polyline style="fill-rule:evenodd;"
points="81708,43969
81707,44040
81689,44116
81665,44172
81620,44235
81576,44277
81510,44319
81453,44341
81376,44355
81315,44353
81239,44337
81184,44312
81119,44267
81077,44224
81034,44158
81012,44102
80998,44024
80999,43965
81015,43887
81039,43832
81084,43767
81126,43725
81193,43682
81247,43660
81326,43644
81385,43645
81464,43661
81518,43684
81584,43729
81625,43770
81670,43837
81692,43891
81708,43969
" /> 
<polyline style="fill-rule:evenodd;"
points="81708,45030
81707,45101
81689,45177
81665,45232
81620,45296
81576,45338
81510,45380
81453,45402
81376,45415
81315,45414
81239,45397
81184,45373
81119,45328
81077,45285
81034,45219
81012,45163
80998,45085
80999,45025
81015,44948
81039,44893
81084,44827
81126,44786
81193,44742
81247,44720
81326,44705
81385,44706
81464,44722
81518,44744
81584,44789
81625,44831
81670,44898
81692,44952
81708,45030
" /> 
<polyline style="fill-rule:evenodd;"
points="82125,51375
81374,51375
81374,50624
82125,50624
82125,51375
" /> 
<polyline style="fill-rule:evenodd;"
points="82879,37467
82878,37543
82860,37624
82833,37684
82785,37752
82738,37797
82667,37842
82606,37865
82524,37880
82459,37878
82377,37860
82318,37834
82249,37787
82204,37740
82158,37669
82135,37609
82119,37526
82120,37462
82138,37379
82163,37320
82211,37251
82257,37206
82328,37159
82387,37135
82470,37119
82534,37120
82617,37137
82676,37162
82747,37209
82791,37254
82839,37326
82863,37384
82879,37467
" /> 
<polyline style="fill-rule:evenodd;"
points="82879,41467
82878,41543
82860,41624
82833,41684
82785,41752
82738,41797
82667,41842
82606,41865
82524,41880
82459,41878
82377,41860
82318,41834
82249,41787
82204,41740
82158,41669
82135,41609
82119,41526
82120,41462
82138,41379
82163,41320
82211,41251
82257,41206
82328,41159
82387,41135
82470,41119
82534,41120
82617,41137
82676,41162
82747,41209
82791,41254
82839,41326
82863,41384
82879,41467
" /> 
<polyline style="fill-rule:evenodd;"
points="84251,46658
84250,46729
84232,46805
84208,46861
84163,46925
84119,46967
84052,47009
83996,47030
83919,47044
83858,47043
83782,47026
83726,47002
83662,46957
83620,46914
83577,46847
83555,46792
83541,46714
83542,46654
83558,46576
83582,46522
83627,46456
83669,46415
83736,46371
83790,46349
83869,46334
83928,46334
84006,46350
84060,46373
84127,46418
84168,46459
84213,46527
84235,46580
84251,46658
" /> 
<polyline style="fill-rule:evenodd;"
points="84251,47719
84250,47790
84232,47866
84208,47922
84163,47985
84119,48027
84052,48069
83996,48091
83919,48105
83858,48103
83782,48087
83726,48062
83662,48017
83620,47974
83577,47908
83555,47852
83541,47774
83542,47715
83558,47637
83582,47582
83627,47517
83669,47475
83736,47432
83790,47410
83869,47394
83928,47395
84006,47411
84060,47434
84127,47479
84168,47520
84213,47587
84235,47641
84251,47719
" /> 
<polyline style="fill-rule:evenodd;"
points="84251,48780
84250,48851
84232,48927
84208,48982
84163,49046
84119,49088
84052,49130
83996,49152
83919,49165
83858,49164
83782,49147
83726,49123
83662,49078
83620,49035
83577,48969
83555,48913
83541,48835
83542,48775
83558,48698
83582,48643
83627,48577
83669,48536
83736,48492
83790,48470
83869,48455
83928,48456
84006,48472
84060,48494
84127,48539
84168,48581
84213,48648
84235,48702
84251,48780
" /> 
<polyline style="fill-rule:evenodd;"
points="84329,54079
83170,54079
83170,52920
84329,52920
84329,54079
" /> 
<polyline style="fill-rule:evenodd;"
points="84379,40217
84378,40293
84360,40374
84333,40434
84285,40502
84238,40547
84167,40592
84106,40615
84024,40630
83959,40628
83877,40610
83818,40584
83749,40537
83704,40490
83658,40419
83635,40359
83619,40276
83620,40212
83638,40129
83663,40070
83711,40001
83757,39956
83828,39909
83887,39885
83970,39869
84034,39870
84117,39887
84176,39912
84247,39959
84291,40004
84339,40076
84363,40134
84379,40217
" /> 
<polyline style="fill-rule:evenodd;"
points="84379,44217
84378,44293
84360,44374
84333,44434
84285,44502
84238,44547
84167,44592
84106,44615
84024,44630
83959,44628
83877,44610
83818,44584
83749,44537
83704,44490
83658,44419
83635,44359
83619,44276
83620,44212
83638,44129
83663,44070
83711,44001
83757,43956
83828,43909
83887,43885
83970,43869
84034,43870
84117,43887
84176,43912
84247,43959
84291,44004
84339,44076
84363,44134
84379,44217
" /> 
<polyline style="fill-rule:evenodd;"
points="84604,51104
83895,51104
83895,50395
84604,50395
84604,51104
" /> 
<polyline style="fill-rule:evenodd;"
points="85379,35717
85378,35793
85360,35874
85333,35934
85285,36002
85238,36047
85167,36092
85106,36115
85024,36130
84959,36128
84877,36110
84818,36084
84749,36037
84704,35990
84658,35919
84635,35859
84619,35776
84620,35712
84638,35629
84663,35570
84711,35501
84757,35456
84828,35409
84887,35385
84970,35369
85034,35370
85117,35387
85176,35412
85247,35459
85291,35504
85339,35576
85363,35634
85379,35717
" /> 
<polyline style="fill-rule:evenodd;"
points="85604,50719
85603,50790
85586,50866
85561,50922
85516,50985
85472,51027
85406,51069
85350,51091
85272,51105
85212,51103
85135,51087
85080,51062
85015,51017
84974,50974
84931,50908
84909,50852
84894,50774
84895,50715
84912,50637
84935,50582
84980,50517
85022,50475
85089,50432
85144,50410
85223,50394
85281,50395
85360,50411
85414,50434
85481,50479
85522,50520
85567,50587
85589,50641
85604,50719
" /> 
<polyline style="fill-rule:evenodd;"
points="86329,53447
86327,53568
86300,53687
86258,53783
86187,53883
86111,53955
86008,54021
85910,54059
85790,54080
85685,54078
85565,54052
85470,54010
85369,53940
85296,53865
85230,53761
85191,53665
85169,53543
85171,53440
85196,53319
85237,53224
85307,53121
85381,53049
85485,52981
85580,52943
85702,52919
85805,52920
85927,52945
86022,52985
86125,53055
86197,53127
86266,53231
86305,53326
86329,53447
" /> 
<polyline style="fill-rule:evenodd;"
points="86879,42967
86878,43043
86860,43124
86833,43184
86785,43252
86738,43297
86667,43342
86606,43365
86524,43380
86459,43378
86377,43360
86318,43334
86249,43287
86204,43240
86158,43169
86135,43109
86119,43026
86120,42962
86138,42879
86163,42820
86211,42751
86257,42706
86328,42659
86387,42635
86470,42619
86534,42620
86617,42637
86676,42662
86747,42709
86791,42754
86839,42826
86863,42884
86879,42967
" /> 
<polyline style="fill-rule:evenodd;"
points="86879,46967
86878,47043
86860,47124
86833,47184
86785,47252
86738,47297
86667,47342
86606,47365
86524,47380
86459,47378
86377,47360
86318,47334
86249,47287
86204,47240
86158,47169
86135,47109
86119,47026
86120,46962
86138,46879
86163,46820
86211,46751
86257,46706
86328,46659
86387,46635
86470,46619
86534,46620
86617,46637
86676,46662
86747,46709
86791,46754
86839,46826
86863,46884
86879,46967
" /> 
<polyline style="fill-rule:evenodd;"
points="87093,38252
87085,38329
87063,38402
87026,38470
86977,38529
86917,38578
86850,38613
86776,38636
86688,38644
86311,38644
86305,38644
86295,38643
86294,38643
86218,38635
86218,38635
86217,38634
86145,38612
86077,38574
86019,38525
85970,38465
85935,38397
85913,38323
85906,38247
85914,38170
85936,38097
85973,38029
86022,37970
86082,37921
86149,37886
86223,37863
86311,37855
86688,37855
86694,37855
86704,37856
86705,37856
86781,37864
86781,37864
86782,37865
86854,37887
86922,37925
86980,37974
87029,38034
87064,38102
87086,38176
87093,38252
" /> 
<polyline style="fill-rule:evenodd;"
points="87093,39252
87085,39329
87063,39402
87026,39470
86977,39529
86917,39578
86850,39613
86776,39636
86688,39644
86311,39644
86305,39644
86295,39643
86294,39643
86218,39635
86218,39635
86217,39634
86145,39612
86077,39574
86019,39525
85970,39465
85935,39397
85913,39323
85906,39247
85914,39170
85936,39097
85973,39029
86022,38970
86082,38921
86149,38886
86223,38863
86311,38855
86688,38855
86694,38855
86704,38856
86705,38856
86781,38864
86781,38864
86782,38865
86854,38887
86922,38925
86980,38974
87029,39034
87064,39102
87086,39176
87093,39252
" /> 
<polyline style="fill-rule:evenodd;"
points="87093,40252
87085,40329
87063,40402
87026,40470
86977,40529
86917,40578
86850,40613
86776,40636
86688,40644
86311,40644
86305,40644
86295,40643
86294,40643
86218,40635
86218,40635
86217,40634
86145,40612
86077,40574
86019,40525
85970,40465
85935,40397
85913,40323
85906,40247
85914,40170
85936,40097
85973,40029
86022,39970
86082,39921
86149,39886
86223,39863
86311,39855
86688,39855
86694,39855
86704,39856
86705,39856
86781,39864
86781,39864
86782,39865
86854,39887
86922,39925
86980,39974
87029,40034
87064,40102
87086,40176
87093,40252
" /> 
<polyline style="fill-rule:evenodd;"
points="87093,41252
87085,41329
87063,41402
87026,41470
86977,41529
86917,41578
86850,41613
86776,41636
86688,41644
86311,41644
86305,41644
86295,41643
86294,41643
86218,41635
86218,41635
86217,41634
86145,41612
86077,41574
86019,41525
85970,41465
85935,41397
85913,41323
85906,41247
85914,41170
85936,41097
85973,41029
86022,40970
86082,40921
86149,40886
86223,40863
86311,40855
86688,40855
86694,40855
86704,40856
86705,40856
86781,40864
86781,40864
86782,40865
86854,40887
86922,40925
86980,40974
87029,41034
87064,41102
87086,41176
87093,41252
" /> 
</g> 
</svg>
