<?xml version="1.0" standalone="no"?>
 <!DOCTYPE svg PUBLIC "-//W3C//DTD SVG 1.1//EN" 
 "http://www.w3.org/Graphics/SVG/1.1/DTD/svg11.dtd"> 
<svg xmlns="http://www.w3.org/2000/svg" version="1.1" 
    width="21.0007cm" height="29.7002cm" viewBox="0 0 82680 116930 ">
<title>SVG Picture created as filter_caps-B_Cu.svg date 2015/06/29 16:49:19 </title>
  <desc>Picture generated by PCBNEW </desc>
<g style="fill:#000000; fill-opacity:1;stroke:#000000; stroke-opacity:1;
stroke-linecap:round; stroke-linejoin:round; "
 transform="translate(0 0) scale(1 1)">
</g>
<g style="fill:#000000; fill-opacity:0.0; 
stroke:#000000; stroke-width:39.3701; stroke-opacity:1; 
stroke-linecap:round; stroke-linejoin:round;">
<circle cx="32250" cy="39000" r="500" /> 
<circle cx="32250" cy="20000" r="500" /> 
<circle cx="66750" cy="20000" r="500" /> 
<circle cx="66750" cy="39000" r="500" /> 
</g>
<g style="fill:#000000; fill-opacity:0.0; 
stroke:#000000; stroke-width:1181.1; stroke-opacity:1; 
stroke-linecap:round; stroke-linejoin:round;">
<path d="M43840 38000
L42659 38000
" />
<path d="M43840 34000
L42659 34000
" />
<path d="M58840 25000
L57659 25000
" />
<path d="M58840 21000
L57659 21000
" />
</g>
<g style="fill:#000000; fill-opacity:0.0; 
stroke:#000000; stroke-width:59.0551; stroke-opacity:1; 
stroke-linecap:round; stroke-linejoin:round;">
</g>
<g style="fill:#000000; fill-opacity:1.0; 
stroke:#000000; stroke-width:59.0551; stroke-opacity:1; 
stroke-linecap:round; stroke-linejoin:round;">
<circle cx="32750" cy="27500" r="470.472" /> 
<circle cx="32750" cy="29500" r="470.472" /> 
<circle cx="32750" cy="31500" r="470.472" /> 
</g>
<g style="fill:#000000; fill-opacity:1.0; 
stroke:#000000; stroke-width:1181.1; stroke-opacity:1; 
stroke-linecap:round; stroke-linejoin:round;">
<path d="M58840 38000
L57659 38000
" />
<path d="M58840 34000
L57659 34000
" />
<path d="M43840 25000
L42659 25000
" />
<path d="M43840 21000
L42659 21000
" />
</g>
<g style="fill:#000000; fill-opacity:1.0; 
stroke:#000000; stroke-width:59.0551; stroke-opacity:1; 
stroke-linecap:round; stroke-linejoin:round;">
<circle cx="66250" cy="33250" r="470.472" /> 
<circle cx="66250" cy="31250" r="470.472" /> 
<circle cx="66250" cy="27750" r="470.472" /> 
<circle cx="66250" cy="25750" r="470.472" /> 
</g>
<g style="fill:#000000; fill-opacity:1.0; 
stroke:#000000; stroke-width:1181.1; stroke-opacity:1; 
stroke-linecap:round; stroke-linejoin:round;">
<path d="M50946 32000
L50553 32000
" />
<path d="M50946 38000
L50553 38000
" />
<path d="M35946 21000
L35553 21000
" />
<path d="M35946 27000
L35553 27000
" />
<path d="M50946 21000
L50553 21000
" />
<path d="M50946 27000
L50553 27000
" />
<path d="M35946 32000
L35553 32000
" />
<path d="M35946 38000
L35553 38000
" />
</g>
<g style="fill:#000000; fill-opacity:1.0; 
stroke:#000000; stroke-width:787.402; stroke-opacity:1; 
stroke-linecap:round; stroke-linejoin:round;">
<path d="M58250 21000
L61500 21000
" />
<path d="M61500 21000
L66250 25750
" />
<path d="M50750 21000
L58250 21000
" />
<path d="M43250 21000
L50750 21000
" />
<path d="M35750 21000
L43250 21000
" />
<path d="M32750 27500
L32750 24000
" />
<path d="M32750 24000
L35750 21000
" />
<path d="M58250 38000
L61500 38000
" />
<path d="M61500 38000
L66250 33250
" />
<path d="M50750 38000
L58250 38000
" />
<path d="M43250 38000
L50750 38000
" />
<path d="M35750 38000
L43250 38000
" />
<path d="M32750 31500
L32750 35000
" />
<path d="M32750 35000
L35750 38000
" />
</g>
<g style="fill:#000000; fill-opacity:1.0; 
stroke:#000000; stroke-width:59.0551; stroke-opacity:1; 
stroke-linecap:round; stroke-linejoin:round;">
<polyline style="fill-rule:evenodd;"
points="67842,40092
67809,40092
67809,39110
67809,39000
67809,38889
67809,20110
67809,20000
67809,19889
67809,19888
67809,19888
67809,19888
67771,19697
67686,19491
67686,19491
67578,19329
67578,19329
67578,19328
67431,19182
67421,19172
67421,19172
67420,19171
67258,19063
67258,19062
67052,18977
66860,18940
66654,18940
66639,18940
66639,18940
66638,18940
66637,18940
66447,18978
66241,19063
66241,19063
66079,19171
66079,19171
66078,19171
65932,19318
65922,19328
65922,19328
65921,19329
65813,19491
65812,19491
65727,19697
65690,19889
65690,20000
65690,20110
65727,20302
65812,20508
65813,20508
65921,20670
65922,20671
65922,20671
65932,20681
66078,20828
66079,20828
66079,20828
66241,20936
66241,20936
66447,21021
66637,21059
66638,21059
66639,21059
66639,21059
66654,21059
66860,21059
67052,21022
67258,20937
67258,20936
67420,20828
67421,20827
67421,20827
67431,20817
67578,20671
67578,20670
67578,20670
67686,20508
67686,20508
67771,20302
67809,20111
67809,20111
67809,20111
67809,20110
67809,38889
67809,38888
67809,38888
67809,38888
67771,38697
67686,38491
67686,38491
67578,38329
67578,38329
67578,38328
67431,38182
67421,38172
67421,38172
67420,38171
67301,38091
67301,33041
67301,25541
67141,25155
66846,24859
66588,24752
62168,20331
61861,20127
61500,20055
59475,20055
59311,19945
58874,19858
57625,19858
57188,19945
57024,20055
51574,20055
51409,19945
50973,19858
50526,19858
50090,19945
49925,20055
44475,20055
44311,19945
43874,19858
42625,19858
42188,19945
42024,20055
36574,20055
36409,19945
35973,19858
35526,19858
35090,19945
34719,20192
34472,20563
34385,21000
34389,21023
33309,22103
33309,20110
33309,20000
33309,19889
33309,19888
33309,19888
33309,19888
33271,19697
33186,19491
33186,19491
33078,19329
33078,19329
33078,19328
32931,19182
32921,19172
32921,19172
32920,19171
32758,19063
32758,19062
32552,18977
32360,18940
32154,18940
32139,18940
32139,18940
32138,18940
32137,18940
31947,18978
31741,19063
31741,19063
31579,19171
31579,19171
31578,19171
31432,19318
31422,19328
31422,19328
31421,19329
31313,19491
31312,19491
31227,19697
31190,19889
31190,20000
31190,20110
31227,20302
31312,20508
31313,20508
31421,20670
31422,20671
31422,20671
31432,20681
31578,20828
31579,20828
31579,20828
31741,20936
31741,20936
31947,21021
32137,21059
32138,21059
32139,21059
32139,21059
32154,21059
32360,21059
32552,21022
32758,20937
32758,20936
32920,20828
32921,20827
32921,20827
32931,20817
33078,20671
33078,20670
33078,20670
33186,20508
33186,20508
33271,20302
33309,20111
33309,20111
33309,20111
33309,20110
33309,22103
32081,23331
31877,23638
31805,24000
31805,27034
31699,27289
31698,27708
31858,28094
32153,28390
32539,28550
32958,28551
33344,28391
33640,28096
33800,27710
33801,27291
33694,27034
33694,24391
35944,22141
35973,22141
36409,22054
36574,21944
42024,21944
42188,22054
42625,22141
43874,22141
44311,22054
44475,21944
49925,21944
50090,22054
50526,22141
50973,22141
51409,22054
51574,21944
57024,21944
57188,22054
57625,22141
58874,22141
59311,22054
59475,21944
61108,21944
65252,26088
65358,26344
65653,26640
66039,26800
66458,26801
66844,26641
67140,26346
67300,25960
67301,25541
67301,33041
67141,32655
66846,32359
66460,32199
66041,32198
65655,32358
65359,32653
65252,32911
61108,37055
59475,37055
59311,36945
58874,36858
57625,36858
57188,36945
57024,37055
51574,37055
51409,36945
50973,36858
50526,36858
50090,36945
49925,37055
44475,37055
44311,36945
43874,36858
42625,36858
42188,36945
42024,37055
36574,37055
36409,36945
35973,36858
35944,36858
33694,34608
33694,31965
33800,31710
33801,31291
33641,30905
33346,30609
32960,30449
32541,30448
32155,30608
31859,30903
31699,31289
31698,31708
31805,31965
31805,35000
31877,35361
32081,35668
34389,37976
34385,38000
34472,38436
34719,38807
35090,39054
35526,39141
35973,39141
36409,39054
36574,38944
42024,38944
42188,39054
42625,39141
43874,39141
44311,39054
44475,38944
49925,38944
50090,39054
50526,39141
50973,39141
51409,39054
51574,38944
57024,38944
57188,39054
57625,39141
58874,39141
59311,39054
59475,38944
61500,38944
61861,38872
62168,38668
66588,34247
66844,34141
67140,33846
67300,33460
67301,33041
67301,38091
67258,38063
67258,38062
67052,37977
66860,37940
66654,37940
66639,37940
66639,37940
66638,37940
66637,37940
66447,37978
66241,38063
66241,38063
66079,38171
66079,38171
66078,38171
65932,38318
65922,38328
65922,38328
65921,38329
65813,38491
65812,38491
65727,38697
65690,38889
65690,39000
65690,39110
65727,39302
65812,39508
65813,39508
65921,39670
65922,39671
65922,39671
65932,39681
66078,39828
66079,39828
66079,39828
66241,39936
66241,39936
66447,40021
66637,40059
66638,40059
66639,40059
66639,40059
66654,40059
66860,40059
67052,40022
67258,39937
67258,39936
67420,39828
67421,39827
67421,39827
67431,39817
67578,39671
67578,39670
67578,39670
67686,39508
67686,39508
67771,39302
67809,39111
67809,39111
67809,39111
67809,39110
67809,40092
33309,40092
33309,39110
33309,39000
33309,38889
33309,38888
33309,38888
33309,38888
33271,38697
33186,38491
33186,38491
33078,38329
33078,38329
33078,38328
32931,38182
32921,38172
32921,38172
32920,38171
32758,38063
32758,38062
32552,37977
32360,37940
32154,37940
32139,37940
32139,37940
32138,37940
32137,37940
31947,37978
31741,38063
31741,38063
31579,38171
31579,38171
31578,38171
31432,38318
31422,38328
31422,38328
31421,38329
31313,38491
31312,38491
31227,38697
31190,38889
31190,39000
31190,39110
31227,39302
31312,39508
31313,39508
31421,39670
31422,39671
31422,39671
31432,39681
31578,39828
31579,39828
31579,39828
31741,39936
31741,39936
31947,40021
32137,40059
32138,40059
32139,40059
32139,40059
32154,40059
32360,40059
32552,40022
32758,39937
32758,39936
32920,39828
32921,39827
32921,39827
32931,39817
33078,39671
33078,39670
33078,39670
33186,39508
33186,39508
33271,39302
33309,39111
33309,39111
33309,39111
33309,39110
33309,40092
31157,40092
31157,18907
67842,18907
67842,40092
" /> 
</g>
<g style="fill:#000000; fill-opacity:0.0; 
stroke:#000000; stroke-width:314.961; stroke-opacity:1; 
stroke-linecap:round; stroke-linejoin:round;">
<polyline fill="none;"
points="67842,40092
67809,40092
67809,39110
67809,39000
67809,38889
67809,20110
67809,20000
67809,19889
67809,19888
67809,19888
67809,19888
67771,19697
67686,19491
67686,19491
67578,19329
67578,19329
67578,19328
67431,19182
67421,19172
67421,19172
67420,19171
67258,19063
67258,19062
67052,18977
66860,18940
66654,18940
66639,18940
66639,18940
66638,18940
66637,18940
66447,18978
66241,19063
66241,19063
66079,19171
66079,19171
66078,19171
65932,19318
65922,19328
65922,19328
65921,19329
65813,19491
65812,19491
65727,19697
65690,19889
65690,20000
65690,20110
65727,20302
65812,20508
65813,20508
65921,20670
65922,20671
65922,20671
65932,20681
66078,20828
66079,20828
66079,20828
66241,20936
66241,20936
66447,21021
66637,21059
66638,21059
66639,21059
66639,21059
66654,21059
66860,21059
67052,21022
67258,20937
67258,20936
67420,20828
67421,20827
67421,20827
67431,20817
67578,20671
67578,20670
67578,20670
67686,20508
67686,20508
67771,20302
67809,20111
67809,20111
67809,20111
67809,20110
67809,38889
67809,38888
67809,38888
67809,38888
67771,38697
67686,38491
67686,38491
67578,38329
67578,38329
67578,38328
67431,38182
67421,38172
67421,38172
67420,38171
67301,38091
67301,33041
67301,25541
67141,25155
66846,24859
66588,24752
62168,20331
61861,20127
61500,20055
59475,20055
59311,19945
58874,19858
57625,19858
57188,19945
57024,20055
51574,20055
51409,19945
50973,19858
50526,19858
50090,19945
49925,20055
44475,20055
44311,19945
43874,19858
42625,19858
42188,19945
42024,20055
36574,20055
36409,19945
35973,19858
35526,19858
35090,19945
34719,20192
34472,20563
34385,21000
34389,21023
33309,22103
33309,20110
33309,20000
33309,19889
33309,19888
33309,19888
33309,19888
33271,19697
33186,19491
33186,19491
33078,19329
33078,19329
33078,19328
32931,19182
32921,19172
32921,19172
32920,19171
32758,19063
32758,19062
32552,18977
32360,18940
32154,18940
32139,18940
32139,18940
32138,18940
32137,18940
31947,18978
31741,19063
31741,19063
31579,19171
31579,19171
31578,19171
31432,19318
31422,19328
31422,19328
31421,19329
31313,19491
31312,19491
31227,19697
31190,19889
31190,20000
31190,20110
31227,20302
31312,20508
31313,20508
31421,20670
31422,20671
31422,20671
31432,20681
31578,20828
31579,20828
31579,20828
31741,20936
31741,20936
31947,21021
32137,21059
32138,21059
32139,21059
32139,21059
32154,21059
32360,21059
32552,21022
32758,20937
32758,20936
32920,20828
32921,20827
32921,20827
32931,20817
33078,20671
33078,20670
33078,20670
33186,20508
33186,20508
33271,20302
33309,20111
33309,20111
33309,20111
33309,20110
33309,22103
32081,23331
31877,23638
31805,24000
31805,27034
31699,27289
31698,27708
31858,28094
32153,28390
32539,28550
32958,28551
33344,28391
33640,28096
33800,27710
33801,27291
33694,27034
33694,24391
35944,22141
35973,22141
36409,22054
36574,21944
42024,21944
42188,22054
42625,22141
43874,22141
44311,22054
44475,21944
49925,21944
50090,22054
50526,22141
50973,22141
51409,22054
51574,21944
57024,21944
57188,22054
57625,22141
58874,22141
59311,22054
59475,21944
61108,21944
65252,26088
65358,26344
65653,26640
66039,26800
66458,26801
66844,26641
67140,26346
67300,25960
67301,25541
67301,33041
67141,32655
66846,32359
66460,32199
66041,32198
65655,32358
65359,32653
65252,32911
61108,37055
59475,37055
59311,36945
58874,36858
57625,36858
57188,36945
57024,37055
51574,37055
51409,36945
50973,36858
50526,36858
50090,36945
49925,37055
44475,37055
44311,36945
43874,36858
42625,36858
42188,36945
42024,37055
36574,37055
36409,36945
35973,36858
35944,36858
33694,34608
33694,31965
33800,31710
33801,31291
33641,30905
33346,30609
32960,30449
32541,30448
32155,30608
31859,30903
31699,31289
31698,31708
31805,31965
31805,35000
31877,35361
32081,35668
34389,37976
34385,38000
34472,38436
34719,38807
35090,39054
35526,39141
35973,39141
36409,39054
36574,38944
42024,38944
42188,39054
42625,39141
43874,39141
44311,39054
44475,38944
49925,38944
50090,39054
50526,39141
50973,39141
51409,39054
51574,38944
57024,38944
57188,39054
57625,39141
58874,39141
59311,39054
59475,38944
61500,38944
61861,38872
62168,38668
66588,34247
66844,34141
67140,33846
67300,33460
67301,33041
67301,38091
67258,38063
67258,38062
67052,37977
66860,37940
66654,37940
66639,37940
66639,37940
66638,37940
66637,37940
66447,37978
66241,38063
66241,38063
66079,38171
66079,38171
66078,38171
65932,38318
65922,38328
65922,38328
65921,38329
65813,38491
65812,38491
65727,38697
65690,38889
65690,39000
65690,39110
65727,39302
65812,39508
65813,39508
65921,39670
65922,39671
65922,39671
65932,39681
66078,39828
66079,39828
66079,39828
66241,39936
66241,39936
66447,40021
66637,40059
66638,40059
66639,40059
66639,40059
66654,40059
66860,40059
67052,40022
67258,39937
67258,39936
67420,39828
67421,39827
67421,39827
67431,39817
67578,39671
67578,39670
67578,39670
67686,39508
67686,39508
67771,39302
67809,39111
67809,39111
67809,39111
67809,39110
67809,40092
33309,40092
33309,39110
33309,39000
33309,38889
33309,38888
33309,38888
33309,38888
33271,38697
33186,38491
33186,38491
33078,38329
33078,38329
33078,38328
32931,38182
32921,38172
32921,38172
32920,38171
32758,38063
32758,38062
32552,37977
32360,37940
32154,37940
32139,37940
32139,37940
32138,37940
32137,37940
31947,37978
31741,38063
31741,38063
31579,38171
31579,38171
31578,38171
31432,38318
31422,38328
31422,38328
31421,38329
31313,38491
31312,38491
31227,38697
31190,38889
31190,39000
31190,39110
31227,39302
31312,39508
31313,39508
31421,39670
31422,39671
31422,39671
31432,39681
31578,39828
31579,39828
31579,39828
31741,39936
31741,39936
31947,40021
32137,40059
32138,40059
32139,40059
32139,40059
32154,40059
32360,40059
32552,40022
32758,39937
32758,39936
32920,39828
32921,39827
32921,39827
32931,39817
33078,39671
33078,39670
33078,39670
33186,39508
33186,39508
33271,39302
33309,39111
33309,39111
33309,39111
33309,39110
33309,40092
31157,40092
31157,18907
67842,18907
67842,40092
" /> 
</g>
<g style="fill:#FFFFFF; fill-opacity:0.0; 
stroke:#FFFFFF; stroke-width:59.0551; stroke-opacity:1; 
stroke-linecap:round; stroke-linejoin:round;">
</g>
<g style="fill:#FFFFFF; fill-opacity:1.0; 
stroke:#FFFFFF; stroke-width:59.0551; stroke-opacity:1; 
stroke-linecap:round; stroke-linejoin:round;">
<circle cx="43250" cy="38000" r="39.3701" /> 
<circle cx="43250" cy="34000" r="39.3701" /> 
<circle cx="58250" cy="25000" r="39.3701" /> 
<circle cx="58250" cy="21000" r="39.3701" /> 
<circle cx="32750" cy="27500" r="39.3701" /> 
<circle cx="32750" cy="29500" r="39.3701" /> 
<circle cx="32750" cy="31500" r="39.3701" /> 
<circle cx="58250" cy="38000" r="39.3701" /> 
<circle cx="58250" cy="34000" r="39.3701" /> 
<circle cx="43250" cy="25000" r="39.3701" /> 
<circle cx="43250" cy="21000" r="39.3701" /> 
<circle cx="66250" cy="33250" r="39.3701" /> 
<circle cx="66250" cy="31250" r="39.3701" /> 
<circle cx="66250" cy="27750" r="39.3701" /> 
<circle cx="66250" cy="25750" r="39.3701" /> 
<circle cx="50750" cy="32000" r="39.3701" /> 
<circle cx="50750" cy="38000" r="39.3701" /> 
<circle cx="35750" cy="21000" r="39.3701" /> 
<circle cx="35750" cy="27000" r="39.3701" /> 
<circle cx="50750" cy="21000" r="39.3701" /> 
<circle cx="50750" cy="27000" r="39.3701" /> 
<circle cx="35750" cy="32000" r="39.3701" /> 
<circle cx="35750" cy="38000" r="39.3701" /> 
</g> 
</svg>
