<?xml version="1.0" standalone="no"?>
 <!DOCTYPE svg PUBLIC "-//W3C//DTD SVG 1.1//EN" 
 "http://www.w3.org/Graphics/SVG/1.1/DTD/svg11.dtd"> 
<svg xmlns="http://www.w3.org/2000/svg" version="1.1" 
    width="21.0007cm" height="29.7002cm" viewBox="0 0 82680 116930 ">
<title>SVG Picture created as filter_caps-F_Mask.svg date 2015/06/29 16:49:19 </title>
  <desc>Picture generated by PCBNEW </desc>
<g style="fill:#000000; fill-opacity:1;stroke:#000000; stroke-opacity:1;
stroke-linecap:round; stroke-linejoin:round; "
 transform="translate(0 0) scale(1 1)">
</g>
<g style="fill:#000000; fill-opacity:0.0; 
stroke:#000000; stroke-width:39.3701; stroke-opacity:1; 
stroke-linecap:round; stroke-linejoin:round;">
<circle cx="32250" cy="39000" r="500" /> 
<circle cx="32250" cy="20000" r="500" /> 
<circle cx="66750" cy="20000" r="500" /> 
<circle cx="66750" cy="39000" r="500" /> 
</g>
<g style="fill:#000000; fill-opacity:1.0; 
stroke:#000000; stroke-width:59.0551; stroke-opacity:1; 
stroke-linecap:round; stroke-linejoin:round;">
<polyline style="fill-rule:evenodd;"
points="33329,27447
33327,27568
33300,27687
33258,27783
33187,27883
33111,27955
33008,28021
32910,28059
32790,28080
32685,28078
32565,28052
32470,28010
32369,27940
32296,27865
32230,27761
32191,27665
32169,27543
32171,27440
32196,27319
32237,27224
32307,27121
32381,27049
32485,26981
32580,26943
32702,26919
32805,26920
32927,26945
33022,26985
33125,27055
33197,27127
33266,27231
33305,27326
33329,27447
" /> 
<polyline style="fill-rule:evenodd;"
points="33329,29447
33327,29568
33300,29687
33258,29783
33187,29883
33111,29955
33008,30021
32910,30059
32790,30080
32685,30078
32565,30052
32470,30010
32369,29940
32296,29865
32230,29761
32191,29665
32169,29543
32171,29440
32196,29319
32237,29224
32307,29121
32381,29049
32485,28981
32580,28943
32702,28919
32805,28920
32927,28945
33022,28985
33125,29055
33197,29127
33266,29231
33305,29326
33329,29447
" /> 
<polyline style="fill-rule:evenodd;"
points="33329,31447
33327,31568
33300,31687
33258,31783
33187,31883
33111,31955
33008,32021
32910,32059
32790,32080
32685,32078
32565,32052
32470,32010
32369,31940
32296,31865
32230,31761
32191,31665
32169,31543
32171,31440
32196,31319
32237,31224
32307,31121
32381,31049
32485,30981
32580,30943
32702,30919
32805,30920
32927,30945
33022,30985
33125,31055
33197,31127
33266,31231
33305,31326
33329,31447
" /> 
<polyline style="fill-rule:evenodd;"
points="36620,21004
36606,21134
36568,21259
36506,21374
36423,21474
36321,21557
36206,21618
36081,21656
35939,21670
35560,21670
35550,21670
35539,21669
35539,21669
35409,21654
35409,21654
35408,21654
35285,21615
35169,21551
35070,21468
34988,21366
34928,21251
34891,21124
34879,20995
34893,20865
34931,20740
34993,20625
35076,20525
35178,20442
35293,20381
35418,20343
35560,20329
35939,20329
35949,20329
35960,20330
35960,20330
36090,20345
36090,20345
36091,20345
36214,20384
36330,20448
36429,20531
36511,20633
36571,20748
36608,20875
36620,21004
" /> 
<polyline style="fill-rule:evenodd;"
points="36620,27004
36606,27134
36568,27259
36506,27374
36423,27474
36321,27557
36206,27618
36081,27656
35939,27670
35560,27670
35550,27670
35539,27669
35539,27669
35409,27654
35409,27654
35408,27654
35285,27615
35169,27551
35070,27468
34988,27366
34928,27251
34891,27124
34879,26995
34893,26865
34931,26740
34993,26625
35076,26525
35178,26442
35293,26381
35418,26343
35560,26329
35939,26329
35949,26329
35960,26330
35960,26330
36090,26345
36090,26345
36091,26345
36214,26384
36330,26448
36429,26531
36511,26633
36571,26748
36608,26875
36620,27004
" /> 
<polyline style="fill-rule:evenodd;"
points="36620,32004
36606,32134
36568,32259
36506,32374
36423,32474
36321,32557
36206,32618
36081,32656
35939,32670
35560,32670
35550,32670
35539,32669
35539,32669
35409,32654
35409,32654
35408,32654
35285,32615
35169,32551
35070,32468
34988,32366
34928,32251
34891,32124
34879,31995
34893,31865
34931,31740
34993,31625
35076,31525
35178,31442
35293,31381
35418,31343
35560,31329
35939,31329
35949,31329
35960,31330
35960,31330
36090,31345
36090,31345
36091,31345
36214,31384
36330,31448
36429,31531
36511,31633
36571,31748
36608,31875
36620,32004
" /> 
<polyline style="fill-rule:evenodd;"
points="36620,38004
36606,38134
36568,38259
36506,38374
36423,38474
36321,38557
36206,38618
36081,38656
35939,38670
35560,38670
35550,38670
35539,38669
35539,38669
35409,38654
35409,38654
35408,38654
35285,38615
35169,38551
35070,38468
34988,38366
34928,38251
34891,38124
34879,37995
34893,37865
34931,37740
34993,37625
35076,37525
35178,37442
35293,37381
35418,37343
35560,37329
35939,37329
35949,37329
35960,37330
35960,37330
36090,37345
36090,37345
36091,37345
36214,37384
36330,37448
36429,37531
36511,37633
36571,37748
36608,37875
36620,38004
" /> 
<polyline style="fill-rule:evenodd;"
points="44516,21004
44502,21134
44464,21259
44401,21374
44318,21474
44217,21557
44102,21618
43976,21656
43835,21670
42664,21670
42654,21670
42644,21669
42644,21669
42514,21654
42514,21654
42513,21654
42390,21615
42274,21551
42175,21468
42092,21366
42032,21251
41995,21124
41983,20995
41997,20865
42035,20740
42098,20625
42181,20525
42282,20442
42397,20381
42523,20343
42664,20329
43835,20329
43845,20329
43855,20330
43855,20330
43985,20345
43985,20345
43986,20345
44109,20384
44225,20448
44324,20531
44407,20633
44467,20748
44504,20875
44516,21004
" /> 
<polyline style="fill-rule:evenodd;"
points="44516,25004
44502,25134
44464,25259
44401,25374
44318,25474
44217,25557
44102,25618
43976,25656
43835,25670
42664,25670
42654,25670
42644,25669
42644,25669
42514,25654
42514,25654
42513,25654
42390,25615
42274,25551
42175,25468
42092,25366
42032,25251
41995,25124
41983,24995
41997,24865
42035,24740
42098,24625
42181,24525
42282,24442
42397,24381
42523,24343
42664,24329
43835,24329
43845,24329
43855,24330
43855,24330
43985,24345
43985,24345
43986,24345
44109,24384
44225,24448
44324,24531
44407,24633
44467,24748
44504,24875
44516,25004
" /> 
<polyline style="fill-rule:evenodd;"
points="44516,34004
44502,34134
44464,34259
44401,34374
44318,34474
44217,34557
44102,34618
43976,34656
43835,34670
42664,34670
42654,34670
42644,34669
42644,34669
42514,34654
42514,34654
42513,34654
42390,34615
42274,34551
42175,34468
42092,34366
42032,34251
41995,34124
41983,33995
41997,33865
42035,33740
42098,33625
42181,33525
42282,33442
42397,33381
42523,33343
42664,33329
43835,33329
43845,33329
43855,33330
43855,33330
43985,33345
43985,33345
43986,33345
44109,33384
44225,33448
44324,33531
44407,33633
44467,33748
44504,33875
44516,34004
" /> 
<polyline style="fill-rule:evenodd;"
points="44516,38004
44502,38134
44464,38259
44401,38374
44318,38474
44217,38557
44102,38618
43976,38656
43835,38670
42664,38670
42654,38670
42644,38669
42644,38669
42514,38654
42514,38654
42513,38654
42390,38615
42274,38551
42175,38468
42092,38366
42032,38251
41995,38124
41983,37995
41997,37865
42035,37740
42098,37625
42181,37525
42282,37442
42397,37381
42523,37343
42664,37329
43835,37329
43845,37329
43855,37330
43855,37330
43985,37345
43985,37345
43986,37345
44109,37384
44225,37448
44324,37531
44407,37633
44467,37748
44504,37875
44516,38004
" /> 
<polyline style="fill-rule:evenodd;"
points="51620,21004
51606,21134
51568,21259
51506,21374
51423,21474
51321,21557
51206,21618
51081,21656
50939,21670
50560,21670
50550,21670
50539,21669
50539,21669
50409,21654
50409,21654
50408,21654
50285,21615
50169,21551
50070,21468
49988,21366
49928,21251
49891,21124
49879,20995
49893,20865
49931,20740
49993,20625
50076,20525
50178,20442
50293,20381
50418,20343
50560,20329
50939,20329
50949,20329
50960,20330
50960,20330
51090,20345
51090,20345
51091,20345
51214,20384
51330,20448
51429,20531
51511,20633
51571,20748
51608,20875
51620,21004
" /> 
<polyline style="fill-rule:evenodd;"
points="51620,27004
51606,27134
51568,27259
51506,27374
51423,27474
51321,27557
51206,27618
51081,27656
50939,27670
50560,27670
50550,27670
50539,27669
50539,27669
50409,27654
50409,27654
50408,27654
50285,27615
50169,27551
50070,27468
49988,27366
49928,27251
49891,27124
49879,26995
49893,26865
49931,26740
49993,26625
50076,26525
50178,26442
50293,26381
50418,26343
50560,26329
50939,26329
50949,26329
50960,26330
50960,26330
51090,26345
51090,26345
51091,26345
51214,26384
51330,26448
51429,26531
51511,26633
51571,26748
51608,26875
51620,27004
" /> 
<polyline style="fill-rule:evenodd;"
points="51620,32004
51606,32134
51568,32259
51506,32374
51423,32474
51321,32557
51206,32618
51081,32656
50939,32670
50560,32670
50550,32670
50539,32669
50539,32669
50409,32654
50409,32654
50408,32654
50285,32615
50169,32551
50070,32468
49988,32366
49928,32251
49891,32124
49879,31995
49893,31865
49931,31740
49993,31625
50076,31525
50178,31442
50293,31381
50418,31343
50560,31329
50939,31329
50949,31329
50960,31330
50960,31330
51090,31345
51090,31345
51091,31345
51214,31384
51330,31448
51429,31531
51511,31633
51571,31748
51608,31875
51620,32004
" /> 
<polyline style="fill-rule:evenodd;"
points="51620,38004
51606,38134
51568,38259
51506,38374
51423,38474
51321,38557
51206,38618
51081,38656
50939,38670
50560,38670
50550,38670
50539,38669
50539,38669
50409,38654
50409,38654
50408,38654
50285,38615
50169,38551
50070,38468
49988,38366
49928,38251
49891,38124
49879,37995
49893,37865
49931,37740
49993,37625
50076,37525
50178,37442
50293,37381
50418,37343
50560,37329
50939,37329
50949,37329
50960,37330
50960,37330
51090,37345
51090,37345
51091,37345
51214,37384
51330,37448
51429,37531
51511,37633
51571,37748
51608,37875
51620,38004
" /> 
<polyline style="fill-rule:evenodd;"
points="59516,21004
59502,21134
59464,21259
59401,21374
59318,21474
59217,21557
59102,21618
58976,21656
58835,21670
57664,21670
57654,21670
57644,21669
57644,21669
57514,21654
57514,21654
57513,21654
57390,21615
57274,21551
57175,21468
57092,21366
57032,21251
56995,21124
56983,20995
56997,20865
57035,20740
57098,20625
57181,20525
57282,20442
57397,20381
57523,20343
57664,20329
58835,20329
58845,20329
58855,20330
58855,20330
58985,20345
58985,20345
58986,20345
59109,20384
59225,20448
59324,20531
59407,20633
59467,20748
59504,20875
59516,21004
" /> 
<polyline style="fill-rule:evenodd;"
points="59516,25004
59502,25134
59464,25259
59401,25374
59318,25474
59217,25557
59102,25618
58976,25656
58835,25670
57664,25670
57654,25670
57644,25669
57644,25669
57514,25654
57514,25654
57513,25654
57390,25615
57274,25551
57175,25468
57092,25366
57032,25251
56995,25124
56983,24995
56997,24865
57035,24740
57098,24625
57181,24525
57282,24442
57397,24381
57523,24343
57664,24329
58835,24329
58845,24329
58855,24330
58855,24330
58985,24345
58985,24345
58986,24345
59109,24384
59225,24448
59324,24531
59407,24633
59467,24748
59504,24875
59516,25004
" /> 
<polyline style="fill-rule:evenodd;"
points="59516,34004
59502,34134
59464,34259
59401,34374
59318,34474
59217,34557
59102,34618
58976,34656
58835,34670
57664,34670
57654,34670
57644,34669
57644,34669
57514,34654
57514,34654
57513,34654
57390,34615
57274,34551
57175,34468
57092,34366
57032,34251
56995,34124
56983,33995
56997,33865
57035,33740
57098,33625
57181,33525
57282,33442
57397,33381
57523,33343
57664,33329
58835,33329
58845,33329
58855,33330
58855,33330
58985,33345
58985,33345
58986,33345
59109,33384
59225,33448
59324,33531
59407,33633
59467,33748
59504,33875
59516,34004
" /> 
<polyline style="fill-rule:evenodd;"
points="59516,38004
59502,38134
59464,38259
59401,38374
59318,38474
59217,38557
59102,38618
58976,38656
58835,38670
57664,38670
57654,38670
57644,38669
57644,38669
57514,38654
57514,38654
57513,38654
57390,38615
57274,38551
57175,38468
57092,38366
57032,38251
56995,38124
56983,37995
56997,37865
57035,37740
57098,37625
57181,37525
57282,37442
57397,37381
57523,37343
57664,37329
58835,37329
58845,37329
58855,37330
58855,37330
58985,37345
58985,37345
58986,37345
59109,37384
59225,37448
59324,37531
59407,37633
59467,37748
59504,37875
59516,38004
" /> 
<polyline style="fill-rule:evenodd;"
points="66829,25697
66827,25818
66800,25937
66758,26033
66687,26133
66611,26205
66508,26271
66410,26309
66290,26330
66185,26328
66065,26302
65970,26260
65869,26190
65796,26115
65730,26011
65691,25915
65669,25793
65671,25690
65696,25569
65737,25474
65807,25371
65881,25299
65985,25231
66080,25193
66202,25169
66305,25170
66427,25195
66522,25235
66625,25305
66697,25377
66766,25481
66805,25576
66829,25697
" /> 
<polyline style="fill-rule:evenodd;"
points="66829,27697
66827,27818
66800,27937
66758,28033
66687,28133
66611,28205
66508,28271
66410,28309
66290,28330
66185,28328
66065,28302
65970,28260
65869,28190
65796,28115
65730,28011
65691,27915
65669,27793
65671,27690
65696,27569
65737,27474
65807,27371
65881,27299
65985,27231
66080,27193
66202,27169
66305,27170
66427,27195
66522,27235
66625,27305
66697,27377
66766,27481
66805,27576
66829,27697
" /> 
<polyline style="fill-rule:evenodd;"
points="66829,31197
66827,31318
66800,31437
66758,31533
66687,31633
66611,31705
66508,31771
66410,31809
66290,31830
66185,31828
66065,31802
65970,31760
65869,31690
65796,31615
65730,31511
65691,31415
65669,31293
65671,31190
65696,31069
65737,30974
65807,30871
65881,30799
65985,30731
66080,30693
66202,30669
66305,30670
66427,30695
66522,30735
66625,30805
66697,30877
66766,30981
66805,31076
66829,31197
" /> 
<polyline style="fill-rule:evenodd;"
points="66829,33197
66827,33318
66800,33437
66758,33533
66687,33633
66611,33705
66508,33771
66410,33809
66290,33830
66185,33828
66065,33802
65970,33760
65869,33690
65796,33615
65730,33511
65691,33415
65669,33293
65671,33190
65696,33069
65737,32974
65807,32871
65881,32799
65985,32731
66080,32693
66202,32669
66305,32670
66427,32695
66522,32735
66625,32805
66697,32877
66766,32981
66805,33076
66829,33197
" /> 
</g> 
</svg>
