<?xml version="1.0" standalone="no"?>
 <!DOCTYPE svg PUBLIC "-//W3C//DTD SVG 1.1//EN" 
 "http://www.w3.org/Graphics/SVG/1.1/DTD/svg11.dtd"> 
<svg xmlns="http://www.w3.org/2000/svg" version="1.1" 
    width="41.9989cm" height="29.7002cm" viewBox="0 0 165350 116930 ">
<title>SVG Picture created as 7805-F_SilkS.svg date 2015/06/29 16:52:59 </title>
  <desc>Picture generated by PCBNEW </desc>
<g style="fill:#000000; fill-opacity:1;stroke:#000000; stroke-opacity:1;
stroke-linecap:round; stroke-linejoin:round; "
 transform="translate(0 0) scale(1 1)">
</g>
<g style="fill:#000000; fill-opacity:0.0; 
stroke:#000000; stroke-width:39.3701; stroke-opacity:1; 
stroke-linecap:round; stroke-linejoin:round;">
<circle cx="53750" cy="14000" r="500" /> 
<circle cx="33250" cy="14000" r="500" /> 
<circle cx="33250" cy="21000" r="500" /> 
<circle cx="53750" cy="21000" r="500" /> 
</g>
<g style="fill:#000000; fill-opacity:0.0; 
stroke:#000000; stroke-width:120; stroke-opacity:1; 
stroke-linecap:round; stroke-linejoin:round;">
<path d="M54500 15500
L54500 19500
" />
<path d="M55000 15500
L52000 15500
" />
<path d="M52000 15500
L52000 19500
" />
<path d="M52000 19500
L55000 19500
" />
<path d="M55000 19500
L55000 15500
" />
</g>
<g style="fill:#000000; fill-opacity:0.0; 
stroke:#000000; stroke-width:50; stroke-opacity:1; 
stroke-linecap:round; stroke-linejoin:round;">
<circle cx="38250" cy="17000" r="1250" /> 
</g>
<g style="fill:#000000; fill-opacity:0.0; 
stroke:#000000; stroke-width:120; stroke-opacity:1; 
stroke-linecap:round; stroke-linejoin:round;">
<path d="M35500 17750
L35500 14750
" />
<path d="M35500 14750
L36500 14750
" />
<path d="M36500 14750
L36500 17750
" />
<path d="M36500 17750
L35500 17750
" />
<path d="M35500 15000
L36500 15000
" />
<path d="M36500 15250
L35500 15250
" />
<path d="M36000 17750
L36000 18250
" />
<path d="M36000 14750
L36000 14250
" />
<path d="M43750 15250
L40750 15250
" />
<path d="M40750 15250
L40750 14250
" />
<path d="M40750 14250
L43750 14250
" />
<path d="M43750 14250
L43750 15250
" />
<path d="M41000 15250
L41000 14250
" />
<path d="M41250 14250
L41250 15250
" />
<path d="M43750 14750
L44250 14750
" />
<path d="M40750 14750
L40250 14750
" />
<path d="M32500 19500
L32500 15500
" />
<path d="M32000 19500
L35000 19500
" />
<path d="M35000 19500
L35000 15500
" />
<path d="M35000 15500
L32000 15500
" />
<path d="M32000 15500
L32000 19500
" />
<circle cx="47250" cy="18750" r="1000" /> 
<path d="M47000 17750
L47000 18000
" />
<path d="M47000 18000
L47500 18000
" />
<path d="M47500 18000
L47500 17750
" />
</g>
<g style="fill:#000000; fill-opacity:0.0; 
stroke:#000000; stroke-width:50; stroke-opacity:1; 
stroke-linecap:round; stroke-linejoin:round;">
<circle cx="45250" cy="17500" r="1001.25" /> 
<circle cx="50500" cy="19750" r="1001.25" /> 
</g>
<g style="fill:#000000; fill-opacity:0.0; 
stroke:#000000; stroke-width:120; stroke-opacity:1; 
stroke-linecap:round; stroke-linejoin:round;">
<path d="M48500 20500
L48100 20500
" />
<path d="M48100 20500
L48100 20900
" />
<path d="M48100 20900
L44900 20900
" />
<path d="M44900 20900
L44900 20100
" />
<path d="M44900 20100
L48100 20100
" />
<path d="M48100 20100
L48100 20500
" />
<path d="M48100 20700
L47900 20900
" />
<path d="M44500 20500
L44900 20500
" />
<path d="M47000 16750
L47400 16750
" />
<path d="M47400 16750
L47400 16350
" />
<path d="M47400 16350
L50600 16350
" />
<path d="M50600 16350
L50600 17150
" />
<path d="M50600 17150
L47400 17150
" />
<path d="M47400 17150
L47400 16750
" />
<path d="M47400 16550
L47600 16350
" />
<path d="M51000 16750
L50600 16750
" />
<path d="M42850 18900
L42850 16100
" />
<path d="M42850 16100
L43650 16100
" />
<path d="M43650 16100
L43650 18900
" />
<path d="M43650 18900
L42850 18900
" />
<path d="M43050 18900
L42850 18700
" />
<path d="M48600 17600
L51400 17600
" />
<path d="M51400 17600
L51400 18400
" />
<path d="M51400 18400
L48600 18400
" />
<path d="M48600 18400
L48600 17600
" />
<path d="M48600 17800
L48800 17600
" />
<path d="M40850 18900
L40850 16100
" />
<path d="M40850 16100
L41650 16100
" />
<path d="M41650 16100
L41650 18900
" />
<path d="M41650 18900
L40850 18900
" />
<path d="M41050 18900
L40850 18700
" />
<path d="M46250 13250
L50250 13250
" />
<path d="M46250 12750
L46250 15750
" />
<path d="M46250 15750
L50250 15750
" />
<path d="M50250 15750
L50250 12750
" />
<path d="M50250 12750
L46250 12750
" />
<path d="M40500 21500
L36500 21500
" />
<path d="M40500 22000
L40500 19000
" />
<path d="M40500 19000
L36500 19000
" />
<path d="M36500 19000
L36500 22000
" />
<path d="M36500 22000
L40500 22000
" />
<path d="M51742 19728
L51142 19728
L51142 19499
L51171 19442
L51200 19414
L51257 19385
L51342 19385
L51400 19414
L51428 19442
L51457 19499
L51457 19728
" />
<path d="M51742 19042
L51714 19099
L51685 19128
L51628 19157
L51457 19157
L51400 19128
L51371 19099
L51342 19042
L51342 18957
L51371 18899
L51400 18871
L51457 18842
L51628 18842
L51685 18871
L51714 18899
L51742 18957
L51742 19042
" />
<path d="M51342 18642
L51742 18528
L51457 18414
L51742 18300
L51342 18185
" />
<path d="M51714 17728
L51742 17785
L51742 17900
L51714 17957
L51657 17985
L51428 17985
L51371 17957
L51342 17900
L51342 17785
L51371 17728
L51428 17700
L51485 17700
L51542 17985
" />
<path d="M51742 17442
L51342 17442
" />
<path d="M51457 17442
L51400 17414
L51371 17385
L51342 17328
L51342 17271
" />
<path d="M51142 16957
L51142 16842
L51171 16785
L51228 16728
L51342 16699
L51542 16699
L51657 16728
L51714 16785
L51742 16842
L51742 16957
L51714 17014
L51657 17071
L51542 17099
L51342 17099
L51228 17071
L51171 17014
L51142 16957
" />
<path d="M51342 16185
L51742 16185
" />
<path d="M51342 16442
L51657 16442
L51714 16414
L51742 16357
L51742 16271
L51714 16214
L51685 16185
" />
<path d="M51342 15985
L51342 15757
" />
<path d="M51142 15900
L51657 15900
L51714 15871
L51742 15814
L51742 15757
" />
<path d="M51742 15242
L51742 15585
" />
<path d="M51742 15414
L51142 15414
L51228 15471
L51285 15528
L51314 15585
" />
<path d="M52435 19521
L52464 19549
L52492 19635
L52492 19692
L52464 19778
L52407 19835
L52350 19864
L52235 19892
L52150 19892
L52035 19864
L51978 19835
L51921 19778
L51892 19692
L51892 19635
L51921 19549
L51950 19521
" />
<path d="M51892 19149
L51892 19035
L51921 18978
L51978 18921
L52092 18892
L52292 18892
L52407 18921
L52464 18978
L52492 19035
L52492 19149
L52464 19207
L52407 19264
L52292 19292
L52092 19292
L51978 19264
L51921 19207
L51892 19149
" />
<path d="M52492 18635
L51892 18635
L52492 18292
L51892 18292
" />
<path d="M52492 18007
L51892 18007
L52492 17664
L51892 17664
" />
<path d="M52550 17521
L52550 17064
" />
<path d="M51950 16950
L51921 16921
L51892 16864
L51892 16721
L51921 16664
L51950 16635
L52007 16607
L52064 16607
L52150 16635
L52492 16978
L52492 16607
" />
</g>
<g style="fill:#000000; fill-opacity:0.0; 
stroke:#000000; stroke-width:80; stroke-opacity:1; 
stroke-linecap:round; stroke-linejoin:round;">
<path d="M37789 17058
L37810 17075
L37832 17125
L37832 17158
L37810 17208
L37767 17241
L37725 17258
L37639 17275
L37575 17275
L37489 17258
L37446 17241
L37403 17208
L37382 17158
L37382 17125
L37403 17075
L37425 17058
" />
<path d="M37832 16725
L37832 16925
" />
<path d="M37832 16825
L37382 16825
L37446 16858
L37489 16891
L37510 16925
" />
<path d="M38632 17575
L38932 17575
" />
<path d="M38460 17658
L38782 17741
L38782 17525
" />
<path d="M38482 17425
L38482 17191
L38932 17341
" />
<path d="M38482 16991
L38482 16958
L38503 16925
L38525 16908
L38567 16891
L38653 16875
L38760 16875
L38846 16891
L38889 16908
L38910 16925
L38932 16958
L38932 16991
L38910 17025
L38889 17041
L38846 17058
L38760 17075
L38653 17075
L38567 17058
L38525 17041
L38503 17025
L38482 16991
" />
<path d="M38632 16574
L38932 16574
" />
<path d="M38632 16724
L38867 16724
L38910 16708
L38932 16674
L38932 16624
L38910 16591
L38889 16574
" />
<path d="M38696 16291
L38696 16408
" />
<path d="M38932 16408
L38482 16408
L38482 16241
" />
</g>
<g style="fill:#000000; fill-opacity:0.0; 
stroke:#000000; stroke-width:120; stroke-opacity:1; 
stroke-linecap:round; stroke-linejoin:round;">
</g>
<g style="fill:#000000; fill-opacity:0.0; 
stroke:#000000; stroke-width:112.5; stroke-opacity:1; 
stroke-linecap:round; stroke-linejoin:round;">
<path d="M38260 16171
L38260 15828
" />
<path d="M38432 16000
L38089 16000
" />
</g>
<g style="fill:#000000; fill-opacity:0.0; 
stroke:#000000; stroke-width:120; stroke-opacity:1; 
stroke-linecap:round; stroke-linejoin:round;">
</g>
<g style="fill:#000000; fill-opacity:0.0; 
stroke:#000000; stroke-width:80; stroke-opacity:1; 
stroke-linecap:round; stroke-linejoin:round;">
<path d="M35952 16045
L35452 16045
L35452 15949
L35476 15892
L35523 15854
L35571 15835
L35666 15816
L35738 15816
L35833 15835
L35880 15854
L35928 15892
L35952 15949
L35952 16045
" />
<path d="M35952 15435
L35952 15664
" />
<path d="M35952 15549
L35452 15549
L35523 15588
L35571 15626
L35595 15664
" />
<path d="M42954 14952
L42954 14452
L43050 14452
L43107 14476
L43145 14523
L43164 14571
L43183 14666
L43183 14738
L43164 14833
L43145 14880
L43107 14928
L43050 14952
L42954 14952
" />
<path d="M43335 14500
L43354 14476
L43392 14452
L43488 14452
L43526 14476
L43545 14500
L43564 14547
L43564 14595
L43545 14666
L43316 14952
L43564 14952
" />
</g>
<g style="fill:#000000; fill-opacity:0.0; 
stroke:#000000; stroke-width:120; stroke-opacity:1; 
stroke-linecap:round; stroke-linejoin:round;">
<path d="M35742 19385
L35142 19385
L35142 19157
L35171 19100
L35200 19071
L35257 19042
L35342 19042
L35400 19071
L35428 19100
L35457 19157
L35457 19385
" />
<path d="M35742 18700
L35714 18757
L35685 18785
L35628 18814
L35457 18814
L35400 18785
L35371 18757
L35342 18700
L35342 18614
L35371 18557
L35400 18528
L35457 18500
L35628 18500
L35685 18528
L35714 18557
L35742 18614
L35742 18700
" />
<path d="M35342 18300
L35742 18185
L35457 18071
L35742 17957
L35342 17842
" />
<path d="M35714 17385
L35742 17442
L35742 17557
L35714 17614
L35657 17642
L35428 17642
L35371 17614
L35342 17557
L35342 17442
L35371 17385
L35428 17357
L35485 17357
L35542 17642
" />
<path d="M35742 17100
L35342 17100
" />
<path d="M35457 17100
L35400 17071
L35371 17042
L35342 16985
L35342 16928
" />
<path d="M35742 16728
L35142 16728
" />
<path d="M35342 16442
L35742 16442
" />
<path d="M35400 16442
L35371 16414
L35342 16357
L35342 16271
L35371 16214
L35428 16185
L35742 16185
" />
<path d="M35742 15585
L35742 15928
" />
<path d="M35742 15757
L35142 15757
L35228 15814
L35285 15871
L35314 15928
" />
<path d="M31685 18771
L31714 18799
L31742 18885
L31742 18942
L31714 19028
L31657 19085
L31600 19114
L31485 19142
L31400 19142
L31285 19114
L31228 19085
L31171 19028
L31142 18942
L31142 18885
L31171 18799
L31200 18771
" />
<path d="M31142 18399
L31142 18285
L31171 18228
L31228 18171
L31342 18142
L31542 18142
L31657 18171
L31714 18228
L31742 18285
L31742 18399
L31714 18457
L31657 18514
L31542 18542
L31342 18542
L31228 18514
L31171 18457
L31142 18399
" />
<path d="M31742 17885
L31142 17885
L31742 17542
L31142 17542
" />
<path d="M31742 17257
L31142 17257
L31742 16914
L31142 16914
" />
<path d="M31800 16771
L31800 16314
" />
<path d="M31200 16200
L31171 16171
L31142 16114
L31142 15971
L31171 15914
L31200 15885
L31257 15857
L31314 15857
L31400 15885
L31742 16228
L31742 15857
" />
<path d="M45992 19192
L45392 19192
L45392 19050
L45421 18964
L45478 18907
L45535 18878
L45650 18850
L45735 18850
L45850 18878
L45907 18907
L45964 18964
L45992 19050
L45992 19192
" />
<path d="M45392 18650
L45392 18278
L45621 18478
L45621 18392
L45650 18335
L45678 18307
L45735 18278
L45878 18278
L45935 18307
L45964 18335
L45992 18392
L45992 18564
L45964 18621
L45935 18650
" />
</g>
<g style="fill:#000000; fill-opacity:0.0; 
stroke:#000000; stroke-width:50; stroke-opacity:1; 
stroke-linecap:round; stroke-linejoin:round;">
<path d="M46557 17342
L46542 17357
L46500 17371
L46471 17371
L46428 17357
L46400 17328
L46385 17300
L46371 17242
L46371 17200
L46385 17142
L46400 17114
L46428 17085
L46471 17071
L46500 17071
L46542 17085
L46557 17100
" />
<path d="M46842 17371
L46671 17371
" />
<path d="M46757 17371
L46757 17071
L46728 17114
L46700 17142
L46671 17157
" />
<path d="M47028 17071
L47057 17071
L47085 17085
L47100 17100
L47114 17128
L47128 17185
L47128 17257
L47114 17314
L47100 17342
L47085 17357
L47057 17371
L47028 17371
L47000 17357
L46985 17342
L46971 17314
L46957 17257
L46957 17185
L46971 17128
L46985 17100
L47000 17085
L47028 17071
" />
<path d="M42871 18267
L42871 18410
" />
<path d="M42871 18339
L42571 18339
L42614 18363
L42642 18386
L42657 18410
" />
<path d="M42571 18113
L42571 18089
L42585 18065
L42600 18053
L42628 18041
L42685 18029
L42757 18029
L42814 18041
L42842 18053
L42857 18065
L42871 18089
L42871 18113
L42857 18136
L42842 18148
L42814 18160
L42757 18172
L42685 18172
L42628 18160
L42600 18148
L42585 18136
L42571 18113
" />
<path d="M42671 17815
L42871 17815
" />
<path d="M42671 17922
L42828 17922
L42857 17910
L42871 17886
L42871 17851
L42857 17827
L42842 17815
" />
<path d="M42714 17613
L42714 17696
" />
<path d="M42871 17696
L42571 17696
L42571 17577
" />
</g>
<g style="fill:#000000; fill-opacity:0.0; 
stroke:#000000; stroke-width:80; stroke-opacity:1; 
stroke-linecap:round; stroke-linejoin:round;">
</g>
<g style="fill:#000000; fill-opacity:0.0; 
stroke:#000000; stroke-width:75; stroke-opacity:1; 
stroke-linecap:round; stroke-linejoin:round;">
<path d="M45257 16714
L45257 16485
" />
<path d="M45371 16600
L45142 16600
" />
</g>
<g style="fill:#000000; fill-opacity:0.0; 
stroke:#000000; stroke-width:80; stroke-opacity:1; 
stroke-linecap:round; stroke-linejoin:round;">
</g>
<g style="fill:#000000; fill-opacity:0.0; 
stroke:#000000; stroke-width:50; stroke-opacity:1; 
stroke-linecap:round; stroke-linejoin:round;">
<path d="M50307 20592
L50292 20607
L50250 20621
L50221 20621
L50178 20607
L50150 20578
L50135 20550
L50121 20492
L50121 20450
L50135 20392
L50150 20364
L50178 20335
L50221 20321
L50250 20321
L50292 20335
L50307 20350
" />
<path d="M50592 20621
L50421 20621
" />
<path d="M50507 20621
L50507 20321
L50478 20364
L50450 20392
L50421 20407
" />
<path d="M50850 20321
L50792 20321
L50764 20335
L50750 20350
L50721 20392
L50707 20450
L50707 20564
L50721 20592
L50735 20607
L50764 20621
L50821 20621
L50850 20607
L50864 20592
L50878 20564
L50878 20492
L50864 20464
L50850 20450
L50821 20435
L50764 20435
L50735 20450
L50721 20464
L50707 20492
" />
<path d="M50982 19121
L50839 19121
" />
<path d="M50910 19121
L50910 18821
L50886 18864
L50863 18892
L50839 18907
" />
<path d="M51136 18821
L51160 18821
L51184 18835
L51196 18850
L51208 18878
L51220 18935
L51220 19007
L51208 19064
L51196 19092
L51184 19107
L51160 19121
L51136 19121
L51113 19107
L51101 19092
L51089 19064
L51077 19007
L51077 18935
L51089 18878
L51101 18850
L51113 18835
L51136 18821
" />
<path d="M51434 18921
L51434 19121
" />
<path d="M51327 18921
L51327 19078
L51339 19107
L51363 19121
L51398 19121
L51422 19107
L51434 19092
" />
<path d="M51636 18964
L51553 18964
" />
<path d="M51553 19121
L51553 18821
L51672 18821
" />
</g>
<g style="fill:#000000; fill-opacity:0.0; 
stroke:#000000; stroke-width:80; stroke-opacity:1; 
stroke-linecap:round; stroke-linejoin:round;">
</g>
<g style="fill:#000000; fill-opacity:0.0; 
stroke:#000000; stroke-width:75; stroke-opacity:1; 
stroke-linecap:round; stroke-linejoin:round;">
<path d="M51285 19757
L51514 19757
" />
<path d="M51400 19871
L51400 19642
" />
</g>
<g style="fill:#000000; fill-opacity:0.0; 
stroke:#000000; stroke-width:80; stroke-opacity:1; 
stroke-linecap:round; stroke-linejoin:round;">
<path d="M45416 20472
L45250 20210
" />
<path d="M45130 20472
L45130 19922
L45321 19922
L45369 19948
L45392 19975
L45416 20027
L45416 20105
L45392 20158
L45369 20184
L45321 20210
L45130 20210
" />
<path d="M45845 20105
L45845 20472
" />
<path d="M45726 19896
L45607 20289
L45916 20289
" />
<path d="M49222 16583
L48960 16750
" />
<path d="M49222 16869
L48672 16869
L48672 16678
L48698 16630
L48725 16607
L48777 16583
L48855 16583
L48908 16607
L48934 16630
L48960 16678
L48960 16869
" />
<path d="M49222 16107
L49222 16392
" />
<path d="M49222 16250
L48672 16250
L48751 16297
L48803 16345
L48829 16392
" />
<path d="M43373 17566
L43392 17585
L43411 17642
L43411 17680
L43392 17738
L43354 17776
L43316 17795
L43240 17814
L43183 17814
L43107 17795
L43069 17776
L43030 17738
L43011 17680
L43011 17642
L43030 17585
L43050 17566
" />
<path d="M43011 17433
L43011 17166
L43411 17338
" />
<path d="M49492 17873
L49473 17892
L49416 17911
L49378 17911
L49321 17892
L49283 17854
L49264 17816
L49245 17740
L49245 17683
L49264 17607
L49283 17569
L49321 17530
L49378 17511
L49416 17511
L49473 17530
L49492 17550
" />
<path d="M49873 17911
L49645 17911
" />
<path d="M49759 17911
L49759 17511
L49721 17569
L49683 17607
L49645 17626
" />
<path d="M50007 17511
L50254 17511
L50121 17664
L50178 17664
L50216 17683
L50235 17702
L50254 17740
L50254 17835
L50235 17873
L50216 17892
L50178 17911
L50064 17911
L50026 17892
L50007 17873
" />
<path d="M41373 17566
L41392 17585
L41411 17642
L41411 17680
L41392 17738
L41354 17776
L41316 17795
L41240 17814
L41183 17814
L41107 17795
L41069 17776
L41030 17738
L41011 17680
L41011 17642
L41030 17585
L41050 17566
" />
<path d="M41145 17223
L41411 17223
" />
<path d="M40992 17319
L41278 17414
L41278 17166
" />
</g>
<g style="fill:#000000; fill-opacity:0.0; 
stroke:#000000; stroke-width:120; stroke-opacity:1; 
stroke-linecap:round; stroke-linejoin:round;">
<path d="M46021 16492
L46021 15892
L46250 15892
L46307 15921
L46335 15950
L46364 16007
L46364 16092
L46335 16150
L46307 16178
L46250 16207
L46021 16207
" />
<path d="M46707 16492
L46650 16464
L46621 16435
L46592 16378
L46592 16207
L46621 16150
L46650 16121
L46707 16092
L46792 16092
L46850 16121
L46878 16150
L46907 16207
L46907 16378
L46878 16435
L46850 16464
L46792 16492
L46707 16492
" />
<path d="M47107 16092
L47221 16492
L47335 16207
L47450 16492
L47564 16092
" />
<path d="M48021 16464
L47964 16492
L47850 16492
L47792 16464
L47764 16407
L47764 16178
L47792 16121
L47850 16092
L47964 16092
L48021 16121
L48050 16178
L48050 16235
L47764 16292
" />
<path d="M48307 16492
L48307 16092
" />
<path d="M48307 16207
L48335 16150
L48364 16121
L48421 16092
L48478 16092
" />
<path d="M48792 15892
L48907 15892
L48964 15921
L49021 15978
L49050 16092
L49050 16292
L49021 16407
L48964 16464
L48907 16492
L48792 16492
L48735 16464
L48678 16407
L48650 16292
L48650 16092
L48678 15978
L48735 15921
L48792 15892
" />
<path d="M49564 16092
L49564 16492
" />
<path d="M49307 16092
L49307 16407
L49335 16464
L49392 16492
L49478 16492
L49535 16464
L49564 16435
" />
<path d="M49764 16092
L49992 16092
" />
<path d="M49850 15892
L49850 16407
L49878 16464
L49935 16492
L49992 16492
" />
<path d="M50164 15950
L50192 15921
L50250 15892
L50392 15892
L50450 15921
L50478 15950
L50507 16007
L50507 16064
L50478 16150
L50135 16492
L50507 16492
" />
<path d="M46978 12435
L46950 12464
L46864 12492
L46807 12492
L46721 12464
L46664 12407
L46635 12350
L46607 12235
L46607 12150
L46635 12035
L46664 11978
L46721 11921
L46807 11892
L46864 11892
L46950 11921
L46978 11950
" />
<path d="M47350 11892
L47464 11892
L47521 11921
L47578 11978
L47607 12092
L47607 12292
L47578 12407
L47521 12464
L47464 12492
L47350 12492
L47292 12464
L47235 12407
L47207 12292
L47207 12092
L47235 11978
L47292 11921
L47350 11892
" />
<path d="M47864 12492
L47864 11892
L48207 12492
L48207 11892
" />
<path d="M48492 12492
L48492 11892
L48835 12492
L48835 11892
" />
<path d="M48978 12550
L49435 12550
" />
<path d="M49550 11950
L49578 11921
L49635 11892
L49778 11892
L49835 11921
L49864 11950
L49892 12007
L49892 12064
L49864 12150
L49521 12492
L49892 12492
" />
<path d="M36271 18742
L36271 18142
L36500 18142
L36557 18171
L36585 18200
L36614 18257
L36614 18342
L36585 18400
L36557 18428
L36500 18457
L36271 18457
" />
<path d="M36957 18742
L36900 18714
L36871 18685
L36842 18628
L36842 18457
L36871 18400
L36900 18371
L36957 18342
L37042 18342
L37100 18371
L37128 18400
L37157 18457
L37157 18628
L37128 18685
L37100 18714
L37042 18742
L36957 18742
" />
<path d="M37357 18342
L37471 18742
L37585 18457
L37700 18742
L37814 18342
" />
<path d="M38271 18714
L38214 18742
L38100 18742
L38042 18714
L38014 18657
L38014 18428
L38042 18371
L38100 18342
L38214 18342
L38271 18371
L38300 18428
L38300 18485
L38014 18542
" />
<path d="M38557 18742
L38557 18342
" />
<path d="M38557 18457
L38585 18400
L38614 18371
L38671 18342
L38728 18342
" />
<path d="M39042 18142
L39157 18142
L39214 18171
L39271 18228
L39300 18342
L39300 18542
L39271 18657
L39214 18714
L39157 18742
L39042 18742
L38985 18714
L38928 18657
L38900 18542
L38900 18342
L38928 18228
L38985 18171
L39042 18142
" />
<path d="M39814 18342
L39814 18742
" />
<path d="M39557 18342
L39557 18657
L39585 18714
L39642 18742
L39728 18742
L39785 18714
L39814 18685
" />
<path d="M40014 18342
L40242 18342
" />
<path d="M40100 18142
L40100 18657
L40128 18714
L40185 18742
L40242 18742
" />
<path d="M40385 18142
L40757 18142
L40557 18371
L40642 18371
L40700 18400
L40728 18428
L40757 18485
L40757 18628
L40728 18685
L40700 18714
L40642 18742
L40471 18742
L40414 18714
L40385 18685
" />
<path d="M37228 22685
L37200 22714
L37114 22742
L37057 22742
L36971 22714
L36914 22657
L36885 22600
L36857 22485
L36857 22400
L36885 22285
L36914 22228
L36971 22171
L37057 22142
L37114 22142
L37200 22171
L37228 22200
" />
<path d="M37600 22142
L37714 22142
L37771 22171
L37828 22228
L37857 22342
L37857 22542
L37828 22657
L37771 22714
L37714 22742
L37600 22742
L37542 22714
L37485 22657
L37457 22542
L37457 22342
L37485 22228
L37542 22171
L37600 22142
" />
<path d="M38114 22742
L38114 22142
L38457 22742
L38457 22142
" />
<path d="M38742 22742
L38742 22142
L39085 22742
L39085 22142
" />
<path d="M39228 22800
L39685 22800
" />
<path d="M39800 22200
L39828 22171
L39885 22142
L40028 22142
L40085 22171
L40114 22200
L40142 22257
L40142 22314
L40114 22400
L39771 22742
L40142 22742
" />
</g> 
</svg>
