<?xml version="1.0" standalone="no"?>
 <!DOCTYPE svg PUBLIC "-//W3C//DTD SVG 1.1//EN" 
 "http://www.w3.org/Graphics/SVG/1.1/DTD/svg11.dtd"> 
<svg xmlns="http://www.w3.org/2000/svg" version="1.1" 
    width="41.9989cm" height="29.7002cm" viewBox="0 0 165350 116930 ">
<title>SVG Picture created as 7805-B_Cu.svg date 2015/06/29 16:52:59 </title>
  <desc>Picture generated by PCBNEW </desc>
<g style="fill:#000000; fill-opacity:1;stroke:#000000; stroke-opacity:1;
stroke-linecap:round; stroke-linejoin:round; "
 transform="translate(0 0) scale(1 1)">
</g>
<g style="fill:#000000; fill-opacity:0.0; 
stroke:#000000; stroke-width:39.3701; stroke-opacity:1; 
stroke-linecap:round; stroke-linejoin:round;">
<circle cx="53750" cy="14000" r="500" /> 
<circle cx="33250" cy="14000" r="500" /> 
<circle cx="33250" cy="21000" r="500" /> 
<circle cx="53750" cy="21000" r="500" /> 
</g>
<g style="fill:#000000; fill-opacity:0.0; 
stroke:#000000; stroke-width:59.0551; stroke-opacity:1; 
stroke-linecap:round; stroke-linejoin:round;">
</g>
<g style="fill:#000000; fill-opacity:1.0; 
stroke:#000000; stroke-width:59.0551; stroke-opacity:1; 
stroke-linecap:round; stroke-linejoin:round;">
<circle cx="53500" cy="18500" r="470.472" /> 
<circle cx="53500" cy="16500" r="470.472" /> 
<polyline style="fill-rule:evenodd;"
points="37979,16229
38520,16229
38520,16770
37979,16770
37979,16229
" /> 
<circle cx="38250" cy="17500" r="270.472" /> 
<circle cx="36000" cy="18250" r="320.472" /> 
<polyline style="fill-rule:evenodd;"
points="36320,14570
35679,14570
35679,13929
36320,13929
36320,14570
" /> 
<circle cx="45000" cy="14750" r="320.472" /> 
<polyline style="fill-rule:evenodd;"
points="39570,14429
39570,15070
38929,15070
38929,14429
39570,14429
" /> 
<circle cx="33500" cy="16500" r="470.472" /> 
<circle cx="33500" cy="18500" r="470.472" /> 
<polyline style="fill-rule:evenodd;"
points="47495,19495
47004,19495
47004,19004
47495,19004
47495,19495
" /> 
<circle cx="47250" cy="18250" r="245.472" /> 
</g>
<g style="fill:#000000; fill-opacity:1.0; 
stroke:#000000; stroke-width:590.551; stroke-opacity:1; 
stroke-linecap:round; stroke-linejoin:round;">
<path d="M41250 14498
L41250 15001
" />
<path d="M42250 14498
L42250 15001
" />
<path d="M43250 14498
L43250 15001
" />
</g>
<g style="fill:#000000; fill-opacity:1.0; 
stroke:#000000; stroke-width:59.0551; stroke-opacity:1; 
stroke-linecap:round; stroke-linejoin:round;">
<polyline style="fill-rule:evenodd;"
points="45004,16754
45495,16754
45495,17245
45004,17245
45004,16754
" /> 
<circle cx="45250" cy="18000" r="245.472" /> 
<polyline style="fill-rule:evenodd;"
points="51245,19504
51245,19995
50754,19995
50754,19504
51245,19504
" /> 
<circle cx="50000" cy="19750" r="245.472" /> 
<circle cx="48500" cy="20500" r="270.472" /> 
<circle cx="44500" cy="20500" r="270.472" /> 
<circle cx="47000" cy="16750" r="270.472" /> 
<circle cx="51000" cy="16750" r="270.472" /> 
<circle cx="43250" cy="18500" r="245.472" /> 
<circle cx="43250" cy="16500" r="245.472" /> 
<circle cx="49000" cy="18000" r="245.472" /> 
<circle cx="51000" cy="18000" r="245.472" /> 
<circle cx="41250" cy="18500" r="245.472" /> 
<circle cx="41250" cy="16500" r="245.472" /> 
<circle cx="49250" cy="14250" r="470.472" /> 
<circle cx="47250" cy="14250" r="470.472" /> 
<circle cx="37500" cy="20500" r="470.472" /> 
<circle cx="39500" cy="20500" r="470.472" /> 
</g>
<g style="fill:#000000; fill-opacity:1.0; 
stroke:#000000; stroke-width:314.961; stroke-opacity:1; 
stroke-linecap:round; stroke-linejoin:round;">
<path d="M45000 14750
L45000 16750
" />
<path d="M45000 16750
L45250 17000
" />
<path d="M49250 14250
L47250 14250
" />
<path d="M47000 16750
L49000 14750
" />
<path d="M49000 14500
L49250 14250
" />
<path d="M49000 14750
L49000 14500
" />
<path d="M46000 17000
L46750 17000
" />
<path d="M46750 17000
L47000 16750
" />
<path d="M46000 17000
L45250 17000
" />
<path d="M45250 17000
L43750 17000
" />
<path d="M43750 17000
L43250 16500
" />
<path d="M43250 15500
L43250 16500
" />
<path d="M43250 14750
L43250 15500
" />
<path d="M33500 18500
L35750 18500
" />
<path d="M35750 18500
L36000 18250
" />
<path d="M51000 20250
L52750 18500
" />
<path d="M52750 18500
L53500 18500
" />
<path d="M51000 20250
L51000 19750
" />
<path d="M50250 21000
L51000 20250
" />
<path d="M49000 21000
L50250 21000
" />
<path d="M48500 20500
L49000 21000
" />
<path d="M51000 18000
L51000 19750
" />
<path d="M51000 16750
L51000 18000
" />
<path d="M39250 14750
L39250 15500
" />
<path d="M39250 15500
L38250 16500
" />
<path d="M36000 14250
L36000 15750
" />
<path d="M36750 16500
L38250 16500
" />
<path d="M36000 15750
L36750 16500
" />
<path d="M41250 16500
L40750 17000
" />
<path d="M39250 16500
L38250 16500
" />
<path d="M39750 17000
L39250 16500
" />
<path d="M40750 17000
L39750 17000
" />
<path d="M41250 14750
L41250 16500
" />
<path d="M44500 20500
L46000 20500
" />
<path d="M46000 20500
L47250 19250
" />
</g>
<g style="fill:#000000; fill-opacity:1.0; 
stroke:#000000; stroke-width:59.0551; stroke-opacity:1; 
stroke-linecap:round; stroke-linejoin:round;">
<polyline style="fill-rule:evenodd;"
points="54901,22151
54561,22151
54561,21061
54561,21000
54561,20938
54561,14061
54561,14000
54561,13938
54561,13937
54561,13937
54561,13937
54523,13746
54476,13632
54475,13631
54368,13470
54367,13469
54280,13381
54118,13273
54117,13273
54003,13225
53811,13187
53687,13188
53686,13188
53496,13226
53382,13273
53381,13274
53220,13381
53219,13382
53131,13469
53023,13631
53023,13632
52975,13746
52937,13938
52938,14000
52937,14061
52975,14253
53023,14367
53023,14368
53131,14530
53219,14617
53220,14618
53381,14725
53382,14726
53496,14773
53686,14811
53687,14811
53811,14812
54003,14774
54117,14726
54118,14726
54280,14618
54367,14530
54368,14529
54475,14368
54476,14367
54523,14253
54561,14062
54561,14062
54561,14062
54561,14061
54561,20938
54561,20937
54561,20937
54561,20937
54523,20746
54476,20632
54475,20631
54413,20537
54413,18319
54303,18053
54303,16371
54193,16073
54159,16022
54023,15978
54021,15980
54021,15976
53977,15840
53688,15708
53371,15696
53073,15806
53022,15840
52978,15976
53500,16497
54021,15976
54021,15980
53502,16500
54023,17021
54159,16977
54291,16688
54303,16371
54303,18053
54274,17983
54021,17729
54021,17023
53500,16502
53497,16504
53497,16500
52976,15978
52840,16022
52708,16311
52696,16628
52806,16926
52840,16977
52976,17021
53497,16500
53497,16504
52978,17023
53022,17159
53311,17291
53628,17303
53926,17193
53977,17159
54021,17023
54021,17729
54018,17726
53682,17586
53319,17586
52983,17725
52779,17929
52750,17929
52531,17972
52346,18096
51570,18871
51570,18402
51583,18390
51688,18137
51688,17863
51583,17610
51570,17597
51570,17188
51604,17154
51713,16892
51713,16608
51605,16346
51404,16145
51142,16036
50858,16036
50596,16144
50395,16345
50286,16607
50286,16891
50394,17153
50429,17187
50429,17597
50416,17609
50311,17862
50311,18136
50416,18389
50429,18402
50429,19186
50374,19240
50347,19307
50342,19276
50163,19194
50163,14069
50024,13733
49768,13476
49432,13336
49069,13336
48733,13475
48529,13679
47970,13679
47768,13476
47432,13336
47069,13336
46733,13475
46476,13731
46336,14067
46336,14430
46475,14766
46731,15023
47067,15163
47430,15163
47766,15024
47970,14820
48121,14820
46906,16036
46858,16036
46596,16144
46395,16345
46360,16429
46000,16429
45813,16429
45759,16374
45607,16311
45570,16311
45570,15258
45646,15182
45763,14902
45763,14598
45647,14318
45432,14103
45152,13986
44848,13986
44568,14102
44353,14317
44236,14597
44236,14901
44352,15181
44429,15258
44429,16429
43986,16429
43938,16381
43938,16363
43833,16110
43820,16097
43820,15500
43820,15417
43904,15291
43958,15020
43958,14479
43904,14208
43751,13978
43521,13824
43250,13770
42978,13824
42748,13978
42675,14087
42668,14077
42475,13949
42344,13912
42251,13979
42251,14748
42259,14748
42259,14751
42251,14751
42251,15520
42344,15587
42475,15550
42668,15422
42675,15412
42679,15417
42679,15500
42679,16097
42666,16109
42561,16362
42561,16636
42666,16889
42859,17083
43112,17188
43130,17188
43346,17403
43531,17527
43750,17570
44686,17570
44740,17625
44807,17652
44776,17657
44681,17865
44672,18093
44752,18306
44776,18342
44888,18359
45247,18000
45242,17994
45244,17992
45250,17997
45255,17992
45257,17994
45252,18000
45611,18359
45723,18342
45818,18134
45827,17906
45747,17693
45723,17657
45692,17652
45758,17625
45813,17570
46000,17570
46750,17570
46968,17527
47064,17463
47141,17463
47403,17355
47604,17154
47713,16892
47713,16844
49393,15163
49430,15163
49766,15024
50023,14768
50163,14432
50163,14069
50163,19194
50134,19181
49906,19172
49693,19252
49657,19276
49640,19388
50000,19747
50005,19742
50007,19744
50002,19750
50007,19755
50005,19757
50000,19752
49997,19754
49997,19750
49638,19390
49577,19399
49577,17906
49497,17693
49473,17657
49361,17640
49359,17642
49359,17638
49342,17526
49134,17431
48906,17422
48693,17502
48657,17526
48640,17638
49000,17997
49359,17638
49359,17642
49002,18000
49361,18359
49473,18342
49568,18134
49577,17906
49577,19399
49526,19407
49431,19615
49422,19843
49502,20056
49526,20092
49638,20109
49997,19750
49997,19754
49640,20111
49657,20223
49865,20318
50093,20327
50128,20313
50013,20429
49359,20429
49359,18361
49000,18002
48997,18004
48997,18000
48638,17640
48526,17657
48431,17865
48422,18093
48502,18306
48526,18342
48638,18359
48997,18000
48997,18004
48640,18361
48657,18473
48865,18568
49093,18577
49306,18497
49342,18473
49359,18361
49359,20429
49236,20429
49213,20406
49213,20358
49105,20096
48904,19895
48642,19786
48358,19786
48096,19894
47938,20052
47938,19443
47938,18893
47875,18741
47759,18624
47692,18597
47723,18592
47818,18384
47827,18156
47747,17943
47723,17907
47611,17890
47609,17892
47609,17888
47592,17776
47384,17681
47156,17672
46943,17752
46907,17776
46890,17888
47250,18247
47609,17888
47609,17892
47252,18250
47257,18255
47255,18257
47250,18252
47244,18257
47242,18255
47247,18250
46888,17890
46776,17907
46681,18115
46672,18343
46752,18556
46776,18592
46807,18597
46741,18624
46624,18740
46561,18892
46561,19056
46561,19131
45763,19929
45609,19929
45609,18361
45250,18002
44890,18361
44907,18473
45115,18568
45343,18577
45556,18497
45592,18473
45609,18361
45609,19929
44938,19929
44904,19895
44642,19786
44358,19786
44096,19894
43895,20095
43827,20260
43827,18406
43747,18193
43723,18157
43611,18140
43609,18142
43609,18138
43592,18026
43384,17931
43156,17922
42943,18002
42907,18026
42890,18138
43250,18497
43609,18138
43609,18142
43252,18500
43611,18859
43723,18842
43818,18634
43827,18406
43827,20260
43786,20357
43786,20641
43894,20903
44095,21104
44357,21213
44641,21213
44903,21105
44937,21070
46000,21070
46218,21027
46403,20903
47368,19938
47606,19938
47758,19875
47875,19759
47938,19607
47938,19443
47938,20052
47895,20095
47786,20357
47786,20641
47894,20903
48095,21104
48357,21213
48405,21213
48596,21403
48781,21527
49000,21570
50250,21570
50468,21527
50653,21403
51403,20653
51403,20653
51403,20653
52882,19174
52981,19273
53317,19413
53680,19413
54016,19274
54273,19018
54413,18682
54413,18319
54413,20537
54368,20470
54367,20469
54280,20381
54118,20273
54117,20273
54003,20225
53811,20187
53687,20188
53686,20188
53496,20226
53382,20273
53381,20274
53220,20381
53219,20382
53131,20469
53023,20631
53023,20632
52975,20746
52937,20938
52938,21000
52937,21061
52975,21253
53023,21367
53023,21368
53131,21530
53219,21617
53220,21618
53381,21725
53382,21726
53496,21773
53686,21811
53687,21811
53811,21812
54003,21774
54117,21726
54118,21726
54280,21618
54367,21530
54368,21529
54475,21368
54476,21367
54523,21253
54561,21062
54561,21062
54561,21062
54561,21061
54561,22151
43609,22151
43609,18861
43250,18502
43247,18504
43247,18500
42888,18140
42776,18157
42681,18365
42672,18593
42752,18806
42776,18842
42888,18859
43247,18500
43247,18504
42890,18861
42907,18973
43115,19068
43343,19077
43556,18997
43592,18973
43609,18861
43609,22151
42248,22151
42248,15520
42248,14751
42240,14751
42240,14748
42248,14748
42248,13979
42155,13912
42024,13949
41831,14077
41824,14087
41751,13978
41521,13824
41250,13770
40978,13824
40748,13978
40595,14208
40541,14479
40541,15020
40595,15291
40679,15417
40679,16097
40666,16109
40561,16362
40561,16380
40513,16429
39986,16429
39653,16096
39538,16019
39653,15903
39777,15718
39820,15500
39820,15456
39833,15450
39950,15334
40013,15182
40013,15018
40013,14318
39950,14166
39834,14049
39682,13986
39518,13986
38818,13986
38666,14049
38549,14165
38486,14317
38486,14481
38486,15181
38549,15333
38579,15363
38156,15786
37868,15786
37716,15849
37636,15929
36986,15929
36570,15513
36570,14956
36583,14950
36700,14834
36763,14682
36763,14518
36763,13818
36700,13666
36584,13549
36432,13486
36268,13486
35568,13486
35416,13549
35299,13665
35236,13817
35236,13981
35236,14681
35299,14833
35415,14950
35429,14955
35429,15750
35472,15968
35596,16153
36346,16903
36346,16903
36531,17027
36749,17070
36749,17070
36750,17070
37636,17070
37715,17150
37746,17162
37656,17359
37647,17597
37730,17820
37755,17857
37870,17877
38247,17500
38242,17494
38244,17492
38250,17497
38255,17492
38257,17494
38252,17500
38629,17877
38744,17857
38843,17640
38852,17402
38769,17179
38757,17161
38783,17150
38863,17070
39013,17070
39346,17403
39531,17527
39750,17570
40750,17570
40968,17527
41153,17403
41368,17188
41386,17188
41639,17083
41833,16890
41938,16637
41938,16363
41833,16110
41820,16097
41820,15417
41824,15412
41831,15422
42024,15550
42155,15587
42248,15520
42248,22151
41827,22151
41827,18406
41747,18193
41723,18157
41611,18140
41609,18142
41609,18138
41592,18026
41384,17931
41156,17922
40943,18002
40907,18026
40890,18138
41250,18497
41609,18138
41609,18142
41252,18500
41611,18859
41723,18842
41818,18634
41827,18406
41827,22151
41609,22151
41609,18861
41250,18502
41247,18504
41247,18500
40888,18140
40776,18157
40681,18365
40672,18593
40752,18806
40776,18842
40888,18859
41247,18500
41247,18504
40890,18861
40907,18973
41115,19068
41343,19077
41556,18997
41592,18973
41609,18861
41609,22151
40303,22151
40303,20371
40193,20073
40159,20022
40023,19978
40021,19980
40021,19976
39977,19840
39688,19708
39371,19696
39073,19806
39022,19840
38978,19976
39500,20497
40021,19976
40021,19980
39502,20500
40023,21021
40159,20977
40291,20688
40303,20371
40303,22151
40021,22151
40021,21023
39500,20502
39497,20504
39497,20500
38976,19978
38840,20022
38708,20311
38696,20628
38806,20926
38840,20977
38976,21021
39497,20500
39497,20504
38978,21023
39022,21159
39311,21291
39628,21303
39926,21193
39977,21159
40021,21023
40021,22151
38627,22151
38627,17879
38250,17502
37872,17879
37892,17994
38109,18093
38347,18102
38570,18019
38607,17994
38627,17879
38627,22151
38303,22151
38303,20371
38193,20073
38159,20022
38023,19978
38021,19980
38021,19976
37977,19840
37688,19708
37371,19696
37073,19806
37022,19840
36978,19976
37500,20497
38021,19976
38021,19980
37502,20500
38023,21021
38159,20977
38291,20688
38303,20371
38303,22151
38021,22151
38021,21023
37500,20502
37497,20504
37497,20500
36976,19978
36840,20022
36763,20190
36763,18098
36647,17818
36432,17603
36152,17486
35848,17486
35568,17602
35353,17817
35306,17929
34303,17929
34303,16371
34193,16073
34159,16022
34061,15990
34061,14061
34061,14000
34061,13938
34061,13937
34061,13937
34061,13937
34023,13746
33976,13632
33975,13631
33868,13470
33867,13469
33780,13381
33618,13273
33617,13273
33503,13225
33311,13187
33187,13188
33186,13188
32996,13226
32882,13273
32881,13274
32720,13381
32719,13382
32631,13469
32523,13631
32523,13632
32475,13746
32437,13938
32438,14000
32437,14061
32475,14253
32523,14367
32523,14368
32631,14530
32719,14617
32720,14618
32881,14725
32882,14726
32996,14773
33186,14811
33187,14811
33311,14812
33503,14774
33617,14726
33618,14726
33780,14618
33867,14530
33868,14529
33975,14368
33976,14367
34023,14253
34061,14062
34061,14062
34061,14062
34061,14061
34061,15990
34023,15978
34021,15980
34021,15976
33977,15840
33688,15708
33371,15696
33073,15806
33022,15840
32978,15976
33500,16497
34021,15976
34021,15980
33502,16500
34023,17021
34159,16977
34291,16688
34303,16371
34303,17929
34220,17929
34021,17729
34021,17023
33500,16502
33497,16504
33497,16500
32976,15978
32840,16022
32708,16311
32696,16628
32806,16926
32840,16977
32976,17021
33497,16500
33497,16504
32978,17023
33022,17159
33311,17291
33628,17303
33926,17193
33977,17159
34021,17023
34021,17729
34018,17726
33682,17586
33319,17586
32983,17725
32726,17981
32586,18317
32586,18680
32725,19016
32981,19273
33317,19413
33680,19413
34016,19274
34220,19070
35750,19070
35968,19027
35989,19013
36151,19013
36431,18897
36646,18682
36763,18402
36763,18098
36763,20190
36708,20311
36696,20628
36806,20926
36840,20977
36976,21021
37497,20500
37497,20504
36978,21023
37022,21159
37311,21291
37628,21303
37926,21193
37977,21159
38021,21023
38021,22151
34061,22151
34061,21061
34061,21000
34061,20938
34061,20937
34061,20937
34061,20937
34023,20746
33976,20632
33975,20631
33868,20470
33867,20469
33780,20381
33618,20273
33617,20273
33503,20225
33311,20187
33187,20188
33186,20188
32996,20226
32882,20273
32881,20274
32720,20381
32719,20382
32631,20469
32523,20631
32523,20632
32475,20746
32437,20938
32438,21000
32437,21061
32475,21253
32523,21367
32523,21368
32631,21530
32719,21617
32720,21618
32881,21725
32882,21726
32996,21773
33186,21811
33187,21811
33311,21812
33503,21774
33617,21726
33618,21726
33780,21618
33867,21530
33868,21529
33975,21368
33976,21367
34023,21253
34061,21062
34061,21062
34061,21062
34061,21061
34061,22151
32098,22151
32098,12848
54901,12848
54901,22151
" /> 
</g>
<g style="fill:#000000; fill-opacity:0.0; 
stroke:#000000; stroke-width:196.85; stroke-opacity:1; 
stroke-linecap:round; stroke-linejoin:round;">
<polyline fill="none;"
points="54901,22151
54561,22151
54561,21061
54561,21000
54561,20938
54561,14061
54561,14000
54561,13938
54561,13937
54561,13937
54561,13937
54523,13746
54476,13632
54475,13631
54368,13470
54367,13469
54280,13381
54118,13273
54117,13273
54003,13225
53811,13187
53687,13188
53686,13188
53496,13226
53382,13273
53381,13274
53220,13381
53219,13382
53131,13469
53023,13631
53023,13632
52975,13746
52937,13938
52938,14000
52937,14061
52975,14253
53023,14367
53023,14368
53131,14530
53219,14617
53220,14618
53381,14725
53382,14726
53496,14773
53686,14811
53687,14811
53811,14812
54003,14774
54117,14726
54118,14726
54280,14618
54367,14530
54368,14529
54475,14368
54476,14367
54523,14253
54561,14062
54561,14062
54561,14062
54561,14061
54561,20938
54561,20937
54561,20937
54561,20937
54523,20746
54476,20632
54475,20631
54413,20537
54413,18319
54303,18053
54303,16371
54193,16073
54159,16022
54023,15978
54021,15980
54021,15976
53977,15840
53688,15708
53371,15696
53073,15806
53022,15840
52978,15976
53500,16497
54021,15976
54021,15980
53502,16500
54023,17021
54159,16977
54291,16688
54303,16371
54303,18053
54274,17983
54021,17729
54021,17023
53500,16502
53497,16504
53497,16500
52976,15978
52840,16022
52708,16311
52696,16628
52806,16926
52840,16977
52976,17021
53497,16500
53497,16504
52978,17023
53022,17159
53311,17291
53628,17303
53926,17193
53977,17159
54021,17023
54021,17729
54018,17726
53682,17586
53319,17586
52983,17725
52779,17929
52750,17929
52531,17972
52346,18096
51570,18871
51570,18402
51583,18390
51688,18137
51688,17863
51583,17610
51570,17597
51570,17188
51604,17154
51713,16892
51713,16608
51605,16346
51404,16145
51142,16036
50858,16036
50596,16144
50395,16345
50286,16607
50286,16891
50394,17153
50429,17187
50429,17597
50416,17609
50311,17862
50311,18136
50416,18389
50429,18402
50429,19186
50374,19240
50347,19307
50342,19276
50163,19194
50163,14069
50024,13733
49768,13476
49432,13336
49069,13336
48733,13475
48529,13679
47970,13679
47768,13476
47432,13336
47069,13336
46733,13475
46476,13731
46336,14067
46336,14430
46475,14766
46731,15023
47067,15163
47430,15163
47766,15024
47970,14820
48121,14820
46906,16036
46858,16036
46596,16144
46395,16345
46360,16429
46000,16429
45813,16429
45759,16374
45607,16311
45570,16311
45570,15258
45646,15182
45763,14902
45763,14598
45647,14318
45432,14103
45152,13986
44848,13986
44568,14102
44353,14317
44236,14597
44236,14901
44352,15181
44429,15258
44429,16429
43986,16429
43938,16381
43938,16363
43833,16110
43820,16097
43820,15500
43820,15417
43904,15291
43958,15020
43958,14479
43904,14208
43751,13978
43521,13824
43250,13770
42978,13824
42748,13978
42675,14087
42668,14077
42475,13949
42344,13912
42251,13979
42251,14748
42259,14748
42259,14751
42251,14751
42251,15520
42344,15587
42475,15550
42668,15422
42675,15412
42679,15417
42679,15500
42679,16097
42666,16109
42561,16362
42561,16636
42666,16889
42859,17083
43112,17188
43130,17188
43346,17403
43531,17527
43750,17570
44686,17570
44740,17625
44807,17652
44776,17657
44681,17865
44672,18093
44752,18306
44776,18342
44888,18359
45247,18000
45242,17994
45244,17992
45250,17997
45255,17992
45257,17994
45252,18000
45611,18359
45723,18342
45818,18134
45827,17906
45747,17693
45723,17657
45692,17652
45758,17625
45813,17570
46000,17570
46750,17570
46968,17527
47064,17463
47141,17463
47403,17355
47604,17154
47713,16892
47713,16844
49393,15163
49430,15163
49766,15024
50023,14768
50163,14432
50163,14069
50163,19194
50134,19181
49906,19172
49693,19252
49657,19276
49640,19388
50000,19747
50005,19742
50007,19744
50002,19750
50007,19755
50005,19757
50000,19752
49997,19754
49997,19750
49638,19390
49577,19399
49577,17906
49497,17693
49473,17657
49361,17640
49359,17642
49359,17638
49342,17526
49134,17431
48906,17422
48693,17502
48657,17526
48640,17638
49000,17997
49359,17638
49359,17642
49002,18000
49361,18359
49473,18342
49568,18134
49577,17906
49577,19399
49526,19407
49431,19615
49422,19843
49502,20056
49526,20092
49638,20109
49997,19750
49997,19754
49640,20111
49657,20223
49865,20318
50093,20327
50128,20313
50013,20429
49359,20429
49359,18361
49000,18002
48997,18004
48997,18000
48638,17640
48526,17657
48431,17865
48422,18093
48502,18306
48526,18342
48638,18359
48997,18000
48997,18004
48640,18361
48657,18473
48865,18568
49093,18577
49306,18497
49342,18473
49359,18361
49359,20429
49236,20429
49213,20406
49213,20358
49105,20096
48904,19895
48642,19786
48358,19786
48096,19894
47938,20052
47938,19443
47938,18893
47875,18741
47759,18624
47692,18597
47723,18592
47818,18384
47827,18156
47747,17943
47723,17907
47611,17890
47609,17892
47609,17888
47592,17776
47384,17681
47156,17672
46943,17752
46907,17776
46890,17888
47250,18247
47609,17888
47609,17892
47252,18250
47257,18255
47255,18257
47250,18252
47244,18257
47242,18255
47247,18250
46888,17890
46776,17907
46681,18115
46672,18343
46752,18556
46776,18592
46807,18597
46741,18624
46624,18740
46561,18892
46561,19056
46561,19131
45763,19929
45609,19929
45609,18361
45250,18002
44890,18361
44907,18473
45115,18568
45343,18577
45556,18497
45592,18473
45609,18361
45609,19929
44938,19929
44904,19895
44642,19786
44358,19786
44096,19894
43895,20095
43827,20260
43827,18406
43747,18193
43723,18157
43611,18140
43609,18142
43609,18138
43592,18026
43384,17931
43156,17922
42943,18002
42907,18026
42890,18138
43250,18497
43609,18138
43609,18142
43252,18500
43611,18859
43723,18842
43818,18634
43827,18406
43827,20260
43786,20357
43786,20641
43894,20903
44095,21104
44357,21213
44641,21213
44903,21105
44937,21070
46000,21070
46218,21027
46403,20903
47368,19938
47606,19938
47758,19875
47875,19759
47938,19607
47938,19443
47938,20052
47895,20095
47786,20357
47786,20641
47894,20903
48095,21104
48357,21213
48405,21213
48596,21403
48781,21527
49000,21570
50250,21570
50468,21527
50653,21403
51403,20653
51403,20653
51403,20653
52882,19174
52981,19273
53317,19413
53680,19413
54016,19274
54273,19018
54413,18682
54413,18319
54413,20537
54368,20470
54367,20469
54280,20381
54118,20273
54117,20273
54003,20225
53811,20187
53687,20188
53686,20188
53496,20226
53382,20273
53381,20274
53220,20381
53219,20382
53131,20469
53023,20631
53023,20632
52975,20746
52937,20938
52938,21000
52937,21061
52975,21253
53023,21367
53023,21368
53131,21530
53219,21617
53220,21618
53381,21725
53382,21726
53496,21773
53686,21811
53687,21811
53811,21812
54003,21774
54117,21726
54118,21726
54280,21618
54367,21530
54368,21529
54475,21368
54476,21367
54523,21253
54561,21062
54561,21062
54561,21062
54561,21061
54561,22151
43609,22151
43609,18861
43250,18502
43247,18504
43247,18500
42888,18140
42776,18157
42681,18365
42672,18593
42752,18806
42776,18842
42888,18859
43247,18500
43247,18504
42890,18861
42907,18973
43115,19068
43343,19077
43556,18997
43592,18973
43609,18861
43609,22151
42248,22151
42248,15520
42248,14751
42240,14751
42240,14748
42248,14748
42248,13979
42155,13912
42024,13949
41831,14077
41824,14087
41751,13978
41521,13824
41250,13770
40978,13824
40748,13978
40595,14208
40541,14479
40541,15020
40595,15291
40679,15417
40679,16097
40666,16109
40561,16362
40561,16380
40513,16429
39986,16429
39653,16096
39538,16019
39653,15903
39777,15718
39820,15500
39820,15456
39833,15450
39950,15334
40013,15182
40013,15018
40013,14318
39950,14166
39834,14049
39682,13986
39518,13986
38818,13986
38666,14049
38549,14165
38486,14317
38486,14481
38486,15181
38549,15333
38579,15363
38156,15786
37868,15786
37716,15849
37636,15929
36986,15929
36570,15513
36570,14956
36583,14950
36700,14834
36763,14682
36763,14518
36763,13818
36700,13666
36584,13549
36432,13486
36268,13486
35568,13486
35416,13549
35299,13665
35236,13817
35236,13981
35236,14681
35299,14833
35415,14950
35429,14955
35429,15750
35472,15968
35596,16153
36346,16903
36346,16903
36531,17027
36749,17070
36749,17070
36750,17070
37636,17070
37715,17150
37746,17162
37656,17359
37647,17597
37730,17820
37755,17857
37870,17877
38247,17500
38242,17494
38244,17492
38250,17497
38255,17492
38257,17494
38252,17500
38629,17877
38744,17857
38843,17640
38852,17402
38769,17179
38757,17161
38783,17150
38863,17070
39013,17070
39346,17403
39531,17527
39750,17570
40750,17570
40968,17527
41153,17403
41368,17188
41386,17188
41639,17083
41833,16890
41938,16637
41938,16363
41833,16110
41820,16097
41820,15417
41824,15412
41831,15422
42024,15550
42155,15587
42248,15520
42248,22151
41827,22151
41827,18406
41747,18193
41723,18157
41611,18140
41609,18142
41609,18138
41592,18026
41384,17931
41156,17922
40943,18002
40907,18026
40890,18138
41250,18497
41609,18138
41609,18142
41252,18500
41611,18859
41723,18842
41818,18634
41827,18406
41827,22151
41609,22151
41609,18861
41250,18502
41247,18504
41247,18500
40888,18140
40776,18157
40681,18365
40672,18593
40752,18806
40776,18842
40888,18859
41247,18500
41247,18504
40890,18861
40907,18973
41115,19068
41343,19077
41556,18997
41592,18973
41609,18861
41609,22151
40303,22151
40303,20371
40193,20073
40159,20022
40023,19978
40021,19980
40021,19976
39977,19840
39688,19708
39371,19696
39073,19806
39022,19840
38978,19976
39500,20497
40021,19976
40021,19980
39502,20500
40023,21021
40159,20977
40291,20688
40303,20371
40303,22151
40021,22151
40021,21023
39500,20502
39497,20504
39497,20500
38976,19978
38840,20022
38708,20311
38696,20628
38806,20926
38840,20977
38976,21021
39497,20500
39497,20504
38978,21023
39022,21159
39311,21291
39628,21303
39926,21193
39977,21159
40021,21023
40021,22151
38627,22151
38627,17879
38250,17502
37872,17879
37892,17994
38109,18093
38347,18102
38570,18019
38607,17994
38627,17879
38627,22151
38303,22151
38303,20371
38193,20073
38159,20022
38023,19978
38021,19980
38021,19976
37977,19840
37688,19708
37371,19696
37073,19806
37022,19840
36978,19976
37500,20497
38021,19976
38021,19980
37502,20500
38023,21021
38159,20977
38291,20688
38303,20371
38303,22151
38021,22151
38021,21023
37500,20502
37497,20504
37497,20500
36976,19978
36840,20022
36763,20190
36763,18098
36647,17818
36432,17603
36152,17486
35848,17486
35568,17602
35353,17817
35306,17929
34303,17929
34303,16371
34193,16073
34159,16022
34061,15990
34061,14061
34061,14000
34061,13938
34061,13937
34061,13937
34061,13937
34023,13746
33976,13632
33975,13631
33868,13470
33867,13469
33780,13381
33618,13273
33617,13273
33503,13225
33311,13187
33187,13188
33186,13188
32996,13226
32882,13273
32881,13274
32720,13381
32719,13382
32631,13469
32523,13631
32523,13632
32475,13746
32437,13938
32438,14000
32437,14061
32475,14253
32523,14367
32523,14368
32631,14530
32719,14617
32720,14618
32881,14725
32882,14726
32996,14773
33186,14811
33187,14811
33311,14812
33503,14774
33617,14726
33618,14726
33780,14618
33867,14530
33868,14529
33975,14368
33976,14367
34023,14253
34061,14062
34061,14062
34061,14062
34061,14061
34061,15990
34023,15978
34021,15980
34021,15976
33977,15840
33688,15708
33371,15696
33073,15806
33022,15840
32978,15976
33500,16497
34021,15976
34021,15980
33502,16500
34023,17021
34159,16977
34291,16688
34303,16371
34303,17929
34220,17929
34021,17729
34021,17023
33500,16502
33497,16504
33497,16500
32976,15978
32840,16022
32708,16311
32696,16628
32806,16926
32840,16977
32976,17021
33497,16500
33497,16504
32978,17023
33022,17159
33311,17291
33628,17303
33926,17193
33977,17159
34021,17023
34021,17729
34018,17726
33682,17586
33319,17586
32983,17725
32726,17981
32586,18317
32586,18680
32725,19016
32981,19273
33317,19413
33680,19413
34016,19274
34220,19070
35750,19070
35968,19027
35989,19013
36151,19013
36431,18897
36646,18682
36763,18402
36763,18098
36763,20190
36708,20311
36696,20628
36806,20926
36840,20977
36976,21021
37497,20500
37497,20504
36978,21023
37022,21159
37311,21291
37628,21303
37926,21193
37977,21159
38021,21023
38021,22151
34061,22151
34061,21061
34061,21000
34061,20938
34061,20937
34061,20937
34061,20937
34023,20746
33976,20632
33975,20631
33868,20470
33867,20469
33780,20381
33618,20273
33617,20273
33503,20225
33311,20187
33187,20188
33186,20188
32996,20226
32882,20273
32881,20274
32720,20381
32719,20382
32631,20469
32523,20631
32523,20632
32475,20746
32437,20938
32438,21000
32437,21061
32475,21253
32523,21367
32523,21368
32631,21530
32719,21617
32720,21618
32881,21725
32882,21726
32996,21773
33186,21811
33187,21811
33311,21812
33503,21774
33617,21726
33618,21726
33780,21618
33867,21530
33868,21529
33975,21368
33976,21367
34023,21253
34061,21062
34061,21062
34061,21062
34061,21061
34061,22151
32098,22151
32098,12848
54901,12848
54901,22151
" /> 
</g>
<g style="fill:#FFFFFF; fill-opacity:0.0; 
stroke:#FFFFFF; stroke-width:59.0551; stroke-opacity:1; 
stroke-linecap:round; stroke-linejoin:round;">
</g>
<g style="fill:#FFFFFF; fill-opacity:1.0; 
stroke:#FFFFFF; stroke-width:59.0551; stroke-opacity:1; 
stroke-linecap:round; stroke-linejoin:round;">
<circle cx="53500" cy="18500" r="39.3701" /> 
<circle cx="53500" cy="16500" r="39.3701" /> 
<circle cx="38250" cy="16500" r="39.3701" /> 
<circle cx="38250" cy="17500" r="39.3701" /> 
<circle cx="36000" cy="18250" r="39.3701" /> 
<circle cx="36000" cy="14250" r="39.3701" /> 
<circle cx="45000" cy="14750" r="39.3701" /> 
<circle cx="39250" cy="14750" r="39.3701" /> 
<circle cx="33500" cy="16500" r="39.3701" /> 
<circle cx="33500" cy="18500" r="39.3701" /> 
<circle cx="47250" cy="19250" r="39.3701" /> 
<circle cx="47250" cy="18250" r="39.3701" /> 
<circle cx="41250" cy="14750" r="39.3701" /> 
<circle cx="42250" cy="14750" r="39.3701" /> 
<circle cx="43250" cy="14750" r="39.3701" /> 
<circle cx="45250" cy="17000" r="39.3701" /> 
<circle cx="45250" cy="18000" r="39.3701" /> 
<circle cx="51000" cy="19750" r="39.3701" /> 
<circle cx="50000" cy="19750" r="39.3701" /> 
<circle cx="48500" cy="20500" r="39.3701" /> 
<circle cx="44500" cy="20500" r="39.3701" /> 
<circle cx="47000" cy="16750" r="39.3701" /> 
<circle cx="51000" cy="16750" r="39.3701" /> 
<circle cx="43250" cy="18500" r="39.3701" /> 
<circle cx="43250" cy="16500" r="39.3701" /> 
<circle cx="49000" cy="18000" r="39.3701" /> 
<circle cx="51000" cy="18000" r="39.3701" /> 
<circle cx="41250" cy="18500" r="39.3701" /> 
<circle cx="41250" cy="16500" r="39.3701" /> 
<circle cx="49250" cy="14250" r="39.3701" /> 
<circle cx="47250" cy="14250" r="39.3701" /> 
<circle cx="37500" cy="20500" r="39.3701" /> 
<circle cx="39500" cy="20500" r="39.3701" /> 
</g> 
</svg>
