<?xml version="1.0" standalone="no"?>
 <!DOCTYPE svg PUBLIC "-//W3C//DTD SVG 1.1//EN" 
 "http://www.w3.org/Graphics/SVG/1.1/DTD/svg11.dtd"> 
<svg xmlns="http://www.w3.org/2000/svg" version="1.1" 
    width="29.7002cm" height="41.9989cm" viewBox="0 0 116930 165350 ">
<title>SVG Picture created as selector-F_SilkS.svg date 2014/09/13 13:22:37 </title>
  <desc>Picture generated by PCBNEW </desc>
<g style="fill:#000000; fill-opacity:1;stroke:#000000; stroke-opacity:1;
stroke-linecap:round; stroke-linejoin:round; "
 transform="translate(0 0) scale(1 1)">
</g>
<g style="fill:#000000; fill-opacity:0.0; 
stroke:#000000; stroke-width:393.701; stroke-opacity:1; 
stroke-linecap:round; stroke-linejoin:round;">
<circle cx="89250" cy="33000" r="500" /> 
<circle cx="97500" cy="50250" r="500" /> 
<circle cx="59250" cy="56750" r="500" /> 
<circle cx="53000" cy="33000" r="559.017" /> 
</g>
<g style="fill:#000000; fill-opacity:0.0; 
stroke:#000000; stroke-width:150; stroke-opacity:1; 
stroke-linecap:round; stroke-linejoin:round;">
<path d="M79750 49500
L87750 49500
" />
<path d="M87750 51500
L79750 51500
" />
<path d="M79750 51500
L79750 49500
" />
<path d="M79750 50000
L80250 50000
" />
<path d="M80250 50000
L80250 51000
" />
<path d="M80250 51000
L79750 51000
" />
<path d="M87750 49500
L87750 51500
" />
</g>
<g style="fill:#000000; fill-opacity:0.0; 
stroke:#000000; stroke-width:120; stroke-opacity:1; 
stroke-linecap:round; stroke-linejoin:round;">
<path d="M52250 56750
L52250 52750
" />
<path d="M51750 56750
L54750 56750
" />
<path d="M54750 56750
L54750 52750
" />
<path d="M54750 52750
L51750 52750
" />
<path d="M51750 52750
L51750 56750
" />
</g>
<g style="fill:#000000; fill-opacity:0.0; 
stroke:#000000; stroke-width:60; stroke-opacity:1; 
stroke-linecap:round; stroke-linejoin:round;">
<path d="M89000 52500
L90000 52500
" />
<path d="M90000 52500
L90000 54500
" />
<path d="M90000 54500
L89000 54500
" />
<path d="M89000 54500
L89000 52500
" />
<path d="M83250 47000
L83250 48000
" />
<path d="M83250 48000
L81250 48000
" />
<path d="M81250 48000
L81250 47000
" />
<path d="M81250 47000
L83250 47000
" />
</g>
<g style="fill:#000000; fill-opacity:0.0; 
stroke:#000000; stroke-width:120; stroke-opacity:1; 
stroke-linecap:round; stroke-linejoin:round;">
<path d="M72000 38250
L72000 38650
" />
<path d="M72000 38650
L72400 38650
" />
<path d="M72400 38650
L72400 41850
" />
<path d="M72400 41850
L71600 41850
" />
<path d="M71600 41850
L71600 38650
" />
<path d="M71600 38650
L72000 38650
" />
<path d="M72200 38650
L72400 38850
" />
<path d="M72000 42250
L72000 41850
" />
<path d="M83000 38250
L83000 38650
" />
<path d="M83000 38650
L83400 38650
" />
<path d="M83400 38650
L83400 41850
" />
<path d="M83400 41850
L82600 41850
" />
<path d="M82600 41850
L82600 38650
" />
<path d="M82600 38650
L83000 38650
" />
<path d="M83200 38650
L83400 38850
" />
<path d="M83000 42250
L83000 41850
" />
<path d="M64250 35750
L64250 36150
" />
<path d="M64250 36150
L64650 36150
" />
<path d="M64650 36150
L64650 39350
" />
<path d="M64650 39350
L63850 39350
" />
<path d="M63850 39350
L63850 36150
" />
<path d="M63850 36150
L64250 36150
" />
<path d="M64450 36150
L64650 36350
" />
<path d="M64250 39750
L64250 39350
" />
<path d="M94250 38250
L94250 38650
" />
<path d="M94250 38650
L94650 38650
" />
<path d="M94650 38650
L94650 41850
" />
<path d="M94650 41850
L93850 41850
" />
<path d="M93850 41850
L93850 38650
" />
<path d="M93850 38650
L94250 38650
" />
<path d="M94450 38650
L94650 38850
" />
<path d="M94250 42250
L94250 41850
" />
<path d="M86500 35750
L86500 36150
" />
<path d="M86500 36150
L86900 36150
" />
<path d="M86900 36150
L86900 39350
" />
<path d="M86900 39350
L86100 39350
" />
<path d="M86100 39350
L86100 36150
" />
<path d="M86100 36150
L86500 36150
" />
<path d="M86700 36150
L86900 36350
" />
<path d="M86500 39750
L86500 39350
" />
<path d="M75500 35750
L75500 36150
" />
<path d="M75500 36150
L75900 36150
" />
<path d="M75900 36150
L75900 39350
" />
<path d="M75900 39350
L75100 39350
" />
<path d="M75100 39350
L75100 36150
" />
<path d="M75100 36150
L75500 36150
" />
<path d="M75700 36150
L75900 36350
" />
<path d="M75500 39750
L75500 39350
" />
<path d="M60750 38250
L60750 38650
" />
<path d="M60750 38650
L61150 38650
" />
<path d="M61150 38650
L61150 41850
" />
<path d="M61150 41850
L60350 41850
" />
<path d="M60350 41850
L60350 38650
" />
<path d="M60350 38650
L60750 38650
" />
<path d="M60950 38650
L61150 38850
" />
<path d="M60750 42250
L60750 41850
" />
<path d="M97750 35750
L97750 36150
" />
<path d="M97750 36150
L98150 36150
" />
<path d="M98150 36150
L98150 39350
" />
<path d="M98150 39350
L97350 39350
" />
<path d="M97350 39350
L97350 36150
" />
<path d="M97350 36150
L97750 36150
" />
<path d="M97950 36150
L98150 36350
" />
<path d="M97750 39750
L97750 39350
" />
<path d="M73600 36900
L73600 39700
" />
<path d="M73600 39700
L72800 39700
" />
<path d="M72800 39700
L72800 36900
" />
<path d="M72800 36900
L73600 36900
" />
<path d="M73400 36900
L73600 37100
" />
<path d="M84700 36900
L84700 39700
" />
<path d="M84700 39700
L83900 39700
" />
<path d="M83900 39700
L83900 36900
" />
<path d="M83900 36900
L84700 36900
" />
<path d="M84500 36900
L84700 37100
" />
<path d="M95900 37600
L95900 40400
" />
<path d="M95900 40400
L95100 40400
" />
<path d="M95100 40400
L95100 37600
" />
<path d="M95100 37600
L95900 37600
" />
<path d="M95700 37600
L95900 37800
" />
<path d="M62400 37600
L62400 40400
" />
<path d="M62400 40400
L61600 40400
" />
<path d="M61600 40400
L61600 37600
" />
<path d="M61600 37600
L62400 37600
" />
<path d="M62200 37600
L62400 37800
" />
<path d="M64350 56900
L64350 54100
" />
<path d="M64350 54100
L65150 54100
" />
<path d="M65150 54100
L65150 56900
" />
<path d="M65150 56900
L64350 56900
" />
<path d="M64550 56900
L64350 56700
" />
<path d="M90850 57150
L90850 54350
" />
<path d="M90850 54350
L91650 54350
" />
<path d="M91650 54350
L91650 57150
" />
<path d="M91650 57150
L90850 57150
" />
<path d="M91050 57150
L90850 56950
" />
<path d="M55600 56150
L55600 53350
" />
<path d="M55600 53350
L56400 53350
" />
<path d="M56400 53350
L56400 56150
" />
<path d="M56400 56150
L55600 56150
" />
<path d="M55800 56150
L55600 55950
" />
<path d="M86500 56000
L85000 54500
" />
<path d="M85000 54500
L84500 54500
" />
<path d="M84500 54500
L84000 55000
" />
<path d="M84000 55000
L84000 56000
" />
<path d="M84000 56000
L85000 57000
" />
<path d="M85000 57000
L86000 57000
" />
<path d="M86000 57000
L86500 56500
" />
<path d="M86500 56500
L86500 56000
" />
<path d="M57500 50000
L57100 50000
" />
<path d="M57100 50000
L57100 50400
" />
<path d="M57100 50400
L53900 50400
" />
<path d="M53900 50400
L53900 49600
" />
<path d="M53900 49600
L57100 49600
" />
<path d="M57100 49600
L57100 50000
" />
<path d="M57100 50200
L56900 50400
" />
<path d="M53500 50000
L53900 50000
" />
<path d="M57500 48500
L57100 48500
" />
<path d="M57100 48500
L57100 48900
" />
<path d="M57100 48900
L53900 48900
" />
<path d="M53900 48900
L53900 48100
" />
<path d="M53900 48100
L57100 48100
" />
<path d="M57100 48100
L57100 48500
" />
<path d="M57100 48700
L56900 48900
" />
<path d="M53500 48500
L53900 48500
" />
<path d="M82350 57400
L82350 54600
" />
<path d="M82350 54600
L83150 54600
" />
<path d="M83150 54600
L83150 57400
" />
<path d="M83150 57400
L82350 57400
" />
<path d="M82550 57400
L82350 57200
" />
<path d="M92500 53500
L92900 53500
" />
<path d="M92900 53500
L92900 53100
" />
<path d="M92900 53100
L96100 53100
" />
<path d="M96100 53100
L96100 53900
" />
<path d="M96100 53900
L92900 53900
" />
<path d="M92900 53900
L92900 53500
" />
<path d="M92900 53300
L93100 53100
" />
<path d="M96500 53500
L96100 53500
" />
<path d="M69000 54750
L67500 53250
" />
<path d="M67500 53250
L67000 53250
" />
<path d="M67000 53250
L66500 53750
" />
<path d="M66500 53750
L66500 54750
" />
<path d="M66500 54750
L67500 55750
" />
<path d="M67500 55750
L68500 55750
" />
<path d="M68500 55750
L69000 55250
" />
<path d="M69000 55250
L69000 54750
" />
<path d="M78000 53500
L78400 53500
" />
<path d="M78400 53500
L78400 53100
" />
<path d="M78400 53100
L81600 53100
" />
<path d="M81600 53100
L81600 53900
" />
<path d="M81600 53900
L78400 53900
" />
<path d="M78400 53900
L78400 53500
" />
<path d="M78400 53300
L78600 53100
" />
<path d="M82000 53500
L81600 53500
" />
<path d="M92250 35750
L92250 36150
" />
<path d="M92250 36150
L92650 36150
" />
<path d="M92650 36150
L92650 39350
" />
<path d="M92650 39350
L91850 39350
" />
<path d="M91850 39350
L91850 36150
" />
<path d="M91850 36150
L92250 36150
" />
<path d="M92450 36150
L92650 36350
" />
<path d="M92250 39750
L92250 39350
" />
<path d="M88750 38250
L88750 38650
" />
<path d="M88750 38650
L89150 38650
" />
<path d="M89150 38650
L89150 41850
" />
<path d="M89150 41850
L88350 41850
" />
<path d="M88350 41850
L88350 38650
" />
<path d="M88350 38650
L88750 38650
" />
<path d="M88950 38650
L89150 38850
" />
<path d="M88750 42250
L88750 41850
" />
<path d="M81000 35750
L81000 36150
" />
<path d="M81000 36150
L81400 36150
" />
<path d="M81400 36150
L81400 39350
" />
<path d="M81400 39350
L80600 39350
" />
<path d="M80600 39350
L80600 36150
" />
<path d="M80600 36150
L81000 36150
" />
<path d="M81200 36150
L81400 36350
" />
<path d="M81000 39750
L81000 39350
" />
<path d="M55750 38250
L55750 38650
" />
<path d="M55750 38650
L56150 38650
" />
<path d="M56150 38650
L56150 41850
" />
<path d="M56150 41850
L55350 41850
" />
<path d="M55350 41850
L55350 38650
" />
<path d="M55350 38650
L55750 38650
" />
<path d="M55950 38650
L56150 38850
" />
<path d="M55750 42250
L55750 41850
" />
<path d="M77500 38250
L77500 38650
" />
<path d="M77500 38650
L77900 38650
" />
<path d="M77900 38650
L77900 41850
" />
<path d="M77900 41850
L77100 41850
" />
<path d="M77100 41850
L77100 38650
" />
<path d="M77100 38650
L77500 38650
" />
<path d="M77700 38650
L77900 38850
" />
<path d="M77500 42250
L77500 41850
" />
<path d="M70000 35750
L70000 36150
" />
<path d="M70000 36150
L70400 36150
" />
<path d="M70400 36150
L70400 39350
" />
<path d="M70400 39350
L69600 39350
" />
<path d="M69600 39350
L69600 36150
" />
<path d="M69600 36150
L70000 36150
" />
<path d="M70200 36150
L70400 36350
" />
<path d="M70000 39750
L70000 39350
" />
<path d="M58750 35750
L58750 36150
" />
<path d="M58750 36150
L59150 36150
" />
<path d="M59150 36150
L59150 39350
" />
<path d="M59150 39350
L58350 39350
" />
<path d="M58350 39350
L58350 36150
" />
<path d="M58350 36150
L58750 36150
" />
<path d="M58950 36150
L59150 36350
" />
<path d="M58750 39750
L58750 39350
" />
<path d="M66500 38250
L66500 38650
" />
<path d="M66500 38650
L66900 38650
" />
<path d="M66900 38650
L66900 41850
" />
<path d="M66900 41850
L66100 41850
" />
<path d="M66100 41850
L66100 38650
" />
<path d="M66100 38650
L66500 38650
" />
<path d="M66700 38650
L66900 38850
" />
<path d="M66500 42250
L66500 41850
" />
</g>
<g style="fill:#000000; fill-opacity:0.0; 
stroke:#000000; stroke-width:150; stroke-opacity:1; 
stroke-linecap:round; stroke-linejoin:round;">
<path d="M65500 49500
L73500 49500
" />
<path d="M73500 51500
L65500 51500
" />
<path d="M65500 51500
L65500 49500
" />
<path d="M65500 50000
L66000 50000
" />
<path d="M66000 50000
L66000 51000
" />
<path d="M66000 51000
L65500 51000
" />
<path d="M73500 49500
L73500 51500
" />
</g>
<g style="fill:#000000; fill-opacity:0.0; 
stroke:#000000; stroke-width:120; stroke-opacity:1; 
stroke-linecap:round; stroke-linejoin:round;">
<path d="M68100 36900
L68100 39700
" />
<path d="M68100 39700
L67300 39700
" />
<path d="M67300 39700
L67300 36900
" />
<path d="M67300 36900
L68100 36900
" />
<path d="M67900 36900
L68100 37100
" />
<path d="M57650 36850
L57650 39650
" />
<path d="M57650 39650
L56850 39650
" />
<path d="M56850 39650
L56850 36850
" />
<path d="M56850 36850
L57650 36850
" />
<path d="M57450 36850
L57650 37050
" />
<path d="M79200 36900
L79200 39700
" />
<path d="M79200 39700
L78400 39700
" />
<path d="M78400 39700
L78400 36900
" />
<path d="M78400 36900
L79200 36900
" />
<path d="M79000 36900
L79200 37100
" />
<path d="M90400 37600
L90400 40400
" />
<path d="M90400 40400
L89600 40400
" />
<path d="M89600 40400
L89600 37600
" />
<path d="M89600 37600
L90400 37600
" />
<path d="M90200 37600
L90400 37800
" />
<path d="M76100 56150
L76100 53350
" />
<path d="M76100 53350
L76900 53350
" />
<path d="M76900 53350
L76900 56150
" />
<path d="M76900 56150
L76100 56150
" />
<path d="M76300 56150
L76100 55950
" />
<path d="M80750 34500
L80750 31500
" />
<path d="M86750 34500
L86750 31500
" />
<path d="M80750 34000
L86750 34000
" />
<path d="M80750 31500
L86750 31500
" />
<path d="M80750 34500
L86750 34500
" />
<path d="M92000 34500
L92000 31500
" />
<path d="M98000 34500
L98000 31500
" />
<path d="M92000 34000
L98000 34000
" />
<path d="M92000 31500
L98000 31500
" />
<path d="M92000 34500
L98000 34500
" />
<path d="M69750 34500
L69750 31500
" />
<path d="M75750 34500
L75750 31500
" />
<path d="M69750 34000
L75750 34000
" />
<path d="M69750 31500
L75750 31500
" />
<path d="M69750 34500
L75750 34500
" />
<path d="M58500 34500
L58500 31500
" />
<path d="M64500 34500
L64500 31500
" />
<path d="M58500 34000
L64500 34000
" />
<path d="M58500 31500
L64500 31500
" />
<path d="M58500 34500
L64500 34500
" />
</g>
<g style="fill:#000000; fill-opacity:0.0; 
stroke:#000000; stroke-width:60; stroke-opacity:1; 
stroke-linecap:round; stroke-linejoin:round;">
<path d="M69000 47250
L69000 48250
" />
<path d="M69000 48250
L67000 48250
" />
<path d="M67000 48250
L67000 47250
" />
<path d="M67000 47250
L69000 47250
" />
<path d="M72000 52750
L72000 53750
" />
<path d="M72000 53750
L70000 53750
" />
<path d="M70000 53750
L70000 52750
" />
<path d="M70000 52750
L72000 52750
" />
</g>
<g style="fill:#000000; fill-opacity:0.0; 
stroke:#000000; stroke-width:120; stroke-opacity:1; 
stroke-linecap:round; stroke-linejoin:round;">
<path d="M56750 52000
L56750 52000
" />
<path d="M56750 52000
L56750 52000
" />
<path d="M56750 52000
L56750 52000
" />
<path d="M56750 52000
L53000 52000
" />
<path d="M53000 52000
L53000 51000
" />
<path d="M53000 51000
L56750 51000
" />
<path d="M56750 51000
L56750 52000
" />
<path d="M56750 51750
L56750 51750
" />
<path d="M56750 51750
L57000 51750
" />
<path d="M57000 51750
L57000 51250
" />
<path d="M57000 51250
L56750 51250
" />
<path d="M57500 51500
L57500 51500
" />
<path d="M57500 51500
L57000 51500
" />
<path d="M57000 51500
L57000 51500
" />
<path d="M57000 51500
L57000 51500
" />
<path d="M53000 51500
L53000 51500
" />
<path d="M53000 51500
L53000 51500
" />
<path d="M53000 51500
L52500 51500
" />
<path d="M52500 51500
L52500 51500
" />
<path d="M52500 51500
L52500 51500
" />
<path d="M52500 51500
L52500 51500
" />
<path d="M53000 46000
L53000 46000
" />
<path d="M53000 46000
L53000 46000
" />
<path d="M53000 46000
L53000 46000
" />
<path d="M53000 46000
L53000 42250
" />
<path d="M53000 42250
L54000 42250
" />
<path d="M54000 42250
L54000 46000
" />
<path d="M54000 46000
L53000 46000
" />
<path d="M53250 46000
L53250 46000
" />
<path d="M53250 46000
L53250 46250
" />
<path d="M53250 46250
L53750 46250
" />
<path d="M53750 46250
L53750 46000
" />
<path d="M53500 46750
L53500 46750
" />
<path d="M53500 46750
L53500 46250
" />
<path d="M53500 46250
L53500 46250
" />
<path d="M53500 46250
L53500 46250
" />
<path d="M53500 42250
L53500 42250
" />
<path d="M53500 42250
L53500 42250
" />
<path d="M53500 42250
L53500 41750
" />
<path d="M53500 41750
L53500 41750
" />
<path d="M53500 41750
L53500 41750
" />
<path d="M53500 41750
L53500 41750
" />
<path d="M78100 51900
L78100 49100
" />
<path d="M78100 49100
L78900 49100
" />
<path d="M78900 49100
L78900 51900
" />
<path d="M78900 51900
L78100 51900
" />
<path d="M78300 51900
L78100 51700
" />
<path d="M61850 48600
L64650 48600
" />
<path d="M64650 48600
L64650 49400
" />
<path d="M64650 49400
L61850 49400
" />
<path d="M61850 49400
L61850 48600
" />
<path d="M61850 48800
L62050 48600
" />
<path d="M81750 57750
L77750 57750
" />
<path d="M81750 58250
L81750 55250
" />
<path d="M81750 55250
L77750 55250
" />
<path d="M77750 55250
L77750 58250
" />
<path d="M77750 58250
L81750 58250
" />
<path d="M96750 57750
L92750 57750
" />
<path d="M96750 58250
L96750 55250
" />
<path d="M96750 55250
L92750 55250
" />
<path d="M92750 55250
L92750 58250
" />
<path d="M92750 58250
L96750 58250
" />
</g>
<g style="fill:#000000; fill-opacity:0.0; 
stroke:#000000; stroke-width:112.5; stroke-opacity:1; 
stroke-linecap:round; stroke-linejoin:round;">
<path d="M81157 50142
L81157 50628
L81178 50685
L81200 50714
L81242 50742
L81328 50742
L81371 50714
L81392 50685
L81414 50628
L81414 50142
" />
<path d="M81864 50742
L81607 50742
" />
<path d="M81735 50742
L81735 50142
L81692 50228
L81650 50285
L81607 50314
" />
</g>
<g style="fill:#000000; fill-opacity:0.0; 
stroke:#000000; stroke-width:120; stroke-opacity:1; 
stroke-linecap:round; stroke-linejoin:round;">
</g>
<g style="fill:#000000; fill-opacity:0.0; 
stroke:#000000; stroke-width:112.5; stroke-opacity:1; 
stroke-linecap:round; stroke-linejoin:round;">
<path d="M84842 51307
L85242 51307
" />
<path d="M84614 51414
L85042 51521
L85042 51242
" />
<path d="M84642 50985
L84642 50942
L84671 50900
L84700 50878
L84757 50857
L84871 50835
L85014 50835
L85128 50857
L85185 50878
L85214 50900
L85242 50942
L85242 50985
L85214 51028
L85185 51050
L85128 51071
L85014 51092
L84871 51092
L84757 51071
L84700 51050
L84671 51028
L84642 50985
" />
<path d="M84642 50450
L84642 50535
L84671 50578
L84700 50600
L84785 50642
L84900 50664
L85128 50664
L85185 50642
L85214 50621
L85242 50578
L85242 50492
L85214 50450
L85185 50428
L85128 50407
L84985 50407
L84928 50428
L84900 50450
L84871 50492
L84871 50578
L84900 50621
L84928 50642
L84985 50664
" />
<path d="M84642 50021
L84642 50107
L84671 50150
L84700 50171
L84785 50214
L84900 50235
L85128 50235
L85185 50214
L85214 50192
L85242 50150
L85242 50064
L85214 50021
L85185 50000
L85128 49978
L84985 49978
L84928 50000
L84900 50021
L84871 50064
L84871 50150
L84900 50192
L84928 50214
L84985 50235
" />
</g>
<g style="fill:#000000; fill-opacity:0.0; 
stroke:#000000; stroke-width:120; stroke-opacity:1; 
stroke-linecap:round; stroke-linejoin:round;">
<path d="M55492 56635
L54892 56635
L54892 56407
L54921 56350
L54950 56321
L55007 56292
L55092 56292
L55150 56321
L55178 56350
L55207 56407
L55207 56635
" />
<path d="M55492 55950
L55464 56007
L55435 56035
L55378 56064
L55207 56064
L55150 56035
L55121 56007
L55092 55950
L55092 55864
L55121 55807
L55150 55778
L55207 55750
L55378 55750
L55435 55778
L55464 55807
L55492 55864
L55492 55950
" />
<path d="M55092 55550
L55492 55435
L55207 55321
L55492 55207
L55092 55092
" />
<path d="M55464 54635
L55492 54692
L55492 54807
L55464 54864
L55407 54892
L55178 54892
L55121 54864
L55092 54807
L55092 54692
L55121 54635
L55178 54607
L55235 54607
L55292 54892
" />
<path d="M55492 54350
L55092 54350
" />
<path d="M55207 54350
L55150 54321
L55121 54292
L55092 54235
L55092 54178
" />
<path d="M55492 53978
L54892 53978
" />
<path d="M55092 53692
L55492 53692
" />
<path d="M55150 53692
L55121 53664
L55092 53607
L55092 53521
L55121 53464
L55178 53435
L55492 53435
" />
<path d="M55492 52835
L55492 53178
" />
<path d="M55492 53007
L54892 53007
L54978 53064
L55035 53121
L55064 53178
" />
<path d="M51435 56021
L51464 56049
L51492 56135
L51492 56192
L51464 56278
L51407 56335
L51350 56364
L51235 56392
L51150 56392
L51035 56364
L50978 56335
L50921 56278
L50892 56192
L50892 56135
L50921 56049
L50950 56021
" />
<path d="M50892 55649
L50892 55535
L50921 55478
L50978 55421
L51092 55392
L51292 55392
L51407 55421
L51464 55478
L51492 55535
L51492 55649
L51464 55707
L51407 55764
L51292 55792
L51092 55792
L50978 55764
L50921 55707
L50892 55649
" />
<path d="M51492 55135
L50892 55135
L51492 54792
L50892 54792
" />
<path d="M51492 54507
L50892 54507
L51492 54164
L50892 54164
" />
<path d="M51550 54021
L51550 53564
" />
<path d="M50950 53450
L50921 53421
L50892 53364
L50892 53221
L50921 53164
L50950 53135
L51007 53107
L51064 53107
L51150 53135
L51492 53478
L51492 53107
" />
</g>
<g style="fill:#000000; fill-opacity:0.0; 
stroke:#000000; stroke-width:60; stroke-opacity:1; 
stroke-linecap:round; stroke-linejoin:round;">
<path d="M90371 53721
L90071 53721
L90071 53607
L90085 53578
L90100 53564
L90128 53550
L90171 53550
L90200 53564
L90214 53578
L90228 53607
L90228 53721
" />
<path d="M90071 53278
L90071 53421
L90214 53435
L90200 53421
L90185 53392
L90185 53321
L90200 53292
L90214 53278
L90242 53264
L90314 53264
L90342 53278
L90357 53292
L90371 53321
L90371 53392
L90357 53421
L90342 53435
" />
<path d="M82028 48371
L82028 48071
L82142 48071
L82171 48085
L82185 48100
L82200 48128
L82200 48171
L82185 48200
L82171 48214
L82142 48228
L82028 48228
" />
<path d="M82457 48071
L82400 48071
L82371 48085
L82357 48100
L82328 48142
L82314 48200
L82314 48314
L82328 48342
L82342 48357
L82371 48371
L82428 48371
L82457 48357
L82471 48342
L82485 48314
L82485 48242
L82471 48214
L82457 48200
L82428 48185
L82371 48185
L82342 48200
L82328 48214
L82314 48242
" />
</g>
<g style="fill:#000000; fill-opacity:0.0; 
stroke:#000000; stroke-width:80; stroke-opacity:1; 
stroke-linecap:round; stroke-linejoin:round;">
<path d="M71472 41333
L71210 41500
" />
<path d="M71472 41619
L70922 41619
L70922 41428
L70948 41380
L70975 41357
L71027 41333
L71105 41333
L71158 41357
L71184 41380
L71210 41428
L71210 41619
" />
<path d="M70922 41166
L70922 40833
L71472 41047
" />
<path d="M83222 40833
L82960 41000
" />
<path d="M83222 41119
L82672 41119
L82672 40928
L82698 40880
L82725 40857
L82777 40833
L82855 40833
L82908 40857
L82934 40880
L82960 40928
L82960 41119
" />
<path d="M82672 40404
L82672 40500
L82698 40547
L82725 40571
L82803 40619
L82908 40642
L83117 40642
L83170 40619
L83196 40595
L83222 40547
L83222 40452
L83196 40404
L83170 40380
L83117 40357
L82986 40357
L82934 40380
L82908 40404
L82882 40452
L82882 40547
L82908 40595
L82934 40619
L82986 40642
" />
<path d="M65347 38708
L65085 38875
" />
<path d="M65347 38994
L64797 38994
L64797 38803
L64823 38755
L64850 38732
L64902 38708
L64980 38708
L65033 38732
L65059 38755
L65085 38803
L65085 38994
" />
<path d="M64797 38255
L64797 38494
L65059 38517
L65033 38494
L65007 38446
L65007 38327
L65033 38279
L65059 38255
L65111 38232
L65242 38232
L65295 38255
L65321 38279
L65347 38327
L65347 38446
L65321 38494
L65295 38517
" />
<path d="M95222 41583
L94960 41750
" />
<path d="M95222 41869
L94672 41869
L94672 41678
L94698 41630
L94725 41607
L94777 41583
L94855 41583
L94908 41607
L94934 41630
L94960 41678
L94960 41869
" />
<path d="M94672 41416
L94672 41107
L94882 41273
L94882 41202
L94908 41154
L94934 41130
L94986 41107
L95117 41107
L95170 41130
L95196 41154
L95222 41202
L95222 41345
L95196 41392
L95170 41416
" />
<path d="M87472 37833
L87210 38000
" />
<path d="M87472 38119
L86922 38119
L86922 37928
L86948 37880
L86975 37857
L87027 37833
L87105 37833
L87158 37857
L87184 37880
L87210 37928
L87210 38119
" />
<path d="M87472 37357
L87472 37642
" />
<path d="M87472 37500
L86922 37500
L87001 37547
L87053 37595
L87079 37642
" />
<path d="M74972 38833
L74710 39000
" />
<path d="M74972 39119
L74422 39119
L74422 38928
L74448 38880
L74475 38857
L74527 38833
L74605 38833
L74658 38857
L74684 38880
L74710 38928
L74710 39119
" />
<path d="M74605 38404
L74972 38404
" />
<path d="M74396 38523
L74789 38642
L74789 38333
" />
<path d="M60097 41458
L59835 41625
" />
<path d="M60097 41744
L59547 41744
L59547 41553
L59573 41505
L59600 41482
L59652 41458
L59730 41458
L59783 41482
L59809 41505
L59835 41553
L59835 41744
" />
<path d="M59783 41172
L59757 41220
L59730 41244
L59678 41267
L59652 41267
L59600 41244
L59573 41220
L59547 41172
L59547 41077
L59573 41029
L59600 41005
L59652 40982
L59678 40982
L59730 41005
L59757 41029
L59783 41077
L59783 41172
L59809 41220
L59835 41244
L59888 41267
L59992 41267
L60045 41244
L60071 41220
L60097 41172
L60097 41077
L60071 41029
L60045 41005
L59992 40982
L59888 40982
L59835 41005
L59809 41029
L59783 41077
" />
<path d="M97472 37583
L97210 37750
" />
<path d="M97472 37869
L96922 37869
L96922 37678
L96948 37630
L96975 37607
L97027 37583
L97105 37583
L97158 37607
L97184 37630
L97210 37678
L97210 37869
" />
<path d="M96975 37392
L96948 37369
L96922 37321
L96922 37202
L96948 37154
L96975 37130
L97027 37107
L97079 37107
L97158 37130
L97472 37416
L97472 37107
" />
<path d="M72573 39366
L72592 39385
L72611 39442
L72611 39480
L72592 39538
L72554 39576
L72516 39595
L72440 39614
L72383 39614
L72307 39595
L72269 39576
L72230 39538
L72211 39480
L72211 39442
L72230 39385
L72250 39366
" />
<path d="M72211 39233
L72211 38985
L72364 39119
L72364 39061
L72383 39023
L72402 39004
L72440 38985
L72535 38985
L72573 39004
L72592 39023
L72611 39061
L72611 39176
L72592 39214
L72573 39233
" />
<path d="M85423 38366
L85442 38385
L85461 38442
L85461 38480
L85442 38538
L85404 38576
L85366 38595
L85290 38614
L85233 38614
L85157 38595
L85119 38576
L85080 38538
L85061 38480
L85061 38442
L85080 38385
L85100 38366
" />
<path d="M85461 37985
L85461 38214
" />
<path d="M85461 38099
L85061 38099
L85119 38138
L85157 38176
L85176 38214
" />
<path d="M94873 38066
L94892 38085
L94911 38142
L94911 38180
L94892 38238
L94854 38276
L94816 38295
L94740 38314
L94683 38314
L94607 38295
L94569 38276
L94530 38238
L94511 38180
L94511 38142
L94530 38085
L94550 38066
" />
<path d="M94550 37914
L94530 37895
L94511 37857
L94511 37761
L94530 37723
L94550 37704
L94588 37685
L94626 37685
L94683 37704
L94911 37933
L94911 37685
" />
<path d="M61498 40191
L61517 40210
L61536 40267
L61536 40305
L61517 40363
L61479 40401
L61441 40420
L61365 40439
L61308 40439
L61232 40420
L61194 40401
L61155 40363
L61136 40305
L61136 40267
L61155 40210
L61175 40191
" />
<path d="M61270 39848
L61536 39848
" />
<path d="M61117 39944
L61403 40039
L61403 39791
" />
<path d="M64123 55566
L64142 55585
L64161 55642
L64161 55680
L64142 55738
L64104 55776
L64066 55795
L63990 55814
L63933 55814
L63857 55795
L63819 55776
L63780 55738
L63761 55680
L63761 55642
L63780 55585
L63800 55566
" />
<path d="M63761 55204
L63761 55395
L63952 55414
L63933 55395
L63914 55357
L63914 55261
L63933 55223
L63952 55204
L63990 55185
L64085 55185
L64123 55204
L64142 55223
L64161 55261
L64161 55357
L64142 55395
L64123 55414
" />
<path d="M92373 55816
L92392 55835
L92411 55892
L92411 55930
L92392 55988
L92354 56026
L92316 56045
L92240 56064
L92183 56064
L92107 56045
L92069 56026
L92030 55988
L92011 55930
L92011 55892
L92030 55835
L92050 55816
" />
<path d="M92011 55473
L92011 55549
L92030 55588
L92050 55607
L92107 55645
L92183 55664
L92335 55664
L92373 55645
L92392 55626
L92411 55588
L92411 55511
L92392 55473
L92373 55454
L92335 55435
L92240 55435
L92202 55454
L92183 55473
L92164 55511
L92164 55588
L92183 55626
L92202 55645
L92240 55664
" />
<path d="M55373 55066
L55392 55085
L55411 55142
L55411 55180
L55392 55238
L55354 55276
L55316 55295
L55240 55314
L55183 55314
L55107 55295
L55069 55276
L55030 55238
L55011 55180
L55011 55142
L55030 55085
L55050 55066
" />
<path d="M55411 54876
L55411 54799
L55392 54761
L55373 54742
L55316 54704
L55240 54685
L55088 54685
L55050 54704
L55030 54723
L55011 54761
L55011 54838
L55030 54876
L55050 54895
L55088 54914
L55183 54914
L55221 54895
L55240 54876
L55259 54838
L55259 54761
L55240 54723
L55221 54704
L55183 54685
" />
<path d="M87200 56038
L87180 56076
L87142 56114
L87085 56171
L87066 56209
L87066 56247
" />
<path d="M87161 56228
L87142 56266
L87104 56304
L87028 56323
L86895 56323
L86819 56304
L86780 56266
L86761 56228
L86761 56152
L86780 56114
L86819 56076
L86895 56057
L87028 56057
L87104 56076
L87142 56114
L87161 56152
L87161 56228
" />
<path d="M87161 55676
L87161 55904
" />
<path d="M87161 55790
L86761 55790
L86819 55828
L86857 55866
L86876 55904
" />
<path d="M83452 56742
L83471 56685
L83490 56666
L83528 56647
L83585 56647
L83623 56666
L83642 56685
L83661 56723
L83661 56876
L83261 56876
L83261 56742
L83280 56704
L83300 56685
L83338 56666
L83376 56666
L83414 56685
L83433 56704
L83452 56742
L83452 56876
" />
<path d="M83623 56247
L83642 56266
L83661 56323
L83661 56361
L83642 56419
L83604 56457
L83566 56476
L83490 56495
L83433 56495
L83357 56476
L83319 56457
L83280 56419
L83261 56361
L83261 56323
L83280 56266
L83300 56247
" />
<path d="M83261 55885
L83261 56076
L83452 56095
L83433 56076
L83414 56038
L83414 55942
L83433 55904
L83452 55885
L83490 55866
L83585 55866
L83623 55885
L83642 55904
L83661 55942
L83661 56038
L83642 56076
L83623 56095
" />
<path d="M83395 55523
L83661 55523
" />
<path d="M83242 55619
L83528 55714
L83528 55466
" />
<path d="M83433 55257
L83414 55295
L83395 55314
L83357 55333
L83338 55333
L83300 55314
L83280 55295
L83261 55257
L83261 55180
L83280 55142
L83300 55123
L83338 55104
L83357 55104
L83395 55123
L83414 55142
L83433 55180
L83433 55257
L83452 55295
L83471 55314
L83509 55333
L83585 55333
L83623 55314
L83642 55295
L83661 55257
L83661 55180
L83642 55142
L83623 55123
L83585 55104
L83509 55104
L83471 55123
L83452 55142
L83433 55180
" />
<path d="M55416 51222
L55250 50960
" />
<path d="M55130 51222
L55130 50672
L55321 50672
L55369 50698
L55392 50725
L55416 50777
L55416 50855
L55392 50908
L55369 50934
L55321 50960
L55130 50960
" />
<path d="M55654 51222
L55750 51222
L55797 51196
L55821 51170
L55869 51091
L55892 50986
L55892 50777
L55869 50725
L55845 50698
L55797 50672
L55702 50672
L55654 50698
L55630 50725
L55607 50777
L55607 50908
L55630 50960
L55654 50986
L55702 51013
L55797 51013
L55845 50986
L55869 50960
L55892 50908
" />
<path d="M55178 47972
L55011 47710
" />
<path d="M54892 47972
L54892 47422
L55083 47422
L55130 47448
L55154 47475
L55178 47527
L55178 47605
L55154 47658
L55130 47684
L55083 47710
L54892 47710
" />
<path d="M55654 47972
L55369 47972
" />
<path d="M55511 47972
L55511 47422
L55464 47501
L55416 47553
L55369 47579
" />
<path d="M55964 47422
L56011 47422
L56059 47448
L56083 47475
L56107 47527
L56130 47632
L56130 47763
L56107 47867
L56083 47920
L56059 47946
L56011 47972
L55964 47972
L55916 47946
L55892 47920
L55869 47867
L55845 47763
L55845 47632
L55869 47527
L55892 47475
L55916 47448
L55964 47422
" />
<path d="M83623 56066
L83642 56085
L83661 56142
L83661 56180
L83642 56238
L83604 56276
L83566 56295
L83490 56314
L83433 56314
L83357 56295
L83319 56276
L83280 56238
L83261 56180
L83261 56142
L83280 56085
L83300 56066
" />
<path d="M83433 55838
L83414 55876
L83395 55895
L83357 55914
L83338 55914
L83300 55895
L83280 55876
L83261 55838
L83261 55761
L83280 55723
L83300 55704
L83338 55685
L83357 55685
L83395 55704
L83414 55723
L83433 55761
L83433 55838
L83452 55876
L83471 55895
L83509 55914
L83585 55914
L83623 55895
L83642 55876
L83661 55838
L83661 55761
L83642 55723
L83623 55704
L83585 55685
L83509 55685
L83471 55704
L83452 55723
L83433 55761
" />
<path d="M94428 54722
L94261 54460
" />
<path d="M94142 54722
L94142 54172
L94333 54172
L94380 54198
L94404 54225
L94428 54277
L94428 54355
L94404 54408
L94380 54434
L94333 54460
L94142 54460
" />
<path d="M94904 54722
L94619 54722
" />
<path d="M94761 54722
L94761 54172
L94714 54251
L94666 54303
L94619 54329
" />
<path d="M95380 54722
L95095 54722
" />
<path d="M95238 54722
L95238 54172
L95190 54251
L95142 54303
L95095 54329
" />
<path d="M69700 54788
L69680 54826
L69642 54864
L69585 54921
L69566 54959
L69566 54997
" />
<path d="M69661 54978
L69642 55016
L69604 55054
L69528 55073
L69395 55073
L69319 55054
L69280 55016
L69261 54978
L69261 54902
L69280 54864
L69319 54826
L69395 54807
L69528 54807
L69604 54826
L69642 54864
L69661 54902
L69661 54978
" />
<path d="M69300 54654
L69280 54635
L69261 54597
L69261 54502
L69280 54464
L69300 54445
L69338 54426
L69376 54426
L69433 54445
L69661 54673
L69661 54426
" />
<path d="M65952 55492
L65971 55435
L65990 55416
L66028 55397
L66085 55397
L66123 55416
L66142 55435
L66161 55473
L66161 55626
L65761 55626
L65761 55492
L65780 55454
L65800 55435
L65838 55416
L65876 55416
L65914 55435
L65933 55454
L65952 55492
L65952 55626
" />
<path d="M66123 54997
L66142 55016
L66161 55073
L66161 55111
L66142 55169
L66104 55207
L66066 55226
L65990 55245
L65933 55245
L65857 55226
L65819 55207
L65780 55169
L65761 55111
L65761 55073
L65780 55016
L65800 54997
" />
<path d="M65761 54635
L65761 54826
L65952 54845
L65933 54826
L65914 54788
L65914 54692
L65933 54654
L65952 54635
L65990 54616
L66085 54616
L66123 54635
L66142 54654
L66161 54692
L66161 54788
L66142 54826
L66123 54845
" />
<path d="M65895 54273
L66161 54273
" />
<path d="M65742 54369
L66028 54464
L66028 54216
" />
<path d="M65933 54007
L65914 54045
L65895 54064
L65857 54083
L65838 54083
L65800 54064
L65780 54045
L65761 54007
L65761 53930
L65780 53892
L65800 53873
L65838 53854
L65857 53854
L65895 53873
L65914 53892
L65933 53930
L65933 54007
L65952 54045
L65971 54064
L66009 54083
L66085 54083
L66123 54064
L66142 54045
L66161 54007
L66161 53930
L66142 53892
L66123 53873
L66085 53854
L66009 53854
L65971 53873
L65952 53892
L65933 53930
" />
<path d="M80678 52972
L80511 52710
" />
<path d="M80392 52972
L80392 52422
L80583 52422
L80630 52448
L80654 52475
L80678 52527
L80678 52605
L80654 52658
L80630 52684
L80583 52710
L80392 52710
" />
<path d="M80869 52475
L80892 52448
L80940 52422
L81059 52422
L81107 52448
L81130 52475
L81154 52527
L81154 52579
L81130 52658
L80845 52972
L81154 52972
" />
<path d="M81464 52422
L81511 52422
L81559 52448
L81583 52475
L81607 52527
L81630 52632
L81630 52763
L81607 52867
L81583 52920
L81559 52946
L81511 52972
L81464 52972
L81416 52946
L81392 52920
L81369 52867
L81345 52763
L81345 52632
L81369 52527
L81392 52475
L81416 52448
L81464 52422
" />
<path d="M91722 39071
L91460 39238
" />
<path d="M91722 39357
L91172 39357
L91172 39166
L91198 39119
L91225 39095
L91277 39071
L91355 39071
L91408 39095
L91434 39119
L91460 39166
L91460 39357
" />
<path d="M91722 38595
L91722 38880
" />
<path d="M91722 38738
L91172 38738
L91251 38785
L91303 38833
L91329 38880
" />
<path d="M91172 38428
L91172 38119
L91382 38285
L91382 38214
L91408 38166
L91434 38142
L91486 38119
L91617 38119
L91670 38142
L91696 38166
L91722 38214
L91722 38357
L91696 38404
L91670 38428
" />
<path d="M88222 41321
L87960 41488
" />
<path d="M88222 41607
L87672 41607
L87672 41416
L87698 41369
L87725 41345
L87777 41321
L87855 41321
L87908 41345
L87934 41369
L87960 41416
L87960 41607
" />
<path d="M88222 40845
L88222 41130
" />
<path d="M88222 40988
L87672 40988
L87751 41035
L87803 41083
L87829 41130
" />
<path d="M87672 40678
L87672 40345
L88222 40559
" />
<path d="M82222 37821
L81960 37988
" />
<path d="M82222 38107
L81672 38107
L81672 37916
L81698 37869
L81725 37845
L81777 37821
L81855 37821
L81908 37845
L81934 37869
L81960 37916
L81960 38107
" />
<path d="M82222 37345
L82222 37630
" />
<path d="M82222 37488
L81672 37488
L81751 37535
L81803 37583
L81829 37630
" />
<path d="M81725 37154
L81698 37130
L81672 37083
L81672 36964
L81698 36916
L81725 36892
L81777 36869
L81829 36869
L81908 36892
L82222 37178
L82222 36869
" />
<path d="M54972 41321
L54710 41488
" />
<path d="M54972 41607
L54422 41607
L54422 41416
L54448 41369
L54475 41345
L54527 41321
L54605 41321
L54658 41345
L54684 41369
L54710 41416
L54710 41607
" />
<path d="M54972 40845
L54972 41130
" />
<path d="M54972 40988
L54422 40988
L54501 41035
L54553 41083
L54579 41130
" />
<path d="M54972 40607
L54972 40511
L54946 40464
L54920 40440
L54841 40392
L54736 40369
L54527 40369
L54475 40392
L54448 40416
L54422 40464
L54422 40559
L54448 40607
L54475 40630
L54527 40654
L54658 40654
L54710 40630
L54736 40607
L54763 40559
L54763 40464
L54736 40416
L54710 40392
L54658 40369
" />
<path d="M76722 40571
L76460 40738
" />
<path d="M76722 40857
L76172 40857
L76172 40666
L76198 40619
L76225 40595
L76277 40571
L76355 40571
L76408 40595
L76434 40619
L76460 40666
L76460 40857
" />
<path d="M76722 40095
L76722 40380
" />
<path d="M76722 40238
L76172 40238
L76251 40285
L76303 40333
L76329 40380
" />
<path d="M76172 39666
L76172 39761
L76198 39809
L76225 39833
L76303 39880
L76408 39904
L76617 39904
L76670 39880
L76696 39857
L76722 39809
L76722 39714
L76696 39666
L76670 39642
L76617 39619
L76486 39619
L76434 39642
L76408 39666
L76382 39714
L76382 39809
L76408 39857
L76434 39880
L76486 39904
" />
<path d="M69472 38071
L69210 38238
" />
<path d="M69472 38357
L68922 38357
L68922 38166
L68948 38119
L68975 38095
L69027 38071
L69105 38071
L69158 38095
L69184 38119
L69210 38166
L69210 38357
" />
<path d="M69472 37595
L69472 37880
" />
<path d="M69472 37738
L68922 37738
L69001 37785
L69053 37833
L69079 37880
" />
<path d="M69105 37166
L69472 37166
" />
<path d="M68896 37285
L69289 37404
L69289 37095
" />
<path d="M58222 38821
L57960 38988
" />
<path d="M58222 39107
L57672 39107
L57672 38916
L57698 38869
L57725 38845
L57777 38821
L57855 38821
L57908 38845
L57934 38869
L57960 38916
L57960 39107
" />
<path d="M58222 38345
L58222 38630
" />
<path d="M58222 38488
L57672 38488
L57751 38535
L57803 38583
L57829 38630
" />
<path d="M57672 37892
L57672 38130
L57934 38154
L57908 38130
L57882 38083
L57882 37964
L57908 37916
L57934 37892
L57986 37869
L58117 37869
L58170 37892
L58196 37916
L58222 37964
L58222 38083
L58196 38130
L58170 38154
" />
<path d="M66722 40571
L66460 40738
" />
<path d="M66722 40857
L66172 40857
L66172 40666
L66198 40619
L66225 40595
L66277 40571
L66355 40571
L66408 40595
L66434 40619
L66460 40666
L66460 40857
" />
<path d="M66722 40095
L66722 40380
" />
<path d="M66722 40238
L66172 40238
L66251 40285
L66303 40333
L66329 40380
" />
<path d="M66408 39809
L66382 39857
L66355 39880
L66303 39904
L66277 39904
L66225 39880
L66198 39857
L66172 39809
L66172 39714
L66198 39666
L66225 39642
L66277 39619
L66303 39619
L66355 39642
L66382 39666
L66408 39714
L66408 39809
L66434 39857
L66460 39880
L66513 39904
L66617 39904
L66670 39880
L66696 39857
L66722 39809
L66722 39714
L66696 39666
L66670 39642
L66617 39619
L66513 39619
L66460 39642
L66434 39666
L66408 39714
" />
</g>
<g style="fill:#000000; fill-opacity:0.0; 
stroke:#000000; stroke-width:120; stroke-opacity:1; 
stroke-linecap:round; stroke-linejoin:round;">
</g>
<g style="fill:#000000; fill-opacity:0.0; 
stroke:#000000; stroke-width:112.5; stroke-opacity:1; 
stroke-linecap:round; stroke-linejoin:round;">
<path d="M67157 49642
L67157 50128
L67178 50185
L67200 50214
L67242 50242
L67328 50242
L67371 50214
L67392 50185
L67414 50128
L67414 49642
" />
<path d="M67607 49700
L67628 49671
L67671 49642
L67778 49642
L67821 49671
L67842 49700
L67864 49757
L67864 49814
L67842 49900
L67585 50242
L67864 50242
" />
</g>
<g style="fill:#000000; fill-opacity:0.0; 
stroke:#000000; stroke-width:120; stroke-opacity:1; 
stroke-linecap:round; stroke-linejoin:round;">
</g>
<g style="fill:#000000; fill-opacity:0.0; 
stroke:#000000; stroke-width:112.5; stroke-opacity:1; 
stroke-linecap:round; stroke-linejoin:round;">
<path d="M69442 50842
L69442 51242
" />
<path d="M69335 50614
L69228 51042
L69507 51042
" />
<path d="M69764 50642
L69807 50642
L69850 50671
L69871 50700
L69892 50757
L69914 50871
L69914 51014
L69892 51128
L69871 51185
L69850 51214
L69807 51242
L69764 51242
L69721 51214
L69700 51185
L69678 51128
L69657 51014
L69657 50871
L69678 50757
L69700 50700
L69721 50671
L69764 50642
" />
<path d="M70300 50642
L70214 50642
L70171 50671
L70150 50700
L70107 50785
L70085 50900
L70085 51128
L70107 51185
L70128 51214
L70171 51242
L70257 51242
L70300 51214
L70321 51185
L70342 51128
L70342 50985
L70321 50928
L70300 50900
L70257 50871
L70171 50871
L70128 50900
L70107 50928
L70085 50985
" />
<path d="M70728 50642
L70642 50642
L70600 50671
L70578 50700
L70535 50785
L70514 50900
L70514 51128
L70535 51185
L70557 51214
L70600 51242
L70685 51242
L70728 51214
L70750 51185
L70771 51128
L70771 50985
L70750 50928
L70728 50900
L70685 50871
L70600 50871
L70557 50900
L70535 50928
L70514 50985
" />
</g>
<g style="fill:#000000; fill-opacity:0.0; 
stroke:#000000; stroke-width:120; stroke-opacity:1; 
stroke-linecap:round; stroke-linejoin:round;">
</g>
<g style="fill:#000000; fill-opacity:0.0; 
stroke:#000000; stroke-width:80; stroke-opacity:1; 
stroke-linecap:round; stroke-linejoin:round;">
<path d="M67073 39307
L67092 39326
L67111 39383
L67111 39421
L67092 39478
L67054 39516
L67016 39535
L66940 39554
L66883 39554
L66807 39535
L66769 39516
L66730 39478
L66711 39421
L66711 39383
L66730 39326
L66750 39307
" />
<path d="M67111 38926
L67111 39154
" />
<path d="M67111 39040
L66711 39040
L66769 39078
L66807 39116
L66826 39154
" />
<path d="M66711 38792
L66711 38545
L66864 38678
L66864 38621
L66883 38583
L66902 38564
L66940 38545
L67035 38545
L67073 38564
L67092 38583
L67111 38621
L67111 38735
L67092 38773
L67073 38792
" />
<path d="M56623 39507
L56642 39526
L56661 39583
L56661 39621
L56642 39678
L56604 39716
L56566 39735
L56490 39754
L56433 39754
L56357 39735
L56319 39716
L56280 39678
L56261 39621
L56261 39583
L56280 39526
L56300 39507
" />
<path d="M56661 39126
L56661 39354
" />
<path d="M56661 39240
L56261 39240
L56319 39278
L56357 39316
L56376 39354
" />
<path d="M56395 38783
L56661 38783
" />
<path d="M56242 38878
L56528 38973
L56528 38726
" />
<path d="M78923 38557
L78942 38576
L78961 38633
L78961 38671
L78942 38728
L78904 38766
L78866 38785
L78790 38804
L78733 38804
L78657 38785
L78619 38766
L78580 38728
L78561 38671
L78561 38633
L78580 38576
L78600 38557
" />
<path d="M78961 38176
L78961 38404
" />
<path d="M78961 38290
L78561 38290
L78619 38328
L78657 38366
L78676 38404
" />
<path d="M78961 37795
L78961 38023
" />
<path d="M78961 37909
L78561 37909
L78619 37947
L78657 37985
L78676 38023
" />
<path d="M89373 40007
L89392 40026
L89411 40083
L89411 40121
L89392 40178
L89354 40216
L89316 40235
L89240 40254
L89183 40254
L89107 40235
L89069 40216
L89030 40178
L89011 40121
L89011 40083
L89030 40026
L89050 40007
" />
<path d="M89411 39626
L89411 39854
" />
<path d="M89411 39740
L89011 39740
L89069 39778
L89107 39816
L89126 39854
" />
<path d="M89050 39473
L89030 39454
L89011 39416
L89011 39321
L89030 39283
L89050 39264
L89088 39245
L89126 39245
L89183 39264
L89411 39492
L89411 39245
" />
<path d="M76873 55007
L76892 55026
L76911 55083
L76911 55121
L76892 55178
L76854 55216
L76816 55235
L76740 55254
L76683 55254
L76607 55235
L76569 55216
L76530 55178
L76511 55121
L76511 55083
L76530 55026
L76550 55007
" />
<path d="M76911 54626
L76911 54854
" />
<path d="M76911 54740
L76511 54740
L76569 54778
L76607 54816
L76626 54854
" />
<path d="M76511 54264
L76511 54454
L76702 54473
L76683 54454
L76664 54416
L76664 54321
L76683 54283
L76702 54264
L76740 54245
L76835 54245
L76873 54264
L76892 54283
L76911 54321
L76911 54416
L76892 54454
L76873 54473
" />
</g>
<g style="fill:#000000; fill-opacity:0.0; 
stroke:#000000; stroke-width:120; stroke-opacity:1; 
stroke-linecap:round; stroke-linejoin:round;">
<path d="M83307 31242
L83307 30642
" />
<path d="M83650 31242
L83392 30900
" />
<path d="M83650 30642
L83307 30985
" />
<path d="M84221 31242
L83878 31242
" />
<path d="M84050 31242
L84050 30642
L83992 30728
L83935 30785
L83878 30814
" />
<path d="M82478 35185
L82450 35214
L82364 35242
L82307 35242
L82221 35214
L82164 35157
L82135 35100
L82107 34985
L82107 34900
L82135 34785
L82164 34728
L82221 34671
L82307 34642
L82364 34642
L82450 34671
L82478 34700
" />
<path d="M82850 34642
L82964 34642
L83021 34671
L83078 34728
L83107 34842
L83107 35042
L83078 35157
L83021 35214
L82964 35242
L82850 35242
L82792 35214
L82735 35157
L82707 35042
L82707 34842
L82735 34728
L82792 34671
L82850 34642
" />
<path d="M83364 35242
L83364 34642
L83707 35242
L83707 34642
" />
<path d="M83992 35242
L83992 34642
L84335 35242
L84335 34642
" />
<path d="M84478 35300
L84935 35300
" />
<path d="M85021 34642
L85392 34642
L85192 34871
L85278 34871
L85335 34900
L85364 34928
L85392 34985
L85392 35128
L85364 35185
L85335 35214
L85278 35242
L85107 35242
L85050 35214
L85021 35185
" />
<path d="M94557 31242
L94557 30642
" />
<path d="M94900 31242
L94642 30900
" />
<path d="M94900 30642
L94557 30985
" />
<path d="M95128 30700
L95157 30671
L95214 30642
L95357 30642
L95414 30671
L95442 30700
L95471 30757
L95471 30814
L95442 30900
L95100 31242
L95471 31242
" />
<path d="M93728 35185
L93700 35214
L93614 35242
L93557 35242
L93471 35214
L93414 35157
L93385 35100
L93357 34985
L93357 34900
L93385 34785
L93414 34728
L93471 34671
L93557 34642
L93614 34642
L93700 34671
L93728 34700
" />
<path d="M94100 34642
L94214 34642
L94271 34671
L94328 34728
L94357 34842
L94357 35042
L94328 35157
L94271 35214
L94214 35242
L94100 35242
L94042 35214
L93985 35157
L93957 35042
L93957 34842
L93985 34728
L94042 34671
L94100 34642
" />
<path d="M94614 35242
L94614 34642
L94957 35242
L94957 34642
" />
<path d="M95242 35242
L95242 34642
L95585 35242
L95585 34642
" />
<path d="M95728 35300
L96185 35300
" />
<path d="M96271 34642
L96642 34642
L96442 34871
L96528 34871
L96585 34900
L96614 34928
L96642 34985
L96642 35128
L96614 35185
L96585 35214
L96528 35242
L96357 35242
L96300 35214
L96271 35185
" />
<path d="M72307 31242
L72307 30642
" />
<path d="M72650 31242
L72392 30900
" />
<path d="M72650 30642
L72307 30985
" />
<path d="M72850 30642
L73221 30642
L73021 30871
L73107 30871
L73164 30900
L73192 30928
L73221 30985
L73221 31128
L73192 31185
L73164 31214
L73107 31242
L72935 31242
L72878 31214
L72850 31185
" />
<path d="M71478 35185
L71450 35214
L71364 35242
L71307 35242
L71221 35214
L71164 35157
L71135 35100
L71107 34985
L71107 34900
L71135 34785
L71164 34728
L71221 34671
L71307 34642
L71364 34642
L71450 34671
L71478 34700
" />
<path d="M71850 34642
L71964 34642
L72021 34671
L72078 34728
L72107 34842
L72107 35042
L72078 35157
L72021 35214
L71964 35242
L71850 35242
L71792 35214
L71735 35157
L71707 35042
L71707 34842
L71735 34728
L71792 34671
L71850 34642
" />
<path d="M72364 35242
L72364 34642
L72707 35242
L72707 34642
" />
<path d="M72992 35242
L72992 34642
L73335 35242
L73335 34642
" />
<path d="M73478 35300
L73935 35300
" />
<path d="M74021 34642
L74392 34642
L74192 34871
L74278 34871
L74335 34900
L74364 34928
L74392 34985
L74392 35128
L74364 35185
L74335 35214
L74278 35242
L74107 35242
L74050 35214
L74021 35185
" />
<path d="M61057 31242
L61057 30642
" />
<path d="M61400 31242
L61142 30900
" />
<path d="M61400 30642
L61057 30985
" />
<path d="M61914 30842
L61914 31242
" />
<path d="M61771 30614
L61628 31042
L62000 31042
" />
<path d="M60228 35185
L60200 35214
L60114 35242
L60057 35242
L59971 35214
L59914 35157
L59885 35100
L59857 34985
L59857 34900
L59885 34785
L59914 34728
L59971 34671
L60057 34642
L60114 34642
L60200 34671
L60228 34700
" />
<path d="M60600 34642
L60714 34642
L60771 34671
L60828 34728
L60857 34842
L60857 35042
L60828 35157
L60771 35214
L60714 35242
L60600 35242
L60542 35214
L60485 35157
L60457 35042
L60457 34842
L60485 34728
L60542 34671
L60600 34642
" />
<path d="M61114 35242
L61114 34642
L61457 35242
L61457 34642
" />
<path d="M61742 35242
L61742 34642
L62085 35242
L62085 34642
" />
<path d="M62228 35300
L62685 35300
" />
<path d="M62771 34642
L63142 34642
L62942 34871
L63028 34871
L63085 34900
L63114 34928
L63142 34985
L63142 35128
L63114 35185
L63085 35214
L63028 35242
L62857 35242
L62800 35214
L62771 35185
" />
</g>
<g style="fill:#000000; fill-opacity:0.0; 
stroke:#000000; stroke-width:60; stroke-opacity:1; 
stroke-linecap:round; stroke-linejoin:round;">
<path d="M67778 48621
L67778 48321
L67892 48321
L67921 48335
L67935 48350
L67950 48378
L67950 48421
L67935 48450
L67921 48464
L67892 48478
L67778 48478
" />
<path d="M68064 48350
L68078 48335
L68107 48321
L68178 48321
L68207 48335
L68221 48350
L68235 48378
L68235 48407
L68221 48450
L68050 48621
L68235 48621
" />
<path d="M70778 54121
L70778 53821
L70892 53821
L70921 53835
L70935 53850
L70950 53878
L70950 53921
L70935 53950
L70921 53964
L70892 53978
L70778 53978
" />
<path d="M71235 54121
L71064 54121
" />
<path d="M71150 54121
L71150 53821
L71121 53864
L71092 53892
L71064 53907
" />
</g>
<g style="fill:#000000; fill-opacity:0.0; 
stroke:#000000; stroke-width:120; stroke-opacity:1; 
stroke-linecap:round; stroke-linejoin:round;">
<path d="M53900 51435
L53871 51464
L53785 51492
L53728 51492
L53642 51464
L53585 51407
L53557 51350
L53528 51235
L53528 51150
L53557 51035
L53585 50978
L53642 50921
L53728 50892
L53785 50892
L53871 50921
L53900 50950
" />
<path d="M54100 50892
L54500 50892
L54242 51492
" />
<path d="M53685 44635
L53714 44664
L53742 44750
L53742 44807
L53714 44892
L53657 44950
L53600 44978
L53485 45007
L53400 45007
L53285 44978
L53228 44950
L53171 44892
L53142 44807
L53142 44750
L53171 44664
L53200 44635
" />
<path d="M53742 44064
L53742 44407
" />
<path d="M53742 44235
L53142 44235
L53228 44292
L53285 44350
L53314 44407
" />
<path d="M53142 43692
L53142 43635
L53171 43578
L53200 43550
L53257 43521
L53371 43492
L53514 43492
L53628 43521
L53685 43550
L53714 43578
L53742 43635
L53742 43692
L53714 43750
L53685 43778
L53628 43807
L53514 43835
L53371 43835
L53257 43807
L53200 43778
L53171 43750
L53142 43692
" />
</g>
<g style="fill:#000000; fill-opacity:0.0; 
stroke:#000000; stroke-width:80; stroke-opacity:1; 
stroke-linecap:round; stroke-linejoin:round;">
<path d="M78623 50757
L78642 50776
L78661 50833
L78661 50871
L78642 50928
L78604 50966
L78566 50985
L78490 51004
L78433 51004
L78357 50985
L78319 50966
L78280 50928
L78261 50871
L78261 50833
L78280 50776
L78300 50757
" />
<path d="M78661 50376
L78661 50604
" />
<path d="M78661 50490
L78261 50490
L78319 50528
L78357 50566
L78376 50604
" />
<path d="M78261 50033
L78261 50109
L78280 50147
L78300 50166
L78357 50204
L78433 50223
L78585 50223
L78623 50204
L78642 50185
L78661 50147
L78661 50071
L78642 50033
L78623 50014
L78585 49995
L78490 49995
L78452 50014
L78433 50033
L78414 50071
L78414 50147
L78433 50185
L78452 50204
L78490 50223
" />
<path d="M62992 48373
L62973 48392
L62916 48411
L62878 48411
L62821 48392
L62783 48354
L62764 48316
L62745 48240
L62745 48183
L62764 48107
L62783 48069
L62821 48030
L62878 48011
L62916 48011
L62973 48030
L62992 48050
" />
<path d="M63373 48411
L63145 48411
" />
<path d="M63259 48411
L63259 48011
L63221 48069
L63183 48107
L63145 48126
" />
<path d="M63507 48011
L63773 48011
L63602 48411
" />
</g>
<g style="fill:#000000; fill-opacity:0.0; 
stroke:#000000; stroke-width:120; stroke-opacity:1; 
stroke-linecap:round; stroke-linejoin:round;">
<path d="M78292 54992
L78007 54992
L78007 54392
" />
<path d="M78721 54964
L78664 54992
L78550 54992
L78492 54964
L78464 54907
L78464 54678
L78492 54621
L78550 54592
L78664 54592
L78721 54621
L78750 54678
L78750 54735
L78464 54792
" />
<path d="M78921 54592
L79150 54592
" />
<path d="M79007 54992
L79007 54478
L79035 54421
L79092 54392
L79150 54392
" />
<path d="M79264 54592
L79492 54592
" />
<path d="M79350 54392
L79350 54907
L79378 54964
L79435 54992
L79492 54992
" />
<path d="M79807 54392
L79921 54392
L79978 54421
L80035 54478
L80064 54592
L80064 54792
L80035 54907
L79978 54964
L79921 54992
L79807 54992
L79750 54964
L79692 54907
L79664 54792
L79664 54592
L79692 54478
L79750 54421
L79807 54392
" />
<path d="M80578 54592
L80578 54992
" />
<path d="M80321 54592
L80321 54907
L80350 54964
L80407 54992
L80492 54992
L80550 54964
L80578 54935
" />
<path d="M80778 54592
L81007 54592
" />
<path d="M80864 54392
L80864 54907
L80892 54964
L80949 54992
L81007 54992
" />
<path d="M81521 54992
L81178 54992
" />
<path d="M81349 54992
L81349 54392
L81292 54478
L81235 54535
L81178 54564
" />
<path d="M78478 58935
L78450 58964
L78364 58992
L78307 58992
L78221 58964
L78164 58907
L78135 58850
L78107 58735
L78107 58650
L78135 58535
L78164 58478
L78221 58421
L78307 58392
L78364 58392
L78450 58421
L78478 58450
" />
<path d="M78850 58392
L78964 58392
L79021 58421
L79078 58478
L79107 58592
L79107 58792
L79078 58907
L79021 58964
L78964 58992
L78850 58992
L78792 58964
L78735 58907
L78707 58792
L78707 58592
L78735 58478
L78792 58421
L78850 58392
" />
<path d="M79364 58992
L79364 58392
L79707 58992
L79707 58392
" />
<path d="M79992 58992
L79992 58392
L80335 58992
L80335 58392
" />
<path d="M80478 59050
L80935 59050
" />
<path d="M81050 58450
L81078 58421
L81135 58392
L81278 58392
L81335 58421
L81364 58450
L81392 58507
L81392 58564
L81364 58650
L81021 58992
L81392 58992
" />
<path d="M93035 54992
L92835 54707
" />
<path d="M92692 54992
L92692 54392
L92921 54392
L92978 54421
L93007 54450
L93035 54507
L93035 54592
L93007 54650
L92978 54678
L92921 54707
L92692 54707
" />
<path d="M93292 54992
L93292 54592
" />
<path d="M93292 54392
L93264 54421
L93292 54450
L93321 54421
L93292 54392
L93292 54450
" />
<path d="M93835 54592
L93835 55078
L93807 55135
L93778 55164
L93721 55192
L93635 55192
L93578 55164
" />
<path d="M93835 54964
L93778 54992
L93664 54992
L93607 54964
L93578 54935
L93550 54878
L93550 54707
L93578 54650
L93607 54621
L93664 54592
L93778 54592
L93835 54621
" />
<path d="M94121 54992
L94121 54392
" />
<path d="M94378 54992
L94378 54678
L94350 54621
L94292 54592
L94207 54592
L94150 54621
L94121 54650
" />
<path d="M94578 54592
L94807 54592
" />
<path d="M94664 54392
L94664 54907
L94692 54964
L94750 54992
L94807 54992
" />
<path d="M95121 54392
L95235 54392
L95292 54421
L95350 54478
L95378 54592
L95378 54792
L95350 54907
L95292 54964
L95235 54992
L95121 54992
L95064 54964
L95007 54907
L94978 54792
L94978 54592
L95007 54478
L95064 54421
L95121 54392
" />
<path d="M95892 54592
L95892 54992
" />
<path d="M95635 54592
L95635 54907
L95664 54964
L95721 54992
L95807 54992
L95864 54964
L95892 54935
" />
<path d="M96092 54592
L96321 54592
" />
<path d="M96178 54392
L96178 54907
L96207 54964
L96264 54992
L96321 54992
" />
<path d="M96835 54992
L96492 54992
" />
<path d="M96664 54992
L96664 54392
L96607 54478
L96550 54535
L96492 54564
" />
<path d="M93478 58935
L93450 58964
L93364 58992
L93307 58992
L93221 58964
L93164 58907
L93135 58850
L93107 58735
L93107 58650
L93135 58535
L93164 58478
L93221 58421
L93307 58392
L93364 58392
L93450 58421
L93478 58450
" />
<path d="M93850 58392
L93964 58392
L94021 58421
L94078 58478
L94107 58592
L94107 58792
L94078 58907
L94021 58964
L93964 58992
L93850 58992
L93792 58964
L93735 58907
L93707 58792
L93707 58592
L93735 58478
L93792 58421
L93850 58392
" />
<path d="M94364 58992
L94364 58392
L94707 58992
L94707 58392
" />
<path d="M94992 58992
L94992 58392
L95335 58992
L95335 58392
" />
<path d="M95478 59050
L95935 59050
" />
<path d="M96050 58450
L96078 58421
L96135 58392
L96278 58392
L96335 58421
L96364 58450
L96392 58507
L96392 58564
L96364 58650
L96021 58992
L96392 58992
" />
</g> 
</svg>
