<?xml version="1.0" standalone="no"?>
 <!DOCTYPE svg PUBLIC "-//W3C//DTD SVG 1.1//EN" 
 "http://www.w3.org/Graphics/SVG/1.1/DTD/svg11.dtd"> 
<svg xmlns="http://www.w3.org/2000/svg" version="1.1" 
    width="41.9989cm" height="29.7002cm" viewBox="0 0 165350 116930 ">
<title>SVG Picture created as power_ctrl-F_SilkS.svg date 2015/08/05 17:31:23 </title>
  <desc>Picture generated by PCBNEW </desc>
<g style="fill:#000000; fill-opacity:1;stroke:#000000; stroke-opacity:1;
stroke-linecap:round; stroke-linejoin:round; "
 transform="translate(0 0) scale(1 1)">
</g>
<g style="fill:#000000; fill-opacity:0.0; 
stroke:#000000; stroke-width:120; stroke-opacity:1; 
stroke-linecap:round; stroke-linejoin:round;">
<path d="M89750 62500
L89750 62900
" />
<path d="M89750 62900
L90150 62900
" />
<path d="M90150 62900
L90150 66100
" />
<path d="M90150 66100
L89350 66100
" />
<path d="M89350 66100
L89350 62900
" />
<path d="M89350 62900
L89750 62900
" />
<path d="M89950 62900
L90150 63100
" />
<path d="M89750 66500
L89750 66100
" />
</g>
<g style="fill:#000000; fill-opacity:0.0; 
stroke:#000000; stroke-width:100; stroke-opacity:1; 
stroke-linecap:round; stroke-linejoin:round;">
<path d="M87250 71000
L87250 67000
" />
<path d="M88250 71000
L88250 67000
" />
<path d="M88250 67000
L87250 67000
" />
<path d="M87250 71000
L88250 71000
" />
</g>
<g style="fill:#000000; fill-opacity:0.0; 
stroke:#000000; stroke-width:150; stroke-opacity:1; 
stroke-linecap:round; stroke-linejoin:round;">
<path d="M84500 52000
L84500 67000
" />
<path d="M84500 67000
L82500 67000
" />
<path d="M82500 67000
L82500 52000
" />
<path d="M82500 52000
L84500 52000
" />
<path d="M84000 52000
L84000 52500
" />
<path d="M84000 52500
L83000 52500
" />
<path d="M83000 52500
L83000 52000
" />
</g>
<g style="fill:#000000; fill-opacity:0.0; 
stroke:#000000; stroke-width:120; stroke-opacity:1; 
stroke-linecap:round; stroke-linejoin:round;">
<circle cx="87000" cy="44250" r="2195.45" /> 
<path d="M81150 57850
L81150 60650
" />
<path d="M81150 60650
L80350 60650
" />
<path d="M80350 60650
L80350 57850
" />
<path d="M80350 57850
L81150 57850
" />
<path d="M80950 57850
L81150 58050
" />
</g>
<g style="fill:#000000; fill-opacity:0.0; 
stroke:#000000; stroke-width:50; stroke-opacity:1; 
stroke-linecap:round; stroke-linejoin:round;">
<circle cx="90000" cy="68250" r="1001.25" /> 
</g>
<g style="fill:#000000; fill-opacity:0.0; 
stroke:#000000; stroke-width:120; stroke-opacity:1; 
stroke-linecap:round; stroke-linejoin:round;">
<path d="M80250 43250
L84250 43250
" />
<path d="M80250 42750
L80250 45750
" />
<path d="M80250 45750
L84250 45750
" />
<path d="M84250 45750
L84250 42750
" />
<path d="M84250 42750
L80250 42750
" />
<path d="M86250 66500
L86250 66100
" />
<path d="M86250 66100
L85850 66100
" />
<path d="M85850 66100
L85850 62900
" />
<path d="M85850 62900
L86650 62900
" />
<path d="M86650 62900
L86650 66100
" />
<path d="M86650 66100
L86250 66100
" />
<path d="M86050 66100
L85850 65900
" />
<path d="M86250 62500
L86250 62900
" />
</g>
<g style="fill:#000000; fill-opacity:0.0; 
stroke:#000000; stroke-width:60; stroke-opacity:1; 
stroke-linecap:round; stroke-linejoin:round;">
<path d="M89250 61500
L89250 60500
" />
<path d="M89250 60500
L91250 60500
" />
<path d="M91250 60500
L91250 61500
" />
<path d="M91250 61500
L89250 61500
" />
</g>
<g style="fill:#000000; fill-opacity:0.0; 
stroke:#000000; stroke-width:120; stroke-opacity:1; 
stroke-linecap:round; stroke-linejoin:round;">
<path d="M88500 57500
L88500 57900
" />
<path d="M88500 57900
L88900 57900
" />
<path d="M88900 57900
L88900 61100
" />
<path d="M88900 61100
L88100 61100
" />
<path d="M88100 61100
L88100 57900
" />
<path d="M88100 57900
L88500 57900
" />
<path d="M88700 57900
L88900 58100
" />
<path d="M88500 61500
L88500 61100
" />
<path d="M80750 52500
L80750 52900
" />
<path d="M80750 52900
L81150 52900
" />
<path d="M81150 52900
L81150 56100
" />
<path d="M81150 56100
L80350 56100
" />
<path d="M80350 56100
L80350 52900
" />
<path d="M80350 52900
L80750 52900
" />
<path d="M80950 52900
L81150 53100
" />
<path d="M80750 56500
L80750 56100
" />
<path d="M86650 58850
L86650 61650
" />
<path d="M86650 61650
L85850 61650
" />
<path d="M85850 61650
L85850 58850
" />
<path d="M85850 58850
L86650 58850
" />
<path d="M86450 58850
L86650 59050
" />
<path d="M87100 52350
L89900 52350
" />
<path d="M89900 52350
L89900 53150
" />
<path d="M89900 53150
L87100 53150
" />
<path d="M87100 53150
L87100 52350
" />
<path d="M87100 52550
L87300 52350
" />
</g>
<g style="fill:#000000; fill-opacity:0.0; 
stroke:#000000; stroke-width:50; stroke-opacity:1; 
stroke-linecap:round; stroke-linejoin:round;">
<circle cx="90250" cy="59000" r="1001.25" /> 
</g>
<g style="fill:#000000; fill-opacity:0.0; 
stroke:#000000; stroke-width:120; stroke-opacity:1; 
stroke-linecap:round; stroke-linejoin:round;">
<path d="M88750 50000
L88350 50000
" />
<path d="M88350 50000
L88350 50400
" />
<path d="M88350 50400
L85150 50400
" />
<path d="M85150 50400
L85150 49600
" />
<path d="M85150 49600
L88350 49600
" />
<path d="M88350 49600
L88350 50000
" />
<path d="M88350 50200
L88150 50400
" />
<path d="M84750 50000
L85150 50000
" />
<path d="M87750 51250
L87350 51250
" />
<path d="M87350 51250
L87350 51650
" />
<path d="M87350 51650
L84150 51650
" />
<path d="M84150 51650
L84150 50850
" />
<path d="M84150 50850
L87350 50850
" />
<path d="M87350 50850
L87350 51250
" />
<path d="M87350 51450
L87150 51650
" />
<path d="M83750 51250
L84150 51250
" />
<path d="M84750 47250
L85150 47250
" />
<path d="M85150 47250
L85150 46850
" />
<path d="M85150 46850
L88350 46850
" />
<path d="M88350 46850
L88350 47650
" />
<path d="M88350 47650
L85150 47650
" />
<path d="M85150 47650
L85150 47250
" />
<path d="M85150 47050
L85350 46850
" />
<path d="M88750 47250
L88350 47250
" />
<path d="M84750 48500
L85150 48500
" />
<path d="M85150 48500
L85150 48100
" />
<path d="M85150 48100
L88350 48100
" />
<path d="M88350 48100
L88350 48900
" />
<path d="M88350 48900
L85150 48900
" />
<path d="M85150 48900
L85150 48500
" />
<path d="M85150 48300
L85350 48100
" />
<path d="M88750 48500
L88350 48500
" />
</g>
<g style="fill:#000000; fill-opacity:0.0; 
stroke:#000000; stroke-width:60; stroke-opacity:1; 
stroke-linecap:round; stroke-linejoin:round;">
<path d="M87000 54750
L87000 53750
" />
<path d="M87000 53750
L90000 53750
" />
<path d="M90000 53750
L90000 54750
" />
<path d="M90000 54750
L87000 54750
" />
<path d="M88000 53750
L88000 54750
" />
<path d="M87250 63500
L88250 63500
" />
<path d="M88250 63500
L88250 65500
" />
<path d="M88250 65500
L87250 65500
" />
<path d="M87250 65500
L87250 63500
" />
</g>
<g style="fill:#000000; fill-opacity:0.0; 
stroke:#000000; stroke-width:100; stroke-opacity:1; 
stroke-linecap:round; stroke-linejoin:round;">
<path d="M89750 49750
L89750 45750
" />
<path d="M90750 49750
L90750 45750
" />
<path d="M90750 45750
L89750 45750
" />
<path d="M89750 49750
L90750 49750
" />
</g>
<g style="fill:#000000; fill-opacity:0.0; 
stroke:#000000; stroke-width:60; stroke-opacity:1; 
stroke-linecap:round; stroke-linejoin:round;">
<path d="M85750 57500
L85750 56500
" />
<path d="M85750 56500
L87750 56500
" />
<path d="M87750 56500
L87750 57500
" />
<path d="M87750 57500
L85750 57500
" />
<path d="M85750 56500
L85750 55500
" />
<path d="M85750 55500
L87750 55500
" />
<path d="M87750 55500
L87750 56500
" />
<path d="M87750 56500
L85750 56500
" />
</g>
<g style="fill:#000000; fill-opacity:0.0; 
stroke:#000000; stroke-width:100; stroke-opacity:1; 
stroke-linecap:round; stroke-linejoin:round;">
<path d="M78750 56500
L78750 52500
" />
<path d="M79750 56500
L79750 52500
" />
<path d="M79750 52500
L78750 52500
" />
<path d="M78750 56500
L79750 56500
" />
</g>
<g style="fill:#000000; fill-opacity:0.0; 
stroke:#000000; stroke-width:60; stroke-opacity:1; 
stroke-linecap:round; stroke-linejoin:round;">
<path d="M81000 65500
L80000 65500
" />
<path d="M80000 65500
L80000 63500
" />
<path d="M80000 63500
L81000 63500
" />
<path d="M81000 63500
L81000 65500
" />
<path d="M80000 65500
L81000 65500
" />
<path d="M81000 65500
L81000 67500
" />
<path d="M81000 67500
L80000 67500
" />
<path d="M80000 67500
L80000 65500
" />
<path d="M85750 58500
L85750 57500
" />
<path d="M85750 57500
L87750 57500
" />
<path d="M87750 57500
L87750 58500
" />
<path d="M87750 58500
L85750 58500
" />
</g>
<g style="fill:#000000; fill-opacity:0.0; 
stroke:#000000; stroke-width:120; stroke-opacity:1; 
stroke-linecap:round; stroke-linejoin:round;">
<path d="M86250 71250
L82250 71250
" />
<path d="M86250 71750
L86250 68750
" />
<path d="M86250 68750
L82250 68750
" />
<path d="M82250 68750
L82250 71750
" />
<path d="M82250 71750
L86250 71750
" />
</g>
<g style="fill:#000000; fill-opacity:0.0; 
stroke:#000000; stroke-width:80; stroke-opacity:1; 
stroke-linecap:round; stroke-linejoin:round;">
<path d="M90222 63833
L89960 64000
" />
<path d="M90222 64119
L89672 64119
L89672 63928
L89698 63880
L89725 63857
L89777 63833
L89855 63833
L89908 63857
L89934 63880
L89960 63928
L89960 64119
" />
<path d="M89725 63642
L89698 63619
L89672 63571
L89672 63452
L89698 63404
L89725 63380
L89777 63357
L89829 63357
L89908 63380
L90222 63666
L90222 63357
" />
<path d="M87161 71223
L86761 71223
" />
<path d="M87161 70804
L86971 70938
" />
<path d="M87161 71033
L86761 71033
L86761 70880
L86780 70842
L86800 70823
L86838 70804
L86895 70804
L86933 70823
L86952 70842
L86971 70880
L86971 71033
" />
<path d="M87200 70728
L87200 70423
" />
<path d="M87142 70347
L87161 70290
L87161 70195
L87142 70157
L87123 70138
L87085 70119
L87047 70119
L87009 70138
L86990 70157
L86971 70195
L86952 70271
L86933 70309
L86914 70328
L86876 70347
L86838 70347
L86800 70328
L86780 70309
L86761 70271
L86761 70176
L86780 70119
" />
<path d="M86952 69947
L86952 69814
" />
<path d="M87161 69757
L87161 69947
L86761 69947
L86761 69757
" />
<path d="M87161 69585
L86761 69585
L87161 69357
L86761 69357
" />
<path d="M87142 69185
L87161 69128
L87161 69033
L87142 68995
L87123 68976
L87085 68957
L87047 68957
L87009 68976
L86990 68995
L86971 69033
L86952 69109
L86933 69147
L86914 69166
L86876 69185
L86838 69185
L86800 69166
L86780 69147
L86761 69109
L86761 69014
L86780 68957
" />
<path d="M86761 68709
L86761 68633
L86780 68595
L86819 68557
L86895 68538
L87028 68538
L87104 68557
L87142 68595
L87161 68633
L87161 68709
L87142 68747
L87104 68785
L87028 68804
L86895 68804
L86819 68785
L86780 68747
L86761 68709
" />
<path d="M87161 68138
L86971 68271
" />
<path d="M87161 68366
L86761 68366
L86761 68214
L86780 68176
L86800 68157
L86838 68138
L86895 68138
L86933 68157
L86952 68176
L86971 68214
L86971 68366
" />
<path d="M87161 67757
L87161 67985
" />
<path d="M87161 67871
L86761 67871
L86819 67909
L86857 67947
L86876 67985
" />
</g>
<g style="fill:#000000; fill-opacity:0.0; 
stroke:#000000; stroke-width:120; stroke-opacity:1; 
stroke-linecap:round; stroke-linejoin:round;">
</g>
<g style="fill:#000000; fill-opacity:0.0; 
stroke:#000000; stroke-width:112.5; stroke-opacity:1; 
stroke-linecap:round; stroke-linejoin:round;">
<path d="M83142 55150
L83571 55150
L83657 55171
L83714 55214
L83742 55278
L83742 55321
" />
<path d="M83742 54700
L83742 54957
" />
<path d="M83742 54828
L83142 54828
L83228 54871
L83285 54914
L83314 54957
" />
</g>
<g style="fill:#000000; fill-opacity:0.0; 
stroke:#000000; stroke-width:120; stroke-opacity:1; 
stroke-linecap:round; stroke-linejoin:round;">
</g>
<g style="fill:#000000; fill-opacity:0.0; 
stroke:#000000; stroke-width:112.5; stroke-opacity:1; 
stroke-linecap:round; stroke-linejoin:round;">
<path d="M83571 59774
L83571 59560
" />
<path d="M83742 59817
L83142 59667
L83742 59517
" />
<path d="M83142 59432
L83142 59174
" />
<path d="M83742 59303
L83142 59303
" />
<path d="M83742 59024
L83142 59024
L83571 58874
L83142 58724
L83742 58724
" />
<path d="M83428 58510
L83428 58360
" />
<path d="M83742 58296
L83742 58510
L83142 58510
L83142 58296
" />
<path d="M83171 57867
L83142 57910
L83142 57974
L83171 58039
L83228 58082
L83285 58103
L83400 58124
L83485 58124
L83600 58103
L83657 58082
L83714 58039
L83742 57974
L83742 57932
L83714 57867
L83685 57846
L83485 57846
L83485 57932
" />
<path d="M83571 57674
L83571 57460
" />
<path d="M83742 57717
L83142 57567
L83742 57417
" />
<path d="M83142 57310
L83142 57032
L83371 57182
L83371 57117
L83400 57074
L83428 57053
L83485 57032
L83628 57032
L83685 57053
L83714 57074
L83742 57117
L83742 57246
L83714 57289
L83685 57310
" />
<path d="M83200 56860
L83171 56839
L83142 56796
L83142 56689
L83171 56646
L83200 56624
L83257 56603
L83314 56603
L83400 56624
L83742 56882
L83742 56603
" />
<path d="M83400 56346
L83371 56389
L83342 56410
L83285 56432
L83257 56432
L83200 56410
L83171 56389
L83142 56346
L83142 56260
L83171 56217
L83200 56196
L83257 56175
L83285 56175
L83342 56196
L83371 56217
L83400 56260
L83400 56346
L83428 56389
L83457 56410
L83514 56432
L83628 56432
L83685 56410
L83714 56389
L83742 56346
L83742 56260
L83714 56217
L83685 56196
L83628 56175
L83514 56175
L83457 56196
L83428 56217
L83400 56260
" />
<path d="M83742 55982
L83142 55982
L83142 55810
L83171 55767
L83200 55746
L83257 55725
L83342 55725
L83400 55746
L83428 55767
L83457 55810
L83457 55982
" />
</g>
<g style="fill:#000000; fill-opacity:0.0; 
stroke:#000000; stroke-width:120; stroke-opacity:1; 
stroke-linecap:round; stroke-linejoin:round;">
</g>
<g style="fill:#000000; fill-opacity:0.0; 
stroke:#000000; stroke-width:100; stroke-opacity:1; 
stroke-linecap:round; stroke-linejoin:round;">
<path d="M87166 45654
L87142 45678
L87071 45702
L87023 45702
L86952 45678
L86904 45630
L86880 45583
L86857 45488
L86857 45416
L86880 45321
L86904 45273
L86952 45226
L87023 45202
L87071 45202
L87142 45226
L87166 45250
" />
<path d="M87642 45702
L87357 45702
" />
<path d="M87500 45702
L87500 45202
L87452 45273
L87404 45321
L87357 45345
" />
<path d="M86178 43119
L86178 43452
" />
<path d="M86059 42928
L85940 43285
L86250 43285
" />
<path d="M86392 42952
L86726 42952
L86511 43452
" />
<path d="M87011 42952
L87059 42952
L87107 42976
L87130 43000
L87154 43047
L87178 43142
L87178 43261
L87154 43357
L87130 43404
L87107 43428
L87059 43452
L87011 43452
L86964 43428
L86940 43404
L86916 43357
L86892 43261
L86892 43142
L86916 43047
L86940 43000
L86964 42976
L87011 42952
" />
<path d="M87607 43119
L87607 43452
" />
<path d="M87392 43119
L87392 43380
L87416 43428
L87464 43452
L87535 43452
L87583 43428
L87607 43404
" />
<path d="M88011 43190
L87845 43190
" />
<path d="M87845 43452
L87845 42952
L88083 42952
" />
</g>
<g style="fill:#000000; fill-opacity:0.0; 
stroke:#000000; stroke-width:80; stroke-opacity:1; 
stroke-linecap:round; stroke-linejoin:round;">
<path d="M80683 58873
L80664 58892
L80607 58911
L80569 58911
L80511 58892
L80473 58854
L80454 58816
L80435 58740
L80435 58683
L80454 58607
L80473 58569
L80511 58530
L80569 58511
L80607 58511
L80664 58530
L80683 58550
" />
<path d="M80835 58550
L80854 58530
L80892 58511
L80988 58511
L81026 58530
L81045 58550
L81064 58588
L81064 58626
L81045 58683
L80816 58911
L81064 58911
" />
</g>
<g style="fill:#000000; fill-opacity:0.0; 
stroke:#000000; stroke-width:50; stroke-opacity:1; 
stroke-linecap:round; stroke-linejoin:round;">
<path d="M90200 67342
L90185 67357
L90142 67371
L90114 67371
L90071 67357
L90042 67328
L90028 67300
L90014 67242
L90014 67200
L90028 67142
L90042 67114
L90071 67085
L90114 67071
L90142 67071
L90185 67085
L90200 67100
" />
<path d="M90300 67071
L90485 67071
L90385 67185
L90428 67185
L90457 67200
L90471 67214
L90485 67242
L90485 67314
L90471 67342
L90457 67357
L90428 67371
L90342 67371
L90314 67357
L90300 67342
" />
<path d="M89648 68671
L89648 68871
" />
<path d="M89589 68557
L89529 68771
L89684 68771
" />
<path d="M89779 68842
L89791 68857
L89779 68871
L89767 68857
L89779 68842
L89779 68871
" />
<path d="M89875 68571
L90041 68571
L89934 68871
" />
<path d="M90244 68671
L90244 68871
" />
<path d="M90136 68671
L90136 68828
L90148 68857
L90172 68871
L90208 68871
L90232 68857
L90244 68842
" />
<path d="M90446 68714
L90363 68714
" />
<path d="M90363 68871
L90363 68571
L90482 68571
" />
</g>
<g style="fill:#000000; fill-opacity:0.0; 
stroke:#000000; stroke-width:80; stroke-opacity:1; 
stroke-linecap:round; stroke-linejoin:round;">
</g>
<g style="fill:#000000; fill-opacity:0.0; 
stroke:#000000; stroke-width:75; stroke-opacity:1; 
stroke-linecap:round; stroke-linejoin:round;">
<path d="M88985 68257
L89214 68257
" />
<path d="M89100 68371
L89100 68142
" />
</g>
<g style="fill:#000000; fill-opacity:0.0; 
stroke:#000000; stroke-width:80; stroke-opacity:1; 
stroke-linecap:round; stroke-linejoin:round;">
</g>
<g style="fill:#000000; fill-opacity:0.0; 
stroke:#000000; stroke-width:120; stroke-opacity:1; 
stroke-linecap:round; stroke-linejoin:round;">
<path d="M79728 47242
L79728 46642
L79957 46642
L80014 46671
L80042 46700
L80071 46757
L80071 46842
L80042 46900
L80014 46928
L79957 46957
L79728 46957
" />
<path d="M80271 46642
L80414 47242
L80528 46814
L80642 47242
L80785 46642
" />
<path d="M81357 47242
L81157 46957
" />
<path d="M81014 47242
L81014 46642
L81242 46642
L81300 46671
L81328 46700
L81357 46757
L81357 46842
L81328 46900
L81300 46928
L81242 46957
L81014 46957
" />
<path d="M81471 47300
L81928 47300
" />
<path d="M82071 47242
L82071 46642
" />
<path d="M82357 47242
L82357 46642
L82700 47242
L82700 46642
" />
<path d="M83300 47242
L82957 47242
" />
<path d="M83128 47242
L83128 46642
L83071 46728
L83014 46785
L82957 46814
" />
<path d="M80978 42935
L80950 42964
L80864 42992
L80807 42992
L80721 42964
L80664 42907
L80635 42850
L80607 42735
L80607 42650
L80635 42535
L80664 42478
L80721 42421
L80807 42392
L80864 42392
L80950 42421
L80978 42450
" />
<path d="M81350 42392
L81464 42392
L81521 42421
L81578 42478
L81607 42592
L81607 42792
L81578 42907
L81521 42964
L81464 42992
L81350 42992
L81292 42964
L81235 42907
L81207 42792
L81207 42592
L81235 42478
L81292 42421
L81350 42392
" />
<path d="M81864 42992
L81864 42392
L82207 42992
L82207 42392
" />
<path d="M82492 42992
L82492 42392
L82835 42992
L82835 42392
" />
<path d="M82978 43050
L83435 43050
" />
<path d="M83550 42450
L83578 42421
L83635 42392
L83778 42392
L83835 42421
L83864 42450
L83892 42507
L83892 42564
L83864 42650
L83521 42992
L83892 42992
" />
</g>
<g style="fill:#000000; fill-opacity:0.0; 
stroke:#000000; stroke-width:80; stroke-opacity:1; 
stroke-linecap:round; stroke-linejoin:round;">
<path d="M86222 64333
L85960 64500
" />
<path d="M86222 64619
L85672 64619
L85672 64428
L85698 64380
L85725 64357
L85777 64333
L85855 64333
L85908 64357
L85934 64380
L85960 64428
L85960 64619
" />
<path d="M85855 63904
L86222 63904
" />
<path d="M85646 64023
L86039 64142
L86039 63833
" />
</g>
<g style="fill:#000000; fill-opacity:0.0; 
stroke:#000000; stroke-width:60; stroke-opacity:1; 
stroke-linecap:round; stroke-linejoin:round;">
<path d="M91600 61121
L91500 60978
" />
<path d="M91428 61121
L91428 60821
L91542 60821
L91571 60835
L91585 60850
L91600 60878
L91600 60921
L91585 60950
L91571 60964
L91542 60978
L91428 60978
" />
<path d="M91728 60964
L91828 60964
" />
<path d="M91871 61121
L91728 61121
L91728 60821
L91871 60821
" />
<path d="M92142 61121
L92000 61121
L92000 60821
" />
<path d="M92228 61035
L92371 61035
" />
<path d="M92200 61121
L92300 60821
L92400 61121
" />
<path d="M92557 60978
L92557 61121
" />
<path d="M92457 60821
L92557 60978
L92657 60821
" />
<path d="M92685 61150
L92914 61150
" />
<path d="M92985 61121
L92985 60821
L93100 60821
L93128 60835
L93142 60850
L93157 60878
L93157 60921
L93142 60950
L93128 60964
L93100 60978
L92985 60978
" />
<path d="M93257 60821
L93328 61121
L93385 60907
L93442 61121
L93514 60821
" />
<path d="M93800 61121
L93700 60978
" />
<path d="M93628 61121
L93628 60821
L93742 60821
L93771 60835
L93785 60850
L93800 60878
L93800 60921
L93785 60950
L93771 60964
L93742 60978
L93628 60978
" />
<path d="M94085 61121
L93914 61121
" />
<path d="M94000 61121
L94000 60821
L93971 60864
L93942 60892
L93914 60907
" />
</g>
<g style="fill:#000000; fill-opacity:0.0; 
stroke:#000000; stroke-width:80; stroke-opacity:1; 
stroke-linecap:round; stroke-linejoin:round;">
<path d="M88684 59916
L88684 60083
" />
<path d="M88972 60083
L88422 60083
L88422 59845
" />
<path d="M88684 59488
L88710 59416
L88736 59392
L88789 59369
L88867 59369
L88920 59392
L88946 59416
L88972 59464
L88972 59654
L88422 59654
L88422 59488
L88448 59440
L88475 59416
L88527 59392
L88579 59392
L88632 59416
L88658 59440
L88684 59488
L88684 59654
" />
<path d="M88475 59178
L88448 59154
L88422 59107
L88422 58988
L88448 58940
L88475 58916
L88527 58892
L88579 58892
L88658 58916
L88972 59202
L88972 58892
" />
<path d="M80333 53934
L80166 53934
" />
<path d="M80166 54222
L80166 53672
L80404 53672
" />
<path d="M80761 53934
L80833 53960
L80857 53986
L80880 54039
L80880 54117
L80857 54170
L80833 54196
L80785 54222
L80595 54222
L80595 53672
L80761 53672
L80809 53698
L80833 53725
L80857 53777
L80857 53829
L80833 53882
L80809 53908
L80761 53934
L80595 53934
" />
<path d="M81357 54222
L81071 54222
" />
<path d="M81214 54222
L81214 53672
L81166 53751
L81119 53803
L81071 53829
" />
<path d="M87123 60316
L87142 60335
L87161 60392
L87161 60430
L87142 60488
L87104 60526
L87066 60545
L86990 60564
L86933 60564
L86857 60545
L86819 60526
L86780 60488
L86761 60430
L86761 60392
L86780 60335
L86800 60316
" />
<path d="M86761 59973
L86761 60049
L86780 60088
L86800 60107
L86857 60145
L86933 60164
L87085 60164
L87123 60145
L87142 60126
L87161 60088
L87161 60011
L87142 59973
L87123 59954
L87085 59935
L86990 59935
L86952 59954
L86933 59973
L86914 60011
L86914 60088
L86933 60126
L86952 60145
L86990 60164
" />
<path d="M88683 52373
L88664 52392
L88607 52411
L88569 52411
L88511 52392
L88473 52354
L88454 52316
L88435 52240
L88435 52183
L88454 52107
L88473 52069
L88511 52030
L88569 52011
L88607 52011
L88664 52030
L88683 52050
" />
<path d="M88816 52011
L89083 52011
L88911 52411
" />
</g>
<g style="fill:#000000; fill-opacity:0.0; 
stroke:#000000; stroke-width:50; stroke-opacity:1; 
stroke-linecap:round; stroke-linejoin:round;">
<path d="M90200 58342
L90185 58357
L90142 58371
L90114 58371
L90071 58357
L90042 58328
L90028 58300
L90014 58242
L90014 58200
L90028 58142
L90042 58114
L90071 58085
L90114 58071
L90142 58071
L90185 58085
L90200 58100
" />
<path d="M90457 58171
L90457 58371
" />
<path d="M90385 58057
L90314 58271
L90500 58271
" />
<path d="M89863 60121
L89720 60121
" />
<path d="M89791 60121
L89791 59821
L89767 59864
L89744 59892
L89720 59907
" />
<path d="M90017 59821
L90041 59821
L90065 59835
L90077 59850
L90089 59878
L90101 59935
L90101 60007
L90089 60064
L90077 60092
L90065 60107
L90041 60121
L90017 60121
L89994 60107
L89982 60092
L89970 60064
L89958 60007
L89958 59935
L89970 59878
L89982 59850
L89994 59835
L90017 59821
" />
<path d="M90255 59821
L90279 59821
L90303 59835
L90315 59850
L90327 59878
L90339 59935
L90339 60007
L90327 60064
L90315 60092
L90303 60107
L90279 60121
L90255 60121
L90232 60107
L90220 60092
L90208 60064
L90196 60007
L90196 59935
L90208 59878
L90220 59850
L90232 59835
L90255 59821
" />
<path d="M90553 59921
L90553 60121
" />
<path d="M90446 59921
L90446 60078
L90458 60107
L90482 60121
L90517 60121
L90541 60107
L90553 60092
" />
<path d="M90755 59964
L90672 59964
" />
<path d="M90672 60121
L90672 59821
L90791 59821
" />
</g>
<g style="fill:#000000; fill-opacity:0.0; 
stroke:#000000; stroke-width:80; stroke-opacity:1; 
stroke-linecap:round; stroke-linejoin:round;">
</g>
<g style="fill:#000000; fill-opacity:0.0; 
stroke:#000000; stroke-width:75; stroke-opacity:1; 
stroke-linecap:round; stroke-linejoin:round;">
<path d="M89235 59007
L89464 59007
" />
<path d="M89350 59121
L89350 58892
" />
</g>
<g style="fill:#000000; fill-opacity:0.0; 
stroke:#000000; stroke-width:80; stroke-opacity:1; 
stroke-linecap:round; stroke-linejoin:round;">
<path d="M86333 50184
L86166 50184
" />
<path d="M86166 50472
L86166 49922
L86404 49922
" />
<path d="M86761 50184
L86833 50210
L86857 50236
L86880 50289
L86880 50367
L86857 50420
L86833 50446
L86785 50472
L86595 50472
L86595 49922
L86761 49922
L86809 49948
L86833 49975
L86857 50027
L86857 50079
L86833 50132
L86809 50158
L86761 50184
L86595 50184
" />
<path d="M87047 49922
L87357 49922
L87190 50132
L87261 50132
L87309 50158
L87333 50184
L87357 50236
L87357 50367
L87333 50420
L87309 50446
L87261 50472
L87119 50472
L87071 50446
L87047 50420
" />
<path d="M85083 51184
L84916 51184
" />
<path d="M84916 51472
L84916 50922
L85154 50922
" />
<path d="M85511 51184
L85583 51210
L85607 51236
L85630 51289
L85630 51367
L85607 51420
L85583 51446
L85535 51472
L85345 51472
L85345 50922
L85511 50922
L85559 50948
L85583 50975
L85607 51027
L85607 51079
L85583 51132
L85559 51158
L85511 51184
L85345 51184
" />
<path d="M86059 51105
L86059 51472
" />
<path d="M85940 50896
L85821 51289
L86130 51289
" />
<path d="M86972 47083
L86710 47250
" />
<path d="M86972 47369
L86422 47369
L86422 47178
L86448 47130
L86475 47107
L86527 47083
L86605 47083
L86658 47107
L86684 47130
L86710 47178
L86710 47369
" />
<path d="M86972 46607
L86972 46892
" />
<path d="M86972 46750
L86422 46750
L86501 46797
L86553 46845
L86579 46892
" />
<path d="M87166 48222
L87000 47960
" />
<path d="M86880 48222
L86880 47672
L87071 47672
L87119 47698
L87142 47725
L87166 47777
L87166 47855
L87142 47908
L87119 47934
L87071 47960
L86880 47960
" />
<path d="M87333 47672
L87642 47672
L87476 47882
L87547 47882
L87595 47908
L87619 47934
L87642 47986
L87642 48117
L87619 48170
L87595 48196
L87547 48222
L87404 48222
L87357 48196
L87333 48170
" />
</g>
<g style="fill:#000000; fill-opacity:0.0; 
stroke:#000000; stroke-width:60; stroke-opacity:1; 
stroke-linecap:round; stroke-linejoin:round;">
<path d="M86666 53161
L86895 53161
" />
<path d="M86780 53561
L86780 53161
" />
<path d="M87180 53542
L87142 53561
L87066 53561
L87028 53542
L87009 53504
L87009 53352
L87028 53314
L87066 53295
L87142 53295
L87180 53314
L87200 53352
L87200 53390
L87009 53428
" />
<path d="M87371 53561
L87371 53295
" />
<path d="M87371 53333
L87390 53314
L87428 53295
L87485 53295
L87523 53314
L87542 53352
L87542 53561
" />
<path d="M87542 53352
L87561 53314
L87600 53295
L87657 53295
L87695 53314
L87714 53352
L87714 53561
" />
<path d="M87904 53295
L87904 53695
" />
<path d="M87904 53314
L87942 53295
L88019 53295
L88057 53314
L88076 53333
L88095 53371
L88095 53485
L88076 53523
L88057 53542
L88019 53561
L87942 53561
L87904 53542
" />
<path d="M88247 53542
L88304 53561
L88400 53561
L88438 53542
L88457 53523
L88476 53485
L88476 53447
L88457 53409
L88438 53390
L88400 53371
L88323 53352
L88285 53333
L88266 53314
L88247 53276
L88247 53238
L88266 53200
L88285 53180
L88323 53161
L88419 53161
L88476 53180
" />
<path d="M88800 53542
L88761 53561
L88685 53561
L88647 53542
L88628 53504
L88628 53352
L88647 53314
L88685 53295
L88761 53295
L88800 53314
L88819 53352
L88819 53390
L88628 53428
" />
<path d="M88990 53295
L88990 53561
" />
<path d="M88990 53333
L89009 53314
L89047 53295
L89104 53295
L89142 53314
L89161 53352
L89161 53561
" />
<path d="M89333 53542
L89371 53561
L89447 53561
L89485 53542
L89504 53504
L89504 53485
L89485 53447
L89447 53428
L89390 53428
L89352 53409
L89333 53371
L89333 53352
L89352 53314
L89390 53295
L89447 53295
L89485 53314
" />
<path d="M89733 53561
L89695 53542
L89676 53523
L89657 53485
L89657 53371
L89676 53333
L89695 53314
L89733 53295
L89790 53295
L89828 53314
L89847 53333
L89866 53371
L89866 53485
L89847 53523
L89828 53542
L89790 53561
L89733 53561
" />
<path d="M90038 53561
L90038 53295
" />
<path d="M90038 53371
L90057 53333
L90076 53314
L90114 53295
L90152 53295
" />
<path d="M90495 53561
L90266 53561
" />
<path d="M90380 53561
L90380 53161
L90342 53219
L90304 53257
L90266 53276
" />
<path d="M88621 64835
L88621 64978
L88321 64978
" />
<path d="M88464 64735
L88464 64635
" />
<path d="M88621 64592
L88621 64735
L88321 64735
L88321 64592
" />
<path d="M88621 64464
L88321 64464
L88321 64392
L88335 64350
L88364 64321
L88392 64307
L88450 64292
L88492 64292
L88550 64307
L88578 64321
L88607 64350
L88621 64392
L88621 64464
" />
<path d="M88621 64007
L88621 64178
" />
<path d="M88621 64092
L88321 64092
L88364 64121
L88392 64150
L88407 64178
" />
</g>
<g style="fill:#000000; fill-opacity:0.0; 
stroke:#000000; stroke-width:80; stroke-opacity:1; 
stroke-linecap:round; stroke-linejoin:round;">
<path d="M91411 48930
L91145 48930
" />
<path d="M91011 48930
L91030 48949
L91050 48930
L91030 48911
L91011 48930
L91050 48930
" />
<path d="M91050 48759
L91030 48740
L91011 48702
L91011 48607
L91030 48569
L91050 48549
L91088 48530
L91126 48530
L91183 48549
L91411 48778
L91411 48530
" />
<path d="M91392 48188
L91411 48226
L91411 48302
L91392 48340
L91373 48359
L91335 48378
L91221 48378
L91183 48359
L91164 48340
L91145 48302
L91145 48226
L91164 48188
" />
<path d="M91450 48111
L91450 47807
" />
<path d="M91411 47654
L91392 47692
L91373 47711
L91335 47730
L91221 47730
L91183 47711
L91164 47692
L91145 47654
L91145 47597
L91164 47559
L91183 47540
L91221 47521
L91335 47521
L91373 47540
L91392 47559
L91411 47597
L91411 47654
" />
<path d="M91145 47178
L91411 47178
" />
<path d="M91145 47349
L91354 47349
L91392 47330
L91411 47292
L91411 47235
L91392 47197
L91373 47178
" />
<path d="M91145 47045
L91145 46892
" />
<path d="M91011 46988
L91354 46988
L91392 46969
L91411 46930
L91411 46892
" />
<path d="M91411 46550
L91411 46778
" />
<path d="M91411 46664
L91011 46664
L91069 46702
L91107 46740
L91126 46778
" />
</g>
<g style="fill:#000000; fill-opacity:0.0; 
stroke:#000000; stroke-width:60; stroke-opacity:1; 
stroke-linecap:round; stroke-linejoin:round;">
<path d="M86457 56357
L86428 56371
L86371 56371
L86342 56357
L86328 56328
L86328 56214
L86342 56185
L86371 56171
L86428 56171
L86457 56185
L86471 56214
L86471 56242
L86328 56271
" />
<path d="M86571 56371
L86728 56171
" />
<path d="M86571 56171
L86728 56371
" />
<path d="M86800 56171
L86914 56171
" />
<path d="M86842 56071
L86842 56328
L86857 56357
L86885 56371
L86914 56371
" />
<path d="M87000 56100
L87014 56085
L87042 56071
L87114 56071
L87142 56085
L87157 56100
L87171 56128
L87171 56157
L87157 56200
L86985 56371
L87171 56371
" />
<path d="M86457 55357
L86428 55371
L86371 55371
L86342 55357
L86328 55328
L86328 55214
L86342 55185
L86371 55171
L86428 55171
L86457 55185
L86471 55214
L86471 55242
L86328 55271
" />
<path d="M86571 55371
L86728 55171
" />
<path d="M86571 55171
L86728 55371
" />
<path d="M86800 55171
L86914 55171
" />
<path d="M86842 55071
L86842 55328
L86857 55357
L86885 55371
L86914 55371
" />
<path d="M86985 55071
L87171 55071
L87071 55185
L87114 55185
L87142 55200
L87157 55214
L87171 55242
L87171 55314
L87157 55342
L87142 55357
L87114 55371
L87028 55371
L87000 55357
L86985 55342
" />
</g>
<g style="fill:#000000; fill-opacity:0.0; 
stroke:#000000; stroke-width:80; stroke-opacity:1; 
stroke-linecap:round; stroke-linejoin:round;">
<path d="M80411 55261
L80145 55261
" />
<path d="M80221 55261
L80183 55242
L80164 55223
L80145 55185
L80145 55147
" />
<path d="M80392 55033
L80411 54995
L80411 54919
L80392 54880
L80354 54861
L80335 54861
L80297 54880
L80278 54919
L80278 54976
L80259 55014
L80221 55033
L80202 55033
L80164 55014
L80145 54976
L80145 54919
L80164 54880
" />
<path d="M80050 54709
L80030 54690
L80011 54652
L80011 54557
L80030 54519
L80050 54500
L80088 54480
L80126 54480
L80183 54500
L80411 54728
L80411 54480
" />
<path d="M80011 54347
L80011 54100
L80164 54233
L80164 54176
L80183 54138
L80202 54119
L80240 54100
L80335 54100
L80373 54119
L80392 54138
L80411 54176
L80411 54290
L80392 54328
L80373 54347
" />
<path d="M80050 53947
L80030 53928
L80011 53890
L80011 53795
L80030 53757
L80050 53738
L80088 53719
L80126 53719
L80183 53738
L80411 53966
L80411 53719
" />
</g>
<g style="fill:#000000; fill-opacity:0.0; 
stroke:#000000; stroke-width:60; stroke-opacity:1; 
stroke-linecap:round; stroke-linejoin:round;">
<path d="M79871 65121
L79671 65121
" />
<path d="M79728 65121
L79700 65107
L79685 65092
L79671 65064
L79671 65035
" />
<path d="M79857 64821
L79871 64850
L79871 64907
L79857 64935
L79828 64950
L79714 64950
L79685 64935
L79671 64907
L79671 64850
L79685 64821
L79714 64807
L79742 64807
L79771 64950
" />
<path d="M79871 64635
L79857 64664
L79828 64678
L79571 64678
" />
<path d="M79871 64392
L79714 64392
L79685 64407
L79671 64435
L79671 64492
L79685 64521
" />
<path d="M79857 64392
L79871 64421
L79871 64492
L79857 64521
L79828 64535
L79800 64535
L79771 64521
L79757 64492
L79757 64421
L79742 64392
" />
<path d="M79671 64278
L79871 64207
" />
<path d="M79671 64135
L79871 64207
L79942 64235
L79957 64249
L79971 64278
" />
<path d="M79871 63864
L79871 64035
" />
<path d="M79871 63950
L79571 63950
L79614 63978
L79642 64007
L79657 64035
" />
<path d="M81371 67121
L81171 67121
" />
<path d="M81228 67121
L81200 67107
L81185 67092
L81171 67064
L81171 67035
" />
<path d="M81357 66821
L81371 66850
L81371 66907
L81357 66935
L81328 66950
L81214 66950
L81185 66935
L81171 66907
L81171 66850
L81185 66821
L81214 66807
L81242 66807
L81271 66950
" />
<path d="M81371 66635
L81357 66664
L81328 66678
L81071 66678
" />
<path d="M81371 66392
L81214 66392
L81185 66407
L81171 66435
L81171 66492
L81185 66521
" />
<path d="M81357 66392
L81371 66421
L81371 66492
L81357 66521
L81328 66535
L81300 66535
L81271 66521
L81257 66492
L81257 66421
L81242 66392
" />
<path d="M81171 66278
L81371 66207
" />
<path d="M81171 66135
L81371 66207
L81442 66235
L81457 66249
L81471 66278
" />
<path d="M81100 66035
L81085 66021
L81071 65992
L81071 65921
L81085 65892
L81100 65878
L81128 65864
L81157 65864
L81200 65878
L81371 66050
L81371 65864
" />
<path d="M86457 57357
L86428 57371
L86371 57371
L86342 57357
L86328 57328
L86328 57214
L86342 57185
L86371 57171
L86428 57171
L86457 57185
L86471 57214
L86471 57242
L86328 57271
" />
<path d="M86571 57371
L86728 57171
" />
<path d="M86571 57171
L86728 57371
" />
<path d="M86800 57171
L86914 57171
" />
<path d="M86842 57071
L86842 57328
L86857 57357
L86885 57371
L86914 57371
" />
<path d="M87171 57371
L87000 57371
" />
<path d="M87085 57371
L87085 57071
L87057 57114
L87028 57142
L87000 57157
" />
</g>
<g style="fill:#000000; fill-opacity:0.0; 
stroke:#000000; stroke-width:120; stroke-opacity:1; 
stroke-linecap:round; stroke-linejoin:round;">
<path d="M82092 68492
L82092 67892
L82321 67892
L82378 67921
L82407 67950
L82435 68007
L82435 68092
L82407 68150
L82378 68178
L82321 68207
L82092 68207
" />
<path d="M82635 67892
L82778 68492
L82892 68064
L83007 68492
L83150 67892
" />
<path d="M83721 68492
L83521 68207
" />
<path d="M83378 68492
L83378 67892
L83607 67892
L83664 67921
L83692 67950
L83721 68007
L83721 68092
L83692 68150
L83664 68178
L83607 68207
L83378 68207
" />
<path d="M83835 68550
L84292 68550
" />
<path d="M84635 68178
L84721 68207
L84750 68235
L84778 68292
L84778 68378
L84750 68435
L84721 68464
L84664 68492
L84435 68492
L84435 67892
L84635 67892
L84692 67921
L84721 67950
L84750 68007
L84750 68064
L84721 68121
L84692 68150
L84635 68178
L84435 68178
" />
<path d="M84950 67892
L85292 67892
" />
<path d="M85121 68492
L85121 67892
" />
<path d="M85492 68492
L85492 67892
L85835 68492
L85835 67892
" />
<path d="M86435 68492
L86092 68492
" />
<path d="M86264 68492
L86264 67892
L86207 67978
L86150 68035
L86092 68064
" />
<path d="M82978 72435
L82950 72464
L82864 72492
L82807 72492
L82721 72464
L82664 72407
L82635 72350
L82607 72235
L82607 72150
L82635 72035
L82664 71978
L82721 71921
L82807 71892
L82864 71892
L82950 71921
L82978 71950
" />
<path d="M83350 71892
L83464 71892
L83521 71921
L83578 71978
L83607 72092
L83607 72292
L83578 72407
L83521 72464
L83464 72492
L83350 72492
L83292 72464
L83235 72407
L83207 72292
L83207 72092
L83235 71978
L83292 71921
L83350 71892
" />
<path d="M83864 72492
L83864 71892
L84207 72492
L84207 71892
" />
<path d="M84492 72492
L84492 71892
L84835 72492
L84835 71892
" />
<path d="M84978 72550
L85435 72550
" />
<path d="M85550 71950
L85578 71921
L85635 71892
L85778 71892
L85835 71921
L85864 71950
L85892 72007
L85892 72064
L85864 72150
L85521 72492
L85892 72492
" />
</g> 
</svg>
