<?xml version="1.0" standalone="no"?>
 <!DOCTYPE svg PUBLIC "-//W3C//DTD SVG 1.1//EN" 
 "http://www.w3.org/Graphics/SVG/1.1/DTD/svg11.dtd"> 
<svg xmlns="http://www.w3.org/2000/svg" version="1.1" 
    width="41.9989cm" height="29.7002cm" viewBox="0 0 165350 116930 ">
<title>SVG Picture created as power_ctrl-B_Cu.svg date 2015/08/05 17:31:23 </title>
  <desc>Picture generated by PCBNEW </desc>
<g style="fill:#000000; fill-opacity:1;stroke:#000000; stroke-opacity:1;
stroke-linecap:round; stroke-linejoin:round; "
 transform="translate(0 0) scale(1 1)">
</g>
<g style="fill:#000000; fill-opacity:0.0; 
stroke:#000000; stroke-width:59.0551; stroke-opacity:1; 
stroke-linecap:round; stroke-linejoin:round;">
</g>
<g style="fill:#000000; fill-opacity:1.0; 
stroke:#000000; stroke-width:59.0551; stroke-opacity:1; 
stroke-linecap:round; stroke-linejoin:round;">
<circle cx="89750" cy="62500" r="270.472" /> 
<circle cx="89750" cy="66500" r="270.472" /> 
</g>
<g style="fill:#000000; fill-opacity:1.0; 
stroke:#000000; stroke-width:551.181; stroke-opacity:1; 
stroke-linecap:round; stroke-linejoin:round;">
<path d="M87927 67500
L87572 67500
" />
<path d="M87927 69500
L87572 69500
" />
<path d="M87927 70500
L87572 70500
" />
</g>
<g style="fill:#000000; fill-opacity:1.0; 
stroke:#000000; stroke-width:393.701; stroke-opacity:1; 
stroke-linecap:round; stroke-linejoin:round;">
<path d="M82157 54000
L81842 54000
" />
<path d="M82157 55000
L81842 55000
" />
<path d="M82157 56000
L81842 56000
" />
<path d="M82157 57000
L81842 57000
" />
<path d="M82157 58000
L81842 58000
" />
<path d="M82157 59000
L81842 59000
" />
<path d="M82157 60000
L81842 60000
" />
<path d="M82157 61000
L81842 61000
" />
<path d="M82157 62000
L81842 62000
" />
<path d="M82157 63000
L81842 63000
" />
<path d="M82157 64000
L81842 64000
" />
<path d="M82157 65000
L81842 65000
" />
<path d="M82157 66000
L81842 66000
" />
<path d="M82157 53000
L81842 53000
" />
<path d="M85157 66000
L84842 66000
" />
<path d="M85157 65000
L84842 65000
" />
<path d="M85157 64000
L84842 64000
" />
<path d="M85157 63000
L84842 63000
" />
<path d="M85157 62000
L84842 62000
" />
<path d="M85157 61000
L84842 61000
" />
<path d="M85157 60000
L84842 60000
" />
<path d="M85157 59000
L84842 59000
" />
<path d="M85157 58000
L84842 58000
" />
<path d="M85157 57000
L84842 57000
" />
<path d="M85157 56000
L84842 56000
" />
<path d="M85157 55000
L84842 55000
" />
<path d="M85157 54000
L84842 54000
" />
<path d="M85157 53000
L84842 53000
" />
</g>
<g style="fill:#000000; fill-opacity:1.0; 
stroke:#000000; stroke-width:59.0551; stroke-opacity:1; 
stroke-linecap:round; stroke-linejoin:round;">
<circle cx="86000" cy="44250" r="320.472" /> 
<circle cx="88000" cy="44250" r="320.472" /> 
<circle cx="80750" cy="58250" r="245.472" /> 
<circle cx="80750" cy="60250" r="245.472" /> 
<polyline style="fill-rule:evenodd;"
points="89254,68495
89254,68004
89745,68004
89745,68495
89254,68495
" /> 
<circle cx="90500" cy="68250" r="245.472" /> 
<circle cx="83250" cy="44250" r="470.472" /> 
<circle cx="81250" cy="44250" r="470.472" /> 
<circle cx="86250" cy="66500" r="270.472" /> 
<circle cx="86250" cy="62500" r="270.472" /> 
</g>
<g style="fill:#000000; fill-opacity:1.0; 
stroke:#000000; stroke-width:551.181; stroke-opacity:1; 
stroke-linecap:round; stroke-linejoin:round;">
<path d="M89750 60822
L89750 61177
" />
<path d="M90750 60822
L90750 61177
" />
</g>
<g style="fill:#000000; fill-opacity:1.0; 
stroke:#000000; stroke-width:59.0551; stroke-opacity:1; 
stroke-linecap:round; stroke-linejoin:round;">
<circle cx="88500" cy="57500" r="270.472" /> 
<circle cx="88500" cy="61500" r="270.472" /> 
<circle cx="80750" cy="52500" r="270.472" /> 
<circle cx="80750" cy="56500" r="270.472" /> 
<circle cx="86250" cy="59250" r="245.472" /> 
<circle cx="86250" cy="61250" r="245.472" /> 
<circle cx="87500" cy="52750" r="245.472" /> 
<circle cx="89500" cy="52750" r="245.472" /> 
<polyline style="fill-rule:evenodd;"
points="89504,59245
89504,58754
89995,58754
89995,59245
89504,59245
" /> 
<circle cx="90750" cy="59000" r="245.472" /> 
<circle cx="88750" cy="50000" r="270.472" /> 
<circle cx="84750" cy="50000" r="270.472" /> 
<circle cx="87750" cy="51250" r="270.472" /> 
<circle cx="83750" cy="51250" r="270.472" /> 
<circle cx="84750" cy="47250" r="270.472" /> 
<circle cx="88750" cy="47250" r="270.472" /> 
<circle cx="84750" cy="48500" r="270.472" /> 
<circle cx="88750" cy="48500" r="270.472" /> 
</g>
<g style="fill:#000000; fill-opacity:1.0; 
stroke:#000000; stroke-width:551.181; stroke-opacity:1; 
stroke-linecap:round; stroke-linejoin:round;">
<path d="M87500 54072
L87500 54427
" />
<path d="M88500 54072
L88500 54427
" />
<path d="M89500 54072
L89500 54427
" />
<path d="M87927 64000
L87572 64000
" />
<path d="M87927 65000
L87572 65000
" />
<path d="M90427 46250
L90072 46250
" />
<path d="M90427 47250
L90072 47250
" />
<path d="M90427 48250
L90072 48250
" />
<path d="M90427 49250
L90072 49250
" />
</g>
<g style="fill:#000000; fill-opacity:1.0; 
stroke:#000000; stroke-width:472.441; stroke-opacity:1; 
stroke-linecap:round; stroke-linejoin:round;">
<path d="M86171 57000
L86328 57000
" />
</g>
<g style="fill:#000000; fill-opacity:1.0; 
stroke:#000000; stroke-width:551.181; stroke-opacity:1; 
stroke-linecap:round; stroke-linejoin:round;">
<path d="M87250 56822
L87250 57177
" />
</g>
<g style="fill:#000000; fill-opacity:1.0; 
stroke:#000000; stroke-width:472.441; stroke-opacity:1; 
stroke-linecap:round; stroke-linejoin:round;">
<path d="M86171 56000
L86328 56000
" />
</g>
<g style="fill:#000000; fill-opacity:1.0; 
stroke:#000000; stroke-width:551.181; stroke-opacity:1; 
stroke-linecap:round; stroke-linejoin:round;">
<path d="M87250 55822
L87250 56177
" />
<path d="M79427 53000
L79072 53000
" />
<path d="M79427 54000
L79072 54000
" />
<path d="M79427 55000
L79072 55000
" />
<path d="M79427 56000
L79072 56000
" />
<path d="M80322 65000
L80677 65000
" />
<path d="M80322 64000
L80677 64000
" />
<path d="M80677 66000
L80322 66000
" />
<path d="M80677 67000
L80322 67000
" />
</g>
<g style="fill:#000000; fill-opacity:1.0; 
stroke:#000000; stroke-width:472.441; stroke-opacity:1; 
stroke-linecap:round; stroke-linejoin:round;">
<path d="M86171 58000
L86328 58000
" />
</g>
<g style="fill:#000000; fill-opacity:1.0; 
stroke:#000000; stroke-width:551.181; stroke-opacity:1; 
stroke-linecap:round; stroke-linejoin:round;">
<path d="M87250 57822
L87250 58177
" />
</g>
<g style="fill:#000000; fill-opacity:1.0; 
stroke:#000000; stroke-width:59.0551; stroke-opacity:1; 
stroke-linecap:round; stroke-linejoin:round;">
<circle cx="83250" cy="70250" r="470.472" /> 
<circle cx="85250" cy="70250" r="470.472" /> 
</g>
<g style="fill:#000000; fill-opacity:1.0; 
stroke:#000000; stroke-width:196.85; stroke-opacity:1; 
stroke-linecap:round; stroke-linejoin:round;">
<path d="M88500 57500
L88500 54250
" />
<path d="M89750 59000
L89750 58750
" />
<path d="M89750 58750
L88500 57500
" />
<path d="M89750 61000
L89750 59000
" />
<path d="M89750 61000
L89750 62500
" />
<path d="M87500 52750
L88500 53750
" />
<path d="M88500 53750
L88500 54250
" />
<path d="M87500 52750
L86250 51500
" />
<path d="M86250 50000
L84750 48500
" />
<path d="M86250 51500
L86250 50000
" />
<path d="M80750 52500
L82000 51250
" />
<path d="M84750 47250
L82000 50000
" />
<path d="M82000 50000
L82000 51250
" />
<path d="M82000 51250
L82000 53000
" />
<path d="M84750 47250
L84750 48500
" />
<path d="M86000 44250
L84750 45500
" />
<path d="M84750 45500
L84750 47250
" />
<path d="M83250 44250
L86000 44250
" />
</g>
<g style="fill:#000000; fill-opacity:1.0; 
stroke:#000000; stroke-width:118.11; stroke-opacity:1; 
stroke-linecap:round; stroke-linejoin:round;">
<path d="M85000 58000
L86250 58000
" />
<path d="M85000 57000
L86250 57000
" />
<path d="M85000 56000
L86250 56000
" />
<path d="M85000 55000
L86750 55000
" />
<path d="M86750 55000
L87500 54250
" />
<path d="M82000 65000
L80500 65000
" />
<path d="M82000 66000
L80500 66000
" />
<path d="M85000 66000
L85000 66750
" />
<path d="M85750 67500
L87750 67500
" />
<path d="M85000 66750
L85750 67500
" />
<path d="M85000 65000
L85500 65000
" />
<path d="M86250 65750
L86250 66500
" />
<path d="M85500 65000
L86250 65750
" />
<path d="M83250 70250
L83250 64500
" />
<path d="M82750 64000
L82000 64000
" />
<path d="M83250 64500
L82750 64000
" />
<path d="M82000 54000
L79250 54000
" />
<path d="M82000 55000
L79250 55000
" />
<path d="M90250 48250
L89000 48250
" />
<path d="M89000 48250
L88750 48500
" />
<path d="M88750 50000
L88750 48500
" />
<path d="M87750 51250
L87500 51000
" />
<path d="M88750 47250
L88000 47250
" />
<path d="M87500 47750
L87500 51000
" />
<path d="M88000 47250
L87500 47750
" />
<path d="M90250 47250
L88750 47250
" />
</g>
<g style="fill:#000000; fill-opacity:1.0; 
stroke:#000000; stroke-width:196.85; stroke-opacity:1; 
stroke-linecap:round; stroke-linejoin:round;">
<path d="M80750 60250
L79500 60250
" />
<path d="M86250 59250
L87250 59250
" />
<path d="M86250 59250
L86750 59250
" />
<path d="M82000 60000
L81000 60000
" />
<path d="M81000 60000
L80750 60250
" />
<path d="M85000 59000
L86000 59000
" />
<path d="M86000 59000
L86250 59250
" />
<path d="M89750 66500
L89500 66750
" />
<path d="M89500 66750
L89500 68250
" />
<path d="M89500 68250
L89500 69000
" />
<path d="M89000 69500
L87750 69500
" />
<path d="M89500 69000
L89000 69500
" />
</g>
<g style="fill:#000000; fill-opacity:1.0; 
stroke:#000000; stroke-width:118.11; stroke-opacity:1; 
stroke-linecap:round; stroke-linejoin:round;">
<path d="M85000 53000
L85000 50250
" />
<path d="M85000 50250
L84750 50000
" />
</g>
<g style="fill:#000000; fill-opacity:1.0; 
stroke:#000000; stroke-width:196.85; stroke-opacity:1; 
stroke-linecap:round; stroke-linejoin:round;">
<path d="M80750 58250
L80750 56500
" />
<path d="M82000 59000
L81500 59000
" />
<path d="M81500 59000
L80750 58250
" />
</g>
<g style="fill:#000000; fill-opacity:1.0; 
stroke:#000000; stroke-width:118.11; stroke-opacity:1; 
stroke-linecap:round; stroke-linejoin:round;">
<path d="M86250 62500
L87750 64000
" />
</g>
<g style="fill:#000000; fill-opacity:1.0; 
stroke:#000000; stroke-width:196.85; stroke-opacity:1; 
stroke-linecap:round; stroke-linejoin:round;">
<path d="M86250 61250
L86500 61500
" />
<path d="M86500 61500
L88500 61500
" />
<path d="M85000 61000
L86000 61000
" />
<path d="M86000 61000
L86250 61250
" />
</g>
<g style="fill:#000000; fill-opacity:1.0; 
stroke:#000000; stroke-width:118.11; stroke-opacity:1; 
stroke-linecap:round; stroke-linejoin:round;">
<path d="M83750 51250
L83750 53500
" />
<path d="M84250 54000
L85000 54000
" />
<path d="M83750 53500
L84250 54000
" />
</g>
<g style="fill:#000000; fill-opacity:1.0; 
stroke:#000000; stroke-width:59.0551; stroke-opacity:1; 
stroke-linecap:round; stroke-linejoin:round;">
<polyline style="fill-rule:evenodd;"
points="91651,71651
91327,71651
91327,58906
91311,58865
91311,44061
91311,44000
91311,43938
91311,43937
91311,43937
91311,43937
91273,43746
91226,43632
91225,43631
91118,43470
91117,43469
91030,43381
90868,43273
90867,43273
90753,43225
90561,43187
90437,43188
90436,43188
90246,43226
90132,43273
90131,43274
89970,43381
89969,43382
89881,43469
89773,43631
89773,43632
89725,43746
89687,43938
89688,44000
89687,44061
89725,44253
89773,44367
89773,44368
89881,44530
89969,44617
89970,44618
90131,44725
90132,44726
90246,44773
90436,44811
90437,44811
90561,44812
90753,44774
90867,44726
90868,44726
91030,44618
91117,44530
91118,44529
91225,44368
91226,44367
91273,44253
91311,44062
91311,44062
91311,44062
91311,44061
91311,58865
91247,58693
91223,58657
91111,58640
91109,58642
91109,58638
91092,58526
91015,58491
91015,48250
90972,48030
90847,47844
90706,47750
90847,47655
90972,47469
91015,47250
90972,47030
90847,46844
90699,46745
90834,46654
90958,46468
90993,46341
90993,46158
90958,46031
90834,45845
90648,45720
90428,45675
90251,45675
90251,46248
90926,46248
90993,46158
90993,46341
90926,46251
90251,46251
90251,46259
90248,46259
90248,46251
90248,46248
90248,45675
90071,45675
89851,45720
89665,45845
89541,46031
89506,46158
89573,46248
90248,46248
90248,46251
89573,46251
89506,46341
89541,46468
89665,46654
89800,46745
89652,46844
89619,46892
89238,46892
89089,46742
88869,46651
88652,46651
88652,44145
88562,43903
88535,43862
88415,43836
88413,43838
88413,43834
88387,43714
88152,43606
87895,43597
87653,43687
87612,43714
87586,43834
88000,44247
88413,43834
88413,43838
88002,44250
88415,44663
88535,44637
88643,44402
88652,44145
88652,46651
88631,46651
88413,46741
88413,44665
88000,44252
87997,44254
87997,44250
87584,43836
87464,43862
87356,44097
87347,44354
87437,44596
87464,44637
87584,44663
87997,44250
87997,44254
87586,44665
87612,44785
87847,44893
88104,44902
88346,44812
88387,44785
88413,44665
88413,46741
88411,46742
88261,46892
88000,46892
87863,46919
87747,46997
87247,47497
87169,47613
87142,47750
87142,51000
87163,51103
87151,51130
87151,51368
87242,51588
87410,51757
87630,51848
87868,51848
88088,51757
88257,51589
88348,51369
88348,51131
88257,50911
88089,50742
87869,50651
87857,50651
87857,47898
88148,47607
88261,47607
88410,47757
88630,47848
88868,47848
89088,47757
89238,47607
89619,47607
89652,47655
89793,47750
89652,47844
89619,47892
89000,47892
88896,47913
88869,47901
88631,47901
88411,47992
88242,48160
88151,48380
88151,48618
88242,48838
88392,48988
88392,49511
88242,49660
88151,49880
88151,50118
88242,50338
88410,50507
88630,50598
88868,50598
89088,50507
89257,50339
89348,50119
89348,49881
89257,49661
89107,49511
89107,48988
89257,48839
89348,48619
89348,48607
89619,48607
89652,48655
89800,48754
89665,48845
89541,49031
89506,49158
89573,49248
90248,49248
90248,49240
90251,49240
90251,49248
90926,49248
90993,49158
90958,49031
90834,48845
90699,48754
90847,48655
90972,48469
91015,48250
91015,58491
90993,58480
90993,49341
90926,49251
90251,49251
90251,49824
90428,49824
90648,49779
90834,49654
90958,49468
90993,49341
90993,58480
90884,58431
90656,58422
90443,58502
90407,58526
90390,58638
90750,58997
91109,58638
91109,58642
90752,59000
91111,59359
91223,59342
91318,59134
91327,58906
91327,71651
91324,71651
91324,61178
91324,61001
91324,60998
91324,60821
91279,60601
91154,60415
91109,60385
91109,59361
90750,59002
90390,59361
90407,59473
90615,59568
90843,59577
91056,59497
91092,59473
91109,59361
91109,60385
90968,60291
90841,60256
90751,60323
90751,60998
91324,60998
91324,61001
90751,61001
90751,61676
90841,61743
90968,61708
91154,61584
91279,61398
91324,61178
91324,71651
91311,71651
91311,70561
91311,70500
91311,70438
91311,70437
91311,70437
91311,70437
91273,70246
91226,70132
91225,70131
91118,69970
91117,69969
91077,69928
91077,68156
90997,67943
90973,67907
90861,67890
90859,67892
90859,67888
90842,67776
90748,67733
90748,61676
90748,61001
90740,61001
90740,60998
90748,60998
90748,60323
90658,60256
90531,60291
90345,60415
90254,60550
90155,60402
90146,60396
90146,59547
90193,59528
90277,59444
90317,59348
90388,59359
90747,59000
90388,58640
90317,58651
90278,58556
90248,58526
90248,49824
90248,49251
89573,49251
89506,49341
89541,49468
89665,49654
89851,49779
90071,49824
90248,49824
90248,58526
90194,58472
90084,58426
90077,58426
90077,52656
89997,52443
89973,52407
89861,52390
89859,52392
89859,52388
89842,52276
89634,52181
89406,52172
89193,52252
89157,52276
89140,52388
89500,52747
89859,52388
89859,52392
89502,52750
89861,53109
89973,53092
90068,52884
90077,52656
90077,58426
90074,58426
90074,54428
90074,54251
90074,54248
90074,54071
90029,53851
89904,53665
89859,53635
89859,53111
89500,52752
89497,52754
89497,52750
89138,52390
89026,52407
88931,52615
88922,52843
89002,53056
89026,53092
89138,53109
89497,52750
89497,52754
89140,53111
89157,53223
89365,53318
89593,53327
89806,53247
89842,53223
89859,53111
89859,53635
89718,53541
89591,53506
89501,53573
89501,54248
90074,54248
90074,54251
89501,54251
89501,54926
89591,54993
89718,54958
89904,54834
90029,54648
90074,54428
90074,58426
89987,58426
89098,57537
89098,57381
89007,57161
88896,57050
88896,54853
88905,54847
89004,54699
89095,54834
89281,54958
89408,54993
89498,54926
89498,54251
89490,54251
89490,54248
89498,54248
89498,53573
89408,53506
89281,53541
89095,53665
89004,53800
88905,53652
88873,53630
88866,53598
88780,53469
88780,53469
88073,52762
88073,52636
87986,52425
87825,52264
87614,52176
87487,52176
86646,51335
86646,50000
86616,49848
86616,49848
86530,49719
86530,49719
85348,48537
85348,48381
85257,48161
85146,48050
85146,47699
85257,47589
85348,47369
85348,47131
85257,46911
85146,46800
85146,45664
85912,44898
86128,44898
86366,44800
86549,44617
86648,44379
86648,44121
86550,43883
86367,43700
86129,43601
85871,43601
85633,43699
85479,43853
83949,43853
83927,43798
83702,43573
83409,43451
83091,43451
82798,43572
82573,43797
82451,44090
82451,44408
82572,44701
82797,44926
83090,45048
83408,45048
83701,44927
83926,44702
83949,44646
85041,44646
84469,45219
84383,45348
84353,45500
84353,45500
84353,46800
84242,46910
84151,47130
84151,47287
82053,49384
82053,44121
81943,43823
81909,43772
81773,43728
81771,43730
81771,43726
81727,43590
81438,43458
81121,43446
80823,43556
80772,43590
80728,43726
81250,44247
81771,43726
81771,43730
81252,44250
81773,44771
81909,44727
82041,44438
82053,44121
82053,49384
81771,49667
81771,44773
81250,44252
81247,44254
81247,44250
80726,43728
80590,43772
80458,44061
80446,44378
80556,44676
80590,44727
80726,44771
81247,44250
81247,44254
80728,44773
80772,44909
81061,45041
81378,45053
81676,44943
81727,44909
81771,44773
81771,49667
81719,49719
81633,49848
81603,50000
81603,50000
81603,51085
80787,51901
80631,51901
80411,51992
80242,52160
80151,52380
80151,52618
80242,52838
80410,53007
80630,53098
80868,53098
81088,53007
81257,52839
81348,52619
81348,52462
81603,52208
81603,52567
81479,52649
81372,52810
81334,53000
81372,53189
81479,53350
81640,53457
81829,53495
82170,53495
82359,53457
82520,53350
82627,53189
82665,53000
82627,52810
82520,52649
82396,52567
82396,51250
82396,50164
84151,48409
84151,48618
84242,48838
84410,49007
84630,49098
84787,49098
85853,50164
85853,51499
85853,51500
85883,51651
85969,51780
86926,52737
86926,52863
87013,53074
87174,53235
87385,53323
87512,53323
87715,53527
87500,53484
87280,53527
87094,53652
86969,53838
86925,54058
86925,54318
86601,54642
85665,54642
85665,54000
85665,53000
85627,52810
85520,52649
85359,52542
85357,52541
85357,50250
85336,50146
85348,50119
85348,49881
85257,49661
85089,49492
84869,49401
84631,49401
84411,49492
84242,49660
84151,49880
84151,50118
84242,50338
84410,50507
84630,50598
84642,50598
84642,52541
84640,52542
84479,52649
84372,52810
84334,53000
84372,53189
84479,53350
84640,53457
84829,53495
85170,53495
85359,53457
85520,53350
85627,53189
85665,53000
85665,54000
85627,53810
85520,53649
85359,53542
85170,53504
84829,53504
84640,53542
84490,53642
84398,53642
84107,53351
84107,51738
84257,51589
84348,51369
84348,51131
84257,50911
84089,50742
83869,50651
83631,50651
83411,50742
83242,50910
83151,51130
83151,51368
83242,51588
83392,51738
83392,53500
83419,53636
83497,53752
83997,54252
84113,54330
84250,54357
84490,54357
84640,54457
84829,54495
85170,54495
85359,54457
85520,54350
85627,54189
85665,54000
85665,54642
85509,54642
85359,54542
85170,54504
84829,54504
84640,54542
84479,54649
84372,54810
84334,55000
84372,55189
84479,55350
84640,55457
84829,55495
85170,55495
85359,55457
85509,55357
86750,55357
86886,55330
87002,55252
87282,54972
87500,55015
87719,54972
87905,54847
88000,54706
88094,54847
88103,54853
88103,57050
87992,57160
87901,57380
87901,57618
87992,57838
88160,58007
88380,58098
88537,58098
89176,58737
89176,58784
89176,59334
89221,59443
89305,59527
89353,59547
89353,60396
89344,60402
89219,60588
89175,60808
89175,61191
89219,61411
89344,61597
89353,61603
89353,62050
89242,62160
89151,62380
89151,62618
89242,62838
89410,63007
89630,63098
89868,63098
90088,63007
90257,62839
90348,62619
90348,62381
90257,62161
90146,62050
90146,61603
90155,61597
90254,61449
90345,61584
90531,61708
90658,61743
90748,61676
90748,67733
90634,67681
90406,67672
90193,67752
90157,67776
90140,67888
90500,68247
90859,67888
90859,67892
90502,68250
90861,68609
90973,68592
91068,68384
91077,68156
91077,69928
91030,69881
90868,69773
90867,69773
90859,69769
90859,68611
90500,68252
90497,68254
90497,68250
90138,67890
90067,67901
90028,67806
89944,67722
89896,67702
89896,67086
90088,67007
90257,66839
90348,66619
90348,66381
90257,66161
90089,65992
89869,65901
89631,65901
89411,65992
89242,66160
89151,66380
89151,66570
89133,66598
89103,66750
89103,66750
89103,67702
89098,67704
89098,61381
89007,61161
88839,60992
88619,60901
88381,60901
88161,60992
88050,61103
87824,61103
87824,58178
87824,58001
87824,57998
87824,57821
87779,57601
87711,57500
87779,57398
87824,57178
87824,57001
87824,56998
87824,56821
87779,56601
87711,56500
87779,56398
87824,56178
87824,56001
87824,55998
87824,55821
87779,55601
87654,55415
87468,55291
87341,55256
87251,55323
87251,55998
87824,55998
87824,56001
87251,56001
87251,56323
87251,56676
87251,56998
87824,56998
87824,57001
87251,57001
87251,57323
87251,57676
87251,57998
87824,57998
87824,58001
87251,58001
87251,58676
87341,58743
87468,58708
87654,58584
87779,58398
87824,58178
87824,61103
87248,61103
87248,58676
87248,58001
87240,58001
87240,57998
87248,57998
87248,57676
87248,57323
87248,57001
87240,57001
87240,56998
87248,56998
87248,56676
87248,56323
87248,56001
87240,56001
87240,55998
87248,55998
87248,55323
87158,55256
87031,55291
86845,55415
86720,55601
86716,55620
86545,55506
86340,55465
86159,55465
85954,55506
85781,55621
85767,55642
85509,55642
85359,55542
85170,55504
84829,55504
84640,55542
84479,55649
84372,55810
84334,56000
84372,56189
84479,56350
84640,56457
84829,56495
85170,56495
85359,56457
85509,56357
85767,56357
85781,56378
85954,56493
85985,56500
85954,56506
85781,56621
85767,56642
85509,56642
85359,56542
85170,56504
84829,56504
84640,56542
84479,56649
84372,56810
84334,57000
84372,57189
84479,57350
84640,57457
84829,57495
85170,57495
85359,57457
85509,57357
85767,57357
85781,57378
85954,57493
85985,57500
85954,57506
85781,57621
85767,57642
85509,57642
85359,57542
85170,57504
84829,57504
84640,57542
84479,57649
84372,57810
84334,58000
84372,58189
84479,58350
84640,58457
84829,58495
85170,58495
85359,58457
85509,58357
85767,58357
85781,58378
85954,58493
86159,58534
86340,58534
86545,58493
86716,58379
86720,58398
86845,58584
87031,58708
87158,58743
87248,58676
87248,61103
86827,61103
86827,59156
86747,58943
86723,58907
86611,58890
86609,58892
86609,58888
86592,58776
86384,58681
86156,58672
85943,58752
85907,58776
85890,58888
86250,59247
86609,58888
86609,58892
86252,59250
86611,59609
86723,59592
86818,59384
86827,59156
86827,61103
86809,61103
86736,60925
86609,60798
86609,59611
86250,59252
86247,59254
86247,59250
85888,58890
85776,58907
85681,59115
85672,59343
85752,59556
85776,59592
85888,59609
86247,59250
86247,59254
85890,59611
85907,59723
86115,59818
86343,59827
86556,59747
86592,59723
86609,59611
86609,60798
86575,60764
86364,60676
86216,60676
86151,60633
86000,60603
85999,60603
85665,60603
85665,60000
85646,59903
85646,59079
85646,58920
85615,58811
85508,58650
85348,58543
85159,58504
85001,58504
85001,58998
85578,58998
85646,58920
85646,59079
85578,59001
85001,59001
85001,59495
85159,59495
85348,59456
85508,59349
85615,59188
85646,59079
85646,59903
85627,59810
85520,59649
85359,59542
85170,59504
84998,59504
84998,59495
84998,59001
84998,58998
84998,58504
84840,58504
84651,58543
84491,58650
84384,58811
84353,58920
84421,58998
84998,58998
84998,59001
84421,59001
84353,59079
84384,59188
84491,59349
84651,59456
84840,59495
84998,59495
84998,59504
84829,59504
84640,59542
84479,59649
84372,59810
84334,60000
84372,60189
84479,60350
84640,60457
84829,60495
85170,60495
85359,60457
85520,60350
85627,60189
85665,60000
85665,60603
85450,60603
85359,60542
85170,60504
84829,60504
84640,60542
84479,60649
84372,60810
84334,61000
84372,61189
84479,61350
84640,61457
84829,61495
85170,61495
85359,61457
85450,61396
85690,61396
85763,61574
85924,61735
86135,61823
86283,61823
86296,61832
86348,61866
86348,61866
86500,61896
88050,61896
88160,62007
88380,62098
88618,62098
88838,62007
89007,61839
89098,61619
89098,61381
89098,67704
89056,67721
88972,67805
88926,67915
88926,68034
88926,68584
88971,68693
89055,68777
89103,68797
89103,68835
88835,69103
88515,69103
88515,67500
88515,64000
88472,63780
88347,63594
88161,63469
87941,63425
87681,63425
86848,62592
86848,62381
86757,62161
86589,61992
86369,61901
86131,61901
85911,61992
85742,62160
85665,62347
85665,62000
85627,61810
85520,61649
85359,61542
85170,61504
84829,61504
84640,61542
84479,61649
84372,61810
84334,62000
84372,62189
84479,62350
84640,62457
84829,62495
85170,62495
85359,62457
85520,62350
85627,62189
85665,62000
85665,62347
85651,62380
85651,62618
85742,62838
85910,63007
86130,63098
86342,63098
87027,63782
86984,64000
87027,64219
87152,64405
87300,64504
87165,64595
87041,64781
87006,64908
87073,64998
87748,64998
87748,64990
87751,64990
87751,64998
88426,64998
88493,64908
88458,64781
88334,64595
88199,64504
88347,64405
88472,64219
88515,64000
88515,67500
88493,67389
88493,65091
88426,65001
87751,65001
87751,65574
87928,65574
88148,65529
88334,65404
88458,65218
88493,65091
88493,67389
88472,67280
88347,67094
88161,66969
87941,66925
87748,66925
87748,65574
87748,65001
87073,65001
87006,65091
87041,65218
87165,65404
87351,65529
87571,65574
87748,65574
87748,66925
87558,66925
87338,66969
87152,67094
87119,67142
86848,67142
86848,66381
86757,66161
86607,66011
86607,65750
86607,65749
86580,65613
86502,65497
86502,65497
85752,64747
85665,64688
85665,64000
85665,63000
85627,62810
85520,62649
85359,62542
85170,62504
84829,62504
84640,62542
84479,62649
84372,62810
84334,63000
84372,63189
84479,63350
84640,63457
84829,63495
85170,63495
85359,63457
85520,63350
85627,63189
85665,63000
85665,64000
85627,63810
85520,63649
85359,63542
85170,63504
84829,63504
84640,63542
84479,63649
84372,63810
84334,64000
84372,64189
84479,64350
84640,64457
84829,64495
85170,64495
85359,64457
85520,64350
85627,64189
85665,64000
85665,64688
85636,64669
85513,64645
85359,64542
85170,64504
84829,64504
84640,64542
84479,64649
84372,64810
84334,65000
84372,65189
84479,65350
84640,65457
84829,65495
85170,65495
85359,65457
85415,65420
85892,65898
85892,66011
85742,66160
85651,66380
85651,66618
85742,66838
85910,67007
86130,67098
86368,67098
86588,67007
86757,66839
86848,66619
86848,66381
86848,67142
85898,67142
85357,66601
85357,66458
85359,66457
85520,66350
85627,66189
85665,66000
85627,65810
85520,65649
85359,65542
85170,65504
84829,65504
84640,65542
84479,65649
84372,65810
84334,66000
84372,66189
84479,66350
84640,66457
84642,66458
84642,66750
84669,66886
84747,67002
85497,67752
85497,67752
85613,67830
85749,67857
85750,67857
87119,67857
87152,67905
87338,68030
87558,68074
87941,68074
88161,68030
88347,67905
88472,67719
88515,67500
88515,69103
88353,69103
88347,69094
88161,68969
87941,68925
87558,68925
87338,68969
87152,69094
87027,69280
86984,69500
87027,69719
87152,69905
87300,70004
87165,70095
87041,70281
87006,70408
87073,70498
87748,70498
87748,70490
87751,70490
87751,70498
88426,70498
88493,70408
88458,70281
88334,70095
88199,70004
88347,69905
88353,69896
88999,69896
89000,69896
89000,69896
89151,69866
89280,69780
89780,69280
89780,69280
89780,69280
89866,69151
89896,69000
89896,68797
89943,68778
90027,68694
90067,68598
90138,68609
90497,68250
90497,68254
90140,68611
90157,68723
90365,68818
90593,68827
90806,68747
90842,68723
90859,68611
90859,69769
90753,69725
90561,69687
90437,69688
90436,69688
90246,69726
90132,69773
90131,69774
89970,69881
89969,69882
89881,69969
89773,70131
89773,70132
89725,70246
89687,70438
89688,70500
89687,70561
89725,70753
89773,70867
89773,70868
89881,71030
89969,71117
89970,71118
90131,71225
90132,71226
90246,71273
90436,71311
90437,71311
90561,71312
90753,71274
90867,71226
90868,71226
91030,71118
91117,71030
91118,71029
91225,70868
91226,70867
91273,70753
91311,70562
91311,70562
91311,70562
91311,70561
91311,71651
88493,71651
88493,70591
88426,70501
87751,70501
87751,71074
87928,71074
88148,71029
88334,70904
88458,70718
88493,70591
88493,71651
87748,71651
87748,71074
87748,70501
87073,70501
87006,70591
87041,70718
87165,70904
87351,71029
87571,71074
87748,71074
87748,71651
86053,71651
86053,70121
85943,69823
85909,69772
85773,69728
85771,69730
85771,69726
85727,69590
85438,69458
85121,69446
84823,69556
84772,69590
84728,69726
85250,70247
85771,69726
85771,69730
85252,70250
85773,70771
85909,70727
86041,70438
86053,70121
86053,71651
85771,71651
85771,70773
85250,70252
85247,70254
85247,70250
84726,69728
84590,69772
84458,70061
84446,70378
84556,70676
84590,70727
84726,70771
85247,70250
85247,70254
84728,70773
84772,70909
85061,71041
85378,71053
85676,70943
85727,70909
85771,70773
85771,71651
84048,71651
84048,70091
83927,69798
83702,69573
83607,69533
83607,64500
83580,64363
83502,64247
83002,63747
82886,63669
82750,63642
82665,63642
82665,63000
82665,62000
82665,61000
82665,59000
82665,58000
82665,57000
82665,56000
82665,55000
82627,54810
82520,54649
82359,54542
82170,54504
81829,54504
81640,54542
81490,54642
79880,54642
79847,54594
79706,54500
79847,54405
79880,54357
81490,54357
81640,54457
81829,54495
82170,54495
82359,54457
82520,54350
82627,54189
82665,54000
82627,53810
82520,53649
82359,53542
82170,53504
81829,53504
81640,53542
81490,53642
79880,53642
79847,53594
79699,53495
79834,53404
79958,53218
79993,53091
79993,52908
79958,52781
79834,52595
79811,52580
79811,44061
79811,44000
79811,43938
79811,43937
79811,43937
79811,43937
79773,43746
79726,43632
79725,43631
79618,43470
79617,43469
79530,43381
79368,43273
79367,43273
79253,43225
79061,43187
78937,43188
78936,43188
78746,43226
78632,43273
78631,43274
78470,43381
78469,43382
78381,43469
78273,43631
78273,43632
78225,43746
78187,43938
78188,44000
78187,44061
78225,44253
78273,44367
78273,44368
78381,44530
78469,44617
78470,44618
78631,44725
78632,44726
78746,44773
78936,44811
78937,44811
79061,44812
79253,44774
79367,44726
79368,44726
79530,44618
79617,44530
79618,44529
79725,44368
79726,44367
79773,44253
79811,44062
79811,44062
79811,44062
79811,44061
79811,52580
79648,52470
79428,52425
79251,52425
79251,52998
79926,52998
79993,52908
79993,53091
79926,53001
79251,53001
79251,53009
79248,53009
79248,53001
79248,52998
79248,52425
79071,52425
78851,52470
78665,52595
78541,52781
78506,52908
78573,52998
79248,52998
79248,53001
78573,53001
78506,53091
78541,53218
78665,53404
78800,53495
78652,53594
78527,53780
78484,54000
78527,54219
78652,54405
78793,54500
78652,54594
78527,54780
78484,55000
78527,55219
78652,55405
78800,55504
78665,55595
78541,55781
78506,55908
78573,55998
79248,55998
79248,55990
79251,55990
79251,55998
79926,55998
79993,55908
79958,55781
79834,55595
79699,55504
79847,55405
79880,55357
81490,55357
81640,55457
81829,55495
82170,55495
82359,55457
82520,55350
82627,55189
82665,55000
82665,56000
82627,55810
82520,55649
82359,55542
82170,55504
81829,55504
81640,55542
81479,55649
81372,55810
81334,56000
81372,56189
81479,56350
81640,56457
81829,56495
82170,56495
82359,56457
82520,56350
82627,56189
82665,56000
82665,57000
82627,56810
82520,56649
82359,56542
82170,56504
81829,56504
81640,56542
81479,56649
81372,56810
81334,57000
81372,57189
81479,57350
81640,57457
81829,57495
82170,57495
82359,57457
82520,57350
82627,57189
82665,57000
82665,58000
82627,57810
82520,57649
82359,57542
82170,57504
81829,57504
81640,57542
81479,57649
81372,57810
81334,58000
81372,58189
81479,58350
81640,58457
81829,58495
82170,58495
82359,58457
82520,58350
82627,58189
82665,58000
82665,59000
82627,58810
82520,58649
82359,58542
82170,58504
81829,58504
81640,58542
81618,58557
81323,58262
81323,58136
81236,57925
81146,57835
81146,56949
81257,56839
81348,56619
81348,56381
81257,56161
81089,55992
80869,55901
80631,55901
80411,55992
80242,56160
80151,56380
80151,56618
80242,56838
80353,56949
80353,57835
80264,57924
80176,58135
80176,58363
80263,58574
80424,58735
80635,58823
80762,58823
81219,59280
81219,59280
81348,59366
81348,59366
81469,59390
81499,59396
81499,59396
81500,59396
81549,59396
81640,59457
81829,59495
82170,59495
82359,59457
82520,59350
82627,59189
82665,59000
82665,61000
82646,60903
82646,60079
82646,59920
82615,59811
82508,59650
82348,59543
82159,59504
82001,59504
82001,59998
82578,59998
82646,59920
82646,60079
82578,60001
82001,60001
82001,60495
82159,60495
82348,60456
82508,60349
82615,60188
82646,60079
82646,60903
82627,60810
82520,60649
82359,60542
82170,60504
81998,60504
81998,60495
81998,60001
81998,59998
81998,59504
81840,59504
81651,59543
81491,59650
81384,59811
81353,59920
81421,59998
81998,59998
81998,60001
81421,60001
81353,60079
81384,60188
81491,60349
81651,60456
81840,60495
81998,60495
81998,60504
81829,60504
81640,60542
81479,60649
81372,60810
81334,61000
81372,61189
81479,61350
81640,61457
81829,61495
82170,61495
82359,61457
82520,61350
82627,61189
82665,61000
82665,62000
82627,61810
82520,61649
82359,61542
82170,61504
81829,61504
81640,61542
81479,61649
81372,61810
81334,62000
81372,62189
81479,62350
81640,62457
81829,62495
82170,62495
82359,62457
82520,62350
82627,62189
82665,62000
82665,63000
82627,62810
82520,62649
82359,62542
82170,62504
81829,62504
81640,62542
81479,62649
81372,62810
81334,63000
81372,63189
81479,63350
81640,63457
81829,63495
82170,63495
82359,63457
82520,63350
82627,63189
82665,63000
82665,63642
82509,63642
82359,63542
82170,63504
81829,63504
81640,63542
81479,63649
81372,63810
81334,64000
81372,64189
81479,64350
81640,64457
81829,64495
82170,64495
82359,64457
82509,64357
82601,64357
82892,64648
82892,69533
82798,69572
82665,69705
82665,66000
82627,65810
82520,65649
82359,65542
82170,65504
81829,65504
81640,65542
81490,65642
81130,65642
81097,65594
80956,65500
81097,65405
81130,65357
81490,65357
81640,65457
81829,65495
82170,65495
82359,65457
82520,65350
82627,65189
82665,65000
82627,64810
82520,64649
82359,64542
82170,64504
81829,64504
81640,64542
81490,64642
81327,64642
81327,60156
81247,59943
81223,59907
81111,59890
81109,59892
81109,59888
81092,59776
80884,59681
80656,59672
80443,59752
80407,59776
80390,59888
80750,60247
81109,59888
81109,59892
80752,60250
81111,60609
81223,60592
81318,60384
81327,60156
81327,64642
81130,64642
81097,64594
80949,64495
81084,64404
81208,64218
81243,64091
81243,63908
81208,63781
81109,63633
81109,60611
80750,60252
80747,60254
80747,60250
80388,59890
80276,59907
80181,60115
80172,60343
80252,60556
80276,60592
80388,60609
80747,60250
80747,60254
80390,60611
80407,60723
80615,60818
80843,60827
81056,60747
81092,60723
81109,60611
81109,63633
81084,63595
80898,63470
80678,63425
80501,63425
80501,63998
81176,63998
81243,63908
81243,64091
81176,64001
80501,64001
80501,64009
80498,64009
80498,64001
80498,63998
80498,63425
80321,63425
80101,63470
79993,63542
79993,56091
79926,56001
79251,56001
79251,56574
79428,56574
79648,56529
79834,56404
79958,56218
79993,56091
79993,63542
79915,63595
79791,63781
79756,63908
79823,63998
80498,63998
80498,64001
79823,64001
79756,64091
79791,64218
79915,64404
80050,64495
79902,64594
79777,64780
79734,65000
79777,65219
79902,65405
80043,65500
79902,65594
79777,65780
79734,66000
79777,66219
79902,66405
80050,66504
79915,66595
79791,66781
79756,66908
79823,66998
80498,66998
80498,66990
80501,66990
80501,66998
81176,66998
81243,66908
81208,66781
81084,66595
80949,66504
81097,66405
81130,66357
81490,66357
81640,66457
81829,66495
82170,66495
82359,66457
82520,66350
82627,66189
82665,66000
82665,69705
82573,69797
82451,70090
82451,70408
82572,70701
82797,70926
83090,71048
83408,71048
83701,70927
83926,70702
84048,70409
84048,70091
84048,71651
81243,71651
81243,67091
81176,67001
80501,67001
80501,67574
80678,67574
80898,67529
81084,67404
81208,67218
81243,67091
81243,71651
80498,71651
80498,67574
80498,67001
79823,67001
79756,67091
79791,67218
79915,67404
80101,67529
80321,67574
80498,67574
80498,71651
79811,71651
79811,70561
79811,70500
79811,70438
79811,70437
79811,70437
79811,70437
79773,70246
79726,70132
79725,70131
79618,69970
79617,69969
79530,69881
79368,69773
79367,69773
79253,69725
79248,69724
79248,56574
79248,56001
78573,56001
78506,56091
78541,56218
78665,56404
78851,56529
79071,56574
79248,56574
79248,69724
79061,69687
78937,69688
78936,69688
78746,69726
78632,69773
78631,69774
78470,69881
78469,69882
78381,69969
78273,70131
78273,70132
78225,70246
78187,70438
78188,70500
78187,70561
78225,70753
78273,70867
78273,70868
78381,71030
78469,71117
78470,71118
78631,71225
78632,71226
78746,71273
78936,71311
78937,71311
79061,71312
79253,71274
79367,71226
79368,71226
79530,71118
79617,71030
79618,71029
79725,70868
79726,70867
79773,70753
79811,70562
79811,70562
79811,70562
79811,70561
79811,71651
77848,71651
77848,42848
91651,42848
91651,71651
" /> 
</g>
<g style="fill:#000000; fill-opacity:0.0; 
stroke:#000000; stroke-width:196.85; stroke-opacity:1; 
stroke-linecap:round; stroke-linejoin:round;">
<polyline fill="none;"
points="91651,71651
91327,71651
91327,58906
91311,58865
91311,44061
91311,44000
91311,43938
91311,43937
91311,43937
91311,43937
91273,43746
91226,43632
91225,43631
91118,43470
91117,43469
91030,43381
90868,43273
90867,43273
90753,43225
90561,43187
90437,43188
90436,43188
90246,43226
90132,43273
90131,43274
89970,43381
89969,43382
89881,43469
89773,43631
89773,43632
89725,43746
89687,43938
89688,44000
89687,44061
89725,44253
89773,44367
89773,44368
89881,44530
89969,44617
89970,44618
90131,44725
90132,44726
90246,44773
90436,44811
90437,44811
90561,44812
90753,44774
90867,44726
90868,44726
91030,44618
91117,44530
91118,44529
91225,44368
91226,44367
91273,44253
91311,44062
91311,44062
91311,44062
91311,44061
91311,58865
91247,58693
91223,58657
91111,58640
91109,58642
91109,58638
91092,58526
91015,58491
91015,48250
90972,48030
90847,47844
90706,47750
90847,47655
90972,47469
91015,47250
90972,47030
90847,46844
90699,46745
90834,46654
90958,46468
90993,46341
90993,46158
90958,46031
90834,45845
90648,45720
90428,45675
90251,45675
90251,46248
90926,46248
90993,46158
90993,46341
90926,46251
90251,46251
90251,46259
90248,46259
90248,46251
90248,46248
90248,45675
90071,45675
89851,45720
89665,45845
89541,46031
89506,46158
89573,46248
90248,46248
90248,46251
89573,46251
89506,46341
89541,46468
89665,46654
89800,46745
89652,46844
89619,46892
89238,46892
89089,46742
88869,46651
88652,46651
88652,44145
88562,43903
88535,43862
88415,43836
88413,43838
88413,43834
88387,43714
88152,43606
87895,43597
87653,43687
87612,43714
87586,43834
88000,44247
88413,43834
88413,43838
88002,44250
88415,44663
88535,44637
88643,44402
88652,44145
88652,46651
88631,46651
88413,46741
88413,44665
88000,44252
87997,44254
87997,44250
87584,43836
87464,43862
87356,44097
87347,44354
87437,44596
87464,44637
87584,44663
87997,44250
87997,44254
87586,44665
87612,44785
87847,44893
88104,44902
88346,44812
88387,44785
88413,44665
88413,46741
88411,46742
88261,46892
88000,46892
87863,46919
87747,46997
87247,47497
87169,47613
87142,47750
87142,51000
87163,51103
87151,51130
87151,51368
87242,51588
87410,51757
87630,51848
87868,51848
88088,51757
88257,51589
88348,51369
88348,51131
88257,50911
88089,50742
87869,50651
87857,50651
87857,47898
88148,47607
88261,47607
88410,47757
88630,47848
88868,47848
89088,47757
89238,47607
89619,47607
89652,47655
89793,47750
89652,47844
89619,47892
89000,47892
88896,47913
88869,47901
88631,47901
88411,47992
88242,48160
88151,48380
88151,48618
88242,48838
88392,48988
88392,49511
88242,49660
88151,49880
88151,50118
88242,50338
88410,50507
88630,50598
88868,50598
89088,50507
89257,50339
89348,50119
89348,49881
89257,49661
89107,49511
89107,48988
89257,48839
89348,48619
89348,48607
89619,48607
89652,48655
89800,48754
89665,48845
89541,49031
89506,49158
89573,49248
90248,49248
90248,49240
90251,49240
90251,49248
90926,49248
90993,49158
90958,49031
90834,48845
90699,48754
90847,48655
90972,48469
91015,48250
91015,58491
90993,58480
90993,49341
90926,49251
90251,49251
90251,49824
90428,49824
90648,49779
90834,49654
90958,49468
90993,49341
90993,58480
90884,58431
90656,58422
90443,58502
90407,58526
90390,58638
90750,58997
91109,58638
91109,58642
90752,59000
91111,59359
91223,59342
91318,59134
91327,58906
91327,71651
91324,71651
91324,61178
91324,61001
91324,60998
91324,60821
91279,60601
91154,60415
91109,60385
91109,59361
90750,59002
90390,59361
90407,59473
90615,59568
90843,59577
91056,59497
91092,59473
91109,59361
91109,60385
90968,60291
90841,60256
90751,60323
90751,60998
91324,60998
91324,61001
90751,61001
90751,61676
90841,61743
90968,61708
91154,61584
91279,61398
91324,61178
91324,71651
91311,71651
91311,70561
91311,70500
91311,70438
91311,70437
91311,70437
91311,70437
91273,70246
91226,70132
91225,70131
91118,69970
91117,69969
91077,69928
91077,68156
90997,67943
90973,67907
90861,67890
90859,67892
90859,67888
90842,67776
90748,67733
90748,61676
90748,61001
90740,61001
90740,60998
90748,60998
90748,60323
90658,60256
90531,60291
90345,60415
90254,60550
90155,60402
90146,60396
90146,59547
90193,59528
90277,59444
90317,59348
90388,59359
90747,59000
90388,58640
90317,58651
90278,58556
90248,58526
90248,49824
90248,49251
89573,49251
89506,49341
89541,49468
89665,49654
89851,49779
90071,49824
90248,49824
90248,58526
90194,58472
90084,58426
90077,58426
90077,52656
89997,52443
89973,52407
89861,52390
89859,52392
89859,52388
89842,52276
89634,52181
89406,52172
89193,52252
89157,52276
89140,52388
89500,52747
89859,52388
89859,52392
89502,52750
89861,53109
89973,53092
90068,52884
90077,52656
90077,58426
90074,58426
90074,54428
90074,54251
90074,54248
90074,54071
90029,53851
89904,53665
89859,53635
89859,53111
89500,52752
89497,52754
89497,52750
89138,52390
89026,52407
88931,52615
88922,52843
89002,53056
89026,53092
89138,53109
89497,52750
89497,52754
89140,53111
89157,53223
89365,53318
89593,53327
89806,53247
89842,53223
89859,53111
89859,53635
89718,53541
89591,53506
89501,53573
89501,54248
90074,54248
90074,54251
89501,54251
89501,54926
89591,54993
89718,54958
89904,54834
90029,54648
90074,54428
90074,58426
89987,58426
89098,57537
89098,57381
89007,57161
88896,57050
88896,54853
88905,54847
89004,54699
89095,54834
89281,54958
89408,54993
89498,54926
89498,54251
89490,54251
89490,54248
89498,54248
89498,53573
89408,53506
89281,53541
89095,53665
89004,53800
88905,53652
88873,53630
88866,53598
88780,53469
88780,53469
88073,52762
88073,52636
87986,52425
87825,52264
87614,52176
87487,52176
86646,51335
86646,50000
86616,49848
86616,49848
86530,49719
86530,49719
85348,48537
85348,48381
85257,48161
85146,48050
85146,47699
85257,47589
85348,47369
85348,47131
85257,46911
85146,46800
85146,45664
85912,44898
86128,44898
86366,44800
86549,44617
86648,44379
86648,44121
86550,43883
86367,43700
86129,43601
85871,43601
85633,43699
85479,43853
83949,43853
83927,43798
83702,43573
83409,43451
83091,43451
82798,43572
82573,43797
82451,44090
82451,44408
82572,44701
82797,44926
83090,45048
83408,45048
83701,44927
83926,44702
83949,44646
85041,44646
84469,45219
84383,45348
84353,45500
84353,45500
84353,46800
84242,46910
84151,47130
84151,47287
82053,49384
82053,44121
81943,43823
81909,43772
81773,43728
81771,43730
81771,43726
81727,43590
81438,43458
81121,43446
80823,43556
80772,43590
80728,43726
81250,44247
81771,43726
81771,43730
81252,44250
81773,44771
81909,44727
82041,44438
82053,44121
82053,49384
81771,49667
81771,44773
81250,44252
81247,44254
81247,44250
80726,43728
80590,43772
80458,44061
80446,44378
80556,44676
80590,44727
80726,44771
81247,44250
81247,44254
80728,44773
80772,44909
81061,45041
81378,45053
81676,44943
81727,44909
81771,44773
81771,49667
81719,49719
81633,49848
81603,50000
81603,50000
81603,51085
80787,51901
80631,51901
80411,51992
80242,52160
80151,52380
80151,52618
80242,52838
80410,53007
80630,53098
80868,53098
81088,53007
81257,52839
81348,52619
81348,52462
81603,52208
81603,52567
81479,52649
81372,52810
81334,53000
81372,53189
81479,53350
81640,53457
81829,53495
82170,53495
82359,53457
82520,53350
82627,53189
82665,53000
82627,52810
82520,52649
82396,52567
82396,51250
82396,50164
84151,48409
84151,48618
84242,48838
84410,49007
84630,49098
84787,49098
85853,50164
85853,51499
85853,51500
85883,51651
85969,51780
86926,52737
86926,52863
87013,53074
87174,53235
87385,53323
87512,53323
87715,53527
87500,53484
87280,53527
87094,53652
86969,53838
86925,54058
86925,54318
86601,54642
85665,54642
85665,54000
85665,53000
85627,52810
85520,52649
85359,52542
85357,52541
85357,50250
85336,50146
85348,50119
85348,49881
85257,49661
85089,49492
84869,49401
84631,49401
84411,49492
84242,49660
84151,49880
84151,50118
84242,50338
84410,50507
84630,50598
84642,50598
84642,52541
84640,52542
84479,52649
84372,52810
84334,53000
84372,53189
84479,53350
84640,53457
84829,53495
85170,53495
85359,53457
85520,53350
85627,53189
85665,53000
85665,54000
85627,53810
85520,53649
85359,53542
85170,53504
84829,53504
84640,53542
84490,53642
84398,53642
84107,53351
84107,51738
84257,51589
84348,51369
84348,51131
84257,50911
84089,50742
83869,50651
83631,50651
83411,50742
83242,50910
83151,51130
83151,51368
83242,51588
83392,51738
83392,53500
83419,53636
83497,53752
83997,54252
84113,54330
84250,54357
84490,54357
84640,54457
84829,54495
85170,54495
85359,54457
85520,54350
85627,54189
85665,54000
85665,54642
85509,54642
85359,54542
85170,54504
84829,54504
84640,54542
84479,54649
84372,54810
84334,55000
84372,55189
84479,55350
84640,55457
84829,55495
85170,55495
85359,55457
85509,55357
86750,55357
86886,55330
87002,55252
87282,54972
87500,55015
87719,54972
87905,54847
88000,54706
88094,54847
88103,54853
88103,57050
87992,57160
87901,57380
87901,57618
87992,57838
88160,58007
88380,58098
88537,58098
89176,58737
89176,58784
89176,59334
89221,59443
89305,59527
89353,59547
89353,60396
89344,60402
89219,60588
89175,60808
89175,61191
89219,61411
89344,61597
89353,61603
89353,62050
89242,62160
89151,62380
89151,62618
89242,62838
89410,63007
89630,63098
89868,63098
90088,63007
90257,62839
90348,62619
90348,62381
90257,62161
90146,62050
90146,61603
90155,61597
90254,61449
90345,61584
90531,61708
90658,61743
90748,61676
90748,67733
90634,67681
90406,67672
90193,67752
90157,67776
90140,67888
90500,68247
90859,67888
90859,67892
90502,68250
90861,68609
90973,68592
91068,68384
91077,68156
91077,69928
91030,69881
90868,69773
90867,69773
90859,69769
90859,68611
90500,68252
90497,68254
90497,68250
90138,67890
90067,67901
90028,67806
89944,67722
89896,67702
89896,67086
90088,67007
90257,66839
90348,66619
90348,66381
90257,66161
90089,65992
89869,65901
89631,65901
89411,65992
89242,66160
89151,66380
89151,66570
89133,66598
89103,66750
89103,66750
89103,67702
89098,67704
89098,61381
89007,61161
88839,60992
88619,60901
88381,60901
88161,60992
88050,61103
87824,61103
87824,58178
87824,58001
87824,57998
87824,57821
87779,57601
87711,57500
87779,57398
87824,57178
87824,57001
87824,56998
87824,56821
87779,56601
87711,56500
87779,56398
87824,56178
87824,56001
87824,55998
87824,55821
87779,55601
87654,55415
87468,55291
87341,55256
87251,55323
87251,55998
87824,55998
87824,56001
87251,56001
87251,56323
87251,56676
87251,56998
87824,56998
87824,57001
87251,57001
87251,57323
87251,57676
87251,57998
87824,57998
87824,58001
87251,58001
87251,58676
87341,58743
87468,58708
87654,58584
87779,58398
87824,58178
87824,61103
87248,61103
87248,58676
87248,58001
87240,58001
87240,57998
87248,57998
87248,57676
87248,57323
87248,57001
87240,57001
87240,56998
87248,56998
87248,56676
87248,56323
87248,56001
87240,56001
87240,55998
87248,55998
87248,55323
87158,55256
87031,55291
86845,55415
86720,55601
86716,55620
86545,55506
86340,55465
86159,55465
85954,55506
85781,55621
85767,55642
85509,55642
85359,55542
85170,55504
84829,55504
84640,55542
84479,55649
84372,55810
84334,56000
84372,56189
84479,56350
84640,56457
84829,56495
85170,56495
85359,56457
85509,56357
85767,56357
85781,56378
85954,56493
85985,56500
85954,56506
85781,56621
85767,56642
85509,56642
85359,56542
85170,56504
84829,56504
84640,56542
84479,56649
84372,56810
84334,57000
84372,57189
84479,57350
84640,57457
84829,57495
85170,57495
85359,57457
85509,57357
85767,57357
85781,57378
85954,57493
85985,57500
85954,57506
85781,57621
85767,57642
85509,57642
85359,57542
85170,57504
84829,57504
84640,57542
84479,57649
84372,57810
84334,58000
84372,58189
84479,58350
84640,58457
84829,58495
85170,58495
85359,58457
85509,58357
85767,58357
85781,58378
85954,58493
86159,58534
86340,58534
86545,58493
86716,58379
86720,58398
86845,58584
87031,58708
87158,58743
87248,58676
87248,61103
86827,61103
86827,59156
86747,58943
86723,58907
86611,58890
86609,58892
86609,58888
86592,58776
86384,58681
86156,58672
85943,58752
85907,58776
85890,58888
86250,59247
86609,58888
86609,58892
86252,59250
86611,59609
86723,59592
86818,59384
86827,59156
86827,61103
86809,61103
86736,60925
86609,60798
86609,59611
86250,59252
86247,59254
86247,59250
85888,58890
85776,58907
85681,59115
85672,59343
85752,59556
85776,59592
85888,59609
86247,59250
86247,59254
85890,59611
85907,59723
86115,59818
86343,59827
86556,59747
86592,59723
86609,59611
86609,60798
86575,60764
86364,60676
86216,60676
86151,60633
86000,60603
85999,60603
85665,60603
85665,60000
85646,59903
85646,59079
85646,58920
85615,58811
85508,58650
85348,58543
85159,58504
85001,58504
85001,58998
85578,58998
85646,58920
85646,59079
85578,59001
85001,59001
85001,59495
85159,59495
85348,59456
85508,59349
85615,59188
85646,59079
85646,59903
85627,59810
85520,59649
85359,59542
85170,59504
84998,59504
84998,59495
84998,59001
84998,58998
84998,58504
84840,58504
84651,58543
84491,58650
84384,58811
84353,58920
84421,58998
84998,58998
84998,59001
84421,59001
84353,59079
84384,59188
84491,59349
84651,59456
84840,59495
84998,59495
84998,59504
84829,59504
84640,59542
84479,59649
84372,59810
84334,60000
84372,60189
84479,60350
84640,60457
84829,60495
85170,60495
85359,60457
85520,60350
85627,60189
85665,60000
85665,60603
85450,60603
85359,60542
85170,60504
84829,60504
84640,60542
84479,60649
84372,60810
84334,61000
84372,61189
84479,61350
84640,61457
84829,61495
85170,61495
85359,61457
85450,61396
85690,61396
85763,61574
85924,61735
86135,61823
86283,61823
86296,61832
86348,61866
86348,61866
86500,61896
88050,61896
88160,62007
88380,62098
88618,62098
88838,62007
89007,61839
89098,61619
89098,61381
89098,67704
89056,67721
88972,67805
88926,67915
88926,68034
88926,68584
88971,68693
89055,68777
89103,68797
89103,68835
88835,69103
88515,69103
88515,67500
88515,64000
88472,63780
88347,63594
88161,63469
87941,63425
87681,63425
86848,62592
86848,62381
86757,62161
86589,61992
86369,61901
86131,61901
85911,61992
85742,62160
85665,62347
85665,62000
85627,61810
85520,61649
85359,61542
85170,61504
84829,61504
84640,61542
84479,61649
84372,61810
84334,62000
84372,62189
84479,62350
84640,62457
84829,62495
85170,62495
85359,62457
85520,62350
85627,62189
85665,62000
85665,62347
85651,62380
85651,62618
85742,62838
85910,63007
86130,63098
86342,63098
87027,63782
86984,64000
87027,64219
87152,64405
87300,64504
87165,64595
87041,64781
87006,64908
87073,64998
87748,64998
87748,64990
87751,64990
87751,64998
88426,64998
88493,64908
88458,64781
88334,64595
88199,64504
88347,64405
88472,64219
88515,64000
88515,67500
88493,67389
88493,65091
88426,65001
87751,65001
87751,65574
87928,65574
88148,65529
88334,65404
88458,65218
88493,65091
88493,67389
88472,67280
88347,67094
88161,66969
87941,66925
87748,66925
87748,65574
87748,65001
87073,65001
87006,65091
87041,65218
87165,65404
87351,65529
87571,65574
87748,65574
87748,66925
87558,66925
87338,66969
87152,67094
87119,67142
86848,67142
86848,66381
86757,66161
86607,66011
86607,65750
86607,65749
86580,65613
86502,65497
86502,65497
85752,64747
85665,64688
85665,64000
85665,63000
85627,62810
85520,62649
85359,62542
85170,62504
84829,62504
84640,62542
84479,62649
84372,62810
84334,63000
84372,63189
84479,63350
84640,63457
84829,63495
85170,63495
85359,63457
85520,63350
85627,63189
85665,63000
85665,64000
85627,63810
85520,63649
85359,63542
85170,63504
84829,63504
84640,63542
84479,63649
84372,63810
84334,64000
84372,64189
84479,64350
84640,64457
84829,64495
85170,64495
85359,64457
85520,64350
85627,64189
85665,64000
85665,64688
85636,64669
85513,64645
85359,64542
85170,64504
84829,64504
84640,64542
84479,64649
84372,64810
84334,65000
84372,65189
84479,65350
84640,65457
84829,65495
85170,65495
85359,65457
85415,65420
85892,65898
85892,66011
85742,66160
85651,66380
85651,66618
85742,66838
85910,67007
86130,67098
86368,67098
86588,67007
86757,66839
86848,66619
86848,66381
86848,67142
85898,67142
85357,66601
85357,66458
85359,66457
85520,66350
85627,66189
85665,66000
85627,65810
85520,65649
85359,65542
85170,65504
84829,65504
84640,65542
84479,65649
84372,65810
84334,66000
84372,66189
84479,66350
84640,66457
84642,66458
84642,66750
84669,66886
84747,67002
85497,67752
85497,67752
85613,67830
85749,67857
85750,67857
87119,67857
87152,67905
87338,68030
87558,68074
87941,68074
88161,68030
88347,67905
88472,67719
88515,67500
88515,69103
88353,69103
88347,69094
88161,68969
87941,68925
87558,68925
87338,68969
87152,69094
87027,69280
86984,69500
87027,69719
87152,69905
87300,70004
87165,70095
87041,70281
87006,70408
87073,70498
87748,70498
87748,70490
87751,70490
87751,70498
88426,70498
88493,70408
88458,70281
88334,70095
88199,70004
88347,69905
88353,69896
88999,69896
89000,69896
89000,69896
89151,69866
89280,69780
89780,69280
89780,69280
89780,69280
89866,69151
89896,69000
89896,68797
89943,68778
90027,68694
90067,68598
90138,68609
90497,68250
90497,68254
90140,68611
90157,68723
90365,68818
90593,68827
90806,68747
90842,68723
90859,68611
90859,69769
90753,69725
90561,69687
90437,69688
90436,69688
90246,69726
90132,69773
90131,69774
89970,69881
89969,69882
89881,69969
89773,70131
89773,70132
89725,70246
89687,70438
89688,70500
89687,70561
89725,70753
89773,70867
89773,70868
89881,71030
89969,71117
89970,71118
90131,71225
90132,71226
90246,71273
90436,71311
90437,71311
90561,71312
90753,71274
90867,71226
90868,71226
91030,71118
91117,71030
91118,71029
91225,70868
91226,70867
91273,70753
91311,70562
91311,70562
91311,70562
91311,70561
91311,71651
88493,71651
88493,70591
88426,70501
87751,70501
87751,71074
87928,71074
88148,71029
88334,70904
88458,70718
88493,70591
88493,71651
87748,71651
87748,71074
87748,70501
87073,70501
87006,70591
87041,70718
87165,70904
87351,71029
87571,71074
87748,71074
87748,71651
86053,71651
86053,70121
85943,69823
85909,69772
85773,69728
85771,69730
85771,69726
85727,69590
85438,69458
85121,69446
84823,69556
84772,69590
84728,69726
85250,70247
85771,69726
85771,69730
85252,70250
85773,70771
85909,70727
86041,70438
86053,70121
86053,71651
85771,71651
85771,70773
85250,70252
85247,70254
85247,70250
84726,69728
84590,69772
84458,70061
84446,70378
84556,70676
84590,70727
84726,70771
85247,70250
85247,70254
84728,70773
84772,70909
85061,71041
85378,71053
85676,70943
85727,70909
85771,70773
85771,71651
84048,71651
84048,70091
83927,69798
83702,69573
83607,69533
83607,64500
83580,64363
83502,64247
83002,63747
82886,63669
82750,63642
82665,63642
82665,63000
82665,62000
82665,61000
82665,59000
82665,58000
82665,57000
82665,56000
82665,55000
82627,54810
82520,54649
82359,54542
82170,54504
81829,54504
81640,54542
81490,54642
79880,54642
79847,54594
79706,54500
79847,54405
79880,54357
81490,54357
81640,54457
81829,54495
82170,54495
82359,54457
82520,54350
82627,54189
82665,54000
82627,53810
82520,53649
82359,53542
82170,53504
81829,53504
81640,53542
81490,53642
79880,53642
79847,53594
79699,53495
79834,53404
79958,53218
79993,53091
79993,52908
79958,52781
79834,52595
79811,52580
79811,44061
79811,44000
79811,43938
79811,43937
79811,43937
79811,43937
79773,43746
79726,43632
79725,43631
79618,43470
79617,43469
79530,43381
79368,43273
79367,43273
79253,43225
79061,43187
78937,43188
78936,43188
78746,43226
78632,43273
78631,43274
78470,43381
78469,43382
78381,43469
78273,43631
78273,43632
78225,43746
78187,43938
78188,44000
78187,44061
78225,44253
78273,44367
78273,44368
78381,44530
78469,44617
78470,44618
78631,44725
78632,44726
78746,44773
78936,44811
78937,44811
79061,44812
79253,44774
79367,44726
79368,44726
79530,44618
79617,44530
79618,44529
79725,44368
79726,44367
79773,44253
79811,44062
79811,44062
79811,44062
79811,44061
79811,52580
79648,52470
79428,52425
79251,52425
79251,52998
79926,52998
79993,52908
79993,53091
79926,53001
79251,53001
79251,53009
79248,53009
79248,53001
79248,52998
79248,52425
79071,52425
78851,52470
78665,52595
78541,52781
78506,52908
78573,52998
79248,52998
79248,53001
78573,53001
78506,53091
78541,53218
78665,53404
78800,53495
78652,53594
78527,53780
78484,54000
78527,54219
78652,54405
78793,54500
78652,54594
78527,54780
78484,55000
78527,55219
78652,55405
78800,55504
78665,55595
78541,55781
78506,55908
78573,55998
79248,55998
79248,55990
79251,55990
79251,55998
79926,55998
79993,55908
79958,55781
79834,55595
79699,55504
79847,55405
79880,55357
81490,55357
81640,55457
81829,55495
82170,55495
82359,55457
82520,55350
82627,55189
82665,55000
82665,56000
82627,55810
82520,55649
82359,55542
82170,55504
81829,55504
81640,55542
81479,55649
81372,55810
81334,56000
81372,56189
81479,56350
81640,56457
81829,56495
82170,56495
82359,56457
82520,56350
82627,56189
82665,56000
82665,57000
82627,56810
82520,56649
82359,56542
82170,56504
81829,56504
81640,56542
81479,56649
81372,56810
81334,57000
81372,57189
81479,57350
81640,57457
81829,57495
82170,57495
82359,57457
82520,57350
82627,57189
82665,57000
82665,58000
82627,57810
82520,57649
82359,57542
82170,57504
81829,57504
81640,57542
81479,57649
81372,57810
81334,58000
81372,58189
81479,58350
81640,58457
81829,58495
82170,58495
82359,58457
82520,58350
82627,58189
82665,58000
82665,59000
82627,58810
82520,58649
82359,58542
82170,58504
81829,58504
81640,58542
81618,58557
81323,58262
81323,58136
81236,57925
81146,57835
81146,56949
81257,56839
81348,56619
81348,56381
81257,56161
81089,55992
80869,55901
80631,55901
80411,55992
80242,56160
80151,56380
80151,56618
80242,56838
80353,56949
80353,57835
80264,57924
80176,58135
80176,58363
80263,58574
80424,58735
80635,58823
80762,58823
81219,59280
81219,59280
81348,59366
81348,59366
81469,59390
81499,59396
81499,59396
81500,59396
81549,59396
81640,59457
81829,59495
82170,59495
82359,59457
82520,59350
82627,59189
82665,59000
82665,61000
82646,60903
82646,60079
82646,59920
82615,59811
82508,59650
82348,59543
82159,59504
82001,59504
82001,59998
82578,59998
82646,59920
82646,60079
82578,60001
82001,60001
82001,60495
82159,60495
82348,60456
82508,60349
82615,60188
82646,60079
82646,60903
82627,60810
82520,60649
82359,60542
82170,60504
81998,60504
81998,60495
81998,60001
81998,59998
81998,59504
81840,59504
81651,59543
81491,59650
81384,59811
81353,59920
81421,59998
81998,59998
81998,60001
81421,60001
81353,60079
81384,60188
81491,60349
81651,60456
81840,60495
81998,60495
81998,60504
81829,60504
81640,60542
81479,60649
81372,60810
81334,61000
81372,61189
81479,61350
81640,61457
81829,61495
82170,61495
82359,61457
82520,61350
82627,61189
82665,61000
82665,62000
82627,61810
82520,61649
82359,61542
82170,61504
81829,61504
81640,61542
81479,61649
81372,61810
81334,62000
81372,62189
81479,62350
81640,62457
81829,62495
82170,62495
82359,62457
82520,62350
82627,62189
82665,62000
82665,63000
82627,62810
82520,62649
82359,62542
82170,62504
81829,62504
81640,62542
81479,62649
81372,62810
81334,63000
81372,63189
81479,63350
81640,63457
81829,63495
82170,63495
82359,63457
82520,63350
82627,63189
82665,63000
82665,63642
82509,63642
82359,63542
82170,63504
81829,63504
81640,63542
81479,63649
81372,63810
81334,64000
81372,64189
81479,64350
81640,64457
81829,64495
82170,64495
82359,64457
82509,64357
82601,64357
82892,64648
82892,69533
82798,69572
82665,69705
82665,66000
82627,65810
82520,65649
82359,65542
82170,65504
81829,65504
81640,65542
81490,65642
81130,65642
81097,65594
80956,65500
81097,65405
81130,65357
81490,65357
81640,65457
81829,65495
82170,65495
82359,65457
82520,65350
82627,65189
82665,65000
82627,64810
82520,64649
82359,64542
82170,64504
81829,64504
81640,64542
81490,64642
81327,64642
81327,60156
81247,59943
81223,59907
81111,59890
81109,59892
81109,59888
81092,59776
80884,59681
80656,59672
80443,59752
80407,59776
80390,59888
80750,60247
81109,59888
81109,59892
80752,60250
81111,60609
81223,60592
81318,60384
81327,60156
81327,64642
81130,64642
81097,64594
80949,64495
81084,64404
81208,64218
81243,64091
81243,63908
81208,63781
81109,63633
81109,60611
80750,60252
80747,60254
80747,60250
80388,59890
80276,59907
80181,60115
80172,60343
80252,60556
80276,60592
80388,60609
80747,60250
80747,60254
80390,60611
80407,60723
80615,60818
80843,60827
81056,60747
81092,60723
81109,60611
81109,63633
81084,63595
80898,63470
80678,63425
80501,63425
80501,63998
81176,63998
81243,63908
81243,64091
81176,64001
80501,64001
80501,64009
80498,64009
80498,64001
80498,63998
80498,63425
80321,63425
80101,63470
79993,63542
79993,56091
79926,56001
79251,56001
79251,56574
79428,56574
79648,56529
79834,56404
79958,56218
79993,56091
79993,63542
79915,63595
79791,63781
79756,63908
79823,63998
80498,63998
80498,64001
79823,64001
79756,64091
79791,64218
79915,64404
80050,64495
79902,64594
79777,64780
79734,65000
79777,65219
79902,65405
80043,65500
79902,65594
79777,65780
79734,66000
79777,66219
79902,66405
80050,66504
79915,66595
79791,66781
79756,66908
79823,66998
80498,66998
80498,66990
80501,66990
80501,66998
81176,66998
81243,66908
81208,66781
81084,66595
80949,66504
81097,66405
81130,66357
81490,66357
81640,66457
81829,66495
82170,66495
82359,66457
82520,66350
82627,66189
82665,66000
82665,69705
82573,69797
82451,70090
82451,70408
82572,70701
82797,70926
83090,71048
83408,71048
83701,70927
83926,70702
84048,70409
84048,70091
84048,71651
81243,71651
81243,67091
81176,67001
80501,67001
80501,67574
80678,67574
80898,67529
81084,67404
81208,67218
81243,67091
81243,71651
80498,71651
80498,67574
80498,67001
79823,67001
79756,67091
79791,67218
79915,67404
80101,67529
80321,67574
80498,67574
80498,71651
79811,71651
79811,70561
79811,70500
79811,70438
79811,70437
79811,70437
79811,70437
79773,70246
79726,70132
79725,70131
79618,69970
79617,69969
79530,69881
79368,69773
79367,69773
79253,69725
79248,69724
79248,56574
79248,56001
78573,56001
78506,56091
78541,56218
78665,56404
78851,56529
79071,56574
79248,56574
79248,69724
79061,69687
78937,69688
78936,69688
78746,69726
78632,69773
78631,69774
78470,69881
78469,69882
78381,69969
78273,70131
78273,70132
78225,70246
78187,70438
78188,70500
78187,70561
78225,70753
78273,70867
78273,70868
78381,71030
78469,71117
78470,71118
78631,71225
78632,71226
78746,71273
78936,71311
78937,71311
79061,71312
79253,71274
79367,71226
79368,71226
79530,71118
79617,71030
79618,71029
79725,70868
79726,70867
79773,70753
79811,70562
79811,70562
79811,70562
79811,70561
79811,71651
77848,71651
77848,42848
91651,42848
91651,71651
" /> 
</g>
<g style="fill:#FFFFFF; fill-opacity:0.0; 
stroke:#FFFFFF; stroke-width:59.0551; stroke-opacity:1; 
stroke-linecap:round; stroke-linejoin:round;">
</g>
<g style="fill:#FFFFFF; fill-opacity:1.0; 
stroke:#FFFFFF; stroke-width:59.0551; stroke-opacity:1; 
stroke-linecap:round; stroke-linejoin:round;">
<circle cx="89750" cy="62500" r="39.3701" /> 
<circle cx="89750" cy="66500" r="39.3701" /> 
<circle cx="87750" cy="67500" r="39.3701" /> 
<circle cx="87750" cy="69500" r="39.3701" /> 
<circle cx="87750" cy="70500" r="39.3701" /> 
<circle cx="82000" cy="54000" r="39.3701" /> 
<circle cx="82000" cy="55000" r="39.3701" /> 
<circle cx="82000" cy="56000" r="39.3701" /> 
<circle cx="82000" cy="57000" r="39.3701" /> 
<circle cx="82000" cy="58000" r="39.3701" /> 
<circle cx="82000" cy="59000" r="39.3701" /> 
<circle cx="82000" cy="60000" r="39.3701" /> 
<circle cx="82000" cy="61000" r="39.3701" /> 
<circle cx="82000" cy="62000" r="39.3701" /> 
<circle cx="82000" cy="63000" r="39.3701" /> 
<circle cx="82000" cy="64000" r="39.3701" /> 
<circle cx="82000" cy="65000" r="39.3701" /> 
<circle cx="82000" cy="66000" r="39.3701" /> 
<circle cx="82000" cy="53000" r="39.3701" /> 
<circle cx="85000" cy="66000" r="39.3701" /> 
<circle cx="85000" cy="65000" r="39.3701" /> 
<circle cx="85000" cy="64000" r="39.3701" /> 
<circle cx="85000" cy="63000" r="39.3701" /> 
<circle cx="85000" cy="62000" r="39.3701" /> 
<circle cx="85000" cy="61000" r="39.3701" /> 
<circle cx="85000" cy="60000" r="39.3701" /> 
<circle cx="85000" cy="59000" r="39.3701" /> 
<circle cx="85000" cy="58000" r="39.3701" /> 
<circle cx="85000" cy="57000" r="39.3701" /> 
<circle cx="85000" cy="56000" r="39.3701" /> 
<circle cx="85000" cy="55000" r="39.3701" /> 
<circle cx="85000" cy="54000" r="39.3701" /> 
<circle cx="85000" cy="53000" r="39.3701" /> 
<circle cx="86000" cy="44250" r="39.3701" /> 
<circle cx="88000" cy="44250" r="39.3701" /> 
<circle cx="80750" cy="58250" r="39.3701" /> 
<circle cx="80750" cy="60250" r="39.3701" /> 
<circle cx="89500" cy="68250" r="39.3701" /> 
<circle cx="90500" cy="68250" r="39.3701" /> 
<circle cx="83250" cy="44250" r="39.3701" /> 
<circle cx="81250" cy="44250" r="39.3701" /> 
<circle cx="86250" cy="66500" r="39.3701" /> 
<circle cx="86250" cy="62500" r="39.3701" /> 
<circle cx="89750" cy="61000" r="39.3701" /> 
<circle cx="90750" cy="61000" r="39.3701" /> 
<circle cx="88500" cy="57500" r="39.3701" /> 
<circle cx="88500" cy="61500" r="39.3701" /> 
<circle cx="80750" cy="52500" r="39.3701" /> 
<circle cx="80750" cy="56500" r="39.3701" /> 
<circle cx="86250" cy="59250" r="39.3701" /> 
<circle cx="86250" cy="61250" r="39.3701" /> 
<circle cx="87500" cy="52750" r="39.3701" /> 
<circle cx="89500" cy="52750" r="39.3701" /> 
<circle cx="89750" cy="59000" r="39.3701" /> 
<circle cx="90750" cy="59000" r="39.3701" /> 
<circle cx="88750" cy="50000" r="39.3701" /> 
<circle cx="84750" cy="50000" r="39.3701" /> 
<circle cx="87750" cy="51250" r="39.3701" /> 
<circle cx="83750" cy="51250" r="39.3701" /> 
<circle cx="84750" cy="47250" r="39.3701" /> 
<circle cx="88750" cy="47250" r="39.3701" /> 
<circle cx="84750" cy="48500" r="39.3701" /> 
<circle cx="88750" cy="48500" r="39.3701" /> 
<circle cx="87500" cy="54250" r="39.3701" /> 
<circle cx="88500" cy="54250" r="39.3701" /> 
<circle cx="89500" cy="54250" r="39.3701" /> 
<circle cx="87750" cy="64000" r="39.3701" /> 
<circle cx="87750" cy="65000" r="39.3701" /> 
<circle cx="90250" cy="46250" r="39.3701" /> 
<circle cx="90250" cy="47250" r="39.3701" /> 
<circle cx="90250" cy="48250" r="39.3701" /> 
<circle cx="90250" cy="49250" r="39.3701" /> 
<circle cx="86250" cy="57000" r="39.3701" /> 
<circle cx="87250" cy="57000" r="39.3701" /> 
<circle cx="86250" cy="56000" r="39.3701" /> 
<circle cx="87250" cy="56000" r="39.3701" /> 
<circle cx="79250" cy="53000" r="39.3701" /> 
<circle cx="79250" cy="54000" r="39.3701" /> 
<circle cx="79250" cy="55000" r="39.3701" /> 
<circle cx="79250" cy="56000" r="39.3701" /> 
<circle cx="80500" cy="65000" r="39.3701" /> 
<circle cx="80500" cy="64000" r="39.3701" /> 
<circle cx="80500" cy="66000" r="39.3701" /> 
<circle cx="80500" cy="67000" r="39.3701" /> 
<circle cx="86250" cy="58000" r="39.3701" /> 
<circle cx="87250" cy="58000" r="39.3701" /> 
<circle cx="83250" cy="70250" r="39.3701" /> 
<circle cx="85250" cy="70250" r="39.3701" /> 
</g> 
</svg>
