<?xml version="1.0" standalone="no"?>
 <!DOCTYPE svg PUBLIC "-//W3C//DTD SVG 1.1//EN" 
 "http://www.w3.org/Graphics/SVG/1.1/DTD/svg11.dtd"> 
<svg xmlns="http://www.w3.org/2000/svg" version="1.1" 
    width="41.9989cm" height="29.7002cm" viewBox="0 0 165350 116930 ">
<title>SVG Picture created as power_ctrl-F_Mask.svg date 2015/08/05 17:31:23 </title>
  <desc>Picture generated by PCBNEW </desc>
<g style="fill:#000000; fill-opacity:1;stroke:#000000; stroke-opacity:1;
stroke-linecap:round; stroke-linejoin:round; "
 transform="translate(0 0) scale(1 1)">
</g>
<g style="fill:#000000; fill-opacity:1.0; 
stroke:#000000; stroke-width:59.0551; stroke-opacity:1; 
stroke-linecap:round; stroke-linejoin:round;">
<polyline style="fill-rule:evenodd;"
points="79784,53002
79777,53071
79756,53137
79723,53198
79679,53251
79625,53295
79565,53327
79498,53347
79418,53355
79081,53355
79075,53355
79065,53354
79065,53354
78996,53346
78996,53346
78995,53346
78931,53325
78869,53291
78817,53248
78773,53193
78741,53133
78721,53065
78715,52997
78722,52928
78743,52862
78776,52801
78820,52748
78874,52704
78934,52672
79001,52652
79081,52644
79418,52644
79424,52644
79434,52645
79434,52645
79503,52653
79503,52653
79504,52653
79568,52674
79630,52708
79682,52751
79726,52806
79758,52866
79778,52934
79784,53002
" /> 
<polyline style="fill-rule:evenodd;"
points="79784,54002
79777,54071
79756,54137
79723,54198
79679,54251
79625,54295
79565,54327
79498,54347
79418,54355
79081,54355
79075,54355
79065,54354
79065,54354
78996,54346
78996,54346
78995,54346
78931,54325
78869,54291
78817,54248
78773,54193
78741,54133
78721,54065
78715,53997
78722,53928
78743,53862
78776,53801
78820,53748
78874,53704
78934,53672
79001,53652
79081,53644
79418,53644
79424,53644
79434,53645
79434,53645
79503,53653
79503,53653
79504,53653
79568,53674
79630,53708
79682,53751
79726,53806
79758,53866
79778,53934
79784,54002
" /> 
<polyline style="fill-rule:evenodd;"
points="79784,55002
79777,55071
79756,55137
79723,55198
79679,55251
79625,55295
79565,55327
79498,55347
79418,55355
79081,55355
79075,55355
79065,55354
79065,55354
78996,55346
78996,55346
78995,55346
78931,55325
78869,55291
78817,55248
78773,55193
78741,55133
78721,55065
78715,54997
78722,54928
78743,54862
78776,54801
78820,54748
78874,54704
78934,54672
79001,54652
79081,54644
79418,54644
79424,54644
79434,54645
79434,54645
79503,54653
79503,54653
79504,54653
79568,54674
79630,54708
79682,54751
79726,54806
79758,54866
79778,54934
79784,55002
" /> 
<polyline style="fill-rule:evenodd;"
points="79784,56002
79777,56071
79756,56137
79723,56198
79679,56251
79625,56295
79565,56327
79498,56347
79418,56355
79081,56355
79075,56355
79065,56354
79065,56354
78996,56346
78996,56346
78995,56346
78931,56325
78869,56291
78817,56248
78773,56193
78741,56133
78721,56065
78715,55997
78722,55928
78743,55862
78776,55801
78820,55748
78874,55704
78934,55672
79001,55652
79081,55644
79418,55644
79424,55644
79434,55645
79434,55645
79503,55653
79503,55653
79504,55653
79568,55674
79630,55708
79682,55751
79726,55806
79758,55866
79778,55934
79784,56002
" /> 
<polyline style="fill-rule:evenodd;"
points="81034,64002
81027,64071
81006,64137
80973,64198
80929,64251
80875,64295
80815,64327
80748,64347
80668,64355
80331,64355
80325,64355
80315,64354
80315,64354
80246,64346
80246,64346
80245,64346
80181,64325
80119,64291
80067,64248
80023,64193
79991,64133
79971,64065
79965,63997
79972,63928
79993,63862
80026,63801
80070,63748
80124,63704
80184,63672
80251,63652
80331,63644
80668,63644
80674,63644
80684,63645
80684,63645
80753,63653
80753,63653
80754,63653
80818,63674
80880,63708
80932,63751
80976,63806
81008,63866
81028,63934
81034,64002
" /> 
<polyline style="fill-rule:evenodd;"
points="81034,65002
81027,65071
81006,65137
80973,65198
80929,65251
80875,65295
80815,65327
80748,65347
80668,65355
80331,65355
80325,65355
80315,65354
80315,65354
80246,65346
80246,65346
80245,65346
80181,65325
80119,65291
80067,65248
80023,65193
79991,65133
79971,65065
79965,64997
79972,64928
79993,64862
80026,64801
80070,64748
80124,64704
80184,64672
80251,64652
80331,64644
80668,64644
80674,64644
80684,64645
80684,64645
80753,64653
80753,64653
80754,64653
80818,64674
80880,64708
80932,64751
80976,64806
81008,64866
81028,64934
81034,65002
" /> 
<polyline style="fill-rule:evenodd;"
points="81034,66002
81027,66071
81006,66137
80973,66198
80929,66251
80875,66295
80815,66327
80748,66347
80668,66355
80331,66355
80325,66355
80315,66354
80315,66354
80246,66346
80246,66346
80245,66346
80181,66325
80119,66291
80067,66248
80023,66193
79991,66133
79971,66065
79965,65997
79972,65928
79993,65862
80026,65801
80070,65748
80124,65704
80184,65672
80251,65652
80331,65644
80668,65644
80674,65644
80684,65645
80684,65645
80753,65653
80753,65653
80754,65653
80818,65674
80880,65708
80932,65751
80976,65806
81008,65866
81028,65934
81034,66002
" /> 
<polyline style="fill-rule:evenodd;"
points="81034,67002
81027,67071
81006,67137
80973,67198
80929,67251
80875,67295
80815,67327
80748,67347
80668,67355
80331,67355
80325,67355
80315,67354
80315,67354
80246,67346
80246,67346
80245,67346
80181,67325
80119,67291
80067,67248
80023,67193
79991,67133
79971,67065
79965,66997
79972,66928
79993,66862
80026,66801
80070,66748
80124,66704
80184,66672
80251,66652
80331,66644
80668,66644
80674,66644
80684,66645
80684,66645
80753,66653
80753,66653
80754,66653
80818,66674
80880,66708
80932,66751
80976,66806
81008,66866
81028,66934
81034,67002
" /> 
<polyline style="fill-rule:evenodd;"
points="81104,58219
81103,58290
81086,58366
81061,58422
81016,58485
80972,58527
80906,58569
80850,58591
80772,58605
80712,58603
80635,58587
80580,58562
80515,58517
80474,58474
80431,58408
80409,58352
80394,58274
80395,58215
80412,58137
80435,58082
80480,58017
80522,57975
80589,57932
80644,57910
80723,57894
80781,57895
80860,57911
80914,57934
80981,57979
81022,58020
81067,58087
81089,58141
81104,58219
" /> 
<polyline style="fill-rule:evenodd;"
points="81104,60219
81103,60290
81086,60366
81061,60422
81016,60485
80972,60527
80906,60569
80850,60591
80772,60605
80712,60603
80635,60587
80580,60562
80515,60517
80474,60474
80431,60408
80409,60352
80394,60274
80395,60215
80412,60137
80435,60082
80480,60017
80522,59975
80589,59932
80644,59910
80723,59894
80781,59895
80860,59911
80914,59934
80981,59979
81022,60020
81067,60087
81089,60141
81104,60219
" /> 
<polyline style="fill-rule:evenodd;"
points="81129,52467
81128,52543
81110,52624
81083,52684
81035,52752
80988,52797
80917,52842
80856,52865
80774,52880
80709,52878
80627,52860
80568,52834
80499,52787
80454,52740
80408,52669
80385,52609
80369,52526
80370,52462
80388,52379
80413,52320
80461,52251
80507,52206
80578,52159
80637,52135
80720,52119
80784,52120
80867,52137
80926,52162
80997,52209
81041,52254
81089,52326
81113,52384
81129,52467
" /> 
<polyline style="fill-rule:evenodd;"
points="81129,56467
81128,56543
81110,56624
81083,56684
81035,56752
80988,56797
80917,56842
80856,56865
80774,56880
80709,56878
80627,56860
80568,56834
80499,56787
80454,56740
80408,56669
80385,56609
80369,56526
80370,56462
80388,56379
80413,56320
80461,56251
80507,56206
80578,56159
80637,56135
80720,56119
80784,56120
80867,56137
80926,56162
80997,56209
81041,56254
81089,56326
81113,56384
81129,56467
" /> 
<polyline style="fill-rule:evenodd;"
points="81829,44197
81827,44318
81800,44437
81758,44533
81687,44633
81611,44705
81508,44771
81410,44809
81290,44830
81185,44828
81065,44802
80970,44760
80869,44690
80796,44615
80730,44511
80691,44415
80669,44293
80671,44190
80696,44069
80737,43974
80807,43871
80881,43799
80985,43731
81080,43693
81202,43669
81305,43670
81427,43695
81522,43735
81625,43805
81697,43877
81766,43981
81805,44076
81829,44197
" /> 
<polyline style="fill-rule:evenodd;"
points="82435,53001
82429,53055
82414,53106
82388,53154
82354,53195
82312,53229
82264,53254
82213,53270
82148,53276
81851,53276
81846,53276
81836,53275
81836,53275
81783,53269
81782,53269
81782,53269
81732,53253
81683,53227
81643,53193
81609,53150
81584,53103
81569,53051
81564,52998
81570,52944
81585,52893
81611,52845
81645,52804
81687,52770
81735,52745
81786,52729
81851,52723
82148,52723
82153,52723
82163,52724
82163,52724
82216,52730
82217,52730
82217,52730
82267,52746
82316,52772
82356,52806
82390,52849
82415,52896
82430,52948
82435,53001
" /> 
<polyline style="fill-rule:evenodd;"
points="82435,54001
82429,54055
82414,54106
82388,54154
82354,54195
82312,54229
82264,54254
82213,54270
82148,54276
81851,54276
81846,54276
81836,54275
81836,54275
81783,54269
81782,54269
81782,54269
81732,54253
81683,54227
81643,54193
81609,54150
81584,54103
81569,54051
81564,53998
81570,53944
81585,53893
81611,53845
81645,53804
81687,53770
81735,53745
81786,53729
81851,53723
82148,53723
82153,53723
82163,53724
82163,53724
82216,53730
82217,53730
82217,53730
82267,53746
82316,53772
82356,53806
82390,53849
82415,53896
82430,53948
82435,54001
" /> 
<polyline style="fill-rule:evenodd;"
points="82435,55001
82429,55055
82414,55106
82388,55154
82354,55195
82312,55229
82264,55254
82213,55270
82148,55276
81851,55276
81846,55276
81836,55275
81836,55275
81783,55269
81782,55269
81782,55269
81732,55253
81683,55227
81643,55193
81609,55150
81584,55103
81569,55051
81564,54998
81570,54944
81585,54893
81611,54845
81645,54804
81687,54770
81735,54745
81786,54729
81851,54723
82148,54723
82153,54723
82163,54724
82163,54724
82216,54730
82217,54730
82217,54730
82267,54746
82316,54772
82356,54806
82390,54849
82415,54896
82430,54948
82435,55001
" /> 
<polyline style="fill-rule:evenodd;"
points="82435,56001
82429,56055
82414,56106
82388,56154
82354,56195
82312,56229
82264,56254
82213,56270
82148,56276
81851,56276
81846,56276
81836,56275
81836,56275
81783,56269
81782,56269
81782,56269
81732,56253
81683,56227
81643,56193
81609,56150
81584,56103
81569,56051
81564,55998
81570,55944
81585,55893
81611,55845
81645,55804
81687,55770
81735,55745
81786,55729
81851,55723
82148,55723
82153,55723
82163,55724
82163,55724
82216,55730
82217,55730
82217,55730
82267,55746
82316,55772
82356,55806
82390,55849
82415,55896
82430,55948
82435,56001
" /> 
<polyline style="fill-rule:evenodd;"
points="82435,57001
82429,57055
82414,57106
82388,57154
82354,57195
82312,57229
82264,57254
82213,57270
82148,57276
81851,57276
81846,57276
81836,57275
81836,57275
81783,57269
81782,57269
81782,57269
81732,57253
81683,57227
81643,57193
81609,57150
81584,57103
81569,57051
81564,56998
81570,56944
81585,56893
81611,56845
81645,56804
81687,56770
81735,56745
81786,56729
81851,56723
82148,56723
82153,56723
82163,56724
82163,56724
82216,56730
82217,56730
82217,56730
82267,56746
82316,56772
82356,56806
82390,56849
82415,56896
82430,56948
82435,57001
" /> 
<polyline style="fill-rule:evenodd;"
points="82435,58001
82429,58055
82414,58106
82388,58154
82354,58195
82312,58229
82264,58254
82213,58270
82148,58276
81851,58276
81846,58276
81836,58275
81836,58275
81783,58269
81782,58269
81782,58269
81732,58253
81683,58227
81643,58193
81609,58150
81584,58103
81569,58051
81564,57998
81570,57944
81585,57893
81611,57845
81645,57804
81687,57770
81735,57745
81786,57729
81851,57723
82148,57723
82153,57723
82163,57724
82163,57724
82216,57730
82217,57730
82217,57730
82267,57746
82316,57772
82356,57806
82390,57849
82415,57896
82430,57948
82435,58001
" /> 
<polyline style="fill-rule:evenodd;"
points="82435,59001
82429,59055
82414,59106
82388,59154
82354,59195
82312,59229
82264,59254
82213,59270
82148,59276
81851,59276
81846,59276
81836,59275
81836,59275
81783,59269
81782,59269
81782,59269
81732,59253
81683,59227
81643,59193
81609,59150
81584,59103
81569,59051
81564,58998
81570,58944
81585,58893
81611,58845
81645,58804
81687,58770
81735,58745
81786,58729
81851,58723
82148,58723
82153,58723
82163,58724
82163,58724
82216,58730
82217,58730
82217,58730
82267,58746
82316,58772
82356,58806
82390,58849
82415,58896
82430,58948
82435,59001
" /> 
<polyline style="fill-rule:evenodd;"
points="82435,60001
82429,60055
82414,60106
82388,60154
82354,60195
82312,60229
82264,60254
82213,60270
82148,60276
81851,60276
81846,60276
81836,60275
81836,60275
81783,60269
81782,60269
81782,60269
81732,60253
81683,60227
81643,60193
81609,60150
81584,60103
81569,60051
81564,59998
81570,59944
81585,59893
81611,59845
81645,59804
81687,59770
81735,59745
81786,59729
81851,59723
82148,59723
82153,59723
82163,59724
82163,59724
82216,59730
82217,59730
82217,59730
82267,59746
82316,59772
82356,59806
82390,59849
82415,59896
82430,59948
82435,60001
" /> 
<polyline style="fill-rule:evenodd;"
points="82435,61001
82429,61055
82414,61106
82388,61154
82354,61195
82312,61229
82264,61254
82213,61270
82148,61276
81851,61276
81846,61276
81836,61275
81836,61275
81783,61269
81782,61269
81782,61269
81732,61253
81683,61227
81643,61193
81609,61150
81584,61103
81569,61051
81564,60998
81570,60944
81585,60893
81611,60845
81645,60804
81687,60770
81735,60745
81786,60729
81851,60723
82148,60723
82153,60723
82163,60724
82163,60724
82216,60730
82217,60730
82217,60730
82267,60746
82316,60772
82356,60806
82390,60849
82415,60896
82430,60948
82435,61001
" /> 
<polyline style="fill-rule:evenodd;"
points="82435,62001
82429,62055
82414,62106
82388,62154
82354,62195
82312,62229
82264,62254
82213,62270
82148,62276
81851,62276
81846,62276
81836,62275
81836,62275
81783,62269
81782,62269
81782,62269
81732,62253
81683,62227
81643,62193
81609,62150
81584,62103
81569,62051
81564,61998
81570,61944
81585,61893
81611,61845
81645,61804
81687,61770
81735,61745
81786,61729
81851,61723
82148,61723
82153,61723
82163,61724
82163,61724
82216,61730
82217,61730
82217,61730
82267,61746
82316,61772
82356,61806
82390,61849
82415,61896
82430,61948
82435,62001
" /> 
<polyline style="fill-rule:evenodd;"
points="82435,63001
82429,63055
82414,63106
82388,63154
82354,63195
82312,63229
82264,63254
82213,63270
82148,63276
81851,63276
81846,63276
81836,63275
81836,63275
81783,63269
81782,63269
81782,63269
81732,63253
81683,63227
81643,63193
81609,63150
81584,63103
81569,63051
81564,62998
81570,62944
81585,62893
81611,62845
81645,62804
81687,62770
81735,62745
81786,62729
81851,62723
82148,62723
82153,62723
82163,62724
82163,62724
82216,62730
82217,62730
82217,62730
82267,62746
82316,62772
82356,62806
82390,62849
82415,62896
82430,62948
82435,63001
" /> 
<polyline style="fill-rule:evenodd;"
points="82435,64001
82429,64055
82414,64106
82388,64154
82354,64195
82312,64229
82264,64254
82213,64270
82148,64276
81851,64276
81846,64276
81836,64275
81836,64275
81783,64269
81782,64269
81782,64269
81732,64253
81683,64227
81643,64193
81609,64150
81584,64103
81569,64051
81564,63998
81570,63944
81585,63893
81611,63845
81645,63804
81687,63770
81735,63745
81786,63729
81851,63723
82148,63723
82153,63723
82163,63724
82163,63724
82216,63730
82217,63730
82217,63730
82267,63746
82316,63772
82356,63806
82390,63849
82415,63896
82430,63948
82435,64001
" /> 
<polyline style="fill-rule:evenodd;"
points="82435,65001
82429,65055
82414,65106
82388,65154
82354,65195
82312,65229
82264,65254
82213,65270
82148,65276
81851,65276
81846,65276
81836,65275
81836,65275
81783,65269
81782,65269
81782,65269
81732,65253
81683,65227
81643,65193
81609,65150
81584,65103
81569,65051
81564,64998
81570,64944
81585,64893
81611,64845
81645,64804
81687,64770
81735,64745
81786,64729
81851,64723
82148,64723
82153,64723
82163,64724
82163,64724
82216,64730
82217,64730
82217,64730
82267,64746
82316,64772
82356,64806
82390,64849
82415,64896
82430,64948
82435,65001
" /> 
<polyline style="fill-rule:evenodd;"
points="82435,66001
82429,66055
82414,66106
82388,66154
82354,66195
82312,66229
82264,66254
82213,66270
82148,66276
81851,66276
81846,66276
81836,66275
81836,66275
81783,66269
81782,66269
81782,66269
81732,66253
81683,66227
81643,66193
81609,66150
81584,66103
81569,66051
81564,65998
81570,65944
81585,65893
81611,65845
81645,65804
81687,65770
81735,65745
81786,65729
81851,65723
82148,65723
82153,65723
82163,65724
82163,65724
82216,65730
82217,65730
82217,65730
82267,65746
82316,65772
82356,65806
82390,65849
82415,65896
82430,65948
82435,66001
" /> 
<polyline style="fill-rule:evenodd;"
points="83829,44197
83827,44318
83800,44437
83758,44533
83687,44633
83611,44705
83508,44771
83410,44809
83290,44830
83185,44828
83065,44802
82970,44760
82869,44690
82796,44615
82730,44511
82691,44415
82669,44293
82671,44190
82696,44069
82737,43974
82807,43871
82881,43799
82985,43731
83080,43693
83202,43669
83305,43670
83427,43695
83522,43735
83625,43805
83697,43877
83766,43981
83805,44076
83829,44197
" /> 
<polyline style="fill-rule:evenodd;"
points="83829,70197
83827,70318
83800,70437
83758,70533
83687,70633
83611,70705
83508,70771
83410,70809
83290,70830
83185,70828
83065,70802
82970,70760
82869,70690
82796,70615
82730,70511
82691,70415
82669,70293
82671,70190
82696,70069
82737,69974
82807,69871
82881,69799
82985,69731
83080,69693
83202,69669
83305,69670
83427,69695
83522,69735
83625,69805
83697,69877
83766,69981
83805,70076
83829,70197
" /> 
<polyline style="fill-rule:evenodd;"
points="84129,51217
84128,51293
84110,51374
84083,51434
84035,51502
83988,51547
83917,51592
83856,51615
83774,51630
83709,51628
83627,51610
83568,51584
83499,51537
83454,51490
83408,51419
83385,51359
83369,51276
83370,51212
83388,51129
83413,51070
83461,51001
83507,50956
83578,50909
83637,50885
83720,50869
83784,50870
83867,50887
83926,50912
83997,50959
84041,51004
84089,51076
84113,51134
84129,51217
" /> 
<polyline style="fill-rule:evenodd;"
points="85129,47217
85128,47293
85110,47374
85083,47434
85035,47502
84988,47547
84917,47592
84856,47615
84774,47630
84709,47628
84627,47610
84568,47584
84499,47537
84454,47490
84408,47419
84385,47359
84369,47276
84370,47212
84388,47129
84413,47070
84461,47001
84507,46956
84578,46909
84637,46885
84720,46869
84784,46870
84867,46887
84926,46912
84997,46959
85041,47004
85089,47076
85113,47134
85129,47217
" /> 
<polyline style="fill-rule:evenodd;"
points="85129,48467
85128,48543
85110,48624
85083,48684
85035,48752
84988,48797
84917,48842
84856,48865
84774,48880
84709,48878
84627,48860
84568,48834
84499,48787
84454,48740
84408,48669
84385,48609
84369,48526
84370,48462
84388,48379
84413,48320
84461,48251
84507,48206
84578,48159
84637,48135
84720,48119
84784,48120
84867,48137
84926,48162
84997,48209
85041,48254
85089,48326
85113,48384
85129,48467
" /> 
<polyline style="fill-rule:evenodd;"
points="85129,49967
85128,50043
85110,50124
85083,50184
85035,50252
84988,50297
84917,50342
84856,50365
84774,50380
84709,50378
84627,50360
84568,50334
84499,50287
84454,50240
84408,50169
84385,50109
84369,50026
84370,49962
84388,49879
84413,49820
84461,49751
84507,49706
84578,49659
84637,49635
84720,49619
84784,49620
84867,49637
84926,49662
84997,49709
85041,49754
85089,49826
85113,49884
85129,49967
" /> 
<polyline style="fill-rule:evenodd;"
points="85435,53001
85429,53055
85414,53106
85388,53154
85354,53195
85312,53229
85264,53254
85213,53270
85148,53276
84851,53276
84846,53276
84836,53275
84836,53275
84783,53269
84782,53269
84782,53269
84732,53253
84683,53227
84643,53193
84609,53150
84584,53103
84569,53051
84564,52998
84570,52944
84585,52893
84611,52845
84645,52804
84687,52770
84735,52745
84786,52729
84851,52723
85148,52723
85153,52723
85163,52724
85163,52724
85216,52730
85217,52730
85217,52730
85267,52746
85316,52772
85356,52806
85390,52849
85415,52896
85430,52948
85435,53001
" /> 
<polyline style="fill-rule:evenodd;"
points="85435,54001
85429,54055
85414,54106
85388,54154
85354,54195
85312,54229
85264,54254
85213,54270
85148,54276
84851,54276
84846,54276
84836,54275
84836,54275
84783,54269
84782,54269
84782,54269
84732,54253
84683,54227
84643,54193
84609,54150
84584,54103
84569,54051
84564,53998
84570,53944
84585,53893
84611,53845
84645,53804
84687,53770
84735,53745
84786,53729
84851,53723
85148,53723
85153,53723
85163,53724
85163,53724
85216,53730
85217,53730
85217,53730
85267,53746
85316,53772
85356,53806
85390,53849
85415,53896
85430,53948
85435,54001
" /> 
<polyline style="fill-rule:evenodd;"
points="85435,55001
85429,55055
85414,55106
85388,55154
85354,55195
85312,55229
85264,55254
85213,55270
85148,55276
84851,55276
84846,55276
84836,55275
84836,55275
84783,55269
84782,55269
84782,55269
84732,55253
84683,55227
84643,55193
84609,55150
84584,55103
84569,55051
84564,54998
84570,54944
84585,54893
84611,54845
84645,54804
84687,54770
84735,54745
84786,54729
84851,54723
85148,54723
85153,54723
85163,54724
85163,54724
85216,54730
85217,54730
85217,54730
85267,54746
85316,54772
85356,54806
85390,54849
85415,54896
85430,54948
85435,55001
" /> 
<polyline style="fill-rule:evenodd;"
points="85435,56001
85429,56055
85414,56106
85388,56154
85354,56195
85312,56229
85264,56254
85213,56270
85148,56276
84851,56276
84846,56276
84836,56275
84836,56275
84783,56269
84782,56269
84782,56269
84732,56253
84683,56227
84643,56193
84609,56150
84584,56103
84569,56051
84564,55998
84570,55944
84585,55893
84611,55845
84645,55804
84687,55770
84735,55745
84786,55729
84851,55723
85148,55723
85153,55723
85163,55724
85163,55724
85216,55730
85217,55730
85217,55730
85267,55746
85316,55772
85356,55806
85390,55849
85415,55896
85430,55948
85435,56001
" /> 
<polyline style="fill-rule:evenodd;"
points="85435,57001
85429,57055
85414,57106
85388,57154
85354,57195
85312,57229
85264,57254
85213,57270
85148,57276
84851,57276
84846,57276
84836,57275
84836,57275
84783,57269
84782,57269
84782,57269
84732,57253
84683,57227
84643,57193
84609,57150
84584,57103
84569,57051
84564,56998
84570,56944
84585,56893
84611,56845
84645,56804
84687,56770
84735,56745
84786,56729
84851,56723
85148,56723
85153,56723
85163,56724
85163,56724
85216,56730
85217,56730
85217,56730
85267,56746
85316,56772
85356,56806
85390,56849
85415,56896
85430,56948
85435,57001
" /> 
<polyline style="fill-rule:evenodd;"
points="85435,58001
85429,58055
85414,58106
85388,58154
85354,58195
85312,58229
85264,58254
85213,58270
85148,58276
84851,58276
84846,58276
84836,58275
84836,58275
84783,58269
84782,58269
84782,58269
84732,58253
84683,58227
84643,58193
84609,58150
84584,58103
84569,58051
84564,57998
84570,57944
84585,57893
84611,57845
84645,57804
84687,57770
84735,57745
84786,57729
84851,57723
85148,57723
85153,57723
85163,57724
85163,57724
85216,57730
85217,57730
85217,57730
85267,57746
85316,57772
85356,57806
85390,57849
85415,57896
85430,57948
85435,58001
" /> 
<polyline style="fill-rule:evenodd;"
points="85435,59001
85429,59055
85414,59106
85388,59154
85354,59195
85312,59229
85264,59254
85213,59270
85148,59276
84851,59276
84846,59276
84836,59275
84836,59275
84783,59269
84782,59269
84782,59269
84732,59253
84683,59227
84643,59193
84609,59150
84584,59103
84569,59051
84564,58998
84570,58944
84585,58893
84611,58845
84645,58804
84687,58770
84735,58745
84786,58729
84851,58723
85148,58723
85153,58723
85163,58724
85163,58724
85216,58730
85217,58730
85217,58730
85267,58746
85316,58772
85356,58806
85390,58849
85415,58896
85430,58948
85435,59001
" /> 
<polyline style="fill-rule:evenodd;"
points="85435,60001
85429,60055
85414,60106
85388,60154
85354,60195
85312,60229
85264,60254
85213,60270
85148,60276
84851,60276
84846,60276
84836,60275
84836,60275
84783,60269
84782,60269
84782,60269
84732,60253
84683,60227
84643,60193
84609,60150
84584,60103
84569,60051
84564,59998
84570,59944
84585,59893
84611,59845
84645,59804
84687,59770
84735,59745
84786,59729
84851,59723
85148,59723
85153,59723
85163,59724
85163,59724
85216,59730
85217,59730
85217,59730
85267,59746
85316,59772
85356,59806
85390,59849
85415,59896
85430,59948
85435,60001
" /> 
<polyline style="fill-rule:evenodd;"
points="85435,61001
85429,61055
85414,61106
85388,61154
85354,61195
85312,61229
85264,61254
85213,61270
85148,61276
84851,61276
84846,61276
84836,61275
84836,61275
84783,61269
84782,61269
84782,61269
84732,61253
84683,61227
84643,61193
84609,61150
84584,61103
84569,61051
84564,60998
84570,60944
84585,60893
84611,60845
84645,60804
84687,60770
84735,60745
84786,60729
84851,60723
85148,60723
85153,60723
85163,60724
85163,60724
85216,60730
85217,60730
85217,60730
85267,60746
85316,60772
85356,60806
85390,60849
85415,60896
85430,60948
85435,61001
" /> 
<polyline style="fill-rule:evenodd;"
points="85435,62001
85429,62055
85414,62106
85388,62154
85354,62195
85312,62229
85264,62254
85213,62270
85148,62276
84851,62276
84846,62276
84836,62275
84836,62275
84783,62269
84782,62269
84782,62269
84732,62253
84683,62227
84643,62193
84609,62150
84584,62103
84569,62051
84564,61998
84570,61944
84585,61893
84611,61845
84645,61804
84687,61770
84735,61745
84786,61729
84851,61723
85148,61723
85153,61723
85163,61724
85163,61724
85216,61730
85217,61730
85217,61730
85267,61746
85316,61772
85356,61806
85390,61849
85415,61896
85430,61948
85435,62001
" /> 
<polyline style="fill-rule:evenodd;"
points="85435,63001
85429,63055
85414,63106
85388,63154
85354,63195
85312,63229
85264,63254
85213,63270
85148,63276
84851,63276
84846,63276
84836,63275
84836,63275
84783,63269
84782,63269
84782,63269
84732,63253
84683,63227
84643,63193
84609,63150
84584,63103
84569,63051
84564,62998
84570,62944
84585,62893
84611,62845
84645,62804
84687,62770
84735,62745
84786,62729
84851,62723
85148,62723
85153,62723
85163,62724
85163,62724
85216,62730
85217,62730
85217,62730
85267,62746
85316,62772
85356,62806
85390,62849
85415,62896
85430,62948
85435,63001
" /> 
<polyline style="fill-rule:evenodd;"
points="85435,64001
85429,64055
85414,64106
85388,64154
85354,64195
85312,64229
85264,64254
85213,64270
85148,64276
84851,64276
84846,64276
84836,64275
84836,64275
84783,64269
84782,64269
84782,64269
84732,64253
84683,64227
84643,64193
84609,64150
84584,64103
84569,64051
84564,63998
84570,63944
84585,63893
84611,63845
84645,63804
84687,63770
84735,63745
84786,63729
84851,63723
85148,63723
85153,63723
85163,63724
85163,63724
85216,63730
85217,63730
85217,63730
85267,63746
85316,63772
85356,63806
85390,63849
85415,63896
85430,63948
85435,64001
" /> 
<polyline style="fill-rule:evenodd;"
points="85435,65001
85429,65055
85414,65106
85388,65154
85354,65195
85312,65229
85264,65254
85213,65270
85148,65276
84851,65276
84846,65276
84836,65275
84836,65275
84783,65269
84782,65269
84782,65269
84732,65253
84683,65227
84643,65193
84609,65150
84584,65103
84569,65051
84564,64998
84570,64944
84585,64893
84611,64845
84645,64804
84687,64770
84735,64745
84786,64729
84851,64723
85148,64723
85153,64723
85163,64724
85163,64724
85216,64730
85217,64730
85217,64730
85267,64746
85316,64772
85356,64806
85390,64849
85415,64896
85430,64948
85435,65001
" /> 
<polyline style="fill-rule:evenodd;"
points="85435,66001
85429,66055
85414,66106
85388,66154
85354,66195
85312,66229
85264,66254
85213,66270
85148,66276
84851,66276
84846,66276
84836,66275
84836,66275
84783,66269
84782,66269
84782,66269
84732,66253
84683,66227
84643,66193
84609,66150
84584,66103
84569,66051
84564,65998
84570,65944
84585,65893
84611,65845
84645,65804
84687,65770
84735,65745
84786,65729
84851,65723
85148,65723
85153,65723
85163,65724
85163,65724
85216,65730
85217,65730
85217,65730
85267,65746
85316,65772
85356,65806
85390,65849
85415,65896
85430,65948
85435,66001
" /> 
<polyline style="fill-rule:evenodd;"
points="85829,70197
85827,70318
85800,70437
85758,70533
85687,70633
85611,70705
85508,70771
85410,70809
85290,70830
85185,70828
85065,70802
84970,70760
84869,70690
84796,70615
84730,70511
84691,70415
84669,70293
84671,70190
84696,70069
84737,69974
84807,69871
84881,69799
84985,69731
85080,69693
85202,69669
85305,69670
85427,69695
85522,69735
85625,69805
85697,69877
85766,69981
85805,70076
85829,70197
" /> 
<polyline style="fill-rule:evenodd;"
points="86429,44212
86428,44299
86407,44390
86377,44459
86323,44535
86268,44587
86190,44636
86120,44664
86028,44680
85953,44678
85862,44658
85793,44628
85716,44575
85664,44521
85614,44442
85586,44373
85569,44281
85570,44206
85590,44114
85619,44046
85672,43968
85725,43917
85804,43865
85873,43837
85966,43819
86039,43820
86132,43839
86200,43867
86279,43921
86330,43973
86383,44052
86411,44119
86429,44212
" /> 
<polyline style="fill-rule:evenodd;"
points="86604,59219
86603,59290
86586,59366
86561,59422
86516,59485
86472,59527
86406,59569
86350,59591
86272,59605
86212,59603
86135,59587
86080,59562
86015,59517
85974,59474
85931,59408
85909,59352
85894,59274
85895,59215
85912,59137
85935,59082
85980,59017
86022,58975
86089,58932
86144,58910
86223,58894
86281,58895
86360,58911
86414,58934
86481,58979
86522,59020
86567,59087
86589,59141
86604,59219
" /> 
<polyline style="fill-rule:evenodd;"
points="86604,61219
86603,61290
86586,61366
86561,61422
86516,61485
86472,61527
86406,61569
86350,61591
86272,61605
86212,61603
86135,61587
86080,61562
86015,61517
85974,61474
85931,61408
85909,61352
85894,61274
85895,61215
85912,61137
85935,61082
85980,61017
86022,60975
86089,60932
86144,60910
86223,60894
86281,60895
86360,60911
86414,60934
86481,60979
86522,61020
86567,61087
86589,61141
86604,61219
" /> 
<polyline style="fill-rule:evenodd;"
points="86629,62467
86628,62543
86610,62624
86583,62684
86535,62752
86488,62797
86417,62842
86356,62865
86274,62880
86209,62878
86127,62860
86068,62834
85999,62787
85954,62740
85908,62669
85885,62609
85869,62526
85870,62462
85888,62379
85913,62320
85961,62251
86007,62206
86078,62159
86137,62135
86220,62119
86284,62120
86367,62137
86426,62162
86497,62209
86541,62254
86589,62326
86613,62384
86629,62467
" /> 
<polyline style="fill-rule:evenodd;"
points="86629,66467
86628,66543
86610,66624
86583,66684
86535,66752
86488,66797
86417,66842
86356,66865
86274,66880
86209,66878
86127,66860
86068,66834
85999,66787
85954,66740
85908,66669
85885,66609
85869,66526
85870,66462
85888,66379
85913,66320
85961,66251
86007,66206
86078,66159
86137,66135
86220,66119
86284,66120
86367,66137
86426,66162
86497,66209
86541,66254
86589,66326
86613,66384
86629,66467
" /> 
<polyline style="fill-rule:evenodd;"
points="86645,56001
86639,56063
86621,56121
86591,56176
86553,56223
86505,56262
86451,56291
86392,56308
86319,56316
86180,56316
86175,56316
86165,56314
86164,56314
86103,56308
86103,56308
86102,56307
86045,56289
85990,56259
85944,56220
85905,56171
85877,56118
85859,56058
85854,55998
85860,55936
85878,55878
85908,55823
85946,55776
85994,55737
86048,55708
86107,55691
86180,55683
86319,55683
86324,55683
86334,55685
86335,55685
86396,55691
86396,55691
86397,55692
86454,55710
86509,55740
86555,55779
86594,55828
86622,55881
86640,55941
86645,56001
" /> 
<polyline style="fill-rule:evenodd;"
points="86645,57001
86639,57063
86621,57121
86591,57176
86553,57223
86505,57262
86451,57291
86392,57308
86319,57316
86180,57316
86175,57316
86165,57314
86164,57314
86103,57308
86103,57308
86102,57307
86045,57289
85990,57259
85944,57220
85905,57171
85877,57118
85859,57058
85854,56998
85860,56936
85878,56878
85908,56823
85946,56776
85994,56737
86048,56708
86107,56691
86180,56683
86319,56683
86324,56683
86334,56685
86335,56685
86396,56691
86396,56691
86397,56692
86454,56710
86509,56740
86555,56779
86594,56828
86622,56881
86640,56941
86645,57001
" /> 
<polyline style="fill-rule:evenodd;"
points="86645,58001
86639,58063
86621,58121
86591,58176
86553,58223
86505,58262
86451,58291
86392,58308
86319,58316
86180,58316
86175,58316
86165,58314
86164,58314
86103,58308
86103,58308
86102,58307
86045,58289
85990,58259
85944,58220
85905,58171
85877,58118
85859,58058
85854,57998
85860,57936
85878,57878
85908,57823
85946,57776
85994,57737
86048,57708
86107,57691
86180,57683
86319,57683
86324,57683
86334,57685
86335,57685
86396,57691
86396,57691
86397,57692
86454,57710
86509,57740
86555,57779
86594,57828
86622,57881
86640,57941
86645,58001
" /> 
<polyline style="fill-rule:evenodd;"
points="87605,58168
87605,58174
87604,58184
87604,58184
87596,58253
87596,58253
87596,58254
87575,58318
87541,58380
87498,58432
87443,58476
87383,58508
87315,58528
87247,58534
87178,58527
87112,58506
87051,58473
86998,58429
86954,58375
86922,58315
86902,58248
86894,58168
86894,57831
86894,57825
86895,57815
86895,57815
86903,57746
86903,57746
86903,57745
86924,57681
86958,57619
87001,57567
87024,57549
87040,57532
87049,57511
87049,57488
87040,57467
87024,57450
86998,57429
86954,57375
86922,57315
86902,57248
86894,57168
86894,56831
86894,56825
86895,56815
86895,56815
86903,56746
86903,56746
86903,56745
86924,56681
86958,56619
87001,56567
87024,56549
87040,56532
87049,56511
87049,56488
87040,56467
87024,56450
86998,56429
86954,56375
86922,56315
86902,56248
86894,56168
86894,55831
86894,55825
86895,55815
86895,55815
86903,55746
86903,55746
86903,55745
86924,55681
86958,55619
87001,55567
87056,55523
87116,55491
87184,55471
87252,55465
87321,55472
87387,55493
87448,55526
87501,55570
87545,55624
87577,55684
87597,55751
87605,55831
87605,56168
87605,56174
87604,56184
87604,56184
87596,56253
87596,56253
87596,56254
87575,56318
87541,56380
87498,56432
87475,56450
87459,56467
87450,56488
87450,56511
87459,56532
87475,56549
87501,56570
87545,56624
87577,56684
87597,56751
87605,56831
87605,57168
87605,57174
87604,57184
87604,57184
87596,57253
87596,57253
87596,57254
87575,57318
87541,57380
87498,57432
87475,57450
87459,57467
87450,57488
87450,57511
87459,57532
87475,57549
87501,57570
87545,57624
87577,57684
87597,57751
87605,57831
87605,58168
" /> 
<polyline style="fill-rule:evenodd;"
points="87854,52719
87853,52790
87836,52866
87811,52922
87766,52985
87722,53027
87656,53069
87600,53091
87522,53105
87462,53103
87385,53087
87330,53062
87265,53017
87224,52974
87181,52908
87159,52852
87144,52774
87145,52715
87162,52637
87185,52582
87230,52517
87272,52475
87339,52432
87394,52410
87473,52394
87531,52395
87610,52411
87664,52434
87731,52479
87772,52520
87817,52587
87839,52641
87854,52719
" /> 
<polyline style="fill-rule:evenodd;"
points="87855,54418
87855,54424
87854,54434
87854,54434
87846,54503
87846,54503
87846,54504
87825,54568
87791,54630
87748,54682
87693,54726
87633,54758
87565,54778
87497,54784
87428,54777
87362,54756
87301,54723
87248,54679
87204,54625
87172,54565
87152,54498
87144,54418
87144,54081
87144,54075
87145,54065
87145,54065
87153,53996
87153,53996
87153,53995
87174,53931
87208,53869
87251,53817
87306,53773
87366,53741
87434,53721
87502,53715
87571,53722
87637,53743
87698,53776
87751,53820
87795,53874
87827,53934
87847,54001
87855,54081
87855,54418
" /> 
<polyline style="fill-rule:evenodd;"
points="88129,51217
88128,51293
88110,51374
88083,51434
88035,51502
87988,51547
87917,51592
87856,51615
87774,51630
87709,51628
87627,51610
87568,51584
87499,51537
87454,51490
87408,51419
87385,51359
87369,51276
87370,51212
87388,51129
87413,51070
87461,51001
87507,50956
87578,50909
87637,50885
87720,50869
87784,50870
87867,50887
87926,50912
87997,50959
88041,51004
88089,51076
88113,51134
88129,51217
" /> 
<polyline style="fill-rule:evenodd;"
points="88284,64002
88277,64071
88256,64137
88223,64198
88179,64251
88125,64295
88065,64327
87998,64347
87918,64355
87581,64355
87575,64355
87565,64354
87565,64354
87496,64346
87496,64346
87495,64346
87431,64325
87369,64291
87317,64248
87273,64193
87241,64133
87221,64065
87215,63997
87222,63928
87243,63862
87276,63801
87320,63748
87374,63704
87434,63672
87501,63652
87581,63644
87918,63644
87924,63644
87934,63645
87934,63645
88003,63653
88003,63653
88004,63653
88068,63674
88130,63708
88182,63751
88226,63806
88258,63866
88278,63934
88284,64002
" /> 
<polyline style="fill-rule:evenodd;"
points="88284,65002
88277,65071
88256,65137
88223,65198
88179,65251
88125,65295
88065,65327
87998,65347
87918,65355
87581,65355
87575,65355
87565,65354
87565,65354
87496,65346
87496,65346
87495,65346
87431,65325
87369,65291
87317,65248
87273,65193
87241,65133
87221,65065
87215,64997
87222,64928
87243,64862
87276,64801
87320,64748
87374,64704
87434,64672
87501,64652
87581,64644
87918,64644
87924,64644
87934,64645
87934,64645
88003,64653
88003,64653
88004,64653
88068,64674
88130,64708
88182,64751
88226,64806
88258,64866
88278,64934
88284,65002
" /> 
<polyline style="fill-rule:evenodd;"
points="88284,67502
88277,67571
88256,67637
88223,67698
88179,67751
88125,67795
88065,67827
87998,67847
87918,67855
87581,67855
87575,67855
87565,67854
87565,67854
87496,67846
87496,67846
87495,67846
87431,67825
87369,67791
87317,67748
87273,67693
87241,67633
87221,67565
87215,67497
87222,67428
87243,67362
87276,67301
87320,67248
87374,67204
87434,67172
87501,67152
87581,67144
87918,67144
87924,67144
87934,67145
87934,67145
88003,67153
88003,67153
88004,67153
88068,67174
88130,67208
88182,67251
88226,67306
88258,67366
88278,67434
88284,67502
" /> 
<polyline style="fill-rule:evenodd;"
points="88284,69502
88277,69571
88256,69637
88223,69698
88179,69751
88125,69795
88065,69827
87998,69847
87918,69855
87581,69855
87575,69855
87565,69854
87565,69854
87496,69846
87496,69846
87495,69846
87431,69825
87369,69791
87317,69748
87273,69693
87241,69633
87221,69565
87215,69497
87222,69428
87243,69362
87276,69301
87320,69248
87374,69204
87434,69172
87501,69152
87581,69144
87918,69144
87924,69144
87934,69145
87934,69145
88003,69153
88003,69153
88004,69153
88068,69174
88130,69208
88182,69251
88226,69306
88258,69366
88278,69434
88284,69502
" /> 
<polyline style="fill-rule:evenodd;"
points="88284,70502
88277,70571
88256,70637
88223,70698
88179,70751
88125,70795
88065,70827
87998,70847
87918,70855
87581,70855
87575,70855
87565,70854
87565,70854
87496,70846
87496,70846
87495,70846
87431,70825
87369,70791
87317,70748
87273,70693
87241,70633
87221,70565
87215,70497
87222,70428
87243,70362
87276,70301
87320,70248
87374,70204
87434,70172
87501,70152
87581,70144
87918,70144
87924,70144
87934,70145
87934,70145
88003,70153
88003,70153
88004,70153
88068,70174
88130,70208
88182,70251
88226,70306
88258,70366
88278,70434
88284,70502
" /> 
<polyline style="fill-rule:evenodd;"
points="88429,44212
88428,44299
88407,44390
88377,44459
88323,44535
88268,44587
88190,44636
88120,44664
88028,44680
87953,44678
87862,44658
87793,44628
87716,44575
87664,44521
87614,44442
87586,44373
87569,44281
87570,44206
87590,44114
87619,44046
87672,43968
87725,43917
87804,43865
87873,43837
87966,43819
88039,43820
88132,43839
88200,43867
88279,43921
88330,43973
88383,44052
88411,44119
88429,44212
" /> 
<polyline style="fill-rule:evenodd;"
points="88855,54418
88855,54424
88854,54434
88854,54434
88846,54503
88846,54503
88846,54504
88825,54568
88791,54630
88748,54682
88693,54726
88633,54758
88565,54778
88497,54784
88428,54777
88362,54756
88301,54723
88248,54679
88204,54625
88172,54565
88152,54498
88144,54418
88144,54081
88144,54075
88145,54065
88145,54065
88153,53996
88153,53996
88153,53995
88174,53931
88208,53869
88251,53817
88306,53773
88366,53741
88434,53721
88502,53715
88571,53722
88637,53743
88698,53776
88751,53820
88795,53874
88827,53934
88847,54001
88855,54081
88855,54418
" /> 
<polyline style="fill-rule:evenodd;"
points="88879,57467
88878,57543
88860,57624
88833,57684
88785,57752
88738,57797
88667,57842
88606,57865
88524,57880
88459,57878
88377,57860
88318,57834
88249,57787
88204,57740
88158,57669
88135,57609
88119,57526
88120,57462
88138,57379
88163,57320
88211,57251
88257,57206
88328,57159
88387,57135
88470,57119
88534,57120
88617,57137
88676,57162
88747,57209
88791,57254
88839,57326
88863,57384
88879,57467
" /> 
<polyline style="fill-rule:evenodd;"
points="88879,61467
88878,61543
88860,61624
88833,61684
88785,61752
88738,61797
88667,61842
88606,61865
88524,61880
88459,61878
88377,61860
88318,61834
88249,61787
88204,61740
88158,61669
88135,61609
88119,61526
88120,61462
88138,61379
88163,61320
88211,61251
88257,61206
88328,61159
88387,61135
88470,61119
88534,61120
88617,61137
88676,61162
88747,61209
88791,61254
88839,61326
88863,61384
88879,61467
" /> 
<polyline style="fill-rule:evenodd;"
points="89129,47217
89128,47293
89110,47374
89083,47434
89035,47502
88988,47547
88917,47592
88856,47615
88774,47630
88709,47628
88627,47610
88568,47584
88499,47537
88454,47490
88408,47419
88385,47359
88369,47276
88370,47212
88388,47129
88413,47070
88461,47001
88507,46956
88578,46909
88637,46885
88720,46869
88784,46870
88867,46887
88926,46912
88997,46959
89041,47004
89089,47076
89113,47134
89129,47217
" /> 
<polyline style="fill-rule:evenodd;"
points="89129,48467
89128,48543
89110,48624
89083,48684
89035,48752
88988,48797
88917,48842
88856,48865
88774,48880
88709,48878
88627,48860
88568,48834
88499,48787
88454,48740
88408,48669
88385,48609
88369,48526
88370,48462
88388,48379
88413,48320
88461,48251
88507,48206
88578,48159
88637,48135
88720,48119
88784,48120
88867,48137
88926,48162
88997,48209
89041,48254
89089,48326
89113,48384
89129,48467
" /> 
<polyline style="fill-rule:evenodd;"
points="89129,49967
89128,50043
89110,50124
89083,50184
89035,50252
88988,50297
88917,50342
88856,50365
88774,50380
88709,50378
88627,50360
88568,50334
88499,50287
88454,50240
88408,50169
88385,50109
88369,50026
88370,49962
88388,49879
88413,49820
88461,49751
88507,49706
88578,49659
88637,49635
88720,49619
88784,49620
88867,49637
88926,49662
88997,49709
89041,49754
89089,49826
89113,49884
89129,49967
" /> 
<polyline style="fill-rule:evenodd;"
points="89854,52719
89853,52790
89836,52866
89811,52922
89766,52985
89722,53027
89656,53069
89600,53091
89522,53105
89462,53103
89385,53087
89330,53062
89265,53017
89224,52974
89181,52908
89159,52852
89144,52774
89145,52715
89162,52637
89185,52582
89230,52517
89272,52475
89339,52432
89394,52410
89473,52394
89531,52395
89610,52411
89664,52434
89731,52479
89772,52520
89817,52587
89839,52641
89854,52719
" /> 
<polyline style="fill-rule:evenodd;"
points="89854,68604
89145,68604
89145,67895
89854,67895
89854,68604
" /> 
<polyline style="fill-rule:evenodd;"
points="89855,54418
89855,54424
89854,54434
89854,54434
89846,54503
89846,54503
89846,54504
89825,54568
89791,54630
89748,54682
89693,54726
89633,54758
89565,54778
89497,54784
89428,54777
89362,54756
89301,54723
89248,54679
89204,54625
89172,54565
89152,54498
89144,54418
89144,54081
89144,54075
89145,54065
89145,54065
89153,53996
89153,53996
89153,53995
89174,53931
89208,53869
89251,53817
89306,53773
89366,53741
89434,53721
89502,53715
89571,53722
89637,53743
89698,53776
89751,53820
89795,53874
89827,53934
89847,54001
89855,54081
89855,54418
" /> 
<polyline style="fill-rule:evenodd;"
points="90104,59354
89395,59354
89395,58645
90104,58645
90104,59354
" /> 
<polyline style="fill-rule:evenodd;"
points="90105,61168
90105,61174
90104,61184
90104,61184
90096,61253
90096,61253
90096,61254
90075,61318
90041,61380
89998,61432
89943,61476
89883,61508
89815,61528
89747,61534
89678,61527
89612,61506
89551,61473
89498,61429
89454,61375
89422,61315
89402,61248
89394,61168
89394,60831
89394,60825
89395,60815
89395,60815
89403,60746
89403,60746
89403,60745
89424,60681
89458,60619
89501,60567
89556,60523
89616,60491
89684,60471
89752,60465
89821,60472
89887,60493
89948,60526
90001,60570
90045,60624
90077,60684
90097,60751
90105,60831
90105,61168
" /> 
<polyline style="fill-rule:evenodd;"
points="90129,62467
90128,62543
90110,62624
90083,62684
90035,62752
89988,62797
89917,62842
89856,62865
89774,62880
89709,62878
89627,62860
89568,62834
89499,62787
89454,62740
89408,62669
89385,62609
89369,62526
89370,62462
89388,62379
89413,62320
89461,62251
89507,62206
89578,62159
89637,62135
89720,62119
89784,62120
89867,62137
89926,62162
89997,62209
90041,62254
90089,62326
90113,62384
90129,62467
" /> 
<polyline style="fill-rule:evenodd;"
points="90129,66467
90128,66543
90110,66624
90083,66684
90035,66752
89988,66797
89917,66842
89856,66865
89774,66880
89709,66878
89627,66860
89568,66834
89499,66787
89454,66740
89408,66669
89385,66609
89369,66526
89370,66462
89388,66379
89413,66320
89461,66251
89507,66206
89578,66159
89637,66135
89720,66119
89784,66120
89867,66137
89926,66162
89997,66209
90041,66254
90089,66326
90113,66384
90129,66467
" /> 
<polyline style="fill-rule:evenodd;"
points="90784,46252
90777,46321
90756,46387
90723,46448
90679,46501
90625,46545
90565,46577
90498,46597
90418,46605
90081,46605
90075,46605
90065,46604
90065,46604
89996,46596
89996,46596
89995,46596
89931,46575
89869,46541
89817,46498
89773,46443
89741,46383
89721,46315
89715,46247
89722,46178
89743,46112
89776,46051
89820,45998
89874,45954
89934,45922
90001,45902
90081,45894
90418,45894
90424,45894
90434,45895
90434,45895
90503,45903
90503,45903
90504,45903
90568,45924
90630,45958
90682,46001
90726,46056
90758,46116
90778,46184
90784,46252
" /> 
<polyline style="fill-rule:evenodd;"
points="90784,47252
90777,47321
90756,47387
90723,47448
90679,47501
90625,47545
90565,47577
90498,47597
90418,47605
90081,47605
90075,47605
90065,47604
90065,47604
89996,47596
89996,47596
89995,47596
89931,47575
89869,47541
89817,47498
89773,47443
89741,47383
89721,47315
89715,47247
89722,47178
89743,47112
89776,47051
89820,46998
89874,46954
89934,46922
90001,46902
90081,46894
90418,46894
90424,46894
90434,46895
90434,46895
90503,46903
90503,46903
90504,46903
90568,46924
90630,46958
90682,47001
90726,47056
90758,47116
90778,47184
90784,47252
" /> 
<polyline style="fill-rule:evenodd;"
points="90784,48252
90777,48321
90756,48387
90723,48448
90679,48501
90625,48545
90565,48577
90498,48597
90418,48605
90081,48605
90075,48605
90065,48604
90065,48604
89996,48596
89996,48596
89995,48596
89931,48575
89869,48541
89817,48498
89773,48443
89741,48383
89721,48315
89715,48247
89722,48178
89743,48112
89776,48051
89820,47998
89874,47954
89934,47922
90001,47902
90081,47894
90418,47894
90424,47894
90434,47895
90434,47895
90503,47903
90503,47903
90504,47903
90568,47924
90630,47958
90682,48001
90726,48056
90758,48116
90778,48184
90784,48252
" /> 
<polyline style="fill-rule:evenodd;"
points="90784,49252
90777,49321
90756,49387
90723,49448
90679,49501
90625,49545
90565,49577
90498,49597
90418,49605
90081,49605
90075,49605
90065,49604
90065,49604
89996,49596
89996,49596
89995,49596
89931,49575
89869,49541
89817,49498
89773,49443
89741,49383
89721,49315
89715,49247
89722,49178
89743,49112
89776,49051
89820,48998
89874,48954
89934,48922
90001,48902
90081,48894
90418,48894
90424,48894
90434,48895
90434,48895
90503,48903
90503,48903
90504,48903
90568,48924
90630,48958
90682,49001
90726,49056
90758,49116
90778,49184
90784,49252
" /> 
<polyline style="fill-rule:evenodd;"
points="90854,68219
90853,68290
90836,68366
90811,68422
90766,68485
90722,68527
90656,68569
90600,68591
90522,68605
90462,68603
90385,68587
90330,68562
90265,68517
90224,68474
90181,68408
90159,68352
90144,68274
90145,68215
90162,68137
90185,68082
90230,68017
90272,67975
90339,67932
90394,67910
90473,67894
90531,67895
90610,67911
90664,67934
90731,67979
90772,68020
90817,68087
90839,68141
90854,68219
" /> 
<polyline style="fill-rule:evenodd;"
points="91104,58969
91103,59040
91086,59116
91061,59172
91016,59235
90972,59277
90906,59319
90850,59341
90772,59355
90712,59353
90635,59337
90580,59312
90515,59267
90474,59224
90431,59158
90409,59102
90394,59024
90395,58965
90412,58887
90435,58832
90480,58767
90522,58725
90589,58682
90644,58660
90723,58644
90781,58645
90860,58661
90914,58684
90981,58729
91022,58770
91067,58837
91089,58891
91104,58969
" /> 
<polyline style="fill-rule:evenodd;"
points="91105,61168
91105,61174
91104,61184
91104,61184
91096,61253
91096,61253
91096,61254
91075,61318
91041,61380
90998,61432
90943,61476
90883,61508
90815,61528
90747,61534
90678,61527
90612,61506
90551,61473
90498,61429
90454,61375
90422,61315
90402,61248
90394,61168
90394,60831
90394,60825
90395,60815
90395,60815
90403,60746
90403,60746
90403,60745
90424,60681
90458,60619
90501,60567
90556,60523
90616,60491
90684,60471
90752,60465
90821,60472
90887,60493
90948,60526
91001,60570
91045,60624
91077,60684
91097,60751
91105,60831
91105,61168
" /> 
</g> 
</svg>
