<?xml version="1.0" standalone="no"?>
 <!DOCTYPE svg PUBLIC "-//W3C//DTD SVG 1.1//EN" 
 "http://www.w3.org/Graphics/SVG/1.1/DTD/svg11.dtd"> 
<svg xmlns="http://www.w3.org/2000/svg" version="1.1" 
    width="29.7002cm" height="21.0007cm" viewBox="0 0 116930 82680 ">
<title>SVG Picture created as power_split-B_Cu.svg date 2015/10/17 15:09:25 </title>
  <desc>Picture generated by PCBNEW </desc>
<g style="fill:#000000; fill-opacity:1;stroke:#000000; stroke-opacity:1;
stroke-linecap:round; stroke-linejoin:round; "
 transform="translate(0 0) scale(1 1)">
</g>
<g style="fill:#000000; fill-opacity:0.0; 
stroke:#000000; stroke-width:59.0551; stroke-opacity:1; 
stroke-linecap:round; stroke-linejoin:round;">
</g>
<g style="fill:#000000; fill-opacity:1.0; 
stroke:#000000; stroke-width:59.0551; stroke-opacity:1; 
stroke-linecap:round; stroke-linejoin:round;">
<circle cx="28000" cy="8500" r="470.472" /> 
<circle cx="30000" cy="8500" r="470.472" /> 
<polyline style="fill-rule:evenodd;"
points="7529,8720
7529,7779
8470,7779
8470,8720
7529,8720
" /> 
<circle cx="10000" cy="8250" r="470.472" /> 
<polyline style="fill-rule:evenodd;"
points="17529,8720
17529,7779
18470,7779
18470,8720
17529,8720
" /> 
<circle cx="20000" cy="8250" r="470.472" /> 
<polyline style="fill-rule:evenodd;"
points="12529,8720
12529,7779
13470,7779
13470,8720
12529,8720
" /> 
<circle cx="15000" cy="8250" r="470.472" /> 
<polyline style="fill-rule:evenodd;"
points="7529,16720
7529,15779
8470,15779
8470,16720
7529,16720
" /> 
<circle cx="10000" cy="16250" r="470.472" /> 
<polyline style="fill-rule:evenodd;"
points="17529,16720
17529,15779
18470,15779
18470,16720
17529,16720
" /> 
<circle cx="20000" cy="16250" r="470.472" /> 
<polyline style="fill-rule:evenodd;"
points="32529,8970
32529,8029
33470,8029
33470,8970
32529,8970
" /> 
<circle cx="35000" cy="8500" r="470.472" /> 
<circle cx="28000" cy="16500" r="470.472" /> 
<circle cx="30000" cy="16500" r="470.472" /> 
<polyline style="fill-rule:evenodd;"
points="32529,16970
32529,16029
33470,16029
33470,16970
32529,16970
" /> 
<circle cx="35000" cy="16500" r="470.472" /> 
<polyline style="fill-rule:evenodd;"
points="12529,16720
12529,15779
13470,15779
13470,16720
12529,16720
" /> 
<circle cx="15000" cy="16250" r="470.472" /> 
</g>
<g style="fill:#000000; fill-opacity:1.0; 
stroke:#000000; stroke-width:787.402; stroke-opacity:1; 
stroke-linecap:round; stroke-linejoin:round;">
<path d="M30000 16500
L30000 10000
" />
<path d="M30000 16500
L30000 15000
" />
<path d="M29500 14500
L29125 14500
" />
<path d="M30000 15000
L29500 14500
" />
<path d="M30000 16500
L29750 16500
" />
<path d="M29500 16250
L29500 16500
" />
<path d="M29750 16500
L29500 16250
" />
<path d="M30000 8500
L30000 9000
" />
<path d="M30000 9000
L29125 9875
" />
<path d="M30000 8500
L29750 8500
" />
<path d="M29750 8500
L29250 9000
" />
<path d="M28000 8500
L30000 8500
" />
<path d="M28750 11500
L28750 10000
" />
<path d="M28750 10000
L28500 9750
" />
<path d="M30000 16500
L30000 16000
" />
<path d="M30000 16000
L29125 15125
" />
<path d="M29125 15125
L29125 14500
" />
<path d="M29125 14500
L29125 9875
" />
<path d="M29125 9875
L29125 9625
" />
<path d="M29125 9625
L28000 8500
" />
<path d="M28000 16500
L29500 16500
" />
<path d="M29125 15125
L29250 15000
" />
<path d="M29250 15000
L29250 14500
" />
<path d="M28000 16500
L28250 16500
" />
<path d="M28250 16500
L29250 15500
" />
<path d="M28000 16500
L28000 15750
" />
<path d="M28000 15750
L29250 14500
" />
<path d="M29250 14500
L29250 14500
" />
<path d="M28000 16500
L28000 15000
" />
<path d="M28000 15000
L28500 14500
" />
<path d="M29250 14500
L29250 10750
" />
<path d="M28875 14125
L28875 11625
" />
<path d="M28875 11625
L28750 11500
" />
<path d="M28375 13875
L28375 11625
" />
<path d="M28375 11625
L28500 11500
" />
<path d="M28500 11500
L28750 11500
" />
<path d="M28750 11500
L28750 11250
" />
<path d="M28375 13625
L28375 13875
" />
<path d="M28375 11625
L28000 12000
" />
<path d="M30000 8500
L30000 10000
" />
<path d="M30000 10000
L29250 10750
" />
<path d="M29250 10750
L28750 11250
" />
<path d="M28750 11250
L28000 12000
" />
<path d="M28000 13250
L28000 12000
" />
<path d="M28000 12000
L28000 8500
" />
<path d="M29250 14500
L28875 14125
" />
<path d="M28875 14125
L28375 13625
" />
<path d="M28375 13625
L28000 13250
" />
<path d="M28000 16500
L28000 13250
" />
</g>
<g style="fill:#000000; fill-opacity:1.0; 
stroke:#000000; stroke-width:59.0551; stroke-opacity:1; 
stroke-linecap:round; stroke-linejoin:round;">
<polyline style="fill-rule:evenodd;"
points="10901,17651
7098,17651
7098,7000
7098,6848
10901,6848
10901,17651
" /> 
</g>
<g style="fill:#000000; fill-opacity:0.0; 
stroke:#000000; stroke-width:196.85; stroke-opacity:1; 
stroke-linecap:round; stroke-linejoin:round;">
<polyline fill="none;"
points="10901,17651
7098,17651
7098,7000
7098,6848
10901,6848
10901,17651
" /> 
</g>
<g style="fill:#000000; fill-opacity:1.0; 
stroke:#000000; stroke-width:59.0551; stroke-opacity:1; 
stroke-linecap:round; stroke-linejoin:round;">
<polyline style="fill-rule:evenodd;"
points="20901,17651
17098,17651
17098,7000
17098,6848
20901,6848
20901,17651
" /> 
</g>
<g style="fill:#000000; fill-opacity:0.0; 
stroke:#000000; stroke-width:196.85; stroke-opacity:1; 
stroke-linecap:round; stroke-linejoin:round;">
<polyline fill="none;"
points="20901,17651
17098,17651
17098,7000
17098,6848
20901,6848
20901,17651
" /> 
</g>
<g style="fill:#000000; fill-opacity:1.0; 
stroke:#000000; stroke-width:59.0551; stroke-opacity:1; 
stroke-linecap:round; stroke-linejoin:round;">
<polyline style="fill-rule:evenodd;"
points="15901,17651
15001,17651
15001,12349
15001,12250
15001,12150
15001,12149
15001,12149
15001,12149
14964,11959
14887,11774
14887,11774
14779,11612
14779,11612
14778,11611
14640,11473
14638,11471
14638,11471
14637,11470
14475,11362
14475,11362
14290,11285
14099,11247
13904,11248
13900,11248
13900,11248
13899,11248
13898,11248
13709,11285
13524,11362
13524,11362
13362,11470
13362,11470
13361,11471
13223,11609
13221,11611
13221,11611
13220,11612
13112,11774
13112,11774
13035,11959
12997,12150
12998,12250
12997,12349
13035,12540
13112,12725
13112,12725
13220,12887
13221,12888
13221,12888
13223,12890
13361,13028
13362,13029
13362,13029
13524,13137
13524,13137
13709,13214
13898,13251
13899,13251
13900,13251
13900,13251
13904,13251
14099,13252
14290,13214
14475,13137
14475,13137
14637,13029
14638,13028
14638,13028
14640,13026
14778,12888
14779,12887
14779,12887
14887,12725
14887,12725
14964,12540
15001,12350
15001,12350
15001,12350
15001,12349
15001,17651
12098,17651
12098,7000
12098,6848
15901,6848
15901,17651
" /> 
</g>
<g style="fill:#000000; fill-opacity:0.0; 
stroke:#000000; stroke-width:196.85; stroke-opacity:1; 
stroke-linecap:round; stroke-linejoin:round;">
<polyline fill="none;"
points="15901,17651
15001,17651
15001,12349
15001,12250
15001,12150
15001,12149
15001,12149
15001,12149
14964,11959
14887,11774
14887,11774
14779,11612
14779,11612
14778,11611
14640,11473
14638,11471
14638,11471
14637,11470
14475,11362
14475,11362
14290,11285
14099,11247
13904,11248
13900,11248
13900,11248
13899,11248
13898,11248
13709,11285
13524,11362
13524,11362
13362,11470
13362,11470
13361,11471
13223,11609
13221,11611
13221,11611
13220,11612
13112,11774
13112,11774
13035,11959
12997,12150
12998,12250
12997,12349
13035,12540
13112,12725
13112,12725
13220,12887
13221,12888
13221,12888
13223,12890
13361,13028
13362,13029
13362,13029
13524,13137
13524,13137
13709,13214
13898,13251
13899,13251
13900,13251
13900,13251
13904,13251
14099,13252
14290,13214
14475,13137
14475,13137
14637,13029
14638,13028
14638,13028
14640,13026
14778,12888
14779,12887
14779,12887
14887,12725
14887,12725
14964,12540
15001,12350
15001,12350
15001,12350
15001,12349
15001,17651
12098,17651
12098,7000
12098,6848
15901,6848
15901,17651
" /> 
</g>
<g style="fill:#000000; fill-opacity:1.0; 
stroke:#000000; stroke-width:59.0551; stroke-opacity:1; 
stroke-linecap:round; stroke-linejoin:round;">
<polyline style="fill-rule:evenodd;"
points="36651,18401
35001,18401
35001,12599
35001,12500
35001,12400
35001,12399
35001,12399
35001,12399
34964,12209
34887,12024
34887,12024
34779,11862
34779,11862
34778,11861
34640,11723
34638,11721
34638,11721
34637,11720
34475,11612
34475,11612
34290,11535
34099,11497
33904,11498
33900,11498
33900,11498
33899,11498
33898,11498
33709,11535
33524,11612
33524,11612
33362,11720
33362,11720
33361,11721
33223,11859
33221,11861
33221,11861
33220,11862
33112,12024
33112,12024
33035,12209
32997,12400
32998,12500
32997,12599
33035,12790
33112,12975
33112,12975
33220,13137
33221,13138
33221,13138
33223,13140
33361,13278
33362,13279
33362,13279
33524,13387
33524,13387
33709,13464
33898,13501
33899,13501
33900,13501
33900,13501
33904,13501
34099,13502
34290,13464
34475,13387
34475,13387
34637,13279
34638,13278
34638,13278
34640,13276
34778,13138
34779,13137
34779,13137
34887,12975
34887,12975
34964,12790
35001,12600
35001,12600
35001,12600
35001,12599
35001,18401
31386,18401
31386,16225
31279,15967
31279,15000
31279,10000
31279,9032
31385,8776
31386,8225
31175,7716
30786,7325
30276,7114
29725,7113
29467,7220
28532,7220
28276,7114
27725,7113
27216,7324
26825,7713
26614,8223
26613,8774
26720,9032
26720,12000
26720,13250
26720,15000
26720,15750
26720,15967
26614,16223
26613,16774
26824,17283
27213,17674
27723,17885
28274,17886
28532,17779
29467,17779
29723,17885
30274,17886
30783,17675
31174,17286
31385,16776
31386,16225
31386,18401
26348,18401
26348,6598
36651,6598
36651,18401
" /> 
</g>
<g style="fill:#000000; fill-opacity:0.0; 
stroke:#000000; stroke-width:196.85; stroke-opacity:1; 
stroke-linecap:round; stroke-linejoin:round;">
<polyline fill="none;"
points="36651,18401
35001,18401
35001,12599
35001,12500
35001,12400
35001,12399
35001,12399
35001,12399
34964,12209
34887,12024
34887,12024
34779,11862
34779,11862
34778,11861
34640,11723
34638,11721
34638,11721
34637,11720
34475,11612
34475,11612
34290,11535
34099,11497
33904,11498
33900,11498
33900,11498
33899,11498
33898,11498
33709,11535
33524,11612
33524,11612
33362,11720
33362,11720
33361,11721
33223,11859
33221,11861
33221,11861
33220,11862
33112,12024
33112,12024
33035,12209
32997,12400
32998,12500
32997,12599
33035,12790
33112,12975
33112,12975
33220,13137
33221,13138
33221,13138
33223,13140
33361,13278
33362,13279
33362,13279
33524,13387
33524,13387
33709,13464
33898,13501
33899,13501
33900,13501
33900,13501
33904,13501
34099,13502
34290,13464
34475,13387
34475,13387
34637,13279
34638,13278
34638,13278
34640,13276
34778,13138
34779,13137
34779,13137
34887,12975
34887,12975
34964,12790
35001,12600
35001,12600
35001,12600
35001,12599
35001,18401
31386,18401
31386,16225
31279,15967
31279,15000
31279,10000
31279,9032
31385,8776
31386,8225
31175,7716
30786,7325
30276,7114
29725,7113
29467,7220
28532,7220
28276,7114
27725,7113
27216,7324
26825,7713
26614,8223
26613,8774
26720,9032
26720,12000
26720,13250
26720,15000
26720,15750
26720,15967
26614,16223
26613,16774
26824,17283
27213,17674
27723,17885
28274,17886
28532,17779
29467,17779
29723,17885
30274,17886
30783,17675
31174,17286
31385,16776
31386,16225
31386,18401
26348,18401
26348,6598
36651,6598
36651,18401
" /> 
</g>
<g style="fill:#FFFFFF; fill-opacity:0.0; 
stroke:#FFFFFF; stroke-width:59.0551; stroke-opacity:1; 
stroke-linecap:round; stroke-linejoin:round;">
</g>
<g style="fill:#FFFFFF; fill-opacity:1.0; 
stroke:#FFFFFF; stroke-width:59.0551; stroke-opacity:1; 
stroke-linecap:round; stroke-linejoin:round;">
<circle cx="28000" cy="8500" r="39.3701" /> 
<circle cx="30000" cy="8500" r="39.3701" /> 
<circle cx="8000" cy="8250" r="39.3701" /> 
<circle cx="10000" cy="8250" r="39.3701" /> 
<circle cx="18000" cy="8250" r="39.3701" /> 
<circle cx="20000" cy="8250" r="39.3701" /> 
<circle cx="13000" cy="8250" r="39.3701" /> 
<circle cx="15000" cy="8250" r="39.3701" /> 
<circle cx="8000" cy="16250" r="39.3701" /> 
<circle cx="10000" cy="16250" r="39.3701" /> 
<circle cx="18000" cy="16250" r="39.3701" /> 
<circle cx="20000" cy="16250" r="39.3701" /> 
<circle cx="33000" cy="8500" r="39.3701" /> 
<circle cx="35000" cy="8500" r="39.3701" /> 
<circle cx="28000" cy="16500" r="39.3701" /> 
<circle cx="30000" cy="16500" r="39.3701" /> 
<circle cx="33000" cy="16500" r="39.3701" /> 
<circle cx="35000" cy="16500" r="39.3701" /> 
<circle cx="13000" cy="16250" r="39.3701" /> 
<circle cx="15000" cy="16250" r="39.3701" /> 
</g> 
</svg>
