<?xml version="1.0" standalone="no"?>
 <!DOCTYPE svg PUBLIC "-//W3C//DTD SVG 1.1//EN" 
 "http://www.w3.org/Graphics/SVG/1.1/DTD/svg11.dtd"> 
<svg xmlns="http://www.w3.org/2000/svg" version="1.1" 
    width="29.7002cm" height="21.0007cm" viewBox="0 0 116930 82680 ">
<title>SVG Picture created as power_split-F_Mask.svg date 2015/10/17 15:09:25 </title>
  <desc>Picture generated by PCBNEW </desc>
<g style="fill:#000000; fill-opacity:1;stroke:#000000; stroke-opacity:1;
stroke-linecap:round; stroke-linejoin:round; "
 transform="translate(0 0) scale(1 1)">
</g>
<g style="fill:#000000; fill-opacity:0.0; 
stroke:#000000; stroke-width:59.0551; stroke-opacity:1; 
stroke-linecap:round; stroke-linejoin:round;">
</g>
<g style="fill:#000000; fill-opacity:1.0; 
stroke:#000000; stroke-width:59.0551; stroke-opacity:1; 
stroke-linecap:round; stroke-linejoin:round;">
<circle cx="28000" cy="8500" r="470.472" /> 
<circle cx="30000" cy="8500" r="470.472" /> 
<polyline style="fill-rule:evenodd;"
points="7529,8720
7529,7779
8470,7779
8470,8720
7529,8720
" /> 
<circle cx="10000" cy="8250" r="470.472" /> 
<polyline style="fill-rule:evenodd;"
points="17529,8720
17529,7779
18470,7779
18470,8720
17529,8720
" /> 
<circle cx="20000" cy="8250" r="470.472" /> 
<polyline style="fill-rule:evenodd;"
points="12529,8720
12529,7779
13470,7779
13470,8720
12529,8720
" /> 
<circle cx="15000" cy="8250" r="470.472" /> 
<polyline style="fill-rule:evenodd;"
points="7529,16720
7529,15779
8470,15779
8470,16720
7529,16720
" /> 
<circle cx="10000" cy="16250" r="470.472" /> 
<polyline style="fill-rule:evenodd;"
points="17529,16720
17529,15779
18470,15779
18470,16720
17529,16720
" /> 
<circle cx="20000" cy="16250" r="470.472" /> 
<polyline style="fill-rule:evenodd;"
points="32529,8970
32529,8029
33470,8029
33470,8970
32529,8970
" /> 
<circle cx="35000" cy="8500" r="470.472" /> 
<circle cx="28000" cy="16500" r="470.472" /> 
<circle cx="30000" cy="16500" r="470.472" /> 
<polyline style="fill-rule:evenodd;"
points="32529,16970
32529,16029
33470,16029
33470,16970
32529,16970
" /> 
<circle cx="35000" cy="16500" r="470.472" /> 
<polyline style="fill-rule:evenodd;"
points="12529,16720
12529,15779
13470,15779
13470,16720
12529,16720
" /> 
<circle cx="15000" cy="16250" r="470.472" /> 
</g> 
</svg>
