<?xml version="1.0" standalone="no"?>
 <!DOCTYPE svg PUBLIC "-//W3C//DTD SVG 1.1//EN" 
 "http://www.w3.org/Graphics/SVG/1.1/DTD/svg11.dtd"> 
<svg xmlns="http://www.w3.org/2000/svg" version="1.1" 
    width="29.7002cm" height="21.0007cm" viewBox="0 0 116930 82680 ">
<title>SVG Picture created as power_split-F_SilkS.svg date 2015/10/17 15:09:25 </title>
  <desc>Picture generated by PCBNEW </desc>
<g style="fill:#000000; fill-opacity:1;stroke:#000000; stroke-opacity:1;
stroke-linecap:round; stroke-linejoin:round; "
 transform="translate(0 0) scale(1 1)">
</g>
<g style="fill:#000000; fill-opacity:0.0; 
stroke:#000000; stroke-width:120; stroke-opacity:1; 
stroke-linecap:round; stroke-linejoin:round;">
<path d="M31000 9500
L27000 9500
" />
<path d="M31000 10000
L31000 7000
" />
<path d="M31000 7000
L27000 7000
" />
<path d="M27000 7000
L27000 10000
" />
<path d="M27000 10000
L31000 10000
" />
<path d="M11000 9250
L7000 9250
" />
<path d="M11000 9750
L11000 6750
" />
<path d="M11000 6750
L7000 6750
" />
<path d="M7000 6750
L7000 9750
" />
<path d="M7000 9750
L11000 9750
" />
<path d="M21000 9250
L17000 9250
" />
<path d="M21000 9750
L21000 6750
" />
<path d="M21000 6750
L17000 6750
" />
<path d="M17000 6750
L17000 9750
" />
<path d="M17000 9750
L21000 9750
" />
<path d="M16000 9250
L12000 9250
" />
<path d="M16000 9750
L16000 6750
" />
<path d="M16000 6750
L12000 6750
" />
<path d="M12000 6750
L12000 9750
" />
<path d="M12000 9750
L16000 9750
" />
<path d="M11000 17250
L7000 17250
" />
<path d="M11000 17750
L11000 14750
" />
<path d="M11000 14750
L7000 14750
" />
<path d="M7000 14750
L7000 17750
" />
<path d="M7000 17750
L11000 17750
" />
<path d="M21000 17250
L17000 17250
" />
<path d="M21000 17750
L21000 14750
" />
<path d="M21000 14750
L17000 14750
" />
<path d="M17000 14750
L17000 17750
" />
<path d="M17000 17750
L21000 17750
" />
<path d="M36000 9500
L32000 9500
" />
<path d="M36000 10000
L36000 7000
" />
<path d="M36000 7000
L32000 7000
" />
<path d="M32000 7000
L32000 10000
" />
<path d="M32000 10000
L36000 10000
" />
<path d="M31000 17500
L27000 17500
" />
<path d="M31000 18000
L31000 15000
" />
<path d="M31000 15000
L27000 15000
" />
<path d="M27000 15000
L27000 18000
" />
<path d="M27000 18000
L31000 18000
" />
<path d="M36000 17500
L32000 17500
" />
<path d="M36000 18000
L36000 15000
" />
<path d="M36000 15000
L32000 15000
" />
<path d="M32000 15000
L32000 18000
" />
<path d="M32000 18000
L36000 18000
" />
<path d="M16000 17250
L12000 17250
" />
<path d="M16000 17750
L16000 14750
" />
<path d="M16000 14750
L12000 14750
" />
<path d="M12000 14750
L12000 17750
" />
<path d="M12000 17750
L16000 17750
" />
<path d="M27885 6742
L27542 6742
" />
<path d="M27714 6742
L27714 6142
L27657 6228
L27600 6285
L27542 6314
" />
<path d="M28114 6200
L28142 6171
L28200 6142
L28342 6142
L28400 6171
L28428 6200
L28457 6257
L28457 6314
L28428 6400
L28085 6742
L28457 6742
" />
<path d="M28628 6142
L28828 6742
L29028 6142
" />
<path d="M29228 6742
L29228 6142
" />
<path d="M29514 6742
L29514 6142
L29857 6742
L29857 6142
" />
<path d="M30457 6742
L30114 6742
" />
<path d="M30285 6742
L30285 6142
L30228 6228
L30171 6285
L30114 6314
" />
<path d="M27728 10685
L27700 10714
L27614 10742
L27557 10742
L27471 10714
L27414 10657
L27385 10600
L27357 10485
L27357 10400
L27385 10285
L27414 10228
L27471 10171
L27557 10142
L27614 10142
L27700 10171
L27728 10200
" />
<path d="M28100 10142
L28214 10142
L28271 10171
L28328 10228
L28357 10342
L28357 10542
L28328 10657
L28271 10714
L28214 10742
L28100 10742
L28042 10714
L27985 10657
L27957 10542
L27957 10342
L27985 10228
L28042 10171
L28100 10142
" />
<path d="M28614 10742
L28614 10142
L28957 10742
L28957 10142
" />
<path d="M29242 10742
L29242 10142
L29585 10742
L29585 10142
" />
<path d="M29728 10800
L30185 10800
" />
<path d="M30300 10200
L30328 10171
L30385 10142
L30528 10142
L30585 10171
L30614 10200
L30642 10257
L30642 10314
L30614 10400
L30271 10742
L30642 10742
" />
<path d="M7457 6264
L7914 6264
" />
<path d="M7685 6492
L7685 6035
" />
<path d="M8457 6092
L8457 6492
" />
<path d="M8314 5864
L8171 6292
L8542 6292
" />
<path d="M9057 5892
L8771 5892
L8742 6178
L8771 6150
L8828 6121
L8971 6121
L9028 6150
L9057 6178
L9085 6235
L9085 6378
L9057 6435
L9028 6464
L8971 6492
L8828 6492
L8771 6464
L8742 6435
" />
<path d="M9342 6492
L9342 5892
" />
<path d="M9628 6492
L9628 5892
L9971 6492
L9971 5892
" />
<path d="M10571 6492
L10228 6492
" />
<path d="M10400 6492
L10400 5892
L10342 5978
L10285 6035
L10228 6064
" />
<path d="M7728 10435
L7700 10464
L7614 10492
L7557 10492
L7471 10464
L7414 10407
L7385 10350
L7357 10235
L7357 10150
L7385 10035
L7414 9978
L7471 9921
L7557 9892
L7614 9892
L7700 9921
L7728 9950
" />
<path d="M8100 9892
L8214 9892
L8271 9921
L8328 9978
L8357 10092
L8357 10292
L8328 10407
L8271 10464
L8214 10492
L8100 10492
L8042 10464
L7985 10407
L7957 10292
L7957 10092
L7985 9978
L8042 9921
L8100 9892
" />
<path d="M8614 10492
L8614 9892
L8957 10492
L8957 9892
" />
<path d="M9242 10492
L9242 9892
L9585 10492
L9585 9892
" />
<path d="M9728 10550
L10185 10550
" />
<path d="M10300 9950
L10328 9921
L10385 9892
L10528 9892
L10585 9921
L10614 9950
L10642 10007
L10642 10064
L10614 10150
L10271 10492
L10642 10492
" />
<path d="M17457 6264
L17914 6264
" />
<path d="M18457 6092
L18457 6492
" />
<path d="M18314 5864
L18171 6292
L18542 6292
" />
<path d="M19057 5892
L18771 5892
L18742 6178
L18771 6150
L18828 6121
L18971 6121
L19028 6150
L19057 6178
L19085 6235
L19085 6378
L19057 6435
L19028 6464
L18971 6492
L18828 6492
L18771 6464
L18742 6435
" />
<path d="M19342 6492
L19342 5892
" />
<path d="M19628 6492
L19628 5892
L19971 6492
L19971 5892
" />
<path d="M20571 6492
L20228 6492
" />
<path d="M20400 6492
L20400 5892
L20342 5978
L20285 6035
L20228 6064
" />
<path d="M17728 10435
L17700 10464
L17614 10492
L17557 10492
L17471 10464
L17414 10407
L17385 10350
L17357 10235
L17357 10150
L17385 10035
L17414 9978
L17471 9921
L17557 9892
L17614 9892
L17700 9921
L17728 9950
" />
<path d="M18100 9892
L18214 9892
L18271 9921
L18328 9978
L18357 10092
L18357 10292
L18328 10407
L18271 10464
L18214 10492
L18100 10492
L18042 10464
L17985 10407
L17957 10292
L17957 10092
L17985 9978
L18042 9921
L18100 9892
" />
<path d="M18614 10492
L18614 9892
L18957 10492
L18957 9892
" />
<path d="M19242 10492
L19242 9892
L19585 10492
L19585 9892
" />
<path d="M19728 10550
L20185 10550
" />
<path d="M20300 9950
L20328 9921
L20385 9892
L20528 9892
L20585 9921
L20614 9950
L20642 10007
L20642 10064
L20614 10150
L20271 10492
L20642 10492
" />
<path d="M11971 6321
L12257 6321
" />
<path d="M11914 6492
L12114 5892
L12314 6492
" />
<path d="M12828 5921
L12771 5892
L12685 5892
L12600 5921
L12542 5978
L12514 6035
L12485 6150
L12485 6235
L12514 6350
L12542 6407
L12600 6464
L12685 6492
L12742 6492
L12828 6464
L12857 6435
L12857 6235
L12742 6235
" />
<path d="M13114 6492
L13114 5892
L13457 6492
L13457 5892
" />
<path d="M13742 6492
L13742 5892
L13885 5892
L13971 5921
L14028 5978
L14057 6035
L14085 6150
L14085 6235
L14057 6350
L14028 6407
L13971 6464
L13885 6492
L13742 6492
" />
<path d="M14200 6550
L14657 6550
" />
<path d="M14800 6492
L14800 5892
" />
<path d="M15085 6492
L15085 5892
L15428 6492
L15428 5892
" />
<path d="M16028 6492
L15685 6492
" />
<path d="M15857 6492
L15857 5892
L15799 5978
L15742 6035
L15685 6064
" />
<path d="M12728 10435
L12700 10464
L12614 10492
L12557 10492
L12471 10464
L12414 10407
L12385 10350
L12357 10235
L12357 10150
L12385 10035
L12414 9978
L12471 9921
L12557 9892
L12614 9892
L12700 9921
L12728 9950
" />
<path d="M13100 9892
L13214 9892
L13271 9921
L13328 9978
L13357 10092
L13357 10292
L13328 10407
L13271 10464
L13214 10492
L13100 10492
L13042 10464
L12985 10407
L12957 10292
L12957 10092
L12985 9978
L13042 9921
L13100 9892
" />
<path d="M13614 10492
L13614 9892
L13957 10492
L13957 9892
" />
<path d="M14242 10492
L14242 9892
L14585 10492
L14585 9892
" />
<path d="M14728 10550
L15185 10550
" />
<path d="M15300 9950
L15328 9921
L15385 9892
L15528 9892
L15585 9921
L15614 9950
L15642 10007
L15642 10064
L15614 10150
L15271 10492
L15642 10492
" />
<path d="M7057 18514
L7514 18514
" />
<path d="M7285 18742
L7285 18285
" />
<path d="M8057 18342
L8057 18742
" />
<path d="M7914 18114
L7771 18542
L8142 18542
" />
<path d="M8657 18142
L8371 18142
L8342 18428
L8371 18400
L8428 18371
L8571 18371
L8628 18400
L8657 18428
L8685 18485
L8685 18628
L8657 18685
L8628 18714
L8571 18742
L8428 18742
L8371 18714
L8342 18685
" />
<path d="M9057 18142
L9171 18142
L9228 18171
L9285 18228
L9314 18342
L9314 18542
L9285 18657
L9228 18714
L9171 18742
L9057 18742
L9000 18714
L8942 18657
L8914 18542
L8914 18342
L8942 18228
L9000 18171
L9057 18142
" />
<path d="M9571 18142
L9571 18628
L9600 18685
L9628 18714
L9685 18742
L9800 18742
L9857 18714
L9885 18685
L9914 18628
L9914 18142
" />
<path d="M10114 18142
L10457 18142
" />
<path d="M10285 18742
L10285 18142
" />
<path d="M10971 18742
L10628 18742
" />
<path d="M10800 18742
L10800 18142
L10742 18228
L10685 18285
L10628 18314
" />
<path d="M7728 14435
L7700 14464
L7614 14492
L7557 14492
L7471 14464
L7414 14407
L7385 14350
L7357 14235
L7357 14150
L7385 14035
L7414 13978
L7471 13921
L7557 13892
L7614 13892
L7700 13921
L7728 13950
" />
<path d="M8100 13892
L8214 13892
L8271 13921
L8328 13978
L8357 14092
L8357 14292
L8328 14407
L8271 14464
L8214 14492
L8100 14492
L8042 14464
L7985 14407
L7957 14292
L7957 14092
L7985 13978
L8042 13921
L8100 13892
" />
<path d="M8614 14492
L8614 13892
L8957 14492
L8957 13892
" />
<path d="M9242 14492
L9242 13892
L9585 14492
L9585 13892
" />
<path d="M9728 14550
L10185 14550
" />
<path d="M10300 13950
L10328 13921
L10385 13892
L10528 13892
L10585 13921
L10614 13950
L10642 14007
L10642 14064
L10614 14150
L10271 14492
L10642 14492
" />
<path d="M16807 18514
L17264 18514
" />
<path d="M17807 18342
L17807 18742
" />
<path d="M17664 18114
L17521 18542
L17892 18542
" />
<path d="M18407 18142
L18121 18142
L18092 18428
L18121 18400
L18178 18371
L18321 18371
L18378 18400
L18407 18428
L18435 18485
L18435 18628
L18407 18685
L18378 18714
L18321 18742
L18178 18742
L18121 18714
L18092 18685
" />
<path d="M18807 18142
L18921 18142
L18978 18171
L19035 18228
L19064 18342
L19064 18542
L19035 18657
L18978 18714
L18921 18742
L18807 18742
L18750 18714
L18692 18657
L18664 18542
L18664 18342
L18692 18228
L18750 18171
L18807 18142
" />
<path d="M19321 18142
L19321 18628
L19350 18685
L19378 18714
L19435 18742
L19550 18742
L19607 18714
L19635 18685
L19664 18628
L19664 18142
" />
<path d="M19864 18142
L20207 18142
" />
<path d="M20035 18742
L20035 18142
" />
<path d="M20721 18742
L20378 18742
" />
<path d="M20550 18742
L20550 18142
L20492 18228
L20435 18285
L20378 18314
" />
<path d="M17728 14435
L17700 14464
L17614 14492
L17557 14492
L17471 14464
L17414 14407
L17385 14350
L17357 14235
L17357 14150
L17385 14035
L17414 13978
L17471 13921
L17557 13892
L17614 13892
L17700 13921
L17728 13950
" />
<path d="M18100 13892
L18214 13892
L18271 13921
L18328 13978
L18357 14092
L18357 14292
L18328 14407
L18271 14464
L18214 14492
L18100 14492
L18042 14464
L17985 14407
L17957 14292
L17957 14092
L17985 13978
L18042 13921
L18100 13892
" />
<path d="M18614 14492
L18614 13892
L18957 14492
L18957 13892
" />
<path d="M19242 14492
L19242 13892
L19585 14492
L19585 13892
" />
<path d="M19728 14550
L20185 14550
" />
<path d="M20300 13950
L20328 13921
L20385 13892
L20528 13892
L20585 13921
L20614 13950
L20642 14007
L20642 14064
L20614 14150
L20271 14492
L20642 14492
" />
<path d="M31957 6742
L31957 6142
L32100 6142
L32185 6171
L32242 6228
L32271 6285
L32300 6400
L32300 6485
L32271 6600
L32242 6657
L32185 6714
L32100 6742
L31957 6742
" />
<path d="M32871 6171
L32814 6142
L32728 6142
L32642 6171
L32585 6228
L32557 6285
L32528 6400
L32528 6485
L32557 6600
L32585 6657
L32642 6714
L32728 6742
L32785 6742
L32871 6714
L32900 6685
L32900 6485
L32785 6485
" />
<path d="M33157 6742
L33157 6142
L33500 6742
L33500 6142
" />
<path d="M33785 6742
L33785 6142
L33928 6142
L34014 6171
L34071 6228
L34100 6285
L34128 6400
L34128 6485
L34100 6600
L34071 6657
L34014 6714
L33928 6742
L33785 6742
" />
<path d="M34242 6800
L34700 6800
" />
<path d="M34842 6742
L34842 6142
" />
<path d="M35128 6742
L35128 6142
L35471 6742
L35471 6142
" />
<path d="M36071 6742
L35728 6742
" />
<path d="M35899 6742
L35899 6142
L35842 6228
L35785 6285
L35728 6314
" />
<path d="M32728 10685
L32700 10714
L32614 10742
L32557 10742
L32471 10714
L32414 10657
L32385 10600
L32357 10485
L32357 10400
L32385 10285
L32414 10228
L32471 10171
L32557 10142
L32614 10142
L32700 10171
L32728 10200
" />
<path d="M33100 10142
L33214 10142
L33271 10171
L33328 10228
L33357 10342
L33357 10542
L33328 10657
L33271 10714
L33214 10742
L33100 10742
L33042 10714
L32985 10657
L32957 10542
L32957 10342
L32985 10228
L33042 10171
L33100 10142
" />
<path d="M33614 10742
L33614 10142
L33957 10742
L33957 10142
" />
<path d="M34242 10742
L34242 10142
L34585 10742
L34585 10142
" />
<path d="M34728 10800
L35185 10800
" />
<path d="M35300 10200
L35328 10171
L35385 10142
L35528 10142
L35585 10171
L35614 10200
L35642 10257
L35642 10314
L35614 10400
L35271 10742
L35642 10742
" />
<path d="M27485 14742
L27142 14742
" />
<path d="M27314 14742
L27314 14142
L27257 14228
L27200 14285
L27142 14314
" />
<path d="M27714 14200
L27742 14171
L27800 14142
L27942 14142
L28000 14171
L28028 14200
L28057 14257
L28057 14314
L28028 14400
L27685 14742
L28057 14742
" />
<path d="M28228 14142
L28428 14742
L28628 14142
" />
<path d="M28942 14142
L29057 14142
L29114 14171
L29171 14228
L29200 14342
L29200 14542
L29171 14657
L29114 14714
L29057 14742
L28942 14742
L28885 14714
L28828 14657
L28800 14542
L28800 14342
L28828 14228
L28885 14171
L28942 14142
" />
<path d="M29457 14142
L29457 14628
L29485 14685
L29514 14714
L29571 14742
L29685 14742
L29742 14714
L29771 14685
L29800 14628
L29800 14142
" />
<path d="M30000 14142
L30342 14142
" />
<path d="M30171 14742
L30171 14142
" />
<path d="M30857 14742
L30514 14742
" />
<path d="M30685 14742
L30685 14142
L30628 14228
L30571 14285
L30514 14314
" />
<path d="M27728 18685
L27700 18714
L27614 18742
L27557 18742
L27471 18714
L27414 18657
L27385 18600
L27357 18485
L27357 18400
L27385 18285
L27414 18228
L27471 18171
L27557 18142
L27614 18142
L27700 18171
L27728 18200
" />
<path d="M28100 18142
L28214 18142
L28271 18171
L28328 18228
L28357 18342
L28357 18542
L28328 18657
L28271 18714
L28214 18742
L28100 18742
L28042 18714
L27985 18657
L27957 18542
L27957 18342
L27985 18228
L28042 18171
L28100 18142
" />
<path d="M28614 18742
L28614 18142
L28957 18742
L28957 18142
" />
<path d="M29242 18742
L29242 18142
L29585 18742
L29585 18142
" />
<path d="M29728 18800
L30185 18800
" />
<path d="M30300 18200
L30328 18171
L30385 18142
L30528 18142
L30585 18171
L30614 18200
L30642 18257
L30642 18314
L30614 18400
L30271 18742
L30642 18742
" />
<path d="M31557 14742
L31557 14142
L31700 14142
L31785 14171
L31842 14228
L31871 14285
L31900 14400
L31900 14485
L31871 14600
L31842 14657
L31785 14714
L31700 14742
L31557 14742
" />
<path d="M32471 14171
L32414 14142
L32328 14142
L32242 14171
L32185 14228
L32157 14285
L32128 14400
L32128 14485
L32157 14600
L32185 14657
L32242 14714
L32328 14742
L32385 14742
L32471 14714
L32500 14685
L32500 14485
L32385 14485
" />
<path d="M32757 14742
L32757 14142
L33100 14742
L33100 14142
" />
<path d="M33385 14742
L33385 14142
L33528 14142
L33614 14171
L33671 14228
L33700 14285
L33728 14400
L33728 14485
L33700 14600
L33671 14657
L33614 14714
L33528 14742
L33385 14742
" />
<path d="M33842 14800
L34300 14800
" />
<path d="M34557 14142
L34671 14142
L34728 14171
L34785 14228
L34814 14342
L34814 14542
L34785 14657
L34728 14714
L34671 14742
L34557 14742
L34500 14714
L34442 14657
L34414 14542
L34414 14342
L34442 14228
L34500 14171
L34557 14142
" />
<path d="M35071 14142
L35071 14628
L35100 14685
L35128 14714
L35185 14742
L35300 14742
L35357 14714
L35385 14685
L35414 14628
L35414 14142
" />
<path d="M35614 14142
L35957 14142
" />
<path d="M35785 14742
L35785 14142
" />
<path d="M36471 14742
L36128 14742
" />
<path d="M36299 14742
L36299 14142
L36242 14228
L36185 14285
L36128 14314
" />
<path d="M32728 18685
L32700 18714
L32614 18742
L32557 18742
L32471 18714
L32414 18657
L32385 18600
L32357 18485
L32357 18400
L32385 18285
L32414 18228
L32471 18171
L32557 18142
L32614 18142
L32700 18171
L32728 18200
" />
<path d="M33100 18142
L33214 18142
L33271 18171
L33328 18228
L33357 18342
L33357 18542
L33328 18657
L33271 18714
L33214 18742
L33100 18742
L33042 18714
L32985 18657
L32957 18542
L32957 18342
L32985 18228
L33042 18171
L33100 18142
" />
<path d="M33614 18742
L33614 18142
L33957 18742
L33957 18142
" />
<path d="M34242 18742
L34242 18142
L34585 18742
L34585 18142
" />
<path d="M34728 18800
L35185 18800
" />
<path d="M35300 18200
L35328 18171
L35385 18142
L35528 18142
L35585 18171
L35614 18200
L35642 18257
L35642 18314
L35614 18400
L35271 18742
L35642 18742
" />
<path d="M11571 18571
L11857 18571
" />
<path d="M11514 18742
L11714 18142
L11914 18742
" />
<path d="M12428 18171
L12371 18142
L12285 18142
L12200 18171
L12142 18228
L12114 18285
L12085 18400
L12085 18485
L12114 18600
L12142 18657
L12200 18714
L12285 18742
L12342 18742
L12428 18714
L12457 18685
L12457 18485
L12342 18485
" />
<path d="M12714 18742
L12714 18142
L13057 18742
L13057 18142
" />
<path d="M13342 18742
L13342 18142
L13485 18142
L13571 18171
L13628 18228
L13657 18285
L13685 18400
L13685 18485
L13657 18600
L13628 18657
L13571 18714
L13485 18742
L13342 18742
" />
<path d="M13800 18800
L14257 18800
" />
<path d="M14514 18142
L14628 18142
L14685 18171
L14742 18228
L14771 18342
L14771 18542
L14742 18657
L14685 18714
L14628 18742
L14514 18742
L14457 18714
L14400 18657
L14371 18542
L14371 18342
L14400 18228
L14457 18171
L14514 18142
" />
<path d="M15028 18142
L15028 18628
L15057 18685
L15085 18714
L15142 18742
L15257 18742
L15314 18714
L15342 18685
L15371 18628
L15371 18142
" />
<path d="M15571 18142
L15914 18142
" />
<path d="M15742 18742
L15742 18142
" />
<path d="M16428 18742
L16085 18742
" />
<path d="M16257 18742
L16257 18142
L16199 18228
L16142 18285
L16085 18314
" />
<path d="M12728 14435
L12700 14464
L12614 14492
L12557 14492
L12471 14464
L12414 14407
L12385 14350
L12357 14235
L12357 14150
L12385 14035
L12414 13978
L12471 13921
L12557 13892
L12614 13892
L12700 13921
L12728 13950
" />
<path d="M13100 13892
L13214 13892
L13271 13921
L13328 13978
L13357 14092
L13357 14292
L13328 14407
L13271 14464
L13214 14492
L13100 14492
L13042 14464
L12985 14407
L12957 14292
L12957 14092
L12985 13978
L13042 13921
L13100 13892
" />
<path d="M13614 14492
L13614 13892
L13957 14492
L13957 13892
" />
<path d="M14242 14492
L14242 13892
L14585 14492
L14585 13892
" />
<path d="M14728 14550
L15185 14550
" />
<path d="M15300 13950
L15328 13921
L15385 13892
L15528 13892
L15585 13921
L15614 13950
L15642 14007
L15642 14064
L15614 14150
L15271 14492
L15642 14492
" />
</g> 
</svg>
