<?xml version="1.0" standalone="no"?>
 <!DOCTYPE svg PUBLIC "-//W3C//DTD SVG 1.1//EN" 
 "http://www.w3.org/Graphics/SVG/1.1/DTD/svg11.dtd"> 
<svg xmlns="http://www.w3.org/2000/svg" version="1.1" 
    width="41.9989cm" height="29.7002cm" viewBox="0 0 165350 116930 ">
<title>SVG Picture created as selector_rid_ground-F_SilkS.svg date 2015/06/17 18:06:59 </title>
  <desc>Picture generated by PCBNEW </desc>
<g style="fill:#000000; fill-opacity:1;stroke:#000000; stroke-opacity:1;
stroke-linecap:round; stroke-linejoin:round; "
 transform="translate(0 0) scale(1 1)">
</g>
<g style="fill:#000000; fill-opacity:0.0; 
stroke:#000000; stroke-width:39.3701; stroke-opacity:1; 
stroke-linecap:round; stroke-linejoin:round;">
<circle cx="20000" cy="37500" r="500" /> 
<circle cx="35000" cy="35750" r="500" /> 
<circle cx="35000" cy="48750" r="500" /> 
<circle cx="20000" cy="48750" r="500" /> 
<circle cx="64750" cy="42500" r="500" /> 
<circle cx="55750" cy="52250" r="500" /> 
<circle cx="49250" cy="37250" r="500" /> 
<circle cx="51250" cy="46250" r="500" /> 
<circle cx="81250" cy="53500" r="500" /> 
<circle cx="69250" cy="53750" r="500" /> 
<circle cx="72250" cy="29500" r="500" /> 
<circle cx="60000" cy="29500" r="500" /> 
<circle cx="47500" cy="29500" r="500" /> 
<circle cx="86500" cy="34250" r="500" /> 
</g>
<g style="fill:#000000; fill-opacity:0.0; 
stroke:#000000; stroke-width:120; stroke-opacity:1; 
stroke-linecap:round; stroke-linejoin:round;">
<path d="M81000 35750
L81400 35750
" />
<path d="M81400 35750
L81400 35350
" />
<path d="M81400 35350
L84600 35350
" />
<path d="M84600 35350
L84600 36150
" />
<path d="M84600 36150
L81400 36150
" />
<path d="M81400 36150
L81400 35750
" />
<path d="M81400 35550
L81600 35350
" />
<path d="M85000 35750
L84600 35750
" />
</g>
<g style="fill:#000000; fill-opacity:0.0; 
stroke:#000000; stroke-width:150; stroke-opacity:1; 
stroke-linecap:round; stroke-linejoin:round;">
<path d="M55250 33000
L55250 41000
" />
<path d="M53250 41000
L53250 33000
" />
<path d="M53250 33000
L55250 33000
" />
<path d="M54750 33000
L54750 33500
" />
<path d="M54750 33500
L53750 33500
" />
<path d="M53750 33500
L53750 33000
" />
<path d="M55250 41000
L53250 41000
" />
</g>
<g style="fill:#000000; fill-opacity:0.0; 
stroke:#000000; stroke-width:120; stroke-opacity:1; 
stroke-linecap:round; stroke-linejoin:round;">
<path d="M51500 35000
L51500 35300
" />
<path d="M51500 35300
L51100 35300
" />
<path d="M51100 35300
L51100 37700
" />
<path d="M51100 37700
L51500 37700
" />
<path d="M51500 37700
L51500 38000
" />
<path d="M51500 37700
L51900 37700
" />
<path d="M51900 37700
L51900 35300
" />
<path d="M51900 35300
L51500 35300
" />
<path d="M51100 35500
L51900 35500
" />
<path d="M51900 35600
L51100 35600
" />
<path d="M49250 31250
L49250 28250
" />
<path d="M55250 31250
L55250 28250
" />
<path d="M49250 30750
L55250 30750
" />
<path d="M49250 28250
L55250 28250
" />
<path d="M49250 31250
L55250 31250
" />
<path d="M50500 45000
L47500 45000
" />
<path d="M50500 39000
L47500 39000
" />
<path d="M50000 45000
L50000 39000
" />
<path d="M47500 45000
L47500 39000
" />
<path d="M50500 45000
L50500 39000
" />
<path d="M82500 37500
L82500 37900
" />
<path d="M82500 37900
L82900 37900
" />
<path d="M82900 37900
L82900 41100
" />
<path d="M82900 41100
L82100 41100
" />
<path d="M82100 41100
L82100 37900
" />
<path d="M82100 37900
L82500 37900
" />
<path d="M82700 37900
L82900 38100
" />
<path d="M82500 41500
L82500 41100
" />
</g>
<g style="fill:#000000; fill-opacity:0.0; 
stroke:#000000; stroke-width:150; stroke-opacity:1; 
stroke-linecap:round; stroke-linejoin:round;">
<path d="M69000 33000
L69000 41000
" />
<path d="M67000 41000
L67000 33000
" />
<path d="M67000 33000
L69000 33000
" />
<path d="M68500 33000
L68500 33500
" />
<path d="M68500 33500
L67500 33500
" />
<path d="M67500 33500
L67500 33000
" />
<path d="M69000 41000
L67000 41000
" />
</g>
<g style="fill:#000000; fill-opacity:0.0; 
stroke:#000000; stroke-width:120; stroke-opacity:1; 
stroke-linecap:round; stroke-linejoin:round;">
<path d="M65250 35000
L65250 35300
" />
<path d="M65250 35300
L64850 35300
" />
<path d="M64850 35300
L64850 37700
" />
<path d="M64850 37700
L65250 37700
" />
<path d="M65250 37700
L65250 38000
" />
<path d="M65250 37700
L65650 37700
" />
<path d="M65650 37700
L65650 35300
" />
<path d="M65650 35300
L65250 35300
" />
<path d="M64850 35500
L65650 35500
" />
<path d="M65650 35600
L64850 35600
" />
<path d="M79750 52000
L79750 55000
" />
<path d="M73750 52000
L73750 55000
" />
<path d="M79750 52500
L73750 52500
" />
<path d="M79750 55000
L73750 55000
" />
<path d="M79750 52000
L73750 52000
" />
<path d="M86750 54500
L82750 54500
" />
<path d="M86750 55000
L86750 52000
" />
<path d="M86750 52000
L82750 52000
" />
<path d="M82750 52000
L82750 55000
" />
<path d="M82750 55000
L86750 55000
" />
</g>
<g style="fill:#000000; fill-opacity:0.0; 
stroke:#000000; stroke-width:150; stroke-opacity:1; 
stroke-linecap:round; stroke-linejoin:round;">
<path d="M62000 33000
L62000 41000
" />
<path d="M60000 41000
L60000 33000
" />
<path d="M60000 33000
L62000 33000
" />
<path d="M61500 33000
L61500 33500
" />
<path d="M61500 33500
L60500 33500
" />
<path d="M60500 33500
L60500 33000
" />
<path d="M62000 41000
L60000 41000
" />
<path d="M76250 33000
L76250 41000
" />
<path d="M74250 41000
L74250 33000
" />
<path d="M74250 33000
L76250 33000
" />
<path d="M75750 33000
L75750 33500
" />
<path d="M75750 33500
L74750 33500
" />
<path d="M74750 33500
L74750 33000
" />
<path d="M76250 41000
L74250 41000
" />
</g>
<g style="fill:#000000; fill-opacity:0.0; 
stroke:#000000; stroke-width:120; stroke-opacity:1; 
stroke-linecap:round; stroke-linejoin:round;">
<path d="M58250 35000
L58250 35300
" />
<path d="M58250 35300
L57850 35300
" />
<path d="M57850 35300
L57850 37700
" />
<path d="M57850 37700
L58250 37700
" />
<path d="M58250 37700
L58250 38000
" />
<path d="M58250 37700
L58650 37700
" />
<path d="M58650 37700
L58650 35300
" />
<path d="M58650 35300
L58250 35300
" />
<path d="M57850 35500
L58650 35500
" />
<path d="M58650 35600
L57850 35600
" />
<path d="M72500 35000
L72500 35300
" />
<path d="M72500 35300
L72100 35300
" />
<path d="M72100 35300
L72100 37700
" />
<path d="M72100 37700
L72500 37700
" />
<path d="M72500 37700
L72500 38000
" />
<path d="M72500 37700
L72900 37700
" />
<path d="M72900 37700
L72900 35300
" />
<path d="M72900 35300
L72500 35300
" />
<path d="M72100 35500
L72900 35500
" />
<path d="M72900 35600
L72100 35600
" />
</g>
<g style="fill:#000000; fill-opacity:0.0; 
stroke:#000000; stroke-width:60; stroke-opacity:1; 
stroke-linecap:round; stroke-linejoin:round;">
<path d="M86000 37750
L87000 37750
" />
<path d="M87000 37750
L87000 39750
" />
<path d="M87000 39750
L86000 39750
" />
<path d="M86000 39750
L86000 37750
" />
</g>
<g style="fill:#000000; fill-opacity:0.0; 
stroke:#000000; stroke-width:50; stroke-opacity:1; 
stroke-linecap:round; stroke-linejoin:round;">
<circle cx="84750" cy="50750" r="1001.25" /> 
</g>
<g style="fill:#000000; fill-opacity:0.0; 
stroke:#000000; stroke-width:120; stroke-opacity:1; 
stroke-linecap:round; stroke-linejoin:round;">
<path d="M84000 44250
L84000 43850
" />
<path d="M84000 43850
L83600 43850
" />
<path d="M83600 43850
L83600 40650
" />
<path d="M83600 40650
L84400 40650
" />
<path d="M84400 40650
L84400 43850
" />
<path d="M84400 43850
L84000 43850
" />
<path d="M83800 43850
L83600 43650
" />
<path d="M84000 40250
L84000 40650
" />
<path d="M86500 47000
L86500 46600
" />
<path d="M86500 46600
L86100 46600
" />
<path d="M86100 46600
L86100 43400
" />
<path d="M86100 43400
L86900 43400
" />
<path d="M86900 43400
L86900 46600
" />
<path d="M86900 46600
L86500 46600
" />
<path d="M86300 46600
L86100 46400
" />
<path d="M86500 43000
L86500 43400
" />
</g>
<g style="fill:#000000; fill-opacity:0.0; 
stroke:#000000; stroke-width:60; stroke-opacity:1; 
stroke-linecap:round; stroke-linejoin:round;">
<path d="M86000 39750
L87000 39750
" />
<path d="M87000 39750
L87000 41750
" />
<path d="M87000 41750
L86000 41750
" />
<path d="M86000 41750
L86000 39750
" />
</g>
<g style="fill:#000000; fill-opacity:0.0; 
stroke:#000000; stroke-width:150; stroke-opacity:1; 
stroke-linecap:round; stroke-linejoin:round;">
<path d="M74250 50250
L74250 42250
" />
<path d="M76250 42250
L76250 50250
" />
<path d="M76250 50250
L74250 50250
" />
<path d="M74750 50250
L74750 49750
" />
<path d="M74750 49750
L75750 49750
" />
<path d="M75750 49750
L75750 50250
" />
<path d="M74250 42250
L76250 42250
" />
<path d="M60000 50250
L60000 42250
" />
<path d="M62000 42250
L62000 50250
" />
<path d="M62000 50250
L60000 50250
" />
<path d="M60500 50250
L60500 49750
" />
<path d="M60500 49750
L61500 49750
" />
<path d="M61500 49750
L61500 50250
" />
<path d="M60000 42250
L62000 42250
" />
<path d="M67000 50250
L67000 42250
" />
<path d="M69000 42250
L69000 50250
" />
<path d="M69000 50250
L67000 50250
" />
<path d="M67500 50250
L67500 49750
" />
<path d="M67500 49750
L68500 49750
" />
<path d="M68500 49750
L68500 50250
" />
<path d="M67000 42250
L69000 42250
" />
</g>
<g style="fill:#000000; fill-opacity:0.0; 
stroke:#000000; stroke-width:120; stroke-opacity:1; 
stroke-linecap:round; stroke-linejoin:round;">
<path d="M70750 48250
L70750 47950
" />
<path d="M70750 47950
L71150 47950
" />
<path d="M71150 47950
L71150 45550
" />
<path d="M71150 45550
L70750 45550
" />
<path d="M70750 45550
L70750 45250
" />
<path d="M70750 45550
L70350 45550
" />
<path d="M70350 45550
L70350 47950
" />
<path d="M70350 47950
L70750 47950
" />
<path d="M71150 47750
L70350 47750
" />
<path d="M70350 47650
L71150 47650
" />
<path d="M63750 48250
L63750 47950
" />
<path d="M63750 47950
L64150 47950
" />
<path d="M64150 47950
L64150 45550
" />
<path d="M64150 45550
L63750 45550
" />
<path d="M63750 45550
L63750 45250
" />
<path d="M63750 45550
L63350 45550
" />
<path d="M63350 45550
L63350 47950
" />
<path d="M63350 47950
L63750 47950
" />
<path d="M64150 47750
L63350 47750
" />
<path d="M63350 47650
L64150 47650
" />
<path d="M78000 48250
L78000 47950
" />
<path d="M78000 47950
L78400 47950
" />
<path d="M78400 47950
L78400 45550
" />
<path d="M78400 45550
L78000 45550
" />
<path d="M78000 45550
L78000 45250
" />
<path d="M78000 45550
L77600 45550
" />
<path d="M77600 45550
L77600 47950
" />
<path d="M77600 47950
L78000 47950
" />
<path d="M78400 47750
L77600 47750
" />
<path d="M77600 47650
L78400 47650
" />
<path d="M57000 48250
L57000 47950
" />
<path d="M57000 47950
L57400 47950
" />
<path d="M57400 47950
L57400 45550
" />
<path d="M57400 45550
L57000 45550
" />
<path d="M57000 45550
L57000 45250
" />
<path d="M57000 45550
L56600 45550
" />
<path d="M56600 45550
L56600 47950
" />
<path d="M56600 47950
L57000 47950
" />
<path d="M57400 47750
L56600 47750
" />
<path d="M56600 47650
L57400 47650
" />
<path d="M63000 31250
L63000 28250
" />
<path d="M69000 31250
L69000 28250
" />
<path d="M63000 30750
L69000 30750
" />
<path d="M63000 28250
L69000 28250
" />
<path d="M63000 31250
L69000 31250
" />
<path d="M65500 52000
L65500 55000
" />
<path d="M59500 52000
L59500 55000
" />
<path d="M65500 52500
L59500 52500
" />
<path d="M65500 55000
L59500 55000
" />
<path d="M65500 52000
L59500 52000
" />
</g>
<g style="fill:#000000; fill-opacity:0.0; 
stroke:#000000; stroke-width:150; stroke-opacity:1; 
stroke-linecap:round; stroke-linejoin:round;">
<path d="M53250 50250
L53250 42250
" />
<path d="M55250 42250
L55250 50250
" />
<path d="M55250 50250
L53250 50250
" />
<path d="M53750 50250
L53750 49750
" />
<path d="M53750 49750
L54750 49750
" />
<path d="M54750 49750
L54750 50250
" />
<path d="M53250 42250
L55250 42250
" />
</g>
<g style="fill:#000000; fill-opacity:0.0; 
stroke:#000000; stroke-width:120; stroke-opacity:1; 
stroke-linecap:round; stroke-linejoin:round;">
<path d="M78396 34439
L78396 36560
" />
<path d="M78396 36560
L78750 36914
" />
<path d="M78750 36914
L79457 36914
" />
<path d="M79457 36914
L80164 36207
" />
<path d="M80164 36207
L80164 34792
" />
<path d="M80164 34792
L79457 34085
" />
<path d="M79457 34085
L78750 34085
" />
<path d="M78750 34085
L78396 34439
" />
<path d="M81353 40310
L81353 38189
" />
<path d="M81353 38189
L81000 37835
" />
<path d="M81000 37835
L80292 37835
" />
<path d="M80292 37835
L79585 38542
" />
<path d="M79585 38542
L79585 39957
" />
<path d="M79585 39957
L80292 40664
" />
<path d="M80292 40664
L81000 40664
" />
<path d="M81000 40664
L81353 40310
" />
<path d="M80646 42939
L80646 45060
" />
<path d="M80646 45060
L81000 45414
" />
<path d="M81000 45414
L81707 45414
" />
<path d="M81707 45414
L82414 44707
" />
<path d="M82414 44707
L82414 43292
" />
<path d="M82414 43292
L81707 42585
" />
<path d="M81707 42585
L81000 42585
" />
<path d="M81000 42585
L80646 42939
" />
<path d="M84603 48810
L84603 46689
" />
<path d="M84603 46689
L84250 46335
" />
<path d="M84250 46335
L83542 46335
" />
<path d="M83542 46335
L82835 47042
" />
<path d="M82835 47042
L82835 48457
" />
<path d="M82835 48457
L83542 49164
" />
<path d="M83542 49164
L84250 49164
" />
<path d="M84250 49164
L84603 48810
" />
<path d="M58000 53500
L58000 53500
" />
<path d="M58000 53500
L58000 53500
" />
<path d="M58000 53500
L58000 53500
" />
<path d="M58000 53500
L58000 49750
" />
<path d="M58000 49750
L59000 49750
" />
<path d="M59000 49750
L59000 53500
" />
<path d="M59000 53500
L58000 53500
" />
<path d="M58250 53500
L58250 53500
" />
<path d="M58250 53500
L58250 53750
" />
<path d="M58250 53750
L58750 53750
" />
<path d="M58750 53750
L58750 53500
" />
<path d="M58500 54250
L58500 54250
" />
<path d="M58500 54250
L58500 53750
" />
<path d="M58500 53750
L58500 53750
" />
<path d="M58500 53750
L58500 53750
" />
<path d="M58500 49750
L58500 49750
" />
<path d="M58500 49750
L58500 49750
" />
<path d="M58500 49750
L58500 49250
" />
<path d="M58500 49250
L58500 49250
" />
<path d="M58500 49250
L58500 49250
" />
<path d="M58500 49250
L58500 49250
" />
<path d="M66750 51500
L66750 51500
" />
<path d="M66750 51500
L66750 51500
" />
<path d="M66750 51500
L66750 51500
" />
<path d="M66750 51500
L63000 51500
" />
<path d="M63000 51500
L63000 50500
" />
<path d="M63000 50500
L66750 50500
" />
<path d="M66750 50500
L66750 51500
" />
<path d="M66750 51250
L66750 51250
" />
<path d="M66750 51250
L67000 51250
" />
<path d="M67000 51250
L67000 50750
" />
<path d="M67000 50750
L66750 50750
" />
<path d="M67500 51000
L67500 51000
" />
<path d="M67500 51000
L67000 51000
" />
<path d="M67000 51000
L67000 51000
" />
<path d="M67000 51000
L67000 51000
" />
<path d="M63000 51000
L63000 51000
" />
<path d="M63000 51000
L63000 51000
" />
<path d="M63000 51000
L62500 51000
" />
<path d="M62500 51000
L62500 51000
" />
<path d="M62500 51000
L62500 51000
" />
<path d="M62500 51000
L62500 51000
" />
<path d="M72250 53500
L72250 53500
" />
<path d="M72250 53500
L72250 53500
" />
<path d="M72250 53500
L72250 53500
" />
<path d="M72250 53500
L72250 49750
" />
<path d="M72250 49750
L73250 49750
" />
<path d="M73250 49750
L73250 53500
" />
<path d="M73250 53500
L72250 53500
" />
<path d="M72500 53500
L72500 53500
" />
<path d="M72500 53500
L72500 53750
" />
<path d="M72500 53750
L73000 53750
" />
<path d="M73000 53750
L73000 53500
" />
<path d="M72750 54250
L72750 54250
" />
<path d="M72750 54250
L72750 53750
" />
<path d="M72750 53750
L72750 53750
" />
<path d="M72750 53750
L72750 53750
" />
<path d="M72750 49750
L72750 49750
" />
<path d="M72750 49750
L72750 49750
" />
<path d="M72750 49750
L72750 49250
" />
<path d="M72750 49250
L72750 49250
" />
<path d="M72750 49250
L72750 49250
" />
<path d="M72750 49250
L72750 49250
" />
<path d="M81000 51500
L81000 51500
" />
<path d="M81000 51500
L81000 51500
" />
<path d="M81000 51500
L81000 51500
" />
<path d="M81000 51500
L77250 51500
" />
<path d="M77250 51500
L77250 50500
" />
<path d="M77250 50500
L81000 50500
" />
<path d="M81000 50500
L81000 51500
" />
<path d="M81000 51250
L81000 51250
" />
<path d="M81000 51250
L81250 51250
" />
<path d="M81250 51250
L81250 50750
" />
<path d="M81250 50750
L81000 50750
" />
<path d="M81750 51000
L81750 51000
" />
<path d="M81750 51000
L81250 51000
" />
<path d="M81250 51000
L81250 51000
" />
<path d="M81250 51000
L81250 51000
" />
<path d="M77250 51000
L77250 51000
" />
<path d="M77250 51000
L77250 51000
" />
<path d="M77250 51000
L76750 51000
" />
<path d="M76750 51000
L76750 51000
" />
<path d="M76750 51000
L76750 51000
" />
<path d="M76750 51000
L76750 51000
" />
<path d="M71000 29750
L71000 29750
" />
<path d="M71000 29750
L71000 29750
" />
<path d="M71000 29750
L71000 29750
" />
<path d="M71000 29750
L71000 33500
" />
<path d="M71000 33500
L70000 33500
" />
<path d="M70000 33500
L70000 29750
" />
<path d="M70000 29750
L71000 29750
" />
<path d="M70750 29750
L70750 29750
" />
<path d="M70750 29750
L70750 29500
" />
<path d="M70750 29500
L70250 29500
" />
<path d="M70250 29500
L70250 29750
" />
<path d="M70500 29000
L70500 29000
" />
<path d="M70500 29000
L70500 29500
" />
<path d="M70500 29500
L70500 29500
" />
<path d="M70500 29500
L70500 29500
" />
<path d="M70500 33500
L70500 33500
" />
<path d="M70500 33500
L70500 33500
" />
<path d="M70500 33500
L70500 34000
" />
<path d="M70500 34000
L70500 34000
" />
<path d="M70500 34000
L70500 34000
" />
<path d="M70500 34000
L70500 34000
" />
<path d="M62250 31750
L62250 31750
" />
<path d="M62250 31750
L62250 31750
" />
<path d="M62250 31750
L62250 31750
" />
<path d="M62250 31750
L66000 31750
" />
<path d="M66000 31750
L66000 32750
" />
<path d="M66000 32750
L62250 32750
" />
<path d="M62250 32750
L62250 31750
" />
<path d="M62250 32000
L62250 32000
" />
<path d="M62250 32000
L62000 32000
" />
<path d="M62000 32000
L62000 32500
" />
<path d="M62000 32500
L62250 32500
" />
<path d="M61500 32250
L61500 32250
" />
<path d="M61500 32250
L62000 32250
" />
<path d="M62000 32250
L62000 32250
" />
<path d="M62000 32250
L62000 32250
" />
<path d="M66000 32250
L66000 32250
" />
<path d="M66000 32250
L66000 32250
" />
<path d="M66000 32250
L66500 32250
" />
<path d="M66500 32250
L66500 32250
" />
<path d="M66500 32250
L66500 32250
" />
<path d="M66500 32250
L66500 32250
" />
<path d="M57250 29750
L57250 29750
" />
<path d="M57250 29750
L57250 29750
" />
<path d="M57250 29750
L57250 29750
" />
<path d="M57250 29750
L57250 33500
" />
<path d="M57250 33500
L56250 33500
" />
<path d="M56250 33500
L56250 29750
" />
<path d="M56250 29750
L57250 29750
" />
<path d="M57000 29750
L57000 29750
" />
<path d="M57000 29750
L57000 29500
" />
<path d="M57000 29500
L56500 29500
" />
<path d="M56500 29500
L56500 29750
" />
<path d="M56750 29000
L56750 29000
" />
<path d="M56750 29000
L56750 29500
" />
<path d="M56750 29500
L56750 29500
" />
<path d="M56750 29500
L56750 29500
" />
<path d="M56750 33500
L56750 33500
" />
<path d="M56750 33500
L56750 33500
" />
<path d="M56750 33500
L56750 34000
" />
<path d="M56750 34000
L56750 34000
" />
<path d="M56750 34000
L56750 34000
" />
<path d="M56750 34000
L56750 34000
" />
<path d="M48500 32000
L48500 32000
" />
<path d="M48500 32000
L48500 32000
" />
<path d="M48500 32000
L48500 32000
" />
<path d="M48500 32000
L52250 32000
" />
<path d="M52250 32000
L52250 33000
" />
<path d="M52250 33000
L48500 33000
" />
<path d="M48500 33000
L48500 32000
" />
<path d="M48500 32250
L48500 32250
" />
<path d="M48500 32250
L48250 32250
" />
<path d="M48250 32250
L48250 32750
" />
<path d="M48250 32750
L48500 32750
" />
<path d="M47750 32500
L47750 32500
" />
<path d="M47750 32500
L48250 32500
" />
<path d="M48250 32500
L48250 32500
" />
<path d="M48250 32500
L48250 32500
" />
<path d="M52250 32500
L52250 32500
" />
<path d="M52250 32500
L52250 32500
" />
<path d="M52250 32500
L52750 32500
" />
<path d="M52750 32500
L52750 32500
" />
<path d="M52750 32500
L52750 32500
" />
<path d="M52750 32500
L52750 32500
" />
<path d="M20750 35750
L21150 35750
" />
<path d="M21150 35750
L21150 35350
" />
<path d="M21150 35350
L24350 35350
" />
<path d="M24350 35350
L24350 36150
" />
<path d="M24350 36150
L21150 36150
" />
<path d="M21150 36150
L21150 35750
" />
<path d="M21150 35550
L21350 35350
" />
<path d="M24750 35750
L24350 35750
" />
<path d="M29250 44500
L29650 44500
" />
<path d="M29650 44500
L29650 44100
" />
<path d="M29650 44100
L32850 44100
" />
<path d="M32850 44100
L32850 44900
" />
<path d="M32850 44900
L29650 44900
" />
<path d="M29650 44900
L29650 44500
" />
<path d="M29650 44300
L29850 44100
" />
<path d="M33250 44500
L32850 44500
" />
<path d="M31500 42500
L31500 42100
" />
<path d="M31500 42100
L31100 42100
" />
<path d="M31100 42100
L31100 38900
" />
<path d="M31100 38900
L31900 38900
" />
<path d="M31900 38900
L31900 42100
" />
<path d="M31900 42100
L31500 42100
" />
<path d="M31300 42100
L31100 41900
" />
<path d="M31500 38500
L31500 38900
" />
</g>
<g style="fill:#000000; fill-opacity:0.0; 
stroke:#000000; stroke-width:60; stroke-opacity:1; 
stroke-linecap:round; stroke-linejoin:round;">
<path d="M25750 35250
L26750 35250
" />
<path d="M26750 35250
L26750 38250
" />
<path d="M26750 38250
L25750 38250
" />
<path d="M25750 38250
L25750 35250
" />
<path d="M26750 36250
L25750 36250
" />
</g>
<g style="fill:#000000; fill-opacity:0.0; 
stroke:#000000; stroke-width:150; stroke-opacity:1; 
stroke-linecap:round; stroke-linejoin:round;">
<path d="M29250 42750
L21250 42750
" />
<path d="M21250 40750
L29250 40750
" />
<path d="M29250 40750
L29250 42750
" />
<path d="M29250 42250
L28750 42250
" />
<path d="M28750 42250
L28750 41250
" />
<path d="M28750 41250
L29250 41250
" />
<path d="M21250 42750
L21250 40750
" />
</g>
<g style="fill:#000000; fill-opacity:0.0; 
stroke:#000000; stroke-width:120; stroke-opacity:1; 
stroke-linecap:round; stroke-linejoin:round;">
<path d="M27250 39000
L26950 39000
" />
<path d="M26950 39000
L26950 38600
" />
<path d="M26950 38600
L24550 38600
" />
<path d="M24550 38600
L24550 39000
" />
<path d="M24550 39000
L24250 39000
" />
<path d="M24550 39000
L24550 39400
" />
<path d="M24550 39400
L26950 39400
" />
<path d="M26950 39400
L26950 39000
" />
<path d="M26750 38600
L26750 39400
" />
<path d="M26650 39400
L26650 38600
" />
<path d="M27250 44250
L27250 47250
" />
<path d="M21250 44250
L21250 47250
" />
<path d="M27250 44750
L21250 44750
" />
<path d="M27250 47250
L21250 47250
" />
<path d="M27250 44250
L21250 44250
" />
<path d="M32750 37500
L35750 37500
" />
<path d="M32750 43500
L35750 43500
" />
<path d="M33250 37500
L33250 43500
" />
<path d="M35750 37500
L35750 43500
" />
<path d="M32750 37500
L32750 43500
" />
<path d="M24310 36646
L22189 36646
" />
<path d="M22189 36646
L21835 37000
" />
<path d="M21835 37000
L21835 37707
" />
<path d="M21835 37707
L22542 38414
" />
<path d="M22542 38414
L23957 38414
" />
<path d="M23957 38414
L24664 37707
" />
<path d="M24664 37707
L24664 37000
" />
<path d="M24664 37000
L24310 36646
" />
</g>
<g style="fill:#000000; fill-opacity:0.0; 
stroke:#000000; stroke-width:50; stroke-opacity:1; 
stroke-linecap:round; stroke-linejoin:round;">
<circle cx="28250" cy="36750" r="1001.25" /> 
</g>
<g style="fill:#000000; fill-opacity:0.0; 
stroke:#000000; stroke-width:120; stroke-opacity:1; 
stroke-linecap:round; stroke-linejoin:round;">
<path d="M33750 45500
L33750 48500
" />
<path d="M27750 45500
L27750 48500
" />
<path d="M33750 46000
L27750 46000
" />
<path d="M33750 48500
L27750 48500
" />
<path d="M33750 45500
L27750 45500
" />
</g>
<g style="fill:#000000; fill-opacity:0.0; 
stroke:#000000; stroke-width:80; stroke-opacity:1; 
stroke-linecap:round; stroke-linejoin:round;">
<path d="M82916 36472
L82750 36210
" />
<path d="M82630 36472
L82630 35922
L82821 35922
L82869 35948
L82892 35975
L82916 36027
L82916 36105
L82892 36158
L82869 36184
L82821 36210
L82630 36210
" />
<path d="M83392 36472
L83107 36472
" />
<path d="M83250 36472
L83250 35922
L83202 36001
L83154 36053
L83107 36079
" />
</g>
<g style="fill:#000000; fill-opacity:0.0; 
stroke:#000000; stroke-width:120; stroke-opacity:1; 
stroke-linecap:round; stroke-linejoin:round;">
</g>
<g style="fill:#000000; fill-opacity:0.0; 
stroke:#000000; stroke-width:112.5; stroke-opacity:1; 
stroke-linecap:round; stroke-linejoin:round;">
<path d="M54992 35332
L54392 35332
L54392 35160
L54421 35117
L54450 35096
L54507 35074
L54592 35074
L54650 35096
L54678 35117
L54707 35160
L54707 35332
" />
<path d="M54992 34646
L54992 34903
" />
<path d="M54992 34774
L54392 34774
L54478 34817
L54535 34860
L54564 34903
" />
</g>
<g style="fill:#000000; fill-opacity:0.0; 
stroke:#000000; stroke-width:120; stroke-opacity:1; 
stroke-linecap:round; stroke-linejoin:round;">
</g>
<g style="fill:#000000; fill-opacity:0.0; 
stroke:#000000; stroke-width:112.5; stroke-opacity:1; 
stroke-linecap:round; stroke-linejoin:round;">
<path d="M53992 40382
L53392 40382
L53392 40274
L53421 40210
L53478 40167
L53535 40146
L53650 40124
L53735 40124
L53850 40146
L53907 40167
L53964 40210
L53992 40274
L53992 40382
" />
<path d="M53992 39932
L53392 39932
" />
<path d="M53992 39717
L53392 39717
L53392 39546
L53421 39503
L53450 39482
L53507 39460
L53592 39460
L53650 39482
L53678 39503
L53707 39546
L53707 39717
" />
<path d="M53392 39182
L53392 39139
L53421 39096
L53450 39074
L53507 39053
L53621 39032
L53764 39032
L53878 39053
L53935 39074
L53964 39096
L53992 39139
L53992 39182
L53964 39224
L53935 39246
L53878 39267
L53764 39289
L53621 39289
L53507 39267
L53450 39246
L53421 39224
L53392 39182
" />
<path d="M53392 38624
L53392 38839
L53678 38860
L53650 38839
L53621 38796
L53621 38689
L53650 38646
L53678 38624
L53735 38603
L53878 38603
L53935 38624
L53964 38646
L53992 38689
L53992 38796
L53964 38839
L53935 38860
" />
<path d="M53764 38410
L53764 38067
" />
<path d="M53450 37874
L53421 37853
L53392 37810
L53392 37703
L53421 37660
L53450 37639
L53507 37617
L53564 37617
L53650 37639
L53992 37896
L53992 37617
" />
<path d="M53821 37446
L53821 37232
" />
<path d="M53992 37489
L53392 37339
L53992 37189
" />
<path d="M53392 37082
L53392 36782
L53992 36974
" />
<path d="M53450 36632
L53421 36610
L53392 36567
L53392 36460
L53421 36417
L53450 36396
L53507 36375
L53564 36375
L53650 36396
L53992 36653
L53992 36375
" />
<path d="M53764 36182
L53764 35839
" />
<path d="M53450 35646
L53421 35625
L53392 35582
L53392 35475
L53421 35432
L53450 35410
L53507 35389
L53564 35389
L53650 35410
L53992 35667
L53992 35389
" />
<path d="M53992 34960
L53992 35217
" />
<path d="M53992 35089
L53392 35089
L53478 35132
L53535 35175
L53564 35217
" />
<path d="M53992 34553
L53992 34767
L53392 34767
" />
</g>
<g style="fill:#000000; fill-opacity:0.0; 
stroke:#000000; stroke-width:120; stroke-opacity:1; 
stroke-linecap:round; stroke-linejoin:round;">
</g>
<g style="fill:#000000; fill-opacity:0.0; 
stroke:#000000; stroke-width:80; stroke-opacity:1; 
stroke-linecap:round; stroke-linejoin:round;">
<path d="M52411 37295
L52011 37295
L52011 37199
L52030 37142
L52069 37104
L52107 37085
L52183 37066
L52240 37066
L52316 37085
L52354 37104
L52392 37142
L52411 37199
L52411 37295
" />
<path d="M52411 36685
L52411 36914
" />
<path d="M52411 36799
L52011 36799
L52069 36838
L52107 36876
L52126 36914
" />
</g>
<g style="fill:#000000; fill-opacity:0.0; 
stroke:#000000; stroke-width:120; stroke-opacity:1; 
stroke-linecap:round; stroke-linejoin:round;">
<path d="M51807 27992
L51807 27392
" />
<path d="M52150 27992
L51892 27650
" />
<path d="M52150 27392
L51807 27735
" />
<path d="M52378 27450
L52407 27421
L52464 27392
L52607 27392
L52664 27421
L52692 27450
L52721 27507
L52721 27564
L52692 27650
L52350 27992
L52721 27992
" />
<path d="M50978 31935
L50950 31964
L50864 31992
L50807 31992
L50721 31964
L50664 31907
L50635 31850
L50607 31735
L50607 31650
L50635 31535
L50664 31478
L50721 31421
L50807 31392
L50864 31392
L50950 31421
L50978 31450
" />
<path d="M51350 31392
L51464 31392
L51521 31421
L51578 31478
L51607 31592
L51607 31792
L51578 31907
L51521 31964
L51464 31992
L51350 31992
L51292 31964
L51235 31907
L51207 31792
L51207 31592
L51235 31478
L51292 31421
L51350 31392
" />
<path d="M51864 31992
L51864 31392
L52207 31992
L52207 31392
" />
<path d="M52492 31992
L52492 31392
L52835 31992
L52835 31392
" />
<path d="M52978 32050
L53435 32050
" />
<path d="M53521 31392
L53892 31392
L53692 31621
L53778 31621
L53835 31650
L53864 31678
L53892 31735
L53892 31878
L53864 31935
L53835 31964
L53778 31992
L53607 31992
L53550 31964
L53521 31935
" />
<path d="M47242 42442
L46642 42442
" />
<path d="M47242 42100
L46900 42357
" />
<path d="M46642 42100
L46985 42442
" />
<path d="M46642 41900
L46642 41528
L46871 41728
L46871 41642
L46900 41585
L46928 41557
L46985 41528
L47128 41528
L47185 41557
L47214 41585
L47242 41642
L47242 41814
L47214 41871
L47185 41900
" />
<path d="M51185 43271
L51214 43299
L51242 43385
L51242 43442
L51214 43528
L51157 43585
L51100 43614
L50985 43642
L50900 43642
L50785 43614
L50728 43585
L50671 43528
L50642 43442
L50642 43385
L50671 43299
L50700 43271
" />
<path d="M50642 42899
L50642 42785
L50671 42728
L50728 42671
L50842 42642
L51042 42642
L51157 42671
L51214 42728
L51242 42785
L51242 42899
L51214 42957
L51157 43014
L51042 43042
L50842 43042
L50728 43014
L50671 42957
L50642 42899
" />
<path d="M51242 42385
L50642 42385
L51242 42042
L50642 42042
" />
<path d="M51242 41757
L50642 41757
L51242 41414
L50642 41414
" />
<path d="M51300 41271
L51300 40814
" />
<path d="M50642 40728
L50642 40357
L50871 40557
L50871 40471
L50900 40414
L50928 40385
L50985 40357
L51128 40357
L51185 40385
L51214 40414
L51242 40471
L51242 40642
L51214 40700
L51185 40728
" />
</g>
<g style="fill:#000000; fill-opacity:0.0; 
stroke:#000000; stroke-width:80; stroke-opacity:1; 
stroke-linecap:round; stroke-linejoin:round;">
<path d="M82822 39433
L82560 39600
" />
<path d="M82822 39719
L82272 39719
L82272 39528
L82298 39480
L82325 39457
L82377 39433
L82455 39433
L82508 39457
L82534 39480
L82560 39528
L82560 39719
" />
<path d="M82272 39266
L82272 38957
L82482 39123
L82482 39052
L82508 39004
L82534 38980
L82586 38957
L82717 38957
L82770 38980
L82796 39004
L82822 39052
L82822 39195
L82796 39242
L82770 39266
" />
</g>
<g style="fill:#000000; fill-opacity:0.0; 
stroke:#000000; stroke-width:120; stroke-opacity:1; 
stroke-linecap:round; stroke-linejoin:round;">
</g>
<g style="fill:#000000; fill-opacity:0.0; 
stroke:#000000; stroke-width:112.5; stroke-opacity:1; 
stroke-linecap:round; stroke-linejoin:round;">
<path d="M68742 35332
L68142 35332
L68142 35160
L68171 35117
L68200 35096
L68257 35074
L68342 35074
L68400 35096
L68428 35117
L68457 35160
L68457 35332
" />
<path d="M68142 34667
L68142 34882
L68428 34903
L68400 34882
L68371 34839
L68371 34732
L68400 34689
L68428 34667
L68485 34646
L68628 34646
L68685 34667
L68714 34689
L68742 34732
L68742 34839
L68714 34882
L68685 34903
" />
</g>
<g style="fill:#000000; fill-opacity:0.0; 
stroke:#000000; stroke-width:120; stroke-opacity:1; 
stroke-linecap:round; stroke-linejoin:round;">
</g>
<g style="fill:#000000; fill-opacity:0.0; 
stroke:#000000; stroke-width:112.5; stroke-opacity:1; 
stroke-linecap:round; stroke-linejoin:round;">
<path d="M67742 40382
L67142 40382
L67142 40274
L67171 40210
L67228 40167
L67285 40146
L67400 40124
L67485 40124
L67600 40146
L67657 40167
L67714 40210
L67742 40274
L67742 40382
" />
<path d="M67742 39932
L67142 39932
" />
<path d="M67742 39717
L67142 39717
L67142 39546
L67171 39503
L67200 39482
L67257 39460
L67342 39460
L67400 39482
L67428 39503
L67457 39546
L67457 39717
" />
<path d="M67142 39182
L67142 39139
L67171 39096
L67200 39074
L67257 39053
L67371 39032
L67514 39032
L67628 39053
L67685 39074
L67714 39096
L67742 39139
L67742 39182
L67714 39224
L67685 39246
L67628 39267
L67514 39289
L67371 39289
L67257 39267
L67200 39246
L67171 39224
L67142 39182
" />
<path d="M67142 38624
L67142 38839
L67428 38860
L67400 38839
L67371 38796
L67371 38689
L67400 38646
L67428 38624
L67485 38603
L67628 38603
L67685 38624
L67714 38646
L67742 38689
L67742 38796
L67714 38839
L67685 38860
" />
<path d="M67514 38410
L67514 38067
" />
<path d="M67200 37874
L67171 37853
L67142 37810
L67142 37703
L67171 37660
L67200 37639
L67257 37617
L67314 37617
L67400 37639
L67742 37896
L67742 37617
" />
<path d="M67571 37446
L67571 37232
" />
<path d="M67742 37489
L67142 37339
L67742 37189
" />
<path d="M67142 37082
L67142 36782
L67742 36974
" />
<path d="M67200 36632
L67171 36610
L67142 36567
L67142 36460
L67171 36417
L67200 36396
L67257 36375
L67314 36375
L67400 36396
L67742 36653
L67742 36375
" />
<path d="M67514 36182
L67514 35839
" />
<path d="M67200 35646
L67171 35625
L67142 35582
L67142 35475
L67171 35432
L67200 35410
L67257 35389
L67314 35389
L67400 35410
L67742 35667
L67742 35389
" />
<path d="M67742 34960
L67742 35217
" />
<path d="M67742 35089
L67142 35089
L67228 35132
L67285 35175
L67314 35217
" />
<path d="M67742 34553
L67742 34767
L67142 34767
" />
</g>
<g style="fill:#000000; fill-opacity:0.0; 
stroke:#000000; stroke-width:120; stroke-opacity:1; 
stroke-linecap:round; stroke-linejoin:round;">
</g>
<g style="fill:#000000; fill-opacity:0.0; 
stroke:#000000; stroke-width:80; stroke-opacity:1; 
stroke-linecap:round; stroke-linejoin:round;">
<path d="M65411 36545
L65011 36545
L65011 36449
L65030 36392
L65069 36354
L65107 36335
L65183 36316
L65240 36316
L65316 36335
L65354 36354
L65392 36392
L65411 36449
L65411 36545
" />
<path d="M65011 36183
L65011 35935
L65164 36069
L65164 36011
L65183 35973
L65202 35954
L65240 35935
L65335 35935
L65373 35954
L65392 35973
L65411 36011
L65411 36126
L65392 36164
L65373 36183
" />
</g>
<g style="fill:#000000; fill-opacity:0.0; 
stroke:#000000; stroke-width:120; stroke-opacity:1; 
stroke-linecap:round; stroke-linejoin:round;">
<path d="M76307 55742
L76307 55142
" />
<path d="M76650 55742
L76392 55400
" />
<path d="M76650 55142
L76307 55485
" />
<path d="M77164 55342
L77164 55742
" />
<path d="M77021 55114
L76878 55542
L77250 55542
" />
<path d="M75478 51685
L75450 51714
L75364 51742
L75307 51742
L75221 51714
L75164 51657
L75135 51600
L75107 51485
L75107 51400
L75135 51285
L75164 51228
L75221 51171
L75307 51142
L75364 51142
L75450 51171
L75478 51200
" />
<path d="M75850 51142
L75964 51142
L76021 51171
L76078 51228
L76107 51342
L76107 51542
L76078 51657
L76021 51714
L75964 51742
L75850 51742
L75792 51714
L75735 51657
L75707 51542
L75707 51342
L75735 51228
L75792 51171
L75850 51142
" />
<path d="M76364 51742
L76364 51142
L76707 51742
L76707 51142
" />
<path d="M76992 51742
L76992 51142
L77335 51742
L77335 51142
" />
<path d="M77478 51800
L77935 51800
" />
<path d="M78021 51142
L78392 51142
L78192 51371
L78278 51371
L78335 51400
L78364 51428
L78392 51485
L78392 51628
L78364 51685
L78335 51714
L78278 51742
L78107 51742
L78050 51714
L78021 51685
" />
<path d="M84307 51742
L84307 51142
L84535 51142
L84592 51171
L84621 51200
L84650 51257
L84650 51342
L84621 51400
L84592 51428
L84535 51457
L84307 51457
" />
<path d="M84878 51200
L84907 51171
L84964 51142
L85107 51142
L85164 51171
L85192 51200
L85221 51257
L85221 51314
L85192 51400
L84850 51742
L85221 51742
" />
<path d="M83228 55935
L83200 55964
L83114 55992
L83057 55992
L82971 55964
L82914 55907
L82885 55850
L82857 55735
L82857 55650
L82885 55535
L82914 55478
L82971 55421
L83057 55392
L83114 55392
L83200 55421
L83228 55450
" />
<path d="M83600 55392
L83714 55392
L83771 55421
L83828 55478
L83857 55592
L83857 55792
L83828 55907
L83771 55964
L83714 55992
L83600 55992
L83542 55964
L83485 55907
L83457 55792
L83457 55592
L83485 55478
L83542 55421
L83600 55392
" />
<path d="M84114 55992
L84114 55392
L84457 55992
L84457 55392
" />
<path d="M84742 55992
L84742 55392
L85085 55992
L85085 55392
" />
<path d="M85228 56050
L85685 56050
" />
<path d="M85800 55450
L85828 55421
L85885 55392
L86028 55392
L86085 55421
L86114 55450
L86142 55507
L86142 55564
L86114 55650
L85771 55992
L86142 55992
" />
</g>
<g style="fill:#000000; fill-opacity:0.0; 
stroke:#000000; stroke-width:112.5; stroke-opacity:1; 
stroke-linecap:round; stroke-linejoin:round;">
<path d="M61742 35332
L61142 35332
L61142 35160
L61171 35117
L61200 35096
L61257 35074
L61342 35074
L61400 35096
L61428 35117
L61457 35160
L61457 35332
" />
<path d="M61142 34924
L61142 34624
L61742 34817
" />
</g>
<g style="fill:#000000; fill-opacity:0.0; 
stroke:#000000; stroke-width:120; stroke-opacity:1; 
stroke-linecap:round; stroke-linejoin:round;">
</g>
<g style="fill:#000000; fill-opacity:0.0; 
stroke:#000000; stroke-width:112.5; stroke-opacity:1; 
stroke-linecap:round; stroke-linejoin:round;">
<path d="M60742 40382
L60142 40382
L60142 40274
L60171 40210
L60228 40167
L60285 40146
L60400 40124
L60485 40124
L60600 40146
L60657 40167
L60714 40210
L60742 40274
L60742 40382
" />
<path d="M60742 39932
L60142 39932
" />
<path d="M60742 39717
L60142 39717
L60142 39546
L60171 39503
L60200 39482
L60257 39460
L60342 39460
L60400 39482
L60428 39503
L60457 39546
L60457 39717
" />
<path d="M60142 39182
L60142 39139
L60171 39096
L60200 39074
L60257 39053
L60371 39032
L60514 39032
L60628 39053
L60685 39074
L60714 39096
L60742 39139
L60742 39182
L60714 39224
L60685 39246
L60628 39267
L60514 39289
L60371 39289
L60257 39267
L60200 39246
L60171 39224
L60142 39182
" />
<path d="M60142 38624
L60142 38839
L60428 38860
L60400 38839
L60371 38796
L60371 38689
L60400 38646
L60428 38624
L60485 38603
L60628 38603
L60685 38624
L60714 38646
L60742 38689
L60742 38796
L60714 38839
L60685 38860
" />
<path d="M60514 38410
L60514 38067
" />
<path d="M60742 37617
L60742 37874
" />
<path d="M60742 37746
L60142 37746
L60228 37789
L60285 37832
L60314 37874
" />
<path d="M60571 37446
L60571 37232
" />
<path d="M60742 37489
L60142 37339
L60742 37189
" />
<path d="M60142 37082
L60142 36782
L60742 36974
" />
<path d="M60200 36632
L60171 36610
L60142 36567
L60142 36460
L60171 36417
L60200 36396
L60257 36375
L60314 36375
L60400 36396
L60742 36653
L60742 36375
" />
<path d="M60514 36182
L60514 35839
" />
<path d="M60742 35389
L60742 35646
" />
<path d="M60742 35517
L60142 35517
L60228 35560
L60285 35603
L60314 35646
" />
<path d="M60200 35217
L60171 35196
L60142 35153
L60142 35046
L60171 35003
L60200 34982
L60257 34960
L60314 34960
L60400 34982
L60742 35239
L60742 34960
" />
<path d="M60742 34553
L60742 34767
L60142 34767
" />
</g>
<g style="fill:#000000; fill-opacity:0.0; 
stroke:#000000; stroke-width:120; stroke-opacity:1; 
stroke-linecap:round; stroke-linejoin:round;">
</g>
<g style="fill:#000000; fill-opacity:0.0; 
stroke:#000000; stroke-width:112.5; stroke-opacity:1; 
stroke-linecap:round; stroke-linejoin:round;">
<path d="M75992 35332
L75392 35332
L75392 35160
L75421 35117
L75450 35096
L75507 35074
L75592 35074
L75650 35096
L75678 35117
L75707 35160
L75707 35332
" />
<path d="M75992 34860
L75992 34774
L75964 34732
L75935 34710
L75850 34667
L75735 34646
L75507 34646
L75450 34667
L75421 34689
L75392 34732
L75392 34817
L75421 34860
L75450 34882
L75507 34903
L75650 34903
L75707 34882
L75735 34860
L75764 34817
L75764 34732
L75735 34689
L75707 34667
L75650 34646
" />
</g>
<g style="fill:#000000; fill-opacity:0.0; 
stroke:#000000; stroke-width:120; stroke-opacity:1; 
stroke-linecap:round; stroke-linejoin:round;">
</g>
<g style="fill:#000000; fill-opacity:0.0; 
stroke:#000000; stroke-width:112.5; stroke-opacity:1; 
stroke-linecap:round; stroke-linejoin:round;">
<path d="M75242 40382
L74642 40382
L74642 40274
L74671 40210
L74728 40167
L74785 40146
L74900 40124
L74985 40124
L75100 40146
L75157 40167
L75214 40210
L75242 40274
L75242 40382
" />
<path d="M75242 39932
L74642 39932
" />
<path d="M75242 39717
L74642 39717
L74642 39546
L74671 39503
L74700 39482
L74757 39460
L74842 39460
L74900 39482
L74928 39503
L74957 39546
L74957 39717
" />
<path d="M74642 39182
L74642 39139
L74671 39096
L74700 39074
L74757 39053
L74871 39032
L75014 39032
L75128 39053
L75185 39074
L75214 39096
L75242 39139
L75242 39182
L75214 39224
L75185 39246
L75128 39267
L75014 39289
L74871 39289
L74757 39267
L74700 39246
L74671 39224
L74642 39182
" />
<path d="M74642 38624
L74642 38839
L74928 38860
L74900 38839
L74871 38796
L74871 38689
L74900 38646
L74928 38624
L74985 38603
L75128 38603
L75185 38624
L75214 38646
L75242 38689
L75242 38796
L75214 38839
L75185 38860
" />
<path d="M75014 38410
L75014 38067
" />
<path d="M75242 37617
L75242 37874
" />
<path d="M75242 37746
L74642 37746
L74728 37789
L74785 37832
L74814 37874
" />
<path d="M75071 37446
L75071 37232
" />
<path d="M75242 37489
L74642 37339
L75242 37189
" />
<path d="M74642 37082
L74642 36782
L75242 36974
" />
<path d="M74700 36632
L74671 36610
L74642 36567
L74642 36460
L74671 36417
L74700 36396
L74757 36375
L74814 36375
L74900 36396
L75242 36653
L75242 36375
" />
<path d="M75014 36182
L75014 35839
" />
<path d="M75242 35389
L75242 35646
" />
<path d="M75242 35517
L74642 35517
L74728 35560
L74785 35603
L74814 35646
" />
<path d="M74700 35217
L74671 35196
L74642 35153
L74642 35046
L74671 35003
L74700 34982
L74757 34960
L74814 34960
L74900 34982
L75242 35239
L75242 34960
" />
<path d="M75242 34553
L75242 34767
L74642 34767
" />
</g>
<g style="fill:#000000; fill-opacity:0.0; 
stroke:#000000; stroke-width:120; stroke-opacity:1; 
stroke-linecap:round; stroke-linejoin:round;">
</g>
<g style="fill:#000000; fill-opacity:0.0; 
stroke:#000000; stroke-width:80; stroke-opacity:1; 
stroke-linecap:round; stroke-linejoin:round;">
<path d="M57411 37045
L57011 37045
L57011 36949
L57030 36892
L57069 36854
L57107 36835
L57183 36816
L57240 36816
L57316 36835
L57354 36854
L57392 36892
L57411 36949
L57411 37045
" />
<path d="M57011 36454
L57011 36645
L57202 36664
L57183 36645
L57164 36607
L57164 36511
L57183 36473
L57202 36454
L57240 36435
L57335 36435
L57373 36454
L57392 36473
L57411 36511
L57411 36607
L57392 36645
L57373 36664
" />
<path d="M72661 36795
L72261 36795
L72261 36699
L72280 36642
L72319 36604
L72357 36585
L72433 36566
L72490 36566
L72566 36585
L72604 36604
L72642 36642
L72661 36699
L72661 36795
" />
<path d="M72261 36433
L72261 36166
L72661 36338
" />
</g>
<g style="fill:#000000; fill-opacity:0.0; 
stroke:#000000; stroke-width:60; stroke-opacity:1; 
stroke-linecap:round; stroke-linejoin:round;">
<path d="M87371 38971
L87071 38971
L87071 38857
L87085 38828
L87100 38814
L87128 38800
L87171 38800
L87200 38814
L87214 38828
L87228 38857
L87228 38971
" />
<path d="M87071 38700
L87071 38514
L87185 38614
L87185 38571
L87200 38542
L87214 38528
L87242 38514
L87314 38514
L87342 38528
L87357 38542
L87371 38571
L87371 38657
L87357 38685
L87342 38700
" />
</g>
<g style="fill:#000000; fill-opacity:0.0; 
stroke:#000000; stroke-width:50; stroke-opacity:1; 
stroke-linecap:round; stroke-linejoin:round;">
<path d="M84450 50092
L84435 50107
L84392 50121
L84364 50121
L84321 50107
L84292 50078
L84278 50050
L84264 49992
L84264 49950
L84278 49892
L84292 49864
L84321 49835
L84364 49821
L84392 49821
L84435 49835
L84450 49850
" />
<path d="M84735 50121
L84564 50121
" />
<path d="M84650 50121
L84650 49821
L84621 49864
L84592 49892
L84564 49907
" />
<path d="M84408 50021
L84408 50221
" />
<path d="M84348 49907
L84289 50121
L84444 50121
" />
<path d="M84515 49921
L84682 49921
L84575 50221
" />
<path d="M84884 50021
L84884 50221
" />
<path d="M84777 50021
L84777 50178
L84789 50207
L84813 50221
L84848 50221
L84872 50207
L84884 50192
" />
<path d="M85086 50064
L85003 50064
" />
<path d="M85003 50221
L85003 49921
L85122 49921
" />
</g>
<g style="fill:#000000; fill-opacity:0.0; 
stroke:#000000; stroke-width:80; stroke-opacity:1; 
stroke-linecap:round; stroke-linejoin:round;">
</g>
<g style="fill:#000000; fill-opacity:0.0; 
stroke:#000000; stroke-width:75; stroke-opacity:1; 
stroke-linecap:round; stroke-linejoin:round;">
<path d="M83735 50757
L83964 50757
" />
<path d="M83850 50871
L83850 50642
" />
</g>
<g style="fill:#000000; fill-opacity:0.0; 
stroke:#000000; stroke-width:80; stroke-opacity:1; 
stroke-linecap:round; stroke-linejoin:round;">
<path d="M83722 42333
L83460 42500
" />
<path d="M83722 42619
L83172 42619
L83172 42428
L83198 42380
L83225 42357
L83277 42333
L83355 42333
L83408 42357
L83434 42380
L83460 42428
L83460 42619
" />
<path d="M83225 42142
L83198 42119
L83172 42071
L83172 41952
L83198 41904
L83225 41880
L83277 41857
L83329 41857
L83408 41880
L83722 42166
L83722 41857
" />
<path d="M86416 45222
L86250 44960
" />
<path d="M86130 45222
L86130 44672
L86321 44672
L86369 44698
L86392 44725
L86416 44777
L86416 44855
L86392 44908
L86369 44934
L86321 44960
L86130 44960
" />
<path d="M86845 44855
L86845 45222
" />
<path d="M86726 44646
L86607 45039
L86916 45039
" />
</g>
<g style="fill:#000000; fill-opacity:0.0; 
stroke:#000000; stroke-width:60; stroke-opacity:1; 
stroke-linecap:round; stroke-linejoin:round;">
<path d="M87371 40971
L87071 40971
L87071 40857
L87085 40828
L87100 40814
L87128 40800
L87171 40800
L87200 40814
L87214 40828
L87228 40857
L87228 40971
" />
<path d="M87171 40542
L87371 40542
" />
<path d="M87057 40614
L87271 40685
L87271 40500
" />
</g>
<g style="fill:#000000; fill-opacity:0.0; 
stroke:#000000; stroke-width:120; stroke-opacity:1; 
stroke-linecap:round; stroke-linejoin:round;">
</g>
<g style="fill:#000000; fill-opacity:0.0; 
stroke:#000000; stroke-width:112.5; stroke-opacity:1; 
stroke-linecap:round; stroke-linejoin:round;">
<path d="M74992 48582
L74392 48582
L74392 48410
L74421 48367
L74450 48346
L74507 48324
L74592 48324
L74650 48346
L74678 48367
L74707 48410
L74707 48582
" />
<path d="M74392 47939
L74392 48024
L74421 48067
L74450 48089
L74535 48132
L74650 48153
L74878 48153
L74935 48132
L74964 48110
L74992 48067
L74992 47982
L74964 47939
L74935 47917
L74878 47896
L74735 47896
L74678 47917
L74650 47939
L74621 47982
L74621 48067
L74650 48110
L74678 48132
L74735 48153
" />
</g>
<g style="fill:#000000; fill-opacity:0.0; 
stroke:#000000; stroke-width:120; stroke-opacity:1; 
stroke-linecap:round; stroke-linejoin:round;">
</g>
<g style="fill:#000000; fill-opacity:0.0; 
stroke:#000000; stroke-width:112.5; stroke-opacity:1; 
stroke-linecap:round; stroke-linejoin:round;">
<path d="M76117 48007
L75517 48007
L75517 47899
L75546 47835
L75603 47792
L75660 47771
L75775 47749
L75860 47749
L75975 47771
L76032 47792
L76089 47835
L76117 47899
L76117 48007
" />
<path d="M76117 47557
L75517 47557
" />
<path d="M76117 47342
L75517 47342
L75517 47171
L75546 47128
L75575 47107
L75632 47085
L75717 47085
L75775 47107
L75803 47128
L75832 47171
L75832 47342
" />
<path d="M75517 46807
L75517 46764
L75546 46721
L75575 46699
L75632 46678
L75746 46657
L75889 46657
L76003 46678
L76060 46699
L76089 46721
L76117 46764
L76117 46807
L76089 46849
L76060 46871
L76003 46892
L75889 46914
L75746 46914
L75632 46892
L75575 46871
L75546 46849
L75517 46807
" />
<path d="M75517 46249
L75517 46464
L75803 46485
L75775 46464
L75746 46421
L75746 46314
L75775 46271
L75803 46249
L75860 46228
L76003 46228
L76060 46249
L76089 46271
L76117 46314
L76117 46421
L76089 46464
L76060 46485
" />
<path d="M75889 46035
L75889 45692
" />
<path d="M75575 45499
L75546 45478
L75517 45435
L75517 45328
L75546 45285
L75575 45264
L75632 45242
L75689 45242
L75775 45264
L76117 45521
L76117 45242
" />
<path d="M75946 45071
L75946 44857
" />
<path d="M76117 45114
L75517 44964
L76117 44814
" />
<path d="M75517 44707
L75517 44407
L76117 44599
" />
<path d="M75575 44257
L75546 44235
L75517 44192
L75517 44085
L75546 44042
L75575 44021
L75632 44000
L75689 44000
L75775 44021
L76117 44278
L76117 44000
" />
<path d="M75889 43807
L75889 43464
" />
<path d="M75575 43271
L75546 43250
L75517 43207
L75517 43100
L75546 43057
L75575 43035
L75632 43014
L75689 43014
L75775 43035
L76117 43292
L76117 43014
" />
<path d="M76117 42585
L76117 42842
" />
<path d="M76117 42714
L75517 42714
L75603 42757
L75660 42800
L75689 42842
" />
<path d="M76117 42178
L76117 42392
L75517 42392
" />
</g>
<g style="fill:#000000; fill-opacity:0.0; 
stroke:#000000; stroke-width:120; stroke-opacity:1; 
stroke-linecap:round; stroke-linejoin:round;">
</g>
<g style="fill:#000000; fill-opacity:0.0; 
stroke:#000000; stroke-width:112.5; stroke-opacity:1; 
stroke-linecap:round; stroke-linejoin:round;">
<path d="M60742 48796
L60142 48796
L60142 48625
L60171 48582
L60200 48560
L60257 48539
L60342 48539
L60400 48560
L60428 48582
L60457 48625
L60457 48796
" />
<path d="M60742 48110
L60742 48367
" />
<path d="M60742 48239
L60142 48239
L60228 48282
L60285 48325
L60314 48367
" />
<path d="M60142 47832
L60142 47789
L60171 47746
L60200 47725
L60257 47703
L60371 47682
L60514 47682
L60628 47703
L60685 47725
L60714 47746
L60742 47789
L60742 47832
L60714 47875
L60685 47896
L60628 47917
L60514 47939
L60371 47939
L60257 47917
L60200 47896
L60171 47875
L60142 47832
" />
</g>
<g style="fill:#000000; fill-opacity:0.0; 
stroke:#000000; stroke-width:120; stroke-opacity:1; 
stroke-linecap:round; stroke-linejoin:round;">
</g>
<g style="fill:#000000; fill-opacity:0.0; 
stroke:#000000; stroke-width:112.5; stroke-opacity:1; 
stroke-linecap:round; stroke-linejoin:round;">
<path d="M61742 48632
L61142 48632
L61142 48524
L61171 48460
L61228 48417
L61285 48396
L61400 48374
L61485 48374
L61600 48396
L61657 48417
L61714 48460
L61742 48524
L61742 48632
" />
<path d="M61742 48182
L61142 48182
" />
<path d="M61742 47967
L61142 47967
L61142 47796
L61171 47753
L61200 47732
L61257 47710
L61342 47710
L61400 47732
L61428 47753
L61457 47796
L61457 47967
" />
<path d="M61142 47432
L61142 47389
L61171 47346
L61200 47324
L61257 47303
L61371 47282
L61514 47282
L61628 47303
L61685 47324
L61714 47346
L61742 47389
L61742 47432
L61714 47474
L61685 47496
L61628 47517
L61514 47539
L61371 47539
L61257 47517
L61200 47496
L61171 47474
L61142 47432
" />
<path d="M61142 46874
L61142 47089
L61428 47110
L61400 47089
L61371 47046
L61371 46939
L61400 46896
L61428 46874
L61485 46853
L61628 46853
L61685 46874
L61714 46896
L61742 46939
L61742 47046
L61714 47089
L61685 47110
" />
<path d="M61514 46660
L61514 46317
" />
<path d="M61200 46124
L61171 46103
L61142 46060
L61142 45953
L61171 45910
L61200 45889
L61257 45867
L61314 45867
L61400 45889
L61742 46146
L61742 45867
" />
<path d="M61571 45696
L61571 45482
" />
<path d="M61742 45739
L61142 45589
L61742 45439
" />
<path d="M61142 45332
L61142 45032
L61742 45224
" />
<path d="M61200 44882
L61171 44860
L61142 44817
L61142 44710
L61171 44667
L61200 44646
L61257 44625
L61314 44625
L61400 44646
L61742 44903
L61742 44625
" />
<path d="M61514 44432
L61514 44089
" />
<path d="M61200 43896
L61171 43875
L61142 43832
L61142 43725
L61171 43682
L61200 43660
L61257 43639
L61314 43639
L61400 43660
L61742 43917
L61742 43639
" />
<path d="M61742 43210
L61742 43467
" />
<path d="M61742 43339
L61142 43339
L61228 43382
L61285 43425
L61314 43467
" />
<path d="M61742 42803
L61742 43017
L61142 43017
" />
</g>
<g style="fill:#000000; fill-opacity:0.0; 
stroke:#000000; stroke-width:120; stroke-opacity:1; 
stroke-linecap:round; stroke-linejoin:round;">
</g>
<g style="fill:#000000; fill-opacity:0.0; 
stroke:#000000; stroke-width:112.5; stroke-opacity:1; 
stroke-linecap:round; stroke-linejoin:round;">
<path d="M67742 48582
L67142 48582
L67142 48410
L67171 48367
L67200 48346
L67257 48324
L67342 48324
L67400 48346
L67428 48367
L67457 48410
L67457 48582
" />
<path d="M67400 48067
L67371 48110
L67342 48132
L67285 48153
L67257 48153
L67200 48132
L67171 48110
L67142 48067
L67142 47982
L67171 47939
L67200 47917
L67257 47896
L67285 47896
L67342 47917
L67371 47939
L67400 47982
L67400 48067
L67428 48110
L67457 48132
L67514 48153
L67628 48153
L67685 48132
L67714 48110
L67742 48067
L67742 47982
L67714 47939
L67685 47917
L67628 47896
L67514 47896
L67457 47917
L67428 47939
L67400 47982
" />
</g>
<g style="fill:#000000; fill-opacity:0.0; 
stroke:#000000; stroke-width:120; stroke-opacity:1; 
stroke-linecap:round; stroke-linejoin:round;">
</g>
<g style="fill:#000000; fill-opacity:0.0; 
stroke:#000000; stroke-width:112.5; stroke-opacity:1; 
stroke-linecap:round; stroke-linejoin:round;">
<path d="M68742 48632
L68142 48632
L68142 48524
L68171 48460
L68228 48417
L68285 48396
L68400 48374
L68485 48374
L68600 48396
L68657 48417
L68714 48460
L68742 48524
L68742 48632
" />
<path d="M68742 48182
L68142 48182
" />
<path d="M68742 47967
L68142 47967
L68142 47796
L68171 47753
L68200 47732
L68257 47710
L68342 47710
L68400 47732
L68428 47753
L68457 47796
L68457 47967
" />
<path d="M68142 47432
L68142 47389
L68171 47346
L68200 47324
L68257 47303
L68371 47282
L68514 47282
L68628 47303
L68685 47324
L68714 47346
L68742 47389
L68742 47432
L68714 47474
L68685 47496
L68628 47517
L68514 47539
L68371 47539
L68257 47517
L68200 47496
L68171 47474
L68142 47432
" />
<path d="M68142 46874
L68142 47089
L68428 47110
L68400 47089
L68371 47046
L68371 46939
L68400 46896
L68428 46874
L68485 46853
L68628 46853
L68685 46874
L68714 46896
L68742 46939
L68742 47046
L68714 47089
L68685 47110
" />
<path d="M68514 46660
L68514 46317
" />
<path d="M68742 45867
L68742 46124
" />
<path d="M68742 45996
L68142 45996
L68228 46039
L68285 46082
L68314 46124
" />
<path d="M68571 45696
L68571 45482
" />
<path d="M68742 45739
L68142 45589
L68742 45439
" />
<path d="M68142 45332
L68142 45032
L68742 45224
" />
<path d="M68200 44882
L68171 44860
L68142 44817
L68142 44710
L68171 44667
L68200 44646
L68257 44625
L68314 44625
L68400 44646
L68742 44903
L68742 44625
" />
<path d="M68514 44432
L68514 44089
" />
<path d="M68742 43639
L68742 43896
" />
<path d="M68742 43767
L68142 43767
L68228 43810
L68285 43853
L68314 43896
" />
<path d="M68200 43467
L68171 43446
L68142 43403
L68142 43296
L68171 43253
L68200 43232
L68257 43210
L68314 43210
L68400 43232
L68742 43489
L68742 43210
" />
<path d="M68742 42803
L68742 43017
L68142 43017
" />
</g>
<g style="fill:#000000; fill-opacity:0.0; 
stroke:#000000; stroke-width:120; stroke-opacity:1; 
stroke-linecap:round; stroke-linejoin:round;">
</g>
<g style="fill:#000000; fill-opacity:0.0; 
stroke:#000000; stroke-width:80; stroke-opacity:1; 
stroke-linecap:round; stroke-linejoin:round;">
<path d="M70661 47045
L70261 47045
L70261 46949
L70280 46892
L70319 46854
L70357 46835
L70433 46816
L70490 46816
L70566 46835
L70604 46854
L70642 46892
L70661 46949
L70661 47045
" />
<path d="M70300 46664
L70280 46645
L70261 46607
L70261 46511
L70280 46473
L70300 46454
L70338 46435
L70376 46435
L70433 46454
L70661 46683
L70661 46435
" />
<path d="M63454 47161
L63454 46761
L63550 46761
L63607 46780
L63645 46819
L63664 46857
L63683 46933
L63683 46990
L63664 47066
L63645 47104
L63607 47142
L63550 47161
L63454 47161
" />
<path d="M64026 46761
L63950 46761
L63911 46780
L63892 46800
L63854 46857
L63835 46933
L63835 47085
L63854 47123
L63873 47142
L63911 47161
L63988 47161
L64026 47142
L64045 47123
L64064 47085
L64064 46990
L64045 46952
L64026 46933
L63988 46914
L63911 46914
L63873 46933
L63854 46952
L63835 46990
" />
<path d="M78161 47045
L77761 47045
L77761 46949
L77780 46892
L77819 46854
L77857 46835
L77933 46816
L77990 46816
L78066 46835
L78104 46854
L78142 46892
L78161 46949
L78161 47045
" />
<path d="M77895 46473
L78161 46473
" />
<path d="M77742 46569
L78028 46664
L78028 46416
" />
<path d="M57161 46795
L56761 46795
L56761 46699
L56780 46642
L56819 46604
L56857 46585
L56933 46566
L56990 46566
L57066 46585
L57104 46604
L57142 46642
L57161 46699
L57161 46795
" />
<path d="M56933 46338
L56914 46376
L56895 46395
L56857 46414
L56838 46414
L56800 46395
L56780 46376
L56761 46338
L56761 46261
L56780 46223
L56800 46204
L56838 46185
L56857 46185
L56895 46204
L56914 46223
L56933 46261
L56933 46338
L56952 46376
L56971 46395
L57009 46414
L57085 46414
L57123 46395
L57142 46376
L57161 46338
L57161 46261
L57142 46223
L57123 46204
L57085 46185
L57009 46185
L56971 46204
L56952 46223
L56933 46261
" />
</g>
<g style="fill:#000000; fill-opacity:0.0; 
stroke:#000000; stroke-width:120; stroke-opacity:1; 
stroke-linecap:round; stroke-linejoin:round;">
<path d="M65557 27992
L65557 27392
" />
<path d="M65900 27992
L65642 27650
" />
<path d="M65900 27392
L65557 27735
" />
<path d="M66471 27992
L66128 27992
" />
<path d="M66300 27992
L66300 27392
L66242 27478
L66185 27535
L66128 27564
" />
<path d="M64728 31935
L64700 31964
L64614 31992
L64557 31992
L64471 31964
L64414 31907
L64385 31850
L64357 31735
L64357 31650
L64385 31535
L64414 31478
L64471 31421
L64557 31392
L64614 31392
L64700 31421
L64728 31450
" />
<path d="M65100 31392
L65214 31392
L65271 31421
L65328 31478
L65357 31592
L65357 31792
L65328 31907
L65271 31964
L65214 31992
L65100 31992
L65042 31964
L64985 31907
L64957 31792
L64957 31592
L64985 31478
L65042 31421
L65100 31392
" />
<path d="M65614 31992
L65614 31392
L65957 31992
L65957 31392
" />
<path d="M66242 31992
L66242 31392
L66585 31992
L66585 31392
" />
<path d="M66728 32050
L67185 32050
" />
<path d="M67271 31392
L67642 31392
L67442 31621
L67528 31621
L67585 31650
L67614 31678
L67642 31735
L67642 31878
L67614 31935
L67585 31964
L67528 31992
L67357 31992
L67300 31964
L67271 31935
" />
<path d="M62057 55742
L62057 55142
" />
<path d="M62400 55742
L62142 55400
" />
<path d="M62400 55142
L62057 55485
" />
<path d="M62942 55142
L62657 55142
L62628 55428
L62657 55400
L62714 55371
L62857 55371
L62914 55400
L62942 55428
L62971 55485
L62971 55628
L62942 55685
L62914 55714
L62857 55742
L62714 55742
L62657 55714
L62628 55685
" />
<path d="M61228 51685
L61200 51714
L61114 51742
L61057 51742
L60971 51714
L60914 51657
L60885 51600
L60857 51485
L60857 51400
L60885 51285
L60914 51228
L60971 51171
L61057 51142
L61114 51142
L61200 51171
L61228 51200
" />
<path d="M61600 51142
L61714 51142
L61771 51171
L61828 51228
L61857 51342
L61857 51542
L61828 51657
L61771 51714
L61714 51742
L61600 51742
L61542 51714
L61485 51657
L61457 51542
L61457 51342
L61485 51228
L61542 51171
L61600 51142
" />
<path d="M62114 51742
L62114 51142
L62457 51742
L62457 51142
" />
<path d="M62742 51742
L62742 51142
L63085 51742
L63085 51142
" />
<path d="M63228 51800
L63685 51800
" />
<path d="M63771 51142
L64142 51142
L63942 51371
L64028 51371
L64085 51400
L64114 51428
L64142 51485
L64142 51628
L64114 51685
L64085 51714
L64028 51742
L63857 51742
L63800 51714
L63771 51685
" />
</g>
<g style="fill:#000000; fill-opacity:0.0; 
stroke:#000000; stroke-width:112.5; stroke-opacity:1; 
stroke-linecap:round; stroke-linejoin:round;">
<path d="M53992 48796
L53392 48796
L53392 48625
L53421 48582
L53450 48560
L53507 48539
L53592 48539
L53650 48560
L53678 48582
L53707 48625
L53707 48796
" />
<path d="M53992 48110
L53992 48367
" />
<path d="M53992 48239
L53392 48239
L53478 48282
L53535 48325
L53564 48367
" />
<path d="M53992 47682
L53992 47939
" />
<path d="M53992 47810
L53392 47810
L53478 47853
L53535 47896
L53564 47939
" />
</g>
<g style="fill:#000000; fill-opacity:0.0; 
stroke:#000000; stroke-width:120; stroke-opacity:1; 
stroke-linecap:round; stroke-linejoin:round;">
</g>
<g style="fill:#000000; fill-opacity:0.0; 
stroke:#000000; stroke-width:112.5; stroke-opacity:1; 
stroke-linecap:round; stroke-linejoin:round;">
<path d="M54992 48632
L54392 48632
L54392 48524
L54421 48460
L54478 48417
L54535 48396
L54650 48374
L54735 48374
L54850 48396
L54907 48417
L54964 48460
L54992 48524
L54992 48632
" />
<path d="M54992 48182
L54392 48182
" />
<path d="M54992 47967
L54392 47967
L54392 47796
L54421 47753
L54450 47732
L54507 47710
L54592 47710
L54650 47732
L54678 47753
L54707 47796
L54707 47967
" />
<path d="M54392 47432
L54392 47389
L54421 47346
L54450 47324
L54507 47303
L54621 47282
L54764 47282
L54878 47303
L54935 47324
L54964 47346
L54992 47389
L54992 47432
L54964 47474
L54935 47496
L54878 47517
L54764 47539
L54621 47539
L54507 47517
L54450 47496
L54421 47474
L54392 47432
" />
<path d="M54392 46874
L54392 47089
L54678 47110
L54650 47089
L54621 47046
L54621 46939
L54650 46896
L54678 46874
L54735 46853
L54878 46853
L54935 46874
L54964 46896
L54992 46939
L54992 47046
L54964 47089
L54935 47110
" />
<path d="M54764 46660
L54764 46317
" />
<path d="M54992 45867
L54992 46124
" />
<path d="M54992 45996
L54392 45996
L54478 46039
L54535 46082
L54564 46124
" />
<path d="M54821 45696
L54821 45482
" />
<path d="M54992 45739
L54392 45589
L54992 45439
" />
<path d="M54392 45332
L54392 45032
L54992 45224
" />
<path d="M54450 44882
L54421 44860
L54392 44817
L54392 44710
L54421 44667
L54450 44646
L54507 44625
L54564 44625
L54650 44646
L54992 44903
L54992 44625
" />
<path d="M54764 44432
L54764 44089
" />
<path d="M54992 43639
L54992 43896
" />
<path d="M54992 43767
L54392 43767
L54478 43810
L54535 43853
L54564 43896
" />
<path d="M54450 43467
L54421 43446
L54392 43403
L54392 43296
L54421 43253
L54450 43232
L54507 43210
L54564 43210
L54650 43232
L54992 43489
L54992 43210
" />
<path d="M54992 42803
L54992 43017
L54392 43017
" />
</g>
<g style="fill:#000000; fill-opacity:0.0; 
stroke:#000000; stroke-width:120; stroke-opacity:1; 
stroke-linecap:round; stroke-linejoin:round;">
</g>
<g style="fill:#000000; fill-opacity:0.0; 
stroke:#000000; stroke-width:80; stroke-opacity:1; 
stroke-linecap:round; stroke-linejoin:round;">
<path d="M78157 34254
L78116 34267
L78063 34267
L77982 34267
L77941 34281
L77914 34308
" />
<path d="M77995 34361
L77955 34375
L77901 34375
L77834 34334
L77739 34240
L77699 34173
L77699 34119
L77712 34079
L77766 34025
L77807 34011
L77861 34011
L77928 34052
L78022 34146
L78063 34213
L78063 34267
L78049 34308
L77995 34361
" />
<path d="M78386 33971
L78224 34132
" />
<path d="M78305 34052
L78022 33769
L78036 33836
L78036 33890
L78022 33930
" />
<path d="M79958 37052
L80012 37025
L80039 37025
L80080 37038
L80120 37079
L80133 37119
L80133 37146
L80120 37186
L80012 37294
L79729 37011
L79824 36917
L79864 36904
L79891 36904
L79931 36917
L79958 36944
L79972 36984
L79972 37011
L79958 37052
L79864 37146
" />
<path d="M80430 36823
L80430 36850
L80403 36904
L80376 36931
L80322 36957
L80268 36957
L80228 36944
L80160 36904
L80120 36863
L80080 36796
L80066 36755
L80066 36702
L80093 36648
L80120 36621
L80174 36594
L80201 36594
" />
<path d="M80430 36311
L80295 36446
L80416 36594
L80416 36567
L80430 36526
L80497 36459
L80537 36446
L80564 36446
L80605 36459
L80672 36526
L80686 36567
L80686 36594
L80672 36634
L80605 36702
L80564 36715
L80537 36715
" />
<path d="M80780 36149
L80968 36338
" />
<path d="M80605 36109
L80740 36378
L80915 36203
" />
<path d="M80807 35934
L80995 35745
L81157 36149
" />
<path d="M81821 40832
L81781 40846
L81727 40846
L81646 40846
L81606 40859
L81579 40886
" />
<path d="M81659 40940
L81619 40953
L81565 40953
L81498 40913
L81404 40819
L81363 40751
L81363 40697
L81377 40657
L81430 40603
L81471 40590
L81525 40590
L81592 40630
L81686 40724
L81727 40792
L81727 40846
L81713 40886
L81659 40940
" />
<path d="M81592 40441
L81767 40266
L81781 40468
L81821 40428
L81861 40415
L81888 40415
L81929 40428
L81996 40495
L82010 40536
L82010 40563
L81996 40603
L81915 40684
L81875 40697
L81848 40697
" />
<path d="M78673 38680
L78727 38654
L78754 38654
L78794 38667
L78834 38707
L78848 38748
L78848 38775
L78834 38815
L78727 38923
L78444 38640
L78538 38546
L78579 38532
L78605 38532
L78646 38546
L78673 38573
L78686 38613
L78686 38640
L78673 38680
L78579 38775
" />
<path d="M79144 38451
L79144 38478
L79117 38532
L79090 38559
L79036 38586
L78983 38586
L78942 38573
L78875 38532
L78834 38492
L78794 38425
L78781 38384
L78781 38330
L78807 38276
L78834 38249
L78888 38223
L78915 38223
" />
<path d="M79144 37940
L79009 38074
L79131 38223
L79131 38196
L79144 38155
L79212 38088
L79252 38074
L79279 38074
L79319 38088
L79387 38155
L79400 38196
L79400 38223
L79387 38263
L79319 38330
L79279 38344
L79252 38344
" />
<path d="M79494 37778
L79683 37967
" />
<path d="M79319 37738
L79454 38007
L79629 37832
" />
<path d="M79521 37563
L79710 37374
L79871 37778
" />
<path d="M80407 42754
L80366 42767
L80313 42767
L80232 42767
L80191 42781
L80164 42808
" />
<path d="M80245 42861
L80205 42875
L80151 42875
L80084 42834
L79989 42740
L79949 42673
L79949 42619
L79962 42579
L80016 42525
L80057 42511
L80111 42511
L80178 42552
L80272 42646
L80313 42713
L80313 42767
L80299 42808
L80245 42861
" />
<path d="M80218 42377
L80218 42350
L80232 42309
L80299 42242
L80340 42228
L80366 42228
L80407 42242
L80434 42269
L80461 42323
L80461 42646
L80636 42471
" />
<path d="M82208 45552
L82262 45525
L82289 45525
L82330 45538
L82370 45579
L82383 45619
L82383 45646
L82370 45686
L82262 45794
L81979 45511
L82074 45417
L82114 45404
L82141 45404
L82181 45417
L82208 45444
L82222 45484
L82222 45511
L82208 45552
L82114 45646
" />
<path d="M82680 45323
L82680 45350
L82653 45404
L82626 45431
L82572 45457
L82518 45457
L82478 45444
L82410 45404
L82370 45363
L82330 45296
L82316 45255
L82316 45202
L82343 45148
L82370 45121
L82424 45094
L82451 45094
" />
<path d="M82680 44811
L82545 44946
L82666 45094
L82666 45067
L82680 45026
L82747 44959
L82787 44946
L82814 44946
L82855 44959
L82922 45026
L82936 45067
L82936 45094
L82922 45134
L82855 45202
L82814 45215
L82787 45215
" />
<path d="M83030 44649
L83218 44838
" />
<path d="M82855 44609
L82990 44878
L83165 44703
" />
<path d="M83057 44434
L83245 44245
L83407 44649
" />
<path d="M85071 49332
L85031 49346
L84977 49346
L84896 49346
L84856 49359
L84829 49386
" />
<path d="M84909 49440
L84869 49453
L84815 49453
L84748 49413
L84654 49319
L84613 49251
L84613 49197
L84627 49157
L84680 49103
L84721 49090
L84775 49090
L84842 49130
L84936 49224
L84977 49292
L84977 49346
L84963 49386
L84909 49440
" />
<path d="M85085 48888
L85273 49076
" />
<path d="M84909 48847
L85044 49117
L85219 48941
" />
<path d="M81923 47180
L81977 47154
L82004 47154
L82044 47167
L82084 47207
L82098 47248
L82098 47275
L82084 47315
L81977 47423
L81694 47140
L81788 47046
L81829 47032
L81855 47032
L81896 47046
L81923 47073
L81936 47113
L81936 47140
L81923 47180
L81829 47275
" />
<path d="M82394 46951
L82394 46978
L82367 47032
L82340 47059
L82286 47086
L82233 47086
L82192 47073
L82125 47032
L82084 46992
L82044 46925
L82031 46884
L82031 46830
L82057 46776
L82084 46749
L82138 46723
L82165 46723
" />
<path d="M82394 46440
L82259 46574
L82381 46723
L82381 46696
L82394 46655
L82462 46588
L82502 46574
L82529 46574
L82569 46588
L82637 46655
L82650 46696
L82650 46723
L82637 46763
L82569 46830
L82529 46844
L82502 46844
" />
<path d="M82744 46278
L82933 46467
" />
<path d="M82569 46238
L82704 46507
L82879 46332
" />
<path d="M82771 46063
L82960 45874
L83121 46278
" />
</g>
<g style="fill:#000000; fill-opacity:0.0; 
stroke:#000000; stroke-width:120; stroke-opacity:1; 
stroke-linecap:round; stroke-linejoin:round;">
<path d="M58685 51850
L58714 51878
L58742 51964
L58742 52021
L58714 52107
L58657 52164
L58600 52192
L58485 52221
L58400 52221
L58285 52192
L58228 52164
L58171 52107
L58142 52021
L58142 51964
L58171 51878
L58200 51850
" />
<path d="M58742 51564
L58742 51450
L58714 51392
L58685 51364
L58600 51307
L58485 51278
L58257 51278
L58200 51307
L58171 51335
L58142 51392
L58142 51507
L58171 51564
L58200 51592
L58257 51621
L58400 51621
L58457 51592
L58485 51564
L58514 51507
L58514 51392
L58485 51335
L58457 51307
L58400 51278
" />
<path d="M64900 51185
L64871 51214
L64785 51242
L64728 51242
L64642 51214
L64585 51157
L64557 51100
L64528 50985
L64528 50900
L64557 50785
L64585 50728
L64642 50671
L64728 50642
L64785 50642
L64871 50671
L64900 50700
" />
<path d="M65242 50900
L65185 50871
L65157 50842
L65128 50785
L65128 50757
L65157 50700
L65185 50671
L65242 50642
L65357 50642
L65414 50671
L65442 50700
L65471 50757
L65471 50785
L65442 50842
L65414 50871
L65357 50900
L65242 50900
L65185 50928
L65157 50957
L65128 51014
L65128 51128
L65157 51185
L65185 51214
L65242 51242
L65357 51242
L65414 51214
L65442 51185
L65471 51128
L65471 51014
L65442 50957
L65414 50928
L65357 50900
" />
<path d="M72935 51850
L72964 51878
L72992 51964
L72992 52021
L72964 52107
L72907 52164
L72850 52192
L72735 52221
L72650 52221
L72535 52192
L72478 52164
L72421 52107
L72392 52021
L72392 51964
L72421 51878
L72450 51850
" />
<path d="M72392 51650
L72392 51250
L72992 51507
" />
<path d="M79150 51185
L79121 51214
L79035 51242
L78978 51242
L78892 51214
L78835 51157
L78807 51100
L78778 50985
L78778 50900
L78807 50785
L78835 50728
L78892 50671
L78978 50642
L79035 50642
L79121 50671
L79150 50700
" />
<path d="M79664 50642
L79550 50642
L79492 50671
L79464 50700
L79407 50785
L79378 50900
L79378 51128
L79407 51185
L79435 51214
L79492 51242
L79607 51242
L79664 51214
L79692 51185
L79721 51128
L79721 50985
L79692 50928
L79664 50900
L79607 50871
L79492 50871
L79435 50900
L79407 50928
L79378 50985
" />
<path d="M70685 31600
L70714 31628
L70742 31714
L70742 31771
L70714 31857
L70657 31914
L70600 31942
L70485 31971
L70400 31971
L70285 31942
L70228 31914
L70171 31857
L70142 31771
L70142 31714
L70171 31628
L70200 31600
" />
<path d="M70142 31057
L70142 31342
L70428 31371
L70400 31342
L70371 31285
L70371 31142
L70400 31085
L70428 31057
L70485 31028
L70628 31028
L70685 31057
L70714 31085
L70742 31142
L70742 31285
L70714 31342
L70685 31371
" />
<path d="M63900 32435
L63871 32464
L63785 32492
L63728 32492
L63642 32464
L63585 32407
L63557 32350
L63528 32235
L63528 32150
L63557 32035
L63585 31978
L63642 31921
L63728 31892
L63785 31892
L63871 31921
L63900 31950
" />
<path d="M64414 32092
L64414 32492
" />
<path d="M64271 31864
L64128 32292
L64500 32292
" />
<path d="M57185 31100
L57214 31128
L57242 31214
L57242 31271
L57214 31357
L57157 31414
L57100 31442
L56985 31471
L56900 31471
L56785 31442
L56728 31414
L56671 31357
L56642 31271
L56642 31214
L56671 31128
L56700 31100
" />
<path d="M56642 30900
L56642 30528
L56871 30728
L56871 30642
L56900 30585
L56928 30557
L56985 30528
L57128 30528
L57185 30557
L57214 30585
L57242 30642
L57242 30814
L57214 30871
L57185 30900
" />
<path d="M50150 32685
L50121 32714
L50035 32742
L49978 32742
L49892 32714
L49835 32657
L49807 32600
L49778 32485
L49778 32400
L49807 32285
L49835 32228
L49892 32171
L49978 32142
L50035 32142
L50121 32171
L50150 32200
" />
<path d="M50378 32200
L50407 32171
L50464 32142
L50607 32142
L50664 32171
L50692 32200
L50721 32257
L50721 32314
L50692 32400
L50350 32742
L50721 32742
" />
</g>
<g style="fill:#000000; fill-opacity:0.0; 
stroke:#000000; stroke-width:80; stroke-opacity:1; 
stroke-linecap:round; stroke-linejoin:round;">
<path d="M22416 35972
L22250 35710
" />
<path d="M22130 35972
L22130 35422
L22321 35422
L22369 35448
L22392 35475
L22416 35527
L22416 35605
L22392 35658
L22369 35684
L22321 35710
L22130 35710
" />
<path d="M22869 35422
L22630 35422
L22607 35684
L22630 35658
L22678 35632
L22797 35632
L22845 35658
L22869 35684
L22892 35736
L22892 35867
L22869 35920
L22845 35946
L22797 35972
L22678 35972
L22630 35946
L22607 35920
" />
<path d="M31184 44916
L31184 45083
" />
<path d="M31472 45083
L30922 45083
L30922 44845
" />
<path d="M31184 44488
L31210 44416
L31236 44392
L31289 44369
L31367 44369
L31420 44392
L31446 44416
L31472 44464
L31472 44654
L30922 44654
L30922 44488
L30948 44440
L30975 44416
L31027 44392
L31079 44392
L31132 44416
L31158 44440
L31184 44488
L31184 44654
" />
<path d="M30975 44178
L30948 44154
L30922 44107
L30922 43988
L30948 43940
L30975 43916
L31027 43892
L31079 43892
L31158 43916
L31472 44202
L31472 43892
" />
<path d="M31434 40916
L31434 41083
" />
<path d="M31722 41083
L31172 41083
L31172 40845
" />
<path d="M31434 40488
L31460 40416
L31486 40392
L31539 40369
L31617 40369
L31670 40392
L31696 40416
L31722 40464
L31722 40654
L31172 40654
L31172 40488
L31198 40440
L31225 40416
L31277 40392
L31329 40392
L31382 40416
L31408 40440
L31434 40488
L31434 40654
" />
<path d="M31722 39892
L31722 40178
" />
<path d="M31722 40035
L31172 40035
L31251 40083
L31303 40130
L31329 40178
" />
</g>
<g style="fill:#000000; fill-opacity:0.0; 
stroke:#000000; stroke-width:60; stroke-opacity:1; 
stroke-linecap:round; stroke-linejoin:round;">
<path d="M25661 37295
L25261 37295
" />
<path d="M25661 37066
L25433 37238
" />
<path d="M25261 37066
L25490 37295
" />
<path d="M25261 36723
L25261 36799
L25280 36838
L25300 36857
L25357 36895
L25433 36914
L25585 36914
L25623 36895
L25642 36876
L25661 36838
L25661 36761
L25642 36723
L25623 36704
L25585 36685
L25490 36685
L25452 36704
L25433 36723
L25414 36761
L25414 36838
L25433 36876
L25452 36895
L25490 36914
" />
</g>
<g style="fill:#000000; fill-opacity:0.0; 
stroke:#000000; stroke-width:120; stroke-opacity:1; 
stroke-linecap:round; stroke-linejoin:round;">
</g>
<g style="fill:#000000; fill-opacity:0.0; 
stroke:#000000; stroke-width:112.5; stroke-opacity:1; 
stroke-linecap:round; stroke-linejoin:round;">
<path d="M26703 42492
L26703 41892
L26875 41892
L26917 41921
L26939 41950
L26960 42007
L26960 42092
L26939 42150
L26917 42178
L26875 42207
L26703 42207
" />
<path d="M27389 42492
L27132 42492
" />
<path d="M27260 42492
L27260 41892
L27217 41978
L27175 42035
L27132 42064
" />
<path d="M27560 41950
L27582 41921
L27625 41892
L27732 41892
L27775 41921
L27796 41950
L27817 42007
L27817 42064
L27796 42150
L27539 42492
L27817 42492
" />
</g>
<g style="fill:#000000; fill-opacity:0.0; 
stroke:#000000; stroke-width:120; stroke-opacity:1; 
stroke-linecap:round; stroke-linejoin:round;">
</g>
<g style="fill:#000000; fill-opacity:0.0; 
stroke:#000000; stroke-width:112.5; stroke-opacity:1; 
stroke-linecap:round; stroke-linejoin:round;">
<path d="M21867 41492
L21867 40892
L21975 40892
L22039 40921
L22082 40978
L22103 41035
L22125 41150
L22125 41235
L22103 41350
L22082 41407
L22039 41464
L21975 41492
L21867 41492
" />
<path d="M22317 41492
L22317 40892
" />
<path d="M22532 41492
L22532 40892
L22703 40892
L22746 40921
L22767 40950
L22789 41007
L22789 41092
L22767 41150
L22746 41178
L22703 41207
L22532 41207
" />
<path d="M23067 40892
L23110 40892
L23153 40921
L23175 40950
L23196 41007
L23217 41121
L23217 41264
L23196 41378
L23175 41435
L23153 41464
L23110 41492
L23067 41492
L23025 41464
L23003 41435
L22982 41378
L22960 41264
L22960 41121
L22982 41007
L23003 40950
L23025 40921
L23067 40892
" />
<path d="M23625 40892
L23410 40892
L23389 41178
L23410 41150
L23453 41121
L23560 41121
L23603 41150
L23625 41178
L23646 41235
L23646 41378
L23625 41435
L23603 41464
L23560 41492
L23453 41492
L23410 41464
L23389 41435
" />
<path d="M23839 41264
L24182 41264
" />
<path d="M24375 40950
L24396 40921
L24439 40892
L24546 40892
L24589 40921
L24610 40950
L24632 41007
L24632 41064
L24610 41150
L24353 41492
L24632 41492
" />
<path d="M24803 41321
L25017 41321
" />
<path d="M24760 41492
L24910 40892
L25060 41492
" />
<path d="M25167 40892
L25467 40892
L25275 41492
" />
<path d="M25617 40950
L25639 40921
L25682 40892
L25789 40892
L25832 40921
L25853 40950
L25875 41007
L25875 41064
L25853 41150
L25596 41492
L25875 41492
" />
<path d="M26067 41264
L26410 41264
" />
<path d="M26603 40950
L26625 40921
L26667 40892
L26775 40892
L26817 40921
L26839 40950
L26860 41007
L26860 41064
L26839 41150
L26582 41492
L26860 41492
" />
<path d="M27289 41492
L27032 41492
" />
<path d="M27160 41492
L27160 40892
L27117 40978
L27074 41035
L27032 41064
" />
<path d="M27696 41492
L27482 41492
L27482 40892
" />
</g>
<g style="fill:#000000; fill-opacity:0.0; 
stroke:#000000; stroke-width:120; stroke-opacity:1; 
stroke-linecap:round; stroke-linejoin:round;">
</g>
<g style="fill:#000000; fill-opacity:0.0; 
stroke:#000000; stroke-width:80; stroke-opacity:1; 
stroke-linecap:round; stroke-linejoin:round;">
<path d="M25204 39161
L25204 38761
L25300 38761
L25357 38780
L25395 38819
L25414 38857
L25433 38933
L25433 38990
L25414 39066
L25395 39104
L25357 39142
L25300 39161
L25204 39161
" />
<path d="M25623 39161
L25700 39161
L25738 39142
L25757 39123
L25795 39066
L25814 38990
L25814 38838
L25795 38800
L25776 38780
L25738 38761
L25661 38761
L25623 38780
L25604 38800
L25585 38838
L25585 38933
L25604 38971
L25623 38990
L25661 39009
L25738 39009
L25776 38990
L25795 38971
L25814 38933
" />
</g>
<g style="fill:#000000; fill-opacity:0.0; 
stroke:#000000; stroke-width:120; stroke-opacity:1; 
stroke-linecap:round; stroke-linejoin:round;">
<path d="M23807 47992
L23807 47392
" />
<path d="M24150 47992
L23892 47650
" />
<path d="M24150 47392
L23807 47735
" />
<path d="M24350 47392
L24750 47392
L24492 47992
" />
<path d="M22978 43935
L22950 43964
L22864 43992
L22807 43992
L22721 43964
L22664 43907
L22635 43850
L22607 43735
L22607 43650
L22635 43535
L22664 43478
L22721 43421
L22807 43392
L22864 43392
L22950 43421
L22978 43450
" />
<path d="M23350 43392
L23464 43392
L23521 43421
L23578 43478
L23607 43592
L23607 43792
L23578 43907
L23521 43964
L23464 43992
L23350 43992
L23292 43964
L23235 43907
L23207 43792
L23207 43592
L23235 43478
L23292 43421
L23350 43392
" />
<path d="M23864 43992
L23864 43392
L24207 43992
L24207 43392
" />
<path d="M24492 43992
L24492 43392
L24835 43992
L24835 43392
" />
<path d="M24978 44050
L25435 44050
" />
<path d="M25521 43392
L25892 43392
L25692 43621
L25778 43621
L25835 43650
L25864 43678
L25892 43735
L25892 43878
L25864 43935
L25835 43964
L25778 43992
L25607 43992
L25550 43964
L25521 43935
" />
<path d="M36492 40942
L35892 40942
" />
<path d="M36492 40600
L36150 40857
" />
<path d="M35892 40600
L36235 40942
" />
<path d="M36150 40257
L36121 40314
L36092 40342
L36035 40371
L36007 40371
L35950 40342
L35921 40314
L35892 40257
L35892 40142
L35921 40085
L35950 40057
L36007 40028
L36035 40028
L36092 40057
L36121 40085
L36150 40142
L36150 40257
L36178 40314
L36207 40342
L36264 40371
L36378 40371
L36435 40342
L36464 40314
L36492 40257
L36492 40142
L36464 40085
L36435 40057
L36378 40028
L36264 40028
L36207 40057
L36178 40085
L36150 40142
" />
<path d="M32435 41771
L32464 41799
L32492 41885
L32492 41942
L32464 42028
L32407 42085
L32350 42114
L32235 42142
L32150 42142
L32035 42114
L31978 42085
L31921 42028
L31892 41942
L31892 41885
L31921 41799
L31950 41771
" />
<path d="M31892 41399
L31892 41285
L31921 41228
L31978 41171
L32092 41142
L32292 41142
L32407 41171
L32464 41228
L32492 41285
L32492 41399
L32464 41457
L32407 41514
L32292 41542
L32092 41542
L31978 41514
L31921 41457
L31892 41399
" />
<path d="M32492 40885
L31892 40885
L32492 40542
L31892 40542
" />
<path d="M32492 40257
L31892 40257
L32492 39914
L31892 39914
" />
<path d="M32550 39771
L32550 39314
" />
<path d="M31892 39228
L31892 38857
L32121 39057
L32121 38971
L32150 38914
L32178 38885
L32235 38857
L32378 38857
L32435 38885
L32464 38914
L32492 38971
L32492 39142
L32464 39200
L32435 39228
" />
</g>
<g style="fill:#000000; fill-opacity:0.0; 
stroke:#000000; stroke-width:80; stroke-opacity:1; 
stroke-linecap:round; stroke-linejoin:round;">
<path d="M24495 36407
L24482 36366
L24482 36313
L24482 36232
L24468 36191
L24441 36164
" />
<path d="M24388 36245
L24374 36205
L24374 36151
L24415 36084
L24509 35989
L24576 35949
L24630 35949
L24670 35962
L24724 36016
L24738 36057
L24738 36111
L24697 36178
L24603 36272
L24536 36313
L24482 36313
L24441 36299
L24388 36245
" />
<path d="M25048 36340
L24913 36205
L24765 36326
L24792 36326
L24832 36340
L24899 36407
L24913 36447
L24913 36474
L24899 36515
L24832 36582
L24792 36595
L24765 36595
L24724 36582
L24657 36515
L24644 36474
L24644 36447
" />
<path d="M21008 37691
L21035 37744
L21035 37771
L21021 37812
L20981 37852
L20941 37866
L20914 37866
L20873 37852
L20765 37744
L21048 37462
L21143 37556
L21156 37596
L21156 37623
L21143 37664
L21116 37691
L21075 37704
L21048 37704
L21008 37691
L20914 37596
" />
<path d="M21237 38162
L21210 38162
L21156 38135
L21129 38108
L21102 38054
L21102 38000
L21116 37960
L21156 37893
L21196 37852
L21264 37812
L21304 37798
L21358 37798
L21412 37825
L21439 37852
L21466 37906
L21466 37933
" />
<path d="M21749 38162
L21614 38027
L21466 38148
L21493 38148
L21533 38162
L21601 38229
L21614 38270
L21614 38297
L21601 38337
L21533 38404
L21493 38418
L21466 38418
L21425 38404
L21358 38337
L21345 38297
L21345 38270
" />
<path d="M21910 38512
L21722 38701
" />
<path d="M21951 38337
L21681 38472
L21856 38647
" />
<path d="M22126 38539
L22314 38728
L21910 38889
" />
</g>
<g style="fill:#000000; fill-opacity:0.0; 
stroke:#000000; stroke-width:50; stroke-opacity:1; 
stroke-linecap:round; stroke-linejoin:round;">
<path d="M27843 36942
L27858 36957
L27872 37000
L27872 37028
L27858 37071
L27829 37100
L27801 37114
L27743 37128
L27701 37128
L27643 37114
L27615 37100
L27586 37071
L27572 37028
L27572 37000
L27586 36957
L27601 36942
" />
<path d="M27872 36657
L27872 36828
" />
<path d="M27872 36742
L27572 36742
L27615 36771
L27643 36800
L27658 36828
" />
<path d="M27572 36471
L27572 36442
L27586 36414
L27601 36400
L27629 36385
L27686 36371
L27758 36371
L27815 36385
L27843 36400
L27858 36414
L27872 36442
L27872 36471
L27858 36500
L27843 36514
L27815 36528
L27758 36542
L27686 36542
L27629 36528
L27601 36514
L27586 36500
L27572 36471
" />
<path d="M28921 37041
L29121 37041
" />
<path d="M28807 37101
L29021 37160
L29021 37005
" />
<path d="M28821 36934
L28821 36767
L29121 36875
" />
<path d="M28921 36565
L29121 36565
" />
<path d="M28921 36672
L29078 36672
L29107 36660
L29121 36636
L29121 36601
L29107 36577
L29092 36565
" />
<path d="M28964 36363
L28964 36446
" />
<path d="M29121 36446
L28821 36446
L28821 36327
" />
</g>
<g style="fill:#000000; fill-opacity:0.0; 
stroke:#000000; stroke-width:80; stroke-opacity:1; 
stroke-linecap:round; stroke-linejoin:round;">
</g>
<g style="fill:#000000; fill-opacity:0.0; 
stroke:#000000; stroke-width:75; stroke-opacity:1; 
stroke-linecap:round; stroke-linejoin:round;">
<path d="M28257 37764
L28257 37535
" />
<path d="M28371 37650
L28142 37650
" />
</g>
<g style="fill:#000000; fill-opacity:0.0; 
stroke:#000000; stroke-width:80; stroke-opacity:1; 
stroke-linecap:round; stroke-linejoin:round;">
</g>
<g style="fill:#000000; fill-opacity:0.0; 
stroke:#000000; stroke-width:120; stroke-opacity:1; 
stroke-linecap:round; stroke-linejoin:round;">
<path d="M30307 49242
L30307 48642
" />
<path d="M30650 49242
L30392 48900
" />
<path d="M30650 48642
L30307 48985
" />
<path d="M30935 49242
L31050 49242
L31107 49214
L31135 49185
L31192 49100
L31221 48985
L31221 48757
L31192 48700
L31164 48671
L31107 48642
L30992 48642
L30935 48671
L30907 48700
L30878 48757
L30878 48900
L30907 48957
L30935 48985
L30992 49014
L31107 49014
L31164 48985
L31192 48957
L31221 48900
" />
<path d="M29478 45185
L29450 45214
L29364 45242
L29307 45242
L29221 45214
L29164 45157
L29135 45100
L29107 44985
L29107 44900
L29135 44785
L29164 44728
L29221 44671
L29307 44642
L29364 44642
L29450 44671
L29478 44700
" />
<path d="M29850 44642
L29964 44642
L30021 44671
L30078 44728
L30107 44842
L30107 45042
L30078 45157
L30021 45214
L29964 45242
L29850 45242
L29792 45214
L29735 45157
L29707 45042
L29707 44842
L29735 44728
L29792 44671
L29850 44642
" />
<path d="M30364 45242
L30364 44642
L30707 45242
L30707 44642
" />
<path d="M30992 45242
L30992 44642
L31335 45242
L31335 44642
" />
<path d="M31478 45300
L31935 45300
" />
<path d="M32021 44642
L32392 44642
L32192 44871
L32278 44871
L32335 44900
L32364 44928
L32392 44985
L32392 45128
L32364 45185
L32335 45214
L32278 45242
L32107 45242
L32050 45214
L32021 45185
" />
</g> 
</svg>
