<?xml version="1.0" standalone="no"?>
 <!DOCTYPE svg PUBLIC "-//W3C//DTD SVG 1.1//EN" 
 "http://www.w3.org/Graphics/SVG/1.1/DTD/svg11.dtd"> 
<svg xmlns="http://www.w3.org/2000/svg" version="1.1" 
    width="29.7002cm" height="21.0007cm" viewBox="0 0 116930 82680 ">
<title>SVG Picture created as rc_car-F.SilkS.svg date 2017/06/29 15:17:25 </title>
  <desc>Picture generated by PCBNEW </desc>
<g style="fill:#000000; fill-opacity:1;stroke:#000000; stroke-opacity:1;
stroke-linecap:round; stroke-linejoin:round; "
 transform="translate(0 0) scale(1 1)">
</g>
<g style="fill:#000000; fill-opacity:0.0; 
stroke:#000000; stroke-width:-0.000393701; stroke-opacity:1; 
stroke-linecap:round; stroke-linejoin:round;">
</g>
<g style="fill:#000000; fill-opacity:0.0; 
stroke:#000000; stroke-width:59.0551; stroke-opacity:1; 
stroke-linecap:round; stroke-linejoin:round;">
<path d="M31903 21246
L31903 21746
" />
<path d="M34796 21246
L34796 21746
" />
<path d="M34796 36053
L34796 35553
" />
<path d="M31903 36053
L31903 35553
" />
<path d="M31903 21246
L34796 21246
" />
<path d="M31903 36053
L34796 36053
" />
<path d="M31903 21746
L31397 21746
" />
<path d="M31350 19350
L27350 19350
" />
<path d="M31350 19850
L31350 16850
" />
<path d="M31350 16850
L27350 16850
" />
<path d="M27350 16850
L27350 19850
" />
<path d="M27350 19850
L31350 19850
" />
<path d="M34239 18271
L31760 18271
" />
<path d="M34237 18326
L31762 18326
" />
<path d="M34232 18381
L33175 18381
" />
<path d="M32824 18381
L31767 18381
" />
<path d="M34224 18437
L33258 18437
" />
<path d="M32741 18437
L31775 18437
" />
<path d="M34214 18492
L33310 18492
" />
<path d="M32689 18492
L31785 18492
" />
<path d="M34201 18547
L33346 18547
" />
<path d="M32653 18547
L31798 18547
" />
<path d="M34186 18602
L33370 18602
" />
<path d="M32629 18602
L31813 18602
" />
<path d="M34168 18657
L33386 18657
" />
<path d="M32613 18657
L31831 18657
" />
<path d="M34147 18712
L33392 18712
" />
<path d="M32607 18712
L31852 18712
" />
<path d="M34123 18767
L33392 18767
" />
<path d="M32607 18767
L31876 18767
" />
<path d="M34095 18822
L33383 18822
" />
<path d="M32616 18822
L31904 18822
" />
<path d="M34064 18877
L33366 18877
" />
<path d="M32633 18877
L31935 18877
" />
<path d="M34029 18933
L33339 18933
" />
<path d="M32660 18933
L31970 18933
" />
<path d="M33990 18988
L33300 18988
" />
<path d="M32699 18988
L32009 18988
" />
<path d="M33946 19043
L33243 19043
" />
<path d="M32756 19043
L32053 19043
" />
<path d="M33897 19098
L33149 19098
" />
<path d="M32850 19098
L32102 19098
" />
<path d="M33840 19153
L32159 19153
" />
<path d="M33777 19208
L32222 19208
" />
<path d="M33703 19263
L32296 19263
" />
<path d="M33615 19318
L32384 19318
" />
<path d="M33506 19374
L32493 19374
" />
<path d="M33359 19429
L32640 19429
" />
<circle cx="33000" cy="18734.3" r="393.701" /> 
<circle cx="33000" cy="18242.1" r="1254.92" /> 
<path d="M29757 30443
L29757 27687
" />
<path d="M29757 27687
L30742 27687
" />
<path d="M30742 27687
L30742 30443
" />
<path d="M30742 30443
L29757 30443
" />
<path d="M35957 30143
L35957 27387
" />
<path d="M35957 27387
L36942 27387
" />
<path d="M36942 27387
L36942 30143
" />
<path d="M36942 30143
L35957 30143
" />
<path d="M38850 29750
L38850 29350
" />
<path d="M38850 29350
L38450 29350
" />
<path d="M38450 29350
L38450 26150
" />
<path d="M38450 26150
L39250 26150
" />
<path d="M39250 26150
L39250 29350
" />
<path d="M39250 29350
L38850 29350
" />
<path d="M38650 29350
L38450 29150
" />
<path d="M38850 25750
L38850 26150
" />
<path d="M27250 24050
L27250 24450
" />
<path d="M27250 24450
L27650 24450
" />
<path d="M27650 24450
L27650 27650
" />
<path d="M27650 27650
L26850 27650
" />
<path d="M26850 27650
L26850 24450
" />
<path d="M26850 24450
L27250 24450
" />
<path d="M27450 24450
L27650 24650
" />
<path d="M27250 28050
L27250 27650
" />
<path d="M28450 23650
L28450 26650
" />
<path d="M29450 23650
L29450 26650
" />
<path d="M29560 22539
L29560 23150
" />
<path d="M28450 26650
L29450 26650
" />
<path d="M29450 23650
L28450 23650
" />
<path d="M28339 23150
L28339 22539
" />
<path d="M28339 22539
L29560 22539
" />
<path d="M36850 24650
L37850 24650
" />
<path d="M35739 24539
L36350 24539
" />
<path d="M36850 24650
L36850 25650
" />
<path d="M36350 25760
L35739 25760
" />
<path d="M35739 25760
L35739 24539
" />
<path d="M36850 25650
L37850 25650
" />
<path d="M37850 25650
L37850 24650
" />
<path d="M36850 25650
L37850 25650
" />
<path d="M35739 25539
L36350 25539
" />
<path d="M36850 25650
L36850 26650
" />
<path d="M36350 26760
L35739 26760
" />
<path d="M35739 26760
L35739 25539
" />
<path d="M36850 26650
L37850 26650
" />
<path d="M37850 26650
L37850 25650
" />
<path d="M28850 21350
L30850 21350
" />
<path d="M30850 21350
L30850 20350
" />
<path d="M30850 20350
L28850 20350
" />
<path d="M27739 20239
L28350 20239
" />
<path d="M28850 20350
L28850 21350
" />
<path d="M28350 21460
L27739 21460
" />
<path d="M27739 21460
L27739 20239
" />
<path d="M30350 26150
L30350 25750
" />
<path d="M30350 25750
L29950 25750
" />
<path d="M29950 25750
L29950 22550
" />
<path d="M29950 22550
L30750 22550
" />
<path d="M30750 22550
L30750 25750
" />
<path d="M30750 25750
L30350 25750
" />
<path d="M30150 25750
L29950 25550
" />
<path d="M30350 22150
L30350 22550
" />
<path d="M29850 32650
L28850 32650
" />
<path d="M30960 32760
L30350 32760
" />
<path d="M29850 32650
L29850 31650
" />
<path d="M30350 31539
L30960 31539
" />
<path d="M30960 31539
L30960 32760
" />
<path d="M29850 31650
L28850 31650
" />
<path d="M28850 31650
L28850 32650
" />
<path d="M29850 33650
L28850 33650
" />
<path d="M30960 33760
L30350 33760
" />
<path d="M29850 33650
L29850 32650
" />
<path d="M30350 32539
L30960 32539
" />
<path d="M30960 32539
L30960 33760
" />
<path d="M29850 32650
L28850 32650
" />
<path d="M28850 32650
L28850 33650
" />
<path d="M29850 34650
L28850 34650
" />
<path d="M30960 34760
L30350 34760
" />
<path d="M29850 34650
L29850 33650
" />
<path d="M30350 33539
L30960 33539
" />
<path d="M30960 33539
L30960 34760
" />
<path d="M29850 33650
L28850 33650
" />
<path d="M28850 33650
L28850 34650
" />
<path d="M29850 35650
L28850 35650
" />
<path d="M30960 35760
L30350 35760
" />
<path d="M29850 35650
L29850 34650
" />
<path d="M30350 34539
L30960 34539
" />
<path d="M30960 34539
L30960 35760
" />
<path d="M29850 34650
L28850 34650
" />
<path d="M28850 34650
L28850 35650
" />
<path d="M36950 34650
L37950 34650
" />
<path d="M35839 34539
L36450 34539
" />
<path d="M36950 34650
L36950 35650
" />
<path d="M36450 35760
L35839 35760
" />
<path d="M35839 35760
L35839 34539
" />
<path d="M36950 35650
L37950 35650
" />
<path d="M37950 35650
L37950 34650
" />
<path d="M36950 33650
L37950 33650
" />
<path d="M35839 33539
L36450 33539
" />
<path d="M36950 33650
L36950 34650
" />
<path d="M36450 34760
L35839 34760
" />
<path d="M35839 34760
L35839 33539
" />
<path d="M36950 34650
L37950 34650
" />
<path d="M37950 34650
L37950 33650
" />
<path d="M36950 32650
L37950 32650
" />
<path d="M35839 32539
L36450 32539
" />
<path d="M36950 32650
L36950 33650
" />
<path d="M36450 33760
L35839 33760
" />
<path d="M35839 33760
L35839 32539
" />
<path d="M36950 33650
L37950 33650
" />
<path d="M37950 33650
L37950 32650
" />
<path d="M36950 31650
L37950 31650
" />
<path d="M35839 31539
L36450 31539
" />
<path d="M36950 31650
L36950 32650
" />
<path d="M36450 32760
L35839 32760
" />
<path d="M35839 32760
L35839 31539
" />
<path d="M36950 32650
L37950 32650
" />
<path d="M37950 32650
L37950 31650
" />
<path d="M36950 30650
L37950 30650
" />
<path d="M35839 30539
L36450 30539
" />
<path d="M36950 30650
L36950 31650
" />
<path d="M36450 31760
L35839 31760
" />
<path d="M35839 31760
L35839 30539
" />
<path d="M36950 31650
L37950 31650
" />
<path d="M37950 31650
L37950 30650
" />
<path d="M36850 21050
L36850 24050
" />
<path d="M37850 21050
L37850 24050
" />
<path d="M37960 19939
L37960 20550
" />
<path d="M36850 24050
L37850 24050
" />
<path d="M37850 21050
L36850 21050
" />
<path d="M36739 20550
L36739 19939
" />
<path d="M36739 19939
L37960 19939
" />
<path d="M31718 19879
L31718 20160
L31700 20216
L31662 20254
L31606 20272
L31568 20272
" />
<path d="M32112 20272
L31887 20272
" />
<path d="M31999 20272
L31999 19879
L31962 19935
L31924 19973
L31887 19991
" />
<path d="M28440 16134
L28253 16134
L28234 16321
L28253 16303
L28290 16284
L28384 16284
L28421 16303
L28440 16321
L28459 16359
L28459 16453
L28440 16490
L28421 16509
L28384 16528
L28290 16528
L28253 16509
L28234 16490
" />
<path d="M28590 16265
L28684 16528
L28778 16265
" />
<path d="M28834 16565
L29134 16565
" />
<path d="M29396 16528
L29396 16321
L29378 16284
L29340 16265
L29265 16265
L29228 16284
" />
<path d="M29396 16509
L29359 16528
L29265 16528
L29228 16509
L29209 16471
L29209 16434
L29228 16396
L29265 16378
L29359 16378
L29396 16359
" />
<path d="M29753 16265
L29753 16528
" />
<path d="M29584 16265
L29584 16471
L29603 16509
L29640 16528
L29696 16528
L29734 16509
L29753 16490
" />
<path d="M29903 16528
L30109 16265
" />
<path d="M29903 16265
L30109 16528
" />
<path d="M30465 16528
L30240 16528
" />
<path d="M30352 16528
L30352 16134
L30315 16190
L30278 16228
L30240 16246
" />
<path d="M34872 18307
L34891 18326
L34910 18382
L34910 18420
L34891 18476
L34854 18513
L34816 18532
L34741 18551
L34685 18551
L34610 18532
L34572 18513
L34535 18476
L34516 18420
L34516 18382
L34535 18326
L34554 18307
" />
<path d="M34910 17932
L34910 18157
" />
<path d="M34910 18045
L34516 18045
L34572 18082
L34610 18120
L34629 18157
" />
<path d="M29406 29131
L29425 29150
L29443 29206
L29443 29243
L29425 29300
L29387 29337
L29350 29356
L29275 29375
L29218 29375
L29143 29356
L29106 29337
L29068 29300
L29050 29243
L29050 29206
L29068 29150
L29087 29131
" />
<path d="M29087 28981
L29068 28962
L29050 28925
L29050 28831
L29068 28793
L29087 28775
L29125 28756
L29162 28756
L29218 28775
L29443 29000
L29443 28756
" />
<path d="M35606 28831
L35625 28850
L35643 28906
L35643 28943
L35625 29000
L35587 29037
L35550 29056
L35475 29075
L35418 29075
L35343 29056
L35306 29037
L35268 29000
L35250 28943
L35250 28906
L35268 28850
L35287 28831
" />
<path d="M35250 28700
L35250 28456
L35400 28587
L35400 28531
L35418 28493
L35437 28475
L35475 28456
L35568 28456
L35606 28475
L35625 28493
L35643 28531
L35643 28643
L35625 28681
L35606 28700
" />
<path d="M38821 28078
L38821 28209
" />
<path d="M39028 28209
L38634 28209
L38634 28021
" />
<path d="M38821 27740
L38840 27684
L38859 27665
L38896 27646
L38953 27646
L38990 27665
L39009 27684
L39028 27721
L39028 27871
L38634 27871
L38634 27740
L38653 27703
L38671 27684
L38709 27665
L38746 27665
L38784 27684
L38803 27703
L38821 27740
L38821 27871
" />
<path d="M38671 27496
L38653 27478
L38634 27440
L38634 27346
L38653 27309
L38671 27290
L38709 27271
L38746 27271
L38803 27290
L39028 27515
L39028 27271
" />
<path d="M27121 26378
L27121 26509
" />
<path d="M27328 26509
L26934 26509
L26934 26321
" />
<path d="M27121 26040
L27140 25984
L27159 25965
L27196 25946
L27253 25946
L27290 25965
L27309 25984
L27328 26021
L27328 26171
L26934 26171
L26934 26040
L26953 26003
L26971 25984
L27009 25965
L27046 25965
L27084 25984
L27103 26003
L27121 26040
L27121 26171
" />
<path d="M26934 25590
L26934 25778
L27121 25796
L27103 25778
L27084 25740
L27084 25646
L27103 25609
L27121 25590
L27159 25571
L27253 25571
L27290 25590
L27309 25609
L27328 25646
L27328 25740
L27309 25778
L27290 25796
" />
<path d="M28293 21320
L28293 20926
" />
<path d="M28293 21076
L28331 21057
L28406 21057
L28443 21076
L28462 21095
L28481 21132
L28481 21245
L28462 21282
L28443 21301
L28406 21320
L28331 21320
L28293 21301
" />
<path d="M28593 21057
L28743 21057
" />
<path d="M28650 20926
L28650 21263
L28668 21301
L28706 21320
L28743 21320
" />
<path d="M28875 21320
L28875 21057
" />
<path d="M28875 20926
L28856 20945
L28875 20964
L28893 20945
L28875 20926
L28875 20964
" />
<path d="M29062 21057
L29062 21320
" />
<path d="M29062 21095
L29081 21076
L29118 21057
L29174 21057
L29212 21076
L29231 21114
L29231 21320
" />
<path d="M29624 21320
L29399 21320
" />
<path d="M29512 21320
L29512 20926
L29474 20982
L29437 21020
L29399 21039
" />
<path d="M34520 26115
L34314 26115
L34276 26134
L34257 26171
L34257 26246
L34276 26284
" />
<path d="M34501 26115
L34520 26152
L34520 26246
L34501 26284
L34463 26302
L34426 26302
L34388 26284
L34370 26246
L34370 26152
L34351 26115
" />
<path d="M34520 25928
L34257 25928
" />
<path d="M34126 25928
L34145 25946
L34164 25928
L34145 25909
L34126 25928
L34164 25928
" />
<path d="M34257 25740
L34520 25740
" />
<path d="M34295 25740
L34276 25721
L34257 25684
L34257 25628
L34276 25590
L34314 25571
L34520 25571
" />
<path d="M34557 25478
L34557 25178
" />
<path d="M34501 24934
L34520 24971
L34520 25046
L34501 25084
L34463 25103
L34314 25103
L34276 25084
L34257 25046
L34257 24971
L34276 24934
L34314 24915
L34351 24915
L34388 25103
" />
<path d="M34520 24784
L34257 24578
" />
<path d="M34257 24784
L34520 24578
" />
<path d="M34257 24484
L34257 24334
" />
<path d="M34126 24428
L34463 24428
L34501 24409
L34520 24371
L34520 24334
" />
<path d="M34520 23997
L34520 24221
" />
<path d="M34520 24109
L34126 24109
L34182 24147
L34220 24184
L34239 24221
" />
<path d="M34520 27115
L34314 27115
L34276 27134
L34257 27171
L34257 27246
L34276 27284
" />
<path d="M34501 27115
L34520 27152
L34520 27246
L34501 27284
L34463 27302
L34426 27302
L34388 27284
L34370 27246
L34370 27152
L34351 27115
" />
<path d="M34520 26928
L34257 26928
" />
<path d="M34126 26928
L34145 26946
L34164 26928
L34145 26909
L34126 26928
L34164 26928
" />
<path d="M34257 26740
L34520 26740
" />
<path d="M34295 26740
L34276 26721
L34257 26684
L34257 26628
L34276 26590
L34314 26571
L34520 26571
" />
<path d="M34557 26478
L34557 26178
" />
<path d="M34501 25934
L34520 25971
L34520 26046
L34501 26084
L34463 26103
L34314 26103
L34276 26084
L34257 26046
L34257 25971
L34276 25934
L34314 25915
L34351 25915
L34388 26103
" />
<path d="M34520 25784
L34257 25578
" />
<path d="M34257 25784
L34520 25578
" />
<path d="M34257 25484
L34257 25334
" />
<path d="M34126 25428
L34463 25428
L34501 25409
L34520 25371
L34520 25334
" />
<path d="M34257 25034
L34520 25034
" />
<path d="M34107 25128
L34388 25221
L34388 24978
" />
<path d="M26520 21140
L26126 21140
L26126 20990
L26145 20953
L26164 20934
L26201 20915
L26257 20915
L26295 20934
L26314 20953
L26332 20990
L26332 21140
" />
<path d="M26257 20578
L26520 20578
" />
<path d="M26107 20671
L26388 20765
L26388 20521
" />
<path d="M30528 24215
L30340 24346
" />
<path d="M30528 24440
L30134 24440
L30134 24290
L30153 24253
L30171 24234
L30209 24215
L30265 24215
L30303 24234
L30321 24253
L30340 24290
L30340 24440
" />
<path d="M30528 24028
L30528 23953
L30509 23915
L30490 23896
L30434 23859
L30359 23840
L30209 23840
L30171 23859
L30153 23878
L30134 23915
L30134 23990
L30153 24028
L30171 24046
L30209 24065
L30303 24065
L30340 24046
L30359 24028
L30378 23990
L30378 23915
L30359 23878
L30340 23859
L30303 23840
" />
<path d="M32535 33115
L32329 33115
L32292 33134
L32273 33171
L32273 33246
L32292 33284
" />
<path d="M32517 33115
L32535 33152
L32535 33246
L32517 33284
L32479 33302
L32442 33302
L32404 33284
L32385 33246
L32385 33152
L32367 33115
" />
<path d="M32535 32928
L32273 32928
" />
<path d="M32142 32928
L32161 32946
L32179 32928
L32161 32909
L32142 32928
L32179 32928
" />
<path d="M32273 32740
L32535 32740
" />
<path d="M32311 32740
L32292 32721
L32273 32684
L32273 32628
L32292 32590
L32329 32571
L32535 32571
" />
<path d="M32573 32478
L32573 32178
" />
<path d="M32517 31934
L32535 31971
L32535 32046
L32517 32084
L32479 32103
L32329 32103
L32292 32084
L32273 32046
L32273 31971
L32292 31934
L32329 31915
L32367 31915
L32404 32103
" />
<path d="M32535 31784
L32273 31578
" />
<path d="M32273 31784
L32535 31578
" />
<path d="M32273 31484
L32273 31334
" />
<path d="M32142 31428
L32479 31428
L32517 31409
L32535 31371
L32535 31334
" />
<path d="M32179 31221
L32161 31203
L32142 31165
L32142 31072
L32161 31034
L32179 31015
L32217 30997
L32254 30997
L32311 31015
L32535 31240
L32535 30997
" />
<path d="M32535 34115
L32329 34115
L32292 34134
L32273 34171
L32273 34246
L32292 34284
" />
<path d="M32517 34115
L32535 34152
L32535 34246
L32517 34284
L32479 34302
L32442 34302
L32404 34284
L32385 34246
L32385 34152
L32367 34115
" />
<path d="M32535 33928
L32273 33928
" />
<path d="M32142 33928
L32161 33946
L32179 33928
L32161 33909
L32142 33928
L32179 33928
" />
<path d="M32273 33740
L32535 33740
" />
<path d="M32311 33740
L32292 33721
L32273 33684
L32273 33628
L32292 33590
L32329 33571
L32535 33571
" />
<path d="M32573 33478
L32573 33178
" />
<path d="M32517 32934
L32535 32971
L32535 33046
L32517 33084
L32479 33103
L32329 33103
L32292 33084
L32273 33046
L32273 32971
L32292 32934
L32329 32915
L32367 32915
L32404 33103
" />
<path d="M32535 32784
L32273 32578
" />
<path d="M32273 32784
L32535 32578
" />
<path d="M32273 32484
L32273 32334
" />
<path d="M32142 32428
L32479 32428
L32517 32409
L32535 32371
L32535 32334
" />
<path d="M32142 32240
L32142 31997
L32292 32128
L32292 32072
L32311 32034
L32329 32015
L32367 31997
L32460 31997
L32498 32015
L32517 32034
L32535 32072
L32535 32184
L32517 32221
L32498 32240
" />
<path d="M32535 35115
L32329 35115
L32292 35134
L32273 35171
L32273 35246
L32292 35284
" />
<path d="M32517 35115
L32535 35152
L32535 35246
L32517 35284
L32479 35302
L32442 35302
L32404 35284
L32385 35246
L32385 35152
L32367 35115
" />
<path d="M32535 34928
L32273 34928
" />
<path d="M32142 34928
L32161 34946
L32179 34928
L32161 34909
L32142 34928
L32179 34928
" />
<path d="M32273 34740
L32535 34740
" />
<path d="M32311 34740
L32292 34721
L32273 34684
L32273 34628
L32292 34590
L32329 34571
L32535 34571
" />
<path d="M32573 34478
L32573 34178
" />
<path d="M32517 33934
L32535 33971
L32535 34046
L32517 34084
L32479 34103
L32329 34103
L32292 34084
L32273 34046
L32273 33971
L32292 33934
L32329 33915
L32367 33915
L32404 34103
" />
<path d="M32535 33784
L32273 33578
" />
<path d="M32273 33784
L32535 33578
" />
<path d="M32273 33484
L32273 33334
" />
<path d="M32142 33428
L32479 33428
L32517 33409
L32535 33371
L32535 33334
" />
<path d="M32142 33015
L32142 33203
L32329 33221
L32311 33203
L32292 33165
L32292 33072
L32311 33034
L32329 33015
L32367 32997
L32460 32997
L32498 33015
L32517 33034
L32535 33072
L32535 33165
L32517 33203
L32498 33221
" />
<path d="M32535 36115
L32329 36115
L32292 36134
L32273 36171
L32273 36246
L32292 36284
" />
<path d="M32517 36115
L32535 36152
L32535 36246
L32517 36284
L32479 36302
L32442 36302
L32404 36284
L32385 36246
L32385 36152
L32367 36115
" />
<path d="M32535 35928
L32273 35928
" />
<path d="M32142 35928
L32161 35946
L32179 35928
L32161 35909
L32142 35928
L32179 35928
" />
<path d="M32273 35740
L32535 35740
" />
<path d="M32311 35740
L32292 35721
L32273 35684
L32273 35628
L32292 35590
L32329 35571
L32535 35571
" />
<path d="M32573 35478
L32573 35178
" />
<path d="M32517 34934
L32535 34971
L32535 35046
L32517 35084
L32479 35103
L32329 35103
L32292 35084
L32273 35046
L32273 34971
L32292 34934
L32329 34915
L32367 34915
L32404 35103
" />
<path d="M32535 34784
L32273 34578
" />
<path d="M32273 34784
L32535 34578
" />
<path d="M32273 34484
L32273 34334
" />
<path d="M32142 34428
L32479 34428
L32517 34409
L32535 34371
L32535 34334
" />
<path d="M32142 34034
L32142 34109
L32161 34147
L32179 34165
L32236 34203
L32311 34221
L32460 34221
L32498 34203
L32517 34184
L32535 34147
L32535 34072
L32517 34034
L32498 34015
L32460 33997
L32367 33997
L32329 34015
L32311 34034
L32292 34072
L32292 34147
L32311 34184
L32329 34203
L32367 34221
" />
<path d="M34620 36115
L34414 36115
L34376 36134
L34357 36171
L34357 36246
L34376 36284
" />
<path d="M34601 36115
L34620 36152
L34620 36246
L34601 36284
L34563 36302
L34526 36302
L34488 36284
L34470 36246
L34470 36152
L34451 36115
" />
<path d="M34620 35928
L34357 35928
" />
<path d="M34226 35928
L34245 35946
L34264 35928
L34245 35909
L34226 35928
L34264 35928
" />
<path d="M34357 35740
L34620 35740
" />
<path d="M34395 35740
L34376 35721
L34357 35684
L34357 35628
L34376 35590
L34414 35571
L34620 35571
" />
<path d="M34657 35478
L34657 35178
" />
<path d="M34601 34934
L34620 34971
L34620 35046
L34601 35084
L34563 35103
L34414 35103
L34376 35084
L34357 35046
L34357 34971
L34376 34934
L34414 34915
L34451 34915
L34488 35103
" />
<path d="M34620 34784
L34357 34578
" />
<path d="M34357 34784
L34620 34578
" />
<path d="M34357 34484
L34357 34334
" />
<path d="M34226 34428
L34563 34428
L34601 34409
L34620 34371
L34620 34334
" />
<path d="M34226 34240
L34226 33978
L34620 34147
" />
<path d="M34620 35115
L34414 35115
L34376 35134
L34357 35171
L34357 35246
L34376 35284
" />
<path d="M34601 35115
L34620 35152
L34620 35246
L34601 35284
L34563 35302
L34526 35302
L34488 35284
L34470 35246
L34470 35152
L34451 35115
" />
<path d="M34620 34928
L34357 34928
" />
<path d="M34226 34928
L34245 34946
L34264 34928
L34245 34909
L34226 34928
L34264 34928
" />
<path d="M34357 34740
L34620 34740
" />
<path d="M34395 34740
L34376 34721
L34357 34684
L34357 34628
L34376 34590
L34414 34571
L34620 34571
" />
<path d="M34657 34478
L34657 34178
" />
<path d="M34601 33934
L34620 33971
L34620 34046
L34601 34084
L34563 34103
L34414 34103
L34376 34084
L34357 34046
L34357 33971
L34376 33934
L34414 33915
L34451 33915
L34488 34103
" />
<path d="M34620 33784
L34357 33578
" />
<path d="M34357 33784
L34620 33578
" />
<path d="M34357 33484
L34357 33334
" />
<path d="M34226 33428
L34563 33428
L34601 33409
L34620 33371
L34620 33334
" />
<path d="M34395 33147
L34376 33184
L34357 33203
L34320 33221
L34301 33221
L34264 33203
L34245 33184
L34226 33147
L34226 33072
L34245 33034
L34264 33015
L34301 32997
L34320 32997
L34357 33015
L34376 33034
L34395 33072
L34395 33147
L34414 33184
L34432 33203
L34470 33221
L34545 33221
L34582 33203
L34601 33184
L34620 33147
L34620 33072
L34601 33034
L34582 33015
L34545 32997
L34470 32997
L34432 33015
L34414 33034
L34395 33072
" />
<path d="M34620 34115
L34414 34115
L34376 34134
L34357 34171
L34357 34246
L34376 34284
" />
<path d="M34601 34115
L34620 34152
L34620 34246
L34601 34284
L34563 34302
L34526 34302
L34488 34284
L34470 34246
L34470 34152
L34451 34115
" />
<path d="M34620 33928
L34357 33928
" />
<path d="M34226 33928
L34245 33946
L34264 33928
L34245 33909
L34226 33928
L34264 33928
" />
<path d="M34357 33740
L34620 33740
" />
<path d="M34395 33740
L34376 33721
L34357 33684
L34357 33628
L34376 33590
L34414 33571
L34620 33571
" />
<path d="M34657 33478
L34657 33178
" />
<path d="M34601 32934
L34620 32971
L34620 33046
L34601 33084
L34563 33103
L34414 33103
L34376 33084
L34357 33046
L34357 32971
L34376 32934
L34414 32915
L34451 32915
L34488 33103
" />
<path d="M34620 32784
L34357 32578
" />
<path d="M34357 32784
L34620 32578
" />
<path d="M34357 32484
L34357 32334
" />
<path d="M34226 32428
L34563 32428
L34601 32409
L34620 32371
L34620 32334
" />
<path d="M34620 32184
L34620 32109
L34601 32072
L34582 32053
L34526 32015
L34451 31997
L34301 31997
L34264 32015
L34245 32034
L34226 32072
L34226 32147
L34245 32184
L34264 32203
L34301 32221
L34395 32221
L34432 32203
L34451 32184
L34470 32147
L34470 32072
L34451 32034
L34432 32015
L34395 31997
" />
<path d="M34620 33302
L34414 33302
L34376 33321
L34357 33359
L34357 33434
L34376 33471
" />
<path d="M34601 33302
L34620 33340
L34620 33434
L34601 33471
L34563 33490
L34526 33490
L34488 33471
L34470 33434
L34470 33340
L34451 33302
" />
<path d="M34620 33115
L34357 33115
" />
<path d="M34226 33115
L34245 33134
L34264 33115
L34245 33096
L34226 33115
L34264 33115
" />
<path d="M34357 32928
L34620 32928
" />
<path d="M34395 32928
L34376 32909
L34357 32871
L34357 32815
L34376 32778
L34414 32759
L34620 32759
" />
<path d="M34657 32665
L34657 32365
" />
<path d="M34601 32121
L34620 32159
L34620 32234
L34601 32271
L34563 32290
L34414 32290
L34376 32271
L34357 32234
L34357 32159
L34376 32121
L34414 32103
L34451 32103
L34488 32290
" />
<path d="M34620 31971
L34357 31765
" />
<path d="M34357 31971
L34620 31765
" />
<path d="M34357 31671
L34357 31521
" />
<path d="M34226 31615
L34563 31615
L34601 31596
L34620 31559
L34620 31521
" />
<path d="M34620 31184
L34620 31409
" />
<path d="M34620 31296
L34226 31296
L34282 31334
L34320 31371
L34339 31409
" />
<path d="M34226 30940
L34226 30903
L34245 30865
L34264 30847
L34301 30828
L34376 30809
L34470 30809
L34545 30828
L34582 30847
L34601 30865
L34620 30903
L34620 30940
L34601 30978
L34582 30997
L34545 31015
L34470 31034
L34376 31034
L34301 31015
L34264 30997
L34245 30978
L34226 30940
" />
<path d="M34620 32302
L34414 32302
L34376 32321
L34357 32359
L34357 32434
L34376 32471
" />
<path d="M34601 32302
L34620 32340
L34620 32434
L34601 32471
L34563 32490
L34526 32490
L34488 32471
L34470 32434
L34470 32340
L34451 32302
" />
<path d="M34620 32115
L34357 32115
" />
<path d="M34226 32115
L34245 32134
L34264 32115
L34245 32096
L34226 32115
L34264 32115
" />
<path d="M34357 31928
L34620 31928
" />
<path d="M34395 31928
L34376 31909
L34357 31871
L34357 31815
L34376 31778
L34414 31759
L34620 31759
" />
<path d="M34657 31665
L34657 31365
" />
<path d="M34601 31121
L34620 31159
L34620 31234
L34601 31271
L34563 31290
L34414 31290
L34376 31271
L34357 31234
L34357 31159
L34376 31121
L34414 31103
L34451 31103
L34488 31290
" />
<path d="M34620 30971
L34357 30765
" />
<path d="M34357 30971
L34620 30765
" />
<path d="M34357 30671
L34357 30521
" />
<path d="M34226 30615
L34563 30615
L34601 30596
L34620 30559
L34620 30521
" />
<path d="M34620 30184
L34620 30409
" />
<path d="M34620 30296
L34226 30296
L34282 30334
L34320 30371
L34339 30409
" />
<path d="M34620 29809
L34620 30034
" />
<path d="M34620 29922
L34226 29922
L34282 29959
L34320 29997
L34339 30034
" />
<path d="M36806 18720
L36806 18457
" />
<path d="M36806 18326
L36787 18345
L36806 18364
L36825 18345
L36806 18326
L36806 18364
" />
<path d="M36975 18364
L36993 18345
L37031 18326
L37125 18326
L37162 18345
L37181 18364
L37200 18401
L37200 18439
L37181 18495
L36956 18720
L37200 18720
" />
<path d="M37537 18701
L37499 18720
L37424 18720
L37387 18701
L37368 18682
L37350 18645
L37350 18532
L37368 18495
L37387 18476
L37424 18457
L37499 18457
L37537 18476
" />
<path d="M37912 18720
L37687 18720
" />
<path d="M37799 18720
L37799 18326
L37762 18382
L37724 18420
L37687 18439
" />
</g> 
</svg>
