<?xml version="1.0" standalone="no"?>
 <!DOCTYPE svg PUBLIC "-//W3C//DTD SVG 1.1//EN" 
 "http://www.w3.org/Graphics/SVG/1.1/DTD/svg11.dtd"> 
<svg xmlns="http://www.w3.org/2000/svg" version="1.1" 
    width="41.9989cm" height="29.7002cm" viewBox="0 0 165350 116930 ">
<title>SVG Picture created as bus_5v-F_Mask.svg date 2014/11/29 01:52:12 </title>
  <desc>Picture generated by PCBNEW </desc>
<g style="fill:#000000; fill-opacity:1;stroke:#000000; stroke-opacity:1;
stroke-linecap:round; stroke-linejoin:round; "
 transform="translate(0 0) scale(1 1)">
</g>
<g style="fill:#000000; fill-opacity:0.0; 
stroke:#000000; stroke-width:39.3701; stroke-opacity:1; 
stroke-linecap:round; stroke-linejoin:round;">
<circle cx="28750" cy="26000" r="500" /> 
<circle cx="13250" cy="28750" r="500" /> 
<circle cx="13250" cy="24500" r="500" /> 
<circle cx="45500" cy="28750" r="500" /> 
</g>
<g style="fill:#000000; fill-opacity:1.0; 
stroke:#000000; stroke-width:59.0551; stroke-opacity:1; 
stroke-linecap:round; stroke-linejoin:round;">
<polyline style="fill-rule:evenodd;"
points="15854,25969
15853,26040
15836,26116
15811,26172
15766,26235
15722,26277
15656,26319
15600,26341
15522,26355
15462,26353
15385,26337
15330,26312
15265,26267
15224,26224
15181,26158
15159,26102
15144,26024
15145,25965
15162,25887
15185,25832
15230,25767
15272,25725
15339,25682
15394,25660
15473,25644
15531,25645
15610,25661
15664,25684
15731,25729
15772,25770
15817,25837
15839,25891
15854,25969
" /> 
<polyline style="fill-rule:evenodd;"
points="16079,28447
16077,28568
16050,28687
16008,28783
15937,28883
15861,28955
15758,29021
15660,29059
15540,29080
15435,29078
15315,29052
15220,29010
15119,28940
15046,28865
14980,28761
14941,28665
14919,28543
14921,28440
14946,28319
14987,28224
15057,28121
15131,28049
15235,27981
15330,27943
15452,27919
15555,27920
15677,27945
15772,27985
15875,28055
15947,28127
16016,28231
16055,28326
16079,28447
" /> 
<polyline style="fill-rule:evenodd;"
points="17854,25969
17853,26040
17836,26116
17811,26172
17766,26235
17722,26277
17656,26319
17600,26341
17522,26355
17462,26353
17385,26337
17330,26312
17265,26267
17224,26224
17181,26158
17159,26102
17144,26024
17145,25965
17162,25887
17185,25832
17230,25767
17272,25725
17339,25682
17394,25660
17473,25644
17531,25645
17610,25661
17664,25684
17731,25729
17772,25770
17817,25837
17839,25891
17854,25969
" /> 
<polyline style="fill-rule:evenodd;"
points="18079,28447
18077,28568
18050,28687
18008,28783
17937,28883
17861,28955
17758,29021
17660,29059
17540,29080
17435,29078
17315,29052
17220,29010
17119,28940
17046,28865
16980,28761
16941,28665
16919,28543
16921,28440
16946,28319
16987,28224
17057,28121
17131,28049
17235,27981
17330,27943
17452,27919
17555,27920
17677,27945
17772,27985
17875,28055
17947,28127
18016,28231
18055,28326
18079,28447
" /> 
<polyline style="fill-rule:evenodd;"
points="20354,25969
20353,26040
20336,26116
20311,26172
20266,26235
20222,26277
20156,26319
20100,26341
20022,26355
19962,26353
19885,26337
19830,26312
19765,26267
19724,26224
19681,26158
19659,26102
19644,26024
19645,25965
19662,25887
19685,25832
19730,25767
19772,25725
19839,25682
19894,25660
19973,25644
20031,25645
20110,25661
20164,25684
20231,25729
20272,25770
20317,25837
20339,25891
20354,25969
" /> 
<polyline style="fill-rule:evenodd;"
points="20579,28447
20577,28568
20550,28687
20508,28783
20437,28883
20361,28955
20258,29021
20160,29059
20040,29080
19935,29078
19815,29052
19720,29010
19619,28940
19546,28865
19480,28761
19441,28665
19419,28543
19421,28440
19446,28319
19487,28224
19557,28121
19631,28049
19735,27981
19830,27943
19952,27919
20055,27920
20177,27945
20272,27985
20375,28055
20447,28127
20516,28231
20555,28326
20579,28447
" /> 
<polyline style="fill-rule:evenodd;"
points="22354,25969
22353,26040
22336,26116
22311,26172
22266,26235
22222,26277
22156,26319
22100,26341
22022,26355
21962,26353
21885,26337
21830,26312
21765,26267
21724,26224
21681,26158
21659,26102
21644,26024
21645,25965
21662,25887
21685,25832
21730,25767
21772,25725
21839,25682
21894,25660
21973,25644
22031,25645
22110,25661
22164,25684
22231,25729
22272,25770
22317,25837
22339,25891
22354,25969
" /> 
<polyline style="fill-rule:evenodd;"
points="22579,28447
22577,28568
22550,28687
22508,28783
22437,28883
22361,28955
22258,29021
22160,29059
22040,29080
21935,29078
21815,29052
21720,29010
21619,28940
21546,28865
21480,28761
21441,28665
21419,28543
21421,28440
21446,28319
21487,28224
21557,28121
21631,28049
21735,27981
21830,27943
21952,27919
22055,27920
22177,27945
22272,27985
22375,28055
22447,28127
22516,28231
22555,28326
22579,28447
" /> 
<polyline style="fill-rule:evenodd;"
points="24854,25969
24853,26040
24836,26116
24811,26172
24766,26235
24722,26277
24656,26319
24600,26341
24522,26355
24462,26353
24385,26337
24330,26312
24265,26267
24224,26224
24181,26158
24159,26102
24144,26024
24145,25965
24162,25887
24185,25832
24230,25767
24272,25725
24339,25682
24394,25660
24473,25644
24531,25645
24610,25661
24664,25684
24731,25729
24772,25770
24817,25837
24839,25891
24854,25969
" /> 
<polyline style="fill-rule:evenodd;"
points="25079,28447
25077,28568
25050,28687
25008,28783
24937,28883
24861,28955
24758,29021
24660,29059
24540,29080
24435,29078
24315,29052
24220,29010
24119,28940
24046,28865
23980,28761
23941,28665
23919,28543
23921,28440
23946,28319
23987,28224
24057,28121
24131,28049
24235,27981
24330,27943
24452,27919
24555,27920
24677,27945
24772,27985
24875,28055
24947,28127
25016,28231
25055,28326
25079,28447
" /> 
<polyline style="fill-rule:evenodd;"
points="26854,25969
26853,26040
26836,26116
26811,26172
26766,26235
26722,26277
26656,26319
26600,26341
26522,26355
26462,26353
26385,26337
26330,26312
26265,26267
26224,26224
26181,26158
26159,26102
26144,26024
26145,25965
26162,25887
26185,25832
26230,25767
26272,25725
26339,25682
26394,25660
26473,25644
26531,25645
26610,25661
26664,25684
26731,25729
26772,25770
26817,25837
26839,25891
26854,25969
" /> 
<polyline style="fill-rule:evenodd;"
points="27079,28447
27077,28568
27050,28687
27008,28783
26937,28883
26861,28955
26758,29021
26660,29059
26540,29080
26435,29078
26315,29052
26220,29010
26119,28940
26046,28865
25980,28761
25941,28665
25919,28543
25921,28440
25946,28319
25987,28224
26057,28121
26131,28049
26235,27981
26330,27943
26452,27919
26555,27920
26677,27945
26772,27985
26875,28055
26947,28127
27016,28231
27055,28326
27079,28447
" /> 
<polyline style="fill-rule:evenodd;"
points="31354,25969
31353,26040
31336,26116
31311,26172
31266,26235
31222,26277
31156,26319
31100,26341
31022,26355
30962,26353
30885,26337
30830,26312
30765,26267
30724,26224
30681,26158
30659,26102
30644,26024
30645,25965
30662,25887
30685,25832
30730,25767
30772,25725
30839,25682
30894,25660
30973,25644
31031,25645
31110,25661
31164,25684
31231,25729
31272,25770
31317,25837
31339,25891
31354,25969
" /> 
<polyline style="fill-rule:evenodd;"
points="31579,28447
31577,28568
31550,28687
31508,28783
31437,28883
31361,28955
31258,29021
31160,29059
31040,29080
30935,29078
30815,29052
30720,29010
30619,28940
30546,28865
30480,28761
30441,28665
30419,28543
30421,28440
30446,28319
30487,28224
30557,28121
30631,28049
30735,27981
30830,27943
30952,27919
31055,27920
31177,27945
31272,27985
31375,28055
31447,28127
31516,28231
31555,28326
31579,28447
" /> 
<polyline style="fill-rule:evenodd;"
points="33354,25969
33353,26040
33336,26116
33311,26172
33266,26235
33222,26277
33156,26319
33100,26341
33022,26355
32962,26353
32885,26337
32830,26312
32765,26267
32724,26224
32681,26158
32659,26102
32644,26024
32645,25965
32662,25887
32685,25832
32730,25767
32772,25725
32839,25682
32894,25660
32973,25644
33031,25645
33110,25661
33164,25684
33231,25729
33272,25770
33317,25837
33339,25891
33354,25969
" /> 
<polyline style="fill-rule:evenodd;"
points="33579,28447
33577,28568
33550,28687
33508,28783
33437,28883
33361,28955
33258,29021
33160,29059
33040,29080
32935,29078
32815,29052
32720,29010
32619,28940
32546,28865
32480,28761
32441,28665
32419,28543
32421,28440
32446,28319
32487,28224
32557,28121
32631,28049
32735,27981
32830,27943
32952,27919
33055,27920
33177,27945
33272,27985
33375,28055
33447,28127
33516,28231
33555,28326
33579,28447
" /> 
<polyline style="fill-rule:evenodd;"
points="35854,25969
35853,26040
35836,26116
35811,26172
35766,26235
35722,26277
35656,26319
35600,26341
35522,26355
35462,26353
35385,26337
35330,26312
35265,26267
35224,26224
35181,26158
35159,26102
35144,26024
35145,25965
35162,25887
35185,25832
35230,25767
35272,25725
35339,25682
35394,25660
35473,25644
35531,25645
35610,25661
35664,25684
35731,25729
35772,25770
35817,25837
35839,25891
35854,25969
" /> 
<polyline style="fill-rule:evenodd;"
points="36079,28447
36077,28568
36050,28687
36008,28783
35937,28883
35861,28955
35758,29021
35660,29059
35540,29080
35435,29078
35315,29052
35220,29010
35119,28940
35046,28865
34980,28761
34941,28665
34919,28543
34921,28440
34946,28319
34987,28224
35057,28121
35131,28049
35235,27981
35330,27943
35452,27919
35555,27920
35677,27945
35772,27985
35875,28055
35947,28127
36016,28231
36055,28326
36079,28447
" /> 
<polyline style="fill-rule:evenodd;"
points="37854,25969
37853,26040
37836,26116
37811,26172
37766,26235
37722,26277
37656,26319
37600,26341
37522,26355
37462,26353
37385,26337
37330,26312
37265,26267
37224,26224
37181,26158
37159,26102
37144,26024
37145,25965
37162,25887
37185,25832
37230,25767
37272,25725
37339,25682
37394,25660
37473,25644
37531,25645
37610,25661
37664,25684
37731,25729
37772,25770
37817,25837
37839,25891
37854,25969
" /> 
<polyline style="fill-rule:evenodd;"
points="38079,28447
38077,28568
38050,28687
38008,28783
37937,28883
37861,28955
37758,29021
37660,29059
37540,29080
37435,29078
37315,29052
37220,29010
37119,28940
37046,28865
36980,28761
36941,28665
36919,28543
36921,28440
36946,28319
36987,28224
37057,28121
37131,28049
37235,27981
37330,27943
37452,27919
37555,27920
37677,27945
37772,27985
37875,28055
37947,28127
38016,28231
38055,28326
38079,28447
" /> 
<polyline style="fill-rule:evenodd;"
points="40354,26219
40353,26290
40336,26366
40311,26422
40266,26485
40222,26527
40156,26569
40100,26591
40022,26605
39962,26603
39885,26587
39830,26562
39765,26517
39724,26474
39681,26408
39659,26352
39644,26274
39645,26215
39662,26137
39685,26082
39730,26017
39772,25975
39839,25932
39894,25910
39973,25894
40031,25895
40110,25911
40164,25934
40231,25979
40272,26020
40317,26087
40339,26141
40354,26219
" /> 
<polyline style="fill-rule:evenodd;"
points="40579,28447
40577,28568
40550,28687
40508,28783
40437,28883
40361,28955
40258,29021
40160,29059
40040,29080
39935,29078
39815,29052
39720,29010
39619,28940
39546,28865
39480,28761
39441,28665
39419,28543
39421,28440
39446,28319
39487,28224
39557,28121
39631,28049
39735,27981
39830,27943
39952,27919
40055,27920
40177,27945
40272,27985
40375,28055
40447,28127
40516,28231
40555,28326
40579,28447
" /> 
<polyline style="fill-rule:evenodd;"
points="42354,26219
42353,26290
42336,26366
42311,26422
42266,26485
42222,26527
42156,26569
42100,26591
42022,26605
41962,26603
41885,26587
41830,26562
41765,26517
41724,26474
41681,26408
41659,26352
41644,26274
41645,26215
41662,26137
41685,26082
41730,26017
41772,25975
41839,25932
41894,25910
41973,25894
42031,25895
42110,25911
42164,25934
42231,25979
42272,26020
42317,26087
42339,26141
42354,26219
" /> 
<polyline style="fill-rule:evenodd;"
points="42579,28447
42577,28568
42550,28687
42508,28783
42437,28883
42361,28955
42258,29021
42160,29059
42040,29080
41935,29078
41815,29052
41720,29010
41619,28940
41546,28865
41480,28761
41441,28665
41419,28543
41421,28440
41446,28319
41487,28224
41557,28121
41631,28049
41735,27981
41830,27943
41952,27919
42055,27920
42177,27945
42272,27985
42375,28055
42447,28127
42516,28231
42555,28326
42579,28447
" /> 
<polyline style="fill-rule:evenodd;"
points="45829,24447
45827,24568
45800,24687
45758,24783
45687,24883
45611,24955
45508,25021
45410,25059
45290,25080
45185,25078
45065,25052
44970,25010
44869,24940
44796,24865
44730,24761
44691,24665
44669,24543
44671,24440
44696,24319
44737,24224
44807,24121
44881,24049
44985,23981
45080,23943
45202,23919
45305,23920
45427,23945
45522,23985
45625,24055
45697,24127
45766,24231
45805,24326
45829,24447
" /> 
<polyline style="fill-rule:evenodd;"
points="45829,26447
45827,26568
45800,26687
45758,26783
45687,26883
45611,26955
45508,27021
45410,27059
45290,27080
45185,27078
45065,27052
44970,27010
44869,26940
44796,26865
44730,26761
44691,26665
44669,26543
44671,26440
44696,26319
44737,26224
44807,26121
44881,26049
44985,25981
45080,25943
45202,25919
45305,25920
45427,25945
45522,25985
45625,26055
45697,26127
45766,26231
45805,26326
45829,26447
" /> 
</g> 
</svg>
