<?xml version="1.0" standalone="no"?>
 <!DOCTYPE svg PUBLIC "-//W3C//DTD SVG 1.1//EN" 
 "http://www.w3.org/Graphics/SVG/1.1/DTD/svg11.dtd"> 
<svg xmlns="http://www.w3.org/2000/svg" version="1.1" 
    width="41.9989cm" height="29.7002cm" viewBox="0 0 165350 116930 ">
<title>SVG Picture created as bus_5v-B_Cu.svg date 2014/11/29 01:52:12 </title>
  <desc>Picture generated by PCBNEW </desc>
<g style="fill:#000000; fill-opacity:1;stroke:#000000; stroke-opacity:1;
stroke-linecap:round; stroke-linejoin:round; "
 transform="translate(0 0) scale(1 1)">
</g>
<g style="fill:#000000; fill-opacity:0.0; 
stroke:#000000; stroke-width:39.3701; stroke-opacity:1; 
stroke-linecap:round; stroke-linejoin:round;">
<circle cx="28750" cy="26000" r="500" /> 
<circle cx="13250" cy="28750" r="500" /> 
<circle cx="13250" cy="24500" r="500" /> 
<circle cx="45500" cy="28750" r="500" /> 
</g>
<g style="fill:#000000; fill-opacity:0.0; 
stroke:#000000; stroke-width:59.0551; stroke-opacity:1; 
stroke-linecap:round; stroke-linejoin:round;">
</g>
<g style="fill:#000000; fill-opacity:1.0; 
stroke:#000000; stroke-width:59.0551; stroke-opacity:1; 
stroke-linecap:round; stroke-linejoin:round;">
<circle cx="45250" cy="24500" r="470.472" /> 
<circle cx="45250" cy="26500" r="470.472" /> 
<circle cx="40000" cy="28500" r="470.472" /> 
<circle cx="42000" cy="28500" r="470.472" /> 
<circle cx="35500" cy="28500" r="470.472" /> 
<circle cx="37500" cy="28500" r="470.472" /> 
<circle cx="15500" cy="28500" r="470.472" /> 
<circle cx="17500" cy="28500" r="470.472" /> 
<circle cx="31000" cy="28500" r="470.472" /> 
<circle cx="33000" cy="28500" r="470.472" /> 
<circle cx="20000" cy="28500" r="470.472" /> 
<circle cx="22000" cy="28500" r="470.472" /> 
<circle cx="24500" cy="28500" r="470.472" /> 
<circle cx="26500" cy="28500" r="470.472" /> 
<circle cx="15500" cy="26000" r="245.472" /> 
<circle cx="17500" cy="26000" r="245.472" /> 
<circle cx="20000" cy="26000" r="245.472" /> 
<circle cx="22000" cy="26000" r="245.472" /> 
<circle cx="24500" cy="26000" r="245.472" /> 
<circle cx="26500" cy="26000" r="245.472" /> 
<circle cx="35500" cy="26000" r="245.472" /> 
<circle cx="37500" cy="26000" r="245.472" /> 
<circle cx="31000" cy="26000" r="245.472" /> 
<circle cx="33000" cy="26000" r="245.472" /> 
<circle cx="40000" cy="26250" r="245.472" /> 
<circle cx="42000" cy="26250" r="245.472" /> 
</g>
<g style="fill:#000000; fill-opacity:1.0; 
stroke:#000000; stroke-width:314.961; stroke-opacity:1; 
stroke-linecap:round; stroke-linejoin:round;">
<path d="M45250 24500
L43250 24500
" />
<path d="M43250 24500
L41750 24500
" />
<path d="M40000 26250
L41750 24500
" />
<path d="M35500 26000
L37000 24500
" />
<path d="M31000 26000
L32500 24500
" />
<path d="M24500 26000
L26000 24500
" />
<path d="M26000 24500
L25750 24500
" />
<path d="M20000 26000
L21500 24500
" />
<path d="M21500 24500
L21250 24500
" />
<path d="M16000 25500
L17000 24500
" />
<path d="M16000 25500
L15500 26000
" />
<path d="M17000 24500
L21250 24500
" />
<path d="M21250 24500
L25750 24500
" />
<path d="M25750 24500
L32500 24500
" />
<path d="M32500 24500
L37000 24500
" />
<path d="M37000 24500
L41750 24500
" />
<path d="M35500 26000
L35500 28500
" />
<path d="M31000 26000
L31000 28500
" />
<path d="M15500 28500
L15500 26000
" />
<path d="M24500 28500
L24500 26000
" />
<path d="M40000 26250
L40000 28750
" />
<path d="M20000 28500
L20000 26000
" />
</g>
<g style="fill:#000000; fill-opacity:1.0; 
stroke:#000000; stroke-width:59.0551; stroke-opacity:1; 
stroke-linecap:round; stroke-linejoin:round;">
<polyline style="fill-rule:evenodd;"
points="46651,29901
46163,29901
46163,24319
46024,23983
45768,23726
45432,23586
45069,23586
44733,23725
44529,23929
43250,23929
41750,23929
37000,23929
32500,23929
26000,23929
25750,23929
21500,23929
21250,23929
17000,23929
16781,23972
16596,24096
15596,25096
15381,25311
15363,25311
15110,25416
14916,25609
14811,25862
14811,26136
14916,26389
14929,26402
14929,27779
14726,27981
14586,28317
14586,28680
14725,29016
14981,29273
15317,29413
15680,29413
16016,29274
16273,29018
16413,28682
16413,28319
16274,27983
16070,27779
16070,26402
16083,26390
16188,26137
16188,26119
16403,25903
17236,25070
20121,25070
19881,25311
19863,25311
19610,25416
19416,25609
19311,25862
19311,26136
19416,26389
19429,26402
19429,27779
19226,27981
19086,28317
19086,28680
19225,29016
19481,29273
19817,29413
20180,29413
20516,29274
20773,29018
20913,28682
20913,28319
20774,27983
20570,27779
20570,26402
20583,26390
20688,26137
20688,26119
21736,25070
24621,25070
24381,25311
24363,25311
24110,25416
23916,25609
23811,25862
23811,26136
23916,26389
23929,26402
23929,27779
23726,27981
23586,28317
23586,28680
23725,29016
23981,29273
24317,29413
24680,29413
25016,29274
25273,29018
25413,28682
25413,28319
25274,27983
25070,27779
25070,26402
25083,26390
25188,26137
25188,26119
26236,25070
31121,25070
30881,25311
30863,25311
30610,25416
30416,25609
30311,25862
30311,26136
30416,26389
30429,26402
30429,27779
30226,27981
30086,28317
30086,28680
30225,29016
30481,29273
30817,29413
31180,29413
31516,29274
31773,29018
31913,28682
31913,28319
31774,27983
31570,27779
31570,26402
31583,26390
31688,26137
31688,26119
32736,25070
35621,25070
35381,25311
35363,25311
35110,25416
34916,25609
34811,25862
34811,26136
34916,26389
34929,26402
34929,27779
34726,27981
34586,28317
34586,28680
34725,29016
34981,29273
35317,29413
35680,29413
36016,29274
36273,29018
36413,28682
36413,28319
36274,27983
36070,27779
36070,26402
36083,26390
36188,26137
36188,26119
37236,25070
40371,25070
39881,25561
39863,25561
39610,25666
39416,25859
39311,26112
39311,26386
39416,26639
39429,26652
39429,27779
39226,27981
39086,28317
39086,28680
39225,29016
39481,29273
39817,29413
40180,29413
40516,29274
40773,29018
40913,28682
40913,28319
40774,27983
40570,27779
40570,26652
40583,26640
40688,26387
40688,26369
41986,25070
43250,25070
44529,25070
44731,25273
45067,25413
45430,25413
45766,25274
46023,25018
46163,24682
46163,24319
46163,29901
46154,29901
46154,28780
46154,28750
46154,28719
46154,28719
46154,28719
46154,28719
46116,28528
46092,28471
46092,28470
45984,28309
45984,28308
45941,28265
45779,28157
45778,28156
45721,28133
45530,28095
45469,28095
45468,28095
45278,28133
45221,28157
45220,28157
45059,28265
45058,28265
45015,28308
44907,28470
44906,28471
44883,28528
44845,28719
44845,28750
44845,28780
44883,28971
44906,29028
44907,29029
45015,29191
45058,29234
45059,29234
45220,29342
45221,29342
45278,29366
45468,29404
45469,29404
45530,29404
45721,29366
45778,29343
45779,29342
45941,29234
45984,29191
45984,29190
46092,29029
46092,29028
46116,28971
46154,28780
46154,28780
46154,28780
46154,28780
46154,29901
29404,29901
29404,26030
29404,26000
29404,25969
29404,25969
29404,25969
29404,25969
29366,25778
29342,25721
29342,25720
29234,25559
29234,25558
29191,25515
29029,25407
29028,25406
28971,25383
28780,25345
28719,25345
28718,25345
28528,25383
28471,25407
28470,25407
28309,25515
28308,25515
28265,25558
28157,25720
28156,25721
28133,25778
28095,25969
28095,26000
28095,26030
28133,26221
28156,26278
28157,26279
28265,26441
28308,26484
28309,26484
28470,26592
28471,26592
28528,26616
28718,26654
28719,26654
28780,26654
28971,26616
29028,26593
29029,26592
29191,26484
29234,26441
29234,26440
29342,26279
29342,26278
29366,26221
29404,26030
29404,26030
29404,26030
29404,26030
29404,29901
13904,29901
13904,28780
13904,28750
13904,28719
13904,24530
13904,24500
13904,24469
13904,24469
13904,24469
13904,24469
13866,24278
13842,24221
13842,24220
13734,24059
13734,24058
13691,24015
13529,23907
13528,23906
13471,23883
13280,23845
13219,23845
13218,23845
13028,23883
12971,23907
12970,23907
12809,24015
12808,24015
12765,24058
12657,24220
12656,24221
12633,24278
12595,24469
12595,24500
12595,24530
12633,24721
12656,24778
12657,24779
12765,24941
12808,24984
12809,24984
12970,25092
12971,25092
13028,25116
13218,25154
13219,25154
13280,25154
13471,25116
13528,25093
13529,25092
13691,24984
13734,24941
13734,24940
13842,24779
13842,24778
13866,24721
13904,24530
13904,24530
13904,24530
13904,24530
13904,28719
13904,28719
13904,28719
13904,28719
13866,28528
13842,28471
13842,28470
13734,28309
13734,28308
13691,28265
13529,28157
13528,28156
13471,28133
13280,28095
13219,28095
13218,28095
13028,28133
12971,28157
12970,28157
12809,28265
12808,28265
12765,28308
12657,28470
12656,28471
12633,28528
12595,28719
12595,28750
12595,28780
12633,28971
12656,29028
12657,29029
12765,29191
12808,29234
12809,29234
12970,29342
12971,29342
13028,29366
13218,29404
13219,29404
13280,29404
13471,29366
13528,29343
13529,29342
13691,29234
13734,29191
13734,29190
13842,29029
13842,29028
13866,28971
13904,28780
13904,28780
13904,28780
13904,28780
13904,29901
12098,29901
12098,23348
46651,23348
46651,29901
" /> 
</g>
<g style="fill:#000000; fill-opacity:0.0; 
stroke:#000000; stroke-width:196.85; stroke-opacity:1; 
stroke-linecap:round; stroke-linejoin:round;">
<polyline fill="none;"
points="46651,29901
46163,29901
46163,24319
46024,23983
45768,23726
45432,23586
45069,23586
44733,23725
44529,23929
43250,23929
41750,23929
37000,23929
32500,23929
26000,23929
25750,23929
21500,23929
21250,23929
17000,23929
16781,23972
16596,24096
15596,25096
15381,25311
15363,25311
15110,25416
14916,25609
14811,25862
14811,26136
14916,26389
14929,26402
14929,27779
14726,27981
14586,28317
14586,28680
14725,29016
14981,29273
15317,29413
15680,29413
16016,29274
16273,29018
16413,28682
16413,28319
16274,27983
16070,27779
16070,26402
16083,26390
16188,26137
16188,26119
16403,25903
17236,25070
20121,25070
19881,25311
19863,25311
19610,25416
19416,25609
19311,25862
19311,26136
19416,26389
19429,26402
19429,27779
19226,27981
19086,28317
19086,28680
19225,29016
19481,29273
19817,29413
20180,29413
20516,29274
20773,29018
20913,28682
20913,28319
20774,27983
20570,27779
20570,26402
20583,26390
20688,26137
20688,26119
21736,25070
24621,25070
24381,25311
24363,25311
24110,25416
23916,25609
23811,25862
23811,26136
23916,26389
23929,26402
23929,27779
23726,27981
23586,28317
23586,28680
23725,29016
23981,29273
24317,29413
24680,29413
25016,29274
25273,29018
25413,28682
25413,28319
25274,27983
25070,27779
25070,26402
25083,26390
25188,26137
25188,26119
26236,25070
31121,25070
30881,25311
30863,25311
30610,25416
30416,25609
30311,25862
30311,26136
30416,26389
30429,26402
30429,27779
30226,27981
30086,28317
30086,28680
30225,29016
30481,29273
30817,29413
31180,29413
31516,29274
31773,29018
31913,28682
31913,28319
31774,27983
31570,27779
31570,26402
31583,26390
31688,26137
31688,26119
32736,25070
35621,25070
35381,25311
35363,25311
35110,25416
34916,25609
34811,25862
34811,26136
34916,26389
34929,26402
34929,27779
34726,27981
34586,28317
34586,28680
34725,29016
34981,29273
35317,29413
35680,29413
36016,29274
36273,29018
36413,28682
36413,28319
36274,27983
36070,27779
36070,26402
36083,26390
36188,26137
36188,26119
37236,25070
40371,25070
39881,25561
39863,25561
39610,25666
39416,25859
39311,26112
39311,26386
39416,26639
39429,26652
39429,27779
39226,27981
39086,28317
39086,28680
39225,29016
39481,29273
39817,29413
40180,29413
40516,29274
40773,29018
40913,28682
40913,28319
40774,27983
40570,27779
40570,26652
40583,26640
40688,26387
40688,26369
41986,25070
43250,25070
44529,25070
44731,25273
45067,25413
45430,25413
45766,25274
46023,25018
46163,24682
46163,24319
46163,29901
46154,29901
46154,28780
46154,28750
46154,28719
46154,28719
46154,28719
46154,28719
46116,28528
46092,28471
46092,28470
45984,28309
45984,28308
45941,28265
45779,28157
45778,28156
45721,28133
45530,28095
45469,28095
45468,28095
45278,28133
45221,28157
45220,28157
45059,28265
45058,28265
45015,28308
44907,28470
44906,28471
44883,28528
44845,28719
44845,28750
44845,28780
44883,28971
44906,29028
44907,29029
45015,29191
45058,29234
45059,29234
45220,29342
45221,29342
45278,29366
45468,29404
45469,29404
45530,29404
45721,29366
45778,29343
45779,29342
45941,29234
45984,29191
45984,29190
46092,29029
46092,29028
46116,28971
46154,28780
46154,28780
46154,28780
46154,28780
46154,29901
29404,29901
29404,26030
29404,26000
29404,25969
29404,25969
29404,25969
29404,25969
29366,25778
29342,25721
29342,25720
29234,25559
29234,25558
29191,25515
29029,25407
29028,25406
28971,25383
28780,25345
28719,25345
28718,25345
28528,25383
28471,25407
28470,25407
28309,25515
28308,25515
28265,25558
28157,25720
28156,25721
28133,25778
28095,25969
28095,26000
28095,26030
28133,26221
28156,26278
28157,26279
28265,26441
28308,26484
28309,26484
28470,26592
28471,26592
28528,26616
28718,26654
28719,26654
28780,26654
28971,26616
29028,26593
29029,26592
29191,26484
29234,26441
29234,26440
29342,26279
29342,26278
29366,26221
29404,26030
29404,26030
29404,26030
29404,26030
29404,29901
13904,29901
13904,28780
13904,28750
13904,28719
13904,24530
13904,24500
13904,24469
13904,24469
13904,24469
13904,24469
13866,24278
13842,24221
13842,24220
13734,24059
13734,24058
13691,24015
13529,23907
13528,23906
13471,23883
13280,23845
13219,23845
13218,23845
13028,23883
12971,23907
12970,23907
12809,24015
12808,24015
12765,24058
12657,24220
12656,24221
12633,24278
12595,24469
12595,24500
12595,24530
12633,24721
12656,24778
12657,24779
12765,24941
12808,24984
12809,24984
12970,25092
12971,25092
13028,25116
13218,25154
13219,25154
13280,25154
13471,25116
13528,25093
13529,25092
13691,24984
13734,24941
13734,24940
13842,24779
13842,24778
13866,24721
13904,24530
13904,24530
13904,24530
13904,24530
13904,28719
13904,28719
13904,28719
13904,28719
13866,28528
13842,28471
13842,28470
13734,28309
13734,28308
13691,28265
13529,28157
13528,28156
13471,28133
13280,28095
13219,28095
13218,28095
13028,28133
12971,28157
12970,28157
12809,28265
12808,28265
12765,28308
12657,28470
12656,28471
12633,28528
12595,28719
12595,28750
12595,28780
12633,28971
12656,29028
12657,29029
12765,29191
12808,29234
12809,29234
12970,29342
12971,29342
13028,29366
13218,29404
13219,29404
13280,29404
13471,29366
13528,29343
13529,29342
13691,29234
13734,29191
13734,29190
13842,29029
13842,29028
13866,28971
13904,28780
13904,28780
13904,28780
13904,28780
13904,29901
12098,29901
12098,23348
46651,23348
46651,29901
" /> 
</g>
<g style="fill:#FFFFFF; fill-opacity:0.0; 
stroke:#FFFFFF; stroke-width:59.0551; stroke-opacity:1; 
stroke-linecap:round; stroke-linejoin:round;">
</g>
<g style="fill:#FFFFFF; fill-opacity:1.0; 
stroke:#FFFFFF; stroke-width:59.0551; stroke-opacity:1; 
stroke-linecap:round; stroke-linejoin:round;">
<circle cx="45250" cy="24500" r="39.3701" /> 
<circle cx="45250" cy="26500" r="39.3701" /> 
<circle cx="40000" cy="28500" r="39.3701" /> 
<circle cx="42000" cy="28500" r="39.3701" /> 
<circle cx="35500" cy="28500" r="39.3701" /> 
<circle cx="37500" cy="28500" r="39.3701" /> 
<circle cx="15500" cy="28500" r="39.3701" /> 
<circle cx="17500" cy="28500" r="39.3701" /> 
<circle cx="31000" cy="28500" r="39.3701" /> 
<circle cx="33000" cy="28500" r="39.3701" /> 
<circle cx="20000" cy="28500" r="39.3701" /> 
<circle cx="22000" cy="28500" r="39.3701" /> 
<circle cx="24500" cy="28500" r="39.3701" /> 
<circle cx="26500" cy="28500" r="39.3701" /> 
<circle cx="15500" cy="26000" r="39.3701" /> 
<circle cx="17500" cy="26000" r="39.3701" /> 
<circle cx="20000" cy="26000" r="39.3701" /> 
<circle cx="22000" cy="26000" r="39.3701" /> 
<circle cx="24500" cy="26000" r="39.3701" /> 
<circle cx="26500" cy="26000" r="39.3701" /> 
<circle cx="35500" cy="26000" r="39.3701" /> 
<circle cx="37500" cy="26000" r="39.3701" /> 
<circle cx="31000" cy="26000" r="39.3701" /> 
<circle cx="33000" cy="26000" r="39.3701" /> 
<circle cx="40000" cy="26250" r="39.3701" /> 
<circle cx="42000" cy="26250" r="39.3701" /> 
</g> 
</svg>
