<?xml version="1.0" standalone="no"?>
 <!DOCTYPE svg PUBLIC "-//W3C//DTD SVG 1.1//EN" 
 "http://www.w3.org/Graphics/SVG/1.1/DTD/svg11.dtd"> 
<svg xmlns="http://www.w3.org/2000/svg" version="1.1" 
    width="41.9989cm" height="29.7002cm" viewBox="0 0 165350 116930 ">
<title>SVG Picture created as bus_5v-F_SilkS.svg date 2014/11/29 01:52:12 </title>
  <desc>Picture generated by PCBNEW </desc>
<g style="fill:#000000; fill-opacity:1;stroke:#000000; stroke-opacity:1;
stroke-linecap:round; stroke-linejoin:round; "
 transform="translate(0 0) scale(1 1)">
</g>
<g style="fill:#000000; fill-opacity:0.0; 
stroke:#000000; stroke-width:39.3701; stroke-opacity:1; 
stroke-linecap:round; stroke-linejoin:round;">
<circle cx="28750" cy="26000" r="500" /> 
<circle cx="13250" cy="28750" r="500" /> 
<circle cx="13250" cy="24500" r="500" /> 
<circle cx="45500" cy="28750" r="500" /> 
</g>
<g style="fill:#000000; fill-opacity:0.0; 
stroke:#000000; stroke-width:120; stroke-opacity:1; 
stroke-linecap:round; stroke-linejoin:round;">
<path d="M44250 27500
L44250 23500
" />
<path d="M43750 27500
L46750 27500
" />
<path d="M46750 27500
L46750 23500
" />
<path d="M46750 23500
L43750 23500
" />
<path d="M43750 23500
L43750 27500
" />
<path d="M43000 29500
L39000 29500
" />
<path d="M43000 30000
L43000 27000
" />
<path d="M43000 27000
L39000 27000
" />
<path d="M39000 27000
L39000 30000
" />
<path d="M39000 30000
L43000 30000
" />
<path d="M38500 29500
L34500 29500
" />
<path d="M38500 30000
L38500 27000
" />
<path d="M38500 27000
L34500 27000
" />
<path d="M34500 27000
L34500 30000
" />
<path d="M34500 30000
L38500 30000
" />
<path d="M18500 29500
L14500 29500
" />
<path d="M18500 30000
L18500 27000
" />
<path d="M18500 27000
L14500 27000
" />
<path d="M14500 27000
L14500 30000
" />
<path d="M14500 30000
L18500 30000
" />
<path d="M34000 29500
L30000 29500
" />
<path d="M34000 30000
L34000 27000
" />
<path d="M34000 27000
L30000 27000
" />
<path d="M30000 27000
L30000 30000
" />
<path d="M30000 30000
L34000 30000
" />
<path d="M23000 29500
L19000 29500
" />
<path d="M23000 30000
L23000 27000
" />
<path d="M23000 27000
L19000 27000
" />
<path d="M19000 27000
L19000 30000
" />
<path d="M19000 30000
L23000 30000
" />
<path d="M27500 29500
L23500 29500
" />
<path d="M27500 30000
L27500 27000
" />
<path d="M27500 27000
L23500 27000
" />
<path d="M23500 27000
L23500 30000
" />
<path d="M23500 30000
L27500 30000
" />
<path d="M15100 25600
L17900 25600
" />
<path d="M17900 25600
L17900 26400
" />
<path d="M17900 26400
L15100 26400
" />
<path d="M15100 26400
L15100 25600
" />
<path d="M15100 25800
L15300 25600
" />
<path d="M19600 25600
L22400 25600
" />
<path d="M22400 25600
L22400 26400
" />
<path d="M22400 26400
L19600 26400
" />
<path d="M19600 26400
L19600 25600
" />
<path d="M19600 25800
L19800 25600
" />
<path d="M24100 25600
L26900 25600
" />
<path d="M26900 25600
L26900 26400
" />
<path d="M26900 26400
L24100 26400
" />
<path d="M24100 26400
L24100 25600
" />
<path d="M24100 25800
L24300 25600
" />
<path d="M35100 25600
L37900 25600
" />
<path d="M37900 25600
L37900 26400
" />
<path d="M37900 26400
L35100 26400
" />
<path d="M35100 26400
L35100 25600
" />
<path d="M35100 25800
L35300 25600
" />
<path d="M30600 25600
L33400 25600
" />
<path d="M33400 25600
L33400 26400
" />
<path d="M33400 26400
L30600 26400
" />
<path d="M30600 26400
L30600 25600
" />
<path d="M30600 25800
L30800 25600
" />
<path d="M39600 25850
L42400 25850
" />
<path d="M42400 25850
L42400 26650
" />
<path d="M42400 26650
L39600 26650
" />
<path d="M39600 26650
L39600 25850
" />
<path d="M39600 26050
L39800 25850
" />
<path d="M47492 25942
L46892 25942
L46892 25714
L46921 25657
L46950 25628
L47007 25600
L47092 25600
L47150 25628
L47178 25657
L47207 25714
L47207 25942
" />
<path d="M47492 25028
L47492 25371
" />
<path d="M47492 25200
L46892 25200
L46978 25257
L47035 25314
L47064 25371
" />
<path d="M43435 26771
L43464 26799
L43492 26885
L43492 26942
L43464 27028
L43407 27085
L43350 27114
L43235 27142
L43150 27142
L43035 27114
L42978 27085
L42921 27028
L42892 26942
L42892 26885
L42921 26799
L42950 26771
" />
<path d="M42892 26399
L42892 26285
L42921 26228
L42978 26171
L43092 26142
L43292 26142
L43407 26171
L43464 26228
L43492 26285
L43492 26399
L43464 26457
L43407 26514
L43292 26542
L43092 26542
L42978 26514
L42921 26457
L42892 26399
" />
<path d="M43492 25885
L42892 25885
L43492 25542
L42892 25542
" />
<path d="M43492 25257
L42892 25257
L43492 24914
L42892 24914
" />
<path d="M43550 24771
L43550 24314
" />
<path d="M42950 24200
L42921 24171
L42892 24114
L42892 23971
L42921 23914
L42950 23885
L43007 23857
L43064 23857
L43150 23885
L43492 24228
L43492 23857
" />
<path d="M40085 26342
L40085 26942
" />
<path d="M40085 26371
L40142 26342
L40257 26342
L40314 26371
L40342 26400
L40371 26457
L40371 26628
L40342 26685
L40314 26714
L40257 26742
L40142 26742
L40085 26714
" />
<path d="M40571 26342
L40685 26742
L40800 26457
L40914 26742
L41028 26342
" />
<path d="M41257 26742
L41257 26342
" />
<path d="M41257 26457
L41285 26400
L41314 26371
L41371 26342
L41428 26342
" />
<path d="M41885 26142
L41771 26142
L41714 26171
L41685 26200
L41628 26285
L41600 26400
L41600 26628
L41628 26685
L41657 26714
L41714 26742
L41828 26742
L41885 26714
L41914 26685
L41942 26628
L41942 26485
L41914 26428
L41885 26400
L41828 26371
L41714 26371
L41657 26400
L41628 26428
L41600 26485
" />
<path d="M39728 30685
L39700 30714
L39614 30742
L39557 30742
L39471 30714
L39414 30657
L39385 30600
L39357 30485
L39357 30400
L39385 30285
L39414 30228
L39471 30171
L39557 30142
L39614 30142
L39700 30171
L39728 30200
" />
<path d="M40100 30142
L40214 30142
L40271 30171
L40328 30228
L40357 30342
L40357 30542
L40328 30657
L40271 30714
L40214 30742
L40100 30742
L40042 30714
L39985 30657
L39957 30542
L39957 30342
L39985 30228
L40042 30171
L40100 30142
" />
<path d="M40614 30742
L40614 30142
L40957 30742
L40957 30142
" />
<path d="M41242 30742
L41242 30142
L41585 30742
L41585 30142
" />
<path d="M41728 30800
L42185 30800
" />
<path d="M42300 30200
L42328 30171
L42385 30142
L42528 30142
L42585 30171
L42614 30200
L42642 30257
L42642 30314
L42614 30400
L42271 30742
L42642 30742
" />
<path d="M35585 26342
L35585 26942
" />
<path d="M35585 26371
L35642 26342
L35757 26342
L35814 26371
L35842 26400
L35871 26457
L35871 26628
L35842 26685
L35814 26714
L35757 26742
L35642 26742
L35585 26714
" />
<path d="M36071 26342
L36185 26742
L36300 26457
L36414 26742
L36528 26342
" />
<path d="M36757 26742
L36757 26342
" />
<path d="M36757 26457
L36785 26400
L36814 26371
L36871 26342
L36928 26342
" />
<path d="M37414 26142
L37128 26142
L37100 26428
L37128 26400
L37185 26371
L37328 26371
L37385 26400
L37414 26428
L37442 26485
L37442 26628
L37414 26685
L37385 26714
L37328 26742
L37185 26742
L37128 26714
L37100 26685
" />
<path d="M35228 30685
L35200 30714
L35114 30742
L35057 30742
L34971 30714
L34914 30657
L34885 30600
L34857 30485
L34857 30400
L34885 30285
L34914 30228
L34971 30171
L35057 30142
L35114 30142
L35200 30171
L35228 30200
" />
<path d="M35600 30142
L35714 30142
L35771 30171
L35828 30228
L35857 30342
L35857 30542
L35828 30657
L35771 30714
L35714 30742
L35600 30742
L35542 30714
L35485 30657
L35457 30542
L35457 30342
L35485 30228
L35542 30171
L35600 30142
" />
<path d="M36114 30742
L36114 30142
L36457 30742
L36457 30142
" />
<path d="M36742 30742
L36742 30142
L37085 30742
L37085 30142
" />
<path d="M37228 30800
L37685 30800
" />
<path d="M37800 30200
L37828 30171
L37885 30142
L38028 30142
L38085 30171
L38114 30200
L38142 30257
L38142 30314
L38114 30400
L37771 30742
L38142 30742
" />
<path d="M15585 26342
L15585 26942
" />
<path d="M15585 26371
L15642 26342
L15757 26342
L15814 26371
L15842 26400
L15871 26457
L15871 26628
L15842 26685
L15814 26714
L15757 26742
L15642 26742
L15585 26714
" />
<path d="M16071 26342
L16185 26742
L16300 26457
L16414 26742
L16528 26342
" />
<path d="M16757 26742
L16757 26342
" />
<path d="M16757 26457
L16785 26400
L16814 26371
L16871 26342
L16928 26342
" />
<path d="M17442 26742
L17100 26742
" />
<path d="M17271 26742
L17271 26142
L17214 26228
L17157 26285
L17100 26314
" />
<path d="M15228 30685
L15200 30714
L15114 30742
L15057 30742
L14971 30714
L14914 30657
L14885 30600
L14857 30485
L14857 30400
L14885 30285
L14914 30228
L14971 30171
L15057 30142
L15114 30142
L15200 30171
L15228 30200
" />
<path d="M15600 30142
L15714 30142
L15771 30171
L15828 30228
L15857 30342
L15857 30542
L15828 30657
L15771 30714
L15714 30742
L15600 30742
L15542 30714
L15485 30657
L15457 30542
L15457 30342
L15485 30228
L15542 30171
L15600 30142
" />
<path d="M16114 30742
L16114 30142
L16457 30742
L16457 30142
" />
<path d="M16742 30742
L16742 30142
L17085 30742
L17085 30142
" />
<path d="M17228 30800
L17685 30800
" />
<path d="M17800 30200
L17828 30171
L17885 30142
L18028 30142
L18085 30171
L18114 30200
L18142 30257
L18142 30314
L18114 30400
L17771 30742
L18142 30742
" />
<path d="M31085 26342
L31085 26942
" />
<path d="M31085 26371
L31142 26342
L31257 26342
L31314 26371
L31342 26400
L31371 26457
L31371 26628
L31342 26685
L31314 26714
L31257 26742
L31142 26742
L31085 26714
" />
<path d="M31571 26342
L31685 26742
L31800 26457
L31914 26742
L32028 26342
" />
<path d="M32257 26742
L32257 26342
" />
<path d="M32257 26457
L32285 26400
L32314 26371
L32371 26342
L32428 26342
" />
<path d="M32885 26342
L32885 26742
" />
<path d="M32742 26114
L32600 26542
L32971 26542
" />
<path d="M30728 30685
L30700 30714
L30614 30742
L30557 30742
L30471 30714
L30414 30657
L30385 30600
L30357 30485
L30357 30400
L30385 30285
L30414 30228
L30471 30171
L30557 30142
L30614 30142
L30700 30171
L30728 30200
" />
<path d="M31100 30142
L31214 30142
L31271 30171
L31328 30228
L31357 30342
L31357 30542
L31328 30657
L31271 30714
L31214 30742
L31100 30742
L31042 30714
L30985 30657
L30957 30542
L30957 30342
L30985 30228
L31042 30171
L31100 30142
" />
<path d="M31614 30742
L31614 30142
L31957 30742
L31957 30142
" />
<path d="M32242 30742
L32242 30142
L32585 30742
L32585 30142
" />
<path d="M32728 30800
L33185 30800
" />
<path d="M33300 30200
L33328 30171
L33385 30142
L33528 30142
L33585 30171
L33614 30200
L33642 30257
L33642 30314
L33614 30400
L33271 30742
L33642 30742
" />
<path d="M20085 26342
L20085 26942
" />
<path d="M20085 26371
L20142 26342
L20257 26342
L20314 26371
L20342 26400
L20371 26457
L20371 26628
L20342 26685
L20314 26714
L20257 26742
L20142 26742
L20085 26714
" />
<path d="M20571 26342
L20685 26742
L20800 26457
L20914 26742
L21028 26342
" />
<path d="M21257 26742
L21257 26342
" />
<path d="M21257 26457
L21285 26400
L21314 26371
L21371 26342
L21428 26342
" />
<path d="M21600 26200
L21628 26171
L21685 26142
L21828 26142
L21885 26171
L21914 26200
L21942 26257
L21942 26314
L21914 26400
L21571 26742
L21942 26742
" />
<path d="M19728 30685
L19700 30714
L19614 30742
L19557 30742
L19471 30714
L19414 30657
L19385 30600
L19357 30485
L19357 30400
L19385 30285
L19414 30228
L19471 30171
L19557 30142
L19614 30142
L19700 30171
L19728 30200
" />
<path d="M20100 30142
L20214 30142
L20271 30171
L20328 30228
L20357 30342
L20357 30542
L20328 30657
L20271 30714
L20214 30742
L20100 30742
L20042 30714
L19985 30657
L19957 30542
L19957 30342
L19985 30228
L20042 30171
L20100 30142
" />
<path d="M20614 30742
L20614 30142
L20957 30742
L20957 30142
" />
<path d="M21242 30742
L21242 30142
L21585 30742
L21585 30142
" />
<path d="M21728 30800
L22185 30800
" />
<path d="M22300 30200
L22328 30171
L22385 30142
L22528 30142
L22585 30171
L22614 30200
L22642 30257
L22642 30314
L22614 30400
L22271 30742
L22642 30742
" />
<path d="M24585 26342
L24585 26942
" />
<path d="M24585 26371
L24642 26342
L24757 26342
L24814 26371
L24842 26400
L24871 26457
L24871 26628
L24842 26685
L24814 26714
L24757 26742
L24642 26742
L24585 26714
" />
<path d="M25071 26342
L25185 26742
L25300 26457
L25414 26742
L25528 26342
" />
<path d="M25757 26742
L25757 26342
" />
<path d="M25757 26457
L25785 26400
L25814 26371
L25871 26342
L25928 26342
" />
<path d="M26071 26142
L26442 26142
L26242 26371
L26328 26371
L26385 26400
L26414 26428
L26442 26485
L26442 26628
L26414 26685
L26385 26714
L26328 26742
L26157 26742
L26100 26714
L26071 26685
" />
<path d="M24228 30685
L24200 30714
L24114 30742
L24057 30742
L23971 30714
L23914 30657
L23885 30600
L23857 30485
L23857 30400
L23885 30285
L23914 30228
L23971 30171
L24057 30142
L24114 30142
L24200 30171
L24228 30200
" />
<path d="M24600 30142
L24714 30142
L24771 30171
L24828 30228
L24857 30342
L24857 30542
L24828 30657
L24771 30714
L24714 30742
L24600 30742
L24542 30714
L24485 30657
L24457 30542
L24457 30342
L24485 30228
L24542 30171
L24600 30142
" />
<path d="M25114 30742
L25114 30142
L25457 30742
L25457 30142
" />
<path d="M25742 30742
L25742 30142
L26085 30742
L26085 30142
" />
<path d="M26228 30800
L26685 30800
" />
<path d="M26800 30200
L26828 30171
L26885 30142
L27028 30142
L27085 30171
L27114 30200
L27142 30257
L27142 30314
L27114 30400
L26771 30742
L27142 30742
" />
</g>
<g style="fill:#000000; fill-opacity:0.0; 
stroke:#000000; stroke-width:80; stroke-opacity:1; 
stroke-linecap:round; stroke-linejoin:round;">
<path d="M16433 26373
L16414 26392
L16357 26411
L16319 26411
L16261 26392
L16223 26354
L16204 26316
L16185 26240
L16185 26183
L16204 26107
L16223 26069
L16261 26030
L16319 26011
L16357 26011
L16414 26030
L16433 26050
" />
<path d="M16814 26411
L16585 26411
" />
<path d="M16700 26411
L16700 26011
L16661 26069
L16623 26107
L16585 26126
" />
<path d="M20933 26123
L20914 26142
L20857 26161
L20819 26161
L20761 26142
L20723 26104
L20704 26066
L20685 25990
L20685 25933
L20704 25857
L20723 25819
L20761 25780
L20819 25761
L20857 25761
L20914 25780
L20933 25800
" />
<path d="M21066 25761
L21314 25761
L21180 25914
L21238 25914
L21276 25933
L21295 25952
L21314 25990
L21314 26085
L21295 26123
L21276 26142
L21238 26161
L21123 26161
L21085 26142
L21066 26123
" />
<path d="M25433 26123
L25414 26142
L25357 26161
L25319 26161
L25261 26142
L25223 26104
L25204 26066
L25185 25990
L25185 25933
L25204 25857
L25223 25819
L25261 25780
L25319 25761
L25357 25761
L25414 25780
L25433 25800
" />
<path d="M25566 25761
L25833 25761
L25661 26161
" />
<path d="M36433 26123
L36414 26142
L36357 26161
L36319 26161
L36261 26142
L36223 26104
L36204 26066
L36185 25990
L36185 25933
L36204 25857
L36223 25819
L36261 25780
L36319 25761
L36357 25761
L36414 25780
L36433 25800
" />
<path d="M36623 26161
L36700 26161
L36738 26142
L36757 26123
L36795 26066
L36814 25990
L36814 25838
L36795 25800
L36776 25780
L36738 25761
L36661 25761
L36623 25780
L36604 25800
L36585 25838
L36585 25933
L36604 25971
L36623 25990
L36661 26009
L36738 26009
L36776 25990
L36795 25971
L36814 25933
" />
<path d="M31933 25873
L31914 25892
L31857 25911
L31819 25911
L31761 25892
L31723 25854
L31704 25816
L31685 25740
L31685 25683
L31704 25607
L31723 25569
L31761 25530
L31819 25511
L31857 25511
L31914 25530
L31933 25550
" />
<path d="M32295 25511
L32104 25511
L32085 25702
L32104 25683
L32142 25664
L32238 25664
L32276 25683
L32295 25702
L32314 25740
L32314 25835
L32295 25873
L32276 25892
L32238 25911
L32142 25911
L32104 25892
L32085 25873
" />
<path d="M40742 26373
L40723 26392
L40666 26411
L40628 26411
L40571 26392
L40533 26354
L40514 26316
L40495 26240
L40495 26183
L40514 26107
L40533 26069
L40571 26030
L40628 26011
L40666 26011
L40723 26030
L40742 26050
" />
<path d="M41123 26411
L40895 26411
" />
<path d="M41009 26411
L41009 26011
L40971 26069
L40933 26107
L40895 26126
" />
<path d="M41504 26411
L41276 26411
" />
<path d="M41390 26411
L41390 26011
L41352 26069
L41314 26107
L41276 26126
" />
</g> 
</svg>
