<?xml version="1.0" standalone="no"?>
 <!DOCTYPE svg PUBLIC "-//W3C//DTD SVG 1.1//EN" 
 "http://www.w3.org/Graphics/SVG/1.1/DTD/svg11.dtd"> 
<svg xmlns="http://www.w3.org/2000/svg" version="1.1" 
    width="41.9989cm" height="29.7002cm" viewBox="0 0 165350 116930 ">
<title>SVG Picture created as power_split-F_Mask.svg date 2014/06/06 18:32:11 </title>
  <desc>Picture generated by PCBNEW </desc>
<g style="fill:#000000; fill-opacity:1;stroke:#000000; stroke-opacity:1;
stroke-linecap:round; stroke-linejoin:round; "
 transform="translate(0 0) scale(1 1)">
</g>
<g style="fill:#000000; fill-opacity:0.0; 
stroke:#000000; stroke-width:39.3701; stroke-opacity:1; 
stroke-linecap:round; stroke-linejoin:round;">
<circle cx="22500" cy="7750" r="559.017" /> 
<circle cx="33000" cy="7750" r="500" /> 
<circle cx="22500" cy="36000" r="500" /> 
<circle cx="33000" cy="36000" r="500" /> 
</g>
<g style="fill:#000000; fill-opacity:1.0; 
stroke:#000000; stroke-width:59.0551; stroke-opacity:1; 
stroke-linecap:round; stroke-linejoin:round;">
<polyline style="fill-rule:evenodd;"
points="20079,17579
16420,17579
16420,13920
20079,13920
20079,17579
" /> 
<polyline style="fill-rule:evenodd;"
points="23079,28447
23077,28568
23050,28687
23008,28783
22937,28883
22861,28955
22758,29021
22660,29059
22540,29080
22435,29078
22315,29052
22220,29010
22119,28940
22046,28865
21980,28761
21941,28665
21919,28543
21921,28440
21946,28319
21987,28224
22057,28121
22131,28049
22235,27981
22330,27943
22452,27919
22555,27920
22677,27945
22772,27985
22875,28055
22947,28127
23016,28231
23055,28326
23079,28447
" /> 
<polyline style="fill-rule:evenodd;"
points="23079,33447
23077,33568
23050,33687
23008,33783
22937,33883
22861,33955
22758,34021
22660,34059
22540,34080
22435,34078
22315,34052
22220,34010
22119,33940
22046,33865
21980,33761
21941,33665
21919,33543
21921,33440
21946,33319
21987,33224
22057,33121
22131,33049
22235,32981
22330,32943
22452,32919
22555,32920
22677,32945
22772,32985
22875,33055
22947,33127
23016,33231
23055,33326
23079,33447
" /> 
<polyline style="fill-rule:evenodd;"
points="23079,27079
21920,27079
21920,25920
23079,25920
23079,27079
" /> 
<polyline style="fill-rule:evenodd;"
points="23079,32079
21920,32079
21920,30920
23079,30920
23079,32079
" /> 
<polyline style="fill-rule:evenodd;"
points="25104,19969
25103,20040
25086,20116
25061,20172
25016,20235
24972,20277
24906,20319
24850,20341
24772,20355
24712,20353
24635,20337
24580,20312
24515,20267
24474,20224
24431,20158
24409,20102
24394,20024
24395,19965
24412,19887
24435,19832
24480,19767
24522,19725
24589,19682
24644,19660
24723,19644
24781,19645
24860,19661
24914,19684
24981,19729
25022,19770
25067,19837
25089,19891
25104,19969
" /> 
<polyline style="fill-rule:evenodd;"
points="25104,19354
24395,19354
24395,18645
25104,18645
25104,19354
" /> 
<polyline style="fill-rule:evenodd;"
points="25179,15712
25178,15799
25157,15890
25127,15959
25073,16035
25018,16087
24940,16136
24870,16164
24778,16180
24703,16178
24612,16158
24543,16128
24466,16075
24414,16021
24364,15942
24336,15873
24319,15781
24320,15706
24340,15614
24369,15546
24422,15468
24475,15417
24554,15365
24623,15337
24716,15319
24789,15320
24882,15339
24950,15367
25029,15421
25080,15473
25133,15552
25161,15619
25179,15712
" /> 
<polyline style="fill-rule:evenodd;"
points="25179,16712
25178,16799
25157,16890
25127,16959
25073,17035
25018,17087
24940,17136
24870,17164
24778,17180
24703,17178
24612,17158
24543,17128
24466,17075
24414,17021
24364,16942
24336,16873
24319,16781
24320,16706
24340,16614
24369,16546
24422,16468
24475,16417
24554,16365
24623,16337
24716,16319
24789,16320
24882,16339
24950,16367
25029,16421
25080,16473
25133,16552
25161,16619
25179,16712
" /> 
<polyline style="fill-rule:evenodd;"
points="25179,15179
24320,15179
24320,14320
25179,14320
25179,15179
" /> 
<polyline style="fill-rule:evenodd;"
points="25854,27969
25853,28040
25836,28116
25811,28172
25766,28235
25722,28277
25656,28319
25600,28341
25522,28355
25462,28353
25385,28337
25330,28312
25265,28267
25224,28224
25181,28158
25159,28102
25144,28024
25145,27965
25162,27887
25185,27832
25230,27767
25272,27725
25339,27682
25394,27660
25473,27644
25531,27645
25610,27661
25664,27684
25731,27729
25772,27770
25817,27837
25839,27891
25854,27969
" /> 
<polyline style="fill-rule:evenodd;"
points="25854,32969
25853,33040
25836,33116
25811,33172
25766,33235
25722,33277
25656,33319
25600,33341
25522,33355
25462,33353
25385,33337
25330,33312
25265,33267
25224,33224
25181,33158
25159,33102
25144,33024
25145,32965
25162,32887
25185,32832
25230,32767
25272,32725
25339,32682
25394,32660
25473,32644
25531,32645
25610,32661
25664,32684
25731,32729
25772,32770
25817,32837
25839,32891
25854,32969
" /> 
<polyline style="fill-rule:evenodd;"
points="25854,27354
25145,27354
25145,26645
25854,26645
25854,27354
" /> 
<polyline style="fill-rule:evenodd;"
points="25854,32354
25145,32354
25145,31645
25854,31645
25854,32354
" /> 
<polyline style="fill-rule:evenodd;"
points="26104,19969
26103,20040
26086,20116
26061,20172
26016,20235
25972,20277
25906,20319
25850,20341
25772,20355
25712,20353
25635,20337
25580,20312
25515,20267
25474,20224
25431,20158
25409,20102
25394,20024
25395,19965
25412,19887
25435,19832
25480,19767
25522,19725
25589,19682
25644,19660
25723,19644
25781,19645
25860,19661
25914,19684
25981,19729
26022,19770
26067,19837
26089,19891
26104,19969
" /> 
<polyline style="fill-rule:evenodd;"
points="26379,21967
26378,22043
26360,22124
26333,22184
26285,22252
26238,22297
26167,22342
26106,22365
26024,22380
25959,22378
25877,22360
25818,22334
25749,22287
25704,22240
25658,22169
25635,22109
25619,22026
25620,21962
25638,21879
25663,21820
25711,21751
25757,21706
25828,21659
25887,21635
25970,21619
26034,21620
26117,21637
26176,21662
26247,21709
26291,21754
26339,21826
26363,21884
26379,21967
" /> 
<polyline style="fill-rule:evenodd;"
points="27129,14717
27128,14793
27110,14874
27083,14934
27035,15002
26988,15047
26917,15092
26856,15115
26774,15130
26709,15128
26627,15110
26568,15084
26499,15037
26454,14990
26408,14919
26385,14859
26369,14776
26370,14712
26388,14629
26413,14570
26461,14501
26507,14456
26578,14409
26637,14385
26720,14369
26784,14370
26867,14387
26926,14412
26997,14459
27041,14504
27089,14576
27113,14634
27129,14717
" /> 
<polyline style="fill-rule:evenodd;"
points="27129,18717
27128,18793
27110,18874
27083,18934
27035,19002
26988,19047
26917,19092
26856,19115
26774,19130
26709,19128
26627,19110
26568,19084
26499,19037
26454,18990
26408,18919
26385,18859
26369,18776
26370,18712
26388,18629
26413,18570
26461,18501
26507,18456
26578,18409
26637,18385
26720,18369
26784,18370
26867,18387
26926,18412
26997,18459
27041,18504
27089,18576
27113,18634
27129,18717
" /> 
<polyline style="fill-rule:evenodd;"
points="27329,8329
26170,8329
26170,7170
27329,7170
27329,8329
" /> 
<polyline style="fill-rule:evenodd;"
points="27579,36579
26420,36579
26420,35420
27579,35420
27579,36579
" /> 
<polyline style="fill-rule:evenodd;"
points="27679,12679
26820,12679
26820,11820
27679,11820
27679,12679
" /> 
<polyline style="fill-rule:evenodd;"
points="29329,7697
29327,7818
29300,7937
29258,8033
29187,8133
29111,8205
29008,8271
28910,8309
28790,8330
28685,8328
28565,8302
28470,8260
28369,8190
28296,8115
28230,8011
28191,7915
28169,7793
28171,7690
28196,7569
28237,7474
28307,7371
28381,7299
28485,7231
28580,7193
28702,7169
28805,7170
28927,7195
29022,7235
29125,7305
29197,7377
29266,7481
29305,7576
29329,7697
" /> 
<polyline style="fill-rule:evenodd;"
points="29579,35947
29577,36068
29550,36187
29508,36283
29437,36383
29361,36455
29258,36521
29160,36559
29040,36580
28935,36578
28815,36552
28720,36510
28619,36440
28546,36365
28480,36261
28441,36165
28419,36043
28421,35940
28446,35819
28487,35724
28557,35621
28631,35549
28735,35481
28830,35443
28952,35419
29055,35420
29177,35445
29272,35485
29375,35555
29447,35627
29516,35731
29555,35826
29579,35947
" /> 
<polyline style="fill-rule:evenodd;"
points="29679,12212
29678,12299
29657,12390
29627,12459
29573,12535
29518,12587
29440,12636
29370,12664
29278,12680
29203,12678
29112,12658
29043,12628
28966,12575
28914,12521
28864,12442
28836,12373
28819,12281
28820,12206
28840,12114
28869,12046
28922,11968
28975,11917
29054,11865
29123,11837
29216,11819
29289,11820
29382,11839
29450,11867
29529,11921
29580,11973
29633,12052
29661,12119
29679,12212
" /> 
<polyline style="fill-rule:evenodd;"
points="30354,26969
30353,27040
30336,27116
30311,27172
30266,27235
30222,27277
30156,27319
30100,27341
30022,27355
29962,27353
29885,27337
29830,27312
29765,27267
29724,27224
29681,27158
29659,27102
29644,27024
29645,26965
29662,26887
29685,26832
29730,26767
29772,26725
29839,26682
29894,26660
29973,26644
30031,26645
30110,26661
30164,26684
30231,26729
30272,26770
30317,26837
30339,26891
30354,26969
" /> 
<polyline style="fill-rule:evenodd;"
points="30354,31969
30353,32040
30336,32116
30311,32172
30266,32235
30222,32277
30156,32319
30100,32341
30022,32355
29962,32353
29885,32337
29830,32312
29765,32267
29724,32224
29681,32158
29659,32102
29644,32024
29645,31965
29662,31887
29685,31832
29730,31767
29772,31725
29839,31682
29894,31660
29973,31644
30031,31645
30110,31661
30164,31684
30231,31729
30272,31770
30317,31837
30339,31891
30354,31969
" /> 
<polyline style="fill-rule:evenodd;"
points="30354,28354
29645,28354
29645,27645
30354,27645
30354,28354
" /> 
<polyline style="fill-rule:evenodd;"
points="30354,33354
29645,33354
29645,32645
30354,32645
30354,33354
" /> 
<polyline style="fill-rule:evenodd;"
points="30379,15967
30378,16043
30360,16124
30333,16184
30285,16252
30238,16297
30167,16342
30106,16365
30024,16380
29959,16378
29877,16360
29818,16334
29749,16287
29704,16240
29658,16169
29635,16109
29619,16026
29620,15962
29638,15879
29663,15820
29711,15751
29757,15706
29828,15659
29887,15635
29970,15619
30034,15620
30117,15637
30176,15662
30247,15709
30291,15754
30339,15826
30363,15884
30379,15967
" /> 
<polyline style="fill-rule:evenodd;"
points="30379,19967
30378,20043
30360,20124
30333,20184
30285,20252
30238,20297
30167,20342
30106,20365
30024,20380
29959,20378
29877,20360
29818,20334
29749,20287
29704,20240
29658,20169
29635,20109
29619,20026
29620,19962
29638,19879
29663,19820
29711,19751
29757,19706
29828,19659
29887,19635
29970,19619
30034,19620
30117,19637
30176,19662
30247,19709
30291,19754
30339,19826
30363,19884
30379,19967
" /> 
<polyline style="fill-rule:evenodd;"
points="30379,21967
30378,22043
30360,22124
30333,22184
30285,22252
30238,22297
30167,22342
30106,22365
30024,22380
29959,22378
29877,22360
29818,22334
29749,22287
29704,22240
29658,22169
29635,22109
29619,22026
29620,21962
29638,21879
29663,21820
29711,21751
29757,21706
29828,21659
29887,21635
29970,21619
30034,21620
30117,21637
30176,21662
30247,21709
30291,21754
30339,21826
30363,21884
30379,21967
" /> 
<polyline style="fill-rule:evenodd;"
points="33409,16464
33408,16547
33388,16633
33359,16699
33308,16771
33256,16821
33181,16869
33114,16894
33026,16910
32955,16908
32868,16889
32803,16861
32729,16810
32680,16759
32632,16683
32606,16618
32589,16529
32590,16459
32609,16370
32637,16306
32688,16231
32738,16182
32814,16133
32878,16106
32968,16089
33037,16090
33126,16108
33190,16135
33266,16186
33315,16235
33365,16311
33392,16375
33409,16464
" /> 
<polyline style="fill-rule:evenodd;"
points="33409,17464
33408,17547
33388,17633
33359,17699
33308,17771
33256,17821
33181,17869
33114,17894
33026,17910
32955,17908
32868,17889
32803,17861
32729,17810
32680,17759
32632,17683
32606,17618
32589,17529
32590,17459
32609,17370
32637,17306
32688,17231
32738,17182
32814,17133
32878,17106
32968,17089
33037,17090
33126,17108
33190,17135
33266,17186
33315,17235
33365,17311
33392,17375
33409,17464
" /> 
<polyline style="fill-rule:evenodd;"
points="33579,11447
33577,11568
33550,11687
33508,11783
33437,11883
33361,11955
33258,12021
33160,12059
33040,12080
32935,12078
32815,12052
32720,12010
32619,11940
32546,11865
32480,11761
32441,11665
32419,11543
32421,11440
32446,11319
32487,11224
32557,11121
32631,11049
32735,10981
32830,10943
32952,10919
33055,10920
33177,10945
33272,10985
33375,11055
33447,11127
33516,11231
33555,11326
33579,11447
" /> 
<polyline style="fill-rule:evenodd;"
points="33579,20947
33577,21068
33550,21187
33508,21283
33437,21383
33361,21455
33258,21521
33160,21559
33040,21580
32935,21578
32815,21552
32720,21510
32619,21440
32546,21365
32480,21261
32441,21165
32419,21043
32421,20940
32446,20819
32487,20724
32557,20621
32631,20549
32735,20481
32830,20443
32952,20419
33055,20420
33177,20445
33272,20485
33375,20555
33447,20627
33516,20731
33555,20826
33579,20947
" /> 
<polyline style="fill-rule:evenodd;"
points="33579,26447
33577,26568
33550,26687
33508,26783
33437,26883
33361,26955
33258,27021
33160,27059
33040,27080
32935,27078
32815,27052
32720,27010
32619,26940
32546,26865
32480,26761
32441,26665
32419,26543
32421,26440
32446,26319
32487,26224
32557,26121
32631,26049
32735,25981
32830,25943
32952,25919
33055,25920
33177,25945
33272,25985
33375,26055
33447,26127
33516,26231
33555,26326
33579,26447
" /> 
<polyline style="fill-rule:evenodd;"
points="33579,31447
33577,31568
33550,31687
33508,31783
33437,31883
33361,31955
33258,32021
33160,32059
33040,32080
32935,32078
32815,32052
32720,32010
32619,31940
32546,31865
32480,31761
32441,31665
32419,31543
32421,31440
32446,31319
32487,31224
32557,31121
32631,31049
32735,30981
32830,30943
32952,30919
33055,30920
33177,30945
33272,30985
33375,31055
33447,31127
33516,31231
33555,31326
33579,31447
" /> 
<polyline style="fill-rule:evenodd;"
points="33579,14079
32420,14079
32420,12920
33579,12920
33579,14079
" /> 
<polyline style="fill-rule:evenodd;"
points="33579,23579
32420,23579
32420,22420
33579,22420
33579,23579
" /> 
<polyline style="fill-rule:evenodd;"
points="33579,29079
32420,29079
32420,27920
33579,27920
33579,29079
" /> 
<polyline style="fill-rule:evenodd;"
points="33579,34079
32420,34079
32420,32920
33579,32920
33579,34079
" /> 
</g> 
</svg>
