%TF.GenerationSoftware,KiCad,Pcbnew,10.0.3*%
%TF.CreationDate,2026-06-25T16:33:58+03:00*%
%TF.ProjectId,dc_cap_multiplier,64635f63-6170-45f6-9d75-6c7469706c69,rev?*%
%TF.SameCoordinates,Original*%
%TF.FileFunction,Copper,L2,Bot*%
%TF.FilePolarity,Positive*%
%FSLAX46Y46*%
G04 Gerber Fmt 4.6, Leading zero omitted, Abs format (unit mm)*
G04 Created by KiCad (PCBNEW 10.0.3) date 2026-06-25 16:33:58*
%MOMM*%
%LPD*%
G01*
G04 APERTURE LIST*
%TA.AperFunction,ComponentPad*%
%ADD10O,1.600000X2.600000*%
%TD*%
%TA.AperFunction,ComponentPad*%
%ADD11O,2.600000X1.600000*%
%TD*%
%TA.AperFunction,Conductor*%
%ADD12C,0.800000*%
%TD*%
%TA.AperFunction,Profile*%
%ADD13C,0.200000*%
%TD*%
G04 APERTURE END LIST*
D10*
%TO.P,C1,1*%
%TO.N,Net-(D1-K)*%
X39370000Y-41937500D03*
D11*
%TO.P,C1,2*%
%TO.N,/GND_CAP_L*%
X39370000Y-46937500D03*
%TD*%
D10*
%TO.P,Q1,1,C_1*%
%TO.N,/22V_REG*%
X36830000Y-36830000D03*
%TO.P,Q1,2,B_2*%
%TO.N,Net-(D1-K)*%
X39370000Y-36830000D03*
%TO.P,Q1,3,E_3*%
%TO.N,/20V_JFET_CLEAN_LEFT*%
X41910000Y-36830000D03*
%TD*%
D11*
%TO.P,D3,1,K_1*%
%TO.N,Net-(D1-K)*%
X36830000Y-27940000D03*
D10*
%TO.P,D3,2,A_2*%
%TO.N,/20V_JFET_CLEAN_LEFT*%
X46990000Y-27940000D03*
%TD*%
D11*
%TO.P,C4,1*%
%TO.N,/20V_JFET_CLEAN_LEFT*%
X53340000Y-33060000D03*
%TO.P,C4,2*%
%TO.N,/GND_CAP_L*%
X53340000Y-38060000D03*
%TD*%
%TO.P,C2,1*%
%TO.N,Net-(D1-K)*%
X33655000Y-44490000D03*
%TO.P,C2,2*%
%TO.N,/GND_CAP_L*%
X33655000Y-46990000D03*
%TD*%
%TO.P,R1,1*%
%TO.N,/22V_REG*%
X33020000Y-33020000D03*
%TO.P,R1,2*%
%TO.N,Net-(D1-K)*%
X33020000Y-40640000D03*
%TD*%
%TO.P,D4,1,K_1*%
%TO.N,/22V_REG*%
X36767500Y-31750000D03*
D10*
%TO.P,D4,2,A_2*%
%TO.N,/20V_JFET_CLEAN_LEFT*%
X46927500Y-31750000D03*
%TD*%
D11*
%TO.P,J2,1,Pin_1_1*%
%TO.N,/GND_CAP_L*%
X26670000Y-38100000D03*
%TO.P,J2,2,Pin_2_2*%
%TO.N,/22V_REG*%
X26670000Y-35600000D03*
%TD*%
%TO.P,C3,1*%
%TO.N,/20V_JFET_CLEAN_LEFT*%
X47625000Y-35600000D03*
%TO.P,C3,2*%
%TO.N,/GND_CAP_L*%
X47625000Y-38100000D03*
%TD*%
%TO.P,J1,1,Pin_1_1*%
%TO.N,/GND_CAP_L*%
X58420000Y-38060000D03*
%TO.P,J1,2,Pin_2_2*%
%TO.N,/20V_JFET_CLEAN_LEFT*%
X58420000Y-35560000D03*
%TD*%
%TO.P,D2,1,K_1*%
%TO.N,/GND_CAP_L*%
X43242500Y-46990000D03*
D10*
%TO.P,D2,2,A_2*%
%TO.N,Net-(D1-A)*%
X53402500Y-46990000D03*
%TD*%
D11*
%TO.P,D1,1,K_1*%
%TO.N,Net-(D1-K)*%
X43242500Y-43180000D03*
D10*
%TO.P,D1,2,A_2*%
%TO.N,Net-(D1-A)*%
X53402500Y-43180000D03*
%TD*%
%TO.N,Net-(D1-K)*%
D12*
X39370000Y-36830000D02*
X39370000Y-29845000D01*
X39370000Y-41937500D02*
X36730500Y-41937500D01*
X39370000Y-42545000D02*
X39370000Y-41937500D01*
X39370000Y-38930000D02*
X39370000Y-36830000D01*
X42000000Y-41937500D02*
X39370000Y-41937500D01*
X39370000Y-36830000D02*
X39370000Y-41937500D01*
X37425000Y-44490000D02*
X39370000Y-42545000D01*
X35433000Y-40640000D02*
X33020000Y-40640000D01*
X39397500Y-41910000D02*
X39370000Y-41937500D01*
X39370000Y-29845000D02*
X37465000Y-27940000D01*
X37465000Y-27940000D02*
X36830000Y-27940000D01*
X33655000Y-44490000D02*
X37425000Y-44490000D01*
X36730500Y-41937500D02*
X35433000Y-40640000D01*
X43242500Y-43180000D02*
X42000000Y-41937500D01*
%TO.N,/GND_CAP_L*%
X43242500Y-46990000D02*
X39422500Y-46990000D01*
X56170000Y-40310000D02*
X58420000Y-38060000D01*
X47665000Y-38060000D02*
X47625000Y-38100000D01*
X58420000Y-38060000D02*
X53380000Y-38060000D01*
X49922500Y-40310000D02*
X56170000Y-40310000D01*
X43242500Y-46990000D02*
X49922500Y-40310000D01*
X33655000Y-46990000D02*
X39317500Y-46990000D01*
X39317500Y-46990000D02*
X39370000Y-46937500D01*
X31623000Y-46990000D02*
X26670000Y-42037000D01*
X33655000Y-46990000D02*
X31623000Y-46990000D01*
X39422500Y-46990000D02*
X39370000Y-46937500D01*
X43190000Y-46937500D02*
X43242500Y-46990000D01*
X53340000Y-38060000D02*
X47665000Y-38060000D01*
X26670000Y-42037000D02*
X26670000Y-38100000D01*
%TO.N,/22V_REG*%
X29250000Y-33020000D02*
X26670000Y-35600000D01*
X33020000Y-33020000D02*
X35497500Y-33020000D01*
X33020000Y-33020000D02*
X36830000Y-36830000D01*
X33020000Y-33020000D02*
X29250000Y-33020000D01*
X35497500Y-33020000D02*
X36767500Y-31750000D01*
%TO.N,/20V_JFET_CLEAN_LEFT*%
X46927500Y-31750000D02*
X46927500Y-31812500D01*
X47665000Y-35560000D02*
X47625000Y-35600000D01*
X46990000Y-27940000D02*
X46990000Y-31687500D01*
X55920000Y-33060000D02*
X58420000Y-35560000D01*
X46990000Y-31687500D02*
X46927500Y-31750000D01*
X41910000Y-33020000D02*
X46990000Y-27940000D01*
X41910000Y-36830000D02*
X44450000Y-36830000D01*
X58420000Y-35560000D02*
X47665000Y-35560000D01*
X45680000Y-35600000D02*
X47625000Y-35600000D01*
X41910000Y-36830000D02*
X41910000Y-33020000D01*
X44450000Y-36830000D02*
X45680000Y-35600000D01*
X53340000Y-33060000D02*
X55920000Y-33060000D01*
%TO.N,Net-(D1-A)*%
X53402500Y-46990000D02*
X53402500Y-43180000D01*
%TD*%
D13*
X23495000Y-27400000D02*
X23495000Y-27400000D01*
G75*
G02*
X25495000Y-25400000I2000000J0D01*
G01*
X60230000Y-25400000D01*
G75*
G02*
X62230000Y-27400000I0J-2000000D01*
G01*
X62230000Y-47530000D01*
G75*
G02*
X60230000Y-49530000I-2000000J0D01*
G01*
X25495000Y-49530000D01*
G75*
G02*
X23495000Y-47530000I0J2000000D01*
G01*
X23495000Y-27400000D01*
X27940000Y-28575000D02*
G75*
G02*
X25400000Y-28575000I-1270000J0D01*
G01*
X25400000Y-28575000D02*
G75*
G02*
X27940000Y-28575000I1270000J0D01*
G01*
X27940000Y-46355000D02*
G75*
G02*
X25400000Y-46355000I-1270000J0D01*
G01*
X25400000Y-46355000D02*
G75*
G02*
X27940000Y-46355000I1270000J0D01*
G01*
X60325000Y-28575000D02*
G75*
G02*
X57785000Y-28575000I-1270000J0D01*
G01*
X57785000Y-28575000D02*
G75*
G02*
X60325000Y-28575000I1270000J0D01*
G01*
X60325000Y-46355000D02*
G75*
G02*
X57785000Y-46355000I-1270000J0D01*
G01*
X57785000Y-46355000D02*
G75*
G02*
X60325000Y-46355000I1270000J0D01*
G01*
M02*
