M48
; DRILL file KiCad 10.0.3 date 2026-06-25T16:34:02
; FORMAT={-:-/ absolute / metric / decimal}
; #@! TF.CreationDate,2026-06-25T16:34:02+03:00
; #@! TF.GenerationSoftware,Kicad,Pcbnew,10.0.3
; #@! TF.FileFunction,MixedPlating,1,2
FMAT,2
METRIC
; #@! TA.AperFunction,Plated,PTH,ComponentDrill
T1C0.800
%
G90
G05
T1
X26.67Y-35.6
X26.67Y-38.1
X33.02Y-33.02
X33.02Y-40.64
X33.655Y-44.49
X33.655Y-46.99
X36.767Y-31.75
X36.83Y-27.94
X36.83Y-36.83
X39.37Y-36.83
X39.37Y-41.938
X39.37Y-46.938
X41.91Y-36.83
X43.242Y-43.18
X43.242Y-46.99
X46.927Y-31.75
X46.99Y-27.94
X47.625Y-35.6
X47.625Y-38.1
X53.34Y-33.06
X53.34Y-38.06
X53.402Y-43.18
X53.402Y-46.99
X58.42Y-35.56
X58.42Y-38.06
M30
