<?xml version="1.0" standalone="no"?>
 <!DOCTYPE svg PUBLIC "-//W3C//DTD SVG 1.1//EN" 
 "http://www.w3.org/Graphics/SVG/1.1/DTD/svg11.dtd"> 
<svg xmlns="http://www.w3.org/2000/svg" version="1.1" 
    width="29.7002cm" height="21.0007cm" viewBox="0 0 116930 82680 ">
<title>SVG Picture created as pot_board-B_Cu.svg date 2015/11/13 10:34:01 </title>
  <desc>Picture generated by PCBNEW </desc>
<g style="fill:#000000; fill-opacity:1;stroke:#000000; stroke-opacity:1;
stroke-linecap:round; stroke-linejoin:round; "
 transform="translate(0 0) scale(1 1)">
</g>
<g style="fill:#000000; fill-opacity:0.0; 
stroke:#000000; stroke-width:39.3701; stroke-opacity:1; 
stroke-linecap:round; stroke-linejoin:round;">
<circle cx="29750" cy="29000" r="500" /> 
<circle cx="45750" cy="41250" r="500" /> 
<circle cx="29750" cy="41250" r="500" /> 
</g>
<g style="fill:#000000; fill-opacity:0.0; 
stroke:#000000; stroke-width:787.402; stroke-opacity:1; 
stroke-linecap:round; stroke-linejoin:round;">
<path d="M35946 52000
L35553 52000
" />
<path d="M37946 52000
L37553 52000
" />
<path d="M39946 52000
L39553 52000
" />
<path d="M35946 48000
L35553 48000
" />
<path d="M37946 48000
L37553 48000
" />
<path d="M39946 48000
L39553 48000
" />
<path d="M45446 28000
L45053 28000
" />
<path d="M38696 28000
L38303 28000
" />
</g>
<g style="fill:#000000; fill-opacity:0.0; 
stroke:#000000; stroke-width:866.142; stroke-opacity:1; 
stroke-linecap:round; stroke-linejoin:round;">
<path d="M35275 36000
L34724 36000
" />
<path d="M42525 36000
L41974 36000
" />
</g>
<g style="fill:#000000; fill-opacity:0.0; 
stroke:#000000; stroke-width:59.0551; stroke-opacity:1; 
stroke-linecap:round; stroke-linejoin:round;">
</g>
<g style="fill:#000000; fill-opacity:1.0; 
stroke:#000000; stroke-width:59.0551; stroke-opacity:1; 
stroke-linecap:round; stroke-linejoin:round;">
<circle cx="45500" cy="46000" r="470.472" /> 
<circle cx="45500" cy="48000" r="470.472" /> 
<circle cx="45500" cy="52250" r="470.472" /> 
<circle cx="45500" cy="50250" r="470.472" /> 
<circle cx="30000" cy="46000" r="470.472" /> 
<circle cx="30000" cy="48000" r="470.472" /> 
<circle cx="30000" cy="52250" r="470.472" /> 
<circle cx="30000" cy="50250" r="470.472" /> 
<polyline style="fill-rule:evenodd;"
points="29529,34529
30470,34529
30470,35470
29529,35470
29529,34529
" /> 
<circle cx="30000" cy="37000" r="470.472" /> 
</g>
<g style="fill:#000000; fill-opacity:1.0; 
stroke:#000000; stroke-width:551.181; stroke-opacity:1; 
stroke-linecap:round; stroke-linejoin:round;">
<path d="M33696 27500
L33303 27500
" />
<path d="M33696 28500
L33303 28500
" />
<path d="M33696 29500
L33303 29500
" />
<path d="M33696 30500
L33303 30500
" />
</g>
<g style="fill:#000000; fill-opacity:1.0; 
stroke:#000000; stroke-width:59.0551; stroke-opacity:1; 
stroke-linecap:round; stroke-linejoin:round;">
<circle cx="35000" cy="29500" r="245.472" /> 
<circle cx="35000" cy="27500" r="245.472" /> 
<circle cx="32000" cy="30500" r="245.472" /> 
<circle cx="32000" cy="28500" r="245.472" /> 
</g>
<g style="fill:#000000; fill-opacity:1.0; 
stroke:#000000; stroke-width:118.11; stroke-opacity:1; 
stroke-linecap:round; stroke-linejoin:round;">
<path d="M39750 52000
L45250 52000
" />
<path d="M45250 52000
L45500 52250
" />
<path d="M39750 48000
L41800 48000
" />
<path d="M43800 46000
L45500 46000
" />
<path d="M41800 48000
L43800 46000
" />
<path d="M37750 52000
L36000 50250
" />
<path d="M32000 50250
L30000 52250
" />
<path d="M36000 50250
L32000 50250
" />
<path d="M30000 46000
L35750 46000
" />
<path d="M35750 46000
L37750 48000
" />
</g>
<g style="fill:#000000; fill-opacity:1.0; 
stroke:#000000; stroke-width:196.85; stroke-opacity:1; 
stroke-linecap:round; stroke-linejoin:round;">
<path d="M33500 30500
L42750 30500
" />
<path d="M42750 30500
L45250 28000
" />
<path d="M32000 30500
L33500 30500
" />
<path d="M35000 27500
L38000 27500
" />
<path d="M38000 27500
L38500 28000
" />
<path d="M35000 27500
L33500 27500
" />
</g>
<g style="fill:#000000; fill-opacity:1.0; 
stroke:#000000; stroke-width:59.0551; stroke-opacity:1; 
stroke-linecap:round; stroke-linejoin:round;">
<polyline style="fill-rule:evenodd;"
points="46901,38651
28598,38651
28598,33348
46901,33348
46901,38651
" /> 
</g>
<g style="fill:#000000; fill-opacity:0.0; 
stroke:#000000; stroke-width:196.85; stroke-opacity:1; 
stroke-linecap:round; stroke-linejoin:round;">
<polyline fill="none;"
points="46901,38651
28598,38651
28598,33348
46901,33348
46901,38651
" /> 
</g>
<g style="fill:#000000; fill-opacity:1.0; 
stroke:#000000; stroke-width:59.0551; stroke-opacity:1; 
stroke-linecap:round; stroke-linejoin:round;">
<polyline style="fill-rule:evenodd;"
points="46901,31901
46156,31901
46156,28000
46103,27735
45953,27510
45729,27360
45464,27307
45035,27307
44770,27360
44546,27510
44396,27735
44343,28000
44396,28264
44407,28281
42585,30103
39406,30103
39406,28000
39353,27735
39203,27510
38979,27360
38714,27307
38369,27307
38280,27219
38151,27133
38000,27103
37999,27103
35414,27103
35325,27014
35114,26926
34886,26926
34675,27013
34585,27103
34123,27103
34117,27094
33931,26969
33711,26925
33288,26925
33068,26969
32882,27094
32757,27280
32714,27500
32757,27719
32882,27905
33068,28030
33288,28074
33711,28074
33931,28030
34117,27905
34123,27896
34585,27896
34674,27985
34885,28073
35113,28073
35324,27986
35414,27896
37614,27896
37593,28000
37646,28264
37796,28489
38020,28639
38285,28692
38714,28692
38979,28639
39203,28489
39353,28264
39406,28000
39406,30103
34123,30103
34117,30094
33931,29969
33711,29925
33288,29925
33068,29969
32882,30094
32876,30103
32414,30103
32325,30014
32114,29926
31886,29926
31675,30013
31514,30174
31426,30385
31426,30613
31513,30824
31674,30985
31885,31073
32113,31073
32324,30986
32414,30896
32876,30896
32882,30905
33068,31030
33288,31074
33711,31074
33931,31030
34117,30905
34123,30896
42749,30896
42750,30896
42750,30896
42901,30866
43030,30780
45119,28692
45464,28692
45729,28639
45953,28489
46103,28264
46156,28000
46156,31901
30561,31901
30561,29061
30561,29000
30561,28938
30561,28937
30561,28937
30561,28937
30523,28746
30476,28632
30475,28631
30368,28470
30367,28469
30280,28381
30118,28273
30117,28273
30003,28225
29811,28187
29687,28188
29686,28188
29496,28226
29382,28273
29381,28274
29220,28381
29219,28382
29131,28469
29023,28631
29023,28632
28975,28746
28937,28938
28938,29000
28937,29061
28975,29253
29023,29367
29023,29368
29131,29530
29219,29617
29220,29618
29381,29725
29382,29726
29496,29773
29686,29811
29687,29811
29811,29812
30003,29774
30117,29726
30118,29726
30280,29618
30367,29530
30368,29529
30475,29368
30476,29367
30523,29253
30561,29062
30561,29062
30561,29062
30561,29061
30561,31901
28598,31901
28598,26348
46901,26348
46901,31901
" /> 
</g>
<g style="fill:#000000; fill-opacity:0.0; 
stroke:#000000; stroke-width:196.85; stroke-opacity:1; 
stroke-linecap:round; stroke-linejoin:round;">
<polyline fill="none;"
points="46901,31901
46156,31901
46156,28000
46103,27735
45953,27510
45729,27360
45464,27307
45035,27307
44770,27360
44546,27510
44396,27735
44343,28000
44396,28264
44407,28281
42585,30103
39406,30103
39406,28000
39353,27735
39203,27510
38979,27360
38714,27307
38369,27307
38280,27219
38151,27133
38000,27103
37999,27103
35414,27103
35325,27014
35114,26926
34886,26926
34675,27013
34585,27103
34123,27103
34117,27094
33931,26969
33711,26925
33288,26925
33068,26969
32882,27094
32757,27280
32714,27500
32757,27719
32882,27905
33068,28030
33288,28074
33711,28074
33931,28030
34117,27905
34123,27896
34585,27896
34674,27985
34885,28073
35113,28073
35324,27986
35414,27896
37614,27896
37593,28000
37646,28264
37796,28489
38020,28639
38285,28692
38714,28692
38979,28639
39203,28489
39353,28264
39406,28000
39406,30103
34123,30103
34117,30094
33931,29969
33711,29925
33288,29925
33068,29969
32882,30094
32876,30103
32414,30103
32325,30014
32114,29926
31886,29926
31675,30013
31514,30174
31426,30385
31426,30613
31513,30824
31674,30985
31885,31073
32113,31073
32324,30986
32414,30896
32876,30896
32882,30905
33068,31030
33288,31074
33711,31074
33931,31030
34117,30905
34123,30896
42749,30896
42750,30896
42750,30896
42901,30866
43030,30780
45119,28692
45464,28692
45729,28639
45953,28489
46103,28264
46156,28000
46156,31901
30561,31901
30561,29061
30561,29000
30561,28938
30561,28937
30561,28937
30561,28937
30523,28746
30476,28632
30475,28631
30368,28470
30367,28469
30280,28381
30118,28273
30117,28273
30003,28225
29811,28187
29687,28188
29686,28188
29496,28226
29382,28273
29381,28274
29220,28381
29219,28382
29131,28469
29023,28631
29023,28632
28975,28746
28937,28938
28938,29000
28937,29061
28975,29253
29023,29367
29023,29368
29131,29530
29219,29617
29220,29618
29381,29725
29382,29726
29496,29773
29686,29811
29687,29811
29811,29812
30003,29774
30117,29726
30118,29726
30280,29618
30367,29530
30368,29529
30475,29368
30476,29367
30523,29253
30561,29062
30561,29062
30561,29062
30561,29061
30561,31901
28598,31901
28598,26348
46901,26348
46901,31901
" /> 
</g>
<g style="fill:#000000; fill-opacity:1.0; 
stroke:#000000; stroke-width:59.0551; stroke-opacity:1; 
stroke-linecap:round; stroke-linejoin:round;">
<polyline style="fill-rule:evenodd;"
points="46901,53901
46561,53901
46561,41311
46561,41250
46561,41188
46561,41187
46561,41187
46561,41187
46523,40996
46476,40882
46475,40881
46368,40720
46367,40719
46280,40631
46118,40523
46117,40523
46003,40475
45811,40437
45687,40438
45686,40438
45496,40476
45382,40523
45381,40524
45220,40631
45219,40632
45131,40719
45023,40881
45023,40882
44975,40996
44937,41188
44938,41250
44937,41311
44975,41503
45023,41617
45023,41618
45131,41780
45219,41867
45220,41868
45381,41975
45382,41976
45496,42023
45686,42061
45687,42061
45811,42062
46003,42024
46117,41976
46118,41976
46280,41868
46367,41780
46368,41779
46475,41618
46476,41617
46523,41503
46561,41312
46561,41312
46561,41312
46561,41311
46561,53901
46298,53901
46298,52091
46298,45841
46177,45548
45952,45323
45659,45201
45341,45201
45048,45322
44823,45547
44783,45642
43800,45642
43663,45669
43547,45747
43547,45747
43547,45747
41651,47642
40541,47642
40453,47510
40229,47360
39964,47307
39535,47307
39270,47360
39046,47510
38896,47735
38843,48000
38896,48264
39046,48489
39270,48639
39535,48692
39964,48692
40229,48639
40453,48489
40541,48357
41800,48357
41936,48330
42052,48252
43948,46357
44783,46357
44822,46451
45047,46676
45340,46798
45658,46798
45951,46677
46176,46452
46298,46159
46298,45841
46298,52091
46177,51798
45952,51573
45659,51451
45341,51451
45048,51572
44978,51642
40541,51642
40453,51510
40229,51360
39964,51307
39535,51307
39270,51360
39046,51510
38896,51735
38843,52000
38896,52264
39046,52489
39270,52639
39535,52692
39964,52692
40229,52639
40453,52489
40541,52357
44701,52357
44701,52408
44822,52701
45047,52926
45340,53048
45658,53048
45951,52927
46176,52702
46298,52409
46298,52091
46298,53901
38656,53901
38656,52000
38656,48000
38603,47735
38453,47510
38229,47360
37964,47307
37563,47307
36002,45747
35886,45669
35750,45642
30716,45642
30677,45548
30561,45432
30561,41311
30561,41250
30561,41188
30561,41187
30561,41187
30561,41187
30523,40996
30476,40882
30475,40881
30368,40720
30367,40719
30280,40631
30118,40523
30117,40523
30003,40475
29811,40437
29687,40438
29686,40438
29496,40476
29382,40523
29381,40524
29220,40631
29219,40632
29131,40719
29023,40881
29023,40882
28975,40996
28937,41188
28938,41250
28937,41311
28975,41503
29023,41617
29023,41618
29131,41780
29219,41867
29220,41868
29381,41975
29382,41976
29496,42023
29686,42061
29687,42061
29811,42062
30003,42024
30117,41976
30118,41976
30280,41868
30367,41780
30368,41779
30475,41618
30476,41617
30523,41503
30561,41312
30561,41312
30561,41312
30561,41311
30561,45432
30452,45323
30159,45201
29841,45201
29548,45322
29323,45547
29201,45840
29201,46158
29322,46451
29547,46676
29840,46798
30158,46798
30451,46677
30676,46452
30716,46357
35601,46357
36929,47685
36896,47735
36843,48000
36896,48264
37046,48489
37270,48639
37535,48692
37964,48692
38229,48639
38453,48489
38603,48264
38656,48000
38656,52000
38603,51735
38453,51510
38229,51360
37964,51307
37563,51307
36252,49997
36136,49919
36000,49892
32000,49892
31863,49919
31747,49997
31747,49997
31747,49997
30253,51490
30159,51451
29841,51451
29548,51572
29323,51797
29201,52090
29201,52408
29322,52701
29547,52926
29840,53048
30158,53048
30451,52927
30676,52702
30798,52409
30798,52091
30759,51996
32148,50607
35851,50607
36929,51685
36896,51735
36843,52000
36896,52264
37046,52489
37270,52639
37535,52692
37964,52692
38229,52639
38453,52489
38603,52264
38656,52000
38656,53901
28598,53901
28598,40098
46901,40098
46901,53901
" /> 
</g>
<g style="fill:#000000; fill-opacity:0.0; 
stroke:#000000; stroke-width:196.85; stroke-opacity:1; 
stroke-linecap:round; stroke-linejoin:round;">
<polyline fill="none;"
points="46901,53901
46561,53901
46561,41311
46561,41250
46561,41188
46561,41187
46561,41187
46561,41187
46523,40996
46476,40882
46475,40881
46368,40720
46367,40719
46280,40631
46118,40523
46117,40523
46003,40475
45811,40437
45687,40438
45686,40438
45496,40476
45382,40523
45381,40524
45220,40631
45219,40632
45131,40719
45023,40881
45023,40882
44975,40996
44937,41188
44938,41250
44937,41311
44975,41503
45023,41617
45023,41618
45131,41780
45219,41867
45220,41868
45381,41975
45382,41976
45496,42023
45686,42061
45687,42061
45811,42062
46003,42024
46117,41976
46118,41976
46280,41868
46367,41780
46368,41779
46475,41618
46476,41617
46523,41503
46561,41312
46561,41312
46561,41312
46561,41311
46561,53901
46298,53901
46298,52091
46298,45841
46177,45548
45952,45323
45659,45201
45341,45201
45048,45322
44823,45547
44783,45642
43800,45642
43663,45669
43547,45747
43547,45747
43547,45747
41651,47642
40541,47642
40453,47510
40229,47360
39964,47307
39535,47307
39270,47360
39046,47510
38896,47735
38843,48000
38896,48264
39046,48489
39270,48639
39535,48692
39964,48692
40229,48639
40453,48489
40541,48357
41800,48357
41936,48330
42052,48252
43948,46357
44783,46357
44822,46451
45047,46676
45340,46798
45658,46798
45951,46677
46176,46452
46298,46159
46298,45841
46298,52091
46177,51798
45952,51573
45659,51451
45341,51451
45048,51572
44978,51642
40541,51642
40453,51510
40229,51360
39964,51307
39535,51307
39270,51360
39046,51510
38896,51735
38843,52000
38896,52264
39046,52489
39270,52639
39535,52692
39964,52692
40229,52639
40453,52489
40541,52357
44701,52357
44701,52408
44822,52701
45047,52926
45340,53048
45658,53048
45951,52927
46176,52702
46298,52409
46298,52091
46298,53901
38656,53901
38656,52000
38656,48000
38603,47735
38453,47510
38229,47360
37964,47307
37563,47307
36002,45747
35886,45669
35750,45642
30716,45642
30677,45548
30561,45432
30561,41311
30561,41250
30561,41188
30561,41187
30561,41187
30561,41187
30523,40996
30476,40882
30475,40881
30368,40720
30367,40719
30280,40631
30118,40523
30117,40523
30003,40475
29811,40437
29687,40438
29686,40438
29496,40476
29382,40523
29381,40524
29220,40631
29219,40632
29131,40719
29023,40881
29023,40882
28975,40996
28937,41188
28938,41250
28937,41311
28975,41503
29023,41617
29023,41618
29131,41780
29219,41867
29220,41868
29381,41975
29382,41976
29496,42023
29686,42061
29687,42061
29811,42062
30003,42024
30117,41976
30118,41976
30280,41868
30367,41780
30368,41779
30475,41618
30476,41617
30523,41503
30561,41312
30561,41312
30561,41312
30561,41311
30561,45432
30452,45323
30159,45201
29841,45201
29548,45322
29323,45547
29201,45840
29201,46158
29322,46451
29547,46676
29840,46798
30158,46798
30451,46677
30676,46452
30716,46357
35601,46357
36929,47685
36896,47735
36843,48000
36896,48264
37046,48489
37270,48639
37535,48692
37964,48692
38229,48639
38453,48489
38603,48264
38656,48000
38656,52000
38603,51735
38453,51510
38229,51360
37964,51307
37563,51307
36252,49997
36136,49919
36000,49892
32000,49892
31863,49919
31747,49997
31747,49997
31747,49997
30253,51490
30159,51451
29841,51451
29548,51572
29323,51797
29201,52090
29201,52408
29322,52701
29547,52926
29840,53048
30158,53048
30451,52927
30676,52702
30798,52409
30798,52091
30759,51996
32148,50607
35851,50607
36929,51685
36896,51735
36843,52000
36896,52264
37046,52489
37270,52639
37535,52692
37964,52692
38229,52639
38453,52489
38603,52264
38656,52000
38656,53901
28598,53901
28598,40098
46901,40098
46901,53901
" /> 
</g>
<g style="fill:#FFFFFF; fill-opacity:0.0; 
stroke:#FFFFFF; stroke-width:59.0551; stroke-opacity:1; 
stroke-linecap:round; stroke-linejoin:round;">
</g>
<g style="fill:#FFFFFF; fill-opacity:1.0; 
stroke:#FFFFFF; stroke-width:59.0551; stroke-opacity:1; 
stroke-linecap:round; stroke-linejoin:round;">
<circle cx="35750" cy="52000" r="39.3701" /> 
<circle cx="37750" cy="52000" r="39.3701" /> 
<circle cx="39750" cy="52000" r="39.3701" /> 
<circle cx="35750" cy="48000" r="39.3701" /> 
<circle cx="37750" cy="48000" r="39.3701" /> 
<circle cx="39750" cy="48000" r="39.3701" /> 
<circle cx="45250" cy="28000" r="39.3701" /> 
<circle cx="38500" cy="28000" r="39.3701" /> 
</g>
<g style="fill:#FFFFFF; fill-opacity:1.0; 
stroke:#FFFFFF; stroke-width:472.441; stroke-opacity:1; 
stroke-linecap:round; stroke-linejoin:round;">
<path d="M35275 36000
L34724 36000
" />
<path d="M42525 36000
L41974 36000
" />
</g>
<g style="fill:#FFFFFF; fill-opacity:1.0; 
stroke:#FFFFFF; stroke-width:59.0551; stroke-opacity:1; 
stroke-linecap:round; stroke-linejoin:round;">
<circle cx="45500" cy="46000" r="39.3701" /> 
<circle cx="45500" cy="48000" r="39.3701" /> 
<circle cx="45500" cy="52250" r="39.3701" /> 
<circle cx="45500" cy="50250" r="39.3701" /> 
<circle cx="30000" cy="46000" r="39.3701" /> 
<circle cx="30000" cy="48000" r="39.3701" /> 
<circle cx="30000" cy="52250" r="39.3701" /> 
<circle cx="30000" cy="50250" r="39.3701" /> 
<circle cx="30000" cy="35000" r="39.3701" /> 
<circle cx="30000" cy="37000" r="39.3701" /> 
<circle cx="33500" cy="27500" r="39.3701" /> 
<circle cx="33500" cy="28500" r="39.3701" /> 
<circle cx="33500" cy="29500" r="39.3701" /> 
<circle cx="33500" cy="30500" r="39.3701" /> 
<circle cx="35000" cy="29500" r="39.3701" /> 
<circle cx="35000" cy="27500" r="39.3701" /> 
<circle cx="32000" cy="30500" r="39.3701" /> 
<circle cx="32000" cy="28500" r="39.3701" /> 
</g> 
</svg>
