<?xml version="1.0" standalone="no"?>
 <!DOCTYPE svg PUBLIC "-//W3C//DTD SVG 1.1//EN" 
 "http://www.w3.org/Graphics/SVG/1.1/DTD/svg11.dtd"> 
<svg xmlns="http://www.w3.org/2000/svg" version="1.1" 
    width="29.7002cm" height="21.0007cm" viewBox="0 0 116930 82680 ">
<title>SVG Picture created as pot_board-F_Mask.svg date 2015/10/18 21:59:20 </title>
  <desc>Picture generated by PCBNEW </desc>
<g style="fill:#000000; fill-opacity:1;stroke:#000000; stroke-opacity:1;
stroke-linecap:round; stroke-linejoin:round; "
 transform="translate(0 0) scale(1 1)">
</g>
<g style="fill:#000000; fill-opacity:0.0; 
stroke:#000000; stroke-width:39.3701; stroke-opacity:1; 
stroke-linecap:round; stroke-linejoin:round;">
<circle cx="29750" cy="29000" r="500" /> 
<circle cx="45750" cy="41250" r="500" /> 
<circle cx="29750" cy="41250" r="500" /> 
</g>
<g style="fill:#000000; fill-opacity:1.0; 
stroke:#000000; stroke-width:59.0551; stroke-opacity:1; 
stroke-linecap:round; stroke-linejoin:round;">
<polyline style="fill-rule:evenodd;"
points="30579,36947
30577,37068
30550,37187
30508,37283
30437,37383
30361,37455
30258,37521
30160,37559
30040,37580
29935,37578
29815,37552
29720,37510
29619,37440
29546,37365
29480,37261
29441,37165
29419,37043
29421,36940
29446,36819
29487,36724
29557,36621
29631,36549
29735,36481
29830,36443
29952,36419
30055,36420
30177,36445
30272,36485
30375,36555
30447,36627
30516,36731
30555,36826
30579,36947
" /> 
<polyline style="fill-rule:evenodd;"
points="30579,45947
30577,46068
30550,46187
30508,46283
30437,46383
30361,46455
30258,46521
30160,46559
30040,46580
29935,46578
29815,46552
29720,46510
29619,46440
29546,46365
29480,46261
29441,46165
29419,46043
29421,45940
29446,45819
29487,45724
29557,45621
29631,45549
29735,45481
29830,45443
29952,45419
30055,45420
30177,45445
30272,45485
30375,45555
30447,45627
30516,45731
30555,45826
30579,45947
" /> 
<polyline style="fill-rule:evenodd;"
points="30579,47947
30577,48068
30550,48187
30508,48283
30437,48383
30361,48455
30258,48521
30160,48559
30040,48580
29935,48578
29815,48552
29720,48510
29619,48440
29546,48365
29480,48261
29441,48165
29419,48043
29421,47940
29446,47819
29487,47724
29557,47621
29631,47549
29735,47481
29830,47443
29952,47419
30055,47420
30177,47445
30272,47485
30375,47555
30447,47627
30516,47731
30555,47826
30579,47947
" /> 
<polyline style="fill-rule:evenodd;"
points="30579,50197
30577,50318
30550,50437
30508,50533
30437,50633
30361,50705
30258,50771
30160,50809
30040,50830
29935,50828
29815,50802
29720,50760
29619,50690
29546,50615
29480,50511
29441,50415
29419,50293
29421,50190
29446,50069
29487,49974
29557,49871
29631,49799
29735,49731
29830,49693
29952,49669
30055,49670
30177,49695
30272,49735
30375,49805
30447,49877
30516,49981
30555,50076
30579,50197
" /> 
<polyline style="fill-rule:evenodd;"
points="30579,52197
30577,52318
30550,52437
30508,52533
30437,52633
30361,52705
30258,52771
30160,52809
30040,52830
29935,52828
29815,52802
29720,52760
29619,52690
29546,52615
29480,52511
29441,52415
29419,52293
29421,52190
29446,52069
29487,51974
29557,51871
29631,51799
29735,51731
29830,51693
29952,51669
30055,51670
30177,51695
30272,51735
30375,51805
30447,51877
30516,51981
30555,52076
30579,52197
" /> 
<polyline style="fill-rule:evenodd;"
points="30579,35579
29420,35579
29420,34420
30579,34420
30579,35579
" /> 
<polyline style="fill-rule:evenodd;"
points="32354,28469
32353,28540
32336,28616
32311,28672
32266,28735
32222,28777
32156,28819
32100,28841
32022,28855
31962,28853
31885,28837
31830,28812
31765,28767
31724,28724
31681,28658
31659,28602
31644,28524
31645,28465
31662,28387
31685,28332
31730,28267
31772,28225
31839,28182
31894,28160
31973,28144
32031,28145
32110,28161
32164,28184
32231,28229
32272,28270
32317,28337
32339,28391
32354,28469
" /> 
<polyline style="fill-rule:evenodd;"
points="32354,30469
32353,30540
32336,30616
32311,30672
32266,30735
32222,30777
32156,30819
32100,30841
32022,30855
31962,30853
31885,30837
31830,30812
31765,30767
31724,30724
31681,30658
31659,30602
31644,30524
31645,30465
31662,30387
31685,30332
31730,30267
31772,30225
31839,30182
31894,30160
31973,30144
32031,30145
32110,30161
32164,30184
32231,30229
32272,30270
32317,30337
32339,30391
32354,30469
" /> 
<polyline style="fill-rule:evenodd;"
points="34054,27502
34046,27571
34026,27637
33993,27698
33949,27751
33895,27795
33834,27827
33768,27847
33688,27855
33311,27855
33305,27855
33295,27854
33295,27854
33226,27846
33226,27846
33225,27846
33161,27825
33099,27791
33047,27748
33003,27693
32971,27633
32952,27565
32945,27497
32953,27428
32973,27362
33006,27301
33050,27248
33104,27204
33165,27172
33231,27152
33311,27144
33688,27144
33694,27144
33704,27145
33704,27145
33773,27153
33773,27153
33774,27153
33838,27174
33900,27208
33952,27251
33996,27306
34028,27366
34047,27434
34054,27502
" /> 
<polyline style="fill-rule:evenodd;"
points="34054,28502
34046,28571
34026,28637
33993,28698
33949,28751
33895,28795
33834,28827
33768,28847
33688,28855
33311,28855
33305,28855
33295,28854
33295,28854
33226,28846
33226,28846
33225,28846
33161,28825
33099,28791
33047,28748
33003,28693
32971,28633
32952,28565
32945,28497
32953,28428
32973,28362
33006,28301
33050,28248
33104,28204
33165,28172
33231,28152
33311,28144
33688,28144
33694,28144
33704,28145
33704,28145
33773,28153
33773,28153
33774,28153
33838,28174
33900,28208
33952,28251
33996,28306
34028,28366
34047,28434
34054,28502
" /> 
<polyline style="fill-rule:evenodd;"
points="34054,29502
34046,29571
34026,29637
33993,29698
33949,29751
33895,29795
33834,29827
33768,29847
33688,29855
33311,29855
33305,29855
33295,29854
33295,29854
33226,29846
33226,29846
33225,29846
33161,29825
33099,29791
33047,29748
33003,29693
32971,29633
32952,29565
32945,29497
32953,29428
32973,29362
33006,29301
33050,29248
33104,29204
33165,29172
33231,29152
33311,29144
33688,29144
33694,29144
33704,29145
33704,29145
33773,29153
33773,29153
33774,29153
33838,29174
33900,29208
33952,29251
33996,29306
34028,29366
34047,29434
34054,29502
" /> 
<polyline style="fill-rule:evenodd;"
points="34054,30502
34046,30571
34026,30637
33993,30698
33949,30751
33895,30795
33834,30827
33768,30847
33688,30855
33311,30855
33305,30855
33295,30854
33295,30854
33226,30846
33226,30846
33225,30846
33161,30825
33099,30791
33047,30748
33003,30693
32971,30633
32952,30565
32945,30497
32953,30428
32973,30362
33006,30301
33050,30248
33104,30204
33165,30172
33231,30152
33311,30144
33688,30144
33694,30144
33704,30145
33704,30145
33773,30153
33773,30153
33774,30153
33838,30174
33900,30208
33952,30251
33996,30306
34028,30366
34047,30434
34054,30502
" /> 
<polyline style="fill-rule:evenodd;"
points="35354,27469
35353,27540
35336,27616
35311,27672
35266,27735
35222,27777
35156,27819
35100,27841
35022,27855
34962,27853
34885,27837
34830,27812
34765,27767
34724,27724
34681,27658
34659,27602
34644,27524
34645,27465
34662,27387
34685,27332
34730,27267
34772,27225
34839,27182
34894,27160
34973,27144
35031,27145
35110,27161
35164,27184
35231,27229
35272,27270
35317,27337
35339,27391
35354,27469
" /> 
<polyline style="fill-rule:evenodd;"
points="35354,29469
35353,29540
35336,29616
35311,29672
35266,29735
35222,29777
35156,29819
35100,29841
35022,29855
34962,29853
34885,29837
34830,29812
34765,29767
34724,29724
34681,29658
34659,29602
34644,29524
34645,29465
34662,29387
34685,29332
34730,29267
34772,29225
34839,29182
34894,29160
34973,29144
35031,29145
35110,29161
35164,29184
35231,29229
35272,29270
35317,29337
35339,29391
35354,29469
" /> 
<polyline style="fill-rule:evenodd;"
points="35791,36003
35780,36103
35751,36198
35703,36286
35640,36363
35562,36426
35474,36473
35379,36502
35268,36512
34731,36512
34723,36512
34713,36511
34713,36511
34614,36500
34613,36500
34613,36500
34519,36470
34430,36421
34355,36358
34291,36279
34245,36192
34217,36095
34208,35996
34219,35896
34248,35801
34296,35713
34359,35636
34437,35573
34525,35526
34620,35497
34731,35487
35268,35487
35276,35487
35286,35488
35286,35488
35385,35499
35385,35499
35386,35499
35480,35529
35569,35578
35644,35641
35708,35720
35754,35807
35782,35904
35791,36003
" /> 
<polyline style="fill-rule:evenodd;"
points="36422,48002
36413,48095
36386,48182
36341,48264
36283,48335
36211,48393
36130,48436
36042,48463
35938,48473
35561,48473
35553,48473
35543,48472
35543,48472
35451,48462
35451,48462
35450,48461
35364,48434
35282,48389
35212,48331
35153,48258
35111,48177
35085,48088
35077,47997
35086,47904
35113,47817
35158,47735
35216,47664
35288,47606
35369,47563
35457,47536
35561,47526
35938,47526
35946,47526
35956,47527
35956,47527
36048,47537
36048,47537
36049,47538
36135,47565
36217,47610
36287,47668
36346,47741
36388,47822
36414,47911
36422,48002
" /> 
<polyline style="fill-rule:evenodd;"
points="36422,52002
36413,52095
36386,52182
36341,52264
36283,52335
36211,52393
36130,52436
36042,52463
35938,52473
35561,52473
35553,52473
35543,52472
35543,52472
35451,52462
35451,52462
35450,52461
35364,52434
35282,52389
35212,52331
35153,52258
35111,52177
35085,52088
35077,51997
35086,51904
35113,51817
35158,51735
35216,51664
35288,51606
35369,51563
35457,51536
35561,51526
35938,51526
35946,51526
35956,51527
35956,51527
36048,51537
36048,51537
36049,51538
36135,51565
36217,51610
36287,51668
36346,51741
36388,51822
36414,51911
36422,52002
" /> 
<polyline style="fill-rule:evenodd;"
points="38422,48002
38413,48095
38386,48182
38341,48264
38283,48335
38211,48393
38130,48436
38042,48463
37938,48473
37561,48473
37553,48473
37543,48472
37543,48472
37451,48462
37451,48462
37450,48461
37364,48434
37282,48389
37212,48331
37153,48258
37111,48177
37085,48088
37077,47997
37086,47904
37113,47817
37158,47735
37216,47664
37288,47606
37369,47563
37457,47536
37561,47526
37938,47526
37946,47526
37956,47527
37956,47527
38048,47537
38048,47537
38049,47538
38135,47565
38217,47610
38287,47668
38346,47741
38388,47822
38414,47911
38422,48002
" /> 
<polyline style="fill-rule:evenodd;"
points="38422,52002
38413,52095
38386,52182
38341,52264
38283,52335
38211,52393
38130,52436
38042,52463
37938,52473
37561,52473
37553,52473
37543,52472
37543,52472
37451,52462
37451,52462
37450,52461
37364,52434
37282,52389
37212,52331
37153,52258
37111,52177
37085,52088
37077,51997
37086,51904
37113,51817
37158,51735
37216,51664
37288,51606
37369,51563
37457,51536
37561,51526
37938,51526
37946,51526
37956,51527
37956,51527
38048,51537
38048,51537
38049,51538
38135,51565
38217,51610
38287,51668
38346,51741
38388,51822
38414,51911
38422,52002
" /> 
<polyline style="fill-rule:evenodd;"
points="39172,28002
39163,28095
39136,28182
39091,28264
39033,28335
38961,28393
38880,28436
38792,28463
38688,28473
38311,28473
38303,28473
38293,28472
38293,28472
38201,28462
38201,28462
38200,28461
38114,28434
38032,28389
37962,28331
37903,28258
37861,28177
37835,28088
37827,27997
37836,27904
37863,27817
37908,27735
37966,27664
38038,27606
38119,27563
38207,27536
38311,27526
38688,27526
38696,27526
38706,27527
38706,27527
38798,27537
38798,27537
38799,27538
38885,27565
38967,27610
39037,27668
39096,27741
39138,27822
39164,27911
39172,28002
" /> 
<polyline style="fill-rule:evenodd;"
points="40422,48002
40413,48095
40386,48182
40341,48264
40283,48335
40211,48393
40130,48436
40042,48463
39938,48473
39561,48473
39553,48473
39543,48472
39543,48472
39451,48462
39451,48462
39450,48461
39364,48434
39282,48389
39212,48331
39153,48258
39111,48177
39085,48088
39077,47997
39086,47904
39113,47817
39158,47735
39216,47664
39288,47606
39369,47563
39457,47536
39561,47526
39938,47526
39946,47526
39956,47527
39956,47527
40048,47537
40048,47537
40049,47538
40135,47565
40217,47610
40287,47668
40346,47741
40388,47822
40414,47911
40422,48002
" /> 
<polyline style="fill-rule:evenodd;"
points="40422,52002
40413,52095
40386,52182
40341,52264
40283,52335
40211,52393
40130,52436
40042,52463
39938,52473
39561,52473
39553,52473
39543,52472
39543,52472
39451,52462
39451,52462
39450,52461
39364,52434
39282,52389
39212,52331
39153,52258
39111,52177
39085,52088
39077,51997
39086,51904
39113,51817
39158,51735
39216,51664
39288,51606
39369,51563
39457,51536
39561,51526
39938,51526
39946,51526
39956,51527
39956,51527
40048,51537
40048,51537
40049,51538
40135,51565
40217,51610
40287,51668
40346,51741
40388,51822
40414,51911
40422,52002
" /> 
<polyline style="fill-rule:evenodd;"
points="43041,36003
43030,36103
43001,36198
42953,36286
42890,36363
42812,36426
42724,36473
42629,36502
42518,36512
41981,36512
41973,36512
41963,36511
41963,36511
41864,36500
41863,36500
41863,36500
41769,36470
41680,36421
41605,36358
41541,36279
41495,36192
41467,36095
41458,35996
41469,35896
41498,35801
41546,35713
41609,35636
41687,35573
41775,35526
41870,35497
41981,35487
42518,35487
42526,35487
42536,35488
42536,35488
42635,35499
42635,35499
42636,35499
42730,35529
42819,35578
42894,35641
42958,35720
43004,35807
43032,35904
43041,36003
" /> 
<polyline style="fill-rule:evenodd;"
points="45922,28002
45913,28095
45886,28182
45841,28264
45783,28335
45711,28393
45630,28436
45542,28463
45438,28473
45061,28473
45053,28473
45043,28472
45043,28472
44951,28462
44951,28462
44950,28461
44864,28434
44782,28389
44712,28331
44653,28258
44611,28177
44585,28088
44577,27997
44586,27904
44613,27817
44658,27735
44716,27664
44788,27606
44869,27563
44957,27536
45061,27526
45438,27526
45446,27526
45456,27527
45456,27527
45548,27537
45548,27537
45549,27538
45635,27565
45717,27610
45787,27668
45846,27741
45888,27822
45914,27911
45922,28002
" /> 
<polyline style="fill-rule:evenodd;"
points="46079,45947
46077,46068
46050,46187
46008,46283
45937,46383
45861,46455
45758,46521
45660,46559
45540,46580
45435,46578
45315,46552
45220,46510
45119,46440
45046,46365
44980,46261
44941,46165
44919,46043
44921,45940
44946,45819
44987,45724
45057,45621
45131,45549
45235,45481
45330,45443
45452,45419
45555,45420
45677,45445
45772,45485
45875,45555
45947,45627
46016,45731
46055,45826
46079,45947
" /> 
<polyline style="fill-rule:evenodd;"
points="46079,47947
46077,48068
46050,48187
46008,48283
45937,48383
45861,48455
45758,48521
45660,48559
45540,48580
45435,48578
45315,48552
45220,48510
45119,48440
45046,48365
44980,48261
44941,48165
44919,48043
44921,47940
44946,47819
44987,47724
45057,47621
45131,47549
45235,47481
45330,47443
45452,47419
45555,47420
45677,47445
45772,47485
45875,47555
45947,47627
46016,47731
46055,47826
46079,47947
" /> 
<polyline style="fill-rule:evenodd;"
points="46079,50197
46077,50318
46050,50437
46008,50533
45937,50633
45861,50705
45758,50771
45660,50809
45540,50830
45435,50828
45315,50802
45220,50760
45119,50690
45046,50615
44980,50511
44941,50415
44919,50293
44921,50190
44946,50069
44987,49974
45057,49871
45131,49799
45235,49731
45330,49693
45452,49669
45555,49670
45677,49695
45772,49735
45875,49805
45947,49877
46016,49981
46055,50076
46079,50197
" /> 
<polyline style="fill-rule:evenodd;"
points="46079,52197
46077,52318
46050,52437
46008,52533
45937,52633
45861,52705
45758,52771
45660,52809
45540,52830
45435,52828
45315,52802
45220,52760
45119,52690
45046,52615
44980,52511
44941,52415
44919,52293
44921,52190
44946,52069
44987,51974
45057,51871
45131,51799
45235,51731
45330,51693
45452,51669
45555,51670
45677,51695
45772,51735
45875,51805
45947,51877
46016,51981
46055,52076
46079,52197
" /> 
</g> 
</svg>
