<?xml version="1.0" standalone="no"?>
 <!DOCTYPE svg PUBLIC "-//W3C//DTD SVG 1.1//EN" 
 "http://www.w3.org/Graphics/SVG/1.1/DTD/svg11.dtd"> 
<svg xmlns="http://www.w3.org/2000/svg" version="1.1" 
    width="41.9989cm" height="29.7002cm" viewBox="0 0 165350 116930 ">
<title>SVG Picture created as msgeq7-F_Mask.svg date 2015/01/07 20:08:00 </title>
  <desc>Picture generated by PCBNEW </desc>
<g style="fill:#000000; fill-opacity:1;stroke:#000000; stroke-opacity:1;
stroke-linecap:round; stroke-linejoin:round; "
 transform="translate(0 0) scale(1 1)">
</g>
<g style="fill:#000000; fill-opacity:0.0; 
stroke:#000000; stroke-width:39.3701; stroke-opacity:1; 
stroke-linecap:round; stroke-linejoin:round;">
<circle cx="12500" cy="8750" r="500" /> 
<circle cx="25250" cy="22500" r="500" /> 
</g>
<g style="fill:#000000; fill-opacity:1.0; 
stroke:#000000; stroke-width:59.0551; stroke-opacity:1; 
stroke-linecap:round; stroke-linejoin:round;">
<polyline style="fill-rule:evenodd;"
points="12854,18604
12145,18604
12145,17895
12854,17895
12854,18604
" /> 
<polyline style="fill-rule:evenodd;"
points="13079,22579
11920,22579
11920,21420
13079,21420
13079,22579
" /> 
<polyline style="fill-rule:evenodd;"
points="13854,18219
13853,18290
13836,18366
13811,18422
13766,18485
13722,18527
13656,18569
13600,18591
13522,18605
13462,18603
13385,18587
13330,18562
13265,18517
13224,18474
13181,18408
13159,18352
13144,18274
13145,18215
13162,18137
13185,18082
13230,18017
13272,17975
13339,17932
13394,17910
13473,17894
13531,17895
13610,17911
13664,17934
13731,17979
13772,18020
13817,18087
13839,18141
13854,18219
" /> 
<polyline style="fill-rule:evenodd;"
points="15079,21947
15077,22068
15050,22187
15008,22283
14937,22383
14861,22455
14758,22521
14660,22559
14540,22580
14435,22578
14315,22552
14220,22510
14119,22440
14046,22365
13980,22261
13941,22165
13919,22043
13921,21940
13946,21819
13987,21724
14057,21621
14131,21549
14235,21481
14330,21443
14452,21419
14555,21420
14677,21445
14772,21485
14875,21555
14947,21627
15016,21731
15055,21826
15079,21947
" /> 
<polyline style="fill-rule:evenodd;"
points="15354,16969
15353,17040
15336,17116
15311,17172
15266,17235
15222,17277
15156,17319
15100,17341
15022,17355
14962,17353
14885,17337
14830,17312
14765,17267
14724,17224
14681,17158
14659,17102
14644,17024
14645,16965
14662,16887
14685,16832
14730,16767
14772,16725
14839,16682
14894,16660
14973,16644
15031,16645
15110,16661
15164,16684
15231,16729
15272,16770
15317,16837
15339,16891
15354,16969
" /> 
<polyline style="fill-rule:evenodd;"
points="15354,18969
15353,19040
15336,19116
15311,19172
15266,19235
15222,19277
15156,19319
15100,19341
15022,19355
14962,19353
14885,19337
14830,19312
14765,19267
14724,19224
14681,19158
14659,19102
14644,19024
14645,18965
14662,18887
14685,18832
14730,18767
14772,18725
14839,18682
14894,18660
14973,18644
15031,18645
15110,18661
15164,18684
15231,18729
15272,18770
15317,18837
15339,18891
15354,18969
" /> 
<polyline style="fill-rule:evenodd;"
points="15604,10219
15603,10290
15586,10366
15561,10422
15516,10485
15472,10527
15406,10569
15350,10591
15272,10605
15212,10603
15135,10587
15080,10562
15015,10517
14974,10474
14931,10408
14909,10352
14894,10274
14895,10215
14912,10137
14935,10082
14980,10017
15022,9975
15089,9932
15144,9910
15223,9894
15281,9895
15360,9911
15414,9934
15481,9979
15522,10020
15567,10087
15589,10141
15604,10219
" /> 
<polyline style="fill-rule:evenodd;"
points="15604,12219
15603,12290
15586,12366
15561,12422
15516,12485
15472,12527
15406,12569
15350,12591
15272,12605
15212,12603
15135,12587
15080,12562
15015,12517
14974,12474
14931,12408
14909,12352
14894,12274
14895,12215
14912,12137
14935,12082
14980,12017
15022,11975
15089,11932
15144,11910
15223,11894
15281,11895
15360,11911
15414,11934
15481,11979
15522,12020
15567,12087
15589,12141
15604,12219
" /> 
<polyline style="fill-rule:evenodd;"
points="16316,15898
16316,15903
16314,15913
16314,15914
16308,15975
16308,15975
16307,15976
16289,16033
16259,16088
16220,16134
16171,16173
16118,16201
16058,16219
15998,16225
15936,16218
15878,16200
15823,16171
15776,16132
15737,16084
15708,16030
15691,15971
15683,15898
15683,15601
15683,15596
15685,15586
15685,15585
15691,15524
15691,15524
15692,15523
15710,15466
15740,15411
15779,15365
15828,15326
15881,15298
15941,15280
16001,15274
16063,15281
16121,15299
16176,15328
16223,15367
16262,15415
16291,15469
16308,15528
16316,15601
16316,15898
" /> 
<polyline style="fill-rule:evenodd;"
points="16854,9469
16853,9540
16836,9616
16811,9672
16766,9735
16722,9777
16656,9819
16600,9841
16522,9855
16462,9853
16385,9837
16330,9812
16265,9767
16224,9724
16181,9658
16159,9602
16144,9524
16145,9465
16162,9387
16185,9332
16230,9267
16272,9225
16339,9182
16394,9160
16473,9144
16531,9145
16610,9161
16664,9184
16731,9229
16772,9270
16817,9337
16839,9391
16854,9469
" /> 
<polyline style="fill-rule:evenodd;"
points="16975,10751
16968,10813
16950,10871
16921,10926
16882,10973
16834,11012
16780,11041
16721,11058
16648,11066
16351,11066
16346,11066
16336,11064
16335,11064
16274,11058
16274,11058
16273,11057
16216,11039
16161,11009
16115,10970
16076,10921
16048,10868
16030,10808
16024,10748
16031,10686
16049,10628
16078,10573
16117,10526
16165,10487
16219,10458
16278,10441
16351,10433
16648,10433
16653,10433
16663,10435
16664,10435
16725,10441
16725,10441
16726,10442
16783,10460
16838,10490
16884,10529
16923,10578
16951,10631
16969,10691
16975,10751
" /> 
<polyline style="fill-rule:evenodd;"
points="16975,11751
16968,11813
16950,11871
16921,11926
16882,11973
16834,12012
16780,12041
16721,12058
16648,12066
16351,12066
16346,12066
16336,12064
16335,12064
16274,12058
16274,12058
16273,12057
16216,12039
16161,12009
16115,11970
16076,11921
16048,11868
16030,11808
16024,11748
16031,11686
16049,11628
16078,11573
16117,11526
16165,11487
16219,11458
16278,11441
16351,11433
16648,11433
16653,11433
16663,11435
16664,11435
16725,11441
16725,11441
16726,11442
16783,11460
16838,11490
16884,11529
16923,11578
16951,11631
16969,11691
16975,11751
" /> 
<polyline style="fill-rule:evenodd;"
points="16975,12751
16968,12813
16950,12871
16921,12926
16882,12973
16834,13012
16780,13041
16721,13058
16648,13066
16351,13066
16346,13066
16336,13064
16335,13064
16274,13058
16274,13058
16273,13057
16216,13039
16161,13009
16115,12970
16076,12921
16048,12868
16030,12808
16024,12748
16031,12686
16049,12628
16078,12573
16117,12526
16165,12487
16219,12458
16278,12441
16351,12433
16648,12433
16653,12433
16663,12435
16664,12435
16725,12441
16725,12441
16726,12442
16783,12460
16838,12490
16884,12529
16923,12578
16951,12631
16969,12691
16975,12751
" /> 
<polyline style="fill-rule:evenodd;"
points="16975,13751
16968,13813
16950,13871
16921,13926
16882,13973
16834,14012
16780,14041
16721,14058
16648,14066
16351,14066
16346,14066
16336,14064
16335,14064
16274,14058
16274,14058
16273,14057
16216,14039
16161,14009
16115,13970
16076,13921
16048,13868
16030,13808
16024,13748
16031,13686
16049,13628
16078,13573
16117,13526
16165,13487
16219,13458
16278,13441
16351,13433
16648,13433
16653,13433
16663,13435
16664,13435
16725,13441
16725,13441
16726,13442
16783,13460
16838,13490
16884,13529
16923,13578
16951,13631
16969,13691
16975,13751
" /> 
<polyline style="fill-rule:evenodd;"
points="16975,17501
16968,17563
16950,17621
16921,17676
16882,17723
16834,17762
16780,17791
16721,17808
16648,17816
16351,17816
16346,17816
16336,17814
16335,17814
16274,17808
16274,17808
16273,17807
16216,17789
16161,17759
16115,17720
16076,17671
16048,17618
16030,17558
16024,17498
16031,17436
16049,17378
16078,17323
16117,17276
16165,17237
16219,17208
16278,17191
16351,17183
16648,17183
16653,17183
16663,17185
16664,17185
16725,17191
16725,17191
16726,17192
16783,17210
16838,17240
16884,17279
16923,17328
16951,17381
16969,17441
16975,17501
" /> 
<polyline style="fill-rule:evenodd;"
points="16975,18501
16968,18563
16950,18621
16921,18676
16882,18723
16834,18762
16780,18791
16721,18808
16648,18816
16351,18816
16346,18816
16336,18814
16335,18814
16274,18808
16274,18808
16273,18807
16216,18789
16161,18759
16115,18720
16076,18671
16048,18618
16030,18558
16024,18498
16031,18436
16049,18378
16078,18323
16117,18276
16165,18237
16219,18208
16278,18191
16351,18183
16648,18183
16653,18183
16663,18185
16664,18185
16725,18191
16725,18191
16726,18192
16783,18210
16838,18240
16884,18279
16923,18328
16951,18381
16969,18441
16975,18501
" /> 
<polyline style="fill-rule:evenodd;"
points="16975,19501
16968,19563
16950,19621
16921,19676
16882,19723
16834,19762
16780,19791
16721,19808
16648,19816
16351,19816
16346,19816
16336,19814
16335,19814
16274,19808
16274,19808
16273,19807
16216,19789
16161,19759
16115,19720
16076,19671
16048,19618
16030,19558
16024,19498
16031,19436
16049,19378
16078,19323
16117,19276
16165,19237
16219,19208
16278,19191
16351,19183
16648,19183
16653,19183
16663,19185
16664,19185
16725,19191
16725,19191
16726,19192
16783,19210
16838,19240
16884,19279
16923,19328
16951,19381
16969,19441
16975,19501
" /> 
<polyline style="fill-rule:evenodd;"
points="16975,20501
16968,20563
16950,20621
16921,20676
16882,20723
16834,20762
16780,20791
16721,20808
16648,20816
16351,20816
16346,20816
16336,20814
16335,20814
16274,20808
16274,20808
16273,20807
16216,20789
16161,20759
16115,20720
16076,20671
16048,20618
16030,20558
16024,20498
16031,20436
16049,20378
16078,20323
16117,20276
16165,20237
16219,20208
16278,20191
16351,20183
16648,20183
16653,20183
16663,20185
16664,20185
16725,20191
16725,20191
16726,20192
16783,20210
16838,20240
16884,20279
16923,20328
16951,20381
16969,20441
16975,20501
" /> 
<polyline style="fill-rule:evenodd;"
points="17316,15898
17316,15903
17314,15913
17314,15914
17308,15975
17308,15975
17307,15976
17289,16033
17259,16088
17220,16134
17171,16173
17118,16201
17058,16219
16998,16225
16936,16218
16878,16200
16823,16171
16776,16132
16737,16084
16708,16030
16691,15971
16683,15898
16683,15601
16683,15596
16685,15586
16685,15585
16691,15524
16691,15524
16692,15523
16710,15466
16740,15411
16779,15365
16828,15326
16881,15298
16941,15280
17001,15274
17063,15281
17121,15299
17176,15328
17223,15367
17262,15415
17291,15469
17308,15528
17316,15601
17316,15898
" /> 
<polyline style="fill-rule:evenodd;"
points="18316,15898
18316,15903
18314,15913
18314,15914
18308,15975
18308,15975
18307,15976
18289,16033
18259,16088
18220,16134
18171,16173
18118,16201
18058,16219
17998,16225
17936,16218
17878,16200
17823,16171
17776,16132
17737,16084
17708,16030
17691,15971
17683,15898
17683,15601
17683,15596
17685,15586
17685,15585
17691,15524
17691,15524
17692,15523
17710,15466
17740,15411
17779,15365
17828,15326
17881,15298
17941,15280
18001,15274
18063,15281
18121,15299
18176,15328
18223,15367
18262,15415
18291,15469
18308,15528
18316,15601
18316,15898
" /> 
<polyline style="fill-rule:evenodd;"
points="19316,15898
19316,15903
19314,15913
19314,15914
19308,15975
19308,15975
19307,15976
19289,16033
19259,16088
19220,16134
19171,16173
19118,16201
19058,16219
18998,16225
18936,16218
18878,16200
18823,16171
18776,16132
18737,16084
18708,16030
18691,15971
18683,15898
18683,15601
18683,15596
18685,15586
18685,15585
18691,15524
18691,15524
18692,15523
18710,15466
18740,15411
18779,15365
18828,15326
18881,15298
18941,15280
19001,15274
19063,15281
19121,15299
19176,15328
19223,15367
19262,15415
19291,15469
19308,15528
19316,15601
19316,15898
" /> 
<polyline style="fill-rule:evenodd;"
points="19854,9469
19853,9540
19836,9616
19811,9672
19766,9735
19722,9777
19656,9819
19600,9841
19522,9855
19462,9853
19385,9837
19330,9812
19265,9767
19224,9724
19181,9658
19159,9602
19144,9524
19145,9465
19162,9387
19185,9332
19230,9267
19272,9225
19339,9182
19394,9160
19473,9144
19531,9145
19610,9161
19664,9184
19731,9229
19772,9270
19817,9337
19839,9391
19854,9469
" /> 
<polyline style="fill-rule:evenodd;"
points="19975,10751
19968,10813
19950,10871
19921,10926
19882,10973
19834,11012
19780,11041
19721,11058
19648,11066
19351,11066
19346,11066
19336,11064
19335,11064
19274,11058
19274,11058
19273,11057
19216,11039
19161,11009
19115,10970
19076,10921
19048,10868
19030,10808
19024,10748
19031,10686
19049,10628
19078,10573
19117,10526
19165,10487
19219,10458
19278,10441
19351,10433
19648,10433
19653,10433
19663,10435
19664,10435
19725,10441
19725,10441
19726,10442
19783,10460
19838,10490
19884,10529
19923,10578
19951,10631
19969,10691
19975,10751
" /> 
<polyline style="fill-rule:evenodd;"
points="19975,11751
19968,11813
19950,11871
19921,11926
19882,11973
19834,12012
19780,12041
19721,12058
19648,12066
19351,12066
19346,12066
19336,12064
19335,12064
19274,12058
19274,12058
19273,12057
19216,12039
19161,12009
19115,11970
19076,11921
19048,11868
19030,11808
19024,11748
19031,11686
19049,11628
19078,11573
19117,11526
19165,11487
19219,11458
19278,11441
19351,11433
19648,11433
19653,11433
19663,11435
19664,11435
19725,11441
19725,11441
19726,11442
19783,11460
19838,11490
19884,11529
19923,11578
19951,11631
19969,11691
19975,11751
" /> 
<polyline style="fill-rule:evenodd;"
points="19975,12751
19968,12813
19950,12871
19921,12926
19882,12973
19834,13012
19780,13041
19721,13058
19648,13066
19351,13066
19346,13066
19336,13064
19335,13064
19274,13058
19274,13058
19273,13057
19216,13039
19161,13009
19115,12970
19076,12921
19048,12868
19030,12808
19024,12748
19031,12686
19049,12628
19078,12573
19117,12526
19165,12487
19219,12458
19278,12441
19351,12433
19648,12433
19653,12433
19663,12435
19664,12435
19725,12441
19725,12441
19726,12442
19783,12460
19838,12490
19884,12529
19923,12578
19951,12631
19969,12691
19975,12751
" /> 
<polyline style="fill-rule:evenodd;"
points="19975,13751
19968,13813
19950,13871
19921,13926
19882,13973
19834,14012
19780,14041
19721,14058
19648,14066
19351,14066
19346,14066
19336,14064
19335,14064
19274,14058
19274,14058
19273,14057
19216,14039
19161,14009
19115,13970
19076,13921
19048,13868
19030,13808
19024,13748
19031,13686
19049,13628
19078,13573
19117,13526
19165,13487
19219,13458
19278,13441
19351,13433
19648,13433
19653,13433
19663,13435
19664,13435
19725,13441
19725,13441
19726,13442
19783,13460
19838,13490
19884,13529
19923,13578
19951,13631
19969,13691
19975,13751
" /> 
<polyline style="fill-rule:evenodd;"
points="19975,17501
19968,17563
19950,17621
19921,17676
19882,17723
19834,17762
19780,17791
19721,17808
19648,17816
19351,17816
19346,17816
19336,17814
19335,17814
19274,17808
19274,17808
19273,17807
19216,17789
19161,17759
19115,17720
19076,17671
19048,17618
19030,17558
19024,17498
19031,17436
19049,17378
19078,17323
19117,17276
19165,17237
19219,17208
19278,17191
19351,17183
19648,17183
19653,17183
19663,17185
19664,17185
19725,17191
19725,17191
19726,17192
19783,17210
19838,17240
19884,17279
19923,17328
19951,17381
19969,17441
19975,17501
" /> 
<polyline style="fill-rule:evenodd;"
points="19975,18501
19968,18563
19950,18621
19921,18676
19882,18723
19834,18762
19780,18791
19721,18808
19648,18816
19351,18816
19346,18816
19336,18814
19335,18814
19274,18808
19274,18808
19273,18807
19216,18789
19161,18759
19115,18720
19076,18671
19048,18618
19030,18558
19024,18498
19031,18436
19049,18378
19078,18323
19117,18276
19165,18237
19219,18208
19278,18191
19351,18183
19648,18183
19653,18183
19663,18185
19664,18185
19725,18191
19725,18191
19726,18192
19783,18210
19838,18240
19884,18279
19923,18328
19951,18381
19969,18441
19975,18501
" /> 
<polyline style="fill-rule:evenodd;"
points="19975,19501
19968,19563
19950,19621
19921,19676
19882,19723
19834,19762
19780,19791
19721,19808
19648,19816
19351,19816
19346,19816
19336,19814
19335,19814
19274,19808
19274,19808
19273,19807
19216,19789
19161,19759
19115,19720
19076,19671
19048,19618
19030,19558
19024,19498
19031,19436
19049,19378
19078,19323
19117,19276
19165,19237
19219,19208
19278,19191
19351,19183
19648,19183
19653,19183
19663,19185
19664,19185
19725,19191
19725,19191
19726,19192
19783,19210
19838,19240
19884,19279
19923,19328
19951,19381
19969,19441
19975,19501
" /> 
<polyline style="fill-rule:evenodd;"
points="19975,20501
19968,20563
19950,20621
19921,20676
19882,20723
19834,20762
19780,20791
19721,20808
19648,20816
19351,20816
19346,20816
19336,20814
19335,20814
19274,20808
19274,20808
19273,20807
19216,20789
19161,20759
19115,20720
19076,20671
19048,20618
19030,20558
19024,20498
19031,20436
19049,20378
19078,20323
19117,20276
19165,20237
19219,20208
19278,20191
19351,20183
19648,20183
19653,20183
19663,20185
19664,20185
19725,20191
19725,20191
19726,20192
19783,20210
19838,20240
19884,20279
19923,20328
19951,20381
19969,20441
19975,20501
" /> 
<polyline style="fill-rule:evenodd;"
points="21104,10719
21103,10790
21086,10866
21061,10922
21016,10985
20972,11027
20906,11069
20850,11091
20772,11105
20712,11103
20635,11087
20580,11062
20515,11017
20474,10974
20431,10908
20409,10852
20394,10774
20395,10715
20412,10637
20435,10582
20480,10517
20522,10475
20589,10432
20644,10410
20723,10394
20781,10395
20860,10411
20914,10434
20981,10479
21022,10520
21067,10587
21089,10641
21104,10719
" /> 
<polyline style="fill-rule:evenodd;"
points="21104,12719
21103,12790
21086,12866
21061,12922
21016,12985
20972,13027
20906,13069
20850,13091
20772,13105
20712,13103
20635,13087
20580,13062
20515,13017
20474,12974
20431,12908
20409,12852
20394,12774
20395,12715
20412,12637
20435,12582
20480,12517
20522,12475
20589,12432
20644,12410
20723,12394
20781,12395
20860,12411
20914,12434
20981,12479
21022,12520
21067,12587
21089,12641
21104,12719
" /> 
<polyline style="fill-rule:evenodd;"
points="21104,16219
21103,16290
21086,16366
21061,16422
21016,16485
20972,16527
20906,16569
20850,16591
20772,16605
20712,16603
20635,16587
20580,16562
20515,16517
20474,16474
20431,16408
20409,16352
20394,16274
20395,16215
20412,16137
20435,16082
20480,16017
20522,15975
20589,15932
20644,15910
20723,15894
20781,15895
20860,15911
20914,15934
20981,15979
21022,16020
21067,16087
21089,16141
21104,16219
" /> 
<polyline style="fill-rule:evenodd;"
points="21104,17469
21103,17540
21086,17616
21061,17672
21016,17735
20972,17777
20906,17819
20850,17841
20772,17855
20712,17853
20635,17837
20580,17812
20515,17767
20474,17724
20431,17658
20409,17602
20394,17524
20395,17465
20412,17387
20435,17332
20480,17267
20522,17225
20589,17182
20644,17160
20723,17144
20781,17145
20860,17161
20914,17184
20981,17229
21022,17270
21067,17337
21089,17391
21104,17469
" /> 
<polyline style="fill-rule:evenodd;"
points="21104,19469
21103,19540
21086,19616
21061,19672
21016,19735
20972,19777
20906,19819
20850,19841
20772,19855
20712,19853
20635,19837
20580,19812
20515,19767
20474,19724
20431,19658
20409,19602
20394,19524
20395,19465
20412,19387
20435,19332
20480,19267
20522,19225
20589,19182
20644,19160
20723,19144
20781,19145
20860,19161
20914,19184
20981,19229
21022,19270
21067,19337
21089,19391
21104,19469
" /> 
<polyline style="fill-rule:evenodd;"
points="21104,20469
21103,20540
21086,20616
21061,20672
21016,20735
20972,20777
20906,20819
20850,20841
20772,20855
20712,20853
20635,20837
20580,20812
20515,20767
20474,20724
20431,20658
20409,20602
20394,20524
20395,20465
20412,20387
20435,20332
20480,20267
20522,20225
20589,20182
20644,20160
20723,20144
20781,20145
20860,20161
20914,20184
20981,20229
21022,20270
21067,20337
21089,20391
21104,20469
" /> 
<polyline style="fill-rule:evenodd;"
points="22104,10719
22103,10790
22086,10866
22061,10922
22016,10985
21972,11027
21906,11069
21850,11091
21772,11105
21712,11103
21635,11087
21580,11062
21515,11017
21474,10974
21431,10908
21409,10852
21394,10774
21395,10715
21412,10637
21435,10582
21480,10517
21522,10475
21589,10432
21644,10410
21723,10394
21781,10395
21860,10411
21914,10434
21981,10479
22022,10520
22067,10587
22089,10641
22104,10719
" /> 
<polyline style="fill-rule:evenodd;"
points="22104,17469
22103,17540
22086,17616
22061,17672
22016,17735
21972,17777
21906,17819
21850,17841
21772,17855
21712,17853
21635,17837
21580,17812
21515,17767
21474,17724
21431,17658
21409,17602
21394,17524
21395,17465
21412,17387
21435,17332
21480,17267
21522,17225
21589,17182
21644,17160
21723,17144
21781,17145
21860,17161
21914,17184
21981,17229
22022,17270
22067,17337
22089,17391
22104,17469
" /> 
<polyline style="fill-rule:evenodd;"
points="22854,13719
22853,13790
22836,13866
22811,13922
22766,13985
22722,14027
22656,14069
22600,14091
22522,14105
22462,14103
22385,14087
22330,14062
22265,14017
22224,13974
22181,13908
22159,13852
22144,13774
22145,13715
22162,13637
22185,13582
22230,13517
22272,13475
22339,13432
22394,13410
22473,13394
22531,13395
22610,13411
22664,13434
22731,13479
22772,13520
22817,13587
22839,13641
22854,13719
" /> 
<polyline style="fill-rule:evenodd;"
points="23104,12719
23103,12790
23086,12866
23061,12922
23016,12985
22972,13027
22906,13069
22850,13091
22772,13105
22712,13103
22635,13087
22580,13062
22515,13017
22474,12974
22431,12908
22409,12852
22394,12774
22395,12715
22412,12637
22435,12582
22480,12517
22522,12475
22589,12432
22644,12410
22723,12394
22781,12395
22860,12411
22914,12434
22981,12479
23022,12520
23067,12587
23089,12641
23104,12719
" /> 
<polyline style="fill-rule:evenodd;"
points="23104,19469
23103,19540
23086,19616
23061,19672
23016,19735
22972,19777
22906,19819
22850,19841
22772,19855
22712,19853
22635,19837
22580,19812
22515,19767
22474,19724
22431,19658
22409,19602
22394,19524
22395,19465
22412,19387
22435,19332
22480,19267
22522,19225
22589,19182
22644,19160
22723,19144
22781,19145
22860,19161
22914,19184
22981,19229
23022,19270
23067,19337
23089,19391
23104,19469
" /> 
<polyline style="fill-rule:evenodd;"
points="23104,20469
23103,20540
23086,20616
23061,20672
23016,20735
22972,20777
22906,20819
22850,20841
22772,20855
22712,20853
22635,20837
22580,20812
22515,20767
22474,20724
22431,20658
22409,20602
22394,20524
22395,20465
22412,20387
22435,20332
22480,20267
22522,20225
22589,20182
22644,20160
22723,20144
22781,20145
22860,20161
22914,20184
22981,20229
23022,20270
23067,20337
23089,20391
23104,20469
" /> 
<polyline style="fill-rule:evenodd;"
points="24104,16219
24103,16290
24086,16366
24061,16422
24016,16485
23972,16527
23906,16569
23850,16591
23772,16605
23712,16603
23635,16587
23580,16562
23515,16517
23474,16474
23431,16408
23409,16352
23394,16274
23395,16215
23412,16137
23435,16082
23480,16017
23522,15975
23589,15932
23644,15910
23723,15894
23781,15895
23860,15911
23914,15934
23981,15979
24022,16020
24067,16087
24089,16141
24104,16219
" /> 
<polyline style="fill-rule:evenodd;"
points="25354,13719
25353,13790
25336,13866
25311,13922
25266,13985
25222,14027
25156,14069
25100,14091
25022,14105
24962,14103
24885,14087
24830,14062
24765,14017
24724,13974
24681,13908
24659,13852
24644,13774
24645,13715
24662,13637
24685,13582
24730,13517
24772,13475
24839,13432
24894,13410
24973,13394
25031,13395
25110,13411
25164,13434
25231,13479
25272,13520
25317,13587
25339,13641
25354,13719
" /> 
<polyline style="fill-rule:evenodd;"
points="25579,18197
25577,18318
25550,18437
25508,18533
25437,18633
25361,18705
25258,18771
25160,18809
25040,18830
24935,18828
24815,18802
24720,18760
24619,18690
24546,18615
24480,18511
24441,18415
24419,18293
24421,18190
24446,18069
24487,17974
24557,17871
24631,17799
24735,17731
24830,17693
24952,17669
25055,17670
25177,17695
25272,17735
25375,17805
25447,17877
25516,17981
25555,18076
25579,18197
" /> 
<polyline style="fill-rule:evenodd;"
points="25579,20197
25577,20318
25550,20437
25508,20533
25437,20633
25361,20705
25258,20771
25160,20809
25040,20830
24935,20828
24815,20802
24720,20760
24619,20690
24546,20615
24480,20511
24441,20415
24419,20293
24421,20190
24446,20069
24487,19974
24557,19871
24631,19799
24735,19731
24830,19693
24952,19669
25055,19670
25177,19695
25272,19735
25375,19805
25447,19877
25516,19981
25555,20076
25579,20197
" /> 
</g> 
</svg>
