<?xml version="1.0" standalone="no"?>
 <!DOCTYPE svg PUBLIC "-//W3C//DTD SVG 1.1//EN" 
 "http://www.w3.org/Graphics/SVG/1.1/DTD/svg11.dtd"> 
<svg xmlns="http://www.w3.org/2000/svg" version="1.1" 
    width="41.9989cm" height="29.7002cm" viewBox="0 0 165350 116930 ">
<title>SVG Picture created as msgeq7-F_SilkS.svg date 2015/01/07 20:08:00 </title>
  <desc>Picture generated by PCBNEW </desc>
<g style="fill:#000000; fill-opacity:1;stroke:#000000; stroke-opacity:1;
stroke-linecap:round; stroke-linejoin:round; "
 transform="translate(0 0) scale(1 1)">
</g>
<g style="fill:#000000; fill-opacity:0.0; 
stroke:#000000; stroke-width:39.3701; stroke-opacity:1; 
stroke-linecap:round; stroke-linejoin:round;">
<circle cx="12500" cy="8750" r="500" /> 
<circle cx="25250" cy="22500" r="500" /> 
</g>
<g style="fill:#000000; fill-opacity:0.0; 
stroke:#000000; stroke-width:80; stroke-opacity:1; 
stroke-linecap:round; stroke-linejoin:round;">
<path d="M16500 9500
L16700 9500
" />
<path d="M19500 9500
L19300 9500
" />
<path d="M19300 9500
L19300 9100
" />
<path d="M19300 9100
L16700 9100
" />
<path d="M16700 9100
L16700 9900
" />
<path d="M16700 9900
L19300 9900
" />
<path d="M19300 9900
L19300 9500
" />
<path d="M16700 9300
L16900 9100
" />
<path d="M23750 16250
L23550 16250
" />
<path d="M20750 16250
L20950 16250
" />
<path d="M20950 16250
L20950 16650
" />
<path d="M20950 16650
L23550 16650
" />
<path d="M23550 16650
L23550 15850
" />
<path d="M23550 15850
L20950 15850
" />
<path d="M20950 15850
L20950 16250
" />
<path d="M23550 16450
L23350 16650
" />
</g>
<g style="fill:#000000; fill-opacity:0.0; 
stroke:#000000; stroke-width:100; stroke-opacity:1; 
stroke-linecap:round; stroke-linejoin:round;">
<path d="M18500 10250
L18500 10750
" />
<path d="M18500 10750
L17500 10750
" />
<path d="M17500 10750
L17500 10250
" />
<path d="M19000 10250
L19000 14250
" />
<path d="M19000 14250
L17000 14250
" />
<path d="M17000 14250
L17000 10250
" />
<path d="M17000 10250
L19000 10250
" />
</g>
<g style="fill:#000000; fill-opacity:0.0; 
stroke:#000000; stroke-width:120; stroke-opacity:1; 
stroke-linecap:round; stroke-linejoin:round;">
<path d="M15650 9850
L15650 12650
" />
<path d="M15650 12650
L14850 12650
" />
<path d="M14850 12650
L14850 9850
" />
<path d="M14850 9850
L15650 9850
" />
<path d="M15450 9850
L15650 10050
" />
<path d="M20350 12350
L23150 12350
" />
<path d="M23150 12350
L23150 13150
" />
<path d="M23150 13150
L20350 13150
" />
<path d="M20350 13150
L20350 12350
" />
<path d="M20350 12550
L20550 12350
" />
<path d="M24900 14150
L22100 14150
" />
<path d="M22100 14150
L22100 13350
" />
<path d="M22100 13350
L24900 13350
" />
<path d="M24900 13350
L24900 14150
" />
<path d="M24900 13950
L24700 14150
" />
<path d="M20270 10250
L22250 10250
" />
<path d="M22250 10250
L22250 11250
" />
<path d="M22250 11250
L20250 11250
" />
<path d="M20250 11250
L20250 10250
" />
<path d="M20250 10500
L20500 10250
" />
<path d="M15500 23000
L11500 23000
" />
<path d="M15500 23500
L15500 20500
" />
<path d="M15500 20500
L11500 20500
" />
<path d="M11500 20500
L11500 23500
" />
<path d="M11500 23500
L15500 23500
" />
<path d="M24000 21250
L24000 17250
" />
<path d="M23500 21250
L26500 21250
" />
<path d="M26500 21250
L26500 17250
" />
<path d="M26500 17250
L23500 17250
" />
<path d="M23500 17250
L23500 21250
" />
</g>
<g style="fill:#000000; fill-opacity:0.0; 
stroke:#000000; stroke-width:50; stroke-opacity:1; 
stroke-linecap:round; stroke-linejoin:round;">
<circle cx="13000" cy="18250" r="1001.25" /> 
</g>
<g style="fill:#000000; fill-opacity:0.0; 
stroke:#000000; stroke-width:120; stroke-opacity:1; 
stroke-linecap:round; stroke-linejoin:round;">
<path d="M15400 16600
L15400 19400
" />
<path d="M15400 19400
L14600 19400
" />
<path d="M14600 19400
L14600 16600
" />
<path d="M14600 16600
L15400 16600
" />
<path d="M15200 16600
L15400 16800
" />
<path d="M20350 19100
L23150 19100
" />
<path d="M23150 19100
L23150 19900
" />
<path d="M23150 19900
L20350 19900
" />
<path d="M20350 19900
L20350 19100
" />
<path d="M20350 19300
L20550 19100
" />
<path d="M23150 20900
L20350 20900
" />
<path d="M20350 20900
L20350 20100
" />
<path d="M20350 20100
L23150 20100
" />
<path d="M23150 20100
L23150 20900
" />
<path d="M23150 20700
L22950 20900
" />
<path d="M20270 17000
L22250 17000
" />
<path d="M22250 17000
L22250 18000
" />
<path d="M22250 18000
L20250 18000
" />
<path d="M20250 18000
L20250 17000
" />
<path d="M20250 17250
L20500 17000
" />
</g>
<g style="fill:#000000; fill-opacity:0.0; 
stroke:#000000; stroke-width:100; stroke-opacity:1; 
stroke-linecap:round; stroke-linejoin:round;">
<path d="M18500 17000
L18500 17500
" />
<path d="M18500 17500
L17500 17500
" />
<path d="M17500 17500
L17500 17000
" />
<path d="M19000 17000
L19000 21000
" />
<path d="M19000 21000
L17000 21000
" />
<path d="M17000 21000
L17000 17000
" />
<path d="M17000 17000
L19000 17000
" />
<path d="M15500 15250
L19500 15250
" />
<path d="M15500 16250
L19500 16250
" />
<path d="M19500 16250
L19500 15250
" />
<path d="M15500 15250
L15500 16250
" />
</g>
<g style="fill:#000000; fill-opacity:0.0; 
stroke:#000000; stroke-width:80; stroke-opacity:1; 
stroke-linecap:round; stroke-linejoin:round;">
<path d="M16630 8225
L16654 8198
L16702 8172
L16821 8172
L16869 8198
L16892 8225
L16916 8277
L16916 8329
L16892 8408
L16607 8722
L16916 8722
" />
<path d="M17226 8172
L17273 8172
L17321 8198
L17345 8225
L17369 8277
L17392 8382
L17392 8513
L17369 8617
L17345 8670
L17321 8696
L17273 8722
L17226 8722
L17178 8696
L17154 8670
L17130 8617
L17107 8513
L17107 8382
L17130 8277
L17154 8225
L17178 8198
L17226 8172
" />
<path d="M17702 8172
L17750 8172
L17797 8198
L17821 8225
L17845 8277
L17869 8382
L17869 8513
L17845 8617
L17821 8670
L17797 8696
L17750 8722
L17702 8722
L17654 8696
L17630 8670
L17607 8617
L17583 8513
L17583 8382
L17607 8277
L17630 8225
L17654 8198
L17702 8172
" />
<path d="M18083 8722
L18083 8172
" />
<path d="M18369 8722
L18154 8408
" />
<path d="M18369 8172
L18083 8486
" />
<path d="M21975 17119
L21948 17095
L21922 17047
L21922 16928
L21948 16880
L21975 16857
L22027 16833
L22079 16833
L22158 16857
L22472 17142
L22472 16833
" />
<path d="M21922 16523
L21922 16476
L21948 16428
L21975 16404
L22027 16380
L22132 16357
L22263 16357
L22367 16380
L22420 16404
L22446 16428
L22472 16476
L22472 16523
L22446 16571
L22420 16595
L22367 16619
L22263 16642
L22132 16642
L22027 16619
L21975 16595
L21948 16571
L21922 16523
" />
<path d="M21922 16047
L21922 16000
L21948 15952
L21975 15928
L22027 15904
L22132 15880
L22263 15880
L22367 15904
L22420 15928
L22446 15952
L22472 16000
L22472 16047
L22446 16095
L22420 16119
L22367 16142
L22263 16166
L22132 16166
L22027 16142
L21975 16119
L21948 16095
L21922 16047
" />
<path d="M22472 15666
L21922 15666
" />
<path d="M22472 15380
L22158 15595
" />
<path d="M21922 15380
L22236 15666
" />
<path d="M17667 9952
L17667 9452
L17839 9452
L17882 9476
L17903 9500
L17925 9547
L17925 9619
L17903 9666
L17882 9690
L17839 9714
L17667 9714
" />
<path d="M18353 9952
L18096 9952
" />
<path d="M18225 9952
L18225 9452
L18182 9523
L18139 9571
L18096 9595
" />
<path d="M16888 12452
L16888 11952
L17021 12309
L17154 11952
L17154 12452
" />
<path d="M17326 12428
L17364 12452
L17440 12452
L17478 12428
L17497 12380
L17497 12357
L17478 12309
L17440 12285
L17383 12285
L17345 12261
L17326 12214
L17326 12190
L17345 12142
L17383 12119
L17440 12119
L17478 12142
" />
<path d="M17840 12119
L17840 12523
L17821 12571
L17802 12595
L17764 12619
L17707 12619
L17669 12595
" />
<path d="M17840 12428
L17802 12452
L17726 12452
L17688 12428
L17669 12404
L17650 12357
L17650 12214
L17669 12166
L17688 12142
L17726 12119
L17802 12119
L17840 12142
" />
<path d="M18183 12428
L18145 12452
L18069 12452
L18030 12428
L18011 12380
L18011 12190
L18030 12142
L18069 12119
L18145 12119
L18183 12142
L18202 12190
L18202 12238
L18011 12285
" />
<path d="M18545 12119
L18545 12619
" />
<path d="M18545 12428
L18507 12452
L18430 12452
L18392 12428
L18373 12404
L18354 12357
L18354 12214
L18373 12166
L18392 12142
L18430 12119
L18507 12119
L18545 12142
" />
<path d="M18697 11952
L18964 11952
L18792 12452
" />
<path d="M19021 12500
L19326 12500
" />
<path d="M19630 12452
L19402 12452
" />
<path d="M19516 12452
L19516 11952
L19478 12023
L19440 12071
L19402 12095
" />
<path d="M14873 11566
L14892 11585
L14911 11642
L14911 11680
L14892 11738
L14854 11776
L14816 11795
L14740 11814
L14683 11814
L14607 11795
L14569 11776
L14530 11738
L14511 11680
L14511 11642
L14530 11585
L14550 11566
" />
<path d="M14911 11185
L14911 11414
" />
<path d="M14911 11299
L14511 11299
L14569 11338
L14607 11376
L14626 11414
" />
<path d="M21683 13123
L21664 13142
L21607 13161
L21569 13161
L21511 13142
L21473 13104
L21454 13066
L21435 12990
L21435 12933
L21454 12857
L21473 12819
L21511 12780
L21569 12761
L21607 12761
L21664 12780
L21683 12800
" />
<path d="M22026 12895
L22026 13161
" />
<path d="M21930 12742
L21835 13028
L22083 13028
" />
<path d="M23683 13623
L23664 13642
L23607 13661
L23569 13661
L23511 13642
L23473 13604
L23454 13566
L23435 13490
L23435 13433
L23454 13357
L23473 13319
L23511 13280
L23569 13261
L23607 13261
L23664 13280
L23683 13300
" />
<path d="M23835 13300
L23854 13280
L23892 13261
L23988 13261
L24026 13280
L24045 13300
L24064 13338
L24064 13376
L24045 13433
L23816 13661
L24064 13661
" />
<path d="M21283 9973
L21264 9992
L21207 10011
L21169 10011
L21111 9992
L21073 9954
L21054 9916
L21035 9840
L21035 9783
L21054 9707
L21073 9669
L21111 9630
L21169 9611
L21207 9611
L21264 9630
L21283 9650
" />
<path d="M21416 9611
L21664 9611
L21530 9764
L21588 9764
L21626 9783
L21645 9802
L21664 9840
L21664 9935
L21645 9973
L21626 9992
L21588 10011
L21473 10011
L21435 9992
L21416 9973
" />
</g>
<g style="fill:#000000; fill-opacity:0.0; 
stroke:#000000; stroke-width:120; stroke-opacity:1; 
stroke-linecap:round; stroke-linejoin:round;">
<path d="M13057 20242
L13057 19642
L13285 19642
L13342 19671
L13371 19700
L13400 19757
L13400 19842
L13371 19900
L13342 19928
L13285 19957
L13057 19957
" />
<path d="M13628 19700
L13657 19671
L13714 19642
L13857 19642
L13914 19671
L13942 19700
L13971 19757
L13971 19814
L13942 19900
L13600 20242
L13971 20242
" />
<path d="M12228 24185
L12200 24214
L12114 24242
L12057 24242
L11971 24214
L11914 24157
L11885 24100
L11857 23985
L11857 23900
L11885 23785
L11914 23728
L11971 23671
L12057 23642
L12114 23642
L12200 23671
L12228 23700
" />
<path d="M12600 23642
L12714 23642
L12771 23671
L12828 23728
L12857 23842
L12857 24042
L12828 24157
L12771 24214
L12714 24242
L12600 24242
L12542 24214
L12485 24157
L12457 24042
L12457 23842
L12485 23728
L12542 23671
L12600 23642
" />
<path d="M13114 24242
L13114 23642
L13457 24242
L13457 23642
" />
<path d="M13742 24242
L13742 23642
L14085 24242
L14085 23642
" />
<path d="M14228 24300
L14685 24300
" />
<path d="M14800 23700
L14828 23671
L14885 23642
L15028 23642
L15085 23671
L15114 23700
L15142 23757
L15142 23814
L15114 23900
L14771 24242
L15142 24242
" />
<path d="M27242 19692
L26642 19692
L26642 19464
L26671 19407
L26700 19378
L26757 19350
L26842 19350
L26900 19378
L26928 19407
L26957 19464
L26957 19692
" />
<path d="M26642 19150
L26642 18778
L26871 18978
L26871 18892
L26900 18835
L26928 18807
L26985 18778
L27128 18778
L27185 18807
L27214 18835
L27242 18892
L27242 19064
L27214 19121
L27185 19150
" />
<path d="M23185 20521
L23214 20549
L23242 20635
L23242 20692
L23214 20778
L23157 20835
L23100 20864
L22985 20892
L22900 20892
L22785 20864
L22728 20835
L22671 20778
L22642 20692
L22642 20635
L22671 20549
L22700 20521
" />
<path d="M22642 20149
L22642 20035
L22671 19978
L22728 19921
L22842 19892
L23042 19892
L23157 19921
L23214 19978
L23242 20035
L23242 20149
L23214 20207
L23157 20264
L23042 20292
L22842 20292
L22728 20264
L22671 20207
L22642 20149
" />
<path d="M23242 19635
L22642 19635
L23242 19292
L22642 19292
" />
<path d="M23242 19007
L22642 19007
L23242 18664
L22642 18664
" />
<path d="M23300 18521
L23300 18064
" />
<path d="M22700 17950
L22671 17921
L22642 17864
L22642 17721
L22671 17664
L22700 17635
L22757 17607
L22814 17607
L22900 17635
L23242 17978
L23242 17607
" />
</g>
<g style="fill:#000000; fill-opacity:0.0; 
stroke:#000000; stroke-width:50; stroke-opacity:1; 
stroke-linecap:round; stroke-linejoin:round;">
<path d="M12950 17843
L12935 17858
L12892 17872
L12864 17872
L12821 17858
L12792 17829
L12778 17801
L12764 17743
L12764 17701
L12778 17643
L12792 17615
L12821 17586
L12864 17572
L12892 17572
L12935 17586
L12950 17601
" />
<path d="M13221 17572
L13078 17572
L13064 17715
L13078 17701
L13107 17686
L13178 17686
L13207 17701
L13221 17715
L13235 17743
L13235 17815
L13221 17843
L13207 17858
L13178 17872
L13107 17872
L13078 17858
L13064 17843
" />
<path d="M12613 18871
L12470 18871
" />
<path d="M12541 18871
L12541 18571
L12517 18614
L12494 18642
L12470 18657
" />
<path d="M12767 18571
L12791 18571
L12815 18585
L12827 18600
L12839 18628
L12851 18685
L12851 18757
L12839 18814
L12827 18842
L12815 18857
L12791 18871
L12767 18871
L12744 18857
L12732 18842
L12720 18814
L12708 18757
L12708 18685
L12720 18628
L12732 18600
L12744 18585
L12767 18571
" />
<path d="M13005 18571
L13029 18571
L13053 18585
L13065 18600
L13077 18628
L13089 18685
L13089 18757
L13077 18814
L13065 18842
L13053 18857
L13029 18871
L13005 18871
L12982 18857
L12970 18842
L12958 18814
L12946 18757
L12946 18685
L12958 18628
L12970 18600
L12982 18585
L13005 18571
" />
<path d="M13303 18671
L13303 18871
" />
<path d="M13196 18671
L13196 18828
L13208 18857
L13232 18871
L13267 18871
L13291 18857
L13303 18842
" />
<path d="M13505 18714
L13422 18714
" />
<path d="M13422 18871
L13422 18571
L13541 18571
" />
</g>
<g style="fill:#000000; fill-opacity:0.0; 
stroke:#000000; stroke-width:80; stroke-opacity:1; 
stroke-linecap:round; stroke-linejoin:round;">
</g>
<g style="fill:#000000; fill-opacity:0.0; 
stroke:#000000; stroke-width:75; stroke-opacity:1; 
stroke-linecap:round; stroke-linejoin:round;">
<path d="M11985 18257
L12214 18257
" />
<path d="M12100 18371
L12100 18142
" />
</g>
<g style="fill:#000000; fill-opacity:0.0; 
stroke:#000000; stroke-width:80; stroke-opacity:1; 
stroke-linecap:round; stroke-linejoin:round;">
<path d="M15873 18066
L15892 18085
L15911 18142
L15911 18180
L15892 18238
L15854 18276
L15816 18295
L15740 18314
L15683 18314
L15607 18295
L15569 18276
L15530 18238
L15511 18180
L15511 18142
L15530 18085
L15550 18066
" />
<path d="M15511 17723
L15511 17799
L15530 17838
L15550 17857
L15607 17895
L15683 17914
L15835 17914
L15873 17895
L15892 17876
L15911 17838
L15911 17761
L15892 17723
L15873 17704
L15835 17685
L15740 17685
L15702 17704
L15683 17723
L15664 17761
L15664 17838
L15683 17876
L15702 17895
L15740 17914
" />
<path d="M21683 19373
L21664 19392
L21607 19411
L21569 19411
L21511 19392
L21473 19354
L21454 19316
L21435 19240
L21435 19183
L21454 19107
L21473 19069
L21511 19030
L21569 19011
L21607 19011
L21664 19030
L21683 19050
" />
<path d="M21873 19411
L21950 19411
L21988 19392
L22007 19373
L22045 19316
L22064 19240
L22064 19088
L22045 19050
L22026 19030
L21988 19011
L21911 19011
L21873 19030
L21854 19050
L21835 19088
L21835 19183
L21854 19221
L21873 19240
L21911 19259
L21988 19259
L22026 19240
L22045 19221
L22064 19183
" />
<path d="M21683 20373
L21664 20392
L21607 20411
L21569 20411
L21511 20392
L21473 20354
L21454 20316
L21435 20240
L21435 20183
L21454 20107
L21473 20069
L21511 20030
L21569 20011
L21607 20011
L21664 20030
L21683 20050
" />
<path d="M21816 20011
L22083 20011
L21911 20411
" />
<path d="M21283 16723
L21264 16742
L21207 16761
L21169 16761
L21111 16742
L21073 16704
L21054 16666
L21035 16590
L21035 16533
L21054 16457
L21073 16419
L21111 16380
L21169 16361
L21207 16361
L21264 16380
L21283 16400
" />
<path d="M21511 16533
L21473 16514
L21454 16495
L21435 16457
L21435 16438
L21454 16400
L21473 16380
L21511 16361
L21588 16361
L21626 16380
L21645 16400
L21664 16438
L21664 16457
L21645 16495
L21626 16514
L21588 16533
L21511 16533
L21473 16552
L21454 16571
L21435 16609
L21435 16685
L21454 16723
L21473 16742
L21511 16761
L21588 16761
L21626 16742
L21645 16723
L21664 16685
L21664 16609
L21645 16571
L21626 16552
L21588 16533
" />
<path d="M17667 16702
L17667 16202
L17839 16202
L17882 16226
L17903 16250
L17925 16297
L17925 16369
L17903 16416
L17882 16440
L17839 16464
L17667 16464
" />
<path d="M18310 16369
L18310 16702
" />
<path d="M18203 16178
L18096 16535
L18375 16535
" />
<path d="M18202 20361
L17702 20361
L18059 20228
L17702 20095
L18202 20095
" />
<path d="M18178 19923
L18202 19885
L18202 19809
L18178 19771
L18130 19752
L18107 19752
L18059 19771
L18035 19809
L18035 19866
L18011 19904
L17964 19923
L17940 19923
L17892 19904
L17869 19866
L17869 19809
L17892 19771
" />
<path d="M17869 19409
L18273 19409
L18321 19428
L18345 19447
L18369 19485
L18369 19542
L18345 19580
" />
<path d="M18178 19409
L18202 19447
L18202 19523
L18178 19561
L18154 19580
L18107 19599
L17964 19599
L17916 19580
L17892 19561
L17869 19523
L17869 19447
L17892 19409
" />
<path d="M18178 19066
L18202 19104
L18202 19180
L18178 19219
L18130 19238
L17940 19238
L17892 19219
L17869 19180
L17869 19104
L17892 19066
L17940 19047
L17988 19047
L18035 19238
" />
<path d="M17869 18704
L18369 18704
" />
<path d="M18178 18704
L18202 18742
L18202 18819
L18178 18857
L18154 18876
L18107 18895
L17964 18895
L17916 18876
L17892 18857
L17869 18819
L17869 18742
L17892 18704
" />
<path d="M17702 18552
L17702 18285
L18202 18457
" />
<path d="M18250 18228
L18250 17923
" />
<path d="M18202 17619
L18202 17847
" />
<path d="M18202 17733
L17702 17733
L17773 17771
L17821 17809
L17845 17847
" />
<path d="M17204 16911
L17204 16511
L17357 16511
L17395 16530
L17414 16550
L17433 16588
L17433 16645
L17414 16683
L17395 16702
L17357 16721
L17204 16721
" />
<path d="M17795 16511
L17604 16511
L17585 16702
L17604 16683
L17642 16664
L17738 16664
L17776 16683
L17795 16702
L17814 16740
L17814 16835
L17795 16873
L17776 16892
L17738 16911
L17642 16911
L17604 16892
L17585 16873
" />
</g> 
</svg>
