<?xml version="1.0" standalone="no"?>
 <!DOCTYPE svg PUBLIC "-//W3C//DTD SVG 1.1//EN" 
 "http://www.w3.org/Graphics/SVG/1.1/DTD/svg11.dtd"> 
<svg xmlns="http://www.w3.org/2000/svg" version="1.1" 
    width="41.9989cm" height="29.7002cm" viewBox="0 0 165350 116930 ">
<title>SVG Picture created as msgeq7-B_Cu.svg date 2015/01/07 20:08:00 </title>
  <desc>Picture generated by PCBNEW </desc>
<g style="fill:#000000; fill-opacity:1;stroke:#000000; stroke-opacity:1;
stroke-linecap:round; stroke-linejoin:round; "
 transform="translate(0 0) scale(1 1)">
</g>
<g style="fill:#000000; fill-opacity:0.0; 
stroke:#000000; stroke-width:39.3701; stroke-opacity:1; 
stroke-linecap:round; stroke-linejoin:round;">
<circle cx="12500" cy="8750" r="500" /> 
<circle cx="25250" cy="22500" r="500" /> 
</g>
<g style="fill:#000000; fill-opacity:0.0; 
stroke:#000000; stroke-width:59.0551; stroke-opacity:1; 
stroke-linecap:round; stroke-linejoin:round;">
</g>
<g style="fill:#000000; fill-opacity:1.0; 
stroke:#000000; stroke-width:59.0551; stroke-opacity:1; 
stroke-linecap:round; stroke-linejoin:round;">
<circle cx="16500" cy="9500" r="245.472" /> 
<circle cx="19500" cy="9500" r="245.472" /> 
<circle cx="23750" cy="16250" r="245.472" /> 
<circle cx="20750" cy="16250" r="245.472" /> 
</g>
<g style="fill:#000000; fill-opacity:1.0; 
stroke:#000000; stroke-width:472.441; stroke-opacity:1; 
stroke-linecap:round; stroke-linejoin:round;">
<path d="M16657 10750
L16342 10750
" />
<path d="M16657 11750
L16342 11750
" />
<path d="M16657 12750
L16342 12750
" />
<path d="M16657 13750
L16342 13750
" />
<path d="M19657 13750
L19342 13750
" />
<path d="M19657 12750
L19342 12750
" />
<path d="M19657 11750
L19342 11750
" />
<path d="M19657 10750
L19342 10750
" />
</g>
<g style="fill:#000000; fill-opacity:1.0; 
stroke:#000000; stroke-width:59.0551; stroke-opacity:1; 
stroke-linecap:round; stroke-linejoin:round;">
<circle cx="15250" cy="10250" r="245.472" /> 
<circle cx="15250" cy="12250" r="245.472" /> 
<circle cx="20750" cy="12750" r="245.472" /> 
<circle cx="22750" cy="12750" r="245.472" /> 
<circle cx="25000" cy="13750" r="245.472" /> 
<circle cx="22500" cy="13750" r="245.472" /> 
<circle cx="20750" cy="10750" r="245.472" /> 
<circle cx="21750" cy="10750" r="245.472" /> 
<polyline style="fill-rule:evenodd;"
points="12029,22470
12029,21529
12970,21529
12970,22470
12029,22470
" /> 
<circle cx="14500" cy="22000" r="470.472" /> 
<circle cx="25000" cy="18250" r="470.472" /> 
<circle cx="25000" cy="20250" r="470.472" /> 
<polyline style="fill-rule:evenodd;"
points="12254,18495
12254,18004
12745,18004
12745,18495
12254,18495
" /> 
<circle cx="13500" cy="18250" r="245.472" /> 
<circle cx="15000" cy="17000" r="245.472" /> 
<circle cx="15000" cy="19000" r="245.472" /> 
<circle cx="20750" cy="19500" r="245.472" /> 
<circle cx="22750" cy="19500" r="245.472" /> 
<circle cx="22750" cy="20500" r="245.472" /> 
<circle cx="20750" cy="20500" r="245.472" /> 
<circle cx="20750" cy="17500" r="245.472" /> 
<circle cx="21750" cy="17500" r="245.472" /> 
</g>
<g style="fill:#000000; fill-opacity:1.0; 
stroke:#000000; stroke-width:472.441; stroke-opacity:1; 
stroke-linecap:round; stroke-linejoin:round;">
<path d="M16657 17500
L16342 17500
" />
<path d="M16657 18500
L16342 18500
" />
<path d="M16657 19500
L16342 19500
" />
<path d="M16657 20500
L16342 20500
" />
<path d="M19657 20500
L19342 20500
" />
<path d="M19657 19500
L19342 19500
" />
<path d="M19657 18500
L19342 18500
" />
<path d="M19657 17500
L19342 17500
" />
<path d="M19000 15907
L19000 15592
" />
<path d="M18000 15907
L18000 15592
" />
<path d="M17000 15907
L17000 15592
" />
<path d="M16000 15907
L16000 15592
" />
</g>
<g style="fill:#000000; fill-opacity:1.0; 
stroke:#000000; stroke-width:196.85; stroke-opacity:1; 
stroke-linecap:round; stroke-linejoin:round;">
<path d="M14750 9250
L14750 9750
" />
<path d="M14750 9750
L15250 10250
" />
<path d="M16500 10750
L15750 10750
" />
<path d="M15750 10750
L15250 10250
" />
<path d="M12500 18250
L12500 22000
" />
<path d="M16500 9500
L17750 9500
" />
<path d="M17750 9500
L18750 8500
" />
<path d="M15250 8750
L15500 8500
" />
<path d="M15500 8500
L17500 8500
" />
<path d="M21500 8500
L21750 8750
" />
<path d="M18750 8500
L21500 8500
" />
<path d="M23750 16250
L23750 10750
" />
<path d="M21750 8750
L22500 9500
" />
<path d="M22500 9500
L23750 10750
" />
<path d="M17500 8500
L18750 8500
" />
<path d="M14750 9250
L15250 8750
" />
<path d="M14250 9750
L14750 9250
" />
<path d="M14250 9750
L14250 11750
" />
<path d="M14250 12000
L14250 11750
" />
<path d="M13250 17000
L14250 16000
" />
<path d="M14250 16000
L14250 12000
" />
<path d="M12500 18250
L12500 17750
" />
<path d="M13250 17000
L15000 17000
" />
<path d="M12500 17750
L13250 17000
" />
<path d="M16500 17500
L15500 17500
" />
<path d="M15500 17500
L15000 17000
" />
</g>
<g style="fill:#000000; fill-opacity:1.0; 
stroke:#000000; stroke-width:118.11; stroke-opacity:1; 
stroke-linecap:round; stroke-linejoin:round;">
<path d="M25000 18250
L25000 13750
" />
</g>
<g style="fill:#000000; fill-opacity:1.0; 
stroke:#000000; stroke-width:196.85; stroke-opacity:1; 
stroke-linecap:round; stroke-linejoin:round;">
<path d="M16500 12750
L16000 12750
" />
<path d="M16000 15000
L16000 15750
" />
<path d="M15500 14500
L16000 15000
" />
<path d="M15500 13250
L15500 14500
" />
<path d="M16000 12750
L15500 13250
" />
<path d="M17000 15750
L17000 16500
" />
<path d="M17000 16500
L17500 17000
" />
<path d="M17250 19500
L16500 19500
" />
<path d="M17500 19250
L17250 19500
" />
<path d="M17500 17000
L17500 19250
" />
<path d="M19000 15750
L19500 15750
" />
<path d="M19500 15750
L20500 14750
" />
<path d="M19000 14750
L20500 14750
" />
<path d="M20500 14750
L21500 14750
" />
<path d="M21500 14750
L21750 15000
" />
<path d="M19500 11750
L19000 11750
" />
<path d="M19000 11750
L18500 12250
" />
<path d="M18500 12250
L18250 12500
" />
<path d="M18500 14250
L18750 14500
" />
<path d="M18250 14000
L18500 14250
" />
<path d="M18250 12500
L18250 14000
" />
<path d="M18750 14500
L19000 14750
" />
<path d="M22250 18500
L19500 18500
" />
<path d="M21750 15000
L22750 16000
" />
<path d="M22750 16000
L22750 18000
" />
<path d="M22750 18000
L22250 18500
" />
<path d="M18500 12250
L19000 11750
" />
<path d="M19500 11750
L19000 11750
" />
<path d="M19000 11750
L18500 12250
" />
</g>
<g style="fill:#000000; fill-opacity:1.0; 
stroke:#000000; stroke-width:118.11; stroke-opacity:1; 
stroke-linecap:round; stroke-linejoin:round;">
<path d="M25000 20250
L23000 20250
" />
<path d="M23000 20250
L22750 20500
" />
</g>
<g style="fill:#000000; fill-opacity:1.0; 
stroke:#000000; stroke-width:196.85; stroke-opacity:1; 
stroke-linecap:round; stroke-linejoin:round;">
<path d="M16500 13750
L18000 15250
" />
<path d="M18000 15750
L18000 16500
" />
<path d="M17750 20500
L16500 20500
" />
<path d="M18250 20000
L17750 20500
" />
<path d="M18250 16750
L18250 20000
" />
<path d="M18000 16500
L18250 16750
" />
<path d="M18000 15250
L18000 15750
" />
<path d="M19500 19500
L20750 19500
" />
<path d="M20750 17500
L20750 16250
" />
<path d="M19500 17500
L20750 17500
" />
<path d="M19500 12750
L20750 12750
" />
<path d="M19500 9500
L20750 10750
" />
<path d="M19500 10750
L20750 10750
" />
<path d="M19500 13750
L22500 13750
" />
<path d="M19500 20500
L20750 20500
" />
</g>
<g style="fill:#000000; fill-opacity:1.0; 
stroke:#000000; stroke-width:59.0551; stroke-opacity:1; 
stroke-linecap:round; stroke-linejoin:round;">
<polyline style="fill-rule:evenodd;"
points="26450,23700
26011,23700
26011,22551
26011,22500
26011,22448
26011,22447
26011,22447
26011,22447
25973,22256
25933,22160
25933,22160
25825,21998
25825,21998
25751,21924
25746,21921
25746,20102
25746,18102
25633,17827
25423,17617
25305,17568
25305,14181
25442,14045
25521,13854
25521,13646
25442,13454
25295,13307
25104,13228
24896,13228
24704,13307
24557,13454
24478,13645
24478,13853
24557,14045
24694,14182
24694,17568
24577,17616
24367,17826
24271,18055
24271,16146
24192,15954
24095,15857
24095,10750
24068,10617
23994,10505
22744,9255
22744,9255
21994,8505
21994,8505
21744,8255
21632,8181
21500,8154
18750,8154
17500,8154
15500,8154
15367,8181
15255,8255
15255,8255
15005,8505
15005,8505
14505,9005
14505,9005
14005,9505
13931,9617
13904,9750
13904,11750
13904,12000
13904,15856
13261,16500
13261,8801
13261,8750
13261,8698
13261,8697
13261,8697
13261,8697
13223,8506
13183,8410
13183,8410
13075,8248
13075,8248
13001,8174
12839,8066
12839,8066
12743,8026
12551,7988
12447,7988
12446,7988
12256,8026
12160,8066
12160,8066
11998,8174
11998,8174
11924,8248
11816,8410
11816,8410
11776,8506
11738,8698
11738,8750
11738,8801
11776,8993
11816,9089
11816,9089
11924,9251
11998,9325
11998,9325
12160,9433
12160,9433
12256,9473
12446,9511
12447,9511
12551,9511
12743,9473
12839,9433
12839,9433
13001,9325
13075,9251
13075,9251
13183,9089
13183,9089
13223,8993
13261,8802
13261,8802
13261,8802
13261,8801
13261,16500
13005,16755
13005,16755
12255,17505
12181,17617
12157,17735
12085,17765
12015,17834
11978,17925
11978,18023
11978,18573
12015,18664
12084,18734
12154,18763
12154,21253
11951,21253
11860,21290
11790,21359
11753,21450
11753,21548
11753,22548
11790,22639
11859,22709
11950,22746
12048,22746
13048,22746
13139,22709
13209,22640
13246,22549
13246,22451
13246,21451
13209,21360
13140,21290
13049,21253
12951,21253
12845,21253
12845,18763
12914,18734
12984,18665
13021,18574
13021,18476
13021,17926
12984,17835
12943,17794
13393,17345
14607,17345
14704,17442
14895,17521
15033,17521
15255,17744
15255,17744
15323,17789
15367,17818
15367,17818
15500,17845
15993,17845
16145,17946
16329,17983
16670,17983
16854,17946
17011,17841
17116,17684
17153,17500
17116,17315
17011,17158
16854,17053
16670,17016
16329,17016
16145,17053
15993,17154
15643,17154
15521,17033
15521,16896
15442,16704
15295,16557
15104,16478
14896,16478
14704,16557
14607,16654
14083,16654
14494,16244
14494,16244
14494,16244
14539,16176
14568,16132
14568,16132
14595,16000
14595,12000
14595,11750
14595,10083
14728,10216
14728,10353
14807,10545
14954,10692
15145,10771
15283,10771
15505,10994
15505,10994
15573,11039
15617,11068
15617,11068
15750,11095
15993,11095
16145,11196
16329,11233
16670,11233
16854,11196
17011,11091
17116,10934
17153,10750
17116,10565
17011,10408
16854,10303
16670,10266
16329,10266
16145,10303
15993,10404
15893,10404
15771,10283
15771,10146
15692,9954
15545,9807
15354,9728
15216,9728
15095,9606
15095,9393
15494,8994
15494,8994
15494,8994
15643,8845
17500,8845
17916,8845
17606,9154
16892,9154
16795,9057
16604,8978
16396,8978
16204,9057
16057,9204
15978,9395
15978,9603
16057,9795
16204,9942
16395,10021
16603,10021
16795,9942
16892,9845
17750,9845
17882,9818
17994,9744
18893,8845
21356,8845
21505,8994
21505,8994
22255,9744
22255,9744
23404,10893
23404,15857
23307,15954
23228,16145
23228,16353
23307,16545
23454,16692
23645,16771
23853,16771
24045,16692
24192,16545
24271,16354
24271,16146
24271,18055
24253,18100
24253,18397
24366,18672
24576,18882
24850,18996
25147,18996
25422,18883
25632,18673
25746,18399
25746,18102
25746,20102
25633,19827
25423,19617
25149,19503
24852,19503
24577,19616
24367,19826
24318,19944
23095,19944
23095,18000
23095,16000
23068,15867
23068,15867
23039,15823
23021,15797
23021,13646
22942,13454
22795,13307
22604,13228
22396,13228
22204,13307
22107,13404
21271,13404
21271,12646
21271,10646
21192,10454
21045,10307
20854,10228
20716,10228
20021,9533
20021,9396
19942,9204
19795,9057
19604,8978
19396,8978
19204,9057
19057,9204
18978,9395
18978,9603
19057,9795
19204,9942
19395,10021
19533,10021
19805,10293
19670,10266
19329,10266
19145,10303
18988,10408
18883,10565
18846,10750
18883,10934
18988,11091
19145,11196
19329,11233
19670,11233
19854,11196
20006,11095
20357,11095
20454,11192
20645,11271
20853,11271
21045,11192
21192,11045
21271,10854
21271,10646
21271,12646
21192,12454
21045,12307
20854,12228
20646,12228
20454,12307
20357,12404
20006,12404
19854,12303
19670,12266
19329,12266
19145,12303
18988,12408
18883,12565
18846,12750
18883,12934
18988,13091
19145,13196
19329,13233
19670,13233
19854,13196
20006,13095
20357,13095
20454,13192
20645,13271
20853,13271
21045,13192
21192,13045
21271,12854
21271,12646
21271,13404
20006,13404
19854,13303
19670,13266
19329,13266
19145,13303
18988,13408
18883,13565
18846,13750
18883,13934
18988,14091
19145,14196
19329,14233
19670,14233
19854,14196
20006,14095
22107,14095
22204,14192
22395,14271
22603,14271
22795,14192
22942,14045
23021,13854
23021,13646
23021,15797
22994,15755
22994,15755
21994,14755
21994,14755
21744,14505
21632,14431
21500,14404
20500,14404
19143,14404
18994,14255
18994,14255
18744,14005
18744,14005
18595,13856
18595,12643
18744,12494
18744,12494
18744,12494
19083,12154
19145,12196
19329,12233
19670,12233
19854,12196
20011,12091
20116,11934
20153,11750
20116,11565
20011,11408
19854,11303
19670,11266
19329,11266
19145,11303
18991,11406
18867,11431
18823,11460
18755,11505
18755,11505
18255,12005
18255,12005
18005,12255
17931,12367
17904,12500
17904,14000
17931,14132
18005,14244
18255,14494
18255,14494
18505,14744
18505,14744
18755,14994
18755,14994
18867,15068
18867,15068
19000,15095
19666,15095
19414,15347
19341,15238
19184,15133
19000,15096
18815,15133
18658,15238
18553,15395
18516,15579
18516,15920
18553,16104
18658,16261
18815,16366
19000,16403
19184,16366
19341,16261
19446,16104
19448,16095
19500,16095
19632,16068
19744,15994
20643,15095
21356,15095
21505,15244
21505,15244
22404,16143
22404,17856
22106,18154
21271,18154
21271,17396
21192,17204
21095,17107
21095,16642
21192,16545
21271,16354
21271,16146
21192,15954
21045,15807
20854,15728
20646,15728
20454,15807
20307,15954
20228,16145
20228,16353
20307,16545
20404,16642
20404,17107
20357,17154
20006,17154
19854,17053
19670,17016
19329,17016
19145,17053
18988,17158
18883,17315
18846,17500
18883,17684
18988,17841
19145,17946
19329,17983
19670,17983
19854,17946
20006,17845
20357,17845
20454,17942
20645,18021
20853,18021
21045,17942
21192,17795
21271,17604
21271,17396
21271,18154
20006,18154
19854,18053
19670,18016
19329,18016
19145,18053
18988,18158
18883,18315
18846,18500
18883,18684
18988,18841
19145,18946
19329,18983
19670,18983
19854,18946
20006,18845
22250,18845
22382,18818
22494,18744
22994,18244
22994,18244
22994,18244
23039,18176
23068,18132
23068,18132
23095,18000
23095,19944
23000,19944
22882,19967
22861,19981
22854,19978
22646,19978
22454,20057
22307,20204
22228,20395
22228,20603
22307,20795
22454,20942
22645,21021
22853,21021
23045,20942
23192,20795
23271,20604
23271,20555
24318,20555
24366,20672
24576,20882
24850,20996
25147,20996
25422,20883
25632,20673
25746,20399
25746,20102
25746,21921
25589,21816
25589,21816
25493,21776
25301,21738
25197,21738
25196,21738
25006,21776
24910,21816
24910,21816
24748,21924
24748,21924
24674,21998
24566,22160
24566,22160
24526,22256
24488,22448
24488,22500
24488,22551
24526,22743
24566,22839
24566,22839
24674,23001
24748,23075
24748,23075
24910,23183
24910,23183
25006,23223
25196,23261
25197,23261
25301,23261
25493,23223
25589,23183
25589,23183
25751,23075
25825,23001
25825,23001
25933,22839
25933,22839
25973,22743
26011,22552
26011,22552
26011,22552
26011,22551
26011,23700
21271,23700
21271,20396
21192,20204
21045,20057
20906,19999
21045,19942
21192,19795
21271,19604
21271,19396
21192,19204
21045,19057
20854,18978
20646,18978
20454,19057
20357,19154
20006,19154
19854,19053
19670,19016
19329,19016
19145,19053
18988,19158
18883,19315
18846,19500
18883,19684
18988,19841
19145,19946
19329,19983
19670,19983
19854,19946
20006,19845
20357,19845
20454,19942
20593,20000
20454,20057
20357,20154
20006,20154
19854,20053
19670,20016
19329,20016
19145,20053
18988,20158
18883,20315
18846,20500
18883,20684
18988,20841
19145,20946
19329,20983
19670,20983
19854,20946
20006,20845
20357,20845
20454,20942
20645,21021
20853,21021
21045,20942
21192,20795
21271,20604
21271,20396
21271,23700
18595,23700
18595,20000
18595,16750
18568,16617
18568,16617
18494,16505
18494,16505
18345,16356
18345,16256
18446,16104
18483,15920
18483,15579
18446,15395
18343,15241
18318,15117
18318,15117
18244,15005
18244,15005
17125,13887
17153,13750
17153,12750
17116,12565
17011,12408
16854,12303
16670,12266
16329,12266
16145,12303
15991,12406
15867,12431
15823,12460
15755,12505
15755,12505
15255,13005
15181,13117
15154,13250
15154,14500
15181,14632
15255,14744
15654,15143
15654,15243
15553,15395
15516,15579
15516,15920
15553,16104
15658,16261
15815,16366
16000,16403
16184,16366
16341,16261
16446,16104
16483,15920
16483,15579
16446,15395
16345,15243
16345,15000
16318,14867
16318,14867
16289,14823
16244,14755
16244,14755
15845,14356
15845,13393
16083,13154
16145,13196
16329,13233
16670,13233
16854,13196
17011,13091
17116,12934
17153,12750
17153,13750
17116,13565
17011,13408
16854,13303
16670,13266
16329,13266
16145,13303
15988,13408
15883,13565
15846,13750
15883,13934
15988,14091
16145,14196
16329,14233
16494,14233
17595,15333
17553,15395
17516,15579
17516,15920
17553,16104
17654,16256
17654,16500
17681,16632
17755,16744
17904,16893
17904,19856
17845,19916
17845,19250
17845,17000
17818,16867
17818,16867
17789,16823
17744,16755
17744,16755
17345,16356
17345,16256
17446,16104
17483,15920
17483,15579
17446,15395
17341,15238
17184,15133
17000,15096
16815,15133
16658,15238
16553,15395
16516,15579
16516,15920
16553,16104
16654,16256
16654,16500
16681,16632
16755,16744
17154,17143
17154,19106
17106,19154
17006,19154
16854,19053
16670,19016
16329,19016
16145,19053
15988,19158
15883,19315
15846,19500
15883,19684
15988,19841
16145,19946
16329,19983
16670,19983
16854,19946
17006,19845
17250,19845
17382,19818
17494,19744
17744,19494
17744,19494
17744,19494
17818,19382
17818,19382
17845,19250
17845,19916
17606,20154
17006,20154
16854,20053
16670,20016
16329,20016
16145,20053
15988,20158
15883,20315
15846,20500
15883,20684
15988,20841
16145,20946
16329,20983
16670,20983
16854,20946
17006,20845
17750,20845
17882,20818
17994,20744
18494,20244
18494,20244
18494,20244
18539,20176
18568,20132
18568,20132
18595,20000
18595,23700
11300,23700
11300,7550
26450,7550
26450,23700
" /> 
</g>
<g style="fill:#000000; fill-opacity:0.0; 
stroke:#000000; stroke-width:100; stroke-opacity:1; 
stroke-linecap:round; stroke-linejoin:round;">
<polyline fill="none;"
points="26450,23700
26011,23700
26011,22551
26011,22500
26011,22448
26011,22447
26011,22447
26011,22447
25973,22256
25933,22160
25933,22160
25825,21998
25825,21998
25751,21924
25746,21921
25746,20102
25746,18102
25633,17827
25423,17617
25305,17568
25305,14181
25442,14045
25521,13854
25521,13646
25442,13454
25295,13307
25104,13228
24896,13228
24704,13307
24557,13454
24478,13645
24478,13853
24557,14045
24694,14182
24694,17568
24577,17616
24367,17826
24271,18055
24271,16146
24192,15954
24095,15857
24095,10750
24068,10617
23994,10505
22744,9255
22744,9255
21994,8505
21994,8505
21744,8255
21632,8181
21500,8154
18750,8154
17500,8154
15500,8154
15367,8181
15255,8255
15255,8255
15005,8505
15005,8505
14505,9005
14505,9005
14005,9505
13931,9617
13904,9750
13904,11750
13904,12000
13904,15856
13261,16500
13261,8801
13261,8750
13261,8698
13261,8697
13261,8697
13261,8697
13223,8506
13183,8410
13183,8410
13075,8248
13075,8248
13001,8174
12839,8066
12839,8066
12743,8026
12551,7988
12447,7988
12446,7988
12256,8026
12160,8066
12160,8066
11998,8174
11998,8174
11924,8248
11816,8410
11816,8410
11776,8506
11738,8698
11738,8750
11738,8801
11776,8993
11816,9089
11816,9089
11924,9251
11998,9325
11998,9325
12160,9433
12160,9433
12256,9473
12446,9511
12447,9511
12551,9511
12743,9473
12839,9433
12839,9433
13001,9325
13075,9251
13075,9251
13183,9089
13183,9089
13223,8993
13261,8802
13261,8802
13261,8802
13261,8801
13261,16500
13005,16755
13005,16755
12255,17505
12181,17617
12157,17735
12085,17765
12015,17834
11978,17925
11978,18023
11978,18573
12015,18664
12084,18734
12154,18763
12154,21253
11951,21253
11860,21290
11790,21359
11753,21450
11753,21548
11753,22548
11790,22639
11859,22709
11950,22746
12048,22746
13048,22746
13139,22709
13209,22640
13246,22549
13246,22451
13246,21451
13209,21360
13140,21290
13049,21253
12951,21253
12845,21253
12845,18763
12914,18734
12984,18665
13021,18574
13021,18476
13021,17926
12984,17835
12943,17794
13393,17345
14607,17345
14704,17442
14895,17521
15033,17521
15255,17744
15255,17744
15323,17789
15367,17818
15367,17818
15500,17845
15993,17845
16145,17946
16329,17983
16670,17983
16854,17946
17011,17841
17116,17684
17153,17500
17116,17315
17011,17158
16854,17053
16670,17016
16329,17016
16145,17053
15993,17154
15643,17154
15521,17033
15521,16896
15442,16704
15295,16557
15104,16478
14896,16478
14704,16557
14607,16654
14083,16654
14494,16244
14494,16244
14494,16244
14539,16176
14568,16132
14568,16132
14595,16000
14595,12000
14595,11750
14595,10083
14728,10216
14728,10353
14807,10545
14954,10692
15145,10771
15283,10771
15505,10994
15505,10994
15573,11039
15617,11068
15617,11068
15750,11095
15993,11095
16145,11196
16329,11233
16670,11233
16854,11196
17011,11091
17116,10934
17153,10750
17116,10565
17011,10408
16854,10303
16670,10266
16329,10266
16145,10303
15993,10404
15893,10404
15771,10283
15771,10146
15692,9954
15545,9807
15354,9728
15216,9728
15095,9606
15095,9393
15494,8994
15494,8994
15494,8994
15643,8845
17500,8845
17916,8845
17606,9154
16892,9154
16795,9057
16604,8978
16396,8978
16204,9057
16057,9204
15978,9395
15978,9603
16057,9795
16204,9942
16395,10021
16603,10021
16795,9942
16892,9845
17750,9845
17882,9818
17994,9744
18893,8845
21356,8845
21505,8994
21505,8994
22255,9744
22255,9744
23404,10893
23404,15857
23307,15954
23228,16145
23228,16353
23307,16545
23454,16692
23645,16771
23853,16771
24045,16692
24192,16545
24271,16354
24271,16146
24271,18055
24253,18100
24253,18397
24366,18672
24576,18882
24850,18996
25147,18996
25422,18883
25632,18673
25746,18399
25746,18102
25746,20102
25633,19827
25423,19617
25149,19503
24852,19503
24577,19616
24367,19826
24318,19944
23095,19944
23095,18000
23095,16000
23068,15867
23068,15867
23039,15823
23021,15797
23021,13646
22942,13454
22795,13307
22604,13228
22396,13228
22204,13307
22107,13404
21271,13404
21271,12646
21271,10646
21192,10454
21045,10307
20854,10228
20716,10228
20021,9533
20021,9396
19942,9204
19795,9057
19604,8978
19396,8978
19204,9057
19057,9204
18978,9395
18978,9603
19057,9795
19204,9942
19395,10021
19533,10021
19805,10293
19670,10266
19329,10266
19145,10303
18988,10408
18883,10565
18846,10750
18883,10934
18988,11091
19145,11196
19329,11233
19670,11233
19854,11196
20006,11095
20357,11095
20454,11192
20645,11271
20853,11271
21045,11192
21192,11045
21271,10854
21271,10646
21271,12646
21192,12454
21045,12307
20854,12228
20646,12228
20454,12307
20357,12404
20006,12404
19854,12303
19670,12266
19329,12266
19145,12303
18988,12408
18883,12565
18846,12750
18883,12934
18988,13091
19145,13196
19329,13233
19670,13233
19854,13196
20006,13095
20357,13095
20454,13192
20645,13271
20853,13271
21045,13192
21192,13045
21271,12854
21271,12646
21271,13404
20006,13404
19854,13303
19670,13266
19329,13266
19145,13303
18988,13408
18883,13565
18846,13750
18883,13934
18988,14091
19145,14196
19329,14233
19670,14233
19854,14196
20006,14095
22107,14095
22204,14192
22395,14271
22603,14271
22795,14192
22942,14045
23021,13854
23021,13646
23021,15797
22994,15755
22994,15755
21994,14755
21994,14755
21744,14505
21632,14431
21500,14404
20500,14404
19143,14404
18994,14255
18994,14255
18744,14005
18744,14005
18595,13856
18595,12643
18744,12494
18744,12494
18744,12494
19083,12154
19145,12196
19329,12233
19670,12233
19854,12196
20011,12091
20116,11934
20153,11750
20116,11565
20011,11408
19854,11303
19670,11266
19329,11266
19145,11303
18991,11406
18867,11431
18823,11460
18755,11505
18755,11505
18255,12005
18255,12005
18005,12255
17931,12367
17904,12500
17904,14000
17931,14132
18005,14244
18255,14494
18255,14494
18505,14744
18505,14744
18755,14994
18755,14994
18867,15068
18867,15068
19000,15095
19666,15095
19414,15347
19341,15238
19184,15133
19000,15096
18815,15133
18658,15238
18553,15395
18516,15579
18516,15920
18553,16104
18658,16261
18815,16366
19000,16403
19184,16366
19341,16261
19446,16104
19448,16095
19500,16095
19632,16068
19744,15994
20643,15095
21356,15095
21505,15244
21505,15244
22404,16143
22404,17856
22106,18154
21271,18154
21271,17396
21192,17204
21095,17107
21095,16642
21192,16545
21271,16354
21271,16146
21192,15954
21045,15807
20854,15728
20646,15728
20454,15807
20307,15954
20228,16145
20228,16353
20307,16545
20404,16642
20404,17107
20357,17154
20006,17154
19854,17053
19670,17016
19329,17016
19145,17053
18988,17158
18883,17315
18846,17500
18883,17684
18988,17841
19145,17946
19329,17983
19670,17983
19854,17946
20006,17845
20357,17845
20454,17942
20645,18021
20853,18021
21045,17942
21192,17795
21271,17604
21271,17396
21271,18154
20006,18154
19854,18053
19670,18016
19329,18016
19145,18053
18988,18158
18883,18315
18846,18500
18883,18684
18988,18841
19145,18946
19329,18983
19670,18983
19854,18946
20006,18845
22250,18845
22382,18818
22494,18744
22994,18244
22994,18244
22994,18244
23039,18176
23068,18132
23068,18132
23095,18000
23095,19944
23000,19944
22882,19967
22861,19981
22854,19978
22646,19978
22454,20057
22307,20204
22228,20395
22228,20603
22307,20795
22454,20942
22645,21021
22853,21021
23045,20942
23192,20795
23271,20604
23271,20555
24318,20555
24366,20672
24576,20882
24850,20996
25147,20996
25422,20883
25632,20673
25746,20399
25746,20102
25746,21921
25589,21816
25589,21816
25493,21776
25301,21738
25197,21738
25196,21738
25006,21776
24910,21816
24910,21816
24748,21924
24748,21924
24674,21998
24566,22160
24566,22160
24526,22256
24488,22448
24488,22500
24488,22551
24526,22743
24566,22839
24566,22839
24674,23001
24748,23075
24748,23075
24910,23183
24910,23183
25006,23223
25196,23261
25197,23261
25301,23261
25493,23223
25589,23183
25589,23183
25751,23075
25825,23001
25825,23001
25933,22839
25933,22839
25973,22743
26011,22552
26011,22552
26011,22552
26011,22551
26011,23700
21271,23700
21271,20396
21192,20204
21045,20057
20906,19999
21045,19942
21192,19795
21271,19604
21271,19396
21192,19204
21045,19057
20854,18978
20646,18978
20454,19057
20357,19154
20006,19154
19854,19053
19670,19016
19329,19016
19145,19053
18988,19158
18883,19315
18846,19500
18883,19684
18988,19841
19145,19946
19329,19983
19670,19983
19854,19946
20006,19845
20357,19845
20454,19942
20593,20000
20454,20057
20357,20154
20006,20154
19854,20053
19670,20016
19329,20016
19145,20053
18988,20158
18883,20315
18846,20500
18883,20684
18988,20841
19145,20946
19329,20983
19670,20983
19854,20946
20006,20845
20357,20845
20454,20942
20645,21021
20853,21021
21045,20942
21192,20795
21271,20604
21271,20396
21271,23700
18595,23700
18595,20000
18595,16750
18568,16617
18568,16617
18494,16505
18494,16505
18345,16356
18345,16256
18446,16104
18483,15920
18483,15579
18446,15395
18343,15241
18318,15117
18318,15117
18244,15005
18244,15005
17125,13887
17153,13750
17153,12750
17116,12565
17011,12408
16854,12303
16670,12266
16329,12266
16145,12303
15991,12406
15867,12431
15823,12460
15755,12505
15755,12505
15255,13005
15181,13117
15154,13250
15154,14500
15181,14632
15255,14744
15654,15143
15654,15243
15553,15395
15516,15579
15516,15920
15553,16104
15658,16261
15815,16366
16000,16403
16184,16366
16341,16261
16446,16104
16483,15920
16483,15579
16446,15395
16345,15243
16345,15000
16318,14867
16318,14867
16289,14823
16244,14755
16244,14755
15845,14356
15845,13393
16083,13154
16145,13196
16329,13233
16670,13233
16854,13196
17011,13091
17116,12934
17153,12750
17153,13750
17116,13565
17011,13408
16854,13303
16670,13266
16329,13266
16145,13303
15988,13408
15883,13565
15846,13750
15883,13934
15988,14091
16145,14196
16329,14233
16494,14233
17595,15333
17553,15395
17516,15579
17516,15920
17553,16104
17654,16256
17654,16500
17681,16632
17755,16744
17904,16893
17904,19856
17845,19916
17845,19250
17845,17000
17818,16867
17818,16867
17789,16823
17744,16755
17744,16755
17345,16356
17345,16256
17446,16104
17483,15920
17483,15579
17446,15395
17341,15238
17184,15133
17000,15096
16815,15133
16658,15238
16553,15395
16516,15579
16516,15920
16553,16104
16654,16256
16654,16500
16681,16632
16755,16744
17154,17143
17154,19106
17106,19154
17006,19154
16854,19053
16670,19016
16329,19016
16145,19053
15988,19158
15883,19315
15846,19500
15883,19684
15988,19841
16145,19946
16329,19983
16670,19983
16854,19946
17006,19845
17250,19845
17382,19818
17494,19744
17744,19494
17744,19494
17744,19494
17818,19382
17818,19382
17845,19250
17845,19916
17606,20154
17006,20154
16854,20053
16670,20016
16329,20016
16145,20053
15988,20158
15883,20315
15846,20500
15883,20684
15988,20841
16145,20946
16329,20983
16670,20983
16854,20946
17006,20845
17750,20845
17882,20818
17994,20744
18494,20244
18494,20244
18494,20244
18539,20176
18568,20132
18568,20132
18595,20000
18595,23700
11300,23700
11300,7550
26450,7550
26450,23700
" /> 
</g>
<g style="fill:#FFFFFF; fill-opacity:0.0; 
stroke:#FFFFFF; stroke-width:59.0551; stroke-opacity:1; 
stroke-linecap:round; stroke-linejoin:round;">
</g>
<g style="fill:#FFFFFF; fill-opacity:1.0; 
stroke:#FFFFFF; stroke-width:59.0551; stroke-opacity:1; 
stroke-linecap:round; stroke-linejoin:round;">
<circle cx="16500" cy="9500" r="39.3701" /> 
<circle cx="19500" cy="9500" r="39.3701" /> 
<circle cx="23750" cy="16250" r="39.3701" /> 
<circle cx="20750" cy="16250" r="39.3701" /> 
<circle cx="16500" cy="10750" r="39.3701" /> 
<circle cx="16500" cy="11750" r="39.3701" /> 
<circle cx="16500" cy="12750" r="39.3701" /> 
<circle cx="16500" cy="13750" r="39.3701" /> 
<circle cx="19500" cy="13750" r="39.3701" /> 
<circle cx="19500" cy="12750" r="39.3701" /> 
<circle cx="19500" cy="11750" r="39.3701" /> 
<circle cx="19500" cy="10750" r="39.3701" /> 
<circle cx="15250" cy="10250" r="39.3701" /> 
<circle cx="15250" cy="12250" r="39.3701" /> 
<circle cx="20750" cy="12750" r="39.3701" /> 
<circle cx="22750" cy="12750" r="39.3701" /> 
<circle cx="25000" cy="13750" r="39.3701" /> 
<circle cx="22500" cy="13750" r="39.3701" /> 
<circle cx="20750" cy="10750" r="39.3701" /> 
<circle cx="21750" cy="10750" r="39.3701" /> 
<circle cx="12500" cy="22000" r="39.3701" /> 
<circle cx="14500" cy="22000" r="39.3701" /> 
<circle cx="25000" cy="18250" r="39.3701" /> 
<circle cx="25000" cy="20250" r="39.3701" /> 
<circle cx="12500" cy="18250" r="39.3701" /> 
<circle cx="13500" cy="18250" r="39.3701" /> 
<circle cx="15000" cy="17000" r="39.3701" /> 
<circle cx="15000" cy="19000" r="39.3701" /> 
<circle cx="20750" cy="19500" r="39.3701" /> 
<circle cx="22750" cy="19500" r="39.3701" /> 
<circle cx="22750" cy="20500" r="39.3701" /> 
<circle cx="20750" cy="20500" r="39.3701" /> 
<circle cx="20750" cy="17500" r="39.3701" /> 
<circle cx="21750" cy="17500" r="39.3701" /> 
<circle cx="16500" cy="17500" r="39.3701" /> 
<circle cx="16500" cy="18500" r="39.3701" /> 
<circle cx="16500" cy="19500" r="39.3701" /> 
<circle cx="16500" cy="20500" r="39.3701" /> 
<circle cx="19500" cy="20500" r="39.3701" /> 
<circle cx="19500" cy="19500" r="39.3701" /> 
<circle cx="19500" cy="18500" r="39.3701" /> 
<circle cx="19500" cy="17500" r="39.3701" /> 
<circle cx="19000" cy="15750" r="39.3701" /> 
<circle cx="18000" cy="15750" r="39.3701" /> 
<circle cx="17000" cy="15750" r="39.3701" /> 
<circle cx="16000" cy="15750" r="39.3701" /> 
</g> 
</svg>
